<svg id="Слой_1" data-name="Слой 1" xmlns="http://www.w3.org/2000/svg" xmlns:xlink="http://www.w3.org/1999/xlink" viewBox="0 0 56.69 56.69"><defs><style>.cls-1{fill:none;}.cls-2{clip-path:url(#clip-path);}.cls-3{clip-path:url(#clip-path-2);}.cls-4{fill:url(#Безымянный_градиент_28);}.cls-5{fill:#fff;fill-opacity:0;}.cls-5,.cls-6,.cls-7{fill-rule:evenodd;}.cls-6{fill:#213b75;}.cls-7{fill:#e52524;}</style><clipPath id="clip-path"><rect class="cls-1" x="-121.76" y="-15.72" width="82.26" height="82.25"/></clipPath><clipPath id="clip-path-2"><rect class="cls-1" x="-138.67" y="-32.63" width="116.08" height="116.08" transform="translate(-36.79 -46.88) rotate(-41.28)"/></clipPath><radialGradient id="Безымянный_градиент_28" cx="121.52" cy="32.46" r="26.38" gradientTransform="matrix(4.53, -3.98, 3.98, 4.53, -839.49, 427.41)" gradientUnits="userSpaceOnUse"><stop offset="0" stop-color="#79b935"/><stop offset="0.25" stop-color="#79b935"/><stop offset="0.27" stop-color="#79b935"/><stop offset="0.29" stop-color="#78b835"/><stop offset="0.3" stop-color="#78b835"/><stop offset="0.3" stop-color="#77b836"/><stop offset="0.3" stop-color="#77b835"/><stop offset="0.31" stop-color="#76b836"/><stop offset="0.31" stop-color="#76b836"/><stop offset="0.32" stop-color="#76b835"/><stop offset="0.32" stop-color="#74b735"/><stop offset="0.32" stop-color="#74b735"/><stop offset="0.33" stop-color="#73b736"/><stop offset="0.33" stop-color="#72b737"/><stop offset="0.34" stop-color="#72b737"/><stop offset="0.34" stop-color="#72b737"/><stop offset="0.34" stop-color="#70b638"/><stop offset="0.35" stop-color="#70b637"/><stop offset="0.35" stop-color="#70b637"/><stop offset="0.36" stop-color="#6fb637"/><stop offset="0.36" stop-color="#6eb637"/><stop offset="0.36" stop-color="#6cb539"/><stop offset="0.37" stop-color="#6cb539"/><stop offset="0.37" stop-color="#6cb538"/><stop offset="0.38" stop-color="#6bb538"/><stop offset="0.38" stop-color="#6bb539"/><stop offset="0.38" stop-color="#69b538"/><stop offset="0.39" stop-color="#69b538"/><stop offset="0.39" stop-color="#68b438"/><stop offset="0.39" stop-color="#68b438"/><stop offset="0.4" stop-color="#67b439"/><stop offset="0.4" stop-color="#67b439"/><stop offset="0.41" stop-color="#67b439"/><stop offset="0.41" stop-color="#65b338"/><stop offset="0.41" stop-color="#64b338"/><stop offset="0.42" stop-color="#64b338"/><stop offset="0.42" stop-color="#64b338"/><stop offset="0.43" stop-color="#62b338"/><stop offset="0.43" stop-color="#62b338"/><stop offset="0.43" stop-color="#61b23a"/><stop offset="0.44" stop-color="#61b23a"/><stop offset="0.44" stop-color="#5fb23a"/><stop offset="0.45" stop-color="#5eb23a"/><stop offset="0.45" stop-color="#5cb13a"/><stop offset="0.45" stop-color="#5cb13a"/><stop offset="0.46" stop-color="#5bb13a"/><stop offset="0.46" stop-color="#59b13b"/><stop offset="0.46" stop-color="#58b03b"/><stop offset="0.47" stop-color="#56b03b"/><stop offset="0.47" stop-color="#56b03c"/><stop offset="0.48" stop-color="#53af3c"/><stop offset="0.48" stop-color="#51af3c"/><stop offset="0.48" stop-color="#51af3c"/><stop offset="0.49" stop-color="#50ae3b"/><stop offset="0.49" stop-color="#4eae3b"/><stop offset="0.5" stop-color="#4eae3b"/><stop offset="0.5" stop-color="#4cae3c"/><stop offset="0.5" stop-color="#4cae3c"/><stop offset="0.51" stop-color="#4bad3c"/><stop offset="0.51" stop-color="#49ad3b"/><stop offset="0.52" stop-color="#47ad3c"/><stop offset="0.52" stop-color="#47ad3c"/><stop offset="0.52" stop-color="#45ac3c"/><stop offset="0.53" stop-color="#43ac3d"/><stop offset="0.53" stop-color="#41ac3d"/><stop offset="0.54" stop-color="#41ac3d"/><stop offset="0.54" stop-color="#3fab3d"/><stop offset="0.54" stop-color="#3dab3e"/><stop offset="0.55" stop-color="#3dab3e"/><stop offset="0.55" stop-color="#39aa3d"/><stop offset="0.55" stop-color="#39aa3d"/><stop offset="0.56" stop-color="#35aa3e"/><stop offset="0.56" stop-color="#32a93d"/><stop offset="0.57" stop-color="#32a93d"/><stop offset="0.57" stop-color="#30a93e"/><stop offset="0.57" stop-color="#2ca73e"/><stop offset="0.58" stop-color="#2ca73e"/><stop offset="0.58" stop-color="#2aa63e"/><stop offset="0.59" stop-color="#2aa63f"/><stop offset="0.59" stop-color="#27a63f"/><stop offset="0.59" stop-color="#26a43e"/><stop offset="0.6" stop-color="#26a43e"/><stop offset="0.6" stop-color="#24a33f"/><stop offset="0.61" stop-color="#24a33f"/><stop offset="0.61" stop-color="#21a33f"/><stop offset="0.61" stop-color="#1fa13f"/><stop offset="0.62" stop-color="#1fa140"/><stop offset="0.62" stop-color="#1da040"/><stop offset="0.63" stop-color="#1da040"/><stop offset="0.63" stop-color="#1aa040"/><stop offset="0.63" stop-color="#159f40"/><stop offset="0.64" stop-color="#179e40"/><stop offset="0.64" stop-color="#159d40"/><stop offset="0.64" stop-color="#139d40"/><stop offset="0.65" stop-color="#109c42"/><stop offset="0.65" stop-color="#109c42"/><stop offset="0.66" stop-color="#129c42"/><stop offset="0.66" stop-color="#0f9a42"/><stop offset="0.66" stop-color="#0e9b42"/><stop offset="0.67" stop-color="#0b9944"/><stop offset="0.67" stop-color="#099943"/><stop offset="0.68" stop-color="#059843"/><stop offset="0.68" stop-color="#059843"/><stop offset="0.68" stop-color="#0c954d"/><stop offset="0.69" stop-color="#0a8d64"/><stop offset="0.69" stop-color="#13837c"/><stop offset="0.7" stop-color="#1b7892"/><stop offset="0.7" stop-color="#1b6ba6"/><stop offset="0.7" stop-color="#2062ad"/><stop offset="0.71" stop-color="#285faa"/><stop offset="0.71" stop-color="#2960ab"/><stop offset="0.71" stop-color="#2962ac"/><stop offset="0.72" stop-color="#2863ad"/><stop offset="0.72" stop-color="#2765af"/><stop offset="0.73" stop-color="#2566af"/><stop offset="0.73" stop-color="#2767b0"/><stop offset="0.73" stop-color="#2869b1"/><stop offset="0.74" stop-color="#276ab2"/><stop offset="0.74" stop-color="#256cb4"/><stop offset="0.75" stop-color="#266db5"/><stop offset="0.75" stop-color="#236fb6"/><stop offset="0.75" stop-color="#256fb7"/><stop offset="0.76" stop-color="#2670b7"/><stop offset="0.76" stop-color="#2372b9"/><stop offset="0.77" stop-color="#2473ba"/><stop offset="0.77" stop-color="#2375bb"/><stop offset="0.77" stop-color="#2276bb"/><stop offset="0.78" stop-color="#2476bc"/><stop offset="0.78" stop-color="#2279be"/><stop offset="0.79" stop-color="#2479be"/><stop offset="0.79" stop-color="#237bc0"/><stop offset="0.79" stop-color="#257cc0"/><stop offset="0.8" stop-color="#247ec2"/><stop offset="0.8" stop-color="#237fc3"/><stop offset="0.8" stop-color="#2482c5"/><stop offset="0.81" stop-color="#2682c5"/><stop offset="0.81" stop-color="#2483c6"/><stop offset="0.82" stop-color="#2485c7"/><stop offset="0.82" stop-color="#2486c8"/><stop offset="0.82" stop-color="#2488ca"/><stop offset="0.83" stop-color="#258acb"/><stop offset="0.83" stop-color="#228bcc"/><stop offset="0.84" stop-color="#238ccd"/><stop offset="0.84" stop-color="#238ece"/><stop offset="0.84" stop-color="#258fcf"/><stop offset="0.85" stop-color="#2591d0"/><stop offset="0.85" stop-color="#2792d1"/><stop offset="0.86" stop-color="#2794d2"/><stop offset="0.86" stop-color="#2695d3"/><stop offset="0.86" stop-color="#2597d4"/><stop offset="0.87" stop-color="#2898d5"/><stop offset="0.87" stop-color="#229ad7"/><stop offset="0.88" stop-color="#259bd7"/><stop offset="0.88" stop-color="#249dd9"/><stop offset="0.88" stop-color="#269fda"/><stop offset="0.89" stop-color="#25a1db"/><stop offset="0.89" stop-color="#28a2dc"/><stop offset="0.89" stop-color="#28a3dd"/><stop offset="0.9" stop-color="#2aa5de"/><stop offset="0.9" stop-color="#2aa5de"/><stop offset="0.91" stop-color="#29a5df"/><stop offset="0.91" stop-color="#29a5df"/><stop offset="0.91" stop-color="#29a5df"/><stop offset="0.92" stop-color="#29a5df"/><stop offset="0.92" stop-color="#27a6df"/><stop offset="0.93" stop-color="#2ba6df"/><stop offset="0.93" stop-color="#2ba6df"/><stop offset="0.93" stop-color="#2aa7e0"/><stop offset="0.94" stop-color="#2aa7e0"/><stop offset="0.94" stop-color="#2ea7df"/><stop offset="0.95" stop-color="#2ba8e1"/><stop offset="0.95" stop-color="#2ba8e1"/><stop offset="0.95" stop-color="#2ba8e1"/><stop offset="0.96" stop-color="#29a9e1"/><stop offset="0.96" stop-color="#2da9e1"/><stop offset="0.96" stop-color="#2da9e1"/><stop offset="0.97" stop-color="#2da9e1"/><stop offset="0.97" stop-color="#2baae2"/><stop offset="0.98" stop-color="#2daae1"/><stop offset="0.98" stop-color="#2daae1"/><stop offset="0.98" stop-color="#2aabe3"/><stop offset="0.99" stop-color="#2aabe3"/><stop offset="0.99" stop-color="#2aabe3"/><stop offset="1" stop-color="#2cace3"/><stop offset="1" stop-color="#2cace3"/></radialGradient></defs><g class="cls-2"><g class="cls-3"><path class="cls-4" d="M-86,107.31l-76.58-87.23L-75.3-56.5,1.27,30.74Z"/></g></g><polygon class="cls-5" points="-1.51 9.4 58.54 9.4 58.54 47.29 -1.51 47.29 -1.51 9.4"/><path class="cls-6" d="M55.19,13.56c-1.55-2.64-9.7-.92-19.87,3.74a10.75,10.75,0,0,1,1.44,1.32c7.81-3.33,13.84-4.37,15.1-2.19,1.44,2.47-4.25,8.62-13.38,14.71l.11.11C49.74,24,56.92,16.55,55.19,13.56Z"/><path class="cls-6" d="M7.07,42.28c-.87-1.55,1-4.48,4.65-8h0a5.44,5.44,0,0,1-.86-.29A.06.06,0,0,1,10.8,34l-.86-.34C5.51,37.68,3.27,41.13,4.31,43c1.26,2.12,6.72,1.43,14-1.27l-.06-.11c-5.85,2-10.16,2.41-11.19.69Z"/><path class="cls-7" d="M2.47,24.42c0-6.26,8.27-11.37,18.44-11.37S39.4,18.16,39.4,24.42,31.13,35.85,20.91,35.85,2.47,30.73,2.47,24.42Zm10.45-8.85,3.51,11.89h0L20.1,14a20.66,20.66,0,0,0-7.18,1.55Zm7,4.94-1.9,7h3.85l-1.95-6.95Zm5.46,7,3.33-12A21.25,21.25,0,0,0,21.48,14l3.91,13.44Zm-12.52,0L11,20.51l-1.89,7Zm21.88,1.38a7.66,7.66,0,0,0,1.43-4.42c0-3.05-1.89-5.75-5-7.7l3.56,12.12Zm-3.91-1.38-1.95-6.95-1.9,7Zm.4,1.38H26.59l-.4,1.49,1.09,3.56A15,15,0,0,0,32,31.6l-.75-2.76ZM14.65,33.89l-1.38-5.05H8.67l-.4,1.43A15.37,15.37,0,0,0,14.65,34v-.06Zm7.63-5.05H17.63l-1.49,5.51a20.94,20.94,0,0,0,4.77.52,17.13,17.13,0,0,0,3-.23l-1.61-5.8ZM10.34,17c-2.87,1.9-4.65,4.54-4.65,7.47a7.77,7.77,0,0,0,1.38,4.36L10.34,17Z"/></svg>