<svg id="Слой_1" data-name="Слой 1" xmlns="http://www.w3.org/2000/svg" viewBox="0 0 56.69 56.69"><defs><style>.cls-1{fill:#e52525;}</style></defs><path class="cls-1" d="M30.81,38.76h1.26a6.8,6.8,0,0,0,5.62-10H30.81Z"/><rect class="cls-1" x="23.87" y="28.66" width="6.31" height="10.1"/><path class="cls-1" d="M37.31,28A7.15,7.15,0,0,0,34.85,26a4.5,4.5,0,0,0,1.89-3.6,4.4,4.4,0,0,0-4.42-4.42H30.81V28Z"/><rect class="cls-1" x="23.87" y="17.93" width="6.31" height="10.1"/><path class="cls-1" d="M47.85,38.76h1.26a6.64,6.64,0,0,0,6.43-6.69,6.52,6.52,0,0,0-.82-3.34H47.85Z"/><rect class="cls-1" x="40.9" y="28.66" width="6.31" height="10.1"/><path class="cls-1" d="M54.35,28A7.18,7.18,0,0,0,51.88,26a4.49,4.49,0,0,0,1.9-3.6,4.4,4.4,0,0,0-4.42-4.42H47.85V28Z"/><rect class="cls-1" x="40.9" y="17.93" width="6.31" height="10.1"/><polygon class="cls-1" points="4.75 28.66 1.15 38.76 6.39 38.76 7.9 34.34 11.24 34.34 11.24 28.66 4.75 28.66"/><polygon class="cls-1" points="11.24 17.93 8.53 17.93 4.93 28.03 11.24 28.03 11.24 17.93"/><polygon class="cls-1" points="11.88 34.34 15.22 34.34 16.73 38.76 21.97 38.76 18.38 28.66 11.88 28.66 11.88 34.34"/><polygon class="cls-1" points="18.19 28.03 14.59 17.93 11.88 17.93 11.88 28.03 18.19 28.03"/></svg>