<svg id="Слой_1" data-name="Слой 1" xmlns="http://www.w3.org/2000/svg" viewBox="0 0 56.69 56.69"><defs><style>.cls-1{fill:#010101;}.cls-2{fill:#179bd7;}</style></defs><path id="path6499" class="cls-1" d="M8.55,47.87h2.12L9.62,44.71h0Zm3.1-5.34,2.45,7.33c.29.9.49,1.1,1,1.1h.49v1.29H10.25V51h.44c.44,0,.81-.06.81-.22a2,2,0,0,0-.08-.53l-.3-1.05h-3l-.18.59a3.16,3.16,0,0,0-.21.93c0,.24.51.28.91.28h.42v1.29H4.75V51h.5c.51,0,.71-.2,1-1.1l2.45-7.33Z"/><g id="g6645"><path id="path6497" class="cls-2" d="M45.67,2.86H4.75V9.15H43.63a2,2,0,0,1,2,2V32.31a2,2,0,0,1-2,2H13.07a2,2,0,0,1-2-2V23.76a2,2,0,0,1,2-2H39.35V15.45H11a6.27,6.27,0,0,0-6.27,6.26V34.34A6.27,6.27,0,0,0,11,40.61H45.67a6.26,6.26,0,0,0,6.27-6.27V9.13a6.27,6.27,0,0,0-6.27-6.27"/></g><path id="path6501" class="cls-1" d="M18.89,50.18c0,1.5.34,2.4,1.16,2.4s1.16-.9,1.16-2.4-.34-2.39-1.16-2.39-1.16.9-1.16,2.39M16.45,45.7c0-.42-.1-.63-.52-.63h-.68V43.89h3.64v3.65a2.68,2.68,0,0,1,1.89-1c2.2,0,3,1.72,3,3.65s-.82,3.66-3,3.66a2.55,2.55,0,0,1-2.26-1.13l-.42.91H16.45Z"/><path id="path6503" class="cls-1" d="M27.12,50.18c0,1.5.34,2.4,1.16,2.4s1.16-.9,1.16-2.4-.34-2.39-1.16-2.39-1.16.9-1.16,2.39M24.68,45.7c0-.42-.1-.63-.52-.63h-.68V43.89h3.64v3.65a2.68,2.68,0,0,1,1.89-1c2.2,0,3,1.72,3,3.65s-.83,3.66-3,3.66a2.55,2.55,0,0,1-2.26-1.13l-.42.91H24.68Z"/><path id="path6505" class="cls-1" d="M35.34,50.18c0,1.73.3,2.48,1.18,2.48s1.19-.75,1.19-2.48-.31-2.47-1.19-2.47-1.18.74-1.18,2.47m5,0a3.48,3.48,0,0,1-3.79,3.66,3.66,3.66,0,1,1,0-7.31,3.48,3.48,0,0,1,3.79,3.65"/><path id="path6507" class="cls-1" d="M50.77,50.3v1.15c0,.67-.15,1.07-.71,1.07a.49.49,0,0,1-.49-.56v-4h1.8V46.75h-1.8V44H48.11c-.12,1.21-.5,2.72-2,2.72H43.86V44H42.41c-.12,1.21-.5,2.72-2,2.72v1.18h1v3.68a2,2,0,0,0,2.34,2.23c1.76,0,2.46-.79,2.46-2.23V50.3H45.06v1.15c0,.67-.14,1.07-.7,1.07a.49.49,0,0,1-.5-.56v-4h3.27v3.68a2,2,0,0,0,2.35,2.23c1.76,0,2.46-.79,2.46-2.23V50.3Z"/></svg>