<svg id="Слой_1" data-name="Слой 1" xmlns="http://www.w3.org/2000/svg" viewBox="0 0 56.69 56.69"><defs><style>.cls-1{fill:#1d2545;}</style></defs><path class="cls-1" d="M55.1,32.9c0-.59-.33-.8-.88-.8H50.1A2.44,2.44,0,0,1,47.39,30h5.72a2.05,2.05,0,1,0,0-4.1H50a3.43,3.43,0,0,0-3.74,3.6A3.43,3.43,0,0,0,50,33.1H55.1Zm-5-6H53c1,0,1.23.63,1.23,1.05S54,29,53,29H47.39A2.43,2.43,0,0,1,50.11,26.91ZM38.43,32.64c-.29.42-.5.57-.76.57s-.5-.21-.76-.57L32.15,25.9h.64a1.18,1.18,0,0,1,1.17.67L37.69,32l3.74-5.47a1.16,1.16,0,0,1,1.16-.65h.56S38.94,31.93,38.43,32.64Zm-27.16.46a.72.72,0,0,1-.78-.7l-.15-.78a3.25,3.25,0,0,1-3,1.48H5.19a3.44,3.44,0,0,1-3.78-3.6,3.44,3.44,0,0,1,3.78-3.6H7.36a3.36,3.36,0,0,1,3.56,2.83c.23,1.29.79,4.37.79,4.37ZM7.12,26.91H5.26a2.6,2.6,0,1,0,0,5.19H7.12a2.6,2.6,0,1,0,0-5.19Zm37.44-1.83a.52.52,0,0,0,.54-.57v-.24a.54.54,0,1,0-1.08,0v.24A.51.51,0,0,0,44.56,25.08ZM44,25.9h.25c.49,0,.81.23.81.93V33.1h-.27c-.54,0-.8-.3-.8-.91,0-.09,0-6.29,0-6.29Zm-30.69.94a3.52,3.52,0,0,1,2.56-.94h2.17a3.44,3.44,0,0,1,3.78,3.6,3.44,3.44,0,0,1-3.78,3.6H15.9a3.44,3.44,0,0,1-3.63-3.6v-6h.33a.65.65,0,0,1,.74.71Zm2.8,5.26H18a2.6,2.6,0,1,0,0-5.19H16.14a2.6,2.6,0,1,0,0,5.19ZM24,26.84a3.56,3.56,0,0,1,2.57-.94h2.17a3.44,3.44,0,0,1,3.78,3.6,3.44,3.44,0,0,1-3.78,3.6H26.55a3.44,3.44,0,0,1-3.63-3.6v-6h.33a.65.65,0,0,1,.73.71Zm2.81,5.26h1.85a2.6,2.6,0,1,0,0-5.19H26.79A2.49,2.49,0,0,0,24,29.5,2.51,2.51,0,0,0,26.79,32.1Z"/></svg>