<svg id="Слой_1" data-name="Слой 1" xmlns="http://www.w3.org/2000/svg" xmlns:xlink="http://www.w3.org/1999/xlink" viewBox="0 0 56.69 56.69"><defs><style>.cls-1{fill:none;}.cls-2{clip-path:url(#clip-path);}.cls-3{fill:#0a111d;}.cls-4{fill:#f0f0f0;fill-rule:evenodd;}</style><clipPath id="clip-path"><rect class="cls-1" x="1.78" y="1.78" width="53.13" height="53.13"/></clipPath></defs><g id="surface1"><g class="cls-2"><g id="g9"><path id="path7" class="cls-3" d="M28.35,1.78A26.57,26.57,0,1,0,54.91,28.35,26.56,26.56,0,0,0,28.35,1.78"/></g></g><path id="path11" class="cls-4" d="M43.94,21.07a7.29,7.29,0,1,0,7.22,8.26H47a3.21,3.21,0,1,1,0-1.95h4.16a7.28,7.28,0,0,0-7.22-6.31M12.71,31.56a3.21,3.21,0,1,1,3.21-3.21,3.2,3.2,0,0,1-3.21,3.21m7.29,4V28.36a7.29,7.29,0,1,0-7.29,7.29A4.91,4.91,0,0,0,16,34.3v1.22Zm8.31-10.37a3.21,3.21,0,1,1-3.2,3.21,3.21,3.21,0,0,1,3.2-3.21M21,17.48V28.36a7.29,7.29,0,1,0,7.29-7.29,5.78,5.78,0,0,0-3.2,1V17.48Z"/></g></svg>