<svg id="Слой_1" data-name="Слой 1" xmlns="http://www.w3.org/2000/svg" viewBox="0 0 56.69 56.69"><defs><style>.cls-1{fill:#694595;}.cls-2{fill:#010101;}</style></defs><polygon class="cls-1" points="21.59 31.84 40.85 24.67 21.59 17.29 21.59 7.25 54.59 20.57 54.59 28.77 21.59 42.09 21.59 31.84"/><path class="cls-2" d="M4.1,49.44c-1.09,0-2-.54-2-1.76v-.07c0-1.47,1.28-2,2.86-2H5.7v-.29c0-.61-.25-1-.9-1a.79.79,0,0,0-.89.77H2.3c.13-1.35,1.19-2,2.6-2s2.51.61,2.51,2.12v4H5.77v-.71A2,2,0,0,1,4.1,49.44Zm1.6-2.12v-.57H5c-.84,0-1.25.22-1.25.77v.06c0,.42.25.71.83.71A1,1,0,0,0,5.7,47.32Zm5.53,2.12a2.75,2.75,0,0,1-2.89-3.08v-.1a2.83,2.83,0,0,1,2.89-3.14,2.38,2.38,0,0,1,2.63,2.28h-1.6c-.1-.58-.42-1-1-1S10,45,10,46.2v.19c0,1.22.45,1.77,1.22,1.77a1.12,1.12,0,0,0,1.09-1.09h1.54A2.42,2.42,0,0,1,11.23,49.44Zm6.29,0a2.75,2.75,0,0,1-2.89-3.08v-.1a2.84,2.84,0,0,1,2.89-3.14,2.39,2.39,0,0,1,2.64,2.28H18.55c-.1-.58-.42-1-1-1s-1.23.58-1.23,1.77v.19c0,1.22.45,1.77,1.23,1.77a1.13,1.13,0,0,0,1.09-1.09h1.54A2.43,2.43,0,0,1,17.52,49.44Zm6.33,0a2.73,2.73,0,0,1-2.92-3v-.13a2.83,2.83,0,0,1,2.89-3.14A2.57,2.57,0,0,1,26.58,46v.73H22.63c.06,1.1.55,1.51,1.25,1.51A1.09,1.09,0,0,0,25,47.45h1.57A2.51,2.51,0,0,1,23.85,49.44Zm-1.19-3.85h2.25c0-.9-.45-1.28-1.12-1.28C23.27,44.34,22.79,44.63,22.66,45.59Zm4.95-2.31h1.7v.9a1.93,1.93,0,0,1,1.83-1c1.09,0,1.83.67,1.83,2.12v4h-1.7V45.53c0-.71-.29-1-.9-1a1,1,0,0,0-1.06,1.12v3.7h-1.7v-6Zm8.48-1.83v1.83h1.15v1.25H36.09v2.86c0,.45.19.67.61.67a1.61,1.61,0,0,0,.58-.09v1.31a3.17,3.17,0,0,1-1,.13c-1.32,0-1.93-.61-1.93-1.83v-3h-.7V43.28h.7V42.15Zm7.51,7.87H41.93v-.9a1.88,1.88,0,0,1-1.76,1,1.82,1.82,0,0,1-1.9-2.08V43.28H40v3.85c0,.71.29,1,.87,1A1,1,0,0,0,41.9,47V43.28h1.7Zm1.25-6h1.71V44.4a1.82,1.82,0,0,1,1.83-1.19v1.67c-1.16,0-1.83.36-1.83,1.35v3.12H44.85Zm7,6.16a2.73,2.73,0,0,1-2.92-3v-.13a2.83,2.83,0,0,1,2.89-3.14A2.57,2.57,0,0,1,54.55,46v.73H50.64c.06,1.1.54,1.51,1.25,1.51A1.08,1.08,0,0,0,53,47.45h1.58A2.6,2.6,0,0,1,51.82,49.44ZM50.6,45.59h2.28c0-.9-.45-1.28-1.12-1.28C51.25,44.34,50.76,44.63,50.6,45.59Z"/></svg>