<svg id="Слой_1" data-name="Слой 1" xmlns="http://www.w3.org/2000/svg" viewBox="0 0 56.69 56.69"><defs><style>.cls-1{fill:#19233f;}.cls-2{fill:#fff;}</style></defs><path class="cls-1" d="M4.37,49.74v-1H7.76V47.4H4.36V45.49H8V44.18H3v5.5a2.23,2.23,0,0,0,2,2.53h.1a3.15,3.15,0,0,0,.44,0H8.07V50.94H5.51A1.08,1.08,0,0,1,4.37,49.74Zm4.69,2.51h1.39V44.18H9.06Zm5.46-6a2.94,2.94,0,0,0-3.07,3.09v0a2.9,2.9,0,0,0,3.11,3,3.16,3.16,0,0,0,2.46-1l-.83-.82a2,2,0,0,1-1.58.68,1.61,1.61,0,0,1-1.77-1.54H17.4c0-.23,0-.49,0-.49A2.83,2.83,0,0,0,14.52,46.23ZM12.87,48.7a1.57,1.57,0,0,1,1.65-1.28A1.39,1.39,0,0,1,16,48.7Zm8.45-1.23a2,2,0,0,1,1.49.64l.86-.89a3.11,3.11,0,1,0,0,4.19l-.86-.9a2,2,0,0,1-1.49.64,1.84,1.84,0,0,1,0-3.68Zm4.61,2.27h0V47.68h1.26V46.41H25.93V44.18H24.54v5.64h0a2.19,2.19,0,0,0,2,2.39h.1a3.25,3.25,0,0,0,.44,0h.15V51h-.15A1.09,1.09,0,0,1,25.93,49.74Zm3.81-2.46v-.87H28.36v5.84h1.38V49.18a1.46,1.46,0,0,1,1.57-1.56,2.46,2.46,0,0,1,.58.06V46.33a3.52,3.52,0,0,0-.42,0A1.79,1.79,0,0,0,29.74,47.28Zm5.55-1a3.09,3.09,0,1,0,3.18,3.09A3.11,3.11,0,0,0,35.29,46.24Zm0,4.92a1.83,1.83,0,1,1,1.8-1.83A1.79,1.79,0,0,1,35.29,51.16Zm4,1.09h1.39V44.18H39.32Zm6.41-2.44a1.28,1.28,0,1,1-2.55,0V46.41h-1.4v3.53a2.4,2.4,0,0,0,2.66,2.46,2.43,2.43,0,0,0,2.69-2.5V46.41h-1.4Zm6.65.57-.87-1.22,1.08-1.48.93-1.27H52l-1.26,1.75-1.27-1.75H48l.87,1.19L50,49.17l-1.21,1.68-1,1.4h1.49l1.48-2.06,1.48,2.06h1.5Z"/><rect class="cls-1" x="8.91" y="4.27" width="38.21" height="38.22"/><path class="cls-2" d="M33.41,7.19a17.07,17.07,0,0,1,0,32.37Z"/><path class="cls-2" d="M28,6.32a18.93,18.93,0,0,1,3.61.38c0,8.66-8.38,15.79-17,15.79H11A17.24,17.24,0,0,1,28,6.32Z"/><path class="cls-2" d="M14.6,24.29c8.64,0,17,7.12,17,15.77a19.27,19.27,0,0,1-3.6.38A17.09,17.09,0,0,1,11,24.29Z"/></svg>