<svg id="Слой_1" data-name="Слой 1" xmlns="http://www.w3.org/2000/svg" viewBox="0 0 56.69 56.69"><defs><style>.cls-1{fill:#05539c;}.cls-2{fill:#fff;}.cls-3{fill:#e22132;}</style></defs><ellipse class="cls-1" cx="28.35" cy="28.35" rx="27.01" ry="14.98"/><path class="cls-2" d="M48.47,36.28h.11c.15,0,.23,0,.23.15s-.08.15-.22.15h-.12v-.3m-.26-.16v1h.26v-.43h.12l.2.43h.28l-.23-.46a.29.29,0,0,0,.23-.28q0-.3-.45-.3Zm.39-.4a.9.9,0,0,0-.8.45,1,1,0,0,0-.14.49.93.93,0,0,0,.27.66,1,1,0,0,0,.67.28,1,1,0,0,0,.67-.27.94.94,0,0,0-.67-1.61m0,.15a.78.78,0,0,1,.57.24.8.8,0,0,1,.22.56.78.78,0,0,1-.23.55.85.85,0,0,1-.56.23.8.8,0,0,1-.56-.24.77.77,0,0,1-.22-.55.8.8,0,0,1,.24-.57.76.76,0,0,1,.54-.22"/><path class="cls-3" d="M30.58,36.65H18.31l-.45-2.21H13.12l-.68,1.73C16.15,39.1,21.89,41,28.35,41c6.08,0,11.54-1.67,15.25-4.32h-6l-.78-10.23H35.23l.27,5.22H30.58v5"/><path class="cls-3" d="M12.71,20.33h7.87l2.72,8.35.24-8.35H44a23.08,23.08,0,0,0-9-3.9v1.34H32.92V16.05c-.54-.08-1.1-.14-1.66-.19v3.05H29.18V15.74H27.51v3.17H25.43V15.86c-.56.05-1.11.11-1.66.19v1.72H21.69V16.43a23.1,23.1,0,0,0-9,3.9"/><path class="cls-3" d="M43.66,22.87l1,7.71h3.64a8.39,8.39,0,0,0,.31-2.23,9.34,9.34,0,0,0-2.85-6.46l-2.09,1"/><path class="cls-3" d="M12.43,22.65,10.89,22a9.31,9.31,0,0,0-2.8,6.4,8.92,8.92,0,0,0,.08,1.16l4.26-6.86"/><path class="cls-2" d="M34.18,26.8l.16,3H29.29v5.08H19.09l-.5-2.19H12.48l-1.11,2.19H5.93l7.48-12.07H15.1l-3.6-1.65h8.28l4.16,12.4h.16l.41-12.4h11.9l.25,3.35H29.29V26.8ZM51,34.89H38.51L37.43,21.17H45L41.1,22.83h1.57l1.1,8.6h6.37Z"/><polygon class="cls-1" points="16.78 24.74 16.5 24.74 13.76 30.2 18.02 30.2 16.78 24.74"/><path class="cls-2" d="M28.35,14.39c-12.28,0-22.24,6.25-22.24,14a9.23,9.23,0,0,0,.67,3.4L7.85,30a8.54,8.54,0,0,1-.16-1.68c0-6.05,6.21-11.16,14.74-12.8V17H23v-1.6a31.55,31.55,0,0,1,3.15-.37v3.11h.59V15c.52,0,1.05,0,1.58,0s1,0,1.57,0v3.15h.6V15.07c1.07.07,2.12.2,3.15.37V17h.59V15.55C42.79,17.19,49,22.3,49,28.35a8.8,8.8,0,0,1-.29,2.23h1.57a8.8,8.8,0,0,0,.29-2.23c0-7.71-10-14-22.23-14"/><path class="cls-2" d="M28.35,41.71c-6.55,0-12.38-2-16.17-5H10.51C14.56,40.09,21,42.3,28.35,42.3s13.8-2.22,17.85-5.64H44.53c-3.78,3.08-9.63,5.05-16.18,5.05"/></svg>