<svg id="Слой_1" data-name="Слой 1" xmlns="http://www.w3.org/2000/svg" xmlns:xlink="http://www.w3.org/1999/xlink" viewBox="0 0 56.69 56.69"><defs><style>.cls-1{fill:none;}.cls-2{clip-path:url(#clip-path);}.cls-3{clip-path:url(#clip-path-2);}.cls-4{fill:url(#Безымянный_градиент_28);}.cls-5{fill:#0fa968;}.cls-6{fill:#fff;}</style><clipPath id="clip-path"><rect class="cls-1" x="-121.76" y="-109.16" width="82.26" height="82.25"/></clipPath><clipPath id="clip-path-2"><rect class="cls-1" x="-138.67" y="-126.07" width="116.08" height="116.08" transform="translate(24.84 -70.09) rotate(-41.28)"/></clipPath><radialGradient id="Безымянный_градиент_28" cx="121.52" cy="-60.98" r="26.38" gradientTransform="matrix(4.53, -3.98, 3.98, 4.53, -468.07, 757.09)" gradientUnits="userSpaceOnUse"><stop offset="0" stop-color="#79b935"/><stop offset="0.25" stop-color="#79b935"/><stop offset="0.27" stop-color="#79b935"/><stop offset="0.29" stop-color="#78b835"/><stop offset="0.3" stop-color="#78b835"/><stop offset="0.3" stop-color="#77b836"/><stop offset="0.3" stop-color="#77b835"/><stop offset="0.31" stop-color="#76b836"/><stop offset="0.31" stop-color="#76b836"/><stop offset="0.32" stop-color="#76b835"/><stop offset="0.32" stop-color="#74b735"/><stop offset="0.32" stop-color="#74b735"/><stop offset="0.33" stop-color="#73b736"/><stop offset="0.33" stop-color="#72b737"/><stop offset="0.34" stop-color="#72b737"/><stop offset="0.34" stop-color="#72b737"/><stop offset="0.34" stop-color="#70b638"/><stop offset="0.35" stop-color="#70b637"/><stop offset="0.35" stop-color="#70b637"/><stop offset="0.36" stop-color="#6fb637"/><stop offset="0.36" stop-color="#6eb637"/><stop offset="0.36" stop-color="#6cb539"/><stop offset="0.37" stop-color="#6cb539"/><stop offset="0.37" stop-color="#6cb538"/><stop offset="0.38" stop-color="#6bb538"/><stop offset="0.38" stop-color="#6bb539"/><stop offset="0.38" stop-color="#69b538"/><stop offset="0.39" stop-color="#69b538"/><stop offset="0.39" stop-color="#68b438"/><stop offset="0.39" stop-color="#68b438"/><stop offset="0.4" stop-color="#67b439"/><stop offset="0.4" stop-color="#67b439"/><stop offset="0.41" stop-color="#67b439"/><stop offset="0.41" stop-color="#65b338"/><stop offset="0.41" stop-color="#64b338"/><stop offset="0.42" stop-color="#64b338"/><stop offset="0.42" stop-color="#64b338"/><stop offset="0.43" stop-color="#62b338"/><stop offset="0.43" stop-color="#62b338"/><stop offset="0.43" stop-color="#61b23a"/><stop offset="0.44" stop-color="#61b23a"/><stop offset="0.44" stop-color="#5fb23a"/><stop offset="0.45" stop-color="#5eb23a"/><stop offset="0.45" stop-color="#5cb13a"/><stop offset="0.45" stop-color="#5cb13a"/><stop offset="0.46" stop-color="#5bb13a"/><stop offset="0.46" stop-color="#59b13b"/><stop offset="0.46" stop-color="#58b03b"/><stop offset="0.47" stop-color="#56b03b"/><stop offset="0.47" stop-color="#56b03c"/><stop offset="0.48" stop-color="#53af3c"/><stop offset="0.48" stop-color="#51af3c"/><stop offset="0.48" stop-color="#51af3c"/><stop offset="0.49" stop-color="#50ae3b"/><stop offset="0.49" stop-color="#4eae3b"/><stop offset="0.5" stop-color="#4eae3b"/><stop offset="0.5" stop-color="#4cae3c"/><stop offset="0.5" stop-color="#4cae3c"/><stop offset="0.51" stop-color="#4bad3c"/><stop offset="0.51" stop-color="#49ad3b"/><stop offset="0.52" stop-color="#47ad3c"/><stop offset="0.52" stop-color="#47ad3c"/><stop offset="0.52" stop-color="#45ac3c"/><stop offset="0.53" stop-color="#43ac3d"/><stop offset="0.53" stop-color="#41ac3d"/><stop offset="0.54" stop-color="#41ac3d"/><stop offset="0.54" stop-color="#3fab3d"/><stop offset="0.54" stop-color="#3dab3e"/><stop offset="0.55" stop-color="#3dab3e"/><stop offset="0.55" stop-color="#39aa3d"/><stop offset="0.55" stop-color="#39aa3d"/><stop offset="0.56" stop-color="#35aa3e"/><stop offset="0.56" stop-color="#32a93d"/><stop offset="0.57" stop-color="#32a93d"/><stop offset="0.57" stop-color="#30a93e"/><stop offset="0.57" stop-color="#2ca73e"/><stop offset="0.58" stop-color="#2ca73e"/><stop offset="0.58" stop-color="#2aa63e"/><stop offset="0.59" stop-color="#2aa63f"/><stop offset="0.59" stop-color="#27a63f"/><stop offset="0.59" stop-color="#26a43e"/><stop offset="0.6" stop-color="#26a43e"/><stop offset="0.6" stop-color="#24a33f"/><stop offset="0.61" stop-color="#24a33f"/><stop offset="0.61" stop-color="#21a33f"/><stop offset="0.61" stop-color="#1fa13f"/><stop offset="0.62" stop-color="#1fa140"/><stop offset="0.62" stop-color="#1da040"/><stop offset="0.63" stop-color="#1da040"/><stop offset="0.63" stop-color="#1aa040"/><stop offset="0.63" stop-color="#159f40"/><stop offset="0.64" stop-color="#179e40"/><stop offset="0.64" stop-color="#159d40"/><stop offset="0.64" stop-color="#139d40"/><stop offset="0.65" stop-color="#109c42"/><stop offset="0.65" stop-color="#109c42"/><stop offset="0.66" stop-color="#129c42"/><stop offset="0.66" stop-color="#0f9a42"/><stop offset="0.66" stop-color="#0e9b42"/><stop offset="0.67" stop-color="#0b9944"/><stop offset="0.67" stop-color="#099943"/><stop offset="0.68" stop-color="#059843"/><stop offset="0.68" stop-color="#059843"/><stop offset="0.68" stop-color="#0c954d"/><stop offset="0.69" stop-color="#0a8d64"/><stop offset="0.69" stop-color="#13837c"/><stop offset="0.7" stop-color="#1b7892"/><stop offset="0.7" stop-color="#1b6ba6"/><stop offset="0.7" stop-color="#2062ad"/><stop offset="0.71" stop-color="#285faa"/><stop offset="0.71" stop-color="#2960ab"/><stop offset="0.71" stop-color="#2962ac"/><stop offset="0.72" stop-color="#2863ad"/><stop offset="0.72" stop-color="#2765af"/><stop offset="0.73" stop-color="#2566af"/><stop offset="0.73" stop-color="#2767b0"/><stop offset="0.73" stop-color="#2869b1"/><stop offset="0.74" stop-color="#276ab2"/><stop offset="0.74" stop-color="#256cb4"/><stop offset="0.75" stop-color="#266db5"/><stop offset="0.75" stop-color="#236fb6"/><stop offset="0.75" stop-color="#256fb7"/><stop offset="0.76" stop-color="#2670b7"/><stop offset="0.76" stop-color="#2372b9"/><stop offset="0.77" stop-color="#2473ba"/><stop offset="0.77" stop-color="#2375bb"/><stop offset="0.77" stop-color="#2276bb"/><stop offset="0.78" stop-color="#2476bc"/><stop offset="0.78" stop-color="#2279be"/><stop offset="0.79" stop-color="#2479be"/><stop offset="0.79" stop-color="#237bc0"/><stop offset="0.79" stop-color="#257cc0"/><stop offset="0.8" stop-color="#247ec2"/><stop offset="0.8" stop-color="#237fc3"/><stop offset="0.8" stop-color="#2482c5"/><stop offset="0.81" stop-color="#2682c5"/><stop offset="0.81" stop-color="#2483c6"/><stop offset="0.82" stop-color="#2485c7"/><stop offset="0.82" stop-color="#2486c8"/><stop offset="0.82" stop-color="#2488ca"/><stop offset="0.83" stop-color="#258acb"/><stop offset="0.83" stop-color="#228bcc"/><stop offset="0.84" stop-color="#238ccd"/><stop offset="0.84" stop-color="#238ece"/><stop offset="0.84" stop-color="#258fcf"/><stop offset="0.85" stop-color="#2591d0"/><stop offset="0.85" stop-color="#2792d1"/><stop offset="0.86" stop-color="#2794d2"/><stop offset="0.86" stop-color="#2695d3"/><stop offset="0.86" stop-color="#2597d4"/><stop offset="0.87" stop-color="#2898d5"/><stop offset="0.87" stop-color="#229ad7"/><stop offset="0.88" stop-color="#259bd7"/><stop offset="0.88" stop-color="#249dd9"/><stop offset="0.88" stop-color="#269fda"/><stop offset="0.89" stop-color="#25a1db"/><stop offset="0.89" stop-color="#28a2dc"/><stop offset="0.89" stop-color="#28a3dd"/><stop offset="0.9" stop-color="#2aa5de"/><stop offset="0.9" stop-color="#2aa5de"/><stop offset="0.91" stop-color="#29a5df"/><stop offset="0.91" stop-color="#29a5df"/><stop offset="0.91" stop-color="#29a5df"/><stop offset="0.92" stop-color="#29a5df"/><stop offset="0.92" stop-color="#27a6df"/><stop offset="0.93" stop-color="#2ba6df"/><stop offset="0.93" stop-color="#2ba6df"/><stop offset="0.93" stop-color="#2aa7e0"/><stop offset="0.94" stop-color="#2aa7e0"/><stop offset="0.94" stop-color="#2ea7df"/><stop offset="0.95" stop-color="#2ba8e1"/><stop offset="0.95" stop-color="#2ba8e1"/><stop offset="0.95" stop-color="#2ba8e1"/><stop offset="0.96" stop-color="#29a9e1"/><stop offset="0.96" stop-color="#2da9e1"/><stop offset="0.96" stop-color="#2da9e1"/><stop offset="0.97" stop-color="#2da9e1"/><stop offset="0.97" stop-color="#2baae2"/><stop offset="0.98" stop-color="#2daae1"/><stop offset="0.98" stop-color="#2daae1"/><stop offset="0.98" stop-color="#2aabe3"/><stop offset="0.99" stop-color="#2aabe3"/><stop offset="0.99" stop-color="#2aabe3"/><stop offset="1" stop-color="#2cace3"/><stop offset="1" stop-color="#2cace3"/></radialGradient></defs><g class="cls-2"><g class="cls-3"><path class="cls-4" d="M-86,13.88l-76.58-87.24,87.24-76.57L1.27-62.7Z"/></g></g><rect class="cls-5" x="24.95" y="46.52" width="6.79" height="6.79" transform="translate(43.6 -5.42) rotate(45)"/><rect class="cls-5" x="16.87" y="37.16" width="6.79" height="6.79" transform="translate(34.61 -2.45) rotate(45)"/><rect class="cls-5" x="32.71" y="37.16" width="6.79" height="6.79" transform="translate(39.26 -13.65) rotate(45)"/><path class="cls-5" d="M23.85,13.32c.06,1.42.14,2.38.14,3.33,0,5.06,0,10.12,0,15.17a5.17,5.17,0,0,0,.14,2.1,8.39,8.39,0,0,0,1.64,1.8,7.41,7.41,0,0,0,1.33-1.8,7.83,7.83,0,0,0,.11-2.38q0-10,0-20c0-1.43,0-2.88,2-3.77.08,1,.21,1.93.21,2.82q0,10.65,0,21.29c0,1.53-.06,3.08,1.78,3.77,1.95-.71,1.87-2.36,1.87-4q0-12.9,0-25.82c0-1.49-.13-3.05,2.06-3.93.06,1.08.15,2,.16,2.9q0,13,0,26.08c0,.62,0,1.25,0,1.87,0,1.23-.07,2.89,1.57,2.85,1.47,0,2.07-1.5,2.08-3,0-3.37,0-6.74,0-10.11V19.52a2.58,2.58,0,0,1,2.15,2.74c0,3.9.17,7.82-.09,11.7C41,35.3,39.82,36.56,39,38.12l1.84,2.5-2.26,2.86,2.53,3.32c-2,1.91-4,3.83-6,5.62a2.21,2.21,0,0,1-1.84,0,8.15,8.15,0,0,1-1.79-1.34l-2.83,2.25a7.64,7.64,0,0,1-1.46-1c-1-1.15-2-1.35-3.1-.09a1.56,1.56,0,0,1-2.53.19c-2-1.88-4-3.74-6-5.65L18,43.6a6.25,6.25,0,0,0-.76-1.12c-1.14-1-1.35-2-.08-3.09s1-2-.07-2.91c-1.39-1.13-1.63-2.62-1.59-4.3.06-3.1,0-6.2,0-9.31,0-1.5.27-2.83,2.3-3.55.11,1,.29,1.92.3,2.82,0,3.28,0,6.56,0,9.85a6.52,6.52,0,0,0,.25,2.35c.23.56.95,1.28,1.43,1.26s1.17-.76,1.39-1.33a6.59,6.59,0,0,0,.22-2.36c0-4.79,0-9.58,0-14.37C21.42,15.92,21.59,14.37,23.85,13.32ZM22.57,36.85c-.33.51-.75.87-.7,1.17s.53.57.82.85c.29-.36.71-.68.82-1.09C23.56,37.6,23,37.25,22.57,36.85Zm6,2.23c.36-.48.8-.81.79-1.12s-.48-.6-.75-.89c-.32.32-.76.6-.9,1C27.65,38.25,28.18,38.63,28.57,39.08Zm5.78-2.27c-.35.49-.78.83-.76,1.13s.5.59.78.89c.31-.34.74-.64.87-1C35.3,37.61,34.76,37.24,34.35,36.81ZM22.77,44.94c.35-.48.79-.82.78-1.12s-.49-.6-.76-.9c-.32.33-.76.62-.89,1C21.83,44.11,22.37,44.5,22.77,44.94ZM21,41.24l-.35-.6c-.34-.17-.68-.46-1-.46-.19,0-.6.63-.54.71a1.72,1.72,0,0,0,.91.67C20.25,41.62,20.61,41.36,21,41.24Zm4.44.46.6.36c.12-.34.38-.7.32-1a1.67,1.67,0,0,0-.66-.9c-.09-.06-.72.34-.72.53C24.93,41,25.22,41.36,25.39,41.7Zm7-1c-.53-.32-.88-.69-1.17-.65s-.54.48-.81.75c.29.25.57.7.87.71S31.91,41.07,32.42,40.68Zm5.49.35c-.39-.42-.65-.87-.82-.84a3.05,3.05,0,0,0-1,.59c.18.27.36.74.56.76S37.35,41.28,37.91,41Zm-7.87,3C29,43.38,28.63,43,28.38,43a1.08,1.08,0,0,0-.67.84,1.13,1.13,0,0,0,.82.73C28.89,44.65,29.29,44.34,30,44.05Zm4.22-1.39c-.34.55-.74.91-.69,1.19s.52.53.81.79c.24-.3.64-.59.65-.9S34.63,43.15,34.26,42.66ZM19.62,47.28c.42-.39.87-.64.84-.82a3.24,3.24,0,0,0-.58-1c-.27.18-.75.35-.76.55S19.38,46.73,19.62,47.28Zm13.57,2.17c.5.31.82.62,1.17.66.17,0,.62-.58.56-.68a1.59,1.59,0,0,0-.85-.73C33.91,48.66,33.61,49.08,33.19,49.45Zm-3.68.34-.35-.6a2.91,2.91,0,0,0-1-.47c-.19,0-.39.48-.58.74.32.23.6.58,1,.65S29.18,49.91,29.51,49.79Zm-6.74.55c.33-.48.74-.83.7-1.11a1.07,1.07,0,0,0-.83-.66,1.06,1.06,0,0,0-.72.77C21.92,49.63,22.37,49.91,22.77,50.34Zm13.94-3.05c.42-.4.86-.65.84-.83a3.12,3.12,0,0,0-.59-1c-.27.19-.75.36-.76.56S36.46,46.73,36.71,47.29ZM25.65,45.21c-.37.43-.79.73-.74.9a1.67,1.67,0,0,0,.73.85c.1,0,.71-.41.68-.58C26.28,46,26,45.72,25.65,45.21Zm6,2.08c.21-.49.48-.82.41-1s-.46-.44-.71-.65c-.2.3-.52.59-.56.92C30.77,46.69,31.23,46.93,31.65,47.29Z"/><rect class="cls-6" x="21.48" y="36.68" width="2.28" height="2.28" transform="translate(33.37 -4.92) rotate(45)"/><rect class="cls-6" x="27.36" y="36.68" width="2.28" height="2.28" transform="translate(35.09 -9.07) rotate(45)"/><rect class="cls-6" x="33.2" y="36.68" width="2.28" height="2.28" transform="translate(36.8 -13.2) rotate(45)"/><rect class="cls-6" x="18.77" y="39.82" width="2.28" height="2.28" transform="translate(34.8 -2.08) rotate(45)"/><rect class="cls-6" x="24.64" y="39.82" width="2.28" height="2.28" transform="translate(36.52 -6.23) rotate(45)"/><rect class="cls-6" x="30.48" y="39.82" width="2.28" height="2.28" transform="translate(38.23 -10.36) rotate(45)"/><rect class="cls-6" x="21.48" y="42.79" width="2.28" height="2.28" transform="translate(37.69 -3.13) rotate(45)"/><rect class="cls-6" x="27.36" y="42.79" width="2.28" height="2.28" transform="translate(39.41 -7.28) rotate(45)"/><rect class="cls-6" x="33.2" y="42.79" width="2.28" height="2.28" transform="translate(41.12 -11.41) rotate(45)"/><rect class="cls-6" x="18.62" y="45.4" width="2.28" height="2.28" transform="translate(38.69 -0.34) rotate(45)"/><rect class="cls-6" x="24.49" y="45.4" width="2.28" height="2.28" transform="translate(40.41 -4.49) rotate(45)"/><rect class="cls-6" x="30.33" y="45.4" width="2.28" height="2.28" transform="translate(42.12 -8.62) rotate(45)"/><rect class="cls-6" x="35.82" y="45.4" width="2.28" height="2.28" transform="translate(43.73 -12.51) rotate(45)"/><rect class="cls-6" x="35.82" y="39.82" width="2.28" height="2.28" transform="translate(39.79 -14.14) rotate(45)"/><rect class="cls-6" x="21.5" y="48.28" width="2.28" height="2.28" transform="translate(41.58 -1.53) rotate(45)"/><rect class="cls-6" x="27.37" y="48.28" width="2.28" height="2.28" transform="translate(43.3 -5.69) rotate(45)"/><rect class="cls-6" x="33.21" y="48.28" width="2.28" height="2.28" transform="translate(45.01 -9.82) rotate(45)"/></svg>