<svg id="Слой_1" data-name="Слой 1" xmlns="http://www.w3.org/2000/svg" viewBox="0 0 56.69 56.69"><defs><style>.cls-1{fill:#223875;}</style></defs><g id="navyblue"><path class="cls-1" d="M2.11,13.87H55.67v29H2.11v-29M4.35,16.1V40.58H53.43V16.1Z"/><path class="cls-1" d="M39.67,20a8.67,8.67,0,0,1,4.53.54,9.86,9.86,0,0,1,3.45,2.67c-.58.57-1.18,1.12-1.76,1.69a6.86,6.86,0,0,0-2.6-2.18,5.8,5.8,0,0,0-3.51-.38,6,6,0,0,0-4.55,4,7.09,7.09,0,0,0-.18,3.27,5.66,5.66,0,0,0,1.5,2.87,6.4,6.4,0,0,0,3,1.81,5.07,5.07,0,0,0,3.15-.22A5.4,5.4,0,0,0,44.8,32.5a4.33,4.33,0,0,0,.89-2.18c-1.35,0-2.7,0-4.06,0,0-.78,0-1.55,0-2.32h6.73A13,13,0,0,1,48,31.46a6.85,6.85,0,0,1-1.71,3,7.39,7.39,0,0,1-2.6,1.79,8.29,8.29,0,0,1-3.82.51,7.77,7.77,0,0,1-3.69-1.33,8.53,8.53,0,0,1-3.52-5A9.18,9.18,0,0,1,32.77,26a8.58,8.58,0,0,1,3.56-4.76A8,8,0,0,1,39.67,20Z"/><path class="cls-1" d="M7.94,36.48q3.8-8.14,7.58-16.27h.95q3.64,8.13,7.3,16.27c-.9,0-1.81,0-2.72,0-.55-1.32-1.13-2.62-1.69-3.94H12.42c-.61,1.31-1.21,2.62-1.8,3.94-.9,0-1.79,0-2.68,0m8-11.74c-.82,1.83-1.67,3.64-2.49,5.47h4.41a4.21,4.21,0,0,0,.5,0c-.8-1.79-1.57-3.6-2.37-5.39Z"/><path class="cls-1" d="M26.31,36.47c0-5.42,0-10.84,0-16.26h2.45V36.47Z"/></g></svg>