<svg id="Слой_1" data-name="Слой 1" xmlns="http://www.w3.org/2000/svg" viewBox="0 0 56.69 56.69"><defs><style>.cls-1{fill:#eb671c;}.cls-2{fill:#220e08;}.cls-3{fill:#fff;}</style></defs><rect class="cls-1" x="-0.77" y="-1.28" width="59.1" height="59.1"/><path class="cls-2" d="M32.87,43.85a5.2,5.2,0,0,0,.06-.68c-.09-1.53-.28-2.86,2-3.11,1.71-.18,2.86-2.6,2.72-4.46a4.51,4.51,0,0,0-3.57-4,4.6,4.6,0,0,0-4.83,2.17c-.09.16-.15.34-.24.49-.34.52-.11,1.47-.82,1.62a12,12,0,0,1-2.75.06c-.57,0-.44-.46-.4-.82a7.65,7.65,0,0,1,2.8-5.32c.77-.61.84-1,.1-1.74A7.09,7.09,0,0,1,26.9,20.1a6.79,6.79,0,0,1,6.84-3.68,1.41,1.41,0,0,0,1.76-.78c.91-1.61,1-1.58,2.47-.56a9.1,9.1,0,0,0,.93.59c.63.31.86.76.36,1.3-1,1.1-.7,2,0,3.23a6.41,6.41,0,0,1-1.26,8c-.52.54-.54.8.08,1.23a8.2,8.2,0,0,1-1.66,14.19,1.12,1.12,0,0,0-.21.17c-.55.1-1.15,0-1.62.42H32.89ZM33,26.49a3.35,3.35,0,0,0,3.33-3.16A3.51,3.51,0,0,0,33,20a3.43,3.43,0,0,0-3.15,3.24A3.19,3.19,0,0,0,33,26.49Z"/><path class="cls-2" d="M12.84,18.09c.44-.54-.19-1.54.65-1.69a11.74,11.74,0,0,1,3,0c.47,0,.35.58.35.92q0,6,0,12c0,.79-.2,1.19-1.16.87a6.21,6.21,0,0,0-1.78,0c-.36,0-.8,0-.83-.5-.08-1.53-.82-.89-1.52-.49a6.9,6.9,0,0,1-9.14-1.74A6.93,6.93,0,0,1,11.1,17.09C11.69,17.41,12.27,17.76,12.84,18.09Zm-4.7,8.43a3.4,3.4,0,0,0,3.15-3.37A3.58,3.58,0,0,0,8.06,20a3.44,3.44,0,0,0-3.33,3.35A3.29,3.29,0,0,0,8.14,26.52Z"/><path class="cls-2" d="M55.62,23.26a6.7,6.7,0,0,1-6.85,6.9,6.94,6.94,0,0,1-7-6.73,7.07,7.07,0,0,1,6.94-7.09A6.82,6.82,0,0,1,55.62,23.26ZM52,23.17A3.26,3.26,0,0,0,48.82,20a3.28,3.28,0,0,0-.19,6.55A3.18,3.18,0,0,0,52,23.17Z"/><path class="cls-2" d="M23.58,16.4a12.56,12.56,0,0,1,.15,3.41c0,3.08,0,6.15,0,9.23,0,.85-.09,1.22-1.12,1.16-2.7-.14-2.75-.08-2.73-2.82,0-3.67-.2-7.33.13-11Z"/><path class="cls-3" d="M23.58,16.05H20a17.48,17.48,0,0,0-.11-2c-.24-1.44.33-1.87,1.75-1.8,2,.1,2,0,2,2.22C23.68,15,23.61,15.51,23.58,16.05Z"/></svg>