<svg id="Слой_1" data-name="Слой 1" xmlns="http://www.w3.org/2000/svg" viewBox="0 0 56.69 56.69"><defs><style>.cls-1{fill:#202b52;}.cls-2{fill:#fff;}</style></defs><path class="cls-1" d="M52.57,15c0-3.64-2.39-6.41-7.31-6.41H35.35V27.69H40v-15h5.28c2,0,2.65,1.11,2.65,2.39s-.73,2.39-2.68,2.39H40.74l6.41,10.23h5.3s-4.37-6.88-4.34-6.88c2.71-.64,4.46-2.54,4.46-5.86m-25-6.41H32.2V27.69H27.54ZM15.62,20.46H11.7l2.9-5.89h.06l6.53,13.12h5.36L16.79,8.54H12.65L2.89,27.69H8.13l1.58-3.21h7.86Z"/><path class="cls-1" d="M16.37,38.73A3.87,3.87,0,0,0,18.44,35c0-2.82-2.09-4.7-5.62-4.7H2.89V47.78H13.21c3.61,0,6-1.94,6-4.88a4.22,4.22,0,0,0-2.82-4.17"/><path class="cls-2" d="M7.13,34h5.69a1.54,1.54,0,0,1,0,3.08H7.13V34Z"/><path class="cls-2" d="M12.92,44.12H7.13V40.56h5.79a1.75,1.75,0,0,1,1.83,1.75,1.78,1.78,0,0,1-1.83,1.81"/><path class="cls-1" d="M32.59,40.08c0,2.65-1.22,4.12-3.63,4.12s-3.61-1.47-3.61-4.12V30.34H21v9.42c0,5.39,2.84,8.39,8,8.39s8-3,8-8.39V30.34H32.59Z"/><path class="cls-1" d="M48.29,37.27c-4-1-4.92-1.08-4.92-2.23,0-.9,1-1.33,2.71-1.33a12.64,12.64,0,0,1,6,1.41l1.35-3.56A16,16,0,0,0,46.14,30c-4.49,0-7,2.23-7,5.23,0,3.22,1.88,4.54,6.21,5.47,3.37.74,4.09,1.2,4.09,2.15s-.93,1.48-2.76,1.48a14.54,14.54,0,0,1-7-1.7l-1.3,3.72a18.78,18.78,0,0,0,8.39,1.83c4.41,0,7-2,7-5.47,0-2.75-1.78-4.51-5.52-5.41"/></svg>