<svg id="Слой_1" data-name="Слой 1" xmlns="http://www.w3.org/2000/svg" viewBox="0 0 56.69 56.69"><defs><style>.cls-1{fill:none;}.cls-2{fill:#dd3423;}.cls-3{fill:#203347;}</style></defs><rect class="cls-1" x="-1.26" y="28.83" width="57.95" height="15.98"/><path class="cls-2" d="M42.82,34.36l-.49.53a4.1,4.1,0,0,1,.17,4.17h.27A4.5,4.5,0,0,0,42.82,34.36Zm-2.15.3.26-.28a3.53,3.53,0,0,0-4.83.12,3.27,3.27,0,0,0-1,2.84h.27a2.64,2.64,0,1,1,2.71,2.59,2.68,2.68,0,0,1-1.89-.7l-.38.39a4,4,0,0,1-.15-5.81,4.31,4.31,0,0,1,4.86-.89l0,0,.2-.23a5.3,5.3,0,0,0-6.42.91,5.07,5.07,0,0,0,.2,7.31l.38-.39a4.17,4.17,0,0,0,7-3A4,4,0,0,0,40.67,34.66Z"/><path class="cls-3" d="M14.42,32.9H12.48v7.84H18V39.22H14.42V32.9Zm-8.61,0-3,7.84H4.68a3.74,3.74,0,0,1,3.21-2.17l-.28-.71a4.44,4.44,0,0,0-2,.24l1.27-3.31,2.45,6h1.86L8,32.9Zm19.46,1.52h2.58v6.32h2V34.42h2.59V32.9H25.27v1.52ZM50.9,32.9l-2.26,3-2.23-3H44.67v7.84h2V36l1.85,2.53h.29L50.64,36v4.79h2V32.9Zm-30.37,2c0-.63,1.43-1.17,3.65-.37L24.31,33a6.45,6.45,0,0,0-2.11-.42c-1.62,0-3.46.6-3.46,2.55C18.74,38,23.09,37,23,38.63c0,.62-1,.77-1.75.77A5.47,5.47,0,0,1,19,39l-.19,1.68a8.56,8.56,0,0,0,2.41.34c1.79,0,3.55-.56,3.55-2.66C24.78,35.54,20.53,36.35,20.53,34.91Z"/></svg>