<svg id="Слой_1" data-name="Слой 1" xmlns="http://www.w3.org/2000/svg" viewBox="0 0 56.69 56.69"><defs><style>.cls-1{fill:#181e28;}.cls-2{fill:#ec641d;}</style></defs><g id="layer1"><path id="Shape" class="cls-1" d="M4.54,33.44a2.77,2.77,0,0,1-1.36-.33,2.54,2.54,0,0,1-.91-1A3.26,3.26,0,0,1,2.42,29,3.21,3.21,0,0,1,3.8,27.9a5.35,5.35,0,0,1,2.12-.39,4.33,4.33,0,0,1,.9.08v-.23a2,2,0,0,0-.31-1.23,1.05,1.05,0,0,0-.92-.41A1.25,1.25,0,0,0,4.3,26.77c0,.2-.17.29-.35.26l-1.49-.26a.32.32,0,0,1-.22-.14.4.4,0,0,1,0-.29,2.77,2.77,0,0,1,1.19-1.72A4,4,0,0,1,5.74,24a3.34,3.34,0,0,1,2.52.89,3.57,3.57,0,0,1,.87,2.6V33a.29.29,0,0,1-.09.21.28.28,0,0,1-.2.08H7.43c-.18,0-.28-.1-.33-.29l-.22-1H6.8a2.39,2.39,0,0,1-.88,1.11,2.43,2.43,0,0,1-1.38.39Zm-.22-3a1.38,1.38,0,0,0,.29.93,1,1,0,0,0,.82.33,1.14,1.14,0,0,0,1-.59,3.49,3.49,0,0,0,.36-1.75v-.57a3,3,0,0,0-.58-.06,2.05,2.05,0,0,0-1.41.47,1.59,1.59,0,0,0-.51,1.24Zm6.16-6a.25.25,0,0,1,.07-.19.29.29,0,0,1,.21-.09H12.2a.26.26,0,0,1,.19.08.31.31,0,0,1,.11.2l.22,1.07h.09a2.42,2.42,0,0,1,.83-1.14A2.17,2.17,0,0,1,15,24a2.26,2.26,0,0,1,1.38.42,2.7,2.7,0,0,1,.91,1.21h.08A3.67,3.67,0,0,1,18.4,24.4a2.34,2.34,0,0,1,1.34-.4,2.25,2.25,0,0,1,1.39.43,2.69,2.69,0,0,1,.92,1.24,5.24,5.24,0,0,1,.31,1.91V33a.32.32,0,0,1-.08.21.3.3,0,0,1-.2.08H20.34a.27.27,0,0,1-.29-.29V27.75a2.09,2.09,0,0,0-.3-1.22,1,1,0,0,0-.88-.42,1.08,1.08,0,0,0-1,.5,2.61,2.61,0,0,0-.33,1.45V33a.32.32,0,0,1-.08.21.28.28,0,0,1-.2.08H15.55a.32.32,0,0,1-.21-.08.31.31,0,0,1-.07-.21V27.75A2.09,2.09,0,0,0,15,26.53a1,1,0,0,0-.88-.42,1.09,1.09,0,0,0-1,.5,2.61,2.61,0,0,0-.33,1.45V33a.32.32,0,0,1-.08.21.28.28,0,0,1-.2.08H10.76a.32.32,0,0,1-.21-.08.31.31,0,0,1-.07-.21Zm13,6.25A3,3,0,0,1,24,29a3.18,3.18,0,0,1,1.39-1.12,5.26,5.26,0,0,1,2.11-.39,4.33,4.33,0,0,1,.9.08v-.23a2.06,2.06,0,0,0-.3-1.23,1.08,1.08,0,0,0-.93-.41,1.24,1.24,0,0,0-1.28,1.05c-.06.2-.18.29-.36.26L24,26.77a.32.32,0,0,1-.23-.14.4.4,0,0,1,0-.29A2.85,2.85,0,0,1,25,24.62,4,4,0,0,1,27.29,24a3.33,3.33,0,0,1,2.52.89,3.57,3.57,0,0,1,.87,2.6V33a.29.29,0,0,1-.09.21.26.26,0,0,1-.19.08H29a.33.33,0,0,1-.33-.29l-.21-1h-.09a2.32,2.32,0,0,1-2.25,1.5,2.69,2.69,0,0,1-1.36-.33,2.49,2.49,0,0,1-.92-1,3,3,0,0,1-.33-1.43Zm2.38-.26a1.44,1.44,0,0,0,.29.93,1.06,1.06,0,0,0,.82.33,1.14,1.14,0,0,0,1-.59,3.49,3.49,0,0,0,.36-1.75v-.57a2.93,2.93,0,0,0-.58-.06,2.05,2.05,0,0,0-1.41.47,1.59,1.59,0,0,0-.51,1.24Zm6,1.19a.75.75,0,0,1,.13-.42L35.71,26H32.22a.3.3,0,0,1-.2-.08.28.28,0,0,1-.08-.2V24.47a.26.26,0,0,1,.08-.19.27.27,0,0,1,.2-.09H38a.27.27,0,0,1,.2.09.26.26,0,0,1,.08.19v1.32a.68.68,0,0,1-.13.42l-3.37,4.63a4.21,4.21,0,0,1,.62-.05,7.18,7.18,0,0,1,1.44.14,7.4,7.4,0,0,1,1.37.43.4.4,0,0,1,.25.37V33a.28.28,0,0,1-.11.24.36.36,0,0,1-.27,0,8.66,8.66,0,0,0-1.45-.43,6.47,6.47,0,0,0-1.36-.13,7.56,7.56,0,0,0-1.44.13,10.76,10.76,0,0,0-1.54.43.44.44,0,0,1-.28,0,.26.26,0,0,1-.11-.23Zm7-2.93a5.56,5.56,0,0,1,.51-2.41,4.12,4.12,0,0,1,1.4-1.69,3.55,3.55,0,0,1,4,0,4.06,4.06,0,0,1,1.41,1.69,5.43,5.43,0,0,1,.52,2.41,5.5,5.5,0,0,1-.52,2.42,4.19,4.19,0,0,1-1.41,1.69,3.6,3.6,0,0,1-4,0,4.25,4.25,0,0,1-1.4-1.69A5.64,5.64,0,0,1,38.89,28.72Zm2.39,0a4.7,4.7,0,0,0,.39,2.13,1.22,1.22,0,0,0,1.13.74A1.24,1.24,0,0,0,44,30.85a4.56,4.56,0,0,0,.4-2.13A4.49,4.49,0,0,0,44,26.6a1.25,1.25,0,0,0-1.15-.75,1.23,1.23,0,0,0-1.13.75A4.63,4.63,0,0,0,41.28,28.72Zm6.64-4.25a.26.26,0,0,1,.08-.19.25.25,0,0,1,.2-.09h1.44a.28.28,0,0,1,.2.08.35.35,0,0,1,.1.2l.22,1.07h.09a2.51,2.51,0,0,1,.86-1.14,2.27,2.27,0,0,1,1.35-.4,2.37,2.37,0,0,1,1.43.43,2.77,2.77,0,0,1,.93,1.24,5,5,0,0,1,.33,1.91V33a.29.29,0,0,1-.09.21.28.28,0,0,1-.2.08H53.12a.28.28,0,0,1-.2-.08.32.32,0,0,1-.08-.21V27.75a2,2,0,0,0-.33-1.22,1.08,1.08,0,0,0-.92-.42,1.14,1.14,0,0,0-1,.5,2.45,2.45,0,0,0-.35,1.45V33a.29.29,0,0,1-.09.21.28.28,0,0,1-.2.08H48.2a.28.28,0,0,1-.2-.08.32.32,0,0,1-.08-.21Z"/><path id="Path" class="cls-2" d="M8,34.5c-.13.11-.16.29-.08.54a2.67,2.67,0,0,0,.51.84,14.18,14.18,0,0,0,3.86,3.33,17.64,17.64,0,0,0,4.8,2,21.5,21.5,0,0,0,5.25.64,21,21,0,0,0,6.53-1A14.64,14.64,0,0,0,34,38c.49-.43.73-.77.73-1a.43.43,0,0,0-.12-.28.38.38,0,0,0-.39-.11,3.45,3.45,0,0,0-.64.27,19.42,19.42,0,0,1-4.86,1.67,27.47,27.47,0,0,1-6,.63,26.19,26.19,0,0,1-7.42-1A18,18,0,0,1,9,34.87a2.41,2.41,0,0,0-.65-.4.4.4,0,0,0-.4,0Z"/><path id="path6" class="cls-2" d="M32.18,35a.39.39,0,0,0-.12.46.33.33,0,0,0,.29.2,2.17,2.17,0,0,0,.63-.05,9.48,9.48,0,0,1,1.36-.19,7,7,0,0,1,1.23,0,1,1,0,0,1,.65.26c.13.2.08.61-.14,1.24a8.7,8.7,0,0,1-.9,1.84,2.19,2.19,0,0,0-.26.57.36.36,0,0,0,.11.35.33.33,0,0,0,.22.09,1.63,1.63,0,0,0,.91-.55,5.12,5.12,0,0,0,1.52-2.22,5,5,0,0,0,.29-1.4,1.68,1.68,0,0,0-.16-1,1.62,1.62,0,0,0-.92-.5,5.15,5.15,0,0,0-1.4-.2,5.48,5.48,0,0,0-2.62.66,3.14,3.14,0,0,0-.69.46Z"/></g></svg>