<svg id="Слой_1" data-name="Слой 1" xmlns="http://www.w3.org/2000/svg" viewBox="0 0 56.69 56.69"><defs><style>.cls-1{fill:#2a6cb4;}.cls-2{fill:#fff;}</style></defs><g id="layer1"><path id="path3078" class="cls-1" d="M-.63-.56H57.18V30.65l-2.86,4.47,2.86,4V57.25H-.63V27.83l1.79-2-1.79-2Z"/><path id="path3082" class="cls-2" d="M10.59,39.72V30.65H20.2l1,1.34,1.07-1.34H57.18V39.1a3.94,3.94,0,0,1-2,.62H35.9l-1.17-1.43v1.43h-3.8V37.28a3.21,3.21,0,0,1-1.65.34H28v2.1H22.22l-1-1.37-1.05,1.37Z"/><path id="path3080" class="cls-2" d="M-.63,23.81l2.17-5H5.28l1.23,2.83V18.76h4.66l.74,2,.71-2H33.53v1a4.53,4.53,0,0,1,2.9-1l6.79,0,1.21,2.79V18.76h3.9l1.07,1.6v-1.6h3.93v9.07H49.4l-1-1.61v1.61H42.64l-.57-1.43H40.53L40,27.83H36.08a3.82,3.82,0,0,1-2.55-1v1H27.67L26.51,26.4v1.43H4.73L4.15,26.4H2.62l-.57,1.43H-.63Z"/><path id="path3046" class="cls-1" d="M2.3,19.88-.62,26.67h1.9l.54-1.36H5l.54,1.36H7.44L4.52,19.88Zm1.09,1.58.95,2.37H2.43Z"/><path id="path3048" class="cls-1" d="M7.64,26.67v-6.8h2.71l1.57,4.39,1.53-4.4h2.69v6.8h-1.7v-5l-1.8,5H11.15l-1.81-5v5Z"/><path id="path3050" class="cls-1" d="M17.3,26.67v-6.8h5.54v1.52H19v1.17h3.73V24H19v1.2h3.82v1.48Z"/><path id="path3052" class="cls-1" d="M23.83,19.88v6.79h1.69V24.26h.72l2,2.41h2.07l-2.23-2.5A2.07,2.07,0,0,0,30,22.08a2.19,2.19,0,0,0-2.37-2.2Zm1.69,1.52h1.95a.72.72,0,1,1,0,1.43h-2V21.4Z"/><path id="path3054" class="cls-1" d="M32.41,26.67H30.68v-6.8h1.73Z"/><path id="path3056" class="cls-1" d="M36.52,26.67h-.37c-1.81,0-2.91-1.43-2.91-3.37a3.11,3.11,0,0,1,3.37-3.43h1.88v1.61h-2A1.64,1.64,0,0,0,35,23.32a1.67,1.67,0,0,0,1.83,1.87h.45Z"/><path id="path3058" class="cls-1" d="M40.22,19.88,37.3,26.67h1.9l.54-1.36h3.13l.54,1.36h2l-2.92-6.79Zm1.08,1.58,1,2.37H40.34l1-2.37Z"/><path id="path3060" class="cls-1" d="M45.55,26.67v-6.8h2.16l2.76,4.27V19.87h1.7v6.8H50.08l-2.83-4.38v4.38Z"/><path id="path3062" class="cls-1" d="M11.75,38.56V31.77H17.3v1.52H13.47v1.16h3.74v1.43H13.47v1.21H17.3v1.47Z"/><path id="path3064" class="cls-1" d="M38.92,38.56V31.77h5.54v1.52H40.64v1.16h3.72v1.43H40.64v1.21h3.82v1.47Z"/><path id="path3066" class="cls-1" d="M17.51,38.56l2.7-3.35-2.76-3.44h2.14l1.65,2.12,1.65-2.12h2.05l-2.72,3.39,2.7,3.4H22.78l-1.6-2.09-1.56,2.09Z"/><path id="path3068" class="cls-1" d="M25.12,31.77v6.79h1.75V36.42h1.78a2.35,2.35,0,0,0,2.66-2.37,2.23,2.23,0,0,0-2.43-2.28Zm1.75,1.53h1.88a.77.77,0,0,1,.84.79.79.79,0,0,1-.85.78H26.87V33.3Z"/><path id="path3072" class="cls-1" d="M32.05,31.77v6.79h1.7V36.15h.72l2,2.41h2.08l-2.24-2.5A2.08,2.08,0,0,0,38.21,34a2.19,2.19,0,0,0-2.38-2.2Zm1.7,1.52h1.94a.72.72,0,1,1,0,1.43h-2Z"/><path id="path3074" class="cls-1" d="M45.25,38.56V37.09h3.4c.5,0,.72-.27.72-.57s-.22-.58-.72-.58H47.11a1.9,1.9,0,0,1-2.08-2c0-1.09.69-2.14,2.67-2.14H51l-.72,1.53H47.43c-.54,0-.71.28-.71.56a.58.58,0,0,0,.62.59H49a1.87,1.87,0,0,1,2.14,1.95,2,2,0,0,1-2.22,2.16Z"/><path id="path3076" class="cls-1" d="M51.49,38.56V37.09h3.4c.5,0,.72-.27.72-.57s-.22-.58-.72-.58H53.35a1.89,1.89,0,0,1-2.08-2c0-1.09.68-2.14,2.67-2.14h3.3l-.71,1.53H53.67c-.55,0-.72.28-.72.56a.59.59,0,0,0,.63.59h1.61a1.86,1.86,0,0,1,2.13,1.95,2,2,0,0,1-2.21,2.16Z"/></g></svg>