<svg id="Слой_1" data-name="Слой 1" xmlns="http://www.w3.org/2000/svg" viewBox="0 0 56.69 56.69"><defs><style>.cls-1{fill:#00a890;}</style></defs><g id="g34"><path id="path30" class="cls-1" d="M34.27,25.35a1.61,1.61,0,1,0-1.58-1.58A1.54,1.54,0,0,0,34.27,25.35Z"/><path id="path32" class="cls-1" d="M55.45,34.05a1,1,0,0,1-.56.17c-.63,0-.79-.62-.79-1.3V26.43c-.4.22-.85.39-1.25.56a4.5,4.5,0,0,0-2.37-.62,4.69,4.69,0,0,0-4.86,4.86v.62a3,3,0,0,1-2.82,2.26c-1.81,0-2.94-1.47-2.88-3.84,0-1.81.85-3.17,1.81-3.17.45,0,.79.34.79,1a2,2,0,0,1-.62,1.53,1.77,1.77,0,0,0,1.52.85,1.46,1.46,0,0,0,1.47-1.59c0-1.52-1.24-2.54-3.16-2.54-2.71,0-4.52,1.92-4.52,4.8a5.69,5.69,0,0,0,.17,1.36c-.4,1-1,1.64-1.47,1.64s-.56-.29-.56-1.08V26.31a12.43,12.43,0,0,1-2.6,1.08v4.85c-.4,1.13-1,1.87-1.53,1.87-.39,0-.56-.29-.56-1.08V29.14c0-2-.85-2.83-2.15-2.83-1.52,0-2.59,1.3-3.1,2.71-.06-1.92-.91-2.71-2.15-2.71-1.52,0-2.65,1.36-3.1,2.77V26.31a19.2,19.2,0,0,1-4.86,1.75V20.84c-4.4.39-6.44,2.37-7.51,7.05l-.17.68c-4.12.4-6.38,2.54-6.38,4.86a2.41,2.41,0,0,0,2.65,2.43c2.43,0,3.84-2,4.86-6.44l3.78-.17v6.21H15.3V29a18.13,18.13,0,0,0,2.26-.57v7.12h2.6V32c0-2.37,1.24-3.67,2-3.67.57,0,.74.56.74,1.86v5.37h2.59V32c0-2.31,1.13-3.67,1.87-3.67.51,0,.79.56.79,1.86v3.56c0,1.36.62,2,1.81,2a3.23,3.23,0,0,0,2.82-1.92,1.75,1.75,0,0,0,1.92,1.92,3.34,3.34,0,0,0,3-2.31,4.51,4.51,0,0,0,8.07-.4,3.51,3.51,0,0,0,3.28,2.71,2.87,2.87,0,0,0,2.6-1.58,1.93,1.93,0,0,0,1.92,1.58C54.77,35.69,55.51,35,55.45,34.05Zm-50.94.28A1.05,1.05,0,0,1,3.44,33.2c0-1.63,1.75-3.22,4.12-3.61C6.72,32.64,5.7,34.33,4.51,34.33Zm4.64-5.76c.9-4.18,2.2-5.31,3.61-5.81V28.4Zm41.27,5.59c-1.18,0-2.08-1.47-2.08-3.61s.79-3.39,2.08-3.39a1.65,1.65,0,0,1,1.3.57v5.53A1.45,1.45,0,0,1,50.42,34.16Z"/></g></svg>