<svg id="Слой_1" data-name="Слой 1" xmlns="http://www.w3.org/2000/svg" xmlns:xlink="http://www.w3.org/1999/xlink" viewBox="0 0 56.69 56.69"><defs><style>.cls-1{fill:none;}.cls-2{fill:#242424;}.cls-3{fill:url(#Безымянный_градиент_8);}.cls-4{clip-path:url(#clip-path);}.cls-5{fill:url(#Безымянный_градиент_13);}.cls-6{fill:url(#Безымянный_градиент_7);}.cls-7{fill:url(#Безымянный_градиент_8-3);}.cls-8{clip-path:url(#clip-path-5);}.cls-9{fill:url(#Безымянный_градиент_13-5);}.cls-10{fill:url(#Безымянный_градиент_11);}.cls-11{fill:url(#Безымянный_градиент_14);}.cls-12{fill:url(#Безымянный_градиент_15);}.cls-13{fill:url(#Безымянный_градиент_16);}.cls-14{fill:url(#Безымянный_градиент_20);}.cls-15{clip-path:url(#clip-path-9);}.cls-16{fill:url(#Безымянный_градиент_18);}.cls-17{fill:url(#Безымянный_градиент_19);}.cls-18{fill:#a8d3aa;}.cls-19{clip-path:url(#clip-path-11);}.cls-20{fill:#143e1e;}.cls-21{fill:#455848;}.cls-22{fill:#386041;}.cls-23{fill:#b0b5ae;}.cls-24{fill:url(#Безымянный_градиент_26);}.cls-25{clip-path:url(#clip-path-17);}.cls-26{fill:url(#Безымянный_градиент_26-5);}</style><linearGradient id="Безымянный_градиент_8" x1="-77.3" y1="-246.91" x2="-76.05" y2="-246.22" gradientTransform="matrix(3.32, 0, 0, -3.32, 268.26, -807.69)" gradientUnits="userSpaceOnUse"><stop offset="0.08" stop-color="#3b9261"/><stop offset="0.25" stop-color="#229b4f"/><stop offset="0.5" stop-color="#44a560"/><stop offset="0.75" stop-color="#42aa60"/><stop offset="1" stop-color="#45ad67"/></linearGradient><clipPath id="clip-path"><path class="cls-1" d="M11.69,5.32A2.33,2.33,0,0,0,9.36,7.65a2.31,2.31,0,0,0,.26,1.06l4.48,7.7L17.29,16l1.1-1.78L13.6,6.31a2.33,2.33,0,0,0-1.91-1Z"/></clipPath><linearGradient id="Безымянный_градиент_13" x1="-76.45" y1="-245.9" x2="-77.75" y2="-245.14" gradientTransform="matrix(3.32, 0, 0, -3.32, 268.26, -807.69)" gradientUnits="userSpaceOnUse"><stop offset="0" stop-color="#7dbd96" stop-opacity="0.37"/><stop offset="1" stop-color="#b7d2bb" stop-opacity="0.65"/></linearGradient><linearGradient id="Безымянный_градиент_7" x1="-76.02" y1="-247.62" x2="-75.59" y2="-248.27" gradientTransform="matrix(3.32, 0, 0, -3.32, 268.26, -807.69)" gradientUnits="userSpaceOnUse"><stop offset="0" stop-color="#4bb165"/><stop offset="0.27" stop-color="#91ca9f"/><stop offset="1" stop-color="#91ca9f" stop-opacity="0"/></linearGradient><linearGradient id="Безымянный_градиент_8-3" x1="163" y1="-246.91" x2="164.25" y2="-246.22" gradientTransform="translate(586.32 -807.69) rotate(180) scale(3.32)" xlink:href="#Безымянный_градиент_8"/><clipPath id="clip-path-5"><path class="cls-1" d="M45,5.32a2.33,2.33,0,0,1,2.33,2.33,2.43,2.43,0,0,1-.25,1.06l-4.48,7.7L39.42,16l-1.1-1.78,4.79-7.94a2.34,2.34,0,0,1,1.91-1Z"/></clipPath><linearGradient id="Безымянный_градиент_13-5" x1="163.86" y1="-245.9" x2="162.55" y2="-245.14" gradientTransform="translate(586.32 -807.69) rotate(180) scale(3.32)" xlink:href="#Безымянный_градиент_13"/><linearGradient id="Безымянный_градиент_11" x1="163" y1="-246.91" x2="164.25" y2="-246.22" gradientTransform="translate(586.32 -807.69) rotate(180) scale(3.32)" gradientUnits="userSpaceOnUse"><stop offset="0" stop-color="#4f9766"/><stop offset="0.13" stop-color="#449a60"/><stop offset="0.25" stop-color="#229b4f"/><stop offset="0.5" stop-color="#44a560"/><stop offset="0.75" stop-color="#42aa60"/><stop offset="1" stop-color="#45ad67"/></linearGradient><linearGradient id="Безымянный_градиент_14" x1="164.37" y1="-247.8" x2="164.72" y2="-248.09" gradientTransform="translate(586.32 -807.69) rotate(180) scale(3.32)" gradientUnits="userSpaceOnUse"><stop offset="0.16" stop-color="#42ae5a"/><stop offset="0.43" stop-color="#8bc795"/><stop offset="1" stop-color="#86c48c"/></linearGradient><radialGradient id="Безымянный_градиент_15" cx="-67.2" cy="-275.07" r="8.09" gradientTransform="matrix(3.47, 0, 0, -2.99, 261.27, -786.08)" gradientUnits="userSpaceOnUse"><stop offset="0" stop-color="#52ab64"/><stop offset="0.29" stop-color="#45ab59"/><stop offset="0.76" stop-color="#4daf61"/><stop offset="0.85" stop-color="#63a86b"/><stop offset="1" stop-color="#80a287"/></radialGradient><linearGradient id="Безымянный_градиент_16" x1="-157.18" y1="-251.04" x2="-157.49" y2="-249.32" gradientTransform="matrix(-2.88, -2.05, 1.51, -3.19, -34.42, -1094.68)" gradientUnits="userSpaceOnUse"><stop offset="0.12" stop-color="#409563"/><stop offset="1" stop-color="#83b785"/></linearGradient><linearGradient id="Безымянный_градиент_20" x1="-149.37" y1="-253.96" x2="-148.33" y2="-254.68" gradientTransform="matrix(-2.7, -1.93, 1.42, -3, -1.2, -1023.25)" gradientUnits="userSpaceOnUse"><stop offset="0" stop-color="#122116"/><stop offset="0.41" stop-color="#050407"/><stop offset="0.76" stop-color="#0d0b0f"/><stop offset="1" stop-color="#09130e"/></linearGradient><clipPath id="clip-path-9"><path class="cls-1" d="M28.34,12.35A27,27,0,0,0,1.48,36.54H55.21A27,27,0,0,0,28.34,12.35Z"/></clipPath><linearGradient id="Безымянный_градиент_18" x1="-72.29" y1="-247.2" x2="-72.29" y2="-250.5" gradientTransform="matrix(3.32, 0, 0, -3.32, 268.26, -807.69)" gradientUnits="userSpaceOnUse"><stop offset="0" stop-color="#a8d3aa"/><stop offset="0.53" stop-color="#9ccea1"/><stop offset="1" stop-color="#8bc68f"/></linearGradient><radialGradient id="Безымянный_градиент_19" cx="-45.93" cy="-246.91" r="0.78" gradientTransform="matrix(2.02, 2.63, 3.33, -1.6, 930.83, -247.24)" gradientUnits="userSpaceOnUse"><stop offset="0" stop-color="#010102"/><stop offset="0.5" stop-color="#020303"/><stop offset="1" stop-color="#09100b"/></radialGradient><clipPath id="clip-path-11"><ellipse class="cls-1" cx="40.9" cy="26.83" rx="2.43" ry="2.98" transform="translate(-7.98 28.69) rotate(-35.44)"/></clipPath><linearGradient id="Безымянный_градиент_26" x1="-78.18" y1="-249.18" x2="-75.46" y2="-247.27" gradientTransform="matrix(3.32, 0, 0, -3.32, 268.26, -807.69)" gradientUnits="userSpaceOnUse"><stop offset="0" stop-color="#86ac8d"/><stop offset="1" stop-color="#74bd7e"/></linearGradient><clipPath id="clip-path-17"><path class="cls-1" d="M28.38,12.35A27,27,0,0,1,55.23,36.54H1.5A27,27,0,0,1,28.38,12.35Z"/></clipPath><linearGradient id="Безымянный_градиент_26-5" x1="162.13" y1="-249.18" x2="164.85" y2="-247.27" gradientTransform="translate(586.32 -807.69) rotate(180) scale(3.32)" xlink:href="#Безымянный_градиент_26"/></defs><g id="layer1"><g id="g42572"><path id="rect366" class="cls-2" d="M6,38.89,1.46,51.15h2l1-3H9.74l1,3h2L8.2,38.89Zm21.67,0v5.2a3.23,3.23,0,0,0-2.27-1,4.16,4.16,0,0,0,0,8.32,3,3,0,0,0,2.29-1.09v.87h1.73V38.89Zm25.82,0v5.2a3.21,3.21,0,0,0-2.27-1,4.16,4.16,0,0,0,0,8.32,3,3,0,0,0,2.28-1.09v.87h1.73V38.89Zm-8,.66a1.14,1.14,0,1,0,1.14,1.14h0a1.14,1.14,0,0,0-1.14-1.14ZM7.11,40.63l2,5.81H5.08ZM17,43.05a3.58,3.58,0,0,0-3.52,3.32v4.78H15.2V46.37A1.84,1.84,0,0,1,17,44.62a1.87,1.87,0,0,1,1.83,1.75v4.78h1.73V46.37A3.61,3.61,0,0,0,17,43.05Zm22.63,0a4.14,4.14,0,1,0,4.14,4.14,4.09,4.09,0,0,0-4.14-4.14Zm-5.53,0C32,43.09,30.5,44.6,30.5,47v4.15h1.73V47a2.26,2.26,0,0,1,.65-1.79c.58-.57,1.14-.62,2.33-.53V43.24a3.11,3.11,0,0,0-1.12-.15Zm10.53.2v7.86h1.73V43.29ZM25.51,44.64a2.6,2.6,0,1,1-2.34,2.59,2.44,2.44,0,0,1,2.34-2.59Zm25.82,0A2.6,2.6,0,1,1,49,47.23,2.43,2.43,0,0,1,51.33,44.64Zm-11.72,0A2.45,2.45,0,0,1,42,47.21a2.42,2.42,0,1,1-4.83,0A2.45,2.45,0,0,1,39.61,44.64Z"/></g></g><g id="g42526"><g id="g28183"><path id="path7721" class="cls-3" d="M11.69,5.32A2.33,2.33,0,0,0,9.36,7.65a2.31,2.31,0,0,0,.26,1.06l4.48,7.7L17.29,16l1.1-1.78L13.6,6.31A2.33,2.33,0,0,0,11.69,5.32Z"/><g class="cls-4"><path id="path24395" class="cls-5" d="M9.36,7C10.69,6,12,5.75,13.2,6.53l4.38,8.23,1.85-1.11-3.13-8-3.76-2L9.2,5.47Z"/></g><g class="cls-4"><path id="path28163" class="cls-5" d="M9.36,7C10.69,6,12,5.75,13.2,6.53l4.38,8.23,1.85-1.11-3.13-8-3.76-2L9.2,5.47Z"/></g><path id="path28171" class="cls-3" d="M11.69,5.32A2.33,2.33,0,0,0,9.36,7.65a2.31,2.31,0,0,0,.26,1.06l4.48,7.7L17.29,16l1.1-1.78L13.6,6.31A2.33,2.33,0,0,0,11.69,5.32Z"/><g class="cls-4"><path id="path28173" class="cls-5" d="M9.36,7C10.69,6,12,5.75,13.2,6.53l4.38,8.23,1.85-1.11-3.13-8-3.76-2L9.2,5.47Z"/></g><g class="cls-4"><path id="path28175" class="cls-5" d="M9.36,7C10.69,6,12,5.75,13.2,6.53l4.38,8.23,1.85-1.11-3.13-8-3.76-2L9.2,5.47Z"/></g></g><path id="path39742" class="cls-6" d="M18.11,13.78l-4,2.63,4,.9c.42-1.26,1.81-2.71,0-3.53Z"/><g id="g28927"><path id="path28185" class="cls-7" d="M45,5.32a2.33,2.33,0,0,1,2.33,2.33,2.43,2.43,0,0,1-.25,1.06l-4.48,7.7L39.42,16l-1.1-1.78,4.79-7.94A2.34,2.34,0,0,1,45,5.32Z"/><g class="cls-8"><path id="path28187" class="cls-9" d="M47.35,7C46,6,44.76,5.75,43.51,6.53l-4.38,8.23-1.85-1.11,3.14-8,3.76-2,3.34,1.82Z"/></g><g class="cls-8"><path id="path28189" class="cls-9" d="M47.35,7C46,6,44.76,5.75,43.51,6.53l-4.38,8.23-1.85-1.11,3.14-8,3.76-2,3.34,1.82Z"/></g><path id="path28191" class="cls-10" d="M45,5.32a2.33,2.33,0,0,1,2.33,2.33,2.43,2.43,0,0,1-.25,1.06l-4.48,7.7L39.42,16l-1.1-1.78,4.79-7.94A2.34,2.34,0,0,1,45,5.32Z"/><g class="cls-8"><path id="path28193" class="cls-9" d="M47.35,7C46,6,44.76,5.75,43.51,6.53l-4.38,8.23-1.85-1.11,3.14-8,3.76-2,3.34,1.82Z"/></g><g class="cls-8"><path id="path28195" class="cls-9" d="M47.35,7C46,6,44.76,5.75,43.51,6.53l-4.38,8.23-1.85-1.11,3.14-8,3.76-2,3.34,1.82Z"/></g></g><path id="path40074" class="cls-11" d="M38.61,13.78l4,2.63-4,.9c-.41-1.26-1.81-2.71,0-3.53Z"/><path id="path7716" class="cls-12" d="M28.34,12.35A27,27,0,0,0,1.48,36.54H55.21A27,27,0,0,0,28.34,12.35Z"/><ellipse id="ellipse36630" class="cls-13" cx="40.9" cy="26.8" rx="2.58" ry="3.17" transform="translate(-7.96 28.68) rotate(-35.44)"/><ellipse id="ellipse36208" class="cls-14" cx="40.9" cy="26.83" rx="2.43" ry="2.98" transform="translate(-7.98 28.69) rotate(-35.44)"/><g class="cls-15"><path id="path16883" class="cls-16" d="M5.76,24.55h7.91c2.55-2.9,6.78-3.35,12.85-3.35,9.9,0,13.11-1.46,15.88,3.35h8.35C49,17.91,38.4,13.06,28.34,13.06,17.55,13.22,7.31,18.75,5.76,24.55Z"/></g><ellipse id="path8454" class="cls-17" cx="15.93" cy="26.83" rx="3.02" ry="2.39" transform="translate(-15.05 23.12) rotate(-52.47)"/><g class="cls-15"><path id="path19040" class="cls-18" d="M12.18,20.82h5.66c1.82-2.07,6-2,9.59-2,5.91,0,9-1.43,10.94,2h6c-1.27-4.74-8.83-7.76-16-7.76C20.74,13.17,13.29,16.68,12.18,20.82Z"/></g><ellipse id="ellipse8456" class="cls-14" cx="40.9" cy="26.83" rx="2.43" ry="2.98" transform="translate(-7.98 28.69) rotate(-35.44)"/><g class="cls-19"><path id="path31282" class="cls-20" d="M42.45,29.37c.42-.43,1-1.51.85-1.76.52-2.41-1.39-3.34-2.91-3.59l3.7-.21L45,26.48C45.31,27.68,44,29,42.45,29.37Z"/></g><path id="path32109" class="cls-21" d="M41,24.8A4.24,4.24,0,0,0,39,24.55C39.71,24.28,40.36,24,41,24.8Z"/><g class="cls-19"><path id="path32660" class="cls-22" d="M39.54,24.19c1.17-.47,2,.25,2.94.76l-.2-1.26-2.81.12Z"/></g><path id="path34195" class="cls-23" d="M41.36,24.76h0a.3.3,0,0,0-.13.09.22.22,0,0,0,.06.3,2.7,2.7,0,0,1,.72.71.22.22,0,0,0,.29.05.2.2,0,0,0,0-.29,3.07,3.07,0,0,0-.83-.82.15.15,0,0,0-.11,0Zm-26,.06a.17.17,0,0,0-.11,0,3.37,3.37,0,0,0-.83.81.23.23,0,0,0,0,.3.21.21,0,0,0,.3,0,2.55,2.55,0,0,1,.72-.71.22.22,0,0,0,.06-.29.22.22,0,0,0-.14-.09h-.05Zm2,2.81s-.11,0-.15.06a2.62,2.62,0,0,1-.55.41.2.2,0,0,0-.08.28.21.21,0,0,0,.29.08,3.05,3.05,0,0,0,.64-.47.22.22,0,0,0,0-.3s-.19,0-.15-.06Zm22.09,0a.2.2,0,0,0-.15.06.22.22,0,0,0,0,.3,3.05,3.05,0,0,0,.64.47.21.21,0,0,0,.29-.08.2.2,0,0,0-.08-.28,2.91,2.91,0,0,1-.55-.41.2.2,0,0,0-.15-.06Z"/><path id="path39682" class="cls-23" d="M41.36,24.76h0a.3.3,0,0,0-.13.09.22.22,0,0,0,.06.3,2.7,2.7,0,0,1,.72.71.22.22,0,0,0,.29.05.2.2,0,0,0,0-.29,3.07,3.07,0,0,0-.83-.82.15.15,0,0,0-.11,0Zm-26,.06a.17.17,0,0,0-.11,0,3.37,3.37,0,0,0-.83.81.23.23,0,0,0,0,.3.21.21,0,0,0,.3,0,2.55,2.55,0,0,1,.72-.71.22.22,0,0,0,.06-.29.22.22,0,0,0-.14-.09h-.05Zm2,2.81s-.11,0-.15.06a2.62,2.62,0,0,1-.55.41.2.2,0,0,0-.08.28.21.21,0,0,0,.29.08,3.05,3.05,0,0,0,.64-.47.22.22,0,0,0,0-.3s-.19,0-.15-.06Zm22.09,0a.2.2,0,0,0-.15.06.22.22,0,0,0,0,.3,3.05,3.05,0,0,0,.64.47.21.21,0,0,0,.29-.08.2.2,0,0,0-.08-.28,2.91,2.91,0,0,1-.55-.41.2.2,0,0,0-.15-.06Z"/><g class="cls-15"><path id="path40556" class="cls-24" d="M18.39,14.25C15.21,16,11.17,18.32,8.2,22L8,18.1Z"/></g><g class="cls-15"><path id="path41268" class="cls-24" d="M18.39,14.25C15.21,16,11.17,18.32,8.2,22L8,18.1Z"/></g><g class="cls-15"><path id="path41276" class="cls-24" d="M18.39,14.25C15.21,16,11.17,18.32,8.2,22L8,18.1Z"/></g><g class="cls-15"><path id="path41278" class="cls-24" d="M18.39,14.25C15.21,16,11.17,18.32,8.2,22L8,18.1Z"/></g><g class="cls-25"><path id="path41288" class="cls-26" d="M38.32,14.25C41.5,16,45.55,18.32,48.51,22l.21-3.94Z"/></g><g class="cls-25"><path id="path41290" class="cls-26" d="M38.32,14.25C41.5,16,45.55,18.32,48.51,22l.21-3.94Z"/></g></g></svg>