<svg id="Слой_1" data-name="Слой 1" xmlns="http://www.w3.org/2000/svg" viewBox="0 0 56.69 56.69"><defs><style>.cls-1{fill:#077ebb;}</style></defs><g id="layer1"><g id="g2458"><path id="path2428" class="cls-1" d="M48.15,45.18H43.27l2-2.64H39.85l-1.94,2.54a4.5,4.5,0,0,0-.79,2.74v.4a.66.66,0,0,0,.71.71H48.15a.64.64,0,0,0,.7-.7V45.88a.64.64,0,0,0-.7-.7m-27.8-9.32a.73.73,0,0,0-.77-.66H18.2a4,4,0,0,0-3.41,1.91L12,41.59h9.37Zm15.43,0a.63.63,0,0,0-.69-.7H32.28a.64.64,0,0,0-.7.7v5.32l-2.66-4.79a2.75,2.75,0,0,0-2.48-1.23H24.36a.63.63,0,0,0-.69.7v5.69h3.49l.54.95h-4v5.69a.64.64,0,0,0,.69.71h2.82a.64.64,0,0,0,.7-.71V42.87l2.68,4.83A2.76,2.76,0,0,0,33,48.94h2.06a.64.64,0,0,0,.69-.71V42.54H32.32l-.54-.95h4ZM21.53,42.54H16.91c.11.65,1,5.46,1,5.74a.72.72,0,0,0,.74.66h3.19a.66.66,0,0,0,.57-.26.7.7,0,0,0,.09-.55ZM8,48.07a.61.61,0,0,0,0,.59.56.56,0,0,0,.5.28h3.3a1.18,1.18,0,0,0,1-.57l3.65-5.83h-5L8,48.07m30-9.13h4.66l-2,2.65H46L48,39a3.38,3.38,0,0,0,.75-2.16v-.91a.65.65,0,0,0-.7-.71H37.92a.63.63,0,0,0-.69.7v2.35a.63.63,0,0,0,.69.69"/></g></g><path id="path2426" class="cls-1" d="M29.36,15.21a2.62,2.62,0,0,1,2.56,2.48,3.48,3.48,0,0,1-.63,2,3.64,3.64,0,0,0-.51,1.09c-.08.34-.26,1.17.75,1.18a5.5,5.5,0,0,0,3.6-2.14,7.38,7.38,0,1,0-11.54,0A5.47,5.47,0,0,0,27.18,22c1,0,.83-.84.76-1.18a3.91,3.91,0,0,0-.51-1.09,3.49,3.49,0,0,1-.64-2,2.63,2.63,0,0,1,2.57-2.48m13,7.52A3.69,3.69,0,0,0,40.48,22a7.24,7.24,0,0,0-3.67.45A8.07,8.07,0,0,0,33.52,25a6.77,6.77,0,0,0-1,5.4A4.93,4.93,0,0,0,33,31.75a3.11,3.11,0,0,0,1.69,1.48,1.2,1.2,0,0,0,1.12-.42c1.32-1.53,6.32-7.44,6.86-8.2a1.34,1.34,0,0,0-.3-1.88M21.9,22.4A7.19,7.19,0,0,0,18.24,22a3.65,3.65,0,0,0-1.93.78,1.33,1.33,0,0,0-.3,1.88c.54.76,5.54,6.67,6.86,8.2a1.19,1.19,0,0,0,1.12.42,3.06,3.06,0,0,0,1.68-1.48,4.61,4.61,0,0,0,.5-1.32,6.81,6.81,0,0,0-1-5.4,8,8,0,0,0-3.3-2.63"/></svg>