<svg id="Слой_1" data-name="Слой 1" xmlns="http://www.w3.org/2000/svg" viewBox="0 0 56.69 56.69"><defs><style>.cls-1{fill:#010101;}</style></defs><path class="cls-1" d="M48,20.14A11.7,11.7,0,0,0,42.42,30,11.39,11.39,0,0,0,49.34,40.4a27.23,27.23,0,0,1-3.54,7.31c-2.21,3.18-4.52,6.35-8,6.35s-4.41-2-8.46-2-5.35,2.1-8.56,2.1-5.44-2.94-8-6.55A31.59,31.59,0,0,1,7.35,30.5c0-10,6.52-15.34,12.94-15.34,3.41,0,6.25,2.24,8.39,2.24S33.89,15,37.77,15A12.16,12.16,0,0,1,48,20.14ZM35.93,10.78A11.52,11.52,0,0,0,38.67,3.6a4.77,4.77,0,0,0-.1-1A11.58,11.58,0,0,0,31,6.47a11.2,11.2,0,0,0-2.84,7,4.65,4.65,0,0,0,.1.93,4.11,4.11,0,0,0,.7.07,10,10,0,0,0,7-3.68Z"/></svg>