<svg id="Слой_1" data-name="Слой 1" xmlns="http://www.w3.org/2000/svg" viewBox="0 0 56.69 56.69"><defs><style>.cls-1{fill:#010101;}</style></defs><g id="layer1"><path id="path36902" class="cls-1" d="M46.26,18.5a10.05,10.05,0,0,0-6,2,10,10,0,0,0-11.94,0,10,10,0,0,0-12,0,9.89,9.89,0,1,0-6,17.72,10.09,10.09,0,0,0,6-2,10.09,10.09,0,0,0,12,0,9.93,9.93,0,0,0,6,2,10.09,10.09,0,0,0,6-2,9.9,9.9,0,1,0,6-17.73Zm-6,14.93a7.63,7.63,0,0,1,0-10.17,7.63,7.63,0,0,1,0,10.17Zm-11.94,0a7.63,7.63,0,0,1,0-10.17,7.66,7.66,0,0,1,0,10.17Zm-12,0a7.63,7.63,0,0,1,0-10.17,7.66,7.66,0,0,1,1.94,5.09A7.51,7.51,0,0,1,16.4,33.43ZM2.52,28.35A7.91,7.91,0,0,1,14.84,21.9a9.75,9.75,0,0,0,0,12.9,8.07,8.07,0,0,1-4.41,1.33,7.86,7.86,0,0,1-7.91-7.78ZM18,34.8a9.75,9.75,0,0,0,0-12.9,8,8,0,0,1,4.41-1.34,7.77,7.77,0,0,1,4.42,1.34,9.66,9.66,0,0,0-2.48,6.45,9.55,9.55,0,0,0,2.48,6.45,8,8,0,0,1-8.83,0Zm11.94,0a9.69,9.69,0,0,0,2.48-6.45A9.51,9.51,0,0,0,29.9,21.9a8,8,0,0,1,4.42-1.34,7.76,7.76,0,0,1,4.41,1.34,9.7,9.7,0,0,0-2.47,6.45,9.59,9.59,0,0,0,2.47,6.45,8,8,0,0,1-8.83,0Zm16.36,1.33a7.9,7.9,0,0,1-4.41-1.33,9.74,9.74,0,0,0,2.48-6.45,9.56,9.56,0,0,0-2.48-6.45,8,8,0,0,1,4.41-1.34,7.79,7.79,0,1,1,0,15.57Z"/></g></svg>