<svg id="Слой_1" data-name="Слой 1" xmlns="http://www.w3.org/2000/svg" viewBox="0 0 56.69 56.69"><defs><style>.cls-1{fill:#25303f;}.cls-2{fill:#f4991a;fill-rule:evenodd;}</style></defs><path class="cls-1" d="M16.94,24.07a5.4,5.4,0,0,0,.19,1.55,10,10,0,0,0,.56,1.25.73.73,0,0,1,.12.4.67.67,0,0,1-.33.52l-1.09.73a.91.91,0,0,1-.46.16.81.81,0,0,1-.52-.25,5.63,5.63,0,0,1-.62-.81c-.18-.3-.35-.63-.54-1A6.43,6.43,0,0,1,9.14,29a4.79,4.79,0,0,1-3.48-1.25A4.49,4.49,0,0,1,4.37,24.4,4.46,4.46,0,0,1,6,20.82a6.3,6.3,0,0,1,4.26-1.36,15.25,15.25,0,0,1,1.85.14c.64.09,1.3.23,2,.38V18.72a3.86,3.86,0,0,0-.82-2.79,4,4,0,0,0-2.84-.8,7.71,7.71,0,0,0-1.87.23A14.67,14.67,0,0,0,6.65,16c-.28.12-.49.19-.61.23a1.28,1.28,0,0,1-.28.05c-.24,0-.36-.17-.36-.54v-.85a1.07,1.07,0,0,1,.12-.61A1.29,1.29,0,0,1,6,13.87a9.77,9.77,0,0,1,2.19-.79,10.76,10.76,0,0,1,2.71-.33,6.33,6.33,0,0,1,4.55,1.41,5.74,5.74,0,0,1,1.45,4.28v5.63ZM9.88,26.71a5.53,5.53,0,0,0,1.79-.31,3.9,3.9,0,0,0,1.66-1.11,3,3,0,0,0,.59-1.12,6.42,6.42,0,0,0,.17-1.51v-.73a14.72,14.72,0,0,0-1.6-.29,13,13,0,0,0-1.63-.11,4,4,0,0,0-2.59.7,2.41,2.41,0,0,0-.86,2,2.42,2.42,0,0,0,.65,1.84A2.42,2.42,0,0,0,9.88,26.71Zm14,1.88a1,1,0,0,1-.66-.17,1.41,1.41,0,0,1-.36-.68L18.73,14.3a3.11,3.11,0,0,1-.15-.7.38.38,0,0,1,.41-.43H20.7a1,1,0,0,1,.67.17,1.41,1.41,0,0,1,.35.68l2.92,11.51L27.35,14a1.25,1.25,0,0,1,.34-.68,1.2,1.2,0,0,1,.69-.17h1.39a1.07,1.07,0,0,1,.7.17,1.2,1.2,0,0,1,.33.68l2.74,11.65,3-11.65a1.6,1.6,0,0,1,.35-.68,1.16,1.16,0,0,1,.68-.17h1.61a.39.39,0,0,1,.44.43,1.45,1.45,0,0,1,0,.28,1.85,1.85,0,0,1-.12.44L35.28,27.76a1.28,1.28,0,0,1-.36.67,1.08,1.08,0,0,1-.66.18h-1.5a1,1,0,0,1-.69-.18,1.2,1.2,0,0,1-.33-.69L29,16.52l-2.68,11.2a1.34,1.34,0,0,1-.33.7,1.08,1.08,0,0,1-.69.17Zm22.34.47a11.89,11.89,0,0,1-2.67-.31,7.94,7.94,0,0,1-2-.7,1.25,1.25,0,0,1-.54-.49,1.2,1.2,0,0,1-.11-.48v-.89c0-.36.14-.54.4-.54a1.19,1.19,0,0,1,.32.05l.43.18a9.48,9.48,0,0,0,1.91.61,10.44,10.44,0,0,0,2.07.2,4.71,4.71,0,0,0,2.54-.57,1.87,1.87,0,0,0,.9-1.65A1.67,1.67,0,0,0,49,23.25a4.35,4.35,0,0,0-1.75-.9l-2.52-.78a5.24,5.24,0,0,1-2.78-1.78A4.08,4.08,0,0,1,41,17.27a3.81,3.81,0,0,1,.47-1.93,4.47,4.47,0,0,1,1.25-1.42A5.5,5.5,0,0,1,44.57,13a7.48,7.48,0,0,1,2.19-.29,9,9,0,0,1,1.16.07c.4.05.77.12,1.13.19s.68.17,1,.28a3.79,3.79,0,0,1,.73.31,1.47,1.47,0,0,1,.52.43.91.91,0,0,1,.16.58v.81c0,.37-.14.56-.4.56a1.82,1.82,0,0,1-.66-.21,8,8,0,0,0-3.34-.68,4.48,4.48,0,0,0-2.31.49,1.69,1.69,0,0,0-.82,1.55,1.65,1.65,0,0,0,.52,1.23,5.34,5.34,0,0,0,1.92,1l2.47.78a5.3,5.3,0,0,1,2.69,1.67,3.92,3.92,0,0,1,.8,2.43,4.55,4.55,0,0,1-.45,2,4.8,4.8,0,0,1-1.27,1.53,5.4,5.4,0,0,1-1.93,1A8.06,8.06,0,0,1,46.18,29.06Z"/><path class="cls-2" d="M49.47,37.51C43.75,41.73,35.44,44,28.29,44A38.34,38.34,0,0,1,2.44,34.12c-.54-.49,0-1.15.59-.77A52.12,52.12,0,0,0,28.9,40.22a51.61,51.61,0,0,0,19.73-4C49.59,35.75,50.41,36.81,49.47,37.51Z"/><path class="cls-2" d="M51.85,34.8c-.73-.94-4.83-.46-6.69-.23-.56.07-.65-.42-.14-.78,3.27-2.3,8.64-1.64,9.26-.87s-.17,6.15-3.23,8.73c-.47.4-.92.19-.71-.33C51,39.59,52.58,35.72,51.85,34.8Z"/></svg>