<svg id="Слой_1" data-name="Слой 1" xmlns="http://www.w3.org/2000/svg" viewBox="0 0 56.69 56.69"><defs><style>.cls-1{fill:#283172;}.cls-2{fill:#e62d2e;}.cls-3{fill:#fff;}</style></defs><g id="layer1"><g id="g76"><rect id="base-2" class="cls-1" width="57.37" height="57.37"/><polygon id="switch" class="cls-2" points="32.26 28.33 35.55 28.33 57.37 0 54.15 0 32.26 28.33"/><path id="axa" class="cls-3" d="M43.83,41c1,2.8,3.06,10.08,3.88,10.66H42.3a8.85,8.85,0,0,0-.25-1.91c-.23-.83-2.19-7.13-2.19-7.13H31.27l-1.35,1.92s1.62,5.08,1.72,5.33c.18.45,1,1.79,1,1.79H27.41s-.14-.78-.19-1.1-.49-1.69-.49-1.69a15.39,15.39,0,0,0-1.49,1.89c-.33.59-.47.9-.47.9H20.71s-.13-.78-.18-1.1-.54-1.8-.54-1.8a22.3,22.3,0,0,0-1.46,2c-.32.6-.46.93-.46.93h-4s1.14-1.08,1.53-1.54c.67-.79,3.16-4,3.16-4l-1-3.46H9.23S4.36,49,4.17,49.18a20.13,20.13,0,0,0-1.64,2.45H0V50l.1-.09c.08-.06,3.69-4.54,7-9,3-3.85,5.77-7.59,6-7.95a25.57,25.57,0,0,0,1.45-2.72H19a18.81,18.81,0,0,0,.26,2.12c.12.37,2.8,9.18,2.86,9.28l1.49-1.9L21.05,32a13,13,0,0,0-.79-1.69h5.15a4.44,4.44,0,0,0,.17,1.4c.21.64,1.31,4.62,1.31,4.62s3.51-4.4,3.72-4.72A2.75,2.75,0,0,0,31,30.3h4.29a13.45,13.45,0,0,0-2.16,2.31l-5,6.34s.39,1.35.59,2c.05.2.09.33.09.34l.27-.34c1.17-1.48,6.48-8.45,6.81-9a12.91,12.91,0,0,0,.86-1.62H41a11.57,11.57,0,0,0,.22,1.59Zm-6.37-6.6a55.3,55.3,0,0,1-4.23,5.73H39s-1.11-3.42-1.3-4.19a6.29,6.29,0,0,1-.12-1.5C37.54,34.34,37.53,34.23,37.46,34.37Zm-22,0a55.3,55.3,0,0,1-4.23,5.73H17s-1.11-3.42-1.31-4.19a6.85,6.85,0,0,1-.11-1.5C15.53,34.34,15.52,34.23,15.45,34.37Zm8.63,13.36,1.57-2.17c-.14-.15-1-2.85-1-2.85l-1.52,2Z"/></g></g></svg>