<svg id="Слой_1" data-name="Слой 1" xmlns="http://www.w3.org/2000/svg" xmlns:xlink="http://www.w3.org/1999/xlink" viewBox="0 0 56.69 56.69"><defs><style>.cls-1{fill:url(#Безымянный_градиент_4);}.cls-2{fill:#2974ba;}.cls-3{fill:url(#Безымянный_градиент_2);}.cls-4{fill:url(#Безымянный_градиент_3);}</style><linearGradient id="Безымянный_градиент_4" x1="-1052.01" y1="-82.42" x2="-1061.96" y2="-53.04" gradientTransform="translate(1669.14 136.84) scale(1.56)" gradientUnits="userSpaceOnUse"><stop offset="0" stop-color="#114b8c"/><stop offset="1" stop-color="#1d69b2"/></linearGradient><linearGradient id="Безымянный_градиент_2" x1="-1048.9" y1="-68.73" x2="-1051.2" y2="-67.95" gradientTransform="translate(1669.14 136.84) scale(1.56)" gradientUnits="userSpaceOnUse"><stop offset="0" stop-color="#010101" stop-opacity="0.3"/><stop offset="0.07" stop-color="#010101" stop-opacity="0.2"/><stop offset="0.32" stop-color="#010101" stop-opacity="0.1"/><stop offset="0.62" stop-color="#010101" stop-opacity="0.05"/><stop offset="1" stop-color="#010101" stop-opacity="0"/></linearGradient><linearGradient id="Безымянный_градиент_3" x1="-1050.1" y1="-83.31" x2="-1039.18" y2="-54.22" gradientTransform="translate(1669.14 136.84) scale(1.56)" gradientUnits="userSpaceOnUse"><stop offset="0" stop-color="#4fc2eb"/><stop offset="1" stop-color="#358fcd"/></linearGradient></defs><path class="cls-1" d="M19.92,4.52h15l-15.53,46a2.39,2.39,0,0,1-2.26,1.62H5.44a2.39,2.39,0,0,1-2.38-2.38A2.17,2.17,0,0,1,3.19,49L17.66,6.14a2.39,2.39,0,0,1,2.26-1.62Z"/><path class="cls-2" d="M41.67,35.39H17.94a1.1,1.1,0,0,0-1.1,1.1,1,1,0,0,0,.35.8L32.43,51.53a2.43,2.43,0,0,0,1.64.64H47.51Z"/><path class="cls-3" d="M19.92,4.52a2.38,2.38,0,0,0-2.27,1.66L3.2,49a2.38,2.38,0,0,0,1.44,3,2.46,2.46,0,0,0,.81.14h12a2.57,2.57,0,0,0,2-1.67L22.24,42l10.29,9.6a2.38,2.38,0,0,0,1.53.56H47.45L41.58,35.39H24.46L34.94,4.52Z"/><path class="cls-4" d="M39,6.14a2.37,2.37,0,0,0-2.25-1.62H20.1a2.39,2.39,0,0,1,2.26,1.62L36.83,49a2.39,2.39,0,0,1-1.5,3,2.42,2.42,0,0,1-.76.12H51.25a2.38,2.38,0,0,0,2.38-2.38,2.42,2.42,0,0,0-.12-.76Z"/></svg>