<svg id="Слой_1" data-name="Слой 1" xmlns="http://www.w3.org/2000/svg" viewBox="0 0 56.69 56.69"><defs><style>.cls-1{fill:#324697;}.cls-2{fill:#fff;}.cls-3{fill:#e10f14;}</style></defs><g id="g2225"><path id="path2227" class="cls-1" d="M31.25,22.64c3.36-.72,2.9-4.73,2.8-5.6-.17-1.35-1.75-3.71-3.91-3.53-2.71.25-3.11,4.17-3.11,4.17-.37,1.81.88,5.69,4.22,5m6.23-6.72c1.85,0,3.34-2.13,3.34-4.76s-1.49-4.77-3.34-4.77-3.35,2.13-3.35,4.77,1.5,4.76,3.35,4.76m8,.32c2.47.32,4.06-2.32,4.38-4.32a4.52,4.52,0,0,0-3-4.73c-1.76-.4-4,2.41-4.15,4.25-.24,2.24.32,4.48,2.8,4.8m9.8,3.36c0-1-.79-3.85-3.74-3.85s-3.35,2.73-3.35,4.65.15,4.4,3.83,4.32,3.26-4.16,3.26-5.12M51.52,28a34.17,34.17,0,0,1-6.06-6.17c-3-4.72-7.34-2.8-8.78-.4a20.37,20.37,0,0,1-4,4.33c-.32.39-4.62,2.72-3.67,7s4.31,4.16,4.31,4.16a18.91,18.91,0,0,0,5.34-.4,11.23,11.23,0,0,1,5.35.16s6.7,2.25,8.53-2.08-1-6.56-1-6.56"/><path id="path2229" class="cls-2" d="M38.07,23.88v2.85H35.75a3.82,3.82,0,0,0-3.13,2.82,5,5,0,0,0,.34,3,3.86,3.86,0,0,0,2.73,1.88h4.36V23.91Zm0,8.83H36.28a1.84,1.84,0,0,1-1.59-1.47,2.93,2.93,0,0,1,.12-1.63,2.06,2.06,0,0,1,1.35-1.19H38v4.29Z"/><path id="path2231" class="cls-2" d="M41.11,27v5.55s.09,1.38,2,1.88h5V27H46v5.58H43.94s-.66-.1-.79-.63V27Z"/><path id="path2237" class="cls-3" d="M23.51,25.68h2.6v-2.3h-2.6Zm0,10h2.6v-9h-2.6Z"/><path id="path2239" class="cls-3" d="M19.27,26.68H13.72v1.89h4.87s1.16.29,1.16,1v.67H15.34a2.81,2.81,0,0,0-2.29,2.23,3.61,3.61,0,0,0,.1,1.63,2.74,2.74,0,0,0,2.08,1.6h7V29.26a3.29,3.29,0,0,0-3-2.58m.48,7.25H16.2a1.14,1.14,0,0,1-.67-.59.85.85,0,0,1,0-.65,1.33,1.33,0,0,1,.76-.69h3.47Z"/><path id="path2241" class="cls-3" d="M12.48,32.52a3.11,3.11,0,0,0-1.89-3C12.25,28.7,12,26.51,12,26.51c-.18-3.36-4.28-3.21-4.28-3.21H1.42V35.82H8.57c4.21,0,3.91-3.3,3.91-3.3m-4.05,1H4.14V30.8H8.41l.14,0a1.58,1.58,0,0,1,1.11.88,1.59,1.59,0,0,1-.2,1.19,1.44,1.44,0,0,1-1,.59m.91-5.8a1.44,1.44,0,0,1-1.05.64H4.14V25.74H8.27a1.27,1.27,0,0,1,1.19.67,2,2,0,0,1-.12,1.28"/></g><path id="path2233" class="cls-3" d="M13.36,40.08V38.27H1.43v1.84H6.55l-.49,1.1H1.7V50.3H12.07a1,1,0,0,0,1-1.09v-8H8.68l.39-1.13Zm-2.31,8.28s-.13.3-.31.3H3.87V46.54h7.18v1.82Zm0-3.57H3.87v-2H11v2Z"/><path id="path2235" class="cls-3" d="M27,38.32H22.32V37.4h-2.2v.88H14.75v12h1.93V39.82H27Zm-1.26,2.49v-.7H23.85v.7H20v-.67H18.18v.67H17l0,1.36h1.19v2.55h6.53a1.08,1.08,0,0,0,1-1V42.17h1.38V40.8H25.74Zm-1.89,2.28s-.17.31-.38.31H20V42.14h3.9v1h0Zm-6.62,3.49,3,1.75a4.7,4.7,0,0,1-1.26.59H17v1.34h2.72A13.3,13.3,0,0,0,22,49.33a4.54,4.54,0,0,0,1.82.81h3.1V48.8H24.59a3.5,3.5,0,0,1-1.2-.45l3.54-2v-1.1H17.24v1.36Zm6.26,0-1.72.91-1.57-.91Z"/></svg>