<svg id="Слой_1" data-name="Слой 1" xmlns="http://www.w3.org/2000/svg" viewBox="0 0 56.69 56.69"><defs><style>.cls-1{fill:#231f20;}</style></defs><path class="cls-1" d="M6.53,22.07c0,1.53-1.61,1.66-2.31,1.66a5.82,5.82,0,0,1-.6,0V20.63s.33,0,.94,0C5.5,20.6,6.53,21,6.53,22.07Zm2.11,4.05c0-2-2.83-2.2-2.83-2.2S7.74,23.43,7.74,22c0-1.64-2.18-1.88-3.15-1.88H1.88a.54.54,0,0,1,.4.54v7.22a.57.57,0,0,1-.4.55H5C8,28.42,8.64,27.07,8.64,26.12ZM7.27,26c0,1.82-2.08,1.93-3,1.93a6.47,6.47,0,0,1-.67,0V24.27s.7,0,1.14,0C6,24.24,7.27,24.56,7.27,26Z"/><path class="cls-1" d="M14.6,25.42H11.39C12,24.1,13,22,13,22S13.86,23.88,14.6,25.42Zm3.39,3c-.5-.19-.6-.34-.71-.59l-3.91-7.92s-3.66,7.45-3.9,7.92a1.4,1.4,0,0,1-.66.59h1.74c-.37-.12-.41-.31-.3-.59s.43-1,.9-1.88h3.69c.44.94.84,1.73.93,1.88s0,.45-.36.59Z"/><path class="cls-1" d="M26.44,20.66v8s-6.79-7.07-6.79-7.19v6.4a.55.55,0,0,0,.4.55H18.61a.6.6,0,0,0,.37-.55V21.12c0-.35,0-.38-.17-.57a1.63,1.63,0,0,0-.66-.44h2l5.64,5.95v-5.4a.55.55,0,0,0-.37-.55h1.44A.58.58,0,0,0,26.44,20.66Z"/><path class="cls-1" d="M33.05,25.42h-3.2C30.47,24.1,31.44,22,31.44,22S32.31,23.88,33.05,25.42Zm3.4,3c-.5-.19-.6-.34-.72-.59-.22-.47-3.9-7.92-3.9-7.92s-3.67,7.45-3.91,7.92a1.4,1.4,0,0,1-.66.59H29c-.37-.12-.41-.31-.29-.59s.42-1,.89-1.88h3.7c.44.94.84,1.73.92,1.88s0,.45-.35.59Z"/><path class="cls-1" d="M45,20.66v8s-6.8-7.07-6.8-7.19v6.4a.56.56,0,0,0,.4.55H37.12a.6.6,0,0,0,.38-.55V21.12c0-.35,0-.37-.18-.57a1.6,1.6,0,0,0-.65-.44h2l5.65,5.95v-5.4a.59.59,0,0,0-.37-.55h1.43A.56.56,0,0,0,45,20.66Z"/><path class="cls-1" d="M51.42,25.42H48.21c.63-1.32,1.6-3.42,1.6-3.42S50.68,23.88,51.42,25.42Zm3.4,3c-.5-.19-.6-.34-.72-.6L50.2,19.9s-3.67,7.46-3.91,7.92a1.37,1.37,0,0,1-.66.6h1.74c-.37-.12-.41-.31-.3-.6s.43-.95.9-1.87h3.69c.45.94.85,1.73.93,1.87s0,.46-.36.6Z"/><path class="cls-1" d="M34.44,31.13c0,1.35-1.41,1.45-2,1.45-.3,0-.53,0-.53,0V29.87s.29,0,.83,0C33.54,29.85,34.44,30.2,34.44,31.13Zm1.84,3.54c0-1.76-2.47-1.92-2.47-1.92s1.68-.42,1.68-1.68c0-1.43-1.9-1.65-2.75-1.65H30.37a.46.46,0,0,1,.35.48v6.3a.52.52,0,0,1-.35.49h2.69C35.73,36.69,36.28,35.51,36.28,34.67Zm-1.2-.11c0,1.6-1.82,1.7-2.6,1.7a5,5,0,0,1-.59,0V33.06l1,0C33.94,33,35.08,33.31,35.08,34.56Z"/><path class="cls-1" d="M6.33,31.23c0,1.12-.93,1.6-1.88,1.6l-.72,0V29.88s.37,0,.93,0A1.46,1.46,0,0,1,6.33,31.23ZM9.5,36.69a2.69,2.69,0,0,1-.8-.43A25.88,25.88,0,0,1,6.83,33.8,1.92,1.92,0,0,0,5.62,33,1.88,1.88,0,0,0,7.44,31.2c0-.68-.39-1.78-2.88-1.78H2.22a.5.5,0,0,1,.33.47v6.32a.53.53,0,0,1-.33.48H4.08a.54.54,0,0,1-.35-.48v-3h.72c.65,0,.91.46,1.23.89.44.6.89,1.25,1.53,2.06a1.33,1.33,0,0,0,1,.48Z"/><path class="cls-1" d="M15.23,36.69h-5a.51.51,0,0,0,.38-.49V29.91a.52.52,0,0,0-.35-.49h4.69l0,.83a1.33,1.33,0,0,0-1.05-.38H11.77v2.56h2a.56.56,0,0,0,.44-.3v1a.61.61,0,0,0-.44-.3h-2v3.36h1.45c1.34,0,1.81,0,2.27-.68Z"/><path class="cls-1" d="M21,31.42c0,1.47-1.46,1.67-2.13,1.67a2.12,2.12,0,0,1-.61-.07V29.87q.42,0,.84,0C20.35,29.84,21,30.45,21,31.42Zm1.06,0c0-.83-.44-2-2.93-2H16.75a.53.53,0,0,1,.35.48v6.31a.55.55,0,0,1-.35.48h1.86a.51.51,0,0,1-.35-.48V33.36a4.08,4.08,0,0,0,2.47-.06A2.1,2.1,0,0,0,22.06,31.4Z"/><path class="cls-1" d="M29.21,29.9v4.48c0,1.75-1.31,2.41-2.87,2.41-1.37,0-3.13-.58-3.13-2.39V29.9a.56.56,0,0,0-.38-.48h2a.57.57,0,0,0-.41.48v4.52c0,.74.3,1.87,2.05,1.87s2.21-.9,2.2-1.87V29.9a.48.48,0,0,0-.33-.48h1.22A.52.52,0,0,0,29.21,29.9Z"/><path class="cls-1" d="M42.31,36.69h-5a.55.55,0,0,0,.35-.49V29.9a.5.5,0,0,0-.35-.48h1.87a.5.5,0,0,0-.34.48v6.33h1.33c1.5,0,1.92,0,2.35-.68Z"/><path class="cls-1" d="M43.65,36.69A.52.52,0,0,0,44,36.2V29.9a.49.49,0,0,0-.33-.48h1.84a.5.5,0,0,0-.32.48v6.3a.53.53,0,0,0,.32.49Z"/><path class="cls-1" d="M54.43,36.05a6.83,6.83,0,0,1-3.14.73c-2.46,0-4.63-1.48-4.63-3.71,0-1.82,1.61-3.76,4.77-3.76a8.22,8.22,0,0,1,2.94.61s.14,1.63.11,1.58a3.19,3.19,0,0,0-2.95-1.74c-2.38,0-3.6,1.43-3.6,3.17a3.31,3.31,0,0,0,3.59,3.38,3.2,3.2,0,0,0,3-1.73S54.43,36.05,54.43,36.05Z"/></svg>