<svg id="Слой_1" data-name="Слой 1" xmlns="http://www.w3.org/2000/svg" viewBox="0 0 56.69 56.69"><defs><style>.cls-1{fill:#29abe3;}.cls-2{fill:#19aee5;}</style></defs><g id="g6604"><path id="path21" class="cls-1" d="M54.66,42.82a2.21,2.21,0,0,0-1.88-1.08c-.7,0-1.32.29-1.32,1s.78,1.06,1.59,1.58,1.8,1.23,1.8,2.42c0,1.54-1.5,2.49-3.24,2.49a6.39,6.39,0,0,1-2.3-.46l.14-2.06a2.46,2.46,0,0,0,2.28,1.47c.86,0,1.5-.41,1.5-1.14s-.52-1-1.16-1.38c-1.34-.81-2.2-1.46-2.2-2.63,0-1.76,1.47-2.34,3-2.34.88,0,1.43.16,2,.16l-.21,1.94m-7.45,1.85c-.19.32-.44.75-.59,1.07a12.49,12.49,0,0,0-.19,2.31,1.84,1.84,0,0,0,.24,1.05H44.44c.39-.37.55-2.66.53-3.39a17.07,17.07,0,0,0-1.32-3.23,4.47,4.47,0,0,0-1.14-1.6c.5-.05,1.14-.08,1.45-.08.56,0,.71.08,1,.82.53,1.21.92,2.11,1.16,2.78.56-.88,1-1.49,1.47-2.32a1.45,1.45,0,0,0,.23-.7.79.79,0,0,0-.12-.5H50c-.43.09-2.34,3.11-2.75,3.79M39.47,42.8l-1.32,2.87H40.3l-.83-2.87m2.59,6.37c-.71,0-.76,0-1.33-2l-.2-.71a5.09,5.09,0,0,1-1.92.23h-1l-.17.37a5.06,5.06,0,0,0-.57,1.63,1.4,1.4,0,0,0,0,.37H31.13c.33-.37.43-1.58.59-3.76l0-.52c.09-1.25.15-2.21.14-2.88a1.76,1.76,0,0,0-.21-1.06h2.25c-.32.24-.44,1.56-.59,3.75l0,.52c0,.81-.16,1.64-.16,2.45,0,.37.15.46.53.46,1.37,0,1.71,0,2.32-.45.39-.71.82-1.59,1.25-2.51l.58-1.22a16.51,16.51,0,0,0,1.07-2.55,1.14,1.14,0,0,0-.1-.45h1.79s.72,2.68.88,3.25l.35,1.3c.61,2.19,1,3.25,1.5,3.67-.42,0-1,.07-1.25.07m-14.5.09a3.43,3.43,0,0,1-3.35-3.71c0-2.72,1.48-4.83,4.31-4.83.88,0,1.3.16,2,.16L30.32,43a2.2,2.2,0,0,0-1.95-1.23c-1.76,0-2.47,1.89-2.47,3.52s1,2.74,2.31,2.74a3.87,3.87,0,0,0,2.39-.93,2.91,2.91,0,0,1-3,2.19m-7.35-7.38c-.2,0-.45,0-.64,0-.06.35-.12,1-.19,1.94l-.05.57a2.25,2.25,0,0,0,.38,0,1.55,1.55,0,0,0,1.72-1.55c0-.64-.44-1-1.22-1m3,7.57c-.61,0-.76-.1-1-.37l-2.3-3.2c-.18-.24-.32-.45-.61-.45h0l0,.62c-.06.84-.09,1.52-.09,2s.08.89.23,1H17.13c.32-.29.44-1.25.62-3.76l0-.52c.08-1.24.15-2.2.14-2.87s-.08-1-.24-1.07h3c1,0,2.35.17,2.35,1.77a2.46,2.46,0,0,1-2,2.39,5.55,5.55,0,0,1,.42.49l1.67,2.22c1,1.37,1.13,1.43,1.5,1.63-.47,0-1.1.07-1.5.07M12.81,42.8l-1.34,2.87h2.17l-.83-2.87m2.58,6.37c-.7,0-.75,0-1.32-2l-.2-.71a5.09,5.09,0,0,1-1.92.23H11l-.17.37a5.1,5.1,0,0,0-.57,1.63,1.45,1.45,0,0,0,0,.37h-2a17,17,0,0,0,2.27-4l.57-1.22a18.2,18.2,0,0,0,1.08-2.55,1,1,0,0,0-.11-.45h1.79s.47,1.77.89,3.26l.35,1.29c.61,2.19,1,3.25,1.5,3.67-.46,0-1,.07-1.26.07M5.25,41.87c-.16,0-.37,0-.57,0-.09.57-.14,1.13-.18,1.73,0,0,0,.53,0,.5h.22c1,0,2-.36,2-1.32,0-.55-.46-.93-1.43-.93M5,45.13H4.4l-.08,1.21c-.05.53-.07,1-.08,1.51,0,.08.24.24.79.24,1.15,0,1.91-.58,1.91-1.53S6.07,45.13,5,45.13m.12,4H2.24c.36-.32.46-1.57.62-3.76l0-.51C3,43.58,3,42.62,3,42S3,41,2.79,40.88H6c.77,0,2.3,0,2.3,1.64,0,1.06-1,1.72-1.9,2,1.28.12,2.24.74,2.24,2.06S7.31,49.1,5.11,49.1"/></g><path id="path4050" class="cls-2" d="M38.53,7.24c-.85,0-1,.15-1.3.46h-.34a4,4,0,0,0-2.21.57A1.43,1.43,0,0,0,34,10.12s.25-.36,1.06-.36l.37,0a1.88,1.88,0,0,1,1.85,2.28c-.09,1.56-.67,3.3-3.06,3.32,0,0-.31,0-.64,0a1.8,1.8,0,0,1-1.46-.82,1.46,1.46,0,0,0,1-1.48,2.22,2.22,0,0,0-1.78-1.9,3.9,3.9,0,0,0-1.1-.15,4.5,4.5,0,0,0-3.55,1.73c-2.11,2.79-2.28,6.85-1.76,10.63a19.38,19.38,0,0,0,3,7.39c0,.07.09.11.15.11a.12.12,0,0,0,.08,0,12.52,12.52,0,0,0,2.45-3.3c.45.36.22,1.13,0,1.95a13.3,13.3,0,0,1-1,2.31c-.2.35-.47.76-.11,1a.29.29,0,0,0,.14,0c.46,0,1.56-.81,2.78-2.44a18.47,18.47,0,0,0,2.06-3.46c.1,0,.27.19.24.65a11.52,11.52,0,0,1-1.44,3.83,21.41,21.41,0,0,1-2,2.87c-.11.13,0,.22.06.27a23.35,23.35,0,0,0,4.18,2.94,19.3,19.3,0,0,0,4.16,1.81,18.61,18.61,0,0,0,4.16-1.81,21.63,21.63,0,0,0,4.18-3,.17.17,0,0,0,.06-.27,21.36,21.36,0,0,1-2-2.86,11.36,11.36,0,0,1-1.45-3.82c0-.47.14-.62.24-.66a18.91,18.91,0,0,0,2.07,3.46c1.22,1.63,2.31,2.44,2.77,2.44a.33.33,0,0,0,.15,0c.35-.21.09-.63-.12-1a15,15,0,0,1-1-2.31c-.24-.83-.49-1.6,0-1.95a12.27,12.27,0,0,0,2.44,3.29.14.14,0,0,0,.09.05.19.19,0,0,0,.14-.1,19.4,19.4,0,0,0,3-7.4c.51-3.79.34-7.84-1.77-10.63A4.47,4.47,0,0,0,49,11a3.88,3.88,0,0,0-1.09.15,2.19,2.19,0,0,0-1.76,1.91,1.44,1.44,0,0,0,1,1.48,1.79,1.79,0,0,1-1.47.82c-.22,0-.43,0-.63,0a2.55,2.55,0,0,1-2.27-1.23c-.65-.91-.63-2.8-.67-3.43a4.24,4.24,0,0,0-.83-2.65,3.74,3.74,0,0,0-2.5-.84h-.2"/></svg>