<svg id="Слой_1" data-name="Слой 1" xmlns="http://www.w3.org/2000/svg" viewBox="0 0 56.69 56.69"><defs><style>.cls-1{fill:#29abe3;}.cls-2{fill:#19aee5;}</style></defs><g id="g6604"><path id="path21" class="cls-1" d="M54.45,42.82a2.21,2.21,0,0,0-1.88-1.08c-.7,0-1.32.29-1.32,1s.78,1.06,1.59,1.58,1.8,1.23,1.8,2.42c0,1.54-1.5,2.49-3.24,2.49a6.39,6.39,0,0,1-2.3-.46l.14-2.06a2.47,2.47,0,0,0,2.28,1.47c.86,0,1.5-.41,1.5-1.14s-.52-1-1.16-1.38c-1.34-.81-2.19-1.46-2.19-2.63,0-1.76,1.47-2.34,3-2.34.88,0,1.44.16,2,.16l-.21,1.94M47,44.67c-.19.32-.43.75-.58,1.07a11.68,11.68,0,0,0-.19,2.31,1.84,1.84,0,0,0,.23,1.05H44.23c.4-.37.56-2.66.54-3.39a18.52,18.52,0,0,0-1.32-3.23,4.73,4.73,0,0,0-1.14-1.6c.5-.05,1.14-.08,1.44-.08.56,0,.71.08,1,.82.53,1.21.92,2.11,1.16,2.78.56-.88,1-1.49,1.47-2.32a1.36,1.36,0,0,0,.23-.7.86.86,0,0,0-.11-.5h2.2C49.33,41,47.41,44,47,44.67M39.26,42.8l-1.32,2.87h2.15l-.83-2.87m2.59,6.37c-.71,0-.76,0-1.32-2l-.21-.71a5,5,0,0,1-1.91.23h-1l-.17.37a4.87,4.87,0,0,0-.58,1.63,1.13,1.13,0,0,0,.06.37H30.92c.33-.37.44-1.58.6-3.76l0-.52c.08-1.25.15-2.21.14-2.88a1.74,1.74,0,0,0-.22-1.06h2.25c-.32.24-.44,1.56-.59,3.75l0,.52c-.05.81-.16,1.64-.16,2.45,0,.37.15.46.54.46,1.36,0,1.7,0,2.32-.45.38-.71.82-1.59,1.24-2.51l.58-1.22a16.51,16.51,0,0,0,1.07-2.55,1.14,1.14,0,0,0-.1-.45h1.79s.72,2.68.88,3.25l.35,1.3c.61,2.19,1,3.25,1.51,3.67-.43,0-1,.07-1.26.07m-14.5.09A3.42,3.42,0,0,1,24,45.55c0-2.72,1.48-4.83,4.3-4.83.88,0,1.3.16,2,.16L30.11,43a2.2,2.2,0,0,0-1.95-1.23c-1.76,0-2.47,1.89-2.47,3.52S26.68,48,28,48a3.91,3.91,0,0,0,2.4-.93,2.93,2.93,0,0,1-3,2.19M20,41.88c-.2,0-.45,0-.64,0-.06.35-.12,1-.19,1.94l0,.57a2.05,2.05,0,0,0,.37,0,1.56,1.56,0,0,0,1.73-1.55c0-.64-.45-1-1.23-1m3,7.57c-.6,0-.75-.1-1-.37l-2.3-3.2c-.18-.24-.32-.45-.6-.45h-.06l0,.62c-.05.84-.08,1.52-.08,2s.07.89.22,1H16.92c.32-.29.44-1.25.62-3.76l0-.52c.09-1.24.15-2.2.14-2.87s-.07-1-.23-1.07h3c1,0,2.36.17,2.36,1.77a2.47,2.47,0,0,1-2,2.39,5.55,5.55,0,0,1,.42.49L23,47.75c1.05,1.37,1.13,1.43,1.5,1.63-.46,0-1.09.07-1.5.07M12.6,42.8l-1.33,2.87h2.16L12.6,42.8m2.59,6.37c-.71,0-.76,0-1.32-2l-.21-.71a5.06,5.06,0,0,1-1.91.23h-1l-.17.37A4.89,4.89,0,0,0,10,48.73a1.45,1.45,0,0,0,.05.37h-2a16.59,16.59,0,0,0,2.27-4L11,43.88A19,19,0,0,0,12,41.33a1.14,1.14,0,0,0-.1-.45h1.79s.46,1.77.88,3.26l.35,1.29c.61,2.19,1,3.25,1.5,3.67-.45,0-1,.07-1.25.07M5.05,41.87c-.16,0-.38,0-.58,0-.09.57-.14,1.13-.18,1.73,0,0,0,.53,0,.5h.21c1,0,2-.36,2-1.32,0-.55-.46-.93-1.42-.93m-.27,3.26H4.19l-.08,1.21c0,.53-.07,1-.08,1.51,0,.08.24.24.79.24,1.15,0,1.91-.58,1.91-1.53s-.86-1.43-1.95-1.43m.13,4H2c.36-.32.46-1.57.62-3.76l0-.51c.09-1.25.15-2.21.14-2.88s-.08-1-.23-1.07H5.8c.77,0,2.3,0,2.3,1.64,0,1.06-1,1.72-1.89,2,1.28.12,2.23.74,2.23,2.06S7.1,49.1,4.91,49.1"/></g><path id="path4050" class="cls-2" d="M38.32,7.24c-.85,0-1,.15-1.3.46h-.34a4,4,0,0,0-2.21.57,1.43,1.43,0,0,0-.65,1.86s.25-.36,1.06-.36l.38,0a1.89,1.89,0,0,1,1.85,2.28c-.09,1.56-.68,3.3-3.07,3.32,0,0-.31,0-.63,0a1.81,1.81,0,0,1-1.47-.82,1.46,1.46,0,0,0,1-1.48,2.22,2.22,0,0,0-1.77-1.9A4,4,0,0,0,30,11a4.46,4.46,0,0,0-3.54,1.73c-2.11,2.79-2.29,6.85-1.77,10.63a19.55,19.55,0,0,0,3,7.39c.05.07.1.11.15.11a.1.1,0,0,0,.08,0,12.52,12.52,0,0,0,2.45-3.3c.46.36.22,1.13,0,1.95a12.57,12.57,0,0,1-1,2.31c-.2.35-.47.76-.11,1a.29.29,0,0,0,.14,0c.47,0,1.56-.81,2.78-2.44a18.47,18.47,0,0,0,2.06-3.46c.1,0,.27.19.24.65A11.52,11.52,0,0,1,33,31.37a21.82,21.82,0,0,1-2,2.87c-.11.13,0,.22.05.27a23.35,23.35,0,0,0,4.18,2.94,19.3,19.3,0,0,0,4.16,1.81,18.61,18.61,0,0,0,4.16-1.81,21.63,21.63,0,0,0,4.18-3,.17.17,0,0,0,.06-.27,21.36,21.36,0,0,1-2-2.86,11,11,0,0,1-1.44-3.82c0-.47.13-.62.23-.66a18.91,18.91,0,0,0,2.07,3.46C47.91,32,49,32.79,49.46,32.79a.29.29,0,0,0,.14,0c.35-.21.09-.63-.11-1a14,14,0,0,1-1-2.31c-.24-.83-.48-1.6,0-1.95a12.33,12.33,0,0,0,2.45,3.29.12.12,0,0,0,.09.05.19.19,0,0,0,.13-.1,19.23,19.23,0,0,0,3-7.4c.52-3.79.35-7.84-1.77-10.63A4.44,4.44,0,0,0,48.79,11a3.9,3.9,0,0,0-1.1.15,2.19,2.19,0,0,0-1.76,1.91,1.45,1.45,0,0,0,1,1.48,1.82,1.82,0,0,1-1.48.82c-.22,0-.43,0-.63,0a2.57,2.57,0,0,1-2.27-1.23c-.65-.91-.63-2.8-.67-3.43A4.18,4.18,0,0,0,41,8.08a3.72,3.72,0,0,0-2.5-.84h-.2"/></svg>