<svg id="Слой_1" data-name="Слой 1" xmlns="http://www.w3.org/2000/svg" xmlns:xlink="http://www.w3.org/1999/xlink" viewBox="0 0 56.69 56.69"><defs><style>.cls-1{fill:none;}.cls-2{fill:#151923;}.cls-3{clip-path:url(#clip-path);}.cls-4{fill:#6c6a6a;}.cls-5{fill:url(#Безымянный_градиент_3);}.cls-6{clip-path:url(#clip-path-2);}.cls-7{fill:url(#Безымянный_градиент_3-2);}.cls-8{clip-path:url(#clip-path-3);}.cls-9{fill:url(#Безымянный_градиент_3-3);}.cls-10{clip-path:url(#clip-path-4);}.cls-11{fill:#929192;}.cls-12{fill:url(#Безымянный_градиент_6);}.cls-13{clip-path:url(#clip-path-5);}.cls-14{fill:url(#Безымянный_градиент_6-2);}.cls-15{clip-path:url(#clip-path-6);}.cls-16{fill:url(#Безымянный_градиент_6-3);}.cls-17{clip-path:url(#clip-path-7);}.cls-18{clip-path:url(#clip-path-8);}.cls-19{fill:#37ae6c;}.cls-20{fill:url(#Безымянный_градиент_7);}.cls-21{clip-path:url(#clip-path-9);}.cls-22{fill:#f9b111;}.cls-23{fill:url(#Безымянный_градиент_8);}.cls-24{clip-path:url(#clip-path-11);}.cls-25{fill:#ec6573;}.cls-26{fill:url(#Безымянный_градиент_9);}.cls-27{clip-path:url(#clip-path-12);}.cls-28{fill:#fbcb0c;}.cls-29{fill:url(#Безымянный_градиент_12);}.cls-30{clip-path:url(#clip-path-14);}.cls-31{fill:url(#Безымянный_градиент_12-2);}.cls-32{clip-path:url(#clip-path-16);}.cls-33{fill:url(#Безымянный_градиент_12-3);}.cls-34{clip-path:url(#clip-path-18);}.cls-35{fill:#504d4d;}.cls-36{fill:url(#Безымянный_градиент_13);}.cls-37{clip-path:url(#clip-path-20);}.cls-38{fill:#312d2e;}.cls-39{fill:url(#Безымянный_градиент_14);}.cls-40{clip-path:url(#clip-path-22);}.cls-41{fill:#09a650;}.cls-42{fill:url(#Безымянный_градиент_15);}.cls-43{fill:#1275b7;fill-rule:evenodd;}.cls-44{clip-path:url(#clip-path-24);}.cls-45{fill:#173559;}.cls-46{fill:url(#Безымянный_градиент_16);}.cls-47{clip-path:url(#clip-path-26);}.cls-48{fill:#143250;}.cls-49{fill:url(#Безымянный_градиент_18);}.cls-50{clip-path:url(#clip-path-28);}.cls-51{fill:url(#Безымянный_градиент_18-2);}.cls-52{clip-path:url(#clip-path-30);}.cls-53{fill:#e9e8e8;}.cls-54{fill:url(#Безымянный_градиент_19);}.cls-55{fill:#918f90;}.cls-56{fill:#fff;}</style><clipPath id="clip-path"><path class="cls-1" d="M28.62,18.35A39.29,39.29,0,0,0,29.86,23s0,.42.64,1.42a2.79,2.79,0,0,0,1.24,1.18c-.14.09,0,0,0,0l.05,0,.44.3c1,.43,1.84.21,3.17.14A11.79,11.79,0,0,0,39,24.79l.05-.29a12.25,12.25,0,0,1-3.78,1.34A4.72,4.72,0,0,1,32,25.53l.24-.09,1.24-1.84,1-2a35.59,35.59,0,0,0,2.06-5.06,25.72,25.72,0,0,0,1-4.47s.17-1.65.13-1.81A13.46,13.46,0,0,0,37.57,8l-.37-.38a10.27,10.27,0,0,1,.2,1.89,24.83,24.83,0,0,1-.17,3.09,28.49,28.49,0,0,1-.85,3.71,34.69,34.69,0,0,1-2,4.78,18.17,18.17,0,0,0-1.28,2.52s-.89,1.34-1.26,1.8a3.21,3.21,0,0,1-1.51-2c-1-1.29-2.45-10.09-2.45-10.09l-.27,0,.62,3.39Z"/></clipPath><radialGradient id="Безымянный_градиент_3" cx="-312.55" cy="116.95" r="0.18" gradientTransform="matrix(79.53, 0, 0, -79.53, 24886.61, 9326.47)" gradientUnits="userSpaceOnUse"><stop offset="0" stop-color="#929192"/><stop offset="1" stop-color="#6c6a6a"/></radialGradient><clipPath id="clip-path-2"><path class="cls-1" d="M39,29.85A14.76,14.76,0,0,1,36,29.27s-1.44-.62-1.69-.66-2.84-1.39-2.84-1.39H30.25l-.34-.67a5.49,5.49,0,0,0-1.53-1.45,16,16,0,0,1-2.31-1.59L25.79,23a18.8,18.8,0,0,0-2.21-1.72,54.68,54.68,0,0,1-4.17-4.57A10.6,10.6,0,0,0,18,14.61a13.22,13.22,0,0,1-1.48-2.76v0l-.05.57.62,1.29L18,15.11s1,1.28,1.37,1.92,3.11,3.59,3.11,3.59l3.47,3.12L27.64,25l.55.61,1.37,1.7,2,.27,2.17,1.07,2.26.93,2.07.5.77.14s1-.43.19-.38"/></clipPath><radialGradient id="Безымянный_градиент_3-2" cx="-312.51" cy="116.97" r="0.18" gradientTransform="matrix(78.68, 0, 0, -78.68, 24616.77, 9227.74)" xlink:href="#Безымянный_градиент_3"/><clipPath id="clip-path-3"><path class="cls-1" d="M22.45,26.81a1.36,1.36,0,0,0-1.26,0l.74.28,2.66.34,2.53.17a5.3,5.3,0,0,1,1.38.25c.33.18.49-.3.49-.3l-2.06-.27a29.9,29.9,0,0,1-4.48-.51"/></clipPath><radialGradient id="Безымянный_градиент_3-3" cx="-312.21" cy="117.03" r="0.18" gradientTransform="matrix(71.26, 0, 0, -71.26, 22278.34, 8365.04)" xlink:href="#Безымянный_градиент_3"/><clipPath id="clip-path-4"><path class="cls-1" d="M28.53,18.26a39.71,39.71,0,0,0,1.24,4.66s0,.41.64,1.42a2.88,2.88,0,0,0,1.24,1.18c-.14.08,0,.05,0,.05l.05,0,.44.29c1,.43,1.84.21,3.17.15a12.08,12.08,0,0,0,3.61-1.28l0-.3a12.47,12.47,0,0,1-3.78,1.35A4.78,4.78,0,0,1,32,25.45l.24-.1,1.24-1.84,1-2a34.31,34.31,0,0,0,2-5.06,26.44,26.44,0,0,0,1-4.47s.17-1.64.13-1.8A13.51,13.51,0,0,0,37.48,8l-.37-.37a9.15,9.15,0,0,1,.19,1.89,22.6,22.6,0,0,1-.16,3.08,28.36,28.36,0,0,1-.85,3.72,34.69,34.69,0,0,1-2,4.78,17.76,17.76,0,0,0-1.28,2.51s-.89,1.34-1.26,1.8a3.19,3.19,0,0,1-1.51-2c-1-1.28-2.45-10.08-2.45-10.08l-.27,0,.62,3.38Z"/></clipPath><radialGradient id="Безымянный_градиент_6" cx="-312.54" cy="116.95" r="0.18" gradientTransform="matrix(79.53, 0, 0, -79.53, 24886.11, 9326.01)" gradientUnits="userSpaceOnUse"><stop offset="0" stop-color="#cbc9ca"/><stop offset="1" stop-color="#929192"/></radialGradient><clipPath id="clip-path-5"><path class="cls-1" d="M38.92,29.77a15.47,15.47,0,0,1-3.06-.58,17.25,17.25,0,0,0-1.69-.66c-.24,0-2.84-1.4-2.84-1.4H30.16l-.34-.67A5.49,5.49,0,0,0,28.29,25,15.4,15.4,0,0,1,26,23.42l-.28-.48a19.08,19.08,0,0,0-2.19-1.72,55,55,0,0,1-4.18-4.56,10.31,10.31,0,0,0-1.38-2.14,13.39,13.39,0,0,1-1.47-2.76v0l0,.57L17,13.6,17.87,15A22.94,22.94,0,0,1,19.24,17c.37.64,3.11,3.58,3.11,3.58l3.47,3.13,1.73,1.26.55.61,1.37,1.7,2,.27,2.16,1.07,2.27.93L38,30l.77.15s1-.44.19-.38"/></clipPath><radialGradient id="Безымянный_градиент_6-2" cx="-312.5" cy="116.96" r="0.18" gradientTransform="matrix(78.67, 0, 0, -78.67, 24614.14, 9226.48)" xlink:href="#Безымянный_градиент_6"/><clipPath id="clip-path-6"><path class="cls-1" d="M22.35,26.72a1.38,1.38,0,0,0-1.25,0l.74.28,2.66.34,2.53.18a5.3,5.3,0,0,1,1.38.25c.33.18.49-.3.49-.3l-2.06-.28a30.14,30.14,0,0,1-4.49-.51"/></clipPath><radialGradient id="Безымянный_градиент_6-3" cx="-312.2" cy="117.02" r="0.18" gradientTransform="matrix(71.18, 0, 0, -71.18, 22252.42, 8355.19)" xlink:href="#Безымянный_градиент_6"/><clipPath id="clip-path-7"><path class="cls-1" d="M24.53,3a17.88,17.88,0,0,0-4.93,2S18.11,6.28,18,6.45A13,13,0,0,1,23.3,4.23h.13Z"/></clipPath><clipPath id="clip-path-8"><rect class="cls-1" x="-80.68" y="-71.19" width="805.87" height="1063.02"/></clipPath><linearGradient id="Безымянный_градиент_7" x1="-307" y1="105.19" x2="-306.82" y2="105.19" gradientTransform="matrix(31.13, -3.85, -6.55, -52.98, 10326.08, 4880.93)" gradientUnits="userSpaceOnUse"><stop offset="0" stop-color="#37ae6c"/><stop offset="1" stop-color="#09a650"/></linearGradient><clipPath id="clip-path-9"><path class="cls-1" d="M28.8,12.49l1.35-1.14,1.36-1.19L33,9.06l1.91-1,1.85-.86,1.94-.59s-.49-.82-.9-.75S36,6.28,36,6.28a6.26,6.26,0,0,1-3.31.5c-1.48-.33.46-1.41.46-1.41l.39-.06.89-.77,1,.24.56.25.15,0h0a3.29,3.29,0,0,0-1.24-1.22,3.28,3.28,0,0,0-2.57.37,3.09,3.09,0,0,1-1.76.32s-.88-.21-.49-.43a17.12,17.12,0,0,1,2-.67V3.33A2.72,2.72,0,0,0,30,2.64,2.43,2.43,0,0,0,28.74,3l-.88.44-.58.35s-.88.66-1.34.46-.16-.81-.16-.81a1.63,1.63,0,0,1,.68-.63l-.27-.09-.08,0-.73,0-.6.15a1.74,1.74,0,0,0-.92.5,5.81,5.81,0,0,0-1,1.85A4.92,4.92,0,0,1,21,7.68c-.85.34-1.22-.12-1.22-.12a1.3,1.3,0,0,1-.19-.38c-.09-.26-.36-.64-.7-.65a1.86,1.86,0,0,0-1.91.82l-.77,1a2.61,2.61,0,0,1,2.11,1.59s.65,2.4.77,2.68a3.78,3.78,0,0,0,1.08,1.75,5.33,5.33,0,0,0,3.85.71c1.29-.26,2.56-.85,4.82-2.56"/></clipPath><linearGradient id="Безымянный_градиент_8" x1="-316.08" y1="113.57" x2="-315.9" y2="113.57" gradientTransform="matrix(-18.53, -85, -165.27, 36.04, 13129.02, -30983.39)" gradientUnits="userSpaceOnUse"><stop offset="0" stop-color="#f9b111"/><stop offset="0.49" stop-color="#eaa70d"/><stop offset="1" stop-color="#715012"/></linearGradient><clipPath id="clip-path-11"><path class="cls-1" d="M44,24.72s-1.26.87-2.2.3-2.39-2.23-5.64-2.83c0,0-1-.19-1-.66-.06-.74,1-1.31,1.81-1.45a6.3,6.3,0,0,1,2.28.2c.33.1,2.74.95,2.87-.49s-.38-3.49-5-5.68A47.8,47.8,0,0,0,28.34,11s-1.15-.25-.74-1,3-.36,8.43,1.34L39.1,12.5s.43.24.59-.09-.38-.71-.75-.95A23.65,23.65,0,0,0,35.1,9.81c-2-.71-6.77-1.92-6.77-1.92s-1.2-.27-1-.68.66-.84,4.27-.08A31.44,31.44,0,0,1,40,10s.18.08.25,0,0-.27-.14-.34a26.14,26.14,0,0,0-5.7-2.86c-2.62-.8-3.25-1-3.25-1s-1-.26-.9-.75,2-.09,2-.09a22.16,22.16,0,0,1,5.49,1.92,16.16,16.16,0,0,1,2.36,1.43s.21.09,0-.12c0,0-1.75-1.37-2.48-1.84A10,10,0,0,0,34,4.58s-.61-.18-.34-.32a1.22,1.22,0,0,1,.51-.14,3.33,3.33,0,0,1,.68.11,17.12,17.12,0,0,1,4.77,2.64,17.06,17.06,0,0,1,3.61,4.58,12.83,12.83,0,0,1,1.17,2.66,14.87,14.87,0,0,1,.54,2.82,16.58,16.58,0,0,1-.45,6.6A5.14,5.14,0,0,1,44,24.72"/></clipPath><linearGradient id="Безымянный_градиент_9" x1="-312.99" y1="115.95" x2="-312.81" y2="115.95" gradientTransform="matrix(97.44, 0, 0, -146.16, 30525.12, 16960.97)" gradientUnits="userSpaceOnUse"><stop offset="0" stop-color="#ec6573"/><stop offset="0.56" stop-color="#e52629"/><stop offset="1" stop-color="#ac191b"/></linearGradient><clipPath id="clip-path-12"><path class="cls-1" d="M28.91,4.62a1.44,1.44,0,0,0,1.23.29c.64-.19.29-.87.15-1A4,4,0,0,0,26.88,2.6a13.46,13.46,0,0,0-1.44.17,3,3,0,0,1,2.21.62,8.87,8.87,0,0,1,1.26,1.23"/></clipPath><linearGradient id="Безымянный_градиент_12" x1="-321.29" y1="116.62" x2="-321.11" y2="116.62" gradientTransform="matrix(-25.25, -22.19, -45.2, 51.43, -2907.81, -13008.52)" gradientUnits="userSpaceOnUse"><stop offset="0" stop-color="#fbcb0c"/><stop offset="1" stop-color="#715012"/></linearGradient><clipPath id="clip-path-14"><path class="cls-1" d="M30.46,2.66a10.13,10.13,0,0,1,2,.36,3.32,3.32,0,0,1,2.11,1.51c.29.35.54,1.15-.12,1.2s-1.16-.84-1.16-.84l-.24-.4a3.42,3.42,0,0,0-2.59-1.83Z"/></clipPath><linearGradient id="Безымянный_градиент_12-2" x1="-320.67" y1="116.85" x2="-320.49" y2="116.85" gradientTransform="matrix(-25.75, -22.63, -44.94, 51.14, -3069.28, -13110.94)" xlink:href="#Безымянный_градиент_12"/><clipPath id="clip-path-16"><path class="cls-1" d="M36.48,5.68s.35.8.85.8.26-.57,0-1a3,3,0,0,0-1-1c-.42-.25-1.27-.65-1.27-.65l-.26-.1a3,3,0,0,1,1,.79c.34.47.7,1.09.7,1.09"/></clipPath><linearGradient id="Безымянный_градиент_12-3" x1="-322.28" y1="117.12" x2="-322.1" y2="117.12" gradientTransform="matrix(-18.62, -16.37, -39.66, 45.13, -1419.44, -10437.78)" xlink:href="#Безымянный_градиент_12"/><clipPath id="clip-path-18"><path class="cls-1" d="M12.83,24.93a14.92,14.92,0,0,0,2.68,4.67c2,2.51,2.7,2.58,2.7,2.58a3.16,3.16,0,0,0,.74.71,14,14,0,0,0,2,1.13,8.16,8.16,0,0,0,3,1l-.13-1.1-5.6-5.18L15.27,27l-1.56-1.61Z"/></clipPath><linearGradient id="Безымянный_градиент_13" x1="-319.27" y1="121.64" x2="-319.09" y2="121.64" gradientTransform="matrix(-38.77, 42.46, 89.47, 81.69, -22861.65, 3996.96)" gradientUnits="userSpaceOnUse"><stop offset="0" stop-color="#504d4d"/><stop offset="1" stop-color="#e8e6e7"/></linearGradient><clipPath id="clip-path-20"><path class="cls-1" d="M13.91,21.57,15.06,20s.37-1.37,1.15-.91,1.2,2-.45,4.37c0,0-1,1.11-.55,2.18s.89,1.74,2,1.44A10.2,10.2,0,0,0,20.07,26l4-2.93,2.45-2s.81-.76,1.5-.21-.36,1.51-.63,1.8a61.32,61.32,0,0,1-5.29,4.61l-.82.71a.62.62,0,0,0-.08.79.66.66,0,0,0,.85,0,55.49,55.49,0,0,0,5.4-3.87c1.15-1.15,2.22-2,2.22-2s.75-.76,1.4-.26-.14,1.25-.23,1.36l-2.29,2.47s-3.07,2.82-3.44,3-.72,1.56.45,1a21.15,21.15,0,0,0,3.6-2.58c.48-.51,2.35-2.36,2.35-2.36a.88.88,0,0,1,1.11-.24c.62.38-.17,1.43-.17,1.43l-1.85,2.13-1.7,1.62s-1.92,1.55-2.75,2,.31.8.48.79h.17a2.55,2.55,0,0,0,.68-.25c.36-.18,2.08-1.35,2.08-1.35L31.39,30s.63-.93,1.32-.64.08,1.14-.12,1.4-1.16,1.35-1.16,1.35l-3.78,2.43a3.87,3.87,0,0,1-2.88.65,6.14,6.14,0,0,1-3.3-1.75l-2.85-3.19a12.49,12.49,0,0,0-1.76-1.45,11.18,11.18,0,0,1-2.67-1.92,9.29,9.29,0,0,1-1.28-1.77s-.46-1.07-.17-1.66,1.17-1.9,1.17-1.9"/></clipPath><linearGradient id="Безымянный_градиент_14" x1="-313.62" y1="112.52" x2="-313.44" y2="112.52" gradientTransform="matrix(135.4, -81.11, -90.86, -151.66, 52970.93, -7890.3)" gradientUnits="userSpaceOnUse"><stop offset="0" stop-color="#312d2e"/><stop offset="1" stop-color="#e8e6e7"/></linearGradient><clipPath id="clip-path-22"><path class="cls-1" d="M19.68,5a15,15,0,0,0-1.77,1.23,18,18,0,0,0-3,3.14,15.94,15.94,0,0,0-3.09,8.45,13.17,13.17,0,0,0,.1,3.3,4.81,4.81,0,0,0,1,2.57,18.17,18.17,0,0,0,7.06,3s.79.07.86-.64-1-1.15-1-1.15A28.74,28.74,0,0,1,17,23.8a10.27,10.27,0,0,1-2-1.27c-1.33-1.1-1.39-1.88-1.14-2.24s.66-.15,1.07,0l2.39.92,5.5,1.55s2.23.75,2.58-.2-.65-1.37-1-1.51-4.49-1.49-6.87-2.49-2.61-1-2.46-2c0,0,.11-.64,1.79-.3l5.48,1.1,5.08,1s1.38.33,1.59-.48-.64-1.28-1.25-1.5-6-1.75-6-1.75l-3.28-.84s-3-.35-2-1.62c0,0,.29-.43,2.48-.24a54.84,54.84,0,0,1,7.26,1.28c1.19.34,2.57.58,2.8-.29s-.62-1.25-1.9-1.64A37.61,37.61,0,0,0,20.85,10c-2.33-.24-3.74-.27-3.74-.27s-1,0-1.09-.28a1.47,1.47,0,0,1,.23-1,7.35,7.35,0,0,1,1.57-1.87Z"/></clipPath><radialGradient id="Безымянный_градиент_15" cx="-312.21" cy="116.13" r="0.18" gradientTransform="matrix(79.21, 0, 0, -79.21, 24753.92, 9209.24)" gradientUnits="userSpaceOnUse"><stop offset="0" stop-color="#9fcfa8"/><stop offset="1" stop-color="#09a650"/></radialGradient><clipPath id="clip-path-24"><path class="cls-1" d="M23.57,29.27s-.05-.92.59-1.1,1,.3,1.13.88.68,2.23.68,2.23a7.06,7.06,0,0,0,1.92,3c1.18.81,1.75.23,1.63-.52s-1-4.45-1-4.45l-.78-4.2s-.5-1.72.62-2c0,0,.84-.33,1.23.9l.75,2.54.91,3.08.51,1.76s.35,2.05,1.22,1.92.67-1.45.66-2.21-.41-4.61-.41-4.61l-.43-2.89-.35-2.47s-.33-1.2.71-1.38,1.42,1.37,1.42,1.37l.8,3.47.6,3.3s.3,2.24.3,2.52S36.47,32,37,32s1-1.16,1-1.16a11.4,11.4,0,0,0,.38-2.38,35.64,35.64,0,0,0-.13-4.87c-.26-2.38-.85-2.82,0-3.11s1.28.93,1.28.93a18.07,18.07,0,0,1,.88,3.3,20.79,20.79,0,0,1,.09,4.23,5.06,5.06,0,0,1-2.63,3.84,16.81,16.81,0,0,1-5.45,2.5,18.34,18.34,0,0,1-6.62.31.6.6,0,0,1-.31-.23c-.16-.3-2-4.23-2-6.08"/></clipPath><linearGradient id="Безымянный_градиент_16" x1="-315.48" y1="113.89" x2="-315.3" y2="113.89" gradientTransform="matrix(-32.99, -86.29, -146.3, 55.94, 6396.95, -33602.71)" gradientUnits="userSpaceOnUse"><stop offset="0" stop-color="#173559"/><stop offset="0.08" stop-color="#0d4271"/><stop offset="0.56" stop-color="#529ed7"/><stop offset="1" stop-color="#2186c8"/></linearGradient><clipPath id="clip-path-26"><path class="cls-1" d="M44.45,23.51c-1.26.39-1.4,1.38-1.33,2.43a3.54,3.54,0,0,1-.4,1.7A17.89,17.89,0,0,0,43.6,26a18.3,18.3,0,0,0,.85-2.44"/></clipPath><linearGradient id="Безымянный_градиент_18" x1="-298.15" y1="108.05" x2="-297.97" y2="108.05" gradientTransform="matrix(9.64, 0, 0, -49.8, 2917.48, 5841.03)" gradientUnits="userSpaceOnUse"><stop offset="0" stop-color="#143250"/><stop offset="1" stop-color="#0d6dab"/></linearGradient><clipPath id="clip-path-28"><polygon class="cls-1" points="42.72 27.64 42.73 27.63 42.72 27.64 42.72 27.64"/></clipPath><linearGradient id="Безымянный_градиент_18-2" x1="310.35" y1="101.69" x2="12019.21" y2="101.69" gradientTransform="matrix(0.07, 0, 0, -26.91, -102.04, 3196.47)" xlink:href="#Безымянный_градиент_18"/><clipPath id="clip-path-30"><path class="cls-1" d="M26.44,9.1c-2.08,2.88-.88,8.38-.88,8.38C27.88,29.8,31.84,35.4,31.84,35.4c.53.24.72-.14.72-.14a.51.51,0,0,1-.39-.08S28.35,30,26,17.69c0,0-1.17-5.48.86-8.37h0a54.1,54.1,0,0,1,6.88,5A37.66,37.66,0,0,1,39,19.78s4.41,5.15,3.25,8.51c0,0,0,.08-.82,1.19a3.15,3.15,0,0,0,1.2-1.65,5.93,5.93,0,0,0-.51-3.73c-.76-2.05-3.9-6.55-7.12-9.42a40.7,40.7,0,0,0-7.76-5.74h0a5.73,5.73,0,0,1,3-1.4,14.63,14.63,0,0,1,8.87,1.21c4.09,1.95,4.84,4.47,5.11,5.12a11,11,0,0,1,.5,1.65,8.1,8.1,0,0,0-.39-1.84C44,13,43.24,10.42,39,8.41a15.06,15.06,0,0,0-9.14-1.25A6,6,0,0,0,26.84,8.6l-.07.08c-.46-.25-.95-.49-1.45-.73C28,5.07,30.19,4,32,3.52a4.53,4.53,0,0,1,2.79.24l.59.27a3.75,3.75,0,0,0-1.69-.78,5.7,5.7,0,0,0-2,0c-.15,0-3.33.76-6.83,4.43l-.36-.17c-.37-.16-.73-.31-1.09-.44A12.26,12.26,0,0,0,24.5,5.6a5.55,5.55,0,0,0,.71-2.11c.1-.85.17-.72.17-.72h.06c0-.12-.2-.11-.2-.11-.23,0-.2.06-.23.07l-.25,1A7,7,0,0,1,22.93,7c-3.69-1.24-6.29-.53-6.72.91a3.09,3.09,0,0,1,1.72-1.13,8.28,8.28,0,0,1,4.72.53l0,0a36.16,36.16,0,0,1-2.92,2.33l-2.92,2.12a35.69,35.69,0,0,0-3.12,2.79,9.45,9.45,0,0,0-1.8,3.1,10.38,10.38,0,0,0-.25,1.84,3.7,3.7,0,0,0,.28,1.37v-.06c-.84-3.89,2.88-6.89,2.88-6.89.35-.34,1.57-1.35,1.57-1.35l1.9-1.4L19.93,10s1.38-1,2-1.47A13.9,13.9,0,0,0,23.1,7.43c.45.17.93.38,1.45.62-.42.46-.84,1-1.26,1.51a33.37,33.37,0,0,0-5.41,9.81s-2.71,6.57-.61,11.72a4.24,4.24,0,0,0,2.24,2.16l-.63-.41-.61-.58-.65-.93-.17-.46-.22-.82a11.12,11.12,0,0,1-.35-3.66,21.43,21.43,0,0,1,.69-4.26A31.45,31.45,0,0,1,22.9,10.86c.74-1,1.44-1.84,2.12-2.58.45.23.94.49,1.45.78l0,0"/></clipPath><radialGradient id="Безымянный_градиент_19" cx="-312.1" cy="116.02" r="0.18" gradientTransform="matrix(76.22, 0, 0, -76.22, 23812.63, 8852.46)" gradientUnits="userSpaceOnUse"><stop offset="0" stop-color="#fff"/><stop offset="1" stop-color="#e9e8e8"/></radialGradient></defs><path class="cls-2" d="M-1.51,57.82H58.72v-59H-1.51Z"/><g class="cls-3"><path class="cls-4" d="M28.62,18.35A39.71,39.71,0,0,0,29.86,23s0,.41.64,1.41a2.79,2.79,0,0,0,1.24,1.18c-.14.09,0,0,0,0l.05,0,.44.3c1,.43,1.84.21,3.17.14A11.86,11.86,0,0,0,39,24.8l.05-.3a12.25,12.25,0,0,1-3.78,1.34A4.72,4.72,0,0,1,32,25.53l.24-.09,1.24-1.84,1-2a34.88,34.88,0,0,0,2.05-5.06,26.44,26.44,0,0,0,1-4.47s.17-1.65.13-1.81A13.46,13.46,0,0,0,37.57,8l-.37-.38a9.27,9.27,0,0,1,.19,1.89,22.66,22.66,0,0,1-.16,3.09,27.92,27.92,0,0,1-.86,3.71,34.77,34.77,0,0,1-1.95,4.79,17.76,17.76,0,0,0-1.28,2.51s-.89,1.34-1.26,1.8a3.21,3.21,0,0,1-1.51-2c-1-1.29-2.45-10.08-2.45-10.08l-.27,0,.62,3.39Z"/><path class="cls-5" d="M28.62,18.35A39.29,39.29,0,0,0,29.86,23s0,.42.64,1.42a2.79,2.79,0,0,0,1.24,1.18c-.14.09,0,0,0,0l.05,0,.44.3c1,.43,1.84.21,3.17.14A11.79,11.79,0,0,0,39,24.79l.05-.29a12.25,12.25,0,0,1-3.78,1.34A4.72,4.72,0,0,1,32,25.53l.24-.09,1.24-1.84,1-2a35.59,35.59,0,0,0,2.06-5.06,25.72,25.72,0,0,0,1-4.47s.17-1.65.13-1.81A13.46,13.46,0,0,0,37.57,8l-.37-.38a10.27,10.27,0,0,1,.2,1.89,24.83,24.83,0,0,1-.17,3.09,28.49,28.49,0,0,1-.85,3.71,34.69,34.69,0,0,1-2,4.78,18.17,18.17,0,0,0-1.28,2.52s-.89,1.34-1.26,1.8a3.21,3.21,0,0,1-1.51-2c-1-1.29-2.45-10.09-2.45-10.09l-.27,0,.62,3.39Z"/></g><g class="cls-6"><path class="cls-4" d="M39,29.85A14.76,14.76,0,0,1,36,29.27s-1.44-.62-1.69-.66-2.84-1.39-2.84-1.39H30.25l-.34-.67a5.49,5.49,0,0,0-1.53-1.45,16,16,0,0,1-2.31-1.59L25.79,23a19.71,19.71,0,0,0-2.21-1.72,54.68,54.68,0,0,1-4.17-4.57A10.6,10.6,0,0,0,18,14.61a13.22,13.22,0,0,1-1.48-2.76v0l-.05.57.62,1.29L18,15.11s1,1.28,1.37,1.92,3.1,3.59,3.1,3.59l3.48,3.12L27.64,25l.55.61,1.37,1.7,2,.27,2.17,1.07,2.26.93,2.07.5.77.14s1-.43.19-.38"/><path class="cls-7" d="M39,29.85A14.76,14.76,0,0,1,36,29.27s-1.44-.62-1.69-.66-2.84-1.39-2.84-1.39H30.25l-.34-.67a5.49,5.49,0,0,0-1.53-1.45,16,16,0,0,1-2.31-1.59L25.79,23a18.8,18.8,0,0,0-2.21-1.72,54.68,54.68,0,0,1-4.17-4.57A10.6,10.6,0,0,0,18,14.61a13.22,13.22,0,0,1-1.48-2.76v0l-.05.57.62,1.29L18,15.11s1,1.28,1.37,1.92,3.11,3.59,3.11,3.59l3.47,3.12L27.64,25l.55.61,1.37,1.7,2,.27,2.17,1.07,2.26.93,2.07.5.77.14s1-.43.19-.38"/></g><g class="cls-8"><path class="cls-4" d="M22.45,26.81a1.36,1.36,0,0,0-1.26,0l.74.27,2.66.35,2.53.17a5.3,5.3,0,0,1,1.38.25c.33.18.49-.3.49-.3l-2.06-.27a31.29,31.29,0,0,1-4.48-.51"/><path class="cls-9" d="M22.45,26.81a1.36,1.36,0,0,0-1.26,0l.74.28,2.66.34,2.53.17a5.3,5.3,0,0,1,1.38.25c.33.18.49-.3.49-.3l-2.06-.27a29.9,29.9,0,0,1-4.48-.51"/></g><g class="cls-10"><path class="cls-11" d="M28.53,18.26a39.71,39.71,0,0,0,1.24,4.66s0,.41.64,1.42a2.88,2.88,0,0,0,1.24,1.18c-.15.08,0,.05,0,.05l.05,0,.44.29c1,.43,1.84.21,3.17.15a12.08,12.08,0,0,0,3.61-1.28l0-.3a12.47,12.47,0,0,1-3.78,1.35A4.78,4.78,0,0,1,32,25.45l.24-.1,1.24-1.84,1-2a34.31,34.31,0,0,0,2-5.06,26.44,26.44,0,0,0,1-4.47s.17-1.64.13-1.8A13.51,13.51,0,0,0,37.48,8l-.37-.37a9.15,9.15,0,0,1,.19,1.89,22.6,22.6,0,0,1-.16,3.08,28.36,28.36,0,0,1-.85,3.72,34.69,34.69,0,0,1-2,4.78,17.76,17.76,0,0,0-1.28,2.51s-.89,1.34-1.26,1.8a3.19,3.19,0,0,1-1.51-2c-1-1.28-2.45-10.08-2.45-10.08l-.27,0,.62,3.38Z"/><path class="cls-12" d="M28.53,18.26a39.71,39.71,0,0,0,1.24,4.66s0,.41.64,1.42a2.88,2.88,0,0,0,1.24,1.18c-.14.08,0,.05,0,.05l.05,0,.44.29c1,.43,1.84.21,3.17.15a12.08,12.08,0,0,0,3.61-1.28l0-.3a12.47,12.47,0,0,1-3.78,1.35A4.78,4.78,0,0,1,32,25.45l.24-.1,1.24-1.84,1-2a34.31,34.31,0,0,0,2-5.06,26.44,26.44,0,0,0,1-4.47s.17-1.64.13-1.8A13.51,13.51,0,0,0,37.48,8l-.37-.37a9.15,9.15,0,0,1,.19,1.89,22.6,22.6,0,0,1-.16,3.08,28.36,28.36,0,0,1-.85,3.72,34.69,34.69,0,0,1-2,4.78,17.76,17.76,0,0,0-1.28,2.51s-.89,1.34-1.26,1.8a3.19,3.19,0,0,1-1.51-2c-1-1.28-2.45-10.08-2.45-10.08l-.27,0,.62,3.38Z"/></g><g class="cls-13"><path class="cls-11" d="M38.92,29.77a15.47,15.47,0,0,1-3.06-.58,17.25,17.25,0,0,0-1.69-.66c-.24,0-2.84-1.4-2.84-1.4H30.16l-.34-.67A5.49,5.49,0,0,0,28.29,25,15.4,15.4,0,0,1,26,23.42l-.28-.48a18.51,18.51,0,0,0-2.2-1.72,56.5,56.5,0,0,1-4.17-4.56,10.31,10.31,0,0,0-1.38-2.14,13.39,13.39,0,0,1-1.47-2.76v0l0,.57L17,13.6,17.87,15A22.94,22.94,0,0,1,19.24,17c.37.64,3.11,3.58,3.11,3.58l3.47,3.13,1.73,1.26.55.61,1.37,1.7,2,.27,2.16,1.07,2.27.93L38,30l.77.15s1-.44.19-.38"/><path class="cls-14" d="M38.92,29.77a15.47,15.47,0,0,1-3.06-.58,17.25,17.25,0,0,0-1.69-.66c-.24,0-2.84-1.4-2.84-1.4H30.16l-.34-.67A5.49,5.49,0,0,0,28.29,25,15.4,15.4,0,0,1,26,23.42l-.28-.48a19.08,19.08,0,0,0-2.19-1.72,55,55,0,0,1-4.18-4.56,10.31,10.31,0,0,0-1.38-2.14,13.39,13.39,0,0,1-1.47-2.76v0l0,.57L17,13.6,17.87,15A22.94,22.94,0,0,1,19.24,17c.37.64,3.11,3.58,3.11,3.58l3.47,3.13,1.73,1.26.55.61,1.37,1.7,2,.27,2.16,1.07,2.27.93L38,30l.77.15s1-.44.19-.38"/></g><g class="cls-15"><path class="cls-11" d="M22.35,26.72a1.38,1.38,0,0,0-1.25,0l.74.28,2.66.34,2.53.18a5.3,5.3,0,0,1,1.38.25c.33.18.49-.3.49-.3l-2.06-.28a30.14,30.14,0,0,1-4.49-.51"/><path class="cls-16" d="M22.35,26.72a1.38,1.38,0,0,0-1.25,0l.74.28,2.66.34,2.53.18a5.3,5.3,0,0,1,1.38.25c.33.18.49-.3.49-.3l-2.06-.28a30.14,30.14,0,0,1-4.49-.51"/></g><g class="cls-17"><g class="cls-18"><path class="cls-19" d="M24.53,3a17.88,17.88,0,0,0-4.93,2S18.11,6.28,18,6.45A13,13,0,0,1,23.3,4.23h.13Z"/><path class="cls-20" d="M-80.68-71.19H725.19v1063H-80.68Z"/></g></g><g class="cls-21"><g class="cls-18"><path class="cls-22" d="M28.8,12.49l1.35-1.14,1.37-1.19L33,9.06l1.91-1,1.85-.87,1.94-.58s-.49-.82-.9-.75S36,6.28,36,6.28a6.26,6.26,0,0,1-3.31.5c-1.48-.33.46-1.41.46-1.41l.39-.06.89-.77,1,.24.56.25.15,0h0a3.29,3.29,0,0,0-1.24-1.22,3.28,3.28,0,0,0-2.57.37,3.09,3.09,0,0,1-1.76.32s-.88-.21-.49-.43a19.26,19.26,0,0,1,2-.67V3.33A2.72,2.72,0,0,0,30,2.64,2.43,2.43,0,0,0,28.74,3l-.88.44-.58.35s-.88.66-1.34.46-.16-.81-.16-.81a1.63,1.63,0,0,1,.68-.63l-.27-.09-.08,0-.73,0-.6.15a1.74,1.74,0,0,0-.92.5,5.81,5.81,0,0,0-1,1.85A4.92,4.92,0,0,1,21,7.68c-.85.34-1.22-.12-1.22-.12a1.3,1.3,0,0,1-.19-.38c-.09-.26-.36-.64-.69-.65a1.87,1.87,0,0,0-1.92.82l-.77,1a2.61,2.61,0,0,1,2.11,1.59s.65,2.4.77,2.68a3.74,3.74,0,0,0,1.09,1.75,5.29,5.29,0,0,0,3.84.71c1.29-.26,2.56-.85,4.82-2.56"/><path class="cls-23" d="M-80.68-71.19H725.19v1063H-80.68Z"/></g></g><g class="cls-24"><path class="cls-25" d="M44,24.72s-1.26.87-2.2.3-2.39-2.23-5.64-2.83c0,0-1-.19-1-.66-.06-.74,1-1.31,1.81-1.45a6.3,6.3,0,0,1,2.28.2c.33.1,2.74.95,2.87-.49s-.38-3.49-5-5.68A47.8,47.8,0,0,0,28.34,11s-1.15-.25-.74-1,3-.36,8.43,1.34L39.1,12.5s.43.24.59-.09-.38-.71-.75-.95A24.64,24.64,0,0,0,35.1,9.81c-2-.71-6.77-1.92-6.77-1.92s-1.2-.27-1-.68.66-.84,4.27-.08A31.44,31.44,0,0,1,40,10s.18.08.25,0,0-.27-.14-.34a26.14,26.14,0,0,0-5.7-2.86c-2.62-.8-3.25-1-3.25-1s-1-.26-.9-.75,2-.09,2-.09a22.16,22.16,0,0,1,5.49,1.92,15.62,15.62,0,0,1,2.36,1.44s.21.08,0-.13c0,0-1.75-1.37-2.48-1.84A9.84,9.84,0,0,0,34,4.59s-.61-.19-.34-.33a1.22,1.22,0,0,1,.51-.14,3.33,3.33,0,0,1,.68.11,17,17,0,0,1,4.77,2.65,16.76,16.76,0,0,1,3.61,4.58,12.48,12.48,0,0,1,1.17,2.65,14.87,14.87,0,0,1,.54,2.82,16.58,16.58,0,0,1-.45,6.6A5.14,5.14,0,0,1,44,24.72"/><path class="cls-26" d="M44,24.72s-1.26.87-2.2.3-2.39-2.23-5.64-2.83c0,0-1-.19-1-.66-.06-.74,1-1.31,1.81-1.45a6.3,6.3,0,0,1,2.28.2c.33.1,2.74.95,2.87-.49s-.38-3.49-5-5.68A47.8,47.8,0,0,0,28.34,11s-1.15-.25-.74-1,3-.36,8.43,1.34L39.1,12.5s.43.24.59-.09-.38-.71-.75-.95A23.65,23.65,0,0,0,35.1,9.81c-2-.71-6.77-1.92-6.77-1.92s-1.2-.27-1-.68.66-.84,4.27-.08A31.44,31.44,0,0,1,40,10s.18.08.25,0,0-.27-.14-.34a26.14,26.14,0,0,0-5.7-2.86c-2.62-.8-3.25-1-3.25-1s-1-.26-.9-.75,2-.09,2-.09a22.16,22.16,0,0,1,5.49,1.92,16.16,16.16,0,0,1,2.36,1.43s.21.09,0-.12c0,0-1.75-1.37-2.48-1.84A10,10,0,0,0,34,4.58s-.61-.18-.34-.32a1.22,1.22,0,0,1,.51-.14,3.33,3.33,0,0,1,.68.11,17.12,17.12,0,0,1,4.77,2.64,17.06,17.06,0,0,1,3.61,4.58,12.83,12.83,0,0,1,1.17,2.66,14.87,14.87,0,0,1,.54,2.82,16.58,16.58,0,0,1-.45,6.6A5.14,5.14,0,0,1,44,24.72"/></g><g class="cls-27"><g class="cls-18"><path class="cls-28" d="M28.91,4.62a1.44,1.44,0,0,0,1.23.29c.64-.19.29-.87.15-1a4,4,0,0,0-3.4-1.27,12.14,12.14,0,0,0-1.45.16,3,3,0,0,1,2.21.62,8.87,8.87,0,0,1,1.26,1.23"/><path class="cls-29" d="M-80.68-71.19H725.19v1063H-80.68Z"/></g></g><g class="cls-30"><g class="cls-18"><path class="cls-28" d="M30.46,2.66a10.13,10.13,0,0,1,2,.36,3.32,3.32,0,0,1,2.11,1.51c.29.35.54,1.15-.12,1.2s-1.16-.84-1.16-.84l-.24-.4a3.4,3.4,0,0,0-2.59-1.83Z"/><path class="cls-31" d="M-80.68-71.19H725.19v1063H-80.68Z"/></g></g><g class="cls-32"><g class="cls-18"><path class="cls-28" d="M36.48,5.68s.35.8.85.8.26-.57,0-1a2.94,2.94,0,0,0-1-1c-.42-.25-1.27-.65-1.27-.65l-.26-.1a2.88,2.88,0,0,1,1,.79c.34.47.7,1.09.7,1.09"/><path class="cls-33" d="M-80.68-71.19H725.19v1063H-80.68Z"/></g></g><g class="cls-34"><g class="cls-18"><path class="cls-35" d="M12.83,24.93a14.92,14.92,0,0,0,2.68,4.67c2,2.51,2.7,2.58,2.7,2.58a3.16,3.16,0,0,0,.74.71,15.11,15.11,0,0,0,2,1.13,8.16,8.16,0,0,0,3,1l-.13-1.1-5.6-5.18L15.27,27l-1.56-1.61Z"/><path class="cls-36" d="M-80.68-71.19H725.19v1063H-80.68Z"/></g></g><g class="cls-37"><g class="cls-18"><path class="cls-38" d="M13.91,21.57,15.06,20s.37-1.37,1.15-.91,1.2,2-.45,4.37c0,0-1,1.11-.55,2.18s.89,1.74,2,1.44A10.2,10.2,0,0,0,20.07,26l4-2.93,2.45-2s.81-.76,1.5-.21-.36,1.51-.64,1.8a59.3,59.3,0,0,1-5.28,4.61l-.82.71a.61.61,0,0,0-.08.78.65.65,0,0,0,.85,0,54.28,54.28,0,0,0,5.4-3.88c1.15-1.14,2.22-2,2.22-2s.74-.76,1.4-.26-.14,1.25-.23,1.35l-2.29,2.48s-3.07,2.82-3.44,3-.73,1.56.45,1a21.15,21.15,0,0,0,3.6-2.58c.48-.51,2.35-2.36,2.35-2.36a.88.88,0,0,1,1.11-.24c.62.38-.17,1.43-.17,1.43l-1.85,2.13-1.7,1.62s-1.92,1.55-2.75,2,.31.8.48.79h.17a2.68,2.68,0,0,0,.68-.25c.36-.18,2.08-1.35,2.08-1.35L31.38,30s.64-.93,1.33-.64.07,1.14-.12,1.4-1.16,1.35-1.16,1.35l-3.78,2.42a3.85,3.85,0,0,1-2.88.66,6.14,6.14,0,0,1-3.3-1.75l-2.85-3.19a12.49,12.49,0,0,0-1.76-1.45,11,11,0,0,1-2.67-1.92,9.29,9.29,0,0,1-1.28-1.77s-.46-1.07-.17-1.66,1.17-1.9,1.17-1.9"/><path class="cls-39" d="M-80.68-71.19H725.19v1063H-80.68Z"/></g></g><g class="cls-40"><g class="cls-18"><path class="cls-41" d="M19.68,5a15,15,0,0,0-1.77,1.23,18,18,0,0,0-3,3.14,15.85,15.85,0,0,0-3.09,8.45,13.17,13.17,0,0,0,.1,3.3,4.81,4.81,0,0,0,1,2.57,18.17,18.17,0,0,0,7.06,3s.79.07.86-.64-1-1.15-1-1.15A28.74,28.74,0,0,1,17,23.8a10.27,10.27,0,0,1-2-1.27c-1.33-1.1-1.39-1.88-1.15-2.24s.67-.15,1.08,0l2.39.92,5.5,1.55s2.23.75,2.58-.2-.65-1.37-1-1.51-4.49-1.49-6.87-2.49-2.61-1-2.46-2c0,0,.11-.64,1.79-.3l5.48,1.1,5.08,1s1.38.33,1.59-.48-.64-1.28-1.25-1.5-6-1.75-6-1.75l-3.28-.84s-3-.35-2-1.62c0,0,.29-.43,2.48-.24a54.84,54.84,0,0,1,7.26,1.28c1.19.34,2.57.58,2.8-.29s-.62-1.25-1.9-1.64A37.61,37.61,0,0,0,20.85,10c-2.33-.24-3.74-.27-3.74-.27s-1,0-1.09-.28a1.47,1.47,0,0,1,.23-1,7.53,7.53,0,0,1,1.57-1.87Z"/><path class="cls-42" d="M-80.68-71.19H725.19v1063H-80.68Z"/></g></g><path class="cls-43" d="M27.78,34.48,29.88,33l1.65-1a8.91,8.91,0,0,1,2.89-1.16c1.44-.23,1.61-.45,1.61-.45a24.63,24.63,0,0,0,3.23-1A3.58,3.58,0,0,1,40.38,29a4.18,4.18,0,0,0,2.2-2.38l.67-1.3a3.1,3.1,0,0,1-.08,1.34,8,8,0,0,1-.63,1.28l-.26.52-.52.62a4,4,0,0,1-2,1.51c-1.21.31-5,4.92-10.11,4.81s-1.85-.92-1.85-.92"/><g class="cls-44"><g class="cls-18"><path class="cls-45" d="M23.57,29.27s-.05-.92.59-1.1,1,.3,1.13.88.68,2.23.68,2.23a7.06,7.06,0,0,0,1.92,3c1.19.81,1.75.23,1.63-.52s-1-4.45-1-4.45l-.78-4.2s-.5-1.72.63-2c0,0,.83-.33,1.22.9l.75,2.54.91,3.08.51,1.76s.35,2.05,1.22,1.92.67-1.45.66-2.21-.41-4.61-.41-4.61l-.43-2.89-.35-2.47s-.33-1.2.72-1.38,1.41,1.37,1.41,1.37l.8,3.47.6,3.3s.3,2.24.3,2.52S36.47,32,37,32s1-1.16,1-1.16a11.4,11.4,0,0,0,.38-2.38,35.64,35.64,0,0,0-.13-4.87c-.26-2.38-.85-2.82,0-3.11s1.28.93,1.28.93a18.07,18.07,0,0,1,.88,3.3,20.79,20.79,0,0,1,.09,4.23,5.06,5.06,0,0,1-2.63,3.84,17,17,0,0,1-5.45,2.5,18.34,18.34,0,0,1-6.62.31.67.67,0,0,1-.31-.23c-.16-.3-2-4.23-2-6.08"/><path class="cls-46" d="M-80.68-71.19H725.19v1063H-80.68Z"/></g></g><g class="cls-47"><g class="cls-18"><path class="cls-48" d="M44.45,23.51c-1.26.39-1.4,1.38-1.33,2.43a3.54,3.54,0,0,1-.4,1.7A17.89,17.89,0,0,0,43.6,26a18.84,18.84,0,0,0,.85-2.44"/><path class="cls-49" d="M-80.68-71.19H725.19v1063H-80.68Z"/></g></g><g class="cls-50"><g class="cls-18"><path class="cls-48" d="M42.72,27.64h0Z"/><path class="cls-51" d="M-80.68-71.19H725.19v1063H-80.68Z"/></g></g><g class="cls-52"><path class="cls-53" d="M26.44,9.1c-2.08,2.88-.88,8.38-.88,8.38C27.88,29.8,31.84,35.4,31.84,35.4c.53.24.72-.14.72-.14a.51.51,0,0,1-.39-.08S28.35,30,26,17.69c0,0-1.17-5.48.86-8.37h0a54.1,54.1,0,0,1,6.88,5A38,38,0,0,1,39,19.77s4.41,5.16,3.25,8.52c0,0,0,.08-.82,1.19a3.15,3.15,0,0,0,1.2-1.65,5.93,5.93,0,0,0-.51-3.73c-.76-2.05-3.9-6.55-7.12-9.42a41.13,41.13,0,0,0-7.76-5.74h0a5.73,5.73,0,0,1,3-1.4,14.63,14.63,0,0,1,8.87,1.21c4.09,1.95,4.84,4.47,5.11,5.12a11,11,0,0,1,.5,1.65,8.1,8.1,0,0,0-.39-1.84C44,13,43.24,10.42,39,8.41a15.14,15.14,0,0,0-9.14-1.25A6,6,0,0,0,26.84,8.6l-.07.08c-.46-.25-.95-.49-1.45-.73C28,5.07,30.19,4,32,3.52a4.53,4.53,0,0,1,2.79.24l.59.27a3.75,3.75,0,0,0-1.69-.78,5.44,5.44,0,0,0-2,0c-.15,0-3.33.76-6.83,4.43l-.36-.17c-.37-.16-.73-.31-1.09-.44A12.26,12.26,0,0,0,24.5,5.6a5.55,5.55,0,0,0,.71-2.11c.1-.85.17-.72.17-.72h.06c0-.12-.2-.11-.2-.11-.23,0-.2.06-.23.07l-.25,1.06A7,7,0,0,1,22.93,7c-3.69-1.24-6.29-.53-6.72.91a3.09,3.09,0,0,1,1.72-1.13,8.28,8.28,0,0,1,4.72.53l0,0a36.16,36.16,0,0,1-2.92,2.33l-2.92,2.12a35.69,35.69,0,0,0-3.12,2.79,9.45,9.45,0,0,0-1.8,3.1,10.38,10.38,0,0,0-.25,1.84,3.7,3.7,0,0,0,.28,1.37v-.06c-.84-3.89,2.88-6.89,2.88-6.89.35-.34,1.57-1.35,1.57-1.35l1.9-1.4L19.93,10s1.38-1,2-1.47A13.9,13.9,0,0,0,23.1,7.43c.45.17.93.38,1.45.62-.42.46-.84,1-1.26,1.51a33.37,33.37,0,0,0-5.41,9.81s-2.71,6.57-.61,11.72a4.24,4.24,0,0,0,2.24,2.16l-.63-.41-.61-.58-.65-.93-.17-.46-.22-.82a11.12,11.12,0,0,1-.35-3.66,21.43,21.43,0,0,1,.69-4.26A31.45,31.45,0,0,1,22.9,10.86c.74-1,1.44-1.84,2.12-2.58.45.23.94.49,1.45.78Z"/><path class="cls-54" d="M26.44,9.1c-2.08,2.88-.88,8.38-.88,8.38C27.88,29.8,31.84,35.4,31.84,35.4c.53.24.72-.14.72-.14a.51.51,0,0,1-.39-.08S28.35,30,26,17.69c0,0-1.17-5.48.86-8.37h0a54.1,54.1,0,0,1,6.88,5A37.66,37.66,0,0,1,39,19.78s4.41,5.15,3.25,8.51c0,0,0,.08-.82,1.19a3.15,3.15,0,0,0,1.2-1.65,5.93,5.93,0,0,0-.51-3.73c-.76-2.05-3.9-6.55-7.12-9.42a40.7,40.7,0,0,0-7.76-5.74h0a5.73,5.73,0,0,1,3-1.4,14.63,14.63,0,0,1,8.87,1.21c4.09,1.95,4.84,4.47,5.11,5.12a11,11,0,0,1,.5,1.65,8.1,8.1,0,0,0-.39-1.84C44,13,43.24,10.42,39,8.41a15.06,15.06,0,0,0-9.14-1.25A6,6,0,0,0,26.84,8.6l-.07.08c-.46-.25-.95-.49-1.45-.73C28,5.07,30.19,4,32,3.52a4.53,4.53,0,0,1,2.79.24l.59.27a3.75,3.75,0,0,0-1.69-.78,5.7,5.7,0,0,0-2,0c-.15,0-3.33.76-6.83,4.43l-.36-.17c-.37-.16-.73-.31-1.09-.44A12.26,12.26,0,0,0,24.5,5.6a5.55,5.55,0,0,0,.71-2.11c.1-.85.17-.72.17-.72h.06c0-.12-.2-.11-.2-.11-.23,0-.2.06-.23.07l-.25,1A7,7,0,0,1,22.93,7c-3.69-1.24-6.29-.53-6.72.91a3.09,3.09,0,0,1,1.72-1.13,8.28,8.28,0,0,1,4.72.53l0,0a36.16,36.16,0,0,1-2.92,2.33l-2.92,2.12a35.69,35.69,0,0,0-3.12,2.79,9.45,9.45,0,0,0-1.8,3.1,10.38,10.38,0,0,0-.25,1.84,3.7,3.7,0,0,0,.28,1.37v-.06c-.84-3.89,2.88-6.89,2.88-6.89.35-.34,1.57-1.35,1.57-1.35l1.9-1.4L19.93,10s1.38-1,2-1.47A13.9,13.9,0,0,0,23.1,7.43c.45.17.93.38,1.45.62-.42.46-.84,1-1.26,1.51a33.37,33.37,0,0,0-5.41,9.81s-2.71,6.57-.61,11.72a4.24,4.24,0,0,0,2.24,2.16l-.63-.41-.61-.58-.65-.93-.17-.46-.22-.82a11.12,11.12,0,0,1-.35-3.66,21.43,21.43,0,0,1,.69-4.26A31.45,31.45,0,0,1,22.9,10.86c.74-1,1.44-1.84,2.12-2.58.45.23.94.49,1.45.78l0,0"/></g><path class="cls-55" d="M32.58,35.26a.42.42,0,0,1-.37-.08S28.38,30,26.07,17.7c0,0-1.17-5.49.85-8.37l-.08-.05c-2,2.88-.85,8.36-.85,8.36C28.3,30,32.12,35.13,32.12,35.13l.05.07s.11.12.41.06"/><path class="cls-55" d="M35.37,4l-.59-.27A4.49,4.49,0,0,0,32,3.54C30.18,4,28,5.08,25.32,8l-.1,0C27.91,5,30.08,4,31.9,3.47a4.53,4.53,0,0,1,2.79.24l.62.28.08,0Z"/><path class="cls-55" d="M39.08,8.75a13.45,13.45,0,0,1,1.61.9A13.55,13.55,0,0,0,39,8.7,14.71,14.71,0,0,0,30.1,7.49a5.65,5.65,0,0,0-3,1.39h0l.1.06a5.6,5.6,0,0,1,2.94-1.38,14.62,14.62,0,0,1,8.89,1.19"/><path class="cls-55" d="M25.37,2.78l-.16.73a5.71,5.71,0,0,1-.72,2.11,14.08,14.08,0,0,1-1.09,1.5l-.11,0A15,15,0,0,0,24.4,5.56a5.7,5.7,0,0,0,.69-2.12l.09-.56s0-.25.23-.11Z"/><path class="cls-55" d="M16.52,7.46a2.43,2.43,0,0,1,1.3-.78,8.69,8.69,0,0,1,4.84.57l0,0a8.91,8.91,0,0,0-4.72-.53,2.91,2.91,0,0,0-1.68,1.08Z"/><path class="cls-55" d="M25,8.29c-.67.75-1.38,1.6-2.12,2.59a31.37,31.37,0,0,0-5.33,11.27,21.3,21.3,0,0,0-.69,4.25,11.12,11.12,0,0,0,.35,3.66,4.67,4.67,0,0,0,1.94,3,4.65,4.65,0,0,1-2-3,11.22,11.22,0,0,1-.34-3.66,21.3,21.3,0,0,1,.69-4.25,31.3,31.3,0,0,1,5.33-11.27c.74-1,1.45-1.85,2.12-2.59.46.23,1,.54,1.52.82v0L25,8.3"/><path class="cls-55" d="M11.72,20.28c-.4-3.73,3-6.42,3-6.42.35-.34,1.57-1.36,1.57-1.36l1.9-1.39,1.68-1.18s1.38-1,2-1.47A13.76,13.76,0,0,0,23,7.38c.45.17,1,.43,1.55.67v0c-.48-.23-1-.47-1.45-.63a11.3,11.3,0,0,1-1.18,1.08c-.61.47-2,1.47-2,1.47l-1.69,1.18-1.9,1.39s-1.22,1-1.56,1.36c0,0-3.56,2.75-2.9,6.81a3,3,0,0,1-.16-.45"/><path class="cls-56" d="M14.68,42.08V45.3h4.37v2.87H14.68V54.5H11.62V40.18c0-.78.3-1.08,1.08-1.08h7.23v3Z"/><path class="cls-56" d="M21,54.49V40.18c0-.77.31-1.08,1.08-1.08h2V54.49Z"/><path class="cls-56" d="M31.68,43.58a1.67,1.67,0,0,1-1.78,1.87H28.56V41.71H29.9a1.67,1.67,0,0,1,1.78,1.87M34.8,50.1a3.3,3.3,0,0,0-1.93-3.36c.73-.34,1.83-1.2,1.83-3.57,0-2.15-1.47-4.07-4.59-4.07H26.65c-.78,0-1.08.3-1.08,1.08V54.49h4.67C32.87,54.49,34.8,53,34.8,50.1Zm-3.08-.17a1.71,1.71,0,0,1-1.8,1.92H28.56V48h1.36a1.71,1.71,0,0,1,1.8,1.92"/><path class="cls-56" d="M42,46.45H39.17V43.28c0-.65.22-1.74,1.43-1.74S42,42.63,42,43.28Zm3.06,8V42.93a4.09,4.09,0,0,0-4.47-4.17,4.09,4.09,0,0,0-4.48,4.17V54.49h3.05V49.31H42v5.18Z"/></svg>