<svg id="Слой_1" data-name="Слой 1" xmlns="http://www.w3.org/2000/svg" viewBox="0 0 56.69 56.69"><defs><style>.cls-1{fill:#010101;}</style></defs><path class="cls-1" d="M7.63,7.11h3.5a4,4,0,0,1,2.39.61,2.08,2.08,0,0,1,.85,1.79,2.17,2.17,0,0,1-.3,1.15,2.21,2.21,0,0,1-.9.77,2.52,2.52,0,0,1,1.26.87,2.35,2.35,0,0,1,.44,1.44,2.44,2.44,0,0,1-.43,1.43,2.65,2.65,0,0,1-1.21.92,4.84,4.84,0,0,1-1.89.33H7.63ZM3,20.05H19.54V3.48H3ZM11,8.66c1,0,1.51.37,1.51,1.11a1.08,1.08,0,0,1-.38.89A1.74,1.74,0,0,1,11,11H9.53V8.66Zm.24,3.78H9.51V15h1.65a2.3,2.3,0,0,0,1.31-.32,1.07,1.07,0,0,0,.45-.92c0-.85-.58-1.28-1.74-1.28Z"/><path class="cls-1" d="M24.73,23.7h3.5a3.93,3.93,0,0,1,2.39.62,2,2,0,0,1,.85,1.78A2,2,0,0,1,30.26,28a2.5,2.5,0,0,1,1.27.87A2.37,2.37,0,0,1,32,30.33a2.44,2.44,0,0,1-.43,1.43,2.65,2.65,0,0,1-1.21.92,4.88,4.88,0,0,1-1.89.33H24.73ZM20.07,36.64H36.64V20.07H20.07Zm8-11.39c1,0,1.51.37,1.51,1.11a1.08,1.08,0,0,1-.38.89,1.74,1.74,0,0,1-1.12.32H26.63V25.25ZM28.29,29H26.61v2.52h1.65a2.3,2.3,0,0,0,1.31-.32,1.07,1.07,0,0,0,.45-.92c0-.85-.58-1.27-1.74-1.27Z"/><path class="cls-1" d="M47.72,49.5a5.65,5.65,0,0,0,1.35-.5V47.23a5,5,0,0,1-2.68.75,3.45,3.45,0,0,1-1.61-.35,2.41,2.41,0,0,1-1-1.05,3.67,3.67,0,0,1-.34-1.66,3.43,3.43,0,0,1,.36-1.64,2.41,2.41,0,0,1,1-1,3.45,3.45,0,0,1,1.64-.36,4.73,4.73,0,0,1,1.32.19,4.09,4.09,0,0,1,1.18.54V40.8a6,6,0,0,0-1.29-.47,6.9,6.9,0,0,0-1.47-.16,5.82,5.82,0,0,0-2,.34,4.31,4.31,0,0,0-1.54,1,4.22,4.22,0,0,0-1,1.51,5.25,5.25,0,0,0-.34,2,5.67,5.67,0,0,0,.33,2,4,4,0,0,0,2.46,2.44,5.73,5.73,0,0,0,2,.33,6.43,6.43,0,0,0,1.6-.19Zm6,3.71H37.16V36.64H53.73Z"/></svg>