<svg id="Слой_1" data-name="Слой 1" xmlns="http://www.w3.org/2000/svg" xmlns:xlink="http://www.w3.org/1999/xlink" viewBox="0 0 56.69 56.69"><defs><style>.cls-1{fill:none;}.cls-2{clip-path:url(#clip-path);}.cls-3{clip-path:url(#clip-path-2);}.cls-4{fill:url(#Безымянный_градиент_7);}.cls-5{clip-path:url(#clip-path-3);}.cls-6{fill:url(#Безымянный_градиент_8);}.cls-7{clip-path:url(#clip-path-5);}.cls-8{fill:url(#Безымянный_градиент_12);}.cls-9{clip-path:url(#clip-path-7);}.cls-10{fill:url(#Безымянный_градиент_12-2);}.cls-11{clip-path:url(#clip-path-9);}.cls-12{fill:url(#Безымянный_градиент_12-3);}.cls-13{clip-path:url(#clip-path-11);}.cls-14{fill:url(#Безымянный_градиент_13);}.cls-15{clip-path:url(#clip-path-13);}.cls-16{fill:url(#Безымянный_градиент_14);}.cls-17{clip-path:url(#clip-path-15);}.cls-18{fill:url(#Безымянный_градиент_15);}.cls-19{clip-path:url(#clip-path-17);}.cls-20{fill:url(#Безымянный_градиент_16);}.cls-21{clip-path:url(#clip-path-19);}.cls-22{fill:url(#Безымянный_градиент_18);}.cls-23{clip-path:url(#clip-path-21);}.cls-24{fill:url(#Безымянный_градиент_18-2);}.cls-25{fill:#2d1d47;}.cls-25,.cls-26{fill-rule:evenodd;}.cls-26{fill:#fff;}</style><clipPath id="clip-path"><path class="cls-1" d="M-46.92-90.42a17.63,17.63,0,0,0-4.94,2s-1.48,1.23-1.63,1.4a13,13,0,0,1,5.34-2.23l.13,0Z"/></clipPath><clipPath id="clip-path-2"><rect class="cls-1" x="-152.13" y="-164.62" width="805.87" height="1063.02"/></clipPath><linearGradient id="Безымянный_градиент_7" x1="-378.45" y1="11.75" x2="-378.27" y2="11.75" gradientTransform="matrix(31.13, -3.85, -6.55, -52.98, 11866.58, -438.03)" gradientUnits="userSpaceOnUse"><stop offset="0" stop-color="#37ae6c"/><stop offset="1" stop-color="#09a650"/></linearGradient><clipPath id="clip-path-3"><path class="cls-1" d="M-42.65-80.95l1.35-1.13,1.36-1.2,1.46-1.09,1.91-1,1.85-.86,1.94-.59s-.49-.82-.9-.75-1.78.45-1.78.45a6.16,6.16,0,0,1-3.31.5c-1.48-.32.46-1.4.46-1.4l.39-.07.89-.77,1,.25.56.25.15,0h0a3.22,3.22,0,0,0-1.24-1.21,3.23,3.23,0,0,0-2.57.36,3.15,3.15,0,0,1-1.76.33s-.88-.22-.49-.43a16.94,16.94,0,0,1,2-.68v-.09a2.74,2.74,0,0,0-2.08-.68,2.43,2.43,0,0,0-1.24.34l-.88.44-.58.35s-.88.65-1.34.46-.16-.82-.16-.82a1.63,1.63,0,0,1,.68-.63l-.27-.09-.08,0-.73.06-.6.14a1.74,1.74,0,0,0-.92.5,5.92,5.92,0,0,0-1,1.85,4.84,4.84,0,0,1-1.89,2.41c-.86.35-1.22-.12-1.22-.12a1.14,1.14,0,0,1-.19-.37c-.09-.26-.36-.64-.7-.66a1.88,1.88,0,0,0-1.91.82l-.77,1a2.63,2.63,0,0,1,2.11,1.59s.65,2.4.77,2.68a3.84,3.84,0,0,0,1.08,1.76,5.33,5.33,0,0,0,3.85.7c1.29-.26,2.56-.85,4.82-2.56"/></clipPath><linearGradient id="Безымянный_градиент_8" x1="-387.53" y1="20.14" x2="-387.35" y2="20.14" gradientTransform="matrix(-18.53, -85, -165.27, 36.04, -3708.85, -33782.76)" gradientUnits="userSpaceOnUse"><stop offset="0" stop-color="#f9b111"/><stop offset="0.49" stop-color="#eaa70d"/><stop offset="1" stop-color="#715012"/></linearGradient><clipPath id="clip-path-5"><path class="cls-1" d="M-42.54-88.82a1.47,1.47,0,0,0,1.23.3c.64-.19.29-.87.15-1a4,4,0,0,0-3.41-1.27,11,11,0,0,0-1.44.17A3,3,0,0,1-43.8-90a9.33,9.33,0,0,1,1.26,1.22"/></clipPath><linearGradient id="Безымянный_градиент_12" x1="-392.74" y1="23.19" x2="-392.56" y2="23.19" gradientTransform="matrix(-25.25, -22.19, -45.2, 51.43, -9006.19, -9881.87)" gradientUnits="userSpaceOnUse"><stop offset="0" stop-color="#fbcb0c"/><stop offset="1" stop-color="#715012"/></linearGradient><clipPath id="clip-path-7"><path class="cls-1" d="M-41-90.77a9.4,9.4,0,0,1,2,.36,3.35,3.35,0,0,1,2.11,1.5c.29.36.54,1.15-.12,1.21s-1.16-.84-1.16-.84l-.24-.41A3.43,3.43,0,0,0-41-90.77Z"/></clipPath><linearGradient id="Безымянный_градиент_12-2" x1="-392.12" y1="23.42" x2="-391.94" y2="23.42" gradientTransform="matrix(-25.75, -22.63, -44.94, 51.14, -9179.54, -10042.85)" xlink:href="#Безымянный_градиент_12"/><clipPath id="clip-path-9"><path class="cls-1" d="M-35-87.76s.35.81.85.8.26-.56,0-1a2.85,2.85,0,0,0-1-1c-.42-.26-1.27-.65-1.27-.65l-.26-.11a3,3,0,0,1,.95.79c.34.48.7,1.09.7,1.09"/></clipPath><linearGradient id="Безымянный_градиент_12-3" x1="-393.73" y1="23.68" x2="-393.55" y2="23.68" gradientTransform="matrix(-18.62, -16.37, -39.66, 45.13, -6527.2, -7483.71)" xlink:href="#Безымянный_градиент_12"/><clipPath id="clip-path-11"><path class="cls-1" d="M-58.62-68.5a14.82,14.82,0,0,0,2.68,4.66c2,2.51,2.7,2.58,2.7,2.58a3.16,3.16,0,0,0,.74.71,14,14,0,0,0,2,1.13,8,8,0,0,0,3,1l-.13-1.11-5.6-5.18-2.91-1.69L-57.74-68Z"/></clipPath><linearGradient id="Безымянный_градиент_13" x1="-390.72" y1="28.2" x2="-390.54" y2="28.2" gradientTransform="matrix(-38.77, 42.46, 89.47, 81.69, -17344.11, 14570.07)" gradientUnits="userSpaceOnUse"><stop offset="0" stop-color="#504d4d"/><stop offset="1" stop-color="#e8e6e7"/></linearGradient><clipPath id="clip-path-13"><path class="cls-1" d="M-57.54-71.86l1.15-1.59s.37-1.37,1.15-.91,1.2,2-.45,4.37c0,0-1.05,1.1-.55,2.18s.89,1.73,2,1.43a9.63,9.63,0,0,0,2.88-1.09l4-2.92,2.45-2s.81-.75,1.5-.21-.36,1.52-.63,1.8a61,61,0,0,1-5.29,4.62l-.82.7a.62.62,0,0,0-.08.79.65.65,0,0,0,.85,0A56,56,0,0,0-44-68.57c1.15-1.14,2.22-2,2.22-2s.75-.77,1.4-.26-.14,1.24-.23,1.35L-42.87-67s-3.07,2.82-3.44,3-.72,1.57.45,1a20.61,20.61,0,0,0,3.6-2.58c.48-.5,2.35-2.35,2.35-2.35a.87.87,0,0,1,1.11-.24c.62.37-.17,1.43-.17,1.43l-1.85,2.12-1.7,1.62s-1.92,1.56-2.75,2,.31.81.48.8h.17a3.05,3.05,0,0,0,.68-.25c.36-.18,2.08-1.35,2.08-1.35l1.8-1.55s.63-.93,1.32-.65.07,1.14-.12,1.4S-40-61.31-40-61.31l-3.78,2.43a3.87,3.87,0,0,1-2.88.65A6.16,6.16,0,0,1-50-60l-2.85-3.2a11.92,11.92,0,0,0-1.76-1.44,11.56,11.56,0,0,1-2.67-1.93,9.39,9.39,0,0,1-1.29-1.76S-59-69.38-58.71-70s1.17-1.9,1.17-1.9"/></clipPath><linearGradient id="Безымянный_градиент_14" x1="-385.07" y1="19.08" x2="-384.89" y2="19.08" gradientTransform="matrix(135.4, -81.11, -90.86, -151.66, 54084.57, -27949.47)" gradientUnits="userSpaceOnUse"><stop offset="0" stop-color="#312d2e"/><stop offset="1" stop-color="#e8e6e7"/></linearGradient><clipPath id="clip-path-15"><path class="cls-1" d="M-51.77-88.42a13.54,13.54,0,0,0-1.77,1.23,17.63,17.63,0,0,0-3,3.14A15.81,15.81,0,0,0-59.6-75.6a13.09,13.09,0,0,0,.1,3.29,4.83,4.83,0,0,0,1,2.58,18.24,18.24,0,0,0,7.06,3s.79.08.86-.63-1-1.15-1-1.15a26.77,26.77,0,0,1-2.86-1.14,9.69,9.69,0,0,1-2-1.27c-1.33-1.09-1.39-1.88-1.15-2.23s.67-.16,1.08,0l2.39.92,5.49,1.54s2.24.76,2.59-.2-.65-1.36-1-1.5-4.49-1.49-6.88-2.5-2.6-1-2.45-2c0,0,.11-.65,1.79-.3l5.48,1.09,5.08,1s1.38.33,1.59-.47-.65-1.28-1.25-1.5-6-1.75-6-1.75L-53-79.61s-3-.34-2-1.61c0,0,.29-.43,2.48-.25a56.53,56.53,0,0,1,7.26,1.28c1.19.35,2.57.58,2.8-.28s-.62-1.26-1.9-1.64a36.81,36.81,0,0,0-6.19-1.28c-2.33-.25-3.74-.28-3.74-.28s-1,0-1.09-.27a1.49,1.49,0,0,1,.23-1,7.53,7.53,0,0,1,1.57-1.87Z"/></clipPath><radialGradient id="Безымянный_градиент_15" cx="-383.66" cy="22.7" r="0.18" gradientTransform="matrix(79.21, 0, 0, -79.21, 30342.04, 1714.82)" gradientUnits="userSpaceOnUse"><stop offset="0" stop-color="#9fcfa8"/><stop offset="1" stop-color="#09a650"/></radialGradient><clipPath id="clip-path-17"><path class="cls-1" d="M-47.88-64.16s0-.92.59-1.1,1,.29,1.13.88.68,2.22.68,2.22a7,7,0,0,0,1.92,3c1.18.82,1.75.23,1.63-.52s-1-4.44-1-4.44l-.78-4.21s-.5-1.72.62-2c0,0,.84-.34,1.23.89l.75,2.55.91,3.07.51,1.77s.35,2.05,1.22,1.92.67-1.45.66-2.22S-38.19-67-38.19-67l-.43-2.88L-39-72.36s-.33-1.19.71-1.38,1.42,1.37,1.42,1.37l.8,3.47.6,3.3s.3,2.24.3,2.52.16,1.66.73,1.63,1-1.16,1-1.16A11.4,11.4,0,0,0-33-65a35.51,35.51,0,0,0-.13-4.86c-.26-2.39-.85-2.82,0-3.12s1.28.94,1.28.94a17.8,17.8,0,0,1,.88,3.3,20.69,20.69,0,0,1,.09,4.22,5.09,5.09,0,0,1-2.63,3.85A17,17,0,0,1-39-58.16a18.37,18.37,0,0,1-6.62.3.6.6,0,0,1-.31-.23c-.16-.29-2-4.22-2-6.07"/></clipPath><linearGradient id="Безымянный_градиент_16" x1="-386.93" y1="20.45" x2="-386.75" y2="20.45" gradientTransform="matrix(-32.99, -86.29, -146.3, 55.94, -9701.77, -34634.9)" gradientUnits="userSpaceOnUse"><stop offset="0" stop-color="#173559"/><stop offset="0.08" stop-color="#0d4271"/><stop offset="0.56" stop-color="#529ed7"/><stop offset="1" stop-color="#2186c8"/></linearGradient><clipPath id="clip-path-19"><path class="cls-1" d="M-27-69.93c-1.26.4-1.41,1.38-1.33,2.44a3.47,3.47,0,0,1-.4,1.69,18.76,18.76,0,0,0,.88-1.68A18.73,18.73,0,0,0-27-69.93"/></clipPath><linearGradient id="Безымянный_градиент_18" x1="-369.6" y1="14.61" x2="-369.42" y2="14.61" gradientTransform="matrix(9.64, 0, 0, -49.8, 3534.95, 1094.53)" gradientUnits="userSpaceOnUse"><stop offset="0" stop-color="#143250"/><stop offset="1" stop-color="#0d6dab"/></linearGradient><clipPath id="clip-path-21"><polygon class="cls-1" points="-28.73 -65.8 -28.72 -65.81 -28.73 -65.8 -28.73 -65.8"/></clipPath><linearGradient id="Безымянный_градиент_18-2" x1="238.9" y1="8.25" x2="11947.76" y2="8.25" gradientTransform="matrix(0.07, 0, 0, -26.91, -168.57, 588.91)" xlink:href="#Безымянный_градиент_18"/></defs><g class="cls-2"><g class="cls-3"><path class="cls-4" d="M-152.13-164.62H653.74v1063H-152.13Z"/></g></g><g class="cls-5"><g class="cls-3"><path class="cls-6" d="M-152.13-164.62H653.74v1063H-152.13Z"/></g></g><g class="cls-7"><g class="cls-3"><path class="cls-8" d="M-152.13-164.62H653.74v1063H-152.13Z"/></g></g><g class="cls-9"><g class="cls-3"><path class="cls-10" d="M-152.13-164.62H653.74v1063H-152.13Z"/></g></g><g class="cls-11"><g class="cls-3"><path class="cls-12" d="M-152.13-164.62H653.74v1063H-152.13Z"/></g></g><g class="cls-13"><g class="cls-3"><path class="cls-14" d="M-152.13-164.62H653.74v1063H-152.13Z"/></g></g><g class="cls-15"><g class="cls-3"><path class="cls-16" d="M-152.13-164.62H653.74v1063H-152.13Z"/></g></g><g class="cls-17"><g class="cls-3"><path class="cls-18" d="M-152.13-164.62H653.74v1063H-152.13Z"/></g></g><g class="cls-19"><g class="cls-3"><path class="cls-20" d="M-152.13-164.62H653.74v1063H-152.13Z"/></g></g><g class="cls-21"><g class="cls-3"><path class="cls-22" d="M-152.13-164.62H653.74v1063H-152.13Z"/></g></g><g class="cls-23"><g class="cls-3"><path class="cls-24" d="M-152.13-164.62H653.74v1063H-152.13Z"/></g></g><path class="cls-25" d="M41.23,40.9c.2,0,.57,0,.82.06a10,10,0,0,1,1.54.44v.85a3.46,3.46,0,0,1-.06.83l-.48-.23a4.92,4.92,0,0,0-.85-.31,4.06,4.06,0,0,0-.87-.11,3.46,3.46,0,0,0-.73.07,1.32,1.32,0,0,0-.49.29,1,1,0,0,0-.31.48,1.38,1.38,0,0,0,0,.49,1,1,0,0,0,.22.42,2.17,2.17,0,0,0,.58.41c.21.1.73.3,1.14.44s.95.36,1.18.47a4.36,4.36,0,0,1,.74.5,2.8,2.8,0,0,1,.46.55,3.17,3.17,0,0,1,.24.64,3,3,0,0,1,0,.8,3.52,3.52,0,0,1-.19.84,2.13,2.13,0,0,1-.59.84,2.47,2.47,0,0,1-.9.62,5.11,5.11,0,0,1-1,.25,5.72,5.72,0,0,1-1.17,0,8.2,8.2,0,0,1-1-.2,8.94,8.94,0,0,1-1.08-.41v-.87a5,5,0,0,1,0-.87s.17.09.35.19a7.45,7.45,0,0,0,.79.37,5.23,5.23,0,0,0,.84.26,4.62,4.62,0,0,0,.85,0,2,2,0,0,0,.81-.2.92.92,0,0,0,.49-.46,1,1,0,0,0,.13-.57,1,1,0,0,0-.14-.45,1.39,1.39,0,0,0-.37-.35,10.36,10.36,0,0,0-1.36-.57c-.61-.23-1.26-.49-1.45-.59a3.82,3.82,0,0,1-.62-.46,2.65,2.65,0,0,1-.42-.54,3.57,3.57,0,0,1-.21-.69,2.1,2.1,0,0,1,0-.9,3.6,3.6,0,0,1,.25-.82,2.62,2.62,0,0,1,.47-.65,3,3,0,0,1,.73-.51,3.92,3.92,0,0,1,.85-.3A6.4,6.4,0,0,1,41.23,40.9Zm-37.76.19H11v1.54H8.12l0,7.74-1.65,0V42.63h-3Zm9.79,0,2.23,0c2.12,0,2.26,0,2.64.17s.53.23.68.31a3.49,3.49,0,0,1,.59.5,3.87,3.87,0,0,1,.49.7,5.49,5.49,0,0,1,.24.75,3.2,3.2,0,0,1,0,.82,3.76,3.76,0,0,1-.17.77,3.87,3.87,0,0,1-.32.61,2.92,2.92,0,0,1-.59.56,3.47,3.47,0,0,1-1,.48l.18.22a9.25,9.25,0,0,1,.53.86,3.24,3.24,0,0,0,.55.78,1.37,1.37,0,0,0,.43.23,1.48,1.48,0,0,0,.67,0V50.4l-.32,0a3,3,0,0,1-.72,0,3.35,3.35,0,0,1-.74-.21,2.25,2.25,0,0,1-.67-.49,6.26,6.26,0,0,1-.75-1.18,6.1,6.1,0,0,0-.65-1.06,2,2,0,0,0-.41-.28,5,5,0,0,0-1.2-.07V50.4l-1.65,0Zm1.67,4.56a17,17,0,0,0,2.33-.09,2,2,0,0,0,.64-.25,1.62,1.62,0,0,0,.4-.51,1.49,1.49,0,0,0,.16-.69,1.32,1.32,0,0,0-.17-.7,1.17,1.17,0,0,0-.49-.54l-.33-.2-2.53,0Zm7.89-4.56H24.5v3.07c0,2.86,0,3.09.13,3.49a2.11,2.11,0,0,0,.39.73,2.08,2.08,0,0,0,.6.47,1.75,1.75,0,0,0,.94.18,1.87,1.87,0,0,0,1-.16,2.21,2.21,0,0,0,.55-.37,3.69,3.69,0,0,0,.59-1l0-6.4,1.65,0,0,2.74c0,1.58,0,3,0,3.35a5.62,5.62,0,0,1-.21,1,4.78,4.78,0,0,1-.43.84,3.77,3.77,0,0,1-.66.71,4.37,4.37,0,0,1-.65.42,4,4,0,0,1-.7.25,4.66,4.66,0,0,1-1.1.12,3.92,3.92,0,0,1-1.08-.12,6,6,0,0,1-.81-.33,4.09,4.09,0,0,1-.77-.58,3.46,3.46,0,0,1-.63-.87,4,4,0,0,1-.35-1,28.29,28.29,0,0,1-.1-3.53Zm10.72,0h1.68V50.4l-1.65,0Zm12.13,0h7.55v1.54h-3V50.4H48.64V42.63h-3Z"/><path class="cls-25" d="M29,6.13c13,0,13.27,0,13.83.28a3.1,3.1,0,0,1,.87.6,3.19,3.19,0,0,1,.49,1c.17.58.2,2.46.2,13.64,0,10.3,0,13.08-.17,13.54a3.87,3.87,0,0,1-.43,1,4.39,4.39,0,0,1-1.54,1H28.86c-7.35,0-13.59-.05-13.86-.1a2.53,2.53,0,0,1-.95-.51,3.44,3.44,0,0,1-.71-.93c-.22-.49-.24-1.25-.24-14s0-13.5.24-14a3.44,3.44,0,0,1,.71-.93A2.07,2.07,0,0,1,15,6.27l.62-.12C15.69,6.12,21.71,6.11,29,6.13Z"/><polygon class="cls-26" points="15.81 20.2 23.57 20.2 23.57 14.55 26.67 14.55 26.67 28.8 23.57 28.8 23.57 23.15 15.81 23.15 15.81 34.58 41.66 34.58 41.6 23.22 33.84 23.22 33.78 28.8 30.68 28.8 30.68 14.55 33.78 14.55 33.78 20.2 41.6 20.14 41.65 8.78 15.81 8.78 15.81 20.2"/></svg>