<svg id="Слой_1" data-name="Слой 1" xmlns="http://www.w3.org/2000/svg" viewBox="0 0 56.69 56.69"><defs><style>.cls-1{fill:#094680;}</style></defs><path class="cls-1" d="M10.77,28.06a4.94,4.94,0,0,1,.63.27,3.55,3.55,0,0,1,1.07,1A4.08,4.08,0,0,1,13,31.46q0,4.27-5.17,4.28H1.13a.24.24,0,0,1-.27-.27V21.72a.24.24,0,0,1,.27-.26H8.19a4.41,4.41,0,0,1,3,1A3.74,3.74,0,0,1,11.94,27,2.77,2.77,0,0,1,10.77,28.06Zm-3,5.63A4.07,4.07,0,0,0,10,33.2a1.94,1.94,0,0,0,.71-1.7A1.91,1.91,0,0,0,10,29.81a4,4,0,0,0-2.23-.5H3.54q-.36,0-.36.27v3.84q0,.27.36.27ZM3.54,23.51a.24.24,0,0,0-.27.27V27a.24.24,0,0,0,.27.27H7.65c1.55,0,2.32-.62,2.32-1.87s-.77-1.88-2.32-1.88Zm21.7,4.55a2,2,0,0,1,.53.27,2.44,2.44,0,0,1,1.07,1,3.64,3.64,0,0,1,.63,2.15q0,4.27-5.18,4.28H15.6a.24.24,0,0,1-.27-.27V21.72a.24.24,0,0,1,.27-.26h7a4.46,4.46,0,0,1,3,1,3.44,3.44,0,0,1,1.21,2.73A3.37,3.37,0,0,1,26.4,27,2.8,2.8,0,0,1,25.24,28.06Zm-7.32-4.55a.24.24,0,0,0-.27.27V27a.24.24,0,0,0,.27.27h4.19c1.55,0,2.32-.62,2.32-1.87s-.77-1.88-2.32-1.88ZM22.2,33.69a4,4,0,0,0,2.23-.49,1.92,1.92,0,0,0,.72-1.7,1.89,1.89,0,0,0-.72-1.69,4,4,0,0,0-2.23-.5H17.92a.24.24,0,0,0-.27.27v3.84a.24.24,0,0,0,.27.27Zm18-12c0-.12.11-.18.17-.18h2.33a.26.26,0,0,1,.17.09.1.1,0,0,1,0,.17L35.5,35.65a.31.31,0,0,1-.44,0L27.65,21.72a.13.13,0,0,1,0-.17c0-.06.11-.09.23-.09h2.23a.29.29,0,0,1,.27.18l4.73,8.92q0,.09.18.09a.36.36,0,0,0,.26-.09Zm2.67,11.87a.29.29,0,0,1-.26.18H40.32a.14.14,0,0,1-.13-.09.39.39,0,0,1,0-.18l7.41-13.93a.37.37,0,0,1,.27-.09.36.36,0,0,1,.26.09L55.5,33.42a.39.39,0,0,1,0,.18.15.15,0,0,1-.14.09H53a.29.29,0,0,1-.27-.18l-4.64-8.93a.29.29,0,0,0-.54,0Z"/></svg>