<svg id="Слой_1" data-name="Слой 1" xmlns="http://www.w3.org/2000/svg" xmlns:xlink="http://www.w3.org/1999/xlink" viewBox="0 0 56.69 56.69"><defs><style>.cls-1{fill:none;}.cls-2{fill:#17744f;}.cls-2,.cls-3{fill-rule:evenodd;}.cls-3{fill:#fff;}.cls-4{clip-path:url(#clip-path);}.cls-5{clip-path:url(#clip-path-2);}.cls-6{fill:url(#Безымянный_градиент_7);}.cls-7{clip-path:url(#clip-path-3);}.cls-8{fill:url(#Безымянный_градиент_8);}.cls-9{clip-path:url(#clip-path-5);}.cls-10{fill:url(#Безымянный_градиент_12);}.cls-11{clip-path:url(#clip-path-7);}.cls-12{fill:url(#Безымянный_градиент_12-2);}.cls-13{clip-path:url(#clip-path-9);}.cls-14{fill:url(#Безымянный_градиент_12-3);}.cls-15{clip-path:url(#clip-path-11);}.cls-16{fill:url(#Безымянный_градиент_13);}.cls-17{clip-path:url(#clip-path-13);}.cls-18{fill:url(#Безымянный_градиент_14);}.cls-19{clip-path:url(#clip-path-15);}.cls-20{fill:url(#Безымянный_градиент_15);}.cls-21{clip-path:url(#clip-path-17);}.cls-22{fill:url(#Безымянный_градиент_16);}.cls-23{clip-path:url(#clip-path-19);}.cls-24{fill:url(#Безымянный_градиент_18);}.cls-25{clip-path:url(#clip-path-21);}.cls-26{fill:url(#Безымянный_градиент_18-2);}</style><clipPath id="clip-path"><path class="cls-1" d="M-183.59,3a18,18,0,0,0-4.94,2s-1.48,1.23-1.63,1.4a13,13,0,0,1,5.34-2.22h.13Z"/></clipPath><clipPath id="clip-path-2"><rect class="cls-1" x="-288.8" y="-71.19" width="805.87" height="1063.02"/></clipPath><linearGradient id="Безымянный_градиент_7" x1="-515.12" y1="105.19" x2="-514.94" y2="105.19" gradientTransform="matrix(31.13, -3.85, -6.55, -52.98, 16597.13, 4079.37)" gradientUnits="userSpaceOnUse"><stop offset="0" stop-color="#37ae6c"/><stop offset="1" stop-color="#09a650"/></linearGradient><clipPath id="clip-path-3"><path class="cls-1" d="M-179.32,12.49l1.35-1.14,1.36-1.19,1.46-1.1,1.91-1,1.85-.86,1.94-.59s-.49-.82-.9-.75-1.79.45-1.79.45a6.22,6.22,0,0,1-3.3.5c-1.48-.33.46-1.41.46-1.41l.39-.06.89-.77,1,.24.56.25.15,0h0a3.29,3.29,0,0,0-1.24-1.22,3.27,3.27,0,0,0-2.57.37,3.12,3.12,0,0,1-1.77.32s-.87-.21-.48-.43a16.53,16.53,0,0,1,2-.67V3.33a2.73,2.73,0,0,0-2.09-.69,2.39,2.39,0,0,0-1.23.34l-.88.44-.58.35s-.88.66-1.34.46-.16-.81-.16-.81a1.63,1.63,0,0,1,.68-.63l-.27-.09-.08,0-.73,0-.6.15a1.74,1.74,0,0,0-.92.5,5.81,5.81,0,0,0-1,1.85,5,5,0,0,1-1.89,2.41c-.86.34-1.22-.12-1.22-.12a1.3,1.3,0,0,1-.19-.38c-.09-.26-.37-.64-.7-.65a1.86,1.86,0,0,0-1.91.82l-.78,1a2.61,2.61,0,0,1,2.12,1.59s.65,2.4.77,2.68A3.69,3.69,0,0,0-188,14.34a5.32,5.32,0,0,0,3.85.71c1.29-.26,2.56-.85,4.82-2.56"/></clipPath><linearGradient id="Безымянный_градиент_8" x1="-524.2" y1="113.57" x2="-524.02" y2="113.57" gradientTransform="matrix(-18.53, -85, -165.27, 36.04, 9063.93, -48672.88)" gradientUnits="userSpaceOnUse"><stop offset="0" stop-color="#f9b111"/><stop offset="0.49" stop-color="#eaa70d"/><stop offset="1" stop-color="#715012"/></linearGradient><clipPath id="clip-path-5"><path class="cls-1" d="M-179.21,4.62a1.43,1.43,0,0,0,1.22.29c.64-.19.3-.87.16-1a4,4,0,0,0-3.41-1.28,13.17,13.17,0,0,0-1.44.17,3,3,0,0,1,2.21.62,8.87,8.87,0,0,1,1.26,1.23"/></clipPath><linearGradient id="Безымянный_градиент_12" x1="-529.41" y1="116.62" x2="-529.23" y2="116.62" gradientTransform="matrix(-25.25, -22.19, -45.2, 51.43, -8370.55, -17626.26)" gradientUnits="userSpaceOnUse"><stop offset="0" stop-color="#fbcb0c"/><stop offset="1" stop-color="#715012"/></linearGradient><clipPath id="clip-path-7"><path class="cls-1" d="M-177.66,2.66a10.13,10.13,0,0,1,2,.36,3.32,3.32,0,0,1,2.11,1.51c.29.35.54,1.15-.12,1.2s-1.16-.84-1.16-.84l-.24-.4a3.42,3.42,0,0,0-2.6-1.83Z"/></clipPath><linearGradient id="Безымянный_градиент_12-2" x1="-528.79" y1="116.85" x2="-528.61" y2="116.85" gradientTransform="matrix(-25.75, -22.63, -44.94, 51.14, -8636.22, -17820.17)" xlink:href="#Безымянный_градиент_12"/><clipPath id="clip-path-9"><path class="cls-1" d="M-171.64,5.68s.35.8.84.8.27-.57,0-1a2.91,2.91,0,0,0-1-1c-.42-.25-1.28-.65-1.28-.65l-.25-.1a3,3,0,0,1,.95.79c.34.47.7,1.09.7,1.09"/></clipPath><linearGradient id="Безымянный_градиент_12-3" x1="-530.4" y1="117.12" x2="-530.22" y2="117.12" gradientTransform="matrix(-18.62, -16.37, -39.66, 45.13, -5503.39, -13843.81)" xlink:href="#Безымянный_градиент_12"/><clipPath id="clip-path-11"><path class="cls-1" d="M-195.29,24.93a14.92,14.92,0,0,0,2.68,4.67c2.05,2.51,2.7,2.58,2.7,2.58a3.16,3.16,0,0,0,.74.71,14,14,0,0,0,2,1.13,8.1,8.1,0,0,0,3,1l-.13-1.1-5.6-5.18-2.91-1.7-1.56-1.61Z"/></clipPath><linearGradient id="Безымянный_градиент_13" x1="-527.39" y1="121.64" x2="-527.21" y2="121.64" gradientTransform="matrix(-38.77, 42.46, 89.47, 81.69, -31139.07, 12834.87)" gradientUnits="userSpaceOnUse"><stop offset="0" stop-color="#504d4d"/><stop offset="1" stop-color="#e8e6e7"/></linearGradient><clipPath id="clip-path-13"><path class="cls-1" d="M-194.21,21.57l1.15-1.59s.37-1.37,1.14-.91,1.21,2-.44,4.37c0,0-1,1.11-.55,2.18s.88,1.74,2,1.44A10.2,10.2,0,0,0-188,26l4-2.93,2.45-2s.81-.76,1.5-.21-.36,1.51-.64,1.8A59.3,59.3,0,0,1-186,27.28l-.82.71a.62.62,0,0,0-.08.79.66.66,0,0,0,.85,0,55.49,55.49,0,0,0,5.4-3.87c1.15-1.15,2.22-2,2.22-2s.74-.76,1.4-.26-.14,1.25-.23,1.36l-2.3,2.47s-3.06,2.82-3.43,3-.73,1.56.44,1a20.88,20.88,0,0,0,3.61-2.58c.48-.51,2.35-2.36,2.35-2.36a.88.88,0,0,1,1.11-.24c.62.38-.17,1.43-.17,1.43l-1.85,2.13-1.7,1.62s-1.92,1.55-2.75,2,.3.8.48.79h.17a2.68,2.68,0,0,0,.68-.25c.35-.18,2.08-1.35,2.08-1.35l1.79-1.55s.63-.93,1.33-.64.07,1.14-.12,1.4-1.16,1.35-1.16,1.35l-3.79,2.43a3.86,3.86,0,0,1-2.87.65,6.14,6.14,0,0,1-3.3-1.75l-2.86-3.19a12.25,12.25,0,0,0-1.75-1.45,11,11,0,0,1-2.67-1.92,9.64,9.64,0,0,1-1.29-1.77s-.46-1.07-.16-1.66,1.17-1.9,1.17-1.9"/></clipPath><linearGradient id="Безымянный_градиент_14" x1="-521.74" y1="112.52" x2="-521.56" y2="112.52" gradientTransform="matrix(135.4, -81.11, -90.86, -151.66, 80941.95, -24770.97)" gradientUnits="userSpaceOnUse"><stop offset="0" stop-color="#312d2e"/><stop offset="1" stop-color="#e8e6e7"/></linearGradient><clipPath id="clip-path-15"><path class="cls-1" d="M-188.44,5a15,15,0,0,0-1.77,1.23,18,18,0,0,0-3,3.14,15.91,15.91,0,0,0-3.1,8.45,13.42,13.42,0,0,0,.11,3.3,4.81,4.81,0,0,0,1,2.57,18.17,18.17,0,0,0,7.06,3s.79.07.86-.64-1.05-1.15-1.05-1.15a28.67,28.67,0,0,1-2.85-1.13,9.93,9.93,0,0,1-2-1.27c-1.33-1.1-1.39-1.88-1.15-2.24s.66-.15,1.08,0l2.39.92,5.49,1.55s2.24.75,2.59-.2-.65-1.37-1-1.51-4.49-1.49-6.88-2.49-2.6-1-2.45-2c0,0,.11-.64,1.79-.3l5.48,1.1,5.07,1s1.39.33,1.6-.48-.65-1.28-1.25-1.5-6-1.75-6-1.75l-3.28-.84s-3-.35-2-1.62c0,0,.29-.43,2.47-.24A54.24,54.24,0,0,1-182,13.25c1.2.34,2.58.58,2.81-.29s-.62-1.25-1.9-1.64a37.77,37.77,0,0,0-6.2-1.28c-2.32-.24-3.73-.27-3.73-.27s-1,0-1.09-.28a1.49,1.49,0,0,1,.22-1,7.35,7.35,0,0,1,1.57-1.87Z"/></clipPath><radialGradient id="Безымянный_градиент_15" cx="-520.34" cy="116.13" r="0.18" gradientTransform="matrix(79.21, 0, 0, -79.21, 41031.12, 9209.24)" gradientUnits="userSpaceOnUse"><stop offset="0" stop-color="#9fcfa8"/><stop offset="1" stop-color="#09a650"/></radialGradient><clipPath id="clip-path-17"><path class="cls-1" d="M-184.55,29.27s-.06-.92.59-1.1,1,.3,1.13.88.68,2.23.68,2.23a7.11,7.11,0,0,0,1.91,3c1.19.81,1.76.23,1.63-.52s-1-4.45-1-4.45l-.78-4.2s-.5-1.72.62-2c0,0,.84-.33,1.23.9l.75,2.54.91,3.08.5,1.76s.36,2.05,1.23,1.92.66-1.45.65-2.21-.4-4.61-.4-4.61l-.43-2.89-.35-2.47s-.33-1.2.71-1.38,1.41,1.37,1.41,1.37l.81,3.47.6,3.3s.3,2.24.3,2.52.16,1.66.73,1.63,1-1.16,1-1.16a11.15,11.15,0,0,0,.39-2.38,35.64,35.64,0,0,0-.13-4.87c-.26-2.38-.85-2.82,0-3.11s1.28.93,1.28.93a18.07,18.07,0,0,1,.88,3.3,19.91,19.91,0,0,1,.08,4.23,5,5,0,0,1-2.62,3.84,16.9,16.9,0,0,1-5.45,2.5,18.34,18.34,0,0,1-6.62.31.65.65,0,0,1-.32-.23c-.15-.3-2-4.23-2-6.08"/></clipPath><linearGradient id="Безымянный_градиент_16" x1="-523.6" y1="113.89" x2="-523.42" y2="113.89" gradientTransform="matrix(-32.99, -86.29, -146.3, 55.94, -677.57, -51561.82)" gradientUnits="userSpaceOnUse"><stop offset="0" stop-color="#173559"/><stop offset="0.08" stop-color="#0d4271"/><stop offset="0.56" stop-color="#529ed7"/><stop offset="1" stop-color="#2186c8"/></linearGradient><clipPath id="clip-path-19"><path class="cls-1" d="M-163.67,23.51c-1.26.39-1.41,1.38-1.34,2.43a3.32,3.32,0,0,1-.4,1.7,15.43,15.43,0,0,0,.89-1.69,18.3,18.3,0,0,0,.85-2.44"/></clipPath><linearGradient id="Безымянный_градиент_18" x1="-506.27" y1="108.05" x2="-506.09" y2="108.05" gradientTransform="matrix(9.64, 0, 0, -49.8, 4716.06, 5841.03)" gradientUnits="userSpaceOnUse"><stop offset="0" stop-color="#143250"/><stop offset="1" stop-color="#0d6dab"/></linearGradient><clipPath id="clip-path-21"><polygon class="cls-1" points="-165.41 27.64 -165.39 27.63 -165.41 27.64 -165.41 27.64"/></clipPath><linearGradient id="Безымянный_градиент_18-2" x1="102.23" y1="101.69" x2="11811.08" y2="101.69" gradientTransform="matrix(0.07, 0, 0, -26.91, -295.84, 3196.47)" xlink:href="#Безымянный_градиент_18"/></defs><path id="path2" class="cls-2" d="M-2.14-2.14h61v61h-61Z"/><path id="path4" class="cls-3" d="M19.9,23.36A9,9,0,0,1,32,21.27c-.63.93-1.22,1.89-1.83,2.84a5.45,5.45,0,0,0-6.33,0,5.22,5.22,0,0,0-1.47,6.94,5.37,5.37,0,0,0,7.81,1.49c2-1.49,2-4.22,2.71-6.43a8.79,8.79,0,0,1,5.88-5.93,9.18,9.18,0,0,1,7.6,1.14c-.61.94-1.2,1.89-1.8,2.83a5.48,5.48,0,0,0-4.59-.86,5.29,5.29,0,0,0,1.2,10.37,4.94,4.94,0,0,0,4.77-3.55c-1.7,0-3.4,0-5.1,0,.58-1.1,1.31-2.1,2-3.15,2.22,0,4.45,0,6.68,0a8.89,8.89,0,0,1-3.26,8.25A8.68,8.68,0,0,1,34,33.29a8.66,8.66,0,0,1-5.92,3.56,8.81,8.81,0,0,1-7.68-2.72,5.25,5.25,0,0,1-4.22,2.42c-3,.07-6,.1-8.93,0,0-5.45,0-10.89,0-16.34,2.67,0,5.35,0,8,0a5,5,0,0,1,4.62,3.16Zm-9.1-.08c0,1.17,0,2.34,0,3.51,1.37,0,2.75,0,4.13,0a1.77,1.77,0,0,0,0-3.54C13.57,23.22,12.18,23.22,10.8,23.28Zm0,6.51c0,1.26,0,2.51,0,3.76,1.57,0,3.14,0,4.71,0a2,2,0,0,0,2-1.56,1.85,1.85,0,0,0-1.72-2.16c-1.67-.06-3.35,0-5,0Z"/><g class="cls-4"><g class="cls-5"><path class="cls-6" d="M-288.8-71.19H517.07v1063H-288.8Z"/></g></g><g class="cls-7"><g class="cls-5"><path class="cls-8" d="M-288.8-71.19H517.07v1063H-288.8Z"/></g></g><g class="cls-9"><g class="cls-5"><path class="cls-10" d="M-288.8-71.19H517.07v1063H-288.8Z"/></g></g><g class="cls-11"><g class="cls-5"><path class="cls-12" d="M-288.8-71.19H517.07v1063H-288.8Z"/></g></g><g class="cls-13"><g class="cls-5"><path class="cls-14" d="M-288.8-71.19H517.07v1063H-288.8Z"/></g></g><g class="cls-15"><g class="cls-5"><path class="cls-16" d="M-288.8-71.19H517.07v1063H-288.8Z"/></g></g><g class="cls-17"><g class="cls-5"><path class="cls-18" d="M-288.8-71.19H517.07v1063H-288.8Z"/></g></g><g class="cls-19"><g class="cls-5"><path class="cls-20" d="M-288.8-71.19H517.07v1063H-288.8Z"/></g></g><g class="cls-21"><g class="cls-5"><path class="cls-22" d="M-288.8-71.19H517.07v1063H-288.8Z"/></g></g><g class="cls-23"><g class="cls-5"><path class="cls-24" d="M-288.8-71.19H517.07v1063H-288.8Z"/></g></g><g class="cls-25"><g class="cls-5"><path class="cls-26" d="M-288.8-71.19H517.07v1063H-288.8Z"/></g></g></svg>