<svg id="Слой_1" data-name="Слой 1" xmlns="http://www.w3.org/2000/svg" xmlns:xlink="http://www.w3.org/1999/xlink" viewBox="0 0 56.69 56.69"><defs><style>.cls-1{fill:none;}.cls-2{clip-path:url(#clip-path);}.cls-3{clip-path:url(#clip-path-2);}.cls-4{fill:url(#Безымянный_градиент_7);}.cls-5{clip-path:url(#clip-path-3);}.cls-6{fill:url(#Безымянный_градиент_8);}.cls-7{clip-path:url(#clip-path-5);}.cls-8{fill:url(#Безымянный_градиент_12);}.cls-9{clip-path:url(#clip-path-7);}.cls-10{fill:url(#Безымянный_градиент_12-2);}.cls-11{clip-path:url(#clip-path-9);}.cls-12{fill:url(#Безымянный_градиент_12-3);}.cls-13{clip-path:url(#clip-path-11);}.cls-14{fill:url(#Безымянный_градиент_13);}.cls-15{clip-path:url(#clip-path-13);}.cls-16{fill:url(#Безымянный_градиент_14);}.cls-17{clip-path:url(#clip-path-15);}.cls-18{fill:url(#Безымянный_градиент_15);}.cls-19{clip-path:url(#clip-path-17);}.cls-20{fill:url(#Безымянный_градиент_16);}.cls-21{clip-path:url(#clip-path-19);}.cls-22{fill:url(#Безымянный_градиент_18);}.cls-23{clip-path:url(#clip-path-21);}.cls-24{fill:url(#Безымянный_градиент_18-2);}.cls-25{clip-path:url(#clip-path-23);}.cls-26{fill:#010101;}.cls-27{fill:#fff;}</style><clipPath id="clip-path"><path class="cls-1" d="M92.69-90.42a17.63,17.63,0,0,0-4.94,2s-1.49,1.23-1.63,1.4a12.91,12.91,0,0,1,5.34-2.23l.12,0Z"/></clipPath><clipPath id="clip-path-2"><rect class="cls-1" x="-12.53" y="-164.62" width="805.87" height="1063.02"/></clipPath><linearGradient id="Безымянный_градиент_7" x1="-238.84" y1="11.75" x2="-238.66" y2="11.75" gradientTransform="matrix(31.13, -3.85, -6.55, -52.98, 7660.12, 99.63)" gradientUnits="userSpaceOnUse"><stop offset="0" stop-color="#37ae6c"/><stop offset="1" stop-color="#09a650"/></linearGradient><clipPath id="clip-path-3"><path class="cls-1" d="M97-80.95l1.35-1.13,1.37-1.2,1.45-1.09,1.91-1,1.86-.86,1.94-.59s-.49-.82-.91-.75-1.78.45-1.78.45a6.16,6.16,0,0,1-3.31.5c-1.48-.32.46-1.4.46-1.4l.39-.07.9-.77,1,.25.56.25.15,0h0A3.22,3.22,0,0,0,103-89.6a3.25,3.25,0,0,0-2.58.36,3.15,3.15,0,0,1-1.76.33s-.88-.22-.49-.43a17.57,17.57,0,0,1,2-.68v-.09a2.74,2.74,0,0,0-2.08-.68,2.43,2.43,0,0,0-1.24.34L96-90l-.58.35s-.88.65-1.33.46-.16-.82-.16-.82a1.58,1.58,0,0,1,.67-.63l-.27-.09-.08,0-.73.06-.6.14A1.73,1.73,0,0,0,92-90a5.74,5.74,0,0,0-1,1.85,4.84,4.84,0,0,1-1.89,2.41c-.85.35-1.22-.12-1.22-.12a1.46,1.46,0,0,1-.19-.37c-.09-.26-.36-.64-.69-.66a1.89,1.89,0,0,0-1.92.82l-.77,1a2.62,2.62,0,0,1,2.11,1.59s.66,2.4.77,2.68a3.89,3.89,0,0,0,1.09,1.76,5.3,5.3,0,0,0,3.84.7c1.3-.26,2.56-.85,4.82-2.56"/></clipPath><linearGradient id="Безымянный_градиент_8" x1="-247.92" y1="20.14" x2="-247.74" y2="20.14" gradientTransform="matrix(-18.53, -85, -165.27, 36.04, -982.1, -21917.1)" gradientUnits="userSpaceOnUse"><stop offset="0" stop-color="#f9b111"/><stop offset="0.49" stop-color="#eaa70d"/><stop offset="1" stop-color="#715012"/></linearGradient><clipPath id="clip-path-5"><path class="cls-1" d="M97.06-88.82a1.48,1.48,0,0,0,1.23.3c.64-.19.29-.87.15-1A4,4,0,0,0,95-90.83a11.07,11.07,0,0,0-1.45.17,3,3,0,0,1,2.22.62,9.51,9.51,0,0,1,1.25,1.22"/></clipPath><linearGradient id="Безымянный_градиент_12" x1="-253.14" y1="23.19" x2="-252.96" y2="23.19" gradientTransform="matrix(-25.25, -22.19, -45.2, 51.43, -5341.93, -6784.41)" gradientUnits="userSpaceOnUse"><stop offset="0" stop-color="#fbcb0c"/><stop offset="1" stop-color="#715012"/></linearGradient><clipPath id="clip-path-7"><path class="cls-1" d="M98.62-90.77a9.39,9.39,0,0,1,2,.36,3.41,3.41,0,0,1,2.12,1.5c.29.36.53,1.15-.13,1.21s-1.15-.84-1.15-.84l-.25-.41a3.41,3.41,0,0,0-2.59-1.82Z"/></clipPath><linearGradient id="Безымянный_градиент_12-2" x1="-252.51" y1="23.42" x2="-252.33" y2="23.42" gradientTransform="matrix(-25.75, -22.63, -44.94, 51.14, -5445.37, -6884.02)" xlink:href="#Безымянный_градиент_12"/><clipPath id="clip-path-9"><path class="cls-1" d="M104.63-87.76s.35.81.85.8.26-.56,0-1a2.85,2.85,0,0,0-1-1c-.42-.26-1.27-.65-1.27-.65l-.26-.11a3.14,3.14,0,0,1,1,.79c.33.48.69,1.09.69,1.09"/></clipPath><linearGradient id="Безымянный_градиент_12-3" x1="-254.13" y1="23.68" x2="-253.95" y2="23.68" gradientTransform="matrix(-18.62, -16.37, -39.66, 45.13, -3787.79, -5199.03)" xlink:href="#Безымянный_градиент_12"/><clipPath id="clip-path-11"><path class="cls-1" d="M81-68.5a14.65,14.65,0,0,0,2.67,4.66c2,2.51,2.7,2.58,2.7,2.58a3.46,3.46,0,0,0,.74.71,14.64,14.64,0,0,0,2,1.13,8.09,8.09,0,0,0,3,1l-.13-1.11-5.59-5.18L83.42-66.4,81.86-68Z"/></clipPath><linearGradient id="Безымянный_градиент_13" x1="-251.11" y1="28.2" x2="-250.93" y2="28.2" gradientTransform="matrix(-38.77, 42.46, 89.47, 81.69, -11791.82, 8641.83)" gradientUnits="userSpaceOnUse"><stop offset="0" stop-color="#504d4d"/><stop offset="1" stop-color="#e8e6e7"/></linearGradient><clipPath id="clip-path-13"><path class="cls-1" d="M82.07-71.86l1.14-1.59s.37-1.37,1.15-.91,1.2,2-.44,4.37c0,0-1.06,1.1-.56,2.18s.89,1.73,2,1.43a9.68,9.68,0,0,0,2.89-1.09l4-2.92,2.46-2s.8-.75,1.49-.21-.35,1.52-.63,1.8a62.08,62.08,0,0,1-5.28,4.62l-.83.7a.61.61,0,0,0-.07.79.64.64,0,0,0,.84,0,57.13,57.13,0,0,0,5.41-3.88c1.15-1.14,2.21-2,2.21-2s.75-.77,1.4-.26-.13,1.24-.23,1.35L96.73-67s-3.07,2.82-3.43,3-.73,1.57.44,1a20.23,20.23,0,0,0,3.6-2.58c.48-.5,2.35-2.35,2.35-2.35a.87.87,0,0,1,1.11-.24c.63.37-.17,1.43-.17,1.43l-1.85,2.12-1.7,1.62s-1.92,1.56-2.75,2,.31.81.48.8H95a3.22,3.22,0,0,0,.69-.25c.35-.18,2.08-1.35,2.08-1.35l1.79-1.55s.63-.93,1.32-.65.08,1.14-.11,1.4-1.17,1.35-1.17,1.35L95.8-58.88a3.87,3.87,0,0,1-2.88.65A6.1,6.1,0,0,1,89.63-60l-2.86-3.2A12.26,12.26,0,0,0,85-64.61a11.38,11.38,0,0,1-2.68-1.93,9.61,9.61,0,0,1-1.28-1.76s-.46-1.08-.17-1.66,1.18-1.9,1.18-1.9"/></clipPath><linearGradient id="Безымянный_градиент_14" x1="-245.46" y1="19.08" x2="-245.28" y2="19.08" gradientTransform="matrix(135.4, -81.11, -90.86, -151.66, 35322.32, -16626.35)" gradientUnits="userSpaceOnUse"><stop offset="0" stop-color="#312d2e"/><stop offset="1" stop-color="#e8e6e7"/></linearGradient><clipPath id="clip-path-15"><path class="cls-1" d="M87.84-88.42a12.75,12.75,0,0,0-1.77,1.23,17.63,17.63,0,0,0-3,3.14A15.87,15.87,0,0,0,80-75.6a13.09,13.09,0,0,0,.1,3.29,4.83,4.83,0,0,0,1,2.58,18.24,18.24,0,0,0,7.06,3s.79.08.86-.63-1-1.15-1-1.15a26.77,26.77,0,0,1-2.86-1.14,9.49,9.49,0,0,1-2-1.27C81.82-72,81.77-72.79,82-73.14s.66-.16,1.07,0l2.4.92L91-70.67s2.23.76,2.59-.2-.66-1.36-1-1.5-4.48-1.49-6.87-2.5-2.6-1-2.46-2c0,0,.12-.65,1.8-.3s5.48,1.09,5.48,1.09l5.07,1s1.38.33,1.6-.47-.65-1.28-1.26-1.5-6-1.75-6-1.75l-3.28-.85s-3-.34-2-1.61c0,0,.28-.43,2.47-.25a56.21,56.21,0,0,1,7.26,1.28c1.19.35,2.57.58,2.8-.28s-.62-1.26-1.9-1.64A36.59,36.59,0,0,0,89-83.39c-2.33-.25-3.74-.28-3.74-.28s-1,0-1.08-.27a1.51,1.51,0,0,1,.22-1A7.53,7.53,0,0,1,86-86.83Z"/></clipPath><radialGradient id="Безымянный_градиент_15" cx="-244.06" cy="22.7" r="0.18" gradientTransform="matrix(79.21, 0, 0, -79.21, 19423.71, 1714.82)" gradientUnits="userSpaceOnUse"><stop offset="0" stop-color="#9fcfa8"/><stop offset="1" stop-color="#09a650"/></radialGradient><clipPath id="clip-path-17"><path class="cls-1" d="M91.73-64.16s-.06-.92.58-1.1,1,.29,1.13.88.68,2.22.68,2.22a7,7,0,0,0,1.92,3c1.19.82,1.76.23,1.63-.52s-1-4.44-1-4.44l-.78-4.21s-.49-1.72.63-2c0,0,.83-.34,1.22.89l.75,2.55.91,3.07.51,1.77s.35,2.05,1.23,1.92.66-1.45.65-2.22-.4-4.61-.4-4.61L101-69.88l-.36-2.48s-.33-1.19.72-1.38,1.41,1.37,1.41,1.37l.8,3.47.61,3.3s.29,2.24.29,2.52.17,1.66.73,1.63,1-1.16,1-1.16a11.4,11.4,0,0,0,.38-2.38,35.51,35.51,0,0,0-.13-4.86c-.26-2.39-.84-2.82,0-3.12s1.27.94,1.27.94a17.8,17.8,0,0,1,.88,3.3,19.31,19.31,0,0,1,.09,4.22,5.09,5.09,0,0,1-2.63,3.85,16.94,16.94,0,0,1-5.45,2.5,18.33,18.33,0,0,1-6.61.3.65.65,0,0,1-.32-.23c-.16-.29-2-4.22-2-6.07"/></clipPath><linearGradient id="Безымянный_градиент_16" x1="-247.33" y1="20.45" x2="-247.15" y2="20.45" gradientTransform="matrix(-32.99, -86.29, -146.3, 55.94, -4956.36, -22588.39)" gradientUnits="userSpaceOnUse"><stop offset="0" stop-color="#173559"/><stop offset="0.08" stop-color="#0d4271"/><stop offset="0.56" stop-color="#529ed7"/><stop offset="1" stop-color="#2186c8"/></linearGradient><clipPath id="clip-path-19"><path class="cls-1" d="M112.61-69.93c-1.26.4-1.41,1.38-1.34,2.44a3.26,3.26,0,0,1-.4,1.69,18.76,18.76,0,0,0,.88-1.68,19.58,19.58,0,0,0,.86-2.45"/></clipPath><linearGradient id="Безымянный_градиент_18" x1="-230" y1="14.61" x2="-229.82" y2="14.61" gradientTransform="matrix(9.64, 0, 0, -49.8, 2328.51, 1094.53)" gradientUnits="userSpaceOnUse"><stop offset="0" stop-color="#143250"/><stop offset="1" stop-color="#0d6dab"/></linearGradient><clipPath id="clip-path-21"><polygon class="cls-1" points="110.87 -65.8 110.88 -65.81 110.87 -65.8 110.87 -65.8"/></clipPath><linearGradient id="Безымянный_градиент_18-2" x1="378.5" y1="8.25" x2="12087.36" y2="8.25" gradientTransform="matrix(0.07, 0, 0, -26.91, -38.58, 588.91)" xlink:href="#Безымянный_градиент_18"/><clipPath id="clip-path-23"><rect class="cls-1" x="-1.01" y="-1.47" width="58.72" height="59.63"/></clipPath></defs><g class="cls-2"><g class="cls-3"><path class="cls-4" d="M-12.53-164.62H793.34v1063H-12.53Z"/></g></g><g class="cls-5"><g class="cls-3"><path class="cls-6" d="M-12.53-164.62H793.34v1063H-12.53Z"/></g></g><g class="cls-7"><g class="cls-3"><path class="cls-8" d="M-12.53-164.62H793.34v1063H-12.53Z"/></g></g><g class="cls-9"><g class="cls-3"><path class="cls-10" d="M-12.53-164.62H793.34v1063H-12.53Z"/></g></g><g class="cls-11"><g class="cls-3"><path class="cls-12" d="M-12.53-164.62H793.34v1063H-12.53Z"/></g></g><g class="cls-13"><g class="cls-3"><path class="cls-14" d="M-12.53-164.62H793.34v1063H-12.53Z"/></g></g><g class="cls-15"><g class="cls-3"><path class="cls-16" d="M-12.53-164.62H793.34v1063H-12.53Z"/></g></g><g class="cls-17"><g class="cls-3"><path class="cls-18" d="M-12.53-164.62H793.34v1063H-12.53Z"/></g></g><g class="cls-19"><g class="cls-3"><path class="cls-20" d="M-12.53-164.62H793.34v1063H-12.53Z"/></g></g><g class="cls-21"><g class="cls-3"><path class="cls-22" d="M-12.53-164.62H793.34v1063H-12.53Z"/></g></g><g class="cls-23"><g class="cls-3"><path class="cls-24" d="M-12.53-164.62H793.34v1063H-12.53Z"/></g></g><g class="cls-25"><path class="cls-26" d="M27.31,9.16h4.11a26.72,26.72,0,0,1,8.44,2.07,1.89,1.89,0,0,0,1.57.19,27.87,27.87,0,0,1,10.22-.27,69.78,69.78,0,0,0,11.92-.09c2.69-.22,5.38-.14,8.07-.14,2.15,0,4.29.21,6.44.32a75.09,75.09,0,0,0,10.81-.47c.41,0,.92-.18,1.28.09a6.11,6.11,0,0,1,1.41,1.75v.45a22.64,22.64,0,0,1-3.17,1.73c.3.7.62,1.4.88,2.13a9.49,9.49,0,0,1-3.38,1.43c.09.71.59,1.6-.08,2.17-1,.79-2.38.63-3.45,1.24-.34.69.11,1.66-.45,2.28-1.14.8-2.65.4-3.89.92a.46.46,0,0,0-.23.31A10.6,10.6,0,0,1,77.29,27a1.49,1.49,0,0,1-1.1.64c-1.28.09-2.56,0-3.83.09-.45.58-.45,1.42-1,2-1.57.59-3.29.15-4.92.37-.29.5-.33,1.11-.64,1.61s-1.1.42-1.64.49a16.36,16.36,0,0,1-3.55-.39c-.31.57-.64,1.2-1.31,1.4-1.29.27-2.52-.25-3.76-.52a2.37,2.37,0,0,1-.87,1.17,3.73,3.73,0,0,1-2.67-.33,20,20,0,0,1-10.82,12c-.59.35-1.45.47-1.73,1.2-.19.34-.35.7-.52,1a19,19,0,0,0-2.09-.7c-.31.51-.63,1-1,1.52-.62-.31-1.23-.64-1.84-1l-1.27,1.47c-.54-.41-1.08-.82-1.63-1.22-.49.45-1,.92-1.45,1.36h-.19a15.82,15.82,0,0,0-1.3-1.29l-1.6,1.13-1.25-1.44c-.61.32-1.22.64-1.84.95-.34-.52-.68-1-1-1.54a17.07,17.07,0,0,0-2,.7c-.35-.52-.57-1.24-1.23-1.43A21.54,21.54,0,0,1,8,36.82a19.45,19.45,0,0,1-1.56-3.91,6.65,6.65,0,0,1-3.42.6c-.66-.15-.8-.92-1.11-1.43a30.51,30.51,0,0,1-4.36.62,1.3,1.3,0,0,1-.87-.39c-.34-.41-.39-1-.74-1.41-1.57-.2-3.2.21-4.73-.25-.77-.29-.65-1.29-1.16-1.78-2-.66-4.32-.17-6.25-1.17-.43-.45-.37-1.17-.54-1.74a44,44,0,0,1-4.55-1,.88.88,0,0,1-.29-.18c-.14-.65-.16-1.32-.24-2,0-.15-.15-.2-.26-.25-1.12-.46-2.35-.62-3.43-1.19a.67.67,0,0,1-.42-.73,7.68,7.68,0,0,1,.42-1.47c-1.32-.72-2.74-1.26-4.11-1.89a12.7,12.7,0,0,1,.68-2.43A12.68,12.68,0,0,1-32.16,13v-.35a6.13,6.13,0,0,1,1.59-1.88,6.19,6.19,0,0,1,1.36,0,65.48,65.48,0,0,0,11,.45A111.39,111.39,0,0,1-6.07,11c4.42.22,8.86.69,13.29.23,3.41-.36,6.9-.66,10.27.13.75.29,1.46-.15,2.14-.41a27.73,27.73,0,0,1,7.68-1.75m-7.8,2.78a6.68,6.68,0,0,0,1.4.61C22,12.38,23,12,24,11.78a28.16,28.16,0,0,1,5-.64,26.41,26.41,0,0,1,8.85,1.49c.66.28,1.3-.23,1.83-.57A22.79,22.79,0,0,0,35,10.59,27.47,27.47,0,0,0,30,10a28.94,28.94,0,0,0-10.49,2m-49.85-.46a3.43,3.43,0,0,0-1.38,1.24,15.68,15.68,0,0,0,1.63.7c2,.78,4.24.56,6.36.69,5,.08,10,.24,14.93.42,2.76.11,5.54.09,8.3.26l.12-.43c-1.57-.25-3.14-.53-4.72-.68-3.77-.32-7.55-.38-11.33-.44a1.56,1.56,0,0,1-1.16-.4,27.64,27.64,0,0,1,3-.16c3.64.06,7.28.2,10.9.54a61.31,61.31,0,0,0,8.55.86c2.9.18,5.8-.21,8.7,0a5.87,5.87,0,0,1,2.41.64,1.94,1.94,0,0,1,.57,1.69c-.19,1.78-1.78,3.06-2,4.84a1.93,1.93,0,0,0,.77,1.51,10.38,10.38,0,0,0,1.13-1.26,2,2,0,0,1,0-2.51c.72-1.27,2-2,2.94-3.12a4.42,4.42,0,0,0,1.23-2.06c-.12-.59-.75-.86-1.24-1.07a20.5,20.5,0,0,0-8.2-1c-2.71.13-5.41.34-8.12.43-3.54-.1-7.07-.5-10.61-.61s-6.93.23-10.4.26a65.54,65.54,0,0,1-8.41-.28,19.52,19.52,0,0,0-4-.14m108.61.45c-2,0-3.9-.13-5.85-.24a99,99,0,0,0-13,.43,31.34,31.34,0,0,1-5.48,0c-3.69-.16-7.41-.6-11.1-.09A9.35,9.35,0,0,0,39,13.33c-.38.29-.24.82,0,1.17a14.09,14.09,0,0,0,2.82,3.15,5.13,5.13,0,0,1,1.62,2.57c.09.5-.25.88-.46,1.3a11.65,11.65,0,0,0,1,1.29,1.75,1.75,0,0,0,.83-1c.17-1.33-.74-2.4-1.27-3.52-.45-.88-1-2-.49-2.94.22-.61.89-.8,1.45-1a25.89,25.89,0,0,1,6-.23c1.61.11,3.22,0,4.84-.05A70.48,70.48,0,0,0,63,13.22c1.91-.25,3.83-.28,5.75-.41a61.69,61.69,0,0,1,8.27.06,2,2,0,0,1-1.27.37c-3.46,0-6.91.13-10.36.39-1.88.12-3.73.47-5.59.73.08.27.15.53.24.8,0-.14,0-.28,0-.42,8.5-.22,17-.57,25.51-.71a11.82,11.82,0,0,0,5.63-1.3,2.36,2.36,0,0,0-2.21-1.32,105.57,105.57,0,0,1-10.67.52M21.42,13.26A3.18,3.18,0,0,1,21,15.69c-1.16,1.61-2.88,2.73-4,4.36a2.53,2.53,0,0,0-.31.76,21.85,21.85,0,0,1,3.29-2.46,19.83,19.83,0,0,1,16.28-1.44,19.49,19.49,0,0,1,6.54,3.89A3.78,3.78,0,0,0,42,19.4c-1.23-1.47-2.92-2.55-3.86-4.26A3.36,3.36,0,0,1,38,13.53a25.24,25.24,0,0,0-16.55-.27m32.13,1.51c.16.34.39.69.8.72,1.77.23,3.7.47,5.32-.47-.07-.22-.15-.45-.23-.67-2,.23-3.93.21-5.89.42M-.11,14.43l-.12.6A4.7,4.7,0,0,0,2,15.69a24,24,0,0,0,3.17-.25c.35,0,.48-.42.63-.68-2-.2-4-.3-5.95-.33m-28.46.29a3.69,3.69,0,0,0-.74,1.93,4,4,0,0,0,1.74.71,19,19,0,0,0,5.47.6c2.92.05,5.84-.2,8.76-.26,4.63-.14,9.25-.45,13.89-.57-.05.12-.09.25-.13.37l.45-.22.1-1a5.15,5.15,0,0,0-2.73-1.07c-5-.13-9.93-.16-14.9-.27-4,0-7.94-.24-11.91-.24m34.68,0a8.1,8.1,0,0,0-.3,1,3.84,3.84,0,0,0,.84.56A6.07,6.07,0,0,0,8,16c-.52.53-1.45.84-1.41,1.74a3,3,0,0,0,.89.14c.75.05,1.34-.47,2-.74-.6.73-1.71,1.09-1.8,2.15a2.33,2.33,0,0,0,1.68.19,8.37,8.37,0,0,0,2-1.29c-.54.76-1.28,1.34-1.85,2.07a.58.58,0,0,0,.48.88c1.06.08,1.78-.82,2.49-1.45-.41.88-1.21,1.63-1.14,2.68l1,.06.82-.73c-.08.43-.33.93-.12,1.35.45.47,1.17.23,1.74.21A2.82,2.82,0,0,1,14.22,21a10,10,0,0,1,1.21-2.39,3.31,3.31,0,0,0,.75-2.4,2.28,2.28,0,0,0-1.34-.92c-2.06-.62-4.23-.45-6.34-.54-.8,0-1.59,0-2.39-.07m38.45.6c-.61.23-1.46.58-1.41,1.35.25,1.78,1.91,3,2.1,4.81,0,.69-.47,1.22-.71,1.83.55-.06,1.28.14,1.71-.34.27-.38,0-.87,0-1.29.23.23.46.46.7.68l1.08,0c.07-1-.65-1.77-1.12-2.58A7.17,7.17,0,0,0,48.58,21a2.47,2.47,0,0,0,1.32-.05c-.09-.35-.06-.76-.33-1A21,21,0,0,1,48,18.16c.87.66,1.81,1.61,3,1.31a.57.57,0,0,0,.55-.72,20.41,20.41,0,0,0-1.71-1.64c.45.21.88.45,1.34.63a2.63,2.63,0,0,0,1.52,0c0-.91-.89-1.27-1.46-1.77.62.13,1.48.66,2,0,.48-.3.12-.82,0-1.22-2.92.23-5.9-.14-8.76.6M61,15.24a4.19,4.19,0,0,0-2.5,1c3.6.2,7.2.35,10.81.52,4.27.14,8.53.41,12.81.42a19.69,19.69,0,0,0,6.88-.6,12.79,12.79,0,0,0-.92-1.76c-9,0-18,.37-27.08.41m-56,.7c-1.09.16-2.2.23-3.28.44-.49.11-.62.72-.54,1.15a2,2,0,0,0,1,.59A20.39,20.39,0,0,0,5,17.63a3.87,3.87,0,0,0,1.41-.48.73.73,0,0,0-.26-.6c-.34-.27-.69-.69-1.17-.61m49,0c-.43.27-1,.62-1,1.18a3,3,0,0,0,1.34.46c.83.16,1.66.37,2.5.5.58.12,1-.29,1.49-.55-.14-.44-.13-1.1-.69-1.21A19.93,19.93,0,0,0,54,16m-25.61.76A17.81,17.81,0,0,0,17.71,21a10.88,10.88,0,0,0-3.44,5.45,9.55,9.55,0,0,0,1.16,7,13.34,13.34,0,0,0,4.48,4.42,18.46,18.46,0,0,0,11.18,2.65,17.11,17.11,0,0,0,11.63-5.4,9.8,9.8,0,0,0,2.62-6.56,10.18,10.18,0,0,0-3.16-7.1,17.92,17.92,0,0,0-13.8-4.78m30,.07a7.61,7.61,0,0,1,.08,1.65c4.48.61,9,.88,13.48,1.33,2.93.2,5.84.62,8.77.81,1.73-.05,3.67.19,5.23-.77a3.51,3.51,0,0,0-.45-1.46,4.21,4.21,0,0,0-1.46-.22c-7.43-.43-14.86-.7-22.28-1.16-1.13-.05-2.25-.2-3.37-.18M-3.49,17.91c-7.17.53-14.37.68-21.55,1a8.84,8.84,0,0,0-.74,1.7,12.53,12.53,0,0,0,6,.79c7.24-.63,14.45-1.57,21.68-2.24A3.87,3.87,0,0,1-.69,20c-6.57.79-13.13,1.63-19.7,2.31-.38.07-1,0-1.11.54A.94.94,0,0,0-21,24.2a13.7,13.7,0,0,0,6.3.36c3.22-.53,6.41-1.23,9.61-1.93,2.65-.51,5.29-1.08,8-1.51a7.17,7.17,0,0,1-1.19-.78c.11-.4.23-.8.37-1.2A5.17,5.17,0,0,0,.19,17.77c-1.23-.06-2.45.08-3.68.14m7.39.53a5,5,0,0,0-1.53.62A3.11,3.11,0,0,0,2,20.11a3.69,3.69,0,0,0,2.44.44c.66-.22,1.29-.52,1.94-.78s1.18-.42,1.23-1.1a8.13,8.13,0,0,0-1.25-.54,6,6,0,0,0-2.47.31M53,18.12a1.47,1.47,0,0,0-1.26,1.06c1.07.51,2.15,1,3.26,1.4a3.71,3.71,0,0,0,2.38-.48,7.18,7.18,0,0,0-.33-1c-.24-.29-.66-.34-1-.47A7.18,7.18,0,0,0,53,18.12m4.45.88c.05.52.1,1.05.12,1.58,6.1.89,12.18,2,18.27,2.92a21.44,21.44,0,0,0,5.77-.13c.82-.2.25-1.26.18-1.81-2.8-.42-5.62-.63-8.42-1Q67.54,20,61.67,19.31A23.65,23.65,0,0,0,57.48,19M6.73,20.09c-.9.4-1.78.83-2.65,1.29l.21,1a3.37,3.37,0,0,0,2.16.27A12.88,12.88,0,0,0,9.1,21.2.57.57,0,0,0,9,20.27a2.4,2.4,0,0,0-2.29-.18m43.73.15c-.33.14-.36.53-.48.81a27.76,27.76,0,0,0,2.81,1.59,2.41,2.41,0,0,0,1.91-.13,1,1,0,0,0,.58-1c-.08-.24-.36-.3-.55-.43-.83-.41-1.67-.82-2.54-1.16a2.68,2.68,0,0,0-1.73.33m5.15,1.22a3.21,3.21,0,0,0-.22.79,2.23,2.23,0,0,1,.77,0c4.19,1.17,8.43,2.16,12.63,3.3a19.87,19.87,0,0,0,7.83,1c.83-.12.9-1.13,1-1.77-1.07-.3-2.17-.49-3.25-.71Q68,22.86,61.54,21.71a23.83,23.83,0,0,0-4.76-.51,2.13,2.13,0,0,0-1.17.26M-2.71,22.78c-4.6.92-9.18,2-13.77,3,0,.59.2,1.29.85,1.47a14.61,14.61,0,0,0,4.89.34,36.91,36.91,0,0,0,5.25-1.39c3.29-.94,6.55-2,9.82-3a11.54,11.54,0,0,1-.5-1.74c-2.22.25-4.36.86-6.54,1.3m11.87-.93c-.92.52-1.78,1.15-2.67,1.71.1.3.08.71.37.91a6.31,6.31,0,0,0,1.23.08c1.23-.06,2.06-1.08,2.87-1.88.36-.25.11-.79-.24-.87a4.09,4.09,0,0,0-1.56.05M48.7,21.8a.57.57,0,0,0-.24,1,11.71,11.71,0,0,0,2,1.67,4.26,4.26,0,0,0,2,0c.3-.16.25-.59.38-.86-.77-.49-1.54-1-2.31-1.52-.52-.47-1.28-.3-1.91-.27M54,23.59c2.51,1,5,2.09,7.45,3.14,1.36.59,2.69,1.26,4.08,1.79a10.53,10.53,0,0,0,5.67.37,2.62,2.62,0,0,0,.84-1.35,19.27,19.27,0,0,0-2.19-.71L58,23.35a18.69,18.69,0,0,0-2.44-.55,12,12,0,0,0-1.56.79m-42.78-.43a12.1,12.1,0,0,0-2,1.85c.2.34.31.77.64,1a1.4,1.4,0,0,0,1.55-.23,7.72,7.72,0,0,0,1.75-2.34,2,2,0,0,0-1.94-.29m35,.59A8.21,8.21,0,0,0,48,25.8c.43.44,1.1.23,1.64.34.12-.4.48-.77.4-1.21a4.84,4.84,0,0,0-1.09-1.17c-.45-.37-.95-.88-1.61-.73-.41-.07-1.09.21-1,.72m-44.83.87c-2.37.83-4.79,1.54-7.14,2.43-1.31.53-2.71.82-4,1.46a4,4,0,0,0,.52,1.2A3,3,0,0,0-7.73,30c1.66,0,3.46.12,5-.68C-.52,28.21,1.66,27,3.9,26a22.29,22.29,0,0,1,2.62-1.22c-.19-.39-.26-1-.79-1.09-1.49-.12-2.86.58-4.26,1m11.71-.52A10.87,10.87,0,0,0,12,25.88a.82.82,0,0,0-.11.78c.21.52.83.64,1.32.76a15.16,15.16,0,0,1,1.25-3.71,3.39,3.39,0,0,0-1.3.39m31.65-.4a13.52,13.52,0,0,1,1.33,3.68,1.37,1.37,0,0,0,1.41-1,8.77,8.77,0,0,0-1.31-2.2c-.36-.39-.95-.36-1.43-.47m8.39.16c-.22.53-.42,1.13-1,1.35,2.73,1.44,5.16,3.36,7.77,5a7.28,7.28,0,0,0,3.11.83,5.74,5.74,0,0,0,2.64-.11,2.24,2.24,0,0,0,.3-1.1Q61,27.34,55.84,25a11.09,11.09,0,0,0-2.62-1.09M5.46,25.77c-3,1.64-6.12,3.16-9.14,4.81a1.07,1.07,0,0,0,.85,1.14,10.72,10.72,0,0,0,3.93-.54,27.86,27.86,0,0,0,4.38-2.85,20.69,20.69,0,0,0,3.58-2.94,4.37,4.37,0,0,0-3.6.38m45.1-.46c-.44.43-.59,1.09-1.06,1.51,2.23,1.35,4,3.3,6.21,4.7a7.07,7.07,0,0,0,2.54.81,3,3,0,0,0,2.07-.4,1.41,1.41,0,0,0-.6-.79C57.4,29.42,55.1,27.68,52.78,26a2.72,2.72,0,0,0-2.22-.64M4.43,29.82A10.83,10.83,0,0,0,2.13,32a3.46,3.46,0,0,0,4.19-.19c1.94-1.43,3.42-3.38,5.37-4.79-.89-.25-2,.07-2.61-.85C7.49,27.33,6,28.61,4.43,29.82m43.6-3q-.47.51-.9,1.05a50.68,50.68,0,0,1,4,3.5A6.61,6.61,0,0,0,53.65,33a2.09,2.09,0,0,0,1.55-.17c-.05-.77-.72-1.16-1.22-1.63-1.47-1.23-2.85-2.57-4.31-3.8a3.09,3.09,0,0,0-1.64-.6m-36.45.91c-1.56,1.37-2.91,3-4.34,4.46a1.52,1.52,0,0,0,.71.49,5.25,5.25,0,0,0,2.54-.31c1.21-.53,1.89-1.72,2.79-2.62,0-.52-.07-1-.13-1.55-.53-.14-1-.33-1.57-.47m34.7.38c-.08.84-.16,1.68-.25,2.52a15.6,15.6,0,0,0,2.7,2.24,4,4,0,0,0,1.6.25c.46.16.71-.25.93-.54-1-1.15-2.2-2.18-3.21-3.35-.48-.52-1-1.13-1.77-1.12M12.17,32.46c.35.66,1.29.59,1.91.71a27.87,27.87,0,0,0-.83-2.69c-.48.56-1.25,1.15-1.08,2M46,31.25c-.27.76-.56,1.52-.85,2.28.6-.07,1.38-.07,1.73-.68.18-.66-.43-1.2-.88-1.6M9.55,33.6A18.71,18.71,0,0,0,20.3,43.89,11.85,11.85,0,0,0,22,40.57,37.81,37.81,0,0,1,16.92,37a17.62,17.62,0,0,1-2.52-2.86,4.93,4.93,0,0,0-1.27-.32,3.65,3.65,0,0,1-1.64-.91c-.64.24-1.29.47-1.94.69m38-.37a5,5,0,0,1-.94.73c-.57.26-1.22.16-1.79.39C44.16,35.09,43.7,36,43,36.7a20.26,20.26,0,0,1-3.54,2.71,7.79,7.79,0,0,0-1.78,1.16c-.22.24,0,.58.05.85.36.75.8,1.46,1.21,2.18a16.19,16.19,0,0,0,5.23-3.09A16.37,16.37,0,0,0,49,33.8c-.48-.18-1-.38-1.43-.57M8,33.59a11.25,11.25,0,0,0,.78,1.86,19.12,19.12,0,0,0,3.11,4.62A23.6,23.6,0,0,0,16,43.46a23.37,23.37,0,0,0,3.6,1.82,7.34,7.34,0,0,0,.46-1,30.46,30.46,0,0,1-3.76-2A21.83,21.83,0,0,1,13,39.58a17.12,17.12,0,0,1-3.92-6L8,33.59m41.38.3a18,18,0,0,1-5.82,7.5A19.47,19.47,0,0,1,39.08,44c.16.37.34.73.52,1.09a18.2,18.2,0,0,0,6.55-4.23A16.22,16.22,0,0,0,50.52,34l-1.14-.1M37.15,39.57a20.38,20.38,0,0,1-15,0,21.52,21.52,0,0,1-3.69-2c1.15,1.15,2.83,1.52,4,2.69.29.3.1.76,0,1.1-.56,1.25-1.37,2.37-1.95,3.62a2,2,0,0,0,0,1.72c.11.18.29.37.52.29a2.46,2.46,0,0,0,1.6-1.23c.76-1.33.93-2.89,1.65-4.24l.35.14a22.88,22.88,0,0,1-1.24,3.48,2.36,2.36,0,0,0,0,2.18.59.59,0,0,0,.72.34,2.41,2.41,0,0,0,1.41-1.53c.38-1.34.37-2.75.8-4.09h.34a11.1,11.1,0,0,1-.55,3,4.44,4.44,0,0,0-.21,2,4.53,4.53,0,0,0,.9,1.11,7.43,7.43,0,0,0,1-.73,2.47,2.47,0,0,0,.54-1.52,36,36,0,0,1,.17-3.6h.37c.08,1.41-.45,2.77-.37,4.17a2.27,2.27,0,0,0,1.14,1.8A2,2,0,0,0,31,47c.2-1.61-.61-3.18-.24-4.78a1.86,1.86,0,0,1,.29.44c.25,1.34,0,2.74.34,4.07.17.7.87,1.06,1.41,1.45l.55-.69c.54-.59.24-1.46.12-2.15-.22-1.11-.78-2.23-.46-3.38.8,1.21.5,2.79,1,4.11.17.89,1.05,1.29,1.76,1.69a4.71,4.71,0,0,0,.7-1.53c-.2-1.6-1.4-2.94-1.31-4.6,1,1.11.94,2.67,1.62,3.92a3,3,0,0,0,2.08,1.42,2.56,2.56,0,0,0,.25-1.89,29.49,29.49,0,0,0-1.56-2.94c-.22-.42-.61-.78-.67-1.27.26-.82,1.13-1.12,1.75-1.6a14.71,14.71,0,0,0,3.85-3.11A15.16,15.16,0,0,1,37.15,39.57Z"/><path class="cls-26" d="M28,16.94a17.72,17.72,0,0,1,13.28,4A10.74,10.74,0,0,1,45,27.48a10.15,10.15,0,0,1-3.28,8.36,15.69,15.69,0,0,1-6.41,3.75,18.69,18.69,0,0,1-15.88-2.27c-2.77-2-5-5-5.08-8.51a9.22,9.22,0,0,1,2.5-6.61c2.75-3.25,7-4.87,11.14-5.26m-1.59,3c-2.26.49-4.62,1.36-6,3.3.38.48.85.88,1.2,1.39.05,2.77.1,5.56,0,8.33-.33.5-.79.9-1.15,1.38,2.09,2.08,5.08,2.88,7.92,3.23a17.42,17.42,0,0,0,6.92-.71,9.23,9.23,0,0,0,2.18-1.24,4.16,4.16,0,0,0,1.51-3.39c0-1.81-1.44-3.11-2.81-4a1.49,1.49,0,0,1,0-.21,5,5,0,0,0,2.28-2.54,3.74,3.74,0,0,0-.45-2.85,6.44,6.44,0,0,0-3.76-2.49A16.6,16.6,0,0,0,26.4,19.93Z"/><path class="cls-26" d="M28.67,20.84a5.7,5.7,0,0,1,3.77.54,3.3,3.3,0,0,1,1.19,3,3.18,3.18,0,0,1-1.94,3.16A6.49,6.49,0,0,1,28,27.52,2.89,2.89,0,0,1,26.06,25a3.91,3.91,0,0,1,.75-3.31A3.18,3.18,0,0,1,28.67,20.84Z"/><path class="cls-26" d="M29,28.85c1.67-.23,3.84,0,4.74,1.62a5.06,5.06,0,0,1-.28,4.69c-.82,1.19-2.38,1.39-3.71,1.36A4.94,4.94,0,0,1,27,35.61c-1.15-1-1.2-2.71-1.05-4.1A3.42,3.42,0,0,1,29,28.85Z"/><path class="cls-27" d="M19.51,11.94A28.94,28.94,0,0,1,30,10a27.47,27.47,0,0,1,5,.63,22.79,22.79,0,0,1,4.69,1.47c-.53.34-1.17.85-1.83.57A26.41,26.41,0,0,0,29,11.14a28.16,28.16,0,0,0-5,.64c-1.05.21-2.06.6-3.12.77A6.68,6.68,0,0,1,19.51,11.94Z"/><path class="cls-27" d="M-30.34,11.48a19.52,19.52,0,0,1,4,.14,65.54,65.54,0,0,0,8.41.28c3.47,0,6.93-.45,10.4-.26s7.07.51,10.61.61c2.71-.09,5.41-.3,8.12-.43a20.5,20.5,0,0,1,8.2,1c.49.21,1.12.48,1.24,1.07a4.42,4.42,0,0,1-1.23,2.06C18.54,17,17.23,17.76,16.51,19a2,2,0,0,0,0,2.51,10.38,10.38,0,0,1-1.13,1.26,1.93,1.93,0,0,1-.77-1.51c.2-1.78,1.79-3.06,2-4.84A1.94,1.94,0,0,0,16,14.76a5.87,5.87,0,0,0-2.41-.64c-2.9-.25-5.8.14-8.7,0a61.31,61.31,0,0,1-8.55-.86c-3.62-.34-7.26-.48-10.9-.54a27.64,27.64,0,0,0-3,.16,1.56,1.56,0,0,0,1.16.4c3.78.06,7.56.12,11.33.44,1.58.15,3.15.43,4.72.68l-.12.43c-2.76-.17-5.54-.15-8.3-.26-5-.18-9.95-.34-14.93-.42-2.12-.13-4.34.09-6.36-.69a15.68,15.68,0,0,1-1.63-.7A3.43,3.43,0,0,1-30.34,11.48Z"/><path class="cls-27" d="M78.27,11.93a105.57,105.57,0,0,0,10.67-.52,2.36,2.36,0,0,1,2.21,1.32A11.82,11.82,0,0,1,85.52,14c-8.51.14-17,.49-25.51.71,0,.14,0,.28,0,.42-.09-.27-.16-.53-.24-.8,1.86-.26,3.71-.61,5.59-.73,3.45-.26,6.9-.35,10.36-.39A2,2,0,0,0,77,12.87a61.69,61.69,0,0,0-8.27-.06c-1.92.13-3.84.16-5.75.41a70.48,70.48,0,0,1-7.67.82c-1.62,0-3.23.16-4.84.05a25.89,25.89,0,0,0-6,.23c-.56.19-1.23.38-1.45,1-.48,1,0,2.06.49,2.94.53,1.12,1.44,2.19,1.27,3.52a1.75,1.75,0,0,1-.83,1,11.65,11.65,0,0,1-1-1.29c.21-.42.55-.8.46-1.3a5.13,5.13,0,0,0-1.62-2.57,14.09,14.09,0,0,1-2.82-3.15c-.2-.35-.34-.88,0-1.17A9.35,9.35,0,0,1,42.84,12c3.69-.51,7.41-.07,11.1.09a31.34,31.34,0,0,0,5.48,0,99,99,0,0,1,13-.43C74.37,11.8,76.32,11.89,78.27,11.93Z"/><path class="cls-27" d="M21.42,13.26A25.24,25.24,0,0,1,38,13.53a3.36,3.36,0,0,0,.12,1.61C39,16.85,40.72,17.93,42,19.4a3.78,3.78,0,0,1,.81,1.4,19.49,19.49,0,0,0-6.54-3.89,19.83,19.83,0,0,0-16.28,1.44,21.85,21.85,0,0,0-3.29,2.46,2.53,2.53,0,0,1,.31-.76c1.15-1.63,2.87-2.75,4-4.36A3.18,3.18,0,0,0,21.42,13.26Z"/><path class="cls-27" d="M53.55,14.77c2-.21,3.93-.19,5.89-.42.08.22.16.45.23.67-1.62.94-3.55.7-5.32.47C53.94,15.46,53.71,15.11,53.55,14.77Z"/><path class="cls-27" d="M-.11,14.43c2,0,4,.13,6,.33-.15.26-.28.64-.63.68A24,24,0,0,1,2,15.69,4.7,4.7,0,0,1-.23,15Z"/><path class="cls-27" d="M-28.57,14.72c4,0,7.94.2,11.91.24,5,.11,9.93.14,14.9.27A5.15,5.15,0,0,1,1,16.3l-.1,1-.45.22c0-.12.08-.25.13-.37-4.64.12-9.26.43-13.89.57-2.92.06-5.84.31-8.76.26a19,19,0,0,1-5.47-.6,4,4,0,0,1-1.74-.71A3.69,3.69,0,0,1-28.57,14.72Z"/><path class="cls-27" d="M6.11,14.71c.8,0,1.59,0,2.39.07,2.11.09,4.28-.08,6.34.54a2.28,2.28,0,0,1,1.34.92,3.31,3.31,0,0,1-.75,2.4A10,10,0,0,0,14.22,21a2.82,2.82,0,0,0,.64,2.18c-.57,0-1.29.26-1.74-.21-.21-.42,0-.92.12-1.35l-.82.73-1-.06c-.07-1.05.73-1.8,1.14-2.68-.71.63-1.43,1.53-2.49,1.45a.58.58,0,0,1-.48-.88c.57-.73,1.31-1.31,1.85-2.07a8.37,8.37,0,0,1-2,1.29,2.33,2.33,0,0,1-1.68-.19c.09-1.06,1.2-1.42,1.8-2.15-.65.27-1.24.79-2,.74a3,3,0,0,1-.89-.14c0-.9.89-1.21,1.41-1.74a6.07,6.07,0,0,1-1.39.31,3.84,3.84,0,0,1-.84-.56A8.1,8.1,0,0,1,6.11,14.71Z"/><path class="cls-27" d="M44.56,15.31c2.86-.74,5.84-.37,8.76-.6.09.4.45.92,0,1.22-.52.65-1.38.12-2,0,.57.5,1.46.86,1.46,1.77a2.63,2.63,0,0,1-1.52,0c-.46-.18-.89-.42-1.34-.63a20.41,20.41,0,0,1,1.71,1.64.57.57,0,0,1-.55.72c-1.2.3-2.14-.65-3-1.31a21,21,0,0,0,1.53,1.73c.27.28.24.69.33,1a2.47,2.47,0,0,1-1.32.05,7.17,7.17,0,0,1-1.7-1.25c.47.81,1.19,1.57,1.12,2.58l-1.08,0c-.24-.22-.47-.45-.7-.68,0,.42.3.91,0,1.29-.43.48-1.16.28-1.71.34.24-.61.72-1.14.71-1.83-.19-1.81-1.85-3-2.1-4.81C43.1,15.89,44,15.54,44.56,15.31Z"/><path class="cls-27" d="M5,15.94c.48-.08.83.34,1.17.61a.73.73,0,0,1,.26.6A3.87,3.87,0,0,1,5,17.63a20.39,20.39,0,0,1-2.88.49,2,2,0,0,1-1-.59c-.08-.43.05-1,.54-1.15C2.82,16.17,3.93,16.1,5,15.94Z"/><path class="cls-27" d="M54,16a19.93,19.93,0,0,1,3.61.38c.56.11.55.77.69,1.21-.46.26-.91.67-1.49.55-.84-.13-1.67-.34-2.5-.5A3,3,0,0,1,53,17.15C53,16.59,53.56,16.24,54,16Z"/><path class="cls-27" d="M28.38,16.73a17.92,17.92,0,0,1,13.8,4.78,10.18,10.18,0,0,1,3.16,7.1,9.8,9.8,0,0,1-2.62,6.56,17.11,17.11,0,0,1-11.63,5.4,18.46,18.46,0,0,1-11.18-2.65,13.34,13.34,0,0,1-4.48-4.42,9.55,9.55,0,0,1-1.16-7A10.88,10.88,0,0,1,17.71,21a17.81,17.81,0,0,1,10.67-4.28m-.39.21c-4.15.39-8.39,2-11.14,5.26a9.22,9.22,0,0,0-2.5,6.61c.09,3.47,2.31,6.56,5.08,8.51a18.69,18.69,0,0,0,15.88,2.27,15.69,15.69,0,0,0,6.41-3.75A10.15,10.15,0,0,0,45,27.48,10.74,10.74,0,0,0,41.27,21,17.72,17.72,0,0,0,28,16.94Z"/><path class="cls-27" d="M-3.49,17.91c1.23-.06,2.45-.2,3.68-.14A5.17,5.17,0,0,1,2,19.14c-.14.4-.26.8-.37,1.2a7.17,7.17,0,0,0,1.19.78c-2.67.43-5.31,1-8,1.51-3.2.7-6.39,1.4-9.61,1.93A13.7,13.7,0,0,1-21,24.2a.94.94,0,0,1-.49-1.35c.08-.51.73-.47,1.11-.54,6.57-.68,13.13-1.52,19.7-2.31a3.87,3.87,0,0,0,2.62-.84c-7.23.67-14.44,1.61-21.68,2.24a12.53,12.53,0,0,1-6-.79,8.84,8.84,0,0,1,.74-1.7C-17.86,18.59-10.66,18.44-3.49,17.91Z"/><path class="cls-27" d="M3.9,18.44a6,6,0,0,1,2.47-.31,8.13,8.13,0,0,1,1.25.54c0,.68-.72.86-1.23,1.1s-1.28.56-1.94.78A3.69,3.69,0,0,1,2,20.11a3.11,3.11,0,0,1,.36-1.05A5,5,0,0,1,3.9,18.44Z"/><path class="cls-27" d="M53,18.12a7.18,7.18,0,0,1,3.07.52c.32.13.74.18,1,.47a7.18,7.18,0,0,1,.33,1,3.71,3.71,0,0,1-2.38.48c-1.11-.4-2.19-.89-3.26-1.4A1.47,1.47,0,0,1,53,18.12Z"/><path class="cls-27" d="M26.4,19.93a16.6,16.6,0,0,1,7.74.15,6.44,6.44,0,0,1,3.76,2.49,3.74,3.74,0,0,1,.45,2.85A5,5,0,0,1,36.07,28a1.49,1.49,0,0,0,0,.21c1.37.94,2.85,2.24,2.81,4a4.16,4.16,0,0,1-1.51,3.39,9.23,9.23,0,0,1-2.18,1.24,17.42,17.42,0,0,1-6.92.71c-2.84-.35-5.83-1.15-7.92-3.23.36-.48.82-.88,1.15-1.38.14-2.77.09-5.56,0-8.33-.35-.51-.82-.91-1.2-1.39,1.42-1.94,3.78-2.81,6-3.3m2.27.91a3.18,3.18,0,0,0-1.86.86A3.91,3.91,0,0,0,26.06,25,2.89,2.89,0,0,0,28,27.52a6.49,6.49,0,0,0,3.73.05,3.18,3.18,0,0,0,1.94-3.16,3.3,3.3,0,0,0-1.19-3,5.7,5.7,0,0,0-3.77-.54m.29,8a3.42,3.42,0,0,0-3,2.66c-.15,1.39-.1,3.1,1.05,4.1a4.94,4.94,0,0,0,2.71.91c1.33,0,2.89-.17,3.71-1.36a5.06,5.06,0,0,0,.28-4.69C32.8,28.83,30.63,28.62,29,28.85Z"/><path class="cls-27" d="M6.73,20.09A2.4,2.4,0,0,1,9,20.27a.57.57,0,0,1,.08.93,12.88,12.88,0,0,1-2.65,1.45,3.37,3.37,0,0,1-2.16-.27l-.21-1C5,20.92,5.83,20.49,6.73,20.09Z"/><path class="cls-27" d="M50.46,20.24a2.68,2.68,0,0,1,1.73-.33c.87.34,1.71.75,2.54,1.16.19.13.47.19.55.43a1,1,0,0,1-.58,1,2.41,2.41,0,0,1-1.91.13A27.76,27.76,0,0,1,50,21.05C50.1,20.77,50.13,20.38,50.46,20.24Z"/><path class="cls-27" d="M55.61,21.46a2.13,2.13,0,0,1,1.17-.26,23.83,23.83,0,0,1,4.76.51Q68,22.87,74.42,24.07c1.08.22,2.18.41,3.25.71-.15.64-.22,1.65-1,1.77a19.87,19.87,0,0,1-7.83-1c-4.2-1.14-8.44-2.13-12.63-3.3a2.23,2.23,0,0,0-.77,0A3.21,3.21,0,0,1,55.61,21.46Z"/><path class="cls-27" d="M-2.71,22.78c2.18-.44,4.32-1.05,6.54-1.3a11.54,11.54,0,0,0,.5,1.74c-3.27,1-6.53,2-9.82,3a36.91,36.91,0,0,1-5.25,1.39,14.61,14.61,0,0,1-4.89-.34c-.65-.18-.83-.88-.85-1.47C-11.89,24.76-7.31,23.7-2.71,22.78Z"/><path class="cls-27" d="M9.16,21.85a4.09,4.09,0,0,1,1.56-.05c.35.08.6.62.24.87-.81.8-1.64,1.82-2.87,1.88a6.31,6.31,0,0,1-1.23-.08c-.29-.2-.27-.61-.37-.91C7.38,23,8.24,22.37,9.16,21.85Z"/><path class="cls-27" d="M48.7,21.8c.63,0,1.39-.2,1.91.27.77.51,1.54,1,2.31,1.52-.13.27-.08.7-.38.86a4.26,4.26,0,0,1-2,0,11.71,11.71,0,0,1-2-1.67A.57.57,0,0,1,48.7,21.8Z"/><path class="cls-27" d="M54,23.59a12,12,0,0,1,1.56-.79,18.69,18.69,0,0,1,2.44.55l11.85,3.48a19.27,19.27,0,0,1,2.19.71,2.62,2.62,0,0,1-.84,1.35,10.53,10.53,0,0,1-5.67-.37c-1.39-.53-2.72-1.2-4.08-1.79C59,25.68,56.55,24.58,54,23.59Z"/><path class="cls-27" d="M11.26,23.16a2,2,0,0,1,1.94.29,7.72,7.72,0,0,1-1.75,2.34A1.4,1.4,0,0,1,9.9,26c-.33-.24-.44-.67-.64-1A12.1,12.1,0,0,1,11.26,23.16Z"/><path class="cls-27" d="M46.3,23.75c-.09-.51.59-.79,1-.72.66-.15,1.16.36,1.61.73A4.84,4.84,0,0,1,50,24.93c.08.44-.28.81-.4,1.21-.54-.11-1.21.1-1.64-.34A8.21,8.21,0,0,1,46.3,23.75Z"/><path class="cls-27" d="M1.47,24.62c1.4-.39,2.77-1.09,4.26-1,.53.08.6.7.79,1.09A22.29,22.29,0,0,0,3.9,26C1.66,27-.52,28.21-2.75,29.29c-1.52.8-3.32.67-5,.68a3,3,0,0,1-1.39-.26,4,4,0,0,1-.52-1.2c1.26-.64,2.66-.93,4-1.46C-3.32,26.16-.9,25.45,1.47,24.62Z"/><path class="cls-27" d="M13.18,24.1a3.39,3.39,0,0,1,1.3-.39,15.16,15.16,0,0,0-1.25,3.71c-.49-.12-1.11-.24-1.32-.76a.82.82,0,0,1,.11-.78A10.87,10.87,0,0,1,13.18,24.1Z"/><path class="cls-27" d="M44.83,23.7c.48.11,1.07.08,1.43.47a8.77,8.77,0,0,1,1.31,2.2,1.37,1.37,0,0,1-1.41,1A13.52,13.52,0,0,0,44.83,23.7Z"/><path class="cls-27" d="M53.22,23.86A11.09,11.09,0,0,1,55.84,25Q61,27.34,66,29.81a2.24,2.24,0,0,1-.3,1.1,5.74,5.74,0,0,1-2.64.11A7.28,7.28,0,0,1,60,30.19c-2.61-1.62-5-3.54-7.77-5C52.8,25,53,24.39,53.22,23.86Z"/><path class="cls-27" d="M5.46,25.77a4.37,4.37,0,0,1,3.6-.38,20.69,20.69,0,0,1-3.58,2.94A27.86,27.86,0,0,1,1.1,31.18a10.72,10.72,0,0,1-3.93.54,1.07,1.07,0,0,1-.85-1.14C-.66,28.93,2.43,27.41,5.46,25.77Z"/><path class="cls-27" d="M50.56,25.31a2.72,2.72,0,0,1,2.22.64c2.32,1.73,4.62,3.47,6.94,5.19a1.41,1.41,0,0,1,.6.79,3,3,0,0,1-2.07.4,7.07,7.07,0,0,1-2.54-.81c-2.19-1.4-4-3.35-6.21-4.7C50,26.4,50.12,25.74,50.56,25.31Z"/><path class="cls-27" d="M4.43,29.82C6,28.61,7.49,27.33,9.08,26.17c.59.92,1.72.6,2.61.85-1.95,1.41-3.43,3.36-5.37,4.79A3.46,3.46,0,0,1,2.13,32,10.83,10.83,0,0,1,4.43,29.82Z"/><path class="cls-27" d="M48,26.81a3.09,3.09,0,0,1,1.64.6c1.46,1.23,2.84,2.57,4.31,3.8.5.47,1.17.86,1.22,1.63a2.09,2.09,0,0,1-1.55.17,6.61,6.61,0,0,1-2.55-1.65,50.68,50.68,0,0,0-4-3.5Q47.57,27.32,48,26.81Z"/><path class="cls-27" d="M11.58,27.72c.53.14,1,.33,1.57.47.06.51.1,1,.13,1.55-.9.9-1.58,2.09-2.79,2.62A5.25,5.25,0,0,1,8,32.67a1.52,1.52,0,0,1-.71-.49C8.67,30.68,10,29.09,11.58,27.72Z"/><path class="cls-27" d="M46.28,28.1c.78,0,1.29.6,1.77,1.12,1,1.17,2.17,2.2,3.21,3.35-.22.29-.47.7-.93.54a4,4,0,0,1-1.6-.25A15.6,15.6,0,0,1,46,30.62C46.12,29.78,46.2,28.94,46.28,28.1Z"/><path class="cls-27" d="M12.17,32.46c-.17-.83.6-1.42,1.08-2a27.87,27.87,0,0,1,.83,2.69C13.46,33.05,12.52,33.12,12.17,32.46Z"/><path class="cls-27" d="M46,31.25c.45.4,1.06.94.88,1.6-.35.61-1.13.61-1.73.68C45.42,32.77,45.71,32,46,31.25Z"/><path class="cls-27" d="M9.55,33.6c.65-.22,1.3-.45,1.94-.69a3.65,3.65,0,0,0,1.64.91,4.93,4.93,0,0,1,1.27.32A17.62,17.62,0,0,0,16.92,37,37.81,37.81,0,0,0,22,40.57a11.85,11.85,0,0,1-1.74,3.32A18.71,18.71,0,0,1,9.55,33.6Z"/><path class="cls-27" d="M47.55,33.23c.47.19,1,.39,1.43.57a16.37,16.37,0,0,1-4.83,6.71,16.19,16.19,0,0,1-5.23,3.09c-.41-.72-.85-1.43-1.21-2.18-.1-.27-.27-.61-.05-.85a7.79,7.79,0,0,1,1.78-1.16A20.26,20.26,0,0,0,43,36.7c.72-.7,1.18-1.61,1.84-2.35.57-.23,1.22-.13,1.79-.39A5,5,0,0,0,47.55,33.23Z"/><path class="cls-27" d="M8,33.59l1.05,0a17.12,17.12,0,0,0,3.92,6,21.83,21.83,0,0,0,3.35,2.71,30.46,30.46,0,0,0,3.76,2,7.34,7.34,0,0,1-.46,1A23.37,23.37,0,0,1,16,43.46a23.6,23.6,0,0,1-4.13-3.39,19.12,19.12,0,0,1-3.11-4.62A11.25,11.25,0,0,1,8,33.59Z"/><path class="cls-27" d="M49.38,33.89l1.14.1a16.22,16.22,0,0,1-4.37,6.86,18.2,18.2,0,0,1-6.55,4.23c-.18-.36-.36-.72-.52-1.09a19.47,19.47,0,0,0,4.48-2.6A18,18,0,0,0,49.38,33.89Z"/><path class="cls-27" d="M37.15,39.57a15.16,15.16,0,0,0,5.29-3.44,14.71,14.71,0,0,1-3.85,3.11c-.62.48-1.49.78-1.75,1.6.06.49.45.85.67,1.27a29.49,29.49,0,0,1,1.56,2.94,2.56,2.56,0,0,1-.25,1.89,3,3,0,0,1-2.08-1.42c-.68-1.25-.67-2.81-1.62-3.92-.09,1.66,1.11,3,1.31,4.6a4.71,4.71,0,0,1-.7,1.53c-.71-.4-1.59-.8-1.76-1.69-.5-1.32-.2-2.9-1-4.11-.32,1.15.24,2.27.46,3.38.12.69.42,1.56-.12,2.15l-.55.69c-.54-.39-1.24-.75-1.41-1.45C31,45.37,31.26,44,31,42.63a1.86,1.86,0,0,0-.29-.44c-.37,1.6.44,3.17.24,4.78a2,2,0,0,1-1.34,1.29,2.27,2.27,0,0,1-1.14-1.8c-.08-1.4.45-2.76.37-4.17h-.37a36,36,0,0,0-.17,3.6,2.47,2.47,0,0,1-.54,1.52,7.43,7.43,0,0,1-1,.73,4.53,4.53,0,0,1-.9-1.11,4.44,4.44,0,0,1,.21-2,11.1,11.1,0,0,0,.55-3h-.34c-.43,1.34-.42,2.75-.8,4.09a2.41,2.41,0,0,1-1.41,1.53.59.59,0,0,1-.72-.34,2.36,2.36,0,0,1,0-2.18,22.88,22.88,0,0,0,1.24-3.48l-.35-.14c-.72,1.35-.89,2.91-1.65,4.24A2.46,2.46,0,0,1,21,47c-.23.08-.41-.11-.52-.29a2,2,0,0,1,0-1.72c.58-1.25,1.39-2.37,1.95-3.62.11-.34.3-.8,0-1.1-1.13-1.17-2.81-1.54-4-2.69a21.52,21.52,0,0,0,3.69,2A20.38,20.38,0,0,0,37.15,39.57Z"/></g></svg>