<svg id="Слой_1" data-name="Слой 1" xmlns="http://www.w3.org/2000/svg" viewBox="0 0 56.69 56.69"><defs><style>.cls-1{fill:#3796d3;}.cls-2{fill:#fab522;}</style></defs><path id="path24" class="cls-1" d="M1.83,35.41H4.31V19.1H1.83Z"/><path id="path26" class="cls-1" d="M13.86,35.41h2.48V19.1H13.86Z"/><path id="path28" class="cls-1" d="M36.1,35.41h2.48V25.26H36.1Z"/><path id="path30" class="cls-1" d="M50.51,35.41H53V25.26H50.51Z"/><path id="path32" class="cls-1" d="M5.05,26.07S8,24,10.51,25.94a3.79,3.79,0,0,1,1.14,1.59,8.09,8.09,0,0,1,.28,4.25c-.62,3.51-3,4-4.76,3.65s-2.15-1-2.15-1a7.2,7.2,0,0,0,2.64-.24c1.24-.39,1.51-1,1.72-2.32s.17-4.11-.67-5-3.58-.74-3.58-.74-.16-.06-.08-.11"/><path id="path34" class="cls-1" d="M17.11,26s2.72-1.86,5.26-.3c.85.52,1.15,1.9,1.16,2.93l0,6.73-2.5,0v-7s0-1.77-1.51-2.07a7.09,7.09,0,0,0-2.4-.14s-.08-.08,0-.13"/><path id="path36" class="cls-1" d="M26.75,26.07s3-1.82,5.77-.35a3.36,3.36,0,0,1,1.26,2.93l0,6.73-2.5,0v-7a2.17,2.17,0,0,0-1.86-2.07,9,9,0,0,0-2.67-.1s-.08-.07,0-.12"/><path id="path38" class="cls-1" d="M39,27.43a3.71,3.71,0,0,1,3.13-2.32v2.32H39"/><path id="path40" class="cls-1" d="M46.09,22.37v2.89h2.78v1.1H46.06v6.27s-.06,1.75,1.45,1.64,1.47,0,1.47,0a.21.21,0,0,1-.08.22,3.82,3.82,0,0,1-3.51.83,2.58,2.58,0,0,1-1.34-.87,3.94,3.94,0,0,1-.48-1.8c0-.07,0-9.08,0-9.08l2.2-1.24h.32"/><path id="path42" class="cls-1" d="M28.29,30.59a1.29,1.29,0,0,1,.37-.22,3.41,3.41,0,0,1,1.7-.15s.35,0,.12-.16a3.62,3.62,0,0,0-2.1-.78,3,3,0,0,0-3.17,2.61,5,5,0,0,0,.29,1.86,2.42,2.42,0,0,0,2.16,1.69,3.51,3.51,0,0,0,2.87-.78c0-.12-.08-.13-.13-.11s-2.14.26-2.49-.93a5,5,0,0,1-.08-2.25,1.88,1.88,0,0,1,.46-.78"/><path id="path44" class="cls-1" d="M50.5,19H53l-2.49,2.84,0-2.84"/><path id="path46" class="cls-2" d="M55.44,20.75v4.42l-3.89-4.43h3.89"/></svg>