<svg id="Слой_1" data-name="Слой 1" xmlns="http://www.w3.org/2000/svg" xmlns:xlink="http://www.w3.org/1999/xlink" viewBox="0 0 56.69 56.69"><defs><style>.cls-1{fill:none;}.cls-2{fill-rule:evenodd;fill:url(#Безымянный_градиент_26);}.cls-3{fill:url(#Безымянный_градиент_25);}.cls-4{fill:url(#Безымянный_градиент_24);}.cls-5{clip-path:url(#clip-path);}.cls-6{clip-path:url(#clip-path-2);}.cls-7{fill:url(#Безымянный_градиент_7);}.cls-8{clip-path:url(#clip-path-3);}.cls-9{fill:url(#Безымянный_градиент_8);}.cls-10{clip-path:url(#clip-path-5);}.cls-11{fill:url(#Безымянный_градиент_12);}.cls-12{clip-path:url(#clip-path-7);}.cls-13{fill:url(#Безымянный_градиент_12-2);}.cls-14{clip-path:url(#clip-path-9);}.cls-15{fill:url(#Безымянный_градиент_12-3);}.cls-16{clip-path:url(#clip-path-11);}.cls-17{fill:url(#Безымянный_градиент_13);}.cls-18{clip-path:url(#clip-path-13);}.cls-19{fill:url(#Безымянный_градиент_14);}.cls-20{clip-path:url(#clip-path-15);}.cls-21{fill:url(#Безымянный_градиент_15);}.cls-22{clip-path:url(#clip-path-17);}.cls-23{fill:url(#Безымянный_градиент_16);}.cls-24{clip-path:url(#clip-path-19);}.cls-25{fill:url(#Безымянный_градиент_18);}.cls-26{clip-path:url(#clip-path-21);}.cls-27{fill:url(#Безымянный_градиент_18-2);}</style><radialGradient id="Безымянный_градиент_26" cx="-385.74" cy="115.93" r="0.05" gradientTransform="matrix(-346.46, -399.84, -287.7, 249.3, -100244.05, -183094.81)" gradientUnits="userSpaceOnUse"><stop offset="0" stop-color="#40bac2"/><stop offset="1" stop-color="#0d8fce"/></radialGradient><radialGradient id="Безымянный_градиент_25" cx="-385.83" cy="117.15" r="0.05" gradientTransform="matrix(526, -225.39, -375.63, -876.6, 246964.06, 15776.97)" gradientUnits="userSpaceOnUse"><stop offset="0" stop-color="#07baec"/><stop offset="1" stop-color="#2b57a4"/></radialGradient><linearGradient id="Безымянный_градиент_24" x1="16.65" y1="31.88" x2="16.65" y2="-15.07" gradientTransform="matrix(1, 0, 0, -1, 0, 33.04)" xlink:href="#Безымянный_градиент_25"/><clipPath id="clip-path"><path class="cls-1" d="M-46.92,3a18,18,0,0,0-4.94,2s-1.48,1.23-1.63,1.4a13,13,0,0,1,5.34-2.22H-48Z"/></clipPath><clipPath id="clip-path-2"><rect class="cls-1" x="-152.13" y="-71.19" width="805.87" height="1063.02"/></clipPath><linearGradient id="Безымянный_градиент_7" x1="-378.45" y1="105.19" x2="-378.27" y2="105.19" gradientTransform="matrix(31.13, -3.85, -6.55, -52.98, 12478.99, 4605.75)" gradientUnits="userSpaceOnUse"><stop offset="0" stop-color="#37ae6c"/><stop offset="1" stop-color="#09a650"/></linearGradient><clipPath id="clip-path-3"><path class="cls-1" d="M-42.65,12.49l1.35-1.14,1.36-1.19,1.46-1.1,1.91-1,1.85-.86,1.94-.59s-.49-.82-.9-.75-1.78.45-1.78.45a6.26,6.26,0,0,1-3.31.5c-1.48-.33.46-1.41.46-1.41l.39-.06.89-.77,1,.24.56.25.15,0h0a3.29,3.29,0,0,0-1.24-1.22,3.28,3.28,0,0,0-2.57.37,3.09,3.09,0,0,1-1.76.32s-.88-.21-.49-.43a16.53,16.53,0,0,1,2-.67V3.33a2.72,2.72,0,0,0-2.08-.69A2.43,2.43,0,0,0-42.71,3l-.88.44-.58.35s-.88.66-1.34.46-.16-.81-.16-.81A1.63,1.63,0,0,1-45,2.79l-.27-.09-.08,0-.73,0-.6.15a1.74,1.74,0,0,0-.92.5,5.81,5.81,0,0,0-1,1.85,4.92,4.92,0,0,1-1.89,2.41c-.86.34-1.22-.12-1.22-.12a1.3,1.3,0,0,1-.19-.38c-.09-.26-.36-.64-.7-.65a1.86,1.86,0,0,0-1.91.82l-.77,1a2.61,2.61,0,0,1,2.11,1.59s.65,2.4.77,2.68a3.78,3.78,0,0,0,1.08,1.75,5.33,5.33,0,0,0,3.85.71c1.29-.26,2.56-.85,4.82-2.56"/></clipPath><linearGradient id="Безымянный_градиент_8" x1="-387.53" y1="113.57" x2="-387.35" y2="113.57" gradientTransform="matrix(-18.53, -85, -165.27, 36.04, 11733.44, -37056.37)" gradientUnits="userSpaceOnUse"><stop offset="0" stop-color="#f9b111"/><stop offset="0.49" stop-color="#eaa70d"/><stop offset="1" stop-color="#715012"/></linearGradient><clipPath id="clip-path-5"><path class="cls-1" d="M-42.54,4.62a1.44,1.44,0,0,0,1.23.29c.64-.19.29-.87.15-1A4,4,0,0,0-44.57,2.6,13.46,13.46,0,0,0-46,2.77a3,3,0,0,1,2.21.62,8.87,8.87,0,0,1,1.26,1.23"/></clipPath><linearGradient id="Безымянный_градиент_12" x1="-392.74" y1="116.62" x2="-392.56" y2="116.62" gradientTransform="matrix(-25.25, -22.19, -45.2, 51.43, -4783.22, -14593.83)" gradientUnits="userSpaceOnUse"><stop offset="0" stop-color="#fbcb0c"/><stop offset="1" stop-color="#715012"/></linearGradient><clipPath id="clip-path-7"><path class="cls-1" d="M-41,2.66A10.13,10.13,0,0,1-39,3a3.32,3.32,0,0,1,2.11,1.51c.29.35.54,1.15-.12,1.2s-1.16-.84-1.16-.84l-.24-.4A3.42,3.42,0,0,0-41,2.66Z"/></clipPath><linearGradient id="Безымянный_градиент_12-2" x1="-392.12" y1="116.85" x2="-391.94" y2="116.85" gradientTransform="matrix(-25.75, -22.63, -44.94, 51.14, -4980.47, -14727.67)" xlink:href="#Безымянный_градиент_12"/><clipPath id="clip-path-9"><path class="cls-1" d="M-35,5.68s.35.8.85.8.26-.57,0-1a3,3,0,0,0-1-1c-.42-.25-1.27-.65-1.27-.65l-.26-.1a3,3,0,0,1,.95.79c.34.47.7,1.09.7,1.09"/></clipPath><linearGradient id="Безымянный_градиент_12-3" x1="-393.73" y1="117.12" x2="-393.55" y2="117.12" gradientTransform="matrix(-18.62, -16.37, -39.66, 45.13, -2821.5, -11607.1)" xlink:href="#Безымянный_градиент_12"/><clipPath id="clip-path-11"><path class="cls-1" d="M-58.62,24.93a14.92,14.92,0,0,0,2.68,4.67c2,2.51,2.7,2.58,2.7,2.58a3.16,3.16,0,0,0,.74.71,14,14,0,0,0,2,1.13,8.1,8.1,0,0,0,3,1l-.13-1.1-5.6-5.18L-56.18,27l-1.56-1.61Z"/></clipPath><linearGradient id="Безымянный_градиент_13" x1="-390.72" y1="121.64" x2="-390.54" y2="121.64" gradientTransform="matrix(-38.77, 42.46, 89.47, 81.69, -25703.37, 7031.1)" gradientUnits="userSpaceOnUse"><stop offset="0" stop-color="#504d4d"/><stop offset="1" stop-color="#e8e6e7"/></linearGradient><clipPath id="clip-path-13"><path class="cls-1" d="M-57.54,21.57-56.39,20s.37-1.37,1.15-.91,1.2,2-.45,4.37c0,0-1.05,1.11-.55,2.18s.89,1.74,2,1.44A10.2,10.2,0,0,0-51.38,26l4-2.93,2.45-2s.81-.76,1.5-.21-.36,1.51-.63,1.8a61.32,61.32,0,0,1-5.29,4.61l-.82.71a.62.62,0,0,0-.08.79.66.66,0,0,0,.85,0A55.49,55.49,0,0,0-44,24.87c1.15-1.15,2.22-2,2.22-2s.75-.76,1.4-.26-.14,1.25-.23,1.36l-2.29,2.47s-3.07,2.82-3.44,3-.72,1.56.45,1a21.15,21.15,0,0,0,3.6-2.58c.48-.51,2.35-2.36,2.35-2.36a.88.88,0,0,1,1.11-.24c.62.38-.17,1.43-.17,1.43l-1.85,2.13-1.7,1.62s-1.92,1.55-2.75,2,.31.8.48.79h.17a2.55,2.55,0,0,0,.68-.25c.36-.18,2.08-1.35,2.08-1.35l1.8-1.55s.63-.93,1.32-.64.07,1.14-.12,1.4S-40,32.13-40,32.13l-3.78,2.43a3.87,3.87,0,0,1-2.88.65A6.14,6.14,0,0,1-50,33.46l-2.85-3.19a12.49,12.49,0,0,0-1.76-1.45,11.18,11.18,0,0,1-2.67-1.92,9.64,9.64,0,0,1-1.29-1.77,2.59,2.59,0,0,1-.16-1.66c.3-.58,1.17-1.9,1.17-1.9"/></clipPath><linearGradient id="Безымянный_градиент_14" x1="-385.07" y1="112.52" x2="-384.89" y2="112.52" gradientTransform="matrix(135.4, -81.11, -90.86, -151.66, 62573.66, -13685.6)" gradientUnits="userSpaceOnUse"><stop offset="0" stop-color="#312d2e"/><stop offset="1" stop-color="#e8e6e7"/></linearGradient><clipPath id="clip-path-15"><path class="cls-1" d="M-51.77,5a15,15,0,0,0-1.77,1.23,18,18,0,0,0-3,3.14,15.85,15.85,0,0,0-3.09,8.45,13.17,13.17,0,0,0,.1,3.3,4.81,4.81,0,0,0,1,2.57,18.17,18.17,0,0,0,7.06,3s.79.07.86-.64-1-1.15-1-1.15a28.74,28.74,0,0,1-2.86-1.13,10.27,10.27,0,0,1-2-1.27c-1.33-1.1-1.39-1.88-1.15-2.24s.67-.15,1.08,0l2.39.92,5.49,1.55s2.24.75,2.59-.2-.65-1.37-1-1.51-4.49-1.49-6.88-2.49-2.6-1-2.45-2c0,0,.11-.64,1.79-.3l5.48,1.1,5.08,1s1.38.33,1.59-.48-.65-1.28-1.25-1.5-6-1.75-6-1.75L-53,13.83s-3-.35-2-1.62c0,0,.29-.43,2.48-.24a54.84,54.84,0,0,1,7.26,1.28c1.19.34,2.57.58,2.8-.29s-.62-1.25-1.9-1.64A37.84,37.84,0,0,0-50.6,10c-2.33-.24-3.74-.27-3.74-.27s-1,0-1.09-.28a1.47,1.47,0,0,1,.23-1,7.35,7.35,0,0,1,1.57-1.87Z"/></clipPath><radialGradient id="Безымянный_градиент_15" cx="-383.66" cy="116.13" r="0.18" gradientTransform="matrix(79.21, 0, 0, -79.21, 30342.04, 9209.24)" gradientUnits="userSpaceOnUse"><stop offset="0" stop-color="#9fcfa8"/><stop offset="1" stop-color="#09a650"/></radialGradient><clipPath id="clip-path-17"><path class="cls-1" d="M-47.88,29.27s0-.92.59-1.1,1,.3,1.13.88.68,2.23.68,2.23a7.06,7.06,0,0,0,1.92,3c1.18.81,1.75.23,1.63-.52s-1-4.45-1-4.45l-.78-4.2s-.5-1.72.62-2c0,0,.84-.33,1.23.9l.75,2.54.91,3.08.51,1.76s.35,2.05,1.22,1.92.67-1.45.66-2.21-.41-4.61-.41-4.61l-.43-2.89L-39,21.08s-.33-1.2.71-1.38,1.42,1.37,1.42,1.37l.8,3.47.6,3.3s.3,2.24.3,2.52S-35,32-34.41,32s1-1.16,1-1.16A11.4,11.4,0,0,0-33,28.45a35.64,35.64,0,0,0-.13-4.87c-.26-2.38-.85-2.82,0-3.11s1.28.93,1.28.93A18.07,18.07,0,0,1-31,24.7a20.79,20.79,0,0,1,.09,4.23,5.06,5.06,0,0,1-2.63,3.84A16.81,16.81,0,0,1-39,35.27a18.34,18.34,0,0,1-6.62.31.6.6,0,0,1-.31-.23c-.16-.3-2-4.23-2-6.08"/></clipPath><linearGradient id="Безымянный_градиент_16" x1="-386.93" y1="113.89" x2="-386.75" y2="113.89" gradientTransform="matrix(-32.99, -86.29, -146.3, 55.94, 3968.2, -39768.25)" gradientUnits="userSpaceOnUse"><stop offset="0" stop-color="#173559"/><stop offset="0.08" stop-color="#0d4271"/><stop offset="0.56" stop-color="#529ed7"/><stop offset="1" stop-color="#2186c8"/></linearGradient><clipPath id="clip-path-19"><path class="cls-1" d="M-27,23.51c-1.26.39-1.41,1.38-1.33,2.43a3.54,3.54,0,0,1-.4,1.7A17.89,17.89,0,0,0-27.85,26,18.3,18.3,0,0,0-27,23.51"/></clipPath><linearGradient id="Безымянный_градиент_18" x1="-369.6" y1="108.05" x2="-369.42" y2="108.05" gradientTransform="matrix(9.64, 0, 0, -49.8, 3534.95, 5841.03)" gradientUnits="userSpaceOnUse"><stop offset="0" stop-color="#143250"/><stop offset="1" stop-color="#0d6dab"/></linearGradient><clipPath id="clip-path-21"><polygon class="cls-1" points="-28.73 27.64 -28.72 27.63 -28.73 27.64 -28.73 27.64"/></clipPath><linearGradient id="Безымянный_градиент_18-2" x1="238.9" y1="101.69" x2="11947.76" y2="101.69" gradientTransform="matrix(0.07, 0, 0, -26.91, -168.57, 3196.47)" xlink:href="#Безымянный_градиент_18"/></defs><path class="cls-2" d="M28.55,18.31a2.08,2.08,0,0,0-1.84,2c0,.45,0,.48,1,3.06,2.28,5.86,2.83,7.28,2.93,7.48a5,5,0,0,0,.93,1.34,4.58,4.58,0,0,0,.85.7c.59.4.89.51,3.2,1.19a28.41,28.41,0,0,1,4.55,1.64,7.26,7.26,0,0,1,2.94,2.38,8.1,8.1,0,0,1,1,3,8.8,8.8,0,0,1,0,1.92,5.54,5.54,0,0,1-.86,2.33c-.23.34-.15.28.19-.14a14.79,14.79,0,0,0,2.4-5,15,15,0,0,0-7.27-17.08c-.25-.14-1.18-.63-2.44-1.28l-.58-.3-.58-.31-1.22-.63L32.52,20l-1.17-.61c-1.25-.65-1.78-.92-1.93-1a3.77,3.77,0,0,0-.66-.11Z"/><path class="cls-3" d="M31.27,40.21l-.22.14-.24.15L29,41.64l-1.13.7-.5.31-.61.38-1,.64-1.21.75-1.06.65a4.61,4.61,0,0,0-.45.29L20,47.2a6.63,6.63,0,0,1-2.49.88,8.55,8.55,0,0,1-1.6,0,6.42,6.42,0,0,1-3-1.22,8.08,8.08,0,0,1-1.24-1.24A6.49,6.49,0,0,1,10.49,43a2.78,2.78,0,0,0-.09-.41,3.91,3.91,0,0,0,.07.74c.07.45.2,1.11.34,1.66a13.93,13.93,0,0,0,8.45,9.51,14.53,14.53,0,0,0,3.78.93,20,20,0,0,0,2.45,0,13.94,13.94,0,0,0,6.65-2.25l.79-.5.7-.44.36-.23.28-.18.88-.55,1.56-1,.53-.33,0,0,.06,0,0,0,.39-.25,1.36-.86a14.76,14.76,0,0,0,3.06-2.26,9.62,9.62,0,0,0,.87-1,1.83,1.83,0,0,1,.2-.31A5.58,5.58,0,0,0,44.08,43a8.8,8.8,0,0,0,0-1.92,9.5,9.5,0,0,0-.73-2.57A6.56,6.56,0,0,0,40.2,35.7a5.46,5.46,0,0,0-.92-.41s-1.48.88-3.23,2l-3.37,2.09-.41.24Z"/><path class="cls-4" d="M10.37,35v7.54l.1.44a6.14,6.14,0,0,0,1.75,3.27,5.76,5.76,0,0,0,1.23,1,6.34,6.34,0,0,0,6.61-.1l1.6-1,1.27-.79V19.29c0-5.22,0-8.32,0-8.57a6.13,6.13,0,0,0-1.82-4A9.21,9.21,0,0,0,19.64,5.6l-1.7-1.17-1.89-1.3L14.39,2a4.11,4.11,0,0,0-1.13-.68,2,2,0,0,0-1-.12A2.15,2.15,0,0,0,10.4,2.87c0,.15,0,2.05,0,12.39V27.48h0Z"/><g class="cls-5"><g class="cls-6"><path class="cls-7" d="M-152.13-71.19H653.74v1063H-152.13Z"/></g></g><g class="cls-8"><g class="cls-6"><path class="cls-9" d="M-152.13-71.19H653.74v1063H-152.13Z"/></g></g><g class="cls-10"><g class="cls-6"><path class="cls-11" d="M-152.13-71.19H653.74v1063H-152.13Z"/></g></g><g class="cls-12"><g class="cls-6"><path class="cls-13" d="M-152.13-71.19H653.74v1063H-152.13Z"/></g></g><g class="cls-14"><g class="cls-6"><path class="cls-15" d="M-152.13-71.19H653.74v1063H-152.13Z"/></g></g><g class="cls-16"><g class="cls-6"><path class="cls-17" d="M-152.13-71.19H653.74v1063H-152.13Z"/></g></g><g class="cls-18"><g class="cls-6"><path class="cls-19" d="M-152.13-71.19H653.74v1063H-152.13Z"/></g></g><g class="cls-20"><g class="cls-6"><path class="cls-21" d="M-152.13-71.19H653.74v1063H-152.13Z"/></g></g><g class="cls-22"><g class="cls-6"><path class="cls-23" d="M-152.13-71.19H653.74v1063H-152.13Z"/></g></g><g class="cls-24"><g class="cls-6"><path class="cls-25" d="M-152.13-71.19H653.74v1063H-152.13Z"/></g></g><g class="cls-26"><g class="cls-6"><path class="cls-27" d="M-152.13-71.19H653.74v1063H-152.13Z"/></g></g></svg>