<svg id="Слой_1" data-name="Слой 1" xmlns="http://www.w3.org/2000/svg" viewBox="0 0 56.69 56.69"><defs><style>.cls-1{fill:#010202;}.cls-2{fill:none;stroke:#010202;stroke-miterlimit:10;}</style></defs><path class="cls-1" d="M4.16,24.53H5.27c1,0,1.46.32,1.46,1s-.45.95-1.34.95H4.16Zm-1.35,6.4H5.53c1.43,0,2.86-.51,2.86-2.15A1.8,1.8,0,0,0,6.76,27v0a1.68,1.68,0,0,0,1.32-1.65c0-1.38-1.18-1.9-2.32-1.9H2.81ZM4.16,27.6H5.45c1.09,0,1.6.28,1.6,1.07,0,1-1,1.11-1.65,1.11H4.16Z"/><line class="cls-2" x1="9.91" y1="30.93" x2="9.91" y2="23.2"/><path class="cls-1" d="M12.69,28.37a1.51,1.51,0,1,1,3,0,1.51,1.51,0,1,1-3,0m-1.28,0a2.66,2.66,0,0,0,2.78,2.69,2.69,2.69,0,1,0,0-5.38,2.66,2.66,0,0,0-2.78,2.69"/><path class="cls-1" d="M18.84,28.37a1.5,1.5,0,1,1,1.5,1.54,1.47,1.47,0,0,1-1.5-1.54m-1.28,0a2.65,2.65,0,0,0,2.78,2.69,2.69,2.69,0,1,0,0-5.38,2.65,2.65,0,0,0-2.78,2.69"/><path class="cls-1" d="M23.91,25.81h1.21v.8h0a1.64,1.64,0,0,1,1.57-.93,1.56,1.56,0,0,1,1.6.95A1.8,1.8,0,0,1,30,25.68c1.36,0,1.84,1,1.84,2.2v3.05H30.56V28c0-.64-.19-1.19-.95-1.19s-1.1.66-1.1,1.32v2.77H27.24V27.88c0-.63-.26-1-.88-1a1.14,1.14,0,0,0-1.17,1.3v2.79H23.91Z"/><path class="cls-1" d="M37.13,28.37a1.51,1.51,0,1,1-1.51-1.54,1.49,1.49,0,0,1,1.51,1.54m-4.25,2.56H34.1v-.77h0a2,2,0,0,0,1.76.9,2.48,2.48,0,0,0,2.53-2.69,2.52,2.52,0,0,0-2.48-2.69,2.12,2.12,0,0,0-1.74.78h0V23.2H32.88v7.73Z"/><path class="cls-1" d="M40.27,27.86a1.27,1.27,0,0,1,1.32-1.22,1.18,1.18,0,0,1,1.3,1.22Zm3.9,1v-.35c0-1.78-1-2.79-2.4-2.79a2.69,2.69,0,1,0,0,5.38,2.69,2.69,0,0,0,2.17-1l-.92-.7a1.68,1.68,0,0,1-1.38.7,1.32,1.32,0,0,1-1.37-1.22Z"/><path class="cls-1" d="M45,25.81h1.28v.81h0a1.62,1.62,0,0,1,1.51-.94,1.44,1.44,0,0,1,.46.08V27a2.65,2.65,0,0,0-.62-.09,1.28,1.28,0,0,0-1.37,1.29v2.74H45V25.81Z"/><path class="cls-1" d="M51.15,26.84a1.5,1.5,0,1,1,0,3,1.48,1.48,0,0,1-1.51-1.48,1.44,1.44,0,0,1,1.52-1.52m1.51-1v.77h0a2,2,0,0,0-1.76-.9,2.49,2.49,0,0,0-2.53,2.69A2.52,2.52,0,0,0,50.9,31a2.11,2.11,0,0,0,1.68-.75h0v.37c0,1-.39,1.72-1.62,1.72a2.5,2.5,0,0,1-1.77-.74l-.76,1a3.64,3.64,0,0,0,2.54.84c2,0,2.89-1.17,2.89-3V25.81Z"/></svg>