<svg id="Слой_1" data-name="Слой 1" xmlns="http://www.w3.org/2000/svg" xmlns:xlink="http://www.w3.org/1999/xlink" viewBox="0 0 56.69 56.69"><defs><style>.cls-1{fill:none;}.cls-2{fill:#5a5555;}.cls-3{clip-path:url(#clip-path);}.cls-4{clip-path:url(#clip-path-2);}.cls-5{fill:url(#Безымянный_градиент_7);}.cls-6{clip-path:url(#clip-path-3);}.cls-7{fill:url(#Безымянный_градиент_8);}.cls-8{clip-path:url(#clip-path-5);}.cls-9{fill:url(#Безымянный_градиент_12);}.cls-10{clip-path:url(#clip-path-7);}.cls-11{fill:url(#Безымянный_градиент_12-2);}.cls-12{clip-path:url(#clip-path-9);}.cls-13{fill:url(#Безымянный_градиент_12-3);}.cls-14{clip-path:url(#clip-path-11);}.cls-15{fill:url(#Безымянный_градиент_13);}.cls-16{clip-path:url(#clip-path-13);}.cls-17{fill:url(#Безымянный_градиент_14);}.cls-18{clip-path:url(#clip-path-15);}.cls-19{fill:url(#Безымянный_градиент_15);}.cls-20{clip-path:url(#clip-path-17);}.cls-21{fill:url(#Безымянный_градиент_16);}.cls-22{clip-path:url(#clip-path-19);}.cls-23{fill:url(#Безымянный_градиент_18);}.cls-24{clip-path:url(#clip-path-21);}.cls-25{fill:url(#Безымянный_градиент_18-2);}</style><clipPath id="clip-path"><path class="cls-1" d="M-183.59-90.42a17.63,17.63,0,0,0-4.94,2s-1.48,1.23-1.63,1.4a13,13,0,0,1,5.34-2.23l.13,0Z"/></clipPath><clipPath id="clip-path-2"><rect class="cls-1" x="-288.8" y="-164.62" width="805.87" height="1063.02"/></clipPath><linearGradient id="Безымянный_градиент_7" x1="-515.12" y1="11.75" x2="-514.94" y2="11.75" gradientTransform="matrix(31.13, -3.85, -6.55, -52.98, 15984.72, -964.4)" gradientUnits="userSpaceOnUse"><stop offset="0" stop-color="#37ae6c"/><stop offset="1" stop-color="#09a650"/></linearGradient><clipPath id="clip-path-3"><path class="cls-1" d="M-179.32-80.95l1.35-1.13,1.36-1.2,1.46-1.09,1.91-1,1.85-.86,1.94-.59s-.49-.82-.9-.75-1.79.45-1.79.45a6.11,6.11,0,0,1-3.3.5c-1.48-.32.46-1.4.46-1.4l.39-.07.89-.77,1,.25.56.25.15,0h0a3.22,3.22,0,0,0-1.24-1.21,3.23,3.23,0,0,0-2.57.36,3.18,3.18,0,0,1-1.77.33s-.87-.22-.48-.43a16.94,16.94,0,0,1,2-.68v-.09a2.75,2.75,0,0,0-2.09-.68,2.39,2.39,0,0,0-1.23.34l-.88.44-.58.35s-.88.65-1.34.46-.16-.82-.16-.82a1.63,1.63,0,0,1,.68-.63l-.27-.09-.08,0-.73.06-.6.14a1.74,1.74,0,0,0-.92.5,5.92,5.92,0,0,0-1,1.85,4.89,4.89,0,0,1-1.89,2.41c-.86.35-1.22-.12-1.22-.12a1.14,1.14,0,0,1-.19-.37c-.09-.26-.37-.64-.7-.66a1.88,1.88,0,0,0-1.91.82l-.78,1a2.64,2.64,0,0,1,2.12,1.59s.65,2.4.77,2.68A3.75,3.75,0,0,0-188-79.09a5.32,5.32,0,0,0,3.85.7c1.29-.26,2.56-.85,4.82-2.56"/></clipPath><linearGradient id="Безымянный_градиент_8" x1="-524.2" y1="20.14" x2="-524.02" y2="20.14" gradientTransform="matrix(-18.53, -85, -165.27, 36.04, -6378.35, -45399.27)" gradientUnits="userSpaceOnUse"><stop offset="0" stop-color="#f9b111"/><stop offset="0.49" stop-color="#eaa70d"/><stop offset="1" stop-color="#715012"/></linearGradient><clipPath id="clip-path-5"><path class="cls-1" d="M-179.21-88.82a1.45,1.45,0,0,0,1.22.3c.64-.19.3-.87.16-1a4,4,0,0,0-3.41-1.27,10.83,10.83,0,0,0-1.44.17,3,3,0,0,1,2.21.62,9.33,9.33,0,0,1,1.26,1.22"/></clipPath><linearGradient id="Безымянный_градиент_12" x1="-529.41" y1="23.19" x2="-529.23" y2="23.19" gradientTransform="matrix(-25.25, -22.19, -45.2, 51.43, -12593.51, -12914.29)" gradientUnits="userSpaceOnUse"><stop offset="0" stop-color="#fbcb0c"/><stop offset="1" stop-color="#715012"/></linearGradient><clipPath id="clip-path-7"><path class="cls-1" d="M-177.66-90.77a9.4,9.4,0,0,1,2,.36,3.35,3.35,0,0,1,2.11,1.5c.29.36.54,1.15-.12,1.21s-1.16-.84-1.16-.84l-.24-.41a3.42,3.42,0,0,0-2.6-1.82Z"/></clipPath><linearGradient id="Безымянный_градиент_12-2" x1="-528.79" y1="23.42" x2="-528.61" y2="23.42" gradientTransform="matrix(-25.75, -22.63, -44.94, 51.14, -12835.3, -13135.35)" xlink:href="#Безымянный_градиент_12"/><clipPath id="clip-path-9"><path class="cls-1" d="M-171.64-87.76s.35.81.84.8.27-.56,0-1a2.74,2.74,0,0,0-1-1c-.42-.26-1.28-.65-1.28-.65l-.25-.11a3,3,0,0,1,.95.79c.34.48.7,1.09.7,1.09"/></clipPath><linearGradient id="Безымянный_градиент_12-3" x1="-530.4" y1="23.68" x2="-530.22" y2="23.68" gradientTransform="matrix(-18.62, -16.37, -39.66, 45.13, -9209.09, -9720.42)" xlink:href="#Безымянный_градиент_12"/><clipPath id="clip-path-11"><path class="cls-1" d="M-195.29-68.5a14.82,14.82,0,0,0,2.68,4.66c2.05,2.51,2.7,2.58,2.7,2.58a3.16,3.16,0,0,0,.74.71,14,14,0,0,0,2,1.13,8,8,0,0,0,3,1l-.13-1.11-5.6-5.18-2.91-1.69L-194.41-68Z"/></clipPath><linearGradient id="Безымянный_градиент_13" x1="-527.39" y1="28.2" x2="-527.21" y2="28.2" gradientTransform="matrix(-38.77, 42.46, 89.47, 81.69, -22779.81, 20373.83)" gradientUnits="userSpaceOnUse"><stop offset="0" stop-color="#504d4d"/><stop offset="1" stop-color="#e8e6e7"/></linearGradient><clipPath id="clip-path-13"><path class="cls-1" d="M-194.21-71.86l1.15-1.59s.37-1.37,1.14-.91,1.21,2-.44,4.37c0,0-1,1.1-.55,2.18s.88,1.73,2,1.43A9.63,9.63,0,0,0-188-67.47l4-2.92,2.45-2s.81-.75,1.5-.21-.36,1.52-.64,1.8A59,59,0,0,1-186-66.15l-.82.7a.62.62,0,0,0-.08.79.65.65,0,0,0,.85,0,56,56,0,0,0,5.4-3.88c1.15-1.14,2.22-2,2.22-2s.74-.77,1.4-.26-.14,1.24-.23,1.35l-2.3,2.47s-3.06,2.82-3.43,3-.73,1.57.44,1a20.36,20.36,0,0,0,3.61-2.58c.48-.5,2.35-2.35,2.35-2.35a.87.87,0,0,1,1.11-.24c.62.37-.17,1.43-.17,1.43l-1.85,2.12-1.7,1.62s-1.92,1.56-2.75,2,.3.81.48.8h.17a3.25,3.25,0,0,0,.68-.25c.35-.18,2.08-1.35,2.08-1.35l1.79-1.55s.63-.93,1.33-.65.07,1.14-.12,1.4-1.16,1.35-1.16,1.35l-3.79,2.43a3.86,3.86,0,0,1-2.87.65,6.16,6.16,0,0,1-3.3-1.74l-2.86-3.2a11.7,11.7,0,0,0-1.75-1.44,11.36,11.36,0,0,1-2.67-1.93,9.39,9.39,0,0,1-1.29-1.76s-.46-1.08-.16-1.66,1.17-1.9,1.17-1.9"/></clipPath><linearGradient id="Безымянный_градиент_14" x1="-521.74" y1="19.08" x2="-521.56" y2="19.08" gradientTransform="matrix(135.4, -81.11, -90.86, -151.66, 72452.87, -39034.83)" gradientUnits="userSpaceOnUse"><stop offset="0" stop-color="#312d2e"/><stop offset="1" stop-color="#e8e6e7"/></linearGradient><clipPath id="clip-path-15"><path class="cls-1" d="M-188.44-88.42a13.54,13.54,0,0,0-1.77,1.23,17.63,17.63,0,0,0-3,3.14,15.87,15.87,0,0,0-3.1,8.45,13.34,13.34,0,0,0,.11,3.29,4.83,4.83,0,0,0,1,2.58,18.24,18.24,0,0,0,7.06,3s.79.08.86-.63-1.05-1.15-1.05-1.15a26.7,26.7,0,0,1-2.85-1.14,9.38,9.38,0,0,1-2-1.27c-1.33-1.09-1.39-1.88-1.15-2.23s.66-.16,1.08,0l2.39.92,5.49,1.54s2.24.76,2.59-.2-.65-1.36-1-1.5-4.49-1.49-6.88-2.5-2.6-1-2.45-2c0,0,.11-.65,1.79-.3l5.48,1.09,5.07,1s1.39.33,1.6-.47-.65-1.28-1.25-1.5-6-1.75-6-1.75l-3.28-.85s-3-.34-2-1.61c0,0,.29-.43,2.47-.25A55.9,55.9,0,0,1-182-80.19c1.2.35,2.58.58,2.81-.28s-.62-1.26-1.9-1.64a36.74,36.74,0,0,0-6.2-1.28c-2.32-.25-3.73-.28-3.73-.28s-1,0-1.09-.27a1.51,1.51,0,0,1,.22-1,7.53,7.53,0,0,1,1.57-1.87Z"/></clipPath><radialGradient id="Безымянный_градиент_15" cx="-520.34" cy="22.7" r="0.18" gradientTransform="matrix(79.21, 0, 0, -79.21, 41031.12, 1714.82)" gradientUnits="userSpaceOnUse"><stop offset="0" stop-color="#9fcfa8"/><stop offset="1" stop-color="#09a650"/></radialGradient><clipPath id="clip-path-17"><path class="cls-1" d="M-184.55-64.16s-.06-.92.59-1.1,1,.29,1.13.88.68,2.22.68,2.22a7.05,7.05,0,0,0,1.91,3c1.19.82,1.76.23,1.63-.52s-1-4.44-1-4.44l-.78-4.21s-.5-1.72.62-2c0,0,.84-.34,1.23.89l.75,2.55.91,3.07.5,1.77s.36,2.05,1.23,1.92.66-1.45.65-2.22-.4-4.61-.4-4.61l-.43-2.88-.35-2.48s-.33-1.19.71-1.38,1.41,1.37,1.41,1.37l.81,3.47.6,3.3s.3,2.24.3,2.52.16,1.66.73,1.63,1-1.16,1-1.16a11.15,11.15,0,0,0,.39-2.38,35.51,35.51,0,0,0-.13-4.86c-.26-2.39-.85-2.82,0-3.12s1.28.94,1.28.94a17.8,17.8,0,0,1,.88,3.3,19.81,19.81,0,0,1,.08,4.22,5.07,5.07,0,0,1-2.62,3.85,17.13,17.13,0,0,1-5.45,2.5,18.37,18.37,0,0,1-6.62.3.65.65,0,0,1-.32-.23c-.15-.29-2-4.22-2-6.07"/></clipPath><linearGradient id="Безымянный_градиент_16" x1="-523.6" y1="20.45" x2="-523.42" y2="20.45" gradientTransform="matrix(-32.99, -86.29, -146.3, 55.94, -14347.53, -46428.47)" gradientUnits="userSpaceOnUse"><stop offset="0" stop-color="#173559"/><stop offset="0.08" stop-color="#0d4271"/><stop offset="0.56" stop-color="#529ed7"/><stop offset="1" stop-color="#2186c8"/></linearGradient><clipPath id="clip-path-19"><path class="cls-1" d="M-163.67-69.93c-1.26.4-1.41,1.38-1.34,2.44a3.26,3.26,0,0,1-.4,1.69,16.05,16.05,0,0,0,.89-1.68,18.73,18.73,0,0,0,.85-2.45"/></clipPath><linearGradient id="Безымянный_градиент_18" x1="-506.27" y1="14.61" x2="-506.09" y2="14.61" gradientTransform="matrix(9.64, 0, 0, -49.8, 4716.06, 1094.53)" gradientUnits="userSpaceOnUse"><stop offset="0" stop-color="#143250"/><stop offset="1" stop-color="#0d6dab"/></linearGradient><clipPath id="clip-path-21"><polygon class="cls-1" points="-165.41 -65.8 -165.39 -65.81 -165.41 -65.8 -165.41 -65.8"/></clipPath><linearGradient id="Безымянный_градиент_18-2" x1="102.23" y1="8.25" x2="11811.08" y2="8.25" gradientTransform="matrix(0.07, 0, 0, -26.91, -295.84, 588.91)" xlink:href="#Безымянный_градиент_18"/></defs><path class="cls-2" d="M11.34,11.66V11.6a2.77,2.77,0,0,0,2.2-2.74V8.63c0-1.67-1.36-3.05-4.14-3.05H5.56V18.64H9.68c2.7,0,4.55-1.35,4.55-3.52V15A3.26,3.26,0,0,0,11.34,11.66Zm-4.1-4.6H9.16c1.83,0,2.76.69,2.76,1.93v.13c0,1.5-1.29,2-3,2H7.24ZM12.51,15c0,1.61-1.28,2.22-3.13,2.22H7.24V12.48H9.41c1.83,0,3.1.61,3.1,2.28V15Zm7.21-6.22h.48v1.53h-.39c-1.57,0-2.59.79-2.59,2.86v5.5H15.65V8.75h1.57v1.78h.07A2.41,2.41,0,0,1,19.72,8.75Zm1.88,0h1.56v9.89H21.6Zm1.74-2.22c0,.77-.35,1.13-1,1.13s-1-.36-1-1.13.35-1.14,1-1.14S23.34,5.77,23.34,6.53Zm8.52,9.39c0,1.9-1.42,2.91-3.49,2.91s-3.47-.9-3.58-2.91h1.56c.06,1.21.95,1.6,2,1.6s1.92-.46,1.92-1.49c0-2.41-5.39-.75-5.39-4.65,0-1.62,1.19-2.81,3.37-2.81,2,0,3.33,1,3.48,2.91H30.18a1.69,1.69,0,0,0-1.91-1.61c-1.13,0-1.84.52-1.84,1.51C26.43,13.72,31.86,12.28,31.86,15.92Zm3.61-7.17H37.6v1.38H35.47V15.6c0,1.44.38,1.74,1.33,1.74.26,0,.56,0,.8-.06v1.34a5.51,5.51,0,0,1-1,.1c-1.94,0-2.72-.77-2.72-2.88V10.13H32.24V8.75h1.67V5.58h1.56Zm6.76-.18c-2.45,0-3.75,1.68-3.75,4.4v1.46c0,2.72,1.3,4.4,3.75,4.4S46,17.15,46,14.43V13C46,10.25,44.67,8.57,42.23,8.57Zm2.16,5.76c0,2.35-.82,3.12-2.16,3.12s-2.17-.77-2.17-3.12V13.06c0-2.35.83-3.11,2.17-3.11s2.16.76,2.16,3.11Zm3.24-8.75H49.2V18.64H47.63Zm-32.5,15h2.68V33.7H16.14V22.37H16l-3.36,9.15h-2L7.31,22.37H7.22V33.7H5.56V20.55H8.37l3.32,9.13h.09Zm10.35,3.19h1.6L22.66,36.89H21l1.11-3.12-3.23-10h1.67L23,31.5H23Zm5.83-.18c-2.45,0-3.77,1.76-3.77,4.43v1.46c0,2.74,1.31,4.44,3.77,4.44a3.36,3.36,0,0,0,3.54-2.95H33.23a1.77,1.77,0,0,1-1.92,1.56c-1.35,0-2.17-.77-2.17-3.14v-.13H34.9V28C34.9,25.32,33.78,23.56,31.31,23.56Zm0,1.39c1.28,0,2,.75,2,3H29.14C29.16,25.7,30,25,31.31,25Zm9.44-1.21h.49v1.54h-.4c-1.57,0-2.61.79-2.61,2.88V33.7H36.66v-10h1.57v1.79h.08A2.42,2.42,0,0,1,40.75,23.74ZM49.2,31c0,1.91-1.42,2.92-3.51,2.92S42.2,33,42.08,31h1.58c.06,1.22,1,1.61,2,1.61s1.93-.47,1.93-1.5c0-2.42-5.42-.75-5.42-4.68,0-1.63,1.2-2.83,3.4-2.83,2,0,3.34,1,3.49,2.93H47.51a1.68,1.68,0,0,0-1.91-1.62c-1.15,0-1.86.53-1.86,1.52,0,2.35,5.46.9,5.46,4.57ZM13.34,44.9c0,2.25-1.55,3.51-3.93,3.51s-4.08-1.08-4.31-3.5H6.77A2.36,2.36,0,0,0,9.39,47a2,2,0,0,0,2.33-2c0-3.59-6.42-1.52-6.42-6.23,0-2,1.6-3.34,3.84-3.34s4,1.07,4.08,3.56H11.54a2.19,2.19,0,0,0-2.42-2.15c-1.53,0-2.2.9-2.2,1.86C6.92,41.87,13.34,40,13.34,44.9Zm6.85-5.07h-.07a2.32,2.32,0,0,0-2.19-1.34c-2.36,0-3.44,1.63-3.44,4.26v1.41c0,2.63,1.08,4.25,3.44,4.25a2.33,2.33,0,0,0,2.19-1.33h.07V51.3h1.52V38.67H20.19Zm-2.08,7.25c-1.29,0-2.09-.74-2.09-3V42.84c0-2.27.8-3,2.09-3s2.1.74,2.1,3v1.23C20.21,46.34,19.41,47.08,18.11,47.08Zm10.56-8.41h1.51v9.56H28.67V47h-.08a2.45,2.45,0,0,1-2.34,1.4c-1.79,0-2.89-1-2.89-3.26V38.67H24.9v6.26c0,1.54.63,2.2,1.76,2.2s2-.74,2-2.59V38.67Zm3.46,0h1.51v9.56H32.13Zm7.32-.18a2.31,2.31,0,0,0-2.19,1.34h-.07V35.6H35.68V48.23h1.51V47.08h.07a2.32,2.32,0,0,0,2.19,1.33c2.36,0,3.44-1.62,3.44-4.25V42.75C42.89,40.12,41.81,38.49,39.45,38.49Zm1.91,5.58c0,2.27-.8,3-2.09,3s-2.1-.74-2.1-3V42.84c0-2.27.8-3,2.1-3s2.09.74,2.09,3Zm6.79-5.58A2.29,2.29,0,0,0,46,39.83h-.08V35.6H44.38V48.23h1.51V47.08H46a2.29,2.29,0,0,0,2.18,1.33c2.36,0,3.45-1.62,3.45-4.25V42.75C51.6,40.12,50.51,38.49,48.15,38.49Zm1.91,5.58c0,2.27-.79,3-2.09,3s-2.09-.74-2.09-3V42.84c0-2.27.79-3,2.09-3s2.09.74,2.09,3ZM33.81,36.53c0,.74-.34,1.08-.92,1.08S32,37.27,32,36.53s.34-1.11.93-1.11S33.81,35.79,33.81,36.53Z"/><g class="cls-3"><g class="cls-4"><path class="cls-5" d="M-288.8-164.62H517.07v1063H-288.8Z"/></g></g><g class="cls-6"><g class="cls-4"><path class="cls-7" d="M-288.8-164.62H517.07v1063H-288.8Z"/></g></g><g class="cls-8"><g class="cls-4"><path class="cls-9" d="M-288.8-164.62H517.07v1063H-288.8Z"/></g></g><g class="cls-10"><g class="cls-4"><path class="cls-11" d="M-288.8-164.62H517.07v1063H-288.8Z"/></g></g><g class="cls-12"><g class="cls-4"><path class="cls-13" d="M-288.8-164.62H517.07v1063H-288.8Z"/></g></g><g class="cls-14"><g class="cls-4"><path class="cls-15" d="M-288.8-164.62H517.07v1063H-288.8Z"/></g></g><g class="cls-16"><g class="cls-4"><path class="cls-17" d="M-288.8-164.62H517.07v1063H-288.8Z"/></g></g><g class="cls-18"><g class="cls-4"><path class="cls-19" d="M-288.8-164.62H517.07v1063H-288.8Z"/></g></g><g class="cls-20"><g class="cls-4"><path class="cls-21" d="M-288.8-164.62H517.07v1063H-288.8Z"/></g></g><g class="cls-22"><g class="cls-4"><path class="cls-23" d="M-288.8-164.62H517.07v1063H-288.8Z"/></g></g><g class="cls-24"><g class="cls-4"><path class="cls-25" d="M-288.8-164.62H517.07v1063H-288.8Z"/></g></g></svg>