<svg id="Слой_1" data-name="Слой 1" xmlns="http://www.w3.org/2000/svg" viewBox="0 0 56.69 56.69"><defs><style>.cls-1{fill:#707070;}</style></defs><g id="BMW_Group_Next" data-name="BMW Group Next"><path class="cls-1" d="M1.42,27.14H6.79a5.14,5.14,0,0,0,3.51-.94,3.5,3.5,0,0,0,1.18-2.87,3.51,3.51,0,0,0-.54-2,4.54,4.54,0,0,0-1-1c.19-.31.45-.72.69-1.14a3.86,3.86,0,0,0,.59-2A3,3,0,0,0,10,14.69a5,5,0,0,0-2.9-.61H1.42V27.14Zm2.09-2V21.49H6.94a3.14,3.14,0,0,1,1.68.31,1.7,1.7,0,0,1,.73,1.53,1.63,1.63,0,0,1-.54,1.36,2.88,2.88,0,0,1-2,.47Zm0-5.64V16.05H6.87a3.38,3.38,0,0,1,1.65.25,1.11,1.11,0,0,1,.55,1.1,2.57,2.57,0,0,1-.41,1.32c-.16.26-.33.55-.49.8Z"/><polygon class="cls-1" points="15.03 27.14 15.03 17.21 18.09 24.54 20.02 24.54 23.08 17.21 23.08 27.14 25.14 27.14 25.14 14.08 22.37 14.08 19.08 21.96 15.78 14.08 12.97 14.08 12.97 27.14 15.03 27.14"/><polygon class="cls-1" points="31.43 27.14 33.59 18.98 35.76 27.14 38.51 27.14 41.08 14.08 38.96 14.08 36.95 24.42 34.72 16.05 32.49 16.05 30.25 24.42 28.24 14.08 26.1 14.08 28.66 27.14 31.43 27.14"/><path class="cls-1" d="M10.72,42.18V35.32H8.64v5.15a21.52,21.52,0,0,1-2.22.15c-1.47,0-2.32-.36-2.78-1.3a7.84,7.84,0,0,1-.51-3.41,8.42,8.42,0,0,1,.52-3.48c.49-1,1.23-1.42,2.74-1.42a8.42,8.42,0,0,1,1.52.17c.82.16,1.67.35,2.38.52v-2c-.54-.14-1.29-.31-2.08-.47a11.27,11.27,0,0,0-2-.22c-2.41,0-3.51.9-4.24,2.13A9.46,9.46,0,0,0,1,36a9.26,9.26,0,0,0,.85,4.55c.71,1.23,1.75,2.11,4.26,2.11a30.63,30.63,0,0,0,4.61-.43Z"/><path class="cls-1" d="M14.35,42.32V37.56h3.06l2.81,4.76h2.44l-3-5.07c.33-.35.87-1,1.28-1.46A4.16,4.16,0,0,0,22,33a3.66,3.66,0,0,0-1.16-2.82,4.8,4.8,0,0,0-3.4-.89H12.25V42.32Zm0-6.77V31.27h2.91a3.64,3.64,0,0,1,2,.35A1.5,1.5,0,0,1,19.91,33a2.59,2.59,0,0,1-.68,1.67c-.22.28-.52.63-.76.89Z"/><path class="cls-1" d="M28.34,29c-2.56,0-3.76.83-4.57,2.21a9.67,9.67,0,0,0-.89,4.65,9.56,9.56,0,0,0,1,4.81c.8,1.28,1.92,2,4.47,2,2.22,0,3.39-.6,4.31-1.94a8.7,8.7,0,0,0,1.13-4.84,8.9,8.9,0,0,0-1.13-4.94c-.9-1.3-2.08-1.92-4.31-1.92Zm0,2A2.72,2.72,0,0,1,31,32.24a7.54,7.54,0,0,1,.66,3.59,6.55,6.55,0,0,1-.83,3.79,2.85,2.85,0,0,1-2.48,1c-1.18,0-2.17-.19-2.74-1.17a8.32,8.32,0,0,1-.59-3.6,8.17,8.17,0,0,1,.58-3.59A2.77,2.77,0,0,1,28.34,31Z"/><path class="cls-1" d="M35.11,29.26v8c0,1.85.21,3.18,1.1,4.12s2,1.19,3.77,1.19a4.83,4.83,0,0,0,3.71-1.16c.93-.93,1.14-2.2,1.14-4.15v-8h-2.1v8.09c0,1.37-.08,2.18-.65,2.72a3.14,3.14,0,0,1-2.1.53,3,3,0,0,1-2.11-.55c-.57-.55-.66-1.37-.66-2.7V29.26Z"/><path class="cls-1" d="M48.45,42.32V37.64c1.37,0,2.53,0,3.26,0a4.18,4.18,0,0,0,2.92-1.07,4.42,4.42,0,0,0,1.06-3.17,4.38,4.38,0,0,0-1-3,4,4,0,0,0-3.1-1.06H46.36V42.32Zm0-6.69V31.27h2.89a1.8,1.8,0,0,1,2.22,2.08A2.38,2.38,0,0,1,53.13,35a2.13,2.13,0,0,1-1.63.6c-.8.05-1.89.05-3,.05Z"/></g></svg>