<svg id="Слой_1" data-name="Слой 1" xmlns="http://www.w3.org/2000/svg" xmlns:xlink="http://www.w3.org/1999/xlink" viewBox="0 0 56.69 56.69"><defs><style>.cls-1{fill:url(#Безымянный_градиент_23);}.cls-2{fill:url(#Безымянный_градиент_22);}.cls-3{fill:url(#Безымянный_градиент_21);}.cls-4{fill:url(#Безымянный_градиент_21-2);}.cls-5{fill:url(#Безымянный_градиент_21-3);}.cls-6{fill:url(#Безымянный_градиент_21-4);}.cls-7{fill:#fff;}</style><linearGradient id="Безымянный_градиент_23" x1="-105.62" y1="25.04" x2="-104.54" y2="25.04" gradientTransform="matrix(0, 56.11, 56.11, 0, -1376.52, 5925.45)" gradientUnits="userSpaceOnUse"><stop offset="0" stop-color="#017449"/><stop offset="0.6" stop-color="#8ec9ab"/><stop offset="1" stop-color="#00925c"/></linearGradient><linearGradient id="Безымянный_градиент_22" x1="-105.98" y1="24.82" x2="-104.9" y2="24.82" gradientTransform="matrix(0, 63.05, 63.05, 0, -1536.88, 6668.62)" gradientUnits="userSpaceOnUse"><stop offset="0" stop-color="#00925c"/><stop offset="0.3" stop-color="#8ec9ab"/><stop offset="0.55" stop-color="#00925c"/><stop offset="0.84" stop-color="#017449"/><stop offset="1" stop-color="#019c6d"/></linearGradient><linearGradient id="Безымянный_градиент_21" x1="-113.17" y1="20.39" x2="-112.09" y2="20.39" gradientTransform="matrix(0, -40.8, -40.8, 0, 870.99, -4567.48)" gradientUnits="userSpaceOnUse"><stop offset="0" stop-color="#04a678"/><stop offset="1" stop-color="#00925c"/></linearGradient><linearGradient id="Безымянный_градиент_21-2" x1="-113.17" y1="20.44" x2="-112.09" y2="20.44" gradientTransform="matrix(0, -40.82, -40.82, 0, 845.96, -4568.82)" xlink:href="#Безымянный_градиент_21"/><linearGradient id="Безымянный_градиент_21-3" x1="-113.17" y1="20.42" x2="-112.09" y2="20.42" gradientTransform="matrix(0, -40.79, -40.79, 0, 853.22, -4565.91)" xlink:href="#Безымянный_градиент_21"/><linearGradient id="Безымянный_градиент_21-4" x1="-113.17" y1="20.41" x2="-112.09" y2="20.41" gradientTransform="matrix(0, -40.8, -40.8, 0, 860.37, -4567.43)" xlink:href="#Безымянный_градиент_21"/></defs><g id="g11"><g id="g39"><g id="g41"><g id="g47"><g id="g49"><path id="path59" class="cls-1" d="M-.41,56.62H57.1V.07H-.41Z"/></g></g></g></g><g id="g61"><g id="g63"><g id="g69"><g id="g71"><path id="path85" class="cls-2" d="M4.08,1.08c-1.11,0-1.84.94-2,2.26h0S.63,10.89.63,26.92h0A215.59,215.59,0,0,0,2.07,53.45h0c.13,1.27.9,2.26,2,2.26H53.86a2.09,2.09,0,0,0,2-2.26h0s-.56-12.29-.56-24.29h0c0-12,.56-25.82.56-25.82h0a2.16,2.16,0,0,0-2-2.26H4.08Z"/></g></g></g></g><g id="g87"><g id="g89"><g id="g95"><g id="g97"><path id="path105" class="cls-3" d="M32,6.85c1.57.66,7.88,4.07,8.65,5.16h0a52.47,52.47,0,0,0-12.75,3.68h0l-.2.39a87.08,87.08,0,0,1,12.43-1.43h0a39.91,39.91,0,0,1-4.23,5.09h0l-.19.43c3.86-2.32,4.94-2.48,8.5-4.57h0c1.34,2,1.67,6.57,1.72,10.2h0c1.16-2.31,2.56-11,2-12.55h0c2.35-1.61,2.67-2.92,2.67-2.92h0a22.82,22.82,0,0,0-4.52.59h0A41.41,41.41,0,0,0,32.22,6.45h0Z"/></g></g></g></g><g id="g107"><g id="g109"><g id="g115"><g id="g117"><path id="path125" class="cls-4" d="M8.48,33.8a24.24,24.24,0,0,0,0,7.27h0a26.27,26.27,0,0,0-3.14.77h0l-.18.39a38.75,38.75,0,0,0,4.42,2.43h0a14.92,14.92,0,0,0,3.36,4.76h0l.19-.4a8.55,8.55,0,0,1-.5-3.23h0a20.94,20.94,0,0,0,5.65.9h0l.19-.4c-1.89-.73-3.78-1.31-5.31-2.75h0a15.32,15.32,0,0,1,1.93-3.71h0l.19-.41c-1.62.25-3.1.84-4.5,1.11h0c-1.11-1.94-1.54-4.6-2.09-7.13h0Z"/></g></g></g></g><g id="g127"><g id="g129"><g id="g135"><g id="g137"><path id="path145" class="cls-5" d="M18.11,20.62a27.75,27.75,0,0,0-3.22-.06h0a30.64,30.64,0,0,0-5.47.59h0l-.18.4c2,.08,4.64.61,5.67,1.64h0A31,31,0,0,0,9,31.74H9s5.34-5,7.66-6.26h0s1.21,4,2.05,6.06h0l.19-.4a33.47,33.47,0,0,1,1.79-7h0a6.44,6.44,0,0,1,2.06-.38h0a31.2,31.2,0,0,1,8.73.57h0l.19-.4a31.72,31.72,0,0,0-9.66-3h.14a20.9,20.9,0,0,1,1.37-3.13h0a15.93,15.93,0,0,0-5.4,2.81"/></g></g></g></g><g id="g147"><g id="g149"><g id="g155"><g id="g157"><path id="path165" class="cls-6" d="M29.3,45.38c-.07-.79-.12-1.45-.16-2.34h0a41.69,41.69,0,0,1-2.74,3.41h0a12.48,12.48,0,0,1-3.45.27H21.67l-.18.4a12.26,12.26,0,0,0,3.18,1.1h0a24.59,24.59,0,0,1-2.92,2h0l-.19.39a22.61,22.61,0,0,0,5.93-2.23h0a10.9,10.9,0,0,0,2.4-.14h0l.19-.4h0c-.12-.41-.48-.65-.58-1.22h0a41.29,41.29,0,0,0,4.22-3.84h0l.2-.41a35.59,35.59,0,0,1-4.62,3"/></g></g></g></g><g id="g167"><g id="g169"><g id="g175"><path id="path177" class="cls-7" d="M44.43,15.2c-3.55,2.08-4.63,2.26-8.49,4.57a40.07,40.07,0,0,0,4.42-5.52,85.41,85.41,0,0,0-12.42,1.44,49.07,49.07,0,0,1,12.94-4.08c-.78-1.08-7.09-4.5-8.66-5.16,5,.39,11.11,2.26,14.07,4.07A23.14,23.14,0,0,1,50.83,10a6,6,0,0,1-2.7,2.9c.59,1.58-.82,10.25-2,12.54,0-3.62-.36-8.2-1.72-10.19"/></g><g id="g179"><path id="path181" class="cls-7" d="M18.45,46.29a14.23,14.23,0,0,1-5.13-3.15,16,16,0,0,1,1.94-3.72c-1.66.25-2.88.44-4.31.71A22.2,22.2,0,0,1,8.67,33.4a24.26,24.26,0,0,0,0,7.27,20.76,20.76,0,0,0-3.32,1.17,42.25,42.25,0,0,0,4.42,2.42A14.94,14.94,0,0,0,13.11,49a8.89,8.89,0,0,1-.31-3.63,21.27,21.27,0,0,0,5.65.9"/></g><g id="g183"><path id="path185" class="cls-7" d="M23.76,17.46h0a11.87,11.87,0,0,0-1.58,3.08A26.16,26.16,0,0,1,31.66,24a31.11,31.11,0,0,0-8.74-.56,6.66,6.66,0,0,0-2.05.36,36.32,36.32,0,0,0-2,7.39c-.84-2-2.05-6.06-2.05-6.06-2.32,1.24-7.65,6.26-7.65,6.26a30.57,30.57,0,0,1,5.91-8.55c-1-1-3.71-1.55-5.68-1.64a22.33,22.33,0,0,1,5.65-1,29.9,29.9,0,0,1,3.23.05,16.28,16.28,0,0,1,5.46-2.75"/></g><g id="g187"><path id="path189" class="cls-7" d="M29.33,42.65a43.41,43.41,0,0,1-2.75,3.4,17.15,17.15,0,0,1-4.91.68,12.45,12.45,0,0,0,3.19,1.1,22.66,22.66,0,0,1-3.11,2.4A22.9,22.9,0,0,0,27.67,48a11.53,11.53,0,0,0,2.41-.15,11.79,11.79,0,0,1-.4-1.63,40.44,40.44,0,0,0,4.24-3.83A30.08,30.08,0,0,1,29.49,45c-.08-.79-.12-1.45-.16-2.33"/></g></g></g></g></svg>