<svg id="Слой_1" data-name="Слой 1" xmlns="http://www.w3.org/2000/svg" viewBox="0 0 56.69 56.69"><defs><style>.cls-1{fill:#273c7d;}.cls-2{fill:#4e9ed8;}</style></defs><path id="path3378" class="cls-1" d="M33.15,23.69a2,2,0,0,0-.32-.45l-.07-.07.07-.08a2.39,2.39,0,0,0,.34-.41l2.14-3.18h-2.6L31.11,22a.63.63,0,0,1-.55.2h-.37V17.49c0-.94-.59-1.07-1.22-1.07H27.89V27.51h2.3V24.18h.22c.26,0,.44,0,.52.18l1.27,2.39a1.27,1.27,0,0,0,1.37.76h1.76L34,25.34l-.87-1.65"/><path id="path3372" class="cls-1" d="M35.72,17.4a1.33,1.33,0,1,1,1.33,1.34,1.34,1.34,0,0,1-1.33-1.34"/><path id="path3380" class="cls-1" d="M44.31,19.32a3.1,3.1,0,0,0-2.33,1l-.14.14-.05-.19a1.06,1.06,0,0,0-1.16-.73h-1v8h2.29v-3.7a2.89,2.89,0,0,1,.14-1,1.87,1.87,0,0,1,1.85-1.4c.71,0,1,.38,1,1.35v3.49c0,.83.38,1.22,1.21,1.22h1.09v-5.1c0-2-1-3.09-2.86-3.09"/><path id="path3382" class="cls-1" d="M37.08,19.5H36v6.19h0v1.82h2.28V20.72a1.06,1.06,0,0,0-1.2-1.22"/><path id="path3376" class="cls-1" d="M13.9,25.69A2,2,0,0,1,12,23.48a2,2,0,1,1,3.9,0A2,2,0,0,1,13.9,25.69Zm0-6.36a4,4,0,0,0-4.18,4.15,4,4,0,0,0,4.18,4.15,4,4,0,0,0,4.2-4.15,4,4,0,0,0-4.2-4.15"/><path id="path3384" class="cls-1" d="M22.87,25.69a2,2,0,0,1-1.94-2.21,2,2,0,1,1,3.9,0A2,2,0,0,1,22.87,25.69Zm0-6.36a4,4,0,0,0-4.18,4.15,4,4,0,0,0,4.18,4.15,4.15,4.15,0,1,0,0-8.3"/><path id="path3424" class="cls-1" d="M5.4,25.6H3.54V23.38c0-.48.19-.73.59-.78H5.4a1.5,1.5,0,0,1,0,3Zm-1.86-6V19c0-.51.22-.76.69-.79h.95a1.2,1.2,0,0,1,1.31,1.31,1.24,1.24,0,0,1-1.28,1.35H3.54V19.6Zm4.23,2.22-.33-.19.29-.25a2.67,2.67,0,0,0,.91-2.09c0-1.74-1.35-2.87-3.44-2.87H2.54a1.17,1.17,0,0,0-1.13,1.15v9.9H5.25c2.32,0,3.82-1.27,3.82-3.23a2.7,2.7,0,0,0-1.3-2.42"/><path id="path3408" class="cls-1" d="M52,25.34c-1.25,0-1.69-1.09-1.69-2.11,0-.45.11-1.92,1.57-1.92.73,0,1.69.21,1.69,2S52.7,25.34,52,25.34Zm2.76-5.86a1,1,0,0,0-.94.49l-.06.12-.1-.09a3.11,3.11,0,0,0-2.11-.7c-2.13,0-3.57,1.6-3.57,4s1.49,4.05,3.62,4.05a2.82,2.82,0,0,0,1.75-.51l.18-.14v.23c0,1.07-.69,1.66-1.95,1.66A4.43,4.43,0,0,1,50,28.29a.69.69,0,0,0-1,.46l-.18.45-.26.66.16.08a6.22,6.22,0,0,0,2.8.68c1.94,0,4.21-1,4.21-3.79V19.48H54.74"/><path id="path3374" class="cls-2" d="M23.62,39a1.33,1.33,0,1,1,1.32,1.34A1.33,1.33,0,0,1,23.62,39"/><path id="path3406" class="cls-2" d="M38.74,38.44a2,2,0,0,1-1.94-2.21,2,2,0,1,1,3.9,0A2,2,0,0,1,38.74,38.44Zm0-6.36a4.15,4.15,0,1,0,4.2,4.15,4,4,0,0,0-4.2-4.15"/><path id="path3426" class="cls-2" d="M53.14,32.09a3.13,3.13,0,0,0-2.45,1.19l-.17.21-.13-.24a2.27,2.27,0,0,0-2.16-1.16,2.9,2.9,0,0,0-2.1.94l-.22.24L45.83,33a1,1,0,0,0-1.12-.69h-1v8h2.19V36.73a3.83,3.83,0,0,1,.11-.94c.21-.85.78-1.76,1.74-1.67.6.06.89.51.89,1.4v4.73h2.19V36.73a3.47,3.47,0,0,1,.12-1,1.9,1.9,0,0,1,1.71-1.64c.67,0,.92.38.92,1.4v3.56c0,.81.36,1.17,1.16,1.17h1V35.16c0-2-.9-3.07-2.66-3.07"/><path id="path3428" class="cls-2" d="M33.3,37.48a3.38,3.38,0,0,1-2.18,1A2.25,2.25,0,0,1,31,34c.41,0,.88.15.95.4v0a.81.81,0,0,0,.78.59h1.19V34c0-1.38-1.75-1.88-2.93-1.88A4.17,4.17,0,1,0,31,40.43,4.51,4.51,0,0,0,34.31,39l.06-.07-.95-1.57-.12.13"/></svg>