<svg id="Слой_1" data-name="Слой 1" xmlns="http://www.w3.org/2000/svg" viewBox="0 0 56.69 56.69"><defs><style>.cls-1{fill:#e41718;fill-rule:evenodd;}.cls-2{fill:#010101;}</style></defs><g id="logotype"><path id="logotype-b-47" class="cls-1" d="M9,45.45A2.56,2.56,0,0,0,10.67,43c0-2.19-1.55-3.27-3.68-3.27H1.41V51.63H7.48a3.5,3.5,0,0,0,3.69-3.3A3,3,0,0,0,9,45.45ZM4.32,42.22H6.49a1.07,1.07,0,0,1,1.12,1h0v.13a1.11,1.11,0,0,1-1.12,1.09H4.31Zm2.19,6.93H4.34V46.82H6.45C7.52,46.82,8,47.28,8,48,8,48.83,7.39,49.15,6.51,49.15Z"/><path id="logotype-o-47" class="cls-1" d="M17.6,39.46c-3.44,0-5.46,2.74-5.46,6.22s2,6.21,5.46,6.21,5.45-2.72,5.45-6.21S21.05,39.46,17.6,39.46Zm0,9.6c-1.68,0-2.52-1.52-2.52-3.38s.84-3.36,2.52-3.36,2.53,1.51,2.53,3.36S19.28,49.06,17.6,49.06Z"/><path id="logotype-s-47" class="cls-1" d="M29.37,44.43l-.41-.1c-1-.2-1.81-.46-1.81-1.19s.77-1.1,1.44-1.1A3.31,3.31,0,0,1,31,43.14l1.84-1.83a5.54,5.54,0,0,0-4.33-1.87c-2.5,0-4.4,1.4-4.4,3.74,0,2.12,1.53,3.17,3.4,3.56l.41.09c1.55.32,2.12.56,2.12,1.31s-.63,1.18-1.6,1.18a3.76,3.76,0,0,1-3-1.53l-1.88,1.86a5.78,5.78,0,0,0,4.93,2.22c2.22,0,4.59-1.27,4.59-3.86S31.07,44.78,29.37,44.43Z"/><path id="logotype-c-47" class="cls-1" d="M39.73,49.06c-1.3,0-2.67-1.09-2.67-3.46,0-2.11,1.27-3.28,2.6-3.28a2.28,2.28,0,0,1,2.14,1.32l2.39-1.58a5.06,5.06,0,0,0-4.57-2.58c-3.58,0-5.52,2.78-5.52,6.14,0,3.53,2.14,6.29,5.48,6.29a5,5,0,0,0,4.69-2.57l-2.41-1.63A2.3,2.3,0,0,1,39.73,49.06Z"/><polygon id="logotype-h-47" class="cls-1" points="52.16 39.76 52.16 44.13 48.56 44.13 48.56 39.76 45.44 39.76 45.44 51.63 48.56 51.63 48.56 46.95 52.16 46.95 52.16 51.63 55.28 51.63 55.28 39.76 52.16 39.76"/></g><g id="symbol"><path class="cls-2" d="M28.86,4.78A16.62,16.62,0,1,0,45.48,21.4,16.63,16.63,0,0,0,28.86,4.78Zm0,31.69A15.07,15.07,0,1,1,43.93,21.4,15.07,15.07,0,0,1,28.86,36.47Z"/><path class="cls-2" d="M35.73,11H34.59v5.69H23.18V11H22a12.44,12.44,0,0,0-3.53,17.23A12.62,12.62,0,0,0,22,31.78h1.18V26.1H34.59v5.69h1.14a12.45,12.45,0,0,0,0-20.76ZM21.59,29.55a10.9,10.9,0,0,1-.91-15.38h0c.29-.32.59-.62.91-.91Zm13-5H23.18V18.26H34.59Zm1.55,5V26.06h0V16.71h0V13.26A10.92,10.92,0,0,1,37,28.68h0c-.26.29-.53.56-.82.83Z"/></g></svg>