<svg id="Слой_1" data-name="Слой 1" xmlns="http://www.w3.org/2000/svg" xmlns:xlink="http://www.w3.org/1999/xlink" viewBox="0 0 56.69 56.69"><defs><style>.cls-1{fill:none;}.cls-2{fill:#da271c;}.cls-2,.cls-3{fill-rule:evenodd;}.cls-3{fill:#2e2869;}.cls-4{clip-path:url(#clip-path);}.cls-5{clip-path:url(#clip-path-2);}.cls-6{fill:url(#Безымянный_градиент_7);}.cls-7{clip-path:url(#clip-path-3);}.cls-8{fill:url(#Безымянный_градиент_8);}.cls-9{clip-path:url(#clip-path-5);}.cls-10{fill:url(#Безымянный_градиент_12);}.cls-11{clip-path:url(#clip-path-7);}.cls-12{fill:url(#Безымянный_градиент_12-2);}.cls-13{clip-path:url(#clip-path-9);}.cls-14{fill:url(#Безымянный_градиент_12-3);}.cls-15{clip-path:url(#clip-path-11);}.cls-16{fill:url(#Безымянный_градиент_13);}.cls-17{clip-path:url(#clip-path-13);}.cls-18{fill:url(#Безымянный_градиент_14);}.cls-19{clip-path:url(#clip-path-15);}.cls-20{fill:url(#Безымянный_градиент_15);}.cls-21{clip-path:url(#clip-path-17);}.cls-22{fill:url(#Безымянный_градиент_16);}.cls-23{clip-path:url(#clip-path-19);}.cls-24{fill:url(#Безымянный_градиент_18);}.cls-25{clip-path:url(#clip-path-21);}.cls-26{fill:url(#Безымянный_градиент_18-2);}</style><clipPath id="clip-path"><path class="cls-1" d="M92.69,3a18,18,0,0,0-4.94,2s-1.49,1.23-1.63,1.4a13,13,0,0,1,5.34-2.22h.12Z"/></clipPath><clipPath id="clip-path-2"><rect class="cls-1" x="-12.53" y="-71.19" width="805.87" height="1063.02"/></clipPath><linearGradient id="Безымянный_градиент_7" x1="-238.84" y1="105.19" x2="-238.66" y2="105.19" gradientTransform="matrix(31.13, -3.85, -6.55, -52.98, 8272.53, 5143.41)" gradientUnits="userSpaceOnUse"><stop offset="0" stop-color="#37ae6c"/><stop offset="1" stop-color="#09a650"/></linearGradient><clipPath id="clip-path-3"><path class="cls-1" d="M97,12.49l1.35-1.14,1.37-1.19,1.45-1.1L103,8l1.86-.86,1.94-.59s-.49-.82-.91-.75-1.78.45-1.78.45a6.26,6.26,0,0,1-3.31.5c-1.48-.33.46-1.41.46-1.41l.39-.06.9-.77,1,.24.56.25.15,0h0A3.29,3.29,0,0,0,103,3.83a3.3,3.3,0,0,0-2.58.37,3.09,3.09,0,0,1-1.76.32s-.88-.21-.49-.43a17.12,17.12,0,0,1,2-.67V3.33a2.72,2.72,0,0,0-2.08-.69A2.43,2.43,0,0,0,96.89,3L96,3.42l-.58.35s-.88.66-1.33.46-.16-.81-.16-.81a1.58,1.58,0,0,1,.67-.63l-.27-.09-.08,0-.73,0-.6.15a1.73,1.73,0,0,0-.91.5,5.64,5.64,0,0,0-1,1.85,4.92,4.92,0,0,1-1.89,2.41c-.85.34-1.22-.12-1.22-.12a1.71,1.71,0,0,1-.19-.38c-.09-.26-.36-.64-.69-.65a1.87,1.87,0,0,0-1.92.82l-.77,1a2.59,2.59,0,0,1,2.11,1.59s.66,2.4.77,2.68a3.83,3.83,0,0,0,1.09,1.75,5.3,5.3,0,0,0,3.84.71c1.3-.26,2.56-.85,4.82-2.56"/></clipPath><linearGradient id="Безымянный_градиент_8" x1="-247.92" y1="113.57" x2="-247.74" y2="113.57" gradientTransform="matrix(-18.53, -85, -165.27, 36.04, 14460.19, -25190.71)" gradientUnits="userSpaceOnUse"><stop offset="0" stop-color="#f9b111"/><stop offset="0.49" stop-color="#eaa70d"/><stop offset="1" stop-color="#715012"/></linearGradient><clipPath id="clip-path-5"><path class="cls-1" d="M97.06,4.62a1.46,1.46,0,0,0,1.23.29c.64-.19.29-.87.15-1A4,4,0,0,0,95,2.6a13.49,13.49,0,0,0-1.45.17,3.05,3.05,0,0,1,2.22.62,9,9,0,0,1,1.25,1.23"/></clipPath><linearGradient id="Безымянный_градиент_12" x1="-253.14" y1="116.62" x2="-252.96" y2="116.62" gradientTransform="matrix(-25.25, -22.19, -45.2, 51.43, -1118.96, -11496.37)" gradientUnits="userSpaceOnUse"><stop offset="0" stop-color="#fbcb0c"/><stop offset="1" stop-color="#715012"/></linearGradient><clipPath id="clip-path-7"><path class="cls-1" d="M98.62,2.66a10.13,10.13,0,0,1,2,.36,3.38,3.38,0,0,1,2.12,1.51c.29.35.53,1.15-.13,1.2s-1.15-.84-1.15-.84l-.25-.4a3.4,3.4,0,0,0-2.59-1.83Z"/></clipPath><linearGradient id="Безымянный_градиент_12-2" x1="-252.51" y1="116.85" x2="-252.33" y2="116.85" gradientTransform="matrix(-25.75, -22.63, -44.94, 51.14, -1246.3, -11568.84)" xlink:href="#Безымянный_градиент_12"/><clipPath id="clip-path-9"><path class="cls-1" d="M104.63,5.68s.35.8.85.8.26-.57,0-1a3,3,0,0,0-1-1c-.42-.25-1.27-.65-1.27-.65L103,3.8a3.14,3.14,0,0,1,1,.79c.33.47.69,1.09.69,1.09"/></clipPath><linearGradient id="Безымянный_градиент_12-3" x1="-254.13" y1="117.12" x2="-253.95" y2="117.12" gradientTransform="matrix(-18.62, -16.37, -39.66, 45.13, -82.09, -9322.42)" xlink:href="#Безымянный_градиент_12"/><clipPath id="clip-path-11"><path class="cls-1" d="M81,24.93a14.74,14.74,0,0,0,2.67,4.67c2,2.51,2.7,2.58,2.7,2.58a3.46,3.46,0,0,0,.74.71,14.64,14.64,0,0,0,2,1.13,8.16,8.16,0,0,0,3,1l-.13-1.1-5.59-5.18L83.42,27l-1.56-1.61Z"/></clipPath><linearGradient id="Безымянный_градиент_13" x1="-251.11" y1="121.64" x2="-250.93" y2="121.64" gradientTransform="matrix(-38.77, 42.46, 89.47, 81.69, -20151.09, 1102.86)" gradientUnits="userSpaceOnUse"><stop offset="0" stop-color="#504d4d"/><stop offset="1" stop-color="#e8e6e7"/></linearGradient><clipPath id="clip-path-13"><path class="cls-1" d="M82.07,21.57,83.21,20s.37-1.37,1.15-.91,1.2,2-.44,4.37c0,0-1.06,1.11-.56,2.18s.89,1.74,2,1.44A10.26,10.26,0,0,0,88.23,26l4-2.93,2.46-2s.8-.76,1.49-.21-.35,1.51-.63,1.8a62.4,62.4,0,0,1-5.28,4.61l-.83.71a.61.61,0,0,0-.07.79.65.65,0,0,0,.84,0,56.59,56.59,0,0,0,5.41-3.87c1.15-1.15,2.21-2,2.21-2s.75-.76,1.4-.26-.13,1.25-.23,1.36l-2.29,2.47s-3.07,2.82-3.43,3-.73,1.56.44,1a20.75,20.75,0,0,0,3.6-2.58c.48-.51,2.35-2.36,2.35-2.36a.88.88,0,0,1,1.11-.24c.63.38-.17,1.43-.17,1.43l-1.85,2.13-1.7,1.62s-1.92,1.55-2.75,2,.31.8.48.79H95a2.68,2.68,0,0,0,.69-.25c.35-.18,2.08-1.35,2.08-1.35L99.54,30s.63-.93,1.32-.64.08,1.14-.11,1.4-1.17,1.35-1.17,1.35L95.8,34.56a3.87,3.87,0,0,1-2.88.65,6.09,6.09,0,0,1-3.29-1.75l-2.86-3.19A12.87,12.87,0,0,0,85,28.82a11,11,0,0,1-2.68-1.92,9.86,9.86,0,0,1-1.28-1.77s-.46-1.07-.17-1.66,1.18-1.9,1.18-1.9"/></clipPath><linearGradient id="Безымянный_градиент_14" x1="-245.46" y1="112.52" x2="-245.28" y2="112.52" gradientTransform="matrix(135.4, -81.11, -90.86, -151.66, 43811.41, -2362.48)" gradientUnits="userSpaceOnUse"><stop offset="0" stop-color="#312d2e"/><stop offset="1" stop-color="#e8e6e7"/></linearGradient><clipPath id="clip-path-15"><path class="cls-1" d="M87.84,5a14,14,0,0,0-1.77,1.23,18,18,0,0,0-3,3.14A15.91,15.91,0,0,0,80,17.83a13.17,13.17,0,0,0,.1,3.3,4.81,4.81,0,0,0,1,2.57,18.17,18.17,0,0,0,7.06,3s.79.07.86-.64-1-1.15-1-1.15a28.74,28.74,0,0,1-2.86-1.13,10.05,10.05,0,0,1-2-1.27c-1.34-1.1-1.39-1.88-1.15-2.24s.66-.15,1.07,0l2.4.92L91,22.77s2.23.75,2.59-.2-.66-1.37-1-1.51S88,19.57,85.65,18.57s-2.6-1-2.46-2c0,0,.12-.64,1.8-.3l5.48,1.1,5.07,1s1.38.33,1.6-.48-.65-1.28-1.26-1.5-6-1.75-6-1.75l-3.28-.84s-3-.35-2-1.62c0,0,.28-.43,2.47-.24a54.54,54.54,0,0,1,7.26,1.28c1.19.34,2.57.58,2.8-.29s-.62-1.25-1.9-1.64A37.61,37.61,0,0,0,89,10c-2.33-.24-3.74-.27-3.74-.27s-1,0-1.08-.28a1.49,1.49,0,0,1,.22-1A7.35,7.35,0,0,1,86,6.61Z"/></clipPath><radialGradient id="Безымянный_градиент_15" cx="-244.06" cy="116.13" r="0.18" gradientTransform="matrix(79.21, 0, 0, -79.21, 19423.71, 9209.24)" gradientUnits="userSpaceOnUse"><stop offset="0" stop-color="#9fcfa8"/><stop offset="1" stop-color="#09a650"/></radialGradient><clipPath id="clip-path-17"><path class="cls-1" d="M91.73,29.27s-.06-.92.58-1.1,1,.3,1.13.88.68,2.23.68,2.23a7.06,7.06,0,0,0,1.92,3c1.19.81,1.76.23,1.63-.52s-1-4.45-1-4.45l-.78-4.2s-.49-1.72.63-2c0,0,.83-.33,1.22.9l.75,2.54.91,3.08.51,1.76s.35,2.05,1.23,1.92.66-1.45.65-2.21-.4-4.61-.4-4.61L101,23.55l-.36-2.47s-.33-1.2.72-1.38,1.41,1.37,1.41,1.37l.8,3.47.61,3.3s.29,2.24.29,2.52.17,1.66.73,1.63,1-1.16,1-1.16a11.4,11.4,0,0,0,.38-2.38,35.64,35.64,0,0,0-.13-4.87c-.26-2.38-.84-2.82,0-3.11s1.27.93,1.27.93a18.07,18.07,0,0,1,.88,3.3,19.41,19.41,0,0,1,.09,4.23,5.06,5.06,0,0,1-2.63,3.84,16.72,16.72,0,0,1-5.45,2.5,18.3,18.3,0,0,1-6.61.31.65.65,0,0,1-.32-.23c-.16-.3-2-4.23-2-6.08"/></clipPath><linearGradient id="Безымянный_градиент_16" x1="-247.33" y1="113.89" x2="-247.15" y2="113.89" gradientTransform="matrix(-32.99, -86.29, -146.3, 55.94, 8713.6, -27721.74)" gradientUnits="userSpaceOnUse"><stop offset="0" stop-color="#173559"/><stop offset="0.08" stop-color="#0d4271"/><stop offset="0.56" stop-color="#529ed7"/><stop offset="1" stop-color="#2186c8"/></linearGradient><clipPath id="clip-path-19"><path class="cls-1" d="M112.61,23.51c-1.26.39-1.41,1.38-1.34,2.43a3.32,3.32,0,0,1-.4,1.7,17.89,17.89,0,0,0,.88-1.69,19.12,19.12,0,0,0,.86-2.44"/></clipPath><linearGradient id="Безымянный_градиент_18" x1="-230" y1="108.05" x2="-229.82" y2="108.05" gradientTransform="matrix(9.64, 0, 0, -49.8, 2328.51, 5841.03)" gradientUnits="userSpaceOnUse"><stop offset="0" stop-color="#143250"/><stop offset="1" stop-color="#0d6dab"/></linearGradient><clipPath id="clip-path-21"><polygon class="cls-1" points="110.87 27.64 110.88 27.63 110.87 27.64 110.87 27.64"/></clipPath><linearGradient id="Безымянный_градиент_18-2" x1="378.5" y1="101.69" x2="12087.36" y2="101.69" gradientTransform="matrix(0.07, 0, 0, -26.91, -38.58, 3196.47)" xlink:href="#Безымянный_градиент_18"/></defs><g id="layer1"><g id="layer1-4"><g id="g2585"><path id="path2448" class="cls-2" d="M34.94,20.19C26.6,20,19.37,21.74,16.1,24.51c3.48-2.23,9.93-3.69,17.3-3.62,11,.09,19.94,3.57,19.9,7.77s-9,7.51-20,7.41a49,49,0,0,1-8.05-.72,46.41,46.41,0,0,0,9.26,1.15c11.31.32,20.57-3.08,20.7-7.58s-8.94-8.41-20.24-8.73"/><path id="path2450" class="cls-3" d="M41.89,30.18a1.24,1.24,0,0,0,0-.16h0"/><path id="path2452" class="cls-3" d="M48.29,26.09l.36-.21h0"/><path id="path2454" class="cls-3" d="M48.63,25.87h0"/><path id="path2456" class="cls-3" d="M41.89,30.18c-.11.39-.28,1-.39,1.47h0"/><path id="path2458" class="cls-3" d="M48.65,25.88h0l.08-.07"/><path id="path2460" class="cls-3" d="M11.12,23.32a22.36,22.36,0,0,0-3.53-.13H3.86l-1.3,4.6H6.42c1.36,0,2.63.19,2.63,1.09s-1.46,1.21-3,1.21H4.8l.49-1.87c-.48,0-2.72.29-3.42,2.07l-.36,1.36H5.09c3.52,0,4,.05,5.13-.45a2.8,2.8,0,0,0,2-2.3c0-1-.92-1.67-2.15-1.92v0c1.43-.27,2.67-.91,2.67-2,0-.8-.58-1.41-1.58-1.6ZM7,26.37H5.87l.53-1.88H7.63c1.11,0,2.05-.13,2,.76,0,.72-1.11,1.11-2.69,1.11"/><path id="path2462" class="cls-3" d="M26.6,27a6,6,0,0,1,1.83.28L29,26.06a6.7,6.7,0,0,0-2.27-.33c-2.16,0-3.74.77-3.74,2C23,28.53,24,29,25,29.32c.81.24,1.08.43,1.08.7s-.35.48-1.05.48a8.32,8.32,0,0,1-2.37-.45L22,31.29a6.85,6.85,0,0,0,2.73.51c2.23,0,3.92-.72,3.92-2.06,0-.92-1.14-1.36-2-1.61s-1.11-.42-1.11-.64S26,27,26.6,27"/><path id="path2464" class="cls-3" d="M32.51,29.79a3.4,3.4,0,0,1,.16-.82l.49-1.72H35l.38-1.38H33.54l.4-1.58-2.53.48-.29,1.1H30.05l-.37,1.38h1.07l-.6,2.17A4.2,4.2,0,0,0,30,30.56c0,.7.7,1.24,2.19,1.24a6.14,6.14,0,0,0,1.47-.15l.28-1.4c-.21,0-.46,0-.69,0-.56,0-.71-.22-.71-.48"/><path id="path2466" class="cls-3" d="M34.87,31.65h2.49l1.53-5.78H36.41"/><path id="path2468" class="cls-3" d="M37.94,25.14h0c.84,0,1.54-.38,1.55-1s-.59-.9-1.32-.9-1.51.38-1.51,1,.58.89,1.26.89"/><path id="path2470" class="cls-3" d="M45.46,25.88l-2.27,1.77-.78.64h0L43,25.92H40.53L39,31.65H41.5c.11-.45.28-1.08.39-1.47l0-.16h0a1,1,0,0,0,0-.18L43,29.22l.11-.07,5.15-3.06.34-.21"/><path id="path2472" class="cls-3" d="M44.23,31l.43.65H47.5L45,28.35A2.17,2.17,0,0,0,44.23,31"/><path id="path2474" class="cls-3" d="M18.14,25.73c-3,0-5.12,1.53-5.12,3.54,0,1.64,1.68,2.53,3.75,2.53h0c2.9,0,5.16-1.36,5.16-3.57C21.94,26.74,20.36,25.73,18.14,25.73Zm-1,4.71h0c-.88,0-1.49-.43-1.49-1.19a2.2,2.2,0,0,1,2.22-2.16c1.09,0,1.48.63,1.48,1.22a2.17,2.17,0,0,1-2.19,2.13"/></g></g></g><g class="cls-4"><g class="cls-5"><path class="cls-6" d="M-12.53-71.19H793.34v1063H-12.53Z"/></g></g><g class="cls-7"><g class="cls-5"><path class="cls-8" d="M-12.53-71.19H793.34v1063H-12.53Z"/></g></g><g class="cls-9"><g class="cls-5"><path class="cls-10" d="M-12.53-71.19H793.34v1063H-12.53Z"/></g></g><g class="cls-11"><g class="cls-5"><path class="cls-12" d="M-12.53-71.19H793.34v1063H-12.53Z"/></g></g><g class="cls-13"><g class="cls-5"><path class="cls-14" d="M-12.53-71.19H793.34v1063H-12.53Z"/></g></g><g class="cls-15"><g class="cls-5"><path class="cls-16" d="M-12.53-71.19H793.34v1063H-12.53Z"/></g></g><g class="cls-17"><g class="cls-5"><path class="cls-18" d="M-12.53-71.19H793.34v1063H-12.53Z"/></g></g><g class="cls-19"><g class="cls-5"><path class="cls-20" d="M-12.53-71.19H793.34v1063H-12.53Z"/></g></g><g class="cls-21"><g class="cls-5"><path class="cls-22" d="M-12.53-71.19H793.34v1063H-12.53Z"/></g></g><g class="cls-23"><g class="cls-5"><path class="cls-24" d="M-12.53-71.19H793.34v1063H-12.53Z"/></g></g><g class="cls-25"><g class="cls-5"><path class="cls-26" d="M-12.53-71.19H793.34v1063H-12.53Z"/></g></g></svg>