<svg id="Слой_1" data-name="Слой 1" xmlns="http://www.w3.org/2000/svg" viewBox="0 0 56.69 56.69"><defs><style>.cls-1{fill:#e51b40;}</style></defs><path class="cls-1" d="M7.2,39.75a3.24,3.24,0,0,0-1.34.3V36.82a6.19,6.19,0,0,0-1.49.82.82.82,0,0,0-.31.67v7.91a7,7,0,0,0,2.37.36,3.35,3.35,0,0,0,3.7-3.49C10.13,41,9.2,39.75,7.2,39.75Zm-.67,5.39a1.52,1.52,0,0,1-.67-.1v-3.6a2.82,2.82,0,0,1,1-.2c.92,0,1.39.61,1.39,1.8S7.71,45.14,6.53,45.14ZM14.7,39.8a2.17,2.17,0,0,0-1.8.92,7.54,7.54,0,0,0-.2-.82L12,39.8l-.72.1v6.53a2.34,2.34,0,0,0,.87.1l.93-.1V43.24c0-1.28.66-2,1.54-2h.61a4.35,4.35,0,0,0,0-1.44Zm11.36-1.49v1.54l-.93-.1a3.2,3.2,0,0,0-3.34,3.49,3.06,3.06,0,0,0,3.34,3.34,7.67,7.67,0,0,0,2.73-.41V36.82a6,6,0,0,0-1.49.82A.71.71,0,0,0,26.06,38.31Zm0,6.73a2,2,0,0,1-.77.1c-1.18,0-1.65-.77-1.65-1.9s.47-2.05,1.65-2.05l.77.1Zm18.4.1c-.87,0-1.49-.72-1.49-2s.51-1.95,1.49-1.95a3.15,3.15,0,0,1,1.18.2,3,3,0,0,1,.62-1.23,3.91,3.91,0,0,0-2-.46c-2,0-3.13,1.38-3.13,3.44a3.05,3.05,0,0,0,3.19,3.39,4.07,4.07,0,0,0,2-.41,5.2,5.2,0,0,1-.72-1.28A2.46,2.46,0,0,1,44.46,45.14ZM18,39.75a7.52,7.52,0,0,0-1.95.2,3.49,3.49,0,0,0,0,1.44,5.35,5.35,0,0,1,1.64-.2c.93,0,1.39.36,1.39,1.13v.1l-.87-.1c-1.49,0-2.83.56-2.83,2s1.18,2.21,2.93,2.21a10.38,10.38,0,0,0,2.47-.36V42.47C20.82,40.67,19.84,39.8,18,39.75Zm1.08,5.39h-.77c-.82,0-1.29-.25-1.29-.82s.47-.82,1.29-.82h.77ZM49.5,39.75c-2,0-3.14,1.38-3.14,3.44s1.18,3.39,3.14,3.39,3.13-1.33,3.13-3.39S51.5,39.75,49.5,39.75Zm0,5.39c-1,0-1.29-.82-1.29-2s.26-2,1.29-2,1.33.82,1.33,2S50.47,45.14,49.5,45.14ZM32,39.75c-1.9,0-3.08,1.28-3.08,3.44a3.08,3.08,0,0,0,3.39,3.39,5,5,0,0,0,2-.36,3,3,0,0,0,0-1.39,5.79,5.79,0,0,1-1.85.31,1.62,1.62,0,0,1-1.85-1.44h4.06a4.72,4.72,0,0,0,.11-.92A2.71,2.71,0,0,0,32,39.75Zm-1.34,2.62A1.3,1.3,0,0,1,32,41.13h0c.82,0,1.13.52,1.13,1.24Zm8.28.2-.77-.31c-.41-.2-.62-.3-.62-.61s.36-.52.82-.52a5.8,5.8,0,0,1,1.7.31,3,3,0,0,0,0-1.33,4.09,4.09,0,0,0-1.95-.36c-1.39,0-2.42.72-2.42,1.85s.41,1.54,1.65,2l.56.21c.51.2.67.36.67.72s-.51.56-.93.56a5,5,0,0,1-1.95-.36,2.2,2.2,0,0,0,0,1.39,4.79,4.79,0,0,0,2.21.41c1.39,0,2.52-.72,2.52-2S39.94,43,38.91,42.57Z"/><path class="cls-1" d="M27.27,18.34a37.43,37.43,0,0,0-7.39.67A13.74,13.74,0,0,1,31,13.64a15.14,15.14,0,0,1,9.07,3c.33.34.67.5,1,.17a.68.68,0,0,0,.05-.95l-.05-.06a15.63,15.63,0,0,0-12.43-5.71A16,16,0,0,0,14,20.35L8.63,22.54c-.45.33-.62.67-.51,1A.68.68,0,0,0,9,24l.15-.08a31.7,31.7,0,0,1,4.2-1,10.39,10.39,0,0,0-.17,2.36,15.61,15.61,0,0,0,7.22,13.43c.34.17.84.17,1-.16a.79.79,0,0,0-.17-1,13.27,13.27,0,0,1-4.36-10.08A10.81,10.81,0,0,1,18,22.2l4.71-.33c11.42,0,21.16,3.86,21.16,8.73s-3.19,5-7,6.72c-.84.34-.84.67-.84,1s.5.5,1,.33c6.72-2,11.59-5.71,11.59-9.91S39.2,18.34,27.27,18.34Z"/><path class="cls-1" d="M27.61,25.66,25.26,27c-.34.16-.34.33-.34.67v8.56c0,.34.17.51.34.51h2.35Z"/><path class="cls-1" d="M32,23.14l-3,1.68h-.17V36.41h3.36a.67.67,0,0,0,.67-.67V23.65a.49.49,0,0,0-.33-.63A.51.51,0,0,0,32,23.14Z"/></svg>