<svg id="Слой_1" data-name="Слой 1" xmlns="http://www.w3.org/2000/svg" viewBox="0 0 56.69 56.69"><defs><style>.cls-1{fill:#241916;}</style></defs><path id="path137" class="cls-1" d="M6.89,44.32H6.8l-1.49,5.2a.75.75,0,0,1-.67.52H4.07L5,46.9s0-.08-.07,0A33.81,33.81,0,0,0,1,50.9S1,51,1,51H4.9c1.64,0,2.54-.5,2.86-1.72a1.36,1.36,0,0,0-1.08-1.83s0,0,0,0A1.8,1.8,0,0,0,8.34,46c.26-1.07-.52-1.67-1.45-1.65Zm27.55.74c-1.38,0-2.12.54-2.39,1.58a1.62,1.62,0,0,0,.12,1c.38.65,1.38.73,1.94,1.11a.54.54,0,0,1,.18.64.8.8,0,0,1-.85.72c-.46,0-.74-.27-.48-1.12H31.49c-.59,1.41.18,2,1.75,2s2.22-.34,2.56-1.65a1.37,1.37,0,0,0-.23-1.24c-.54-.58-1.57-.69-1.93-1a.6.6,0,0,1-.13-.61.73.73,0,0,1,.77-.59c.65,0,.66.4.5.87h1.39c.33-1-.1-1.76-1.73-1.76Zm-9.16,0c-2,0-2.58.43-3.23,3-.61,2.36-.41,3,1.78,3a9.48,9.48,0,0,0,2.11-.19l.73-2.75H25.11L24.59,50a4.19,4.19,0,0,1-.46,0c-1,0-.91-.31-.48-2s.71-2,1.35-2,.61.41.46.93H27c.25-1,.08-1.84-1.74-1.84Zm18.35,0c-1.75,0-2.51.31-3.2,3-.6,2.31-.12,3,1.66,3s2.54-.38,3.21-3C45.79,46.2,45.69,45.11,43.63,45.11Zm5.23.07c-1.2,0-1.76,0-2.09,0l-1.46,5.62a.13.13,0,0,0,.13.17h1.39L48.1,46.1h.52c.68,0,.77.24.59.93l-1,3.79a.12.12,0,0,0,.12.17h1.4l1-4C51.13,45.65,50.52,45.18,48.86,45.18Zm-39.32,0L8.09,50.81a.12.12,0,0,0,.12.17h1.4l1.26-4.88h.58c.54,0,.74.34.62.78a1.16,1.16,0,0,1-1.15.92h-.2l.58,2.81c.07.27.2.38.52.38h1.24l-.54-2.32a1.15,1.15,0,0,0-.19-.4,0,0,0,0,1,0,0,1.75,1.75,0,0,0,1.28-1.34c.25-.94-.35-1.69-1.85-1.69Zm8.05,0-1.45,5.62a.12.12,0,0,0,.12.17h1.86c2.33,0,2.73-.44,3.37-2.92.55-2.15.21-2.87-1.82-2.87Zm19.19,0-.24.94h1.55s0,0,0,0a1.41,1.41,0,0,0-.47.73l-1,3.92a.12.12,0,0,0,.12.17h1.5l1.26-4.85h.76a.8.8,0,0,0,.84-.55l.15-.39Zm-21.84,0-1.46,5.62a.13.13,0,0,0,.13.17h1.47l1.46-5.62a.13.13,0,0,0-.13-.17Zm14.52,0c-1,0-1.31.18-1.7,1.69L27,49.65c-.22.93.06,1.33.81,1.33H30a.8.8,0,0,0,.8-.55l.17-.44h-2.1c-.2,0-.27-.07-.23-.23l.35-1.38H31l.24-.91H29.17l.24-.92A.55.55,0,0,1,30,46.1h1.67l.23-.91Zm23.84,0c-1,0-1.31.18-1.7,1.69l-.72,2.77c-.22.93,0,1.33.81,1.33h2.1a.8.8,0,0,0,.8-.55l.17-.44h-2.1c-.2,0-.27-.07-.23-.23l.35-1.38h2.08l.24-.91H53l.24-.92a.54.54,0,0,1,.57-.45h1.67l.23-.91ZM43.4,46c.67,0,.74.36.31,2s-.85,2.05-1.36,2.05c-.67,0-.77-.24-.31-2.05C42.43,46.54,42.8,46,43.4,46Zm-24,.07c.9,0,.9.3.47,2S19.2,50,18.34,50h-.43l1-3.89Z"/><path class="cls-1" d="M40.54,5.62l-.5,0L31.83,34.39a4.14,4.14,0,0,1-3.68,2.86H25L30,19.9a.26.26,0,0,0-.42-.27A185.86,185.86,0,0,0,7.92,42c-.14.18-.07.45.17.45H29.57c9,0,14-2.8,15.81-9.51,1.46-5.46-1.4-9.19-6-10.15-.08,0-.15-.17,0-.2,3.87-.66,7.76-2.21,9.15-7.85,1.46-5.91-2.87-9.23-8-9.13Z"/></svg>