<svg id="Слой_1" data-name="Слой 1" xmlns="http://www.w3.org/2000/svg" xmlns:xlink="http://www.w3.org/1999/xlink" viewBox="0 0 56.69 56.69"><defs><style>.cls-1{fill:none;}.cls-2{fill:#0e5da9;fill-rule:evenodd;}.cls-3{clip-path:url(#clip-path);}.cls-4{clip-path:url(#clip-path-2);}.cls-5{fill:url(#Безымянный_градиент_7);}.cls-6{clip-path:url(#clip-path-3);}.cls-7{fill:url(#Безымянный_градиент_8);}.cls-8{clip-path:url(#clip-path-5);}.cls-9{fill:url(#Безымянный_градиент_12);}.cls-10{clip-path:url(#clip-path-7);}.cls-11{fill:url(#Безымянный_градиент_12-2);}.cls-12{clip-path:url(#clip-path-9);}.cls-13{fill:url(#Безымянный_градиент_12-3);}.cls-14{clip-path:url(#clip-path-11);}.cls-15{fill:url(#Безымянный_градиент_13);}.cls-16{clip-path:url(#clip-path-13);}.cls-17{fill:url(#Безымянный_градиент_14);}.cls-18{clip-path:url(#clip-path-15);}.cls-19{fill:url(#Безымянный_градиент_15);}.cls-20{clip-path:url(#clip-path-17);}.cls-21{fill:url(#Безымянный_градиент_16);}.cls-22{clip-path:url(#clip-path-19);}.cls-23{fill:url(#Безымянный_градиент_18);}.cls-24{clip-path:url(#clip-path-21);}.cls-25{fill:url(#Безымянный_градиент_18-2);}</style><clipPath id="clip-path"><path class="cls-1" d="M-119.47,3a17.88,17.88,0,0,0-4.93,2s-1.49,1.23-1.64,1.4a13,13,0,0,1,5.34-2.22h.13Z"/></clipPath><clipPath id="clip-path-2"><rect class="cls-1" x="-224.68" y="-71.19" width="805.87" height="1063.02"/></clipPath><linearGradient id="Безымянный_градиент_7" x1="-451" y1="105.19" x2="-450.82" y2="105.19" gradientTransform="matrix(31.13, -3.85, -6.55, -52.98, 14665.03, 4326.33)" gradientUnits="userSpaceOnUse"><stop offset="0" stop-color="#37ae6c"/><stop offset="1" stop-color="#09a650"/></linearGradient><clipPath id="clip-path-3"><path class="cls-1" d="M-115.2,12.49l1.35-1.14,1.36-1.19,1.46-1.1,1.91-1,1.85-.86,1.94-.59s-.49-.82-.9-.75-1.78.45-1.78.45a6.26,6.26,0,0,1-3.31.5c-1.48-.33.46-1.41.46-1.41l.39-.06.89-.77,1,.24.56.25.15,0h0a3.29,3.29,0,0,0-1.24-1.22,3.28,3.28,0,0,0-2.57.37,3.09,3.09,0,0,1-1.76.32s-.88-.21-.49-.43a17.12,17.12,0,0,1,2-.67V3.33A2.72,2.72,0,0,0-114,2.64a2.43,2.43,0,0,0-1.24.34l-.88.44-.58.35s-.88.66-1.34.46-.16-.81-.16-.81a1.63,1.63,0,0,1,.68-.63l-.27-.09-.08,0-.73,0-.6.15a1.74,1.74,0,0,0-.92.5,5.81,5.81,0,0,0-1,1.85A4.92,4.92,0,0,1-123,7.68c-.85.34-1.22-.12-1.22-.12a1.3,1.3,0,0,1-.19-.38c-.09-.26-.36-.64-.7-.65a1.86,1.86,0,0,0-1.91.82l-.77,1a2.61,2.61,0,0,1,2.11,1.59s.65,2.4.77,2.68a3.78,3.78,0,0,0,1.08,1.75,5.33,5.33,0,0,0,3.85.71c1.29-.26,2.56-.85,4.82-2.56"/></clipPath><linearGradient id="Безымянный_градиент_8" x1="-460.08" y1="113.57" x2="-459.9" y2="113.57" gradientTransform="matrix(-18.53, -85, -165.27, 36.04, 10316.38, -43222.77)" gradientUnits="userSpaceOnUse"><stop offset="0" stop-color="#f9b111"/><stop offset="0.49" stop-color="#eaa70d"/><stop offset="1" stop-color="#715012"/></linearGradient><clipPath id="clip-path-5"><path class="cls-1" d="M-115.09,4.62a1.44,1.44,0,0,0,1.23.29c.64-.19.29-.87.15-1a4,4,0,0,0-3.41-1.28,13.46,13.46,0,0,0-1.44.17,3,3,0,0,1,2.21.62,8.87,8.87,0,0,1,1.26,1.23"/></clipPath><linearGradient id="Безымянный_градиент_12" x1="-465.29" y1="116.62" x2="-465.11" y2="116.62" gradientTransform="matrix(-25.25, -22.19, -45.2, 51.43, -6687.49, -16203.54)" gradientUnits="userSpaceOnUse"><stop offset="0" stop-color="#fbcb0c"/><stop offset="1" stop-color="#715012"/></linearGradient><clipPath id="clip-path-7"><path class="cls-1" d="M-113.54,2.66a10.13,10.13,0,0,1,2,.36,3.32,3.32,0,0,1,2.11,1.51c.29.35.54,1.15-.12,1.2s-1.16-.84-1.16-.84l-.24-.4a3.42,3.42,0,0,0-2.59-1.83Z"/></clipPath><linearGradient id="Безымянный_градиент_12-2" x1="-464.67" y1="116.85" x2="-464.49" y2="116.85" gradientTransform="matrix(-25.75, -22.63, -44.94, 51.14, -6921.06, -16369.26)" xlink:href="#Безымянный_градиент_12"/><clipPath id="clip-path-9"><path class="cls-1" d="M-107.52,5.68s.35.8.85.8.26-.57,0-1a3,3,0,0,0-1-1c-.42-.25-1.27-.65-1.27-.65l-.26-.1a3,3,0,0,1,1,.79c.34.47.7,1.09.7,1.09"/></clipPath><linearGradient id="Безымянный_градиент_12-3" x1="-466.28" y1="117.12" x2="-466.1" y2="117.12" gradientTransform="matrix(-18.62, -16.37, -39.66, 45.13, -4245.13, -12794.41)" xlink:href="#Безымянный_градиент_12"/><clipPath id="clip-path-11"><path class="cls-1" d="M-131.17,24.93a14.92,14.92,0,0,0,2.68,4.67c2.05,2.51,2.7,2.58,2.7,2.58a3.16,3.16,0,0,0,.74.71,14,14,0,0,0,2,1.13,8.16,8.16,0,0,0,3,1l-.13-1.1-5.6-5.18-2.91-1.7-1.56-1.61Z"/></clipPath><linearGradient id="Безымянный_градиент_13" x1="-463.27" y1="121.64" x2="-463.09" y2="121.64" gradientTransform="matrix(-38.77, 42.46, 89.47, 81.69, -28588.81, 10111.92)" gradientUnits="userSpaceOnUse"><stop offset="0" stop-color="#504d4d"/><stop offset="1" stop-color="#e8e6e7"/></linearGradient><clipPath id="clip-path-13"><path class="cls-1" d="M-130.09,21.57l1.15-1.59s.37-1.37,1.15-.91,1.2,2-.45,4.37c0,0-1,1.11-.55,2.18s.89,1.74,2,1.44A10.2,10.2,0,0,0-123.93,26l4-2.93,2.45-2s.81-.76,1.5-.21-.36,1.51-.63,1.8a61.32,61.32,0,0,1-5.29,4.61l-.82.71a.62.62,0,0,0-.08.79.66.66,0,0,0,.85,0,55.49,55.49,0,0,0,5.4-3.87c1.15-1.15,2.22-2,2.22-2s.75-.76,1.4-.26-.14,1.25-.23,1.36l-2.29,2.47s-3.07,2.82-3.44,3-.72,1.56.45,1a21.15,21.15,0,0,0,3.6-2.58c.48-.51,2.35-2.36,2.35-2.36a.88.88,0,0,1,1.11-.24c.62.38-.17,1.43-.17,1.43l-1.85,2.13-1.7,1.62s-1.92,1.55-2.75,2,.31.8.48.79h.17a2.55,2.55,0,0,0,.68-.25c.36-.18,2.08-1.35,2.08-1.35l1.8-1.55s.63-.93,1.32-.64.08,1.14-.12,1.4-1.16,1.35-1.16,1.35l-3.78,2.43a3.87,3.87,0,0,1-2.88.65,6.14,6.14,0,0,1-3.3-1.75l-2.85-3.19a12.49,12.49,0,0,0-1.76-1.45,11.18,11.18,0,0,1-2.67-1.92,9.29,9.29,0,0,1-1.28-1.77s-.46-1.07-.17-1.66,1.17-1.9,1.17-1.9"/></clipPath><linearGradient id="Безымянный_градиент_14" x1="-457.62" y1="112.52" x2="-457.44" y2="112.52" gradientTransform="matrix(135.4, -81.11, -90.86, -151.66, 72324.12, -19570.06)" gradientUnits="userSpaceOnUse"><stop offset="0" stop-color="#312d2e"/><stop offset="1" stop-color="#e8e6e7"/></linearGradient><clipPath id="clip-path-15"><path class="cls-1" d="M-124.32,5a15,15,0,0,0-1.77,1.23,18,18,0,0,0-3,3.14,15.94,15.94,0,0,0-3.09,8.45,13.17,13.17,0,0,0,.1,3.3,4.81,4.81,0,0,0,1,2.57,18.17,18.17,0,0,0,7.06,3s.79.07.86-.64-1-1.15-1-1.15A28.74,28.74,0,0,1-127,23.8a10.27,10.27,0,0,1-2-1.27c-1.33-1.1-1.39-1.88-1.14-2.24s.66-.15,1.07,0l2.39.92,5.5,1.55s2.23.75,2.58-.2-.65-1.37-1-1.51-4.49-1.49-6.87-2.49-2.61-1-2.46-2c0,0,.11-.64,1.79-.3l5.48,1.1,5.08,1s1.38.33,1.59-.48-.64-1.28-1.25-1.5-6-1.75-6-1.75l-3.28-.84s-3-.35-2-1.62c0,0,.29-.43,2.48-.24a54.84,54.84,0,0,1,7.26,1.28c1.19.34,2.57.58,2.8-.29s-.62-1.25-1.9-1.64A37.61,37.61,0,0,0-123.15,10c-2.33-.24-3.74-.27-3.74-.27s-1,0-1.09-.28a1.47,1.47,0,0,1,.23-1,7.35,7.35,0,0,1,1.57-1.87Z"/></clipPath><radialGradient id="Безымянный_градиент_15" cx="-456.21" cy="116.13" r="0.18" gradientTransform="matrix(79.21, 0, 0, -79.21, 36016.13, 9209.24)" gradientUnits="userSpaceOnUse"><stop offset="0" stop-color="#9fcfa8"/><stop offset="1" stop-color="#09a650"/></radialGradient><clipPath id="clip-path-17"><path class="cls-1" d="M-120.43,29.27s0-.92.59-1.1,1,.3,1.13.88.68,2.23.68,2.23a7.06,7.06,0,0,0,1.92,3c1.18.81,1.75.23,1.63-.52s-1-4.45-1-4.45l-.78-4.2s-.5-1.72.62-2c0,0,.84-.33,1.23.9l.75,2.54.91,3.08.51,1.76s.35,2.05,1.22,1.92.67-1.45.66-2.21-.41-4.61-.41-4.61l-.43-2.89-.35-2.47s-.33-1.2.71-1.38,1.42,1.37,1.42,1.37l.8,3.47.6,3.3s.3,2.24.3,2.52.16,1.66.73,1.63,1-1.16,1-1.16a11.4,11.4,0,0,0,.38-2.38,35.64,35.64,0,0,0-.13-4.87c-.26-2.38-.85-2.82,0-3.11s1.28.93,1.28.93a18.07,18.07,0,0,1,.88,3.3,20.79,20.79,0,0,1,.09,4.23,5.06,5.06,0,0,1-2.63,3.84,16.81,16.81,0,0,1-5.45,2.5,18.34,18.34,0,0,1-6.62.31.6.6,0,0,1-.31-.23c-.16-.3-2-4.23-2-6.08"/></clipPath><linearGradient id="Безымянный_градиент_16" x1="-459.48" y1="113.89" x2="-459.3" y2="113.89" gradientTransform="matrix(-32.99, -86.29, -146.3, 55.94, 1502.08, -46028.65)" gradientUnits="userSpaceOnUse"><stop offset="0" stop-color="#173559"/><stop offset="0.08" stop-color="#0d4271"/><stop offset="0.56" stop-color="#529ed7"/><stop offset="1" stop-color="#2186c8"/></linearGradient><clipPath id="clip-path-19"><path class="cls-1" d="M-99.55,23.51c-1.26.39-1.4,1.38-1.33,2.43a3.54,3.54,0,0,1-.4,1.7A17.89,17.89,0,0,0-100.4,26a18.3,18.3,0,0,0,.85-2.44"/></clipPath><linearGradient id="Безымянный_градиент_18" x1="-442.15" y1="108.05" x2="-441.97" y2="108.05" gradientTransform="matrix(9.64, 0, 0, -49.8, 4161.92, 5841.03)" gradientUnits="userSpaceOnUse"><stop offset="0" stop-color="#143250"/><stop offset="1" stop-color="#0d6dab"/></linearGradient><clipPath id="clip-path-21"><polygon class="cls-1" points="-101.28 27.64 -101.27 27.63 -101.28 27.64 -101.28 27.64"/></clipPath><linearGradient id="Безымянный_градиент_18-2" x1="166.35" y1="101.69" x2="11875.21" y2="101.69" gradientTransform="matrix(0.07, 0, 0, -26.91, -236.13, 3196.47)" xlink:href="#Безымянный_градиент_18"/></defs><g id="Layer_1"><g id="_218150328" data-name=" 218150328"><path id="_217143760" data-name=" 217143760" class="cls-2" d="M54.61,24.55c-3,0-4.67,1.71-4.73,3.93a4.88,4.88,0,0,0-4.88-4,4.8,4.8,0,0,0-4.81,4,3.9,3.9,0,0,0-3.81-3.94,3.37,3.37,0,0,0-2.4,1V22.4H31.69v6.88a6.83,6.83,0,0,1,0,.7,2.15,2.15,0,0,1-2.15,2.14A1.93,1.93,0,0,1,27.4,30c0-.28,0-.39,0-.59V26.82H31V24.66H27.39V22.4H25.06v6.05a4.91,4.91,0,0,0-8.62-2.14V24.55h-.25c-3,0-4.61,1.65-4.73,3.81a4.61,4.61,0,0,0-4.53-3.81,3.88,3.88,0,0,0-2.86,1.17V22.38H1.83v5.8c0,.43,0,.83,0,1.22a4.74,4.74,0,0,0,4.82,4.89,4.76,4.76,0,0,0,4.8-3.82v3.59h2.29V29.59c0-.21,0-.43,0-.64a2.17,2.17,0,0,1,2.36-2.2,4.79,4.79,0,0,0-.78,2.65,4.9,4.9,0,0,0,9.71,1h0a4,4,0,0,0,4.17,4,3.4,3.4,0,0,0,2.46-1.08v.82H34V29.19c0-.12,0-.21,0-.3.06-1.56,1-2.24,2-2.24s1.85.68,1.89,2.23c0,.14,0,.23,0,.38v4.79h2.32V30.42A4.73,4.73,0,0,0,45,34.28a4.5,4.5,0,0,0,4.62-3.53H47.38A2.48,2.48,0,0,1,45,32.38a2.62,2.62,0,0,1-2.59-2.25h7.47v3.93h2.3V29.59c0-.21,0-.43,0-.64a2.17,2.17,0,0,1,2.41-2.2h.26v-2.2ZM6.66,32.08A2.68,2.68,0,1,1,9.34,29.4,2.65,2.65,0,0,1,6.66,32.08Zm13.59,0a2.68,2.68,0,1,1,2.68-2.68A2.65,2.65,0,0,1,20.25,32.08Zm22.26-3.76a2.59,2.59,0,0,1,5,0Z"/></g></g><g class="cls-3"><g class="cls-4"><path class="cls-5" d="M-224.68-71.19H581.19v1063H-224.68Z"/></g></g><g class="cls-6"><g class="cls-4"><path class="cls-7" d="M-224.68-71.19H581.19v1063H-224.68Z"/></g></g><g class="cls-8"><g class="cls-4"><path class="cls-9" d="M-224.68-71.19H581.19v1063H-224.68Z"/></g></g><g class="cls-10"><g class="cls-4"><path class="cls-11" d="M-224.68-71.19H581.19v1063H-224.68Z"/></g></g><g class="cls-12"><g class="cls-4"><path class="cls-13" d="M-224.68-71.19H581.19v1063H-224.68Z"/></g></g><g class="cls-14"><g class="cls-4"><path class="cls-15" d="M-224.68-71.19H581.19v1063H-224.68Z"/></g></g><g class="cls-16"><g class="cls-4"><path class="cls-17" d="M-224.68-71.19H581.19v1063H-224.68Z"/></g></g><g class="cls-18"><g class="cls-4"><path class="cls-19" d="M-224.68-71.19H581.19v1063H-224.68Z"/></g></g><g class="cls-20"><g class="cls-4"><path class="cls-21" d="M-224.68-71.19H581.19v1063H-224.68Z"/></g></g><g class="cls-22"><g class="cls-4"><path class="cls-23" d="M-224.68-71.19H581.19v1063H-224.68Z"/></g></g><g class="cls-24"><g class="cls-4"><path class="cls-25" d="M-224.68-71.19H581.19v1063H-224.68Z"/></g></g></svg>