<svg id="Слой_1" data-name="Слой 1" xmlns="http://www.w3.org/2000/svg" xmlns:xlink="http://www.w3.org/1999/xlink" viewBox="0 0 56.69 56.69"><defs><style>.cls-1{fill:none;}.cls-2{clip-path:url(#clip-path);}.cls-3{fill:#dc1e31;}.cls-3,.cls-4,.cls-5{fill-rule:evenodd;}.cls-4,.cls-6{fill:#fff;}.cls-5{fill:#010101;}</style><clipPath id="clip-path"><rect class="cls-1" x="0.86" y="14.83" width="54.96" height="27.03"/></clipPath></defs><g class="cls-2"><path class="cls-3" d="M.86,28.35c0-7.47,12.31-13.52,27.49-13.52s27.48,6,27.48,13.52S43.52,41.86,28.35,41.86.86,35.81.86,28.35Z"/><path class="cls-4" d="M30.22,39.68a.74.74,0,1,0,.74.74A.74.74,0,0,0,30.22,39.68Zm-1.87,0a.74.74,0,1,0,.73.74A.74.74,0,0,0,28.35,39.68Zm-1.9,0a.74.74,0,1,0,.73.74A.74.74,0,0,0,26.45,39.68Zm5.64-.1a.74.74,0,1,0,.74.73A.73.73,0,0,0,32.09,39.58Zm-7.51,0a.74.74,0,1,0,.73.73A.74.74,0,0,0,24.58,39.58ZM34,39.39a.74.74,0,1,0,.74.74A.74.74,0,0,0,34,39.39Zm-11.33,0a.74.74,0,1,0,.73.74A.74.74,0,0,0,22.67,39.39ZM36,39.17a.74.74,0,1,0,.74.74A.74.74,0,0,0,36,39.17Zm-15.29,0a.74.74,0,1,0,.73.74A.74.74,0,0,0,20.69,39.17ZM38,38.85a.73.73,0,1,0,0,1.46.73.73,0,1,0,0-1.46Zm-19.25,0a.73.73,0,1,0,.73.73A.73.73,0,0,0,18.71,38.85Zm21.23-.44a.74.74,0,1,0,.73.74A.74.74,0,0,0,39.94,38.41Zm-23.21,0a.74.74,0,1,0,.74.74A.74.74,0,0,0,16.73,38.41ZM42,37.92a.74.74,0,1,0,.73.74A.73.73,0,0,0,42,37.92Zm-27.27,0a.74.74,0,0,0,0,1.47.74.74,0,0,0,0-1.47Zm29.18-.61a.74.74,0,1,0,.73.74A.74.74,0,0,0,43.88,37.31Zm-31.09,0a.74.74,0,1,0,.74.74A.74.74,0,0,0,12.79,37.31Zm33.07-.77a.74.74,0,1,0,.73.74A.73.73,0,0,0,45.86,36.54Zm-35,0a.74.74,0,0,0,0,1.47.74.74,0,0,0,0-1.47Zm37-.9a.74.74,0,1,0,.73.73A.73.73,0,0,0,47.78,35.64Zm-38.89,0a.74.74,0,0,0,0,1.47.74.74,0,0,0,0-1.47Zm40.8-1.11a.74.74,0,1,0,.73.73A.74.74,0,0,0,49.69,34.53ZM7,34.53a.74.74,0,1,0,.74.73A.73.73,0,0,0,7,34.53ZM51.5,33.17a.74.74,0,1,0,.73.73A.74.74,0,0,0,51.5,33.17Zm-46.33,0a.74.74,0,1,0,.74.73A.73.73,0,0,0,5.17,33.17ZM53,31.47a.74.74,0,1,0,.73.73A.74.74,0,0,0,53,31.47Zm-49.41,0a.74.74,0,1,0,.74.73A.73.73,0,0,0,3.63,31.47ZM54,29.65a.73.73,0,1,0,.73.73A.73.73,0,0,0,54,29.65Zm-51.33,0a.73.73,0,1,0,0,1.46.73.73,0,1,0,0-1.46Zm51.73-2a.74.74,0,1,0,.73.74A.74.74,0,0,0,54.4,27.61Zm-52.13,0a.74.74,0,1,0,.74.74A.74.74,0,0,0,2.27,27.61Zm51.73-2a.74.74,0,1,0,.73.73A.74.74,0,0,0,54,25.58Zm-51.33,0a.74.74,0,1,0,.74.73A.73.73,0,0,0,2.67,25.58ZM53,23.76a.73.73,0,1,0,.73.73A.73.73,0,0,0,53,23.76Zm-49.41,0a.73.73,0,1,0,0,1.46.73.73,0,1,0,0-1.46Zm47.87-1.7a.73.73,0,1,0,0,1.46.73.73,0,0,0,0-1.46Zm-46.33,0a.73.73,0,1,0,.74.73A.73.73,0,0,0,5.17,22.06ZM49.69,20.7a.74.74,0,1,0,.73.73A.74.74,0,0,0,49.69,20.7ZM7,20.7a.74.74,0,1,0,.74.73A.73.73,0,0,0,7,20.7Zm40.8-1.12a.74.74,0,0,0,0,1.47.74.74,0,0,0,0-1.47Zm-38.89,0a.74.74,0,1,0,.73.74A.73.73,0,0,0,8.89,19.58Zm37-.9a.74.74,0,1,0,.73.74A.73.73,0,0,0,45.86,18.68Zm-35,0a.74.74,0,0,0,0,1.47.74.74,0,0,0,0-1.47Zm33.07-.77a.74.74,0,1,0,.73.74A.74.74,0,0,0,43.88,17.91Zm-31.09,0a.74.74,0,1,0,.74.74A.74.74,0,0,0,12.79,17.91Zm15.55-.33c-13.66,0-24.72,4.82-24.72,10.77S14.68,39.11,28.34,39.11s24.71-4.82,24.71-10.76S42,17.58,28.34,17.58ZM42,17.3a.74.74,0,0,0,0,1.47.74.74,0,0,0,0-1.47Zm-27.27,0a.74.74,0,1,0,.73.73A.73.73,0,0,0,14.7,17.3Zm25.24-.49a.74.74,0,1,0,.73.74A.74.74,0,0,0,39.94,16.81Zm-23.21,0a.74.74,0,1,0,.74.74A.74.74,0,0,0,16.73,16.81ZM38,16.38a.74.74,0,1,0,.74.73A.73.73,0,0,0,38,16.38Zm-19.25,0a.74.74,0,1,0,.73.73A.74.74,0,0,0,18.71,16.38ZM36,16.05a.74.74,0,1,0,.74.74A.74.74,0,0,0,36,16.05Zm-15.29,0a.74.74,0,1,0,.73.74A.74.74,0,0,0,20.69,16.05ZM34,15.83a.74.74,0,1,0,.74.74A.74.74,0,0,0,34,15.83Zm-11.33,0a.74.74,0,1,0,.73.74A.74.74,0,0,0,22.67,15.83Zm9.42-.18a.73.73,0,1,0,.74.73A.73.73,0,0,0,32.09,15.65Zm-7.51,0a.73.73,0,1,0,.73.73A.73.73,0,0,0,24.58,15.65Zm5.64-.11a.74.74,0,1,0,.74.74A.74.74,0,0,0,30.22,15.54Zm-1.87,0a.74.74,0,1,0,.73.74A.74.74,0,0,0,28.35,15.54Zm-1.9,0a.74.74,0,1,0,.73.74A.74.74,0,0,0,26.45,15.54ZM28.34,15c15.09,0,27.33,6,27.33,13.38S43.43,41.72,28.34,41.72,1,35.73,1,28.35,13.24,15,28.34,15Z"/><path class="cls-5" d="M31.77,28.75l-.43,1.53h.9Zm-1.35-4.19H32l1,1,2.33,8.38H33.76l-1-1-.12-.41H30.79l-.33,1.38H29.07l-1-1Z"/><path class="cls-5" d="M23.12,24.56h3a1.16,1.16,0,0,1,.77.29l.94,1a2.22,2.22,0,0,1,.23.84L28,27.78H26.5l-1-1h-.94l0,4.73h.58a.38.38,0,0,0,.39-.39V29.43h-.61V28.29h2.34l.77.81c0,1.18,0,2.27,0,3.46a1.62,1.62,0,0,1-1.42,1.35H24.1a1.14,1.14,0,0,1-.78-.29l-1.09-1.1a1.5,1.5,0,0,1-.24-.71V25.68A1.13,1.13,0,0,1,23.12,24.56Z"/><path class="cls-5" d="M40.14,24.56h5.65l.45.63v1.73H44.8c0,2.33,0,4.66,0,7H43.08l-1-1v-6H40.94l-.8-.64Z"/><path class="cls-5" d="M14.75,24.56h1.81l1,1v6H18a.38.38,0,0,0,.39-.38v-6.6h1.73l1,1v7.25a1.13,1.13,0,0,1-1.13,1.13H16.85a1.2,1.2,0,0,1-.75-.31L15,32.5a1.56,1.56,0,0,1-.24-.69V24.56Z"/><path class="cls-5" d="M46.68,24.56h1.73l1,1v8.38H47.65l-1-1Z"/><path class="cls-5" d="M33.77,24.56h5.64l.46.63v1.73H38.42c0,2.33,0,4.66,0,7H36.71l-1-1v-6H34.57l-.8-.64Z"/><path class="cls-5" d="M10,30.17v1.37h.58a.73.73,0,0,0,.73-.73v-.64Zm0-3.24v.87h.46a.57.57,0,0,0,.57-.58v-.29ZM7.31,24.56H11.7a1.56,1.56,0,0,1,.71.25,6.32,6.32,0,0,1,1.06,1.07,1.35,1.35,0,0,1,.26.71V28.4a1.07,1.07,0,0,1-.65,1A1.79,1.79,0,0,1,14,31v1.38a1.52,1.52,0,0,1-1.53,1.53H8.28l-1-1Z"/><path class="cls-4" d="M14.75,24.56h1.8v6.59a.4.4,0,0,0,.39.39h1a.4.4,0,0,0,.39-.39V24.56h1.72v7.25A1.12,1.12,0,0,1,19,32.93H15.88a1.13,1.13,0,0,1-1.13-1.12V24.56Z"/><path class="cls-4" d="M23.12,24.56h3a1.12,1.12,0,0,1,1.13,1.12V26.8H25.53v-.46a.4.4,0,0,0-.39-.39h-1a.4.4,0,0,0-.39.39v4.81a.4.4,0,0,0,.39.39h1a.4.4,0,0,0,.39-.39V29.43h-.61V28.29h2.33v3.52a1.12,1.12,0,0,1-1.13,1.12h-3A1.13,1.13,0,0,1,22,31.81V25.68A1.13,1.13,0,0,1,23.12,24.56Z"/><rect class="cls-6" x="46.68" y="24.56" width="1.73" height="8.38"/><path class="cls-4" d="M40.14,24.56h5.65v1.72h-2v6.65H42.1V26.28h-2Z"/><path class="cls-4" d="M33.77,24.56h5.64v1.72h-2v6.65H35.73V26.28h-2Z"/><path class="cls-4" d="M31.2,27.33l-.77,2.75H32Zm-.78-2.77H32l2.32,8.37H32.79l-.4-1.38H30l-.39,1.38H28.1Z"/><path class="cls-4" d="M9,29.19v2.35h1.55a.73.73,0,0,0,.72-.73v-.89a.73.73,0,0,0-.72-.73ZM9,26v1.84h1.43a.57.57,0,0,0,.57-.57v-.7a.58.58,0,0,0-.57-.57ZM7.31,24.56h4.38a1.06,1.06,0,0,1,1.06,1.06v1.81a1.06,1.06,0,0,1-1.06,1.06l.11,0A1.53,1.53,0,0,1,13,30V31.4a1.52,1.52,0,0,1-1.52,1.53H7.31Z"/><path class="cls-5" d="M28.77,21.28v1h1a.51.51,0,1,0,0-1ZM30,19.75H28.77v.69H30a.36.36,0,0,0,.35-.35A.35.35,0,0,0,30,19.75Zm-4.75-.82h5.19A1.09,1.09,0,0,1,31.49,20a1.15,1.15,0,0,1-.32.78l-.19.12.15.1a1,1,0,0,1,.36.86,1.24,1.24,0,0,1-1.23,1.24H25.2V21.7h.74v.59h1.77v-1h-.62v.29h-.74V20.15h.74v.3h.62v-.69H25.94v.59H25.2Z"/></g></svg>