<svg id="Слой_1" data-name="Слой 1" xmlns="http://www.w3.org/2000/svg" viewBox="0 0 56.69 56.69"><defs><style>.cls-1{fill:#fff;}.cls-2{fill:#396cb3;}.cls-3{fill:#e84436;}.cls-4{fill:#32a853;}.cls-5{fill:#517cbe;}.cls-6{fill:#198139;}.cls-7{fill:#fbbc0c;}.cls-8{fill:#3264ae;}</style></defs><path class="cls-1" d="M40.72,16,29.58,14.74,16,16,14.74,28.35,16,40.72l12.38,1.55,12.37-1.55L42,28Z"/><path class="cls-2" d="M21.05,35.17a4.77,4.77,0,0,1-1.92-2.74l2.15-.89a3.36,3.36,0,0,0,1,1.73,2.62,2.62,0,0,0,1.76.61,2.76,2.76,0,0,0,1.81-.64,2.06,2.06,0,0,0,.76-1.63,2,2,0,0,0-.8-1.66,3.13,3.13,0,0,0-2-.64H22.59V27.19H23.7a2.73,2.73,0,0,0,1.74-.56,1.83,1.83,0,0,0,.7-1.52,1.68,1.68,0,0,0-.63-1.38,2.46,2.46,0,0,0-1.6-.52,2.13,2.13,0,0,0-1.5.51A3,3,0,0,0,21.6,25l-2.12-.89A4.72,4.72,0,0,1,21,22a4.49,4.49,0,0,1,2.9-.91,5.29,5.29,0,0,1,2.35.5A4.06,4.06,0,0,1,27.91,23a3.59,3.59,0,0,1,.59,2A3.34,3.34,0,0,1,28,26.88a3.79,3.79,0,0,1-1.35,1.21v.13a4.08,4.08,0,0,1,1.73,1.34A3.54,3.54,0,0,1,29,31.73,4,4,0,0,1,28.36,34a4.52,4.52,0,0,1-1.76,1.56,5.71,5.71,0,0,1-2.54.56A5.15,5.15,0,0,1,21.05,35.17Z"/><path class="cls-2" d="M34.22,24.52l-2.34,1.7L30.7,24.43l4.23-3.05h1.62V35.77H34.22Z"/><path class="cls-3" d="M40.72,51.86,51.86,40.72l-5.57-2.47-5.57,2.47-2.47,5.57Z"/><path class="cls-4" d="M13.5,46.29,16,51.86H40.72V40.72H16Z"/><path class="cls-5" d="M8.55,4.84A3.71,3.71,0,0,0,4.84,8.55V40.72l5.57,2.47L16,40.72V16H40.72l2.47-5.56L40.72,4.84Z"/><path class="cls-6" d="M4.84,40.72v7.42a3.72,3.72,0,0,0,3.71,3.72H16V40.72Z"/><path class="cls-7" d="M40.72,16V40.72H51.86V16L46.29,13.5Z"/><path class="cls-8" d="M51.86,16V8.55a3.72,3.72,0,0,0-3.72-3.71H40.72V16Z"/></svg>