<svg id="Слой_1" data-name="Слой 1" xmlns="http://www.w3.org/2000/svg" viewBox="0 0 56.69 56.69"><defs><style>.cls-1{fill:#c01b21;}</style></defs><g id="g3"><g id="g5"><g id="g7"><g id="g9"><path id="path11" class="cls-1" d="M9.85,33a4.63,4.63,0,0,1,0-9.25,4.56,4.56,0,0,1,2.45.71L9.85,28.35l4.62-2.67a6.49,6.49,0,0,0-2.09-2A8.66,8.66,0,0,0,8,22.6a7.73,7.73,0,0,0-5.74,2.21,5.18,5.18,0,0,0,0,7.08A7.69,7.69,0,0,0,8,34.09a7.72,7.72,0,0,0,5.68-2.2l.18-.22L13.64,31a4.6,4.6,0,0,1-3.79,2"/><path id="path13" class="cls-1" d="M25.15,33.81l-1.94-7.22a2.73,2.73,0,0,0-2.64-2,2.6,2.6,0,0,0-.93.17l-4.17,1.52h4.29L20.49,29a4.06,4.06,0,0,0-2.65-1c-2,0-3.64,1.35-3.64,3s1.63,3,3.64,3a4.34,4.34,0,0,0,3.52-1.8l.42,1.59h3.37m-5.91-1.12A1.68,1.68,0,1,1,20.92,31,1.68,1.68,0,0,1,19.24,32.69Z"/><path id="path15" class="cls-1" d="M33,24.57a1.71,1.71,0,0,0-.71.15L29.65,26A1.67,1.67,0,0,0,28,24.57a1.64,1.64,0,0,0-.71.15L24,26.25h2.29v7.56h3.37V27.09a.84.84,0,0,1,1.68,0v6.72h3.36V26.25A1.68,1.68,0,0,0,33,24.57"/><path id="path17" class="cls-1" d="M54.13,24.57a1.72,1.72,0,0,0-.72.15L50.74,26a1.67,1.67,0,0,0-1.66-1.4,1.71,1.71,0,0,0-.71.15L45.1,26.25h2.3v7.56h3.36V27.09a.84.84,0,1,1,1.68,0v6.72h3.37V26.25a1.68,1.68,0,0,0-1.68-1.68"/><path id="path19" class="cls-1" d="M45.65,29.33a4.77,4.77,0,1,1-4.76-4.76,4.76,4.76,0,0,1,4.76,4.76M41.08,26a1,1,0,0,0-1.28-.74,1.06,1.06,0,0,0-.75,1.29l1.64,6.08a1,1,0,0,0,1.28.75,1.06,1.06,0,0,0,.75-1.29Z"/></g></g></g></g></svg>