<svg id="Слой_1" data-name="Слой 1" xmlns="http://www.w3.org/2000/svg" viewBox="0 0 56.69 56.69"><defs><style>.cls-1{fill:#cd2727;}.cls-2{fill:#003d5b;}</style></defs><path class="cls-1" d="M38.52,29.59h0c-2.24,1.58-4.87,3.24-7.72,5l-.11.06a.09.09,0,0,0,.06.17l0,0,.08-.05c2.43-1.25,5.2-2.75,8-4.29l0,0A3.21,3.21,0,0,1,38.52,29.59ZM53.18,17.72c-3.52-3.88-26.18-.39-35.81,1.72l-.22,0a.1.1,0,0,0-.08.1.07.07,0,0,0,.09.06h0l.23,0c8-1.42,24.58-3.39,28.15.15,1.09,1.08.84,2.48-.43,4.12a3.22,3.22,0,0,1,1.38,2C51.43,22.59,54.75,19.45,53.18,17.72Z"/><path class="cls-2" d="M19.61,26.55a1.31,1.31,0,0,0-.77.25,1.17,1.17,0,0,0-.41.76.91.91,0,0,0,.11.82.89.89,0,0,0,.67.26,1.33,1.33,0,0,0,.55-.12.93.93,0,0,0,.41-.35,1.49,1.49,0,0,0,.24-.58.79.79,0,0,0-.8-1ZM15.7,31.42l1.05-5.87h1.88l-.15.75a1.72,1.72,0,0,1,.79-.56,3.21,3.21,0,0,1,1.22-.25,2.2,2.2,0,0,1,1.15.21,1.53,1.53,0,0,1,.75.83,2,2,0,0,1,.1,1.19,2.58,2.58,0,0,1-1,1.72,2.84,2.84,0,0,1-1.83.53,2.51,2.51,0,0,1-.67-.08,1.52,1.52,0,0,1-.42-.16,2.82,2.82,0,0,1-.36-.33l-.35,2ZM37.43,29.9H35.24l1.11-6.1,2.12.05Zm-10.9-4.4.16-.89,2.23-.48-.24,1.37h1.11l-.22.89H28.51l-.64,3.51H25.69l.66-3.51h-.82l.16-.88h.84ZM9.14,28.33a7.09,7.09,0,0,1-1.78.19c-1,0-1.83-.5-1.78-1.44A2.4,2.4,0,0,1,8.2,25.16a3.06,3.06,0,0,1,1.67.45l.26-1.52A5.24,5.24,0,0,0,8,23.74c-2.44,0-4.79,1.13-5.08,3.39S5.45,30,6.69,30c.72,0,1.47,0,2.16-.1ZM33,27.9l-.37.1-.84.15a1.22,1.22,0,0,0-.56.17.4.4,0,0,0-.19.28.28.28,0,0,0,.11.3,1.08,1.08,0,0,0,.54.1,1.67,1.67,0,0,0,.55-.08,1.17,1.17,0,0,0,.46-.23.68.68,0,0,0,.18-.29A2.27,2.27,0,0,0,33,27.9Zm2.31-1.45c0,.22,0,.42-.1.73l-.39,2.2a.39.39,0,0,0,.21.45v.07H32.73v-.56a4.22,4.22,0,0,1-1.07.46,4,4,0,0,1-1.08.13,2.07,2.07,0,0,1-1.42-.33.89.89,0,0,1-.42-.78,1.23,1.23,0,0,1,.28-.65,1.61,1.61,0,0,1,.59-.41,3,3,0,0,1,.89-.25c.4-.07.95-.13,1.69-.19a3.51,3.51,0,0,0,.73-.16c.15-.07.22-.13.24-.26s0-.35-.33-.41a9.17,9.17,0,0,0-3.08.29l.41-1.13a20.13,20.13,0,0,1,3-.25c1.59,0,2.11.47,2.1,1.05ZM22.43,29.9l.78-4.38h2.15l-.78,4.38Zm.9-5.38c.07-.36.63-.65,1.27-.65s1.09.29,1,.65-.63.65-1.27.65S23.27,24.87,23.33,24.52Zm-9.68,3.36a1.56,1.56,0,0,1-.37.1l-.83.15a1.41,1.41,0,0,0-.57.18.37.37,0,0,0-.19.29.26.26,0,0,0,.12.29.89.89,0,0,0,.53.11,1.71,1.71,0,0,0,.55-.09,1.22,1.22,0,0,0,.45-.24.53.53,0,0,0,.19-.29A2.15,2.15,0,0,0,13.65,27.88ZM16,26.45c0,.22-.05.4-.11.73l-.38,2.18a.4.4,0,0,0,.21.46v.08H13.43v-.55a5.13,5.13,0,0,1-1.08.45,3.76,3.76,0,0,1-1.06.14c-.73,0-1.15-.07-1.42-.33a.92.92,0,0,1-.43-.79,1.23,1.23,0,0,1,.28-.64,1.67,1.67,0,0,1,.59-.42,3.54,3.54,0,0,1,.9-.25c.39-.07.94-.13,1.68-.19a2,2,0,0,0,.73-.16c.16-.07.21-.13.24-.26a.36.36,0,0,0-.33-.41,9.15,9.15,0,0,0-3.08.3l.41-1.14a20,20,0,0,1,3-.25C15.45,25.4,16,25.86,16,26.45Z"/><path class="cls-2" d="M46.16,27l.49-.05c.17,0,.3,0,.32.19a8.48,8.48,0,0,1-.2.92l-.34,1.46c-.13.61-.28,1.23-.41,1.74h.86L47.36,29c1.48-1.53,2-2,2.38-2a.25.25,0,0,1,.28.22v.06a5.11,5.11,0,0,1-.22,1.05L49.3,30a4,4,0,0,0-.18,1,.59.59,0,0,0,.57.54c.63,0,1.09-.65,1.48-1.29L51.06,30c-.17.25-.53.81-.83.81-.09,0-.18-.06-.18-.21a2.63,2.63,0,0,1,.13-.69l.55-2a5.55,5.55,0,0,0,.21-1.09.62.62,0,0,0-.56-.54c-.57,0-1.32.42-2.9,2.24h0l.2-.9c.11-.49.21-1,.31-1.34a15.82,15.82,0,0,1-1.82.52Zm8.4.05A.53.53,0,0,0,54,26.5c-.88,0-1.81,1.72-2,2.41C53.47,28.91,54.6,28.06,54.56,27.09Zm.19,2.7.16.11a2.67,2.67,0,0,1-2.32,1.57A1.51,1.51,0,0,1,51,29.88a3.67,3.67,0,0,1,3.13-3.63c.61,0,1.19.28,1.21.94.05,1.5-2,1.95-3.42,2a1.75,1.75,0,0,0-.05.56,1.1,1.1,0,0,0,1.17,1.14A2.09,2.09,0,0,0,54.75,29.79ZM40,28.57a2.32,2.32,0,0,0,2,2.49c2.19,0,3.12-2.69,3.05-4.48A2.35,2.35,0,0,0,43,24.09C41.09,24.09,39.88,26.77,40,28.57ZM38.8,28.5a4.52,4.52,0,0,1,4.39-4.72,2.87,2.87,0,0,1,3,3A4.38,4.38,0,0,1,41.8,31.5,2.86,2.86,0,0,1,38.8,28.5Z"/></svg>