<svg id="Слой_1" data-name="Слой 1" xmlns="http://www.w3.org/2000/svg" viewBox="0 0 56.69 56.69"><defs><style>.cls-1{fill:#010101;}</style></defs><g id="CBN"><g id="g4"><path id="path2" class="cls-1" d="M13.67,28.58a2.51,2.51,0,0,1,.19-.24,5.17,5.17,0,0,0,.39-.53.87.87,0,0,1,.08-.14,2.9,2.9,0,0,0-.26-2.22,1.88,1.88,0,0,0-.87-1,2.23,2.23,0,0,0,.15.56C14,27.06,10,27.78,11,30.2l.09.17a2,2,0,0,0,1.07.89l.24.13c.39.12.18-.09.16-.32A2,2,0,0,1,13,29.62a6.65,6.65,0,0,1,.72-1Zm4.85,3c-.54,2.38-5,2.29-6.78,2.14-3.38-.53-7.1-2-7.1-6,0-2.31,1.41-4.94,7.1-4.94,5.89,0,6.5,1.6,6.54,2.75,0,.13.49.14.51-.05.17-.38.05-.68.07-1.35S19,23,19,22.47c-1.73-.25-2-.3-3-.39A36.79,36.79,0,0,0,11.74,22C3.68,22,1,25.76,1,28.06s1.48,6,10.78,6.64c5,0,6.22-.32,6.5-.47a9.93,9.93,0,0,0,.83-2.42A.3.3,0,0,0,18.52,31.6Zm-6.64-4.7s.74-.56.42-.49-.52.26-.72.33c-1.19.37-2.27.6-2.91,1.46a1.4,1.4,0,0,0-.19,1.29c.37,1.14,1.47,1.56,2.68,1.88C9.09,29.78,10.58,28.08,11.88,26.9Zm2.19,3.93c1-.49,2.42-.63,2-2.28a3.35,3.35,0,0,0-1-1.61,6,6,0,0,1-1.35,2.59,3.06,3.06,0,0,0-.52,1,2.27,2.27,0,0,0,.1.88A3.34,3.34,0,0,1,14.07,30.83Zm40.05-8.59c-1.32.1-2.68,0-4,0-.35,0-.77,0-1.19,0-.09,0-.16.25-.16.25a7.1,7.1,0,0,1,2.23.28,1.37,1.37,0,0,1,.42.63,10.27,10.27,0,0,1,.17,2.29c0,1.83.19,3.84.19,5.75a10.45,10.45,0,0,1-1.49-.93c-.66-.42-1.27-.82-1.94-1.22-.12-.07-.33-.25-.44-.32-2.7-1.68-5.1-3.31-7.75-4.92-.47-.28-2.9-2.12-3.31-2.07s-.23.23-.26.52c-.09.69,0,1.56,0,2.34-.07,2.12-.09,4.45-.18,6.67a5.59,5.59,0,0,1-.24,2.39c-.32.5-1.41.36-2.12.47a1.46,1.46,0,0,1,0,.21,12.18,12.18,0,0,0,1.91,0c1.64-.12,3.78.26,5.22-.11V34.3c-.72-.11-1.75.05-2.23-.32a2.48,2.48,0,0,1-.47-1.09c-.14-1.05-.05-2.06-.14-3.13-.11-1.37-.18-2.81-.18-4.21.57.28,1,.65,1.53.95.77.47,1.45.94,2.21,1.44l.56.42c2.12,1.28,4,2.59,6.17,3.89.21.12.51.33.72.47.7.42,1.36.79,2.06,1.19a3.92,3.92,0,0,0,1.7.82c.06-.07.2-.08.21-.15.09-.51,0-1.76.06-2.33.08-2.53,0-5.14.14-7.68A3.44,3.44,0,0,1,53.71,23c.32-.51,1.27-.42,2-.53a.78.78,0,0,1,0-.21,14.42,14.42,0,0,0-1.61,0ZM33.81,29.42a2.65,2.65,0,0,0-.3-.29,2.47,2.47,0,0,0-.27-.21,9.83,9.83,0,0,0-3.52-1.42c.44-.3.9-.58,1.32-.91l.28-.27a3,3,0,0,0,.51-.44,1.74,1.74,0,0,0,.38-1.75c-.68-2.1-4.64-2.05-8.15-1.93-1.12,0-2.07,0-3.19,0a4.83,4.83,0,0,0-1.14,0c-.17,0-.24.28-.15.21v.05c.89.12,2.24-.09,2.48.67,0,.09,0,.63.06.72.05,1.19,0,2.2,0,3.47a48.63,48.63,0,0,1-.06,5.8c-.15,1.22-.91.93-2.06,1.08l-.06.21c1.9.21,4-.1,6,.06A15.2,15.2,0,0,0,31.6,34C33.3,33.39,35.56,31.51,33.81,29.42ZM25.25,23c.11,0,.35-.14.48-.16a5.06,5.06,0,0,1,2.49.42l.12.07a1.57,1.57,0,0,1,.35.25,2.3,2.3,0,0,1,.72,2.71,2.14,2.14,0,0,1-.41.44,2.25,2.25,0,0,1-.87.63l-.46.07a9.18,9.18,0,0,1-2.4-.07,20.51,20.51,0,0,1,0-4.36Zm5.91,9.37a4.9,4.9,0,0,1-.21.46,2.94,2.94,0,0,1-2.49,1.05,8.06,8.06,0,0,1-1.61-.16c-.58-.08-1.28-.1-1.51-.52a2.1,2.1,0,0,1-.1-.93c-.07-.91-.06-2-.06-3,0-.3,0-.7,0-1a.23.23,0,0,1,.11-.11,10.7,10.7,0,0,1,2.84.21,10.54,10.54,0,0,1,1.08.32,3,3,0,0,1,1.91,2A4.34,4.34,0,0,1,31.16,32.33Z"/></g></g></svg>