<svg id="Слой_1" data-name="Слой 1" xmlns="http://www.w3.org/2000/svg" viewBox="0 0 56.69 56.69"><defs><style>.cls-1{fill:#003f2d;}</style></defs><path class="cls-1" d="M24,31.55h-4.2v-2h4.3a1,1,0,0,1-.1,2Zm-4.2-6.61h4.46a1,1,0,0,1,.87,1,1,1,0,0,1-.9,1H19.83ZM26,28.14a2.65,2.65,0,0,0,1.9-2.84c0-1.62-1.18-3-4.69-3H16.68v12h6.53c3.54,0,4.85-1.74,4.85-3.46a3,3,0,0,0-2-2.74Z"/><path class="cls-1" d="M42.73,22.33H53.79v2.61h-8v1.94H53v2.64H45.8v2.1h8v2.77H42.73Z"/><path class="cls-1" d="M38,26.06a1,1,0,0,1-1,.82H32.64V25H37a1,1,0,0,1,1,.85Zm-1.7-3.73H29.59V34.39h3.07V29.52H36a1.72,1.72,0,0,1,1.72,1.72v3.15h3V30.5A2.57,2.57,0,0,0,39,28.17a2.73,2.73,0,0,0,1.87-2.66c0-2.65-2.35-3.18-4.56-3.18Z"/><path class="cls-1" d="M14.69,31.47s-4.21.07-5.64,0A3.16,3.16,0,0,1,9,25.11c.87-.1,5.66-.05,5.71-.05h.1V22.33H9.23a8.41,8.41,0,0,0-2.64.48,6.8,6.8,0,0,0-2.46,1.92A5.93,5.93,0,0,0,2.9,28.32a6.7,6.7,0,0,0,.1,1.2,5.91,5.91,0,0,0,3.43,4.15,9.56,9.56,0,0,0,3.43.67l1,0h3.89V31.47Z"/></svg>