<svg id="Слой_1" data-name="Слой 1" xmlns="http://www.w3.org/2000/svg" viewBox="0 0 56.69 56.69"><defs><style>.cls-1{fill:#010101;}.cls-2{fill:none;}</style></defs><path class="cls-1" d="M40.58,17.59A10.72,10.72,0,0,1,29.87,28.33h0A10.72,10.72,0,1,1,40.58,17.62h0Zm-.64,0A10.58,10.58,0,0,0,36,13.07a10.77,10.77,0,0,0-6.17-1.89,10.89,10.89,0,0,0-6.2,1.89,10.7,10.7,0,0,0-3.88,4.52,10.78,10.78,0,0,0,3.88,4.55A11,11,0,0,0,29.86,24,10.84,10.84,0,0,0,36,22.14,10.73,10.73,0,0,0,39.94,17.59Zm-4.38,0a5.69,5.69,0,1,1-1.67-4A5.44,5.44,0,0,1,35.56,17.59Z"/><path class="cls-1" d="M2.82,39.66a10.26,10.26,0,0,1,10.52-10.1,10.43,10.43,0,0,1,8.17,3.87L18.75,36.2a7,7,0,0,0-5.39-2.77,6.23,6.23,0,1,0,0,12.46,7.11,7.11,0,0,0,5.53-2.77l2.77,2.77a10.54,10.54,0,0,1-8.3,3.87A10.25,10.25,0,0,1,2.82,39.66Z"/><path class="cls-1" d="M23.2,30h8.17c3.87,0,6.22,2.36,6.22,5.13a4.28,4.28,0,0,1-2.63,4,5,5,0,0,1,3.6,4.7c0,3-2.49,5.54-6.64,5.54H23.2Zm7.89,7.48a2,2,0,1,0,0-3.88H27.35v3.87Zm.55,8.3a2.36,2.36,0,1,0,0-4.7H27.35v4.7Z"/><path class="cls-1" d="M39.06,46.72,41.83,44A6.2,6.2,0,0,0,46.4,46c2.21,0,3.18-1,3.18-2.22,0-3.32-9.69-1.78-9.69-8.58,0-3,2.63-5.66,7.06-5.66a8.81,8.81,0,0,1,6.51,2.63L50.69,35a5.08,5.08,0,0,0-3.6-1.66c-2.09,0-2.91.83-2.91,1.94,0,3.32,9.69,1.78,9.69,8.58,0,3.18-2.77,5.95-7.34,5.95A10,10,0,0,1,39.06,46.72Z"/><path class="cls-2" d="M-3.93,21.23H40.36V43.94H-3.93Z"/></svg>