<svg id="Слой_1" data-name="Слой 1" xmlns="http://www.w3.org/2000/svg" viewBox="0 0 56.69 56.69"><defs><style>.cls-1{fill:#265aa7;}</style></defs><path class="cls-1" d="M27.51,21.5a1.46,1.46,0,0,0-1.65-1.4,10,10,0,0,0-1,.06c0,.78-.06,1.49-.06,2.26V23h.71c.88,0,2-.3,2-1.52m18.4-3.83a18.54,18.54,0,0,1,3.82,9.49h0L51.41,10.1h.93s-1.05,11-1.67,16.51c-.77,6.86-1.75,9.71-3.62,12.71L46.76,38a17.27,17.27,0,0,0,2.07-6A18.93,18.93,0,0,0,46,19.45,17.1,17.1,0,0,0,19,17.66l-.76-.6a18.09,18.09,0,0,1,27.71.61m-9.18,9.44h-.35c-.42-.58-4.9-5.25-5.29-5.66,0,.4,0,1.22,0,2,0,1.06.08,2.68.13,3.56a2.61,2.61,0,0,0-.46,0,2,2,0,0,0-.46,0c.08-1.13.11-3,.11-4.68,0-1.35,0-2.08,0-2.76h.35c.45.49,4.9,5.1,5.29,5.51,0-.39,0-1.09,0-1.89,0-1.06-.08-2.67-.12-3.55a2.39,2.39,0,0,0,.45,0,2.11,2.11,0,0,0,.47,0c-.09,1.13-.11,3-.11,4.68,0,1.34,0,2.11,0,2.78M28.66,27A5.81,5.81,0,0,0,28,27,31.1,31.1,0,0,0,25.3,23.4h-.54v.85c0,.92,0,1.85.08,2.76a4.54,4.54,0,0,0-.58,0,4.48,4.48,0,0,0-.57,0c0-.91.08-1.84.08-2.76V22.42c0-.92,0-1.85-.08-2.76.4,0,.92.05,1.32.05s.81-.05,1.22-.05c1.2,0,2.31.35,2.31,1.69s-1.42,1.93-2.23,2c.52.65,2.4,2.93,3,3.62a5.83,5.83,0,0,0-.66,0m-6.27,0L21,27h-.89c-.65,0-1.65,0-2.3.06,0-.93.09-1.86.09-2.78V22.41c0-.92,0-1.85-.09-2.75.64,0,1.63.05,2.27.05s1.83,0,2.2-.05a3.36,3.36,0,0,0,0,.36,3.41,3.41,0,0,0,0,.37c-.7-.06-1.95-.14-3.34-.14,0,.46,0,2.4,0,2.67,1.26,0,2.06-.06,2.69-.11a2.83,2.83,0,0,0,0,.41,2.4,2.4,0,0,0,0,.37c-.73-.08-2.38-.1-2.69-.1,0,.36,0,2.67,0,2.86.78,0,2.78-.07,3.5-.14a4,4,0,0,0,0,.41c0,.16,0,.28,0,.4m-6.82,10.6a18.77,18.77,0,0,1-1.92-7.72h1a18.59,18.59,0,0,0,2.54,8.64,5.93,5.93,0,0,1-1.64-.93M9.93,23.33A3.79,3.79,0,0,1,14,19.51a7.2,7.2,0,0,1,2.55.54,4.25,4.25,0,0,0-.26.85l-.07,0A2.93,2.93,0,0,0,14,20,3.06,3.06,0,0,0,11,23.31a3.11,3.11,0,0,0,3,3.29,3.38,3.38,0,0,0,2.46-1.07l0,0-.15.84a4.28,4.28,0,0,1-2.47.74,3.71,3.71,0,0,1-4-3.82M29,6.5a18.41,18.41,0,0,1,7.52,4.18c-.61-.16-1.22-.29-1.85-.39A17.43,17.43,0,0,0,24,6.58,17.16,17.16,0,1,0,41.1,23.74a17.37,17.37,0,0,0-3.27-9.9,7.84,7.84,0,0,1,1.63.74c1.28,2,2.47,5.12,3.49,10,1.07,5.11,6.56,29.55,7.16,32.2h6.65V6.65L29,6.48ZM19.88,42.19a20.13,20.13,0,0,0,6.18,3.62l-.72.76a19.88,19.88,0,0,1-7.29-4.88,18.74,18.74,0,0,0,1.83.5M-.06-.06V56.76h17L33.67,38.92l0,0a17,17,0,0,1-9.82,2.93,17.76,17.76,0,0,1-15.48-9.1l0,0,3.55,12h-1S9.16,38.67,7.65,33.36c-1.14-4-1.85-7-1.84-9.62,0-9.08,7.17-17.4,16.67-18,.26,0,1.06-.1,2.27-.1,7.31,0,29.84.17,32,.18V-.06Zm44.85,40.9L45,42a18.13,18.13,0,0,1-13.23,5.8,18.37,18.37,0,0,1-3.75-.4l.79-.84a17.44,17.44,0,0,0,2.91.25,17.09,17.09,0,0,0,13-6m-2.85-16.6A17,17,0,0,1,39,33.83a43.36,43.36,0,0,1-5,6.09L18.13,56.76h31L42,24.24Z"/></svg>