<svg id="Слой_1" data-name="Слой 1" xmlns="http://www.w3.org/2000/svg" viewBox="0 0 56.69 56.69"><defs><style>.cls-1{fill:#d91b22;}.cls-2{fill:#231f20;}</style></defs><g id="layer1"><path id="path4265" class="cls-1" d="M45.39,32.75a1.29,1.29,0,0,1-1.85,0l-.93-.93,1.4-1.4-1.77-1.77-1.4,1.41-1.41-1.41-1.76,1.77,1.4,1.4-.93.93a1.3,1.3,0,0,1-1.86,0,1.32,1.32,0,0,1,0-1.86c.54-.53,4.54-4.57,4.54-4.57l4.57,4.57a1.3,1.3,0,0,1,0,1.86Zm-9.11-14.5a1.32,1.32,0,0,1,1.86-1.86l.93.93-1.4,1.41,1.76,1.76,1.41-1.4,1.4,1.4L44,18.73l-1.4-1.41.93-.93a1.31,1.31,0,1,1,1.85,1.86l-4.57,4.57-4.54-4.57Zm6.33,6.32L47.16,20a3.81,3.81,0,1,0-5.39-5.39c-.59.58-.93.93-.93.93l-.93-.93A3.81,3.81,0,0,0,34.52,20l4.55,4.55-4.55,4.56a3.81,3.81,0,0,0,5.39,5.39l.93-.93.93.93a3.81,3.81,0,1,0,5.39-5.39Zm10,.93a1.32,1.32,0,0,1-1.86,0l-.93-.93.93-.93a1.32,1.32,0,0,1,1.86,0,1.35,1.35,0,0,1,.38.93A1.32,1.32,0,0,1,52.61,25.5Zm1.76-3.62a3.81,3.81,0,0,0-5.39,0l-.93.93-1.4-1.41-1.77,1.77,1.41,1.4L44.88,26l1.77,1.76,1.4-1.4.93.93a3.82,3.82,0,0,0,6.51-2.7,3.77,3.77,0,0,0-1.12-2.69ZM30.89,25.5a1.31,1.31,0,0,1-2.24-.93,1.35,1.35,0,0,1,.38-.93,1.32,1.32,0,0,1,1.86,0l.93.93ZM35,27.74,36.76,26l-1.41-1.41,1.41-1.4L35,21.4l-1.4,1.41-.93-.93a3.81,3.81,0,0,0-5.39,0,3.8,3.8,0,0,0,0,5.39,3.81,3.81,0,0,0,5.39,0l.93-.93,1.4,1.4"/><path id="path4267" class="cls-2" d="M20.55,35.7a1.18,1.18,0,0,1-.91.37,1.16,1.16,0,0,1-.88-.38,1.39,1.39,0,0,1-.34-1,1.35,1.35,0,0,1,.35-.94,1.11,1.11,0,0,1,.88-.38,1.14,1.14,0,0,1,.9.38,1.32,1.32,0,0,1,.35,1,1.35,1.35,0,0,1-.35,1Zm.29-3.07v.49a1.89,1.89,0,0,0-1.38-.6,2,2,0,0,0-1.49.62,2.24,2.24,0,0,0-.59,1.58A2.27,2.27,0,0,0,18,36.31a2,2,0,0,0,2.87.07v.44h1V32.63h-1"/><path id="path4269" class="cls-2" d="M6.7,30.73H7.76v2.38A1.56,1.56,0,0,1,9,32.56c.76,0,1.46.51,1.46,1.79v2.5h-1V34.28c0-.44-.18-1-.81-1a.9.9,0,0,0-.91,1v2.57H6.7V30.73"/><path id="path4271" class="cls-2" d="M6.31,35.8a2.56,2.56,0,0,1-.89.81A2.9,2.9,0,0,1,4,37a2.69,2.69,0,0,1-2-.81,2.78,2.78,0,0,1,.1-4A2.72,2.72,0,0,1,4,31.41a2.88,2.88,0,0,1,1.43.37,2.71,2.71,0,0,1,.9.81l-.91.65a1.88,1.88,0,0,0-.27-.42A1.46,1.46,0,0,0,4,32.3a1.44,1.44,0,0,0-1.15.53,2.28,2.28,0,0,0,0,2.75A1.42,1.42,0,0,0,4,36.11a1.44,1.44,0,0,0,1.15-.54,1.52,1.52,0,0,0,.28-.43l.91.66"/><path id="path4273" class="cls-2" d="M15.41,32.56a1.48,1.48,0,0,0-1.34.55L14,32.62h-.91v4.22h1.06V34.28a.91.91,0,0,1,.91-1c.63,0,.81.56.81,1v2.56h1V34.35c0-1.28-.7-1.78-1.47-1.79"/><path id="path4275" class="cls-1" d="M11.25,36.84h1V32.6h-1Z"/><path id="path4277" class="cls-1" d="M11.74,32.17a.55.55,0,0,1-.58-.56.57.57,0,0,1,.59-.57.57.57,0,1,1,0,1.13h0"/><path id="path4279" class="cls-1" d="M11.74,38.41a.55.55,0,0,1-.58-.55.56.56,0,0,1,.59-.57.56.56,0,1,1,0,1.12h0"/><path id="path4281" class="cls-2" d="M26.8,38.82a1.8,1.8,0,0,0-1.44.66,1.22,1.22,0,0,0-1.1-.66,1.52,1.52,0,0,0-1.28.55l0-.52H22v4.23h1.07V40.53c0-.54.29-1,.84-1s.74.56.74,1v2.55h1V40.59h0c0-.71.34-1.05.83-1.05s.74.56.74,1v2.55h1V40.6c0-1.27-.64-1.76-1.34-1.78"/><path id="path4283" class="cls-1" d="M11.25,43.08h1V38.85h-1Z"/><path id="path4285" class="cls-2" d="M19.35,39.5a1.07,1.07,0,0,0-.85.41A1.64,1.64,0,0,0,18.16,41,1.6,1.6,0,0,0,18.5,42a1,1,0,0,0,.84.41,1,1,0,0,0,.85-.42A1.59,1.59,0,0,0,20.53,41a1.67,1.67,0,0,0-.33-1.07A1.07,1.07,0,0,0,19.35,39.5Zm-.08-.74a2.21,2.21,0,0,1,1.12.3A2.19,2.19,0,0,1,21.5,41a2.18,2.18,0,0,1-.3,1.11,2,2,0,0,1-.8.81,2.18,2.18,0,0,1-1.12.29,2.1,2.1,0,0,1-1.55-.64,2.21,2.21,0,0,1,1.54-3.77"/><path id="path4287" class="cls-2" d="M9,38.8a1.48,1.48,0,0,0-1.34.55l-.05-.5H6.68v4.23H7.75V40.52a.9.9,0,0,1,.91-1c.63,0,.81.55.81,1v2.56h1V40.6c0-1.29-.7-1.79-1.46-1.8"/><path id="path4289" class="cls-2" d="M3.53,43.14a1.48,1.48,0,0,0,1.34-.55l0,.49h.92V38.85H4.77v2.56a.9.9,0,0,1-.91,1,.92.92,0,0,1-.88-1V38.85H1.92v2.49a1.61,1.61,0,0,0,1.61,1.8"/><path id="path4291" class="cls-2" d="M17,42.25a2.17,2.17,0,0,1-.71.64,2.25,2.25,0,0,1-1.14.29,2.21,2.21,0,0,1,0-4.41,2.28,2.28,0,0,1,1.13.3,2.06,2.06,0,0,1,.71.63l-.79.57A1.23,1.23,0,0,0,16,40a1.06,1.06,0,0,0-.84-.4,1,1,0,0,0-.83.4A1.55,1.55,0,0,0,14,41a1.61,1.61,0,0,0,.33,1,1.05,1.05,0,0,0,.84.39A1,1,0,0,0,16,42a1,1,0,0,0,.2-.32l.8.57"/><path id="path4293" class="cls-2" d="M48.34,39a4.24,4.24,0,0,0-.81-.81l-.39.29.66.91.54-.39Zm2.48.8h.8v.34h-.8Zm.8,1.17h-.8v-.34h.8Zm-1.49-.83h-.8v-.34h.8Zm0,.83h-.8v-.34h.8Zm.24-1.87a5.86,5.86,0,0,0-.7-.39L49.4,39l.27.24h-1v3h.21a.45.45,0,0,0,.48-.45v-.42h.8v.87h.21a.43.43,0,0,0,.48-.46v-.41h.8v.2a.2.2,0,0,1-.2.17H51.1l.14.5h.5a.61.61,0,0,0,.61-.61v-2a.41.41,0,0,0-.41-.41h-.81l1.06-.64V38H48.6v.5h2.62l-.85.52Zm-1.82,3.47a.32.32,0,0,1-.32-.33V39.57H47.09v.5h.37v2.32a.64.64,0,0,0,.62.63h4.35v-.5H48.55"/><path id="path4295" class="cls-2" d="M45.56,40.85h.88v-.51h-1v-.78h1v-.5H45.8l.58-.73-.55-.39-.72,1.12h-.52l.42-.31a7.22,7.22,0,0,0-.67-.81l-.41.24.52.88h-.63v.5h.84v.78h-.84v.51h.75l-.89,2.27h.38a.57.57,0,0,0,.49-.32l.54-1.36.75,1.68h.74l-1-2.27Zm-2.78-.38h-.62v-.63h.62Zm0,1.12-.61.17V41h.62Zm1.07-.3-.34.1V38.55a.46.46,0,0,0-.43-.51h-1.8v.51h1.51v.79h-.62v-.52h-.68V42l-.31.09v.57l1.6-.45v1h.29c.23,0,.38-.14.44-.41V42l.34-.1v-.57"/><path id="path4297" class="cls-2" d="M33.52,40.89a.33.33,0,0,1-.33.33h-1V39.15h1.35v1.74Zm.32-2.24H32.17v-.71h-.86v.71H30.23v.5h1.08v2.07H30V38.65H29.1v3.07h2.21v1.46h.14c.48,0,.7-.23.72-.59v-.87h1.47a.73.73,0,0,0,.74-.71V39.16a.54.54,0,0,0-.54-.51"/><path id="path4299" class="cls-2" d="M39.3,41.52h-.38l.25-.31a4.49,4.49,0,0,0-.6-.47l-.31.3.44.48h-.59v-.84h1.17v-.51H38.11v-.63h1.17V39h-3v.5h1.06v.63H36.25v.51h1.06v.84H36.23V42H39.3ZM39.82,38H36.23v.5h3.34v3.68a.32.32,0,0,1-.33.32H36V38h-.8v5h4.49a.72.72,0,0,0,.72-.72V38.57a.55.55,0,0,0-.55-.54"/></g></svg>