<svg id="Слой_1" data-name="Слой 1" xmlns="http://www.w3.org/2000/svg" xmlns:xlink="http://www.w3.org/1999/xlink" viewBox="0 0 56.69 56.69"><defs><style>.cls-1{fill:#fff;}.cls-2{fill:none;}.cls-3{fill:url(#Безымянный_градиент_6);}.cls-4{fill:#396cb3;}.cls-5{fill:url(#Безымянный_градиент_5);}.cls-6{fill:url(#Безымянный_градиент_4);}</style><linearGradient id="Безымянный_градиент_6" x1="7.56" y1="-173.17" x2="49.13" y2="-173.17" gradientTransform="matrix(1, 0, 0, -1, 0, -153.83)" gradientUnits="userSpaceOnUse"><stop offset="0" stop-color="#da3225"/><stop offset="1" stop-color="#e84436"/></linearGradient><linearGradient id="Безымянный_градиент_5" x1="25.07" y1="-205.85" x2="45.85" y2="-169.86" gradientTransform="matrix(1, 0, 0, -1, 0, -153.83)" gradientUnits="userSpaceOnUse"><stop offset="0" stop-color="#fcc936"/><stop offset="1" stop-color="#fbbc0c"/></linearGradient><linearGradient id="Безымянный_градиент_4" x1="30.94" y1="-204.68" x2="10.16" y2="-168.68" gradientTransform="matrix(1, 0, 0, -1, 0, -153.83)" gradientUnits="userSpaceOnUse"><stop offset="0" stop-color="#218f3e"/><stop offset="1" stop-color="#32a853"/></linearGradient></defs><circle class="cls-1" cx="28.35" cy="28.34" r="12"/><path class="cls-2" d="M7.56,40.35A24,24,0,1,0,16.35,7.56h0A24,24,0,0,0,7.56,40.35Zm31.18-18A12,12,0,1,1,22.35,18h0A12,12,0,0,1,38.74,22.35Z"/><path class="cls-3" d="M28.35,16.35H49.13a24,24,0,0,0-41.57,0L18,34.35h0a12,12,0,0,1,10.39-18Z"/><circle class="cls-4" cx="28.35" cy="28.35" r="9.5"/><path class="cls-5" d="M38.74,34.35l-10.39,18a24,24,0,0,0,20.78-36H28.34a12,12,0,0,1,10.4,18Z"/><path class="cls-6" d="M18,34.35l-10.4-18a24,24,0,0,0,20.79,36l10.39-18h0a12,12,0,0,1-20.77,0Z"/></svg>