<svg id="Слой_1" data-name="Слой 1" xmlns="http://www.w3.org/2000/svg" viewBox="0 0 56.69 56.69"><defs><style>.cls-1{fill:#223a7f;}</style></defs><path class="cls-1" d="M54.22,21.78a.36.36,0,0,0,.34-.4h0a.36.36,0,0,0-.39-.35.37.37,0,0,0-.35.4h0a.42.42,0,0,0,.4.35m-23.56-12a1.08,1.08,0,0,0,1.09,1.08,1.07,1.07,0,0,0,1.09-1.08,1.09,1.09,0,0,0-1.09-1.09,1.11,1.11,0,0,0-1.09,1.09h0m6.86,2.32a1.09,1.09,0,1,0,2.17,0A1.08,1.08,0,0,0,38.61,11h0a1.08,1.08,0,0,0-1.09,1.08h0M11.73,40.29a1.09,1.09,0,1,0,1.09-1.09h0a1.13,1.13,0,0,0-1.09,1.09h0m5.34,4.47a1.09,1.09,0,1,0,1.08-1.08h0a1.1,1.1,0,0,0-1.08,1.08m6.78,2.1a1.09,1.09,0,0,0,2.17,0,1.09,1.09,0,0,0-1.09-1.09h0a1.1,1.1,0,0,0-1.08,1.09h0m7-.08a1.08,1.08,0,1,0,1.08-1.1,1.08,1.08,0,0,0-1.08,1.1v0h0m6.7-2.13a1.09,1.09,0,1,0,2.17,0,1.06,1.06,0,0,0-1.07-1.07h0a1.08,1.08,0,0,0-1.08,1.07s0,0,0,0m5.33-4.29a1.09,1.09,0,1,0,2.17,0,1.06,1.06,0,0,0-1.08-1.08h0a1.08,1.08,0,0,0-1.09,1.08h0m-.05-24a1.08,1.08,0,1,0,1.06-1.09,1.07,1.07,0,0,0-1.06,1.09h0m-7.58-2.86a1.39,1.39,0,0,0-2.77,0,1.37,1.37,0,0,0,1.38,1.37,1.39,1.39,0,0,0,1.39-1.39h0m4.62,2.86a1.38,1.38,0,1,0-1.39,1.39,1.4,1.4,0,0,0,1.39-1.39h0m3.62,4a1.39,1.39,0,1,0-1.39,1.4h0a1.4,1.4,0,0,0,1.39-1.4h0M33.56,4.94a.36.36,0,0,0-.32-.4.36.36,0,0,0-.4.34.36.36,0,0,0,.34.4.36.36,0,0,0,.38-.34h0m9.22,3.35a.38.38,0,0,0-.33-.4h0a.36.36,0,0,0-.36.38.39.39,0,0,0,.31.37.36.36,0,0,0,.38-.35M50,13.49a.36.36,0,0,0-.34-.4h0a.38.38,0,0,0-.4.33h0a.37.37,0,1,0,.72.13.07.07,0,0,0,0-.06M37.48,8.69A.71.71,0,0,0,36.82,8a.71.71,0,0,0-.1,1.41.7.7,0,0,0,.76-.63v0h0m7.05,3.51a.71.71,0,0,0-.63-.77h0a.71.71,0,0,0-.8.58.69.69,0,0,0,.57.8h.12a.68.68,0,0,0,.74-.63v0h0m4.8,5.05a.7.7,0,0,0-.74.66.72.72,0,0,0,.66.75A.73.73,0,0,0,50,18a.7.7,0,0,0-.63-.76h0m-21-10.44a.68.68,0,0,0-.7.7.69.69,0,0,0,.7.71.7.7,0,0,0,.71-.71h0a.73.73,0,0,0-.71-.7h0M24.93,8.69A1.09,1.09,0,1,0,26,9.78h0a1.13,1.13,0,0,0-1.09-1.09h0M18.08,11a1.09,1.09,0,1,0,1.08,1.08h0A1.08,1.08,0,0,0,18.08,11m-10,16.3a1.09,1.09,0,1,0,1.08,1.08h0A1.1,1.1,0,0,0,8.06,27.3h0M9.39,21a1.09,1.09,0,0,0,0,2.17A1.09,1.09,0,0,0,10.48,22h0a1.08,1.08,0,0,0-1.05-1.1h0m3.45-5.68a1.09,1.09,0,1,0,0,2.17A1.08,1.08,0,0,0,14,16.35h0a1.12,1.12,0,0,0-1.08-1.09M28.34,45.47A1.38,1.38,0,1,0,27,44.08h0a1.4,1.4,0,0,0,1.37,1.39m0-31.41A1.38,1.38,0,1,0,27,12.67h0a1.4,1.4,0,0,0,1.37,1.39m-5.48.8a1.38,1.38,0,1,0-1.38-1.39h0a1.37,1.37,0,0,0,1.38,1.39h0M18.21,17.7a1.38,1.38,0,1,0-1.37-1.39h0a1.38,1.38,0,0,0,1.37,1.39h0m-3.66,4.1A1.4,1.4,0,0,0,16,20.48a1.38,1.38,0,1,0-2.76-.13v0h0a1.4,1.4,0,0,0,1.37,1.39h0M13.1,26.9a1.38,1.38,0,1,0-1.37-1.39h0A1.4,1.4,0,0,0,13.1,26.9h0M23.52,5.28a.38.38,0,0,0,.35-.4.37.37,0,0,0-.4-.34.36.36,0,0,0-.33.4V5a.33.33,0,0,0,.38.32h0M14.3,8.64a.39.39,0,0,0,.35-.39h0a.36.36,0,0,0-.4-.34.38.38,0,0,0-.35.38h0a.39.39,0,0,0,.4.35M54.22,37.53a.37.37,0,0,0,.36-.37.36.36,0,0,0-.36-.36h-.07a.38.38,0,0,0-.35.38h0a.37.37,0,0,0,.4.35m-4.42,6.13a.4.4,0,0,0,.35-.4.36.36,0,0,0-.4-.34.37.37,0,1,0,.05.74h0m-7.35,5.18a.38.38,0,0,0,.35-.38h0a.38.38,0,0,0-.75,0h0v.07a.34.34,0,0,0,.4.33h0m-9.19,3.31a.37.37,0,0,0,.34-.4.36.36,0,0,0-.4-.34h0a.36.36,0,0,0-.34.4.36.36,0,0,0,.4.34m-9.72,0a.38.38,0,0,0,.35-.4.37.37,0,0,0-.4-.34h0a.37.37,0,0,0-.35.4.36.36,0,0,0,.4.34h0M14.3,48.8a.38.38,0,0,0,.35-.38h0a.36.36,0,0,0-.4-.34.38.38,0,0,0-.35.38h0a.37.37,0,0,0,.4.34M7,43.6a.36.36,0,0,0,.34-.4h0a.37.37,0,0,0-.74.06h0a.36.36,0,0,0,.4.34M2.48,37.53a.37.37,0,0,0,.36-.37.36.36,0,0,0-.36-.36H2.4a.36.36,0,0,0-.28.44.37.37,0,0,0,.36.31M7.07,13.8a.36.36,0,0,0,.34-.4h0a.37.37,0,0,0-.4-.35.36.36,0,0,0-.34.4h0a.37.37,0,0,0,.4.35M19.94,9.28a.71.71,0,0,0,.61-.78.7.7,0,0,0-.72-.61.69.69,0,0,0-.59.78.7.7,0,0,0,.68.61h0m-7,3.53a.66.66,0,0,0,.62-.69.65.65,0,0,0-.68-.63.66.66,0,0,0,0,1.32h.06M6.69,17.93a.67.67,0,0,0,.66.67h.1a.69.69,0,0,0,.68-.71.68.68,0,0,0-.7-.68H7.35a.66.66,0,0,0-.66.72M52.07,31.26a.71.71,0,0,0,.11,1.41h0a.73.73,0,0,0,.65-.76.7.7,0,0,0-.76-.65h0m-2.72,6.8a.72.72,0,0,0-.61.78.66.66,0,1,0,1.31-.17.71.71,0,0,0-.68-.61h0m-5.43,5.79a.69.69,0,0,0-.69.7.7.7,0,0,0,.71.69H44a.71.71,0,0,0,.67-.74.67.67,0,0,0-.67-.67h-.09m-7.2,3.54a.71.71,0,0,0-.67.74h0a.7.7,0,0,0,.73.67.69.69,0,0,0,.66-.72h0V48a.7.7,0,0,0-.72-.67h0m-8.48,1.18a.7.7,0,0,0-.66.73.69.69,0,0,0,.72.66h.06a.71.71,0,0,0,.61-.78.72.72,0,0,0-.73-.61m-8.13-.93a.7.7,0,1,0,.78.65.71.71,0,0,0-.78-.65l0,0h0M12.8,43.89a.7.7,0,0,0-.67.72.71.71,0,0,0,.73.67h.05a.71.71,0,0,0,.61-.78.69.69,0,0,0-.72-.61M7.33,38.1a.72.72,0,0,0-.61.78.7.7,0,0,0,.73.61A.69.69,0,0,0,8,38.71a.71.71,0,0,0-.69-.61h0m-3-13.43a.71.71,0,0,0-.61.78.68.68,0,0,0,.72.61A.69.69,0,0,0,5,25.28a.72.72,0,0,0-.69-.61h0M24.28,43.18a1.37,1.37,0,1,0-1.37,1.37h0a1.37,1.37,0,0,0,1.37-1.37h0m9.49-1.39a1.38,1.38,0,1,0,1.37,1.39h0a1.37,1.37,0,0,0-1.37-1.39h0m4.72-2.72a1.38,1.38,0,1,0,1.35,1.41v0a1.4,1.4,0,0,0-1.37-1.41h0m5-2.76a1.38,1.38,0,0,0-2.76,0,1.37,1.37,0,0,0,1.37,1.37,1.41,1.41,0,0,0,1.39-1.39h0M18.25,39a1.38,1.38,0,1,0,1.37,1.39h0A1.4,1.4,0,0,0,18.25,39h0m-3.64-4.07A1.38,1.38,0,1,0,16,36.31v0h0a1.37,1.37,0,0,0-1.37-1.37h0M28.55,21.07l7.22,13.22H39L31.75,21.11ZM17.64,34.29h3.2l7.21-13.18H24.86Z"/></svg>