<svg id="Слой_1" data-name="Слой 1" xmlns="http://www.w3.org/2000/svg" viewBox="0 0 56.69 56.69"><defs><style>.cls-1{fill:#395ca7;}.cls-2{fill:#e84333;}</style></defs><path class="cls-1" d="M2,33.76c0-5.45,4.46-9.69,10.27-9.69a10.41,10.41,0,0,1,8.19,3.76l-2.52,2.53a7.28,7.28,0,0,0-2.5-2,7.2,7.2,0,0,0-3.13-.74,6.2,6.2,0,1,0,0,12.39,7.28,7.28,0,0,0,5.81-2.89l2.49,2.45a10.3,10.3,0,0,1-8.34,3.95C6.43,43.48,2,39.24,2,33.76Z"/><rect class="cls-1" x="23.87" y="24.73" width="3.98" height="18.1"/><path class="cls-1" d="M35.27,38V28.09H30.92V24.73h4.54V20.85L39.19,19v5.71h5.92v3.36H39.19V37.3c0,1.83,1,2.64,3,2.64a7,7,0,0,0,2.92-.63v3.44a8.66,8.66,0,0,1-3.65.73C37.87,43.48,35.27,41.54,35.27,38Z"/><rect class="cls-1" x="48.25" y="24.73" width="3.98" height="18.1"/><path class="cls-2" d="M38,13.21a20.36,20.36,0,0,1,16.7,8.63H50.08a16.23,16.23,0,0,0-24.13,0H21.31A20.36,20.36,0,0,1,38,13.21Z"/></svg>