<svg id="Слой_1" data-name="Слой 1" xmlns="http://www.w3.org/2000/svg" viewBox="0 0 56.69 56.69"><defs><style>.cls-1{fill:#00568b;}.cls-2{fill:#fff;}</style></defs><path id="path2043" class="cls-1" d="M23.39,31.63V20.11h-3V31.74c0,2.5,1.21,3.84,4.13,3.84h1.84v-2.2H25.15C23.87,33.36,23.39,33,23.39,31.63Zm8.92,4.13c3.77,0,5.64-1.34,5.64-4.94V23.88h-3v6.88a2.53,2.53,0,0,1-2.68,2.85,2.52,2.52,0,0,1-2.67-2.85V23.88h-3V30.8C26.61,34.42,28.51,35.76,32.31,35.76Zm10.24-5V28.67a2.79,2.79,0,0,1,3-2.85,2.79,2.79,0,0,1,3,2.85v2.09a2.79,2.79,0,0,1-3,2.85A2.75,2.75,0,0,1,42.55,30.76Zm8.89-2.05c0-2.85-1.64-5-5.48-5a8,8,0,0,0-3.36.76V20.11h-3V30.76c0,3.61,2.16,4.94,5.93,4.94s5.93-1.51,5.93-5.12c0,0,0-1.87,0-1.87Zm-39,7c4,0,6.4-2,6.92-4.76H16.12a3.57,3.57,0,0,1-3.77,2.68c-3,0-4.07-2-4.07-5V27.16c0-3.37,1.46-4.94,4.07-4.94a3.58,3.58,0,0,1,3.77,2.68h3.19c-.59-2.74-3-4.77-6.92-4.77-4.51,0-7.14,2.7-7.14,7v2.08C5.25,33.2,7.74,35.76,12.41,35.76Z"/><rect class="cls-1" x="34.88" y="17.64" width="3.05" height="3.05" transform="translate(-2.89 31.36) rotate(-45)"/><path class="cls-1" d="M37.69,3.63c-.11-.52-1.28.22-3.73,2.45,1,1.1,1.46.47,2.27.18.63,1.21.88,6.69-3.26,8.3.12-5.52.18-11.4.18-11.4C33.15,3,33,3,32.93,3c-1.1.18-3.15,2.15-4.72,3.84.88,1.39,1.91.11,2.79-.23,0,.23-.18,4.31-.12,8.45-4.24.36-3.54-8.43-3.32-9.55.11-.92-2.74,1.1-4.13,2.38.47.81,1.05.63,1.86.36-.29,3.91,2.45,7.5,5.64,7.39.11,4,.52,8,1.68,8.26.18.07.3-4.06.36-8.66,7.64-2.38,4.72-11.59,4.72-11.59Z"/><path class="cls-1" d="M35,50.3a5.88,5.88,0,0,1-3.81,1.22c-1.82,0-3.32-1-3.32-3v-.23h9.33v-1c0-3.77-2.24-6.13-6.17-6.13s-6.2,2.36-6.2,6.13v.49c0,3.62,2.18,5.94,6.36,5.94a8.54,8.54,0,0,0,5.75-1.87Z"/><path class="cls-1" d="M44.19,41.16c-4,0-5.7,2.25-5.7,5.22v1.94c0,3.76,2.24,5.33,6.17,5.33s6.17-1.41,6.17-5.15V37.42H47.75V42a8.82,8.82,0,0,0-3.56-.8Z"/><path class="cls-1" d="M19,37.59,14.34,49.77,9.74,37.59H5.25V53.51H8.41V44a22.29,22.29,0,0,0-.08-2.29h.12l4.42,11.8h2.9l4.49-11.8h.07c-.07.65-.07,1.7-.07,2.29v9.51h3.15V37.59Z"/><path class="cls-2" d="M47.7,46.31v2.17a2.91,2.91,0,0,1-3.16,3,2.9,2.9,0,0,1-3.15-3V46.31a2.9,2.9,0,0,1,3.15-3A2.94,2.94,0,0,1,47.7,46.31Z"/><path class="cls-2" d="M27.9,46.38a3,3,0,0,1,3.16-3.09,3,3,0,0,1,3.15,3.09Z"/></svg>