<svg id="Слой_1" data-name="Слой 1" xmlns="http://www.w3.org/2000/svg" viewBox="0 0 56.69 56.69"><defs><style>.cls-1{fill:#babbbd;}</style></defs><path id="path3736" class="cls-1" d="M28.65,31.59a.58.58,0,0,1-.57.57H24.26a.56.56,0,0,1-.57-.59V25.09a.58.58,0,0,1,.58-.59h3.81a.57.57,0,0,1,.57.6v6.49ZM22.7,34.65l-1.91-4a8.13,8.13,0,0,1-.93-2.9V24a1.92,1.92,0,0,0-2-1.93H12.43V31.5a.64.64,0,0,1-.65.66H4.25a.55.55,0,0,1-.59-.54V29.87a2.16,2.16,0,0,1,.47-1.37c.86-1.26,2-2.85,2.49-3.59a1,1,0,0,1,.69-.41h.74a.6.6,0,0,1,.57.65c0,.52,0,3,0,3a.51.51,0,0,0,.58.5h1.51c.13,0,.68,0,.68-.53V24a2,2,0,0,0-2-2H6.57a2.38,2.38,0,0,0-1.95,1.13L1.47,27.75A2.71,2.71,0,0,0,.9,29.48v3.21a2,2,0,0,0,2.08,2H13.11a2,2,0,0,0,2.12-2V24.5h1.29a.64.64,0,0,1,.62.66v2.46a5.29,5.29,0,0,0,.66,2.63c.08.16,2,4.4,2,4.4Zm8.74-10.78a1.77,1.77,0,0,0-1.8-1.81H23A1.9,1.9,0,0,0,21,24v4a3.67,3.67,0,0,0,.31,1.57l1.86,4a1.88,1.88,0,0,0,1.62,1.06h4.68a1.87,1.87,0,0,0,2-1.88l0-8.9Zm12.8,8.56V22.05H41.53v9.48a.56.56,0,0,1-.55.61h-.79a.55.55,0,0,1-.53-.61V22.05H37.11v9.48a.61.61,0,0,1-.65.61h-.61a.61.61,0,0,1-.63-.61V22.05h-2.7s0,10.41,0,10.6c.08,2,2.22,2,2.24,2h7.36a2.12,2.12,0,0,0,2.12-2.2ZM55.79,34s0-2.91,0-4.66a3.26,3.26,0,0,0-.52-1.51C54,26,51.91,23,51.91,23a2.55,2.55,0,0,0-1.81-.91H45.44V34c0,.6.74.6.74.6h1.23c.75,0,.77-.58.77-.58l0-9.55h1.29a.93.93,0,0,1,.67.4s2.15,3.1,2.55,3.7a2.1,2.1,0,0,1,.41,1.26V34a.67.67,0,0,0,.67.67h1.41a.65.65,0,0,0,.63-.68"/></svg>