<svg id="Слой_1" data-name="Слой 1" xmlns="http://www.w3.org/2000/svg" viewBox="0 0 56.69 56.69"><defs><style>.cls-1{fill:#010101;}.cls-2{fill:#57358b;}</style></defs><g id="vlpa"><path class="cls-1" d="M4.38,39v3.62h-1V39H2v-.92H5.75V39Zm2.71,3.62V38.12h3.43V39H8.08v.92h2.14v.89H8.08v1h2.47v.89Zm7.08.08a2.3,2.3,0,0,1-2.33-2.34h0A2.31,2.31,0,0,1,14.2,38a2.36,2.36,0,0,1,1.8.71l-.64.73A1.67,1.67,0,0,0,14.2,39a1.34,1.34,0,0,0-1.32,1.41h0a1.35,1.35,0,0,0,1.32,1.43,1.62,1.62,0,0,0,1.19-.54l.63.64a2.3,2.3,0,0,1-1.85.82Zm6.09-.08V40.84H18.41v1.82h-1V38.12h1v1.8h1.85v-1.8h1v4.54Zm5.95,0L24,39.77v2.89H23V38.12h.92l2.13,2.8v-2.8h1v4.54Zm4.7.08a2.33,2.33,0,0,1-2.4-2.34h0A2.35,2.35,0,0,1,30.93,38a2.33,2.33,0,0,1,2.4,2.34h0A2.36,2.36,0,0,1,30.91,42.74Zm1.37-2.35A1.38,1.38,0,0,0,30.91,39a1.36,1.36,0,0,0-1.36,1.41h0a1.38,1.38,0,0,0,1.37,1.43,1.35,1.35,0,0,0,1.36-1.41Zm2.48,2.27V38.12h1v3.63H38v.91Zm6.62.08A2.33,2.33,0,0,1,39,40.4h0A2.35,2.35,0,0,1,41.4,38a2.33,2.33,0,0,1,2.4,2.34h0A2.35,2.35,0,0,1,41.38,42.74Zm1.37-2.35A1.38,1.38,0,0,0,41.38,39,1.36,1.36,0,0,0,40,40.37h0a1.39,1.39,0,0,0,1.37,1.43,1.35,1.35,0,0,0,1.36-1.41Zm4.64,2.35A2.28,2.28,0,0,1,45,40.4h0A2.34,2.34,0,0,1,47.38,38a2.44,2.44,0,0,1,1.78.63l-.62.76A1.71,1.71,0,0,0,47.35,39a1.36,1.36,0,0,0-1.3,1.41h0a1.36,1.36,0,0,0,1.37,1.44,1.62,1.62,0,0,0,.94-.27v-.65h-1v-.86h2v2a3,3,0,0,1-1.94.72ZM53,40.85v1.81H52v-1.8l-1.75-2.74h1.17l1.08,1.82,1.1-1.82H54.7Z"/><path class="cls-2" d="M19.42,25.72a8.44,8.44,0,0,1-.7,2.35,10.42,10.42,0,0,1-9.6,6.31H2V30.3H9.11a6.06,6.06,0,0,0,4.37-1.77,6.52,6.52,0,0,0,1.63-2.81Zm0-3.11a8.44,8.44,0,0,0-.7-2.35A10.43,10.43,0,0,0,16.5,17a10.58,10.58,0,0,0-7.39-3H2V18H9.11a6,6,0,0,1,4.37,1.77,6.49,6.49,0,0,1,1.63,2.8Zm8.91,4.95-5.42,6.82H17.54l8.11-10.21L17.54,14h5.37l5.42,6.81L33.74,14h5.38L31,24.17l8.11,10.21H33.74Zm13.22-1.84a6.4,6.4,0,0,0,1.62,2.81,6.09,6.09,0,0,0,4.37,1.77h7.09v4.08H47.54a10.53,10.53,0,0,1-7.38-3,10.31,10.31,0,0,1-2.22-3.27,8.12,8.12,0,0,1-.7-2.35Zm0-3.11a6.37,6.37,0,0,1,1.62-2.8A6.05,6.05,0,0,1,47.54,18h7.09V14H47.54a10.53,10.53,0,0,0-7.38,3,10.27,10.27,0,0,0-2.22,3.26,8.12,8.12,0,0,0-.7,2.35Z"/></g></svg>