<svg id="Слой_1" data-name="Слой 1" xmlns="http://www.w3.org/2000/svg" xmlns:xlink="http://www.w3.org/1999/xlink" viewBox="0 0 56.69 56.69"><defs><style>.cls-1{fill:none;}.cls-2{fill:#1d5d2a;}.cls-3{fill:#55af33;}.cls-4{clip-path:url(#clip-path);}.cls-5{fill:#ee7126;}</style><clipPath id="clip-path"><polygon class="cls-1" points="1.5 2.04 55.2 2.04 55.2 54.65 1.5 54.65 1.5 2.04 1.5 2.04"/></clipPath></defs><g id="g12"><g id="g3068"><path id="path58" class="cls-2" d="M33.17,42.05h0a1.82,1.82,0,0,0-1.41-.44,2.73,2.73,0,0,0-1.72.55c.85-2.14,2.21-5.06,2.22-5.09l.07-.14h-.16a22.93,22.93,0,0,0-2.48.48h0l-.12.33-3.45,9a2.46,2.46,0,0,1-1,1,1.92,1.92,0,0,1-.75.28.12.12,0,0,1-.14-.14l.38-1c.83-2.34,1.35-3.74,1.58-4.3l.3-.73H24.18l-.05.1a1.77,1.77,0,0,0-.93-.25,4,4,0,0,0-2.05.9,10.81,10.81,0,0,0-2.34,2.23,5.24,5.24,0,0,0-1.2,3.13,2.2,2.2,0,0,0,.33,1.22,1.34,1.34,0,0,0,1.2.62,4,4,0,0,0,2.49-.94,1,1,0,0,0,.44.58,2.09,2.09,0,0,0,1,.36,3.37,3.37,0,0,0,1.46-.33,2.79,2.79,0,0,0,1.11-1,2.74,2.74,0,0,0,.58.9,1.63,1.63,0,0,0,1.18.47,6.19,6.19,0,0,0,4.06-1.91,6,6,0,0,0,2.27-4.38,2,2,0,0,0-.52-1.39Zm-3.08,4.67c-.89,1.32-1.18,1.4-1.5,1.42a.51.51,0,0,1-.41-.13.34.34,0,0,1-.11-.29,1.66,1.66,0,0,1,0-.24,14.62,14.62,0,0,1,.67-1.85,5,5,0,0,1,.88-1.51c.52-.61,1.09-.87,1.38-.71.57.31-.26,2.3-.94,3.31ZM20.24,48c-.47-.23-.1-1.24.7-2.69.66-1.19,1.31-1.78,1.93-1.78a.33.33,0,0,1,.27.13.53.53,0,0,1,.14.34,4.86,4.86,0,0,1-1,2.28c-.73,1.14-1.65,1.9-2,1.72"/><path id="path60" class="cls-2" d="M48.32,42.27h0a1.71,1.71,0,0,0-1.3-.5,2.25,2.25,0,0,0-1.29.51l.14-.41H43.5l-1.82,5.44a4.14,4.14,0,0,1-.71.6,1.29,1.29,0,0,1-1.08.18s-.17-.08-.13-.19c.12-.34.67-2,.67-2,.49-1.44.92-2.63,1.25-3.46l.28-.72h-2.4l-.13.34c-.42,1.12-.77,2-1.07,2.59A9.87,9.87,0,0,1,37,47c-.42.47-.8.85-1.28.84h-.11c-.07,0-.12-.1-.1-.15.36-1,2.3-5.89,2.3-5.89H35.32S33,47.69,32.94,48.22a1.36,1.36,0,0,0,.49,1.08,1.52,1.52,0,0,0,1.09.43,4.4,4.4,0,0,0,2.68-1.35v0l0,.24c0,.23.12.55.73.83a2.74,2.74,0,0,0,1.09.26,2.63,2.63,0,0,0,1.66-.5,2.43,2.43,0,0,0,.59-.54l-.35,1h2.36l.11-.38c.29-1,.58-1.81.85-2.5a12.73,12.73,0,0,1,1.17-2.37c.44-.67.69-.77.9-.86a1.69,1.69,0,0,1,.47-.1.66.66,0,0,1,.59.32,1,1,0,0,1-.12.69c-.08.22-.15.37-.08.47a.18.18,0,0,0,.15.07,1.45,1.45,0,0,0,1.13-.5,1.79,1.79,0,0,0-.08-2.3"/><path id="path62" class="cls-2" d="M14.12,36.65h0a11.48,11.48,0,0,0-4.54-1.52C7,35,2.3,36.16,1.52,41.45l.17,0A8.11,8.11,0,0,1,7,36.18a6.6,6.6,0,0,1,4.67.47,7,7,0,0,1,3.53,5.17,4.79,4.79,0,0,1-1.93,4.4c-1.53,1.23-4.16,1.71-5.12.92-.45-.37-.33-1-.05-1.78l3-7.66,0,0c-.06-.08-1.44-2-2.75-1.37-.42.2-3.23,9.49-4.08,12.33l0,.08.08,0c4,1.49,7.52,1.55,10.4.17a6.44,6.44,0,0,0,3.81-5.55c.13-2.69-1.46-5.13-4.38-6.7"/><path id="path64" class="cls-2" d="M7.44,19.39a3.07,3.07,0,0,0-1.69-1.58,2.86,2.86,0,0,0-2.36.44l4.05,1.14"/><path id="path66" class="cls-3" d="M5.23,19.84a2.88,2.88,0,0,0,2.21-.45L3.39,18.25a3,3,0,0,0,1.84,1.59"/><path id="path68" class="cls-2" d="M8.22,17.28A3.1,3.1,0,0,0,7.63,15a2.72,2.72,0,0,0-2.2-.91l2.79,3.17"/><path id="path70" class="cls-3" d="M6.13,16.47a3,3,0,0,0,2.09.81L5.43,14.11a3,3,0,0,0,.7,2.36"/><path id="path72" class="cls-3" d="M11.24,27.7a3.78,3.78,0,0,0-3,.26,3.66,3.66,0,0,0-1.4,2.57l4.39-2.83"/><path id="path74" class="cls-2" d="M9.83,30.24a3.56,3.56,0,0,0,1.41-2.54L6.85,30.53a3.68,3.68,0,0,0,3-.29"/><path id="path76" class="cls-3" d="M11,26.26a5.13,5.13,0,0,0-3.15-2,4.92,4.92,0,0,0-3.35,1l6.5,1"/><path id="path78" class="cls-2" d="M7.47,27.21A4.84,4.84,0,0,0,11,26.26l-6.5-1a5,5,0,0,0,3,1.95"/><path id="path80" class="cls-3" d="M22.17,13.67a4.78,4.78,0,0,0-2.34-2.34,4.22,4.22,0,0,0-3.46.2l5.8,2.14"/><path id="path82" class="cls-2" d="M18.74,13.88a4.58,4.58,0,0,0,3.43-.21l-5.8-2.14a4.7,4.7,0,0,0,2.37,2.35"/><path id="path84" class="cls-3" d="M14.57,29.77a3.22,3.22,0,0,0-.67-2.27,3.16,3.16,0,0,0-2.21-1l2.88,3.3"/><path id="path86" class="cls-2" d="M12.42,28.8a3,3,0,0,0,2.15,1l-2.88-3.3a3.36,3.36,0,0,0,.73,2.33"/><path id="path88" class="cls-3" d="M14.91,25.68a3.28,3.28,0,0,0-1.57-1.77,3.14,3.14,0,0,0-2.42,0l4,1.77"/><path id="path90" class="cls-2" d="M12.45,25.66a2.89,2.89,0,0,0,2.46,0l-4-1.77a3.26,3.26,0,0,0,1.53,1.75"/><path id="path92" class="cls-2" d="M10.82,22.12a3.27,3.27,0,0,0-2.13-1.25,3.09,3.09,0,0,0-2.38,1l4.51.27"/><path id="path94" class="cls-3" d="M8.58,23.11a3.28,3.28,0,0,0,2.24-1l-4.51-.27a3.28,3.28,0,0,0,2.27,1.26"/><path id="path96" class="cls-2" d="M24.94,9.07a3.81,3.81,0,0,0,.46-2.83,3.6,3.6,0,0,0-2.08-2.16l1.62,5"/><g id="g98"><g class="cls-4"><g id="g100"><path id="path106" class="cls-3" d="M22.94,7.08a3.71,3.71,0,0,0,2,2l-1.62-5a3.86,3.86,0,0,0-.38,3"/><path id="path108" class="cls-3" d="M29.55,6.74a3.54,3.54,0,0,0,.73-2.61,3.37,3.37,0,0,0-1.72-2.26l1,4.87"/><path id="path110" class="cls-2" d="M27.87,4.62a3.64,3.64,0,0,0,1.68,2.12l-1-4.87a3.39,3.39,0,0,0-.69,2.75"/></g></g></g><path id="path112" class="cls-3" d="M30,12.56a3.34,3.34,0,0,0,1.17-2.44A3.42,3.42,0,0,0,29.7,7.78l.3,4.78"/><path id="path114" class="cls-2" d="M28.59,10.3A3.58,3.58,0,0,0,30,12.56l-.3-4.78a3.18,3.18,0,0,0-1.11,2.52"/><path id="path116" class="cls-3" d="M31.65,15.58a3,3,0,0,0,1.69-2A3.4,3.4,0,0,0,32.55,11l-.9,4.6"/><path id="path118" class="cls-2" d="M30.9,13.1a3.69,3.69,0,0,0,.75,2.48l.9-4.6A3.11,3.11,0,0,0,30.9,13.1"/><path id="path120" class="cls-3" d="M36.11,21.42a3.07,3.07,0,0,0,2.54-.92,3.46,3.46,0,0,0,.63-2.7l-3.17,3.62"/><path id="path122" class="cls-2" d="M36.7,18.82a3.83,3.83,0,0,0-.59,2.6l3.17-3.62a3,3,0,0,0-2.58,1"/><path id="path124" class="cls-3" d="M45,18.79a3.55,3.55,0,0,0,2.63-1,3.68,3.68,0,0,0,.79-2.74L45,18.79"/><path id="path126" class="cls-2" d="M45.72,16.12A3.8,3.8,0,0,0,45,18.79l3.42-3.73a3.55,3.55,0,0,0-2.69,1.06"/><path id="path128" class="cls-3" d="M37.4,14.18a3.39,3.39,0,0,0,2.09-1.55,3.36,3.36,0,0,0,0-2.66L37.4,14.18"/><path id="path130" class="cls-2" d="M37.36,11.61a3.52,3.52,0,0,0,0,2.57L39.48,10a3.26,3.26,0,0,0-2.12,1.64"/><path id="path132" class="cls-3" d="M36.39,9.68a3.42,3.42,0,0,0,2.28-1.33A3.66,3.66,0,0,0,39,5.66l-2.6,4"/><path id="path134" class="cls-2" d="M36.66,7.08a3.59,3.59,0,0,0-.27,2.6l2.6-4a3.3,3.3,0,0,0-2.33,1.42"/><path id="path136" class="cls-3" d="M40.8,11.8A2.81,2.81,0,0,0,43,11.32a3,3,0,0,0,.92-2.07L40.8,11.8"/><path id="path138" class="cls-2" d="M41.65,9.78a3,3,0,0,0-.85,2l3.08-2.55a2.74,2.74,0,0,0-2.23.53"/><path id="path140" class="cls-3" d="M44.87,14.56a2.82,2.82,0,0,0,2-1.37,3.09,3.09,0,0,0,.08-2.42l-2,3.79"/><path id="path142" class="cls-2" d="M44.91,12.21a3.14,3.14,0,0,0,0,2.35l2-3.79a3,3,0,0,0-2,1.44"/><path id="path144" class="cls-3" d="M41.91,19.79a2.94,2.94,0,0,0,2-1.44,3.18,3.18,0,0,0,0-2.49l-2,3.93"/><path id="path146" class="cls-2" d="M41.92,17.37a3.18,3.18,0,0,0,0,2.42l2-3.93a3,3,0,0,0-2,1.51"/><path id="path148" class="cls-3" d="M48.43,17.88a2.56,2.56,0,0,0,2.17-.15,2.83,2.83,0,0,0,1.22-1.84l-3.39,2"/><path id="path150" class="cls-2" d="M49.58,16.07a2.85,2.85,0,0,0-1.15,1.81l3.39-2a2.75,2.75,0,0,0-2.24.18"/><path id="path152" class="cls-3" d="M46.88,21.31a2.78,2.78,0,0,0,2.21.44,2.93,2.93,0,0,0,1.72-1.51l-3.93,1.07"/><path id="path154" class="cls-2" d="M48.52,19.81a3,3,0,0,0-1.64,1.5l3.93-1.07a2.87,2.87,0,0,0-2.29-.43"/><path id="path156" class="cls-2" d="M50.31,22.07a3.38,3.38,0,0,0,2.44,1.17A3,3,0,0,0,55.18,22l-4.87.1"/><path id="path158" class="cls-3" d="M52.65,20.79a3.53,3.53,0,0,0-2.34,1.28l4.87-.1a3.39,3.39,0,0,0-2.53-1.18"/><path id="path160" class="cls-2" d="M46.65,21.93a2.89,2.89,0,0,0,.74,2.17,2.85,2.85,0,0,0,2.18.71l-2.92-2.88"/><path id="path162" class="cls-3" d="M48.81,22.62a3.06,3.06,0,0,0-2.16-.69l2.92,2.88a2.85,2.85,0,0,0-.76-2.19"/><path id="path164" class="cls-3" d="M39.26,25.57A2.81,2.81,0,0,0,41,24.07a2.9,2.9,0,0,0-.13-2.28l-1.61,3.78"/><path id="path166" class="cls-2" d="M39.11,23.29a3.09,3.09,0,0,0,.15,2.28l1.61-3.78a2.77,2.77,0,0,0-1.76,1.5"/><path id="path168" class="cls-3" d="M44.47,27.06a2.89,2.89,0,0,0-.28-2.27,3,3,0,0,0-2-1.15l2.27,3.42"/><path id="path170" class="cls-2" d="M42.54,26a3.19,3.19,0,0,0,1.93,1L42.2,23.64A2.89,2.89,0,0,0,42.54,26"/><path id="path172" class="cls-3" d="M40.26,9.76a3.31,3.31,0,0,0,2.11-1.47,3.53,3.53,0,0,0,.12-2.67L40.26,9.76"/><path id="path174" class="cls-2" d="M40.32,7.19a3.47,3.47,0,0,0-.06,2.57l2.23-4.14a3.25,3.25,0,0,0-2.17,1.57"/><path id="path176" class="cls-2" d="M20.91,6.33a2.92,2.92,0,0,0,.2-2.21,2.8,2.8,0,0,0-1.76-1.58l1.56,3.79"/><path id="path178" class="cls-3" d="M19.23,4.92a3.11,3.11,0,0,0,1.68,1.41L19.35,2.54a2.83,2.83,0,0,0-.12,2.38"/><path id="path180" class="cls-2" d="M27.44,10.36a3,3,0,0,0,.83-2.15,2.92,2.92,0,0,0-1.33-2.09l.5,4.24"/><path id="path182" class="cls-3" d="M26.14,8.47a3.23,3.23,0,0,0,1.3,1.89l-.5-4.24a2.9,2.9,0,0,0-.8,2.35"/><path id="path184" class="cls-3" d="M32,9.15a3,3,0,0,0,1.24-1.81,2.8,2.8,0,0,0-.73-2.25L32,9.15"/><path id="path186" class="cls-2" d="M31.24,7.09A3.13,3.13,0,0,0,32,9.15l.51-4.06a2.79,2.79,0,0,0-1.27,2"/><path id="path188" class="cls-3" d="M33.66,11A2.44,2.44,0,0,0,35,9.75a2.31,2.31,0,0,0-.24-2L33.66,11"/><path id="path190" class="cls-2" d="M33.36,9.26a2.61,2.61,0,0,0,.3,1.77l1.06-3.25a2.29,2.29,0,0,0-1.36,1.48"/><path id="path192" class="cls-3" d="M34.72,15.5a2.68,2.68,0,0,0,1.44-1.38A2.49,2.49,0,0,0,35.9,12L34.72,15.5"/><path id="path194" class="cls-2" d="M34.38,13.57a2.86,2.86,0,0,0,.34,1.93L35.9,12a2.57,2.57,0,0,0-1.52,1.62"/><path id="path196" class="cls-2" d="M21.32,11a3.45,3.45,0,0,0-.67-2.69,3.43,3.43,0,0,0-2.56-1.09L21.32,11"/><path id="path198" class="cls-3" d="M18.76,9.85A3.35,3.35,0,0,0,21.32,11L18.09,7.19a3.5,3.5,0,0,0,.67,2.66"/><path id="path200" class="cls-2" d="M24.5,19.1a3.39,3.39,0,0,0,.22-2.71,3.14,3.14,0,0,0-2.13-1.74L24.5,19.1"/><path id="path202" class="cls-3" d="M22.42,17.29A3.44,3.44,0,0,0,24.5,19.1l-1.91-4.45a3.46,3.46,0,0,0-.17,2.64"/><path id="path204" class="cls-2" d="M34.72,6.9a3.07,3.07,0,0,0,1.8-1.61,3.18,3.18,0,0,0-.33-2.51L34.72,6.9"/><path id="path206" class="cls-3" d="M34.38,4.41a3,3,0,0,0,.34,2.49l1.47-4.12a3,3,0,0,0-1.81,1.63"/><path id="path208" class="cls-2" d="M27.5,16.27a3.81,3.81,0,0,0,.68-2.75,3.35,3.35,0,0,0-2-2.19l1.36,4.94"/><path id="path210" class="cls-3" d="M25.51,14.25a3.43,3.43,0,0,0,2,2l-1.36-4.94a3.67,3.67,0,0,0-.63,2.92"/><path id="path212" class="cls-3" d="M37.8,16.68a4.41,4.41,0,0,0,3.27.05A4.35,4.35,0,0,0,43.2,14l-5.4,2.69"/><path id="path214" class="cls-2" d="M39.74,14a4.34,4.34,0,0,0-1.94,2.64L43.2,14a4.28,4.28,0,0,0-3.46,0"/><path id="path216" class="cls-3" d="M41.62,23a4.48,4.48,0,0,0,3.21-.25A4.07,4.07,0,0,0,46.68,20l-5.06,3"/><path id="path218" class="cls-2" d="M43.27,20.38A3.91,3.91,0,0,0,41.62,23l5.06-3a4.57,4.57,0,0,0-3.41.35"/><path id="path220" class="cls-3" d="M49,29a3.91,3.91,0,0,0-.38-3.09,4.12,4.12,0,0,0-2.74-1.61L49,29"/><path id="path222" class="cls-2" d="M46.4,27.56A4.11,4.11,0,0,0,49,29l-3.12-4.7a3.87,3.87,0,0,0,.48,3.27"/><path id="path224" class="cls-2" d="M23.88,13.25a3.26,3.26,0,0,0,.33-2.62A3.29,3.29,0,0,0,22.3,8.79l1.58,4.46"/><path id="path226" class="cls-3" d="M22,11.36a3.2,3.2,0,0,0,1.91,1.89L22.3,8.79A3.39,3.39,0,0,0,22,11.36"/><path id="path228" class="cls-3" d="M12.11,16.14a3,3,0,0,0-.6-2.21,2.6,2.6,0,0,0-2.2-.75l2.8,3"/><path id="path230" class="cls-2" d="M10.08,15.46a2.77,2.77,0,0,0,2,.68l-2.8-3a2.82,2.82,0,0,0,.77,2.28"/><path id="path232" class="cls-2" d="M16.73,13.85a3.15,3.15,0,0,0-1.51-1.95,3.14,3.14,0,0,0-2.57,0l4.08,1.92"/><path id="path234" class="cls-3" d="M14.33,14a3.34,3.34,0,0,0,2.4-.11l-4.08-1.92a3.26,3.26,0,0,0,1.68,2"/><path id="path236" class="cls-3" d="M17.46,9.93a3.9,3.9,0,0,0-1.22-2.69,2.91,2.91,0,0,0-2.5-.66l3.72,3.35"/><path id="path238" class="cls-2" d="M14.84,9.08a3.62,3.62,0,0,0,2.62.85L13.74,6.58a3.62,3.62,0,0,0,1.1,2.5"/><path id="path240" class="cls-2" d="M17.59,16.58a3.26,3.26,0,0,0-1.81-1.68,3,3,0,0,0-2.53.46l4.34,1.22"/><path id="path242" class="cls-3" d="M15.27,17.08a3.19,3.19,0,0,0,2.32-.5l-4.34-1.22a3.2,3.2,0,0,0,2,1.72"/><path id="path244" class="cls-2" d="M21.7,18.3a3.2,3.2,0,0,0-1.12-1.93,2.61,2.61,0,0,0-2.24-.15L21.7,18.3"/><path id="path246" class="cls-3" d="M19.6,18.24a2.68,2.68,0,0,0,2.1.06l-3.36-2.08a3,3,0,0,0,1.26,2"/><path id="path248" class="cls-3" d="M13.09,22a4.78,4.78,0,0,0-.34-3.12,4.31,4.31,0,0,0-3-2.11L13.09,22"/><path id="path250" class="cls-2" d="M10.26,20.16A4.48,4.48,0,0,0,13.09,22L9.77,16.81a4.7,4.7,0,0,0,.49,3.35"/><path id="path252" class="cls-3" d="M19.88,21.41a4.93,4.93,0,0,0-1.57-2.81,4.47,4.47,0,0,0-3.63-.79l5.2,3.6"/><path id="path254" class="cls-2" d="M16.44,20.77a4.68,4.68,0,0,0,3.44.64l-5.2-3.6a4.71,4.71,0,0,0,1.76,3"/><path id="path256" class="cls-5" d="M31.49,25.73c-.41,1-.34,1.87.18,1.91s1.26-.75,1.65-1.75.28-1.76-.21-1.81-1.21.68-1.62,1.65"/><path id="path258" class="cls-5" d="M29.07,18.47c-.49.8-.56,1.55-.15,1.65s1.13-.49,1.59-1.29.49-1.47.1-1.57-1.07.44-1.54,1.21"/><path id="path260" class="cls-5" d="M24.36,26c.54-.2.32-1.06-.47-1.9s-1.78-1.3-2.28-1.1-.35,1,.38,1.81,1.82,1.39,2.37,1.19"/><path id="path262" class="cls-5" d="M26,24.78c-1.9-2.66-2.33-3.58-4.81-5.69.57,1.05,9.65,13.12,1.18,6.81a19.72,19.72,0,0,0-11.24-3s12.41,1.31,14.59,9.67a4.06,4.06,0,0,1,0,.64A7,7,0,0,1,25,35.88,7.33,7.33,0,0,1,24,37.19a7.6,7.6,0,0,1-2.69,1.39c.6.43,2.64.07,3.55,0l3.38.15c.1,0,.43,0,.6,0l.54-1.52s1.51-.31,2.09-.41,1.22-.17,1.22-.17l-1,2.16c1.06.14,4.28.5,4.88.13-.68-.27-2.62-.48-3.42-1.62a15.34,15.34,0,0,1-.88-3.83.53.53,0,0,1,0-.14c1.5-10,11.73-13.63,11.73-13.63a18.23,18.23,0,0,0-10.2,6.7c-6.71,8.4-2.05-3.95-.67-5.41a10.93,10.93,0,0,0-3.41,4.8c.76-8.12,7.62-8.9,7.62-8.9-3.54-.1-6.25,2.85-6.25,2.85-5.8,6.27-3.64-2.7-1.17-4-.22.11-4.82,2.06-4,9"/></g></g></svg>