<svg id="Слой_1" data-name="Слой 1" xmlns="http://www.w3.org/2000/svg" viewBox="0 0 56.69 56.69"><defs><style>.cls-1{fill:#077eba;}</style></defs><path class="cls-1" d="M26.87,26l-5.24,4a4.61,4.61,0,0,0-4.44-3.5H13.43v9.27h3.76a4.48,4.48,0,0,0,4.44-3.49l5.24,4,5.24-4v3.49H38V33.93H34.13V26.54H32V30l-5,4-1.07-.94,2.42-1.88,2.55-2L29.42,28l-5,3.9L23.38,31l5-3.77L26.87,26ZM15.45,28.42h1.61a2.33,2.33,0,0,1,1,.22,2.6,2.6,0,0,1,.81.59,2.64,2.64,0,0,1,.56.89,3,3,0,0,1,.21,1.13,2.89,2.89,0,0,1-.19,1.06,2.82,2.82,0,0,1-.53.9,2.44,2.44,0,0,1-.81.62,2.32,2.32,0,0,1-1,.24H15.45V28.42Zm29.29,5.51v1.88H38.83V26.54H41v7.39ZM28.35,10.15a21.1,21.1,0,1,0,21.09,21.1A21.22,21.22,0,0,0,28.35,10.15Zm0,2.15a19.26,19.26,0,0,1,3.82.38,19.62,19.62,0,0,1,3.56,1.11A18.51,18.51,0,0,1,39,15.53a20,20,0,0,1,2.8,2.31,19,19,0,0,1,4.06,6,19.59,19.59,0,0,1,1.1,3.56,19.44,19.44,0,0,1,0,7.65,19.59,19.59,0,0,1-1.1,3.56A19,19,0,0,1,35.73,48.71a19.59,19.59,0,0,1-3.56,1.1,19.44,19.44,0,0,1-7.65,0,19.05,19.05,0,0,1-9.58-5.16,19.43,19.43,0,0,1-2.31-2.8A19.13,19.13,0,0,1,9.78,27.42a19.62,19.62,0,0,1,1.11-3.56,18.73,18.73,0,0,1,1.74-3.21,18.71,18.71,0,0,1,5.12-5.12A18.73,18.73,0,0,1,21,13.79a19.62,19.62,0,0,1,3.56-1.11,19.36,19.36,0,0,1,3.83-.38Z"/></svg>