<svg id="Слой_1" data-name="Слой 1" xmlns="http://www.w3.org/2000/svg" viewBox="0 0 56.69 56.69"><defs><style>.cls-1{fill:#87bd27;}.cls-2{fill:#0e0c0c;}</style></defs><g id="layer1"><g id="g3359"><g id="g3371"><path id="path3356" class="cls-1" d="M52.05,34.07a1.46,1.46,0,1,1,1.46,1.46,1.46,1.46,0,0,1-1.46-1.46"/><path id="path3360" class="cls-2" d="M5.55,30.21A3.27,3.27,0,0,0,5,28.15a2,2,0,0,0-1.63-.66H2.61v5.64H3.2A2.13,2.13,0,0,0,5,32.41a3.51,3.51,0,0,0,.57-2.2m2.76-.1A5.29,5.29,0,0,1,7,34a5.15,5.15,0,0,1-3.82,1.37H0V25.29H3.36A5.06,5.06,0,0,1,7,26.53a4.73,4.73,0,0,1,1.29,3.58"/><path id="path3362" class="cls-2" d="M17.13,35.37h2.53V25.24H17.13Z"/><path id="path3366" class="cls-2" d="M23.22,31.59a3.38,3.38,0,0,0,.26,1.48.88.88,0,0,0,.85.51.85.85,0,0,0,.83-.51,3.58,3.58,0,0,0,.24-1.48,3.42,3.42,0,0,0-.24-1.45.88.88,0,0,0-.85-.49.86.86,0,0,0-.83.48,3.29,3.29,0,0,0-.26,1.46m4.76,0a4,4,0,0,1-1,2.88,3.52,3.52,0,0,1-2.71,1,3.49,3.49,0,0,1-2.66-1,4,4,0,0,1-1-2.86,4,4,0,0,1,1-2.86,3.57,3.57,0,0,1,2.72-1,3.74,3.74,0,0,1,1.91.48,3.15,3.15,0,0,1,1.28,1.35A4.42,4.42,0,0,1,28,31.59"/><path id="path3370" class="cls-2" d="M29,35.37h2.53V27.85H29Z"/><path id="path3372" class="cls-2" d="M29,26.94h2.53v-1.7H29Z"/><path id="path3376" class="cls-2" d="M36.66,33.45a3.72,3.72,0,0,0,1.22-.26v1.89a4.58,4.58,0,0,1-1,.32,5,5,0,0,1-1.09.1A2.33,2.33,0,0,1,34,34.86a3,3,0,0,1-.56-2v-3.1h-.89V27.85h.89V25.93L36,25.48v2.37h1.62v1.94H36v2.93c0,.49.23.73.69.73"/><path id="path3380" class="cls-2" d="M42.53,33.45a3.72,3.72,0,0,0,1.22-.26v1.89a4.77,4.77,0,0,1-1,.32,5,5,0,0,1-1.09.1,2.32,2.32,0,0,1-1.84-.64,2.9,2.9,0,0,1-.57-2v-3.1H38.4V27.85h.88v-2l2.56-.42v2.37h1.62v1.94H41.84v2.93c0,.49.23.73.69.73"/><path id="path3384" class="cls-2" d="M47,30.68a1.34,1.34,0,0,1,.35-.91,1.05,1.05,0,0,1,.75-.29,1,1,0,0,1,.78.33,1.3,1.3,0,0,1,.3.87Zm3.57-2.08A3.49,3.49,0,0,0,48,27.71a3.45,3.45,0,0,0-2.68,1,4.16,4.16,0,0,0-.94,2.93,3.82,3.82,0,0,0,1,2.84,3.88,3.88,0,0,0,2.85,1,8.36,8.36,0,0,0,1.52-.12A4.23,4.23,0,0,0,50.94,35l-.39-1.69a5.22,5.22,0,0,1-.82.27,5.8,5.8,0,0,1-1.23.13,1.72,1.72,0,0,1-1.15-.36,1.29,1.29,0,0,1-.45-1h4.53V31.15a3.38,3.38,0,0,0-.91-2.55"/><path id="path3388" class="cls-2" d="M11.67,30.68a1.39,1.39,0,0,1,.35-.91,1.07,1.07,0,0,1,.75-.29,1,1,0,0,1,.78.33,1.3,1.3,0,0,1,.3.87Zm3.58-2.08a3.54,3.54,0,0,0-2.57-.89,3.47,3.47,0,0,0-2.68,1,4.16,4.16,0,0,0-.94,2.93,3.82,3.82,0,0,0,1,2.84,3.88,3.88,0,0,0,2.85,1,8.28,8.28,0,0,0,1.52-.12A4.23,4.23,0,0,0,15.66,35l-.39-1.69a4.9,4.9,0,0,1-.82.27,5.78,5.78,0,0,1-1.22.13,1.73,1.73,0,0,1-1.16-.36,1.32,1.32,0,0,1-.45-1h4.53V31.15a3.42,3.42,0,0,0-.9-2.55"/></g></g></g></svg>