<svg id="Слой_1" data-name="Слой 1" xmlns="http://www.w3.org/2000/svg" viewBox="0 0 56.69 56.69"><defs><style>.cls-1{fill:#183f74;}.cls-2{fill:#981732;}.cls-3{fill:#e31b38;}</style></defs><path class="cls-1" d="M2.8,48.35h3c3.11,0,5-1.62,5-4.29s-1.85-4.28-5-4.28h-3Zm1.92-7.08H5.83c2,0,3,1,3,2.79s-1,2.79-3,2.79H4.72Z"/><polygon class="cls-1" points="17.29 44.63 20.93 44.63 20.93 43.15 17.29 43.15 17.29 41.27 21.41 41.27 21.41 39.78 15.38 39.78 15.38 48.34 21.54 48.34 21.54 46.86 17.29 46.86 17.29 44.63"/><polygon class="cls-1" points="32.44 46.86 28.75 46.86 28.75 39.78 26.83 39.78 26.83 48.34 32.44 48.34 32.44 46.86"/><polygon class="cls-1" points="42.77 39.78 35.09 39.78 35.09 41.27 37.96 41.27 37.96 48.34 39.89 48.34 39.89 41.27 42.77 41.27 42.77 39.78"/><path class="cls-1" d="M53.89,48.35h-2l-.84-2.15H47.56l-.83,2.15H44.86l3.58-8.6h1.93ZM50.5,44.76l-1.19-3-1.2,3Z"/><path class="cls-2" d="M44.9,33.86l-16.55-8V8.35Zm1.32,3L28.35,29.35V36.9Z"/><polyline class="cls-3" points="11.79 33.86 28.35 8.35 28.35 25.89 11.79 33.86"/><polyline class="cls-3" points="10.47 36.9 28.35 36.9 28.35 29.36 10.47 36.9"/></svg>