<svg id="Слой_1" data-name="Слой 1" xmlns="http://www.w3.org/2000/svg" viewBox="0 0 56.69 56.69"><defs><style>.cls-1{fill:#ffcc07;}.cls-2{fill:#010101;}</style></defs><polygon class="cls-1" points="-1.2 -1.47 59.18 -1.47 59.18 57.8 -1.2 57.8 -1.2 -1.47 -1.2 -1.47"/><path class="cls-2" d="M25.66,29h5.08l-5.13,5.2H20.53Zm-6.85,0-5.14,5.2h5.09L23.89,29Zm13.11,0,5.13,5.2h5.09L37,29Zm6.86,0,5.13,5.2H49L43.86,29ZM31,28C17.63,28,12.48,16.44,13.17,7.67l3.91-1.25a15.52,15.52,0,0,0,2,10.25A10.74,10.74,0,0,1,29.8,3.88c6,0,11,4.38,10.94,10.67a33.17,33.17,0,0,0,1.62-8.61l9,2.24C50.66,18.76,42.72,28,31,28ZM37,14.77A7.22,7.22,0,1,0,29.82,22,7.21,7.21,0,0,0,37,14.77Z"/><path class="cls-2" d="M47.85,45.37l-1.44.45v1.25h-.86v1.2h.84v2.41a2.35,2.35,0,0,0,.45,1.61,2,2,0,0,0,1.54.5h.39l.31,0v-1.2l-.19,0H48.7a1.9,1.9,0,0,1-.37,0,.59.59,0,0,1-.27-.15.61.61,0,0,1-.15-.3,2,2,0,0,1,0-.47V48.27h1.22v-1.2H47.85Z"/><path class="cls-2" d="M26.22,36.31l-1.43.45V38h-.87v1.2h.84v2.41a2.31,2.31,0,0,0,.46,1.61,2,2,0,0,0,1.53.5h.39l.32,0v-1.2l-.2,0h-.19a2.05,2.05,0,0,1-.37,0,.56.56,0,0,1-.26-.15.72.72,0,0,1-.16-.3,2.08,2.08,0,0,1-.05-.48V39.21h1.23V38H26.22Z"/><path class="cls-2" d="M36.29,42.49a1.18,1.18,0,0,1-.95-.4A1.58,1.58,0,0,1,35,41v-.37a1.63,1.63,0,0,1,.34-1.1,1.15,1.15,0,0,1,.93-.39,1.45,1.45,0,0,1,1,.45l.74-.94a2.48,2.48,0,0,0-.88-.57,2.72,2.72,0,0,0-1.07-.2,2.6,2.6,0,0,0-1.06.2,2.36,2.36,0,0,0-.83.55,2.43,2.43,0,0,0-.52.85,3.31,3.31,0,0,0-.18,1.11V41a3.12,3.12,0,0,0,.19,1.13,2.43,2.43,0,0,0,.52.85,2.24,2.24,0,0,0,.82.55,2.92,2.92,0,0,0,1.08.19,2.75,2.75,0,0,0,2-.77L37.38,42A1.62,1.62,0,0,1,36.29,42.49Z"/><path class="cls-2" d="M31.25,40.28l-.65-.14c-.43-.1-.65-.29-.65-.57a.45.45,0,0,1,.23-.4,1.13,1.13,0,0,1,.63-.15,2.3,2.3,0,0,1,1.41.47l.57-1a3.47,3.47,0,0,0-2.12-.66,2.54,2.54,0,0,0-1.62.46,1.53,1.53,0,0,0-.59,1.27,1.59,1.59,0,0,0,.39,1.1,2.05,2.05,0,0,0,1.16.61l.65.15a1.09,1.09,0,0,1,.48.19.46.46,0,0,1,.15.36c0,.39-.32.58-.94.58a2.51,2.51,0,0,1-1.56-.54L28.2,43a3,3,0,0,0,1,.57,3.59,3.59,0,0,0,1.19.18,2.93,2.93,0,0,0,1.79-.47A1.53,1.53,0,0,0,32.8,42C32.8,41.06,32.29,40.5,31.25,40.28Z"/><path class="cls-2" d="M43.45,49.35l-.66-.15c-.43-.09-.64-.29-.64-.57a.44.44,0,0,1,.23-.4,1.13,1.13,0,0,1,.63-.14,2.28,2.28,0,0,1,1.4.46L45,47.6a3.46,3.46,0,0,0-2.11-.66,2.55,2.55,0,0,0-1.63.46,1.51,1.51,0,0,0-.59,1.27A1.64,1.64,0,0,0,41,49.78a2.18,2.18,0,0,0,1.16.6l.64.15c.43.09.65.27.65.55s-.32.58-1,.58A2.41,2.41,0,0,1,41,51.12l-.61.94a3.1,3.1,0,0,0,1,.57,3.67,3.67,0,0,0,1.19.18,2.91,2.91,0,0,0,1.79-.47A1.53,1.53,0,0,0,45,51C45,50.13,44.48,49.57,43.45,49.35Z"/><path class="cls-2" d="M21.5,41.87a1.3,1.3,0,0,1-.41.43,1.09,1.09,0,0,1-.61.17.76.76,0,0,1-.66-.28,1.2,1.2,0,0,1-.22-.79V38H18.13v3.5a2.65,2.65,0,0,0,.45,1.65,1.52,1.52,0,0,0,1.27.57,1.76,1.76,0,0,0,1-.3,2.23,2.23,0,0,0,.69-.8v1H23V38H21.5v3.86Z"/><path class="cls-2" d="M16.55,38.61a3,3,0,0,1,.63,2v.65H13.65a1.37,1.37,0,0,0,.41,1,1.41,1.41,0,0,0,1,.32,2.07,2.07,0,0,0,.73-.12,2.18,2.18,0,0,0,.65-.35L17,43a3.22,3.22,0,0,1-2.11.73,3.08,3.08,0,0,1-1.13-.19,2.27,2.27,0,0,1-.86-.53,2.2,2.2,0,0,1-.55-.86A3.17,3.17,0,0,1,12.2,41v-.44a3.35,3.35,0,0,1,.18-1.13,2.27,2.27,0,0,1,.51-.85,2.16,2.16,0,0,1,.8-.55,2.89,2.89,0,0,1,1.05-.18A2.27,2.27,0,0,1,16.55,38.61Z"/><path class="cls-1" d="M15.77,40.33a1.69,1.69,0,0,0-.29-.94,1.08,1.08,0,0,0-1.55,0,1.61,1.61,0,0,0-.28.94Z"/><path class="cls-2" d="M49,38.61a3,3,0,0,1,.63,2v.65H46.09a1.41,1.41,0,0,0,.4,1,1.45,1.45,0,0,0,1,.32,2.11,2.11,0,0,0,.73-.12,2.3,2.3,0,0,0,.65-.35l.62.93a3.22,3.22,0,0,1-2.11.73,3.08,3.08,0,0,1-1.13-.19,2.4,2.4,0,0,1-.87-.53,2.18,2.18,0,0,1-.54-.86A3.17,3.17,0,0,1,44.64,41v-.44a3.35,3.35,0,0,1,.18-1.13,2.25,2.25,0,0,1,.5-.85,2.34,2.34,0,0,1,.8-.55,3,3,0,0,1,1.06-.18A2.27,2.27,0,0,1,49,38.61Z"/><path class="cls-1" d="M48.21,40.33a1.77,1.77,0,0,0-.29-.94,1.08,1.08,0,0,0-1.55,0,1.69,1.69,0,0,0-.28.94Z"/><path class="cls-2" d="M41.92,37.9a1.78,1.78,0,0,0-1,.27,2.42,2.42,0,0,0-.68.74v-3H38.78v7.73h1.46V39.76a1.71,1.71,0,0,1,.42-.43,1.12,1.12,0,0,1,.64-.18.79.79,0,0,1,.68.28,1.25,1.25,0,0,1,.22.8v3.39h1.47v-3.5a2.55,2.55,0,0,0-.46-1.65A1.55,1.55,0,0,0,41.92,37.9Z"/><path class="cls-2" d="M39.65,48.52a3.39,3.39,0,0,1,.18,1.13v.45a3.35,3.35,0,0,1-.18,1.13,2.31,2.31,0,0,1-.53.85,2.23,2.23,0,0,1-.84.55,3.23,3.23,0,0,1-1.11.18,3.29,3.29,0,0,1-1.12-.18,2.32,2.32,0,0,1-.84-.55,2.43,2.43,0,0,1-.52-.85,3.35,3.35,0,0,1-.18-1.13v-.45a3.39,3.39,0,0,1,.18-1.13,2.43,2.43,0,0,1,.52-.85,2.17,2.17,0,0,1,.84-.54,3.06,3.06,0,0,1,1.12-.19,3,3,0,0,1,1.11.19,2.1,2.1,0,0,1,.84.54A2.31,2.31,0,0,1,39.65,48.52Z"/><path class="cls-1" d="M38.36,49.69a1.74,1.74,0,0,0-.31-1.14,1.1,1.1,0,0,0-.88-.38,1.09,1.09,0,0,0-.88.38A1.74,1.74,0,0,0,36,49.69v.37a1.74,1.74,0,0,0,.31,1.14,1.09,1.09,0,0,0,.88.38,1.1,1.1,0,0,0,.88-.38,1.74,1.74,0,0,0,.31-1.14Z"/><path class="cls-2" d="M33.82,46.73a2.21,2.21,0,0,1,.2,1v.22a2.24,2.24,0,0,1-.19,1,1.9,1.9,0,0,1-.56.72,2.44,2.44,0,0,1-.88.45,3.9,3.9,0,0,1-1.17.16H30v2.5H28.47V45.39h2.75a4.22,4.22,0,0,1,1.16.16,2.63,2.63,0,0,1,.88.46A2.07,2.07,0,0,1,33.82,46.73Z"/><path class="cls-1" d="M32.49,47.71a1,1,0,0,0-.33-.79,1.44,1.44,0,0,0-.94-.27H30v2.28h1.22a1.44,1.44,0,0,0,.94-.27,1,1,0,0,0,.33-.79Z"/><path class="cls-2" d="M10.46,37.2a3.34,3.34,0,0,1,.87,2.48v.59a3.34,3.34,0,0,1-.87,2.48,3.38,3.38,0,0,1-2.5.87H5.31V36.33H8A3.38,3.38,0,0,1,10.46,37.2Z"/><path class="cls-1" d="M9.8,39.74c0-1.4-.61-2.1-1.84-2.1H6.85V42.3H8c1.23,0,1.84-.69,1.84-2.09Z"/></svg>