<svg id="Слой_1" data-name="Слой 1" xmlns="http://www.w3.org/2000/svg" viewBox="0 0 56.69 56.69"><defs><style>.cls-1,.cls-2{fill:#e62147;}.cls-1{fill-rule:evenodd;}</style></defs><path id="path10" class="cls-1" d="M32,28.09c0-.61.85-1.06,2.17-1.06a6,6,0,0,1,3.78,1.28.34.34,0,0,0,.52-.09l1.07-2.13a.33.33,0,0,0-.09-.42A8.72,8.72,0,0,0,34.1,24c-3.63,0-5.65,2-5.65,4.34,0,5.41,8.19,3.54,8.19,5.91,0,.65-.74,1.2-2.31,1.2a7.82,7.82,0,0,1-4.48-1.47.35.35,0,0,0-.5.09l-1.22,2a.34.34,0,0,0,.07.42,9.43,9.43,0,0,0,6,1.95c3.82,0,6-1.88,6-4.42C40.12,28.57,32,30.26,32,28.09Z"/><path id="path12" class="cls-1" d="M15.43,18.88H12.24a.23.23,0,0,0-.23.23v6.73A5.56,5.56,0,0,0,7.89,24c-3.44,0-6.23,3.24-6.23,7.23s2.79,7.24,6.23,7.24A5.53,5.53,0,0,0,12,36.56v1.31a.23.23,0,0,0,.23.23h3.19a.23.23,0,0,0,.23-.23V19.11A.23.23,0,0,0,15.43,18.88ZM8.66,35.4c-1.85,0-3.35-1.88-3.35-4.2S6.81,27,8.66,27,12,28.87,12,31.17v.06C12,33.54,10.5,35.4,8.66,35.4Z"/><path id="path14" class="cls-1" d="M49.54,24a4.56,4.56,0,0,0-3.83,1.87V19.11a.23.23,0,0,0-.23-.23H42.29a.23.23,0,0,0-.23.23V37.87a.23.23,0,0,0,.23.23h3.19a.23.23,0,0,0,.23-.23v-8A2.71,2.71,0,0,1,48.58,27c1.57,0,2.8,1,2.8,3.33v7.52a.23.23,0,0,0,.23.23H54.8a.23.23,0,0,0,.24-.23V30.13C55,25.87,52.59,24,49.54,24Z"/><path id="path16" class="cls-2" d="M19.81,20.4A2.16,2.16,0,1,1,22,22.56,2.18,2.18,0,0,1,19.81,20.4Zm6.3,14.19a8.41,8.41,0,0,1-8.21,0c-.24-.13-.37.1-.32.3A4.6,4.6,0,0,0,22,38.45h0a4.59,4.59,0,0,0,4.41-3.56C26.47,34.69,26.35,34.46,26.11,34.59Zm-.87-5.14a6.67,6.67,0,0,1-6.48,0c-.19-.11-.29.08-.25.24A3.63,3.63,0,0,0,22,32.5h0a3.63,3.63,0,0,0,3.48-2.81C25.53,29.53,25.43,29.34,25.24,29.45Zm-.92-4.39a4.72,4.72,0,0,1-4.64,0c-.13-.07-.21.06-.18.18a2.6,2.6,0,0,0,2.49,2h0a2.6,2.6,0,0,0,2.49-2C24.53,25.12,24.46,25,24.32,25.06Z"/></svg>