<svg id="Слой_1" data-name="Слой 1" xmlns="http://www.w3.org/2000/svg" viewBox="0 0 56.69 56.69"><defs><style>.cls-1{fill:#d51116;}.cls-1,.cls-2{fill-rule:evenodd;}.cls-2{fill:#010101;}</style></defs><path class="cls-1" d="M25.58,10.38l-31,35.94H9.75l31-35.92-15.14,0Zm21.43,0L16,46.32H31.18l31-35.92L47,10.38Z"/><path class="cls-2" d="M17.46,26.52c-1.08,0-4.86.09-4.86,1.82,0,1.21,1.77,1.56,3.23,1.72,1,.11,1.91.11,1.91.11s.82,0,1.82,0c1.54-.08,3.51-.43,3.51-1.8,0-1.82-5.13-1.82-5.33-1.82Zm-10.15.05h-5a.61.61,0,0,0-.37.09.47.47,0,0,0-.13.33l0,2.72c0,.43.48.39.48.39H7.48a10.32,10.32,0,0,0,2.91-.36,1.48,1.48,0,0,0,1.17-1.4c0-.71-.69-1.2-1.62-1.46a11.48,11.48,0,0,0-2.63-.31Zm22.36,0h-5a.61.61,0,0,0-.37.09.47.47,0,0,0-.13.33l0,2.72c0,.43.48.39.48.39h5.25a10.32,10.32,0,0,0,2.91-.36,1.48,1.48,0,0,0,1.17-1.4c0-.71-.69-1.2-1.62-1.46A11.48,11.48,0,0,0,29.67,26.57Zm15,0H38.85s-.43,0-1,.05c-1.15.11-2.88.46-2.88,1.72a1.35,1.35,0,0,0,.87,1.26,9.55,9.55,0,0,0,3.27.5H44.3c.45,0,.5-.27.5-.45s0-.9,0-1.31-.44-.38-.44-.38H39.75c-.21,0-.21.16-.21.16s0,.22,0,.41.2.18.2.18h2.66a.18.18,0,0,1,.2.14v.32a.19.19,0,0,1-.18.18H39.35c-.47,0-2.13,0-2.13-1s2-1,2-1h5.46c.22,0,.19-.27.19-.27v-.33c0-.15-.11-.15-.16-.15Zm1.79,0c-.4,0-.54.07-.55.45s0,2.16,0,2.59.24.49.52.49h8.37a.16.16,0,0,0,.18-.18V29.5c0-.15-.23-.15-.23-.15H48.38c-.25,0-.24-.16-.24-.16v-.3a.2.2,0,0,1,.22-.19h6a.15.15,0,0,0,.17-.16v-.42c0-.17-.21-.17-.21-.17H48.34a.2.2,0,0,1-.2-.2v-.22a.2.2,0,0,1,.19-.21h6.28c.19,0,.21-.14.21-.27v-.33c0-.16-.22-.15-.22-.15Zm-28.7.7c.52,0,3.06,0,3.06,1.08s-2.37,1-3.06,1-2.89,0-2.89-1S17.23,27.27,17.76,27.27Zm-10.4.05a4.37,4.37,0,0,1,1.24.23c.42.16.71.45.71.79a.84.84,0,0,1-.52.73,4.5,4.5,0,0,1-1.44.28H4.12s-.18,0-.18-.17c0,0,0-1.67,0-1.69s0-.17.19-.17Zm22.35,0a4.42,4.42,0,0,1,1.25.23c.42.16.71.45.71.79a.83.83,0,0,1-.53.73,4.42,4.42,0,0,1-1.43.28H26.48s-.19,0-.19-.17c0,0,0-1.67,0-1.69s0-.17.19-.17Z"/></svg>