<svg id="Слой_1" data-name="Слой 1" xmlns="http://www.w3.org/2000/svg" viewBox="0 0 56.69 56.69"><defs><style>.cls-1{fill:#e73d26;}.cls-2{fill:#fff;}.cls-3{fill:#1d1f1f;}</style></defs><path id="path1584" class="cls-1" d="M26.43,41A12.84,12.84,0,0,1,13.17,28.48,12.9,12.9,0,0,1,26.3,15.86c-.9-.77-12.36-11.33-12.36-11.33L54.88,28.6,14.33,52.17Z"/><path id="path1586" class="cls-2" d="M28.1,40.07A11.59,11.59,0,1,0,16.52,28.48,11.62,11.62,0,0,0,28.1,40.07"/><path id="path1588" class="cls-3" d="M30,33.12H18.31l1.3-2.71h1.54l1.93-4.25H21.54l1.16-2.71h12a3.14,3.14,0,0,1,3.48,3.32,6.25,6.25,0,0,1-.64,2.61c-1.49,3.53-3.57,3.74-6.36,3.74H30M26.3,30.41H29a3,3,0,0,0,3.23-1.93,2.65,2.65,0,0,0,.22-1,1.21,1.21,0,0,0-1.26-1.33H28.1Z"/><g id="g3164"><path id="path1572" class="cls-3" d="M50.13,46.19l-.46,1.18h.88l-.46,1.05h-4.8l.42-1.05h1L48.2,44h-1l.33-1H54c1.14,0,1.47.16,1.6.58a2.38,2.38,0,0,1-.3,1.22,2.15,2.15,0,0,1-2.06,1.47Zm1.64-1c.46,0,.55-.21.59-.29a4.09,4.09,0,0,1,.21-.46c0-.13,0-.42-.34-.42H51.14l-.5,1.17h1.13"/><path id="path1574" class="cls-3" d="M1.09,48.42l.46-1.05h1L4,44H3.15l.46-1h6.82a1.31,1.31,0,0,1,.92.62c.51.89-.17,1.77-.46,2.57-.46,1-1.18,2.1-2.36,2.23l-.46.08Zm5.55-1.05c.3,0,.38-.08.63-.29a8.6,8.6,0,0,0,1.18-2.73c0-.22-.17-.38-.42-.38H6.89l-1.51,3.4H6.64"/><path id="path1576" class="cls-3" d="M40.54,48.42c-.67,0-1.14,0-1.76,0a1.49,1.49,0,0,1-1.35-.76c-.3-.79.08-1.3.42-2,.63-1.26.93-2.15,1.94-2.49a8.86,8.86,0,0,1,2.81-.29,18.51,18.51,0,0,1,2.7.13,1.32,1.32,0,0,1,1.17.8,2.79,2.79,0,0,1-.38,1.55,12.21,12.21,0,0,1-1.05,2,2.71,2.71,0,0,1-1.93,1.05c-.76.08-1.68.08-2.44.08Zm2.15-1.89c.29-.63.58-1.13.84-1.81.08-.25.29-.92-.93-1s-1.47.59-1.6.88c-.16.46-.71,1.43-.79,1.81-.26.88.46.92.79.92,0,0,1.27.13,1.69-.84"/><path id="path1578" class="cls-3" d="M19.77,44a27.48,27.48,0,0,1-1.52,3.32,2.93,2.93,0,0,1-2.48,1.18,14.55,14.55,0,0,1-3-.09,1.29,1.29,0,0,1-.93-.92,1.33,1.33,0,0,1,.17-.89c.38-.84,1.1-2.6,1.1-2.6h-.93l.42-1h4.84L17,44h-.93l-1.13,2.6a.63.63,0,0,0,.12.59,1.67,1.67,0,0,0,1.35.17,1.64,1.64,0,0,0,.88-.8L18.38,44h-.89l.46-1h3.2l-.46,1Z"/><path id="path1580" class="cls-3" d="M29.19,44l-1.94,4.45H25l-1.77-3.36-1,2.31h.89l-.42,1-3.37,0,.46-1.05h1.06L22.25,44h-.93l.38-1h3.45l1.64,3.27,1-2.22h-.88l.42-1h3.24l-.38,1Z"/><path id="path1582" class="cls-3" d="M34.7,44l-1.43,3.4h1.55l1.43-1.6h1L36,48.42H28.76l.51-1.05h1L31.71,44h-.93l.38-1h4.92l-.42,1Z"/></g></svg>