<svg id="Слой_1" data-name="Слой 1" xmlns="http://www.w3.org/2000/svg" viewBox="0 0 56.69 56.69"><defs><style>.cls-1{fill:#e3051e;}</style></defs><g id="layer1"><g id="g9175"><path id="path8097" class="cls-1" d="M11.29,22.08a11.61,11.61,0,0,0-3.36.79v11a13.39,13.39,0,0,0,3.36.78A2.3,2.3,0,0,0,13.68,32V24.71c0-1.62-.86-2.63-2.39-2.63m.5,9.62c0,.63-.36.84-.78.84a5.31,5.31,0,0,1-1.25-.25v-7.9A5.81,5.81,0,0,1,11,24.15c.42,0,.78.21.78.84Z"/><path id="path8101" class="cls-1" d="M33.19,20.11c-1.94-.1-3.09.82-3.09,2.93V33.53c0,2.23,1,3.15,3.09,3s3.06-.91,3.06-3.28v-10c0-2.26-1-3.07-3.06-3.18m.94,13.23c0,.64-.19,1-.94,1s-1-.33-1-1v-10c0-.66.21-1,1-1s.94.37.94,1Z"/><path id="path8105" class="cls-1" d="M52.06,24.21v8.26c2.38-1.22,3.74-2.63,3.74-4.15s-1.36-2.91-3.74-4.12"/><path id="path8109" class="cls-1" d="M.89,28.32c0,1.51,1.36,2.93,3.74,4.15V24.21C2.25,25.41.89,26.82.89,28.32"/><path id="path8113" class="cls-1" d="M19,33c0,.63-.2,1-.93.94s-.92-.43-.92-1.18V20.83l-2,.29V33.17c0,1.92.86,2.67,2.92,2.92,1.88.23,3-.79,3-2.92V20.44c-.39,0-1.68.14-2.1.19Z"/><path id="path8117" class="cls-1" d="M42.06,29l-2.33-8.15c-.63-.09-1.39-.18-2-.24V36c.42,0,1.47-.17,2-.25l-.17-9.07,2.46,8.72c.52-.09,1.28-.23,1.78-.34V21.58c-.52-.11-1.47-.28-1.93-.36Z"/><path id="path8121" class="cls-1" d="M25.66,20.2c-.36,0-1.69.05-2.91.13v16c.42,0,1.51.09,2.1.1V31h.81c2.2,0,3.11-1.07,3.11-3.11V23.19c0-2-1-3-3.11-3m1,7.55c0,.69-.22,1-1.07,1h-.73V22.46c.32,0,.5,0,.69,0,.92,0,1.11.37,1.11,1.08Z"/><path id="path8125" class="cls-1" d="M44.88,24q.78.15,1.53.33V34.51c.45-.12,1.3-.36,1.87-.54V24.76q.82.22,1.53.45v-2a36.56,36.56,0,0,0-4.93-1.42Z"/></g></g></svg>