<svg id="Слой_1" data-name="Слой 1" xmlns="http://www.w3.org/2000/svg" xmlns:xlink="http://www.w3.org/1999/xlink" viewBox="0 0 56.69 56.69"><defs><style>.cls-1{fill:url(#Безымянный_градиент_4);}.cls-2{fill:url(#Безымянный_градиент_4-2);}.cls-3{fill:url(#Безымянный_градиент_4-3);}.cls-4{fill:url(#Безымянный_градиент_3);}.cls-5{fill:url(#Безымянный_градиент_4-4);}</style><linearGradient id="Безымянный_градиент_4" x1="2.25" y1="58.81" x2="53.81" y2="-3.32" gradientUnits="userSpaceOnUse"><stop offset="0" stop-color="#223971"/><stop offset="0.25" stop-color="#1a407e"/><stop offset="0.54" stop-color="#06559f"/><stop offset="0.75" stop-color="#0c63ad"/><stop offset="1" stop-color="#0f75bb"/></linearGradient><linearGradient id="Безымянный_градиент_4-2" x1="-345.08" y1="-196.3" x2="-284.59" y2="-268.65" gradientTransform="translate(264.23 203.01) scale(0.75)" xlink:href="#Безымянный_градиент_4"/><linearGradient id="Безымянный_градиент_4-3" x1="-344.65" y1="-196.56" x2="-284.31" y2="-269.28" gradientTransform="translate(264.23 203.01) scale(0.75)" xlink:href="#Безымянный_градиент_4"/><linearGradient id="Безымянный_градиент_3" x1="-343.38" y1="-197.57" x2="-286.07" y2="-267.68" gradientTransform="translate(264.23 203.01) scale(0.75)" gradientUnits="userSpaceOnUse"><stop offset="0" stop-color="#ffd405"/><stop offset="0.9" stop-color="#ffe505"/><stop offset="1" stop-color="#ffe505"/></linearGradient><linearGradient id="Безымянный_градиент_4-4" x1="-337.37" y1="-203.05" x2="-291.78" y2="-261.01" gradientTransform="translate(264.23 203.01) scale(0.75)" xlink:href="#Безымянный_градиент_4"/></defs><rect class="cls-1" x="-0.91" y="-1.14" width="57.84" height="57.84"/><g id="layer1"><polygon id="polygon13" class="cls-2" points="6.63 2.22 6.63 54.56 6.99 54.84 49.7 54.84 50.06 54.52 50.06 2.16 49.65 1.85 7.05 1.85 6.63 2.22"/><path id="path26" class="cls-3" d="M6.63,54.57V2.22l.42-.37h42.6l.41.31V54.51l-.36.33H7ZM5.76.72A.26.26,0,0,0,5.5,1V55.72a.26.26,0,0,0,.26.25H50.94a.25.25,0,0,0,.25-.25V1a.25.25,0,0,0-.25-.25Z"/><path id="path103" class="cls-4" d="M7,1.85a.38.38,0,0,0-.38.37V54.47a.37.37,0,0,0,.38.37H49.69a.37.37,0,0,0,.37-.37V2.22a.38.38,0,0,0-.37-.37Z"/><path id="path150" class="cls-5" d="M11,44.53v5.94h5.84V49.06h-4v-1h4v-1.3h-4v-.94h4V44.53Zm8.79,1.41h.88c1.29,0,2.12.44,2.12,1.53S22.1,49,20.67,49.06h-.88Zm-1.73-1.41v5.94h3c2.19,0,3.53-1,3.53-3S23.22,44.53,21,44.53Zm18.57,0-2.24,2.56V44.53h-1.8v5.94h1.8V49.2l.94-.85,1.61,2.12h2.2l-2.61-3.32L39,44.53ZM42.72,46h.21l.74,2H42Zm-1.29-1.43-2,5.94h1.79l.36-1.07h2.51l.32,1.07h1.78l-2-5.94Zm-15.91,0v5.94h5.84V49.09h-4v-1h4v-1.3h-4v-.94l4,0V44.53ZM11,6.74V41.12H45V31.85H21.3v-3.5H45V19.29H21.3V16.08H45V6.74Z"/></g></svg>