<svg id="Слой_1" data-name="Слой 1" xmlns="http://www.w3.org/2000/svg" viewBox="0 0 56.69 56.69"><defs><style>.cls-1{fill:#e44290;}</style></defs><path class="cls-1" d="M47,32.33h-.43a.18.18,0,0,1-.17-.17V24.48c0-.09,0-.18.08-.2a1,1,0,0,1,.43-.06h.52a1.2,1.2,0,0,1,1.2,1.2v2.93l1.84-1.87c.37-.34,1.69-1.69,1.69-1.69a1.77,1.77,0,0,1,1.32-.57h.31a.58.58,0,0,1,.52.23,1,1,0,0,1,.14.26,1.52,1.52,0,0,1,0,.28,1.48,1.48,0,0,1-.4,1l-2,2A.76.76,0,0,0,52,29.09a3.19,3.19,0,0,0,1.08.69l.49.2a1.51,1.51,0,0,1,.92,1.38v.83a.18.18,0,0,1-.17.2H54a2.78,2.78,0,0,1-1-.26l-2.26-1A2.14,2.14,0,0,0,50,31a.74.74,0,0,0-.26,0h-.17a1.1,1.1,0,0,0-.66.31l-.51.52a1.92,1.92,0,0,1-1.32.57Zm-9.58-1a2.4,2.4,0,0,1,.23.2v.57a.2.2,0,0,1-.2.23H35.71a1.35,1.35,0,0,1-.83-.29L32.19,30a1,1,0,0,1-.29-.71v-.86c0-.15.06-.23.14-.23a.82.82,0,0,1,.29.08l.32.09a2.75,2.75,0,0,0,.8.14,1.13,1.13,0,0,0,1.15-.63c.11-.37-.23-1.2-1.47-1.52-.94-.23-1.77-.06-2,.4a1.26,1.26,0,0,0-.06.15.66.66,0,0,0,0,.23v3.32a2.08,2.08,0,0,1-.4,1.38,1.31,1.31,0,0,1-.69.51,2,2,0,0,1-.57.09,1.17,1.17,0,0,1-.46-.06c-.08,0-.08-.11-.08-.2V24.42a.18.18,0,0,1,.17-.17h3.27a5.83,5.83,0,0,1,3.15,1,4,4,0,0,1,1.09,1.12,2.49,2.49,0,0,1,.43,1.37A1.85,1.85,0,0,1,36.46,29a4.28,4.28,0,0,1-1.15.84c.12.11.46.37.89.71a4.26,4.26,0,0,0,1.26.78ZM26.74,30.24a1.12,1.12,0,0,1,1,.4,1.21,1.21,0,0,1,.34.92v.69a.18.18,0,0,1-.17.17H24.51A4.06,4.06,0,0,1,22.73,32a4.22,4.22,0,0,1-1.46-1,4.93,4.93,0,0,1-1-1.46,4.18,4.18,0,0,1-.37-1.78V24.45a.18.18,0,0,1,.17-.17h3.35a4,4,0,0,1,1.75.37A4.94,4.94,0,0,1,27.66,27,2.94,2.94,0,0,1,28,28.38a1.1,1.1,0,0,1-.2.68,1,1,0,0,1-.83.32H24.71a1.72,1.72,0,0,1-1.55-.92,1.09,1.09,0,0,1-.15-.63c0-.14.09-.2.23-.2h2.47a4.72,4.72,0,0,0-1-.92,2.82,2.82,0,0,0-.78-.31,1.76,1.76,0,0,0-.91,0,.93.93,0,0,0-.35.11,3,3,0,0,0-.26.17,1.25,1.25,0,0,0-.37,1,2.87,2.87,0,0,0,.17,1,2.67,2.67,0,0,0,.52.83,3.4,3.4,0,0,0,.74.58,2.83,2.83,0,0,0,.95.2Zm-7.6-4.82V32.1a.22.22,0,0,1-.23.23h-.77a1.2,1.2,0,0,1-1.2-1.2V29.69a1.14,1.14,0,0,0-1.12-1.11c-1.15,0-2,1-2.7,1.63-.91.8-1.6,1.58-2.46,1.58S9.11,31,8.19,30.21c-.74-.66-1.54-1.63-2.69-1.63a1.14,1.14,0,0,0-1.12,1.14V32.1a.23.23,0,0,1-.23.23H3.38a1.21,1.21,0,0,1-1.21-1.2V24.45a.31.31,0,0,1,.23-.26H3.92a2,2,0,0,1,1.41.57l1.89,1.78a4.78,4.78,0,0,0,3.44,1.38A4.83,4.83,0,0,0,14,26.66l2.53-2.38a.35.35,0,0,1,.17-.06h1.26A1.2,1.2,0,0,1,19.14,25.42ZM45.55,29c.11,0,.17.06.08.23a4.11,4.11,0,0,1-.31,1.32,2.74,2.74,0,0,1-.72,1.06,3.73,3.73,0,0,1-1.06.69,3.56,3.56,0,0,1-1.35.25,4.21,4.21,0,0,1-1.75-.4,5.44,5.44,0,0,1-1.49-1,5.59,5.59,0,0,1-1-1.52,4.28,4.28,0,0,1-.37-1.81V24.45c0-.15.08-.23.2-.23h3.3a4.25,4.25,0,0,1,1.69.34,5.73,5.73,0,0,1,1.49,1,.92.92,0,0,1,.11.14.16.16,0,0,1-.05.14l-.84.84a.88.88,0,0,1-.6.31,1,1,0,0,1-.54-.2,1.93,1.93,0,0,0-1.24-.46,1.18,1.18,0,0,0-.91.37,1.31,1.31,0,0,0-.38,1,2.32,2.32,0,0,0,.23.94,3.42,3.42,0,0,0,.58.86,3.52,3.52,0,0,0,.8.64,1.67,1.67,0,0,0,.86.25,1.2,1.2,0,0,0,.75-.23,1.17,1.17,0,0,0,.43-.6.85.85,0,0,1,.88-.57Z"/></svg>