<svg id="Слой_1" data-name="Слой 1" xmlns="http://www.w3.org/2000/svg" viewBox="0 0 56.69 56.69"><defs><style>.cls-1{fill:#144392;}</style></defs><g id="layer1"><g id="g3414"><path id="path3416" class="cls-1" d="M38.33,32.49c-2.24,0-3.1-2.05-3.1-4.14s.86-4.15,3.1-4.15,3.09,2.06,3.09,4.15-.86,4.14-3.09,4.14m0-10.39c-3.52,0-5.55,2.63-5.55,6.25s2,6.25,5.55,6.25,5.55-2.64,5.55-6.25-2-6.25-5.55-6.25"/></g><g id="g3418"><path id="path3420" class="cls-1" d="M2.39,22.45H11.2v2.1H4.84v2.62h5.93v2H4.84v2.92H11.2v2.11H2.39Z"/></g><g id="g3422"><path id="path3424" class="cls-1" d="M16.93,28.6H14.71V24.55h2.22c1.54,0,2.57.67,2.57,2s-1,2-2.57,2m-4.67,5.65h2.45V30.71h2.22c3,0,5-1.48,5-4.13s-2-4.13-5-4.13H12.26Z"/></g><g id="g3426"><path id="path3428" class="cls-1" d="M47.32,22.45H44.8v11.8h2.41V29.47c0-1.31-.05-2.47-.09-3.5.28.59,1.14,2.37,1.54,3l3.13,5.25h2.52V22.45H51.9v4.66c0,1.3.05,2.59.09,3.61-.28-.59-1.14-2.36-1.54-3Z"/></g><g id="g3430"><path id="path3432" class="cls-1" d="M24.74,30.34c0,1.59,1.32,2.2,2.72,2.2.92,0,2.4-.26,2.4-1.48s-1.81-1.53-3.57-2-3.61-1.17-3.61-3.36c0-2.44,2.31-3.6,4.46-3.6,2.49,0,4.78,1.08,4.78,3.83H29.46c-.08-1.43-1.18-1.8-2.43-1.8-.84,0-1.89.35-1.89,1.36s.6,1.05,3.58,1.82c.87.22,3.6.75,3.6,3.45,0,2.19-1.72,3.82-5,3.82-2.64,0-5.11-1.3-5.08-4.24Z"/></g></g></svg>