<svg id="Слой_1" data-name="Слой 1" xmlns="http://www.w3.org/2000/svg" viewBox="0 0 56.69 56.69"><defs><style>.cls-1{fill:#010101;}</style></defs><path class="cls-1" d="M35.83,14.94,19,20.56A3.07,3.07,0,0,0,17,24.43h0a3.08,3.08,0,0,0,3.88,1.94l16.88-5.62a3.07,3.07,0,0,0,1.94-3.87h0A3.07,3.07,0,0,0,35.83,14.94Z"/><path class="cls-1" d="M35.83,5.19,19,10.81A3.07,3.07,0,0,0,17,14.69h0a3.07,3.07,0,0,0,3.88,1.93L37.77,11a3.08,3.08,0,0,0,1.94-3.88h0A3.08,3.08,0,0,0,35.83,5.19Z"/><path class="cls-1" d="M35.83,24.69,18.92,30.3A3.08,3.08,0,0,0,17,34.18h0a3.08,3.08,0,0,0,3.88,1.94L37.74,30.5a3.08,3.08,0,0,0,1.94-3.88h0A3,3,0,0,0,35.83,24.69Z"/><polygon class="cls-1" points="3.81 48.48 7.41 48.48 7.41 46.85 3.81 46.85 3.81 45.47 7.55 45.47 7.55 43.9 1.76 43.9 1.76 51.48 7.6 51.48 7.6 49.88 3.81 49.88 3.81 48.48"/><rect class="cls-1" x="16.56" y="43.9" width="2.05" height="7.58"/><path class="cls-1" d="M21.73,47.64c.06-2.53,2.59-2.84,4.27-1.89l.14-1.63h0C23.25,43,19.62,44,19.62,47.61s3.57,4.63,6.55,3.68l-.11-1.66C24.37,50.53,21.7,50.16,21.73,47.64Z"/><path class="cls-1" d="M29.06,45.89c0-.9,2-.87,3-.31L32.21,44h0c-2.5-.76-5.25-.17-5.25,2.05,0,2.7,3.54,2,3.54,3.23s-1.94,1-3.29.34l-.14,1.68c2.16.65,5.5.62,5.5-2.19S29.06,47.24,29.06,45.89Z"/><path class="cls-1" d="M35.3,45.89c0-.9,2-.87,3-.31L38.44,44h0c-2.5-.76-5.25-.17-5.25,2.05,0,2.7,3.54,2,3.54,3.23s-1.94,1-3.29.34l-.16,1.68c2.16.65,5.53.62,5.53-2.19S35.3,47.24,35.3,45.89Z"/><polygon class="cls-1" points="53.05 43.9 53.05 48.79 50.55 43.9 47.94 43.9 47.94 51.48 49.85 51.48 49.85 46.48 52.46 51.48 54.93 51.48 54.93 43.9 53.05 43.9"/><path class="cls-1" d="M43.16,43.7c-2.13,0-3.76,1.27-3.76,4s1.63,4,3.76,4a3.6,3.6,0,0,0,3.77-4C47,45,45.33,43.7,43.16,43.7Zm0,6.46c-1.15,0-1.65-1.32-1.65-2.47s.5-2.47,1.65-2.47,1.66,1.4,1.66,2.47S44.34,50.16,43.16,50.16Z"/><path class="cls-1" d="M13.87,47.75a1.7,1.7,0,0,0,1.32-1.83c0-1.57-1.41-2-2.42-2H9.06v7.58h2V48.62a6.7,6.7,0,0,1,.81,0,.8.8,0,0,1,.76.59l.78,2.27h2.2s-1.07-2.95-1.07-3A1.34,1.34,0,0,0,13.87,47.75Zm-1.72-.68H11V45.39h1.15a.85.85,0,0,1,.93.84A.83.83,0,0,1,12.15,47.07Z"/></svg>