<svg id="Слой_1" data-name="Слой 1" xmlns="http://www.w3.org/2000/svg" viewBox="0 0 56.69 56.69"><defs><style>.cls-1{fill:none;}.cls-2{fill:#1e1738;}</style></defs><g id="svg_1" data-name="svg 1"><g id="svg_2" data-name="svg 2"><rect id="svg_3" data-name="svg 3" class="cls-1" x="-5.81" y="18.43" width="68.32" height="19.83"/><g id="svg_4" data-name="svg 4"><g id="svg_5" data-name="svg 5"><g id="svg_6" data-name="svg 6"><path id="svg_7" data-name="svg 7" class="cls-2" d="M14.7,25.83a.92.92,0,0,1,1.83,0v3a1.34,1.34,0,1,0,2.68,0v-3a.92.92,0,0,1,1.83,0v2.85a3.05,3.05,0,0,1-3.17,3.15,3.05,3.05,0,0,1-3.17-3.15V25.83Z"/></g><path id="svg_8" data-name="svg 8" class="cls-2" d="M6.76,28.94H2.7a1.54,1.54,0,0,0,1.65,1.45A2.25,2.25,0,0,0,5.75,30a1,1,0,0,1,.67-.31.66.66,0,0,1,.73.67,1.15,1.15,0,0,1-.65.92,4,4,0,0,1-2.23.6A3.27,3.27,0,0,1,.8,28.35a3.36,3.36,0,0,1,3.44-3.49,3.2,3.2,0,0,1,3.17,3.49A.58.58,0,0,1,6.76,28.94ZM4.24,26.32a1.45,1.45,0,0,0-1.51,1.33H5.67A1.48,1.48,0,0,0,4.24,26.32Z"/><path id="svg_9" data-name="svg 9" class="cls-2" d="M12.9,26.85a2.3,2.3,0,0,1-.8-.29A3,3,0,0,0,11,26.32c-.56,0-1,.14-1,.5s.29.52,1.27.78c1.45.4,2.48.84,2.48,2.19s-1,2.05-2.74,2.05a4.17,4.17,0,0,1-2.41-.69.91.91,0,0,1-.39-.78.62.62,0,0,1,.67-.59,1.2,1.2,0,0,1,.71.26,2.78,2.78,0,0,0,1.47.45c.57,0,1-.19,1-.54s-.36-.52-1.25-.77c-1.94-.51-2.5-1.28-2.5-2.34s.93-2,2.72-2a3.75,3.75,0,0,1,1.66.35c.54.24.93.56.93,1A.61.61,0,0,1,12.9,26.85Z"/><path id="svg_10" data-name="svg 10" class="cls-2" d="M25.77,26.59c-1,0-1.55.48-1.55,1.82v2.45a.93.93,0,0,1-1.85,0v-5a.89.89,0,0,1,.93-.93.94.94,0,0,1,.92.93V26a1.41,1.41,0,0,1,1.43-1.16.83.83,0,0,1,.94.88A.75.75,0,0,1,25.77,26.59Z"/><path id="svg_11" data-name="svg 11" class="cls-2" d="M33.87,30.84a.86.86,0,0,1-.89.93.85.85,0,0,1-.88-.93v0a2.17,2.17,0,0,1-2,1,3.25,3.25,0,0,1-3.31-3.48,3.36,3.36,0,0,1,3.54-3.49,3.29,3.29,0,0,1,3.52,3.49Zm-3.52-4.4a1.77,1.77,0,0,0-1.74,1.91,1.74,1.74,0,1,0,3.46,0A1.71,1.71,0,0,0,30.35,26.44Z"/><path id="svg_12" data-name="svg 12" class="cls-2" d="M38.33,24.86A3.1,3.1,0,0,1,41.56,28v2.85a.91.91,0,0,1-1.82,0v-3a1.41,1.41,0,0,0-2.81,0v3a.92.92,0,0,1-1.83,0V28A3.1,3.1,0,0,1,38.33,24.86Z"/><path id="svg_13" data-name="svg 13" class="cls-2" d="M48.44,25.76a.84.84,0,0,1,.26.62.67.67,0,0,1-.71.7.88.88,0,0,1-.57-.18,2.06,2.06,0,0,0-1.31-.49,1.78,1.78,0,0,0-1.78,1.94,1.77,1.77,0,0,0,1.78,1.93,2,2,0,0,0,1.31-.49.88.88,0,0,1,.57-.18.67.67,0,0,1,.71.7.88.88,0,0,1-.26.63,3.17,3.17,0,0,1-2.34.89,3.49,3.49,0,1,1,0-7A3.13,3.13,0,0,1,48.44,25.76Z"/><path id="svg_14" data-name="svg 14" class="cls-2" d="M55.24,28.94H51.19a1.53,1.53,0,0,0,1.64,1.45,2.25,2.25,0,0,0,1.4-.44,1.07,1.07,0,0,1,.67-.31.67.67,0,0,1,.74.67,1.16,1.16,0,0,1-.66.92,3.9,3.9,0,0,1-2.22.6,3.28,3.28,0,0,1-3.48-3.48,3.36,3.36,0,0,1,3.45-3.49,3.2,3.2,0,0,1,3.16,3.49A.58.58,0,0,1,55.24,28.94Zm-2.51-2.62a1.45,1.45,0,0,0-1.51,1.33h2.94A1.49,1.49,0,0,0,52.73,26.32Z"/></g></g></g></g></svg>