<svg id="Слой_1" data-name="Слой 1" xmlns="http://www.w3.org/2000/svg" xmlns:xlink="http://www.w3.org/1999/xlink" viewBox="0 0 56.69 56.69"><defs><style>.cls-1{fill:#ffcf02;}.cls-2{fill:#e00f18;}.cls-3{clip-path:url(#clip-path);}</style><clipPath id="clip-path"><path class="cls-1" d="M81.81,25.85c.11-9.94,5.28-13,8.09-13a5.81,5.81,0,0,1,5.82,4.33c.26,1.33,1.75,2.39,2.23.22s5.1-8.82,10.78-8.82c5.21,0,7,5.37,6.85,9.93C115.16,30.9,99.15,40.82,97,47.08,95.17,43.29,81.67,37.8,81.81,25.85Zm28.78-20.4c-4.67,0-10.2,3.45-13.54,9.19-.91-2.08-4.12-4.33-8-4.33-3.08,0-11.72,3.85-11.72,16.28,0,16.05,16.22,19.34,19.5,24.33a.67.67,0,0,0,1.23-.22C100.73,43,121,34.24,121,18.52c0-8.82-5.76-13.07-10.44-13.07Z"/></clipPath></defs><g id="Layer_1-2" data-name="Layer 1-2"><g id="Artwork"><path class="cls-2" d="M45.65,29.81A25.17,25.17,0,0,0,48.75,20H43.41a20.18,20.18,0,0,1-1.25,6,15.93,15.93,0,0,1-2.75,4.79h0a8.62,8.62,0,0,1-6.49,3.29c-3,0-5.05-1.29-5.82-3.44H21.41c-.92,2.23-3.1,3.33-5.87,3.33-3,0-6.13-2.18-6.49-6.61H26.87c.46-2.18,2.18-3.82,5-4.9,0,0,2.59-.95,5.15-2.05h0c3.57-1.64,6.23-4.59,6.23-8.31C43.23,6.85,38.7,5,34.62,5c-5.16,0-9,2.72-9,7,0,2.54,1.39,4.92,3.41,7.34A14.81,14.81,0,0,0,26,20.88a10.85,10.85,0,0,0-10.59-7.49C8.59,13.39,3.64,18.5,3.64,25.7s4.41,12.73,12.1,12.73a11.11,11.11,0,0,0,8-3.11A11.23,11.23,0,0,0,32,38.43a14.58,14.58,0,0,0,10.41-4.31l3.41,3.74h7.26l-7.41-8Zm-11-20.75c2,0,3.57,1.1,3.57,3.28,0,2-1.21,3.95-3.93,5.16l-.05-.05c-1.59-1.7-3.1-3.65-3.1-5.52S32.8,9.06,34.64,9.06ZM15.38,17.52a6,6,0,0,1,6.11,6H9.05A6.21,6.21,0,0,1,15.38,17.52Z"/><path class="cls-2" d="M7.3,50.71A1.19,1.19,0,0,0,8.53,50H9.64a2.29,2.29,0,0,1-2.31,1.64,2.54,2.54,0,0,1-2.57-2.69,2.47,2.47,0,0,1,2.49-2.62c1.57,0,2.52,1.26,2.44,3H5.92A1.42,1.42,0,0,0,7.3,50.71Zm1.26-2.23a1.31,1.31,0,0,0-2.62,0Z"/><path class="cls-2" d="M11.66,45.09v1.34h1v.82h-1V50c0,.51.13.64.59.64h.41v.85h-.82c-1.07,0-1.31-.29-1.31-1.34V47.25H9.79v-.82h.74V45.09Z"/><path class="cls-2" d="M14.48,45.81H13.36V44.68h1.12Zm0,5.7H13.36V46.43h1.12Z"/><path class="cls-2" d="M17.31,47.17c-.49,0-.95.21-.95.57s.25.51.66.61l.72.15c1,.21,1.8.52,1.8,1.52s-1,1.64-2.16,1.64A2,2,0,0,1,15.2,50h1.11a1,1,0,0,0,1.12.82c.59,0,1-.25,1-.66s-.39-.62-.87-.7l-.77-.15c-.85-.18-1.52-.56-1.52-1.49s.95-1.46,2.06-1.46a2,2,0,0,1,2.1,1.49H18.41c-.13-.49-.54-.67-1.1-.67Z"/><path class="cls-2" d="M23.41,48.35v-.1c0-.87-.49-1.13-1.05-1.13a.93.93,0,0,0-1,.92h-1.1a2,2,0,0,1,2.15-1.74,1.9,1.9,0,0,1,2.13,2.18c0,.26,0,.85,0,1.31a8.6,8.6,0,0,0,.15,1.74h-1c0-.2-.07-.33-.1-.69a1.82,1.82,0,0,1-1.67.82c-1.1,0-1.87-.59-1.87-1.51.05-1.31,1.59-1.62,3.44-1.8ZM21.2,50.1c0,.43.36.71.93.71a1.17,1.17,0,0,0,1.31-1.28v-.41C21.84,49.27,21.2,49.51,21.2,50.1Z"/><path class="cls-2" d="M25.49,51.51V44.68h1.13v6.83Z"/><path class="cls-2" d="M30.74,48.35v-.1c0-.87-.48-1.13-1-1.13a.92.92,0,0,0-1,.92H27.56a2,2,0,0,1,2.16-1.74,1.9,1.9,0,0,1,2.13,2.18c0,.26,0,.85,0,1.31A7.87,7.87,0,0,0,32,51.53H31a4.8,4.8,0,0,1-.1-.69,1.83,1.83,0,0,1-1.67.82c-1.1,0-1.87-.59-1.87-1.51,0-1.31,1.56-1.62,3.43-1.8ZM28.51,50.1c0,.43.36.71.93.71a1.16,1.16,0,0,0,1.3-1.28v-.41C29.15,49.27,28.51,49.51,28.51,50.1Z"/><path class="cls-2" d="M34.05,45.09v1.34h1v.82h-1V50c0,.51.13.64.59.64h.41v.85h-.82c-1.07,0-1.31-.29-1.31-1.34V47.25h-.74v-.82h.74V45.09Z"/><path class="cls-2" d="M41,48.35v-.1c0-.87-.49-1.13-1.05-1.13A.93.93,0,0,0,39,48h-1.1A2,2,0,0,1,40,46.3a1.9,1.9,0,0,1,2.13,2.18c0,.26,0,.85,0,1.31a8.6,8.6,0,0,0,.15,1.74h-1c0-.2-.07-.33-.1-.69a1.82,1.82,0,0,1-1.67.82c-1.1,0-1.87-.59-1.87-1.51,0-1.31,1.59-1.62,3.44-1.8ZM38.82,50.1c0,.43.36.71.93.71a1.16,1.16,0,0,0,1.3-1.28v-.41c-1.59.15-2.23.39-2.23,1Z"/><path class="cls-2" d="M45.75,46.32c1.23,0,1.72.8,1.72,2v3.18H46.36v-2.9c0-.69-.1-1.36-1-1.36s-1.18.67-1.18,1.56v2.7H43.11V46.43h1.12v.72a1.62,1.62,0,0,1,1.52-.83Z"/><path class="cls-2" d="M53,44.68v6.83H51.85v-.67a1.7,1.7,0,0,1-1.51.79A2.37,2.37,0,0,1,48.13,49a2.36,2.36,0,0,1,2.21-2.65,1.69,1.69,0,0,1,1.51.8V44.68ZM49.31,49c0,1.07.54,1.74,1.29,1.74s1.3-.56,1.3-1.74-.56-1.75-1.3-1.75S49.31,47.92,49.31,49Z"/></g></g><g id="g270"><path class="cls-1" d="M81.81,25.85c.11-9.94,5.28-13,8.09-13a5.81,5.81,0,0,1,5.82,4.33c.26,1.33,1.75,2.39,2.23.22s5.1-8.82,10.78-8.82c5.21,0,7,5.37,6.85,9.93C115.16,30.9,99.15,40.82,97,47.08,95.17,43.29,81.67,37.8,81.81,25.85Zm28.78-20.4c-4.67,0-10.2,3.45-13.54,9.19-.91-2.08-4.12-4.33-8-4.33-3.08,0-11.72,3.85-11.72,16.28,0,16.05,16.22,19.34,19.5,24.33a.67.67,0,0,0,1.23-.22C100.73,43,121,34.24,121,18.52c0-8.82-5.76-13.07-10.44-13.07Z"/><g class="cls-3"><g id="g272"><rect class="cls-1" x="-3.78" y="5.33" width="200.97" height="63.63"/></g></g></g></svg>