<svg id="Слой_1" data-name="Слой 1" xmlns="http://www.w3.org/2000/svg" xmlns:xlink="http://www.w3.org/1999/xlink" viewBox="0 0 56.69 56.69"><defs><style>.cls-1{fill:#ffcf02;}.cls-2{clip-path:url(#clip-path);}.cls-3{fill:#231f20;fill-rule:evenodd;}.cls-4{fill:#3457a4;}</style><clipPath id="clip-path"><path class="cls-1" d="M-57.8,25.85c.11-9.94,5.28-13,8.1-13a5.81,5.81,0,0,1,5.82,4.33c.26,1.33,1.75,2.39,2.23.22s5.1-8.82,10.78-8.82c5.21,0,7,5.37,6.85,9.93-.42,12.44-16.43,22.36-18.54,28.62C-44.44,43.29-57.93,37.8-57.8,25.85ZM-29,5.45c-4.67,0-10.2,3.45-13.55,9.19-.9-2.08-4.12-4.33-7.94-4.33-3.08,0-11.73,3.85-11.73,16.28,0,16.05,16.23,19.34,19.51,24.33a.67.67,0,0,0,1.23-.22C-38.87,43-18.58,34.24-18.58,18.52-18.58,9.7-24.34,5.45-29,5.45Z"/></clipPath></defs><g id="g270"><path class="cls-1" d="M-57.8,25.85c.11-9.94,5.28-13,8.1-13a5.81,5.81,0,0,1,5.82,4.33c.26,1.33,1.75,2.39,2.23.22s5.1-8.82,10.78-8.82c5.21,0,7,5.37,6.85,9.93-.42,12.44-16.43,22.36-18.54,28.62C-44.44,43.29-57.93,37.8-57.8,25.85ZM-29,5.45c-4.67,0-10.2,3.45-13.55,9.19-.9-2.08-4.12-4.33-7.94-4.33-3.08,0-11.73,3.85-11.73,16.28,0,16.05,16.23,19.34,19.51,24.33a.67.67,0,0,0,1.23-.22C-38.87,43-18.58,34.24-18.58,18.52-18.58,9.7-24.34,5.45-29,5.45Z"/><g class="cls-2"><g id="g272"><rect class="cls-1" x="-143.39" y="5.33" width="200.97" height="63.63"/></g></g></g><g id="Logo"><path id="Type" class="cls-3" d="M51.44,43.49v.07l2.32,3.58H52.58L50.64,44H49.45v3.11h-1V37.69h1v5.43H50.6l1.85-2.53H53.6Zm-44-.38H4v3.11H8.1v.92H2.93V38.32H8v.94H4v2.93H7.4Zm4.12,3.1h.08l2-5.62h1.1l-2.43,6.55H10.92L8.47,40.59H9.54Zm6.72-5.78a3.22,3.22,0,0,0-3.17,3.46,3.1,3.1,0,0,0,3.24,3.41,3,3,0,0,0,3-2.09l-1-.23a2,2,0,0,1-2,1.44,2.08,2.08,0,0,1-2.23-2.28h5.26v-.36c0-2-1.13-3.35-3.11-3.35Zm-2.12,2.9a2.09,2.09,0,0,1,2.12-2,2,2,0,0,1,2.09,2Zm7.51-1.65h.07a1.94,1.94,0,0,1,1.79-1.26h.43v1h-.59c-1.2,0-1.69,1-1.69,2.22v3.5h-1V40.59h1Zm7.91.87v-.07a2,2,0,0,0,1.12-1.9c0-1.29-1-2.26-2.66-2.26H27.15v8.82h3.1A2.51,2.51,0,0,0,33,44.63a2.12,2.12,0,0,0-1.42-2.08Zm-3.37-3.32H30a1.46,1.46,0,0,1,1.62,1.42A1.51,1.51,0,0,1,30,42.14H28.17Zm1.9,7h-1.9V43H30c1,0,1.95.45,1.95,1.61s-.79,1.64-1.84,1.64Zm9-4.59h.07V40.59h1v6.55h-1v-1h0A2.46,2.46,0,0,1,37,47.3a3.18,3.18,0,0,1-3.19-3.43,3.14,3.14,0,0,1,3.12-3.44A2.52,2.52,0,0,1,39.11,41.65Zm-4.33,2.24a2.24,2.24,0,1,0,4.44,0A2.25,2.25,0,0,0,37,41.33,2.3,2.3,0,0,0,34.78,43.89Zm9.89-3.46a2.13,2.13,0,0,0-2,1.12h-.08v-1h-1v6.55h1V43.23a1.81,1.81,0,0,1,1.84-1.87,1.65,1.65,0,0,1,1.68,1.72v4.05h1V43a2.41,2.41,0,0,0-2.44-2.6Z"/></g><path id="Mark" class="cls-4" d="M19.73,25.91a3.93,3.93,0,0,1-3.52-2.18L14.05,19.4a.39.39,0,0,1,.35-.57H25.49A3.92,3.92,0,0,1,29,21l2.17,4.33a.39.39,0,0,1-.35.57Zm16.39,2.36H17.3l2.45,4.91a4,4,0,0,0,3.52,2.18H42.08l-2.45-4.91a3.94,3.94,0,0,0-3.52-2.17m3.52-14,2.45-4.91H23.27a4,4,0,0,0-3.52,2.18L17.3,16.48H36.11A3.93,3.93,0,0,0,39.63,14.3Z"/></svg>