<svg id="Слой_1" data-name="Слой 1" xmlns="http://www.w3.org/2000/svg" viewBox="0 0 56.69 56.69"><defs><style>.cls-1{fill:#92c142;}.cls-2{fill:#fff;}.cls-3{fill:#010101;}.cls-4{fill:#00713d;}</style></defs><path class="cls-1" d="M28.34,15.83c-11.77,0-20,1.92-27.61,5V35.81c6.77,3,16.48,5,27.61,5,11.35,0,20.87-2.12,27.63-5.06V20.87C48.26,17.75,39.94,15.83,28.34,15.83Z"/><path class="cls-2" d="M28.32,17C16.91,17,8,19.09,1.88,21.67V35c6.58,2.73,15.32,4.7,26.44,4.7,11.27,0,20.24-2,26.5-4.69V21.67C48.72,19.17,40,17,28.32,17Zm0,.73a79.92,79.92,0,0,1,15.21,1.39,59,59,0,0,1,10.55,3.06V34.52a54.48,54.48,0,0,1-10.77,3.12,81.11,81.11,0,0,1-15,1.32C18.6,39,10,37.46,2.61,34.5V22.17c5.1-2.07,13.58-4.44,25.71-4.44"/><path class="cls-3" d="M12.71,23.37H10.18v.37h-.3v-1h2.65V21.5l.25.66v.63h0L14,25l-.17.31Z"/><path class="cls-3" d="M16.57,22.79l.07.91-1,1.84L15.35,25Z"/><path class="cls-3" d="M9.88,25h1.93V23.74l.26.68v1.16H10.17v.62H9.88Z"/><path class="cls-3" d="M15.2,28l-.57-1.12L14.09,28H8.8l-.31-.61h4.12V26.2l.24.62v.26l-.19.35h1.47l.55-1.13.58,1.13h1.42l.18.61Z"/><path class="cls-3" d="M18.65,22.8V21.54l.16.76v.5Z"/><path class="cls-3" d="M17,24.63l-.2-.65h.56v.65Z"/><path class="cls-3" d="M18.67,26.31l0-.09V24h.79V22.8l.15.74v1.08h-.78v1.73S18.69,26.35,18.67,26.31Z"/><path class="cls-3" d="M19.45,26.22v1.22h-.08s-.57.08-.85.08a1.15,1.15,0,0,1-.89-.33,1,1,0,0,1-.23-.42l.19.63a.79.79,0,0,0,.22.4,1.09,1.09,0,0,0,.86.32h0a8.4,8.4,0,0,0,.84-.08h.08V26.94l-.15-.72Z"/><path class="cls-3" d="M22.35,22.71v1.47l-.1,0-.1,0a.56.56,0,0,0-.13,0h0a.76.76,0,0,0-.48.24,1.13,1.13,0,0,0-.24.29v2.77H20l.15.61h1.27V25.32a1.09,1.09,0,0,1,.23-.29.74.74,0,0,1,.48-.24h.24l.1,0V23.47l-.09-.76Z"/><path class="cls-3" d="M26.25,27.44H24.94l0-.25a2.09,2.09,0,0,1-1.14.34h0a1.23,1.23,0,0,1-.95-.41,1.35,1.35,0,0,1-.29-.63l.09.58a1.36,1.36,0,0,0,.29.66,1.23,1.23,0,0,0,.93.4h0A2,2,0,0,0,25,27.8l0,.25h1.28l0-.6Z"/><path class="cls-3" d="M23.3,24.83a4.28,4.28,0,0,1,1.51-.46v-.21c0-.22-.13-.32-.42-.34a.87.87,0,0,0-.76.46l-.1.15-.88-.71.13.68.52.42Z"/><path class="cls-3" d="M23.79,26.08c0,.16,0,.24.12.29a.92.92,0,0,1,.25-.19,3.5,3.5,0,0,1,.65-.2v-.55a2.56,2.56,0,0,0-.68.21c-.24.12-.34.23-.35.45Z"/><path class="cls-3" d="M27.07,22.85s0,.17,0,.71c0,1,.81,1.46,1.53,1.77a3.25,3.25,0,0,1,1.24.71.62.62,0,0,0,.11-.37v0c0-.38-.61-.66-1.35-1s-1.56-.76-1.56-1.8v-.07s0,0,0,0Z"/><path class="cls-3" d="M31.2,23.36l.07-.68h0l-.12,0L30,23.11l0-.08,0-.08a.85.85,0,0,0-.84-.66c-.45,0-.63.13-.64.49v0a.38.38,0,0,0,.17.28.93.93,0,0,1,.46-.12.86.86,0,0,1,.83.66l0,.07v0l.08,0,.1,0,1.1-.37Z"/><path class="cls-3" d="M31.32,25.77A1.86,1.86,0,0,1,30.75,27a2.22,2.22,0,0,1-1.56.51A2.41,2.41,0,0,1,26.92,26l-.06-.15.06.68,0,.1a2.35,2.35,0,0,0,2.23,1.5,2.21,2.21,0,0,0,1.54-.49,1.84,1.84,0,0,0,.55-1.24l.05-.62Z"/><path class="cls-3" d="M31.88,29.6V29h1.31l-.09.59Z"/><path class="cls-3" d="M34,27.53a1.62,1.62,0,0,1-.83-.28v.66a1.6,1.6,0,0,0,.74.22,1.88,1.88,0,0,0,1.74-1.82l.09-.51v0A1.89,1.89,0,0,1,34,27.53Z"/><path class="cls-3" d="M34.48,25.47c0-.1,0-.22,0-.35,0-.88-.29-1.23-.74-1.23s-.39.12-.58.29v.47a.65.65,0,0,1,.49-.19c.46,0,.74.33.8,1Z"/><path class="cls-3" d="M38.67,27.44l0-.25a2.08,2.08,0,0,1-1.13.34h0a1.19,1.19,0,0,1-.94-.41,1.34,1.34,0,0,1-.32-.91,1.53,1.53,0,0,1,0-.3l-.11.55a1.55,1.55,0,0,0,0,.37,1.41,1.41,0,0,0,.31.9,1.23,1.23,0,0,0,.93.4h0a2.09,2.09,0,0,0,1.11-.33l0,.25h1.25l.23-.61Z"/><path class="cls-3" d="M40,27.45Z"/><path class="cls-3" d="M37.54,24.6a.79.79,0,0,1,.42-.12l.59-.11v-.21c0-.22-.13-.32-.43-.34a.86.86,0,0,0-.75.46l-.11.15-.87-.7-.11.66.63.52a3.07,3.07,0,0,1,.63-.31Z"/><path class="cls-3" d="M38.47,26v.16l.08-.06v-.63a3,3,0,0,0-.68.21c-.24.12-.34.23-.34.45a.47.47,0,0,0,0,.17l.12-.07A3.75,3.75,0,0,1,38.47,26Z"/><path class="cls-3" d="M44.17,26.21l0,.07,0,.07a1.83,1.83,0,0,1-1.73,1.18h0a1.76,1.76,0,0,1-1.43-.68,2.78,2.78,0,0,1-.5-1.73,3.47,3.47,0,0,1,.11-.9l-.16.54a3.77,3.77,0,0,0-.14,1,2.74,2.74,0,0,0,.5,1.71,1.69,1.69,0,0,0,1.4.66h.06A1.8,1.8,0,0,0,43.85,27l0-.08Z"/><path class="cls-3" d="M43,24.59l0-.08,0-.07c-.17-.37-.26-.54-.65-.55a.47.47,0,0,0-.46.26,1.85,1.85,0,0,0-.15.57.52.52,0,0,1,.4-.18c.37,0,.46.19.63.55l0,.07,0,.08.15-.06.9-.37.28-.67h0l-.94.39-.15.06Z"/><path class="cls-3" d="M46.92,24.42c-.06-.42-.26-.58-.59-.6a.59.59,0,0,0-.59.54,1.06,1.06,0,0,1,.31-.05.64.64,0,0,1,.4.11Z"/><path class="cls-3" d="M48.14,26.56a2,2,0,0,1-1.83,1h0a1.7,1.7,0,0,1-1.39-.68,2.84,2.84,0,0,1-.49-1.73A3.08,3.08,0,0,1,44.6,24l-.23.57a3.07,3.07,0,0,0-.21,1.2,2.8,2.8,0,0,0,.49,1.71,1.66,1.66,0,0,0,1.35.66h0a2,2,0,0,0,1.81-.95l0-.07.31-.61,0,.07Z"/><path class="cls-3" d="M48.16,25.46H45.72a1.54,1.54,0,0,0,.19.63H47l.17-.19.09-.11.47.3h.09l.34-.63Z"/><path class="cls-2" d="M22.34,22.71h-.17a1.28,1.28,0,0,0-1,.43V22.8H20v4.65h1.3V24.67a1.37,1.37,0,0,1,.24-.29.81.81,0,0,1,.48-.24h0a.56.56,0,0,1,.13,0l.09,0,.11,0V22.71Z"/><path class="cls-2" d="M24.81,26.06a1.48,1.48,0,0,1-.72.36h0c-.2,0-.28-.08-.3-.33a.5.5,0,0,1,.34-.46,3.22,3.22,0,0,1,.69-.2v.63Zm1.37,1.16a1.86,1.86,0,0,1-.07-.57V24.57a2,2,0,0,0-.43-1.42,1.75,1.75,0,0,0-1.29-.43h-.05a2,2,0,0,0-1.62.87l0,.07,0,.06.88.71.1-.15a.88.88,0,0,1,.76-.45c.29,0,.41.11.42.34v.21c-1.5.2-2.33.77-2.33,1.83a1.42,1.42,0,0,0,.32.91,1.21,1.21,0,0,0,.94.41h0a2.08,2.08,0,0,0,1.13-.34l0,.25h1.32l-.07-.23Z"/><path class="cls-2" d="M19.44,26.22l-.2.05a1.42,1.42,0,0,1-.41.08h0a.26.26,0,0,1-.15,0,.12.12,0,0,1,0-.1V24h.79V22.8h-.79V21.54H17.34v1.25h-.56V24h.56v2.38h0a1.23,1.23,0,0,0,.28.85,1.2,1.2,0,0,0,.89.32c.28,0,.86-.08.86-.08h.07Z"/><path class="cls-2" d="M15.25,27.44h1.42L15.34,25l1.22-2.24H15.14l-.47,1-.47-1H12.74L14,25l-1.33,2.41h1.47l.56-1.14Z"/><path class="cls-2" d="M29.19,26.29c-.56,0-.81-.3-1.07-.83l0-.08,0-.08-1.18.56.06.15a2.4,2.4,0,0,0,2.26,1.52,2.3,2.3,0,0,0,1.57-.5,2,2,0,0,0,.57-1.5h0a2.06,2.06,0,0,0-1.55-1.87c-.37-.16-.72-.29-1-.43s-.38-.28-.38-.42v0c0-.36.2-.47.64-.5a.87.87,0,0,1,.84.67l0,.07,0,.08,1.16-.38.12,0h0l0-.06,0-.08v0a2.21,2.21,0,0,0-2.14-1.45h0a1.85,1.85,0,0,0-2,1.84c0,1,.82,1.48,1.55,1.79s1.37.58,1.35,1h0c0,.47-.27.6-.78.62Z"/><path class="cls-2" d="M9.88,25H11.8V23.74H9.88v-1h2.65V21.5H8.47v5.93h4.14V26.2H9.88Z"/><path class="cls-2" d="M43.05,25.76c-.19.37-.38.59-.71.59a.5.5,0,0,1-.48-.26,2.09,2.09,0,0,1-.18-1,2,2,0,0,1,.18-1,.47.47,0,0,1,.46-.26c.38,0,.47.18.64.55l0,.07,0,.08.15-.06,1-.39L44.08,24a1.76,1.76,0,0,0-1.76-1.27h0a1.74,1.74,0,0,0-1.42.66,2.77,2.77,0,0,0-.51,1.74,2.74,2.74,0,0,0,.51,1.73,1.72,1.72,0,0,0,1.42.67h0a1.81,1.81,0,0,0,1.72-1.17l0-.07,0-.07-1-.61-.08.16Z"/><path class="cls-2" d="M33.76,26.35a.87.87,0,0,1-.57-.26V24.18a.73.73,0,0,1,.58-.29c.45,0,.72.35.73,1.24s-.27,1.22-.73,1.22ZM34,22.72a1.41,1.41,0,0,0-.86.28v-.2H31.88V29h1.3V27.25a1.65,1.65,0,0,0,.83.28c1.18,0,1.79-1.19,1.79-2.29,0-1.38-.58-2.52-1.79-2.52Z"/><path class="cls-2" d="M46.32,23.83c.34,0,.53.18.6.59H45.73c.06-.41.26-.58.59-.59Zm.94,2-.1.11a.87.87,0,0,1-.77.45c-.33,0-.6-.18-.67-.89h2.44v-.59a2,2,0,0,0-1.81-2.15h0a1.77,1.77,0,0,0-1.43.67,2.81,2.81,0,0,0-.5,1.74,2.75,2.75,0,0,0,.5,1.72,1.67,1.67,0,0,0,1.38.68h0a2,2,0,0,0,1.83-1l0-.08,0-.07-1-.63Z"/><path class="cls-2" d="M38.54,26.06c-.19.16-.46.37-.65.36h-.07c-.2,0-.28-.08-.3-.33a.5.5,0,0,1,.34-.46,3.31,3.31,0,0,1,.68-.2Zm1.37,1.16a1.85,1.85,0,0,1-.06-.57V24.57a2,2,0,0,0-.44-1.42,1.75,1.75,0,0,0-1.29-.43h0a2,2,0,0,0-1.62.87l0,.07,0,.06.88.71.1-.15a.85.85,0,0,1,.75-.45c.3,0,.42.11.43.34v.21c-1.49.2-2.33.77-2.32,1.83a1.38,1.38,0,0,0,.31.91,1.23,1.23,0,0,0,.95.41h0a2.09,2.09,0,0,0,1.14-.34l0,.25H40Z"/><path class="cls-4" d="M40,27.44Z"/><path class="cls-2" d="M42.07,34.32Z"/><path class="cls-3" d="M18.43,33.7l-.14-.46a2.61,2.61,0,0,1,.05.48v0a1.91,1.91,0,0,1-2.08,1.84h-.05a2.19,2.19,0,0,1-2.14-1.28l.29.63a2.12,2.12,0,0,0,2.05,1.21h.05a1.89,1.89,0,0,0,2-1.85v0a2.76,2.76,0,0,0-.06-.57Z"/><path class="cls-3" d="M14.38,31.79s.15.27.25.41A3.26,3.26,0,0,0,16,33a5.28,5.28,0,0,1,1.08.47.92.92,0,0,1,.25.23v-.05a.8.8,0,0,0-.43-.73,4.91,4.91,0,0,0-1.1-.48,2.59,2.59,0,0,1-1.67-1.2l.21.5Z"/><path class="cls-3" d="M18.23,30.62l-.86.26,0-.09,0-.09a1.31,1.31,0,0,0-1.3-1c-.64,0-1,.31-1,.95a.53.53,0,0,0,.14.43l.09.09a.88.88,0,0,1,1-.91,1.28,1.28,0,0,1,1.27,1l0,.1,0,.09.85-.26-.16-.56Z"/><path class="cls-3" d="M18.21,30.54l0-.09h0Z"/><path class="cls-3" d="M20.56,30.58V29.14l.11.53v.91Z"/><path class="cls-3" d="M19.18,31.94,19,31.38h.66v.56Z"/><path class="cls-3" d="M21.62,31.21l-.1-.63v.8h-1v3.08a.33.33,0,0,0,0,.17l.1,0v0a1.08,1.08,0,0,1,0-.31v-2.4h.95v-.72Z"/><path class="cls-3" d="M21.52,34.52h0Z"/><path class="cls-3" d="M21.52,34.51v.86l-.08,0h-.09a3.31,3.31,0,0,1-.55.08,1.34,1.34,0,0,1-.87-.23,1,1,0,0,1-.21-.31l.1.35a1,1,0,0,0,.32.51A1.26,1.26,0,0,0,21,36a3.18,3.18,0,0,0,.43-.06l.12,0,.07,0v-.77l-.11-.66Z"/><path class="cls-3" d="M26.08,33.21h0l0-.41V33a3,3,0,0,1-.41,1.68,1.73,1.73,0,0,1-1.54.77h0a1.75,1.75,0,0,1-1.54-.77,2.36,2.36,0,0,1-.34-.84l.09.48a2.51,2.51,0,0,0,.34.91,1.71,1.71,0,0,0,1.51.78h0a1.68,1.68,0,0,0,1.5-.78,3.11,3.11,0,0,0,.41-1.68h0v-.36Z"/><path class="cls-3" d="M24.11,31.36c-.75,0-1.05.5-1.08,1.65a4.12,4.12,0,0,0,.1.86,2.81,2.81,0,0,1,0-.3c0-1.16.32-1.65,1.05-1.66s.91.35,1,1.14v0c0-1.16-.33-1.65-1.08-1.66Z"/><path class="cls-3" d="M27.67,35.94h-.79l0-.55h.9Z"/><path class="cls-3" d="M29.24,31.44h-.43a1,1,0,0,0-.68.37,1.38,1.38,0,0,0-.38.92v.55a1.42,1.42,0,0,1,.37-.92,1,1,0,0,1,.66-.37h.43l0-.55Z"/><path class="cls-3" d="M32.28,34.07V33a4.8,4.8,0,0,0-1.55.56.63.63,0,0,0-.3.59.76.76,0,0,0,0,.21,1,1,0,0,1,.22-.24,4.55,4.55,0,0,1,1.51-.56v.61l.09-.08Z"/><path class="cls-3" d="M33.27,35.38h-.89l0-.37a2.29,2.29,0,0,1-1.4.45h0a1.45,1.45,0,0,1-1-.35,1.28,1.28,0,0,1-.4-.92l0,.48h0a1.3,1.3,0,0,0,.4,1,1.34,1.34,0,0,0,.95.35h0a2.21,2.21,0,0,0,1.36-.44l0,.36h.84l.15-.55Z"/><path class="cls-3" d="M30.39,32.61a1.24,1.24,0,0,1,1.05-.7c.47,0,.63.1.71.3l.15,0V32a.71.71,0,0,0-.15-.52,1,1,0,0,0-.64-.16,1.25,1.25,0,0,0-1.08.69l-.11.17-.64-.4v.57l.61.38.1-.16Z"/><path class="cls-3" d="M38.2,31.32h-.12a1.27,1.27,0,0,0-.39.06,1.43,1.43,0,0,1,.18.5h.24l.18-.55H38.2Z"/><path class="cls-3" d="M36.1,31.36a.83.83,0,0,0-.92.91v.06a.84.84,0,0,1,.8-.42c.62,0,.87.24.9.92v0a1.13,1.13,0,0,0,.15-.57c0-.69-.29-.89-.92-.92Z"/><path class="cls-3" d="M34.74,33.4a1.58,1.58,0,0,1-.45-1.08h0a1.24,1.24,0,0,1,0-.27l-.09.48a2,2,0,0,0,0,.35h0a1.45,1.45,0,0,0,.24.81A1.18,1.18,0,0,1,34.74,33.4Z"/><path class="cls-3" d="M37.35,33.55a2,2,0,0,1-1.3.41,2.62,2.62,0,0,1-.68-.12c-.17.07-.21.15-.21.2s0,.05,0,.06h0l.08,0a3.84,3.84,0,0,0,1,.08h0a5.16,5.16,0,0,1,.67.05,1.88,1.88,0,0,0,.23-.16,1.51,1.51,0,0,0,.48-.73l.15-.54a1.51,1.51,0,0,1-.47.72Z"/><path class="cls-3" d="M34.57,34.79a.68.68,0,0,1-.3-.58v0a.19.19,0,0,1,0-.08l-.1.49s0,.1,0,.15h0a.77.77,0,0,0,.08.34,1.18,1.18,0,0,1,.32-.31Z"/><path class="cls-3" d="M37.81,36.54a2.82,2.82,0,0,1-1.65.39,2.89,2.89,0,0,1-1.6-.35,1,1,0,0,1-.47-.87v-.17L34,36a1.5,1.5,0,0,0,0,.22v0a1,1,0,0,0,.48.86,2.76,2.76,0,0,0,1.57.36,2.68,2.68,0,0,0,1.6-.39,1.18,1.18,0,0,0,.42-.56l.2-.57a1.12,1.12,0,0,1-.44.57Z"/><path class="cls-3" d="M37.43,35.59a.32.32,0,0,0-.2-.32,2.43,2.43,0,0,0-1.17-.2h0c-.95,0-1.07.29-1.08.54a.28.28,0,0,0,0,.13,1.68,1.68,0,0,1,.93-.21,2.58,2.58,0,0,1,1.2.21.64.64,0,0,1,.15.13.32.32,0,0,0,.15-.28Z"/><path class="cls-3" d="M40.59,31.81h0a1,1,0,0,1,.92.62h.31c-.14-.71-.44-1.06-1-1.08h0a1.05,1.05,0,0,0-1,.83,1,1,0,0,1,.76-.37Z"/><path class="cls-3" d="M42.75,33.23h-3a3.45,3.45,0,0,0,.1.56h2.25l0,0,.08,0h.27l.28-.56Z"/><path class="cls-3" d="M42.83,34.22l-.06.09A1.94,1.94,0,0,1,41,35.47H40.9a1.88,1.88,0,0,1-1.49-.62A2.77,2.77,0,0,1,38.87,33a3,3,0,0,1,.11-.9l-.15.46a3.62,3.62,0,0,0-.13,1,2.79,2.79,0,0,0,.53,1.83,1.79,1.79,0,0,0,1.45.63h0a1.91,1.91,0,0,0,1.79-1.16l.06-.09.29-.62,0,.07Z"/><path class="cls-2" d="M18.34,33.75a1.92,1.92,0,0,1-2.08,1.85h-.05a2.27,2.27,0,0,1-2.34-1.81l0-.18.71-.23.2-.06,0,.1,0,.1a1.39,1.39,0,0,0,1.56,1.22,1,1,0,0,0,1-1.05.85.85,0,0,0-.44-.73,5.19,5.19,0,0,0-1.1-.47c-.83-.3-1.8-.7-1.8-1.88a1.7,1.7,0,0,1,.52-1.29A2,2,0,0,1,16,28.8h0a2.16,2.16,0,0,1,2.16,1.64l.05.19-.86.26,0-.09,0-.1a1.32,1.32,0,0,0-1.3-1c-.64,0-1,.32-1,.95a.54.54,0,0,0,.14.44,3.07,3.07,0,0,0,1,.53c1.71.63,2.22,1.18,2.21,2.15v0Z"/><path class="cls-2" d="M21.52,31.29v.09h-1v3c0,.13,0,.19,0,.21a.31.31,0,0,0,.21,0,1.8,1.8,0,0,0,.45-.09l.26-.08v.87h-.17a3.35,3.35,0,0,1-.54.08,1.33,1.33,0,0,1-.87-.23.9.9,0,0,1-.28-.74V31.39H19v-.8h.66V29.14h.9v1.44h1v.71Z"/><path class="cls-2" d="M24.11,34.68c-.75,0-1.05-.5-1.08-1.66s.33-1.65,1.08-1.66,1.06.5,1.08,1.66-.32,1.65-1.08,1.65Zm1.55-3.34a1.74,1.74,0,0,0-1.54-.78h0a1.74,1.74,0,0,0-1.54.78A3.09,3.09,0,0,0,22.14,33a3,3,0,0,0,.42,1.68,1.78,1.78,0,0,0,1.54.77h0a1.75,1.75,0,0,0,1.54-.77,3.57,3.57,0,0,0,0-3.36Z"/><path class="cls-2" d="M29.24,31.35v.09h-.43a1,1,0,0,0-.68.37,1.38,1.38,0,0,0-.38.92v2.65h-.88V30.65h.88V31a1.5,1.5,0,0,1,1.07-.48h.42v.79Z"/><path class="cls-2" d="M32.28,34.07a2,2,0,0,1-1.27.61c-.38,0-.56-.17-.57-.55a.62.62,0,0,1,.3-.59A4.65,4.65,0,0,1,32.28,33v1.1Zm.95,1.09a3.91,3.91,0,0,1-.07-.76V32.1a1.52,1.52,0,0,0-.41-1.16,1.74,1.74,0,0,0-1.22-.38h0a1.87,1.87,0,0,0-1.75,1.1l-.05.08,0,.08.65.4.11-.17a1.25,1.25,0,0,1,1.08-.69,1,1,0,0,1,.64.16.73.73,0,0,1,.15.52v.14a7.84,7.84,0,0,0-1.95.59,1.45,1.45,0,0,0-.81,1.35v0a1.29,1.29,0,0,0,.41,1,1.4,1.4,0,0,0,1,.35h0a2.35,2.35,0,0,0,1.4-.44l0,.36h.89l0-.23Z"/><path class="cls-2" d="M37.17,36a2.38,2.38,0,0,1-1.08.19h0A1.77,1.77,0,0,1,35.2,36a.39.39,0,0,1-.23-.35c0-.25.14-.52,1.08-.54h0a2.58,2.58,0,0,1,1.17.19c.18.12.19.18.2.32s0,.25-.26.37ZM36.1,31.36c.64,0,.9.23.93.92s-.29.86-.93.89a.91.91,0,1,1,0-1.81Zm2.22,4.18a1.14,1.14,0,0,0-.52-1,2.73,2.73,0,0,0-1.51-.33h0a4,4,0,0,1-1-.08l-.07,0h0V34s0-.12.21-.2a2,2,0,0,0,.68.12,2.05,2.05,0,0,0,1.3-.4,1.63,1.63,0,0,0,.56-1.31v0a1.59,1.59,0,0,0-.22-.85,1,1,0,0,1,.39-.05h.21v-.85h-.18a1.44,1.44,0,0,0-.93.34,2,2,0,0,0-1-.26h0a2,2,0,0,0-1.38.48,1.65,1.65,0,0,0-.52,1.27v0a1.53,1.53,0,0,0,.45,1.08,1,1,0,0,0-.48.78v0a.7.7,0,0,0,.31.59,1,1,0,0,0-.49.88v0a1,1,0,0,0,.47.87,2.93,2.93,0,0,0,1.61.35,2.86,2.86,0,0,0,1.65-.39,1.16,1.16,0,0,0,.5-1v0Z"/><path class="cls-2" d="M40.79,31.36h0c.58,0,.88.36,1,1.08H39.77c.08-.5.41-1.09,1-1.08Zm1.34,2.38-.1.15c-.44.68-.59.77-1.09.79-.77,0-1.12-.6-1.18-1.45h3V33a3,3,0,0,0-.46-1.76,1.71,1.71,0,0,0-1.45-.72h0a1.79,1.79,0,0,0-1.45.7A2.87,2.87,0,0,0,38.87,33a2.76,2.76,0,0,0,.54,1.83,1.84,1.84,0,0,0,1.48.62H41a1.93,1.93,0,0,0,1.81-1.15l.06-.09.05-.09-.74-.4Z"/></svg>