<svg id="Слой_1" data-name="Слой 1" xmlns="http://www.w3.org/2000/svg" viewBox="0 0 56.69 56.69"><defs><style>.cls-1{fill:#1e438a;}.cls-2{fill:#e11832;}.cls-3{fill:#fff;}.cls-4{fill:#a31832;}.cls-5{fill:#a6c3e8;}</style></defs><g id="layer1"><g id="g881"><path id="path14" class="cls-1" d="M30.54,35.81l-.25-4.16-1.82,4.16h-.62L26,31.65l-.28,4.16H24.48L25,29.29H26.3l1.93,4.29,1.85-4.29h1.3l.5,6.52H30.54"/><path id="path16" class="cls-1" d="M.71,35.81V29.29H5.29L5,30.37H2.07v1.71H4.74v1.07H2.07v2.66H.71"/><path id="path18" class="cls-1" d="M35.36,35.81V29.29h4.39l-.34,1.08H36.72v1.5h2.66V33H36.72V34.7h3v1.11H35.36"/><path id="path20" class="cls-1" d="M11,33.47l-1-2.54L9,33.47Zm.84,2.34-.49-1.32H8.7l-.48,1.32H6.83l2.59-6.52h1.27l2.62,6.52H11.82"/><path id="path22" class="cls-1" d="M45.35,32.27c.87,0,1.22-.43,1.22-1s-.35-1-1.2-1h-.83v1.93Zm1.55,3.54-1.75-2.5h-.61v2.5H43.18V29.29h2.31c1.81,0,2.45,1,2.45,2a1.88,1.88,0,0,1-1.37,1.82l2,2.73H46.9"/><path id="path24" class="cls-1" d="M18.36,32.27c.86,0,1.22-.43,1.22-1s-.35-1-1.21-1h-.83v1.93Zm1.54,3.54-1.75-2.5h-.61v2.5H16.18V29.29H18.5c1.81,0,2.45,1,2.45,2a1.89,1.89,0,0,1-1.38,1.82l2,2.73H19.9"/><path id="path26" class="cls-1" d="M53.53,35.91a4.2,4.2,0,0,1-2.44-.74l.6-1a3,3,0,0,0,1.84.64c.71,0,1.11-.29,1.11-.77s-.45-.64-.7-.73l-1.26-.47a1.76,1.76,0,0,1-1.27-1.72c0-.88.62-1.9,2.35-1.9a5.15,5.15,0,0,1,1.76.34v1.26a3.67,3.67,0,0,0-1.8-.52c-.45,0-1,.13-1,.69s.39.61.63.7l1.27.48A1.77,1.77,0,0,1,56,33.87c0,1-.76,2-2.45,2"/><path id="path28" class="cls-2" d="M44.34,43V39.4h2.43l-.18.56H45.06v.87h1.51v.56H45.06v1h1.67V43H44.34"/><path id="path30" class="cls-2" d="M9.92,43V39.4h.73V43H9.92"/><path id="path32" class="cls-2" d="M14.88,43l-1.72-2.44V43h-.68V39.4h.64l1.69,2.39V39.4h.68V43h-.61"/><path id="path34" class="cls-2" d="M37.37,43l-1.72-2.44V43H35V39.4h.64l1.69,2.39V39.4H38V43h-.61"/><path id="path36" class="cls-2" d="M23.55,39.4h.73v2.16A1.46,1.46,0,0,1,24,42.64a1.4,1.4,0,0,1-1.13.4,1.43,1.43,0,0,1-1.13-.4,1.46,1.46,0,0,1-.32-1.07V39.4h.72v2.2a.79.79,0,0,0,.15.59.85.85,0,0,0,1.16,0,.79.79,0,0,0,.15-.59V39.4"/><path id="path38" class="cls-2" d="M27.7,40.06a.81.81,0,0,0-.46-.12h-.42v1.12h.41a.75.75,0,0,0,.47-.12.52.52,0,0,0,.22-.44A.53.53,0,0,0,27.7,40.06ZM28.08,43l-.94-1.4h-.32V43H26.1V39.4h1.22a1.51,1.51,0,0,1,.91.24,1,1,0,0,1,.41.83,1,1,0,0,1-.75,1L29,43h-.87"/><path id="path40" class="cls-2" d="M18.54,39.34c-1,0-1.31.57-1.31,1a1,1,0,0,0,.71.93l.7.26c.15.06.42.16.42.43s-.22.44-.65.44a1.7,1.7,0,0,1-1-.34l-.32.54a2.4,2.4,0,0,0,1.35.4c1,0,1.36-.6,1.36-1.12A1,1,0,0,0,19,41l-.7-.25c-.13-.06-.39-.16-.39-.42s.2-.4.58-.4a2.17,2.17,0,0,1,1,.27v-.66a3,3,0,0,0-1-.18"/><path id="path42" class="cls-2" d="M41.42,39.34a1.74,1.74,0,0,0-1.79,1.85A1.69,1.69,0,0,0,41.39,43a2.46,2.46,0,0,0,1.29-.35l-.28-.59a1.59,1.59,0,0,1-1,.3,1.23,1.23,0,0,1,0-2.44,2,2,0,0,1,1.07.29v-.71a2.77,2.77,0,0,0-1.1-.2"/><path id="path44" class="cls-2" d="M31.27,41.68l.52-1.45.53,1.45ZM32.77,43h.77l-1.4-3.59h-.65L30.11,43h.71l.26-.74h1.43l.26.74"/><path id="path46" class="cls-3" d="M28.34,13.65h0A12.47,12.47,0,0,0,15.91,26.09v.59H26.16a7.4,7.4,0,0,0,2.18,1.47h0a7.27,7.27,0,0,0,2.18-1.47H40.78v-.59A12.47,12.47,0,0,0,28.34,13.65"/><path id="path48" class="cls-4" d="M28.34,27.5C31,26.2,32,23.76,32.11,20.88H28.34V27.5"/><path id="path50" class="cls-2" d="M28.34,27.5c-2.68-1.3-3.64-3.74-3.77-6.62h3.77V27.5"/><path id="path52" class="cls-5" d="M22.87,26.08a23.44,23.44,0,0,1-2-1.48,39.57,39.57,0,0,0-4.33,1.48Zm17.32,0a39.31,39.31,0,0,0-4.34-1.48,22,22,0,0,1-2,1.48ZM23.92,22.87a23.74,23.74,0,0,1-.78-2.4,38.56,38.56,0,0,0-4.38-1.35,38.91,38.91,0,0,0,2.64,3.75,23.51,23.51,0,0,1,2.52,0Zm8.85,0a23.51,23.51,0,0,1,2.52,0,37.72,37.72,0,0,0,2.63-3.75,38.76,38.76,0,0,0-4.37,1.35,23.74,23.74,0,0,1-.78,2.4Zm-2.74-2a23.56,23.56,0,0,1,2-1.48A37.33,37.33,0,0,0,32,14.82a38.67,38.67,0,0,0-2.74,3.66,24.24,24.24,0,0,1,.77,2.4Zm-5.34-6.06a38.67,38.67,0,0,1,2.74,3.66c-.27.72-.55,1.55-.78,2.4-.68-.56-1.4-1.06-2-1.48a37.33,37.33,0,0,1,.07-4.58"/><path id="path54" class="cls-1" d="M40.19,26.08a11.82,11.82,0,0,0-2.27-7,36.43,36.43,0,0,1-2.63,3.75c1.34.06,2.32.2,2.32.2a19.07,19.07,0,0,1-1.76,1.53,39.31,39.31,0,0,1,4.34,1.48"/><path id="path56" class="cls-1" d="M37.92,19.12A11.9,11.9,0,0,0,32,14.82a37.33,37.33,0,0,1,.07,4.58c1.12-.74,2-1.2,2-1.2s-.17,1-.52,2.27a38.76,38.76,0,0,1,4.37-1.35"/><path id="path58" class="cls-1" d="M24.69,14.82a38.67,38.67,0,0,1,2.74,3.66c.47-1.24.91-2.14.91-2.14s.44.9.92,2.14A38.67,38.67,0,0,1,32,14.82a11.81,11.81,0,0,0-7.31,0"/><path id="path60" class="cls-1" d="M18.76,19.12a11.82,11.82,0,0,0-2.26,7,39.57,39.57,0,0,1,4.33-1.48,20.47,20.47,0,0,1-1.76-1.53s1-.14,2.33-.2a39.63,39.63,0,0,1-2.64-3.75"/><path id="path62" class="cls-1" d="M18.76,19.12a38.56,38.56,0,0,1,4.38,1.35c-.36-1.29-.52-2.27-.52-2.27s.87.46,2,1.2a37.33,37.33,0,0,1,.07-4.58,11.92,11.92,0,0,0-5.93,4.3"/><path id="path64" class="cls-1" d="M55.4,27.27h-.11v.24h.11c.08,0,.13,0,.13-.12s-.05-.12-.13-.12Zm.15.6-.16-.28h-.1v.28h-.1v-.68h.22c.12,0,.23.06.23.2a.18.18,0,0,1-.14.19l.17.29ZM55.4,27a.51.51,0,1,0,.5.51A.51.51,0,0,0,55.4,27Zm0,1.1a.59.59,0,1,1,.58-.59.58.58,0,0,1-.58.59"/></g></g></svg>