<svg id="Слой_1" data-name="Слой 1" xmlns="http://www.w3.org/2000/svg" viewBox="0 0 56.69 56.69"><defs><style>.cls-1{fill:#ec681c;}.cls-2{fill:#633089;}</style></defs><path class="cls-1" d="M41.47,19.34v3.37H36.52V25h4.95v3.15H36.52v3.15h4.95v3.37H32.92V19.34ZM46,34.63h-4.5l4.27-5L41.47,25H46l2.25,2.25,2-2.25h4.5l-4.5,4.72,4.5,5H50l-2-2.47Z"/><path class="cls-2" d="M60.45,37.36v-.57H61v.57Zm-31-18v6.25h0a3.65,3.65,0,0,0-2.95-1.21,4.9,4.9,0,0,0-4.72,3.71,5.12,5.12,0,0,0-5.26-3.76,5.28,5.28,0,0,0-4.84,2.59v-2H7.05V22.73h5V19.34H3V34.61h4V28.2H11.1a6.58,6.58,0,0,0-.18,1.51,5.34,5.34,0,0,0,5.54,5.42,5.22,5.22,0,0,0,5.24-3.47H18.23a1.74,1.74,0,0,1-1.77.88,2.11,2.11,0,0,1-2-2.09h7.09a5.13,5.13,0,0,0,5,4.72,3.48,3.48,0,0,0,2.9-1.55h0v1H33V19.34ZM14.54,28.25a2,2,0,0,1,1.92-1.62,1.87,1.87,0,0,1,1.93,1.62Zm12.71,4a2.32,2.32,0,0,1-2.13-2.52c0-1.37.72-2.67,2.13-2.67s2.07,1.3,2.07,2.67S28.69,32.29,27.25,32.29Z"/></svg>