<svg id="Слой_1" data-name="Слой 1" xmlns="http://www.w3.org/2000/svg" viewBox="0 0 56.69 56.69"><defs><style>.cls-1{fill:#010101;}.cls-1,.cls-2{stroke:#010101;stroke-miterlimit:10.85;stroke-width:0.9px;}.cls-2{fill:none;}.cls-3{fill:#fff;}</style></defs><path class="cls-1" d="M25.72,34.71l-.09.23.06.42.21.94.38,1.23.3.74.42.94.29.56.45.82.54.91.42.58.36.48,0,.26L29,43l-.2.08-.6,0-1-.07L26.32,43l-.76-.13-.92-.26-.46-.21-.31-.13-.35-.07-.41,0-.21.09h-.3l-.69-.11-.4-.13-.43,0-.7,0-.52-.05h-.48l-.48,0-.32.14-.23.06-.08.11v.22l.22.35.42.58.24.1.39.28.45.24.48.16.69,0,.62-.07.52-.12.45-.14.18.1.09.18.16,0,.38,0,.48,0,.25.08.29-.08,1,.12.65.1,1.06.23.77.23.77.26.67.31.27.19.69,0,.37-.1.2-.4.22-.49-.06-.4-.27-.5-.35-.72-.28-.75-.2-.85L30,40.77v-.71l.08-.83.09-.42L30,38.46l-.23-.19-.46-.34L29,37.7,29,37.26l-.15-.48-.29-.47-.31-.39-.39-.38-.49-.37-.55-.41-.3-.14-.29-.09-.25,0Z"/><path class="cls-1" d="M23.93,3.49v.2l-.21.05-.28,0L23,3.79l-.31.1-.25,0L22.37,4l.09.15.19,0,.17,0L23,4.07h.21l.44,0,.34.1.41.1.59.27.05.13-.06.1-.28.09L24.56,5l-.3.2-.45.24-.56.4-.63.28-.5.33-.46.2-.43.11h-.89l-.2,0L20,7l-.09.26-.1.18-.25.38-.24.42-.16.2,0,.24,0,.33v.35l.21.19.19.1h.23l.36-.1.42-.13.56-.22h.22l.06.14-.06.13-.18.1-.58.22-.42.12-.09.14v.16l.14.12.3,0h.54l.33-.08.48-.25.31-.06.27-.06.2.07H23l.29,0,.25.14.37,0,.49.15.27,0,.42-.07.52,0,.23.09.13.22,0,.27-.06.34-.12.4-.18.49-.18.54-.19.49-.12.34-.43.67-.52.66-.47.64-.59.59-.54.46-.35.37-.18.6-.26.3-.32.23-.4.33-.6.37-.51.25-.32.37-.23.3-.23.14-.33.17-.21-.05-.41-.19-.46-.3-.68-.3-.76-.39-.39-.3-.49-.4-.53-.44-.58-.2-.5-.09-.65.13-.46.26-.4.28-.21.5-.14.4-.16.6-.18.37-.19.56,0,.67-.16.39L11,22.1l-.16.62-.3.59-.16.57-.1.72-.25.6-.16.35,0,.34,0,.58v1l-.11.42.07.37,0,.6.21.48.16.11.3-.09.28-.25.4-.48.34-.56.14-.46-.09-.37-.12-.46-.14-.56-.13-.58L11,25.22v-.41l.1-.47.23-.71.23-.37.21-.19.16-.25.3,0,.14-.09.21-.18.23-.21L13,22l.09-.32.07-.28,0-.37.07-.32.16-.21.16-.05.21.07.3.16.33.38.34.5.4.47.41.37.38.3.36.16.12.23-.12.11L16,23.14l-.56,0L14.68,23,14,22.82l-.84,0-.48,0-.38.23-.39.35-.32.55-.25.63,0,.46.14.83.33,1.07.16.83.2.81.14.57.07.53.18.61.15.92.13.32.35.28.33.32.36.56.26.65.39.58.58.55.42.26.28,0,.23-.07.14-.32.15-.28.1-.39v-.91l-.12-.25s0-.16,0-.19l-.05-.16L16,31.91l-.35-.35L15,31.28l-.24-.07,0-.39,0-.26-.44-.5-.28-.65-.23-.93-.19-.85L13.31,27l-.11-.81.18-.49.33-.18H14l.37.32.53.33.56.2,1.34.65.65.37v.35L18,28l.76.26h1.6l-.12.3-.07.16.21.39.39.58.63.62.76.84.65.57,1.21.93,1,.53.74.4.94.64.88.62.75.64.79,1.07,0,.44.18.46.48.35.44.17.28,0,.21-.21.31-.33.07-.44.37-.63.08-.49.06-.54,0-.43.12-.26.25-.12h.24v.18l-.17.18-.15.41-.12.25v.31l0,.66-.09.33-.29.49L31,38l-.39.7-.23.91-.11.94.11,1.06.15.62.37.81.47,1,.36.76.51.79.59.73.12.25v.18l-.08.21-.21.35-.33.46-.68.87L31,49.3l-.62.68-.27.15-.54.21-.33.31-.17.35-.39.48-.43.49-.54.56-.33.57-.2.58-.11.48,0,.39.23.25h.85l.36,0,.39-.23.5-.23.08-.19h.17L30,54l.25-.23.13-.92-.08-.2,0-.19.13,0,.16.05.15-.12.25-.16.27-.34.33-.47.17-.42,0-.35.22-.16.3-.17.26-.15.21-.42.44-.47.83-.77.64-.42.64-.35.15-.16.05-.15.14-.18L35.51,47l0-.42-.09-.4L35.3,46l-.22-.38-.35-.44-.17-.33,0-.34V44l.08-.26.21-.72L35,42.7l.23-.13.43-.27.5-.43.68-.58.46-.48.46-.54.49-.54.34-.61.29-.53.27-.59.2-.66.05-.62,0-.46.16-.15.17,0,.15.1.14.33,0,.44.07.43,0,.29,0,.44V39l.11.75.14.19h.12l.05-.14-.08-.31V39l.16-.44.07-.64.08-.45.1-.21H41l.09.1.1.36.07.35,0,.56-.12.75-.35.74-.32.69-.2.6,0,.37,0,.42.14.41h.25l.13-.18-.07-.19-.06-.35.23-.31.27-.36.18-.35.42-.68.35-.61.15-.68.13-.89v-.89l-.17-.61L41.82,36l0-.23.16-.08.2.09.25.31.31.56.13.65.08.87.19.61h0l.27.6.17.06.08-.16,0-.09-.13-.45,0-.44,0-.65.11-.74v-.36l0-.31-.31-.62L43,35.21l.1-.17.36-.08.51-.23.54-.29L45,34l.62-.83.35-.69.28-.66.1-1.06,0-1-.15-1.17L46,27.81l-.15-.87-.1-.9.08-.58.15-.72.33-.71.46-.73.18-.47,0-.23-.15-.21-.21-.1v.33l-.17.19-.31.47-.18.11-.48.58-.19.31-.23.52-.25,0-.23-.14-.14-.61,0-.72.16-.66L45,22.1l.77-1.16.46-.94.06-.66-.07-.21-.14.13-.23.58-.35.58-.52.43-.59.57-.89,1h-.18l-.05-.18,0-.42.06-.8.27-.88.49-1,.63-.8.8-.67.07-.16-.1-.07-.4.21-.33.21-.56.48L43.5,19l-.5.68-.49.88-.27.72-.07.71,0,1,.23,1,.23.87L43,26.21l.29,1.64.17,1.25v.67l-.07.72-.11.58-.22.65-.81,1-.83.76-1.06.59-1,.06-.14-.5-.36-.71-.51-.69L38,31.84l-.44-.6-.94-.91-1-.79-.42-.33-1.33-.9L32,26.71,31,25.42l-1.14-1.87-.31-1.12.08-.7.16-.14.4.28.64.31.52,0,.6.28.64.38.33.27.42.3.44.05.1-.19-.12,0-.13.06-.22-.14-.19-.29-.27-.44-.52-.48-.52-.2-.29-.06.06-.15h.4l.47.15.67.45.31.13.12-.15-.2-.27-.52-.47-.81-.42-1-.38-.19-.16.19-.13.44.21.81.14.87.34.46.23.81.12.58-.08.33-.15.44-.28.2-.18,0-.14h-.18l-.17.18-.58.19-.5.08-.43-.06-.4-.32-.37-.43L33,19.8l-.66-.13-.63-.22-.28-.17,0-.15.26,0h.56l.56,0h.57l.31-.06.25.21.41.1h.33l.15-.12-.27-.07L34.25,19l-.35-.32-.56-.3-.46-.05-.42-.06-.16-.1.31-.17h.5l.39.12.38.19.62.27.62,0,.33-.16.09-.21-.25-.11-.52,0-.44-.16-.39-.33-.42-.21-.56-.1-.48-.17-.21-.27,0-.14.31.07.39.11.23.17.33,0,0-.17-.35-.27-.1-.25.47.07.44.23.56.07.21.4.58.34h0l.12-.05.16-.1-.08-.11h-.21l-.2-.26-.38-.6-.68-.6-.69-.31-.19-.23-.43-.5-.39-.21,0-.2.17-.11.41.09.8.23.39.14.25.35.41.21h.31l.4.11.45-.08.17-.15-.25-.21-.37-.1-.42-.05-.25-.22-.33-.48-.08-.31-.42-.38-.47-.3-.52-.32-.58-.54,0-.16h.13l.75.6.77.45.41.3.52.49.47.25.26.08.14-.22-.19-.07-.41-.37-.11-.41-.43-.46-.35-.29L34.25,12l-.6-.89-.81-.71,0-.23.29,0,.41.21.65.27.68,0,.5.24.54.09.46-.13,0-.2-.53-.11-.46-.21-.92-.45-.51-.27-.26-.33.09-.11.14.09.21.08.27,0h.44l.38,0,.59,0,.44.18.46.33.2.06,0-.18-.16-.15-.46-.43-.72-.37-.52,0-1-.06-.23-.27-.5-.51-.56-.38-.21-.19.17-.14.27.12.48.25.54.19.74.18h.63l.52.58.43.25.15-.16-.58-.85L35,7.07l-.76-.18-.64-.67L33,5.89l-.77-.19.43-.37.75-.25L34,4.91l.13-.18L34,4.6l-.31-.08-.29-.06-2.18,0-.39-.43-.44-.28-.56-.26-.73-.11h-.63l-.18-.23-.59-.64L27,1.89l-.44.74,0,.23.21.27,0,.23-.15.14-.49,0-.89-.25-.86-.19-.41,0-.66.14.08.23.37,0,.15,0Z"/><path class="cls-1" d="M26.27,3.25l0-.45L25.59,2,25.4,2l-.14.2,0,.23-.22.19,0,.27L25.3,3l.35.26Z"/><path class="cls-2" d="M25,2.74l0,0"/><path class="cls-3" d="M31.65,27.62l-.85-1.1-.73-1.08-.55-.85L29.31,24l-.11-.56-.14-.38-.21-.1-.21.05-.08.37.16.64.36.93.46.74.53.66.57.58.35.33.66.35ZM20.09,7.92l-.2.28-.09.29,0,.21.1.06.29-.06.21-.12.15-.16.09-.28L20.59,8l-.18-.16h-.15l-.17.08Zm5.5-.76h.23L26,7.08l0-.22L26,6.61l-.1-.24-.2-.13-.26,0h-.35l-.22.19-.1.2.07.19.23.13.26.14.28.11ZM44.47,27.68l-.14.13,0,.25,0,.44.05.47,0,.4,0,.46,0,.51-.1.47-.11.4L44,31.6l-.24.4-.26.4-.26.36-.25.32-.13.25-.1.22,0,.17.12.06.24-.06.46-.44.4-.47.27-.38.24-.44.15-.4.14-.46.1-.54V29.36l-.08-.49-.11-.51-.14-.42-.06-.21-.09-.05ZM24.14,30.85l.27.3.88.76.48.43.44.4.35.33.07.11,0,.08h-.13L26.19,33l-.6-.4L24.68,32l-.37-.25-.4-.31-.43-.39-.31-.24-.38-.37-.24-.26L22.39,30l-.05-.29v-.26l.1-.1h.17l.27.17.3.28.21.26.23.23.23.28.28.31ZM22.15,19v-.15l.1-.1.33-.14.68-.21L24,18.3h.42l.35.07.32.16.26.25v.14l0,.1-.11,0L25,19,24.76,19l-.24-.07-.3,0h-.69l-.28,0-.31.05L22.7,19l-.24.05H22.3l-.11,0,0-.05ZM31,30.79l-.1.28,0,.22-.08.4,0,.32.07.09.16,0,.07-.06,0-.17.12-.24.11-.13.13-.12.07-.18,0-.31-.11-.16-.06-.06h-.15l-.11,0-.07.08Zm.22,9.54h-.1L31,40.09v-.26l.06-.37.13-.5.22-.31.19-.24.17,0,.05.15-.11.34-.14.41-.08.2-.13.31-.11.36,0,.1,0,.07Zm6.75-4.62-.13.16,0,.25.22.3,0,.33,0,.1.1,0,.11-.06,0-.15,0-.16,0-.17V36.1l0-.17-.12-.16-.11-.09h-.12ZM28.29,53.17l-.22.21-.08.16,0,.13,0,.11.07,0h.06l.14,0,.16-.1.09-.14.08-.15.05-.19,0-.11-.06,0h-.11l-.16.1Zm1.57-2.3-.18.11-.09.11v.1l.06.09.09,0,.12-.05.1,0L30,51.1l.05-.12v-.09l-.07,0-.13,0Zm3-2.94-.73.73-.59.65-.43.47,0,.13.05.08h.1l.15-.1.27-.24.35-.32.37-.39.35-.34.31-.36.23-.34.06-.15-.06-.08h-.07l-.21.13-.13.14Zm1.74-1.06-.1.11,0,.09v.09l.08,0h.06l.09-.1.11-.1,0-.07v-.06l0,0h-.12l-.09,0Zm-2.53-4H32l0,0v.42l.05.28.09.21.19.31.12.18.07,0h0l0,0,0-.24,0-.12v-.34l-.06-.32-.09-.23-.11-.14-.09,0Zm-12-.36-.18,0-.17,0,0,.07v.1l.09.1.05,0,.13,0h.14l.07,0,.08-.1.05-.11,0-.09,0-.08-.06,0Zm5.37.6L25,43l-.07,0,0,.11.05.1.36.12.49.15.62.15.27,0H27l.27,0,.31.05h.17l.06-.07v-.1l0-.07-.17,0-.28-.06-.36,0-.38,0-.43-.05-.26,0-.22,0-.2-.09Zm4.22.15-.14.11,0,.1,0,.09.08,0,.16,0,.1-.09.06-.1V43.3l0,0h-.11l-.11,0Zm-14.11-10-.16,0-.06,0,0,.09,0,.16.07.08.11,0,.09-.07,0-.1,0-.09-.06-.08Zm-3.08-6.56-.06.41v.41l.06.36.12.38.12.24.09.18,0,.1.07.06h0l0-.05,0-.14-.07-.49,0-.3-.12-.34-.1-.32V27l-.06-.24-.06-.06h0l0,.05Zm4.37-.51,0-.08,0-.1-.13-.12-.24-.11-.33-.15-.29-.14-.31-.08-.19-.06h-.17l.13.1.37.22L16,26l.33.2.14.06.21,0Zm-4.59-2.61-.16.27v.19l.06.05.1,0,.09-.13.06-.15,0-.11v-.16l-.07,0-.08,0Zm15-11.34-.18,0-.24.23-.47.74-.49.95-.28.55-.31.64-.37.58-.1.22,0,.08h.1l.31-.12.44-.47.59-.82.37-.68.33-.55.24-.64.11-.41v-.22l-.08-.13Zm-8.71,8.82.1,0,0,.13-.08.45-.22.62-.2.59-.34.42-.17.13-.18.07-.11-.07v-.14l.15-.15.15-.25.19-.43.12-.4.1-.4.21-.38.13-.2.12,0ZM12.27,19.8l-.22.39-.1.52,0,.28v.2l.05.11.14,0,.25-.39.14-.46.11-.41v-.29l-.06-.09-.17.05-.11.13Zm2.77.79,0,.12.06.08.14.14.15.12.18.1.13.08h0l0-.05v-.09l-.07-.1-.11-.13-.18-.11-.12-.1-.09-.09-.09,0h-.06l0,.05Zm-1.56-2.43-.26,0-.13.08,0,.15,0,.1.15.06.24,0,.25-.09.08-.12v-.09l-.08-.08-.1,0Zm13.07,2.39.18,0,.05.1,0,.21,0,.22-.05.15-.11.07H26.4l-.18,0-.1-.13-.09-.1V20.9l.13-.17.2-.16.19,0ZM22,7l.24-.21.44-.21.45-.2.42-.2.2-.09.14,0,.12,0,.1.15-.06.11-.13,0-.14,0-.16.14-.37.22L22.78,7,22.47,7l-.3,0Zm-.89.89-.08.12v.1l.07.08.08,0h.11l.05,0,0-.12V8l0-.08h-.16l-.06,0Zm1,.91h-.07L22,8.91V9l0,.08.06,0h.1l.08,0,0-.07,0-.1,0-.06-.08,0Zm3.06.46.53-.37.31-.2.2-.12h.07v.14l-.13.1-.07.22L26,9.32l-.29.14-.3.07h-.27l0-.09.06-.09.08,0ZM27,9.48l.17-.22.2-.19L27.53,9h.13l.09.06v.16l-.05.18-.2.19-.24.15L27,9.74l-.11,0,0-.09Zm0,.92.07-.12.16-.07.28-.14.33-.2.15-.1.23-.12.14,0v.16l-.05.14-.21.24-.28.14-.28.11h-.48L27,10.4Zm-.57-5-.16.06,0,.11.07.13h.18l.15-.06.11-.12-.05-.11-.14-.05-.12.05Zm3-1-.1-.07.07-.12.26,0,.14.05.11.06v.09l-.1,0h-.28Zm.42.6H30l.11,0,.06,0,0,.06-.08.09h-.12l-.14,0-.07,0-.06-.07L29.73,5Zm0,2.69.28-.11.24-.13.25-.14.2-.07.11,0L31,7,30.9,7h-.16l-.19,0-.22.08h-.15l0-.11,0-.22-.09-.09H30l-.09.11-.08.1L29.68,7l-.09.22v.2l0,.11v.12l.08,0Zm-.1,10.78h.13l.12.1v.08l0,0-.11,0h-.13l-.09-.09,0-.07.09-.07Zm.22-.3h.16l.1-.12V18l-.1-.07H30l-.09,0,0,.08v.11l.09.05Zm.17-1,.12,0h.11l.07.06v.09l0,.07-.1.05-.11,0-.12,0,0-.08v-.09l.09-.07Zm.12-.43h.16l.14-.05.06-.09,0-.11-.12-.05-.14,0-.12.06,0,.09v.06l.08.06Zm.32-1.11.16-.05h.12l.06.07,0,.12-.08.11-.07.09-.15,0H30.4L30.27,16v-.1l.09-.09.07-.08.1,0Zm.16-.83.16,0,.15,0,.06.09V15l-.07.11-.12,0-.12,0h-.16l-.07-.08V15l.05-.07.11-.08Zm.15-.27H31l.13,0,.16-.06,0-.14-.06-.11-.13,0H31l-.1,0-.09.05-.11.09,0,.1,0,.08.08,0ZM10.5,27.83l.14,0,0,.13-.1.12-.16,0-.07-.15ZM30.72,13.56l.25-.13.12,0,.14,0,.06.05v.06l-.06.09-.1.09-.14,0-.18,0-.14,0,0-.09,0-.07.06,0Zm.22-.42.18-.08L31.2,13l0-.08v-.08l0-.05H31l-.11,0-.09.06,0,.06V13l0,.09.08,0Zm0-.72.16-.06.11-.08,0-.06,0-.12,0-.07-.07,0h-.11L31,12l-.09.06-.07.06v.11l0,.08.08.05.09,0Zm0-1.87h.13l.08,0,0,.07,0,.07-.07.07-.11,0h-.11l-.08-.07v-.08l.07-.07.11,0Zm0,1.13.17-.08.12-.11v-.26l-.08-.05-.1,0H31l0,.05,0,.07,0,.1-.05,0H30.8l0,.05v.1l.07.08.07,0ZM31,10l.12-.08h.12l.07.09v.09l-.06.08-.09,0-.09,0h-.19l0-.07,0-.08L31,10,31,10Zm0-.42.09,0,.1-.09V9.27l-.06,0-.1,0-.06,0-.07.08v.17l0,0Zm-.23-.84.06,0H31l.06,0,0,.07,0,.09-.06,0-.07,0H30.8l-.07,0V8.87l0-.06.06-.08Z"/></svg>