<svg id="Слой_1" data-name="Слой 1" xmlns="http://www.w3.org/2000/svg" viewBox="0 0 56.69 56.69"><defs><style>.cls-1{fill:#5e3428;}</style></defs><g id="g4527"><g id="g4533"><path id="path4535" class="cls-1" d="M7.72,27.89V25H3.65a.75.75,0,0,0-.73.67A.73.73,0,0,0,2.13,25H.85v1.46h.72c.18,0,.23.14.23.27v.85h0c0,.29-.62.64-.69.73s.68.38.68.73V30c0,.09-.05.21-.24.21H.82v1.45h1.3a.73.73,0,0,0,.8-.6.7.7,0,0,0,.73.6H5V30.2H4.29C4.1,30.2,4,30.08,4,30V29.1h.28a.12.12,0,0,1,.1.09v.37H5.72V27.15H4.38v.38a.1.1,0,0,1,0,.08H4v-.83a.26.26,0,0,1,.22-.29H5.86a.26.26,0,0,1,.24.29v1.11Z"/></g><g id="g4537"><path id="path4539" class="cls-1" d="M13.42,27.9H15V25H11a.75.75,0,0,0-.71.68.75.75,0,0,0-.8-.68H8.14v1.46h.74c.21,0,.23.16.23.28v.87c0,.29-.61.64-.69.73.08.08.68.38.68.72V30a.27.27,0,0,1-.29.2H8.12v1.45H9.44a.75.75,0,0,0,.8-.6.7.7,0,0,0,.73.6H15V28.84H13.41V30a.2.2,0,0,1-.21.21H11.6c-.18,0-.28-.09-.28-.2v-.91h.33c.06,0,.09.06.1.1s0,.38,0,.38H13.1V27.16H11.75v.35a.12.12,0,0,1-.08.09h-.34v-.83a.29.29,0,0,1,.28-.29h1.56c.18,0,.24.15.25.29V27.9Z"/></g><g id="g4541"><path id="path4543" class="cls-1" d="M23.51,31.65V30.21H23a.25.25,0,0,1-.27-.26v-.24h0c0-.64,0-1.24-.91-1.43A1.31,1.31,0,0,0,23,27.61h0A1.73,1.73,0,0,0,21.33,25H18.71c-.28,0-.77.24-.78.68a.74.74,0,0,0-.8-.68H15.81v1.46h.73a.26.26,0,0,1,.26.28v.87c0,.28-.62.63-.69.72.08.08.68.38.68.73V30a.26.26,0,0,1-.28.2h-.69v1.45h1.3a.75.75,0,0,0,.81-.6.69.69,0,0,0,.72.6H20V30.21h-.68A.31.31,0,0,1,19,30v-.88h.8a.6.6,0,0,1,.63.59v0h0a4.43,4.43,0,0,0,.18,1.05h0a1.13,1.13,0,0,0,.73.83,2.84,2.84,0,0,0,.71.06Zm-3.12-4-.15,0H19v-.78c0-.17.07-.36.31-.36h.88A.58.58,0,0,1,20.39,27.61Z"/></g><g id="g4545"><path id="path4547" class="cls-1" d="M31.77,31.64v-.88H28.88a1.12,1.12,0,0,0,.73.82,2.44,2.44,0,0,0,.71.06Zm-2.89-.88h2.89V30.2H31.3A.25.25,0,0,1,31,30v-.24c0-.64,0-1.24-.91-1.43a1.31,1.31,0,0,0,1.12-.67h0a1.84,1.84,0,0,0,.23-.82A1.71,1.71,0,0,0,29.59,25H27c-.28,0-.77.25-.78.68a.74.74,0,0,0-.8-.68H24.07v1.47h.73a.26.26,0,0,1,.26.28v.86c0,.29-.62.64-.69.73s.68.38.68.72V30a.25.25,0,0,1-.28.21h-.69v1.44h1.3a.74.74,0,0,0,.81-.6.67.67,0,0,0,.72.6h1.34V30.2h-.67a.3.3,0,0,1-.31-.24v-.88h.8a.6.6,0,0,1,.63.59v0a4.43,4.43,0,0,0,.18,1.05m-.25-3.15H27.29v-.76c0-.17.07-.36.31-.36h.88a.57.57,0,0,1,.15,1.12"/></g><g id="g4549"><path id="path4551" class="cls-1" d="M37.38,27.9H39V25H34.91a.75.75,0,0,0-.71.68.77.77,0,0,0-.81-.68H32.1v1.46h.74c.21,0,.22.16.23.28v.87c0,.29-.61.64-.69.73.08.08.68.38.68.72V30a.26.26,0,0,1-.28.2h-.69v1.45h1.31a.76.76,0,0,0,.81-.6.69.69,0,0,0,.72.6H39V28.84H37.37V30a.2.2,0,0,1-.21.21H35.55c-.17,0-.27-.09-.27-.2v-.91h.33s.09.06.1.1,0,.38,0,.38h1.34V27.16H35.71v.35a.12.12,0,0,1-.08.09h-.35v-.83a.29.29,0,0,1,.28-.29h1.57c.18,0,.24.15.25.29V27.9Z"/></g><g id="g4553"><path id="path4555" class="cls-1" d="M47.54,31.64v-.88H44.66a1.1,1.1,0,0,0,.73.82,2.37,2.37,0,0,0,.7.06Zm-2.88-.88h2.88V30.2h-.47A.25.25,0,0,1,46.8,30a1.93,1.93,0,0,1,0-.24c0-.64,0-1.24-.91-1.43A1.31,1.31,0,0,0,47,27.61h0a1.61,1.61,0,0,0,.23-.82A1.7,1.7,0,0,0,45.36,25H42.74c-.28,0-.76.25-.78.68a.73.73,0,0,0-.79-.68H39.85v1.47h.73a.26.26,0,0,1,.25.28v.86c0,.29-.61.64-.68.73s.68.38.68.72V30a.27.27,0,0,1-.29.21h-.69v1.44h1.31A.74.74,0,0,0,42,31a.68.68,0,0,0,.73.6H44V30.2h-.68A.31.31,0,0,1,43,30v-.88h.8a.61.61,0,0,1,.64.59v0a4,4,0,0,0,.18,1.05m-.25-3.15H43.06v-.76c0-.17.07-.36.32-.36h.87a.57.57,0,0,1,.16,1.12"/></g><g id="g4557"><path id="path4559" class="cls-1" d="M55.88,28.34c-.2-.16-.64-.36-.71-.66v-.07h0c-.09-1.21-.82-2.74-3.67-2.72-2.13,0-3.47,1-3.62,2.72v0c-.05.29-.49.52-.69.67.19.15.63.36.69.65a3.23,3.23,0,0,0,.11.74h0a2.93,2.93,0,0,0,.57,1.05h0a3.87,3.87,0,0,0,3,1,3.87,3.87,0,0,0,2.9-1h0a2.62,2.62,0,0,0,.6-1.05,3.19,3.19,0,0,0,.12-.71c.06-.28.5-.51.7-.66m-3.8,0c.06.06.59.33.6.67a1.47,1.47,0,0,1-.23.7,1.06,1.06,0,0,1-.92.58,1.11,1.11,0,0,1-1-.58h0a1.43,1.43,0,0,1-.21-.68c0-.37.52-.61.61-.68-.07-.07-.6-.34-.6-.68v-.06c0-.34.4-1.23,1.14-1.21a1.26,1.26,0,0,1,1.16,1.21v.05c0,.36-.51.61-.6.68"/></g></g></svg>