<svg id="Слой_1" data-name="Слой 1" xmlns="http://www.w3.org/2000/svg" viewBox="0 0 56.69 56.69"><defs><style>.cls-1{fill:#010101;}</style></defs><path class="cls-1" d="M47.73,16.2a21,21,0,0,1,1.53,8.36,40.32,40.32,0,0,1-.43,5.63,39.72,39.72,0,0,1-3.7,11.61,3.28,3.28,0,0,1-.82,1.12c-.67.6-1.27.75-1.49.62s-.28-.64-.24-1.42a7.49,7.49,0,0,1,.43-2,77.12,77.12,0,0,0,2.54-11.44c.81-5.63.78-10.69-.43-13.78a5.46,5.46,0,0,0-.46-.9,2.21,2.21,0,0,0-.23-.29C41.94,11.26,35.2,10,28.46,10s-13.48,1.26-16,3.75a3,3,0,0,0-.22.29,4.54,4.54,0,0,0-.47.9c-1.21,3.09-1.24,8.15-.43,13.78A75.77,75.77,0,0,0,14,40.35a6.33,6.33,0,0,1,.36,1.77c0,.78-.06,1.31-.24,1.42s-.82,0-1.5-.62a4.37,4.37,0,0,1-1-1.48A40,40,0,0,1,8,30.19a40.92,40.92,0,0,1-.43-5.63A21.07,21.07,0,0,1,9.13,16.2a9.66,9.66,0,0,1,3.77-4.4A29.31,29.31,0,0,1,26.69,7.32c.57,0,1.14-.06,1.72-.06h0c.58,0,1.16,0,1.73.06A29.33,29.33,0,0,1,44,11.8a9.71,9.71,0,0,1,3.76,4.4ZM37.67,46.89c-.19,0-.77.17-1.34.33s-1,.25-1.26.3a35.41,35.41,0,0,1-6.58.61h-.06a34.41,34.41,0,0,1-6.58-.61c-.4-.08-.79-.17-1.18-.28s-.85-.22-1.28-.31c-.88-.2-1.68-.35-1.73-.18s.35.61.85,1a4.84,4.84,0,0,0,.76.47,5.81,5.81,0,0,0,.81.31,26.79,26.79,0,0,0,8.33,1.06h.05a27,27,0,0,0,8.19-1,4.89,4.89,0,0,0,1.8-.88c.46-.37.81-.75.76-.93s-.73,0-1.54.13ZM32.37,25.1a16.36,16.36,0,0,0-1.1-3.91H29.76l-.05,6.33h3v0s-.12-1.1-.35-2.38Zm12.17,3.56A69.84,69.84,0,0,1,41,42.82a2.74,2.74,0,0,1-1.12,1.48,13.23,13.23,0,0,1-5.14,2.17,33,33,0,0,1-6.28.58h-.06a33.06,33.06,0,0,1-6.28-.58A13.23,13.23,0,0,1,17,44.3a2.74,2.74,0,0,1-1.12-1.48,69.84,69.84,0,0,1-3.51-14.16c-.78-5.44-.73-10.24.39-13.1a3.87,3.87,0,0,1,.4-.78,1.37,1.37,0,0,1,.16-.21c2.26-2.26,8.58-3.49,15.13-3.49s12.87,1.23,15.13,3.49a1.37,1.37,0,0,1,.16.21,3.87,3.87,0,0,1,.4.78c1.13,2.86,1.17,7.66.39,13.1ZM21.8,19l-5.66,0,.56,19.73,2.37,0,0-9h2.14V27.4H19V21.29h2.77V19Zm4-.05H22.88l.39,19.76h2.44l.06-19.76Zm7.28,0H27.28l.23,19.72h2.31V29.76h3v0c.27,1.68.29,8.81.29,8.88v0h2.24l0-1c.1-5.11.28-13.66-2.34-18.72Zm9.13,0-7.06,0v2.28h2.1v0L37.13,38.7h2.4l.58-17.46h2.07v-2.3Zm11.47,9.41A25.31,25.31,0,1,1,28.35,3a25.35,25.35,0,0,1,25.3,25.36Zm-.7,0A24.6,24.6,0,0,0,3.75,28,3.61,3.61,0,0,1,5.19,26.3c1.39-.82,1.76-2.93,1.89-4.19l0-.13C7,22.82,7,23.65,7,24.56a40.14,40.14,0,0,0,.44,5.72C8.27,36.4,11.23,43,13,45l.1.1.4.43h0c4.25,3.48,8.15,4.72,14.92,4.72h.05c6.76,0,10.67-1.24,14.91-4.72h0l.39-.41.11-.12c1.75-2,4.71-8.58,5.58-14.7a41.66,41.66,0,0,0,.44-5.72,27.46,27.46,0,0,0-.14-2.77h0c.13,1.26.81,4.53,2.11,5.47A4.44,4.44,0,0,1,53,28.33Z"/></svg>