<svg id="Слой_1" data-name="Слой 1" xmlns="http://www.w3.org/2000/svg" viewBox="0 0 56.69 56.69"><defs><style>.cls-1{fill:#231f20;}.cls-2{fill:#fff;}</style></defs><g id="layer1"><path id="path38503" class="cls-1" d="M7.37,48.61H4.27l2.48-8.85H13.1l-.61,2.1H9.25l-.41,1.5h3.24l-.55,1.94H8.29Z"/><path id="path38507" class="cls-1" d="M14.53,48.61H11.47l1.82-6.47h3.05Zm2-7.08H13.45l.5-1.77H17Z"/><path id="path38511" class="cls-1" d="M22.47,48.61h-3l.21-.73a3.15,3.15,0,0,1-2.2.88c-1,0-1.63-.48-1.63-1.48a9.15,9.15,0,0,1,1.09-3.94A2.55,2.55,0,0,1,19.28,42a1.92,1.92,0,0,1,1.75.86l.86-3.12H25l-2.48,8.85Zm-2.3-4.55a.68.68,0,0,0-.7.47A4.2,4.2,0,0,0,19,46.14a.45.45,0,0,0,.47.46,1,1,0,0,0,.53-.15l.61-2.13a.6.6,0,0,0-.48-.26"/><path id="path38515" class="cls-1" d="M31.11,45.78H26.89a3.42,3.42,0,0,0-.17.86.41.41,0,0,0,.45.46c.43,0,.62-.17.79-.8h3c-.37,1.84-2.56,2.47-3.9,2.47-1.81,0-3.22-.26-3.22-2A6.7,6.7,0,0,1,25,43.38,4.17,4.17,0,0,1,28.31,42c1.9,0,3.13.39,3.13,2a8.35,8.35,0,0,1-.33,1.79m-3.06-2.17c-.38,0-.64.26-.81.92H28.5a2.61,2.61,0,0,0,.08-.46c0-.35-.21-.46-.53-.46"/><path id="path38519" class="cls-1" d="M34.18,48.61H31.12l2.48-8.85h3.06Z"/><path id="path38523" class="cls-1" d="M38.22,48.61H35.16L37,42.14H40Zm2-7.08H37.15l.49-1.77H40.7Z"/><path id="path38527" class="cls-1" d="M45.71,42.14,46,43.6H43.63l-.69,2.46a2.14,2.14,0,0,0-.1.58c0,.28.11.38.53.38H44l-.45,1.59H40.84c-.9,0-1.24-.44-1.24-1.11a3.06,3.06,0,0,1,.13-.9l1.66-5.89h3.06L44,42.14h1.67"/><path id="path38531" class="cls-1" d="M4.21,49.6H5l-.48,1.59H3.73l.48-1.59Z"/><path id="path38535" class="cls-1" d="M6.87,49.6H8l.28,1.06h0L8.6,49.6h.67l-.49,1.59H7.71L7.4,50.06h0l-.33,1.13H6.39l.48-1.59Z"/><path id="path38539" class="cls-1" d="M10.71,49.6h.84l.15,1,.77-1h.77L12,51.19H11l-.32-1.59Z"/><path id="path38543" class="cls-1" d="M14.71,49.6h1.73l-.1.32h-1l-.1.33h.93l-.09.31h-.93l-.1.31h1l-.1.32H14.22Z"/><path id="path38547" class="cls-1" d="M22.16,50h-.6l.12-.39h1.95l-.12.39h-.59l-.36,1.2h-.77l.37-1.2Z"/><path id="path38551" class="cls-1" d="M25.21,49.6h1.15l.06,1.06h0l.69-1.06h1.16l-.48,1.59h-.7l.36-1.2h0l-.86,1.2h-.73L25.74,50h0l-.37,1.2h-.64l.48-1.59Z"/><path id="path38555" class="cls-1" d="M33.13,49.6h1.11l.29,1.06h0l.32-1.06h.66L35,51.19H34l-.3-1.13h0l-.34,1.13h-.67Z"/><path id="path38559" class="cls-1" d="M37.35,50h-.59l.11-.39h2l-.11.39h-.6l-.36,1.2H37l.36-1.2Z"/><path id="path38565" class="cls-1" d="M18.78,50.08a.06.06,0,0,1,0-.07c0-.08.12-.13.28-.13a.75.75,0,0,1,.29,0,.11.11,0,0,1,0,.13h.68c.08-.29-.1-.47-.87-.47s-1.13.16-1.24.51a.27.27,0,0,0,.05.27c.18.19,1,.26,1.1.36a.09.09,0,0,1,0,.07c0,.13-.22.17-.38.17a.48.48,0,0,1-.27-.07.14.14,0,0,1,0-.14h-.71c-.07.24-.1.5.88.5.83,0,1.2-.2,1.3-.52a.26.26,0,0,0-.05-.29c-.19-.19-1-.26-1.09-.36"/><path id="path38569" class="cls-1" d="M29.83,49.6h1.73l-.1.32h-1l-.1.33h.93l-.09.31h-.93l-.1.31h1l-.1.32H29.34l.49-1.59Z"/><path id="path38573" class="cls-1" d="M49.84,42.14l-1.66,3.58,0-3.58H45.13l.59,6.47c-.08.37-.2.59-.44.69a3,3,0,0,1-1.05.09h0l-.49,1.75h2.09c1.24,0,1.84-.62,2.72-2l4.46-7H49.84"/><path id="path38577" class="cls-1" d="M40.8,50.08a.17.17,0,0,1,0-.07c0-.08.13-.14.29-.14a.56.56,0,0,1,.28.05.11.11,0,0,1,0,.13h.67c.08-.29-.1-.47-.86-.47s-1.14.15-1.24.5a.28.28,0,0,0,0,.28c.19.18,1,.26,1.1.36a.06.06,0,0,1,0,.07c0,.13-.22.16-.37.16a.47.47,0,0,1-.27-.06.14.14,0,0,1,0-.15h-.7c-.08.25-.11.51.88.51.82,0,1.2-.21,1.29-.52a.26.26,0,0,0,0-.29c-.18-.19-1-.26-1.09-.36"/><path id="path38653" class="cls-1" d="M49.83,42.16l-1.65,3.57,0-3.57H45.14l.59,6.44c-.08.38-.2.59-.44.69a3,3,0,0,1-1,.09h0l-.49,1.75H45.8c1.23,0,1.83-.62,2.71-2l4.44-7Z"/></g><path id="path38495" class="cls-2" d="M27.73,38.4a16.1,16.1,0,1,0-16.1-16.1,16.1,16.1,0,0,0,16.1,16.1"/><path id="path38499" class="cls-1" d="M25.26,25h5.92l1.73,1.13H25l-3.56,11a16.42,16.42,0,0,1-9-21.54,16.52,16.52,0,0,1,31,11.3,16.11,16.11,0,0,1-5.3,7.82l-4.37-7.29,6.08,3.4a0,0,0,0,0,0-.07l-8-6.89,10.32,1.57s0,0,0,0l-.07-.05L32.43,21.9l10.11-2.44s0,0,0-.05l-10.37.67,8.12-6.14s-.06,0-.07,0l-9.12,4.63,5-8.89s0-.05,0,0l-6.58,7.72L30.81,7.21s0,0-.07,0l-3,9.85L25.06,6.9a0,0,0,0,0-.07,0l.73,10.52L19.48,9.29s0,0-.06,0l4.73,9-8.94-4.88-.05,0,8,6.53L13,18.91s0,.05,0,.06l9.83,2.88L13,24.72s0,.05,0,.07l10.09-1.18-7.93,6.73s0,0,0,.06l.11,0L21.63,27l1.49-2.37h1.7l-1.18-.83,3.93-6.3L25.25,25h0"/></svg>