<svg id="Слой_1" data-name="Слой 1" xmlns="http://www.w3.org/2000/svg" viewBox="0 0 56.69 56.69"><defs><style>.cls-1{fill:#241916;}.cls-2{fill:#e30518;}</style></defs><path id="path137" class="cls-1" d="M33.87,47.1c-1.3,0-2,.51-2.25,1.48a1.47,1.47,0,0,0,.12,1c.35.62,1.3.69,1.82,1.06a.49.49,0,0,1,.18.6.76.76,0,0,1-.81.68c-.43,0-.7-.26-.45-1.06H31.09c-.56,1.34.17,1.94,1.65,1.94s2.11-.32,2.43-1.57A1.26,1.26,0,0,0,35,50.05c-.51-.55-1.48-.66-1.83-1a.56.56,0,0,1-.12-.58.69.69,0,0,1,.73-.55c.61,0,.62.37.47.82h1.32c.3-.93-.1-1.66-1.65-1.66Zm-8.65,0c-1.92,0-2.44.41-3.06,2.8-.58,2.22-.39,2.81,1.69,2.81a9.11,9.11,0,0,0,2-.18l.69-2.6H25.05l-.49,1.81-.43,0c-1,0-.86-.29-.46-1.86S24.34,48,25,48s.58.39.44.88h1.47c.24-.92.08-1.74-1.64-1.74Zm17.35,0c-1.66,0-2.38.3-3,2.82-.56,2.18-.11,2.81,1.58,2.81s2.39-.35,3-2.81C44.61,48.18,44.51,47.14,42.57,47.14Zm4.94.07c-1.13,0-1.66,0-2,0l-1.38,5.31a.13.13,0,0,0,.12.17H45.6l1.19-4.62h.5c.64,0,.72.23.55.88l-.92,3.58a.12.12,0,0,0,.11.17h1.32l1-3.75C49.66,47.65,49.09,47.21,47.51,47.21Zm-37.18,0L9,52.53a.12.12,0,0,0,.12.17h1.31l1.2-4.62h.55c.51,0,.7.32.59.74a1.1,1.1,0,0,1-1.09.87h-.2L12,52.33a.44.44,0,0,0,.5.37h1.17l-.51-2.2a1.12,1.12,0,0,0-.18-.38s0,0,0,0a1.68,1.68,0,0,0,1.21-1.27c.23-.89-.33-1.6-1.75-1.6Zm7.61,0-1.37,5.31a.13.13,0,0,0,.12.17h1.75c2.21,0,2.58-.43,3.19-2.77.52-2,.2-2.71-1.71-2.71Zm18.16,0-.23.89h1.46s0,0,0,0a1.22,1.22,0,0,0-.44.69l-1,3.7a.13.13,0,0,0,.12.17h1.41l1.19-4.59h.73a.76.76,0,0,0,.79-.53l.14-.36Zm-20.66,0-1.38,5.31a.13.13,0,0,0,.12.17h1.39L17,47.38a.12.12,0,0,0-.12-.16Zm13.73,0c-1,0-1.24.17-1.61,1.6l-.68,2.62c-.21.88.05,1.26.77,1.26h2a.76.76,0,0,0,.76-.53l.16-.42h-2c-.2,0-.26,0-.23-.21l.34-1.31h2l.22-.86h-2l.22-.87a.52.52,0,0,1,.54-.42h1.58l.22-.86Zm22.54,0c-1,0-1.24.17-1.61,1.6l-.68,2.62c-.21.88.06,1.26.77,1.26h2a.76.76,0,0,0,.76-.53l.17-.42h-2c-.19,0-.26,0-.22-.21l.33-1.31h2l.22-.86h-2l.23-.87a.52.52,0,0,1,.54-.42h1.57l.23-.86ZM42.35,48c.63,0,.7.34.3,1.91s-.81,1.94-1.3,1.94-.72-.23-.28-1.94C41.44,48.49,41.79,48,42.35,48Zm-22.68.07c.86,0,.86.29.45,1.86s-.66,1.83-1.47,1.83h-.4l.95-3.68Z"/><path id="path151" class="cls-2" d="M3.09,50,4,47a.84.84,0,0,1,.77-.59H7.34s.06.05,0,.08A29.31,29.31,0,0,0,3.16,50a0,0,0,0,1-.07,0"/><path class="cls-1" d="M7.82,46.39H7.74L6.33,51.32a.7.7,0,0,1-.63.48H5.16l.85-3c0-.05,0-.08-.07-.05a30.91,30.91,0,0,0-3.7,3.83s0,.08,0,.08H6c1.55,0,2.39-.48,2.7-1.63a1.3,1.3,0,0,0-1-1.74s0,0,0,0A1.71,1.71,0,0,0,9.2,48c.25-1-.49-1.58-1.38-1.56Z"/><path id="path151-2" data-name="path151" class="cls-2" d="M14.11,27.56,19.73,7.83a5.58,5.58,0,0,1,5.05-3.89H42a.29.29,0,0,1,.16.53A193.08,193.08,0,0,0,14.59,27.81a.28.28,0,0,1-.48-.25"/><path class="cls-1" d="M45.14,3.92l-.56,0L35.37,36.19a4.64,4.64,0,0,1-4.13,3.21H27.7l5.57-19.47a.29.29,0,0,0-.47-.3A207.65,207.65,0,0,0,8.54,44.74c-.16.21-.08.51.19.51h24.1c10.16,0,15.72-3.15,17.74-10.68,1.64-6.12-1.57-10.3-6.69-11.38-.1,0-.18-.19,0-.22,4.33-.75,8.71-2.49,10.26-8.82,1.64-6.63-3.22-10.35-9-10.23Z"/></svg>