<svg id="Слой_1" data-name="Слой 1" xmlns="http://www.w3.org/2000/svg" viewBox="0 0 56.69 56.69"><defs><style>.cls-1{fill:#2e61ac;}.cls-2{fill:#e72684;}</style></defs><path class="cls-1" d="M3,27.92H.84V25.2H3.1v-.69c0-3.33,1.52-4.5,4.51-4.5a9.47,9.47,0,0,1,1.91.22L9.3,22.9a3.34,3.34,0,0,0-1.19-.17c-.95,0-1.33.69-1.33,1.78v.69H9.44v2.72H6.78v8.5H3Z"/><rect class="cls-1" x="11.4" y="20.27" width="3.74" height="16.15"/><rect class="cls-1" x="18.34" y="20.53" width="3.74" height="2.84"/><rect class="cls-1" x="18.34" y="25.2" width="3.74" height="11.22"/><path class="cls-1" d="M33.32,28.41a4,4,0,0,0-2.26-.62,2.84,2.84,0,0,0-2.87,3.1,3,3,0,0,0,3.08,3,5,5,0,0,0,2.32-.54l.09,2.88a9.62,9.62,0,0,1-3.06.5c-3.57,0-6.3-2.15-6.3-5.86s2.73-5.88,6.3-5.88a6.49,6.49,0,0,1,3,.63Z"/><polygon class="cls-1" points="35.24 20.27 38.98 20.27 38.98 29.92 39.02 29.92 42.14 25.2 46.23 25.2 42.47 30.35 46.55 36.42 42.01 36.42 39.02 30.86 38.98 30.86 38.98 36.42 35.24 36.42 35.24 20.27"/><path class="cls-2" d="M55.67,28.3a4.16,4.16,0,0,0-1.27-.13c-1.74,0-2.72,1.32-2.72,3.51v4.74H47.94V25.2h3.41v2.07h0a3.35,3.35,0,0,1,3.2-2.33,8.26,8.26,0,0,1,1.27.13Z"/></svg>