<svg id="Слой_1" data-name="Слой 1" xmlns="http://www.w3.org/2000/svg" viewBox="0 0 56.69 56.69"><defs><style>.cls-1{fill:#233977;}.cls-2{fill:#fff;}</style></defs><polygon class="cls-1" points="17.18 17.85 21.13 21.8 17.18 25.76 25.42 34.01 33.67 25.81 29.72 21.85 33.67 17.9 25.42 9.65 17.18 17.85"/><path class="cls-1" d="M2.68,32.38H14.36v4.2H8v1.49h4v3.81H8v5.17H2.68Zm18.77,0V43.52h5.79V47H16.29V32.38Zm8.15,0h5.16V47H29.6Zm19.68,8.25A4.31,4.31,0,0,0,50.44,40a4.07,4.07,0,0,0,1.16-1.4A3.55,3.55,0,0,0,52,36.87a3.65,3.65,0,0,0-.34-1.59,4.43,4.43,0,0,0-1-1.4,5.42,5.42,0,0,0-2.12-1.21,11.24,11.24,0,0,0-3.09-.39h-8V46.9h5.16V41.31l5,5.59H54l-6.27-6a5,5,0,0,0,1.54-.29m-6.75-5.31h1a4.21,4.21,0,0,1,2.37.49,1.45,1.45,0,0,1,.58.62,1.42,1.42,0,0,1,.19.73,1.47,1.47,0,0,1-.24.72,2.64,2.64,0,0,1-.58.63,4.2,4.2,0,0,1-2.36.48h-1V35.32Z"/><rect class="cls-2" x="22.44" y="18.82" width="6.07" height="6.07" transform="translate(-7.99 24.41) rotate(-45)"/></svg>