<svg id="Слой_1" data-name="Слой 1" xmlns="http://www.w3.org/2000/svg" xmlns:xlink="http://www.w3.org/1999/xlink" viewBox="0 0 56.69 56.69"><defs><style>.cls-1{fill:none;}.cls-2{clip-path:url(#clip-path);}.cls-3{fill:#21264f;}.cls-4{fill:#fff;}.cls-5{fill:#034c86;fill-rule:evenodd;}</style><clipPath id="clip-path"><rect class="cls-1" x="60.78" y="-0.78" width="58.25" height="58.25"/></clipPath></defs><g class="cls-2"><g id="g2317"><path id="path2" class="cls-3" d="M90.82,13.61c-22.62,0-40.94,6.59-40.94,14.74S68.2,43.08,90.82,43.08s41-6.59,41-14.73S113.45,13.61,90.82,13.61Z"/><path id="path6" class="cls-4" d="M91,41.79c-21.79,0-39.45-6.08-39.45-13.59S69.24,14.61,91,14.61s39.44,6.08,39.44,13.59S112.81,41.79,91,41.79Zm0-26C70,15.78,53,21.34,53,28.2S70,40.61,91,40.61s38.05-5.55,38.05-12.41S112.05,15.78,91,15.78Z"/></g></g><path class="cls-5" d="M49.14,25.45c-1.8-.29-3.39-.69-3.39-2a1.82,1.82,0,0,1,.4-1.1,4.68,4.68,0,0,1,3.19-.79,18.4,18.4,0,0,1,4.69.69V18.87a32.58,32.58,0,0,0-5.29-.5c-4.69,0-7.48,1.2-8.38,3.49V8.9H1.57V47.79H40.36V36.13h-15V18.87H31V31.94h9.37v4.19h0a34.62,34.62,0,0,0,6.49.59c3,0,8.27-1.19,8.27-6.08,0-4-3.19-4.59-6-5.19ZM21,26.25v3.29H12.74v6.59H7.16V22h0a2.88,2.88,0,0,1,3.09-3.1h11v3.19H12.74v4.19ZM45.85,33a16.76,16.76,0,0,1-5.49-1.09V25.65c.9,2.3,3.49,2.9,5.79,3.4,1.69.29,3.39.69,3.39,2.09,0,.7-.5,1.89-3.69,1.89Z"/></svg>