<svg id="Слой_1" data-name="Слой 1" xmlns="http://www.w3.org/2000/svg" xmlns:xlink="http://www.w3.org/1999/xlink" viewBox="0 0 56.69 56.69"><defs><style>.cls-1{fill:none;}.cls-2{clip-path:url(#clip-path);}.cls-3{fill:#21264f;}.cls-4{fill:#fff;}</style><clipPath id="clip-path"><rect class="cls-1" x="-0.78" y="-0.78" width="58.25" height="58.25"/></clipPath></defs><g class="cls-2"><g id="g2317"><path id="path2" class="cls-3" d="M29.26,13.61c-22.62,0-40.94,6.59-40.94,14.74S6.64,43.08,29.26,43.08s40.95-6.59,40.95-14.73S51.89,13.61,29.26,13.61Z"/><path id="path6" class="cls-4" d="M29.47,41.79C7.69,41.79-10,35.71-10,28.2S7.69,14.61,29.47,14.61,68.91,20.69,68.91,28.2,51.25,41.79,29.47,41.79Zm0-26c-21,0-38.06,5.56-38.06,12.42s17,12.41,38.06,12.41S67.53,35.06,67.53,28.2s-17-12.42-38.06-12.42Z"/><path id="path8" class="cls-4" d="M19.18,18c-.56,0-1.12,0-1.69.07-3.76.31-7.34,2.41-7.35,5.6a2.76,2.76,0,0,0,3,2.86c2.11-.07,3.84-1.74,4.75-3.86.34-.8-.3-1.13-.6-.67a5.3,5.3,0,0,1-2.13,1.88c-1,.48-2,.35-2.38-.45-.45-1.13.49-2.81,2.64-3.6,3.1-1.14,6.34-.39,9.46.19.05,0,.21.09.07.17a9.15,9.15,0,0,0-2,1.28,16.18,16.18,0,0,0-2,2c-.62.74-1.06,1.41-1.64,2.14a.21.21,0,0,1-.18.1A9.5,9.5,0,0,0,15,26.94a.55.55,0,0,0-.21.74.49.49,0,0,0,.69.08A4.28,4.28,0,0,1,18,26.87s.06,0,.07,0,0,0,0,.06A38.63,38.63,0,0,1,15.3,30.5a21.55,21.55,0,0,1-1.65,1.66c-2.38,2.18-4.93,2.14-5.85.77a2.29,2.29,0,0,1-.11-2.4,4.63,4.63,0,0,1,2.07-1.89.49.49,0,0,0,.08-.81,1.08,1.08,0,0,0-.92-.19,5.07,5.07,0,0,0-2.8,1.79,4.84,4.84,0,0,0-1,3.51,4.25,4.25,0,0,0,4.53,3.8c1.81,0,3.52-.56,5.58-2.63a42.78,42.78,0,0,0,5.31-7.48c.05-.09.09-.13.33-.16,1-.13,2.55-.28,3.52-.33.22,0,.26,0,.35.1a3.19,3.19,0,0,0,.93.74.67.67,0,0,0,.34.12.41.41,0,0,0,.33-.15.3.3,0,0,0,.07-.35c-.05-.1-.73-.47-.75-.62s.09-.12.09-.12a2.21,2.21,0,0,0,1.33-1.07,1.39,1.39,0,0,0-.21-1.8,1.43,1.43,0,0,0-1.84.2,2.23,2.23,0,0,0-.7,1.93c0,.11,0,.15-.15.16-.89.07-1.76.1-2.72.15-.07,0-.09,0-.05-.08A15.48,15.48,0,0,1,26,20.75c.12-.09.09-.27.08-.41,3.31.71,6.5,2,9.93,2a8.41,8.41,0,0,0,4.07-.93c1.14-.62,1.61-1.19,1.64-1.78a.52.52,0,0,0-.67-.58,29.3,29.3,0,0,1-10.22.37C26.88,19,23.1,18,19.18,18Zm6.92,5.53a.37.37,0,0,1,.22.08c.18.15.09.54-.09.81a1.57,1.57,0,0,1-.86.61c-.06,0-.11,0-.14-.16h0a1.37,1.37,0,0,1,.46-1.19.55.55,0,0,1,.41-.15Zm27.81.07H51.8c-.16,0-.24,0-.32.16-.24.46-3.19,4.84-3.74,5.69-.09.13-.2.11-.22,0A1.82,1.82,0,0,0,46.33,28a3.07,3.07,0,0,0-1.58-.18,5.71,5.71,0,0,0-2.6,1.21c-1.15.86-2.13,2-3.41,2.81-.7.45-1.65.84-2.29.25s-.51-1.71.37-2.62c.09-.09.21,0,.19.07a1.15,1.15,0,0,0,.33,1.11,1.27,1.27,0,0,0,1.41.15,1.8,1.8,0,0,0,1-1.4,1.59,1.59,0,0,0-1.48-1.81,3,3,0,0,0-2.12.76,3.9,3.9,0,0,0-.84.91c-.07.1-.18.11-.18,0,0-1.19-.46-1.86-1.46-1.88a3.78,3.78,0,0,0-2.24.9,22,22,0,0,0-2,2c-.08.09-.15.09-.17-.08a4,4,0,0,0-.59-2.1A.49.49,0,0,0,28,28a4.27,4.27,0,0,0-.75.44.42.42,0,0,0-.12.47A5.51,5.51,0,0,1,27,32.51a4,4,0,0,1-2.32,2.29,1.53,1.53,0,0,1-1.79-.48c-.59-.81-.35-2.21.53-3.38a6.62,6.62,0,0,1,3-2.1.18.18,0,0,0,.12-.25c-.06-.18-.16-.43-.2-.54-.1-.27-.39-.32-.74-.28a6.35,6.35,0,0,0-2.27.76,7.68,7.68,0,0,0-3.27,4,4.16,4.16,0,0,1-.59,1.09,11,11,0,0,1-1.36,1.31.24.24,0,0,0-.06.27,3,3,0,0,0,.53.69.31.31,0,0,0,.29-.06,6.88,6.88,0,0,0,1.34-1.18c.1-.12.2-.07.25.11a2.93,2.93,0,0,0,1.9,2c1.74.58,3.55-.26,4.91-1.72a19.37,19.37,0,0,0,1.51-1.94,18,18,0,0,1,3-3.22c.48-.36,1.06-.64,1.35-.46s.3.5-.07,1.16c-1.35,2.44-3.33,5.3-3.69,6-.07.12,0,.22.12.22h2a.26.26,0,0,0,.21-.13c1-1.6,2-3.13,3.05-4.7.06-.1.11,0,.11,0a2.57,2.57,0,0,0,.33,1.19,1.81,1.81,0,0,0,1.58.87A3,3,0,0,0,38,33.77a4.82,4.82,0,0,0,1.05-.56c.15-.11.18.07.17.1a3,3,0,0,0,1.34,3.4c1.52.75,3.2-.3,4.17-1.24.09-.1.19-.09.2.11a1.75,1.75,0,0,0,.49,1.09c.81.81,2.44.49,4.08-.77a20.28,20.28,0,0,0,3.15-3.14.14.14,0,0,0,0-.2c-.15-.16-.37-.34-.52-.47a.17.17,0,0,0-.22,0,26.47,26.47,0,0,1-3.27,3c-.44.31-1.16.56-1.48.13a.72.72,0,0,1,0-.7c.39-1,6.51-10.19,6.83-10.73h0c.06-.1,0-.16-.12-.16Zm-8.58,5.77a.87.87,0,0,1,.45.09c.75.36.51,1.22.17,1.9a.22.22,0,0,0,0,.14c0,.07.1.14.2.17s0,0,0,.11a8.71,8.71,0,0,1-.83,1.35,5,5,0,0,1-1,1.12c-.62.51-1.48,1.06-2.19.69a1.06,1.06,0,0,1-.44-1,4.92,4.92,0,0,1,1.28-3,3.73,3.73,0,0,1,2.4-1.6Z"/></g></g></svg>