<svg id="Слой_1" data-name="Слой 1" xmlns="http://www.w3.org/2000/svg" xmlns:xlink="http://www.w3.org/1999/xlink" viewBox="0 0 56.69 56.69"><defs><style>.cls-1{fill:none;}.cls-2{clip-path:url(#clip-path);}.cls-3{fill:#21264f;}.cls-4{fill:#fff;}.cls-5{fill:#111212;}</style><clipPath id="clip-path"><rect class="cls-1" x="-63.98" y="-0.78" width="58.25" height="58.25"/></clipPath></defs><g class="cls-2"><g id="g2317"><path id="path2" class="cls-3" d="M-33.94,13.61c-22.62,0-40.95,6.59-40.95,14.74s18.33,14.73,41,14.73S7,36.49,7,28.35-11.32,13.61-33.94,13.61Z"/><path id="path6" class="cls-4" d="M-33.73,41.79c-21.79,0-39.45-6.08-39.45-13.59s17.66-13.59,39.45-13.59S5.71,20.69,5.71,28.2-11.95,41.79-33.73,41.79Zm0-26c-21,0-38.06,5.56-38.06,12.42s17,12.41,38.06,12.41S4.32,35.06,4.32,28.2s-17-12.42-38-12.42Z"/></g></g><g id="g830"><path id="path8051" class="cls-5" d="M1.86,17.16V39.54H8.63V32.31h6.16V26.19H8.63V23.26h7.55l-.41-6.1Z"/><path id="path8458" class="cls-5" d="M27.05,17.16A11.19,11.19,0,1,0,38.24,28.35,11.16,11.16,0,0,0,27.05,17.16Zm0,4.61a1.89,1.89,0,0,1,1.89,1.89V33a1.89,1.89,0,0,1-3.78,0V23.66A1.88,1.88,0,0,1,27.05,21.77Z"/><path id="path8456" class="cls-5" d="M34.88,17.16l6.35,11.19L34.88,39.54h7.26l2.72-4.8,2.72,4.8h7.26L48.49,28.35l6.35-11.19H47.58L44.86,22l-2.72-4.79Z"/></g></svg>