<svg id="Слой_1" data-name="Слой 1" xmlns="http://www.w3.org/2000/svg" viewBox="0 0 56.69 56.69"><defs><style>.cls-1{fill:#e6233e;}.cls-2{fill:#fff;}</style></defs><path class="cls-1" d="M28.41,10.86H7.51a.68.68,0,0,0-.36.18c-.09.08-.09.27-.09.36v4.25c0,.18,0,.28.09.37a.37.37,0,0,0,.36.17h20.9A16.06,16.06,0,1,1,12.67,35.56a.71.71,0,0,0-.73-.63H7.78a.47.47,0,0,0-.36.18.74.74,0,0,0-.18.45,21.39,21.39,0,1,0,21.17-24.7M7.51,24.25H25.15c.19,0,.28-.09.46-.18a.55.55,0,0,0,.09-.36V19.45a.83.83,0,0,0-.09-.45.76.76,0,0,0-.46-.1H7.51a.5.5,0,0,0-.36.1.81.81,0,0,0-.09.45v4.26a.55.55,0,0,0,.09.36.68.68,0,0,0,.36.18m0,8a.59.59,0,0,1-.36-.08.72.72,0,0,1-.09-.46V27.42a.53.53,0,0,1,.09-.36.64.64,0,0,1,.36-.19H17.2a.64.64,0,0,1,.53.55v4.25a.73.73,0,0,1-.17.46.59.59,0,0,1-.36.08Z"/><path class="cls-1" d="M17.29,8.1h.47v.84H17.2a.71.71,0,0,1-.59-.33L15.38,6.45h-2V8.94h-.85V3.14H16a1.68,1.68,0,0,1,1.68,1.51,1.65,1.65,0,0,1-1.37,1.8Z"/><path class="cls-1" d="M24.35,6.06a3,3,0,1,1-3-3,3,3,0,0,1,3,3"/><path class="cls-1" d="M49.34,8.1h.34v.84h-.42a.74.74,0,0,1-.59-.33L47.44,6.45h-2V8.94h-.87V3.14h3.5a1.71,1.71,0,0,1,1.69,1.51,1.69,1.69,0,0,1-1.38,1.8Z"/><polygon class="cls-1" points="36.68 3.14 31.41 3.14 31.41 3.98 33.63 3.98 33.63 8.94 34.47 8.94 34.47 3.98 36.68 3.98 36.68 3.14"/><path class="cls-1" d="M29.79,3.14V7.79l-2.5-4.4a.51.51,0,0,0-.42-.25H25.16v5.8H26V4h.68l2.66,4.63a.68.68,0,0,0,.58.33h.74V3.14Z"/><path class="cls-2" d="M16,5.64A.83.83,0,1,0,16,4H13.37V5.64Z"/><polygon class="cls-1" points="11.63 3.98 11.63 3.14 6.92 3.14 6.92 8.94 7.79 8.94 7.79 6.45 11.18 6.45 11.18 5.64 7.79 5.64 7.79 3.98 11.63 3.98"/><path class="cls-2" d="M23.51,6.06a2.19,2.19,0,0,0-2.19-2.19,2.19,2.19,0,1,0,0,4.37,2.19,2.19,0,0,0,2.19-2.18"/><polygon class="cls-1" points="43.8 3.98 43.8 3.14 39.17 3.14 39.17 8.94 43.8 8.94 43.8 8.1 40.04 8.1 40.04 6.45 43.57 6.45 43.57 5.64 40.04 5.64 40.04 3.98 43.8 3.98"/><path class="cls-2" d="M48.11,5.64a.83.83,0,0,0,0-1.66H45.45V5.64Z"/><rect class="cls-1" x="37.44" y="3.14" width="0.84" height="5.8"/></svg>