<svg id="Слой_1" data-name="Слой 1" xmlns="http://www.w3.org/2000/svg" viewBox="0 0 56.69 56.69"><defs><style>.cls-1{fill:#e30518;}</style></defs><g id="layer1"><g id="g5598"><path id="path5600" class="cls-1" d="M3.84,30.7H6.63a1,1,0,0,1,1,.9h0V29.5H3.84V25.81H7.57a1,1,0,0,1,1,.9h0V24.6H.82v0a1.1,1.1,0,0,1,.92,1.11V35.4a1.1,1.1,0,0,1-.92,1.11v0h4v0a1.1,1.1,0,0,1-.93-1.11Z"/></g><g id="g5602"><path id="path5604" class="cls-1" d="M11.92,33.32a2.31,2.31,0,1,0,4.62,0V25.74a1.1,1.1,0,0,0-.93-1.11v0h3.95v0a1.1,1.1,0,0,0-.92,1.11v7.35c0,2.37-2,3.75-4.4,3.75s-4.43-1.38-4.43-3.75V25.74a1.1,1.1,0,0,0-.93-1.11v0h3.95v0a1.1,1.1,0,0,0-.93,1.11Z"/></g><g id="g5606"><path id="path5608" class="cls-1" d="M44.17,26.53A2.49,2.49,0,0,0,42,25.6c-2.47,0-2.35,1.87-2.35,1.87s-.17,1,1.07,1.59l2.47,1.31c2.38,1.27,2.1,3.08,2.1,3.08s.1,3.39-4.88,3.39a7.88,7.88,0,0,1-2.27-.26l-.7-2.2h0c.76,1.09,3,1.25,3,1.25,2.8-.12,2.82-2,2.82-2s.13-.81-1-1.41l-2.46-1.3c-2.56-1.37-2.27-3.21-2.27-3.21s-.06-3.33,4.35-3.33a6.9,6.9,0,0,1,2.29.36v1.81Z"/></g><g id="g5610"><path id="path5612" class="cls-1" d="M24.94,20.46a2.45,2.45,0,0,0,1.71.69,2.36,2.36,0,1,0,0-4.72,2.78,2.78,0,0,0-2.71,2.15V16.83a3.51,3.51,0,0,1,2.71-1.37,3.33,3.33,0,1,1,0,6.66,3.47,3.47,0,0,1-2.42-1l-1.18-1.29a1.8,1.8,0,0,0-1.25-.5,1.73,1.73,0,1,0,0,3.45,2.25,2.25,0,0,0,2.14-1.41v1.4a2.8,2.8,0,0,1-2.14,1,2.7,2.7,0,1,1,0-5.39,2.82,2.82,0,0,1,2,.79Z"/></g><g id="g5614"><path id="path5616" class="cls-1" d="M25.57,25.71a1.07,1.07,0,0,0-.93-1.08v0h3.94v0a1.07,1.07,0,0,0-.92,1.08V35.4a1.11,1.11,0,0,0,.92,1.11v0H24.64v0a1.11,1.11,0,0,0,.93-1.11Z"/></g><g id="g5618"><path id="path5620" class="cls-1" d="M23.09,25.74A1.1,1.1,0,0,1,24,24.63v0H20.07v0A1.1,1.1,0,0,1,21,25.74v12.1a4.61,4.61,0,0,1-1.77,3.37v0c.34,0,3.87-.7,3.87-4.1Z"/></g><g id="g5622"><path id="path5624" class="cls-1" d="M28.57,26.75h0A1.73,1.73,0,0,1,30,25.81h2.13V35.4a1.11,1.11,0,0,1-.93,1.11v0h3.95v0a1.12,1.12,0,0,1-.93-1.11V25.81H36a1,1,0,0,1,1,.94h0l.66-2.15H29.23Z"/></g><g id="g5626"><path id="path5628" class="cls-1" d="M48.22,33.32a2.32,2.32,0,1,0,4.63,0V25.74a1.1,1.1,0,0,0-.92-1.11v0h3.94v0A1.1,1.1,0,0,0,55,25.74v7.35c0,2.37-2,3.75-4.41,3.75s-4.42-1.38-4.42-3.75V25.74a1.1,1.1,0,0,0-.93-1.11v0h3.95v0a1.1,1.1,0,0,0-.93,1.11Z"/></g></g></svg>