<svg id="Слой_1" data-name="Слой 1" xmlns="http://www.w3.org/2000/svg" viewBox="0 0 56.69 56.69"><defs><style>.cls-1{fill:#010101;}.cls-2{fill:#e6233d;}</style></defs><g id="g5512"><g id="g24736"><path id="path24738" class="cls-1" d="M7.61,13.68c0-1.23,0-2.23,2-2.23h8.87V13a.19.19,0,0,1-.2.21H13a1,1,0,0,0-1.08,1.07v4.09h6.26V20a.21.21,0,0,1-.23.22h-6v6.5c0,.62-.32.87-1,.86H7.61V13.68"/></g><g id="g24740"><path id="path24742" class="cls-1" d="M24.93,11.45v12.3c0,1.05.15,1.79.89,2.22a4.17,4.17,0,0,0,3.68,0c.69-.38,1-1,1-2.23V12.27c0-.51.2-.82.92-.82h3.21V23.38a4.16,4.16,0,0,1-3.29,4.33,15,15,0,0,1-7.1,0c-2.32-.7-3.4-2.07-3.4-4.32V12.28c0-.54.19-.83.81-.83h3.32"/></g><g id="g24748"><path id="path24750" class="cls-1" d="M54.23,20.22H50.09v7.36h3.27c.58,0,.87-.17.87-.85V20.22"/></g><g id="g24752"><path id="path24754" class="cls-2" d="M54,17.07a.54.54,0,0,0,.25-.46V11.45H51c-.72,0-.93.36-.93.86v7.81L54,17.07"/></g><g id="g24756"><path id="path24758" class="cls-1" d="M39.82,26.31a2.54,2.54,0,0,0,2.39-2.9V12.33c0-.66.36-.88.82-.88h3.31V21.93c0,2.58-.54,3.88-2.07,5-.79.57-2.18,1.22-5.19,1.22A18.46,18.46,0,0,1,36.49,28a.23.23,0,0,1-.21-.25V26.41a23.54,23.54,0,0,0,3.54-.1"/></g><g id="g24728"><path id="path24730" class="cls-1" d="M30.61,29.11V42.17a1.18,1.18,0,0,0,1.27,1.33h4.3V45a.25.25,0,0,1-.27.28H29c-2.15,0-2.47-1.18-2.47-2.26V30c0-.61.23-.9,1-.89h3.17"/></g><g id="g24732"><path id="path24734" class="cls-1" d="M22.58,29.11V44.39c0,.68-.29.85-.86.85H18.45V30c0-.51.19-.85.92-.85h3.21"/></g><g id="g24744"><path id="path24746" class="cls-1" d="M49.71,29.11a1.34,1.34,0,0,0-1.46,1.11L45.62,41.34h-.07L42.83,29.11H39.11c-.72,0-.94.37-.94.94V45.24h1.57c.25,0,.36-.12.36-.38V32.12h.24L43.7,45.24h2.2c.83,0,1.14-.34,1.35-1.16l3-12h.25V45.24h2.93c.72,0,1.05-.28,1.05-1V29.11H49.71"/></g><g id="g24760"><path id="path24762" class="cls-1" d="M7.12,29.11c-2,0-2,1-2,2.23v4.15a.19.19,0,0,1-.07.16L2.2,37.88H5.1v7.36H8.39c.69,0,1-.24,1-.86v-6.5h6a.21.21,0,0,0,.23-.22V36H9.4V31.94a1,1,0,0,1,1.08-1.07H15.8a.19.19,0,0,0,.2-.21V29.11H7.12"/></g></g></svg>