<svg id="Слой_1" data-name="Слой 1" xmlns="http://www.w3.org/2000/svg" viewBox="0 0 56.69 56.69"><defs><style>.cls-1{fill:#575454;}</style></defs><g id="layer1"><g id="g9366"><g id="g8052"><path id="path8054" class="cls-1" d="M9.9,23.59l.22,2.79H9.61a2.73,2.73,0,0,0-.81-1.69,3,3,0,0,0-2.17-.81,3.11,3.11,0,0,0-2.76,1.43,5.16,5.16,0,0,0-.79,2.87,5.76,5.76,0,0,0,.53,2.47A3.63,3.63,0,0,0,5,32.28a3.29,3.29,0,0,0,1.75.52,4.05,4.05,0,0,0,2-.51V30.21a1.55,1.55,0,0,0-.11-.77.72.72,0,0,0-.34-.35,1.87,1.87,0,0,0-.8-.12v-.54h3.7V29H11a.8.8,0,0,0-.78.38,1.63,1.63,0,0,0-.14.86v2.26a6.91,6.91,0,0,1-1.59.63,6.71,6.71,0,0,1-1.74.2,5.08,5.08,0,0,1-4.18-1.76,4.73,4.73,0,0,1-1.07-3.05,5,5,0,0,1,.61-2.4,5.11,5.11,0,0,1,2-2.1,4.79,4.79,0,0,1,2.47-.61,5.4,5.4,0,0,1,.94.08,9.58,9.58,0,0,1,1.2.37,3.79,3.79,0,0,0,.39.15c.13,0,.29,0,.34-.1a.52.52,0,0,0,.07-.29Z"/></g><g id="g8056"><path id="path8058" class="cls-1" d="M13.72,29.2l1.63-3.67L17,29.2Zm1.8-5.61-3.28,7.6a3.39,3.39,0,0,1-.8,1.24,1.62,1.62,0,0,1-.77.28v.39h3v-.39a1.74,1.74,0,0,1-.85-.19.63.63,0,0,1-.25-.41,2,2,0,0,1,.23-.69l.65-1.49h3.71l.56,1.37a2.34,2.34,0,0,1,.29.82.5.5,0,0,1-.2.39,1.45,1.45,0,0,1-.78.18v.41H28.23l.82-2.57-.46-.08a4.59,4.59,0,0,1-.73,1.29,2.15,2.15,0,0,1-.81.57,3.22,3.22,0,0,1-1.3.19h-.7a4.41,4.41,0,0,1-1.1-.07.47.47,0,0,1-.26-.22,2,2,0,0,1-.11-.8v-6a1.53,1.53,0,0,1,.11-.8.84.84,0,0,1,.41-.37,2.41,2.41,0,0,1,1-.15v-.49h-4.3v.49h.36a1,1,0,0,1,.82.32c.13.16.2.27.2.88V31.4a1.69,1.69,0,0,1-.15.93c-.17.26-.78.32-1.19.33a1.57,1.57,0,0,1-1-.26,2.81,2.81,0,0,1-.73-1.12L16,23.59Z"/></g><g id="g8060"><path id="path8062" class="cls-1" d="M37.19,30.4l.48.13-.83,2.57H29.47v-.46h.36a.94.94,0,0,0,.86-.4c.1-.15.15-.29.15-.84V25.28c0-.61-.06-.73-.2-.88a1,1,0,0,0-.81-.32h-.36v-.49h4.3v.49a2.61,2.61,0,0,0-1.05.14.86.86,0,0,0-.42.37,1.58,1.58,0,0,0-.11.81v6a2,2,0,0,0,.11.8.51.51,0,0,0,.26.22,4.47,4.47,0,0,0,1.1.07h.7a2.9,2.9,0,0,0,1.28-.23,2,2,0,0,0,.81-.57,4.8,4.8,0,0,0,.74-1.3"/></g><g id="g8064"><path id="path8066" class="cls-1" d="M53,28a3,3,0,0,1-1.24.41c-.2,0-.6,0-.79,0a4.3,4.3,0,0,1-.62-.08V24.23a5.1,5.1,0,0,1,.91-.08,5.58,5.58,0,0,1,1.36.14,1.49,1.49,0,0,1,.92.73,2.41,2.41,0,0,1,.28,1.33A1.77,1.77,0,0,1,53,28m-6-4.36H43.85v.49h.36a1,1,0,0,1,.82.32c.13.15.19.28.19.89v3.84A6,6,0,0,1,45,31.27a2.15,2.15,0,0,1-1,1,3.41,3.41,0,0,1-1.67.4A2.67,2.67,0,0,1,41,32.46a2.11,2.11,0,0,1-.77-.66,2.73,2.73,0,0,1-.37-1.11,8.82,8.82,0,0,1-.1-1.27V25.29c0-.54.06-.66.17-.83a.94.94,0,0,1,.84-.38h.36v-.49h-4.1v.49h.36a1,1,0,0,1,.78.28c.16.19.24.33.24.93V29a8,8,0,0,0,.22,2.34,2.94,2.94,0,0,0,1.15,1.45,4.34,4.34,0,0,0,2.36.53,4,4,0,0,0,2.27-.56,2.75,2.75,0,0,0,1.11-1.35,6.7,6.7,0,0,0,.29-2.21V25.34c0-.54,0-.63.15-.78a1,1,0,0,1,.86-.48H48a1,1,0,0,1,.82.32c.12.15.19.28.19.89v6.12c0,.56-.05.69-.14.84a1,1,0,0,1-.87.4h-.37v.45h4.1v-.45h-.36a1,1,0,0,1-.81-.3c-.14-.15-.2-.33-.2-.94V28.77c.35,0,.61.05.86.06h.73a4.2,4.2,0,0,0,2.33-.7,2.5,2.5,0,0,0,1-1.92,2.4,2.4,0,0,0-.59-1.68,3.07,3.07,0,0,0-1.41-.87,11.2,11.2,0,0,0-2.13-.09Z"/></g></g></g></svg>