<svg id="Слой_1" data-name="Слой 1" xmlns="http://www.w3.org/2000/svg" viewBox="0 0 56.69 56.69"><defs><style>.cls-1{fill:#010101;fill-rule:evenodd;}</style></defs><path class="cls-1" d="M49.27,46.18a1.55,1.55,0,1,0,1.55,1.55A1.54,1.54,0,0,0,49.27,46.18Z"/><path class="cls-1" d="M27.1,31.43c.56.36.54,1.45.54,1.81V42.9L17.49,31.13l0,0H14v.34a2.56,2.56,0,0,1,.87,2.39V46.66c0,.35,0,1.46-.56,1.82v.34h2.25v-.34C16,48.12,16,47,16,46.66V34.28L28.06,48.81h.73V33.25c0-.36,0-1.45.56-1.81V31.1H27.1v.33Z"/><path class="cls-1" d="M7.54,31.43c.68.34.68,1.42.68,2.23V46.22c0,.8,0,1.9-.68,2.24v.34h4.23v-.34c-.69-.34-.69-1.42-.69-2.24V33.66c0-.81,0-1.89.69-2.23v-.34H7.54Z"/><path class="cls-1" d="M41.35,47.92H41.3a6.48,6.48,0,0,1-4.59-1.78A7.86,7.86,0,0,1,35,42.51a14.55,14.55,0,0,1-.26-2.76c0-3.47,1.32-5.49,2.23-6.32a5.16,5.16,0,0,1,3.94-1.52,6.28,6.28,0,0,1,5.52,3.46h.36V31.1h-.36a2.11,2.11,0,0,1-1.39.46,6.49,6.49,0,0,1-1.66-.36,9.65,9.65,0,0,0-2.54-.39,9.12,9.12,0,0,0-5.61,1.84,8.81,8.81,0,0,0-3.77,7.43,8.77,8.77,0,0,0,3.77,7.42,8.29,8.29,0,0,0,2.64,1.32,9.5,9.5,0,0,0,3.11.51,7.45,7.45,0,0,0,1.25-.12,7.71,7.71,0,0,0,3-1.24l.19-.14a7.3,7.3,0,0,0,1.51-1.53l-.8-.72a6.37,6.37,0,0,1-4.73,2.34Zm5-12.63Z"/><path class="cls-1" d="M45.8,7.65H39.41V8c.68.34.68,1.43.68,2.25V22.79c0,.8,0,1.9-.68,2.24v.34h4.22V25C43,24.69,43,23.6,43,22.79v-5.6h2.87c.52,0,5.89,0,5.89-4.63S47.77,7.6,45.8,7.65Zm0,8.5H42.94V8.73h2.64c1.65,0,3.07,1.09,3.07,3.84s-1.72,3.58-2.85,3.58Z"/><path class="cls-1" d="M36.41,23.18v0l-6-15.47,0,0H29.08L23.16,23.14c-.22.62-.81,1.69-1.5,1.89v.35h3V25a1.06,1.06,0,0,1-.52-1.51l1.49-3.92H32l1.46,3.92A1.06,1.06,0,0,1,33,25v.34h4.76V25c-.65-.24-1.14-1.42-1.31-1.86ZM26.07,18.53h0l2.75-7.22,2.76,7.22Z"/><path class="cls-1" d="M21.69,16.28s-1.63,0-2.64,0-2.64,0-2.64,0v.23a2.58,2.58,0,0,1,1.31,2c0,1,0,5.28,0,5.28a4.09,4.09,0,0,1-3.15,1c-3.83,0-6.26-3.49-6.26-7.89,0-7,3.6-8.45,6.21-8.45s3.76,1,5.1,2.89a4.65,4.65,0,0,1,.34.56h.35V7.64H20a2.28,2.28,0,0,1-1.79.45c-.18,0-.43-.11-.74-.19a11,11,0,0,0-3-.54A9.28,9.28,0,0,0,8.75,9.2,9.39,9.39,0,0,0,6.4,11.87,10,10,0,0,0,5,17c0,5.43,4.19,8.85,9.57,8.85,4.49,0,5.83-1.78,5.83-1.78s0-4.57,0-5.61a2.47,2.47,0,0,1,1.28-1.95Z"/></svg>