<svg id="Слой_1" data-name="Слой 1" xmlns="http://www.w3.org/2000/svg" viewBox="0 0 56.69 56.69"><defs><style>.cls-1{fill:#e52227;}</style></defs><g id="layer1"><g id="g103"><path id="path49" class="cls-1" d="M23.92,49.3c.5.52,1,1,1.52,1h.23V42.41h-.84v5.3L20,42.41H18.75s.05.88.05,1.67v6.21h.83V44.64Z"/><path id="path51" class="cls-1" d="M10.83,45.31h-4v.86H8.13c.49,0,.65.15.65.35v.94c0,2,0,2.16-1.93,2.16-1.7,0-3-1.31-3-3.68,0-.15,0-.29,0-.43.15-1.84.79-3.2,3.1-3.31a6.84,6.84,0,0,1,3.48.82l.15-.93a8,8,0,0,0-3.45-.73H6.48a4.14,4.14,0,0,0-.86.12A4.21,4.21,0,0,0,1.9,45.6a3,3,0,0,0,0,.42c0,2.75,1.88,4.46,5,4.45,3.25,0,4,.06,4-2.84V45.31"/><path id="path53" class="cls-1" d="M54.82,45.59H51.07v.82h1.18c.48,0,.62.13.62.33v.89c0,1.89,0,2-1.83,2-1.6,0-2.79-1.24-2.79-3.49,0-.13,0-.27,0-.4.15-1.74.76-3,2.94-3.14a6.49,6.49,0,0,1,3.29.78l.14-.88a7.53,7.53,0,0,0-3.26-.69H51l-.28,0a4.61,4.61,0,0,0-.82.11,4,4,0,0,0-3.52,3.89,2.68,2.68,0,0,0,0,.4c0,2.6,1.77,4.22,4.7,4.21,3.09,0,3.78.05,3.78-2.68v-2.2"/><path id="path55" class="cls-1" d="M27,43.17h2.19v7.12H31V43.18h2.19v-.77H27Z"/><path id="path57" class="cls-1" d="M34.51,50.29h1.83V42.41H34.51Z"/><path id="path59" class="cls-1" d="M12.58,44v5.11c0,.63,0,1.14.68,1.14H17v-.77h-2.4c-.21,0-.2-.21-.2-.37h0V46.53H17v-.77h-2.6V43.18H17v-.77h-4.5s.06.77.06,1.63"/><path id="path61" class="cls-1" d="M43.39,49.31c.51.51,1,1,1.52,1h.23V42.41h-.83v5.3l-4.87-5.3H38.23s0,.88,0,1.67v6.21h.83V44.64Z"/></g></g><g id="g113"><path id="path33" class="cls-1" d="M38.85,25.09H43.2V21.61H38.85Z"/><path id="path35" class="cls-1" d="M39.86,21.61A11.36,11.36,0,0,1,40,23.05a11.62,11.62,0,1,1-.46-3.27h3.69A15.2,15.2,0,1,0,43.52,23c0-.47,0-.94-.06-1.4Z"/><path id="path37" class="cls-1" d="M38.14,8.44a25.21,25.21,0,0,0-4.5,9c-2,7.23-.5,14.14,4.33,21L35.2,40.4c-6.82-9.68-6.37-18.28-4.79-24A28.2,28.2,0,0,1,35.58,6.22Z"/><path id="path39" class="cls-1" d="M31.17,25.09h4.51V21.61H31.17Z"/><path id="path41" class="cls-1" d="M36.51,16.06s.82.6,2.07,3.63a14.64,14.64,0,0,0-.13,7.52,21,21,0,0,1-2.27,3.39s-3.08-8.35.34-14.54"/><path id="path43" class="cls-1" d="M18.43,8.44a25.29,25.29,0,0,1,4.49,9c2,7.23.5,14.14-4.33,21l2.77,1.95c6.82-9.68,6.37-18.28,4.79-24A28.2,28.2,0,0,0,21,6.22Z"/><path id="path45" class="cls-1" d="M25.4,25.09H20.88V21.61H25.4Z"/><path id="path47" class="cls-1" d="M20,16.06s-.81.6-2.06,3.63a14.52,14.52,0,0,1,.13,7.52,21,21,0,0,0,2.27,3.39s3.08-8.35-.34-14.54"/></g></svg>