<svg id="Слой_1" data-name="Слой 1" xmlns="http://www.w3.org/2000/svg" viewBox="0 0 56.69 56.69"><defs><style>.cls-1{fill:#32a853;}.cls-2{fill:#e84436;}.cls-3{fill:#517cbe;}</style></defs><path class="cls-1" d="M34.9,16.58v24H31.39v-24Z"/><path class="cls-2" d="M48.55,35.56l2.79,1.86a8.15,8.15,0,0,1-6.82,3.63,8,8,0,0,1-8.11-8.18c0-4.87,3.5-8.18,7.71-8.18s6.32,3.38,7,5.2l.37.93L40.56,35.35a4.17,4.17,0,0,0,4,2.48,4.67,4.67,0,0,0,4-2.27ZM40,32.62l7.31-3a3.16,3.16,0,0,0-3-1.74A4.49,4.49,0,0,0,40,32.62Z"/><path class="cls-3" d="M18.08,30.74V27.27h11.7a12,12,0,0,1,.17,2.1,11.46,11.46,0,0,1-3,8.12,11.61,11.61,0,0,1-8.85,3.56A12.88,12.88,0,0,1,5.2,28.35a12.88,12.88,0,0,1,12.89-12.7,12.05,12.05,0,0,1,8.7,3.5l-2.45,2.44a8.87,8.87,0,0,0-6.26-2.47,9.23,9.23,0,0,0,0,18.46A8.51,8.51,0,0,0,24.5,35a7.25,7.25,0,0,0,1.88-4.3Z"/></svg>