<svg id="Слой_1" data-name="Слой 1" xmlns="http://www.w3.org/2000/svg" viewBox="0 0 56.69 56.69"><defs><style>.cls-1{fill:#517cbe;}.cls-2{fill:#32a853;}.cls-3{fill:#fbbc0c;}.cls-4{fill:#e84436;}.cls-5{fill:#c62320;}</style></defs><path class="cls-1" d="M8.66,45.45h7.25V27.83L5.55,20.06V42.34a3.11,3.11,0,0,0,3.11,3.11"/><path class="cls-2" d="M40.78,45.45H48a3.11,3.11,0,0,0,3.11-3.11V20.06L40.78,27.83"/><path class="cls-3" d="M40.78,14.36V27.83l10.36-7.77V15.92a4.66,4.66,0,0,0-7.46-3.73"/><path class="cls-4" d="M15.91,27.83V14.36l12.44,9.33,12.43-9.33V27.83L28.35,37.16"/><path class="cls-5" d="M5.55,15.92v4.14l10.36,7.77V14.36L13,12.19a4.66,4.66,0,0,0-7.46,3.73"/></svg>