<svg id="Слой_1" data-name="Слой 1" xmlns="http://www.w3.org/2000/svg" viewBox="0 0 56.69 56.69"><defs><style>.cls-1{fill:#125ca8;}</style></defs><g id="layer1"><path id="path36996" class="cls-1" d="M28.35,33h.73a.15.15,0,0,0,.11-.06l3.05-5,1.65,5.71a.11.11,0,0,0,.09.07h3.2a.05.05,0,0,0,0-.07L33.86,23s-.06-.07-.09-.07H32.56a.15.15,0,0,0-.1.06l-4.11,6.38L24.23,23a.13.13,0,0,0-.1-.06H22.92a.11.11,0,0,0-.08.07L19.46,33.69a.05.05,0,0,0,.05.07h3.2a.1.1,0,0,0,.09-.07L24.46,28l3.05,5a.12.12,0,0,0,.1.06Z"/><path id="path36998" class="cls-1" d="M19.6,27.7h0a.06.06,0,0,0-.06-.05H10.42a.88.88,0,1,0,0,1.75h5.42c-.65,1.7-2.83,3-5.42,3-3.11,0-5.62-1.8-5.62-4s2.51-4,5.62-4a6.71,6.71,0,0,1,4.24,1.38,0,0,0,0,1,0,0h3.76a.07.07,0,0,0,.07-.07.06.06,0,0,0,0,0h0c-1.59-1.69-4.6-2.83-8.06-2.83-5.11,0-9.25,2.49-9.25,5.56s4.14,5.55,9.25,5.55,9.25-2.49,9.25-5.55a2.81,2.81,0,0,0-.07-.65"/><path id="path37000" class="cls-1" d="M46.28,32.36c-3.11,0-5.62-1.8-5.62-4s2.51-4,5.62-4,5.61,1.79,5.61,4-2.51,4-5.61,4m0-9.57c-5.11,0-9.26,2.49-9.26,5.56s4.15,5.55,9.26,5.55,9.25-2.49,9.25-5.55-4.15-5.56-9.25-5.56"/></g></svg>