<svg id="Слой_1" data-name="Слой 1" xmlns="http://www.w3.org/2000/svg" viewBox="0 0 56.69 56.69"><defs><style>.cls-1{fill:#59c0ca;}.cls-2{fill:#fff;}</style></defs><path id="Path_27" data-name="Path 27" class="cls-1" d="M15.1,40.9a3.17,3.17,0,1,0,3.26,3.18A3.19,3.19,0,0,0,15.1,40.9Zm0,4.66a1.5,1.5,0,0,1,0-3,1.51,1.51,0,0,1,0,3Zm7.31-7.11H19.1a.27.27,0,0,0-.27.26h0v8.05a.28.28,0,0,0,.25.29h3.33a4.31,4.31,0,1,0,0-8.61Zm.08,6.91H20.68V40.15h1.81A2.43,2.43,0,0,1,25,42.74,2.47,2.47,0,0,1,22.49,45.36Zm11-4.29H32.22a.29.29,0,0,0-.26.27v.37a2,2,0,0,0-1.72-.81,3.17,3.17,0,0,0,0,6.33A2,2,0,0,0,32,46.42v.38a.26.26,0,0,0,.25.26h1.24a.26.26,0,0,0,.26-.25h0V41.34a.25.25,0,0,0-.25-.27Zm-2.89,4.51A1.51,1.51,0,1,1,32,44.07a1.43,1.43,0,0,1-1.44,1.51Zm9.86-7.13H39.19a.27.27,0,0,0-.27.25h0v3a2.07,2.07,0,0,0-1.75-.78,3,3,0,0,0-3,3.16,3,3,0,0,0,3,3.17,2.08,2.08,0,0,0,1.73-.81v.38a.27.27,0,0,0,.26.26h1.24a.26.26,0,0,0,.26-.25h0V38.71a.25.25,0,0,0-.24-.26Zm-2.89,7.14A1.53,1.53,0,1,1,39,44.07,1.43,1.43,0,0,1,37.54,45.59Zm9.86-7.14H46.16a.27.27,0,0,0-.27.25h0v3a2.06,2.06,0,0,0-1.75-.78,3,3,0,0,0-3,3.16,3,3,0,0,0,3,3.17,2.08,2.08,0,0,0,1.73-.81v.38a.27.27,0,0,0,.26.26H47.4a.26.26,0,0,0,.26-.25h0V38.71a.26.26,0,0,0-.24-.26Zm-2.89,7.14a1.53,1.53,0,1,1,1.43-1.52,1.43,1.43,0,0,1-1.43,1.52Zm9.69-4.1-1.85,6.35A2.37,2.37,0,0,1,50,49.65a3,3,0,0,1-1.48-.35c-.24-.13-.43-.25-.43-.45a.53.53,0,0,1,.11-.3l.37-.55c.1-.15.18-.2.29-.2a.41.41,0,0,1,.24.08,1.34,1.34,0,0,0,.78.28.77.77,0,0,0,.83-.58l.16-.52h-.75a.35.35,0,0,1-.34-.26l-1.65-5.31c-.07-.21,0-.42.3-.42h1.3a.33.33,0,0,1,.35.28l1.22,4.28,1.15-4.28a.32.32,0,0,1,.33-.28H54C54.21,41.07,54.28,41.24,54.2,41.49ZM11.39,43.38v3.39a.28.28,0,0,1-.27.28h-1a.28.28,0,0,1-.28-.27h0v-.89a3.88,3.88,0,0,1-3.06,1.34,4.22,4.22,0,0,1-4.28-4.38,4.43,4.43,0,0,1,4.59-4.52,4.08,4.08,0,0,1,4.07,2.45.32.32,0,0,1,0,.14c0,.07-.05.13-.21.19l-1.2.46a.28.28,0,0,1-.22,0,.33.33,0,0,1-.15-.16A2.5,2.5,0,0,0,7,40a2.61,2.61,0,0,0-2.62,2.73,2.55,2.55,0,0,0,2.67,2.73,2.45,2.45,0,0,0,2-.9H7.94a.27.27,0,0,1-.28-.27h0v-.92a.28.28,0,0,1,.27-.28h3.18a.27.27,0,0,1,.28.25v0Z"/><path class="cls-1" d="M42.9,8.41c-3.49-2.18-8.08-1.66-12.18.91C26.64,6.75,22,6.23,18.55,8.41,13,11.86,12.37,20.73,17.06,28.23,20.51,33.76,25.92,37,30.73,37s10.21-3.19,13.67-8.72C49.08,20.73,48.42,11.86,42.9,8.41Z"/><path class="cls-2" d="M19.59,26.65a18.2,18.2,0,0,1-2.16-4.95A13.89,13.89,0,0,1,17,17c.21-2.78,1.34-4.94,3.18-6.08s4.27-1.22,6.85-.2c.39.16.78.34,1.16.54a21,21,0,0,0-3.72,4.47c-2.85,4.55-3.71,9.62-2.72,13.66a18.47,18.47,0,0,1-2.12-2.77Z"/><path class="cls-2" d="M44,21.69a18.13,18.13,0,0,1-2.16,5,18.47,18.47,0,0,1-2.12,2.77A17.82,17.82,0,0,0,37.86,17.2a.55.55,0,0,0-.74-.24l0,0-6.79,4.24a.56.56,0,0,0-.18.77h0l1,1.59a.55.55,0,0,0,.76.18h0L36.26,21c.15.42.29.85.4,1.28A14.34,14.34,0,0,1,37.13,27C36.92,29.73,35.79,31.89,34,33A6.16,6.16,0,0,1,30.8,34h-.14A6.16,6.16,0,0,1,27.51,33c-1.84-1.15-3-3.31-3.17-6.08a13.89,13.89,0,0,1,.47-4.67,18.44,18.44,0,0,1,5.66-9.07,14.32,14.32,0,0,1,4-2.47c2.58-1,5-1,6.86.19s3,3.31,3.17,6.08A14.12,14.12,0,0,1,44,21.69Z"/></svg>