<svg id="Слой_1" data-name="Слой 1" xmlns="http://www.w3.org/2000/svg" viewBox="0 0 56.69 56.69"><defs><style>.cls-1{fill:#ffde1a;}.cls-1,.cls-2{fill-rule:evenodd;}.cls-2{fill:#fff;}</style></defs><path class="cls-1" d="M11,16.94l-.08.27,2.05,3.4.27.09,6.44-3.76.09-.27c-.63-1.52-.09-3.21.17-4.73-3.21,1.69-6.16,3.48-8.94,5"/><path class="cls-1" d="M15.69,21.06a25.72,25.72,0,0,0,4.47.17c.09-.89.27-2.05.45-2.95a38.16,38.16,0,0,0-4.92,2.78"/><path class="cls-1" d="M14,22.31a14.91,14.91,0,0,1-.26,3.39A58.68,58.68,0,0,0,19,22.93Z"/><path class="cls-1" d="M14.26,27.31c1.25,2.86,2.86,5.63,4.21,8.41h.26a59.87,59.87,0,0,1,9.3-6.8L26.15,25.7c-.8.72-1.61,2.24-2.77,2.69A9,9,0,0,1,20.7,24c-2.23,1.08-4.38,2.06-6.44,3.31"/><path class="cls-1" d="M12.83,28.39A59.45,59.45,0,0,0,8.36,39.47c-1,2-2.68,3.58-4.11,5.27a2,2,0,0,0-.63,2c.09.27.27.63.63.54,5.36-1.61,9.21-6.35,13.14-10.37-1.25-2.86-2.86-5.54-4.2-8.32Z"/><path class="cls-1" d="M28.74,30.08l-4.29,2.78C18.11,37,14,43.94,7.29,47.34a14.59,14.59,0,0,0-2.68,1.34c.26.36.26.9.8.81A27.47,27.47,0,0,0,12.83,45c5.1-4.82,10.46-10.63,16.63-14a2.45,2.45,0,0,0-.72-.9"/><path class="cls-1" d="M53.15,7.2a4.89,4.89,0,0,1-2.23,3.66c-3.94,2.24-9.3,1.52-13.86,1.08-.09.09-.18.09-.27.26.36.72,1.34.9,2.24,1.17-1.08,1.16-2.6,1.34-4.21,1.25a2,2,0,0,0,1.35.71c.26.36-.9.72-1.35.81A5.4,5.4,0,0,1,31.07,16c-.54.62.09,1.52-.27,2.41a5.06,5.06,0,0,1-.89,2c-.63-.09-1.25-1.34-1.44-.54a5.11,5.11,0,0,1-.71,2.69c-.8.17-1.52-2.24-1.88-.36A9.55,9.55,0,0,1,24,25.7c-.62-.08-1-.8-1.25-1.34-1-1.87-.71-4.38-.44-6.35a6.62,6.62,0,0,1-.63-6.43C24,7,29.55,7.64,34,7.64c6.26.63,13.14.9,19.13-.44M29.91,9.61a5.65,5.65,0,0,1-1.08,1c-.53.26-1.34-.36-1.69.26-.36,1.08-1.43,1.17-2.24,1.26.18.53.89.62,1.43.71a2.25,2.25,0,0,0,2-.8,2.16,2.16,0,0,0,2.32-1.17,2.46,2.46,0,0,0,1.61-.44c.09-.18.36-.54,0-.63a6.58,6.58,0,0,1-2.32-.18m-7,5.45c-.44,1,1.26.81,1.17,1.88a1.14,1.14,0,0,0,1.16.72v-.27a13.24,13.24,0,0,1-.45-2,11.82,11.82,0,0,1-1.88-.36"/><path class="cls-1" d="M33.07,20.87a2.85,2.85,0,0,0-2.78.64,2.44,2.44,0,0,0-.6,2.33,1.14,1.14,0,0,0,1.07.8h2.62l.06,0,.51-2c-.54,0-1.11,0-1.7,0,0,0-.41,1.49-.41,1.52a1.1,1.1,0,0,1-.54,0,.22.22,0,0,1-.11-.26l.59-2.26c0-.08.14-.2.23-.24a1,1,0,0,1,.86.06,2.81,2.81,0,0,1,.26.15,4.49,4.49,0,0,0,.26-.54c-.11-.09-.21-.1-.32-.18"/><path class="cls-1" d="M47.21,20.79H44.8l-1,3.86h2.66a1.63,1.63,0,0,0,.81-.31,2.57,2.57,0,0,0,1.09-2.61,1.25,1.25,0,0,0-1.17-.94m-9.08.2a2.5,2.5,0,0,0-2.35,0,2.53,2.53,0,0,0-1.27,2.38,1.53,1.53,0,0,0,1,1.27A2.56,2.56,0,0,0,38.13,24a2.39,2.39,0,0,0,.51-2.43,1.51,1.51,0,0,0-.51-.54m5.35.54A2.39,2.39,0,0,1,43,24a2.56,2.56,0,0,1-2.58.68,1.47,1.47,0,0,1-1-1.27A2.43,2.43,0,0,1,43,21a1.46,1.46,0,0,1,.52.54m-2.37,2.72a.43.43,0,0,0,.42-.31l.58-2.3a.3.3,0,0,0-.29-.36.43.43,0,0,0-.4.34l-.59,2.31a.29.29,0,0,0,.28.32m-4.84,0a.29.29,0,0,1-.28-.32l.58-2.31a.45.45,0,0,1,.4-.34.27.27,0,0,1,.28.34l-.58,2.31a.4.4,0,0,1-.4.32m10.62-2.77a.57.57,0,0,1,0,.28l-.57,2.11a.3.3,0,0,1-.29.24H45.6v0c0,.05.69-2.72.69-2.72.19,0,.49-.08.6.12"/><path class="cls-1" d="M29.46,25.84l0,0,.61,2.1-.43,1.69h1.83L32,28l1.78-2.14h-.84c-.37.41-.76.87-1.14,1.31-.06,0-.06.06-.09,0-.12-.42-.25-.85-.39-1.26Z"/><path class="cls-1" d="M34.1,25.84c-.32,1.26-.63,2.5-1,3.77l0,.06h3.16a3.4,3.4,0,0,0,.15-.63H35.12L35,29l.23-.89.07-.06h.86l.05-.05c0-.2.11-.41.14-.61l-.91,0v-.05c.09-.27.14-.58.25-.84.44,0,1,0,1.4,0,.06-.2.1-.43.15-.64Z"/><path class="cls-1" d="M40.51,25.84H39l-2.34,3.8,0,0h.74a6.61,6.61,0,0,1,.39-.59h1.4v.05c0,.21,0,.35,0,.54.56,0,1.1,0,1.7,0l-.31-3.74Z"/><path class="cls-2" d="M39,27.31l.1,1.13,0,0c-.27,0-.64,0-1,0,.21-.43.54-.89.8-1.31.08,0,0,.13.08.17"/><path class="cls-1" d="M42.33,25.84c-.31,1.23-.68,2.47-1,3.83h1.76l.27-1.06,0-.08c.07,0,.19,0,.2,0l.28,1.11h.06c.72,0,1.19,0,1.74,0-.11-.46-.23-.9-.31-1.37a2.6,2.6,0,0,0,.69-.63,1.27,1.27,0,0,0,.11-1.22,1.2,1.2,0,0,0-1.06-.61c-.86,0-1.6,0-2.75,0"/><path class="cls-2" d="M44.51,26.47a.62.62,0,0,1,0,.29l-.25.95a.32.32,0,0,1-.31.23h-.44v0c0,.05.38-1.55.38-1.55.19,0,.49-.08.6.11"/></svg>