<svg id="Слой_1" data-name="Слой 1" xmlns="http://www.w3.org/2000/svg" viewBox="0 0 56.69 56.69"><defs><style>.cls-1{fill:#e84436;}.cls-2{fill:#fbbc0c;}.cls-3{fill:#517cbe;}.cls-4{fill:#32a853;}</style></defs><path class="cls-1" d="M24.64,28.79a4.24,4.24,0,1,1-4.24-4.23A4.18,4.18,0,0,1,24.64,28.79Zm-1.85,0a2.39,2.39,0,1,0-2.39,2.56A2.44,2.44,0,0,0,22.79,28.79Z"/><path class="cls-2" d="M33.79,28.79a4.24,4.24,0,1,1-4.24-4.23A4.18,4.18,0,0,1,33.79,28.79Zm-1.85,0a2.39,2.39,0,1,0-2.39,2.56A2.44,2.44,0,0,0,31.94,28.79Z"/><path class="cls-3" d="M42.56,24.82v7.59c0,3.12-1.84,4.4-4,4.4a4,4,0,0,1-3.74-2.49l1.61-.68a2.34,2.34,0,0,0,2.13,1.5,2.16,2.16,0,0,0,2.26-2.48v-.6h-.07a2.86,2.86,0,0,1-2.22,1,4.23,4.23,0,0,1,0-8.46,2.89,2.89,0,0,1,2.22,1h.07v-.69Zm-1.63,4a2.38,2.38,0,0,0-2.26-2.58,2.57,2.57,0,0,0,0,5.12A2.36,2.36,0,0,0,40.93,28.81Z"/><path class="cls-4" d="M45.47,20.37V32.76H43.66V20.37Z"/><path class="cls-1" d="M52.53,30.18l1.44,1A4.22,4.22,0,0,1,50.44,33a4.14,4.14,0,0,1-4.19-4.23,4,4,0,0,1,4-4.23,3.92,3.92,0,0,1,3.61,2.69l.2.48-5.66,2.34a2.16,2.16,0,0,0,2,1.28,2.41,2.41,0,0,0,2.09-1.17Zm-4.44-1.52,3.78-1.57a1.63,1.63,0,0,0-1.57-.89A2.32,2.32,0,0,0,48.09,28.66Z"/><path class="cls-3" d="M9.3,27.69V25.9h6A5.81,5.81,0,0,1,15.44,27a6,6,0,0,1-1.55,4.2A6,6,0,0,1,9.31,33a6.57,6.57,0,1,1,0-13.13,6.25,6.25,0,0,1,4.5,1.81L12.54,23A4.58,4.58,0,0,0,9.3,21.68a4.77,4.77,0,0,0,0,9.54,4.42,4.42,0,0,0,3.32-1.31,3.69,3.69,0,0,0,1-2.22Z"/></svg>