<svg id="Слой_1" data-name="Слой 1" xmlns="http://www.w3.org/2000/svg" viewBox="0 0 56.69 56.69"><defs><style>.cls-1{fill:#133f50;}.cls-1,.cls-2,.cls-3,.cls-4{fill-rule:evenodd;}.cls-2{fill:#2bab6c;}.cls-3{fill:#068eb2;}.cls-4{fill:#0f7c4e;}</style></defs><g id="layer1"><g id="g3088"><path id="path3086" class="cls-1" d="M7.12,47v1.7h2A2.3,2.3,0,0,1,6.9,50.2a2.58,2.58,0,0,1-2.64-2.68A2.65,2.65,0,0,1,7,44.62a2.21,2.21,0,0,1,2,1h2a4.1,4.1,0,0,0-4-2.77,4.46,4.46,0,0,0-4.5,4.68A4.38,4.38,0,0,0,6.89,52a3.44,3.44,0,0,0,2.64-1v.86h1.66V47Zm9.35,2.6a1.77,1.77,0,0,1-1.31.77c-.82,0-1.29-.52-1.29-1.5V45.62H12.13V49c0,1.8,1,3,2.63,3a2.61,2.61,0,0,0,1.71-.63v.43h1.74V45.62H16.47v4ZM23.65,46a3,3,0,0,0-1.7-.49,3.22,3.22,0,0,0,0,6.43,3,3,0,0,0,1.7-.49v.36h1.74V45.62H23.65V46Zm0,3.71a1.67,1.67,0,0,1-1.41.71,1.61,1.61,0,0,1-1.56-1.69A1.62,1.62,0,0,1,22.24,47a1.65,1.65,0,0,1,1.41.72Zm4.57-4.07H26.48v6.17h1.74V48.11a2.74,2.74,0,0,1,2.1-.89v-1.7a2.87,2.87,0,0,0-2.1.8v-.7Zm7,.36a3,3,0,0,0-1.7-.49,3.22,3.22,0,0,0,0,6.43,3,3,0,0,0,1.7-.49v.36h1.74V43H35.18v3Zm0,3.71a1.67,1.67,0,0,1-1.41.73,1.71,1.71,0,0,1,0-3.41,1.67,1.67,0,0,1,1.41.71v2ZM45.4,46a3,3,0,0,0-1.7-.49,3.22,3.22,0,0,0,0,6.43,3,3,0,0,0,1.7-.49v.36h1.74V45.62H45.4V46Zm0,3.71A1.67,1.67,0,0,1,44,50.4a1.6,1.6,0,0,1-1.55-1.69A1.62,1.62,0,0,1,44,47a1.66,1.66,0,0,1,1.42.72v2Zm6.23-4.26a2.62,2.62,0,0,0-1.72.63v-.44H48.17v6.17h1.74v-4a1.79,1.79,0,0,1,1.32-.77c.81,0,1.29.53,1.29,1.51v3.23h1.74V48.4c0-1.8-1-3-2.63-3M38.15,51.79h1.74V45.62H38.15Zm0-7h1.74V43H38.15Z"/></g></g><path id="path3080" class="cls-2" d="M39.9,9.84V4.7H27.12a10.56,10.56,0,0,0-7.89,4A11.15,11.15,0,0,0,17,13.46a11.43,11.43,0,0,0,.13,5,11,11,0,0,0,2.07,4.15,10.57,10.57,0,0,0,3.78,3,10.39,10.39,0,0,0,5.12,1,10.78,10.78,0,0,0,3.65-.92l0,0,.06,0a11.52,11.52,0,0,0,1.2-.66l.24-.16h0l0,0a10.72,10.72,0,0,0,3-3.06A8.69,8.69,0,0,0,36.8,21,11.65,11.65,0,0,0,38,17.67a11.48,11.48,0,0,0-.54-6,11.08,11.08,0,0,0-.73-1.56l-.22-.32ZM27.46,21.55h0a5.77,5.77,0,0,1-5.69-5.85,5.77,5.77,0,0,1,5.69-5.86h.17a5.21,5.21,0,0,1,1.36.21,5.89,5.89,0,0,1-.88,11.45l-.15,0h0l-.41,0Z"/><path id="path3082" class="cls-3" d="M28.35,40.75A12,12,0,0,1,16.51,28.57,12.33,12.33,0,0,1,18.37,22a10.16,10.16,0,0,0,3.7,3.79,7.22,7.22,0,0,0-.55,2.75,6.83,6.83,0,1,0,13.65,0,7.2,7.2,0,0,0-1.05-3.75,6.81,6.81,0,0,0-5.74-3.27h-.24a5.67,5.67,0,0,1-5.26-3.77,11.47,11.47,0,0,1,10.68-.14,12.11,12.11,0,0,1,4,3.31,12.31,12.31,0,0,1,2.61,7.62A12,12,0,0,1,28.35,40.75Z"/><path id="path3084" class="cls-4" d="M33.37,12.28a34.35,34.35,0,0,0-8.6-2.22,5.35,5.35,0,0,0-1.37-.21h8.83c.05.08.17.24.21.32a11.13,11.13,0,0,1,.74,1.56c.06.19.13.37.19.56M29.14,24.82h0l0,0h0l0,0-.24.15a10.06,10.06,0,0,1-1.2.66,8.27,8.27,0,0,0-4.2-4.08l-.11-.05h.11a6.76,6.76,0,0,1,5.7,3.27"/></svg>