<svg id="Слой_1" data-name="Слой 1" xmlns="http://www.w3.org/2000/svg" viewBox="0 0 56.69 56.69"><defs><style>.cls-1{fill:#010101;fill-rule:evenodd;}</style></defs><g id="hbo-logo-blk"><polyline id="Fill-15" class="cls-1" points="16.95 39.62 10.9 39.62 10.9 30.96 6.97 30.96 6.97 39.62 0.73 39.62 0.73 17.3 6.97 17.3 6.97 25.6 10.9 25.6 10.9 17.3 16.95 17.3 16.95 39.62"/><path id="Fill-16" class="cls-1" d="M44.68,32.76a4.46,4.46,0,1,0-4.45-4.46A4.45,4.45,0,0,0,44.68,32.76ZM39,28.3A5.66,5.66,0,1,1,44.68,34,5.66,5.66,0,0,1,39,28.3Zm-7.88,0a4.78,4.78,0,0,0,2.28-1.4,10.73,10.73,0,0,0,0,3.1,4.29,4.29,0,0,0-2.29-1.7Zm-4.06-6a1.91,1.91,0,0,1,0,3.76H24V22.3Zm0,8.36a1.91,1.91,0,0,1,0,3.77H24V30.66Zm17.61,9.07A11.41,11.41,0,0,0,56,28.3a11.28,11.28,0,0,0-21.47-4.9c0-2.78-2.73-6.06-5.92-6.06H18.26V39.61h9.61a6.7,6.7,0,0,0,6.63-6.25,11.35,11.35,0,0,0,10.17,6.36Z"/></g></svg>