<svg id="Слой_1" data-name="Слой 1" xmlns="http://www.w3.org/2000/svg" viewBox="0 0 56.69 56.69"><defs><style>.cls-1{fill:#024d90;}.cls-2{fill:#fff;}.cls-3{fill:#e62c2e;}</style></defs><path id="path1556" class="cls-1" d="M-1.83-1.92h60V58.17h-60V-1.92Z"/><g id="g11008"><path id="path1560" class="cls-2" d="M11.55,45.65V38h2.51V40.6h2.35V38h2.52v7.63H16.41v-3H14.06v3H11.55"/><path id="path1562" class="cls-2" d="M22.9,39.92h.65a2.63,2.63,0,0,1,1,.15.93.93,0,0,1,.41.33,1.75,1.75,0,0,1,.25.6,3.27,3.27,0,0,1,.09.78,2.85,2.85,0,0,1-.19,1.12,1.28,1.28,0,0,1-.55.65,2.15,2.15,0,0,1-1.06.2H22.9Zm1,5.73h0a6.19,6.19,0,0,0,1.48-.15,3.28,3.28,0,0,0,1-.41,3,3,0,0,0,.7-.68,4,4,0,0,0,.54-1.1,5.15,5.15,0,0,0,.21-1.53,4.42,4.42,0,0,0-.48-2.14A2.84,2.84,0,0,0,26,38.39a5.23,5.23,0,0,0-2-.37H20.44v7.63h3.43"/><path id="path1564" class="cls-2" d="M28.94,45.65V38h6v1.89H31.42v1.22H34.2V43H31.42v2.69H28.94"/><path id="path1566" class="cls-2" d="M43.3,40.94H40.93a1.36,1.36,0,0,0-.41-.89,1.25,1.25,0,0,0-.88-.32,1.35,1.35,0,0,0-1.08.52,2.63,2.63,0,0,0-.42,1.66,3.11,3.11,0,0,0,.18,1.21,1.34,1.34,0,0,0,.5.63,1.48,1.48,0,0,0,.8.19,1.2,1.2,0,0,0,.91-.32,1.35,1.35,0,0,0,.41-.94h2.42a4.4,4.4,0,0,1-.29,1.2,3.31,3.31,0,0,1-.68,1,3.51,3.51,0,0,1-1.16.75,4.24,4.24,0,0,1-1.54.26,4.9,4.9,0,0,1-1.61-.26,3.5,3.5,0,0,1-1.25-.73A3.67,3.67,0,0,1,36,43.78a4.38,4.38,0,0,1-.4-1.91,4.73,4.73,0,0,1,.29-1.65,3.66,3.66,0,0,1,.8-1.29,3.34,3.34,0,0,1,1.12-.78,4.46,4.46,0,0,1,1.74-.33,5,5,0,0,1,1.56.24,3,3,0,0,1,1.19.73,3.19,3.19,0,0,1,.72,1.09,3.45,3.45,0,0,1,.24,1.06"/><path id="path1576" class="cls-3" d="M11.33,2.1H45.15V35.92H11.33Z"/><path id="path1578" class="cls-2" d="M17.25,8h22V30h-22Z"/><path id="path1580" class="cls-2" d="M26.55,2.1h3.38V35.92H26.55Z"/><path id="path1582" class="cls-2" d="M11.33,17.33H45.15v3.38H11.33Z"/><path id="path1584" class="cls-1" d="M23.17,13.94H33.31V24.09H23.17Z"/><path id="path1568" class="cls-2" d="M14.78,48.68a2.76,2.76,0,0,1,.7,0,.7.7,0,0,1,.35.23.65.65,0,0,1,.14.4.62.62,0,0,1-.23.48,1.38,1.38,0,0,1-.81.18H14V48.68Zm.63,5.91h0a7.16,7.16,0,0,0,1.26-.08,4.68,4.68,0,0,0,.74-.26,2.08,2.08,0,0,0,.56-.39,1.8,1.8,0,0,0,.45-.66,2.56,2.56,0,0,0,.16-.89,1.87,1.87,0,0,0-.35-1.15,1.68,1.68,0,0,0-.93-.62,1.87,1.87,0,0,0,1-1.62,1.7,1.7,0,0,0-.87-1.55A4.11,4.11,0,0,0,15.34,47H11.55v7.63ZM15,51.4h0a1.83,1.83,0,0,1,1,.18.66.66,0,0,1,.23.53.64.64,0,0,1-.25.54,1.62,1.62,0,0,1-1,.19H14V51.4h1"/><path id="path1570" class="cls-2" d="M24.09,52h-1.6l.79-2.78Zm-2.35,2.56h0l.29-1h2.5l.29,1h2.5L24.58,47H22l-2.74,7.63h2.45"/><path id="path1572" class="cls-2" d="M28.37,54.59V47h2.34l2.64,4.09V47h2.4v7.63H33.36l-2.58-4v4H28.37"/><path id="path1574" class="cls-2" d="M37.43,54.59V47h2.43v2.52L42.13,47h2.94l-2.79,2.87,3.08,4.76h-3l-1.84-3-.66.66v2.38H37.43"/></g></svg>