<svg id="Слой_1" data-name="Слой 1" xmlns="http://www.w3.org/2000/svg" viewBox="0 0 56.69 56.69"><defs><style>.cls-1{fill:#ee7026;fill-rule:evenodd;}</style></defs><path class="cls-1" d="M5.4,27.73H3.55v-.49H4.92a4.25,4.25,0,0,0,.48.49Z"/><path class="cls-1" d="M52.08,27.73c0-.2.2-.39.44-.49h1v.49Z"/><path class="cls-1" d="M21.39,28.07a3.44,3.44,0,0,1-2.69,0H9a3.82,3.82,0,0,1-2.93,0H3.55V29h50v-.93Z"/><path class="cls-1" d="M9.56,27.73a5.81,5.81,0,0,0,.54-.49h7.52a2.53,2.53,0,0,0,.49.49Z"/><path class="cls-1" d="M20.07,27.43a2.37,2.37,0,0,0,0-4.74,2.37,2.37,0,1,0,0,4.74v.49a2.86,2.86,0,1,1,2.83-2.83,2.85,2.85,0,0,1-2.83,2.83v-.49Z"/><path class="cls-1" d="M10.73,24.7a3.23,3.23,0,1,0-6.45,0,3.23,3.23,0,0,0,6.45,0h-.54a2.71,2.71,0,1,1-5.42,0,2.71,2.71,0,0,1,5.42,0Z"/><path class="cls-1" d="M21.58,26.7l-1-1.12v0c0-.05,0-.1.09-.15h0l1.47.39s.15.05.15.1a1.57,1.57,0,0,1,.09-.34s-.14,0-.24,0l-1.37-.39a0,0,0,0,1-.05-.05v-.25l1.42-.54s.15,0,.15,0-.1-.29-.1-.34a.23.23,0,0,1-.15.15l.1-.05-1.47.54c0,.05,0,0-.05,0a.1.1,0,0,0-.09-.1c0-.05,0-.1,0-.1l.78-1.22a.39.39,0,0,1,.19-.1s-.24-.15-.34-.19,0,.14,0,.19l-.78,1.22h-.1a.53.53,0,0,0-.14,0,0,0,0,0,1-.05-.05l-.05-1.41c0-.1,0-.2.1-.2h-.39s.09.15.09.2l.05,1.41a0,0,0,0,1-.05.05.77.77,0,0,0-.14.1,0,0,0,0,1-.05-.05l-.93-1.12a.3.3,0,0,1-.05-.2c-.05.05-.25.2-.29.25a.46.46,0,0,1,.19.09l.93,1.13v.05c-.05,0-.1.1-.1.14a.17.17,0,0,1-.1.05L18,24.4c-.1,0-.15-.1-.15-.14s-.1.29-.1.34.15-.05.2,0l1.37.34s0,0,0,0v.24L18,25.82s-.15.05-.15,0a1.22,1.22,0,0,0,.1.34c0-.05.1-.14.14-.14l1.32-.59a0,0,0,0,1,.05.05.11.11,0,0,1,.1.1s0,0,0,0l-.83,1.23c-.05,0-.1.09-.15.09a1.17,1.17,0,0,0,.29.2s0-.15,0-.2l.84-1.17a0,0,0,0,1,.05-.05.16.16,0,0,0,.14.05s0,0,0,.05l.1,1.47c0,.05-.05.14-.1.14h.39c-.1,0-.1-.09-.1-.19l-.09-1.42c0-.05,0-.05,0-.05a.38.38,0,0,0,.2-.1,0,0,0,0,1,.05,0l1,1.08c0,.05,0,.14,0,.19l.24-.24c-.05.05-.15-.05-.15-.05Z"/><path class="cls-1" d="M7.41,22.84a13.64,13.64,0,0,1,3.52.39c.09,0,.09.1,0,.15a17.37,17.37,0,0,1-3.47.34,15.2,15.2,0,0,1-3.52-.2c-.1,0-.1-.09,0-.09a11.87,11.87,0,0,1,3.47-.59V22.6a13.73,13.73,0,0,0-4.16.83c-.14.05-.14.14,0,.14a15.22,15.22,0,0,0,4.21.35,17.05,17.05,0,0,0,4.15-.54c.2-.05.15-.15.05-.15a14.68,14.68,0,0,0-4.25-.63v.24Z"/><path class="cls-1" d="M21.93,22a6.21,6.21,0,0,1-1.23.29c-.24,0-1.46-.05-2.29,0-1.13.05-1.23.2-1.28.1A5.3,5.3,0,0,0,16.3,21a13.06,13.06,0,0,1-6.59-.68v-.3a.9.9,0,0,0,.34.05c-.34-.49-.93-.63-1.27-1.17-.2-.15-.25-.44-.44-.59.05.54-.39.93-.44,1.37a1.63,1.63,0,0,0,.83.05.52.52,0,0,1,.54.15,1.09,1.09,0,0,0,.44.14v.3a1.36,1.36,0,0,1-.49-.2.49.49,0,0,1-.54,0A3,3,0,0,0,8,20.05a2,2,0,0,0-1.67.79,1,1,0,0,0,0,.88,4.83,4.83,0,0,0,.83,1l-.39.1c-.58-.54-1-1-.93-1.66.3-1.37,1.57-1.17,1.91-1.76a4.17,4.17,0,0,0,0-2.54c-.83-.34-1.86-.78-2-1.76A.48.48,0,0,1,6,14.48c.44-.1.73.15,1.07.29.15-.09-.14-.43.2-.43s.73.87.88.92l0,.35c-.29-.1-1.37-.69-1.47-.74s-.43-.24-.58,0,0,.54.19.79c2.3,2.39,6.11-.15,8.61,1.56,0-.15,0-.2-.1-.24-1.71-1.62-4.45-.79-6.65-1.32l0-.35C10.93,16,14.54,14.82,16,18c.93,1.32,1.91,3.42,3.91,3.47a3.69,3.69,0,0,0,3.47-1.76c1.08-1.95,1.71-4.2,3.62-5.52.2-.1.29,0,.2,0A10.91,10.91,0,0,0,25,17.37c.73,2.78,2.34,2.2,2.73,2.15-.1-1,0-4.06,2.2-4.79a4.47,4.47,0,0,1,4.55-.54,11.29,11.29,0,0,0-3.08,5.52l-1.91.54a2.67,2.67,0,0,0,.1-1.32c-.19.1-.39.24-.83.49-.2,0,0-.25,0-.25s.49-.29.88-.53c-.15-1.13-.24-2.59.69-3.52-1.91.63-1.37,4.64-1.18,5.13a3.68,3.68,0,0,1-1.27.24l-.1-.68c-.83.29-2.25.1-2.88-2.1-.68,1.41-1.27,3.66-2.88,4.25Z"/><path class="cls-1" d="M51.74,16c-.1-.1-.14-.15-.24-.15s0-.1,0-.1.14,0,.19.1,0,.15,0,.15Z"/><path class="cls-1" d="M8,25.43,9,26.6a.24.24,0,0,1,.05.3c.15,0,.34-.3.44-.39s-.24,0-.29-.05L8.14,25.28v-.09l0-.05a0,0,0,0,1,.05-.05l1.51.54c.15.09.2.19.2.24.05-.1.15-.39.2-.49a.31.31,0,0,1-.3.05l-1.51-.54c-.05,0-.05,0-.05-.05v-.09a0,0,0,0,1,.05-.05l1.56-.25c.2-.05.29.05.29.1,0-.1,0-.44,0-.54a.39.39,0,0,1-.3.25l-1.51.24a0,0,0,0,1-.05-.05c0-.05,0-.1-.1-.15v0l1.22-1c.15-.1.3-.1.34-.05-.09-.1-.29-.34-.39-.44.05.05,0,.2-.09.34l-1.18,1c-.05.05-.05.05-.05,0a.16.16,0,0,1-.14,0S7.85,24,7.9,24l.53-1.51a.3.3,0,0,1,.25-.2,2.32,2.32,0,0,0-.54-.19s.15.19.1.34L7.7,23.87s0,0,0,0H7.5l0,0-.3-1.57a.43.43,0,0,1,.1-.29,2.5,2.5,0,0,0-.54.1.37.37,0,0,1,.25.24l.29,1.52c0,.05,0,.05,0,.09s-.1.05-.15.05H7L5.94,22.84c-.1-.15-.1-.29-.05-.29a1.28,1.28,0,0,0-.39.34.39.39,0,0,1,.29.1l1.08,1.17v.05l-.1.1h0l-1.46-.54c-.15-.05-.25-.2-.2-.25a3.72,3.72,0,0,0-.2.54.38.38,0,0,1,.35,0l1.46.49v.25L5.11,25c-.15,0-.29-.1-.29-.15a2.52,2.52,0,0,0,.09.59.28.28,0,0,1,.25-.24l1.51-.3a0,0,0,0,1,0,0c0,.05,0,.05,0,.1v.05l-1.22,1c-.15.14-.29.09-.29,0,0,.15.24.4.29.44a.4.4,0,0,1,.1-.29l1.27-1s0,0,0,0l.09.1c.05,0,.05,0,.05.05L6.58,27c0,.14-.2.24-.25.19a1.73,1.73,0,0,0,.54.2c-.1,0-.15-.15-.1-.3l.54-1.51a0,0,0,0,1,.05-.05.17.17,0,0,0,.14.05,0,0,0,0,1,0,0l.3,1.51a.46.46,0,0,1-.15.35,1.71,1.71,0,0,0,.54-.15c-.05.05-.2-.1-.2-.2l-.29-1.56v-.05s.1-.05.15-.05,0-.05.09,0Z"/><path class="cls-1" d="M51.06,16.19c-.05-.05,0-.1,0-.14s.1-.15.1-.3c-.25-.19-.3-.58-.15-.68s.63,0,.63,0c.44-.35.59-.59.84-.74a1.45,1.45,0,0,1,1,1c-.1.15-.34.39-.73.88.14.34.14.59-.1.78a.29.29,0,0,1-.24-.1c0,.49.58.79.78,1.18,0,.78.83,1.76-.1,2.39a1.11,1.11,0,0,0-.49.44c.15.78.44,1.62.59,2.45l-.93.05c-.1.29-.39.83-.29,1.12,0,0-.05-.05,0,0a6.88,6.88,0,0,1,.14,1.95c0,.2.15.2,0,.54-.1.05-.49.3-.54.44-.24.25-.92.3-.92.2,0-.25.48-.54.58-.83a5,5,0,0,0-.63-3.28c-.25-.15-.44.25-.59.44a6.52,6.52,0,0,1,.64,2.35c0,.24.29.58.14.93l-.78.39H47.3c-.1-.15-.3-.3-.25-.49h2.54c0-.1.25,0,.49-.44,0-1.17-1.22-2.89-1-3.47S49.64,22,50,21l.2-.05c-.44,1.47-1.08,2.2-1,2.64a3.21,3.21,0,0,0,.29.74l.1.29a2.42,2.42,0,0,0,.29.58.74.74,0,0,0,.35-.14A1.25,1.25,0,0,0,50,24.5l-.39.15-.1-.29c.3,0,.49-.2.25-.35.68-.34-.15-.24.1-.39s.58-.93.63-1.37c0-.09,0-.14.15-.14a11.63,11.63,0,0,0,.78,2.54v.24a.79.79,0,0,0,.1.59c.44.05.39-.05.29-.59-.1,0-.29-.05-.39,0v-.24s.24,0,.29,0a1.23,1.23,0,0,1-.14-.69c0-.14.09-.44.19.2.15.05.39-1.12.44-1.51-.93.19,0-.88-.68-.93l.34-.59a.25.25,0,0,0-.39-.24l-.2-.25c-.14-.05-.29-.29-.49-.44a2,2,0,0,0-.44.64c0,.05.1.09.15.05s.25.14.49.09.39-.14.29-.34l.2.25c-.2.09-.2.44-.2.68-.34.64-.19-.34-.58-.34s-.35-.25-.49-.2L50,21a8.36,8.36,0,0,0,0-1.12,10.42,10.42,0,0,1,.69-2.1c0-.2.73-.59.68-.79.05,0,.15.15.15.2,0,.24-.54.24-.49.78.29-.54,1.12-.49,1.17-1.12-.14-.39.2-.15.2-.54A2.31,2.31,0,0,1,52,15.8c-.05-.05.14-.34-.54-.34-.05,0-.1.34-.2.49s-.14.14-.09.19.09.1.09.3a.37.37,0,0,0,.1.39c.39.19.69,0,.25.24a.18.18,0,0,1-.05.15,1,1,0,0,0-.2-.3c-.05,0-.29-.14-.24-.34s0-.29,0-.39Z"/><path class="cls-1" d="M37.91,14.33c.05.35-.15.59-.15.93.34.83,0,1.47.1,2.25-.39-.24-.49-.88-.64-1.56a5,5,0,0,1,.1-1.42l.59-.2Z"/><path class="cls-1" d="M36.88,14.58a5,5,0,0,0,.54,3.13,45.71,45.71,0,0,1-5.57,1.95c.24-1.56,1.76-4.54,3-5.37a8.53,8.53,0,0,0,2,.29Z"/><path class="cls-1" d="M32.09,26.07c-.49.14-.49.44-.19.73a1.44,1.44,0,0,1,.39.44H29.16c0,.15.15.24.24.49H46.71c.09-.25-.2-.54-.3-.83-1.22-.44-1.22-1.57-1.27-2.84a1.51,1.51,0,0,1-.09-.44,6.32,6.32,0,0,1-.59-3.81l.29-.54c.25-.34,0-.54.15-.93l3.62-.68a.19.19,0,0,0-.05-.25h0c0-.05.05,0,0,0L45,18.05c.19-.88-.59-1.17-.25-1.91a6.86,6.86,0,0,0,2.5,1.62l.34-.05a8.91,8.91,0,0,1-3.33-2.54c-.09,0-.19-.1-.29-.15,0,.1.25.39.2.44a1.78,1.78,0,0,1-1.67-.1c-.34.69-4.15,2.4-4.15,2.4a4.16,4.16,0,0,0,1.17,2.34c.05.1-.14-.1,0,0a6,6,0,0,0,2.74,1.13c.2.58.93,2.49,1,2.78s.24.3.24.3a2.49,2.49,0,0,1,.44,1l.1,1c.05.24.34.05.39.29l-.15.64H45c-.39-.34-.15-.93-.64-1.17A2.16,2.16,0,0,0,44,24.79c-.2-.58-.83-2.15-1.22-3.56l.24-.35a3.61,3.61,0,0,1-2.88-.63c-.73-.34-.29-.05,0-.2a4,4,0,0,0,2.64.3c.1.14.29.29.29.53l-.24.35c.24-.25.44-.1.58.58s.4,1,.54,1.52.34,1.12.49,1.46a.31.31,0,0,1,.25.2c.34,1.08.44,1.22.39,1.71s.63.05.58.54H32.73c.19-.78-.25-1.47,0-2.2-.49-.78-1.71-1.37-1.52-2.44.59-.84,2.5-1.67,2-2.64,1.76-.88,2.64.58,4.26.44a6.86,6.86,0,0,0,1.76-.25,6.16,6.16,0,0,1-1.62-2.1,54.27,54.27,0,0,1-10.41,3.27L27,21.23c-.34.05-5.91,1.32-5.72,1.56a16.64,16.64,0,0,0-5.08,1.32c-.25.15-.3.25,0,.34,2.25.59,4.1.15,7.57-1.17l-.24-.2a22.6,22.6,0,0,1-4.16,1.28,7.94,7.94,0,0,1-2.68-.05c-.15,0-.15,0,0-.1,2.2-.88,6.45-1.66,7-.93a1.51,1.51,0,0,1,.78.54c.19.24.58.14.88.09s.44-.44.44-.78l-.44-.05a3.46,3.46,0,0,0-1.08.2,2.39,2.39,0,0,0-1-.59A10.44,10.44,0,0,1,26,22c-.63.44-.34,1-.68,1.07l.44.05c0-.19,0-.34.1-.44.44-1.07,2.29-1.22,3.22-1.46a3.34,3.34,0,0,1-.83.78c-.1,1.51-.63,2.83-.73,4.35.44,0,.44.49.54.78-.15.25-.35,0-.54.05-.69-.34.14-.93-.39-1.42a16.25,16.25,0,0,0,.73-3.71c-.2,0-.24.19-.34.34a26.62,26.62,0,0,1-.78,3.47c.09.1.34.2.34.39-.39.25,0,.69-.15,1H22.46l-.44.49h6.75l.05-.25c-1-1.07-.64-2.64-.15-3.81l1.17-1.56c1-.39,1.57-1.57,2.6-2,0,.54-.64.73-1,1-.39.83-1.52.93-1.66,1.85a13.93,13.93,0,0,0,1.61,1.28c.54.34.39,1.07.78,1.41.1.1,0,.3-.1.35Z"/><path class="cls-1" d="M39.57,8.42c-.19.29-.59.49-.34,1a.65.65,0,0,0-.2,1,.72.72,0,0,0-.05,1c-.39.44.1.83.25,1a.89.89,0,0,0,0,.78h0c0,.29-.59.78-.78.93a9.87,9.87,0,0,0-.15,3.27,18.2,18.2,0,0,0,3.81-2.24c-.93-.64-1.66-2.16-2.69-2.06a6.12,6.12,0,0,1,1-4.93c.2-.1.49-.15.64-.25-.64-.1-1.47.29-2.06,0,0,0,.3.49.59.54Z"/><path class="cls-1" d="M42.85,7.93c0,.05.19.15.19.15s.2-.05.2-.1,0-.2,0-.24-.2,0-.3,0a1.23,1.23,0,0,0-.09.24l-.1.1-.69-.49.1-.1s.29-.29.44-.29a2.29,2.29,0,0,1,1.13.15,2.33,2.33,0,0,1,.44.58c.53.39,1.41.39,1.95.83-.1.15.15.4,0,.49s-.49,0-.54.05l0,.29-.2,0s.1-.35,0-.35S45,9,44.9,9.06s0,.09.05.19.24.15.39.1l.19.05.25,0c-.1.24-.15.34-.49.24-.1.25.44.44.49.54s-.15.19-.49,0A12.63,12.63,0,0,1,43,12c-.88.39,0-.2,0-.2A9.68,9.68,0,0,0,45.09,10,1.27,1.27,0,0,1,45,9.59a1.27,1.27,0,0,0-.93.2,12.69,12.69,0,0,1,.29,6l-.1-.09a13.14,13.14,0,0,0-.34-5.82,3.23,3.23,0,0,1-1.07.1c-.1,2,1.51,2.29.93,4.93-1.72-.29-2.94-2.39-3.92-2.2,0-.34-.39-.92,0-1.12-.1-.29-.2-.68.24-.93-.15-.39-.2-.73.25-1a.65.65,0,0,1,.48-.88,1,1,0,0,1,.64-.92,1,1,0,0,1-.54-.64,1.65,1.65,0,0,0,1.32.29l.69.49Z"/><polygon class="cls-1" points="1.76 31.85 4.96 31.85 4.96 33.02 3.97 33.02 3.97 34.96 7.57 34.96 7.57 33.02 6.56 33.02 6.56 31.85 9.81 31.85 9.81 33.02 8.76 33.02 8.76 38.74 9.81 38.74 9.81 39.87 6.56 39.87 6.56 38.74 7.57 38.74 7.57 36.09 3.97 36.09 3.97 38.74 4.96 38.74 4.96 39.87 1.76 39.87 1.76 38.74 2.78 38.74 2.78 33.02 1.76 33.02 1.76 31.85"/><polygon class="cls-1" points="40 31.85 46.56 31.85 46.56 34.09 45.46 34.09 45.46 33.02 42.26 33.02 42.26 34.93 44.99 34.93 44.99 36.07 42.26 36.07 42.26 38.74 45.43 38.74 45.43 37.2 46.59 37.2 46.59 39.87 40 39.87 40 38.74 41.07 38.74 41.07 33.02 40 33.02 40 31.85"/><polygon class="cls-1" points="11.29 31.85 17.89 31.85 17.89 34.09 16.75 34.09 16.75 33.02 13.56 33.02 13.56 34.93 16.29 34.93 16.29 36.07 13.56 36.07 13.56 38.74 16.73 38.74 16.73 37.2 17.89 37.2 17.89 39.87 11.29 39.87 11.29 38.74 12.37 38.74 12.37 33.02 11.29 33.02 11.29 31.85"/><path class="cls-1" d="M53,35.28c-.81-.2-1.36-.17-2.2-.43s-.88-.7-.88-1,.32-1.11,1.49-1.11a1.85,1.85,0,0,1,2,1.46h1.13V31.85h-1.1v.53l.06.14v0s-.06-.09-.18-.17v0a2.94,2.94,0,0,0-2-.64,2.4,2.4,0,0,0-2.59,2.18A2.09,2.09,0,0,0,50.6,36c.84.23,1.28.23,2,.44a1.32,1.32,0,0,1,1.16,1.24c0,.59-.38,1.37-1.89,1.37a2.06,2.06,0,0,1-2.27-2H48.54v2.82h1.1v-.52h0l0-.15a.39.39,0,0,0,.18.18v0a3.59,3.59,0,0,0,2.24.72c1.07,0,2.9-.55,2.9-2.47A2.27,2.27,0,0,0,53,35.28Z"/><polygon class="cls-1" points="37.41 38.74 37.41 33.02 38.49 33.02 38.49 31.85 35.58 31.85 33.63 36.56 33.61 36.79 33.55 36.56 31.63 31.85 28.7 31.85 28.7 33.02 29.77 33.02 29.77 38.74 28.7 38.74 28.7 39.87 31.98 39.87 31.98 38.74 30.96 38.74 30.96 33.48 30.96 33.13 31.05 33.39 33.29 38.74 33.92 38.74 36.16 33.39 36.22 33.1 36.25 33.42 36.25 38.74 35.23 38.74 35.23 39.87 38.49 39.87 38.49 38.74 37.41 38.74"/><path class="cls-1" d="M26.37,38.74l0-1.63a1.71,1.71,0,0,0-.75-1.31,1.8,1.8,0,0,0-.35-.08,1,1,0,0,0,.4-.06h0a1.81,1.81,0,0,0,1-1.71,2,2,0,0,0-.81-1.66,2.7,2.7,0,0,0-1.63-.44H19.69V33h1v5.72h-1v1.13h3.19V38.74h-1V36.21h2.21a1,1,0,0,1,1,.93l.09,2.73h2.18V38.74Zm-2.06-3.63H21.87V33h2.29a2.56,2.56,0,0,1,.79.08,1,1,0,0,1,.55,1,1.12,1.12,0,0,1-1.19,1Z"/><path class="cls-1" d="M13.36,41.79c1.76,0,2.55,1,2.55,2.2s-.83,2.15-2.69,2.15H12v3.37H10.82V41.79ZM12,45.16h1.37c.83,0,1.41-.44,1.41-1.22,0-.59-.34-1.17-1.37-1.17H12v2.39Z"/><path class="cls-1" d="M24.66,49.51H23.43l-1-2.29H19.08l-.92,2.29H16.93l3.43-7.77h.78l3.52,7.77Zm-5.14-3.32H22l-1.32-3-1.18,3Z"/><polygon class="cls-1" points="37.51 49.51 36.39 49.51 36.39 41.79 37.51 41.79 37.51 49.51"/><path class="cls-1" d="M45.58,43.45a3.17,3.17,0,0,0-2-.78c-.73,0-1.32.34-1.32.88,0,1.52,3.62,1.47,3.62,4a2.15,2.15,0,0,1-2.35,2.05,3.86,3.86,0,0,1-2.34-.68V47.46a3,3,0,0,0,2.25,1.12c.93,0,1.36-.53,1.36-1,0-1.57-3.66-1.76-3.66-3.87,0-1.27,1-2.05,2.54-2.05a3.45,3.45,0,0,1,1.91.54v1.22Z"/><path class="cls-1" d="M32.77,48.58a6.87,6.87,0,0,1-.44-.63,5.55,5.55,0,0,0-1.81-2.1,2,2,0,0,0,1.37-1.91c0-1.32-1-2.15-2.69-2.15h-2v7.72h1.17V46.14h.49c.59,0,1.08.2,2.1,1.76L32,49.51h1.32l-.59-.93ZM29.1,45.16h-.73V42.72h.73c1.13,0,1.57.44,1.57,1.17s-.29,1.27-1.57,1.27Z"/></svg>