<svg id="Слой_1" data-name="Слой 1" xmlns="http://www.w3.org/2000/svg" viewBox="0 0 56.69 56.69"><defs><style>.cls-1{fill:#274e9d;}</style></defs><g id="g8350"><path id="path10" class="cls-1" d="M22.73,12.88V24.37c-1.1-.08-2.21-.14-3.33-.14-9.34,0-16.9,3.4-16.9,7.74s5.17,7.86,14.44,7.85a36,36,0,0,0,5.79-.49v4.48H31V37a47.74,47.74,0,0,0,7.36-3.64A33.38,33.38,0,0,1,46,43.81h8.22V12.88H46V26.77a63.7,63.7,0,0,1-5.51,3.48A38.65,38.65,0,0,0,31,25.92v-13Zm-3.33,14c1.18,0,2.28,0,3.33.08v8.85c-2.11.17-4,.18-5.72.19-4.55,0-8.31-1.53-8.3-4S13.34,27,19.4,26.88Zm26.57,1v6.66a38,38,0,0,0-4.2-3.39Q43.85,29.65,46,27.86Zm-15,.79a23.4,23.4,0,0,1,5.85,3.46A43.48,43.48,0,0,1,31,34.31Z"/></g></svg>