<svg id="Слой_1" data-name="Слой 1" xmlns="http://www.w3.org/2000/svg" viewBox="0 0 56.69 56.69"><defs><style>.cls-1{fill:#010101;}</style></defs><path class="cls-1" d="M35.43,46.81c-1.86,0-4.12.76-4.14,3.56S33.6,54,35.43,54s3.59-.52,3.68-2.61H37.22a1.61,1.61,0,0,1-1.79,1.58c-.71,0-2.15-.15-2.17-2.53s1.3-2.57,2.17-2.56,1.74.41,1.75,1.44h1.87C39,48,38,46.82,35.43,46.81Zm-29.6.12v6.89H7.65v-3h3.69v3h1.84V46.93H11.34v2.76H7.65V46.93Zm8.86,0v6.89h1.84V46.93Zm2.52,0v1.14h2.67v5.75H21.7V48.07h2.67V46.93Zm22.79,0v6.89h1.83v-3h3.69v3h1.82V46.93H45.52v2.76H41.83V46.93Zm8.82,0v6.89h1.84V46.93ZM26.07,47,22.8,53.82h2.05l.64-1.54h3.45l.64,1.54h2.05L28.38,47Zm1.15,1.16,1.26,3.07H26Z"/><polygon class="cls-1" points="5.83 2.73 5.83 44.96 17.01 44.96 17.01 26.32 39.63 26.32 39.63 44.96 50.86 44.96 50.86 2.73 39.63 2.73 39.63 19.63 17.01 19.63 17.01 2.73 5.83 2.73"/></svg>