<svg id="Слой_1" data-name="Слой 1" xmlns="http://www.w3.org/2000/svg" xmlns:xlink="http://www.w3.org/1999/xlink" viewBox="0 0 56.69 56.69"><defs><style>.cls-1{fill:none;}.cls-2{clip-path:url(#clip-path);}.cls-3{fill:#13448a;}</style><clipPath id="clip-path"><rect class="cls-1" x="2.78" y="18.71" width="51.13" height="19.28"/></clipPath></defs><g class="cls-2"><path class="cls-3" d="M46.32,38a.63.63,0,0,0,.64-.64V23.26a.62.62,0,0,1,.63-.63h2.58a1.73,1.73,0,0,0,1.06-.48l2.58-3c.13-.15.15-.31.08-.38a.43.43,0,0,0-.31-.1H39.31a1.54,1.54,0,0,0-1.06.48l-2.58,3c-.15.17-.15.3-.07.4h0a.4.4,0,0,0,.27.08h6a.63.63,0,0,1,.64.63V37.35a.58.58,0,0,0,.15.41h0l0,.05a.61.61,0,0,0,.43.18Z"/></g><g class="cls-2"><path class="cls-3" d="M14,38h3.22a.63.63,0,0,0,.63-.64v-18a.61.61,0,0,0-.18-.43h0a.57.57,0,0,0-.43-.2H14a.62.62,0,0,0-.63.63v5.57a.63.63,0,0,1-.63.63H7.89a.63.63,0,0,1-.63-.63V19.34a.61.61,0,0,0-.15-.41.67.67,0,0,0-.49-.22H3.41a.62.62,0,0,0-.63.63v18a.67.67,0,0,0,.63.64H6.62a.63.63,0,0,0,.64-.64V30.5a.63.63,0,0,1,.63-.64h4.86a.63.63,0,0,1,.63.64v6.85a.61.61,0,0,0,.18.43A.7.7,0,0,0,14,38"/></g><g class="cls-2"><path class="cls-3" d="M35.77,38c.31,0,.43-.18.36-.43a.19.19,0,0,0-.05-.1l-5.95-9.19-.61-.94a.88.88,0,0,1,.08-1l6.22-7.13c.1-.13.15-.23.1-.33s-.15-.15-.32-.15H31.5a1.47,1.47,0,0,0-1,.48l-4.63,5.46-.76.91c-.23.26-.4.21-.4-.15V19.34a.66.66,0,0,0-.16-.41.64.64,0,0,0-.48-.22H20.9a.62.62,0,0,0-.64.63v18a.59.59,0,0,0,.2.45.69.69,0,0,0,.44.18H24a.63.63,0,0,0,.64-.63V32.55a1.82,1.82,0,0,1,.43-1.12l.65-.71a.46.46,0,0,1,.76.08l.61,1,3.62,5.7a2.61,2.61,0,0,0,.17.2,1.31,1.31,0,0,0,.81.33Z"/></g></svg>