<svg id="Слой_1" data-name="Слой 1" xmlns="http://www.w3.org/2000/svg" viewBox="0 0 56.69 56.69"><defs><style>.cls-1{fill:#de2035;fill-rule:evenodd;}</style></defs><g id="g7"><polygon id="polygon9" class="cls-1" points="48.01 48.74 49.85 48.74 49.85 42.19 48.01 42.19 48.01 48.74 48.01 48.74"/><polygon id="polygon11" class="cls-1" points="52.55 42.19 52.55 48.74 50.72 48.74 50.72 42.19 52.55 42.19 52.55 42.19"/><polygon id="polygon13" class="cls-1" points="8.06 44.73 6.57 44.73 6.57 42.19 4.14 42.19 4.14 48.74 6.57 48.74 6.57 45.49 8.06 45.49 8.06 48.74 10.49 48.74 10.49 42.19 8.06 42.19 8.06 44.73 8.06 44.73"/><path id="path15" class="cls-1" d="M19.49,44.63l-.15-.44h-2v4.55h2V46h0c0-.6.38-.92.7-.92s.62,0,.62.65h0v3h2v-3h0c0-1.65-1.86-2.3-3.18-1.16Z"/><path id="path17" class="cls-1" d="M40.05,46.83l-.94-2.64H37.75l-.94,2.75-1-2.75H33.16l-1,2.32-1.35-2.32H28.56l2.69,4.6-.35.87h0c-.12.27-.41.28-.47,0a.84.84,0,0,0-1.68,0,1.26,1.26,0,0,0,1.45,1.09,1.72,1.72,0,0,0,1.5-1.18h0l2.22-5.38,1.61,4.53H37l.89-2.61.92,2.61h1.38l1.56-4.55h-.8l-.89,2.64Z"/><path id="path19" class="cls-1" d="M13.94,44a2.55,2.55,0,1,0,0,5.09,2.55,2.55,0,1,0,0-5.09Zm.69,3.74a.69.69,0,1,1-1.38,0h0V45.32h0a.69.69,0,1,1,1.38,0h0V47.7Z"/><path id="path21" class="cls-1" d="M28.78,46.87a2.19,2.19,0,0,0,0-.36A2.79,2.79,0,1,0,26,49.05a2.82,2.82,0,0,0,2.44-1.33h0l-.61-.23h0a2.17,2.17,0,0,1-1.83.95.74.74,0,0,1-.69-.74h0v-.83Zm-3.44-1.55a.69.69,0,1,1,1.38,0h0v.9H25.34v-.9Z"/><path id="path23" class="cls-1" d="M47.31,46.87a2.19,2.19,0,0,0,0-.36,2.79,2.79,0,1,0-2.78,2.54A2.83,2.83,0,0,0,47,47.72h0l-.61-.23h0a2.17,2.17,0,0,1-1.83.95.74.74,0,0,1-.69-.74h0v-.83Zm-3.44-1.55a.69.69,0,0,1,1.38,0h0v.9H43.87v-.9Z"/></g><polygon id="polygon13-2" data-name="polygon13" class="cls-1" points="33.49 20.01 25.25 20.01 25.25 5.92 11.76 5.92 11.76 42.19 25.25 42.19 25.25 24.21 33.49 24.21 33.49 42.19 46.98 42.19 46.98 5.92 33.49 5.92 33.49 20.01 33.49 20.01"/></svg>