<svg id="Слой_1" data-name="Слой 1" xmlns="http://www.w3.org/2000/svg" xmlns:xlink="http://www.w3.org/1999/xlink" viewBox="0 0 56.69 56.69"><defs><style>.cls-1,.cls-7{fill:#23315f;}.cls-2{fill:#1a65af;}.cls-3{fill:#2974ba;}.cls-4{fill:#38a6de;}.cls-5{fill:#14447e;}.cls-6{fill:url(#Безымянный_градиент_3);}.cls-10,.cls-11,.cls-7,.cls-9{isolation:isolate;}.cls-7{opacity:0.5;}.cls-8{fill:#2d8ccc;}.cls-10,.cls-11,.cls-9{fill:#010101;}.cls-9{opacity:0.1;}.cls-10{opacity:0.05;}.cls-11{opacity:0.2;}.cls-12{fill:url(#Безымянный_градиент_2);}.cls-13{fill:#fff;}.cls-14{fill:#6bc9ef;}</style><linearGradient id="Безымянный_градиент_3" x1="34" y1="-1475.86" x2="34" y2="-1454.37" gradientTransform="translate(0 1505.33)" gradientUnits="userSpaceOnUse"><stop offset="0" stop-color="#3fb6e9"/><stop offset="1" stop-color="#38a6de"/></linearGradient><linearGradient id="Безымянный_градиент_2" x1="8.36" y1="-1491.05" x2="24.59" y2="-1462.93" gradientTransform="translate(0 1505.33)" gradientUnits="userSpaceOnUse"><stop offset="0" stop-color="#3080c3"/><stop offset="0.5" stop-color="#2d76bb"/><stop offset="1" stop-color="#2962ac"/></linearGradient></defs><path class="cls-1" d="M52.66,29.48a1.12,1.12,0,0,0-.52-.94h0l-16.84-10L35,18.42a2.29,2.29,0,0,0-2.07,0l-.23.14-16.85,10h0a1.11,1.11,0,0,0-.35,1.52,1,1,0,0,0,.38.36l16.85,10,.22.13a2.25,2.25,0,0,0,2.08,0l.22-.13,16.85-10A1.07,1.07,0,0,0,52.66,29.48Z"/><path class="cls-2" d="M17.85,22.82H28.91V33H17.85ZM50.4,12.52V7.88a2.11,2.11,0,0,0-2-2.15H19.65a2.11,2.11,0,0,0-2,2.15v4.64l17,4.52Z"/><path class="cls-3" d="M17.6,12.52H28.91V22.69H17.6Z"/><path class="cls-4" d="M40.22,12.52H28.91V22.69L40.22,32.87H50.4V22.69Z"/><path class="cls-3" d="M28.91,22.69H40.22V32.87H28.91Z"/><path class="cls-2" d="M28.91,32.87H40.22V43.05H28.91Z"/><path class="cls-5" d="M17.85,33H28.91v9.22H17.85Z"/><path class="cls-3" d="M40.22,32.87H50.4V43.05H40.22Z"/><path class="cls-6" d="M52.14,30.36h0L35.27,39.85A1.71,1.71,0,0,1,35,40a2.34,2.34,0,0,1-.91.22l-.92-.54a1.34,1.34,0,0,1-.23-.13L15.91,29.79h0l-.56-.31V48.66A2.32,2.32,0,0,0,17.68,51H50.42a2.64,2.64,0,0,0,.79-.16,2,2,0,0,0,.32-.17l.2-.13a2.29,2.29,0,0,0,.93-1.83V29.48A1,1,0,0,1,52.14,30.36Z"/><path class="cls-7" d="M51.75,29.4v1.18L34.14,42.71,15.9,29.8a0,0,0,0,0,0,0h0l-1.68-1v-.85h.69l1.46.84h0l.13.08,17.19,9.8.65.39.18-.07,17-9.58Z"/><path class="cls-8" d="M52.14,30.36l0,0L35.27,39.85A1.71,1.71,0,0,1,35,40,2.35,2.35,0,0,1,33,40l-.23-.13L15.9,30.38l0,0a1,1,0,0,1-.53-.88V48.66A2.31,2.31,0,0,0,17.67,51H50.33a2.31,2.31,0,0,0,2.33-2.3h0V29.48A1,1,0,0,1,52.14,30.36Z"/><path class="cls-9" d="M35.52,39.71l-.26.14L35,40a2.31,2.31,0,0,1-.89.24l6.41,7.58,11.18,2.69a2.25,2.25,0,0,0,.71-.88Z"/><path class="cls-10" d="M36.66,39.07l-1.4.78L35,40a2.31,2.31,0,0,1-.89.24l3,8.28,14.59,2a2.28,2.28,0,0,0,.92-1.83v-.25Z"/><path class="cls-4" d="M17.71,51H50.32a2.34,2.34,0,0,0,1.4-.45L33.21,39.67,33,39.54,15.91,29.79h0l-.56-.31V48.59A2.37,2.37,0,0,0,17.71,51Z"/><path class="cls-9" d="M31.17,16.85V41a2.05,2.05,0,0,1-1.3,1.92,1.83,1.83,0,0,1-.77.16H15.34V15.91H17.6V14.78H29.1A2.07,2.07,0,0,1,31.17,16.85Z"/><path class="cls-11" d="M30,18V42.1a1.68,1.68,0,0,1-.17.79A2.06,2.06,0,0,1,28,44.18H15.34V15.91H28a1.83,1.83,0,0,1,.94.24A2,2,0,0,1,30,18Z"/><path class="cls-11" d="M30,18V39.84A2.08,2.08,0,0,1,28,41.92H15.34v-26H28a1.83,1.83,0,0,1,.94.24A2,2,0,0,1,30,18Z"/><path class="cls-11" d="M28.91,18V39.84a2.08,2.08,0,0,1-2.07,2.08H15.34v-26h11.5A2.07,2.07,0,0,1,28.91,18Z"/><path class="cls-12" d="M6.11,15.91H26.84A2.07,2.07,0,0,1,28.91,18V38.71a2.08,2.08,0,0,1-2.07,2.08H6.11A2.08,2.08,0,0,1,4,38.71V18A2.08,2.08,0,0,1,6.11,15.91Z"/><path class="cls-13" d="M10.51,24.6A6,6,0,0,1,12.88,22,7.09,7.09,0,0,1,16.64,21a6.72,6.72,0,0,1,3.48.9,5.93,5.93,0,0,1,2.31,2.5,8.16,8.16,0,0,1,.81,3.67A8.55,8.55,0,0,1,22.4,32,6.09,6.09,0,0,1,20,34.54a6.94,6.94,0,0,1-3.61.92,6.82,6.82,0,0,1-3.56-.9,6.13,6.13,0,0,1-2.33-2.51,7.88,7.88,0,0,1-.82-3.63A8.83,8.83,0,0,1,10.51,24.6ZM13,30.74a3.83,3.83,0,0,0,1.33,1.72,3.45,3.45,0,0,0,2.08.63A3.53,3.53,0,0,0,20,30.72a6.56,6.56,0,0,0,.42-2.4A7.41,7.41,0,0,0,20,25.89a3.79,3.79,0,0,0-1.26-1.79,3.35,3.35,0,0,0-2.2-.68,3.6,3.6,0,0,0-2.13.63,4,4,0,0,0-1.35,1.74,6.87,6.87,0,0,0,0,4.95Z"/><path class="cls-14" d="M40.22,12.52H50.4V22.69H40.22Z"/></svg>