<svg id="Слой_1" data-name="Слой 1" xmlns="http://www.w3.org/2000/svg" viewBox="0 0 56.69 56.69"><defs><style>.cls-1{fill:#010101;}.cls-2{fill:#fff;}.cls-3{fill:#dc0d17;}</style></defs><path class="cls-1" d="M12.39,41.59H6.63v5.68H3.75V34H6.63v5.46h5.76V34h2.88V47.27H12.39Z"/><path class="cls-1" d="M22.22,47.53c-2.88,0-5.23-1.16-5.27-4.34h2.88a2.15,2.15,0,0,0,2.42,2.28c1.16,0,2.51-.59,2.51-1.9,0-1-.9-1.35-2.39-1.8l-1-.26c-2.1-.59-4.19-1.42-4.19-3.81,0-3,2.76-4,5.27-4s4.82.9,4.86,3.85H24.46a1.94,1.94,0,0,0-2.17-1.91c-1.08,0-2.13.56-2.13,1.76,0,1,.9,1.27,2.77,1.87l1.12.33c2.28.71,3.74,1.5,3.74,3.74C27.75,46.37,24.83,47.53,22.22,47.53Z"/><path class="cls-1" d="M29.39,34H34a12,12,0,0,1,2.61.15,3.25,3.25,0,0,1,2.84,3.21c0,1.72-1.08,2.58-2.65,3,1.79.34,3.14,1.24,3.14,3.22,0,3-3,3.7-5.31,3.7H29.43ZM34,39.53c1.27,0,2.58-.26,2.58-1.79S35.41,36,34.21,36h-2v3.55Zm.26,5.76c1.34,0,2.65-.3,2.65-1.95s-1.12-1.94-2.5-1.94H32.16v3.89Z"/><path class="cls-1" d="M47.44,47.53c-4.29,0-6.2-2.73-6.2-6.8s2.13-7,6.35-7c2.66,0,5.24,1.2,5.31,4.19h-3a2.13,2.13,0,0,0-2.32-2c-2.61,0-3.4,2.8-3.4,4.93s.79,4.6,3.29,4.6A2.29,2.29,0,0,0,50,43.34h3C52.64,46.41,50.21,47.53,47.44,47.53Z"/><rect class="cls-2" x="17.03" y="9.16" width="22.51" height="22.51"/><polygon class="cls-3" points="50.8 20.45 39.55 9.16 39.55 31.7 50.8 20.45"/><polygon class="cls-3" points="28.29 20.45 39.55 9.16 17.03 9.16 28.29 20.45"/><polygon class="cls-3" points="5.75 20.45 17.03 31.7 17.03 9.16 5.75 20.45"/><polygon class="cls-3" points="28.29 20.45 17.03 31.7 39.55 31.7 28.29 20.45"/></svg>