<svg id="Слой_1" data-name="Слой 1" xmlns="http://www.w3.org/2000/svg" viewBox="0 0 56.69 56.69"><defs><style>.cls-1{fill:#0c5eaa;}</style></defs><path class="cls-1" d="M52.29,11.49H43.82a7.19,7.19,0,0,0-6.39,4.24H52.27V11.49Z"/><path class="cls-1" d="M45,21.11h2.67v1.75H45.08c-2.41,0-3.52-1.95-3.52-4.36a6.29,6.29,0,0,1,.16-1.44H37.14A6.26,6.26,0,0,0,37,18.37v1.81a6.91,6.91,0,0,0,6.83,7h8.47V17.06H45v4.05Z"/><path class="cls-1" d="M30.77,20.29a2.6,2.6,0,0,1-5.18,0V17.06H20.93v3.28c0,3.76,2.67,6.83,6,6.83h2.54c3.3,0,6-3.05,6-6.83V17.06H30.77Z"/><rect class="cls-1" x="20.93" y="11.49" width="4.67" height="4.25"/><rect class="cls-1" x="30.77" y="11.49" width="4.67" height="4.25"/><polygon class="cls-1" points="9.03 11.49 4.36 11.49 4.36 27.13 9.03 27.13 9.03 21.11 14.22 21.11 14.22 27.13 18.89 27.13 18.89 17.06 9.03 17.06 9.03 11.49"/><rect class="cls-1" x="14.22" y="11.49" width="4.67" height="4.25"/><rect class="cls-1" x="21.08" y="29.57" width="13.71" height="4.25"/><polygon class="cls-1" points="25.75 39.19 32.47 39.19 32.47 35.14 21.08 35.14 21.08 45.2 34.79 45.2 34.79 40.94 25.75 40.94 25.75 39.19"/><path class="cls-1" d="M51.52,38.3a4.57,4.57,0,0,0-4-3.16H36.81a4.73,4.73,0,0,0,4.33,4h5.22a.88.88,0,0,1,1,.75.89.89,0,0,1-.76,1,1.13,1.13,0,0,1-.26,0H36.81v4.24H47.38a4.81,4.81,0,0,0,4.47-5A5.33,5.33,0,0,0,51.52,38.3Zm-7.44.56Z"/><path class="cls-1" d="M51.36,29.57h-9.8a4.79,4.79,0,0,0-4.73,4.24H51.36Z"/><polygon class="cls-1" points="4.51 45.2 9.18 45.2 9.18 39.19 14.36 39.19 14.36 45.2 19.02 45.2 19.02 35.14 4.51 35.14 4.51 45.2"/><rect class="cls-1" x="14.36" y="29.57" width="4.67" height="4.25"/><rect class="cls-1" x="4.51" y="29.57" width="4.67" height="4.25"/></svg>