<svg id="Слой_1" data-name="Слой 1" xmlns="http://www.w3.org/2000/svg" viewBox="0 0 56.69 56.69"><defs><style>.cls-1{fill:#4b78ab;}</style></defs><g id="g859"><g id="g865"><path id="path867" class="cls-1" d="M31.31,29.18l-2-5.15-2,5.11c.53,0,1.06,0,1.61,0,.85,0,1.67,0,2.47.07m17,5.21A47,47,0,0,0,33.18,30.6L35,34.88H33.58L31.84,30.5c-1-.05-2-.08-3-.08-.72,0-1.44,0-2.14,0l-1.76,4.42H23.58l1.79-4.35a47.47,47.47,0,0,0-16,3.86v-.27a38.9,38.9,0,0,1,9.39-3.83V27.66L15.08,22h1.37l2.93,4.71L22.3,22h1.37L20,27.66V30a39,39,0,0,1,5.94-.81l3-7.39h.61l3.06,7.45a39,39,0,0,1,5.84.91V23h-3V22h7.28v1h-3v7.51a38.75,38.75,0,0,1,8.58,3.63ZM53.17,22H45.89v1h3v8.89h1.25V23h3ZM11.4,31.87H10.15V27H4.77v4.87H3.52V22H4.77v4h5.38V22H11.4Z"/></g></g></svg>