<svg id="Слой_1" data-name="Слой 1" xmlns="http://www.w3.org/2000/svg" viewBox="0 0 56.69 56.69"><defs><style>.cls-1{fill:#1e3e7b;fill-rule:evenodd;}</style></defs><g id="g832"><path id="path828" class="cls-1" d="M48.58,39.94H45.63c-.5,0-.64.15-.64.76v1.66h3.59Zm1.58-1.33v7.24H48.58V43.77H45v2.08H43.42V40.18c0-1,.41-1.57,1.57-1.57Zm-8.31,1.57v3.91c0,1.25-.7,1.76-1.57,1.76h-5V38.61h5A1.39,1.39,0,0,1,41.85,40.18Zm-1.59.43a.62.62,0,0,0-.67-.67h-2.7v4.52h2.7c.62,0,.67-.4.67-.69Zm-37-2H4.82v2.85H8.34V38.61H9.91v7.24H8.34v-3H4.82v3H3.24V38.61Zm9.36,0,2,3,2-3h1.91l-3.08,4.63v2.61H13.79V43.24L10.7,38.61Zm14.67,0h5.07c.72,0,1.42.1,1.4,1.57v5.67H32.17V40.7c0-.63-.08-.76-.57-.76H28.84v5.91H27.27Zm26,0v7.24H51.73V38.61ZM19.22,45.85h5.07c1,0,1.42-.29,1.4-1.75V38.61H24.12v5.17c0,.62-.07.69-.56.69H20.8V38.61H19.22Z"/></g><path id="path830" class="cls-1" d="M33.51,24.49c.39,2-.65,3.61-1.51,5.2a4.88,4.88,0,0,1-4.41,2.56,45,45,0,0,1-12.23-1.88.77.77,0,0,1-.45-.32.52.52,0,0,1,.19-.57c3.51-2.84,7.69-4.16,11.82-5.54a12,12,0,0,1,4.91-.7A2.13,2.13,0,0,1,33.51,24.49ZM48,16.07c2,1.62,3.74,3.83,3.14,6.5-1,3.94-5.27,6-8.69,7.37a25.73,25.73,0,0,1-5.76,1.45c-.13,0-.34,0-.37-.18l0-.22a51.39,51.39,0,0,0,7-10.61c.89-1.67,1.72-3.38,2.48-5.07a.88.88,0,0,1,.35-.24,4.29,4.29,0,0,1,1.8,1ZM20.26,11.88l-.06.24C16,16.87,13.28,22.38,10.67,27.86c-.51.48-1-.16-1.46-.36-2.32-1.53-4.42-4-3.81-6.91,1-3.82,4.89-5.85,8.16-7.23a30.53,30.53,0,0,1,6.09-1.65C19.87,11.71,20.15,11.67,20.26,11.88ZM41,12.64c.23.13.52.18.66.42s-.12.44-.27.62A34.39,34.39,0,0,1,30.5,18.93c-2,.48-3.93,1.34-6.1.86a2.05,2.05,0,0,1-1.26-.95c-.54-1.49.19-3.05.83-4.35.84-1.64,2.33-3.56,4.4-3.59A45.34,45.34,0,0,1,41,12.64Zm5.49.13c3.37,1.84,7.18,5.08,6.79,9.4-.47,4-4.2,6.8-7.53,8.49-9.74,4.65-23.42,4.79-33.47.73-3.4-1.42-7.22-3.85-8.65-7.5-1.09-3,.24-6.13,2.48-8.21C10.8,11.42,16.77,10,22.92,9.12a45.17,45.17,0,0,1,19.66,2A30.19,30.19,0,0,1,46.49,12.77Z"/></svg>