<svg id="Слой_1" data-name="Слой 1" xmlns="http://www.w3.org/2000/svg" viewBox="0 0 56.69 56.69"><defs><style>.cls-1{fill:#0f71a4;}</style></defs><path class="cls-1" d="M4.6,36.68H9V52.41H4.6Z"/><path class="cls-1" d="M11.23,52.41V36.68h12v3H15.6V43h7V46h-7v3.34h7.64v3Z"/><path class="cls-1" d="M25.68,52.41V36.68h12v3H30V43h7V46H30v3.34h7.62v3Z"/><path class="cls-1" d="M40.11,52.41V36.68h12v3H44.47V43h7V46h-7v3.34h7.62v3Z"/><path class="cls-1" d="M27.27,8.59c1-.8,2.31-.13,3.17.6a30.08,30.08,0,0,1,2.67,2.28l.15.08a44.87,44.87,0,0,1,6.17,7,1.9,1.9,0,0,1,.36,1.5A16.44,16.44,0,0,1,37,23.9a45.71,45.71,0,0,1-7.24,6.59,2,2,0,0,1-1.9.43,27.22,27.22,0,0,1-5.27-4.21,36.4,36.4,0,0,1-5.45-6.18,1.87,1.87,0,0,1-.29-1.11,5.83,5.83,0,0,1,1.23-2.06A52.2,52.2,0,0,1,24.17,11l.24-.18a31.47,31.47,0,0,1,2.84-2.25m3-2.34L29.12,4.6c-.16-.08-.33-.2-.48-.27a1,1,0,0,0-1,.26L25.55,7.31a56.33,56.33,0,0,1-11.73,11c-.34.27-.85.53-1,1a1,1,0,0,0,.34,1A57.2,57.2,0,0,1,23,28.78c.53.55,1,1.1,1.47,1.63.87,1.15,1.89,2.31,2.69,3.54.26.28.29.69.69.83a1.21,1.21,0,0,0,1,0l.29-.29a58.2,58.2,0,0,1,13.27-13.4c.52-.46,1.49-.61,1.51-1.47a1.34,1.34,0,0,0-.6-1h-.08a50.92,50.92,0,0,1-7.38-6.12L33.26,9.88c-1-1.15-2-2.42-3-3.63m-2.62,3c1.05-.72,2,.27,2.8.85a42.42,42.42,0,0,1,8.35,8.68A1.62,1.62,0,0,1,39,20.31a24.21,24.21,0,0,1-2.12,2.77v.05a55.52,55.52,0,0,1-6,5.7c-1,.64-2,2-3.32,1.17a48.6,48.6,0,0,1-8.44-8,15.43,15.43,0,0,1-1.37-1.94c-.4-1,.51-1.71,1-2.48a43.81,43.81,0,0,1,8.88-8.39m.67,2-.29.89L26.6,16.26c.34,0,.8,0,1.15,0v0L27.54,21l0,0a6.19,6.19,0,0,0,1.49,0v-.08l-.19-4.47,0-.16,1.25,0c-.63-1.66-1.23-3.32-1.81-5Zm-4.84,6.35c-.81.42-2,1-1.85,2.11A2.3,2.3,0,0,0,23,21a14.46,14.46,0,0,0,9.59.36c.72-.29,1.71-.68,1.85-1.61,0-.73-.79-1.2-1.37-1.49v0a1.7,1.7,0,0,1,.63-.17v0c-1-.17-2-.42-2.92-.68.17.43.3.86.46,1.32a4.27,4.27,0,0,1,.91-.21c.51.19,1.25.48,1.31,1.12s-.59.89-1,1.13a11.77,11.77,0,0,1-6.95.27c-.61-.21-1.54-.46-1.61-1.27.45-1,1.61-1.27,2.57-1.54-.5-.31-1-.6-1.49-1a4.63,4.63,0,0,0-1.45.46m4,4.61c-.09,1.64-.11,3.15-.23,4.8a8.86,8.86,0,0,0,2.06,0l-.19-4.57,0-.22a12.46,12.46,0,0,1-1.61,0"/></svg>