<svg id="Слой_1" data-name="Слой 1" xmlns="http://www.w3.org/2000/svg" viewBox="0 0 56.69 56.69"><defs><style>.cls-1{fill:#f6c703;}.cls-2,.cls-3{fill:#010101;}.cls-3{fill-opacity:0;stroke:#010101;stroke-opacity:0;}</style></defs><path id="d1pwhf9wy2" class="cls-1" d="M59,2.48c-.17-2.77-1.17-5-2.45-5.41H.63C-.76-2.46-1.83.15-1.83,3.28V53.71C-1.83,57.19-.52,60,1.09,60h55c1.48,0,2.71-2.39,2.9-5.48Z"/><path id="g5jjnq26yS" class="cls-2" d="M2.54,18.22H7.88V38.79H2.54Z"/><path id="g5jjnq26yS-2" data-name="g5jjnq26yS" class="cls-3" d="M2.54,18.22H7.88V38.79H2.54Z"/><path id="i3Prh1JpXt" class="cls-2" d="M18,27.69c-.46-3.13-.71-4.87-.76-5.22-.23-1.68-.44-3.14-.64-4.39H9.65V38.65h4.68l0-13.58,2,13.58h3.34l1.87-13.88V38.65H26.2V18.08h-7Z"/><path id="i3Prh1JpXt-2" data-name="i3Prh1JpXt" class="cls-3" d="M18,27.69c-.46-3.13-.71-4.87-.76-5.22-.23-1.68-.44-3.14-.64-4.39H9.65V38.65h4.68l0-13.58,2,13.58h3.34l1.87-13.88V38.65H26.2V18.08h-7Z"/><path id="a4ov9rRGQm" class="cls-2" d="M35,22.36a10.57,10.57,0,0,1,.09,1.79v8a7,7,0,0,1-.26,2.51c-.18.31-.65.46-1.42.46V21.6a2.68,2.68,0,0,1,1.19.18A.88.88,0,0,1,35,22.36Zm2.42,16.08a3.69,3.69,0,0,0,1.6-.73A2.78,2.78,0,0,0,40,36.25a16.5,16.5,0,0,0,.28-3.7V25.33a26.15,26.15,0,0,0-.2-3.92,3.64,3.64,0,0,0-.89-1.8,4,4,0,0,0-2.08-1.17,21.76,21.76,0,0,0-5-.36h-4V38.65h6.47A18.68,18.68,0,0,0,37.44,38.44Z"/><path id="a4ov9rRGQm-2" data-name="a4ov9rRGQm" class="cls-3" d="M35,22.36a10.57,10.57,0,0,1,.09,1.79v8a7,7,0,0,1-.26,2.51c-.18.31-.65.46-1.42.46V21.6a2.68,2.68,0,0,1,1.19.18A.88.88,0,0,1,35,22.36Zm2.42,16.08a3.69,3.69,0,0,0,1.6-.73A2.78,2.78,0,0,0,40,36.25a16.5,16.5,0,0,0,.28-3.7V25.33a26.15,26.15,0,0,0-.2-3.92,3.64,3.64,0,0,0-.89-1.8,4,4,0,0,0-2.08-1.17,21.76,21.76,0,0,0-5-.36h-4V38.65h6.47A18.68,18.68,0,0,0,37.44,38.44Z"/><path id="fk968BpsX" class="cls-2" d="M48.85,35.37c-.1.26-.53.39-.86.39a.61.61,0,0,1-.63-.38,5.53,5.53,0,0,1-.16-1.73V28.21a6.07,6.07,0,0,1,.14-1.75.59.59,0,0,1,.62-.35c.32,0,.76.13.87.4a5.36,5.36,0,0,1,.17,1.7v5.27A11.25,11.25,0,0,1,48.85,35.37Zm-6.8,3.11h4.81q.3-1.18.33-1.32a4.53,4.53,0,0,0,1.44,1.19,4.73,4.73,0,0,0,1.91.39,3.64,3.64,0,0,0,2.19-.66,2.83,2.83,0,0,0,1.17-1.57,11.05,11.05,0,0,0,.25-2.76V28a20.78,20.78,0,0,0-.08-2.43,2.77,2.77,0,0,0-.49-1.17,2.67,2.67,0,0,0-1.19-.92,4.72,4.72,0,0,0-1.84-.33,5.14,5.14,0,0,0-1.93.36A4.11,4.11,0,0,0,47.2,24.6V17.9H42.05Z"/><path id="fk968BpsX-2" data-name="fk968BpsX" class="cls-3" d="M48.85,35.37c-.1.26-.53.39-.86.39a.61.61,0,0,1-.63-.38,5.53,5.53,0,0,1-.16-1.73V28.21a6.07,6.07,0,0,1,.14-1.75.59.59,0,0,1,.62-.35c.32,0,.76.13.87.4a5.36,5.36,0,0,1,.17,1.7v5.27A11.25,11.25,0,0,1,48.85,35.37Zm-6.8,3.11h4.81q.3-1.18.33-1.32a4.53,4.53,0,0,0,1.44,1.19,4.73,4.73,0,0,0,1.91.39,3.64,3.64,0,0,0,2.19-.66,2.83,2.83,0,0,0,1.17-1.57,11.05,11.05,0,0,0,.25-2.76V28a20.78,20.78,0,0,0-.08-2.43,2.77,2.77,0,0,0-.49-1.17,2.67,2.67,0,0,0-1.19-.92,4.72,4.72,0,0,0-1.84-.33,5.14,5.14,0,0,0-1.93.36A4.11,4.11,0,0,0,47.2,24.6V17.9H42.05Z"/></svg>