<svg id="Слой_1" data-name="Слой 1" xmlns="http://www.w3.org/2000/svg" viewBox="0 0 56.69 56.69"><defs><style>.cls-1{fill:#010101;}.cls-2{fill:#f28d1c;}</style></defs><path class="cls-1" d="M25.45,17.21c-.1-.34-.24-.67-.61-.73a.62.62,0,0,0-.39.44,26.33,26.33,0,0,0-.28,4.86c0,.57-.08,1.4.62,1.54a1,1,0,0,0,.94-.22,45.89,45.89,0,0,0-.18-5.4A2.84,2.84,0,0,0,25.45,17.21ZM44.74,18a3.17,3.17,0,0,0,1.68-.34,1.4,1.4,0,0,0-.9-1.23,23.15,23.15,0,0,0-4.27.39c-.13,0-.38.05-.38.24.12.63.74.75,1.22.87l0,.07-.38,1.17h-.28l-.13,0c-.16.05-.35.13-.29.33.45.9-.46,1.54-.37,2.46a2,2,0,0,0,.91,1.51,1.4,1.4,0,0,0,.35.1,5.21,5.21,0,0,0,3.61-1.45c.12-.27-.08-.6-.25-.82-1-.22-2,.24-3,.31h-.08c.11-.26.29-.82.5-1.46a3,3,0,0,1,.6,0c.2,0,.42,0,.54,0A2.26,2.26,0,0,0,45.16,20l.07-.15a1.11,1.11,0,0,0-.06-.69,6,6,0,0,0-2-.12h-.1l.32-1L44.74,18Zm7.47.91h0a2.61,2.61,0,0,1-.9,2,3.29,3.29,0,0,1-2,.81l.1-.2.51-.88a14.92,14.92,0,0,1,1.45-2l0-.05,0,0,.37-.36.12,0h0c.13,0,.17.18.21.3a1.84,1.84,0,0,1,.06.47Zm.28-1.74L52.36,17a1,1,0,0,0-.57-.21,1.36,1.36,0,0,0-.48.16,8.38,8.38,0,0,0-2.13,1.85l0,0a17.51,17.51,0,0,0-1.42,2,1.18,1.18,0,0,1-.13-.72c.17-1.47,1.66-2.46,1.49-4-.28,0-.46.24-.64.42l-.21.23a6,6,0,0,0-1.65,4.56,2.21,2.21,0,0,0,.24.71l.12.21a14.62,14.62,0,0,0-.67,1.65,20.72,20.72,0,0,0-.69,2.9,3.3,3.3,0,0,0-.07,1,1.3,1.3,0,0,0,.08.34c.24.51.8,1.06,1.35,1a25.67,25.67,0,0,1,.81-3.7c.22-.71.47-1.41.75-2.09a3,3,0,0,0,1.32-.09,5.25,5.25,0,0,0,3.28-3.54,3,3,0,0,0-.62-2.61Zm-25-3.65a5.75,5.75,0,0,1-.65.34,4.18,4.18,0,0,1-2.07.24,5.77,5.77,0,0,1,2.56-2.26l.29-.07c.29,0,.63,0,.73.3.13.63-.4,1.11-.86,1.45Zm-3.85-.12-.08.1c-.13-.12-.1-.3-.06-.47a1.89,1.89,0,0,1,.11-.25,3.05,3.05,0,0,1,.38-.49,3.63,3.63,0,0,1,.76-.54l.2-.09h0a1.1,1.1,0,0,1,.47-.05h0l.15,0A9.43,9.43,0,0,0,23.59,13.4Zm5.43-2-.09-.1h0a1.25,1.25,0,0,0-.47-.28l-.08,0a1.06,1.06,0,0,0-.31,0H28a1,1,0,0,0-.43-.47,1.92,1.92,0,0,0-.74-.22h0a3.78,3.78,0,0,0-1.38.1,4.17,4.17,0,0,0-.67.25,4.11,4.11,0,0,0-2.08,1.92l0,0-.06.16,0,.17A1.8,1.8,0,0,0,23,14.56v.38l0,.31.08.21c.1.22.2.3.36.3.31,0,.45-.48.55-.6a3.51,3.51,0,0,0,2,.12,5.33,5.33,0,0,0,1.25-.6A5.4,5.4,0,0,0,29,13a2.22,2.22,0,0,0,.24-.62,1.11,1.11,0,0,0-.2-1Zm9.62,4.74c-.2-.28-.53-.79-1-.82-.17.08-.18.31-.14.46a23.63,23.63,0,0,1,.93,4.72v.25l-.12.14A31.73,31.73,0,0,0,35.56,17l-.11-.08a.41.41,0,0,0-.49.16,1.57,1.57,0,0,0-.19.33,10.74,10.74,0,0,0-.68,2.79,5.48,5.48,0,0,0,0,2.57.83.83,0,0,0,.72.51c.22,0,.38-.29.46-.51l.24-3.9.1.17c.8,1.27,1.2,2.72,2.45,3.73a.66.66,0,0,0,.61,0,1.59,1.59,0,0,0,.43-.26,2.32,2.32,0,0,0,.72-1.43A7.09,7.09,0,0,0,38.64,16.12Zm-5.21.79,0-.09-.06,0a7.59,7.59,0,0,0-6,.4,1.56,1.56,0,0,0-.8,1.33,1.12,1.12,0,0,0,.11.54.84.84,0,0,0,.35.35l.1,0a12.7,12.7,0,0,0,1.74.2l.52,0a11.31,11.31,0,0,1,1.65.24h0c.45.13,1.07.23,1.2.78v.06c-.38.61-1.51.82-2.28.94-.49.06-1.75.27-2.37-.24l-.09-.22v0l.09-.26.08-.08c.8-.46,1.81.53,2.62.43s1.09-.27,1.16-.45a.29.29,0,0,0,0-.22,3.77,3.77,0,0,0-1.47-.53,4.07,4.07,0,0,0-2.57.18.82.82,0,0,0-.25.24,1.53,1.53,0,0,0-.26.75l0,.2a3.13,3.13,0,0,0,2.31,1.68,4.23,4.23,0,0,0,3.5-.79A1.42,1.42,0,0,0,33,22a2.73,2.73,0,0,0,.15-1.76,1.12,1.12,0,0,0-.17-.37c-1-1.26-2.71-.9-4.2-1.14a5.12,5.12,0,0,1-.68-.14l-.27-.1,0,0h0l-.07-.1,0-.05A17.09,17.09,0,0,1,32,17.68c.45-.07.93-.05,1.25-.4l0-.05a.64.64,0,0,0,.11-.3v0ZM10.85,22.33a7.92,7.92,0,0,1-3.93-2.67l0-.06h0c0-.26.27-.45.47-.52a10.61,10.61,0,0,1,1.75-.42c1.05-.16,1.63-.18,1.88-.21,0,1.3-.1,2.57-.15,3.89ZM23.2,18.46s-.24-2.6-3.9-5.38L19.23,13l0,0c-.27-.2-.54-.39-.82-.57a21.49,21.49,0,0,0-3.32-1.76c-2.82-1.23-7-2.11-10.65-1-.54.19-.72.7-.9,1.19v.28a1.18,1.18,0,0,0,.83.25l.59,0c.12,0,.22-.08.22-.2v-.07c-.24-.3-.62-.18-.88-.33v0l0-.05h0a.81.81,0,0,1,.37-.15l0,0h.13a16.91,16.91,0,0,1,8.47,1c3,1.21,6.42,3,7.81,6.28l.11.3v0l0,.06,0,.19v.05a3.24,3.24,0,0,1-1,3.16c-2.05,1.63-5,1.78-7.54,1.3l-.07-3.65v-.91h.55a10.72,10.72,0,0,1,4,.86l.05.08h0v0l-.07.2h0l-.05.07a1.12,1.12,0,0,1-.18.2c-.22.18-.53.27-.53.54l0,0a2.26,2.26,0,0,0,.81.17.74.74,0,0,0,.33-.09,1.9,1.9,0,0,0,1-1,1.4,1.4,0,0,0-.2-1.09,2.16,2.16,0,0,0-.39-.41,6.44,6.44,0,0,0-3.47-1.14,13,13,0,0,0-1.65-.05h-.27l-.05-2.08a1.6,1.6,0,0,0-.91-1.34,11.82,11.82,0,0,0-.65,3.6l-.21,0c-.41.08-.82.17-1.23.28a6.94,6.94,0,0,0-1.07.33A5.36,5.36,0,0,0,6.67,18.7l-.13.15a1.06,1.06,0,0,0-.18.75l.06.18a10.31,10.31,0,0,0,4.49,3.77,3.46,3.46,0,0,0,.51,1.69,2,2,0,0,0,1,0c.34-.14.32-.6.35-.92h0A10.41,10.41,0,0,0,21.29,23a4.61,4.61,0,0,0,1.91-4.53Z"/><path class="cls-2" d="M11.66,35.23l2.49-7.66,2.46,7.64h8l-6.43,4.68,2.43,7.64-6.44-4.7-6.49,4.7.71-2.28s2-2.4,3.9-4.22,4.67-4,4.67-4a24.47,24.47,0,0,0-3.73,1.18,28.37,28.37,0,0,0-3.13,1.66L3.71,35.19Zm21.48,1.89a.71.71,0,0,0,.43-.75c0-.51-.64-.74-1.18-.85a4.65,4.65,0,0,0-3.15.38,2.39,2.39,0,0,0-.89,3.19,6,6,0,0,0,2.48,1.74c1,.47,1.64,1,1.36,1.64-.36.82-1.28.72-2.1.67a9.46,9.46,0,0,1-1.74-.37l-.43,1.41a9.1,9.1,0,0,0,2.62.52c1.72.06,3.12-.62,3.45-1.91a2.51,2.51,0,0,0-1.08-2.9c-.9-.52-2.06-.82-2.76-1.32a.83.83,0,0,1,.15-1.42,3.32,3.32,0,0,1,1.89-.25A4.51,4.51,0,0,1,33.14,37.12Zm1.18.58h.92V36.14L37,35.81V37.7h2.19L39,38.93H37v3.44a.77.77,0,0,0,.86.86A11.2,11.2,0,0,0,38.94,43l.39,1.25a8,8,0,0,1-2.28.36A1.67,1.67,0,0,1,35.23,43v-4.1H34.06l.25-1.23Zm12.11,5.79a2.76,2.76,0,0,1-.49.07.42.42,0,0,1-.46-.39V37.85a14.44,14.44,0,0,0-2.27-.33,3.64,3.64,0,0,0-3.08,1.38,5.35,5.35,0,0,0-.22,4.56,2.57,2.57,0,0,0,2.75,1.21,2,2,0,0,0,1.3-.76,1.92,1.92,0,0,0,.33.46,1.53,1.53,0,0,0,1.44.21.91.91,0,0,0,.7-1.09Zm-2.65-.58a2,2,0,0,1-1.61.25c-1-.33-1-1.81-.92-2.5A2.27,2.27,0,0,1,42.37,39a2.13,2.13,0,0,1,1.41,0Zm2.81-4.11A1,1,0,0,1,47,37.71a1.78,1.78,0,0,1,1.53-.07,1.2,1.2,0,0,1,.58.76,2.27,2.27,0,0,1,1.11-.71,3.71,3.71,0,0,1,1.59,0l-.49,1.51a5.4,5.4,0,0,0-1.27,0,1.91,1.91,0,0,0-.84.42v4.82H47.45V40c0-.79.07-1.3-.37-1.33A1.38,1.38,0,0,0,46.59,38.8Z"/></svg>