<svg id="Слой_1" data-name="Слой 1" xmlns="http://www.w3.org/2000/svg" viewBox="0 0 56.69 56.69"><defs><style>.cls-1{fill:#3abff0;}.cls-2{fill:#0f68b2;}</style></defs><rect class="cls-1" x="2.06" y="17.57" width="4.14" height="4.14"/><path class="cls-2" d="M6.1,39.13V24.22H2.18V39.13Zm26,.14V35.62a8.9,8.9,0,0,1-1.41-.09,1.58,1.58,0,0,1-.93-.41,1.61,1.61,0,0,1-.41-.88,9.47,9.47,0,0,1-.09-1.45V27.58h2.84V24.22H29.29V18.41H25.36V32.82a12.71,12.71,0,0,0,.31,3.08,3.92,3.92,0,0,0,3,3.05,11.43,11.43,0,0,0,3,.32Zm22.5-.14V17.26H50.7V39.13ZM21.57,25.68A5.91,5.91,0,0,0,17,23.91a5.82,5.82,0,0,0-2.58.58,5.36,5.36,0,0,0-1.94,1.59l-.22.28V24.22H8.39V39.13H12.3V31.47a4.45,4.45,0,0,1,1-3.09,3.35,3.35,0,0,1,2.48-1.06,3.19,3.19,0,0,1,2.58,1,4.35,4.35,0,0,1,.86,2.85h0v0h0v7.88h4V30.66A7.06,7.06,0,0,0,21.57,25.68Zm27.1,6a8.15,8.15,0,0,0-.56-3,7.8,7.8,0,0,0-1.58-2.46,7,7,0,0,0-2.43-1.65A7.92,7.92,0,0,0,41,23.93a7.69,7.69,0,0,0-3,.6,7.93,7.93,0,0,0-2.46,1.65,7.76,7.76,0,0,0-1.65,2.46,7.52,7.52,0,0,0-.6,3,8.06,8.06,0,0,0,.57,3,7.64,7.64,0,0,0,1.6,2.46,7.47,7.47,0,0,0,2.49,1.65,8.22,8.22,0,0,0,3.2.61,8.43,8.43,0,0,0,6.63-2.93L44.9,34.35A5.14,5.14,0,0,1,41.13,36a4.4,4.4,0,0,1-2.71-.77A3.76,3.76,0,0,1,37,33.18L37,33H48.67V31.65ZM37,30.28c0-1.09,1.25-3,3.95-3s4,1.9,4,3Z"/></svg>