<svg id="Слой_1" data-name="Слой 1" xmlns="http://www.w3.org/2000/svg" viewBox="0 0 56.69 56.69"><defs><style>.cls-1{fill:#3d65ae;}.cls-2{fill:#3c65ae;}</style></defs><path class="cls-1" d="M17.15,42.38c0,1,0,2.1,0,3.15,0,.1,0,.13-.13.13H14.68c-.12,0-.15,0-.15-.15,0-1.86,0-3.73,0-5.59A2.48,2.48,0,0,0,14,38.33a2.07,2.07,0,0,0-2-.78,2,2,0,0,0-1.72,1.37,2.51,2.51,0,0,0-.18,1c0,1.87,0,3.73,0,5.59,0,.14,0,.17-.18.17H7.62c-.09,0-.12,0-.12-.12,0-2,0-4,0-6A4.42,4.42,0,0,1,10.6,35.3a5,5,0,0,1,4.93.84A4.25,4.25,0,0,1,17.1,39c.07.6,0,1.2,0,1.81s0,1,0,1.56Z"/><path class="cls-1" d="M29,38.42V35.36c0-.11,0-.14.14-.14h2.32c.12,0,.14,0,.14.15V41a2.51,2.51,0,0,0,.51,1.6,2.11,2.11,0,0,0,2.1.77,2.06,2.06,0,0,0,1.66-1.39,2.69,2.69,0,0,0,.16-.94c0-1.87,0-3.75,0-5.62,0-.12,0-.16.15-.16h2.32c.11,0,.15,0,.15.14,0,2,0,4,0,6a4.48,4.48,0,0,1-3.31,4.28,5.08,5.08,0,0,1-4.26-.57,4.31,4.31,0,0,1-2-3.15,11.68,11.68,0,0,1,0-1.67c0-.62,0-1.23,0-1.84Z"/><path class="cls-1" d="M50.06,35.23h4.26c.12,0,.15,0,.15.15v2.15c0,.12,0,.15-.14.15H51.52c-.13,0-.17,0-.17.16q0,3.84,0,7.68c0,.12,0,.16-.16.16H48.89c-.11,0-.14,0-.14-.14q0-3.85,0-7.69c0-.14,0-.17-.18-.17h-2.8c-.11,0-.14,0-.14-.14V35.37c0-.11,0-.15.15-.15Z"/><path class="cls-1" d="M22.93,35.23h4.25c.12,0,.16,0,.16.16,0,.72,0,1.43,0,2.15,0,.11,0,.14-.14.14H24.36c-.11,0-.14,0-.14.14q0,3.86,0,7.69c0,.14,0,.17-.17.17H21.78c-.13,0-.16,0-.16-.16V37.84c0-.2,0-.17-.18-.17q-1.39,0-2.79,0c-.11,0-.14,0-.14-.14V35.37c0-.12,0-.15.15-.15Z"/><path class="cls-2" d="M2.22,40.44V35.38c0-.12,0-.16.16-.16H4.7c.09,0,.13,0,.13.13V45.53c0,.1,0,.13-.13.13H2.35c-.11,0-.13,0-.13-.14Z"/><path class="cls-2" d="M41.35,40.44V35.38c0-.12,0-.16.15-.16h2.32c.1,0,.14,0,.14.13,0,3.39,0,6.79,0,10.18,0,.1,0,.13-.12.13H41.48c-.11,0-.13,0-.13-.14Z"/><path class="cls-1" d="M38.67,26.38c0,2.22,0,4.43,0,6.64,0,.22-.06.27-.27.27H33.47c-.25,0-.31-.06-.31-.31,0-3.93,0-7.86,0-11.79a5.16,5.16,0,0,0-1.06-3.35,4.39,4.39,0,0,0-4.27-1.66,4.32,4.32,0,0,0-3.63,2.89,5.31,5.31,0,0,0-.36,2.08c0,3.93,0,7.86,0,11.79,0,.3-.08.36-.36.35h-4.9c-.2,0-.26,0-.26-.25,0-4.22,0-8.43,0-12.65a9.33,9.33,0,0,1,6.53-8.94,10.61,10.61,0,0,1,10.4,1.76,8.91,8.91,0,0,1,3.3,6.05,34.74,34.74,0,0,1,.09,3.82c0,1.1,0,2.2,0,3.3Z"/></svg>