<svg id="Слой_1" data-name="Слой 1" xmlns="http://www.w3.org/2000/svg" viewBox="0 0 56.69 56.69"><defs><style>.cls-1{fill:#264d9c;}</style></defs><path class="cls-1" d="M4.09,36.82H2.63a.21.21,0,0,0-.24.24v9.13a.21.21,0,0,0,.24.24H4.09a.21.21,0,0,0,.24-.24V37.06A.21.21,0,0,0,4.09,36.82Z"/><path class="cls-1" d="M8.69,45.08A2.86,2.86,0,0,1,7.84,45V43.42c0-1.83.85-2.6,1.84-2.6s1.46.67,1.46,1.77a2.34,2.34,0,0,1-2.45,2.49m1.43-5.84a2.61,2.61,0,0,0-2.49,1.51l-.26-1.06c-.06-.24-.14-.3-.3-.3H6.24a.21.21,0,0,0-.24.24v9.48a.22.22,0,0,0,.22.22h1.4a.22.22,0,0,0,.22-.22V46.49a4.16,4.16,0,0,0,.89.11c2.63,0,4.33-1.67,4.33-4.05,0-2-1.17-3.31-2.93-3.31"/><path class="cls-1" d="M35.07,39.24a2.67,2.67,0,0,0-2.49,1.42l-.24-1c-.07-.24-.15-.3-.31-.3H31.2a.21.21,0,0,0-.24.24v6.56a.21.21,0,0,0,.24.24h1.38a.21.21,0,0,0,.24-.24V42.83a1.77,1.77,0,0,1,1.76-2,1.23,1.23,0,0,1,1.3,1.32v4a.21.21,0,0,0,.24.24H37.5a.21.21,0,0,0,.24-.24V42.08a2.53,2.53,0,0,0-2.67-2.84"/><path class="cls-1" d="M52.46,42.26c0,1.82-.75,2.76-1.84,2.76-.91,0-1.54-.63-1.54-1.77a2.41,2.41,0,0,1,2.51-2.49,3.15,3.15,0,0,1,.87.12v1.38Zm1.64-2.53a6.78,6.78,0,0,0-2.47-.49c-2.85,0-4.47,1.85-4.47,4a3,3,0,0,0,3,3.31A2.59,2.59,0,0,0,52.72,45l.21.93c.1.44.16.5.44.5h.69a.22.22,0,0,0,.25-.24V40.06a.34.34,0,0,0-.21-.33"/><path class="cls-1" d="M42.36,44.81a1.57,1.57,0,0,1-1.56-1.74,2.32,2.32,0,0,1,2.51-2.31,3.15,3.15,0,0,1,.87.12v1.24c0,1.8-.77,2.69-1.82,2.69m3.46-5.08a7,7,0,0,0-2.61-.49c-2.76,0-4.34,1.72-4.34,3.89a2.9,2.9,0,0,0,3.06,3.12,2.45,2.45,0,0,0,2.23-1.16v.77c0,1.34-.83,2-2.19,2a5.94,5.94,0,0,1-2.2-.49c-.15-.06-.33,0-.33.16v1a.47.47,0,0,0,.31.46,5.6,5.6,0,0,0,2.49.53c2.73,0,3.78-1.62,3.78-3.7V40.06a.37.37,0,0,0-.2-.33"/><path class="cls-1" d="M27.74,42.26C27.74,44.08,27,45,25.9,45c-.91,0-1.54-.63-1.54-1.77a2.41,2.41,0,0,1,2.51-2.49,3.15,3.15,0,0,1,.87.12v1.38Zm1.64-2.53a6.83,6.83,0,0,0-2.47-.49c-2.86,0-4.48,1.85-4.48,4a3.05,3.05,0,0,0,3,3.31A2.59,2.59,0,0,0,28,45l.2.93c.11.44.17.5.45.5h.73a.19.19,0,0,0,.2-.2V40.06a.33.33,0,0,0-.2-.33"/><path class="cls-1" d="M21.93,39.33a1.79,1.79,0,0,0-.65-.09,2.38,2.38,0,0,0-2.23,1.52l-.26-1.07c-.06-.24-.14-.3-.3-.3h-.83c-.17,0-.25.08-.25.24v6.56c0,.16.08.24.25.24H19c.17,0,.25-.08.25-.24V43c0-1.36.6-2,1.76-2a4.7,4.7,0,0,1,.67.06c.28,0,.4,0,.4-.22V39.67c0-.16,0-.26-.18-.34"/><path class="cls-1" d="M15.83,39.39H14.46c-.17,0-.25.08-.25.24v6.56c0,.16.08.24.25.24h1.37c.17,0,.25-.08.25-.24V39.63C16.08,39.47,16,39.39,15.83,39.39Z"/><path class="cls-1" d="M39.38,12.44,32.57,19a1.19,1.19,0,0,1-.85.42.88.88,0,0,1-.84-.74L29,12.22a1.54,1.54,0,0,1-.07-.42.8.8,0,0,1,.88-.84h9.28a.71.71,0,0,1,.73.7,1.26,1.26,0,0,1-.42.78m4-4.89c-.88-.1-7.94-.35-11.31-.35-6.85,0-11.95,0-15.92,4.18C12,15.71,12,21.4,12,30.61V35.7A1.17,1.17,0,0,0,13.23,37c.5,0,.88-.14,1.59-.84L29.65,21.82a1.21,1.21,0,0,1,.81-.39.92.92,0,0,1,.91.95V36a1,1,0,0,0,1,1h.46A11.77,11.77,0,0,0,41,33.17c3.55-3.72,3.72-7.8,3.72-15.53V9a1.41,1.41,0,0,0-1.37-1.41"/></svg>