<svg id="Слой_1" data-name="Слой 1" xmlns="http://www.w3.org/2000/svg" viewBox="0 0 56.69 56.69"><defs><style>.cls-1{fill:#ec641c;}</style></defs><path class="cls-1" d="M25.08,3.32c-1.45,0-2.5.09-4.44.21-.9.05-1.88.13-2.57.2l-.8.08c-1.13.11-2.8.32-3.5.44l-.49.08a4.63,4.63,0,0,0-.47.08l-.52.09c-.52.09-1.41.27-1.91.39L9.83,5,9.5,5.1A6.42,6.42,0,0,0,7,6.34,5.38,5.38,0,0,0,5.35,8.69,2.94,2.94,0,0,1,5.23,9c-.05.12-.29,1.13-.45,2,0,.14-.07.34-.1.45s-.06.32-.08.44a3.48,3.48,0,0,1-.06.35c0,.18-.24,1.41-.36,2.3S4,16,3.91,16.63c0,.31-.07.61-.07.67s0,.37-.07.68-.06.69-.08.85c-.07.58-.23,3.1-.31,4.88-.07,1.32-.11,4.15-.09,5.69,0,1.92.07,3.64.12,4.24,0,.24,0,.75.06,1.13s0,.87.06,1.09c.08,1.09.13,1.8.16,2s.05.5.08.81.06.68.08.82,0,.45.08.68c.08.75.14,1.24.19,1.56s.06.47.09.66c.09.7.2,1.37.31,2,0,.14.07.37.1.52,0,.31.18.94.26,1.34a8.63,8.63,0,0,0,.79,2.48c.1.19.23.41.28.49l.18.25a5.72,5.72,0,0,0,1,1l.2.14.14.09a.13.13,0,0,1,.07.05,6.46,6.46,0,0,0,1.36.64l.19.07c.08,0,.55.15,1.1.28l.55.13,1.75.35,1.66.26.52.08c.38.07,1.95.25,2.94.34l1,.1c.29,0,.6.06,2,.16l1.11.06,1.21.07c2.24.12,8.66.12,10.87,0L35,53.24c.67,0,.92,0,2-.12,1.35-.11,3.33-.3,4-.39l.74-.1c.8-.11,1.9-.28,2.53-.39s1.61-.31,1.75-.35l.55-.13a11.35,11.35,0,0,0,1.11-.28l.31-.11a9.1,9.1,0,0,0,1.19-.56.64.64,0,0,1,.14-.1,4.1,4.1,0,0,0,.58-.45,7,7,0,0,0,.69-.73,1.64,1.64,0,0,1,.16-.24,1,1,0,0,0,.12-.18l.11-.2a2.25,2.25,0,0,0,.16-.3.92.92,0,0,1,.08-.17,6.72,6.72,0,0,0,.37-1.06c.15-.55.43-1.85.53-2.47a2.56,2.56,0,0,1,.06-.33c0-.07.2-1.15.36-2.25,0-.24.07-.49.08-.54s.14-1.11.19-1.62c0-.25.06-.54.08-.64s0-.45.08-.76.06-.7.07-.85.05-.52.07-.8.05-.64.06-.79.06-.69.08-1.21.06-1.16.08-1.42c.14-2.29.14-8.3,0-10.66,0-.27,0-.8-.06-1.17s-.05-.86-.07-1.09-.06-.78-.09-1.24-.07-.89-.08-1,0-.38-.06-.68-.06-.58-.07-.63,0-.33-.07-.64c-.09-.76-.19-1.59-.21-1.69s0-.29-.08-.55c-.15-1.18-.44-2.82-.69-3.94,0-.15-.09-.41-.12-.56A7.65,7.65,0,0,0,51.47,9l-.06-.18a7.71,7.71,0,0,0-.51-1.14l-.22-.33a6.74,6.74,0,0,0-1.14-1.19,6.59,6.59,0,0,0-2.41-1.08L46.62,5a8.44,8.44,0,0,0-.85-.19l-.42-.09c-.61-.15-2.59-.47-3.88-.64C41.21,4,41,4,40.9,4l-1.48-.15-.78-.08-.7-.07-.75-.06c-.71-.06-2.67-.17-3.75-.22-2.09-.09-6-.12-8.36-.06ZM11.2,24.61l.2.06a2.05,2.05,0,0,1,.59.27,2.91,2.91,0,0,1,.54.58.79.79,0,0,0,.08.13.49.49,0,0,1,.06.14.49.49,0,0,0,.07.16,2.52,2.52,0,0,1,.08.71,2.45,2.45,0,0,1-.09.71,1.93,1.93,0,0,1-.47.74,1.4,1.4,0,0,1-.55.4,1.52,1.52,0,0,1-.5.18l-.2,0a2.11,2.11,0,0,1-.71,0l-.17,0a1.33,1.33,0,0,1-.28-.06l-.21-.08-.12-.06-.11-.07a2.19,2.19,0,0,1-.67-.74l-.14-.27a3.35,3.35,0,0,1,0-1.41,2,2,0,0,0,.09-.22.54.54,0,0,1,.06-.13l.08-.14A2.07,2.07,0,0,1,9.3,25a.12.12,0,0,0,.06,0,1.57,1.57,0,0,1,.55-.26l.22-.07a.78.78,0,0,1,.19,0,4.5,4.5,0,0,1,.88,0ZM45.52,26.8v1.59H39.41V26.26l.34-.05C40.5,26.09,41,26,41,26l.35-.06a2,2,0,0,0,.34-.06l.33-.06.48-.08a3.21,3.21,0,0,1,.44-.08l.33-.06.34-.07a2.14,2.14,0,0,0,.4-.06l.5-.1.63-.1.31-.05h.07ZM19.44,28.2v1.89h3.15V32.9H19.44v2.92c0,3.14,0,3,.17,3.37a1.38,1.38,0,0,0,.81.69l.14,0a6.46,6.46,0,0,0,1.39,0,.75.75,0,0,1,.26-.06l.21,0v2.76l-.08,0a7.37,7.37,0,0,1-.94.15,8.74,8.74,0,0,1-2.08,0l-.11,0a3.43,3.43,0,0,1-.68-.13l-.19-.06-.19-.06a.34.34,0,0,0-.15-.07l-.15-.06-.12-.08a2.74,2.74,0,0,1-.48-.3l-.17-.13a2.69,2.69,0,0,1-.46-.5,4,4,0,0,1-.44-.73.64.64,0,0,0-.06-.12,1.41,1.41,0,0,1-.07-.22,2.07,2.07,0,0,0-.09-.27,2.59,2.59,0,0,1-.07-.31l-.09-.4c0-.09,0-1.2-.05-3.3V32.9H13.93V30.09h1.82V26.92l.22,0,.24,0a1.75,1.75,0,0,1,.35-.07,2,2,0,0,0,.34-.06l.44-.08a2.29,2.29,0,0,0,.45-.08l.23,0,.44-.07a9.49,9.49,0,0,1,1-.15s0,.87,0,1.9Zm10.44,1.59a6.61,6.61,0,0,1,1,.11A.38.38,0,0,0,31,30a5.17,5.17,0,0,1,.88.26,7.07,7.07,0,0,1,.79.4l.13.07.3.24.25.21a8,8,0,0,1,.61.74l.06.11a5.57,5.57,0,0,1,.35.68,1.41,1.41,0,0,0,.06.15,1.35,1.35,0,0,1,.08.24.42.42,0,0,0,.05.14,1.42,1.42,0,0,1,.06.22,1.56,1.56,0,0,0,.06.24,2.46,2.46,0,0,1,.06.3c0,.21,0,1,.06,4.46v4.22H31.41v-.37c0-.21,0-.5,0-.65l0-.29-.09.13a5.33,5.33,0,0,1-.81.77,3.22,3.22,0,0,1-.64.38.76.76,0,0,0-.2.08,1.65,1.65,0,0,1-.26.08l-.2.06a7.39,7.39,0,0,1-2.3,0,1.16,1.16,0,0,0-.26-.07,1.23,1.23,0,0,1-.31-.08l-.3-.12-.37-.18c-.08-.06-.17-.1-.25-.15s-.18-.12-.54-.47-.41-.42-.41-.46l-.09-.15a1.64,1.64,0,0,1-.16-.29l-.11-.24a1.37,1.37,0,0,1-.09-.25,1,1,0,0,0-.06-.2,3.31,3.31,0,0,1-.09-.69.4.4,0,0,0,0-.2s0-.17.07-.93a1.58,1.58,0,0,1,.06-.29,1.47,1.47,0,0,0,.06-.19,2.45,2.45,0,0,1,.22-.54l.08-.16s.05-.08.06-.08,0,0,0,0a3.57,3.57,0,0,1,.41-.52.19.19,0,0,0,0-.08.16.16,0,0,1,.09-.07s.06,0,.06,0a4.79,4.79,0,0,1,.71-.55c.13-.08.42-.23.84-.43.06,0,.65-.22.91-.29a3.19,3.19,0,0,1,.41-.09l.27-.06a2.62,2.62,0,0,1,.42-.06l.6-.07a11.85,11.85,0,0,1,2.18,0c.06,0,.06,0,0-.25a1.34,1.34,0,0,0,0-.3s0-.07-.05-.13a1.89,1.89,0,0,0-.26-.55,2.35,2.35,0,0,0-.41-.42.33.33,0,0,1-.12-.08,1.37,1.37,0,0,0-.5-.22.22.22,0,0,1-.12-.05,8,8,0,0,0-2.64,0l-.41.07a1.93,1.93,0,0,0-.33.08L26.2,33l-.26.06a1.77,1.77,0,0,1-.28.08,1,1,0,0,0-.25.08l-.19.06-.19.07-.19.06a1.39,1.39,0,0,0-.27.1l-.14.06s0-.66,0-1.46a8.75,8.75,0,0,1,0-1.5.63.63,0,0,1,.19-.07l.19-.06.24-.08.23-.08.22-.06a1,1,0,0,0,.24-.07l.28-.07.3-.07.4-.06a4,4,0,0,0,.42-.08,19.74,19.74,0,0,1,2.21-.14l.5,0ZM12.51,36.36v6.27H8.82V30.09h3.69ZM40.35,34a31.34,31.34,0,0,0,.09,4.55s0,.08.05.14a1.93,1.93,0,0,0,.48.81,1.33,1.33,0,0,0,.31.25s.08,0,.08,0a.85.85,0,0,0,.25.1,1.76,1.76,0,0,0,.62.08,1.91,1.91,0,0,0,.46,0l.21-.07a1.36,1.36,0,0,0,.32-.16,1.92,1.92,0,0,0,.5-.46.53.53,0,0,1,.1-.15.55.55,0,0,0,.09-.16.64.64,0,0,1,.06-.15,1.09,1.09,0,0,0,.09-.23.71.71,0,0,1,0-.16c.08-.1.1-.74.1-4.43V30.09h3.68V42.63H46.14a11.88,11.88,0,0,1-1.78,0s0-.32,0-.66a3.37,3.37,0,0,0,0-.62.18.18,0,0,0-.08.08,5.68,5.68,0,0,1-.89.87,3.47,3.47,0,0,1-.48.26l-.31.16-.27.07a.79.79,0,0,0-.21.07,4.73,4.73,0,0,1-1.14.09,4.63,4.63,0,0,1-1.11-.09,1.56,1.56,0,0,0-.27-.08l-.23-.08-.17-.07c-.07,0-.13,0-.13-.06a.3.3,0,0,0-.13-.06.24.24,0,0,1-.12-.06l-.08-.06a4.32,4.32,0,0,1-1.14-1.07,4.44,4.44,0,0,1-.45-.85L37,40.22c0-.06-.06-.17-.08-.25s-.05-.18-.06-.21a1.42,1.42,0,0,1-.07-.34,1.2,1.2,0,0,0-.07-.34s0-1.17,0-4.53V30.09h3.68Z"/><path class="cls-1" d="M29.47,37.06a2.54,2.54,0,0,0-.35,0,1,1,0,0,1-.25.07l-.3.09a2.62,2.62,0,0,0-.86.5,1.35,1.35,0,0,0-.32.63.56.56,0,0,1-.05.18A1.5,1.5,0,0,0,27.91,40a1.92,1.92,0,0,0,.7.28,3.51,3.51,0,0,0,1.31-.07l.26-.12a2.41,2.41,0,0,0,.33-.19l.18-.14a2.23,2.23,0,0,0,.55-.91,1.31,1.31,0,0,1,.05-.15,3.69,3.69,0,0,0,.05-.83v-.8l-.17,0a14.19,14.19,0,0,0-1.71,0Z"/></svg>