<svg id="Слой_1" data-name="Слой 1" xmlns="http://www.w3.org/2000/svg" xmlns:xlink="http://www.w3.org/1999/xlink" viewBox="0 0 56.69 56.69"><defs><style>.cls-1{fill:none;}.cls-2{fill:#45bcca;}.cls-3{clip-path:url(#clip-path);}.cls-4{fill:#010101;}</style><clipPath id="clip-path"><rect class="cls-1" x="61.65" y="-1.19" width="59.12" height="59.12"/></clipPath></defs><path class="cls-2" d="M9,31.12a2.9,2.9,0,1,0,0-5.79,2.9,2.9,0,1,0,0,5.79Z"/><path class="cls-2" d="M49.58,33.64c-.3-.1-1.15-.33-1.57-.46a4.56,4.56,0,0,0-1.08-.29c-.29,0-.46.16-.56.49a47.38,47.38,0,0,1-3.79,9.19c-.43-.85-1.24-2.29-2-3.6-1.18-2-2.33-4-2.88-5s-1-1.18-1.74-1.18c-1.57,0-3.89,1.41-3.89,2.72a2.89,2.89,0,0,0,.59,1.56,4.8,4.8,0,0,1,.79,2.52c0,2.22-1.67,4.25-4.88,4.25a4.61,4.61,0,0,1-3.46-1.21A4.47,4.47,0,0,1,24,39.19V36.35a5.09,5.09,0,0,0,2,.36h2.55c.36,0,.46-.13.46-.46V33.54c0-.32-.1-.46-.46-.46H24V28.64a1.45,1.45,0,0,0-.42-1.18,3.68,3.68,0,0,0-2.42-.62,3.73,3.73,0,0,0-2.46.62,1.45,1.45,0,0,0-.42,1.18V39.52c0,1.8-.29,2.78-.95,3.47a3.2,3.2,0,0,1-2.42.95,3.25,3.25,0,0,1-2.29-.85,3.36,3.36,0,0,1-.75-2.45v-7.1c0-.32-.13-.46-.46-.46H6.61c-.33,0-.46.13-.46.46V40A6.69,6.69,0,0,0,8,45.12a9.41,9.41,0,0,0,6.48,2.19,10,10,0,0,0,6.47-2.26A11,11,0,0,0,28,47.31,9.31,9.31,0,0,0,36.43,43l1.84,2.78a3.1,3.1,0,0,0,3.07,1.56,3.21,3.21,0,0,0,3.17-1.6,54.15,54.15,0,0,0,5.27-10.62,5,5,0,0,0,.26-.95C50,33.9,49.91,33.77,49.58,33.64Z"/><path class="cls-2" d="M43.19,9.12H41.65a2,2,0,0,0-2,1.08l-.59.82a5.56,5.56,0,0,1-3.5,2.12l-4,1a.43.43,0,0,0-.33.46V17a.4.4,0,0,0,.39.42l7,.33v12.1a1.15,1.15,0,0,0,1.28,1.27h3.2a1.16,1.16,0,0,0,1.28-1.27V10.33A1.08,1.08,0,0,0,43.19,9.12Z"/><g class="cls-3"><path id="path1" class="cls-4" d="M72.45,60.42c-11.43,0-20.73-8.77-20.73-19.55V13.05C51.72,2.27,61-6.5,72.45-6.5h38.21c11.42,0,20.72,8.77,20.72,19.55V40.87c0,10.78-9.3,19.55-20.72,19.55ZM68.9,9.58a.46.46,0,0,0-.43.49V43.81a.46.46,0,0,0,.43.49h45a.46.46,0,0,0,.43-.49V10.07a.46.46,0,0,0-.43-.49Z"/></g></svg>