<svg id="Слой_1" data-name="Слой 1" xmlns="http://www.w3.org/2000/svg" xmlns:xlink="http://www.w3.org/1999/xlink" viewBox="0 0 56.69 56.69"><defs><style>.cls-1{fill:none;}.cls-2{clip-path:url(#clip-path);}.cls-3{fill:#010101;}.cls-4{fill:#355aa6;}</style><clipPath id="clip-path"><rect class="cls-1" x="-1.55" y="-1.19" width="59.12" height="59.12"/></clipPath></defs><g class="cls-2"><path id="path1" class="cls-3" d="M43,31.55a2.18,2.18,0,0,1-2.36-1.94V26.84A2.18,2.18,0,0,1,43,24.89h4.35a2.17,2.17,0,0,1,2.35,1.95v2.77a2.17,2.17,0,0,1-2.35,1.94Zm-.4-5.06a0,0,0,0,0,0,.05V29.9a0,0,0,0,0,0,.05h5.12a0,0,0,0,0,.05-.05V26.54a0,0,0,0,0-.05-.05Z"/><path id="path2" class="cls-3" d="M29.23,31.55H23.82a2.18,2.18,0,0,1-2.36-1.94V26.84a2.18,2.18,0,0,1,2.36-1.95h5.43a.15.15,0,0,1,.14.15h0v1.3a.15.15,0,0,1-.14.15H23.42a.06.06,0,0,0-.05.06v3.34a.06.06,0,0,0,.05.06h5.83a.15.15,0,0,1,.14.15h0v1.3h0a.14.14,0,0,1-.14.15Z"/><path id="path3" class="cls-3" d="M38.93,31.55H33.51a2.18,2.18,0,0,1-2.36-1.94V26.84a2.18,2.18,0,0,1,2.36-1.95h5.43a.15.15,0,0,1,.15.15h0v1.3a.15.15,0,0,1-.15.15H33.11a.06.06,0,0,0,0,.06v3.34a.06.06,0,0,0,0,.06h5.83a.15.15,0,0,1,.15.15h0v1.3h0a.15.15,0,0,1-.15.15Z"/><path id="path4" class="cls-4" d="M29.26,29H24.42a.09.09,0,0,1-.09-.09v-1.3a.09.09,0,0,1,.09-.09h4.84a.09.09,0,0,1,.09.09v1.3A.09.09,0,0,1,29.26,29Z"/><path id="path5" class="cls-3" d="M15.32,31.8a2.1,2.1,0,0,1-1.77-.88l0,0-3.37-5.79a.11.11,0,0,1,0-.13.14.14,0,0,1,.13-.07h1.78a.17.17,0,0,1,.14.07l3,5.22s0,0,.06,0a.1.1,0,0,0,.08,0L18.7,25a.17.17,0,0,1,.14-.07h1.8a.17.17,0,0,1,.14.07.15.15,0,0,1,0,.13L17.11,30.9a2.07,2.07,0,0,1-1.77.9Z"/><path id="path6" class="cls-3" d="M8.75,31.55H7.13A.15.15,0,0,1,7,31.4V25a.15.15,0,0,1,.15-.15H8.75A.15.15,0,0,1,8.9,25V31.4a.15.15,0,0,1-.15.15Z"/></g></svg>