<svg id="Слой_1" data-name="Слой 1" xmlns="http://www.w3.org/2000/svg" viewBox="0 0 56.69 56.69"><defs><style>.cls-1{fill:#5482a1;}.cls-2{fill:#f49824;}</style></defs><path class="cls-1" d="M22.41,30s-1.4.82,1,1.09A20.79,20.79,0,0,0,31,30.79a13.53,13.53,0,0,0,2,1c-7.2,3.08-16.29-.18-10.64-1.76"/><path class="cls-1" d="M21.53,26s-1.57,1.16.83,1.41a29.74,29.74,0,0,0,9.83-.47,4.18,4.18,0,0,0,1.51.92c-8.7,2.55-18.39.2-12.17-1.86"/><path class="cls-2" d="M29,19.17c1.77,2-.47,3.88-.47,3.88s4.5-2.33,2.44-5.24C29,15.1,27.5,13.75,35.52,9.1c0,0-12.58,3.14-6.57,10.07"/><path class="cls-1" d="M38.47,33s1,.85-1.15,1.52c-4.15,1.26-17.29,1.64-20.94,0C15.07,34,17.53,33.2,18.3,33a4.65,4.65,0,0,1,1.27-.14c-1.46-1-9.43,2-4.05,2.89,14.68,2.38,26.75-1.08,23-2.79"/><path class="cls-1" d="M23.09,21.83S16.41,23.41,20.72,24a50.05,50.05,0,0,0,8.84-.1c2.77-.23,5.54-.73,5.54-.73a12.25,12.25,0,0,0-1.68.9c-6.78,1.79-19.89,1-16.12-.87a12.62,12.62,0,0,1,5.79-1.36"/><path class="cls-1" d="M35.07,28.53c6.9-3.59,3.71-7,1.49-6.57a4.7,4.7,0,0,0-.79.21,1.26,1.26,0,0,1,.59-.45c4.4-1.55,7.79,4.56-1.42,7a.68.68,0,0,0,.13-.18"/><path class="cls-2" d="M30.92,1.59s3.82,3.82-3.63,9.7c-6,4.71-1.36,7.4,0,10.47-3.48-3.15-6-5.91-4.33-8.49,2.52-3.78,9.5-5.61,8-11.68"/><path class="cls-1" d="M23.77,38.24c6.62.42,16.78-.24,17-3.37,0,0-.46,1.19-5.47,2.13a54.57,54.57,0,0,1-16.75.26s.84.7,5.2,1"/><path class="cls-1" d="M22.68,50.21a3,3,0,0,1-1.88.84,1.19,1.19,0,0,1-1.3-1.32c0-.87.49-1.52,2.45-1.52h.73v2m1.72,1.94v-6c0-1.53-.87-2.55-3-2.55a7.86,7.86,0,0,0-3.19.7l.25,1.06a7.53,7.53,0,0,1,2.47-.49c1.22,0,1.74.49,1.74,1.5v.77h-.61c-3,0-4.29,1.14-4.29,2.87,0,1.49.88,2.33,2.53,2.33a3.86,3.86,0,0,0,2.61-1.08l.13.91Z"/><path class="cls-1" d="M30.16,52.15H28l-2.59-8.42H27.3l1.6,5.18.36,1.55a32.61,32.61,0,0,0,1.67-6.73h1.83a34.19,34.19,0,0,1-2.6,8.42"/><path class="cls-1" d="M38.4,50.21a3,3,0,0,1-1.88.84,1.19,1.19,0,0,1-1.3-1.32c0-.87.49-1.52,2.45-1.52h.73v2m1.72,1.94v-6c0-1.53-.87-2.55-3-2.55a7.86,7.86,0,0,0-3.19.7l.25,1.06a7.53,7.53,0,0,1,2.47-.49c1.22,0,1.74.49,1.74,1.5v.77h-.61c-3,0-4.29,1.14-4.29,2.87,0,1.49.88,2.33,2.53,2.33a3.86,3.86,0,0,0,2.61-1.08l.13.91Z"/><path class="cls-1" d="M15.89,53.58a4.52,4.52,0,0,1-2.16,1.61l-.85-1a3.59,3.59,0,0,0,1.5-1.4,5.53,5.53,0,0,0,.32-2.44V40.74h1.83v9.48c0,1.87-.15,2.63-.64,3.36"/></svg>