<svg id="Слой_1" data-name="Слой 1" xmlns="http://www.w3.org/2000/svg" xmlns:xlink="http://www.w3.org/1999/xlink" viewBox="0 0 56.69 56.69"><defs><style>.cls-1{fill:#fff;}.cls-2{fill:url(#Безымянный_градиент_3);}.cls-3{fill:url(#Безымянный_градиент_3-2);}.cls-4{fill:url(#Безымянный_градиент_3-3);}.cls-5{fill:url(#Безымянный_градиент_4);}.cls-6{fill:url(#Безымянный_градиент_5);}</style><linearGradient id="Безымянный_градиент_3" x1="111.3" y1="42.74" x2="118.23" y2="42.74" gradientTransform="matrix(2.05, 0, 0, -2.05, -190.91, 117.02)" gradientUnits="userSpaceOnUse"><stop offset="0" stop-color="#047a40"/><stop offset="0.23" stop-color="#06883f"/><stop offset="0.74" stop-color="#41a837"/><stop offset="1" stop-color="#60b235"/></linearGradient><linearGradient id="Безымянный_градиент_3-2" x1="111.3" y1="43.81" x2="118.22" y2="43.81" xlink:href="#Безымянный_градиент_3"/><linearGradient id="Безымянный_градиент_3-3" x1="111.3" y1="44.99" x2="118.23" y2="44.99" xlink:href="#Безымянный_градиент_3"/><linearGradient id="Безымянный_градиент_4" x1="95.78" y1="43.82" x2="102.82" y2="43.82" gradientTransform="matrix(2.05, 0, 0, -2.05, -190.91, 117.02)" gradientUnits="userSpaceOnUse"><stop offset="0" stop-color="#28306a"/><stop offset="0.48" stop-color="#044f94"/><stop offset="0.83" stop-color="#0a67b1"/><stop offset="1" stop-color="#0f6fb7"/></linearGradient><linearGradient id="Безымянный_градиент_5" x1="103.5" y1="43.8" x2="110.34" y2="43.8" gradientTransform="matrix(2.05, 0, 0, -2.05, -190.91, 117.02)" gradientUnits="userSpaceOnUse"><stop offset="0" stop-color="#6c2c30"/><stop offset="0.17" stop-color="#892730"/><stop offset="0.57" stop-color="#be1a34"/><stop offset="0.86" stop-color="#dc0937"/><stop offset="1" stop-color="#e5083a"/></linearGradient></defs><g id="g6321"><g id="g6323"><path id="path6325" class="cls-1" d="M54.21,39.12a8,8,0,0,1-8,8H2.49V15.34a8,8,0,0,1,8-8H54.21V39.12Z"/><g id="g6327"><path id="path6338" class="cls-2" d="M40,31H43.3l.41,0a1.49,1.49,0,0,0,1.17-1.49A1.52,1.52,0,0,0,43.71,28a1.3,1.3,0,0,0-.41,0H40v3Z"/><path id="path6349" class="cls-3" d="M42.92,10a5.75,5.75,0,0,0-5.75,5.75v6h8.12a3.44,3.44,0,0,1,.57,0c1.84.09,3.19,1,3.19,2.69a2.68,2.68,0,0,1-2.62,2.62v.06c1.87.13,3.29,1.17,3.29,2.79s-1.58,2.87-3.67,2.87H37.14v11.7h8.44a5.75,5.75,0,0,0,5.75-5.75V10Z"/><path id="path6360" class="cls-4" d="M44.47,24.83a1.34,1.34,0,0,0-1.17-1.36c-.06,0-.22,0-.32,0H40v2.79h3c.1,0,.29,0,.32,0A1.34,1.34,0,0,0,44.47,24.83Z"/></g><path id="path6371" class="cls-5" d="M11.12,10a5.75,5.75,0,0,0-5.76,5.75V30a11.38,11.38,0,0,0,5,1.29,2.75,2.75,0,0,0,3.06-2.84V21.7h4.93v6.67c0,2.59-1.61,4.71-7.08,4.71a24.15,24.15,0,0,1-5.91-.73V44.46h8.44a5.76,5.76,0,0,0,5.76-5.76V10Z"/><path id="path6384" class="cls-6" d="M27,10a5.76,5.76,0,0,0-5.76,5.75v7.53c1.46-1.24,4-2,8.07-1.84a26,26,0,0,1,4.52.7v2.43a10.85,10.85,0,0,0-4.37-1.26c-3.09-.22-5,1.29-5,4s1.87,4.2,5,3.95A11.35,11.35,0,0,0,33.85,30v2.43a25.4,25.4,0,0,1-4.52.7c-4.08.19-6.61-.6-8.07-1.84V44.52h8.45a5.75,5.75,0,0,0,5.75-5.75V10Z"/></g></g></svg>