<svg id="Слой_1" data-name="Слой 1" xmlns="http://www.w3.org/2000/svg" viewBox="0 0 56.69 56.69"><defs><style>.cls-1{fill:#444e1d;}</style></defs><path class="cls-1" d="M11.22,17.91h4.24V29.05C15.46,31,14.64,35,8.75,35s-6.54-3.74-6.54-5.84V27.09H6.33v2A2.28,2.28,0,0,0,8.7,31.48a2.25,2.25,0,0,0,2.52-2.33ZM22,22.57c-3.88,0-5.62,3.56-5.62,6.62a5.74,5.74,0,0,0,6,6c3.51.05,5.85-2.24,5.85-3.93H24.37a2,2,0,0,1-1.83,1.1c-1.37,0-2.14-.78-2.14-2.65h7.9c0-5.89-2.92-7.17-6.26-7.17M20.4,27.36c0-1.23.5-2.24,1.92-2.24a2,2,0,0,1,2.1,2.24Zm14.35-4.79c-3.89,0-5.62,3.56-5.62,6.62a5.73,5.73,0,0,0,6,6C38.63,35.27,41,33,41,31.29H37.08a2,2,0,0,1-1.83,1.1c-1.37,0-2.15-.78-2.15-2.65H41c0-5.89-2.93-7.17-6.26-7.17M33.1,27.36c0-1.23.5-2.24,1.92-2.24a2,2,0,0,1,2.1,2.24ZM46,38.79V33.9a2.84,2.84,0,0,0,.55.55,4.31,4.31,0,0,0,3,1c3.15,0,5-2.75,5-6.49,0-4.85-3.06-6.22-5-6.22a3.46,3.46,0,0,0-3,1.24,3.54,3.54,0,0,0-.54.88V23H42V38.79Zm-.09-9.74c0-2.33,1-3.29,2.19-3.29,2,0,2.38,1.56,2.38,3.16s-.28,3.7-2.19,3.7-2.43-1.24-2.38-3.57"/></svg>