<svg id="Слой_1" data-name="Слой 1" xmlns="http://www.w3.org/2000/svg" viewBox="0 0 56.69 56.69"><defs><style>.cls-1{fill:#221f20;}</style></defs><path class="cls-1" d="M6.35,49.43a10.7,10.7,0,0,0,4.91-9V7.27H7.44V40.32a7.41,7.41,0,0,1-1,3.76,7.92,7.92,0,0,1-2.1,2.18Z"/><polygon class="cls-1" points="22.88 39.2 22.88 7.26 19.05 7.26 19.05 42.92 40.45 42.92 38.16 39.2 22.88 39.2"/><path class="cls-1" d="M51.19,17.1A10.11,10.11,0,0,0,41,7.27H30.67V11H41.06a6.09,6.09,0,0,1,6.21,6.12,6.15,6.15,0,0,1-6.21,6.26H30.62v3.72h7.74l9.88,15.84h4.07L42.38,27a9.76,9.76,0,0,0,8.81-9.88"/></svg>