<svg id="Слой_1" data-name="Слой 1" xmlns="http://www.w3.org/2000/svg" viewBox="0 0 56.69 56.69"><defs><style>.cls-1{fill:#010101;}.cls-2{fill:#fff;}</style></defs><path class="cls-1" d="M24.42,27.08a3,3,0,0,0,.92.17v.17H20.72v-.17a3,3,0,0,0,.92-.17.73.73,0,0,0,.44-.4,2.09,2.09,0,0,0,.12-.81v-5.6h0L19,27.59h0l-3.4-7.29h0v5.57a1.89,1.89,0,0,0,.13.81.71.71,0,0,0,.43.4,3,3,0,0,0,.92.17v.17H13.46v-.17a3,3,0,0,0,.92-.17.71.71,0,0,0,.43-.4,1.89,1.89,0,0,0,.13-.81V20.26a1.89,1.89,0,0,0-.13-.81.76.76,0,0,0-.43-.41,3.34,3.34,0,0,0-.92-.16V18.7h3.17L19.52,25l2.81-6.32h3v.18a3.34,3.34,0,0,0-.92.16.77.77,0,0,0-.44.41,2,2,0,0,0-.13.81v5.61a1.89,1.89,0,0,0,.13.81A.73.73,0,0,0,24.42,27.08Zm6.28-4.22a3.54,3.54,0,0,1,0,3.23,2.69,2.69,0,0,1-1.08,1.11,3.42,3.42,0,0,1-3.17,0,2.75,2.75,0,0,1-1.08-1.11,3.46,3.46,0,0,1,0-3.23,2.75,2.75,0,0,1,1.08-1.11,3.42,3.42,0,0,1,3.17,0A2.69,2.69,0,0,1,30.7,22.86Zm-1.25,1.62a6.24,6.24,0,0,0-.17-1.54,2.21,2.21,0,0,0-.49-1,1,1,0,0,0-.76-.33,1,1,0,0,0-.76.33,2.2,2.2,0,0,0-.48,1,5.79,5.79,0,0,0-.17,1.54A5.77,5.77,0,0,0,26.79,26a2.2,2.2,0,0,0,.48,1,1,1,0,0,0,.76.33,1,1,0,0,0,.76-.33,2.21,2.21,0,0,0,.49-1A6.21,6.21,0,0,0,29.45,24.48Zm5.9-1.77a1.44,1.44,0,0,1,.59.11V21.44a.94.94,0,0,0-.39-.07,1.3,1.3,0,0,0-1,.5,3.51,3.51,0,0,0-.75,1.51h0v-2h0l-2.48.71v.16a2.27,2.27,0,0,1,.66.08.64.64,0,0,1,.33.27,1,1,0,0,1,.1.49v3.12a1.65,1.65,0,0,1-.07.57.48.48,0,0,1-.28.28,1.87,1.87,0,0,1-.64.15v.17h3.49v-.17a2.62,2.62,0,0,1-.66-.13.59.59,0,0,1-.31-.29,1.49,1.49,0,0,1-.08-.58V23.78A1.7,1.7,0,0,1,35.35,22.71Zm18.3,4.11a1.78,1.78,0,0,1-.07-.59V23.37c0-1.34-.75-2-1.72-2A2.37,2.37,0,0,0,50,22.42h0v-1h-.05l-2.48.71v.16a2.2,2.2,0,0,1,.65.08.61.61,0,0,1,.34.26,1,1,0,0,1,.1.49v3.11a1.68,1.68,0,0,1-.07.58.53.53,0,0,1-.28.29,2.14,2.14,0,0,1-.64.15v.17h3.26v-.17a1.71,1.71,0,0,1-.52-.15.46.46,0,0,1-.24-.29,1.71,1.71,0,0,1-.07-.58V22.88a1.52,1.52,0,0,1,1.18-.69c.76,0,1,.57,1,1.22v2.82a2,2,0,0,1-.06.58.54.54,0,0,1-.24.29,1.63,1.63,0,0,1-.52.15v.17h3.22v-.17a2,2,0,0,1-.61-.15A.53.53,0,0,1,53.65,26.82Zm-44-3.2v2.25a1.77,1.77,0,0,0,.15.81.85.85,0,0,0,.5.4,4,4,0,0,0,1.07.17v.17H6.52v-.17a3,3,0,0,0,.92-.17.74.74,0,0,0,.43-.4A2.06,2.06,0,0,0,8,25.87V20.3c0-1.15-.52-1.38-1.31-1.38s-1.39.23-1.39,1.34v6.23a2.62,2.62,0,0,1-2.72,2.75l-.42,0v-.15a1.58,1.58,0,0,0,1-.44,2,2,0,0,0,.44-1.47v-6.9a2.16,2.16,0,0,0-.12-.81A.81.81,0,0,0,3.08,19a3.5,3.5,0,0,0-.92-.16V18.7h8.57c1.95,0,3.16,1,3.16,2.45,0,1.69-1.65,2.47-3.13,2.47Zm0-.33h.6c1,0,1.87-.6,1.87-2.13,0-1.86-1.23-2.12-1.84-2.12H9.65Zm37.27,3.63a.94.94,0,0,0,.51-.17v.3a1.86,1.86,0,0,1-1.31.53A1.12,1.12,0,0,1,45,26.71h0a1.94,1.94,0,0,1-1.57.91,1.39,1.39,0,0,1-1.47-1.43c0-.67.46-1.12,1.22-1.39L45,24.15V23.3a1.07,1.07,0,0,0-1.16-1.11,2.37,2.37,0,0,0-1.76.86l-.18-.17a2.92,2.92,0,0,1,2.53-1.52,1.9,1.9,0,0,1,2,1.94l0,3C46.41,26.73,46.58,26.92,46.92,26.92Zm-2-2.38-.73.3c-.57.22-.93.48-.93,1.08a.82.82,0,0,0,.85.86,1.26,1.26,0,0,0,.81-.42V24.54Zm-4.53-2.76a2,2,0,0,1,.77,1.53c0,1.35-1.15,2.05-2.47,2.05a3.46,3.46,0,0,1-1-.14.68.68,0,0,0-.32.5c0,.43.7.51,1.12.54l1.42.09c1.15.08,1.87.48,1.87,1.5,0,1.29-1.52,2.36-3.74,2.36-1.29,0-2.21-.44-2.21-1.23s.37-1.07,1.34-1.54a.91.91,0,0,1-.78-.93c0-.5.45-1,1.06-1.38a1.9,1.9,0,0,1-1.24-1.82c0-1.35,1.15-2,2.46-2a2.91,2.91,0,0,1,1.46.35,2,2,0,0,1,1.8-1.2v1.15A1.87,1.87,0,0,0,40.44,21.78Zm-3.51,6.66c0,.71.81,1,1.86,1s2.37-.45,2.37-1.18c0-.41-.23-.51-.85-.56l-2.46-.18-.39-.05A1.12,1.12,0,0,0,36.93,28.44Zm2.76-5.13c0-1.15-.38-1.7-.95-1.7s-.94.55-.94,1.7.38,1.71.94,1.71S39.69,24.47,39.69,23.31Z"/><path class="cls-1" d="M54.24,35.94a3.12,3.12,0,0,1-2.78,2,3,3,0,0,1-2.9-3.24A3.54,3.54,0,0,1,49,33a3.15,3.15,0,0,1,1.09-1.22,2.68,2.68,0,0,1,1.51-.45A2.24,2.24,0,0,1,54,33.65v.27H50V34c0,1.41.62,2.77,2.2,2.77a2.25,2.25,0,0,0,1.91-.91Z"/><path class="cls-2" d="M50,33.47H52.5c0-1-.3-1.81-1.09-1.81S50.14,32.34,50,33.47Z"/><path class="cls-1" d="M36.59,37.14a1.94,1.94,0,0,1-.08-.62v-3a2.74,2.74,0,0,0-.23-1.17,1.63,1.63,0,0,0-.65-.72,1.83,1.83,0,0,0-.94-.24,1.94,1.94,0,0,0-1.09.32,3.41,3.41,0,0,0-.89.89h0V28.22h0L30,29v.17a2.14,2.14,0,0,1,.69.09.64.64,0,0,1,.36.27,1.09,1.09,0,0,1,.11.52v6.49a1.83,1.83,0,0,1-.08.61.55.55,0,0,1-.29.31,2.16,2.16,0,0,1-.68.15v.19h3.46v-.19a1.53,1.53,0,0,1-.55-.15.5.5,0,0,1-.26-.31,1.88,1.88,0,0,1-.07-.61V33a1.62,1.62,0,0,1,1.25-.73.94.94,0,0,1,.77.33,1.39,1.39,0,0,1,.28,1v3a1.88,1.88,0,0,1-.07.61.56.56,0,0,1-.25.31,1.53,1.53,0,0,1-.56.15v.19h3.43v-.19a1.94,1.94,0,0,1-.65-.15A.6.6,0,0,1,36.59,37.14Z"/><path class="cls-1" d="M26.92,37.21c-2,0-3.51-1.57-3.51-4.13s1.45-4.28,3.1-4.28,2.37,1.49,2.74,3h.26v-2.7a6.41,6.41,0,0,0-3.13-.73,4.86,4.86,0,0,0-5,4.89A4.59,4.59,0,0,0,26.26,38a4.44,4.44,0,0,0,3.48-1.82l-.19-.2A3.35,3.35,0,0,1,26.92,37.21Z"/><path class="cls-1" d="M46.69,34.08l-.92-.44c-.61-.27-1-.63-1-1.08s.46-.84,1.1-.84c.94,0,1.43.52,1.63,1.67h.28V31.71a5.44,5.44,0,0,0-1.75-.36,2.11,2.11,0,0,0-2.35,2A1.87,1.87,0,0,0,44,34.41a2.75,2.75,0,0,0,1,.79l1,.48c.66.3.92.59.92,1s-.4.87-1.15.87c-1.09,0-1.61-1-1.75-1.87h-.28v1.71a3.94,3.94,0,0,0,1.93.52A2.15,2.15,0,0,0,48,35.88,1.86,1.86,0,0,0,46.69,34.08Z"/><path class="cls-1" d="M42.86,37.25a1,1,0,0,0,.54-.18v.32A2,2,0,0,1,42,38,1.19,1.19,0,0,1,40.82,37h0a2.09,2.09,0,0,1-1.67,1,1.47,1.47,0,0,1-1.56-1.51c0-.72.49-1.19,1.3-1.48l1.93-.69v-.9a1.14,1.14,0,0,0-1.23-1.19,2.59,2.59,0,0,0-1.88.92L37.5,33a3.1,3.1,0,0,1,2.68-1.61,2,2,0,0,1,2.16,2.06l0,3.19C42.31,37.05,42.5,37.25,42.86,37.25Z"/><path class="cls-2" d="M40.78,34.72,40,35c-.6.23-1,.51-1,1.15a.87.87,0,0,0,.9.91,1.3,1.3,0,0,0,.87-.45V34.72Z"/></svg>