<svg id="Слой_1" data-name="Слой 1" xmlns="http://www.w3.org/2000/svg" viewBox="0 0 56.69 56.69"><defs><style>.cls-1{fill:#010101;}</style></defs><path class="cls-1" d="M54.42,22c-4,0-4.19,1.8-4.19,4.34v6.25h1V26.29c0-1.91-.08-3.45,3.24-3.45a9.15,9.15,0,0,1,1,.05V22A9.59,9.59,0,0,0,54.42,22Z"/><path class="cls-1" d="M7.5,28.47V22.16h1v6.33c0,1.83,0,3.36,3.32,3.36S15,30.32,15,28.4V22.16H16V28.4c0,2.54-.17,4.34-4.19,4.34S7.5,30.94,7.5,28.47Z"/><path class="cls-1" d="M26.07,26.22v6.32h-1V26.2c0-1.82,0-3.36-3.32-3.36s-3.24,1.54-3.24,3.45v6.25h-.95V26.29c0-2.54.17-4.34,4.19-4.34S26.07,23.75,26.07,26.22Z"/><path class="cls-1" d="M27.83,22.18h.93V32.54h-.93Z"/><path class="cls-1" d="M30.5,22.18h4.85c2.4,0,3.5,1.19,3.5,3.32s-1.08,3.44-3.51,3.44H31.43v3.6H30.5ZM35.36,28a2.19,2.19,0,0,0,2.51-2.46c0-1.65-.9-2.43-2.55-2.43H31.43V28Z"/><path class="cls-1" d="M39.93,27.32c0-3.06.87-5.41,4.78-5.41s4.17,2.71,4.15,5.58h-8c0,2.52.64,4.4,3.92,4.4a4.93,4.93,0,0,0,3.4-1.1l.53.7a6.11,6.11,0,0,1-3.93,1.25C40.69,32.74,39.93,30.37,39.93,27.32Zm1-.7h7c-.09-2.07-.22-3.84-3.24-3.84S41,24.36,40.88,26.62Z"/><path class="cls-1" d="M1.68,34.78c4,0,4.19-1.8,4.19-4.34V22.16h-1v8.28c0,1.91.08,3.45-3.24,3.45H1.32v.9Z"/></svg>