<svg id="Слой_1" data-name="Слой 1" xmlns="http://www.w3.org/2000/svg" viewBox="0 0 56.69 56.69"><defs><style>.cls-1{fill:#242755;}</style></defs><g id="layer1"><path id="path76" class="cls-1" d="M13.49,20h6.12l-6.56,8.31L17,36.65H10.87l-3.5-8.3Z"/><path id="path78" class="cls-1" d="M49.32,20,46.7,36.65h5.24L54.57,20Z"/><path id="path80" class="cls-1" d="M34.2,20h6.56s4.22.12,6.11,2,2.37,2.45,2,6.3-1.35,4.6-3.5,6.29-5.86,2-5.86,2h-8L34.2,20l4.63,4.37-1.31,7.87h2.36A6.34,6.34,0,0,0,42.16,31a3.28,3.28,0,0,0,1.39-2.62,3.21,3.21,0,0,0-1-2.89A3.35,3.35,0,0,0,41,24.41H34.2Z"/><path id="path82" class="cls-1" d="M4.75,20,2.13,36.65H7.37L10,20Z"/><path id="path84" class="cls-1" d="M18.73,20h6.56s4.22.12,6.12,2,2.36,2.45,2,6.3-1.35,4.6-3.5,6.29-5.86,2-5.86,2H16.11L18.73,20l4.63,4.37-1.31,7.87h2.36A6.34,6.34,0,0,0,26.69,31a3.28,3.28,0,0,0,1.39-2.62,3.21,3.21,0,0,0-1-2.89,3.35,3.35,0,0,0-1.57-1.05H18.73V20Z"/></g></svg>