<svg id="Слой_1" data-name="Слой 1" xmlns="http://www.w3.org/2000/svg" viewBox="0 0 56.69 56.69"><defs><style>.cls-1{fill:#010101;}</style></defs><path class="cls-1" d="M32.59,33.15q0,.15.09.15a.21.21,0,0,0,.13,0l16.5-10.71a1.61,1.61,0,0,1,.95-.28h3.63a.88.88,0,0,1,.93.92v6.93a1.75,1.75,0,0,1-.93,1.77l-4.4,2.64a.35.35,0,0,1-.14.06c-.06,0-.11,0-.11-.2V26.3c0-.09,0-.16-.09-.16a.31.31,0,0,0-.13.06L37,34a1.58,1.58,0,0,1-.92.28H28a.88.88,0,0,1-.93-.93v-10c0-.07,0-.14-.1-.14a.18.18,0,0,0-.12,0l-8,4.77c-.08.06-.1.09-.1.13s0,.06.07.12L24.59,34c.07.08.12.14.12.2s-.08.09-.18.09H19.39a1.24,1.24,0,0,1-.93-.27L15,30.59a.21.21,0,0,0-.1-.06l-.11,0L9,34a1.54,1.54,0,0,1-.93.27H2.81a.88.88,0,0,1-.94-.92v-6.8a1.73,1.73,0,0,1,.93-1.76l4.43-2.67a.27.27,0,0,1,.12,0c.07,0,.11.06.11.22v9.1c0,.09,0,.13.09.13a.24.24,0,0,0,.13-.05l15-9a1.62,1.62,0,0,1,1-.27h8.05a.88.88,0,0,1,.93.93v10Z"/></svg>