<svg id="Слой_1" data-name="Слой 1" xmlns="http://www.w3.org/2000/svg" viewBox="0 0 56.69 56.69"><defs><style>.cls-1{fill:#f4991a;}</style></defs><path class="cls-1" d="M10.17,36.44l-4.7-5.7h0v5.7H3.75V20H5.44v9.32h0l4-3.87h2.2L6.88,30l5.45,6.49Z"/><path class="cls-1" d="M14.3,23.17A1.18,1.18,0,1,1,15.48,22,1.19,1.19,0,0,1,14.3,23.17Zm-.84,13.27v-11h1.69v11Z"/><path class="cls-1" d="M24.66,36.44V29.69c0-1.37-.23-2.9-1.9-2.9a5.65,5.65,0,0,0-3.4,1.67v8h-1.7v-11h1.39l.24,1.32a6.28,6.28,0,0,1,3.91-1.6c1.58,0,3.16,1.14,3.16,3.88v7.37Z"/><path class="cls-1" d="M33.82,36.67c-3.06,0-5.63-1.78-5.63-5.56a5.65,5.65,0,0,1,5.65-5.92,6.81,6.81,0,0,1,1.79.19V20h1.69V35.88A7.27,7.27,0,0,1,33.82,36.67ZM35.63,27a4.21,4.21,0,0,0-5.73,4c0,2.48,1.37,4.24,4.22,4.24A4,4,0,0,0,35.63,35Z"/><path class="cls-1" d="M41.72,36.67a1.79,1.79,0,0,1-1.92-2V20h1.69V33.89c0,1,.26,1.25.91,1.25a2.21,2.21,0,0,0,.58-.07l.2,1.23A2.91,2.91,0,0,1,41.72,36.67Z"/><path class="cls-1" d="M45.92,31.25c0,2.08,1.2,4,3.57,4a5.16,5.16,0,0,0,2.66-.81l.54,1.2a6.62,6.62,0,0,1-3.41,1.07c-3.5,0-5.17-2.8-5.17-5.94s1.81-5.54,4.45-5.54c2.83,0,4.38,2.25,4.38,5.66v.4Zm2.66-4.62c-1.62,0-2.64,1.44-2.64,3.18h5.17C51.11,28.28,50.25,26.63,48.58,26.63Z"/></svg>