<svg id="Слой_1" data-name="Слой 1" xmlns="http://www.w3.org/2000/svg" viewBox="0 0 56.69 56.69"><defs><style>.cls-1{fill:#29327f;}</style></defs><path class="cls-1" d="M51.35,50a3.66,3.66,0,0,1-2.46-.78,2.83,2.83,0,0,1-.93-2.3V42.24h3v4.67a.42.42,0,0,0,.4.41.44.44,0,0,0,.41-.41V42.24h3v4.67a2.87,2.87,0,0,1-.94,2.3A3.8,3.8,0,0,1,51.35,50ZM13.62,50A4,4,0,0,1,9.7,46a3.94,3.94,0,1,1,7.87-.16V46a4,4,0,0,1-1.15,2.83A3.93,3.93,0,0,1,13.62,50Zm0-5.13A1.14,1.14,0,1,0,14.74,46v0A1.12,1.12,0,0,0,13.62,44.86ZM44,50a6,6,0,0,1-3.24-1l.84-2a5.2,5.2,0,0,0,2.09.81.92.92,0,0,0,.28,0,.3.3,0,0,0,.25-.31.35.35,0,0,0-.22-.34,3.22,3.22,0,0,0-.5-.16,2.77,2.77,0,0,1-2-1.27A2.38,2.38,0,0,1,42,42.77a3.63,3.63,0,0,1,2.3-.81h.16a5.27,5.27,0,0,1,2.64.84l-.84,2a4.51,4.51,0,0,0-1.77-.66c-.25,0-.38.1-.41.28s.25.38.72.5a5.23,5.23,0,0,1,1.15.4,2.42,2.42,0,0,1,.12,4A3.35,3.35,0,0,1,44,50Zm-39-.28H1.89V42.28H4.94v3.6l1.61-3.6H10L8.27,45.92l1.83,3.79H6.65L4.94,45.92Zm15.55,0H17.75l1.12-7.43h2.77l.94,3,.93-3h2.77l1,7,2.37-7h3l2.55,7.43H32.06l-.9-3.51-.9,3.51H24.6l-.41-2.83-.77,2.83H21.64l-.78-2.83Zm18.67,0h-3V45H34.34V42.28h4.79V39.91H42v3H39.13Z"/><polygon class="cls-1" points="34.34 40.29 23.89 40.29 23.89 24.29 17.81 24.29 17.81 14.8 34.24 14.8 34.24 6.69 43.94 6.69 43.94 16.83 34.24 16.83 34.34 40.29"/></svg>