<svg id="Слой_1" data-name="Слой 1" xmlns="http://www.w3.org/2000/svg" viewBox="0 0 56.69 56.69"><defs><style>.cls-1{fill:#223a78;stroke:#fff;stroke-miterlimit:123.79;stroke-opacity:0;stroke-width:0.1px;}</style></defs><path id="path5037" class="cls-1" d="M43.21,17.7V28.32l-.13.12-.14.11-.13.12-.12.11-.12.12-.12.12-.11.13-.12.12V17.7H30.35v9.67h-1V17.7H17.5v9.69h-1V17.7H4.64v11l-3,10H4.27l1.34-4.43H6l2.21,4.43h3.22L9.28,34.32h4.87L12.8,38.75h2.91L17,34.33h7.12l-1.28,4.42h2.93l1.25-4.42h1.32l0,4.42h2.47l2.82-4.42h1.86l-1,4.42h2.89l.94-4.42H40.1v.76l0,.24,0,.12v.12l0,.12,0,.11,0,.12,0,.11,0,.12,0,.11,0,.11,0,.11.05.1,0,.1,0,.11.05.1.06.09.06.11.06.09.07.09.06.1.08.08.07.09.07.08.09.09.08.07.11.09.11.09.11.09.12.08.12.07.12.08.12.06.13.07.12.05.13.06.13.05.14,0,.14,0,.13,0,.14,0,.13,0,.27.06.28,0,.27,0,.27,0,.27,0h1.41l.33,0,.33,0,.34,0,.33,0,.33,0,.34,0,.34,0,.33-.05.34-.06.34,0,.34-.06.34-.07.34-.07.34-.08,1-4h3.29V17.7ZM5.74,33.91l0-.06,0,.06Zm10.34-6-.17.57-1.58,5.2-.06.19H9.08l-.4-.85,5.59-5.67H10.68L6.3,32.06l1.42-4.67H5.06V18.12h11V28Zm3.07,4.4H17.7l.33-1.2.15-.59.37-1.4h1.36l.3,0h.27l.12,0,.11,0h.11l.09,0,.09,0,.08,0,.07,0,.06,0,.06.05,0,.05,0,0,0,0,0,.05v.48l0,.09,0,.09-.05.19-.06.21-.06.18-.07.17-.07.16L21,31.4l0,.06,0,.07,0,.07-.05.06-.05.06-.05.06-.05,0-.06.05-.06.05-.07.05-.06,0-.08,0-.07,0-.08,0-.08,0-.08,0-.09,0-.1,0-.1,0-.1,0h-.11l-.12,0h-.24Zm8,1.56,1.16-4.09,0,4.09Zm1.76-6.54H26.18l-1.89,6.54H21.36l.14-.06.13-.05.13-.06.13-.06.13-.06.12-.08.11-.06.12-.08.11-.07.11-.08.1-.08.1-.09.1-.08.09-.1.09-.09.08-.1.09-.09.08-.11.07-.1.07-.11.07-.11.06-.12.06-.11.06-.13.06-.12.05-.12,0-.13.05-.14,0-.13,0-.14,0-.14,0-.14,0-.22,0-.22,0-.2,0-.19V29.4l0-.16,0-.15,0-.15,0-.14L24,28.67l-.07-.13-.06-.13-.08-.12-.09-.11-.08-.08L23.52,28,23.44,28l-.08-.06-.09-.06-.09,0-.1-.05-.1-.05-.1,0-.1,0-.11,0-.1,0-.12,0-.11,0-.11,0h-.12l-.24,0h-.25l-.25,0H17.92V18.12h11v9.25Zm6.69,6.54H34L36.49,30Zm6.16-6.35v2.26l-.14.2-.13.2-.13.2-.12.2-.11.21L41,31l-.09.2-.1.21-.09.19-.08.2-.08.2-.07.19-.06.19,0,.18-.05.18,0,.18,0,.12,0,.12,0,.12,0,.12,0,.12,0,.12v.24H38.53l1.38-6.52H35.24l-4.17,6.53h-.3V18.12h11v9.44Zm6.36,9-.23,0-.24,0-.23,0-.24,0-.23,0-.23,0h-.89l-.14,0-.13,0-.13,0-.13,0-.13,0-.11,0-.12,0-.12,0-.1-.05-.11-.06-.1-.06-.1-.07-.09-.06-.09-.08L44.18,36l-.08-.08-.07-.1L44,35.75l-.06-.11-.06-.1-.05-.11,0-.12,0-.13,0-.13,0-.13,0-.14v-.15l0-.15v-.16h5.14l-.57,2.26Zm6.52-2.67H51.89l.46-1.83H46.78l-.46,1.83H43.63v-.38l0-.15,0-.16,0-.17,0-.17.05-.18,0-.18.06-.19.06-.18.07-.18.07-.18.08-.17.08-.17.09-.18.09-.16.09-.17.11-.15.11-.16.11-.15.12-.15.12-.14.13-.13.13-.12.14-.13.14-.12.15-.1.16-.1.15-.09.17-.09.17-.07.17-.07.18-.06.19,0,.19,0,.2,0,.2,0H48l.17,0,.16,0,.16,0,.08,0,.07,0,.08,0,.06,0,.07,0,.07,0,.06,0,.06,0,.06.05.06,0,.05.05,0,.06,0,.06,0,.06,0,.08,0,.07,0,.08,0,.08,0,.09,0,.09v.41h3.32l0-.23,0-.26,0-.14v-.62l0-.17,0-.08V29l0-.08,0-.09,0-.09,0-.08,0-.08,0-.09,0-.08,0-.09-.06-.08,0-.08L52.42,28l-.07-.09-.08-.08-.08-.08-.08-.08L52,27.62l-.09-.07-.1-.07-.1-.06-.1-.06-.11-.05-.11-.06-.11-.05-.12-.05-.13,0-.12,0-.12,0-.14,0-.13,0-.14,0-.14,0-.14,0-.15,0-.15,0-.31,0-.32,0H47.72l-.29,0-.29,0-.31,0-.31.05L46.2,27l-.15,0-.17,0-.16,0-.16,0-.16.05-.17.05-.16.06-.16.06-.16.07-.17.07-.15.07-.17.08-.16.09-.15.09-.16.09-.16.1V18.12h11V33.91Z"/></svg>