<svg id="Слой_1" data-name="Слой 1" xmlns="http://www.w3.org/2000/svg" viewBox="0 0 56.69 56.69"><defs><style>.cls-1{fill:#4190ce;}.cls-1,.cls-2,.cls-3,.cls-4{fill-rule:evenodd;}.cls-2{fill:#fcc12a;}.cls-3{fill:#e94b28;}.cls-4{fill:#010101;}.cls-5{fill:none;stroke:#010101;stroke-miterlimit:2.61;stroke-width:1.46px;}</style></defs><g id="g3"><path id="path7" class="cls-1" d="M37.94,15.8s20.37,26.35,4.37,15.09c0,0-8.07-6.76-12.37-9.46,0,0-15.26,34.39-5.92-1.43,0,0-32.52-4.35-.15-5.78,0,0-9.33-12.92,6.67-2.25,0,0,26.22-18.4,7,3.68l.44.15Z"/><path id="path9" class="cls-2" d="M20.61,22.4a2.12,2.12,0,0,1-2.3,1.88,2,2,0,0,1-2.22-1.88,2,2,0,0,1,2.22-1.8,2.12,2.12,0,0,1,2.3,1.8Z"/><path id="path11" class="cls-3" d="M19.65,31c0,2.26-1.48,4.13-3.26,4.13S13.13,33.22,13.13,31s1.41-4.05,3.26-4.05,3.26,1.8,3.26,4.05Z"/><path id="path13" class="cls-4" d="M11.43,50.34c0,.75.07.9,1,1v.38H9.06v-.38c.81-.07.88-.22.88-1v-7c0-.82,0-.82-.88-.9v-.37a17.6,17.6,0,0,0,2.37-.53v8.79Z"/><path id="path15" class="cls-4" d="M15.57,50.49a2.72,2.72,0,0,1-1,.45c-.37,0-.81-.38-.81-1.13a1.05,1.05,0,0,1,.66-1.05c.22-.15.82-.45,1.11-.6v2.33Zm2.3.22a1.48,1.48,0,0,1-.52.23c-.22,0-.44-.23-.44-.83V47a1.41,1.41,0,0,0-.6-1.35,1.73,1.73,0,0,0-1.18-.37,7,7,0,0,0-2.37,1,.78.78,0,0,0-.37.67.65.65,0,0,0,.66.6c.23,0,.45-.07.45-.3a2.38,2.38,0,0,1,.52-1,.56.56,0,0,1,.52-.22c.66,0,1,.37,1,1.2v.37a11.31,11.31,0,0,1-2.29,1,1.57,1.57,0,0,0-1,1.5,1.73,1.73,0,0,0,1.7,1.73,6.14,6.14,0,0,0,1.63-.9,1.06,1.06,0,0,0,1,.9L18,51.09l-.15-.38Z"/><path id="path17" class="cls-4" d="M27.8,44.1c-.52-1.8-1.49-2.4-3-2.4-2.52,0-3.7,2.18-3.7,4.58,0,2.93,1.41,5,3.7,5,1.71,0,2.52-.9,3.34-2.56l.44.08c-.22.75-.59,2-.81,2.63a11.36,11.36,0,0,1-3,.52c-4.07,0-5.7-2.78-5.7-5.25,0-3.31,2.52-5.56,6-5.56a12.82,12.82,0,0,1,2.81.38c.15.9.23,1.65.3,2.55l-.44.07Z"/><path id="path19" class="cls-4" d="M32.17,50.19a1.61,1.61,0,0,1-1,.45c-.29,0-.74-.3-.74-1a1,1,0,0,1,.59-1,8.1,8.1,0,0,1,1.12-.53v2.11Zm2.14.3a1.41,1.41,0,0,1-.51.15c-.15,0-.38-.23-.38-.75V47a1.53,1.53,0,0,0-.51-1.28,2.08,2.08,0,0,0-1.19-.37,6.76,6.76,0,0,0-2.22,1c-.3.22-.45.37-.45.6s.45.6.74.6.38-.15.38-.3a2.24,2.24,0,0,1,.44-1,.91.91,0,0,1,.59-.3c.6,0,1,.38,1,1.2v.38c-.45.22-1.56.67-2.23.9a1.44,1.44,0,0,0-1,1.43,1.61,1.61,0,0,0,1.63,1.65c.3,0,1-.53,1.56-.83a1,1,0,0,0,1,.83l1.33-.75-.15-.3Z"/><path id="path21" class="cls-4" d="M36.61,50.11c0,.75.15.83.89.9v.38h-3V51c.82-.07.89-.15.89-.9V47.18c0-.75-.07-.82-.81-.9V46a10.74,10.74,0,0,0,2.07-.45v4.58Zm.15-6.76a.82.82,0,1,1-1.63,0,.82.82,0,1,1,1.63,0Z"/><path id="path23" class="cls-4" d="M43.28,46v.3a1.66,1.66,0,0,0-1.49.75c-.07.15-.44.6-.88,1.2l1.26,1.88c.44.75.66.83,1.33.9v.38h-3V51l.37-.07c.22,0,.22-.15.07-.45l-.81-1.21-.75,1.21c-.22.37-.14.45,0,.45l.38.07v.38H37.5V51a1.6,1.6,0,0,0,1.41-.82c.29-.3.59-.83,1-1.36L38.76,47c-.37-.6-.52-.67-1.11-.75V46h2.66v.3l-.29.08c-.22,0-.22.15-.08.37l.67,1.05a3.77,3.77,0,0,0,.67-1c.22-.3.29-.45,0-.45l-.3-.08V46Z"/><path id="path25" class="cls-4" d="M46.83,50.26a1.4,1.4,0,0,1-1,.45,1,1,0,0,1-.82-1.12,1.23,1.23,0,0,1,.67-1.06c.3-.15.82-.37,1.11-.52v2.25Zm2.37.3a2,2,0,0,1-.59.15c-.22,0-.37-.22-.37-.82v-3a1.67,1.67,0,0,0-.59-1.42,2.07,2.07,0,0,0-1.26-.3,4.7,4.7,0,0,0-2.3,1.05.91.91,0,0,0-.44.6.73.73,0,0,0,.74.67.47.47,0,0,0,.44-.37,1.69,1.69,0,0,1,.45-1,1,1,0,0,1,.59-.23c.59,0,1,.38,1,1.28v.37c-.44.23-1.55.68-2.22,1A1.51,1.51,0,0,0,43.5,50a1.75,1.75,0,0,0,1.78,1.73,14.11,14.11,0,0,0,1.63-.9,1.1,1.1,0,0,0,1,.9l1.48-.83-.15-.3Z"/><path id="path27" class="cls-4" d="M51.94,42.15a2.44,2.44,0,0,1,.08.9,5,5,0,0,1-1.19,2h-.44a2.16,2.16,0,0,0,.44-1.95c-.07-.6-.44-.75-.52-1.13a.47.47,0,0,1,.15-.52.73.73,0,0,1,.59-.23.67.67,0,0,1,.52.23,1.9,1.9,0,0,1,.37.67Z"/><path id="path29" class="cls-4" d="M49.72,42.08a1.3,1.3,0,0,1,.07,1,4.47,4.47,0,0,1-1.18,2h-.37a2.87,2.87,0,0,0,.44-1.95c-.14-.6-.52-.83-.59-1.13s.08-.45.15-.6a.83.83,0,0,1,.59-.22.57.57,0,0,1,.52.22,1.86,1.86,0,0,1,.37.68Z"/><path id="path31" class="cls-4" d="M8.46,42.45a1.31,1.31,0,0,1,.08,1,4.44,4.44,0,0,1-1.12,2H7a2.27,2.27,0,0,0,.44-2c-.07-.6-.51-.82-.59-1.2a.84.84,0,0,1,.22-.52.68.68,0,0,1,.52-.23.74.74,0,0,1,.6.23,1.17,1.17,0,0,1,.29.67Z"/><path id="path33" class="cls-4" d="M6.31,42.45a2.72,2.72,0,0,1,.08.9,5,5,0,0,1-1.19,2H4.76a2.4,2.4,0,0,0,.52-1.88c-.15-.67-.52-.82-.6-1.2a.47.47,0,0,1,.15-.52.74.74,0,0,1,.6-.23.65.65,0,0,1,.51.23,1.9,1.9,0,0,1,.37.67Z"/><line id="line35" class="cls-5" x1="9.43" y1="38.62" x2="48.91" y2="38.62"/></g></svg>