<svg id="Слой_1" data-name="Слой 1" xmlns="http://www.w3.org/2000/svg" xmlns:xlink="http://www.w3.org/1999/xlink" viewBox="0 0 56.69 56.69"><defs><style>.cls-1{fill:url(#Безымянный_градиент_3);}.cls-2{fill:url(#Безымянный_градиент_2);}</style><linearGradient id="Безымянный_градиент_3" x1="5.41" y1="4.7" x2="51.29" y2="4.7" gradientTransform="matrix(1, 0, 0, -1, 0, 33.04)" gradientUnits="userSpaceOnUse"><stop offset="0.1" stop-color="#080809"/><stop offset="0.5" stop-color="#202020"/><stop offset="0.9" stop-color="#080809"/></linearGradient><linearGradient id="Безымянный_градиент_2" x1="10.22" y1="30.51" x2="46.47" y2="-5.74" gradientTransform="matrix(1, 0, 0, -1, 0, 33.04)" gradientUnits="userSpaceOnUse"><stop offset="0" stop-color="#ccb781"/><stop offset="0.3" stop-color="#dcd6c6"/><stop offset="0.6" stop-color="#b6a272"/><stop offset="1" stop-color="#ccb06e"/></linearGradient></defs><path class="cls-1" d="M28.35,54.19a3.5,3.5,0,0,1-2.1-.84A49.49,49.49,0,0,1,11.08,36.09,48.72,48.72,0,0,1,6.89,24.38,65.25,65.25,0,0,1,5.41,10.06,5.23,5.23,0,0,1,5.9,7.48,3.57,3.57,0,0,1,7.64,6a43,43,0,0,1,9-2.55,67.63,67.63,0,0,1,11.73-1,67.52,67.52,0,0,1,11.72,1A42.52,42.52,0,0,1,49,6a3.56,3.56,0,0,1,1.75,1.44,5.21,5.21,0,0,1,.5,2.58,65.86,65.86,0,0,1-1.48,14.32,48.74,48.74,0,0,1-4.2,11.71A49.41,49.41,0,0,1,30.46,53.34a3.55,3.55,0,0,1-2.11.85Z"/><path class="cls-2" d="M43.22,29.78l-.37.17a1.53,1.53,0,0,1-1.5-.11A3.59,3.59,0,0,1,40.5,29a4.19,4.19,0,0,0-.43-.47,2.18,2.18,0,0,0-1.61-.5.41.41,0,0,1-.19,0,7.31,7.31,0,0,0-3.57-.89c-.26,0-.3-.18-.39-.4a4.7,4.7,0,0,0-.59-1.19.65.65,0,0,0-.47-.35.73.73,0,0,1-.54-.3s-.08-.15,0-.23.68-.5-.07-.92c-.45-.25-.25-.42-.17-.45a.75.75,0,0,1,.5-.06,1.33,1.33,0,0,1,.71.46,19.46,19.46,0,0,1,1.55,2.61.12.12,0,0,0,.11.1l.43,0a.07.07,0,0,0,.07-.08C35.12,23.93,34.31,21,32.9,19c0-.06,0-.12.09-.11,1.26.13,1.62,1.92,2.36,3.1.95,1.51,1.5.92,1.59-.1a2.83,2.83,0,0,0-.62-2.13c-.12-.14-.33-.33-.41-.43a.08.08,0,0,1,.05-.13h.15a2.68,2.68,0,0,1,1.73,1,2.42,2.42,0,0,1,.54,2,2.63,2.63,0,0,0-.09,2c.75,2.05.56,1.62.13,2.9a.11.11,0,0,0,.11.17,2.14,2.14,0,0,1,1.49.24l0,0s0-.06.06-.13a1.73,1.73,0,0,0-.16-1.1,2.74,2.74,0,0,1-.18-.62,1,1,0,0,1,.08-.62A1.63,1.63,0,0,0,40,24.06a19.27,19.27,0,0,0-1.71-3.92c0-.09-.43-.83-.5-.93a.29.29,0,0,1,0-.24,1.22,1.22,0,0,0,.07-.17,3.57,3.57,0,0,0,.25-.91,2.28,2.28,0,0,0-.83-2.26,5.06,5.06,0,0,0-3.38-.69l-.33,0a36.14,36.14,0,0,1-4.37.08A3.6,3.6,0,0,1,27,14.45a.38.38,0,0,1-.09-.33A1.13,1.13,0,0,1,28,13.17a3.09,3.09,0,0,1,1.09.41,6.93,6.93,0,0,0,1.28.55,3.65,3.65,0,0,0,1.21.15,3.12,3.12,0,0,0,1.08-.23.89.89,0,0,0,.29-.16.07.07,0,0,0,0-.1s0,0-.12,0a6.21,6.21,0,0,1-1.27-.15c-.33-.09-.35-.17-.35-.2s.18-.13.37-.14a19.65,19.65,0,0,1,2.18,0l.39,0h.23s0,0,0,0a0,0,0,0,0,0,0,7.37,7.37,0,0,0-2.68-.93,7.61,7.61,0,0,0-4.14.25,3.71,3.71,0,0,0-.91.51,1.44,1.44,0,0,0-.64,1c-.06.46.28,1.06,2.19,1.28a39.75,39.75,0,0,0,5.56.17h.51a3.2,3.2,0,0,1,2.33.66A1.73,1.73,0,0,1,37,17.75a1.65,1.65,0,0,1-.18.41.39.39,0,0,1-.5.15c-.78-.2-2.17-.66-2.84-.89S32.43,17.06,32,17a2.4,2.4,0,0,0-2.37.41l-.61.41c-.33.22-.71.48-1.2.79l-1.11.63-1.28.72a3.93,3.93,0,0,0-1.84,3.14A7.69,7.69,0,0,1,22.56,26c-.08.11-.66.82-.79,1a3.53,3.53,0,0,0-.61,2.46,4.76,4.76,0,0,1-.47,2.2,5.12,5.12,0,0,0-.44,1.58,6,6,0,0,0,0,1,4.26,4.26,0,0,1-.13,1.44c-.12.33-.42.66-.53,1a4.82,4.82,0,0,0-.26,1.54,1.78,1.78,0,0,1-.7,1.15,2.57,2.57,0,0,0-.77,1.06,1.09,1.09,0,0,1-.05.14.34.34,0,0,1-.14.12,1.33,1.33,0,0,0-.43.53,1.35,1.35,0,0,0,0,1s.07.12.16.13a.17.17,0,0,0,.16-.09s.35-.4.49-.53a.12.12,0,0,1,.14,0s0,.07,0,.12-.22.41-.35.73h0s0,.11,0,.15.1.07.22.08h.15a1.71,1.71,0,0,0,1.16-.32.41.41,0,0,0,.11-.16l0-.05a3.63,3.63,0,0,0,.23-1,.29.29,0,0,1,.12-.25,1.62,1.62,0,0,0,.34-1.24,1.72,1.72,0,0,1,.27-1.15A8.72,8.72,0,0,0,22,35.82a8.12,8.12,0,0,1,1.53-2.74c.2-.2.39-.31.51-.29a.22.22,0,0,1,.15.12A2,2,0,0,1,24.23,34a1.45,1.45,0,0,0,.13,1.15.63.63,0,0,1,.12.63,3.07,3.07,0,0,1-1.15,1.75s-.21.15-.27.21a.62.62,0,0,0-.08.12.64.64,0,0,1-.4.34,1.16,1.16,0,0,0-.68.44,2.14,2.14,0,0,0-.34,1.42.77.77,0,0,0,.11.28.22.22,0,0,0,.15.1.15.15,0,0,0,.13,0l.16-.17a2.27,2.27,0,0,1,.38-.38.11.11,0,0,1,.13,0,.09.09,0,0,1,0,.08,1.51,1.51,0,0,1-.13.22,3.06,3.06,0,0,0-.24.45.12.12,0,0,0,0,.1c0,.05.08.07.09.08a1.78,1.78,0,0,0,1.57-.4,1,1,0,0,0,.29-.75.46.46,0,0,1,.12-.29,2,2,0,0,0,.51-1l.09-.28a2.16,2.16,0,0,1,.69-1,4.3,4.3,0,0,0,.9-1.22c.15-.31.18-.48.29-.65a1.13,1.13,0,0,1,1.22-.25.18.18,0,0,1,.07.27c0,.08-.42.7-.61,1.12a.76.76,0,0,1-.4.36,1.9,1.9,0,0,0-.88,1.54.62.62,0,0,0,.06.31.14.14,0,0,0,.11.08.17.17,0,0,0,.14,0l.48-.47c.06-.06.12,0,.15,0s0,.08,0,.14-.32.48-.29.57.21.15.36.15a2,2,0,0,0,1.68-1,.54.54,0,0,0,0-.31,3,3,0,0,1,.55-2.19c.2-.21.31-.07.36,0s.2.48.26.63c.15.33.25.56.41.88a1,1,0,0,0,1.21.55,6.23,6.23,0,0,1,1.58,0,1,1,0,0,0,.88-.2,4.83,4.83,0,0,0,.64-.68.67.67,0,0,0,.13-.56,3.25,3.25,0,0,1,1.91-3.2.44.44,0,0,1,.54.13,5.09,5.09,0,0,1,1,2.46.91.91,0,0,1-.08.29,1.18,1.18,0,0,0,0,1,2,2,0,0,1-.25.93c-.17.36-.31.65.17.94a2.49,2.49,0,0,0,.53.22h0l0,0s0,0,0,0,0-.48.05-.57,0-.08.06-.08a.1.1,0,0,1,.09.06c0,.09.13.45.16.51a.18.18,0,0,0,.09.1c.19,0,.45-.28.55-.45a1.44,1.44,0,0,0-.18-1.32.36.36,0,0,1,0-.2,1.31,1.31,0,0,0,0-.84,1.55,1.55,0,0,1-.12-.44,18.52,18.52,0,0,1,.36-2.9A8.93,8.93,0,0,0,40,31.8a1.1,1.1,0,0,0-.28-.79,5.71,5.71,0,0,0-.58-.51c-.17-.15-.34-.28-.48-.42a1.14,1.14,0,0,1-.29-.66.43.43,0,0,1,0-.05s0,0,0,0a1.6,1.6,0,0,1,.86.48,4.18,4.18,0,0,0,1,.68,2.55,2.55,0,0,0,2.52-.17,1.43,1.43,0,0,0,.48-.5s0-.14-.11-.08M24,26.34c.05-.4.34-.83.47-1.33a15.59,15.59,0,0,0,.34-2.34c.05-.39.2-.55.48-.59s.38.15.48.7A5.2,5.2,0,0,0,27.15,26l0,0c.1.19.13.36,0,.49s-.4.18-.92-.13-.73-.79-1.77,0a.82.82,0,0,1-.28.14c-.11,0-.24,0-.21-.18m5.47,8.28s-.08,0-.15,0a3.24,3.24,0,0,0-2.53-.09c-1,.4-1.92,1-2,0s.18-1.26-.13-1.78a.11.11,0,0,1,0,0s0,0,0,0c1.41-.11,1.78-.54,1.87-.7a0,0,0,0,0,0-.07,15.88,15.88,0,0,0-2.58,0c-1.14.16-1.9,1.87-2.05,2a.21.21,0,0,1-.38-.13,18.46,18.46,0,0,1,.28-2.15c.17-.76.42-1.33,1.16-1.44.52-.08,1.8-.22,1.71-.57a3.06,3.06,0,0,1-.11-.63c0-.17.09-.2.26-.17s.29.11.51.16a4.54,4.54,0,0,0,3.39-.35l.4-.18a.21.21,0,0,1,.29.28,1.07,1.07,0,0,1-.26.3,2.39,2.39,0,0,0-.79,2.91c.56,1.27.72,1.6,1.11,2.47.06.14.07.2,0,.23m3,2.21A.46.46,0,0,1,32,37a.82.82,0,0,1-.62-.21,1,1,0,0,1-.22-.88.38.38,0,0,1,.23-.28s.07,0,.09,0l.23.37a.49.49,0,0,0,.18.14,3.5,3.5,0,0,1,.35.12.35.35,0,0,1,.19.52M37,32.32a.19.19,0,0,1-.1.08,3.67,3.67,0,0,0-2.4,3.82.4.4,0,0,1-.11.31,5,5,0,0,1-.5.44.4.4,0,0,1-.31.07L33,37a.07.07,0,0,1,0-.12.14.14,0,0,0,0-.07.63.63,0,0,0-.36-.78s0-.08,0-.1a10,10,0,0,0,.52-1.58,1.3,1.3,0,0,0-.1-1,.83.83,0,0,0-.13-.18l-.23-.31a.1.1,0,0,1,0-.18l.32-.08a.09.09,0,0,0,0-.17l-.17-.05a.76.76,0,0,1-.32-.29L32.45,32a.86.86,0,0,1-.07-.21l0-.09s-.08,0-.11,0a.78.78,0,0,0-.15,1,5.73,5.73,0,0,0,.49.73.81.81,0,0,1,.14.3,1.67,1.67,0,0,1-.07.8l-.26.8c-.16.36-.34.28-.44.21a1,1,0,0,1-.32-.55,6.69,6.69,0,0,1-.18-1.57c0-.1-.08-.28-.32-.12l-.62.51c-.09.05-.24,0-.21-.18a23.29,23.29,0,0,1,.93-3.12,1.74,1.74,0,0,0-.52-2c-.79-1-1-2.35.87-1.61.49.22.66-.07,1.27-.12.43,0,.57.14.61.21a.55.55,0,0,1,.05.18s0,0,0,0c-1,.05-2.25.91-1.31,2.24s3.48,1.75,4.62.5a0,0,0,0,0,0-.07,0,0,0,0,0-.06,0A4.25,4.25,0,0,1,36,30a2.7,2.7,0,0,1-2.24-.6c-.31-.35-.31-.76.22-.82a2.72,2.72,0,0,1,.57,0,.35.35,0,0,0,.32-.48,1.09,1.09,0,0,0-.37-.47c-.17-.12-.08-.25,0-.24,1.06.06,2.07.24,2.45,1.51a1.08,1.08,0,0,0,.08.26,1.64,1.64,0,0,0,.38.35c.38.34.73.93-.44,2.74m1.37-.78c.19-.39.44-.13.56.29a5.72,5.72,0,0,1,.11,1.86c-.08.59-.36.47-.51.26s-.48-.76-.65-1.06l0,0a.42.42,0,0,1,0-.43c.09-.13.44-.71.52-.89M28.35,2.85A65.86,65.86,0,0,1,40,3.84a42,42,0,0,1,8.9,2.52,3.3,3.3,0,0,1,1.58,1.29,5.05,5.05,0,0,1,.45,2.41,65.91,65.91,0,0,1-1.47,14.25A48.74,48.74,0,0,1,45.3,35.93a49.13,49.13,0,0,1-15,17.13,3.21,3.21,0,0,1-1.9.78,3.25,3.25,0,0,1-1.91-.78,49.23,49.23,0,0,1-15-17.13A48.72,48.72,0,0,1,7.23,24.31,65.28,65.28,0,0,1,5.75,10.06a4.92,4.92,0,0,1,.46-2.41A3.21,3.21,0,0,1,7.79,6.36a41.78,41.78,0,0,1,8.89-2.52,66,66,0,0,1,11.67-1m0-.7c-8.61,0-15.88,1.47-20.85,3.57-1.81.84-2.44,2-2.44,4.34,0,21.12,8.25,34.2,21,43.57a3.9,3.9,0,0,0,2.31.91,3.85,3.85,0,0,0,2.3-.91c12.73-9.37,21-22.45,21-43.57,0-2.38-.63-3.5-2.45-4.34-5-2.1-12.24-3.57-20.84-3.57M9,7.68v5l1.45-.44,0,.79c-.75.22-1.49.45-2.24.69V7.94Zm3.08,2.77.61-2.76.63,2.45Zm1.41.4.33,1.31.86-.19L13.22,6.58l-1,.26-1.43,6.1.82-.23.32-1.47,1.58-.39Zm2.41.88V7.79c0-.15,0-.35,0-.52q.06.29.12.48l1.15,3.85h0l1.18-4.24c.05-.18.1-.38.13-.54,0,.17,0,.37,0,.54v3.92l.76-.12V5.44l-1,.16-.88,3.2c0,.14-.08.33-.13.54a3,3,0,0,0-.11-.49l-.86-2.92-1.09.22v5.72l.75-.14Zm6.32-.92c.92-.11,1.44-.51,1.44-1.39V8.67A.78.78,0,0,0,23,7.78a.86.86,0,0,0,.57-.89V6.3c0-.87-.53-1.32-1.6-1.19l-1.65.19V11ZM21.15,6l.8-.08c.55-.06.73.12.73.52v.52c0,.4-.18.61-.73.66l-.8.07Zm0,2.37.91-.09c.54-.05.71.12.71.54v.64c0,.4-.19.6-.69.65l-.93.08V8.33Zm5,2.33A1.72,1.72,0,0,0,28,8.79V6.55a1.65,1.65,0,0,0-1.74-1.82,1.75,1.75,0,0,0-1.79,1.93V8.9a1.59,1.59,0,0,0,1.72,1.76m-.87-1.77V6.56a.94.94,0,0,1,.92-1,.87.87,0,0,1,.91,1V8.83c0,.69-.38,1.05-.94,1.05s-.89-.3-.89-1m4.44,1.64V8l.58,0,1,2.6.92,0L31.13,7.89A1.07,1.07,0,0,0,32,6.71V6.2c0-.87-.48-1.31-1.46-1.36-.42,0-1.17,0-1.7,0v5.71Zm0-5,.81,0c.44,0,.63.22.63.6v.51c0,.39-.19.58-.66.56l-.78,0V5.57Zm5,5.34a1.49,1.49,0,0,0,1.61-1.66V7.72l-1.67-.19v.74l.82.09v.87c0,.64-.34.9-.83.9A1,1,0,0,1,33.58,9V6.74a.86.86,0,0,1,.85-1,1,1,0,0,1,1,1.11l.85.1a1.9,1.9,0,0,0-2-2,1.57,1.57,0,0,0-1.61,1.74V8.94a1.84,1.84,0,0,0,2,2m3.35.33V8.68l1.58.26V11.5l.85.15V5.93l-.85-.14V8.22L38.05,8V5.53l-.84-.13v5.72Zm3.48-5.09.43.08.42.09v5.73l-.85-.2V6.15Zm2.6,6.3V8.79c0-.22,0-.45,0-.71a4.47,4.47,0,0,0,.18.65l1.49,4.16.89.25V7.43L46,7.23v4.12a4.91,4.91,0,0,0-.17-.63L44.43,6.81l-1-.24v5.71l.71.17Zm3.57,1V7.73l.42.13.42.13v5.73l-.84-.26Z"/></svg>