<svg id="Слой_1" data-name="Слой 1" xmlns="http://www.w3.org/2000/svg" viewBox="0 0 56.69 56.69"><defs><style>.cls-1{fill:#010101;}</style></defs><path class="cls-1" d="M15.29,44.37a.29.29,0,0,0,.08-.14.2.2,0,0,0-.06-.15L13.1,40.62l-2.25,3.47a.2.2,0,0,0-.06.15.21.21,0,0,0,.07.14l.23.3H9.8l3.49-5.25h.78l3.47,5.25H15.05Z"/><path class="cls-1" d="M6,44l.45-.36v1H1.19V39.42h2l-.4.46a.35.35,0,0,0-.08.13.26.26,0,0,0,0,.15v4H5.7a.45.45,0,0,0,.16,0A.57.57,0,0,0,6,44Z"/><path class="cls-1" d="M41.92,39.42h1.94V44a.77.77,0,0,0,0,.15.57.57,0,0,0,.08.13l.35.44h-2V40.12a.26.26,0,0,0,0-.15.26.26,0,0,0-.08-.13Z"/><path class="cls-1" d="M21.32,41.12V44a.77.77,0,0,0,0,.15.57.57,0,0,0,.08.13l.32.4h-.95V39.42h.47l5.92,3.49V40.09a.26.26,0,0,0,0-.15.23.23,0,0,0-.08-.12l-.31-.4h1v5.25h-.49Z"/><path class="cls-1" d="M53.26,44.37a.21.21,0,0,0,.07-.14.25.25,0,0,0,0-.15l-2.21-3.46-2.26,3.47a.25.25,0,0,0-.05.15.21.21,0,0,0,.07.14l.22.3H47.77l3.49-5.25H52l3.47,5.25H53Z"/><path class="cls-1" d="M31.29,42a2.6,2.6,0,0,1,.25-1,2.63,2.63,0,0,1,.65-.83,3.89,3.89,0,0,1,1.93-.86,5.79,5.79,0,0,1,4.09.87v.58a4.46,4.46,0,0,0-3.2-.85,2.91,2.91,0,0,0-1.5.66,1.9,1.9,0,0,0-.49.66,2,2,0,0,0-.17.79,1.83,1.83,0,0,0,.17.8,2.07,2.07,0,0,0,.48.66,2.82,2.82,0,0,0,1.51.65,4.23,4.23,0,0,0,1.7-.11,4.65,4.65,0,0,0,1.5-.73v.58a5.87,5.87,0,0,1-4.08.87,4,4,0,0,1-1.93-.87,2.39,2.39,0,0,1-.66-.82A2.6,2.6,0,0,1,31.29,42Z"/><path class="cls-1" d="M40.61,36.08a1.17,1.17,0,0,0,.37-.71,1.3,1.3,0,0,0-.27-.75L29.86,17.69l-11,17a1.14,1.14,0,0,0-.28.74,1.19,1.19,0,0,0,.34.72L20,37.61H13.67L30.79,11.86h3.84l17,25.75H39.42Z"/></svg>