<svg id="Слой_1" data-name="Слой 1" xmlns="http://www.w3.org/2000/svg" viewBox="0 0 56.69 56.69"><defs><style>.cls-1{fill:#1d2c4e;fill-rule:evenodd;}</style></defs><path id="path4" class="cls-1" d="M21.78,18.26a6.84,6.84,0,1,1,0,13.68,6.84,6.84,0,1,1,0-13.68Zm-13.94,0a7,7,0,0,1,4.91,1.9l-1.69,1.78A4.62,4.62,0,0,0,7.82,20.6a4.44,4.44,0,0,0-4.44,4.5,4.49,4.49,0,0,0,4.55,4.51,4.7,4.7,0,0,0,3.24-1.25l1.66,1.76a7.27,7.27,0,0,1-4.95,1.82,6.85,6.85,0,1,1,0-13.68Zm22.33.32h11v2.2H37V31.61H34.34V20.78H30.17Zm12.44,0h3.2L49.34,24l3.48-5.41H56L50.61,26.5v5.12H48V26.53Zm-20.83,2a4.51,4.51,0,1,0,4.39,4.5,4.42,4.42,0,0,0-4.39-4.5ZM15.92,35.18a1.45,1.45,0,0,1,.91.31l-.32.42A.87.87,0,0,0,16,35.7c-.23,0-.49.1-.49.35,0,.51,1.45.37,1.45,1.44a1,1,0,0,1-1.06.95A1.74,1.74,0,0,1,14.72,38l.4-.4a1,1,0,0,0,.75.34.42.42,0,0,0,.46-.4c0-.63-1.46-.44-1.46-1.44A1,1,0,0,1,15.92,35.18Zm8.87,0a1.58,1.58,0,0,1,1.16.44l-.39.4a1.11,1.11,0,0,0-.77-.32,1.11,1.11,0,0,0,0,2.22,1.15,1.15,0,0,0,.78-.3L26,38a1.71,1.71,0,0,1-1.17.44,1.63,1.63,0,1,1,0-3.26Zm12.2,0c.8,0,1.1.72,1.1,1.6s-.3,1.61-1.1,1.61-1.09-.72-1.09-1.61S36.2,35.21,37,35.21Zm-3,0a1.08,1.08,0,0,1,1.13,1.06,1.71,1.71,0,0,1-.3.85l-.73,1.23h-.66l.58-1h0a1.07,1.07,0,0,1-1.09-1.07A1.09,1.09,0,0,1,34,35.22Zm6.19,0h.41v1.9h.52v.49h-.52v.71H40v-.71H38.61V37.3Zm-22.32,0h.61v3.09h-.61Zm1.82,0h.41l1.58,2v-2h.57v3.09h-.42l-1.57-2v2h-.57Zm7,0h1.87v.5H27.36v.73h1.07V37H27.36v.85h1.3v.5h-1.9Zm4.8,0H32v3.09h-.6V35.94l-.58.32V35.7Zm5.43.48c-.36,0-.48.48-.48,1.06s.12,1.07.48,1.07.48-.48.48-1.07S37.35,35.74,37,35.74Zm-2.94,0a.52.52,0,0,0-.53.54.54.54,0,0,0,.55.55.82.82,0,0,0,.33-.07.81.81,0,0,0,.19-.49.54.54,0,0,0-.54-.53Zm6,.58-.65.83H40Z"/></svg>