<svg id="Слой_1" data-name="Слой 1" xmlns="http://www.w3.org/2000/svg" viewBox="0 0 56.69 56.69"><defs><style>.cls-1{fill:#010101;}</style></defs><polyline id="polyline3" class="cls-1" points="30.63 41.74 37.33 41.74 37.33 40.93 31.78 40.93 31.78 38.31 35.95 38.31 35.95 37.48 31.78 37.48 31.78 35.07 37.33 35.07 37.33 34.26 30.63 34.26 30.63 41.74"/><polyline id="polyline5" class="cls-1" points="34.11 33.04 33.21 34.06 36.05 33.04 34.11 33.04"/><polyline id="polyline7" class="cls-1" points="48.57 40.93 48.57 34.26 47.53 34.26 47.53 41.74 54.3 41.74 54.3 40.93 48.57 40.93"/><path id="path9" class="cls-1" d="M41.67,34.25l-3.81,7.5h1.29l1-1.94h4.57l1,1.94H47l-3.81-7.5H41.67M40.6,38.87l1.8-3.58,1.82,3.58Z"/><path id="path11" class="cls-1" d="M27,38.61a2.21,2.21,0,0,0,1.87-2.19,2.3,2.3,0,0,0-2.62-2.17H21.53v7.5H22.6V38.6h3.08l2.26,3.15h1.35S27.67,39.63,27,38.61m-.9-.89H22.6V35.14h3.62a1.4,1.4,0,0,1,1.47.88,1.39,1.39,0,0,1-.14,1.09A1.56,1.56,0,0,1,26.1,37.72Z"/><path id="path13" class="cls-1" d="M15.06,33a4.71,4.71,0,1,0,0,9.39c2.82,0,5.1-1.9,5.1-4.66A4.82,4.82,0,0,0,15.06,33m0,8.46a3.77,3.77,0,1,1,3.92-3.73A3.88,3.88,0,0,1,15,41.45Z"/><polyline id="polyline15" class="cls-1" points="7.24 36.91 8.02 36.91 9.43 34.26 8.29 34.26 7.24 36.91"/><polyline id="polyline17" class="cls-1" points="3.44 40.93 3.44 34.26 2.4 34.26 2.4 41.74 9.17 41.74 9.17 40.93 3.44 40.93"/><polyline id="polyline15-2" data-name="polyline15" class="cls-1" points="21.65 32.85 27.08 32.85 36.94 14.32 29.01 14.32 21.65 32.85"/></svg>