<svg id="Слой_1" data-name="Слой 1" xmlns="http://www.w3.org/2000/svg" viewBox="0 0 56.69 56.69"><defs><style>.cls-1{fill:#010101;}</style></defs><path class="cls-1" d="M28.35,15C13.51,15,1.48,21,1.48,28.35s12,13.38,26.87,13.38,26.86-6,26.86-13.38S43.18,15,28.35,15Zm0,25.62c-14.19,0-25.63-5.45-25.63-12.24S14.16,16.1,28.35,16.1,54,21.6,54,28.35,42.54,40.59,28.35,40.59Z"/><path class="cls-1" d="M28.35,16.59c-13.92,0-25.2,5.28-25.2,11.76s11.28,11.76,25.2,11.76,25.19-5.29,25.19-11.76S42.27,16.59,28.35,16.59ZM39,25.65l2.59-1.13H39.35l.6-1.68h4.37l-.54,1.68-4.91,1.67Zm-3.56-5.4a4.14,4.14,0,0,1,1.78.44,2.06,2.06,0,0,1,.92,1.45,5.26,5.26,0,0,1-.38,2.38,4.8,4.8,0,0,1-1.51,1.88,3.4,3.4,0,0,1-2.05.65H31.1l2.1-6.15a1.38,1.38,0,0,0,0-.7l2.27.05Zm-9,.71a.81.81,0,0,0,0-.71h2l.6,3.08,1.07-3.08h1.95l-2.48,6.8H27.81l-.54-3-1.19,3H24.35Zm-5-.71H23.6l.38,6.8H22l-.1-.86H20l-.64.86H17.39l4-6.15A.89.89,0,0,0,21.49,20.25ZM14.91,21a1.42,1.42,0,0,0,0-.71h2.32l-1.78,5.29h2l-.65,1.57H12.75Zm-.27,9.87L14,32.5H9.57l.65-1.67,4.91-1.67-.22.54-2.59,1.07,2.32.06Zm7.23.32a2.16,2.16,0,0,1-.81,1,2.25,2.25,0,0,1-1.18.48l1.34,2.54h-2l-1.3-2.43-.86,2.43h-2l2.22-6.15a.85.85,0,0,0,0-.7H20a2.8,2.8,0,0,1,1.29.32,1.37,1.37,0,0,1,.65.59A2.25,2.25,0,0,1,21.87,31.15Zm6,2.59A4.83,4.83,0,0,1,26.24,35a3.8,3.8,0,0,1-1.89.27,2.58,2.58,0,0,1-1.94-2,3.75,3.75,0,0,1,.06-2.05,4.6,4.6,0,0,1,2.75-2.91,2.82,2.82,0,0,1,2.37.32,2.41,2.41,0,0,1,1,1.57,3.83,3.83,0,0,1-.76,3.45Zm1.62,1.51-.11-6.15a1.65,1.65,0,0,0-.16-.7h2.1v3.67L33.8,28.4h2.26L31,35.31l-1.51-.06Zm9,0H34.12l2.1-6a1.16,1.16,0,0,0,0-.86h4.59l-.49,1.51H38.06l-.38,1.19h1.73l-.54,1.51H37.19a6.9,6.9,0,0,0-.37,1.19h2.26Zm7.71-4.1a2,2,0,0,1-.81,1,2.25,2.25,0,0,1-1.19.48L45.5,35.2h-2l-1.3-2.43-.86,2.43h-2l2.21-6.15a.78.78,0,0,0,0-.7h2.76a2.47,2.47,0,0,1,1.24.32,1.35,1.35,0,0,1,.64.59,2.52,2.52,0,0,1-.05,1.89Z"/><path class="cls-1" d="M34.55,25.38a1.94,1.94,0,0,0,.54-.38,2.16,2.16,0,0,0,.59-1c.27-.7.65-2.05-.21-2.05H35l-1.24,3.51h.49A.87.87,0,0,0,34.55,25.38Z"/><path class="cls-1" d="M43.67,30.07h-.43l-.38,1.14h.54C44.1,31.21,44.8,30.07,43.67,30.07Z"/><path class="cls-1" d="M19.39,30.07H19l-.38,1.14h.54C19.93,31.21,20.52,30.07,19.39,30.07Z"/><polygon class="cls-1" points="21.93 24.68 21.82 23.22 20.95 24.68 21.93 24.68"/><path class="cls-1" d="M25.16,30.4a3.07,3.07,0,0,0-.75,1.78,2.3,2.3,0,0,0,.11,1.08.72.72,0,0,0,1,.32.49.49,0,0,0,.27-.22,3.14,3.14,0,0,0,.81-2.64.76.76,0,0,0-.92-.65A.78.78,0,0,0,25.16,30.4Z"/></svg>