<svg id="Слой_1" data-name="Слой 1" xmlns="http://www.w3.org/2000/svg" viewBox="0 0 56.69 56.69"><defs><style>.cls-1{fill:#e53238;}.cls-2{fill:#010101;}</style></defs><g id="layer1"><g id="g3852"><path id="path3646" class="cls-1" d="M1.46,36H21V33.68H1.46Z"/><path id="path3648" class="cls-2" d="M10.36,23.51a3.68,3.68,0,0,1,.05.42c.27,1.32.63,3.36.68,3.71H9.64c.09-.35.45-2.39.72-3.71Zm1.18-2.78H9.37L6.8,32.15h2s.45-2.48.54-2.8h2c0,.32.5,2.8.5,2.8h2L11.54,20.73"/><path id="path3650" class="cls-2" d="M19.08,27.83v.35s0-.28,0-.41l-1.4-7H15.06V32.15h1.81V24.51a3.39,3.39,0,0,1,.05.42c.49,2.57,1.4,7.22,1.4,7.22H21V20.73h-1.9v7.1"/><path id="path3652" class="cls-2" d="M1.46,20.73V32.15H6.07V30.44H3.45V20.73h-2"/><path id="path3674" class="cls-2" d="M32.32,20.73V36h6.1V33.67H34.94V29.31h3.3V27h-3.3V23h3.48V20.73h-6.1"/><path id="path3676" class="cls-2" d="M39.78,24.33c0,2.05,1.08,3.28,2.48,4.67,2.08,2.06,2.08,2.4,2.08,3.52s-.41,1.39-1,1.39c-.22,0-.9,0-.9-1.29V31.14H39.78v2c0,1.85,1.26,2.91,3.43,2.91,2.44,0,3.61-1.28,3.61-3.9,0-1.86-.4-2.62-2.43-4.75-1.81-1.88-2-2.44-2-3.34,0-1.09.36-1.31,1-1.31.4,0,.81.12.81,1v1.45h2.48V23.58A2.59,2.59,0,0,0,46,21.5a3.83,3.83,0,0,0-2.58-.89c-2.39,0-3.61,1.22-3.61,3.72"/><path id="path3678" class="cls-2" d="M48.18,24.33c0,2.05,1.08,3.28,2.49,4.67,2.07,2.06,2.07,2.4,2.07,3.52s-.4,1.39-1,1.39c-.22,0-.9,0-.9-1.29V31.14H48.18v2c0,1.85,1.27,2.91,3.43,2.91,2.44,0,3.62-1.28,3.62-3.9,0-1.86-.36-2.62-2.44-4.75-1.81-1.88-2-2.44-2-3.34,0-1.09.36-1.31,1-1.31.41,0,.81.12.81,1v1.45h2.49V23.58a2.56,2.56,0,0,0-.68-2.08,3.74,3.74,0,0,0-2.58-.89c-2.39,0-3.61,1.22-3.61,3.72"/><path id="path3680" class="cls-2" d="M31.19,20.73H28.53l-1.86,4.48-1.89-4.48H22.11l3.21,7.62L22.11,36h2.67l1.89-4.48L28.53,36h2.66L28,28.35l3.2-7.62"/></g></g></svg>