<svg id="Слой_1" data-name="Слой 1" xmlns="http://www.w3.org/2000/svg" viewBox="0 0 56.69 56.69"><defs><style>.cls-1{fill:#010101;}.cls-2{fill:#e20e18;}</style></defs><path class="cls-1" d="M33.88,27H28v.54a5.15,5.15,0,0,1,.69.1,1.16,1.16,0,0,1,.5.22c.34.3.34.86.34,1.86v6.78c0,1.38.12,3.32-1.82,3.29a2.12,2.12,0,0,1-2-1.69h-.67a3.25,3.25,0,0,0,3.62,3.07h0c2,0,3.79-.93,3.79-4v-7.4c0-1,0-1.53.34-1.84a1.53,1.53,0,0,1,1-.34V27h0Z"/><path class="cls-1" d="M40.6,27H34.76v.54a1.48,1.48,0,0,1,1,.34c.27.24.32.62.32,1.29v9.45c0,.65-.05,1.06-.32,1.29a1.59,1.59,0,0,1-1,.34v.54h8.82l.93-2.71h-.67a2.59,2.59,0,0,1-2.69,1.66,3.28,3.28,0,0,1-1.67-.28c-.29-.19-.4-.69-.41-1.55V29.73c0-1,0-1.56.34-1.86a2.19,2.19,0,0,1,1.21-.31l0-.55Z"/><path class="cls-1" d="M50.32,27H44.48v.54a1.48,1.48,0,0,1,1,.34c.27.24.32.62.32,1.29v9.45c0,.65,0,1.06-.32,1.29a1.59,1.59,0,0,1-1,.34v.54H53.3l.93-2.71h-.67a2.59,2.59,0,0,1-2.69,1.66,3.28,3.28,0,0,1-1.67-.28c-.29-.19-.4-.69-.41-1.55V29.73c0-1,0-1.56.34-1.86a2.19,2.19,0,0,1,1.21-.31V27Z"/><path class="cls-2" d="M11.12,45a5.62,5.62,0,0,0,.79-.44l.15-.11a5.32,5.32,0,0,0,.87-.79,8.85,8.85,0,0,0,.94-1.21,8.24,8.24,0,0,0,.61-1,15.64,15.64,0,0,0,1.41-4.49,18.89,18.89,0,0,0,.22-3h0a18.85,18.85,0,0,0-.22-3,14.86,14.86,0,0,0-1.41-4.49l-.26-.49a13.26,13.26,0,0,0-1,2.21,17.45,17.45,0,0,1,.85,4.29c0,.48.05,1,.05,1.48h0c0,.48,0,1-.05,1.48a16.72,16.72,0,0,1-1.18,5.21A11.38,11.38,0,0,1,12,42.45c-.09.14-.16.28-.26.42l-.59.81a10.43,10.43,0,0,1-.79.86,6.64,6.64,0,0,1-.95.79l-.09.05v0h0A4.67,4.67,0,0,0,11.12,45Zm0-1.3Z"/><path class="cls-2" d="M14.7,45a4.69,4.69,0,0,0,.79-.44l.16-.11a8.48,8.48,0,0,0,2.41-3,15.49,15.49,0,0,0,1.41-4.5,18.88,18.88,0,0,0,.23-3h0a18.88,18.88,0,0,0-.23-3,14.65,14.65,0,0,0-1.41-4.5,8.67,8.67,0,0,0-2.19-2.84,9,9,0,0,0-.82,1l.25.37a15,15,0,0,1,2.38,7.46c0,.48.05,1,.05,1.48s0,1-.05,1.48a14.92,14.92,0,0,1-2.38,7.46c-.19.28-.37.54-.58.81a8,8,0,0,1-.79.86,7.19,7.19,0,0,1-.95.8s-.05,0-.09,0v0h0A4.78,4.78,0,0,0,14.7,45Z"/><path class="cls-2" d="M19.25,44.42a8.52,8.52,0,0,0,2.41-3,15.62,15.62,0,0,0,1.42-4.5,20.12,20.12,0,0,0,.22-3h0a20.12,20.12,0,0,0-.22-3,15,15,0,0,0-1.42-4.5,8.44,8.44,0,0,0-2.41-3,4.67,4.67,0,0,0-2.74-1h0v0A9,9,0,0,1,18.89,25a15.15,15.15,0,0,1,2.38,7.46c0,.48.05,1,.05,1.48s0,1-.05,1.48a15.16,15.16,0,0,1-2.38,7.47,10,10,0,0,1-2.4,2.53v0h0A4.88,4.88,0,0,0,19.25,44.42Z"/><path class="cls-2" d="M14.7,22.84a5.7,5.7,0,0,0-.79.45l-.16.1a8.79,8.79,0,0,0-.86.78,10.45,10.45,0,0,0-1,1.2,10.8,10.8,0,0,0-.6,1.06,15.33,15.33,0,0,0-1.41,4.49,18.88,18.88,0,0,0-.23,3h0a18.91,18.91,0,0,0,.23,3,14.86,14.86,0,0,0,1.41,4.49l.26.49a13.26,13.26,0,0,0,1-2.21,17.45,17.45,0,0,1-.85-4.29c0-.48,0-1,0-1.48h0c0-.49,0-1,0-1.48a16.7,16.7,0,0,1,1.17-5.21,13.48,13.48,0,0,1,1-1.84,4.78,4.78,0,0,1,.26-.42l.58-.81a10.6,10.6,0,0,1,.8-.86,7.15,7.15,0,0,1,.94-.79l.09-.05v0h0A4.84,4.84,0,0,0,14.7,22.84Zm0,1.31Z"/><path class="cls-2" d="M11.12,22.84a5.27,5.27,0,0,0-.8.45l-.15.1a9,9,0,0,0-2.41,3,15.32,15.32,0,0,0-1.42,4.5,20.15,20.15,0,0,0-.22,3h0a20.15,20.15,0,0,0,.22,3,14.61,14.61,0,0,0,1.42,4.49A8.68,8.68,0,0,0,10,44.23a10.44,10.44,0,0,0,.82-1l-.26-.36a15.1,15.1,0,0,1-2.37-7.46c0-.49-.06-1-.06-1.49s0-1,.06-1.48A15,15,0,0,1,10.51,25l.59-.81a10.43,10.43,0,0,1,.79-.86,9.37,9.37,0,0,1,.93-.76l.09-.05v-.07h0A4.74,4.74,0,0,0,11.12,22.84Z"/><path class="cls-2" d="M6.58,23.41a8.54,8.54,0,0,0-2.41,3,15.64,15.64,0,0,0-1.41,4.49,19.1,19.1,0,0,0-.22,3h0a18.85,18.85,0,0,0,.22,3,14.92,14.92,0,0,0,1.41,4.5,8.5,8.5,0,0,0,2.41,3,5.26,5.26,0,0,0,2.74,1h0v0a9.15,9.15,0,0,1-2.39-2.53,15.12,15.12,0,0,1-2.38-7.46c0-.49,0-1,0-1.49s0-1,0-1.48A15.05,15.05,0,0,1,6.93,25a9.09,9.09,0,0,1,2.39-2.52v0h0A4.74,4.74,0,0,0,6.58,23.41Z"/><path class="cls-2" d="M13.55,44.24a9,9,0,0,0,.82-1l-.25-.36-.26-.42a7.91,7.91,0,0,1-.95,1.21c.19.2.43.39.64.58"/><path class="cls-2" d="M15.49,44.54a4.61,4.61,0,0,1-.79.44,4.67,4.67,0,0,0,1.79.44h0v0a7.81,7.81,0,0,1-1-.84"/><path class="cls-2" d="M12.58,45.4a1.45,1.45,0,0,1,.29,0l-.29-.2a7.63,7.63,0,0,1-.67-.59,5.43,5.43,0,0,1-.79.45,4.67,4.67,0,0,0,1.17.36.71.71,0,0,1,.29,0m.33,0v0l-.05,0c-.11,0-.19,0-.3,0a1.11,1.11,0,0,0,.35,0Z"/><path class="cls-2" d="M12.29,23.6a9.44,9.44,0,0,0-.83,1l.26.36.26.41a7.15,7.15,0,0,1,.95-1.2,5,5,0,0,0-.64-.59"/><path class="cls-2" d="M10.32,23.31a4.74,4.74,0,0,1,.8-.45,4.35,4.35,0,0,0-1.8-.45h0v0a5.89,5.89,0,0,1,1,.87"/><path class="cls-2" d="M14.7,22.84a4.67,4.67,0,0,0-1.17-.36,1.45,1.45,0,0,0-.29,0h0c-.11,0-.21,0-.33,0h0v0l.05,0h0l.29.21c.24.19.47.38.68.58a8.35,8.35,0,0,1,.77-.43"/></svg>