<svg id="Слой_1" data-name="Слой 1" xmlns="http://www.w3.org/2000/svg" viewBox="0 0 56.69 56.69"><defs><style>.cls-1{fill:#0f71b6;}.cls-2{fill:#ed8c1a;}</style></defs><path class="cls-1" d="M27.66,41.09A17.77,17.77,0,1,1,45.42,23.32,17.79,17.79,0,0,1,27.66,41.09Zm0-31.78a14,14,0,1,0,14,14A14,14,0,0,0,27.66,9.31Z"/><path class="cls-1" d="M31.42,28s-.71,1.94-3.57,1.94H25.4V19.48a1.61,1.61,0,0,1,1.53-1.58h0V15.57H19.59V17.9h0a1.65,1.65,0,0,1,1.57,1.58v8.85a1.66,1.66,0,0,1-1.57,1.58h0v3.48H33.15V28Z"/><path class="cls-2" d="M29.47,12.16A9.85,9.85,0,0,0,23.71,14H28.5V19A1.71,1.71,0,0,0,27,20.86v7.5h1.36a2.17,2.17,0,0,0,2.33-1.94H34.7V30a9.7,9.7,0,0,0-5.23-17.83Z"/><polygon class="cls-1" points="12.33 45.52 12.33 44.16 7.34 44.16 7.34 50.97 12.33 50.97 12.33 49.61 9.16 49.61 9.16 48.09 11.88 48.09 11.88 46.88 9.16 46.88 9.16 45.52 12.33 45.52"/><circle class="cls-2" cx="14.28" cy="50.18" r="0.96"/><polygon class="cls-1" points="17.93 49.61 17.93 44.16 16.12 44.16 16.12 50.97 20.66 50.97 20.66 49.61 17.93 49.61"/><rect class="cls-1" x="33.98" y="44.16" width="1.66" height="6.81"/><path class="cls-1" d="M44.88,46.3v-.78H43.21V51h1.67V48.26a1.26,1.26,0,0,1,1.66-1.33V45.52A1.62,1.62,0,0,0,44.88,46.3Z"/><path class="cls-1" d="M23.81,50c-1,0-1.21-.38-1.24-1.44h4c0-2.42-.32-3-2.73-3s-2.7.84-2.7,2.8c0,2.12.46,2.8,2.7,2.8,1.67,0,2.73-.13,2.73-1.79H25C24.92,49.91,24.47,50,23.81,50Zm0-3.36c.87,0,1.15.25,1.23,1H22.6C22.68,46.88,23,46.63,23.81,46.63Z"/><path class="cls-1" d="M39.45,50c-1,0-1.22-.38-1.25-1.44h4c0-2.42-.33-3-2.74-3s-2.69.84-2.69,2.8c0,2.12.45,2.8,2.69,2.8,1.68,0,2.73-.13,2.74-1.79H40.67C40.56,49.91,40.11,50,39.45,50Zm0-3.36c.86,0,1.14.25,1.22,1H38.23C38.31,46.88,38.59,46.63,39.45,46.63Z"/><path class="cls-1" d="M50.78,49a1,1,0,0,1-.25.67c-.19.18-.48.19-.91.19-.93,0-1.15-.37-1.15-1.6,0-1.06.16-1.59,1.15-1.59.61,0,1,.06,1.15.82H52.3c0-1.82-1.12-2-2.68-2-2.28,0-2.66.94-2.66,2.79,0,2.15.51,2.78,2.66,2.78a3.57,3.57,0,0,0,2.07-.34c.41-.28.59-.79.61-1.7Z"/><path class="cls-1" d="M31.42,49a1,1,0,0,1-.25.67c-.18.18-.47.19-.9.19-.93,0-1.16-.37-1.16-1.6,0-1.06.17-1.59,1.16-1.59.6,0,1,.06,1.15.82H33c0-1.82-1.12-2-2.69-2-2.27,0-2.65.94-2.65,2.79,0,2.15.5,2.78,2.65,2.78a3.56,3.56,0,0,0,2.07-.34c.42-.28.6-.79.62-1.7Z"/></svg>