<svg id="Слой_1" data-name="Слой 1" xmlns="http://www.w3.org/2000/svg" viewBox="0 0 56.69 56.69"><defs><style>.cls-1{fill:#fff;}.cls-2{fill:#feeb1a;}.cls-2,.cls-3,.cls-4{fill-rule:evenodd;}.cls-3{fill:#e30613;}.cls-4{fill:#010101;}</style></defs><path class="cls-1" d="M.24.24V56.46H56.46V.24Z"/><path class="cls-2" d="M.24,56.46V.24H56.46V56.46ZM51.58,29a22.48,22.48,0,0,0,1.14-5.39,6,6,0,0,0-1.35-4.49,6,6,0,0,0-4.52-1.58,7.54,7.54,0,0,0-6.06,2.66l-.39.46-.26-.55a3.12,3.12,0,0,0-.6-.89c-1-1.15-2.73-1.74-5.08-1.74A8.45,8.45,0,0,0,29,19.3l-.35.3-.24-.4a4.87,4.87,0,0,0-4.13-1.74c-2.68,0-5.38.36-7,3l-.67,1.08-.06-1.27a2.44,2.44,0,0,0-.59-1.89,3.45,3.45,0,0,0-2.6-.79A4.6,4.6,0,0,0,9.14,20C7.6,22.47,3.89,30.54,4,34.38c0,2.49,1.71,4,4.44,4.07a6.84,6.84,0,0,0,5.18-1.67l.29-.29.28.3a5.81,5.81,0,0,0,4.37,1.72,7.2,7.2,0,0,0,5.37-1.95l.31-.34.29.35a5.78,5.78,0,0,0,4.7,2A8.68,8.68,0,0,0,36,35.21l.43-.55.25.66c1,2.78,3.79,3.19,5.35,3.19,5.31,0,7.6-3.64,9.58-9.51Z"/><path class="cls-3" d="M.24,56.46V.24H56.46V56.46ZM51.93,33.11a31.53,31.53,0,0,0,2.37-7.35v0c.31-2.5.6-4.86-1.08-7.21C52,16.86,50,15.74,46.88,15.74a9.27,9.27,0,0,0-6.12,2c-1.44-1.42-3.5-2.07-6.27-2.07a10.58,10.58,0,0,0-5.58,1.45,6.93,6.93,0,0,0-4.65-1.48c-2,0-4.69.1-6.76,1.85-.48-1-1.45-1.74-4.13-1.74a6.55,6.55,0,0,0-5.8,3.34C5.81,21.93,2.07,30.06,2.16,34.5c.07,3.35,2.58,5.65,6.21,5.74a9.38,9.38,0,0,0,5.46-1.36,8,8,0,0,0,4.75,1.42,9.71,9.71,0,0,0,5.6-1.6,8,8,0,0,0,5,1.62A10.21,10.21,0,0,0,36,37.77c1.3,1.66,3.54,2.52,6.24,2.52C47.33,40.29,50,37.17,51.93,33.11Z"/><path class="cls-4" d="M-.14,56.84v-57h57v57Zm56.19-.79V.64H.64V56.05Z"/><path class="cls-4" d="M40.49,19.94a7.93,7.93,0,0,1,6.36-2.8c5.1,0,6.43,3.34,6.26,6.49A22.07,22.07,0,0,1,52,29.12c-2,6-4.43,9.79-10,9.79-2.51,0-4.81-1-5.72-3.46a9,9,0,0,1-7.07,3.48,6.18,6.18,0,0,1-5-2.11,7.65,7.65,0,0,1-5.66,2.09,6.2,6.2,0,0,1-4.66-1.85,7.29,7.29,0,0,1-5.46,1.79c-3.07-.08-4.78-1.91-4.83-4.46-.09-3.95,3.67-12.1,5.22-14.58a5,5,0,0,1,4.53-2.62,3.9,3.9,0,0,1,2.89.92,2.82,2.82,0,0,1,.69,2.14c1.74-2.8,4.66-3.18,7.35-3.18A5.2,5.2,0,0,1,28.73,19a8.73,8.73,0,0,1,5.73-1.91c2.43,0,4.24.59,5.37,1.87a3.46,3.46,0,0,1,.66,1ZM13.66,33.7c.09-1-.63-2-3.48-1.49.28-.63.7-1.5,1.18-2.49h0c1.53-3.17,3.65-7.54,3.69-9.25,0-.84-.32-1.55-1.69-1.55a3.32,3.32,0,0,0-3.09,1.83c-1.61,2.57-5,10.33-5,13.68,0,1.92,1.53,2.67,3.18,2.71,2.28.06,4.9-.58,5.17-3.44Zm5.8-4.12c-.19.51-.54,1.58-.83,2.71a9.36,9.36,0,0,1,2.84-.37c1.37,0,2.25.6,2.24,1.74,0,2.74-3,3.55-5.14,3.55-2.31,0-4.34-1.32-4.34-3.84,0-3,1.61-7.47,3.11-10.46,1.86-3.68,3.75-4.16,7-4.16,1.43,0,3.08.61,3.08,2,0,1.87-1.59,2.59-3.16,2.68a20.27,20.27,0,0,1-2.33,0,13.61,13.61,0,0,0-1.08,2.22c2.92-.41,4.15.25,3.66,1.94-.67,2.28-2.64,2.43-5.06,2Zm12.65-6a2.09,2.09,0,0,1,1.69-1c1,0,.88.51.65,1.16-.66,1.86,1.31,1.91,1.79,1.88,1.72-.14,2.67-1.25,2.9-3.14.32-2.57-1.85-3.56-4.6-3.56-4.58,0-6.38,2.8-8.1,6.81a22.36,22.36,0,0,0-1.82,7.15c0,2.87,1.75,4.43,4.57,4.43,4.12,0,7-3.28,7.87-7.38.25-1.26.57-3.62-2.63-3.49-1.63.07-2.61.43-3.12,2.09s1.39,1.75,1.39,1.75C32.32,32,31.18,33,30.17,33c-.63,0-1.21-.27-1-1.61a30.22,30.22,0,0,1,3-7.89Zm19,2.34a27.39,27.39,0,0,1-2.76,7.4c-1.93,3.47-4.27,3.95-6.32,3.93s-4.35-.78-4.37-3.94a23.6,23.6,0,0,1,1.8-7.56c1.45-3.81,2.92-6.91,7.6-6.85,5.45.06,4.48,4.91,4,7Zm-6.83,6.18c.75-1.28,2.89-7.1,2.95-8.56,0-.42-.06-.91-.74-.92a1.25,1.25,0,0,0-1.24.65c-.83,1.07-3.24,7.65-3.2,9a.83.83,0,0,0,.86.88c.67,0,1-.46,1.37-1Z"/></svg>