<svg id="Слой_1" data-name="Слой 1" xmlns="http://www.w3.org/2000/svg" viewBox="0 0 56.69 56.69"><defs><style>.cls-1{fill:#010101;fill-rule:evenodd;}</style></defs><g id="layer1"><path id="path2383" class="cls-1" d="M25.69,46.12l2.47-1.62-3.74-2.79v.68H18.88a1.44,1.44,0,0,0-1.43,1.19h6.42v1.22H19a1.42,1.42,0,0,0-1.44,1.33Zm23.52-3.75h5.67V41.18H49.17a3.9,3.9,0,0,0-4,3.67h6.88a.66.66,0,1,1,0,1.29H44.51v-5H42.26v4.93H37.75c-.66-.11-.87-.59-.87-1.52V41.18H33.26L30,43.29l-2.84-2.11H18.44a3.94,3.94,0,0,0-3.9,3.1H16.3a3.84,3.84,0,0,0-1.45,1.83H9.3c-.65-.11-.87-.59-.87-1.52V41.18H6.19v3.18c-.09,2.11,1,2.86,2.36,3H26l3.21-2.07,2.8,2.1h3.43L31,44.08l3.59-2.32v2.6a2.55,2.55,0,0,0,2.47,3h16.3a1.85,1.85,0,1,0,0-3.68H47.78a1.41,1.41,0,0,1,1.43-1.29Z"/></g><path class="cls-1" d="M31.29,10.93c.63,0,.56.46.46.61-1.86,2.9-6.26,8-9.46,13.58a4.79,4.79,0,0,0-.92,2.57,4,4,0,0,0,2.53,3.62,7.14,7.14,0,0,0,3,.48c8.91.28,12.48,0,20.45-.24a1.52,1.52,0,0,0,1-.49,10.83,10.83,0,0,0,2.43-7c0-5.68-4.09-10.79-10.46-13.25l-1,1.31c5.59,2.31,8.48,6.93,8.48,11.87a10.25,10.25,0,0,1-.53,3.22,1.37,1.37,0,0,1-1.47,1.14c-6.5.14-10.17.24-16.69.07-.84,0-1.11-.32-1.24-1a1.53,1.53,0,0,1,.25-1.22c3.45-6.11,9.47-13.11,10.65-14.77.23-.31.12-.92-.65-1.13a26.44,26.44,0,0,0-7.35-.93C19.18,9.37,11,15.9,10.8,24c.47,9.73,8.93,14.76,20,14.76,6.77,0,13-2.4,16.61-6.19L44,32.71c-3.09,2.76-8,4.23-13.18,4.23-9.35,0-17-4.65-17-13,0-7.18,7.61-13,17-13Z"/></svg>