<svg id="Слой_1" data-name="Слой 1" xmlns="http://www.w3.org/2000/svg" viewBox="0 0 56.69 56.69"><defs><style>.cls-1{fill:#1752a0;}.cls-2{fill:#fff;}.cls-3{fill:#fbea26;}.cls-4{fill:#e4151a;}</style></defs><path class="cls-1" d="M-.11-.11H56.8V56.8H-.11Z"/><path class="cls-2" d="M56.8-.11V56.8H-.11V-.11Zm.5-.5H-.61V57.3H57.3Z"/><path class="cls-3" d="M28.35,3.11A25.24,25.24,0,1,0,53.59,28.36h0A25.24,25.24,0,0,0,28.35,3.11Z"/><path class="cls-4" d="M26.78,29.06,22.32,24.6l-5.13,5.15v1.72l1.29-1.29,3.59,3.59-1.33,1.32.86.87,7.18-7.18V27.05l-2,2Z"/><path class="cls-1" d="M6,23.66h7.93v1.72H12.59v5.53l4.6-2.55v4.69H6V31.32H7.31V25.38H6Zm33.46,0v1.72h1.33v5.94H39.44v1.73H50.66V28.36l-4.6,2.55V25.38h1.33V23.66Z"/><path class="cls-4" d="M21.67,18.33a2.83,2.83,0,1,1-2.83,2.83v0h0a2.82,2.82,0,0,1,2.82-2.82Z"/><path class="cls-4" d="M28.35,1.4h0a27,27,0,1,0,27,27h0a27,27,0,0,0-26.94-27Zm0,52.19A25.24,25.24,0,1,1,53.59,28.35h0A25.26,25.26,0,0,1,28.35,53.59Z"/><path class="cls-1" d="M35,23.66H27.47v1.72h1.32v5.94H27.45v1.73H35C40.61,33.05,40.68,23.66,35,23.66Z"/><path class="cls-3" d="M34,30.11h-.38V26.58h.32c1.65,0,1.65,3.53.06,3.53Z"/></svg>