<svg id="Слой_1" data-name="Слой 1" xmlns="http://www.w3.org/2000/svg" viewBox="0 0 56.69 56.69"><defs><style>.cls-1{fill:#040404;fill-rule:evenodd;}</style></defs><path class="cls-1" d="M27.28,3.73a19.75,19.75,0,0,0-3.53.47c-.46.16-.67.45-.8,1.09-.18.85-.74,4.58-1,6.6a129,129,0,0,0-.19,31.23c.37,3.38,1.07,8.09,1.29,8.7s.51.69,1.39.83a22.72,22.72,0,0,0,6.73.16c1.94-.25,2.28-.4,2.49-1.1s.74-4.33,1.08-7.06a128.55,128.55,0,0,0,.37-29.26,105.23,105.23,0,0,0-1.5-10.54c-.2-.54-.54-.7-2-.9a22.73,22.73,0,0,0-4.37-.22m-.13.8c-.14.13-.14.12-.31,1.19-.07.44-.15.84-.17.89s-.11.12-.55.17A2.38,2.38,0,0,0,25,7.1c-.28.24-.4.68-.77,2.69A110,110,0,0,0,22.6,25.45a6.67,6.67,0,0,1-.1,1.43,1.47,1.47,0,0,1-.52.27,1.17,1.17,0,0,0-.52.28c-.05.06-.07.12-.06.13s3.4-.22,4-.29a1.75,1.75,0,0,0,1.2-.46,1.08,1.08,0,0,0,.3-.67c0-.14.06-2,.09-4.2.1-7.08.29-16.1.37-17.19a.68.68,0,0,0,0-.33.45.45,0,0,0-.17.11m2.23.29c0,.23,0,1,.05,1.82.11,3.4.22,8.91.3,14.81,0,2.36.07,4.44.1,4.63a1.12,1.12,0,0,0,.89,1.07,13,13,0,0,0,2.7.29l1.69.13c.13,0,.19,0,.19,0s-.18-.25-.6-.4a1.37,1.37,0,0,1-.51-.26,6.94,6.94,0,0,1-.1-1.46,108,108,0,0,0-1.26-13.74c-.27-1.67-.61-3.51-.74-3.92-.21-.68-.43-.84-1.37-1-.32,0-.62-.1-.65-.11a5.37,5.37,0,0,1-.21-1c-.17-1-.22-1.14-.38-1.22s-.1,0-.1.35m-8,24.34c0,.12.21.26.56.38.66.23.6.09.64,1.68A109,109,0,0,0,24,45.72c.51,3.08.67,3.68,1.05,3.93a3.61,3.61,0,0,0,1.33.3c.17,0,.28.06.3.11s.1.47.18.95c.15.94.21,1.14.4,1.23l.12,0,0-.36c-.09-1.18-.29-10-.38-17.09-.05-4-.07-4.45-.22-4.74a1.25,1.25,0,0,0-.5-.46c-.39-.2-.59-.22-3.22-.4l-1.37-.1c-.15,0-.26,0-.26,0m11.76.11a9,9,0,0,0-2.64.35,1.1,1.1,0,0,0-.68,1c0,.19-.08,2.29-.1,4.68-.08,6-.17,10.55-.31,15,0,1,0,1.85,0,1.86s.22-.07.28-.21.12-.55.2-1a6,6,0,0,1,.19-.94,4,4,0,0,1,.6-.12c1-.12,1.13-.21,1.33-.68a59.7,59.7,0,0,0,1.33-7.75,106.52,106.52,0,0,0,.79-10.86c0-.84,0-.85.62-1.07.36-.12.57-.26.57-.38s0-.06-2.15.11"/></svg>