<svg id="Слой_1" data-name="Слой 1" xmlns="http://www.w3.org/2000/svg" viewBox="0 0 56.69 56.69"><defs><style>.cls-1{fill:#e85e0c;}</style></defs><path id="path3425" class="cls-1" d="M23.25,39.53c-.74-.54-1.39-1-1.44-1.07s0-.24,2.15-3.17l2.34-3.23a1.07,1.07,0,0,0,0-.86c-.05-.08-1.1-1.55-2.34-3.25s-2.23-3.12-2.21-3.14l2.74-2,.14-.09.3.42c.17.23,1.12,1.53,2.1,2.89s1.81,2.47,1.82,2.47,1-1.3,2.13-2.88,2.11-2.88,2.14-2.88l1.45,1A8.55,8.55,0,0,1,36,24.89s-1,1.47-2.29,3.18-2.28,3.17-2.31,3.24a1,1,0,0,0,0,.69c0,.09.49.72,1,1.41,3,4.15,3.59,5,3.59,5s-2.76,2.06-2.85,2.08-1-1.28-2.14-2.86-2.11-2.87-2.14-2.86-1,1.28-2.08,2.83-2.06,2.83-2.1,2.87-.37-.17-1.41-.92ZM5.74,38.32a3.39,3.39,0,0,1-2.52-2.4c-.08-.28-.09-.71-.1-5.68V24.86H6.72V29.7c0,5.34,0,5.09.31,5.29.16.1.25.1,2.24.1h2.07v3.32H8.72a21.33,21.33,0,0,1-3-.08Zm9.11-6.71v-6.8h3.71v13.6H14.85Zm24.28,0v-6.8h3.71v13.6H39.13Zm10.51,6.71a3.64,3.64,0,0,1-.77-.28A3.46,3.46,0,0,1,47.4,36.6c-.39-.77-.36-.35-.38-6.36V24.86h3.61V29.7c0,5.28,0,5.09.28,5.28.13.08.32.09,2.25.11l2.11,0,0,1.64v1.65H52.64a21.76,21.76,0,0,1-3-.08Z"/></svg>