<svg id="Слой_1" data-name="Слой 1" xmlns="http://www.w3.org/2000/svg" viewBox="0 0 56.69 56.69"><defs><style>.cls-1{fill:#e30518;}</style></defs><path class="cls-1" d="M17,23.36c-3.65,0-5.84,2.23-5.84,5s2.19,5,5.84,5,5.83-2.23,5.83-5-2.18-5-5.83-5m0,8.9c-1.75,0-3.08-1.76-3.08-3.91s1.33-3.92,3.08-3.92,3.08,1.75,3.08,3.92S18.72,32.26,17,32.26"/><polygon class="cls-1" points="33.33 23.71 23.3 23.71 23.3 24.83 27.14 24.83 27.14 32.93 30.04 32.93 30.04 24.83 33.33 24.83 33.33 23.71"/><polygon class="cls-1" points="44.31 23.71 34.29 23.71 34.29 24.83 37.57 24.83 37.57 32.93 40.46 32.93 40.46 24.83 44.31 24.83 44.31 23.71"/><path class="cls-1" d="M5.93,31.82a.55.55,0,0,1-.55-.55V23.71H2.6v8.11a1.1,1.1,0,0,0,1.1,1.1h7.1v-1.1Z"/><path class="cls-1" d="M48.75,24.81h5.34v-1.1H46.52a1.11,1.11,0,0,0-1.1,1.11v7a1.1,1.1,0,0,0,1.1,1.1h7.57V31.83H48.75a.54.54,0,0,1-.55-.55V28.57H54V27.49H48.2V25.36a.55.55,0,0,1,.55-.55"/></svg>