<svg id="Слой_1" data-name="Слой 1" xmlns="http://www.w3.org/2000/svg" viewBox="0 0 56.69 56.69"><defs><style>.cls-1{fill:#11427a;}</style></defs><path id="path1022" class="cls-1" d="M13.4,16.8v6.13H26.22V35.75h6.14V16.8h-19"/><path id="path1024" class="cls-1" d="M43.29,5.86H13.4V12H37.16V35.75h6.13V5.86"/><path id="path1026" class="cls-1" d="M13.4,35.75h8v-8h-8Z"/><path id="path1028" class="cls-1" d="M16.66,49.83h4.57l.57-2.91h.93v3.92H13.4v-.73L15,49.76V39.81l-1.58-.35v-.72h5v.72l-1.75.35v10"/><path id="path1030" class="cls-1" d="M29.23,45.11a2.54,2.54,0,0,0,.88-.15,1.58,1.58,0,0,0,.65-.38,3,3,0,0,0,.57-.92,3.13,3.13,0,0,0,.23-1.23,2.92,2.92,0,0,0-.22-1.16,3.77,3.77,0,0,0-.58-1,2,2,0,0,0-.7-.45,2.36,2.36,0,0,0-.9-.16h-2v5.4Zm-2.09,1v3.68l1.6.35v.73H24.05v-.73l1.41-.35V39.81l-1.41-.35v-.72h5.57a4.62,4.62,0,0,1,1.43.21,3.25,3.25,0,0,1,1.09.59,4.13,4.13,0,0,1,.93,1.26,3.55,3.55,0,0,1,.34,1.53A3.82,3.82,0,0,1,33.05,44a3.88,3.88,0,0,1-.95,1.31,3.08,3.08,0,0,1-1.09.6,4.34,4.34,0,0,1-1.41.22H27.14"/><path id="path1032" class="cls-1" d="M37.23,49.83H41.8l.57-2.91h.92v3.92H34v-.73l1.58-.35V39.81L34,39.46v-.72h5v.72l-1.75.35v10"/></svg>