<svg id="Слой_1" data-name="Слой 1" xmlns="http://www.w3.org/2000/svg" viewBox="0 0 56.69 56.69"><defs><style>.cls-1{fill:#ae9c6e;}.cls-2{fill:#c82917;}.cls-3{fill:#ae1917;}.cls-4{fill:#e65a0f;}</style></defs><path class="cls-1" d="M44.11,49.6a2.27,2.27,0,0,1-.44,0l-1.78.07-2.26.11c-.36,0-.75,0-1.11,0-.83,0-1.63,0-2.45.1L34.39,50l-2.34.07c-.34,0-.67.08-1,.08a3.36,3.36,0,0,1-1.39-.28c-.13-.1-.21-.33.18-.51a1.39,1.39,0,0,1,.54-.16c2.09-.05,4.13-.08,6.19-.08l3.4,0,3.33.08a1,1,0,0,1,.54.13.76.76,0,0,1,.28.2Z"/><path class="cls-1" d="M22.28,34.91c.18.06.25.31.28.52.05.38.08.79.1,1.18.11,2.18.13,4.39.16,6.57a7.21,7.21,0,0,1-.36,2.29c0,.07-.08.15-.11.23a2.55,2.55,0,0,0-.1.25s.1,0,.1,0c.39,0,.78.05,1.16.08s.93.1,1.39.18l.44.07A.59.59,0,0,0,26,46a1.58,1.58,0,0,0,.23-.59,5.93,5.93,0,0,1,.24-.92c.07-.18.15-.34.23-.52s.13-.15.2-.23a.33.33,0,0,1,.55.08,2.15,2.15,0,0,1,.15.38,7.31,7.31,0,0,1,.13,1.06v.31c0,.07,0,.18.15.2s.16,0,.21-.1c.34-.36.65-.72,1-1.08a.35.35,0,0,1,.21-.15.25.25,0,0,1,.36.07,1.4,1.4,0,0,1,.13.41,4.17,4.17,0,0,1,.05.52.62.62,0,0,0,0,.2.16.16,0,0,0,.24.11c.1,0,.15-.11.23-.18a4.5,4.5,0,0,1,.41-.54,1.45,1.45,0,0,1,.36-.34.56.56,0,0,1,.28-.1.45.45,0,0,1,.44.26,1,1,0,0,1,.13.43v.21c.05.13.1.13.18,0a.44.44,0,0,0,.08-.1,2.74,2.74,0,0,1,.31-.29.39.39,0,0,1,.49,0,.61.61,0,0,1,.18.21,1.81,1.81,0,0,1,.15.43.09.09,0,0,0,0,.08.14.14,0,0,0,.18.08,1,1,0,0,0,.28-.26s0,0,0,0a1.57,1.57,0,0,1,.11-.77,2,2,0,0,1,.74-1,1.7,1.7,0,0,1,2-.13.25.25,0,0,1,.11.05V39.38a.3.3,0,0,1,0-.13c0-.07.11-.13.18-.1l.18.08a1,1,0,0,1,.39.74v.16c0,1.69-.05,3.36,0,5.08,0,.21,0,.44,0,.64s0,.21,0,.34a.67.67,0,0,1,0,.2c0,.23-.18.33-.39.41a.24.24,0,0,1-.28-.1.49.49,0,0,1-.11-.28v-.64a.46.46,0,0,0-.07.07c-.19.23-.37.44-.57.64a1.29,1.29,0,0,1-1.52.18,1.25,1.25,0,0,1-.62-.56s0,0-.08.08-.23.25-.36.36l-.23.15a.49.49,0,0,1-.57-.1.74.74,0,0,1-.23-.39c-.05-.13-.08-.15-.18-.05a.29.29,0,0,1-.08.1,1.69,1.69,0,0,1-.51.52.9.9,0,0,1-.26.13.27.27,0,0,1-.31-.13.68.68,0,0,1-.05-.23c0-.31,0-.57,0-.88,0,0,0-.05,0-.07s-.05-.11-.13-.06a.4.4,0,0,0-.13.13,1.36,1.36,0,0,0-.23.34,3.11,3.11,0,0,1-.44.56,1.14,1.14,0,0,1-.36.26.5.5,0,0,1-.67-.16,1.17,1.17,0,0,1-.18-.48V45.9c0-.1-.08-.12-.15-.08a1.42,1.42,0,0,0-.26.29,3,3,0,0,1-.47.56,1.4,1.4,0,0,1-.36.28.59.59,0,0,1-.23.13A.32.32,0,0,1,27,47a.77.77,0,0,1-.1-.25,1.48,1.48,0,0,1-.08-.49V46c0-.06,0-.13-.1-.13a.13.13,0,0,0-.16.07,2.37,2.37,0,0,1-.13.36.89.89,0,0,1-.15.29.78.78,0,0,1-.67.35,5.1,5.1,0,0,1-.67,0l-1.16-.08a14.85,14.85,0,0,1-1.88-.23.57.57,0,0,0-.44.05,1.9,1.9,0,0,1-.85.24,3.23,3.23,0,0,1-.93,0,.77.77,0,0,1-.44-.23.19.19,0,0,1,0-.18.58.58,0,0,1,.41-.41,2.79,2.79,0,0,1,.8-.13,6.16,6.16,0,0,1,1,0,.16.16,0,0,0,.17-.15,2.31,2.31,0,0,0,.14-.59c0-.54,0-1.13,0-1.44s0-.72-.05-1.16,0-1,0-1.43-.05-2.16-.05-2.83V37.1a5.86,5.86,0,0,1,.16-1.57,1.64,1.64,0,0,1,.1-.38.38.38,0,0,1,.31-.24.15.15,0,0,1,.13,0Zm14.41,9.5c0-.07,0-.12,0-.12a.7.7,0,0,0-.57-.16,1.49,1.49,0,0,0-.9.36,1.08,1.08,0,0,0-.44,1,.55.55,0,0,0,.54.51.84.84,0,0,0,.44-.1,2.06,2.06,0,0,0,.77-.69.36.36,0,0,1,.08-.13.75.75,0,0,0,.13-.39Z"/><path class="cls-1" d="M52,53.89a1.31,1.31,0,0,1-.75-.85,1.56,1.56,0,0,1,0-.31v-6c0-.17,0-.35,0-.53a.82.82,0,0,0-.26-.54.13.13,0,0,0-.15,0,1.38,1.38,0,0,1-1,0l-.23-.13s0,.08,0,.1v.69a.28.28,0,0,1-.18.29,1.13,1.13,0,0,1-.57.1c-.05,0-.07-.05-.07-.1V45.36s-.08.08-.08.11a3.52,3.52,0,0,1-.72.77,2.33,2.33,0,0,1-1.14.48,2,2,0,0,1-.69,0,1.24,1.24,0,0,1-.88-1,2.5,2.5,0,0,1,.16-1,2,2,0,0,1,.85-1.06,1.45,1.45,0,0,1,.8-.2,1,1,0,0,1,.49.18.6.6,0,0,1,.28.38,1.51,1.51,0,0,1,0,.7c0,.12-.08.28-.13.3s-.15.11-.26,0a.71.71,0,0,1-.28-.43c0-.1,0-.18.13-.23a.14.14,0,0,0,0-.13.89.89,0,0,0,0-.28c0-.18-.15-.24-.33-.16a.84.84,0,0,0-.23.18,2.22,2.22,0,0,0-.57,1.36,2.53,2.53,0,0,0,0,.49.56.56,0,0,0,.54.46,1.52,1.52,0,0,0,.56-.12A2,2,0,0,0,48,45.6a4.24,4.24,0,0,0,.72-1.24V39.87a1.09,1.09,0,0,1,0-.31.65.65,0,0,1,.59-.46c.18-.05.23,0,.23.2v4.52l.11-.1a1.64,1.64,0,0,1,.9-.38,1.1,1.1,0,0,1,.75.12,1,1,0,0,1,.43,1.11,1.17,1.17,0,0,1-.46.69.76.76,0,0,1-.13.13l0,0a1.28,1.28,0,0,1,.77.89,2.64,2.64,0,0,1,.08.62c0,1,0,2,.05,3,0,.54,0,1.42,0,1.62v2.31c0,.13-.07.13-.15.08Zm-2.09-8.78a1.09,1.09,0,0,1,.31,0,.59.59,0,0,0,.23,0,.51.51,0,0,0,.34-.1.6.6,0,0,0,.23-.57.49.49,0,0,0-.41-.41.94.94,0,0,0-.44,0,2.82,2.82,0,0,0-.54.36.15.15,0,0,0,0,.11v.77a.5.5,0,0,1,.31-.18Z"/><path class="cls-1" d="M42.07,45.08H41a1.06,1.06,0,0,1,0,.23A1.3,1.3,0,0,1,40,46.93a1.45,1.45,0,0,1-1.27-.44,1.06,1.06,0,0,1-.26-.87c0-.87,0-1.54,0-2.41V39.43c0-.36.18-.33.29-.28a1.13,1.13,0,0,1,.59.8,5.72,5.72,0,0,1,0,.59c0,1.82,0,3,0,4.52a2.57,2.57,0,0,0,0,.79.59.59,0,0,0,.7.39.72.72,0,0,0,.36-.88l-.05-.15c0-.08-.08-.1-.16-.15a.54.54,0,0,1-.31-.52s0-.13,0-.15a.44.44,0,0,1,.46-.28.31.31,0,0,1,.28.15.49.49,0,0,1,.11.28c0,.11,0,.11.15.11h1.14a.11.11,0,0,0,.13-.08,1.89,1.89,0,0,1,.41-.54,1.84,1.84,0,0,1,1-.57,2,2,0,0,1,.49,0,.9.9,0,0,1,.64.49,1.39,1.39,0,0,1,.16.57.72.72,0,0,1,0,.25.51.51,0,0,1-.46.31H43c-.08,0-.08,0-.08.08a1.25,1.25,0,0,0,.13.77.66.66,0,0,0,.82.33,1.07,1.07,0,0,0,.57-.44,1,1,0,0,1,.21-.2c.1,0,.15,0,.15.1s0,.08,0,.13a1.64,1.64,0,0,1-1.27,1,1.13,1.13,0,0,1-.82-.07A1,1,0,0,1,42.1,46a1.88,1.88,0,0,1,0-.85.07.07,0,0,1,0-.07,0,0,0,0,1,0,0Zm1.24-.43h.26a2.32,2.32,0,0,0,.44,0c.2,0,.26,0,.33-.31a.43.43,0,0,0-.2-.49.48.48,0,0,0-.49,0,1.51,1.51,0,0,0-.39.36,1.32,1.32,0,0,0-.18.44Z"/><path class="cls-2" d="M36.76,21.92c-.16-.11-.31,0-.47,0s-.23.31-.31.51a.18.18,0,0,0,.27,0c.12.08.24-.08.32-.16s.19-.11.23-.15,0-.08-.08-.08"/><path class="cls-3" d="M30.79,19.47c-.2-.11-.35,0-.51,0s-.23.31-.27.51c.08,0,.19,0,.23,0,.16.08.23-.08.35-.16a.46.46,0,0,0,.2-.19.14.14,0,0,0-.08,0"/><path class="cls-3" d="M32.39,21.69c-.16-.12-.31,0-.47,0s-.23.31-.31.5c.08,0,.23,0,.27-.07.16.07.23,0,.35-.16a.28.28,0,0,0,.2-.15s0,0-.08-.08"/><path class="cls-4" d="M26.76,2.16a5.33,5.33,0,0,1,1,3.06,4.2,4.2,0,0,0,.67,1.56,2.56,2.56,0,0,0,1,1.71c.2.2.35.55.67.58l.54.16a6,6,0,0,0,.82,0l0,0a5.54,5.54,0,0,0,2-.35c.28-.08.63,0,.86-.2.39,0,.94.2,1.17-.23a1,1,0,0,1,.67-.23,5.49,5.49,0,0,1,1.13-.43c.66-.31,1.36-.58,2-.9a.68.68,0,0,1,.23-.07,3.5,3.5,0,0,0,1.13-.7c.55-.47,1.37-.31,2-.74.24-.16.47,0,.71-.08.46,0,.74-.5,1.25-.43.7,0,1.52-.31,2.06.24a1.45,1.45,0,0,1,.47.73c.12.63-.47,1-.58,1.64-.32.62-1.17.62-1.33,1.32-.31.35-.74.47-1,.82A17.93,17.93,0,0,1,42,11.06a3.26,3.26,0,0,1-1.17.77c-.23.24-.39.51-.62.71-.59.38-1.37.5-1.84,1.16h0c-.31.47-.86.47-1.13.93a2.11,2.11,0,0,0-.9.82c-.27.39-.74.35-.89.82-.16.23-.63.31-.51.66s-.2.39-.31.58a.61.61,0,0,1,0,.35l0,.66s0,0,0,.08c.19.15.46.15.58.38.08.59.74.47.94.94s.31.85.62,1.16a1.24,1.24,0,0,0,.51.86,8.67,8.67,0,0,1,.7,1.13,6.66,6.66,0,0,0,.59.39c.58.62.82,1.36,1.44,1.94.24.31.62.58.74,1a4.22,4.22,0,0,1,.55,1.13.81.81,0,0,1,.43.62c.51.27.47.93.86,1.36a2.13,2.13,0,0,1,.62,1,2.26,2.26,0,0,1,.63,1.75c0,.59.54.94.5,1.52a1.25,1.25,0,0,1,0,.93c-.27.19-.19.54-.31.78a1.78,1.78,0,0,1-1.13,1.05,3,3,0,0,0-1.21.23,2.17,2.17,0,0,1-1.37-.51c-.35-.15-.54-.58-.89-.66-.2-.23-.28-.5-.55-.7s-.51-.46-.7-.77c-.55-.58-.82-1.28-1.48-1.75-.51-.47-.75-1.05-1.22-1.52a4.43,4.43,0,0,1-1.13-1.44,13.94,13.94,0,0,1-1.6-1.47.94.94,0,0,0-.47-.32c-.27-.5-.82-.81-1.24-1.24l-.36-.11c-.35-.51-.86-.51-1.24-.86a1.83,1.83,0,0,1-.44-.23c-.31-.08-.74-.08-.85-.39-.12-.08-.39,0-.43-.16a.65.65,0,0,0-.35.16c-.47-.27-.63.46-1.1.43a3.52,3.52,0,0,1-.62.15,3.2,3.2,0,0,1-.9.47,1.63,1.63,0,0,0-.35.66,5.79,5.79,0,0,1-1.52,1.86c-.39.59-1.1.94-1.25,1.6A5.56,5.56,0,0,1,20.79,31c-.16.19-.39.23-.58.35a12.42,12.42,0,0,1-1.92,2.4L18,34c0,.19,0,.39-.16.5A15.41,15.41,0,0,0,16,36.87c-.23.15-.58.27-.47.62-.08.43-.51.74-.86,1a2.52,2.52,0,0,1-.62,1,3.81,3.81,0,0,1-1.29,1.36c-.15.35-.7.35-.66.78A2.92,2.92,0,0,1,11,42.85a3.44,3.44,0,0,1-1.21.78c-.23-.12-.35.19-.54.23-.51-.27-.9.43-1.33-.07a2,2,0,0,1-.62-.24,2.43,2.43,0,0,1-.24-2.41c0-.38.31-.73.35-1.12s.32-.43.47-.66a4.13,4.13,0,0,1,.31-.67,4.37,4.37,0,0,1,.43-.93c.16-.31.12-.7.35-1A5.5,5.5,0,0,0,9.9,35a4.05,4.05,0,0,0,.66-.85c.32-.86,1.21-1.52,1.72-2.3a3.74,3.74,0,0,0,.82-1.32c.35-.66,1.09-1,1.29-1.75a11,11,0,0,0,1.33-1.94,2.36,2.36,0,0,0,.43-.85c0-.71.62-1.17.74-1.83a5.91,5.91,0,0,1,1-2.18c0-.47.47-.78.43-1.28-.12-.2-.35-.28-.51-.43a1.54,1.54,0,0,0-1.13-.55,2.72,2.72,0,0,0-.43-.07c-.62-.24-1.33-.39-2-.63a2.62,2.62,0,0,1-1-.77L13,17.9c-.75.08-1.26-.51-2-.47a15.23,15.23,0,0,1-2.38-.7c-.43-.46-1.13-.35-1.48-.93-.27-.2-.66-.27-.82-.66-.08-.12,0-.31,0-.47a3.45,3.45,0,0,1,.7-.74c.24-.19.55-.15.9-.19a11.63,11.63,0,0,0,2.81-.47,3.72,3.72,0,0,1,1.33,0,10.46,10.46,0,0,0,1.56-.08,4.62,4.62,0,0,1,1,0c.47,0,.9-.08,1.37-.15a2.28,2.28,0,0,0,1.6-.24c.51-.19,1.09-.19,1.56-.39a1.4,1.4,0,0,1,1.06-.62c.15-.31.46-.39.74-.58a6.08,6.08,0,0,1,.7-.74,3,3,0,0,1,.19-.81c.63-.47.35-1.29.75-1.83a3.59,3.59,0,0,1,.54-1.36c.12-.16,0-.43,0-.66s.55-.63.7-1-.08-.47,0-.66a2.9,2.9,0,0,1,1-1.83c.31-.23.62-.62,1.13-.43a1.71,1.71,0,0,1,.74.2Z"/><path class="cls-2" d="M9.36,42.54c0-.08.15-.08,0-.15s-.5.46-.54,0c-.12,0-.2,0-.31,0s-.08.15-.2.15-.31-.31-.51-.35a.26.26,0,0,1,0,.24s0,0-.11,0-.2-.15-.12-.27,0-.15.12-.19-.16,0-.2-.12c0-.27.12-.5-.08-.7,0-.12,0-.23.08-.31s0-.19.16-.23a1.27,1.27,0,0,1-.08-.54c.12-.08.19-.24.35-.16.16-.08,0-.16,0-.23.27-.16,0-.43.16-.7.07-.12.07-.31.27-.35s.12,0,.15,0c.24-.12.08-.35.28-.47a.66.66,0,0,1,0-.39c0-.08.12-.16.19-.16s.2.08.24.16c.08-.08.2,0,.2-.08s.23-.08.31-.19-.28-.2-.2-.43a.29.29,0,0,1,.2-.19c.11,0,.11.19.23.11s0-.11,0-.19a.79.79,0,0,1-.35-.35c.08-.12.08-.27.16-.39-.08-.08,0-.16,0-.23.2-.16.43-.08.59-.32,0,0,.08,0,.12.08s-.12.24,0,.35,0,.08,0,.08.08-.12.15-.08a1,1,0,0,1,0-.54s0-.12-.07,0a.24.24,0,0,1-.16,0c-.12,0-.12-.12-.12-.2.2-.07.24-.39.51-.27l.08.08c0-.08,0-.16,0-.2s0-.27-.2-.19c-.07-.08,0-.23,0-.35.12-.08.12-.19.28-.23a.77.77,0,0,0,.19-.62c.08-.12.2-.27.35-.27a.18.18,0,0,0,.12,0c.19-.11-.12-.19,0-.35s.23-.31.39-.27.2.2.12.31-.16,0-.2.12.12.16.2.12a.36.36,0,0,0,.11-.28,2.65,2.65,0,0,1-.15-.54c.08-.16.27-.23.27-.43.16-.11.35-.19.43-.35s.27,0,.27-.15,0-.2-.11-.24a.79.79,0,0,1,.27-.62.35.35,0,0,1,.31.16s0,.07,0,.07.08-.11.12-.15a1.27,1.27,0,0,1,.19-.82c.12-.19.4-.08.4-.31a.16.16,0,0,1,0-.19.24.24,0,0,1,.16,0c-.08.19.16.39-.08.5l-.16-.07s0,.11,0,.15.23-.08.39,0,.15,0,.27-.08.12-.11,0-.19-.08.08-.16,0,0-.2-.11-.27a.29.29,0,0,1,.15-.16c.12,0,.2-.15.27-.23s-.15,0-.19-.08a.21.21,0,0,1,.08-.16c-.08-.11.08-.07.08-.11s.15-.2.27-.16.12.08.08.16-.28.11-.24.27c.08-.08.2,0,.24-.12s0-.15.08-.15c0-.16-.08-.39,0-.55a3.17,3.17,0,0,0,.42-.39c.08-.15.24,0,.32-.19v0c-.08,0-.2,0-.28,0s.2-.31.12-.54c.08,0,.2-.31.35-.12.31-.19.23-.58.51-.77l.27-.28c0-.07-.08-.07-.11-.11a.4.4,0,0,1-.28,0,.45.45,0,0,1-.08-.39c.08,0,.2,0,.2-.16s.12-.35.19-.5c.08,0,.12,0,.16-.08a.33.33,0,0,1,.23.23c0,.16-.23.2-.31.35s0,.12,0,.16.12-.24.27-.31l.08-.47c0-.08-.08,0-.15,0s-.28-.16-.24-.35,0-.2.12-.2a.15.15,0,0,1,.12,0,.08.08,0,0,0,0,.16l0,0c0-.12,0-.27.12-.35s.16-.16.28-.16a.52.52,0,0,0,.27-.43c.19-.15,0-.35-.12-.5.12-.16,0-.43.2-.58a1.36,1.36,0,0,1,.07-.35c.08,0,.2-.16.28,0s0,.46-.12.7c0,.07.08.11.12.19s0-.12.08-.15a.85.85,0,0,0,.19-.16c0-.12,0-.19,0-.31-.19-.08,0-.27-.15-.35.07-.23-.16-.39-.12-.66a.36.36,0,0,1,0-.35c0-.27.47-.08.43-.39s-.16-.16-.23-.27-.16-.2-.16-.31.16,0,.12-.08-.08-.16-.16-.23-.39.15-.62,0c0,0-.16,0-.2-.12s.2-.27,0-.35-.27.11-.35,0-.16,0-.23.08-.28,0-.4,0c-.27-.16-.7,0-.89-.39-.16,0-.27-.12-.43-.12s.12-.31,0-.46-.32.07-.43-.08-.08-.12-.16-.19-.39.15-.58,0a.69.69,0,0,1-.16-.35c-.16-.35-.55.16-.7-.23-.24-.08-.35.2-.59.16s-.31-.24-.5-.16S11.74,17,11.5,17s-.12-.46-.43-.31a.8.8,0,0,1-.66.12c-.16-.16-.2-.51-.47-.39a1.09,1.09,0,0,1-1,.12c-.11-.2-.5-.12-.47-.43,0-.12-.15-.16-.27-.12s-.11.08-.23.08c-.08-.15-.27-.19-.39-.27-.16.08-.28-.08-.35-.16A.43.43,0,0,0,7,15.29.42.42,0,0,1,7.05,15c.2-.19.24.16.43.08,0,.27.39.23.28.54.11.08.19.32.38.2l0,0c-.31-.08-.15-.43-.39-.54s-.27-.39-.54-.39q-.06-.12-.12-.12c-.12.08-.16.27-.27.19s-.08-.19,0-.31.19-.07.31-.15,0-.12,0-.2.15-.15.23-.19.36.15.47,0,.24-.12.31-.12c.43-.11.86-.35,1.25-.11.31,0,.74-.32,1,0a.24.24,0,0,1,.23.19s0,.12.08.12c.31,0,.35-.39.62-.39s.51-.12.67.11c.46.08.66-.5,1.09-.5s.59.35.9.12a.89.89,0,0,1,.54-.12.52.52,0,0,1,.35.19.22.22,0,0,0,.12.2c.39.15.63-.27,1-.12.31-.08.27.51.54.16,0-.12,0-.28.16-.28a1.65,1.65,0,0,1,.7,0c.63,0,1-.62,1.56-.73a1.32,1.32,0,0,0,1.18-.43c.11-.31,0-.74.42-.9s.67.05.82-.23-.31-.15-.23-.35a.33.33,0,0,1,.39-.11c.08.07.15.15.23.15.12-.15-.08-.27,0-.46s.31-.55.62-.59a.27.27,0,0,0,.08-.31c-.08-.12-.2-.23-.16-.39.08-.31.51-.46.35-.85A1.77,1.77,0,0,1,23.21,7a4.41,4.41,0,0,1,.2-1.08c.31-.32.23-.78.46-1.09a7.28,7.28,0,0,1,.24-1.36c.23-.31.54-.51.58-.86a3.39,3.39,0,0,1,.94-.7c.31,0,.51.24.82.2a.67.67,0,0,1,.39.23c0,.12.16.16.16.31a2.92,2.92,0,0,1,0,.78c.07.08.15.08.19.19.2.32-.31.32-.15.58s.15.51.11.78c0,0,0,.08-.08.12s.16,0,.2.12c0-.12.12-.16.2-.24a.23.23,0,0,1,.19.08c0,.16,0,.27-.08.35a.14.14,0,0,1-.23,0s0-.08-.08,0c.08.35-.51.35-.31.66.15,0,.23.08.31.2a.13.13,0,0,0,0,.11c0-.07.08-.23.19-.15s.08.11.08.19-.16.12-.27,0c0,.23-.35.2-.39.39.23,0,.35-.19.5-.31.28,0,.32-.35.59-.16s0,.55.27.43c.32,0,.36.39.39.62a.43.43,0,0,0,0,.47c.07.16.27.08.35.23.19,0,0,0,.11.12s0,.35,0,.47v.19c.2,0,.47-.08.59.12.08,0,.12.08.16.11a1.37,1.37,0,0,1,0,.35c0,.16-.32.12-.24.32.39,0,.2-.7.7-.55.16.16.39.47.67.35a.67.67,0,0,1,.31-.27.84.84,0,0,0,.74,0c.27,0,.47.15.74.08a.79.79,0,0,1,.86-.16c.43,0,.71-.31,1.09-.35.16.12.32-.08.43.12.43-.2.28-.47.59-.39.16-.12.39.27.35-.12.08,0,.16-.08.23,0v.2c.16-.08.24-.24.39-.31s.24-.16.36-.08.19,0,.19.15c.16-.07.08-.27.2-.39a.47.47,0,0,1,.23-.23.14.14,0,0,1,.2.12V8a1.45,1.45,0,0,0-.28.27c.12,0,.2-.12.28-.16.27-.15.27-.66.66-.54a.25.25,0,0,0,.19.15c.2-.07.12-.42.44-.35.07,0,0,.24.15.24s.16,0,.2-.12,0-.39.19-.47.27,0,.43,0a.65.65,0,0,1,.66-.28c0-.19.28-.19.28-.39a.35.35,0,0,1,.27,0c.12-.11.08-.35.27-.35s.24-.19.39-.07-.11.11-.11.23A.36.36,0,0,0,42.1,6c.08-.27.51-.43.82-.46s.62-.2.93-.32.32.16.51.12a.73.73,0,0,1,.55-.15c.23,0,.27.38.54.27.08,0,.16,0,.2.11l0,.08c0,.08.16.08.2.2s0,.19-.12.19a1.56,1.56,0,0,0-.35.2c.08.11.23.07.39,0s.08-.31.19-.27c.39.27-.43.55.12.78.12.08,0,.27,0,.39s-.27.12-.16.27-.11.27-.15.39-.16.12-.24.19c.12,0,.12.12,0,.2s0,0-.08,0,0-.08,0-.16.27-.11.27-.15a.57.57,0,0,0-.43.15c0,.08.19.16.19.2s-.11.23-.27.27-.15-.08-.19,0c0,.5-.35.35-.63.62s-.54-.19-.78.08A.89.89,0,0,1,43,9.7c-.12.11,0,.31-.12.42-.23.32-.7-.15-.86.24.08,0,.2,0,.2.11a.65.65,0,0,1-.24.39,1.23,1.23,0,0,0-.43.28c-.12.07-.31,0-.39.19s-.7-.12-.55.35c-.11.12-.31.15-.35.35a.41.41,0,0,1-.35.08c-.08,0-.08-.08-.15-.12s-.12,0-.16.08.08.27,0,.38a.82.82,0,0,1-.74.2c-.2,0-.2-.31-.35-.23s0,.07,0,.15a.22.22,0,0,1,.08.27c-.08,0-.16.12-.24.16s-.12-.2,0-.27c-.08,0-.12,0-.15,0s-.28.19-.2.35,0,.11,0,.19c-.15.31-.54.08-.78.27-.08.2-.27.24-.39.39s-.47-.15-.62,0c-.08,0-.16,0-.24,0s.16.43-.16.51a.23.23,0,0,0-.15,0v.15c.12,0,.2,0,.27,0a.15.15,0,0,1,0,.12c-.11,0,0,.15-.11.19-.24,0-.43.24-.59,0-.08,0-.08.08,0,.12l.16.16c0,.07,0,.27-.16.27s-.23.35-.35.11c-.08-.07.16-.15,0-.15s-.08.27-.23.19,0-.19-.08-.31a.33.33,0,0,0,0,.27.42.42,0,0,1,.08.43.84.84,0,0,1-.16.24c-.15.07-.39-.2-.43.07s-.23-.11-.39,0,0-.27-.2-.27c-.07-.08,0-.19-.07-.27.16-.08.19.16.35.12a.8.8,0,0,0,.31,0c.08-.08.16-.2.28-.24v0a1.38,1.38,0,0,1-.55-.23c-.12-.27-.59-.08-.51-.47-.16-.07-.35,0-.54,0,.07.16.27.43.23.63s-.31.07-.16.23a.08.08,0,0,1-.07.12H32.5c0,.11,0,.31-.12.35a.35.35,0,0,0-.27.07c0,.24.23,0,.31.12a.51.51,0,0,1,.27.23c0,.16-.15.24-.07.39.07-.07.15,0,.23,0a.81.81,0,0,1,0,.31c.23.2.5.35.5.7a.44.44,0,0,1-.15.27l-.16.2c.12.08.31-.08.36.11s-.55.63-.4.71a.58.58,0,0,1,.44.23c.07.08,0,.23.15.27a.54.54,0,0,1,.35,0c.12.12,0,.16.08.23s-.12.28.08.28.43-.08.47.11a.73.73,0,0,0,.43.63c.15.07-.12.42.15.23.08,0,.2,0,.2.15s0,.12,0,.16c.35,0,.23.58.62.51.08,0,.12.15.12.27s0,.11-.12.19c.16.12.43.12.43.39,0-.08.08,0,.12-.08a.17.17,0,0,1,.08.24.15.15,0,0,1-.12,0L36.4,23c-.16.12-.31.27-.19.5a.43.43,0,0,0,.31.24c.16,0,.31-.2.51-.08s.46.23.42.51c.08-.2,0,.42,0,.35l0,.07c.08-.07,0-.19.08-.23s.2.08.31,0c.2.19.39.15.2.66-.08.08.39-.16.51-.12s.31.31.23.55c-.08.08-.19.15-.12.27s.55-.55.67-.35.35-.08.47.12,0,.34.19.46c0,.08-.35.54-.39.24a.52.52,0,0,1-.27-.47s-.12.11-.16.16c.08.26.12.46.2.77,0,0,.19-.27.27-.19a2.5,2.5,0,0,1,0,.77c.08.12.15,0,.23,0s.16.24.24.35,0,.16,0,.2a.17.17,0,0,1,.19,0c.08.11.12.23.27.31a.39.39,0,0,1-.11.27.24.24,0,0,1-.28-.12s0,.08,0,.12c.15.08.31.27.5.08.12,0,.2.11.2.19.08.27-.47.31-.16.55,0-.08,0-.24.12-.24a.7.7,0,0,1,.39.35c0,.16.12.28.08.47.07,0,.19,0,.23.12s0,.15-.12.15a.2.2,0,0,0-.15.08c0,.12.08.16.15.19s.16,0,.16.12a.94.94,0,0,1-.23.27c.39,0,0,.7.47.39.11,0,.11.12.15.2A.94.94,0,0,0,42,32c.12,0,.24,0,.24.12a.47.47,0,0,0,.08.46c.15.12.42.16.42.43.12,0,.24.16.28.23,0,.24,0-.31.39,0,0,.12,0,.43-.08.47s-.16.19-.24.11c0,.16,0,0,0,.2a.57.57,0,0,1,.24.58c0,.2-.24.27-.2.47s-.15.31-.27.43c-.12,0-.19.15-.31.15-.12.16.08.55-.24.59-.31.23-.66,0-1,.15-.12.08-.23,0-.31-.08l-.08-.15a.37.37,0,0,1-.39,0c-.16-.08,0-.35-.27-.31,0,0,0,.07,0,.07s-.16-.15-.28-.11a.8.8,0,0,1-.23-.7c0-.12-.08-.08-.16-.12a1.2,1.2,0,0,1-.39-.47.18.18,0,0,1,0-.19c.08-.08.2,0,.28,0a.56.56,0,0,0,.11.54c.08-.08-.11-.15,0-.27s.08-.08.08-.16c-.27,0-.08-.46-.43-.31,0,0-.08-.11-.11-.07a.14.14,0,0,1,0,.15c-.05.08-.12,0-.16,0s-.08-.08,0-.12,0-.07.08-.11h.07s.05-.12,0-.16-.32.12-.28-.08c.16,0,0-.15,0-.19-.12-.15-.31-.27-.23-.5l-.08-.08c-.08.12-.08.27-.24.19s-.39-.39-.15-.58c.08-.08.15-.16,0-.19s-.2,0-.31,0-.12-.39-.36-.31-.15-.08-.23-.12,0-.31-.19-.31-.2,0-.2.08.31,0,.27.15.12.08.12.16-.08.07-.08.15a.23.23,0,0,1-.23,0c-.08-.11-.28-.19-.2-.39-.15-.15-.15-.35-.31-.5,0-.2-.08-.35-.27-.47s-.08,0-.16,0,.08-.23-.11-.31c-.12.08-.24,0-.4,0s-.31-.19-.27-.39c-.23,0-.35-.23-.51-.42s.08-.51-.23-.55c-.08,0-.19.08-.27,0s-.32-.12-.36-.27a2.89,2.89,0,0,0,.08-.58c-.11-.08-.19-.24-.31-.28s-.27.2-.43.12-.27-.12-.19-.31c0,0,0-.08-.08-.08a.73.73,0,0,1,0-.31s-.08-.16-.2-.16.08-.19-.08-.19c0,.23-.23,0-.35.19s-.23-.15-.31-.19S32,27,32,27s.12,0,.12-.07.27,0,.27-.12c0,0,0,0,.08,0-.12-.16-.2,0-.31,0l-.08.08c-.12,0-.2-.2-.31-.15-.16-.16-.2.23-.36.07s-.15-.31-.27-.42a.88.88,0,0,1-.51,0c-.07-.08,0-.16-.07-.24s.15-.19,0-.31a1.33,1.33,0,0,1-.39,0c-.12-.08-.08-.19-.12-.31s0-.12,0-.2a.38.38,0,0,0-.2,0c0,.07,0,.15-.07.19s-.2,0-.28-.12,0-.31-.11-.35-.12-.07-.08-.11c-.12,0-.16-.2-.28-.08-.15,0-.07.12-.11.16s-.12,0-.16-.08,0-.27-.19-.31,0-.2-.08-.28-.08,0-.16-.07l0,0c.08,0,.08.11.16.19a.24.24,0,0,1,0,.16c-.31,0-.47-.24-.74-.12-.12,0-.35.23-.31,0,0-.08-.08-.12-.16-.08s0,.12,0,.2-.27.42-.43.11c0,0,0-.07,0-.11-.2,0-.27.27-.47.11-.23,0,0,.28-.27.35a.29.29,0,0,1-.35.08.06.06,0,0,0-.08,0l-.08,0c.12,0,.08.12.16.19a.4.4,0,0,1-.16.2c-.08-.08-.27.08-.23-.12,0,0,.12,0,.12-.08-.28,0-.55.28-.82.08-.08-.08-.16,0-.24-.08s-.23.32-.27.47.08-.15.16-.19.07-.2.19-.16,0,.2.08.31a.54.54,0,0,1-.08.27c-.16.08-.31.2-.47.16s-.08-.27-.23-.12c0,.12.23.12.15.27.08,0,.16,0,.2,0s0,.12,0,.16a.8.8,0,0,1-.24.19l-.11-.11c0,.08-.12.11-.16.19.12,0,.12.23,0,.35a.12.12,0,0,1-.16.08.13.13,0,0,0-.11,0c-.12.12,0,.23,0,.35a.23.23,0,0,1-.12.2c-.16,0-.35-.2-.43,0-.19.08-.39-.15-.47.12,0,0,0,.08.08.12s.16-.16.28-.08-.2.15-.24.31c-.08-.08-.27,0-.31-.16s.11-.11,0-.15-.16,0-.2,0-.15-.08-.23,0a1.17,1.17,0,0,1-.35.35s0,.08,0,.08.23-.35.39-.16.23,0,.35.08a.21.21,0,0,1-.12.19.15.15,0,0,0-.12,0c0,.12-.15.12-.27.16s-.12,0-.2-.08,0,.16,0,.2.11,0,.19.07,0,.28-.16.31-.07,0-.11-.07,0-.12,0-.16c0,.16-.27.35,0,.47,0,.11,0,.23-.08.35s-.15,0-.23.08v.15c-.08.08-.32,0-.28.2-.15,0-.23.35-.35.19s.12-.35.12-.58.27,0,.23-.12-.23,0-.35,0c-.07.16.08.47-.19.47s-.16-.08-.24-.12c-.31.12-.08.54-.39.62s-.31-.15-.47,0-.19-.08-.23.08c.12.16-.08.27,0,.39s.27,0,.31-.12,0-.15,0-.23l.16-.12s0,.16.12.2c.23,0,.23-.24.43-.2,0,0,0,0,0,0,0,.2-.19.27-.11.51,0,.07-.08.19-.2.23a.27.27,0,0,0-.19,0c-.16.16,0,.39-.2.55a.3.3,0,0,1-.35.07c-.08,0-.15,0-.19,0,0,.24,0,.59-.32.74-.15,0-.23-.08-.35-.19-.07.11-.07.31-.27.31s0,.11,0,.15-.2.24-.31.08l0,0c0,.16-.31.24-.12.43,0,0,0,.08.08,0s0-.08,0-.12.19-.27.39-.23.23.15.12.27-.36.12-.28.35a.41.41,0,0,1-.15.19.31.31,0,0,1-.2-.08C17,33.87,17,34,17,34a.14.14,0,0,1,.08.19c-.11.08,0,.35-.19.27s-.08-.11-.16-.11,0,.23.08.27.23.27.12.47c-.12,0-.2.19-.36.15,0,.47-.54.66-.62,1s-.62,0-.55.43c-.11.39-.7.12-.7.58-.08.24-.39.08-.54.28.07,0,.15,0,.07.11a.85.85,0,0,1-.23.2.24.24,0,0,1,0-.16c0-.12.2,0,.23-.15s-.19,0-.23,0c-.16.19,0,.5-.31.58-.08,0-.16,0-.2-.12l0-.23c-.08,0-.11.08-.15.08s.07.23,0,.31a.75.75,0,0,1-.75.31.43.43,0,0,0-.23.39c.12.15-.08.43.12.58a.45.45,0,0,1,0,.39c-.08.23-.27.16-.43.2.16.07.12.23.12.35a.31.31,0,0,1-.39.07s-.08,0-.12-.07-.2.15-.12.31a.2.2,0,0,1,.08.3c-.08,0-.16-.07-.19,0s0,.39-.2.43-.31,0-.47,0-.23.35-.43.47a.12.12,0,0,0,0,.08c.08-.12.31,0,.24-.28s.15-.27.31-.23a.12.12,0,0,1,0,.19c-.12,0-.12.16-.12.24l.08,0c0,.11,0,.23-.16.27s-.08-.16-.19-.12-.12.12-.2.08l0-.16a.24.24,0,0,1-.39,0,.16.16,0,0,1-.11,0s0-.11-.12-.08-.08.24-.2.28c.16.11.12-.2.28-.08s.11.23,0,.31-.24,0-.35,0Zm1.28-.47h0ZM7.79,39.82c0-.08.12-.15.12-.23s0-.12-.12-.08-.15.08-.11.2A.13.13,0,0,0,7.79,39.82Zm4.65-.58c.07,0,.07-.08,0-.08h0l0,0,0,0Zm.12-.16a.31.31,0,0,0,.11-.27c0-.08,0-.19-.16-.15s-.11.15-.11.27S12.44,39.08,12.56,39.08ZM9.31,37.57c0-.12.2-.28.12-.43s0-.27-.12-.39a.14.14,0,0,0-.19.08c-.12.15,0,.27,0,.39s-.12.15-.08.31.16.08.23,0Zm4.3-.24c0-.11.19-.07.23-.15-.23-.2.16-.35-.08-.55-.23,0-.15.24-.23.35A.36.36,0,0,0,13.61,37.33Zm1.44-1.16a.4.4,0,0,0,.28-.16s.07,0,0-.08-.08-.19,0-.27.11-.08.07-.15c-.15.19-.35.19-.58.46A.56.56,0,0,1,15.05,36.17ZM42.61,36c.15,0,.19-.15.27-.19s.19-.28.08-.39-.08.11-.2.11c0,.16-.15,0-.23.16S42.49,35.93,42.61,36Zm-26.35-.54,0-.12c-.08,0-.15-.16-.23,0s.15.08.19.16Zm27.13-1.29a.26.26,0,0,0,.08-.23s0-.16-.16-.16a.24.24,0,0,0-.12.24A.25.25,0,0,0,43.39,34.18Zm-5-1.2c-.2-.12.12-.19,0-.39l-.12-.08-.07.08C38.19,32.71,38.35,32.86,38.43,33ZM37,31.35v-.27c0-.08-.08-.2-.2-.2l-.12.16s0,.35,0,.35.2-.16.2-.12S36.87,31.35,37,31.35Zm-1.06-.62s0-.12,0-.12-.19,0-.19.08.19.15.19,0Zm.28-.28a.23.23,0,0,0,0-.23.34.34,0,0,0-.2-.12C36,30.26,35.93,30.45,36.17,30.45Zm-16.86-.54c.08-.16.31-.2.39-.35,0,0,0,0-.08,0s0-.2-.12-.27-.19,0-.27.07a1.27,1.27,0,0,1,0,.55S19.27,29.91,19.31,29.91Zm1.48-.23.08,0s-.08-.12-.12-.08Zm19.79,1.2a.52.52,0,0,0-.24-.54c.16.23-.19.35-.08.54S40.5,30.92,40.58,30.88ZM14.74,29s-.08-.12-.16-.08v0c-.07.15.2.15.16,0Zm5-.12a.41.41,0,0,0,.16-.27s0-.12-.12-.08a.4.4,0,0,0-.23.43C19.66,28.94,19.7,28.82,19.77,28.86Zm.67-.16c.12-.07.23-.27.39-.27a.2.2,0,0,0,.08-.15.75.75,0,0,0-.51.19C20.36,28.55,20.36,28.66,20.44,28.7Zm13.27-.11c.08,0,.08-.12.08-.2s-.08-.35-.28-.27c0,.12-.16.16,0,.27S33.59,28.59,33.71,28.59Zm6.28.27c.16-.12-.08-.16-.12-.23s0-.28-.11-.32a1.27,1.27,0,0,1,0,.39A.31.31,0,0,0,40,28.86Zm.2-.31-.08-.27s-.08.07-.08.15S40.15,28.55,40.19,28.55Zm-7.46-1.09s0,0-.08,0,0,0,0,0S32.73,27.5,32.73,27.46Zm-.15,0a.17.17,0,0,0,0-.19s-.12,0-.16,0,.12.12.16.16Zm-10.39.12c.08-.08.24-.08.28-.24.23.08.16-.07.16-.11.07-.2,0-.12,0-.24-.28.31-.47,0-.51.55,0,0,0,0,.07,0Zm9.57-.66c.08,0,.19,0,.19-.12s-.08,0-.15,0-.08-.16-.16-.08.08.16.12.24ZM16.3,26.61c.16-.05.08-.2.12-.32a.16.16,0,0,0-.08,0c-.12,0-.16.15-.19.27a.2.2,0,0,0,.15.08Zm.55-.16c.08-.12.19-.35.12-.43,0,.08-.08.27-.2.19C16.77,26.29,16.77,26.41,16.85,26.45Zm-.32-.31c0-.08,0,0-.07,0v0C16.46,26.21,16.53,26.18,16.53,26.14Zm12.57-.93c.08.07.12,0,.2,0a1.73,1.73,0,0,1,0-.2c-.12,0-.08-.08-.12-.11a.36.36,0,0,0-.2,0s0,0,0,.11Zm-11.55-.86a.45.45,0,0,1,.31-.12c.12,0,.12-.15.08-.23a.33.33,0,0,0-.27,0c.08.19-.2.16-.12.31Zm10.58,0c0-.08,0-.08.07-.08S28.16,24.27,28.13,24.31Zm-9.8-.7c.08-.08.27,0,.27-.19a.5.5,0,0,0-.23-.47V23c.12.08,0,.23.08.35A.33.33,0,0,0,18.33,23.61Zm-.58-.11a.53.53,0,0,0,.15-.32c0-.11.12-.23,0-.35-.08,0-.19,0-.23,0s-.24.28-.12.51.08.12.16.12Zm15.84-2.34s.27-.35.35-.35-.35,0-.35-.15l-.24.15A.35.35,0,0,0,33.59,21.16ZM18.1,19.68a.74.74,0,0,0,.19-.15s0-.12,0-.12-.19,0-.31,0-.12,0-.08.16A.28.28,0,0,0,18.1,19.68ZM9.39,16.3a1,1,0,0,0,.55-.23.3.3,0,0,0-.16,0c-.11,0-.27.12-.39,0C9.31,15.76,9,16,8.89,16l0,0a.37.37,0,0,1,.36.12c.08.08,0,.16.11.19Zm23.81-.54c-.12,0-.12-.23-.27-.19v0c-.12.08-.08.2-.08.32s.23-.12.35-.16Zm1.29-.7c0-.12.23.16.27.08s.12.11.16.08-.08-.47-.16-.51A1.17,1.17,0,0,0,34.49,15.06Zm1.79-.43c.28,0,.24-.35.28-.54l0,0c-.16-.08-.31,0-.43.15a1.26,1.26,0,0,0,0,.39C36.13,14.67,36.21,14.59,36.28,14.63Zm-24-.93a.11.11,0,0,0,.08-.16c0-.07-.08-.07-.12-.11s-.23-.08-.31,0,.16.31.35.23ZM38.63,12s-.16-.31-.2-.31-.15.39-.2.47C38.39,12.22,38.82,12.3,38.63,12Zm3.82-1.6c-.08-.07-.15,0-.23-.07v.07C42.22,10.44,42.41,10.47,42.45,10.35Zm.74-.19c.35,0,.2-.35.2-.27,0-.08-.16-.08-.28-.08S43,10,43,10.05,43.11,10.16,43.19,10.16Zm.55-.39c.11,0,.15-.11.27-.11a.32.32,0,0,0,0-.27c-.08,0-.15,0-.23.07a.45.45,0,0,0-.12.31C43.62,9.85,43.7,9.85,43.74,9.77ZM39.25,7.48c.08,0,.08-.08.12-.12s0-.11-.08-.15a.24.24,0,0,0-.16,0c0,.07,0,.07.12.23Zm6.44-.39-.2-.27a1,1,0,0,0-.19.35C45.57,7.4,45.61,7.17,45.69,7.09ZM27.19,6s.12-.07.08-.15,0-.08-.08,0-.08.08-.12.15A.15.15,0,0,0,27.19,6Z"/><path class="cls-2" d="M27.31,21.12c-.2-.11-.39.08-.59,0-.27.12-.27.39-.35.63a.22.22,0,0,0,.31-.08c.16.11.28-.08.39-.16a.7.7,0,0,0,.28-.19s-.08-.08-.12-.08"/><path class="cls-3" d="M30.86,17.58c-.16-.11-.35.05-.51,0s-.23.32-.27.51a.15.15,0,0,0,.23-.08c.16.08.27,0,.35-.15s.16-.08.24-.16-.08,0-.12-.07"/><path class="cls-3" d="M7.91,41.88a.73.73,0,0,1,0-.74c.08,0,.19-.08.27,0s0,.43.24.47.85.15.82.62c0,.16-.2.23-.36.27A1.27,1.27,0,0,1,7.91,41.88Zm1.72-1.24c.46-.23.19-.74.35-1.13,0-.15.19-.15.31-.19.27-.16.24-.43.2-.7s.11-.35.27-.39.23-.35.39-.47a1,1,0,0,1,.35-.19c.19-.16.51-.35.47-.63s-.39-.58-.47-.93v0h0a.52.52,0,0,1,0-.54,1.26,1.26,0,0,0,.16-.55.53.53,0,0,0-.39-.15c-.2.11-.16.35-.16.5l-.27.35a1,1,0,0,0,.16.66.3.3,0,0,1-.12.32s-.08,0-.12,0,0-.24,0-.39a.26.26,0,0,0-.31-.12c-.12.16-.28.12-.39.23-.27.35.11.7.23,1a.86.86,0,0,1-.47.47c-.43.23-.15.86-.66,1.05a.71.71,0,0,0-.62.12.58.58,0,0,0-.12.46.68.68,0,0,0,.31.39c-.11.12-.31.08-.39.28s0,.66.12.93c.47.62.82-.27,1.25-.35ZM9,40.06a.54.54,0,0,0-.27-.32c.08.12.43-.15.51.12a.42.42,0,0,1-.16.35C9,40.17,9.12,39.94,9,40.06ZM41.24,36.4c.23.08.43-.12.63-.23a.57.57,0,0,0,.58-.2c.2-.27-.23-.23-.31-.43a1.61,1.61,0,0,0,.35-.23.94.94,0,0,0,0-.31l-.16-.19c-.43-.08-.43.15-.82.15s-.43-.43-.5-.7c-.2-.62.19-1.36-.16-1.9a3.47,3.47,0,0,0-.59-.23c-.47-.2.08-.7-.19-1a.4.4,0,0,0-.28,0c-.15-.07,0-.31-.11-.39a.36.36,0,0,0-.27-.15.65.65,0,0,1-.2-.27.82.82,0,0,0-.31-.86c-.16-.23.11-.35.11-.54s0-.24-.11-.28c-.28,0-.24,0-.28.12s0,.31-.15.43-.08.08-.12,0-.11-.31-.11-.31a.65.65,0,0,0,0-.59c-.12-.11-.31-.07-.47,0s-.15-.19-.15-.31c.19-.15.08-.42,0-.58s-.2-.47-.35-.47c-.32-.11-.28.08-.39-.19s-.28-.2-.28-.35-.08-.35-.08-.54,0-.16-.11-.24.27-.15.35-.19a1.46,1.46,0,0,0-.12.39c0,.15,0,.38.2.46s.31-.31.58-.27a1.48,1.48,0,0,0-.15.35c0,.08.11.19.23.16s.23-.12.2-.24-.12-.27.11-.39c.08-.11.16-.19.24-.3a.29.29,0,0,0-.08-.28c-.27-.08-.43-.31-.7-.42s-.16.19-.24.31-.11.11-.19.07c.08-.19-.2-.38,0-.58,0-.15-.08-.27-.16-.39s-.35,0-.51.16,0,.43,0,.62-.35.12-.42.35-.2.27-.16.46,0,.24-.08.24a.76.76,0,0,0,.31.62c-.07.39.2.31-.19.43-.2,0-.43.07-.55-.12,0-.39-.15-.62-.23-1L34.33,26a5.73,5.73,0,0,0-1.68-1.28c-.27-.12-.23-.43-.35-.66s-.31-.23-.7-.39a.25.25,0,0,0-.27.08c-.16.11-.24.46-.47.39-.43-.47.31-.63.47-.94,0-.15.07-.35-.12-.42s-.43.11-.7.07c0-.07-.12-.15-.12-.23a.29.29,0,0,1,.08-.35c0-.19.23-.51,0-.7,0-.12-.2-.08-.16-.19-.31-.51.51-.55.51-1a.49.49,0,0,0-.16-.31c-.11,0-.19,0-.31,0-.15.31-.39,0-.62.08-.39.08-.51.62-.94.54-.12,0-.12-.23-.23-.19-.32-.31-.63.15-1,0a.82.82,0,0,0-.35-.47c-.16.08-.39.12-.43.31s-.24.16-.39.16a.56.56,0,0,0-.39.35c-.16.15,0,.43-.16.58,0,0-.08,0-.08,0-.42-.27.12-.66,0-1a.18.18,0,0,0-.23-.11c-.12,0-.19.11-.23.19s-.08.23,0,.31.08.2,0,.24-.08.15-.12.19l-.16,0a.51.51,0,0,1-.08-.39,1,1,0,0,0,0-1.16v-.43c0-.39.4-.39.51-.7,0-.12.12-.31,0-.43S25,18,24.81,18s-.51.28-.78,0,0-.93-.31-1.28c0-.15-.16-.31,0-.43a1.94,1.94,0,0,0,.82-.66c0-.23.35-.27.31-.5a1.39,1.39,0,0,0-.2-.7.51.51,0,0,1,.12-.47c.12,0,.27-.08.35.08s.24-.16.35-.2c0-.19.2-.39.28-.54.23,0,.31.23.46.35,0,.15.12.27.08.47l0,0v.2a.59.59,0,0,0,.55.31.35.35,0,0,0,.31-.16c0-.31.39-.54.32-.89a.87.87,0,0,1-.12-1c-.08-.12-.08-.27-.24-.35a.79.79,0,0,0-.43,0c-.39,0-.66.35-.86.62-.11.08-.15-.08-.23-.12s-.31.08-.47.16L25,12.84a.51.51,0,0,1,.05-.42c.23,0-.05.12,0,.23a.2.2,0,0,0,.19.12.58.58,0,0,0,.08-.23c0-.09,0-.24-.12-.32,0-.19.12-.42,0-.58-.51-.24.16-.58-.08-1-.07-.12-.27-.16-.39-.32s.12-.19.16-.3-.2-.39,0-.51v0c.15-.08.19.16.35.12s.08,0,.08-.08.15-.27.19-.39.24-.16.32-.27a.49.49,0,0,0,.31-.16.34.34,0,0,0,0-.27.28.28,0,0,0-.28-.16c-.15,0-.12.2-.27.2s0-.12-.16-.16A.41.41,0,0,1,25.24,8c-.08-.16,0-.28.12-.39a.56.56,0,0,0,0-.47s0-.08,0-.12a.87.87,0,0,1-.2-.93.4.4,0,0,0-.2-.16c-.23.12-.23.32-.35.47,0,.39-.46.12-.58.39s0,.27.12.39c.27.39-.28.43-.39.66a1.36,1.36,0,0,0-.12,1c0,.08-.12.2-.23.16-.28-.31,0-.66.11-1s0-.47.08-.7.43-.43.35-.82c-.31-.31.2-.51.16-.82a.25.25,0,0,0-.2-.15c-.55.5-.58,1.24-.86,1.9a1.65,1.65,0,0,0-.35,1.32,1.21,1.21,0,0,0-.19,1.09c0,.2-.24.28-.35.43-.4.31-.16.9-.59,1.2-.2.2-.55,0-.78.16s-.43.58-.31,1a3.8,3.8,0,0,0-.47.74,1.58,1.58,0,0,0-.51.39c-.08.35-.47.27-.66.5s.11.39.19.55a.42.42,0,0,1-.15.15c-.47,0-.9-.19-1.29.12-.2.23-.27.66-.62.7l0,0a.08.08,0,0,0-.12,0s0-.08-.08-.11-.08,0-.08,0l0,0a.84.84,0,0,0,.16-.24.24.24,0,0,0,0-.23c-.08-.16-.27-.12-.39-.16-.31,0-.31.43-.55.47-.19-.19-.35-.43-.62-.35a.63.63,0,0,0-.47.35,1.07,1.07,0,0,1-.35.7,2.39,2.39,0,0,0-.51.23c-.08.12-.15,0-.19,0s.23-.19.31-.31,0-.19-.08-.27c-.23-.12-.43.12-.62.23s-.2,0-.28-.07c-.27-.31-.62,0-.89,0a2.36,2.36,0,0,0-.75-.63.71.71,0,0,0-.5.08c-.39.2-.2-.31-.43-.39s-.28-.08-.39,0-.12.16-.12.27a1.5,1.5,0,0,1,.12.7,1.44,1.44,0,0,0,.7.59c.51-.12.74.35,1.05.66.39,0,.7.38,1.14.19a1.92,1.92,0,0,1,1.13-.07c.15.07.23.26.31.42a1.11,1.11,0,0,0,.35.08c.19,0,.39-.08.47-.24a.66.66,0,0,1,.31-.46.21.21,0,0,1,.08.16c-.12.19-.35.35-.27.62,0,0,0,.15.11.15a1,1,0,0,1,.39.62c.08.2.28.2.39.31a1.36,1.36,0,0,0,1.17-.11c.12,0,.28-.12.4,0,.07.35.42.54.66.74s.08.39.15.54c.55.43-.11,1.09.51,1.48.24.31-.08.89.39,1.09.12,0,.27-.16.39,0,0,.35-.47.43-.74.54a1.2,1.2,0,0,0-.55,1.17c.08.35.47.31.71.39s.35.27.54.19a.85.85,0,0,0,.32-.58.34.34,0,0,1,.31-.16c.39.28-.16.55,0,.86a.34.34,0,0,0,.39.19c.62.39-.08,1-.12,1.44a.29.29,0,0,0,.08.35c.35.12.51-.23.7-.43s.39.2.63.12.23-.47.35-.66c.08-.35.43-.23.62-.39.28-.31.55-.7,1-.66.23.12.47.35.78.27s.62-.5,1.09-.31c.23-.08.35-.35.55-.5.31.11.54-.31.7-.47s.2,0,.23,0,.24.08.32.16.35,0,.5,0a.48.48,0,0,1,.2-.2c.08,0,.19,0,.27.16.16.42.63.27,1.05.31.24.11.16.39.32.58h0l.11.08c.39,0,.31.43.63.58s.39-.23.7-.15c.35.27-.27.27-.2.58,0,.07,0,.19.12.27.24.12.35-.46.59-.15,0,.27.35.42.54.58.55.15.28.74.39,1.12s.43,0,.67.08c.43.16.11.66.31,1s.59.16.9.2c.08,0,.08.12.11.19a.55.55,0,0,0,.39.2c.4,0,.28-.43.51-.59,0,0,.12,0,.16.08s-.16.2-.2.31-.15.31,0,.47.35-.16.5-.16c.24.2,0,.55.16.74s.39.24.54.39c.36.12.16.59.43.82.08.12.28,0,.43,0s0,.12,0,.15a.48.48,0,0,0,.16.55.19.19,0,0,0,.27,0c.12-.16-.12-.35.08-.47,0,0,.12,0,.16.08s0,.16,0,.2c-.16.54.58.5.54,1,.2.23-.15.39-.11.62a10.26,10.26,0,0,0,.74.73.33.33,0,0,1,.11.28c.08.27.43.19.63.39.08,0,.08.19.08.27a.7.7,0,0,1-.28.19,1.73,1.73,0,0,0,0,.2c0,.31.39.11.59.19s.16.08.12.16a.54.54,0,0,0,.27.23Zm-29.43-.47c.08-.07.16-.11.2-.19a.35.35,0,0,0,0-.39c-.12-.08-.23.08-.31.16s-.16.19,0,.31S11.74,35.93,11.81,35.93Zm28.42-.35a.44.44,0,0,0,.07-.31s-.11-.11-.19-.08a.4.4,0,0,0-.2.39A.3.3,0,0,0,40.23,35.58Zm1.83-1.09a.67.67,0,0,0,.08-.31c-.12-.19,0-.35,0-.54a.63.63,0,0,0-.24-.54c-.23,0-.35.23-.47.39-.31.38.12.73.16,1.08C41.75,34.69,41.94,34.61,42.06,34.49ZM14,34.42a.8.8,0,0,0,.43-.12c.27-.23.74-.12,1-.43a.37.37,0,0,0,.08-.34c0-.2-.23-.28-.35-.35s-.31,0-.31-.24a1.15,1.15,0,0,1-.2-.89c.08,0,0-.12,0-.16a.59.59,0,0,0-.31-.23c-.08,0-.15.15-.23.19s-.32,0-.51,0-.2-.11-.35-.11-.08,0-.12,0c-.43.07-.35.54-.47.85a1.07,1.07,0,0,0-.62.78.78.78,0,0,0,1.05.77C13.37,33.68,13.69,34.26,14,34.42Zm-2-.43c.2-.16,0-.35,0-.54s-.15,0-.23,0a.38.38,0,0,0,0,.3c.07.12.23.12.31.2Zm4.68-1.4a.88.88,0,0,0,.47-.08c.16-.11.43,0,.55-.19a.24.24,0,0,0,.12-.23c-.12-.24,0-.59-.16-.78s-.31,0-.43,0-.23.08-.27,0c-.32,0-.16-.47-.51-.55a.48.48,0,0,1-.23-.46,1,1,0,0,0,.15-.78c0-.23.39-.43.16-.66a.34.34,0,0,0-.28,0c-.15,0-.23.35-.43.19,0-.15.12-.27.2-.39a1.41,1.41,0,0,0,.7-.93c0-.07-.08-.12,0-.15s.28-.12.39-.16c.28-.08.43.19.67.08s.31-.55.5-.78a.56.56,0,0,1,.36,0,.61.61,0,0,0,.54-.23.86.86,0,0,0-.12-.7c-.11-.2,0-.35,0-.55s-.11-.58-.42-.54-.32.12-.47.23a.41.41,0,0,0,0,.31c0,.24-.16.55-.43.59-.2.27-.35.54-.51.77s-.63.35-.66.7a.26.26,0,0,1-.24,0c-.31.2-.43.58-.74.78a.75.75,0,0,0-.08.58c0,.24-.27.27-.43.39a.66.66,0,0,0-.11.58c0,.28.35.47.15.74s-.47,0-.7,0a.46.46,0,0,0-.35.2.55.55,0,0,0,0,.5c.16.08.31.16.47.08a1.14,1.14,0,0,1,1-.08c.23.12.23.39.39.55a1,1,0,0,1,.59.74ZM16,32.16a.23.23,0,0,0,0-.23c-.08,0-.12-.15-.2,0a.51.51,0,0,0,0,.24C15.87,32.13,15.91,32.28,16,32.16Zm-.47-.23c.23-.15.16-.31.12-.54s-.35-.12-.55-.16-.19.16-.19.27.15.2.23.16S15.37,31.93,15.52,31.93Zm24.08-1.4c.12,0,.08-.12.12-.23s-.16-.27-.31-.2,0,.12,0,.2S39.48,30.53,39.6,30.53Zm-2.92-1.48c-.08-.15-.36-.27-.2-.54,0-.16.12-.27.2-.43.07,0,.07.08.15.08a1.36,1.36,0,0,0,.12,1c0,.12-.08.23,0,.31l0,0v0c-.12,0,0,.08-.12.08s0-.35-.07-.55Zm1.55-1.32a.34.34,0,0,0,.16-.31c0-.12-.16-.16-.23-.12s-.12.16-.12.24S38.16,27.73,38.23,27.73Zm-20-.27c.2-.08.24-.27.28-.43s-.2-.08-.32-.08,0,.31,0,.47,0,0,.08,0ZM22.7,27a.36.36,0,0,0,.39-.23.63.63,0,0,1,.39.08c.16,0,.24-.12.31-.2.08-.23.32-.35.28-.62s-.39.16-.66,0c-.16,0-.28-.15-.47-.12a.21.21,0,0,0-.12.28c.16.23-.19.38-.19.58S22.66,26.92,22.7,27ZM35.23,25.4c.16,0,.16-.19.23-.27a.41.41,0,0,0-.07-.35c-.16-.08-.24.08-.36.15s-.11-.11-.23-.11c-.19.19-.19-.24-.43-.16-.08.12-.31,0-.31.24s.23.27.35.34c.31.2.2-.27.35-.27s.16.12.12.2A.4.4,0,0,0,35.23,25.4ZM34,24.62c.31.12.39-.15.59-.31,0-.15-.08-.31-.12-.46-.19-.16,0-.35,0-.59s-.19-.15-.27-.23a.12.12,0,0,1,0-.16.3.3,0,0,0-.08-.31.72.72,0,0,0-.39-.11c-.16,0-.08-.24-.27-.28s-.4.28-.67.31-.43-.27-.7-.11a.2.2,0,0,0-.08.15s0,.16,0,.24c.35.23.2.54.2.89,0,.08.07.2.19.23s.31-.19.47-.31.08.08.12.12c0,.27-.35.47-.16.74a.33.33,0,0,0,.27,0c.32-.27.63.08.9.15ZM20.75,22.76c-.08-.24.2-.47.08-.7.31.23.58-.24.82.11a.32.32,0,0,1,.08.31c-.12.32-.43.35-.71.47C20.91,22.91,20.75,22.91,20.75,22.76Zm8-1.25c0-.11,0-.31.16-.31l0-.08c.19,0,.47-.15.54.12a.51.51,0,0,1-.07.35c-.16.23-.36.08-.55.08C28.87,21.59,28.79,21.59,28.75,21.51Zm.16-1.09a.4.4,0,0,0,.19-.35c0-.11-.15-.19-.27-.23s0,.12,0,.19-.08.2-.12.32S28.87,20.42,28.91,20.42Zm-3.44-.27c.08-.12.24-.12.28-.23,0-.35-.32-.43-.47-.66,0,0-.08.08-.08.15s0,.35,0,.51C25.28,20,25.32,20.15,25.47,20.15ZM29.61,20c.19-.07.31-.31.43-.5s.12-.23,0-.31.2-.31.31-.39,0-.2,0-.31a.3.3,0,0,0-.31-.2.42.42,0,0,0-.2.47c-.11.19-.35.31-.38.51a2.09,2.09,0,0,1,0,.66C29.49,19.92,29.49,20,29.61,20Zm.82-.81c.08-.12,0-.24-.08-.27s-.12.11-.23.15S30.31,19.34,30.43,19.22Zm-13.58-1,0-.27c.19-.08.15-.28.35-.35s.15-.63.51-.59c.11,0,.15.12.27.2s.55.15.58.43-.35.34-.54.42-.71,0-.9.35C17,18.37,16.89,18.4,16.85,18.25Zm-.32-1.56c0-.23,0-.54.24-.66.23.2,0,.47,0,.74C16.69,16.85,16.57,16.81,16.53,16.69Zm4.61-.27c0-.15.08-.27.2-.35s.5-.15.66-.43c0-.11.12-.23,0-.35s-.12-.19-.23-.15-.24,0-.36,0-.08.11-.15,0-.08-.31,0-.47.23-.16.23-.31a.69.69,0,0,0,.43-.31c.16-.47-.39-.9,0-1.4.08,0,.12-.08.16-.12.7,0,.59.78.74,1.17.2.19.39.43.63.46s.31.51.35.82a.85.85,0,0,1-.43.66,1.86,1.86,0,0,1-.43.12c-.2-.23-.35-.16-.59-.16-.39.24-.58.63-.94.86-.11,0-.23.08-.23-.08ZM9.63,16.07c.15,0,.23-.12.27-.19s.08-.39-.12-.47-.31.08-.47.16,0,.11,0,.15A2.54,2.54,0,0,1,9.63,16.07ZM22,15.22c-.08-.39.23-.7.43-1,.08,0,.16-.19.31-.11a.55.55,0,0,1,.08.35c0,.19-.23.15-.23.31s.07.35,0,.43-.12.15-.2.15S22.12,15.37,22,15.22Zm12.76-.63c.12-.15.35-.27.27-.5.08,0,.12-.16.24-.12.08-.12.23,0,.27-.19s0-.2,0-.28-.23-.11-.39-.11-.19.08-.23,0a.32.32,0,0,1,0-.27c-.08-.12.07-.2.15-.31.12.11-.12.19,0,.27s.2,0,.24,0a.37.37,0,0,0,.07-.16c-.11-.07-.15-.15-.31-.15,0-.08.16-.15.27-.24.51.2.32-.42.67-.54.31-.31.86.08,1.09-.27s-.12-.31-.15-.47c.23-.15.58,0,.7-.31,0-.31.27-.54.5-.7s.2.12.36.12c0,0,0,.12,0,.16s-.16-.2-.36-.16c0,.16-.19.19-.31.23s0,.2.08.27a.3.3,0,0,0,.23-.11c.09,0,.16-.08.24,0,.27.08.31-.32.51-.35s.27-.12.47-.12.23.24.35.31a.41.41,0,0,0,.31,0c.16,0,.08.16.16.24s.23,0,.35.07a.42.42,0,0,0,.31-.11c.08-.16.16-.27.08-.43s0-.23.08-.27v0c.11-.23.5-.23.54-.51,0,0,.12-.11.16-.07s-.08.11-.08.15a.32.32,0,0,0,0,.27.37.37,0,0,0,.27.08,2.92,2.92,0,0,0,.71-.27A.9.9,0,0,0,42.72,9c0-.08.08-.12.16-.08s.15.11.23.19c.24-.15.28.24.51.12s.39-.12.39-.35a.22.22,0,0,0-.19-.12c-.16,0-.24.2-.35.2s0,0,0-.08c.11-.2.35-.2.54-.2l.12,0c.16,0,.31-.07.39-.23s0-.31.08-.43a.63.63,0,0,0,.23-.7c-.16-.19-.16-.5-.51-.54-.07,0-.11.11-.19.11s-.12.08-.16.16a.3.3,0,0,1-.19.08c-.08-.16.07-.31.15-.47s0-.31-.15-.43a.62.62,0,0,0-.39,0c-.2.08-.47,0-.67.12a2.48,2.48,0,0,1-1.6.54.31.31,0,0,0-.23.32c-.19.42-.66.07-.94.31a1.84,1.84,0,0,0-.62.62c0,.15-.28.15-.39.31-.08-.12-.28-.08-.43-.08s-.23.24-.35.35-.24.27-.43.27c-.2.28-.31-.11-.55-.07a3.92,3.92,0,0,0-.66.31.36.36,0,0,1-.2,0c-.43,0-.82.27-1.25.12-.35,0-.66-.16-1,0a1.28,1.28,0,0,0-.7.19c-.16,0-.32.16-.47.08a6.65,6.65,0,0,1-1.49.08,1,1,0,0,0-.93.15c-.12.08-.31-.08-.39.08s0,.31-.24.27c0,0-.08-.08,0-.11s.12-.32,0-.43-.39-.08-.54-.08,0-.27-.12-.39S29,9,28.91,9a.33.33,0,0,0-.2.35.9.9,0,0,0,.51.31c.16.07.08.31.08.46s0,.24.12.31.15.12.19.24l.12,0a.1.1,0,0,1,0,.07.29.29,0,0,0,.23.08c.16-.08.27-.12.35-.27s0,0,0-.08c0-.2.31-.2.47-.2s.16.12.16.2-.08.16-.2.16c-.55.11-.82.58-1.21.93-.27,0-.16-.24-.31-.35a.47.47,0,0,0-.28.11c-.07,0-.19,0-.23-.07a2.83,2.83,0,0,1,0-.58c0-.16,0-.35-.16-.43a.36.36,0,0,0-.31.19c-.12.24-.47.2-.51.43s-.19.27-.35.27-.35-.12-.43-.27c-.23,0-.11-.27-.31-.27s-.27,0-.31,0,0,.27,0,.38c-.12.12-.27.08-.35.2a2.31,2.31,0,0,0-.35.35c0,.16-.16.23-.16.39a.27.27,0,0,0,.27.15,2.25,2.25,0,0,1,.86-.43,1.4,1.4,0,0,1,.59.32c.35.11.43.5.7.73,0,.12.27.2.23.32.16.19-.31.23-.19.46s.23,0,.39,0a.57.57,0,0,1,.51,0c.15,0,.23.08.35.08s.19-.16.27-.27a.41.41,0,0,0,0-.51,2.67,2.67,0,0,1,.39-.7c0-.12,0-.27.08-.35a1.17,1.17,0,0,1,1.09-.51.72.72,0,0,0,.2.28c.08.15.23.12.35.07s.39-.31.39-.54c.16-.19.31-.31.55-.23.46.08.11.51.19.7s.23.39.47.43.2,0,.27-.12a.29.29,0,0,0,0-.39c0-.08.16,0,.24-.08s.07.12,0,.16.2.23.28.35-.31.23-.35.46.07.31.23.43V13c0,.08-.12.08-.23.08s.11.27-.08.38a.29.29,0,0,0,.08.32c.15.11.19-.08.27-.12,0-.2.27-.2.47-.23a.62.62,0,0,1,.12.19c.27,0,0,.19.11.31-.08.08-.15.12-.19.2s-.08.23,0,.31a.37.37,0,0,0,.27.11Zm-4.37-2.05a.75.75,0,0,0,0-.43c-.12,0-.16-.2-.23-.12s-.39.35-.24.58.39.16.51,0Zm3.9-1.4c-.11,0-.15-.12-.27-.12-.08-.24.08-.55-.08-.74.08-.23-.35,0-.23-.31s.39.31.58-.16l.43-.27c.12,0,.35.12.39.31-.12.24-.47.39-.39.66,0,.08.12.08.2.12s.15-.23.27-.28.16-.15.23-.15,0,.12,0,.15c-.43.2-.19.67-.46.94C34.76,11.21,34.49,11.37,34.33,11.14ZM41,8c0-.12.15-.12.27-.16s.27-.43.55-.23a0,0,0,0,0,0,0V7.44c.31,0,.54-.35.74-.58s.31-.47.58-.43a.63.63,0,0,1,.2.58c-.12.16-.2.39-.43.43s-.24,0-.31.23c-.2,0-.36.16-.59.12a2.54,2.54,0,0,0-.9.23S40.89,8.1,41,8Zm-15.77-2c.16,0,.12-.23.12-.35h-.2a.42.42,0,0,0-.11.28C25,5.92,25.12,5.92,25.2,5.92Zm19.24-.11c.16.08.23-.08.35-.16a.46.46,0,0,0,.2-.19.14.14,0,0,0-.08,0s0-.08,0,0v0c-.16-.12-.31,0-.47,0s-.23.31-.31.51c.08,0,.23,0,.27,0ZM24.65,5.42a3.2,3.2,0,0,0,.16-.9c.08-.15.27-.23.31-.38.16-.31-.27-.39-.27-.7.08-.08.11-.16.19-.24h0s0-.08.07,0l0-.08c.16-.2.32-.47.2-.66s-.39.23-.55.43a.7.7,0,0,1-.39.58.43.43,0,0,0,0,.35.83.83,0,0,0,0,.78c.2.27-.15.46,0,.77,0,.16.32.27.39.08Z"/></svg>