<svg id="Слой_1" data-name="Слой 1" xmlns="http://www.w3.org/2000/svg" viewBox="0 0 56.69 56.69"><defs><style>.cls-1{fill:#010101;}</style></defs><g id="layer1"><g id="g2995"><path id="path2997" class="cls-1" d="M8.91,29.17l.75,1.19,1.5-2.4v5.31h1.29V25.55H11.13Z"/></g><g id="g2999"><path id="path3001" class="cls-1" d="M5.28,25.55H4v7.72h1.3V28l3,4.71L9,31.47Z"/></g><g id="g3003"><path id="path3005" class="cls-1" d="M20.23,30.87l1.2,2.4H23l-3.91-7.72H17.67l2,4.09H17l.68-1.33L17,26.86l-3.3,6.41h1.46l1.23-2.4Z"/></g><g id="g3007"><path id="path3009" class="cls-1" d="M31.63,25.55h-1.3V29.3l1.3,1.3Z"/></g><g id="g3031"><path id="path3033" class="cls-1" d="M52.72,29.42a4.37,4.37,0,0,0-4.65-4.09c-2.49,0-4.67,1.7-4.67,4a4.28,4.28,0,0,0,4,4.11V32.11a3,3,0,0,1-2.65-2.73,3.32,3.32,0,0,1,6.56,0,3,3,0,0,1-2.62,2.72v1.3a4.28,4.28,0,0,0,4-4"/></g><g id="g3027"><path id="path3029" class="cls-1" d="M37.93,32.19a3.28,3.28,0,0,1-3.08-1.85H33.39A4.55,4.55,0,0,0,38,33.44a6.76,6.76,0,0,0,1.62-.18C40.76,33,42,32.25,42,31.1V29.05H37.92v1.29h2.77v.58c0,.65-1,1-1.56,1.16a5.27,5.27,0,0,1-1.05.11Z"/></g><g id="g3023"><path id="path3025" class="cls-1" d="M40.69,27.69a3.65,3.65,0,0,0-2.63-1.05,3.22,3.22,0,0,0-3.34,2.41H33.29c.18-2.11,2.34-3.67,4.78-3.67a5.18,5.18,0,0,1,3.64,1.41Z"/></g><g id="g3011"><path id="path3013" class="cls-1" d="M25.37,25.55H24.05v7.72h1.3V27.5l5.31,5.77h1v-.94Z"/></g></g></svg>