<svg id="Слой_1" data-name="Слой 1" xmlns="http://www.w3.org/2000/svg" viewBox="0 0 56.69 56.69"><defs><style>.cls-1{fill:#010101;}</style></defs><path class="cls-1" d="M30.19,27.51a2.46,2.46,0,0,0-1.06-.28,1.51,1.51,0,0,0-1.26.72v5.72H25.63v-8h2.05l.13.84a2,2,0,0,1,1.67-1,2.47,2.47,0,0,1,.71.13v1.91Zm5.3-1.91a2.47,2.47,0,0,0-.71-.13,2,2,0,0,0-1.67,1L33,25.65h-2v8h2.24V28a1.49,1.49,0,0,1,1.26-.72,2.46,2.46,0,0,1,1.06.28ZM24.26,28v5.72H22.21l-.12-.84a2.77,2.77,0,0,1-2.16,1,2.15,2.15,0,0,1-2.16-2.29c0-2.84,3.34-3.24,4.26-3.34V28c0-.47-.39-.95-1.42-.95a3.7,3.7,0,0,0-2.08.71V26.1a6.43,6.43,0,0,1,2.79-.63C23.38,25.47,24.26,26.41,24.26,28ZM22,29.78c-.71,0-2,.25-2,1.37a.91.91,0,0,0,.88,1c.63,0,1.13-.46,1.13-1.48ZM9.77,23.27l2,4.32L11,29.28,7.64,22.07l-2.55,1.2,2,4.31-.82,1.76c-.92,2-1.63,2.51-2.88,2.51a3,3,0,0,1-1-.18L1.19,34.23a5.2,5.2,0,0,0,1.9.39c1.49,0,2.59-1,3.54-3L7.8,29.09l2.13,4.58H13l-1.34-2.89.78-1.69,2.13,4.59h3.11L12.33,22.07Zm44.6,2.38V23L52.13,24v1.61h-.71V27h.71v6.63h2.24V27H55.5V25.65Zm-18,8h2.24v-8H36.32ZM49.62,23,47.39,24v1.61h-.72V27h.72v6.63h2.23V27h1.14V25.65H49.62Zm-3.47,6v1.32c0,1.91-.93,3.53-3.22,3.53s-3.22-1.61-3.22-3.53V29c0-1.92.93-3.53,3.22-3.53s3.22,1.62,3.22,3.53Zm-2.25-.32c0-1-.23-1.64-1-1.64s-1,.68-1,1.64v2c0,1,.23,1.64,1,1.64s1-.68,1-1.64Z"/></svg>