<svg id="Слой_1" data-name="Слой 1" xmlns="http://www.w3.org/2000/svg" viewBox="0 0 56.69 56.69"><defs><style>.cls-1{fill:#010101;fill-rule:evenodd;}</style></defs><g id="Layer_1"><path class="cls-1" d="M51.14,50.73H50.05c0-.06.05-.11.07-.16a.73.73,0,0,1,.77-.47h.56Z"/><path class="cls-1" d="M50,53.15c.34-.67.67-1.35,1-2H49.87c-.28.58-.57,1.16-.86,1.74a.45.45,0,0,1-.46.28H45.9c.36-.72.72-1.44,1.07-2.16.15-.3.21-.32.57-.32h.31a.54.54,0,0,0,.58-.33l.14-.3H47.45l.48-1h-.71a.54.54,0,0,0-.58.32c-.1.22-.21.44-.32.65h-.59l-.32.63H46c-.12.25-1,2-1.1,2.2a.44.44,0,0,1-.45.28H42.1l1.25-2.29h-.86a.48.48,0,0,0-.42.22c0-.16-.06-.22-.21-.22h-.6a1.94,1.94,0,0,0-2,1.09l-.51.93a.47.47,0,0,1-.46.27H36.82c-.55,0-.77-.08-.83-.37s.07-.56.81-1.05l.42-.27c.19-.13.27-.2.24-.33s-.1-.27-.69-.27H33.91a.53.53,0,0,0-.57.32l-.93,1.69a.45.45,0,0,1-.45.27H27.38l.2-.57h2.28a.71.71,0,0,0,.8-.5l.22-.52a.51.51,0,0,0,0-.45c-.11-.16-.39-.24-.8-.24h-2.2a1.13,1.13,0,0,0-1.26.77c-.16.36-.31.72-.46,1.07a.68.68,0,0,1-.75.44H23.85L24,53a1.08,1.08,0,0,0-.16-1.42,2.89,2.89,0,0,0-1.43-.71H21.14L20.3,52.4a1.31,1.31,0,0,1-1.4.75H17.42l1.25-2.29h-.86a.47.47,0,0,0-.42.22c0-.16-.06-.22-.22-.22h-.59a1.94,1.94,0,0,0-2,1.09l-.51.93a.46.46,0,0,1-.46.27H11.4l1.91-3.49a.3.3,0,0,0-.27-.45H4.11a1.17,1.17,0,0,0-1.2.64H6.77L4.62,53.79H5.74l2.15-3.94H9.43L7.28,53.79H8.39l2.16-3.94h1.54L10.32,53.1c-.08.15-.17.36-.08.5a.61.61,0,0,0,.53.19H13.7a.34.34,0,0,0,.29-.15c0,.11.1.15.21.15h5a1.93,1.93,0,0,0,2-1.08l.66-1.22.07,0c.79.15,1.19.45,1.23.9a.69.69,0,0,1-.17.49.84.84,0,0,1-.63.25.86.86,0,0,0-.9.64h4.27a.34.34,0,0,0,.29-.15c0,.11.1.15.21.15h6.31a.79.79,0,0,0,.83-.51l.73-1.34a.75.75,0,0,1,.75-.43H36a3.44,3.44,0,0,0-.55.46,1.46,1.46,0,0,0-.45.9.84.84,0,0,0,.19.67.8.8,0,0,0,.62.25h2.6a.33.33,0,0,0,.29-.15c0,.11.1.15.22.15h5.46a.34.34,0,0,0,.29-.15c0,.11.1.15.21.15h8.08c.49,0,.73-.16.82-.53l0-.12ZM27.84,51.79a.54.54,0,0,1,.6-.34h1.24c0,.08-.05.17-.08.25a.48.48,0,0,1-.54.33h-1.3A2.25,2.25,0,0,0,27.84,51.79Zm-11.31.93a.75.75,0,0,1-.75.43h-.61l.66-1.21a.74.74,0,0,1,.75-.44h.61Zm24.68,0a.75.75,0,0,1-.75.43h-.61l.66-1.21a.74.74,0,0,1,.75-.44h.61Z"/></g><path class="cls-1" d="M25.87,45.45V43.71h9v1.74H25.87Z"/><path class="cls-1" d="M30.36,49.07h2.82V46.35H27.54v2.72Zm0,0Z"/><path class="cls-1" d="M27.54,42.8a5,5,0,0,0-1.6-3.95h8.84a4.86,4.86,0,0,0-1.6,3.95H27.54Z"/><path class="cls-1" d="M20.06,36V34.68H40.64V36H20.06Z"/><path class="cls-1" d="M21,40.62a7.42,7.42,0,0,0,3.36-1.77H20.76C20.84,39.43,20.91,40,21,40.62Z"/><path class="cls-1" d="M39.73,40.62a7.46,7.46,0,0,1-3.37-1.77H40C39.87,39.43,39.79,40,39.73,40.62Z"/><path class="cls-1" d="M19.71,31.84A65.62,65.62,0,0,0,14,13.63a36.5,36.5,0,0,1,8.31,6.64,33.14,33.14,0,0,0-3.69-.76A130.21,130.21,0,0,1,23,31.84Z"/><path class="cls-1" d="M41,31.84a65.29,65.29,0,0,1,5.69-18.21,36.44,36.44,0,0,0-8.29,6.64,32.07,32.07,0,0,1,3.68-.76,127.41,127.41,0,0,0-4.4,12.33Z"/><path class="cls-1" d="M19,34V32.7H41.74V34H19Z"/><path class="cls-1" d="M26.52,12.92a30.12,30.12,0,0,0,3.84-10,29.28,29.28,0,0,0,3.84,10c-.63-.28-1.3-.58-2-.89s-.89-.13-.88.53C31.5,19,32.44,26.29,35.8,31.84H31.85a30.09,30.09,0,0,1-1.49-4.37,34.19,34.19,0,0,1-1.49,4.37H24.92c3.35-5.55,4.29-12.85,4.51-19.28,0-.66-.25-.83-.89-.53S27.14,12.64,26.52,12.92Z"/><path class="cls-1" d="M19,37.94v-1.3H41.74v1.3H19Z"/></svg>