<svg id="Слой_1" data-name="Слой 1" xmlns="http://www.w3.org/2000/svg" viewBox="0 0 56.69 56.69"><defs><style>.cls-1{fill:#e62535;}.cls-2{fill:#fff;}</style></defs><polygon class="cls-1" points="20.19 27.24 19.92 31.81 22.77 31.05 20.25 27.22 20.19 27.24"/><path class="cls-1" d="M52.29,30l3.41-2-1.27-.71h0L48.3,28.89,45.49,18.41l1.87-.51,2.36,8.79L52.23,26l3-2.56-3.74-1.34,2.57-3-3.9-.71,2-3.41-4-.05,1.44-3.69-3.92.6L46.58,8,42.81,9.2l.16-4L39.46,7.08,39,3.14,35.81,5.53l-1.13-3.8L32,4.62,30.21,1.05,28,4.35,25.69,1.13,24.06,4.74,21.25,1.93l-1,3.83L17,3.45l-.38,4L13.06,5.66l.28,4L9.53,8.49l.93,3.86-3.94-.49,1.55,3.65-4,.17L6.23,19l-3.88.81,2.65,3L1.3,24.23l3.1,2.48-3.4,2,3.46,1.93-3,2.56,3.73,1.34-2.56,3,3.9.7-2,3.41,4,0L7,45.46l3.92-.61-.81,3.88,3.77-1.24-.16,4,3.51-1.83.49,3.93,3.16-2.39L22,55l2.72-2.88,1.75,3.56,2.2-3.29L31,55.57,32.63,52l2.8,2.81,1-3.83,3.23,2.31.38-4L43.63,51l-.27-4,3.8,1.13-.93-3.86,3.94.49-1.55-3.65,4-.17-2.13-3.35,3.88-.81-2.64-3,3.69-1.44Zm-37,7.76-2.16-8.06-.24,8.71-1.62.43L6.66,31.4l2.16,8.07L7,40,4.14,29.48,7,28.72l4.26,6.94.23-8.14,2.83-.76,2.81,10.48ZM25.39,35l-1.6-2.43-4,1.06-.18,2.91-1.87.5.82-11.46L20.82,25l6.45,9.5ZM34,23.31l2.35,8.78-1.87.5-2.35-8.78-3.83,1,2.35,8.78-1.87.5-2.35-8.78-3,.8L23,24.44l13.57-3.63.45,1.7ZM40.29,31,37.48,20.55l6.72-1.8.45,1.7-4.85,1.3.67,2.5,4.46-1.19.45,1.69-4.45,1.19.77,2.89,4.94-1.32.46,1.7Z"/><polygon class="cls-2" points="36.54 20.8 22.96 24.44 23.42 26.14 26.42 25.34 28.77 34.12 30.64 33.62 28.29 24.84 32.12 23.81 34.47 32.59 36.34 32.09 33.99 23.31 36.99 22.51 36.54 20.8"/><polygon class="cls-2" points="11.46 27.52 11.24 35.66 6.98 28.73 4.14 29.48 6.95 39.97 8.82 39.46 6.66 31.4 11.22 38.82 12.84 38.39 13.08 29.68 15.24 37.74 17.11 37.24 14.3 26.76 11.46 27.52"/><polygon class="cls-2" points="46.64 27.51 41.7 28.83 40.92 25.94 45.38 24.75 44.93 23.06 40.47 24.25 39.8 21.75 44.65 20.45 44.2 18.75 37.48 20.55 40.28 31.03 47.1 29.21 46.64 27.51"/><path class="cls-2" d="M20.82,25l-2.23.59-.82,11.46,1.87-.51.18-2.9,4-1.06L25.39,35l1.87-.5Zm-.9,6.79.27-4.57.06,0,2.52,3.83Z"/><polygon class="cls-2" points="49.72 26.7 47.36 17.9 45.49 18.41 48.3 28.89 54.43 27.24 52.23 26.02 52.23 26.02 49.72 26.7"/></svg>