<svg id="Слой_1" data-name="Слой 1" xmlns="http://www.w3.org/2000/svg" viewBox="0 0 56.69 56.69"><defs><style>.cls-1{fill:#0c1d2c;}</style></defs><path class="cls-1" d="M10.88,17.66h2.37v.45h-.44c-.08,0-.22.09-.41.27s-.3.32-.3.41V25.6c0,.09.1.23.3.41s.33.27.41.27h.44v.45H9.75v-.45h.45c.08,0,.21-.09.4-.27s.28-.32.28-.41V19L7.59,26.89l-3.28-8V25.6c0,.09.09.23.28.41s.32.27.4.27h.44v.44H2.62v-.44h.44c.1,0,.24-.09.43-.27s.28-.32.28-.41V18.79c0-.09-.1-.23-.28-.41s-.33-.27-.43-.27H2.62v-.45H5.25L8,24.45H8Zm5.64,8.15a2.19,2.19,0,0,0,1.15-.26,2.25,2.25,0,0,0,.7-.77h.38a3.38,3.38,0,0,1-.93,1.52,2.51,2.51,0,0,1-1.73.57,2.4,2.4,0,0,1-1.94-.9,3.24,3.24,0,0,1-.73-2.13,3.1,3.1,0,0,1,.82-2.28,2.67,2.67,0,0,1,2-.85,2.94,2.94,0,0,1,2.09.82l-.86,1.34-.35,0a2.33,2.33,0,0,0-.07-1.2.87.87,0,0,0-.94-.53,1.45,1.45,0,0,0-1.29.64,2.94,2.94,0,0,0-.42,1.66,2.48,2.48,0,0,0,.57,1.67A2,2,0,0,0,16.52,25.81Zm5.82.91H18.79v-.44h.46q.13,0,.42-.27c.19-.18.28-.32.28-.41V18.79c0-.09-.09-.23-.28-.41a.85.85,0,0,0-.42-.27h-.46v-.45h3.55v.45h-.45q-.13,0-.42.27c-.19.18-.28.32-.28.41V22.5l3.24-3.62c.06-.08,0-.22-.16-.44s-.3-.33-.38-.33h-.44v-.45h3.29v.45h-.45a1.85,1.85,0,0,0-.59.35l-.57.46-2.2,2.37L26.1,25.5a2.38,2.38,0,0,0,.53.47,1.36,1.36,0,0,0,.55.31h.66a.83.83,0,0,0,.4-.24c.17-.16.25-.29.25-.4v-3.7c0-.1-.08-.22-.25-.38a.83.83,0,0,0-.4-.24h-.36v-.44h2.09v4.76c0,.11.09.25.27.41a.81.81,0,0,0,.39.23H31c.08,0,.2-.08.37-.23a.62.62,0,0,0,.26-.41v-3.7c0-.1-.09-.22-.26-.38s-.29-.24-.37-.24h-.38v-.44h1.86l.23,1.19a10.05,10.05,0,0,1,1-.94,2,2,0,0,1,1.28-.4,1.56,1.56,0,0,1,1.16.47,1.64,1.64,0,0,1,.49,1.22v3.22a.64.64,0,0,0,.25.41c.18.15.3.23.38.23h.37v.44H34.55v-.44h.32a.75.75,0,0,0,.4-.24c.18-.16.26-.29.26-.4V22.5a1.14,1.14,0,0,0-.23-.73.86.86,0,0,0-.71-.28,2.15,2.15,0,0,0-1.28.46c-.43.3-.64.56-.64.76v2.93a.67.67,0,0,0,.26.41.73.73,0,0,0,.4.23h.33v.44h-8.4l-3.15-4.53-.92,1V25.6c0,.09.09.23.28.41s.33.27.42.27h.45Zm3.15,10.22,0,0,.9.76c.31.25.63.49,1,.72h.54v.47h-1a2.92,2.92,0,0,1-1.17-.21,3.61,3.61,0,0,1-1.08-.73,3.61,3.61,0,0,1-1.26.82,4.69,4.69,0,0,1-1.7.26,2.93,2.93,0,0,1-2-.74,2.38,2.38,0,0,1-.9-1.93h0a3.23,3.23,0,0,1,.4-1.58,3.46,3.46,0,0,1,1.07-1.15,3.82,3.82,0,0,1-.53-.87,2.4,2.4,0,0,1-.2-1,1.9,1.9,0,0,1,.58-1.49,2.33,2.33,0,0,1,1.6-.53,3,3,0,0,1,1,.14,1.87,1.87,0,0,0,.66.15,1.15,1.15,0,0,0,.26,0,.25.25,0,0,0,.16-.14h.4v2.14h-.4a2.26,2.26,0,0,0-2.09-1.83,1.7,1.7,0,0,0-1.15.34,1.15,1.15,0,0,0-.42.95,1.42,1.42,0,0,0,.35,1,2.24,2.24,0,0,0,.94.66c.58.63,1.2,1.26,1.88,1.89s1.31,1.22,1.92,1.77a3,3,0,0,0,.37-.87,4.78,4.78,0,0,0,.1-1,1.25,1.25,0,0,0-.39-1,1.46,1.46,0,0,0-1-.36V33h3.22v.42h-.35c-.08,0-.23.13-.46.4a1.14,1.14,0,0,0-.34.59v0a4.64,4.64,0,0,1-.23,1.33,4.53,4.53,0,0,1-.59,1.16ZM22.41,38.3a3.35,3.35,0,0,0,1.09-.16,3.3,3.3,0,0,0,.88-.44l-.07-.05c-.67-.59-1.32-1.2-2-1.83s-1.27-1.28-1.88-2a2.75,2.75,0,0,0-.54.8,2.87,2.87,0,0,0-.19,1.12,2.34,2.34,0,0,0,.86,1.75,2.65,2.65,0,0,0,1.82.78Zm6.5-18.85h0a.78.78,0,0,1-.53-.21.7.7,0,0,1-.22-.52v0a.72.72,0,0,1,.22-.56.87.87,0,0,1,1.1,0,.7.7,0,0,1,.23.56h0s0,0,0,0a.75.75,0,0,1-.73.73Zm6,18.8a3.06,3.06,0,0,0,1.84-.47,3.56,3.56,0,0,0,1.1-1.36h.47a4,4,0,0,1-1.39,1.91,3.7,3.7,0,0,1-2.27.7,3.92,3.92,0,0,1-3.13-1.4,5.06,5.06,0,0,1-1.17-3.35A5.15,5.15,0,0,1,31.4,31a3.63,3.63,0,0,1,3-1.36,3.52,3.52,0,0,1,1.25.2,2.88,2.88,0,0,0,1,.2A.61.61,0,0,0,37,30a.81.81,0,0,0,.24-.17h.32V33h-.4a3.38,3.38,0,0,0-.72-1.76,2.32,2.32,0,0,0-2-1.05,2.47,2.47,0,0,0-1.86.69,3.46,3.46,0,0,0-.8,2.22V33c0,.17,0,.35,0,.52s0,.35,0,.54a5.08,5.08,0,0,0,0,.67c0,.22,0,.43,0,.62a3.37,3.37,0,0,0,.92,2A2.82,2.82,0,0,0,34.87,38.25Zm7.42-13.17a1.68,1.68,0,0,1-.53,1.32,2,2,0,0,1-1.35.47,2.16,2.16,0,0,1-.94-.18,2,2,0,0,0-.75-.18.58.58,0,0,0-.26.06l-.19.15H38V24.66h.35a2,2,0,0,0,.55,1.06,1.88,1.88,0,0,0,1.52.65,1.64,1.64,0,0,0,.84-.18.67.67,0,0,0,.31-.61.78.78,0,0,0-.36-.71,5.83,5.83,0,0,0-.74-.39l-.61-.26L39.24,24a3.27,3.27,0,0,1-.89-.63,1.32,1.32,0,0,1-.35-1,1.51,1.51,0,0,1,.47-1.2,2.22,2.22,0,0,1,2.1-.26,1.44,1.44,0,0,0,.65.15l.2,0a.4.4,0,0,0,.13-.13h.3v1.8H41.5a1.73,1.73,0,0,0-.48-.94,1.61,1.61,0,0,0-1.31-.59,1.2,1.2,0,0,0-.76.21.72.72,0,0,0-.25.54.69.69,0,0,0,.26.57,5,5,0,0,0,.71.4c.22.09.42.18.62.25l.64.26a3.08,3.08,0,0,1,.92.59,1.44,1.44,0,0,1,.45,1.09Zm1.53,8.59a3.31,3.31,0,0,1,0,4.52,2.87,2.87,0,0,1-2,.84,2.93,2.93,0,0,1-2-.84,3,3,0,0,1-.88-2.26,2.91,2.91,0,0,1,2.74-3.07h.19a2.9,2.9,0,0,1,2,.82Zm-.28,3.23v0c0-.17,0-.34,0-.51s0-.35,0-.52,0-.34,0-.5,0-.32,0-.46A1.94,1.94,0,0,0,43,33.8a1.66,1.66,0,0,0-1.24-.43,1.62,1.62,0,0,0-1.2.43,1.89,1.89,0,0,0-.5,1.12v0a4.26,4.26,0,0,0-.06.5c0,.17,0,.34,0,.51s0,.34,0,.51a3.47,3.47,0,0,0,.06.45A2,2,0,0,0,40.6,38a1.91,1.91,0,0,0,2.45,0A2,2,0,0,0,43.54,36.9Zm1.93-10a2.46,2.46,0,0,1-1.94-.9,3.49,3.49,0,0,1,0-4.36,2.41,2.41,0,0,1,1.93-.87,2,2,0,0,1,1.53.6,2.25,2.25,0,0,1,.6,1.45l0,.42-3.9.31a2.56,2.56,0,0,0,.56,1.55,1.83,1.83,0,0,0,1.55.73A2.14,2.14,0,0,0,47,25.56a2,2,0,0,0,.69-.76h.36a3.16,3.16,0,0,1-.9,1.52,2.44,2.44,0,0,1-1.68.55Zm0-5.68a1.44,1.44,0,0,0-1.32.62,2.44,2.44,0,0,0-.44,1.3l2.94-.25a2.54,2.54,0,0,0-.13-1.16c-.13-.35-.48-.52-1.05-.53Zm3.17.8a1.54,1.54,0,0,0-.36-.4c-.2-.18-.33-.26-.4-.26h-.26v-.46h3.17v.44h-.38c-.07,0-.18.08-.3.24a.68.68,0,0,0-.19.4l1.4,2.89L52.59,22a.6.6,0,0,0-.18-.42c-.13-.16-.24-.24-.32-.24H51.7v-.44h2.38v.44h-.26c-.08,0-.2.09-.37.25a1.53,1.53,0,0,0-.31.41l-2,4.25-1.72,3.31-.51-.26,1.78-3.21Z"/></svg>