<svg id="Слой_1" data-name="Слой 1" xmlns="http://www.w3.org/2000/svg" viewBox="0 0 56.69 56.69"><defs><style>.cls-1{fill:#1359a0;}.cls-2{fill:#fff;}</style></defs><g id="layer1"><g id="g40883"><path id="path38898" class="cls-1" d="M28.35,46.43A22.27,22.27,0,1,1,50.61,24.17,22.27,22.27,0,0,1,28.35,46.43"/><path id="path38896" class="cls-2" d="M28.35,28.83,35,6.66l8.51,28.46H42.2s-.48-1.46-.88-2.78c-2-6.37-4.43-8.85-8.11-7.5a7.22,7.22,0,0,0-3,2.76,15.84,15.84,0,0,0-1.9,4.2,16.5,16.5,0,0,0-1.9-4.2,7.3,7.3,0,0,0-3-2.76c-3.68-1.35-6.16,1.13-8.11,7.5-.4,1.32-.88,2.78-.88,2.78H13.16L21.67,6.66l6.68,22.17"/></g></g><path id="path38900" class="cls-1" d="M27.45,53.43a1.11,1.11,0,0,0,.44-1.09.77.77,0,0,0-.26-.31,1.51,1.51,0,0,0-1.5,0,1.25,1.25,0,0,0-.67,1.21.68.68,0,0,0,.44.49,1.56,1.56,0,0,0,1.55-.28l.89.87a4.52,4.52,0,0,1-1.68.49,4.16,4.16,0,0,1-2.28-.48,1.41,1.41,0,0,1-.71-1.45,2.87,2.87,0,0,1,2.26-2,3.48,3.48,0,0,1,3.46.91,1.34,1.34,0,0,1,.1,1.23,2.41,2.41,0,0,1-1.15,1.28l-.89-.87"/><path id="path38902" class="cls-1" d="M41.07,54.76,42,50.87h1.56l-.61,2.72s0,0,0,0h2.27L45,54.76H41.07"/><path id="path38904" class="cls-1" d="M19,52.11l.33-1.24h4.82l-.31,1.22h-1.6l0,0-.72,2.64H20l.7-2.59a.06.06,0,0,0-.06-.07H19"/><path id="path38906" class="cls-1" d="M12,54.77H10.48L11,52.72h0L9.34,54.77H8.48L8,52.67l0,0a.11.11,0,0,0,0,.05l-.56,2.07H6.08l1.08-3.9H9.23l.41,1.68L11,50.87H13.1L12,54.77"/><path id="path38908" class="cls-1" d="M38.92,53.43a1.09,1.09,0,0,0,.44-1.09A.7.7,0,0,0,39.1,52a1.51,1.51,0,0,0-1.5,0,1.25,1.25,0,0,0-.67,1.21.68.68,0,0,0,.44.49,1.55,1.55,0,0,0,1.55-.28l.89.87a4.58,4.58,0,0,1-1.68.49,4.16,4.16,0,0,1-2.28-.48,1.41,1.41,0,0,1-.71-1.45,2.87,2.87,0,0,1,2.26-2,3.48,3.48,0,0,1,3.46.91A1.34,1.34,0,0,1,41,53a2.41,2.41,0,0,1-1.15,1.28l-.89-.87"/><path id="path38910" class="cls-1" d="M16.8,53.43a1.13,1.13,0,0,0,.44-1.09A.77.77,0,0,0,17,52a1.53,1.53,0,0,0-1.51,0,1.26,1.26,0,0,0-.66,1.21.68.68,0,0,0,.44.49,1.56,1.56,0,0,0,1.55-.28l.89.87a4.52,4.52,0,0,1-1.68.49,4.16,4.16,0,0,1-2.28-.48A1.41,1.41,0,0,1,13,52.86a2.87,2.87,0,0,1,2.26-2,3.49,3.49,0,0,1,3.46.91,1.34,1.34,0,0,1,.1,1.23,2.41,2.41,0,0,1-1.15,1.28l-.89-.87"/><path id="path38912" class="cls-1" d="M32.37,51.88h-.68l-.16.68h1.55a.57.57,0,0,0,.35-.18.33.33,0,0,0,.09-.35.34.34,0,0,0-.2-.16h-1l0-1h1.79a1.17,1.17,0,0,1,.82.33.89.89,0,0,1,.16,1,1.61,1.61,0,0,1-1,.86s-.05,0,0,.06c.19.08.43.22.47.44a3,3,0,0,1-.06.9.5.5,0,0,0,.21.35H33a.29.29,0,0,1-.19-.15.58.58,0,0,1,0-.19l0-.51a.29.29,0,0,0-.29-.31H31.27l0,0L31,54.77H29.5c.31-1.29.64-2.61,1-3.9h1.87l0,1"/><path id="path38914" class="cls-1" d="M48.26,53.08h-.57l.66-1s0,0,0,0l.23,1h-.35l.17,1h.39l0,0,.16.67h1.6l-.89-3.9H47.78l-2.52,3.9h1.3l.46-.7h1.41l-.17-1"/></svg>