<svg id="Слой_1" data-name="Слой 1" xmlns="http://www.w3.org/2000/svg" viewBox="0 0 56.69 56.69"><defs><style>.cls-1{fill:#4097d3;}</style></defs><path class="cls-1" d="M41.79,11.3a5.83,5.83,0,0,1,4.31.58,8.9,8.9,0,0,1,3.49,4.59,30.63,30.63,0,0,1,2,10.23,35.1,35.1,0,0,1-.51,8.5,4.55,4.55,0,0,1-1.88,3.36A2.29,2.29,0,0,1,46.15,38a5.31,5.31,0,0,1-.51-3.53,47.38,47.38,0,0,0,.43-6.94A5.17,5.17,0,0,0,45.41,25,2.24,2.24,0,0,0,43.13,24a4.58,4.58,0,0,0-2.28,1.64,14.51,14.51,0,0,0-2.09,3.72c-1.19,2.83-2,5.79-3,8.71a9,9,0,0,1-3.44,4.78,9.39,9.39,0,0,1-4.18,1.33,10.07,10.07,0,0,1-3.67-.29,9.3,9.3,0,0,1-5.31-4.64c-1.28-2.17-2.52-4.36-3.77-6.54a12,12,0,0,0-1.76-2.54,1.66,1.66,0,0,0-1.79-.48,2.12,2.12,0,0,0-1.29,2.11,18.53,18.53,0,0,0,1.14,6,32.25,32.25,0,0,1,1.32,5A2.68,2.68,0,0,1,12.37,45a2.43,2.43,0,0,1-3,.15A5.47,5.47,0,0,1,7.85,43a41.19,41.19,0,0,1-2.59-9.3,24.74,24.74,0,0,1,.26-8.79,15.74,15.74,0,0,1,3.07-7.25,6.75,6.75,0,0,1,5.75-2.49c2.07,0,3.74,1.42,5,2.89a54.49,54.49,0,0,1,4,5.79,8.65,8.65,0,0,0,3.38,3.58,4,4,0,0,0,4-.26,5.66,5.66,0,0,0,1.9-2.64c.91-2.21,1.76-4.46,2.73-6.65A17.37,17.37,0,0,1,37,14.69,8.54,8.54,0,0,1,41.79,11.3Z"/></svg>