<svg id="Слой_1" data-name="Слой 1" xmlns="http://www.w3.org/2000/svg" viewBox="0 0 56.69 56.69"><defs><style>.cls-1{fill:#f9b017;}</style></defs><path id="path388" class="cls-1" d="M15.43,26.26c3.77,0,7.07,6.07,7.63,15.51h.11a20.54,20.54,0,0,0,.7-5.91c0-6.88-3.25-13-7.62-13-4.1,0-4.46,3.41-3.48,4.9a3.17,3.17,0,0,1,2.66-1.54m4.18,17.16a10.76,10.76,0,0,0,.33-2.74c0-4.3-2.58-11.36-7.54-11.36-3.77,0-4.3,3.6-3.09,4.75a2.69,2.69,0,0,1,2.62-1.88c4,0,7,6.3,7.59,11.23ZM44.4,27.8A3.21,3.21,0,0,0,45,26.06a3.54,3.54,0,0,0-3.8-3.22c-6.58,0-9,11.51-7.14,18.85h.09c.65-10.09,3.88-15.5,7.56-15.5A2.65,2.65,0,0,1,44.4,27.8m.25,1.55c-6.22,0-8.5,10.45-7.24,14.08h.08c.72-5.3,3.59-11.21,7.46-11.21,2.08,0,2.65,1.29,2.73,1.86,1.33-1.4.53-4.73-3-4.73M29.7,46.93a20.39,20.39,0,0,0-10.76,2.88l0,.1a70,70,0,0,1,9.89-.66,47,47,0,0,1,7.76.66.75.75,0,0,0,.84-.85c0-1.47-3.7-2.13-7.77-2.13m0-3.9A21.45,21.45,0,0,0,18.94,45.9L19,46A75,75,0,0,1,29,45.28a47,47,0,0,1,7.6.73.76.76,0,0,0,.84-.85c0-1.47-3.7-2.13-7.77-2.13M44.41,18a1.84,1.84,0,0,0-1.13,1.86c0,1.23.9,3.69,4.39,3.69s6-2.68,6-6.34-2.62-6.92-8.38-6.92c-6.86,0-15.67,6.12-15.67,21a47.07,47.07,0,0,0,1,9.29h.12c0-18.28,6.86-26.9,14.26-26.9,3.18,0,4.91,2,4.91,4.11,0,1.93-1.15,3.31-3,3.31a2.49,2.49,0,0,1-2.6-3.1M12.27,20.25A2.75,2.75,0,0,1,9.83,21.4,3.24,3.24,0,0,1,6.68,18c0-1.81,1.6-3.67,4.43-3.67,7,0,15.23,10.08,15.33,22.92a32,32,0,0,1-.19,3.4l.11,0a28.46,28.46,0,0,0,1.35-8c0-11.19-7.65-21.93-16.66-21.93C5.7,10.64,3,14.18,3,17.29c0,3.54,2.09,6.22,5.33,6.22a3.68,3.68,0,0,0,3.95-3.26M11.32,6.78c-.7,0-1.08.37-1.08.88s.41,1,1.24,1.3C14,10,18.74,10.6,24.13,10.6c9.54,0,19.28-1.36,23.6-3.1l0-.11c-3.51.23-9.56.63-19.23.63C15.3,8,12.55,6.78,11.32,6.78m7.59,5v.1c1.12.41,6.36,2.72,8.66,11.34.13.51.39.71.74.71.55,0,.79-.41.79-1.16A12.44,12.44,0,0,0,25,13.62a9.12,9.12,0,0,0-6.05-1.84m12.92,1.27a7.84,7.84,0,0,1,6.62-2.15V11a10.91,10.91,0,0,0-4.86,3.09,15.34,15.34,0,0,0-3.39,5.79c-.64-3.55.53-5.66,1.62-6.83"/></svg>