<svg id="Слой_1" data-name="Слой 1" xmlns="http://www.w3.org/2000/svg" viewBox="0 0 56.69 56.69"><defs><style>.cls-1{fill:#214e9b;}.cls-2{fill:#fff;}.cls-3{fill:#1e1e1c;}</style></defs><g id="layer1"><g id="g7479"><path id="path7481" class="cls-1" d="M36.59,34.77H44.3V9.29H37.24V25.17l-2.05-2V10.51A49.71,49.71,0,0,1,36-.45c-2.39,0-3.63,2.26-3.91,2.93A3.93,3.93,0,0,0,29,4.91,8.15,8.15,0,0,0,28.26,7c-2.83.65-3.08,5.69-2.89,6.59L21,9.29H13.28V34.77h7.06V19.37l3.41,3.24a4.63,4.63,0,0,0,.62,1.3L23,22.76a6.34,6.34,0,0,0,1.11,4.72L22.51,26.1a5.74,5.74,0,0,0,1.8,4.66L22.16,29.7a5.34,5.34,0,0,0,2.21,4.08l-1.82-.27a4,4,0,0,0,1.82,2.79s-3.11-.07-4.54-.07a50.46,50.46,0,0,0-6.58.38,6.78,6.78,0,0,0,4,1.83l-2,1.23a7.52,7.52,0,0,0,2.84.31l-1.16,1.38s3.64-1.4,5.18-1.29c1.22.08,6.93,2.31,10.76,2.31A12,12,0,0,0,38.8,40.6a8.38,8.38,0,0,1,2.47-1,2.68,2.68,0,0,1,2,.3c.14-.59.57-2.06-1.68-2.43a1.37,1.37,0,0,0-1.06-1c-1.21-.18-6.31-.57-6.45-.58-.44,0-1.91-.31-.56-2.25.1-.14.79-1,.79-1Zm-.18,1.9c1.67.13,2.85.24,4.05.39.45.06.63.58.69.82a9.67,9.67,0,0,0-1.48-.18l-.05.54A7.07,7.07,0,0,1,41.24,38s1.74,0,1.65,1.17A2.76,2.76,0,0,0,41.18,39a8.79,8.79,0,0,0-2.66,1,17,17,0,0,1-2.94,1.3c.49-.48,1.76-1.88,1.76-1.88l-1.69-.59L37,37.7,34.9,36.54l1.51.13m-2.47-4.56c-.79.91-1.81,2.21-1.59,3.15h0c.16.78,1.26,1.27,1.26,1.27L36,37.81l-1.54,1.35,1.85.58s-1.7,1.74-1.89,1.91a8.53,8.53,0,0,1-1.55.13c-3.93,0-9.38-2.31-10.73-2.33a10.45,10.45,0,0,0-3.67.92l1.06-1.16a10.8,10.8,0,0,1-2.75.17l1.91-1.29A7.75,7.75,0,0,1,14.85,37s3.09-.24,7.28-.2c1.69,0,4.57.19,4.57.19a5.64,5.64,0,0,1-3.32-2.8l2.71.41A7.66,7.66,0,0,1,23,30.85l3,1.06c-.54-.58-2.41-2.33-2.74-4.35l2.39,1.5c-.63-.63-2.33-4-2-5l2.23,1.5c-1.07-1.32-2.32-4.82-1.47-6.18A6,6,0,0,0,26.58,23c-1-1.43-3.13-6.51-1.09-8.74C26,19.33,28.18,21,28.18,21c-1.78-2.84-3.81-11.56,0-13.32-.75,5.6,1,8.64,1,8.64C28.07,11.2,28.11,3.89,32,3.22A16.92,16.92,0,0,0,31.4,13C31.13.09,35.28.31,35.28.31A61.78,61.78,0,0,0,34.6,10.5V29.34a4.05,4.05,0,0,1-.66,2.77"/></g><g id="g7483"><path id="path7485" class="cls-2" d="M36.43,36.68c1.67.12,2.86.24,4,.39.45,0,.63.58.69.82a9.59,9.59,0,0,0-1.47-.18l-.05.54A7,7,0,0,1,41.27,38s1.73,0,1.65,1.17A2.88,2.88,0,0,0,41.2,39a9.1,9.1,0,0,0-2.66,1.06,16.56,16.56,0,0,1-2.93,1.3c.49-.47,1.76-1.88,1.76-1.88l-1.7-.59,1.39-1.21-2.13-1.16,1.5.13M34,32.11c-.78.91-1.8,2.21-1.58,3.15h0c.16.78,1.27,1.26,1.27,1.26L36,37.82l-1.54,1.35,1.85.58s-1.69,1.74-1.89,1.92a9.43,9.43,0,0,1-1.55.13c-3.92,0-9.38-2.32-10.73-2.34a10.53,10.53,0,0,0-3.67.92l1.07-1.16a10.85,10.85,0,0,1-2.75.17l1.91-1.3a7.66,7.66,0,0,1-3.84-1s3.09-.25,7.27-.2c1.7,0,4.57.19,4.57.19a5.67,5.67,0,0,1-3.32-2.8l2.71.41A7.84,7.84,0,0,1,23,30.85l3,1.06c-.54-.58-2.4-2.33-2.74-4.36l2.39,1.51c-.63-.64-2.32-4-2-5l2.22,1.5c-1.06-1.32-2.31-4.82-1.46-6.18A6.11,6.11,0,0,0,26.6,23c-1-1.43-3.12-6.52-1.08-8.76.53,5.07,2.69,6.79,2.69,6.79-1.79-2.85-3.82-11.58,0-13.34-.74,5.61,1.05,8.65,1.05,8.65C28.1,11.18,28.14,3.85,32,3.19A17,17,0,0,0,31.43,13C31.15.05,35.31.27,35.31.27a61,61,0,0,0-.69,10.2V29.34A4.07,4.07,0,0,1,34,32.11"/></g><g id="g7487"><path id="path7489" class="cls-3" d="M21.33,45a.77.77,0,1,1,0,1.54.77.77,0,1,1,0-1.54"/></g><g id="g7491"><path id="path7493" class="cls-3" d="M42.14,45a.77.77,0,1,1-.81.77.79.79,0,0,1,.81-.77"/></g><g id="g7495"><path id="path7497" class="cls-3" d="M14.42,49.78H14.3a4.77,4.77,0,0,0-1.12.14c-.26.07-.49.25-.49.49s.35.5.66.5a1,1,0,0,0,1.07-1Zm1.3-.8v2.88H14.46v-.48a1.84,1.84,0,0,1-1.37.6,1.57,1.57,0,0,1-1.77-1.49c0-1.39,1.48-1.7,2.94-1.7h.16c0-.38-.17-.74-.94-.74a1.87,1.87,0,0,0-1.28.46l-.76-.76A2.89,2.89,0,0,1,13.52,47a2.25,2.25,0,0,1,1.7.52,2.1,2.1,0,0,1,.5,1.5"/></g><g id="g7499"><path id="path7501" class="cls-3" d="M18.5,47.08V45.57H17.14v1.51H16.2v1.14h.94v2a1.79,1.79,0,0,0,.39,1.35,1.61,1.61,0,0,0,1.22.38,2.77,2.77,0,0,0,1-.2V50.7a2.35,2.35,0,0,1-.74.1c-.42,0-.53-.23-.53-.62v-2h1.27V47.08Z"/></g><g id="g7503"><path id="path7505" class="cls-3" d="M53,48.93A.91.91,0,0,0,52,48a1,1,0,0,0-1,.89Zm1.45.63v.36H51a1.18,1.18,0,0,0,1.23.93,1.43,1.43,0,0,0,1.25-.56l.86.64a2.51,2.51,0,0,1-2.09,1,2.46,2.46,0,0,1-2.65-2.51,2.46,2.46,0,1,1,4.91.09"/></g><path id="path7509" class="cls-3" d="M9,44.92v4.71L6.05,44.92H4.21v6.94h1.5V47l3,4.87h1.75V44.92Z"/><path id="path7513" class="cls-3" d="M39.54,47.08l-.77,3-.78-3H36.57l-.75,3-.77-3h-1.5l1.53,4.78h1.37l.82-3,.92,3h1.26L41,47.08Z"/><path id="path7515" class="cls-3" d="M22,47.08H20.64v4.78H22Z"/><path id="path7517" class="cls-3" d="M42.83,47.08H41.45v4.78h1.38Z"/><g id="g7527"><path id="path7529" class="cls-3" d="M32.7,47.4A1.47,1.47,0,0,0,31.52,47a1.91,1.91,0,0,0-1.43.63v-.52H28.78v4.78h1.37v-2.6a1.1,1.1,0,0,1,.25-.76.83.83,0,0,1,.6-.27.64.64,0,0,1,.6.26,1.61,1.61,0,0,1,.19.95v2.42h1.37v-3a2,2,0,0,0-.46-1.48"/></g><g id="g7531"><path id="path7533" class="cls-3" d="M47.43,49.47a1.22,1.22,0,1,0-1.22,1.29,1.22,1.22,0,0,0,1.22-1.29m1.34-4.55v6.94h-1.3v-.53A1.92,1.92,0,0,1,46,52a2.28,2.28,0,0,1-1.65-.65,2.57,2.57,0,0,1-.71-1.86A2.34,2.34,0,0,1,45.94,47a2,2,0,0,1,1.45.54V44.92Z"/></g><g id="g7535"><path id="path7537" class="cls-3" d="M25.4,48.18a1.29,1.29,0,1,0,1.21,1.29,1.22,1.22,0,0,0-1.21-1.29M28,49.47A2.59,2.59,0,1,1,25.4,47,2.47,2.47,0,0,1,28,49.47"/></g></g></svg>