<svg id="Слой_1" data-name="Слой 1" xmlns="http://www.w3.org/2000/svg" viewBox="0 0 56.69 56.69"><defs><style>.cls-1{fill:#1e1e1c;}.cls-1,.cls-2{fill-rule:evenodd;}.cls-2{fill:#fff;}</style></defs><path class="cls-1" d="M51.4,22.08a3,3,0,0,1-1.19.94,3.49,3.49,0,0,1-1.52.32A3.82,3.82,0,0,1,47.06,23a4,4,0,0,1-1.28-.93,4,4,0,0,1-.84-1.39,5,5,0,0,1,0-3.45,4.5,4.5,0,0,1,.85-1.41,4,4,0,0,1,1.3-.94,3.79,3.79,0,0,1,1.63-.35,3.53,3.53,0,0,1,1.42.29,3.13,3.13,0,0,1,1.13.85v-.9h2.36V23.1H51.4Zm-.58-4.75a2,2,0,0,0-1.59-.67,1.94,1.94,0,0,0-1.53.67A2.32,2.32,0,0,0,47.09,19a2.28,2.28,0,0,0,.61,1.62,2,2,0,0,0,1.53.66,2,2,0,0,0,1.59-.67,2.3,2.3,0,0,0,.62-1.64A2.24,2.24,0,0,0,50.82,17.33Zm-8.65-.2a1,1,0,0,0-.3.77v5.2H39.35V17.74a2.82,2.82,0,0,1,.85-2.18,3.31,3.31,0,0,1,2.34-.79H44.1v2.08H43A1.22,1.22,0,0,0,42.17,17.13Zm-8.48,6.21a4.24,4.24,0,0,1-3.1-1.08,3.88,3.88,0,0,1-1.1-2.9V14.77h2.59V19.5a2,2,0,0,0,.39,1.27,1.49,1.49,0,0,0,1.22.49,1.46,1.46,0,0,0,1.22-.49,2,2,0,0,0,.38-1.27V14.77h2.59v4.59a3.87,3.87,0,0,1-1.1,2.91A4.25,4.25,0,0,1,33.69,23.34Zm-9.44-1a2.81,2.81,0,0,1-.85-2.17V12.45h2.52v2.32h2.23v2.08H25.92V20a1,1,0,0,0,.3.76,1.19,1.19,0,0,0,.86.29h1.07V23.1H26.59A3.31,3.31,0,0,1,24.25,22.31Zm-4.66-.23a3.08,3.08,0,0,1-1.18.94,3.5,3.5,0,0,1-1.53.32A3.77,3.77,0,0,1,15.26,23,4,4,0,0,1,14,22.07a4.11,4.11,0,0,1-.84-1.39,4.64,4.64,0,0,1-.3-1.73,4.69,4.69,0,0,1,.31-1.72A4.32,4.32,0,0,1,14,15.82a3.87,3.87,0,0,1,1.29-.94,3.83,3.83,0,0,1,1.63-.35,3.53,3.53,0,0,1,1.42.29,3.08,3.08,0,0,1,1.14.85v-.9h2.35V23.1H19.59ZM19,17.33a2.08,2.08,0,0,0-1.59-.67,2,2,0,0,0-1.54.67,2.35,2.35,0,0,0-.6,1.62,2.32,2.32,0,0,0,.6,1.62,2,2,0,0,0,1.54.66A2.08,2.08,0,0,0,19,20.56a2.34,2.34,0,0,0,.62-1.64A2.29,2.29,0,0,0,19,17.33Zm-8.24,5.84h-.46a1.4,1.4,0,0,1-.56-.1,1.14,1.14,0,0,1-.44-.31L5.51,18.57V23.1H3.07V15.49a.79.79,0,0,1,.21-.59.85.85,0,0,1,.6-.2h.46a1.4,1.4,0,0,1,.56.1,1.18,1.18,0,0,1,.44.31l3.79,4.17V14.77h2.46v7.61a.79.79,0,0,1-.21.59A.85.85,0,0,1,10.78,23.17Z"/><path class="cls-1" d="M52.4,39.14a8.37,8.37,0,0,1-1.85,2.67,8.55,8.55,0,0,1-2.81,1.78,9.94,9.94,0,0,1-7.07,0,8.67,8.67,0,0,1-2.8-1.78,8.37,8.37,0,0,1,0-12,8.67,8.67,0,0,1,2.8-1.78,9.94,9.94,0,0,1,7.07,0,8.53,8.53,0,0,1,2.81,1.78,8.27,8.27,0,0,1,2.52,6A8.36,8.36,0,0,1,52.4,39.14Z"/><path class="cls-2" d="M47.2,32.75a4.17,4.17,0,0,0-6,0,4.33,4.33,0,0,0-1.17,3.06A4.44,4.44,0,0,0,41.23,39a4.17,4.17,0,0,0,6,0,4.44,4.44,0,0,0,1.16-3.14A4.33,4.33,0,0,0,47.2,32.75Z"/><path class="cls-1" d="M30,44.24a10.58,10.58,0,0,1-3.81-.65,8.68,8.68,0,0,1-2.93-1.78,7.88,7.88,0,0,1-1.88-2.69,8.33,8.33,0,0,1-.67-3.31,8.19,8.19,0,0,1,.67-3.28,7.64,7.64,0,0,1,1.88-2.65,9,9,0,0,1,2.93-1.79,10.67,10.67,0,0,1,3.84-.66,9.32,9.32,0,0,1,2,.2,8.07,8.07,0,0,1,1.64.49v4.15a7.07,7.07,0,0,0-1.25-.42,7.16,7.16,0,0,0-1.91-.22,5.16,5.16,0,0,0-3.63,1.22,3.89,3.89,0,0,0-1.31,3,4,4,0,0,0,1.31,3,5.16,5.16,0,0,0,3.63,1.22,7.14,7.14,0,0,0,1.91-.23,10.89,10.89,0,0,0,1.25-.44v4.15A7.48,7.48,0,0,1,32,44,9.72,9.72,0,0,1,30,44.24Z"/><path class="cls-1" d="M15.33,43.78l-1.28-1.31a10.77,10.77,0,0,1-2.62,1.24,9.37,9.37,0,0,1-2.68.42,7.5,7.5,0,0,1-2.47-.37,5.73,5.73,0,0,1-1.79-.95,3.88,3.88,0,0,1-1.42-3,4.31,4.31,0,0,1,.62-2.21,5.69,5.69,0,0,1,2.35-2l.81-.43a6.24,6.24,0,0,1-1.31-2,4.71,4.71,0,0,1-.39-1.79,4,4,0,0,1,1.52-3.14,5.53,5.53,0,0,1,3.69-1.27,5.76,5.76,0,0,1,2.11.36,4.65,4.65,0,0,1,1.55,1,4.23,4.23,0,0,1,1,1.37,3.76,3.76,0,0,1,.33,1.53,4.3,4.3,0,0,1-.8,2.5,7.45,7.45,0,0,1-2.24,2l1.94,2a10.91,10.91,0,0,0,.74-1,5.8,5.8,0,0,0,.57-1.07h4a17.9,17.9,0,0,1-1.31,2.49,15.5,15.5,0,0,1-1.61,2.09l3.24,3.42Z"/><path class="cls-2" d="M11.19,30.83a1,1,0,0,0-.86-.36,1.26,1.26,0,0,0-.88.35,1.13,1.13,0,0,0-.37.87,1.7,1.7,0,0,0,.16.71,3,3,0,0,0,.58.8l.24.26a3.75,3.75,0,0,0,1-.84,1.55,1.55,0,0,0,.39-1A1.19,1.19,0,0,0,11.19,30.83Z"/><path class="cls-2" d="M9.11,37.49l-.69.34a2.81,2.81,0,0,0-1,.79,1.57,1.57,0,0,0-.27.87,1.21,1.21,0,0,0,.45.88,1.8,1.8,0,0,0,1.28.42,4.54,4.54,0,0,0,1.34-.2A5.91,5.91,0,0,0,11.61,40l-2.5-2.52Z"/></svg>