<svg id="Слой_1" data-name="Слой 1" xmlns="http://www.w3.org/2000/svg" viewBox="0 0 56.69 56.69"><defs><style>.cls-1{fill:#fff;}.cls-2{fill:#db1c33;}.cls-3{fill:#114589;}</style></defs><path class="cls-1" d="M34.73,1H21.94a5.65,5.65,0,0,0-5.65,5.65V50a5.67,5.67,0,0,0,5.65,5.67H34.73A5.68,5.68,0,0,0,40.4,50V6.68A5.69,5.69,0,0,0,34.73,1"/><path class="cls-2" d="M31.56,11v.18c.39.22.58.42,1,.66,1.05.66,2.34,1.82,2.16,5.85.29.87.42,2.59.69,3.15a8.65,8.65,0,0,1,1.07,2.81,6.14,6.14,0,0,0,.35,1.69c1.08.24.77.35.92.53s.79.21.79.79a4.4,4.4,0,0,1,.5.9V6.68a4.32,4.32,0,0,0-4.3-4.31H30.58a2,2,0,0,1,1.25.95c.54,0,1.18,1.24.18,3,.44.29.1.72-.22,1.24-.1.16-.2.45-.49.43-.37.79-.82,1.57-1.17,1.61a.56.56,0,0,0,0,.63,5.12,5.12,0,0,1,1.45.79m7.49,19.41a3.85,3.85,0,1,1-4.49-5.17c-.46-1.11-1.39-2.92-1.66-3.51a47.13,47.13,0,0,1-1-5c0-.16-1.66.95-1.66,1s-1.23,3-1.28,3.2a2.6,2.6,0,0,0,0,.5s.55.07.87,1S31,27,31,27s-.25.27-.27.25c1.22,4.08.79,5.83,1.34,7,.69,1.69.87,1.46,1.46,2.88.42,1,.89,5.09,1,5.27a3.75,3.75,0,0,1,1,1.94c0,.47-.56,1.87-.35,2.69a7.69,7.69,0,0,0,.4,1.76.43.43,0,0,1,.1.58.38.38,0,0,0-.06.23c.37,1.27,1.53,3.46-.37,4.6h0A4.29,4.29,0,0,0,39,50V30.44Z"/><path class="cls-3" d="M34.19,49.16c-.7-.62-.23-.89-.26-1.13-.45-1.89-2-3.05-1.18-3.66-.19-.63-.58-1.4-.56-1.4a23.41,23.41,0,0,1-4.67-3.85c-.34-.32-1.11-.9-1.24-1.25a36.76,36.76,0,0,1-4-5.88l-1.12-.16C20.67,29.75,19,28,18.93,25.91a11.89,11.89,0,0,1,.5-2.81,4.22,4.22,0,0,1,.79-.91v-.56c-2.45.06-1.74-.18-2.16-1.13-.29-.66-.08-.8,0-1.25A26.43,26.43,0,0,1,20,14.88c.14-.48.61-1.63.61-1.63,1.82-3.7,2.5-3.43,4.67-3.64l.11-.16c2.18-.09,1.82-.25,2.13-2.35-.32.13-.4-.66-.4-.66-.18-1.19.32-1,.56-1,.05-1.95.26-2.56,1.66-3.11H21.94a4.31,4.31,0,0,0-4.31,4.32V50a4.33,4.33,0,0,0,4.31,4.33H34.73c-1.46-.79-.59-2.29-.54-5.15Z"/><path class="cls-1" d="M24.36,51.6V43.76h1.52c.88,0,1.42.47,1.42,1.57V46.5c0,.71-.21,1.07-.52,1.25a1.28,1.28,0,0,1,.52,1.16v1.14c0,1.07-.58,1.55-1.42,1.55Zm1.05-3.4v2.42h.39c.37,0,.46-.19.46-.56V48.73c0-.39-.12-.53-.46-.53Zm0-3.45v2.59h.39c.37,0,.46-.14.46-.56V45.27c0-.36-.11-.53-.46-.53h-.39ZM29.77,50h-.95l-.13,1.59H27.64l.94-7.84h1.5L31,51.6h-1.1Zm-.47-5.37h-.05c-.07,1-.2,2.6-.24,3.13l-.12,1.35h.81l-.12-1.35c0-.54-.19-2.18-.28-3.13m-8,7h-.91V43.76h1.44L23,50.18c-.1-1.54-.23-3.39-.23-5V43.75h.91v7.84H22.31l-1.16-6.27c.07,1.45.1,2.6.1,3.81V51.6Z"/></svg>