<svg id="Слой_1" data-name="Слой 1" xmlns="http://www.w3.org/2000/svg" viewBox="0 0 56.69 56.69"><defs><style>.cls-1{fill:#293387;}</style></defs><path class="cls-1" d="M2.75,23.52H6.92A4.51,4.51,0,0,1,9.49,24.9L16.8,33V23.52h2.48V36.46H14.94a3.23,3.23,0,0,1-2.42-1.05l-7.3-8.12v9.17H2.75Zm51.76,13a40.4,40.4,0,0,1-9,.19,13.34,13.34,0,0,1-5.07-1.34c-2-1-2.64-3.37-2.62-5.48a6,6,0,0,1,2.35-5.16,9.19,9.19,0,0,1,3.65-1.23,37.42,37.42,0,0,1,10.51-.11v1.85c-4.06-.79-8.35-.59-9.81,1.27a5,5,0,0,0-1,3.29c0,1.76.6,4.41,4.16,4.93a21.37,21.37,0,0,0,6.87-.32v2.11Zm-25.45-2h7.88v1.93c-3.87.15-7.59.21-11.51.05-3.31-.14-3.89-1.8-3.95-3.41V23.52H36.75v1.85H26.87v3.29h9v1.8h-9c0,1,0,2.07,0,2.27.06,1.26.64,1.72,2.15,1.81"/></svg>