<svg id="Слой_1" data-name="Слой 1" xmlns="http://www.w3.org/2000/svg" viewBox="0 0 56.69 56.69"><defs><style>.cls-1{fill:#d82227;}</style></defs><path class="cls-1" d="M9.79,34.37c-.77.14-1.55.18-2.36.28L5,27.41V35c-.77.08-1.47.18-2.2.29V21.43H4.81l2.81,7.85V21.43H9.79V34.37Zm4.26-7.87c.84,0,2.12,0,2.89,0v2.16c-1,0-2.08,0-2.89,0v3.21c1.27-.08,2.54-.19,3.82-.23v2.08l-6,.48V21.43h6v2.16H14.05Zm11.86-2.91H23.67v9.94c-.73,0-1.46,0-2.17,0v-10H19.26V21.43h6.65Zm3.51,2.76h3v2.16h-3v4.9H27.3v-12h6v2.16H29.42Zm7.43,5.17c1.23,0,2.47.12,3.67.19v2.13c-1.93-.12-3.86-.24-5.83-.28V21.43h2.16V31.52ZM42.35,34c.69,0,1.42.08,2.12.16V21.43H42.35ZM53.94,21.43,51.19,28l2.75,7.25c-.81-.11-1.62-.25-2.43-.39l-1.56-4-1.58,3.68c-.78-.14-1.54-.18-2.32-.29l2.78-6.33-2.51-6.5h2.32l1.42,3.63,1.51-3.63Z"/></svg>