<svg id="Слой_1" data-name="Слой 1" xmlns="http://www.w3.org/2000/svg" xmlns:xlink="http://www.w3.org/1999/xlink" viewBox="0 0 56.69 56.69"><defs><style>.cls-1{fill:none;}.cls-2{fill:#018055;}.cls-3{clip-path:url(#clip-path);}.cls-4{fill:url(#Безымянный_градиент_5);}.cls-5{clip-path:url(#clip-path-2);}.cls-6{fill:url(#Безымянный_градиент_2);}.cls-7{clip-path:url(#clip-path-3);}.cls-8{fill:url(#Безымянный_градиент_3);}.cls-9{clip-path:url(#clip-path-4);}.cls-10{fill:url(#Безымянный_градиент_4);}</style><clipPath id="clip-path"><path class="cls-1" d="M51.91,25.78V24.52H50V33h2V28.75A2.68,2.68,0,0,1,52.62,27h0a2.11,2.11,0,0,1,1.66-.7h0a4.06,4.06,0,0,1,.69.08h0V24.45a4.4,4.4,0,0,0-.62,0h0a2.49,2.49,0,0,0-2.44,1.37"/></clipPath><linearGradient id="Безымянный_градиент_5" x1="84.37" y1="36.65" x2="84.39" y2="36.65" gradientTransform="translate(8424.41 31009.97) rotate(-128.6) scale(348.85)" gradientUnits="userSpaceOnUse"><stop offset="0.02" stop-color="#018357"/><stop offset="0.5" stop-color="#018357"/><stop offset="1" stop-color="#018357"/></linearGradient><clipPath id="clip-path-2"><path class="cls-1" d="M36,24.59v5.95a2.33,2.33,0,0,0,2.56,2.61h0a6.76,6.76,0,0,0,1.74-.23h0V31.24a11,11,0,0,1-1.31.08h0a1.06,1.06,0,0,1-.74-.23h0a1,1,0,0,1-.24-.74h0V27H40.2V25.39H38V23Z"/></clipPath><linearGradient id="Безымянный_градиент_2" x1="84.39" y1="37.21" x2="84.42" y2="37.21" gradientTransform="translate(8264.69 31138.83) rotate(-128.6) scale(348.86)" gradientUnits="userSpaceOnUse"><stop offset="0" stop-color="#018357"/><stop offset="0.25" stop-color="#018357"/><stop offset="0.38" stop-color="#018357"/><stop offset="0.44" stop-color="#018357"/><stop offset="0.47" stop-color="#018357"/><stop offset="0.47" stop-color="#018357"/><stop offset="0.48" stop-color="#068457"/><stop offset="0.48" stop-color="#058556"/><stop offset="0.48" stop-color="#058556"/><stop offset="0.49" stop-color="#098654"/><stop offset="0.49" stop-color="#098654"/><stop offset="0.5" stop-color="#0d8755"/><stop offset="0.5" stop-color="#0d8755"/><stop offset="0.5" stop-color="#0c8854"/><stop offset="0.51" stop-color="#118953"/><stop offset="0.51" stop-color="#0f8a54"/><stop offset="0.52" stop-color="#108a53"/><stop offset="0.52" stop-color="#148b52"/><stop offset="0.52" stop-color="#138b51"/><stop offset="0.53" stop-color="#168c52"/><stop offset="0.53" stop-color="#158d51"/><stop offset="0.54" stop-color="#188e51"/><stop offset="0.54" stop-color="#198e51"/><stop offset="0.54" stop-color="#1b8f51"/><stop offset="0.55" stop-color="#1e904f"/><stop offset="0.55" stop-color="#209150"/><stop offset="0.55" stop-color="#20924e"/><stop offset="0.56" stop-color="#22924e"/><stop offset="0.56" stop-color="#22924e"/><stop offset="0.57" stop-color="#25934d"/><stop offset="0.57" stop-color="#25944d"/><stop offset="0.57" stop-color="#26964c"/><stop offset="0.58" stop-color="#28964c"/><stop offset="0.58" stop-color="#2a974b"/><stop offset="0.59" stop-color="#2a974b"/><stop offset="0.59" stop-color="#2f984a"/><stop offset="0.59" stop-color="#31994a"/><stop offset="0.6" stop-color="#329b49"/><stop offset="0.6" stop-color="#349b49"/><stop offset="0.61" stop-color="#349c48"/><stop offset="0.61" stop-color="#389d49"/><stop offset="0.61" stop-color="#3a9e47"/><stop offset="0.62" stop-color="#3a9e47"/><stop offset="0.62" stop-color="#3c9f46"/><stop offset="0.63" stop-color="#3da046"/><stop offset="0.63" stop-color="#3fa044"/><stop offset="0.63" stop-color="#42a243"/><stop offset="0.64" stop-color="#43a343"/><stop offset="0.64" stop-color="#45a442"/><stop offset="0.64" stop-color="#48a542"/><stop offset="0.65" stop-color="#49a641"/><stop offset="0.65" stop-color="#4aa742"/><stop offset="0.66" stop-color="#4fa942"/><stop offset="0.66" stop-color="#51a941"/><stop offset="0.66" stop-color="#52aa41"/><stop offset="0.67" stop-color="#53ab40"/><stop offset="0.67" stop-color="#56ac3e"/><stop offset="0.68" stop-color="#58ad3e"/><stop offset="0.68" stop-color="#5bae3d"/><stop offset="0.68" stop-color="#5daf3c"/><stop offset="0.69" stop-color="#5fb03b"/><stop offset="0.69" stop-color="#61b13b"/><stop offset="0.7" stop-color="#63b23a"/><stop offset="0.7" stop-color="#65b33b"/><stop offset="0.7" stop-color="#66b43b"/><stop offset="0.71" stop-color="#69b53b"/><stop offset="0.71" stop-color="#6cb53a"/><stop offset="0.71" stop-color="#6db639"/><stop offset="0.72" stop-color="#70b639"/><stop offset="0.72" stop-color="#72b738"/><stop offset="0.73" stop-color="#74b736"/><stop offset="0.73" stop-color="#77b836"/><stop offset="0.73" stop-color="#79b935"/><stop offset="0.74" stop-color="#7cba35"/><stop offset="0.74" stop-color="#7eba36"/><stop offset="0.75" stop-color="#81bb35"/><stop offset="0.75" stop-color="#82bc34"/><stop offset="0.75" stop-color="#86bd33"/><stop offset="0.76" stop-color="#88bd33"/><stop offset="0.76" stop-color="#8cbf35"/><stop offset="0.77" stop-color="#8ebf34"/><stop offset="0.77" stop-color="#90c034"/><stop offset="0.77" stop-color="#93c132"/><stop offset="0.78" stop-color="#95c230"/><stop offset="0.78" stop-color="#96c230"/><stop offset="0.79" stop-color="#98c330"/><stop offset="0.79" stop-color="#99c330"/><stop offset="0.79" stop-color="#9cc42e"/><stop offset="0.8" stop-color="#9dc42f"/><stop offset="0.8" stop-color="#a0c62e"/><stop offset="0.8" stop-color="#a2c62e"/><stop offset="0.81" stop-color="#a5c72f"/><stop offset="0.81" stop-color="#aac92d"/><stop offset="0.82" stop-color="#abc92e"/><stop offset="0.82" stop-color="#aeca2d"/><stop offset="0.82" stop-color="#b0cb2c"/><stop offset="0.83" stop-color="#b3cc2b"/><stop offset="0.83" stop-color="#b5cd2c"/><stop offset="0.84" stop-color="#b8ce2c"/><stop offset="0.84" stop-color="#bacf2d"/><stop offset="0.84" stop-color="#bdd02a"/><stop offset="0.85" stop-color="#bfd129"/><stop offset="0.85" stop-color="#c2d22a"/><stop offset="0.86" stop-color="#c5d328"/><stop offset="0.86" stop-color="#c6d429"/><stop offset="0.86" stop-color="#cad529"/><stop offset="0.87" stop-color="#cdd626"/><stop offset="0.87" stop-color="#cfd727"/><stop offset="0.88" stop-color="#d2d927"/><stop offset="0.88" stop-color="#d3d927"/><stop offset="0.88" stop-color="#d6da27"/><stop offset="0.89" stop-color="#d9db25"/><stop offset="0.89" stop-color="#dbdc26"/><stop offset="0.89" stop-color="#dddd27"/><stop offset="0.9" stop-color="#e0de26"/><stop offset="0.91" stop-color="#e0de26"/><stop offset="0.94" stop-color="#e0de26"/><stop offset="1" stop-color="#e0de26"/></linearGradient><clipPath id="clip-path-3"><path class="cls-1" d="M30,29.38l.09,0h.05c.67.12,1.4.17,2.06.27h0c.49.08.88.36.88.79h0a.83.83,0,0,1-.43.7h0a2.4,2.4,0,0,1-.67.3h0a4,4,0,0,1-.74.06h0a2.83,2.83,0,0,1-.85-.11h0a3.32,3.32,0,0,1-1.59-1.07h0l-1.43,1.15a4.52,4.52,0,0,0,1.2,1.05h0a5,5,0,0,0,2.55.69h0a5,5,0,0,0,2.57-.59h0a2.38,2.38,0,0,0,1.24-2h0c0-.06,0-.12,0-.18h0A2.45,2.45,0,0,0,32.64,28h0L32.16,28h0l-.12,0h-.17L30,29.38Z"/></clipPath><linearGradient id="Безымянный_градиент_3" x1="84.4" y1="37.57" x2="84.43" y2="37.57" gradientTransform="translate(8156.23 31205.48) rotate(-128.6) scale(348.67)" gradientUnits="userSpaceOnUse"><stop offset="0" stop-color="#018357"/><stop offset="0.13" stop-color="#018357"/><stop offset="0.19" stop-color="#018357"/><stop offset="0.2" stop-color="#018357"/><stop offset="0.2" stop-color="#068457"/><stop offset="0.2" stop-color="#068457"/><stop offset="0.21" stop-color="#058556"/><stop offset="0.21" stop-color="#058556"/><stop offset="0.21" stop-color="#098654"/><stop offset="0.22" stop-color="#098654"/><stop offset="0.22" stop-color="#098654"/><stop offset="0.23" stop-color="#0d8755"/><stop offset="0.23" stop-color="#0c8854"/><stop offset="0.23" stop-color="#0c8854"/><stop offset="0.24" stop-color="#118953"/><stop offset="0.24" stop-color="#0f8a54"/><stop offset="0.25" stop-color="#108a53"/><stop offset="0.25" stop-color="#148a53"/><stop offset="0.25" stop-color="#148b52"/><stop offset="0.26" stop-color="#138b51"/><stop offset="0.26" stop-color="#168c52"/><stop offset="0.27" stop-color="#158d51"/><stop offset="0.27" stop-color="#158d52"/><stop offset="0.27" stop-color="#198e51"/><stop offset="0.28" stop-color="#1a8f51"/><stop offset="0.28" stop-color="#1b8f51"/><stop offset="0.29" stop-color="#1e904f"/><stop offset="0.29" stop-color="#209150"/><stop offset="0.29" stop-color="#209150"/><stop offset="0.3" stop-color="#20924e"/><stop offset="0.3" stop-color="#22924e"/><stop offset="0.3" stop-color="#22934e"/><stop offset="0.31" stop-color="#22934d"/><stop offset="0.31" stop-color="#25944d"/><stop offset="0.32" stop-color="#26964c"/><stop offset="0.32" stop-color="#26964c"/><stop offset="0.32" stop-color="#28964d"/><stop offset="0.33" stop-color="#2a974b"/><stop offset="0.33" stop-color="#2a974b"/><stop offset="0.34" stop-color="#2c984a"/><stop offset="0.34" stop-color="#31994a"/><stop offset="0.34" stop-color="#309a4a"/><stop offset="0.35" stop-color="#339a49"/><stop offset="0.35" stop-color="#349b49"/><stop offset="0.36" stop-color="#349c48"/><stop offset="0.36" stop-color="#369c48"/><stop offset="0.36" stop-color="#389d48"/><stop offset="0.37" stop-color="#3a9e47"/><stop offset="0.37" stop-color="#3b9f47"/><stop offset="0.38" stop-color="#3c9f46"/><stop offset="0.38" stop-color="#3da046"/><stop offset="0.38" stop-color="#3fa044"/><stop offset="0.39" stop-color="#42a244"/><stop offset="0.39" stop-color="#43a343"/><stop offset="0.39" stop-color="#43a343"/><stop offset="0.4" stop-color="#45a442"/><stop offset="0.4" stop-color="#48a542"/><stop offset="0.41" stop-color="#49a641"/><stop offset="0.41" stop-color="#4ba641"/><stop offset="0.41" stop-color="#4ca741"/><stop offset="0.42" stop-color="#4fa942"/><stop offset="0.42" stop-color="#50aa41"/><stop offset="0.43" stop-color="#52aa41"/><stop offset="0.43" stop-color="#53ab40"/><stop offset="0.43" stop-color="#56ac3e"/><stop offset="0.44" stop-color="#58ad3e"/><stop offset="0.44" stop-color="#59ae3d"/><stop offset="0.45" stop-color="#5bae3d"/><stop offset="0.45" stop-color="#5daf3c"/><stop offset="0.45" stop-color="#5fb03b"/><stop offset="0.46" stop-color="#60b13b"/><stop offset="0.46" stop-color="#63b23b"/><stop offset="0.46" stop-color="#64b23a"/><stop offset="0.47" stop-color="#65b33a"/><stop offset="0.47" stop-color="#68b43b"/><stop offset="0.48" stop-color="#69b53b"/><stop offset="0.48" stop-color="#6bb53a"/><stop offset="0.48" stop-color="#6cb53a"/><stop offset="0.49" stop-color="#6db639"/><stop offset="0.49" stop-color="#70b638"/><stop offset="0.5" stop-color="#72b738"/><stop offset="0.5" stop-color="#74b736"/><stop offset="0.5" stop-color="#77b836"/><stop offset="0.51" stop-color="#78b834"/><stop offset="0.51" stop-color="#7bb935"/><stop offset="0.52" stop-color="#7cba34"/><stop offset="0.52" stop-color="#7eba36"/><stop offset="0.52" stop-color="#81bb35"/><stop offset="0.53" stop-color="#82bc34"/><stop offset="0.53" stop-color="#85bc34"/><stop offset="0.54" stop-color="#87bd33"/><stop offset="0.54" stop-color="#88be34"/><stop offset="0.54" stop-color="#8bbe35"/><stop offset="0.55" stop-color="#8ebf34"/><stop offset="0.55" stop-color="#90c034"/><stop offset="0.55" stop-color="#93c132"/><stop offset="0.56" stop-color="#94c12f"/><stop offset="0.56" stop-color="#95c12f"/><stop offset="0.57" stop-color="#97c230"/><stop offset="0.57" stop-color="#99c330"/><stop offset="0.57" stop-color="#99c330"/><stop offset="0.58" stop-color="#9bc430"/><stop offset="0.58" stop-color="#9dc42e"/><stop offset="0.59" stop-color="#9ec52d"/><stop offset="0.59" stop-color="#a0c62e"/><stop offset="0.59" stop-color="#a3c72e"/><stop offset="0.6" stop-color="#a5c72f"/><stop offset="0.6" stop-color="#a9c82e"/><stop offset="0.61" stop-color="#abc92d"/><stop offset="0.61" stop-color="#acca2e"/><stop offset="0.61" stop-color="#aecb2d"/><stop offset="0.62" stop-color="#b1cc2d"/><stop offset="0.62" stop-color="#b3cc2b"/><stop offset="0.63" stop-color="#b4cd2b"/><stop offset="0.63" stop-color="#b7ce2c"/><stop offset="0.63" stop-color="#b9cf2d"/><stop offset="0.64" stop-color="#bbd02c"/><stop offset="0.64" stop-color="#bdd02a"/><stop offset="0.64" stop-color="#bfd129"/><stop offset="0.65" stop-color="#c1d22a"/><stop offset="0.65" stop-color="#c4d329"/><stop offset="0.66" stop-color="#c6d42a"/><stop offset="0.66" stop-color="#c7d42a"/><stop offset="0.66" stop-color="#cad527"/><stop offset="0.67" stop-color="#ccd627"/><stop offset="0.67" stop-color="#cfd727"/><stop offset="0.68" stop-color="#d0d828"/><stop offset="0.68" stop-color="#d2d929"/><stop offset="0.68" stop-color="#d5da27"/><stop offset="0.69" stop-color="#d7db26"/><stop offset="0.69" stop-color="#d9db25"/><stop offset="0.7" stop-color="#dadc26"/><stop offset="0.7" stop-color="#dcdd27"/><stop offset="0.7" stop-color="#dfde26"/><stop offset="0.71" stop-color="#dfde26"/><stop offset="0.71" stop-color="#e0de26"/><stop offset="0.72" stop-color="#e0de26"/><stop offset="0.75" stop-color="#e0de26"/><stop offset="1" stop-color="#e0de26"/></linearGradient><clipPath id="clip-path-4"><path class="cls-1" d="M41.61,27h2c.06-.76.62-1.18,1.56-1.18h0c1.16,0,1.44.54,1.44,1.34h0v.53l-2.51.18C42.46,28,41.2,29,41.2,30.58h0a2.31,2.31,0,0,0,0,.37h0a2.78,2.78,0,0,0,3.05,2.3h.13A2.59,2.59,0,0,0,46.59,32h0V33h2V27.76A4.78,4.78,0,0,0,48.34,26h0c-.49-1.27-1.74-1.73-3.19-1.73h0c-1.89,0-3.41.84-3.54,2.73m1.59,3.49a1.19,1.19,0,0,1,1.22-1.12h0l2.17-.16v.39a1.93,1.93,0,0,1-2.18,1.95h0a1.12,1.12,0,0,1-1.21-1.06"/></clipPath><linearGradient id="Безымянный_градиент_4" x1="84.38" y1="36.96" x2="84.41" y2="36.96" gradientTransform="translate(8337.97 31089.82) rotate(-128.6) scale(348.95)" gradientUnits="userSpaceOnUse"><stop offset="0" stop-color="#018357"/><stop offset="0.5" stop-color="#018357"/><stop offset="0.75" stop-color="#018357"/><stop offset="0.88" stop-color="#018357"/><stop offset="0.88" stop-color="#018357"/><stop offset="0.89" stop-color="#068456"/><stop offset="0.89" stop-color="#068456"/><stop offset="0.89" stop-color="#058556"/><stop offset="0.9" stop-color="#098654"/><stop offset="0.9" stop-color="#098654"/><stop offset="0.91" stop-color="#0d8755"/><stop offset="0.91" stop-color="#0c8854"/><stop offset="0.91" stop-color="#118953"/><stop offset="0.92" stop-color="#118953"/><stop offset="0.92" stop-color="#108a53"/><stop offset="0.93" stop-color="#128b53"/><stop offset="0.93" stop-color="#138b51"/><stop offset="0.93" stop-color="#168c52"/><stop offset="0.94" stop-color="#158d51"/><stop offset="0.94" stop-color="#188e51"/><stop offset="0.95" stop-color="#1a8f51"/><stop offset="0.95" stop-color="#1e9051"/><stop offset="0.95" stop-color="#1e9050"/><stop offset="0.96" stop-color="#209150"/><stop offset="0.96" stop-color="#20924e"/><stop offset="0.96" stop-color="#22924e"/><stop offset="0.97" stop-color="#22934d"/><stop offset="0.97" stop-color="#25944d"/><stop offset="0.98" stop-color="#26964c"/><stop offset="0.98" stop-color="#28964c"/><stop offset="0.98" stop-color="#2a974b"/><stop offset="0.99" stop-color="#2c984b"/><stop offset="0.99" stop-color="#2f984a"/><stop offset="1" stop-color="#31994a"/><stop offset="1" stop-color="#339a49"/></linearGradient></defs><path id="path10878" class="cls-2" d="M31.87,27.91l-1.06-.14c-.46-.06-1-.25-1-.89a.84.84,0,0,1,.52-.72,2.19,2.19,0,0,1,1-.21h0a2.29,2.29,0,0,1,1.8.8l0,.06,1.41-1.12a.43.43,0,0,0,0-.07l0,0,0,0-.14-.16-.13-.14a4.07,4.07,0,0,0-2.8-1A4.59,4.59,0,0,0,29,25,2.38,2.38,0,0,0,28,26.38a2.18,2.18,0,0,0-.07.52s0,.1,0,.19v.05a1.74,1.74,0,0,0,0,.3,2.36,2.36,0,0,0,1.91,1.9l.17,0,1.85-1.47ZM24.39,29A2.61,2.61,0,0,1,23.76,31a1.44,1.44,0,0,1-1.07.44A1.41,1.41,0,0,1,21.53,31a1.84,1.84,0,0,1-.34-1.2V24.52h-2v5.69a2.82,2.82,0,0,0,2.95,3,2.69,2.69,0,0,0,2.47-1.31v1.77l1.81-1.44V24.52h-2V29ZM6.1,24.31a2.81,2.81,0,0,0-2.5,1.3l0,.07V24.52H1.73V33h2V29.34A5.33,5.33,0,0,1,4,27.27a1.63,1.63,0,0,1,1.5-1.1,1.34,1.34,0,0,1,1.13.44A1.85,1.85,0,0,1,7,27.8V33H9V27.35a2.78,2.78,0,0,0-2.87-3m8,0a3.67,3.67,0,0,0-2.72,1.08,4.75,4.75,0,0,0-1.23,3.4,4.62,4.62,0,0,0,1.31,3.41,3.71,3.71,0,0,0,2.69,1A3.65,3.65,0,0,0,17,32.05a3.3,3.3,0,0,0,.71-1.54H15.75a1.54,1.54,0,0,1-.41.72,1.63,1.63,0,0,1-1.27.41,1.84,1.84,0,0,1-1.28-.53,2.28,2.28,0,0,1-.63-1.63V29.4h5.72c0-.19,0-.56,0-.56v-.26a4.6,4.6,0,0,0-.74-2.7,3.56,3.56,0,0,0-3.1-1.57m-1.92,3.63v0a2.12,2.12,0,0,1,.45-1.34A1.78,1.78,0,0,1,14,25.91a1.76,1.76,0,0,1,1.32.5,2.28,2.28,0,0,1,.53,1.51v0Z"/><g class="cls-3"><g id="g10880"><path id="path10882" class="cls-4" d="M59.17,29.68,52,35.44l-6.13-7.68L53,22Z"/></g></g><g class="cls-5"><g id="g10884"><path id="path10886" class="cls-6" d="M45.29,29.19,37.7,35.24l-6.63-8.3,7.58-6.06Z"/></g></g><g class="cls-7"><g id="g10888"><path id="path10890" class="cls-8" d="M37.55,31.16l-7.22,5.77L24.79,30,32,24.22Z"/></g></g><g class="cls-9"><g id="g10892"><path id="path10894" class="cls-10" d="M52.94,29.77l-8.87,7.08-7.23-9.06,8.87-7.09Z"/></g></g></svg>