<svg id="Слой_1" data-name="Слой 1" xmlns="http://www.w3.org/2000/svg" xmlns:xlink="http://www.w3.org/1999/xlink" viewBox="0 0 56.69 56.69"><defs><style>.cls-1{fill:none;}.cls-2{clip-path:url(#clip-path);}.cls-3{fill:#fff;}.cls-4{fill:#1d3763;}.cls-5{fill:#d51116;}</style><clipPath id="clip-path"><rect class="cls-1" x="9.29" y="2.06" width="38.1" height="52.58"/></clipPath></defs><g class="cls-2"><path class="cls-3" d="M46.2,8.1a10.41,10.41,0,0,1-8.76,1.79,12.85,12.85,0,0,1-9-7.76,12.9,12.9,0,0,1-9,7.76,10.64,10.64,0,0,1-8.82-1.78H9.29V40.63a6.51,6.51,0,0,0,1.54,4.12c1.65,2,4.44,3.27,8.3,3.83a12,12,0,0,1,7,3,16.76,16.76,0,0,1,2.32,3.1,17.39,17.39,0,0,1,2.3-3.1,12.18,12.18,0,0,1,7-3c3.86-.56,6.63-1.86,8.29-3.86a6.39,6.39,0,0,0,1.54-4.06V8.13H46.25"/><path class="cls-4" d="M46.34,9.36A11.36,11.36,0,0,1,37.11,11a14,14,0,0,1-8.76-6.28A13.88,13.88,0,0,1,19.58,11a11.32,11.32,0,0,1-9.16-1.66V40.6c0,1.06.45,5.58,8.9,6.77a13.14,13.14,0,0,1,7.57,3.27,10.21,10.21,0,0,1,1.5,1.82,10.13,10.13,0,0,1,1.5-1.82,13.23,13.23,0,0,1,7.56-3.27c8.43-1.21,8.83-5.73,8.9-6.77V9.33"/><path class="cls-3" d="M28.41,49.34s2.45-3,8.77-4c7.3-1.12,7-4.53,7-4.7V24.25H12.55v16.4c0,.17-.22,3.58,7,4.7,6.35,1,8.77,4,8.77,4"/><path class="cls-5" d="M21,36.25V28.48l-1-.55v-2h4.46v2l-.93.55V44.34l-2.38-.71L17.71,33.48v6.7l1.1.84v2.06L14,41.87V40.11l1.1-.43V28.46L14,27.91v-2h3.61L21,36.25"/><path class="cls-5" d="M29.21,43.35l1,1.14v2l-4.74-1.77V43l1-.43V28.46l-1-.52V25.89h8.23V30H31.86l-.54-1.68H29.23v4.75h1.56l.62-.9h1.26V36.4H31.41l-.59-.86h-1.6v7.83"/><path class="cls-5" d="M34.45,44.08v-2l1.18-1V28.49l-1-.53v-2h4.73v2l-.93.53V40.37l2-.55.39-3.11H42.8V41.9l-8.36,2.23"/><path class="cls-3" d="M13.38,20.91l-1.44-1.07H13.7l.57-1.66.58,1.66H16.6l-1.43,1.08.53,1.68-1.43-1-1.43,1,.53-1.68"/><path class="cls-3" d="M19.58,20.91l-1.43-1.07H19.9l.58-1.66.58,1.66h1.75l-1.43,1.08.52,1.68-1.42-1-1.43,1,.53-1.68"/><path class="cls-3" d="M13.38,15.34l-1.44-1.08H13.7l.57-1.66.58,1.66H16.6l-1.43,1.08L15.7,17l-1.43-1-1.43,1,.53-1.69"/><path class="cls-3" d="M19.58,15.34l-1.43-1.08H19.9l.58-1.66.58,1.66h1.75l-1.43,1.08L21.9,17l-1.42-1-1.43,1,.53-1.69"/><path class="cls-3" d="M44,22.57l-1.43-1-1.43,1,.53-1.69L40.19,19.8h1.75l.58-1.66.57,1.66h1.76l-1.44,1.08.53,1.69"/><path class="cls-3" d="M37.71,22.57l-1.43-1-1.43,1,.53-1.69L34,19.8H35.7l.58-1.66.57,1.66h1.76l-1.44,1.08.53,1.69"/><path class="cls-3" d="M44,17l-1.43-1-1.43,1,.53-1.68-1.43-1.08h1.75l.58-1.66.57,1.66h1.76l-1.44,1.08L43.94,17"/><path class="cls-3" d="M37.71,17l-1.43-1-1.43,1,.53-1.68L34,14.23H35.7l.58-1.66.57,1.66h1.76l-1.44,1.08L37.7,17"/><path class="cls-3" d="M29.74,14.07a4.93,4.93,0,0,0-2.11-1c.18-.18.37-.33.54-.47a4.92,4.92,0,0,1,2,1l-.45.47Zm-.92,1.11a4.93,4.93,0,0,0-2.19-1.06c.13-.16.28-.34.43-.5a4.84,4.84,0,0,1,2.17,1l-.41.52ZM28,16.34a4.86,4.86,0,0,0-2.17-1l.36-.57a4.89,4.89,0,0,1,2.18,1.05l-.37.54Zm4.33-5.55a8.66,8.66,0,0,0-1.78,1.41,4.85,4.85,0,0,1,.65.44l-.46.43a5.09,5.09,0,0,0-1.92-1l.56-.38c.29.08.57.19.57.19a9.55,9.55,0,0,1,2.19-1.27,1,1,0,0,0-.43-.05c-4.6.05-8.83,3.49-8,9.36a7.21,7.21,0,0,0,.63,2.25,17.82,17.82,0,0,1,1.56-5.46,4.12,4.12,0,0,0-.69-.19c.11-.24.27-.53.27-.53a4.74,4.74,0,0,1,2.13,1c-.14.24-.24.39-.31.52a5,5,0,0,0-.68-.45,19.13,19.13,0,0,0-2,5.22c0,.07.15.1.26.09,5-.66,7.37-3.23,8.1-6a8.64,8.64,0,0,0-.32-5.3c0-.11-.13-.29-.28-.28"/></g></svg>