<svg id="Слой_1" data-name="Слой 1" xmlns="http://www.w3.org/2000/svg" viewBox="0 0 56.69 56.69"><defs><style>.cls-1{fill:none;}.cls-2{fill:#808181;}</style></defs><rect id="backgroundrect" class="cls-1" x="2.52" y="20.92" width="51.63" height="14.86"/><g id="svg_1" data-name="svg 1"><path id="svg_2" data-name="svg 2" class="cls-2" d="M17.62,21.21a2.19,2.19,0,0,0-2.69,1.51h0l-1.58,5.56L9.42,22.14a2.16,2.16,0,0,0-2.14-1A2.21,2.21,0,0,0,5.5,22.72L2.61,32.92A2.19,2.19,0,0,0,4.1,35.63a2.43,2.43,0,0,0,.6.1,2.21,2.21,0,0,0,2.09-1.59l1.58-5.56,3.93,6.17a2.16,2.16,0,0,0,3,.7,2.22,2.22,0,0,0,1-1.26l2.88-10.25a2.19,2.19,0,0,0-1.48-2.72Z"/><path id="svg_3" data-name="svg 3" class="cls-2" d="M35.38,21.21a2.17,2.17,0,0,0-2.69,1.5h0l-1,3.63h-4.9l.69-2.41a2.18,2.18,0,0,0-4-1.69,1.93,1.93,0,0,0-.13.47l-2.94,10.2a2.2,2.2,0,0,0,1.47,2.72,2.28,2.28,0,0,0,.63.09,2.17,2.17,0,0,0,2.09-1.59l1-3.63h4.9l-.69,2.41a2.2,2.2,0,0,0,1.49,2.71,2.51,2.51,0,0,0,.61.1A2.18,2.18,0,0,0,34,34.14l2.91-10.2a2.19,2.19,0,0,0-1.48-2.72Z"/><path id="svg_4" data-name="svg 4" class="cls-2" d="M53.73,22a2.16,2.16,0,0,0-3-.44h0l-6.14,4.68.64-2.31a2.18,2.18,0,1,0-4.12-1.4.66.66,0,0,0-.06.2L38.13,32.92a2.19,2.19,0,0,0,1.49,2.71,2.47,2.47,0,0,0,.6.08,2.16,2.16,0,0,0,2.09-1.59l1.25-4.39a.23.23,0,0,0,.07.07.61.61,0,0,0,.07.1L48.41,35a2.17,2.17,0,0,0,3.06.13h0A2.2,2.2,0,0,0,51.6,32L48.53,28.7l4.78-3.64A2.18,2.18,0,0,0,53.73,22Z"/></g></svg>