<svg id="Слой_1" data-name="Слой 1" xmlns="http://www.w3.org/2000/svg" viewBox="0 0 56.69 56.69"><defs><style>.cls-1{fill:#272324;}.cls-2{fill:#7d7c7c;}</style></defs><path class="cls-1" d="M25.44,14.15c-2.12-2.07-3.75-3.85-5.59-5.39-1.57-1.31-1.43-2.21.53-3.28,2,2.06,4.21,4.1,6.1,6.41,1.49,1.8,2.41,1.42,3.74-.07,1.71-1.91,3.65-3.62,5.43-5.46.65-.66,1.05-.93,1.87-.12s.59,1.17-.06,1.81c-2,1.93-3.87,3.9-6,6.1H42.33c3.34,0,4.37,1,4.38,4.28q0,8.52,0,17c0,3.17-1.05,4.33-4.21,4.16-2.31-.13-3.94.37-4.9,2.62-.64,1.5-1.63,1.3-2.19-.09-.89-2.19-2.45-2.75-4.7-2.53a28,28,0,0,1-5.79,0,3.41,3.41,0,0,0-3.73,2c-1.24,2.19-1.67,2.21-2.85,0a3.42,3.42,0,0,0-3.7-2c-3.75.14-4.66-.86-4.66-4.59q0-8.31,0-16.62c0-3.24,1-4.27,4.38-4.28Zm-6.58,1.39c-1.92,0-3.36-.1-4.78,0-1.86.17-3,1-2.87,3.17.14,2.76.11,5.53,0,8.29a1.73,1.73,0,0,0,1.86,2c1.21,0,2.69,1.37,3.59-.83a16.33,16.33,0,0,1,7.8-8.71c.75-.38,1.53-.86,1.39-1.93s-1.07-1.4-2-1.72C22.09,15.23,20.21,15.66,18.86,15.54Z"/><path class="cls-2" d="M18.86,15.54c1.35.12,3.23-.31,5,.34.88.32,1.8.59,2,1.72s-.64,1.55-1.39,1.93a16.33,16.33,0,0,0-7.8,8.71c-.9,2.2-2.38.86-3.59.83a1.73,1.73,0,0,1-1.86-2c.11-2.76.14-5.53,0-8.29-.11-2.15,1-3,2.87-3.17C15.5,15.44,16.94,15.54,18.86,15.54Z"/><path class="cls-1" d="M24.09,45.07h1a2.32,2.32,0,0,1,2.57,2A3.46,3.46,0,0,1,27,50.44a2.08,2.08,0,0,1-1.57.65H23a2.42,2.42,0,0,1-2.67-2.24,3.56,3.56,0,0,1,.47-2.77,2.12,2.12,0,0,1,1.89-1C23.17,45.09,23.63,45.07,24.09,45.07Zm0,1.21h-.44c-1.92,0-2.27.37-2.15,2.28a1.33,1.33,0,0,0,1.38,1.32c.78,0,1.57,0,2.36,0a1.36,1.36,0,0,0,1.42-1.29c.17-1.18-.17-2-.93-2.26a1.58,1.58,0,0,0-.43,0Z"/><path class="cls-1" d="M49.55,51.09h-1a2.43,2.43,0,0,1-2.67-2.19,3.61,3.61,0,0,1,.38-2.68,2.18,2.18,0,0,1,2-1.15c.79,0,1.58,0,2.37,0a2.34,2.34,0,0,1,2.58,2A3.8,3.8,0,0,1,53,49.78a2.26,2.26,0,0,1-2.17,1.31Zm.06-4.81h-1A1.42,1.42,0,0,0,47,47.8a5.1,5.1,0,0,0,.07.87,1.31,1.31,0,0,0,1.32,1.21c.82,0,1.65,0,2.47,0s1.23-.51,1.34-1.43c.14-1.13-.18-1.87-.92-2.11a1.58,1.58,0,0,0-.43,0Z"/><path class="cls-1" d="M28.86,48.66V47.25a2.31,2.31,0,0,1,2-2.38,6.35,6.35,0,0,1,2.34,0,2.47,2.47,0,0,1,2,2.41c0,1.07,0,2.14,0,3.22,0,.41-.15.73-.63.71s-.58-.3-.57-.7V47.61c0-1.15-.47-1.61-1.61-1.66-1.74-.08-2.47.15-2.35,2.23.05.76,0,1.53,0,2.29,0,.42-.15.74-.62.73s-.6-.31-.59-.73C28.87,49.87,28.86,49.27,28.86,48.66Z"/><path class="cls-1" d="M3.31,48.69V47.27a2.35,2.35,0,0,1,2-2.4,6.58,6.58,0,0,1,2.3,0A2.47,2.47,0,0,1,9.69,47.3c0,1,0,2.08,0,3.11,0,.43-.12.79-.62.79s-.61-.34-.6-.78c0-.94,0-1.89,0-2.83C8.48,46.48,8,46,6.89,46h-1a1.33,1.33,0,0,0-1.37,1.38q0,1.56,0,3.12c0,.42-.14.73-.59.74s-.64-.32-.63-.76S3.31,49.27,3.31,48.69Z"/><path class="cls-1" d="M42.9,51.1H41.52a2.2,2.2,0,0,1-2.41-1.77A3.6,3.6,0,0,1,39.57,46a2.12,2.12,0,0,1,1.79-.88q1.65,0,3.3,0c.43,0,.74.13.74.59s-.3.62-.73.62H41.59a1.36,1.36,0,0,0-1.48,1.45c0,.25,0,.51,0,.76a1.34,1.34,0,0,0,1.43,1.39h2.86c.74,0,1,.16,1,.62s-.26.59-1,.59Z"/><path class="cls-1" d="M17.33,51.1H16a2.26,2.26,0,0,1-2.5-2,4,4,0,0,1,.13-2.52A2.33,2.33,0,0,1,16,45.08c1.05,0,2.1,0,3.14,0,.43,0,.74.13.74.6s-.3.61-.73.61H16.05a1.34,1.34,0,0,0-1.46,1.19,3.23,3.23,0,0,0,0,1.35A1.28,1.28,0,0,0,16,49.89h3.14c.41,0,.74.12.75.59s-.32.63-.76.62Z"/><path class="cls-1" d="M12.14,48.8c0,.6,0,1.2,0,1.8,0,.34-.12.58-.49.61a.52.52,0,0,1-.59-.57c0-1.26,0-2.51,0-3.77,0-.35.21-.51.58-.49s.51.21.5.56C12.13,47.56,12.14,48.18,12.14,48.8Z"/><path class="cls-1" d="M37.69,48.76V50.5c0,.38-.09.7-.55.7s-.54-.31-.54-.67c0-1.19,0-2.39,0-3.59,0-.37.15-.57.56-.56s.55.2.54.58Z"/><path class="cls-1" d="M11.53,45.53c-.37,0-.71-.1-.71-.57s.35-.58.74-.57.8.07.78.6S12,45.54,11.53,45.53Z"/><path class="cls-1" d="M37.17,45.53c-.48,0-.81-.09-.81-.59s.4-.56.77-.56.77.11.75.59S37.51,45.55,37.17,45.53Z"/></svg>