<svg id="Слой_1" data-name="Слой 1" xmlns="http://www.w3.org/2000/svg" viewBox="0 0 56.69 56.69"><defs><style>.cls-1{fill:#010101;}</style></defs><path class="cls-1" d="M7.66,37.8a6.5,6.5,0,0,1-3.89-1.3A7.74,7.74,0,0,1,3,35.69a4.91,4.91,0,0,1-.87-1.57c-.58-1.72-.28-4,.84-6.44a28.93,28.93,0,0,1,5-7.12l1.52-1.67a1.3,1.3,0,0,1-.13.23,15.22,15.22,0,0,0-1.56,3.6A6.43,6.43,0,0,0,8,27.37a4.56,4.56,0,0,0,2,2c1.44.7,3.56.76,6.14.17l19.57-5.2,19.24-5.11-37.35,16c-2,.87-2.57,1.09-3.52,1.42A17.85,17.85,0,0,1,7.66,37.8Z"/></svg>