<svg id="Слой_1" data-name="Слой 1" xmlns="http://www.w3.org/2000/svg" xmlns:xlink="http://www.w3.org/1999/xlink" viewBox="0 0 56.69 56.69"><defs><style>.cls-1{fill:#ffe108;}.cls-2{fill:url(#Безымянный_градиент_15);}.cls-3{fill:url(#Безымянный_градиент_14);}.cls-4{fill:url(#Безымянный_градиент_13);}.cls-5{fill:url(#Безымянный_градиент_12);}.cls-6{fill:url(#Безымянный_градиент_11);}.cls-7{fill:url(#Безымянный_градиент_6);}.cls-8{fill:url(#Безымянный_градиент_7);}.cls-9{fill:url(#Безымянный_градиент_8);}.cls-10{fill:url(#Безымянный_градиент_9);}.cls-11{fill:url(#Безымянный_градиент_10);}.cls-12{fill:#110706;}</style><linearGradient id="Безымянный_градиент_15" x1="565.77" y1="333.18" x2="566.79" y2="333.48" gradientTransform="matrix(77.36, 0, 0, -77.36, -43800.64, 25836.98)" gradientUnits="userSpaceOnUse"><stop offset="0" stop-color="#fee318"/><stop offset="0.34" stop-color="#fff"/><stop offset="0.66" stop-color="#fff"/><stop offset="1" stop-color="#fee318"/></linearGradient><linearGradient id="Безымянный_градиент_14" x1="565.86" y1="333.27" x2="566.84" y2="333.59" gradientTransform="matrix(77.36, 0, 0, -77.36, -43800.64, 25836.98)" gradientUnits="userSpaceOnUse"><stop offset="0" stop-color="#fee318"/><stop offset="0.35" stop-color="#fff"/><stop offset="0.65" stop-color="#fff"/><stop offset="1" stop-color="#fee318"/></linearGradient><linearGradient id="Безымянный_градиент_13" x1="565.94" y1="333.36" x2="566.88" y2="333.7" gradientTransform="matrix(77.36, 0, 0, -77.36, -43800.64, 25836.98)" gradientUnits="userSpaceOnUse"><stop offset="0" stop-color="#fee318"/><stop offset="0.37" stop-color="#fff"/><stop offset="0.63" stop-color="#fff"/><stop offset="1" stop-color="#fee318"/></linearGradient><linearGradient id="Безымянный_градиент_12" x1="566.02" y1="333.44" x2="566.93" y2="333.8" gradientTransform="matrix(77.36, 0, 0, -77.36, -43800.64, 25836.98)" gradientUnits="userSpaceOnUse"><stop offset="0" stop-color="#fee318"/><stop offset="0.39" stop-color="#fff"/><stop offset="0.61" stop-color="#fff"/><stop offset="1" stop-color="#fee318"/></linearGradient><linearGradient id="Безымянный_градиент_11" x1="566.1" y1="333.52" x2="566.97" y2="333.89" gradientTransform="matrix(77.36, 0, 0, -77.36, -43800.64, 25836.98)" gradientUnits="userSpaceOnUse"><stop offset="0" stop-color="#fee318"/><stop offset="0.4" stop-color="#fff"/><stop offset="0.6" stop-color="#fff"/><stop offset="1" stop-color="#fee318"/></linearGradient><linearGradient id="Безымянный_градиент_6" x1="566.17" y1="333.6" x2="567.01" y2="333.99" gradientTransform="matrix(77.36, 0, 0, -77.36, -43800.64, 25836.98)" gradientUnits="userSpaceOnUse"><stop offset="0" stop-color="#ffe725"/><stop offset="0.41" stop-color="#fff"/><stop offset="0.58" stop-color="#fff"/><stop offset="1" stop-color="#fee318"/></linearGradient><linearGradient id="Безымянный_градиент_7" x1="566.24" y1="333.67" x2="567.05" y2="334.08" gradientTransform="matrix(77.36, 0, 0, -77.36, -43800.64, 25836.98)" gradientUnits="userSpaceOnUse"><stop offset="0" stop-color="#ffe834"/><stop offset="0.43" stop-color="#fff"/><stop offset="0.57" stop-color="#fff"/><stop offset="1" stop-color="#fee318"/></linearGradient><linearGradient id="Безымянный_градиент_8" x1="566.3" y1="333.74" x2="567.09" y2="334.17" gradientTransform="matrix(77.36, 0, 0, -77.36, -43800.64, 25836.98)" gradientUnits="userSpaceOnUse"><stop offset="0" stop-color="#ffea42"/><stop offset="0.45" stop-color="#fff"/><stop offset="0.56" stop-color="#fff"/><stop offset="1" stop-color="#fee318"/></linearGradient><linearGradient id="Безымянный_градиент_9" x1="566.37" y1="333.81" x2="567.12" y2="334.26" gradientTransform="matrix(77.36, 0, 0, -77.36, -43800.64, 25836.98)" gradientUnits="userSpaceOnUse"><stop offset="0" stop-color="#ffeb4f"/><stop offset="0.46" stop-color="#fff"/><stop offset="0.54" stop-color="#fff"/><stop offset="1" stop-color="#fee318"/></linearGradient><linearGradient id="Безымянный_градиент_10" x1="566.43" y1="333.88" x2="567.16" y2="334.35" gradientTransform="matrix(77.36, 0, 0, -77.36, -43800.64, 25836.98)" gradientUnits="userSpaceOnUse"><stop offset="0" stop-color="#ffed5c"/><stop offset="0.47" stop-color="#fff"/><stop offset="0.52" stop-color="#fff"/><stop offset="1" stop-color="#fee318"/></linearGradient></defs><rect class="cls-1" x="-0.46" y="-0.46" width="57.61" height="57.61"/><path class="cls-2" d="M43.19,40.34a349.6,349.6,0,0,0-38.42,9Q2.15,50.16-.46,51v4.52c2.16-.6,4.32-1.21,6.49-1.85A352.37,352.37,0,0,0,43.19,40.34Z"/><path class="cls-3" d="M46.83,31.86A367,367,0,0,0,10,41.75Q4.71,43.46-.46,45.32v3.8q5.84-1.69,11.66-3.58A365.06,365.06,0,0,0,46.83,31.86Z"/><path class="cls-4" d="M50.31,23.77A368.25,368.25,0,0,0,14.88,34.44Q7.11,37.22-.46,40.29V43.4q8.31-2.53,16.58-5.48A369.19,369.19,0,0,0,50.31,23.77Z"/><path class="cls-5" d="M53.64,16Q36.56,20.85,19.56,27.47q-10.21,4-20,8.47v2.28q10.65-3.44,21.26-7.57Q37.78,24,53.64,16Z"/><path class="cls-6" d="M56.84,8.53Q40.4,13.84,24,20.78,11.46,26.14-.46,32.22v1.34q12.9-4.44,25.73-9.89Q41.6,16.72,56.84,8.53Z"/><path class="cls-7" d="M57.15,2.86V2.31q-14.43,5.39-28.78,12Q13.48,21.23-.46,29.11v.32q15.06-5.55,30-12.49Q43.8,10.36,57.15,2.86Z"/><path class="cls-8" d="M3.22,24.34q15.3-6.25,30.51-13.91Q44.08,5.21,54-.46H50.51q-9,4-18,8.55Q17.36,15.74,3.22,24.34Z"/><path class="cls-9" d="M8.31,18.86Q23.07,12.11,37.75,4.09q4.08-2.25,8.09-4.55H41.17c-1.52.81-3,1.64-4.56,2.47Q22,10,8.31,18.86Z"/><path class="cls-10" d="M38.74-.46h-4q-11,6.74-21.35,13.88Q26.08,6.94,38.74-.46Z"/><path class="cls-11" d="M32.82-.46H30.29Q24.26,3.71,18.44,8,25.63,3.91,32.82-.46Z"/><path class="cls-12" d="M20.42,55.05l3.11-14h3.84L25.7,48.49l3.09-3.74h4.29l-3.85,4.67,1.59,5.63H27l-1.58-5.33-1.25,5.33ZM6.58,48l2.7,7H13l3.16-14H12.34l-1.6,7.13L8.09,41H4.25l-3.13,14H5C5.42,52.8,6,50.43,6.58,48Zm12,7,2.29-10.29H17.12l-2.3,10.29ZM17.31,42.5c0,.32.08,1.47,2.14,1.47,1.71,0,2.37-1.1,2.37-1.92,0-.55-.45-1.51-2.14-1.51A2.15,2.15,0,0,0,17.31,42.5Zm36.21,2.12a4.43,4.43,0,0,0-4.58,1.68c.09-.43.19-.92.31-1.48H45.43L43.19,55.05H47l1.27-5.81a1.54,1.54,0,0,1,1.86-1.32c.32.09.77.33.62,1.22l-1.29,5.91h3.76l1.72-7.88A2.14,2.14,0,0,0,53.52,44.62Zm-12.78,9.5a7.41,7.41,0,0,0,2.44-5.78c0-2.06-1.78-4-4.82-4-5.79,0-6.64,4.52-6.8,5.34-.43,2.09,0,4.8,2.77,5.51A7.64,7.64,0,0,0,40.74,54.12Zm-4.25-6a1.46,1.46,0,0,1,1.35-.92c.83,0,1,.49,1,1A27.57,27.57,0,0,1,38,51.62v0a1.35,1.35,0,0,1-1.35.9c-.64,0-1-.4-1-.91A25.67,25.67,0,0,1,36.49,48.15Z"/></svg>