<svg id="Слой_1" data-name="Слой 1" xmlns="http://www.w3.org/2000/svg" viewBox="0 0 56.69 56.69"><defs><style>.cls-1{fill:#010101;}</style></defs><path class="cls-1" d="M45.07,19.56a19,19,0,0,0-33.72,0Z"/><path class="cls-1" d="M11.34,37.11a19,19,0,0,0,33.75,0Z"/><path class="cls-1" d="M39.4,26.27a1.77,1.77,0,0,0-.11-.26,1.28,1.28,0,0,0-.11.26l-.88,2.36c-.06.14,0,.25.18.25H40.1a.18.18,0,0,0,.18-.25Z"/><path class="cls-1" d="M54.05,21.2H2.65A1.65,1.65,0,0,0,1,22.84V34a1.65,1.65,0,0,0,1.64,1.64h51.4A1.64,1.64,0,0,0,55.68,34V22.84A1.64,1.64,0,0,0,54.05,21.2ZM12.9,32.2a.27.27,0,0,1-.27.27h-3a.45.45,0,0,1-.39-.25L6.58,26.54a2.31,2.31,0,0,0-.11-.24s0,.14,0,.29l0,5.61a.28.28,0,0,1-.28.27H4.69a.28.28,0,0,1-.27-.27V24.52a.28.28,0,0,1,.27-.27H7.93a.44.44,0,0,1,.38.25l2.37,5.67c.05.13.11.12.11,0V24.53a.27.27,0,0,1,.27-.27h1.56a.26.26,0,0,1,.27.27V32.2Zm4,0a.28.28,0,0,1-.27.27H15a.28.28,0,0,1-.27-.27V24.52a.28.28,0,0,1,.27-.27h1.57a.28.28,0,0,1,.27.27Zm9.23-2.39a2.67,2.67,0,0,1-1.86,2.55H18.69V30.55l4.48-.06c.56,0,.59-.33.58-.56a.6.6,0,0,0-.65-.71H20.61c-1.49,0-2.29-.94-2.29-2.54,0-2.25,1.28-2.51,3.35-2.51s3.65,0,3.65,0l0,1.87H21.67c-1.14,0-1.13,0-1.13.72s.09.6,1,.6l2.67,0C26.15,27.36,26.09,29.81,26.09,29.81Zm8.51,0a2.67,2.67,0,0,1-1.86,2.55H27.21V30.55l4.48-.06c.56,0,.59-.33.58-.56a.6.6,0,0,0-.65-.71H29.13c-1.49,0-2.3-.94-2.3-2.54,0-2.25,1.29-2.51,3.36-2.51s3.65,0,3.65,0l0,1.87H30.19c-1.14,0-1.13,0-1.13.72s.09.6,1,.6l2.68,0C34.66,27.36,34.6,29.81,34.6,29.81Zm9,2.47H42a.49.49,0,0,1-.39-.24l-.45-.93a.5.5,0,0,0-.4-.24h-3a.5.5,0,0,0-.4.24l-.47.93a.52.52,0,0,1-.4.24H34.89a.18.18,0,0,1-.18-.25l2.85-7.72a.41.41,0,0,1,.37-.25h2.66a.42.42,0,0,1,.37.25L43.82,32A.19.19,0,0,1,43.63,32.28Zm9.58-.08a.28.28,0,0,1-.27.27h-3a.45.45,0,0,1-.38-.25l-2.64-5.68c-.07-.14-.12-.25-.12-.24s0,.14,0,.29l0,5.61a.27.27,0,0,1-.27.27H45a.27.27,0,0,1-.27-.27V24.52a.27.27,0,0,1,.27-.27h3.24a.47.47,0,0,1,.38.25L51,30.17c.05.13.1.12.1,0V24.53a.28.28,0,0,1,.27-.27h1.58a.27.27,0,0,1,.27.27V32.2Z"/></svg>