<svg id="Слой_1" data-name="Слой 1" xmlns="http://www.w3.org/2000/svg" viewBox="0 0 56.69 56.69"><defs><style>.cls-1{fill:#345ca8;}</style></defs><path class="cls-1" d="M38.11,22.7V34H39.8V22.7ZM20,22.51a5.68,5.68,0,0,0-5.85,5.84A5.58,5.58,0,0,0,20,34.18a5.59,5.59,0,0,0,5.86-5.83A5.79,5.79,0,0,0,20,22.51Zm4.17,5.84A4.07,4.07,0,0,1,20,32.57a4.06,4.06,0,0,1-4.16-4.22,4.17,4.17,0,1,1,8.33,0Zm-21.38-6V34H4.54v-7.7l9,8.06V31.94Zm24.34,6L33.44,34H36l-6.29-5.64L36,22.7H33.44ZM53.88,34H52l-1.37-2.5H44.49L43.13,34H41.27l2.25-4.17h6.25L46.65,24l.92-1.7h0Z"/></svg>