<svg id="Слой_1" data-name="Слой 1" xmlns="http://www.w3.org/2000/svg" viewBox="0 0 56.69 56.69"><defs><style>.cls-1{fill:#231f20;}.cls-2{fill:#d90d2d;}.cls-3{fill:none;}.cls-4{fill:#fff;}.cls-5{fill:#d1501e;}.cls-6{fill:#e9e227;}.cls-7{fill:#2f9367;}.cls-8{fill:#458cbf;}</style></defs><g id="g4144"><g id="g7177"><path id="path4326" class="cls-1" d="M27.75,4.38l-1.16.09-3,.43-2.14.6-.51.34-.17.39,0,1.19-.26.18-.68.21-.26-.09L19.27,7l-.39-.25-.38-.09-.73.17-.56.43-.08.3.42,1.33,0,.13-.26.17-.94.34L16,9.1l-.64-.35-.6,0-1.5,1-2.23,2L9,13.89,7.57,15.73,6.08,18.26,5.52,19.5l-.69,1.84-.38,1.42-.34,1.41L3.85,26l0,3,0,1.37L4.06,32l.43,2,.73,2.44L6,38.3l.73,1.5.56.77.29.3H8l.35-.17.42-.13.3.13.65.52.21.25.69,1,.12.39-.25.38-.13.6.26.86.21.34.6.69.73.51.77.26.81-.22.39-.3.9.22.85.47,1,.81.22.26-.31.43,0,.64.17.34.22.18,1.16.85,1.45.64,3,.82,1.49.34,2.36.3h2.19l3.16-.17,1.46-.34,2.74-.73,2.49-1,1.24-.72.68-.52.09-.34,0-.39-.43-.81-.09-.39.13-.25L41,46.1l.64-.39.39-.12.21,0,.69.94.34.22.77-.22.86-.47.81-.73.73-.94.17-.64,0-.3-.47-.6L46,42.54l.13-.38,1.07-1.29.26,0,.72.6.3.09.65-.52,1-1.75,1.12-2.62.34-1,.94-3.47.22-1.71.17-2.74L52.8,25.8l-.17-1.63-.38-2.06-.6-1.92-1.07-2.44L49.33,15.6l-1.28-1.79-1.71-1.93-1.55-1.46-2-1.58-.35-.09L42,8.84l-.22.26-.68.94H41l-.34-.13L40,9.39V9.27l.47-.65.21-.42,0-.39-.17-.34L40,7.12l-.64-.21L39,7l-.34.35-.3.55L38,8.2l-.26-.09-.69-.39L37,7.55l.3-.64,0-.51-.13-.22-.56-.34-1.5-.51-2.27-.56-2.35-.3-2.74-.09Z"/><path id="path4330" class="cls-2" d="M33.27,9.22l1,.26v.13l-.3.13-.26.43-.08.25.21.43.9.86.69.34.9.17.6-.17h0l.13.34.64.9.77.47.56.17.73,0,.3-.21.6-.82,1.19,1,1.37,1.33,1.33,1.63,1.12,1.75.9,1.72.59,1.33.26.72.56,2.27.13.77.21,1.93,0,2.14-.17,1.37-.35,1.8-.47,1.67-1,2.4-.26.51h0l-.52-.55-.38-.17-.69.21-1,.77-.73.77-.73,1-.3.55-.09.39.09.39.94,1,0,.17-.81.77h-.18l-.77-1-.34-.17-1,.12-1,.39-1.2.81-.77.73L36.1,44l-.17.56.13.51.38.65.17.21v.13l-.51.3-1.46.51-2.52.6-2.19.3-1.54.13-1.71,0L25,47.64l-1.76-.34-.17,0-1.8-.56-.77-.39.08-.47L21,45.2l-.17-.51-.81-1-.94-.77-1.29-.73-1.24-.34L16.1,42l-.69.85-.13.09L15,42.8l-.26-.26.26-.25.25-.26.09-.3-.17-.38.08-.35-.12-.6-.56-1.07L14,38.39l-1.16-1.2-.51-.34-.35,0-.51.21-.56.38h-.13L10,36l-.77-2.27L8.65,31l-.22-2.36.09-2.31.34-2.14.56-2.05v-.05l.85-2L11.43,18l1.33-1.79,1.88-2,1.24-1,.3-.21h.13l.64.81.39.17.77,0,.9-.34,1-.73.3-.6.55.22.6-.13,1-.39.73-.51.3-.43,0-.34-.3-1.2.56-.17L25.52,9l1.63-.13,1.11-.09,2.66.13,2.35.34Z"/><path id="path4334" class="cls-3" d="M33.27,9.22l1,.26v.13l-.3.13-.26.43-.08.25.21.43.9.86.69.34.9.17.6-.17h0l.13.34.64.9.77.47.56.17.73,0,.3-.21.6-.82,1.19,1,1.37,1.33,1.33,1.63,1.12,1.75.9,1.72.59,1.33.26.72.56,2.27.13.77.21,1.93,0,2.14-.17,1.37-.35,1.8-.47,1.67-1,2.4-.26.51h0l-.52-.55-.38-.17-.69.21-1,.77-.73.77-.73,1-.3.55-.09.39.09.39.94,1,0,.17-.81.77h-.18l-.77-1-.34-.17-1,.12-1,.39-1.2.81-.77.73L36.1,44l-.17.56.13.51.38.65.17.21v.13l-.51.3-1.46.51-2.52.6-2.19.3-1.54.13-1.71,0L25,47.64l-1.76-.34-.17,0-1.8-.56-.77-.39.08-.47L21,45.2l-.17-.51-.81-1-.94-.77-1.29-.73-1.24-.34L16.1,42l-.69.85-.13.09L15,42.8l-.26-.26.26-.25.25-.26.09-.3-.17-.38.08-.35-.12-.6-.56-1.07L14,38.39l-1.16-1.2-.51-.34-.35,0-.51.21-.56.38h-.13L10,36l-.77-2.27L8.65,31l-.22-2.36.09-2.31.34-2.14.56-2.05v-.05l.85-2L11.43,18l1.33-1.79,1.88-2,1.24-1,.3-.21h.13l.64.81.39.17.77,0,.9-.34,1-.73.3-.6.55.22.6-.13,1-.39.73-.51.3-.43,0-.34-.3-1.2.56-.17L25.52,9l1.63-.13,1.11-.09,2.66.13,2.35.34Z"/><path id="path4338" class="cls-4" d="M32.54,5.15l.26.09,1.54.3,1.07.34,1.07.39.26.3.13.26-.21.46-.09,0,0,.3-.22.13-.08.34h0l0,.21L36,8.5l0,.17-.13.17v0l-.13.22v.12l-.08,0h-.05v.34l0,0-.77-.43-1.63-.38-1.07-.21-1.79-.18-2.45-.08-1.5.08-2.14.34-1.92.56-.48.26-.13-.17-.34-1.59L21.15,6.7l-.08-.39.13-.26.72-.34,2.74-.6,2.62-.3,1,0,2.45.13,1.79.25Z"/><path id="path4342" class="cls-3" d="M32.54,5.15l.26.09,1.54.3,1.07.34,1.07.39.26.3.13.26-.21.46-.09,0,0,.3-.22.13-.08.34h0l0,.21L36,8.5l0,.17-.13.17v0l-.13.22v.12l-.08,0h-.05v.34l0,0-.77-.43-1.63-.38-1.07-.21-1.79-.18-2.45-.08-1.5.08-2.14.34-1.92.56-.48.26-.13-.17-.34-1.59L21.15,6.7l-.08-.39.13-.26.72-.34,2.74-.6,2.62-.3,1,0,2.45.13,1.79.25Z"/><path id="path4346" class="cls-1" d="M29.89,5.71l-.09.35-.13,0-.47-.3h-.6l-.12.08-.05.35v.08l.17.09L29,6.35l0-.08.13,0,.09.56L29.12,7,28.9,7l0,0-.21-.08h-.13l-.09.08.05.51.17.18v.12l-.39.13-.43,0-.08,0V7.68L28,7.51l-.08-1.84-.13-.13V5.41l.13,0,1.79,0,.22.3Z"/><path id="path4350" class="cls-1" d="M26.81,5.63l-.13.13.17,1.53,0,.26.21.13v.17l-.77.09-.17,0,.05-.22.12-.13-.17-1.37-.08-.42L26,5.67l0,0V5.54l.17-.13h.73v.22Z"/><path id="path4354" class="cls-1" d="M31.17,5.63l0,.13L31,5.88l-.09.35-.12,1.19.21.13h.77l.21-.13h.18v.22L31.86,8l-.94-.08-.64-.09H30V7.68l.31-.3.12-1.62-.08-.13V5.54l.13-.13.6.09.12.13Z"/><path id="path4358" class="cls-1" d="M25.09,5.93l.22.25.08.39L25.31,7l-.13.22L25,7.34l0,.17.38.21h.3l.05.13v.09l-.13.13-.51,0-.95-.51-.21,0-.09,0,0,.13,0,.17.09.09.21,0,0,.13v.08l-.86.18h-.09l0-.09V8.32l.13-.21L23,6.44l-.21-.3L22.86,6l1.25-.25.64,0,.34.13Z"/><path id="path4362" class="cls-1" d="M34.81,6.27l.09.13-.17.38-.09,0h-.08l-.26-.31-.81-.21-.09.21v.26l.34.17.3-.08.09.08L34,7.51l-.08,0-.43-.26h-.22l-.13.26,0,.26.56.17.77.09.08,0-.25.39H34l-1.59-.39V7.94l.13-.09.13-.17L33,6.05,32.89,6,33,5.8l.6.08,1.24.39Z"/><path id="path4366" class="cls-4" d="M24,6.27l-.35.13.09.64.13.17.56-.13.38-.17V6.53l-.21-.22-.35,0Z"/><path id="path4370" class="cls-3" d="M24.79,6.52v.39l-.38.17-.56.13L23.72,7l-.09-.64L24,6.27h.25l.35,0Z"/><path id="path4374" class="cls-1" d="M36.53,6.83l.17.08V6.83l-.09-.18-.25-.08.17.26Z"/><path id="path4378" class="cls-1" d="M36.18,6.91l.22.26h.17V7.08L36.48,7l-.25-.12,0,.08Z"/><path id="path4382" class="cls-4" d="M18.75,7.21h.13l.09.13-.09.21.22,0,0,.12L19.05,8l.18,0,.08.18-.13.17.22.08,0,.09-.17.21.21.05.09,0,0,.17-.13.21.17,0,.09.12v.09l-.13,0,0,.09.3.08v.18l-.13.17.26.08,0,.05v.12l-.56.13-.6.39-.17-.26L18.2,9.22,17.64,7.9l-.17-.35.09-.25.55-.3.09,0h.51Z"/><path id="path4386" class="cls-3" d="M18.75,7.21h.13l.09.13-.09.21.22,0,0,.12L19.05,8l.18,0,.08.18-.13.17.22.08,0,.09-.17.21.21.05.09,0,0,.17-.13.21.17,0,.09.12v.09l-.13,0,0,.09.3.08v.18l-.13.17.26.08,0,.05v.12l-.56.13-.6.39-.17-.26L18.2,9.22,17.64,7.9l-.17-.35.09-.25.55-.3.09,0h.51Z"/><path id="path4390" class="cls-1" d="M36,7.3l.17.3h.09l.09,0V7.47l-.09,0L36,7.21l0,.09Z"/><path id="path4394" class="cls-4" d="M40.17,7.68l.17.3-.13.34-.13.09-.13.3-.17,0L39.69,9l-.08,0-.08.22-.18.08,0,.26-.43.56-.21.21v.13l-.17.13v.12l-.09.05-.64-.39-.39-.17h-.12v-.13l1-1.54L39,7.42l.21-.12.43,0,.56.34Z"/><path id="path4398" class="cls-3" d="M40.17,7.68l.17.3-.13.34-.13.09-.13.3-.17,0L39.69,9l-.08,0-.08.22-.18.08,0,.26-.43.56-.21.21v.13l-.17.13v.12l-.09.05-.64-.39-.39-.17h-.12v-.13l1-1.54L39,7.42l.21-.12.43,0,.56.34Z"/><path id="path4402" class="cls-1" d="M35.8,7.68l.26.26h.08v0l-.21-.22Z"/><path id="path4406" class="cls-4" d="M21.24,9.31l.08.43.17.38-.72.26-.13-.09-.3-.51-.22-.56V9.14L20.81,9l.13-.13v0h-.13l-.69.26-.34-.86.13-.13.39,0,.47-.22h.13l.34,1.46Z"/><path id="path4410" class="cls-3" d="M21.24,9.31l.08.43.17.38-.72.26-.13-.09-.3-.51-.22-.56V9.14L20.81,9l.13-.13v0h-.13l-.69.26-.34-.86.13-.13.39,0,.47-.22h.13l.34,1.46Z"/><path id="path4414" class="cls-4" d="M37.73,8.5l0,.08L37,9.78l-.56.77.05.34.3.39v.38l-.26.13-.47.05-.77-.26-.64-.34L34,10.55v-.13l.39-.13h1l.3-.21.95-1.84L36.83,8l.64.39.26.13Z"/><path id="path4418" class="cls-3" d="M37.73,8.5l0,.08L37,9.78l-.56.77.05.34.3.39v.38l-.26.13-.47.05-.77-.26-.64-.34L34,10.55v-.13l.39-.13h1l.3-.21.95-1.84L36.83,8l.64.39.26.13Z"/><path id="path4422" class="cls-1" d="M35.8,8.24l.17.08V8.24l-.3-.17Z"/><path id="path4426" class="cls-1" d="M20.68,8.11l-.43.13-.13.13h.18l.38-.13,0-.13Z"/><path id="path4430" class="cls-1" d="M37,8.37l.17.21.47,0L37,8.24v.13Z"/><path id="path4432" class="cls-1" d="M35.54,8.37h0v0h0Z"/><path id="path4436" class="cls-1" d="M35.58,8.45l.13.09,0,0V8.45Z"/><path id="path4440" class="cls-1" d="M20.72,8.5l-.38.08-.22.13h.09l.47-.09.13-.12Z"/><path id="path4444" class="cls-1" d="M36.78,8.75l.35.22h.21l-.6-.35,0,.13Z"/><path id="path4448" class="cls-1" d="M35.67,8.88v0l-.13-.13-.13,0,.26.21Z"/><path id="path4452" class="cls-1" d="M36.61,9.1l.22.08.3,0-.56-.3Z"/><path id="path4456" class="cls-1" d="M35.54,9.22l0-.08L35.29,9l.25.21Z"/><path id="path4460" class="cls-4" d="M14.86,9.14l-1,.6-1.93,1.63-2,2.09L8.73,14.88l-.94,1.37,0,.17.08,0v.09l0,.13-.26-.05-.34.56L6.29,19l-.43,1-.68,2-.6,2.36-.26,2.14v3.13l.3,2.7.47,2.18L6,37.28l.56,1.24.69,1.28.47.65h.13L8,40.32h.22l0-.13.21-.09,0-.13h.18l.25-.25.17,0,.17-.14,0-.08.26,0,.08-.26.22.05.12-.09L10,39h.08l.13.08.17-.21h.17l.39-.13v-.08l-.26-.31-.85-1.36-.56-1.38-.56-1.62-.6-2.7-.25-2.1L8,26.48l.47-2.69.81-2.62.9-1.84,1.29-2.14,1.37-1.71.81-.9,1.67-1.5,1.42-1,.42-.09v-.12L17,11.58l-.77-1.37-.12,0v-.05l0-.08L16,9.78l-.51-.6L15,9.1l-.12,0Z"/><path id="path4464" class="cls-3" d="M16,9.78l.13.26,0,.08v.05l.13,0L17,11.58l.18.26V12l-.43.08-1.42,1-1.67,1.5-.81.9-1.37,1.71-1.29,2.14-.89,1.84-.82,2.62L8,26.48l-.09,2.66.26,2.1.6,2.7.56,1.62.56,1.38.85,1.36.26.31v.08l-.39.13H10.4l-.17.21L10.1,39H10l0,.17-.12.08-.22,0-.08.26-.26,0,0,.08-.18.13-.17,0L8.65,40H8.47l0,.13-.21.09,0,.13H8l-.09.13H7.75l-.47-.65-.69-1.28L6,37.28l-.94-2.83-.47-2.18-.3-2.7V26.44l.26-2.14.6-2.36.68-2,.43-1,.9-1.8.34-.56.26.05,0-.13v-.09l-.08,0,0-.17.94-1.37,1.16-1.42,2-2.09,1.93-1.63,1-.6.12,0,.48.08.51.6Z"/><path id="path4468" class="cls-1" d="M20.55,9.35l-.08.09h.17L21,9.35l.09-.13Z"/><path id="path4472" class="cls-4" d="M18.2,10.38l.17.56,0,.08.17.17-.05.22.13.12v.13l-.47.31,0,0v0l.3-.13.26-.21.38.13.77.08.13.13,0,.34-.22.3-.43.39-.77.38-.68.18-.39-.05-.17-.21.13-.17L17.6,13l.21-.25.09-.39L17.77,12l-.47-.65-.17-.25,0-.09.26,0,.51-.39.08-.13-.89.47H17l-.56-1V9.78l.95-.34.25-.17.13.12.39,1Z"/><path id="path4476" class="cls-3" d="M18.2,10.38l.17.56,0,.08.17.17-.05.22.13.12v.13l-.47.31,0,0v0l.3-.13.26-.21.38.13.77.08.13.13,0,.34-.22.3-.43.39-.77.38-.68.18-.39-.05-.17-.21.13-.17L17.6,13l.21-.25.09-.39L17.77,12l-.47-.65-.17-.25,0-.09.26,0,.51-.39.08-.13-.89.47H17l-.56-1V9.78l.95-.34.25-.17.13.12.39,1Z"/><path id="path4478" class="cls-1" d="M35.29,9.27h0v0h0Z"/><path id="path4482" class="cls-1" d="M36.66,9.52l.3.05-.26-.18-.26-.12Z"/><path id="path4486" class="cls-4" d="M43,9.65l1.2.86,1.88,1.71,1.37,1.54,1.67,2.32L50,17.49l.47,1.11.26.64.38.9L51.69,22l.51,2.35.22,3.3-.17,2.66-.18,1.41-.51,2.44L51,36l-1,2.44-.25.47-.9,1.8-.43.26h-.21l-1-.9L45.82,38.9l-.3-.12,0-.05.3-.26.3-.29.64-1,.77-1.67.82-2.57.13-.65.38-2.35.08-.73-.08-1.33,0-1.49-.26-1.85-.39-1.67-.42-1.28-1.07-2.4-1.07-1.8-1.63-2.18-.69-.69-2-1.8-1.07-.77,0-.13,1.29-1.58L42,9.44l.17-.13.26,0,.6.3Z"/><path id="path4490" class="cls-3" d="M43,9.65l1.2.86,1.88,1.71,1.37,1.54,1.67,2.32L50,17.49l.47,1.11.26.64.38.9L51.69,22l.51,2.35.22,3.3-.17,2.66-.18,1.41-.51,2.44L51,36l-1,2.44-.25.47-.9,1.8-.43.26h-.21l-1-.9L45.82,38.9l-.3-.12,0-.05.3-.26.3-.29.64-1,.77-1.67.82-2.57.13-.65.38-2.35.08-.73-.08-1.33,0-1.49-.26-1.85-.39-1.67-.42-1.28-1.07-2.4-1.07-1.8-1.63-2.18-.69-.69-2-1.8-1.07-.77,0-.13,1.29-1.58L42,9.44l.17-.13.26,0,.6.3Z"/><path id="path4494" class="cls-1" d="M14.94,9.48h.47l-.38,0Z"/><path id="path4498" class="cls-1" d="M17.56,9.52l-.13.09-.65.34.43,0,.35-.26,0-.13Z"/><path id="path4502" class="cls-1" d="M20.94,9.52l-.47.17h.21L21,9.52Z"/><path id="path4506" class="cls-4" d="M23,9.61H23l-.05,0Z"/><path id="path4510" class="cls-3" d="M23,9.61H23v0Z"/><path id="path4514" class="cls-1" d="M15,9.65l.56,0v0l-.51,0Z"/><path id="path4518" class="cls-1" d="M36.53,9.78h.25l-.47-.17Z"/><path id="path4520" class="cls-1" d="M14.34,9.69h0v0h0Z"/><path id="path4524" class="cls-4" d="M22.31,9.74v.08h0l.73,0h0l-.05,0Z"/><path id="path4528" class="cls-3" d="M23,9.78h0l-.73,0h0V9.74H23l.05,0Z"/><path id="path4532" class="cls-1" d="M36.1,9.87l.17.12.34.09v0l-.55-.26Z"/><path id="path4536" class="cls-4" d="M40.51,10.25l0,.17.18-.08,0,0,0,.09,0,0L40,10l-.09-.08h-.13v.17l.3.34.47.18v.12l-.85,1-.3.34,0,.47.43.78v.08l-.3.13-.6,0L38,13l-.51-.6-.09-.26.09-.25.13-.13.55,0,.35-.17.6-.94.64-.86h.13l.64.47Z"/><path id="path4540" class="cls-3" d="M40.51,10.25l0,.17.18-.08,0,0,0,.09,0,0L40,10l-.09-.08h-.13v.17l.3.34.47.18v.12l-.85,1-.3.34,0,.47.43.78v.08l-.3.13-.6,0L38,13l-.51-.6-.09-.26.09-.25.13-.13.55,0,.35-.17.6-.94.64-.86h.13l.64.47Z"/><path id="path4544" class="cls-1" d="M17,10.12l-.13.13h0l.47-.17.31-.3Z"/><path id="path4548" class="cls-4" d="M34.09,9.91V10l1.11,0V9.91l-1-.13Z"/><path id="path4552" class="cls-3" d="M35.2,10l-1.11,0V9.91l.12-.13,1,.13V10Z"/><path id="path4556" class="cls-1" d="M15.24,9.87l-.08,0,.59,0-.12-.08Z"/><path id="path4560" class="cls-1" d="M21.15,9.87l-.51.12-.05.09h.09l.39-.09.12-.12Z"/><path id="path4564" class="cls-4" d="M22.09,10,22,10l1.11.08.09-.08-.05,0-.9-.08-.17,0Z"/><path id="path4568" class="cls-3" d="M23.21,10l-.09.08L22,10l.08-.09.18,0,.89.08.05,0Z"/><path id="path4572" class="cls-1" d="M14.51,10l-.25.22.38-.22Z"/><path id="path4576" class="cls-1" d="M17,10.55l0,0v0l.56-.26.25-.26Z"/><path id="path4580" class="cls-1" d="M15.46,10.21l.47.08,0,0,0-.08-.35-.05Z"/><path id="path4584" class="cls-1" d="M36.1,10.29l.34.09,0-.09L36,10.17Z"/><path id="path4588" class="cls-4" d="M22.74,10.38l.34.09.09.08-.05.34-.51.47-.77.43-.9.22-.3-.09-.17-.26.25-.59v-.52l.22-.13.51-.13,0,0,.6.17Z"/><path id="path4592" class="cls-3" d="M22.74,10.38l.34.09.09.08-.05.34-.51.47-.77.43-.9.22-.3-.09-.17-.26.25-.59v-.52l.22-.13.51-.13,0,0,.6.17Z"/><path id="path4596" class="cls-1" d="M14.73,10.29l-.13.09-.13.13v0l.43-.26Z"/><path id="path4600" class="cls-1" d="M39.53,10.42l.12.22.3.12.35.05-.39-.26-.38-.21Z"/><path id="path4604" class="cls-1" d="M35.84,10.55l.38.1-.55-.27Zm.43.13h0l-.1,0,.05,0Z"/><path id="path4608" class="cls-1" d="M35.41,10.6l.39.21.51.13-1-.47.13.13Z"/><path id="path4612" class="cls-1" d="M21.28,10.55l-.21.13h.08l.3,0,.13-.13Z"/><path id="path4616" class="cls-1" d="M16.14,10.68V10.6l-.56-.09Z"/><path id="path4620" class="cls-1" d="M22.09,10.55l-.94.43h.13l.52-.17.38-.26Z"/><path id="path4624" class="cls-1" d="M35.24,10.81l.77.34.39,0-.9-.38-.56-.21.3.21Z"/><path id="path4628" class="cls-1" d="M15,10.64l-.17,0-.26.21v0h.09l.42-.3Z"/><path id="path4632" class="cls-1" d="M22.44,10.64l-.48.3-.89.34h.38l.47-.21.56-.43Z"/><path id="path4636" class="cls-1" d="M34.64,10.89l.69.39.9.25.21,0-.26,0-1.67-.81.13.25Z"/><path id="path4640" class="cls-4" d="M37.13,10.81l.13.08.08,0,0,0-.09-.08L37,10.64Z"/><path id="path4644" class="cls-3" d="M37.38,10.81l0,0-.08,0-.13-.08L37,10.64l.26.08.08.09Z"/><path id="path4648" class="cls-4" d="M19.78,10.76l.09.13h0v-.13l0,0Z"/><path id="path4652" class="cls-3" d="M19.91,10.77v.12h0l-.09-.12.09,0Z"/><path id="path4656" class="cls-4" d="M20,11.07l0,.12.08,0,.05-.17-.05-.26-.12.35Z"/><path id="path4660" class="cls-3" d="M20.12,11.15l-.08,0,0-.12.12-.35.05.26Z"/><path id="path4664" class="cls-1" d="M17.43,11.24h0l.43-.17.21-.3-.68.47Z"/><path id="path4668" class="cls-1" d="M21.79,11.32l-.94.26v0l.09,0,.38,0,.65-.21.72-.47.09-.18-1,.56Z"/><path id="path4672" class="cls-1" d="M39.4,10.94l.43.21.21,0v0l-.64-.34v.13Z"/><path id="path4676" class="cls-4" d="M37.08,11.07h.09V11l-.09-.08-.21-.09Z"/><path id="path4680" class="cls-3" d="M37.17,11v.05h-.09l-.21-.22.21.09Z"/><path id="path4684" class="cls-1" d="M15.93,10.89l-.13,0h.51l0,0Z"/><path id="path4686" class="cls-4" d="M19.23,11.07h.12V11h-.12Z"/><path id="path4690" class="cls-3" d="M19.35,11.07h-.13V11h.13Z"/><path id="path4694" class="cls-1" d="M15.16,11l-.13.05-.26.17.09,0L15.2,11Z"/><path id="path4698" class="cls-1" d="M17.68,11.45h.09l.21,0,.34-.39-.64.43Z"/><path id="path4702" class="cls-1" d="M39.1,11.19l.34.22.26,0L39.05,11Z"/><path id="path4706" class="cls-4" d="M20.12,11.41h.05l.13-.13v-.13l-.18.26Z"/><path id="path4710" class="cls-3" d="M20.17,11.41h-.05l.18-.26v.13l-.13.13Z"/><path id="path4714" class="cls-1" d="M15.93,11.28h.6v0l0,0-.35,0-.21.13Z"/><path id="path4718" class="cls-4" d="M19.05,11.28l.22,0,.17,0h-.05l-.29-.08-.05.08Z"/><path id="path4722" class="cls-3" d="M19.44,11.28l-.17,0-.22,0,.05-.09.29.09Z"/><path id="path4726" class="cls-4" d="M37.86,11.41H38l.09,0v0H38l-.08,0,0,.13Z"/><path id="path4730" class="cls-3" d="M38.07,11.32v0l-.09.05h-.12l0-.13.08,0Z"/><path id="path4734" class="cls-1" d="M38.93,11.45l.08.09.17.08.35,0-.6-.34Z"/><path id="path4738" class="cls-1" d="M15.28,11.45h0l-.26.21h.09l.3-.21Z"/><path id="path4742" class="cls-1" d="M18.37,11.45l-.6.34h.08l.22,0,.38-.3Z"/><path id="path4746" class="cls-1" d="M16.18,11.53l.47.05v-.09l-.38,0Z"/><path id="path4750" class="cls-4" d="M19.23,11.45l.12.09.13-.09Z"/><path id="path4754" class="cls-3" d="M19.35,11.54l-.12-.09h.25Z"/><path id="path4758" class="cls-1" d="M45.18,12.18l-.34.34-.3.82-.39.94,0,.34-.08.09-.17-.05-.39-.38v-.17l.26-.26.09-.26L43.17,13l-.26,0-.13.13v.22l-.13,0-.43-.3L42,12.82l.13-.17.25,0,1.2-.51.86-.43,0-.17.22,0,.51.56Z"/><path id="path4762" class="cls-1" d="M38.75,11.84l.3.21h.26l-.6-.34Z"/><path id="path4766" class="cls-1" d="M16.44,11.84h0l.34-.05-.25,0Z"/><path id="path4770" class="cls-1" d="M15.46,11.84l-.22.17,0,0,.13-.13.17-.13-.12.05Z"/><path id="path4774" class="cls-1" d="M38.63,12.18l.25.17.39,0L38.5,12Z"/><path id="path4778" class="cls-1" d="M18.71,12.35l-.51.22.13,0,.47-.17.34-.26,0-.17-.47.34Z"/><path id="path4782" class="cls-1" d="M18.75,12.05l-.51.34.26,0,.3-.3Z"/><path id="path4784" class="cls-1" d="M15.75,12.14h.05v-.05h-.05Z"/><path id="path4788" class="cls-1" d="M18.72,12.68l.29-.16.47-.38-.76.54Zm0,0h0Zm-.76.25-.13.13h.09l.43-.17.37-.21Z"/><path id="path4792" class="cls-1" d="M38.41,12.39h0v0l-.26-.13v.09l.47.51L39,13l.43.09,0,0L39.18,13l-.51-.34h0l.47.08-.9-.55.13.25Z"/><path id="path4796" class="cls-1" d="M15.63,12.18l-.22.17h.05l.29-.17Z"/><path id="path4800" class="cls-4" d="M17.17,12.31l-.17.38-.3.22-.05.17h.09l.56-.6v-.17l-.09-.05,0,.05Z"/><path id="path4804" class="cls-3" d="M17.3,12.48l-.56.6h-.09l.05-.17.3-.22.17-.38,0-.05.09.05v.17Z"/><path id="path4808" class="cls-1" d="M19,12.82l.13-.08.55-.39-.68.47Z"/><path id="path4812" class="cls-1" d="M37.86,12.44l.47.55.72.35h.39l-.26-.05L38.5,13l-.69-.6Z"/><path id="path4816" class="cls-4" d="M17.43,12.57l-.61.51,0,.26h0l.05-.05.6-.68v-.22l0,.18Z"/><path id="path4820" class="cls-3" d="M16.87,13.29l0,.05h0l0-.26.6-.52,0-.17v.22Z"/><path id="path4824" class="cls-4" d="M44.24,12.44l-.22,0-.3.21v.05l.09.21.25,0,.09-.13.13-.42Z"/><path id="path4828" class="cls-3" d="M44.15,12.86l-.08.13-.26,0-.09-.21v-.05l.3-.21.22,0h0l-.13.42Z"/><path id="path4832" class="cls-4" d="M16.53,12.86h0l.25-.17.05-.21-.34.38Z"/><path id="path4836" class="cls-3" d="M16.57,12.86h0l.34-.38,0,.21Z"/><path id="path4840" class="cls-4" d="M40,12.61l.17.21v-.08L40,12.48v.13Z"/><path id="path4844" class="cls-3" d="M40.21,12.82,40,12.61v-.13l.17.25v.09Z"/><path id="path4848" class="cls-4" d="M40.34,12.69l0,.17h0V13l.09.09.09,0,0-.25-.13-.18v.13Z"/><path id="path4852" class="cls-3" d="M40.43,13l-.09,0L40.25,13v-.09h0l0-.17v-.13l.13.17,0,.26Z"/><path id="path4856" class="cls-1" d="M47.11,14.28l.17.51.13.13,0,.21-.38.26h-.17l-.09-.13,0-.55-.12-.26-.18-.13-.17,0-.08.13.17,1-.09.39-.34.25h-.51l-.39-.25-.3-.43,0-.39-.13-.25.09-.18.42-.17.18,0,0,.22-.17.43.17.38.21.17h.22l.12-.17-.08-.72,0-.43.08-.3.26-.22.17,0,.51.08.35.35Z"/><path id="path4860" class="cls-4" d="M48.18,14.32v0l0,0Z"/><path id="path4864" class="cls-3" d="M48.18,14.32l0-.08,0,0Z"/><path id="path4868" class="cls-1" d="M12.29,15l0,.12-.81,1-.56.82-.13-.13-.08-.17-1.41-.95-.3,0-.09-.09L9,15.39l.34-.47h.08l.22.39,1.2.77L11,16l.81-1.2,0-.39h.09l.39.61Z"/><path id="path4872" class="cls-1" d="M48.43,16.29l.35.39.08.43.17.08v0l0,.17-.43.22h-.17l-.08-.13.12-.17,0-.47-.26-.26-.21,0-.08.18L48,18l-.26.39-.34.13-.35,0-.42-.35-.26-.51,0-.51L46.16,17l.05-.17.6-.09.17.09L47,17l0,.17-.13.17,0,.34.17.26.22.08.21,0,0-.13-.17-1.15.13-.35.26-.21h.38l.3.17Z"/><path id="path4876" class="cls-1" d="M9.76,17.32l.47,0,.17-.09.17.05,0,.08-.47.69-.18,0,0-.09-.17-.09-.39.35L8.94,19l.13.17,0,.09.21-.05.13.09v.08l-.34.73-.13,0H8.9l-.08-.09-.05-.43-1-1.58-.3-.18.08-.29.3-.48.3.09,1.63.13Z"/><path id="path4880" class="cls-4" d="M8.22,17.83l.38.56h.09l.3-.56-.73,0,0,0Z"/><path id="path4884" class="cls-3" d="M8.69,18.39H8.6l-.38-.56,0,0,.73,0-.3.56Z"/><path id="path4888" class="cls-1" d="M49.72,19l.38.38.22.56,0,.47-.18.39-.47.38-.55.13-.64-.13-.39-.3-.3-.6,0-.64.26-.47.47-.3.38-.09h.39l.43.22Z"/><path id="path4892" class="cls-4" d="M49.59,19.55l.17.34v.43l-.17.26-.3.21-.6,0-.26-.17-.17-.43.09-.43.3-.3.17-.05.51.05Z"/><path id="path4896" class="cls-3" d="M49.59,19.55l.17.34v.43l-.17.26-.3.21-.6,0-.26-.17-.17-.43.09-.43.3-.3.17-.05.51.05Z"/><path id="path4900" class="cls-1" d="M6.8,19.67l.22.22,1.33.51.42.17.05.17-.09.18-.9.47L7,21.73v.13l.9.26L8.17,22l.13.13-.21.64,0,.08H7.88l-.13-.21L6,22.12l-.17.08-.13,0L5.65,22l.17-.38.43-.22.9-.34.64-.26V20.7l-.73-.3-.43-.13-.13.05H6.38l0-.13.17-.52.13-.12H6.8v.12Z"/><path id="path4904" class="cls-1" d="M50.83,22l.39.6,0,.42,0,.52-.47.13h-.18l0-.26L50.7,23l-.08-.47-.43-.34h-.56l-.25.26-.13.38.08.52.22.25v.26l-.09.09-.3-.13-.34-.47,0-.65.25-.64.39-.34.38-.09.69.09.34.26Z"/><path id="path4908" class="cls-1" d="M7.4,23.4l.3.56,0,.77-.26.6L7,25.71l-.52.17-.6,0-.55-.38-.26-.35L5,24.26l.17-.56.35-.43.64-.34.26-.05.6.18.42.34Z"/><path id="path4912" class="cls-4" d="M7.15,23.87l.08.39,0,.51-.34.47-.43.17H6.08l-.35-.3-.21-.38,0-.35.13-.47.17-.25.38-.18.21,0,.52.09.26.34Z"/><path id="path4916" class="cls-3" d="M7.15,23.87l.08.39,0,.51-.34.47-.43.17H6.08l-.35-.3-.21-.38,0-.35.13-.47.17-.25.38-.18.21,0,.52.09.26.34Z"/><path id="path4920" class="cls-1" d="M51.48,24.43l-.09.13-1.8.25-.26-.17-.13.09v.08l0,.47.17.18.17-.13.51-.09,1.29-.08.3,0,0,0-.08-.56,0-.17Z"/><path id="path4924" class="cls-1" d="M49.59,26.06l1.2.51.86.3.12,0h.09l0,.68v.17l-.13,0-.25,0-1.29.47-.51.26-.17.21h-.13l0-.77.12,0,.22,0,.13-.08.08-.13v-.9l-.21-.13-.3.13-.09-.09,0-.68,0-.13h.13l.13.22Z"/><path id="path4928" class="cls-1" d="M4.83,26.53l0,.72.09.09.25-.13,1.85,0,.3.13.08,0,0-.17v-.56H7.28l-.22.09-1.84-.05-.3-.17-.09.05Z"/><path id="path4932" class="cls-4" d="M50.45,27.51h0l.56-.17v-.09l-.6-.25Z"/><path id="path4936" class="cls-3" d="M51.05,27.34l-.56.17h0V27l.6.25Z"/><path id="path4940" class="cls-1" d="M5.39,28.24l-.08.13-.09.55,0,.13.13.09L7,29l.08-.17.09,0h.09l.12.34,0,.51,0,.05H7.15L7,29.57l-1.67.13,0,.21.17.56.13.17-.05.21-.25.09L5,30.89l-.12-.51-.13-2.27,0-.08L5.13,28l.3.05,0,.21Z"/><path id="path4944" class="cls-1" d="M51.86,28.75v.95l-.21,1.62-.39.05-.17-.05,0-.13.21-.47v-.47L51,30.17l-1.24-.09-.3.22h-.08L49.33,30l.05-.55h.25l.17.17,1.5.13.09-.56-.09-.39.05-.13.42.05.09.08Z"/><path id="path4948" class="cls-1" d="M7.49,30.6l.08.59,0,.09H7.28L7,31.45v.26l.13.86.17.08.34-.13.22.47,0,.35H7.7l-.25-.18L5.6,32.74l-.21,0H5.22l-.13-.17L5,32l.25-.13.22,0L7.1,30.68l.22-.3.08,0,.09.18Z"/><path id="path4952" class="cls-1" d="M51,31.92l.35.09.13-.09.12.13-.17.52-.08,0h-.09l-.17-.13-1.76-.34-.17.08-.13,0,0-.3,0-.3.08-.09.52.22Z"/><path id="path4956" class="cls-4" d="M6.16,32l-.3.21,0,.05.6.13.13,0v-.08l-.08-.39-.09,0-.3.17Z"/><path id="path4960" class="cls-3" d="M6.63,32.26v.09l-.13,0-.6-.14,0,0,.3-.21.3-.17.09,0,.08.38Z"/><path id="path4964" class="cls-1" d="M50.66,33.42l.3.52v.81l-.26.47-.47.34-.68,0-.47,0-.52-.43-.17-.3-.08-.55.25-.73.39-.38.51-.18.73.09Z"/><path id="path4968" class="cls-4" d="M50.32,33.81l.17.34,0,.52-.18.25-.34.21-.73-.08L49,34.83l-.17-.42,0-.43.26-.26.38-.21.52,0,.34.26Z"/><path id="path4972" class="cls-3" d="M50.32,33.81l.17.34,0,.52-.18.25-.34.21-.73-.08L49,34.83l-.17-.42,0-.43.26-.26.38-.21.52,0,.34.26Z"/><path id="path4976" class="cls-1" d="M8.05,33.89l-.17.43-.69,1.24,0,.09.95-.3.12-.26h.22l.21.52v.25L8.6,36l-.3-.09-1.5.47-.3.35H6.42l-.26-.35v-.25l.26-.22.68-1.28v-.09l-.3,0L6,34.79,5.9,35l-.08,0-.09-.09-.21-.6v0l.08-.09.35.09,1.45-.47.3-.09.26.05.09.12Z"/><path id="path4980" class="cls-1" d="M50,36.33l.21-.08.13.08,0,.26-.13.22-1.5.42-.13.05h0l0,0,0,.08.94.48.13-.09.09.09,0,0-.26.6h-.17l-.09-.22-1.28-.64-.56-.3v-.08l1.42-.6.21,0,0,0-.17-.21L48,36.12l-.08.08,0,0,0-.34.26-.43.21.3,1.63.64Z"/><path id="path4982" class="cls-1" d="M9.5,36.68h.05v0H9.5Z"/><path id="path4986" class="cls-4" d="M44.84,37.75l-.13.68v.13l.34.39.39.21L47,40.4v.17l-1,1.2-.26.52-.3-.17-.72-.9L44.54,41v-.17l.21-.21v0l0,0-.3.21-.09,0,.26-.34v0h0l-.3.21-.05,0,.09-.21,0-.05v-.08l-.13,0-.08,0H44l0-.08.17-.22,0,0-.18.08-.12.09L43.64,40l.25-.3v0h-.12l-.26.26h-.09l0-.17.22-.26v0l-.17.08-.34.43L43,40.1l-.09.09,0-.35-.22.39h-.13V40l.35-.6.17-.17-.13,0-.3.38-.26.52.13-.52,0-.25.3-.34v0h-.08l-.56.9-.09.35,0,0,0,0v-.22L42.78,39l.77-.94.9-.86.34-.13.17.09-.12.64Z"/><path id="path4990" class="cls-3" d="M44.84,37.75l-.13.68v.13l.34.39.39.21L47,40.4v.17l-1,1.2-.26.52-.3-.17-.72-.9L44.54,41v-.17l.21-.21v0l0,0-.3.21-.09,0,.26-.34v0h0l-.3.21-.05,0,.09-.21,0-.05v-.08l-.13,0-.08,0H44l0-.08.17-.22,0,0-.18.08-.12.09L43.64,40l.25-.3v0h-.12l-.26.26h-.09l0-.17.22-.26v0l-.17.08-.34.43L43,40.1l-.09.09,0-.35-.22.39h-.13V40l.35-.6.17-.17-.13,0-.3.38-.26.52.13-.52,0-.25.3-.34v0h-.08l-.56.9-.09.35,0,0,0,0v-.22L42.78,39l.77-.94.9-.86.34-.13.17.09-.12.64Z"/><path id="path4994" class="cls-4" d="M45.44,37.28l-.26.9h0l.13-.18.13-.72Z"/><path id="path4998" class="cls-3" d="M45.35,38l-.13.17h0l.26-.9h0Z"/><path id="path5002" class="cls-4" d="M13.57,38.56l.51.77.48.77.29.77V41h-.21l-.85-.56-.39.05-.6.59-.86.82-.77.6-.3-.3-.94-1.07L10,41l.17.09,0,0,0-.13-.9-.81.08-.13.26,0,.77.6v-.08l-.26-.39-.29-.3,0,0,.22,0,.77.43h0L10.49,40l-.35-.21,0,0,.17-.18.35.14.68.55v.09l.09,0L11.26,40l-.6-.55h0l.12-.13.65.43.25.25,0,0-.6-.72.21-.09.47.3.3.38h0L12,39.42,11.6,39l.17-.17L12,39l.47.51,0-.3-.48-.56.05-.21v0l.17,0,.64.69-.13-.34-.43-.56L11.9,38l-.08-.13v0H12l.73.56.56.6h0l-.13-.35-.73-.72L12,37.53H11.9l0-.08,0-.09.13-.08.68.43Z"/><path id="path5006" class="cls-3" d="M13.57,38.56l.51.77.48.77.29.77V41h-.21l-.85-.56-.39.05-.6.59-.86.82-.77.6-.3-.3-.94-1.07L10,41l.17.09,0,0,0-.13-.9-.81.08-.13.26,0,.77.6v-.08l-.26-.39-.29-.3,0,0,.22,0,.77.43h0L10.49,40l-.35-.21,0,0,.17-.18.35.14.68.55v.09l.09,0L11.26,40l-.6-.55h0l.12-.13.65.43.25.25,0,0-.6-.72.21-.09.47.3.3.38h0L12,39.42,11.6,39l.17-.17L12,39l.47.51,0-.3-.48-.56.05-.21v0l.17,0,.64.69-.13-.34-.43-.56L11.9,38l-.08-.13v0H12l.73.56.56.6h0l-.13-.35-.73-.72L12,37.53H11.9l0-.08,0-.09.13-.08.68.43Z"/><path id="path5010" class="cls-4" d="M11,37.66l-.09.17.22.35.3.13,0-.05-.13-.73,0,0-.3.17Z"/><path id="path5014" class="cls-3" d="M11.43,38.26l0,0-.3-.12-.22-.35.09-.17.3-.17,0,0,.13.73Z"/><path id="path5018" class="cls-4" d="M45.61,37.49l-.26.77h.09l.25-.64,0-.13Z"/><path id="path5022" class="cls-3" d="M45.69,37.62l-.26.64h-.08l.26-.77h0Z"/><path id="path5026" class="cls-1" d="M43.21,39.5l-.22.34.39-.46-.17.12Z"/><path id="path5028" class="cls-1" d="M13.1,39.59h0v-.05h0Z"/><path id="path5032" class="cls-1" d="M11.77,40.1,11.69,40Z"/><path id="path5036" class="cls-1" d="M12.59,40.15v0l-.05,0Z"/><path id="path5040" class="cls-4" d="M9.16,40.45l.43.3v0l0-.13-.39-.25Z"/><path id="path5044" class="cls-3" d="M9.59,40.7v0l-.43-.29v-.13l.38.25Z"/><path id="path5046" class="cls-1" d="M10.83,40.36h0v0h0Z"/><path id="path5048" class="cls-1" d="M12.07,40.45h0V40.4h0Z"/><path id="path5052" class="cls-4" d="M43.21,40.53l-.51.21-.13.14,0,.08.43.3.21-.17.13-.43,0-.13Z"/><path id="path5056" class="cls-3" d="M43.38,40.66l-.13.43-.21.17-.43-.3,0-.09.13-.13.51-.21h.13l0,.13Z"/><path id="path5060" class="cls-1" d="M11.56,40.66l.08.08v-.08Z"/><path id="path5064" class="cls-4" d="M44.54,41.77,45.69,43l.52.55v.52l-.35.64-.68.73-.86.64-.68.3h-.39l-1-1.29-.6-.77-.6-.55L41,43.7l.09-.13.94-.64,1-.9.64-.85.13-.35.21.26.52.68Z"/><path id="path5068" class="cls-3" d="M44.54,41.77,45.69,43l.52.55v.52l-.35.64-.68.73-.86.64-.68.3h-.39l-1-1.29-.6-.77-.6-.55L41,43.7l.09-.13.94-.64,1-.9.64-.85.13-.35.21.26.52.68Z"/><path id="path5072" class="cls-1" d="M11.17,40.87l.13.09,0-.09-.09,0Z"/><path id="path5076" class="cls-1" d="M44.84,40.83l-.05.13.13-.13Z"/><path id="path5080" class="cls-1" d="M45.09,41.13l.09-.09,0,0,0,.13Z"/><path id="path5084" class="cls-1" d="M10.74,41.09l.17.26v-.09l-.12-.17Z"/><path id="path5088" class="cls-4" d="M14.26,41.22h.08v0l-.21-.08Z"/><path id="path5092" class="cls-3" d="M14.34,41.22h-.08l-.13-.13.21.08Z"/><path id="path5096" class="cls-4" d="M13.74,41.22l.22,0v-.09l-.22-.08Z"/><path id="path5100" class="cls-3" d="M14,41.22v0l-.22,0v-.13l.22.08Z"/><path id="path5104" class="cls-1" d="M43.81,41.26l-.13.38.17-.12,0-.26Z"/><path id="path5108" class="cls-1" d="M45.31,41.26l-.09.09v.08l.05,0,.08-.13Z"/><path id="path5112" class="cls-4" d="M13.53,41.86l.73.81.77.65.21.13,0,0-.51-.13,0,0,.17.17.38.13h.09l.08-.13.31.09v.13l-1.55,1.63-.38.55-.77.3-.52-.08-.73-.47L11.13,45l-.34-.56-.17-.6.08-.43,1.37-1,1.12-1.07h.12l.22.56Z"/><path id="path5116" class="cls-3" d="M13.53,41.86l.73.81.77.65.21.13,0,0-.51-.13,0,0,.17.17.38.13h.09l.08-.13.31.09v.13l-1.55,1.63-.38.55-.77.3-.52-.08-.73-.47L11.13,45l-.34-.56-.17-.6.08-.43,1.37-1,1.12-1.07h.12l.22.56Z"/><path id="path5120" class="cls-1" d="M45.48,41.52l0,0,.09-.17Z"/><path id="path5124" class="cls-4" d="M13.87,41.47l.09.13h.12v-.08l0-.05-.13,0,0,0Z"/><path id="path5128" class="cls-3" d="M14.08,41.52v.08H14l-.09-.13,0,0,.13,0,0,.05Z"/><path id="path5132" class="cls-1" d="M43.89,41.86l.18-.17v-.13l-.18.3Z"/><path id="path5136" class="cls-1" d="M45.74,41.69h0l0-.09Z"/><path id="path5140" class="cls-4" d="M40.55,41.86l0,0-.81.22-1.12.55-.08.13.38-.17.95-.38.55-.13.13,0,0,.17-.69.17-.77.39-.08.08V43l.21-.05.9-.43h.26l0,.05-.39.34-.77.34,0,0v.08l.81-.3.09,0,0,.17-.47.25-.09.09.09,0,.6-.21.08.08v.13l-.47.21,0,.05.47-.13.17,0,.13,0,.08,0-.12.13-.52.22v.08l.22,0,.47-.17h.13l0,.08-.56.3v.05l.26-.05.47-.17,0,0-.25.18-.26.17,0,0v.08l.3-.12.25-.13h.22l0,0v.09l-.77.42v.09l.81-.39.22,0,0,.13-.73.34-.13.13v0l.26,0,.68-.3h.05l0,0-.17.17-1.07.69-.47.47h-.13l-.69-1.07v-.22h-.12l0-.13.08-.12-.21.08-.09-.13.13-.3-.17,0h-.09l0,0,.09-.17.08,0-.08-.09-.26.13h-.08v-.08l.29-.22v0h-.12l-.39.3-.47,0-.64.22-.39,0-.26-.12.05-.3.64-.73,1.29-1.07.6-.3,1-.35h.43l.08.09Z"/><path id="path5144" class="cls-3" d="M40.55,41.86l0,0-.81.22-1.12.55-.08.13.38-.17.95-.38.55-.13.13,0,0,.17-.69.17-.77.39-.08.08V43l.21-.05.9-.43h.26l0,.05-.39.34-.77.34,0,0v.08l.81-.3.09,0,0,.17-.47.25-.09.09.09,0,.6-.21.08.08v.13l-.47.21,0,.05.47-.13.17,0,.13,0,.08,0-.12.13-.52.22v.08l.22,0,.47-.17h.13l0,.08-.56.3v.05l.26-.05.47-.17,0,0-.25.18-.26.17,0,0v.08l.3-.12.25-.13h.22l0,0v.09l-.77.42v.09l.81-.39.22,0,0,.13-.73.34-.13.13v0l.26,0,.68-.3h.05l0,0-.17.17-1.07.69-.47.47h-.13l-.69-1.07v-.22h-.12l0-.13.08-.12-.21.08-.09-.13.13-.3-.17,0h-.09l0,0,.09-.17.08,0-.08-.09-.26.13h-.08v-.08l.29-.22v0h-.12l-.39.3-.47,0-.64.22-.39,0-.26-.12.05-.3.64-.73,1.29-1.07.6-.3,1-.35h.43l.08.09Z"/><path id="path5148" class="cls-1" d="M44.28,41.9l-.09.22.13-.09V41.9Z"/><path id="path5152" class="cls-1" d="M44.45,42.42l.13-.09V42.2Z"/><path id="path5156" class="cls-4" d="M18.07,42.72l1.07.68.73.64.51.69.09.21V45h-.35l-.64-.35-.34,0-.3.13-.47.64L18,46.1l-.77,1.2-.81-.64L15,45.93l-.39-.17v-.13h.3l.43.25h.09v-.12l-.56-.39v0l.13,0,.72.22h.05l-.17-.17-.39-.26V45l.09-.05.55.17H16l-.21-.17-.26-.13,0-.17.13-.08.65.17h0l-.26-.26-.21-.08,0-.18.09-.08.59.17v-.13L16.31,44v-.05l.22-.12L17,44h0L17,43.83l-.25-.17v0l0-.09.13-.08.43.17v0L17,43.32l-.13,0-.09-.12v-.09h.26l.35.21h0l0-.17L17,42.84v0l.43.13.3.17h0l0-.13-.64-.34-.48-.21-.08-.05.08-.08.35,0,1.07.39Z"/><path id="path5160" class="cls-3" d="M18.07,42.72l1.07.68.73.64.51.69.09.21V45h-.35l-.64-.35-.34,0-.3.13-.47.64L18,46.1l-.77,1.2-.81-.64L15,45.93l-.39-.17v-.13h.3l.43.25h.09v-.12l-.56-.39v0l.13,0,.72.22h.05l-.17-.17-.39-.26V45l.09-.05.55.17H16l-.21-.17-.26-.13,0-.17.13-.08.65.17h0l-.26-.26-.21-.08,0-.18.09-.08.59.17v-.13L16.31,44v-.05l.22-.12L17,44h0L17,43.83l-.25-.17v0l0-.09.13-.08.43.17v0L17,43.32l-.13,0-.09-.12v-.09h.26l.35.21h0l0-.17L17,42.84v0l.43.13.3.17h0l0-.13-.64-.34-.48-.21-.08-.05.08-.08.35,0,1.07.39Z"/><path id="path5164" class="cls-4" d="M40.9,42.5l0,0-.3.48v.13h.05l.08-.09.17-.26.09-.3Z"/><path id="path5168" class="cls-3" d="M40.85,42.8l-.17.26-.09.09h0V43l.3-.48,0,0h0l-.09.3Z"/><path id="path5172" class="cls-1" d="M44.75,42.67h0l.05,0v0l-.05-.05Z"/><path id="path5176" class="cls-4" d="M15.75,43.15l.05,0,.08,0,.35,0,.17-.08v-.13l-.26-.39-.39.48Z"/><path id="path5180" class="cls-3" d="M16.4,43.19l-.17.08-.35,0-.08,0-.05,0,.39-.48.26.39v.13Z"/><path id="path5184" class="cls-4" d="M41.11,42.76l-.26.38h0l.17-.08.13-.3Z"/><path id="path5188" class="cls-3" d="M41.07,43.06l-.17.09h0l.26-.39h.09l-.13.3Z"/><path id="path5192" class="cls-1" d="M45.05,43l.13-.09v0l0,0-.09.18Z"/><path id="path5196" class="cls-1" d="M37.3,43.49v.08l.68-.51Z"/><path id="path5200" class="cls-1" d="M45.44,43.32l0,0v-.08Z"/><path id="path5202" class="cls-1" d="M38.07,43.32h0v0h0Z"/><path id="path5206" class="cls-1" d="M37.94,43.36l-.43.42.47-.42Z"/><path id="path5208" class="cls-1" d="M14.08,43.4h.05v0h-.05Z"/><path id="path5212" class="cls-1" d="M45.69,43.4l-.12.26.12-.09.05-.17Z"/><path id="path5216" class="cls-1" d="M38.07,43.57l-.39.39.65-.51Z"/><path id="path5220" class="cls-1" d="M38,44l0,.17.56-.43v-.08L38,44Z"/><path id="path5224" class="cls-1" d="M45.74,44l.21-.21v-.17Z"/><path id="path5228" class="cls-1" d="M14.69,43.91h.42l-.64-.21Z"/><path id="path5236" class="cls-1" d="M19.05,43.83l0,0,.26.17v0l-.13-.17Z"/><path id="path5244" class="cls-1" d="M38.11,44.3l0,0,.29-.34Z"/><path id="path5248" class="cls-1" d="M14.13,44.13l.3.17h.34v-.09h0l-.6-.17Z"/><path id="path5252" class="cls-1" d="M13.61,44.17l.05,0-.13,0,.08.08Z"/><path id="path5256" class="cls-1" d="M18.8,44.21l.17.09,0-.13-.17,0,.05.08Z"/><path id="path5258" class="cls-1" d="M17.3,44.3h0v0h0Z"/><path id="path5262" class="cls-1" d="M13.79,44.39l.08.08.26.13.25,0v0l-.17,0-.38-.22,0,0Z"/><path id="path5266" class="cls-1" d="M18.8,44.56l-.09-.13-.13-.09Z"/><path id="path5270" class="cls-1" d="M13.27,44.56h.09l-.09-.09Z"/><path id="path5274" class="cls-1" d="M18.37,44.6l.17.09-.09-.13-.08,0Z"/><path id="path5278" class="cls-1" d="M13.7,44.94,14,45l.17-.09-.64-.21.17.21Z"/><path id="path5282" class="cls-1" d="M16.87,44.73l.08.08v-.08Z"/><path id="path5286" class="cls-1" d="M18.15,44.82l.17,0-.08,0-.09,0v0Z"/><path id="path5290" class="cls-1" d="M12.88,44.82l.09,0,0,0Z"/><path id="path5294" class="cls-4" d="M37.77,44.9l-.6.17-.56,0,0,0v.09l.51.68.78-.38v-.13h0l0,0H37.6l0,0,.34-.17.13-.13L38,45l-.38.17h-.22l.48-.26Z"/><path id="path5298" class="cls-3" d="M37.38,45.16h.22L38,45l.13,0-.13.13-.34.17,0,0h.17l0,0h0v.13l-.78.38-.51-.68v-.09l0,0,.56,0,.6-.17h.09l-.48.26Z"/><path id="path5302" class="cls-1" d="M12.67,45.11v0l-.13,0Z"/><path id="path5306" class="cls-1" d="M17.94,45.11l.17,0L17.9,45Z"/><path id="path5310" class="cls-4" d="M19.18,45.11l.52.35h.38l-.85-.39-.05,0Z"/><path id="path5314" class="cls-3" d="M20.12,45.46H19.7l-.52-.35.05,0,.85.39Z"/><path id="path5318" class="cls-1" d="M13.36,45.24l.34.13h.13v-.09H13.7l-.43-.17Z"/><path id="path5322" class="cls-1" d="M16.61,45.29v0l-.13,0Z"/><path id="path5326" class="cls-1" d="M17.68,45.33l.05,0,.25.13-.13-.17Z"/><path id="path5330" class="cls-1" d="M12.29,45.33l.12.13v-.05l-.08-.08Z"/><path id="path5334" class="cls-4" d="M39.31,46.53l.86,1.37.08.3-.08.47-.47.38-2.36,1.16-1.93.64-3,.77L30,51.88l-1.41,0-2.92-.17-2.48-.38-2.79-.73-1.11-.43-1.2-.6-.64-.51-.3-.39V48.2L18,47l.56-1,0-.08.3.08,1.63.86,1.29.52,1.88.55,3,.47h1.93l2.1-.12,2.44-.52,2-.6L37.86,46l.51-.38.17-.26.09,0,.68,1.12Z"/><path id="path5338" class="cls-3" d="M39.31,46.53l.86,1.37.08.3-.08.47-.47.38-2.36,1.16-1.93.64-3,.77L30,51.88l-1.41,0-2.92-.17-2.48-.38-2.79-.73-1.11-.43-1.2-.6-.64-.51-.3-.39V48.2L18,47l.56-1,0-.08.3.08,1.63.86,1.29.52,1.88.55,3,.47h1.93l2.1-.12,2.44-.52,2-.6L37.86,46l.51-.38.17-.26.09,0,.68,1.12Z"/><path id="path5342" class="cls-4" d="M19.35,45.59l.43.25H20v-.12l-.17,0-.56-.26Z"/><path id="path5346" class="cls-3" d="M20,45.72v.12h-.26l-.43-.25,0-.18.56.26.17,0Z"/><path id="path5350" class="cls-1" d="M13,45.59l.47.17.09,0,0,0-.65-.21.13.13Z"/><path id="path5354" class="cls-1" d="M16.18,45.63h.09l-.09,0Z"/><path id="path5358" class="cls-1" d="M17.47,45.63l.17.09h0l-.08-.09Z"/><path id="path5362" class="cls-1" d="M12.93,45.93l.3,0v-.09l-.26,0-.38-.17.34.26Z"/><path id="path5366" class="cls-1" d="M17.47,46.1v0l0-.09-.13-.09Z"/><path id="path5370" class="cls-1" d="M15.88,46.06h0V46l-.09,0Z"/><path id="path5374" class="cls-1" d="M17,46.23l.26.13-.05-.09L17,46.14Z"/><path id="path5376" class="cls-1" d="M39.91,46.14h0v0h0Z"/><path id="path5380" class="cls-1" d="M17.08,46.66v0l0,0L17,46.44l-.17,0,.3.26Z"/><path id="path5384" class="cls-1" d="M37.86,47l1.32,1.16.22,0v.17l-.52.3-.13-.09-.08-.17-.13,0-.6.26-.13.08,0,.13.09.21-.09.13-.39.18h-.17v-.18l0-.34,0-1.59L37.08,47l.18-.17.34-.17h.08Z"/><path id="path5388" class="cls-1" d="M20.64,47.56l.13.38-.22.77-.38.52-.39.21-.51,0-.3-.17L18.75,49l0-.56.26-.68.38-.39.3-.17.26,0,.43.13.3.3Z"/><path id="path5392" class="cls-1" d="M36.57,47.94v.13l-.13.09-.3-.13-.47.08-.21.3v.52l.25.3.18.13.29.08.26-.13.26-.26h.13l.08.18v.13l-.43.34-.47.17-.47-.13L35,49.18l-.09-.64.26-.64.51-.3.56-.09h.17l.13.43Z"/><path id="path5396" class="cls-4" d="M19.52,47.77l-.25.34-.09.65.09.21.17.08.26,0,.34-.34.17-.34,0-.52-.17-.12-.21,0-.35.13Z"/><path id="path5400" class="cls-3" d="M20.25,47.81l0,.52-.17.34-.35.34-.25,0L19.27,49l-.09-.21.09-.65.25-.34.35-.13.21,0,.17.12Z"/><path id="path5404" class="cls-4" d="M37.68,47.73l0,.51h0l.26-.08.13-.13L38,47.81l-.25-.17,0,.09Z"/><path id="path5408" class="cls-3" d="M38.15,48l-.12.13-.26.08h0l0-.51,0-.09.25.17.17.22Z"/><path id="path5412" class="cls-1" d="M23,48.54l0,.13-.09.09h-.12l-.26-.26-.56-.17-.13.08-.17.35v.08L22,49h.22l0,.17-.13.34-.08.05-.17-.05-.18-.17h-.17l-.25.56v.21H20.9L20.68,50,21.41,48v-.18l0,0L23,48.2v.34Z"/><path id="path5416" class="cls-1" d="M34.39,48.29l0,.42L34.77,50l.17.08,0,.08-.17.13-.51.13-.09,0,0-.38L34,48.88l-.09-.34-.17-.13V48.2l.47-.13h.26l0,.22Z"/><path id="path5420" class="cls-1" d="M33.36,48.93l0,.55-.17.3,0,.13.39.38h.26l.08.09-.08.13-.69.09L32.67,50l-.21,0-.09.09.09.43.13.13-.17.12-.48.09-.08,0,0,0v-.08l.12-.17L31.69,49l-.09-.13,0,0v-.09l.43-.13.6,0,.47.09.3.3Z"/><path id="path5424" class="cls-1" d="M31.09,49.18l-.13.09-.26-.09-.6,0-.08.08.08.39h.17l.52-.13.08.55-.08.09-.56-.09-.08.05,0,.3,0,.21.64,0,.39-.3.12,0v.3l-.12.3-.26.08-1.25.09h0v-.3l-.08-1.71L29.46,49v-.13l1.33-.13,0,0H31l.09.51Z"/><path id="path5428" class="cls-1" d="M25.61,48.8l-.05.25.39,1.8L26,51l0,0-.55,0L25.31,51l0-.25,0-.22-.3-.13h-.35l-.17.26v.21l-.21,0-.43,0-.09-.08v-.13l.39-.39.68-1.2.05-.34h0l.64,0,.05,0Z"/><path id="path5432" class="cls-1" d="M27.19,49.1l.47.94h.17l.52-.73.17-.26.17-.08.3,0L29,49l-.13.35V50.9l.13.25,0,.05-.56.08-.17,0v-.09l.13-.25v-.61l0-.08-.3.3-.39.51-.08,0-.43-.81,0-.05,0,.09-.13.56.09.3-.17.13-.52-.05V51l.13-.25.22-1.5L26.51,49l.08-.09.39,0,.21.17Z"/><path id="path5436" class="cls-4" d="M32.24,49.05v.18l.09.34.17,0,.3-.13.09-.21-.09-.22L32.37,49l-.13.08Z"/><path id="path5440" class="cls-3" d="M32.89,49.27l-.09.21-.3.13-.17,0-.09-.34v-.18l.13-.08.43.08.09.22Z"/><path id="path5444" class="cls-4" d="M25.05,49.48l-.17.22V50h.3l0-.13-.09-.35Z"/><path id="path5448" class="cls-3" d="M25.22,49.83l0,.13h-.3V49.7l.17-.22h.08l.09.35Z"/><g id="g5458"><path id="path5460" class="cls-4" d="M23.61,34.67s.65.29.82.15.29-.44.6-.71.29-.49.72-.66.93-.38,1.19-.47a7.81,7.81,0,0,0,1.4-.53c.29-.2,2-.58,2.36-.78s.8-.36,1.11-.53a10,10,0,0,1,1.48-.69c.38-.11,1.38-.56,1.38-.56s.47,1,.6,1.18a16.91,16.91,0,0,1,1,2.29,6.66,6.66,0,0,1,.27,1.11,11.5,11.5,0,0,1-.34,1.82,5.12,5.12,0,0,1-2.17,1c-.78.06-1.51.13-2.25.13a23.09,23.09,0,0,1-5.37-1.13,22.33,22.33,0,0,1-2.78-1.6"/></g><g id="g5462"><path id="path5464" class="cls-2" d="M25.13,34.27l1.94,1.52a.22.22,0,0,1,.15,0,.38.38,0,0,1,.15.08.73.73,0,0,1-.17-.23,1,1,0,0,1,0-.34.15.15,0,0,1,.19,0,.78.78,0,0,0,.23,0,.64.64,0,0,1,0-.26,1.38,1.38,0,0,1,0-.2l-.88-.69a.63.63,0,0,1-.27.09.92.92,0,0,1-.47,0c-.13-.07-.25-.17-.3-.2s-.15-.1-.23,0a.71.71,0,0,0-.22.15l-.1.13"/></g><g id="g5466"><path id="path5468" class="cls-2" d="M28.88,35.82l.82.67a5.31,5.31,0,0,0,.48.32,6.55,6.55,0,0,1-.83-.09c-.27-.07-.8-.15-.8-.15l.1-.06c.08,0,.05,0,.1,0s0-.12.05-.2,0-.1,0-.24a.28.28,0,0,1,.08-.2"/></g><g id="g5470"><path id="path5472" class="cls-2" d="M27.1,33.32l.78.72s.19.1.29.17l.23.12a.74.74,0,0,1,0-.21,1.92,1.92,0,0,1,0-.48c0-.11.08-.22.18-.22a1.28,1.28,0,0,1,.35,0,.58.58,0,0,1,.38.25,2.06,2.06,0,0,0,.19.2l.1-.09-1.5-1Z"/></g><g id="g5474"><path id="path5476" class="cls-2" d="M28.83,34.73l.57.49a1.1,1.1,0,0,1,.35-.15c.15,0,.28,0,.38-.06a.6.6,0,0,0,.18-.07,1.76,1.76,0,0,1-.43-.15.77.77,0,0,1-.3-.3c-.07-.1-.12-.1-.12-.1s0,.07-.21.08a.92.92,0,0,1-.44,0,1.22,1.22,0,0,0-.23-.08,1.85,1.85,0,0,1,.2.2.59.59,0,0,1,0,.14"/></g><g id="g5478"><path id="path5480" class="cls-2" d="M31.15,36.49l.53.42.7,0c.23,0,.83,0,.83,0l-.46-.34c-.17-.11-.57-.44-.57-.44a1.16,1.16,0,0,1-.2-.15l-.08-.09a.68.68,0,0,0-.17.17,1,1,0,0,1-.32.3,2,2,0,0,0-.26.2"/></g><g id="g5482"><path id="path5484" class="cls-2" d="M34.83,35.72l.8.54-.57.18a6.1,6.1,0,0,1-.65.16s-.55-.39-.83-.61-.54-.47-.54-.47a1.18,1.18,0,0,0-.18-.26c-.1-.1-.13-.2-.21-.25l-.09,0a.47.47,0,0,0,.19-.05c.1,0,.13-.15.21-.18a.51.51,0,0,0,.14-.11.58.58,0,0,1,.2.11.9.9,0,0,1,.31.33c.07.16.2.41.24.51s0,.24.11.29.25,0,.37,0a2,2,0,0,0,.33-.12.66.66,0,0,1,.17,0"/></g><g id="g5486"><path id="path5488" class="cls-2" d="M36,34.14l-1.63-1.2C34,32.62,33.28,32,33.28,32a2.54,2.54,0,0,0,0-.62c0-.22-.15-.7-.15-.7l2.46,1.87a3.3,3.3,0,0,1,.2.49,5.09,5.09,0,0,1,.22.74,1.08,1.08,0,0,1,0,.33"/></g><g id="g5490"><path id="path5492" class="cls-2" d="M32.1,33.79s-.2.08-.22.23a.48.48,0,0,0,.1.44.92.92,0,0,0,.55.27,1.19,1.19,0,0,0,.3-.17,1.81,1.81,0,0,0,.17-.19l-.12-.13a.9.9,0,0,1-.15.17.58.58,0,0,1-.28.16c-.09,0-.2,0-.19,0s0,0,.1-.05a.26.26,0,0,0,.2-.11,1.54,1.54,0,0,1,.17-.22A1.24,1.24,0,0,0,32.5,34l-.4-.2"/></g><g id="g5494"><path id="path5496" class="cls-2" d="M31,33.69l.39.28.15,0a.17.17,0,0,1-.09-.11c0-.09,0-.28,0-.28l-.34-.11a.42.42,0,0,0-.06.12,1.17,1.17,0,0,0,0,.15"/></g><g id="g5498"><path id="path5500" class="cls-4" d="M23.57,27.72s1.06-.27,1.13-.33l.18-.12.82.29c.27.09,1.49.42,1.76.47s1.82.31,2.21.42,1.43-.27,1.67-.22.82.62,1,.8a2.53,2.53,0,0,1,.27.31l-3.36.55a6.2,6.2,0,0,0-.57.29c-.14.09-.87.45-.87.45a5.89,5.89,0,0,0-1.2.31,1.54,1.54,0,0,0-.55.69c0,.17.17.29,0,.37a9.19,9.19,0,0,0-1,.58,3.57,3.57,0,0,0-.78.78c-.07.15-.11.31-.43.3a3.6,3.6,0,0,0-.92.12,4.77,4.77,0,0,1-1-.18l-2-1.44.07-.71a12.64,12.64,0,0,0,1.73-.69,2.82,2.82,0,0,0,.87-.73,6.81,6.81,0,0,0,.87-1.63c.06-.39.11-.68.11-.68"/></g><g id="g5502"><path id="path5504" class="cls-5" d="M13.77,16.93a.67.67,0,0,0,.14-.26c.06-.17.43-.33.8-.4a7.19,7.19,0,0,1,1.36-.3,12.06,12.06,0,0,0,1.3-.13,5.52,5.52,0,0,0,.9-.14,1.56,1.56,0,0,1,.73-.16c.44,0,1.5.06,2,0s1.67.2,2.06.2a5.23,5.23,0,0,1,1.51.26,11.56,11.56,0,0,1,1.26.64c.33.23,1.07.66,1.07.66a6,6,0,0,1,.79-.9,4.75,4.75,0,0,1,2.07-1.23,13.17,13.17,0,0,1,4-.4A22.45,22.45,0,0,1,39,16c1.36.6,4,1.73,4.49,2.1s1.4.87,1.43,1-.33.16-.73.1a7.11,7.11,0,0,0-1-.14c-.23,0-.7.07-.93,0s-.47,0-.83,0a6.27,6.27,0,0,0-1.27,0,4.3,4.3,0,0,1-.53.2,1.1,1.1,0,0,0-.33.1,2.38,2.38,0,0,0-.5.2c-.24.13-.57.13-.7.23a2.4,2.4,0,0,1-.6.3,1.14,1.14,0,0,0-.54.24,3,3,0,0,1-.4.33c-.16.13-.46.33-.53.53s0,.57-.13.7-.4.44-.47.57a4,4,0,0,1-.23.53.53.53,0,0,0-.17.37,1,1,0,0,1,0,.43c-.07.13-.3.4-.27.53s-.13.4-.17.54-.16.3,0,.4a1.8,1.8,0,0,0,.77.4c.36.06-.17.83-.34,1.23s-.83.93-1,1.46,0,1.94-.27,2.07-.53-.3-.73-.6a5.23,5.23,0,0,0-1.23-1.43,8.33,8.33,0,0,0-2.9-.3,12.7,12.7,0,0,1-4.43-1.5c-.67-.53-.5-2.27,0-2.73a6,6,0,0,1,1.7-.9l-.33-.44s0,.1-.3-.4a6.74,6.74,0,0,0-2.4-1.56,22.88,22.88,0,0,1-3.23-2.13,7.39,7.39,0,0,0-2.2-1.07c-.6-.1-2-.4-2.5-.4s-1.4,0-1.4,0"/></g><g id="g5506"><path id="path5508" class="cls-1" d="M13.77,16.93a4.66,4.66,0,0,1,1.14-.2,8.17,8.17,0,0,1,1.79.17c.47.14.8.27,1.14.37a.88.88,0,0,1,.43.23,15.4,15.4,0,0,0-1.86-.2h-1.2a.24.24,0,0,1-.24-.17,1,1,0,0,0-.6-.13c-.36,0-.53,0-.53,0Z"/></g><g id="g5510"><path id="path5512" class="cls-1" d="M13.74,16.5a4.58,4.58,0,0,1,1.43-.3,7.65,7.65,0,0,1,2.4.33c.43.24,1.83,1.17,2.37,1.57a16.7,16.7,0,0,0,1.5,1c.29.17.56.17.43.1s-.73-.47-1.13-.73-1.07-.74-1.5-1.07-.8-.53-1.17-.77a4,4,0,0,0-1.37-.53c-.36,0-.86-.1-.86-.1a2,2,0,0,1,.57-.13,1.92,1.92,0,0,1,.83.06c.36.14,1.26.64,1.63.84s1.1.7,1.57,1,1,.76,1.23.86.37.07.2-.06-1.27-.9-1.7-1.17-1.4-.87-1.67-1.07-.83-.53-.83-.53a2.64,2.64,0,0,1,.83,0,11,11,0,0,1,2,.8c.36.24.7.47.83.57s.13,0,0-.17a2.61,2.61,0,0,0-.83-.73,4.94,4.94,0,0,0-1.33-.53,5.76,5.76,0,0,1-.73-.13,1.77,1.77,0,0,1,.73-.17,8.27,8.27,0,0,1,1.8.2,10.94,10.94,0,0,1,1.37.57c.19.13.6.39.43.23a4.74,4.74,0,0,0-.94-.6c-.26-.13-.59-.33-.59-.33a4,4,0,0,1,.53,0,3,3,0,0,1,1,.2c.3.13.83.4,1.17.57l.63.3c.1,0,.13-.1,0-.2a4.34,4.34,0,0,0-.63-.37,1.32,1.32,0,0,1-.37-.2,3.15,3.15,0,0,1,.7.13,5.36,5.36,0,0,1,1,.37l1.4.93a1.72,1.72,0,0,0-.1.5,7.81,7.81,0,0,0,.3,1.67,9.1,9.1,0,0,1,.47,2,7.54,7.54,0,0,1-.14,1.14s-.06-.14-.4-.14H26a2.55,2.55,0,0,1-.4,0s0-.07-.13-.26a2.49,2.49,0,0,0-1-.77c-.57-.23-1.27-.57-1.8-.83A11.48,11.48,0,0,1,21,19.3c-.33-.27-.83-.7-1.13-.93a12.88,12.88,0,0,0-1.37-1,5.87,5.87,0,0,0-1.66-.7,8.9,8.9,0,0,0-1.7-.17,8.61,8.61,0,0,0-1.07.14.37.37,0,0,1-.33-.17"/></g><g id="g5514"><path id="path5516" class="cls-1" d="M18.17,23c-.33-.06-.6-.16-.56-.26a.66.66,0,0,1,.49-.34c.3-.06.5,0,.64-.06s.2-.2-.07-.33a4.56,4.56,0,0,0-.6-.34c-.27-.1-.5-.13-.56,0a.67.67,0,0,1-.2.17.46.46,0,0,1-.2-.4c0-.24.06-.6.2-.71a.74.74,0,0,1,.53-.09,3.4,3.4,0,0,1,.6.13.59.59,0,0,0,.43,0,2.8,2.8,0,0,1,.77-.2,8.18,8.18,0,0,1,.93.27c.27.1.87.36,1.17.46s1,.44,1,.44a1,1,0,0,0,.2.23,3.82,3.82,0,0,0,.73.27c.23.07.53.1.83.16a12.51,12.51,0,0,0,1.3.1c.37,0,.53,0,.8,0s.67.1.67.1a1.54,1.54,0,0,0-.1.23c0,.1.06.27.1.17a3.43,3.43,0,0,1,.13-.54,3.72,3.72,0,0,0,.1-1.26,7.3,7.3,0,0,0-.37-1.63,4.63,4.63,0,0,1-.4-1.6,1.9,1.9,0,0,1,.44-1.2,4,4,0,0,1,1.63-1.43,13,13,0,0,1,3.43-.71,14.32,14.32,0,0,1,3.3.21,37.51,37.51,0,0,1,4.56,1.5c.8.33,1.67.79,2.27,1.09s1.16.6,1.53.84a8.91,8.91,0,0,1,1.07.8c.13.13.06.26-.2.1s-1.14-.7-1.77-1a31.85,31.85,0,0,0-3.27-1.37,35.5,35.5,0,0,0-3.46-1,8.84,8.84,0,0,0-1.17-.13c-.2,0-.16.06.07.13s.83.14,1.23.27,1.54.4,2,.56,1.47.47,1.87.64,1.13.4,1.5.56.86.4,1.16.57a8.25,8.25,0,0,1,.74.5c.13.1.1.23-.14.17s-1-.37-1.4-.54-1-.46-1.56-.66-1.83-.6-2.57-.8-1.93-.44-2.53-.54-1.6-.23-1.6-.23a.51.51,0,0,1,.17-.23c.13-.1.23-.37.06-.5a1.63,1.63,0,0,0-.93-.34,10.26,10.26,0,0,0-1.63,0,9.47,9.47,0,0,0-1.67.37,3.94,3.94,0,0,0-1.66.9,2.47,2.47,0,0,0-.7,1.27,5,5,0,0,0,.1,1.59c.13.57.27,1,.33,1.24s.17.23.2,0a7,7,0,0,0-.26-1.07,4.38,4.38,0,0,1-.17-1.46,2.15,2.15,0,0,1,.43-1,3.68,3.68,0,0,1,1-.73,14.14,14.14,0,0,1,1.4-.61c.4-.09.93-.26,1.3-.3a7.21,7.21,0,0,1,1.46,0c.4.07.7.13.67.33s-.2.33-.47.37-.5,0-.5.1.14.1.34.13,1.26.27,2,.4,2.44.5,3,.67a23.72,23.72,0,0,1,2.36.7,13.27,13.27,0,0,1,1.47.63c.26.17.23.33-.1.23s-1.3-.43-1.87-.6a22.13,22.13,0,0,0-2.8-.76c-.93-.14-1.76-.3-2.4-.44s-1.56-.3-1.93-.39-.63-.07-.66-.17,0-.2.13-.27a.52.52,0,0,0,.33-.33c.07-.17.14-.34-.16-.37a3.54,3.54,0,0,0-.8,0,3,3,0,0,0-.34.07s0-.1-.2-.1-.3.1-.13.13a.21.21,0,0,1,.17.3.75.75,0,0,1-.44.3c-.13,0-.23.2-.06.23s.4.1.33.24-.23.16-.5.26-.5.17-.43.24.13,0,.36,0,.5.1.27.27a1.19,1.19,0,0,1-.57.2c-.2,0-.43.26-.16.26s.43,0,.36.27a.46.46,0,0,1-.36.37c-.2.06-.44.1-.3.16s.26,0,.4.17.26.3.1.43a3.74,3.74,0,0,1-.5.27c-.1.07-.17.13,0,.17a.17.17,0,0,1,.14.23.46.46,0,0,1-.37.23c-.2,0-.4,0-.4.1s.13.07.33.07.3-.07.47,0,.32.3.3.2a.84.84,0,0,0-.27-.4,1.24,1.24,0,0,0,.14-.23c0-.1-.17-.2-.1-.3s.23,0,.36-.17a.57.57,0,0,0,.17-.5c0-.17-.27-.13-.23-.27s.06-.1.23-.23a.34.34,0,0,0,.13-.43c-.06-.1-.23-.17-.16-.24s.2,0,.33-.1.27-.26.23-.36-.36-.24-.3-.3.24,0,.37-.07.23-.33.17-.43-.24-.14-.17-.24.27-.13.4-.26a.44.44,0,0,0,.07-.37.92.92,0,0,1,.5-.1c.26,0,.56,0,.53.17a.72.72,0,0,1-.5.4c-.3.1-.53.13-.53.23s.2,0,.33.07.3.06.23.2a.81.81,0,0,1-.5.33c-.23.07-.26.2-.1.27s.7.16.94.27.76.19,1.33.33,1.5.3,2,.43,1.27.3,1.8.37,1,.2,1.33.23.6.1.47.13a3,3,0,0,1-1.13.1c-.67,0-2.27-.23-3.17-.36s-2.13-.44-2.76-.57-1-.27-1.1-.27-.24.1-.07.14,1.23.36,1.83.5,1.5.3,2.2.4,1.6.26,2.17.3.9,0,1,.06-.07.17-.27.2a4,4,0,0,1-1.23.14c-.7,0-2.23-.24-3-.37s-1.37-.3-1.8-.4-.84-.23-.94-.23-.13.06,0,.13a5.3,5.3,0,0,0,1.07.33c.37.07,1,.27,1.7.4A15.45,15.45,0,0,0,36,20c.53,0,.8.1,1,.1s.4,0,.13.07a6.59,6.59,0,0,1-1.63.1c-.37,0-1.37-.14-2-.24s-1-.23-1.43-.3-.63-.2-.67-.1.14.2.6.3a11.4,11.4,0,0,0,1.8.43c.74.07,1.17.14,1.6.17s.87,0,1,0,.1.16-.06.16-.47.07-.37.1.3.14.13.2a4.1,4.1,0,0,1-1.36,0,20.71,20.71,0,0,1-2.07-.26l-.9-.24c-.16,0-.26.07,0,.13A12.91,12.91,0,0,0,33.4,21a12.54,12.54,0,0,0,1.66.17,1.19,1.19,0,0,1,.8.17c.13.13.24.29-.1.29s-1,0-1.63-.1a14.44,14.44,0,0,1-1.53-.19,7.5,7.5,0,0,0-.74-.14c-.13,0-.2.07,0,.14s1,.19,1.5.26,1.13.17,1.53.2a1.36,1.36,0,0,1,.76.2c.1.1.34.33-1,.2a19,19,0,0,1-2.56-.33,2.64,2.64,0,0,0-.7-.17c-.17,0-.17.1,0,.13s1,.24,1.36.3,1.24.14,1.67.2a2.34,2.34,0,0,1,.86.2c.1.1,0,.3-.26.3a16.69,16.69,0,0,1-1.7-.13c-.83-.1-1.37-.27-1.63-.3s-.64-.13-.77-.13-.13.1,0,.13.37.07.6.13.57.14.84.2a7.82,7.82,0,0,0,1.29.17c.51,0,.91.07,1.14.1s.46.2.13.23a9.06,9.06,0,0,1-1.8.1c-.5-.06-1-.1-1.33-.13s-.9,0-.47.1a13.44,13.44,0,0,0,1.5.23c.37,0,1,.07,1.3.07h.73c.14,0,.27.23,0,.3a1.78,1.78,0,0,0-.47.13.77.77,0,0,1-.66.1L32.36,24a6.15,6.15,0,0,0-.86-.16c-.14,0,.13.16.36.23s1,.2,1.37.27a8,8,0,0,0,1.13.1c.33,0,.57,0,.44.1s-.17.1-.14.2-.06.19-.33.19a5.77,5.77,0,0,1-1.1,0,6.27,6.27,0,0,1-.63-.13c-.1,0-.14.07,0,.13a4.85,4.85,0,0,0,.83.21,4,4,0,0,0,.83,0,.54.54,0,0,1,.43.17l.34.16a.18.18,0,0,1-.17.23c-.23,0-.5,0-.66,0s-.14.1.09.13a1.09,1.09,0,0,0,.6,0,.48.48,0,0,0,.27-.27,3.68,3.68,0,0,1,1,.2c.63.2,1.57.47,2.06.6s1.07.27,1.34.33.23.07.23.07L41.72,26s0-.14.07-.17.1-.1.2-.1.13.13.13.13l.4-.13.14.37s-1.6.66-1.74.73,0,.16.17.2.37.1.27.23-.37.17-.54.2a.29.29,0,0,0-.26.2,1,1,0,0,1-.44.47c-.26.13-.46.07-.53.2s0,.26-.16.4a1.82,1.82,0,0,1-.87.26c-.27,0-.47-.1-.47,0s.13.37,0,.47a1.6,1.6,0,0,1-.83.07c-.3,0-.43-.17-.5-.07s0,.2,0,.33.1.37,0,.47a1.15,1.15,0,0,1-.8-.07c-.23-.1-.6-.3-.73-.26s-1.93.76-1.93.76A2.69,2.69,0,0,0,33,30a7.25,7.25,0,0,0-.93-1.2,1.82,1.82,0,0,0-.57-.47c-.13,0-.06.14.14.34a5.35,5.35,0,0,1,.9,1.06,7,7,0,0,1,.6,1.37c.09.33.16.9.09.9a4.34,4.34,0,0,1-.66-1,6.86,6.86,0,0,0-1.2-1.5,3.44,3.44,0,0,0-1.43-.9c-.44-.07-.7-.23-1.13-.27a9,9,0,0,1-1.57-.2,14.89,14.89,0,0,1-2.53-.93,16.92,16.92,0,0,1-1.8-1.2l-1.6-1.26c-.43-.34-1-.94-1.33-1.17S19.4,23,19.1,23"/></g><g id="g5518"><path id="path5520" class="cls-6" d="M17.27,21.6c-.06,0-.1-.27,0-.47s.17-.4.3-.43a1.31,1.31,0,0,1,.5.06,4.28,4.28,0,0,1,.46.17c.17.07.24.24.34.4s.17.37.26.43a2.36,2.36,0,0,1,.34.24c.1.1.36.36.23.3A4.76,4.76,0,0,0,19,22a3.61,3.61,0,0,1-.5-.24,1.94,1.94,0,0,0-.74-.27c-.23,0-.26-.06-.39,0Z"/></g><g id="g5522"><path id="path5524" class="cls-6" d="M18.17,22.5c-.05-.1.17-.1.4-.1s.33,0,.33.06-.16,0-.36,0-.3.13-.37,0"/></g><g id="g5526"><path id="path5528" class="cls-6" d="M17.77,22.73c0-.09.67-.07.93-.07s.54,0,.8,0,.64-.07.5,0a2.48,2.48,0,0,1-.56.2,3.9,3.9,0,0,1-.64,0,5.64,5.64,0,0,1-.76,0c-.17,0-.24,0-.27-.1"/></g><g id="g5530"><path id="path5532" class="cls-4" d="M18.87,20.9c0-.12.23-.13.5-.17a1.53,1.53,0,0,1,.53,0c.17,0,.87.34,1.24.47s.73.26.86.33.27.27.47.37a5.41,5.41,0,0,0,1,.4c.33.06.83.2,1.13.23a3.86,3.86,0,0,1,.67,0,2.48,2.48,0,0,0,.4.2c.17.07.13.1-.17.1s-.43,0-.66,0-.44,0-.27.1.23.17,0,.14A3.2,3.2,0,0,1,24,23c-.2-.06-.5-.1-.16,0a4.85,4.85,0,0,1,.6.26c.1.07,0,.1-.27.07s-.33-.1-.5-.13-.3,0-.13.06l.46.2c.17.07.3.27.11.24a5,5,0,0,1-.51-.14c-.13,0,.1.14.24.24s0,.2-.14.16-.2-.1-.36-.16-.17,0,0,.13.26.1.3.2,0,.1-.2.07-.44-.1-.3,0,.23.13.3.26-.1.1-.23,0l-.6-.34c-.24-.13-.3-.1-.17,0l.53.44c.17.13.33.2.43.3s.14.26-.13.13-.43-.33-.83-.57a3.5,3.5,0,0,1-.77-.53c-.16-.17-.3-.13-.16,0s.33.33.5.47.3.23.23.3-.27-.07-.47-.24l-.7-.56c-.16-.14-.26-.2-.33-.27s-.07,0,.1.17a2.94,2.94,0,0,1,.47.46c.1.14,0,.24-.14.14s-.36-.4-.56-.57-.3-.37-.4-.37a.75.75,0,0,1-.34-.1c-.13-.06-.33-.23-.46-.29a1,1,0,0,1-.24-.17,3.63,3.63,0,0,1,.4-.14,2.47,2.47,0,0,0,.41-.13.67.67,0,0,0-.14-.2c-.1-.1-.3-.16-.37-.3s-.3-.13-.3-.27-.13-.23-.16-.36-.1-.24-.14-.37a.51.51,0,0,1,0-.23"/></g><g id="g5534"><path id="path5536" class="cls-1" d="M19.6,21.37c.13-.05.17,0,.37,0s.33.2.57.26.3,0,.36.14,0,.17-.16.13a1.45,1.45,0,0,1-.4-.13c-.14-.07-.2,0-.24.1s-.16,0-.26-.1-.14-.23-.24-.3-.1-.1,0-.13"/></g><g id="g5538"><path id="path5540" class="cls-5" d="M28.6,16.87c.2-.1.23-.27.3-.17s.06.17-.1.24-.27.16-.3.1.1-.17.1-.17"/></g><g id="g5542"><path id="path5544" class="cls-3" d="M28.6,16.87c.2-.1.23-.27.3-.17s.06.17-.1.24-.27.16-.3.1S28.6,16.87,28.6,16.87Z"/></g><g id="g5546"><path id="path5548" class="cls-5" d="M29.37,16.5c.13,0,.29,0,.16.1s-.2.17-.27.07.11-.17.11-.17"/></g><g id="g5550"><path id="path5552" class="cls-5" d="M29.06,17.53c.12-.07.37,0,.54,0s.36.13.33.26-.1.47-.37.5a1.73,1.73,0,0,1-.53.07c-.13,0-.27-.2-.3-.1s-.13.27-.2.2a.19.19,0,0,1,0-.27c.1-.06.14-.13.27-.1s.07.14.23.14a1.71,1.71,0,0,0,.54-.1c.16-.07.26-.2.16-.34a.44.44,0,0,0-.39-.16,1.26,1.26,0,0,1-.34,0c-.1,0-.07-.07,0-.14"/></g><g id="g5554"><path id="path5556" class="cls-5" d="M28.17,18c.12.08.3-.1.3-.2s-.1-.1-.2,0-.2.13-.1.2"/></g><g id="g5558"><path id="path5560" class="cls-3" d="M28.17,18c.12.08.3-.1.3-.2s-.1-.1-.2,0S28.07,17.9,28.17,18Z"/></g><g id="g5562"><path id="path5564" class="cls-5" d="M28.3,19.1c.13-.07.2-.23.13-.3s-.16,0-.23.1-.23.2-.07.2Z"/></g><g id="g5566"><path id="path5568" class="cls-3" d="M28.3,19.1c.13-.07.2-.23.13-.3s-.16,0-.23.1-.23.2-.07.2Z"/></g><g id="g5570"><path id="path5572" class="cls-5" d="M29,19.47c.12-.06.27,0,.4-.07s.2-.07.2-.2a.34.34,0,0,0-.2-.3c-.1,0-.17-.17,0-.13a.35.35,0,0,1,.3.2c.1.16.16.3.06.4a.78.78,0,0,1-.46.23c-.17,0-.17.1-.27,0s-.13-.1,0-.16"/></g><g id="g5574"><path id="path5576" class="cls-5" d="M29.16,22.3c.1-.07.34,0,.57.13s.47.23.43.43-.06.3-.16.37-.27.1-.17.23.27.4.17.57a.7.7,0,0,1-.43.3c-.11,0-.07.1,0,.23s.13.34,0,.43-.2.07-.34.14-.16.13-.06.23a.36.36,0,0,1,.06.44c-.1.13-.23.26-.4.2s-.3-.14-.26-.2,0,0,.23,0,.4,0,.27-.2a2.15,2.15,0,0,0-.37-.33c-.13-.1-.17-.27.07-.27s.26.07.46,0,.3-.16.24-.33a.78.78,0,0,0-.37-.33c-.13-.07-.23-.2-.07-.23s.44,0,.61,0,.33-.24.23-.34a1.07,1.07,0,0,0-.37-.3c-.13,0-.27,0-.3-.16s0-.14.24-.14a.92.92,0,0,0,.49-.13c.1-.07.2-.2,0-.3a2.75,2.75,0,0,0-.56-.2c-.14,0-.24-.17-.14-.23"/></g><g id="g5578"><path id="path5580" class="cls-3" d="M29.16,22.3c.1-.07.34,0,.57.13s.47.23.43.43-.06.3-.16.37-.27.1-.17.23.27.4.17.57a.7.7,0,0,1-.43.3c-.11,0-.07.1,0,.23s.13.34,0,.43-.2.07-.34.14-.16.13-.06.23a.36.36,0,0,1,.06.44c-.1.13-.23.26-.4.2s-.3-.14-.26-.2,0,0,.23,0,.4,0,.27-.2a2.15,2.15,0,0,0-.37-.33c-.13-.1-.17-.27.07-.27s.26.07.46,0,.3-.16.24-.33a.78.78,0,0,0-.37-.33c-.13-.07-.23-.2-.07-.23s.44,0,.61,0,.33-.24.23-.34a1.07,1.07,0,0,0-.37-.3c-.13,0-.27,0-.3-.16s0-.14.24-.14a.92.92,0,0,0,.49-.13c.1-.07.2-.2,0-.3a2.75,2.75,0,0,0-.56-.2C29.16,22.5,29.06,22.36,29.16,22.3Z"/></g><g id="g5582"><path id="path5584" class="cls-5" d="M30.63,24a.79.79,0,0,1,.5.2,2.09,2.09,0,0,1,.53.46c.17.24.3.4.3.57s-.06.23-.16.27,0,.13.1.26a1.62,1.62,0,0,1,.3.44c.06.2.16.43,0,.43s-.33.13-.33,0,.23-.07.16-.23a1.1,1.1,0,0,0-.4-.6,8.9,8.9,0,0,0-.9-.74c-.33-.2-.56-.5-.3-.43s.34.2.54.36a1.09,1.09,0,0,0,.46.27c.14,0,.27.07.27-.1s-.17-.33-.4-.53a1.88,1.88,0,0,0-.6-.43c-.2-.07-.1-.2-.1-.2"/></g><g id="g5586"><path id="path5588" class="cls-3" d="M30.63,24a.79.79,0,0,1,.5.2,2.09,2.09,0,0,1,.53.46c.17.24.3.4.3.57s-.06.23-.16.27,0,.13.1.26a1.62,1.62,0,0,1,.3.44c.06.2.16.43,0,.43s-.33.13-.33,0,.23-.07.16-.23a1.1,1.1,0,0,0-.4-.6,8.9,8.9,0,0,0-.9-.74c-.33-.2-.56-.5-.3-.43s.34.2.54.36a1.09,1.09,0,0,0,.46.27c.14,0,.27.07.27-.1s-.17-.33-.4-.53a1.88,1.88,0,0,0-.6-.43C30.53,24.13,30.63,24,30.63,24Z"/></g><g id="g5590"><path id="path5592" class="cls-5" d="M32.16,24.86c.21,0,.37.17.6.34a1.14,1.14,0,0,1,.5.53c.07.2,0,.2-.23.23s-.37-.06-.23-.1.36,0,.26-.13-.2-.33-.43-.43a2.1,2.1,0,0,1-.43-.24c-.1-.07-.14-.2,0-.2"/></g><g id="g5594"><path id="path5596" class="cls-3" d="M32.16,24.86c.21,0,.37.17.6.34a1.14,1.14,0,0,1,.5.53c.07.2,0,.2-.23.23s-.37-.06-.23-.1.36,0,.26-.13-.2-.33-.43-.43a2.1,2.1,0,0,1-.43-.24C32.1,25,32.06,24.86,32.16,24.86Z"/></g><g id="g5598"><path id="path5600" class="cls-5" d="M33.7,25.83a4.3,4.3,0,0,1,.69.37c.24.13.47.36.44.49a.53.53,0,0,1-.57.34,2.39,2.39,0,0,1-.73-.27c-.17-.07-.3-.2-.14-.2s.47.13.74.17.47.06.5,0-.07-.23-.3-.33a3.23,3.23,0,0,0-.57-.26c-.23-.07-.37-.14-.33-.24s.27,0,.27,0"/></g><g id="g5602"><path id="path5604" class="cls-3" d="M33.7,25.83a4.3,4.3,0,0,1,.69.37c.24.13.47.36.44.49a.53.53,0,0,1-.57.34,2.39,2.39,0,0,1-.73-.27c-.17-.07-.3-.2-.14-.2s.47.13.74.17.47.06.5,0-.07-.23-.3-.33a3.23,3.23,0,0,0-.57-.26c-.23-.07-.37-.14-.33-.24S33.7,25.83,33.7,25.83Z"/></g><g id="g5606"><path id="path5608" class="cls-5" d="M29.93,25.16a3,3,0,0,1,.77.47,4.83,4.83,0,0,1,.86.73c.2.27.37.4.44.63s0,.37-.2.34a3.23,3.23,0,0,1-.7-.24,2.87,2.87,0,0,1-.57-.33c-.13-.1-.13-.17,0-.1s.47.23.67.3.43.17.53.1,0-.17-.23-.4a10.78,10.78,0,0,0-.9-.8c-.27-.16-.43-.33-.63-.43s-.34-.17-.27-.27.2,0,.2,0"/></g><g id="g5610"><path id="path5612" class="cls-3" d="M29.93,25.16a3,3,0,0,1,.77.47,4.83,4.83,0,0,1,.86.73c.2.27.37.4.44.63s0,.37-.2.34a3.23,3.23,0,0,1-.7-.24,2.87,2.87,0,0,1-.57-.33c-.13-.1-.13-.17,0-.1s.47.23.67.3.43.17.53.1,0-.17-.23-.4a10.78,10.78,0,0,0-.9-.8c-.27-.16-.43-.33-.63-.43s-.34-.17-.27-.27S29.93,25.16,29.93,25.16Z"/></g><g id="g5614"><path id="path5616" class="cls-1" d="M32,17.37c.08-.12.17-.1.3-.2s.14-.3.3-.24a7.68,7.68,0,0,0,1.17.3c.53.1,1.3.21,2,.37s1.93.37,2.43.5,1.6.4,2,.53.73.27.9.34-.07.1-.43.06a13.33,13.33,0,0,1-1.44-.13c-.56-.1-1-.2-1.43-.27s-1.13-.23-1.83-.36-1.83-.44-2.53-.57-1-.2-1.23-.26-.3,0-.24-.07"/></g><g id="g5618"><path id="path5620" class="cls-5" d="M29.7,27.19a11.61,11.61,0,0,1,1.3.27,4.79,4.79,0,0,1,1.1.5,2.87,2.87,0,0,1,.52.71,7.15,7.15,0,0,0,1.21.89c.23.1.63.18.4,0a9.28,9.28,0,0,1-.73-.7c-.19-.19-.25-.43-.21-.38s.24.18.44.35.4.54.6.61l.56.21s.08.08.08.08c-.27-.07-.51.18-.78.13a2.77,2.77,0,0,1-1.3-.85c-.12-.2-.31-.45-.41-.47a6.26,6.26,0,0,0-1.15-.75,8.64,8.64,0,0,0-1.17-.36c-.33-.07-.76-.1-.73-.2s.27,0,.27,0"/></g><g id="g5622"><path id="path5624" class="cls-3" d="M29.7,27.19a11.61,11.61,0,0,1,1.3.27,4.79,4.79,0,0,1,1.1.5,2.87,2.87,0,0,1,.52.71,7.15,7.15,0,0,0,1.21.89c.23.1.63.18.4,0a9.28,9.28,0,0,1-.73-.7c-.19-.19-.25-.43-.21-.38s.24.18.44.35.4.54.6.61l.56.21s.08.08.08.08c-.27-.07-.51.18-.78.13a2.77,2.77,0,0,1-1.3-.85c-.12-.2-.31-.45-.41-.47a6.26,6.26,0,0,0-1.15-.75,8.64,8.64,0,0,0-1.17-.36c-.33-.07-.76-.1-.73-.2S29.7,27.19,29.7,27.19Z"/></g><g id="g5626"><path id="path5628" class="cls-5" d="M28.4,27c.1,0,.5,0,.66.06s.17.17,0,.17a4,4,0,0,1-.63-.1c-.13,0-.13-.17,0-.13"/></g><g id="g5630"><path id="path5632" class="cls-3" d="M28.4,27c.1,0,.5,0,.66.06s.17.17,0,.17a4,4,0,0,1-.63-.1C28.3,27.13,28.3,27,28.4,27Z"/></g><g id="g5634"><path id="path5636" class="cls-5" d="M27.27,26.3a1.8,1.8,0,0,1,.56.2c.13.06.07.16-.1.09a4.08,4.08,0,0,0-.5-.16c-.13,0-.13-.13,0-.13"/></g><g id="g5638"><path id="path5640" class="cls-3" d="M27.27,26.3a1.8,1.8,0,0,1,.56.2c.13.06.07.16-.1.09a4.08,4.08,0,0,0-.5-.16C27.1,26.4,27.1,26.3,27.27,26.3Z"/></g><g id="g5642"><path id="path5644" class="cls-5" d="M25,26.13l.47.3c.2.13.26.26,0,.13a1.73,1.73,0,0,1-.5-.3c-.17-.13-.07-.2,0-.13"/></g><g id="g5646"><path id="path5648" class="cls-3" d="M25,26.13l.47.3c.2.13.26.26,0,.13a1.73,1.73,0,0,1-.5-.3C24.8,26.13,24.9,26.06,25,26.13Z"/></g><g id="g5650"><path id="path5652" class="cls-5" d="M25.73,23.2a5.05,5.05,0,0,1,.67.06c.17,0,.2.17-.07.14l-.56-.1c-.14,0,0-.1,0-.1"/></g><g id="g5654"><path id="path5656" class="cls-3" d="M25.73,23.2a5.05,5.05,0,0,1,.67.06c.17,0,.2.17-.07.14l-.56-.1C25.63,23.26,25.73,23.2,25.73,23.2Z"/></g><g id="g5658"><path id="path5660" class="cls-5" d="M27.63,23.46c.2,0,.37.1.34.17s-.1,0-.31,0-.33,0-.26-.1.23,0,.23,0"/></g><g id="g5662"><path id="path5664" class="cls-3" d="M27.63,23.46c.2,0,.37.1.34.17s-.1,0-.31,0-.33,0-.26-.1S27.63,23.46,27.63,23.46Z"/></g><g id="g5666"><path id="path5668" class="cls-5" d="M26.4,23.66c.2.05.57.1.5.2s-.23,0-.43,0-.54,0-.47-.13.27-.07.4,0"/></g><g id="g5670"><path id="path5672" class="cls-3" d="M26.4,23.66c.2.05.57.1.5.2s-.23,0-.43,0-.54,0-.47-.13S26.27,23.63,26.4,23.66Z"/></g><g id="g5674"><path id="path5676" class="cls-5" d="M25,23.76c.17,0,.43,0,.4.14s-.17,0-.3,0-.23-.14-.1-.14"/></g><g id="g5678"><path id="path5680" class="cls-3" d="M25,23.76c.17,0,.43,0,.4.14s-.17,0-.3,0S24.87,23.76,25,23.76Z"/></g><g id="g5682"><path id="path5684" class="cls-4" d="M36.59,26.13a1.94,1.94,0,0,1,.7.13c.17.07,1,.27,1.34.37s.93.2,1.16.26.63.1.9.17.57.1.47.17a2.89,2.89,0,0,1-.8.17,13.6,13.6,0,0,1-1.9-.11A10.81,10.81,0,0,1,37,27c-.3-.07-.73-.2-.7-.27s.34,0,.5,0,.47.1.47,0-.47-.1-.67-.17-.53-.16-.46-.23.33,0,.5.07a4.9,4.9,0,0,0,.56.13c.14,0,.07-.1-.06-.13s-.2,0-.37-.14-.27-.1-.17-.13"/></g><g id="g5686"><path id="path5688" class="cls-4" d="M35.39,26.73c.17,0,.57.2.84.26a12.31,12.31,0,0,0,1.2.3c.4.07,1.13.2,1.46.24s.73.06,1,.06.6-.1.56,0-.13.34-.29.4a1.56,1.56,0,0,1-.6.17,5.85,5.85,0,0,1-1.44-.1c-.6-.13-1.2-.3-1.53-.4s-.6-.26-.73-.3-.14-.13,0-.1l.5.1c.17,0,.37-.07.2-.1s-.63-.2-.87-.27-.5-.1-.46-.2.16-.06.16-.06"/></g><g id="g5690"><path id="path5692" class="cls-4" d="M35.39,27.4c.15,0,.57.19.74.26a4,4,0,0,0,.73.3c.2,0,.7.17,1.07.24s.93.09,1.19.13.34.06.27.16a.74.74,0,0,1-.5.34,3.81,3.81,0,0,1-1.16-.17c-.57-.13-1.1-.37-1.37-.43a3.73,3.73,0,0,1-.8-.34c-.1-.06-.1-.2,0-.13a3.76,3.76,0,0,0,.4.13.87.87,0,0,0,.3.07s-.16-.1-.36-.2-.44-.13-.54-.2-.13-.13,0-.16"/></g><g id="g5694"><path id="path5696" class="cls-4" d="M35.16,27.86c.1,0,.33.17.5.27a3.2,3.2,0,0,0,.73.33c.34.1.77.2,1,.3s.4.17.46.3.17.3.07.33a1.42,1.42,0,0,1-.77,0A4.11,4.11,0,0,1,36,28.89l-.8-.46c-.1-.07-.17-.23,0-.17a5.27,5.27,0,0,0,.5.23c.23.1.36.2.4.1s-.2-.2-.44-.33a1.59,1.59,0,0,1-.43-.3c-.13-.13-.1-.07,0-.1"/></g><g id="g5698"><path id="path5700" class="cls-4" d="M34.5,28.13c.11,0,.46.36.69.5s.54.36.74.46.36.14.43.24a2.3,2.3,0,0,1,.27.43c.06.17.1.33,0,.37a.72.72,0,0,1-.53,0,4,4,0,0,1-.67-.4c-.2-.17-.43-.44-.6-.6s-.4-.27-.36-.37.1-.07.3.07.26.26.33.2-.2-.24-.37-.44a2.33,2.33,0,0,0-.36-.33c-.11-.1,0-.17.1-.13"/></g><g id="g5702"><path id="path5704" class="cls-1" d="M28.2,28.53a3.63,3.63,0,0,1,1.26.16,3.1,3.1,0,0,1,1.17.47,10.28,10.28,0,0,1,.8.73c.23.24.5.57.63.74a3.65,3.65,0,0,1,.4.5c.1.16.3.56.3.56s-.23-.13-.23,0a.7.7,0,0,0,.23.37,4,4,0,0,0,.57.36c.2.13.43.33.43.47s-.1.26,0,.36a4.81,4.81,0,0,1,.36.4,4.49,4.49,0,0,0,.47.44,1.54,1.54,0,0,0,.63.1,1.5,1.5,0,0,1,.6.07c.17.06,1.3.43,1.8.66l2.13,1a7.42,7.42,0,0,1,1.63.83c.17.2.1.47,0,.73s-.83,1.57-1,1.8-.3.43-.57.33a15.53,15.53,0,0,1-1.63-1.4c-.6-.49-1.23-1.09-1.77-1.53s-.83-.8-1.13-.86a1.23,1.23,0,0,0-.73,0c-.17.07-.44.17-.57.07a1.35,1.35,0,0,1-.33-.54c-.1-.23-.27-.53-.44-.59s-.23-.11-.33,0a2.41,2.41,0,0,1-.4.23l.2.2c.1.1.3.26.3.43s.13.43,0,.5a.9.9,0,0,1-.53.1.75.75,0,0,1-.44-.2.52.52,0,0,1-.16-.17,1.18,1.18,0,0,1-.27.3c-.17.14-.4.4-.6.37a.42.42,0,0,1-.33-.3c0-.1-.1-.2-.2-.13a.68.68,0,0,1-.5.06,1.3,1.3,0,0,1-.34-.5.49.49,0,0,1,0-.23l-.4.17a1.82,1.82,0,0,0-.46.33,1.41,1.41,0,0,1,0,.37,2.14,2.14,0,0,1-.3.43s-.23,0-.27-.13a1.21,1.21,0,0,1,0-.27l-.17.1a.28.28,0,0,1,.1.23,1.77,1.77,0,0,1,0,.6,2.3,2.3,0,0,0-.17.6c0,.17-.13.37-.23.37s-.47-.24-.5-.4a3.67,3.67,0,0,1,0-.87.51.51,0,0,1,.06-.17,3.1,3.1,0,0,0-.7.31c-.23.16-.7.4-.7.4a2.63,2.63,0,0,1,.17.59,2.11,2.11,0,0,1,0,.77.21.21,0,0,1-.37.1,2.44,2.44,0,0,1-.6-.47c-.13-.19-.33-.56-.33-.56l-.17.1a1,1,0,0,1,.17.33,2.06,2.06,0,0,1-.4.7c-.17.17-.17.27-.37.3s-.56,0-.63-.1a1.66,1.66,0,0,1,0-.57,1.46,1.46,0,0,1-.4.27,1.05,1.05,0,0,1-.6.13c-.17,0-.24-.13-.14-.33s.27-.4.3-.5a.73.73,0,0,1,.14-.2,4.93,4.93,0,0,1-.5,0,.66.66,0,0,1-.47-.3c-.07-.1-.07-.23.13-.37a2.65,2.65,0,0,1,.67-.4h.5a1.36,1.36,0,0,0,0-.27c0-.13.13-.09.27,0a.81.81,0,0,1,.23.54.52.52,0,0,0,.07.33c.06.1,0,.27.16.3a1.41,1.41,0,0,0,.37,0,1.17,1.17,0,0,0-.23-.23.2.2,0,0,1,.07-.34,1.2,1.2,0,0,1,.36-.06.43.43,0,0,1,.13-.24,1.13,1.13,0,0,1,.54-.13h.6s-.2-.14-.1-.23.23,0,.36-.07.4-.13.5-.07l.34.27.53-.27-.27-.16c-.1-.07-.26-.3-.2-.4s.27-.07.44-.07a.59.59,0,0,1,.3.1.47.47,0,0,1-.17-.23c0-.14-.1-.34.07-.34h.33a.88.88,0,0,1,0-.46c.06-.24.06-.44.1-.6s.17-.27.33-.14a4.15,4.15,0,0,0,.47.27c.2.13.33.13.33.34s.07.19,0,.43a1.12,1.12,0,0,1-.06.29s0,.07.26,0a3.07,3.07,0,0,1,.6-.23,2.14,2.14,0,0,0,.4-.07s-.13,0-.06-.13.26,0,.13-.1-.33-.1-.43-.2a2.92,2.92,0,0,1-.24-.3.45.45,0,0,1-.33.1c-.23,0-.66,0-.73-.16a2.91,2.91,0,0,1-.07-.74c0-.1.1-.2.3-.17a1.2,1.2,0,0,1,.54.2,3.33,3.33,0,0,0,.29.34s.1-.2.27-.17.33.23.57.37l.5.3.2.06s-.07-.16,0-.23.13-.3.27-.3a.29.29,0,0,0,.2-.07.52.52,0,0,1-.1-.2v-.19l-.34-.11a.56.56,0,0,0-.1.27c0,.13,0,.23.1.27a1,1,0,0,0,.24,0,.9.9,0,0,1-.4.1,1.07,1.07,0,0,1-.44-.3c0-.07-.1-.43-.1-.43h-.1a.81.81,0,0,0,0,.3c0,.06.13.2.13.2s-.4,0-.43-.17a1.94,1.94,0,0,1,0-.4.31.31,0,0,1,0-.17l-1.27-.53-1.76.73a.74.74,0,0,1,.07.37c0,.17-.2.5-.4.54s-.57.13-.7,0-.2-.27-.3-.24-.34,0-.44.2-.3.77-.5.87a1.27,1.27,0,0,1-.79,0,.41.41,0,0,0-.5,0,11.12,11.12,0,0,0-1.54,1l-3.2,2.79a.71.71,0,0,1-.86.14,8,8,0,0,1-.87-1A9.09,9.09,0,0,1,16,36.89a.52.52,0,0,1,.17-.6c.2-.1.73-.27,1.06-.4s5.13-2,5.6-2.13a4,4,0,0,1,1-.1c.36-.07.2,0,.33-.2l.47-.5a2.25,2.25,0,0,1,.5-.5,8.92,8.92,0,0,1,.83-.6c.09-.05-.7-.4-.7-.4a4.81,4.81,0,0,0-.87-.4,7.1,7.1,0,0,1-1.49-.77,1.22,1.22,0,0,1-.4-.63,1.38,1.38,0,0,1,0-.6s-2.5-1-3.4-1.33-3.36-1.34-3.36-1.34a.3.3,0,0,1,.06-.26,1.69,1.69,0,0,1,.2-.17l.27.1s.17-.1.26-.06a1.73,1.73,0,0,1,.24.13c.07,0,0,.17,0,.17l10.86,4.23.47-.1c.27-.07.13-.14.2-.27a3,3,0,0,0-.13-1c-.07-.27-.17-.6-.07-.63"/></g><g id="g5706"><path id="path5708" class="cls-6" d="M26.3,31.79c-.17,0,0-.5.2-.6a2.08,2.08,0,0,1,.7-.27,9.91,9.91,0,0,0,1-.29,1.14,1.14,0,0,0,.57-.34c.13-.16.23-.33.33-.23a.56.56,0,0,1,0,.57,4.92,4.92,0,0,1-.47,1.06c-.2.23-.36.47-.5.63s-.3.27-.4.17a.27.27,0,0,1,0-.4c.13-.17.23-.2.37-.4s.23-.46.1-.37a1.15,1.15,0,0,1-.4.24,1.09,1.09,0,0,0-.54.23c-.1.13-.36.24-.46.17a.24.24,0,0,1-.07-.37,1.87,1.87,0,0,1,.57-.27c.16-.06.33,0,.5-.09S28.2,31,28,31a2.83,2.83,0,0,0-.76.17,3,3,0,0,0-.6.37c-.13.13-.2.26-.3.26"/></g><g id="g5710"><path id="path5712" class="cls-6" d="M30,33.23a.52.52,0,0,1,0-.5.77.77,0,0,1,.33-.4,1.47,1.47,0,0,1,.54-.2c.2,0,.26,0,.16.13a5.44,5.44,0,0,0-.36.43l-.27.37a.65.65,0,0,0-.07.3.84.84,0,0,1-.33-.13"/></g><g id="g5714"><path id="path5716" class="cls-6" d="M30.73,33.82c-.11,0-.17-.1-.17-.26a1.19,1.19,0,0,1,.1-.6,1.53,1.53,0,0,1,.3-.34c.17-.13.4-.4.54-.49a.45.45,0,0,0,.23-.31,3.22,3.22,0,0,1,.27-.43c.06-.13.1-.16.2-.1s.3.24.23.3a.77.77,0,0,0-.2.33c0,.14.07.34.07.5a1.52,1.52,0,0,1-.17.57,2.61,2.61,0,0,0-.2.5c0,.13-.1.33-.2.33s-.2-.06-.2-.23A1.42,1.42,0,0,1,31.6,33a2.14,2.14,0,0,0,.2-.43c0-.13,0-.13-.14,0s-.2.23-.3.33a1,1,0,0,0-.23.37c-.07.16-.2.13-.23.26s0,.3-.17.3"/></g><g id="g5718"><path id="path5720" class="cls-4" d="M28.3,28.73a4.24,4.24,0,0,1,1,.66c.17.2.83.67.94.84s.13.43.23.3,0-.44-.17-.67-.3-.43-.37-.53.1,0,.34.1a5,5,0,0,1,.76.56,4.54,4.54,0,0,1,.47.54c0,.06-.2-.07-.37-.2s-.56-.4-.56-.4a2.61,2.61,0,0,1,.16.5c0,.2,0,.4-.16.4s-.37-.24-.57-.44-.6-.56-.83-.76-.37-.47-.57-.57a.82.82,0,0,0-.33-.1l-.3-.43Z"/></g><g id="g5722"><path id="path5724" class="cls-5" d="M29.06,31.56s1.17.4,1.27.47,0,.13-.13.23-.2.13-.24.26,0,.2-.2.14l-1.23-.53c-.06,0,0-.07.13-.17a4,4,0,0,0,.3-.4Z"/></g><g id="g5726"><path id="path5728" class="cls-5" d="M29.16,31l1.47.47a4.89,4.89,0,0,0,.6-.23,2.07,2.07,0,0,0,.57-.34.13.13,0,0,0-.14-.2c-.13,0-.2,0-.36-.1a2.21,2.21,0,0,0-.34-.16.76.76,0,0,1,0,.33c0,.13-.17.37-.34.3a2.43,2.43,0,0,1-.56-.27l-.2-.2-.64.2a.22.22,0,0,0-.1.2"/></g><g id="g5730"><path id="path5732" class="cls-5" d="M32.63,32.09s.3.23.47.33.46.24.36.34-.3,0-.53-.07-.37,0-.4-.2,0-.33.1-.4"/></g><g id="g5734"><path id="path5736" class="cls-5" d="M32.43,33.16a.33.33,0,0,1,.17-.24c.1,0,.3.1.56.17a1,1,0,0,1,.53.27,5.47,5.47,0,0,1,.5.5,1.51,1.51,0,0,0,.57.43c.13,0,.53-.06.73,0a3.47,3.47,0,0,1,.77.26c.3.14,2.4,1,2.8,1.17s1.43.57,1.6.7.33.23.3.36a3.4,3.4,0,0,1-.24.67c-.1.17-.49,1.14-.6,1.27s-.23.16-.19,0,.26-.61.19-.74A16.29,16.29,0,0,0,38,36.46c-.63-.37-1.7-1.07-2.16-1.3a3.09,3.09,0,0,0-.77-.37c-.2,0-.6-.17-.63-.07s.1.3,0,.44-.17.26-.27.06a6.75,6.75,0,0,0-.66-.93,2.39,2.39,0,0,0-.67-.53c-.2-.1-.46-.07-.5-.2a1,1,0,0,1,.07-.4"/></g><g id="g5738"><path id="path5740" class="cls-5" d="M37.53,36.52a2.71,2.71,0,0,1,.86.5c.24.17.77.57,1,.7s.5.2.47.33-.07.27-.24.17-.76-.56-1-.73a9.33,9.33,0,0,1-.8-.64c-.2-.16-.4-.33-.26-.33"/></g><g id="g5742"><path id="path5744" class="cls-7" d="M31.2,34.92a.22.22,0,0,1-.1-.26.72.72,0,0,1,.26-.37.84.84,0,0,1,.27-.13.78.78,0,0,1,.13.33c0,.2.07.37-.06.47a.27.27,0,0,1-.24.06s-.06,0,0-.16a1.25,1.25,0,0,0,.1-.34s-.2,0-.23.14a1.47,1.47,0,0,1-.13.26"/></g><g id="g5746"><path id="path5748" class="cls-7" d="M30.66,34.62c-.06.07-.13.11-.26,0a1.05,1.05,0,0,0-.4-.13s0,.07.1.13.2.07.26.17.07.13-.13.07a1.35,1.35,0,0,1-.47-.34,1.28,1.28,0,0,1-.2-.5.22.22,0,0,1,.27,0c.13.1.2.24.33.3a3.7,3.7,0,0,0,.4.2.14.14,0,0,1,.1.13"/></g><g id="g5750"><path id="path5752" class="cls-7" d="M29.4,34.19a1.26,1.26,0,0,0-.24-.4.65.65,0,0,0-.43-.2.76.76,0,0,0-.3,0,.73.73,0,0,0,0,.43c.07.17.1.24.23.3s.23.14.37.1a1.31,1.31,0,0,1,.26,0l-.33-.13a.84.84,0,0,1-.23-.2l.23.06c.13,0,.2,0,.27.07s.2,0,.2,0"/></g><g id="g5754"><path id="path5756" class="cls-7" d="M28.56,35.66a.18.18,0,0,0,.11-.17,2.58,2.58,0,0,0,0-.5.44.44,0,0,0-.24-.4,3.66,3.66,0,0,0-.53-.27.38.38,0,0,0-.13.24,2.77,2.77,0,0,0-.1.5v.26a.38.38,0,0,0,.13.14,1.18,1.18,0,0,1,.24.33l.13,0a.31.31,0,0,0,0-.17c0-.13.14,0,.1-.17a1.94,1.94,0,0,1,0-.4c0-.1.1,0,.13.07a1.38,1.38,0,0,1,0,.37.26.26,0,0,0,.1.2"/></g><g id="g5758"><path id="path5760" class="cls-7" d="M30.16,35.22s-.06,0-.2.07-.23.16-.2.27a1.56,1.56,0,0,0,.14.33L30,36a.59.59,0,0,0,.37,0,.49.49,0,0,0,.23-.17l0-.3v-.36a.19.19,0,0,0-.2.06c-.1.1-.17.14-.2.23s-.1-.09-.1-.09Z"/></g><g id="g5762"><path id="path5764" class="cls-7" d="M31.06,35a.54.54,0,0,0-.16.2c-.07.13-.24.33-.2.5a2.06,2.06,0,0,0,.13.53c.07.14.13.14.13.14a.59.59,0,0,0,.34-.14,4,4,0,0,0,.36-.36c.1-.1.17-.14.17-.27s0-.37,0-.37a.64.64,0,0,0-.1.2,1.53,1.53,0,0,1-.14.27s.07,0,0-.17a1.18,1.18,0,0,1-.06-.3s-.1-.1-.14.07a.69.69,0,0,1-.13.3l-.13.23a.42.42,0,0,1,0-.26,1.33,1.33,0,0,1,.2-.34Z"/></g><g id="g5766"><path id="path5768" class="cls-7" d="M31.93,35.16a.21.21,0,0,1,.17.13,1.4,1.4,0,0,0,.23.3s.2,0,.1-.1-.07-.23-.17-.3a.41.41,0,0,1-.13-.13l.17,0c.13,0,.2,0,.26.1s.14.17.24.33.2.34.09.44a.36.36,0,0,1-.33.13.6.6,0,0,1-.4-.2c-.1-.1-.16-.13-.2-.27a1.6,1.6,0,0,1,0-.3Z"/></g><g id="g5770"><path id="path5772" class="cls-7" d="M28.53,36s-.16,0-.16.1-.07.27,0,.37l.06.1a.19.19,0,0,0,.17-.1c0-.1.26,0,.2-.2a2.14,2.14,0,0,1-.1-.3.21.21,0,0,0-.1.16.76.76,0,0,1-.1.27l0-.17Z"/></g><g id="g5774"><path id="path5776" class="cls-7" d="M28,35.82a.46.46,0,0,0-.14-.23c-.1-.07-.2-.07-.3-.14l-.26-.13a.85.85,0,0,0,0,.4c.07.17.13.24.23.27s.17.13.13,0-.23-.27-.23-.27a.18.18,0,0,1,.17,0,.84.84,0,0,0,.33.16c.1,0,0-.1,0-.1"/></g><g id="g5778"><path id="path5780" class="cls-7" d="M27.37,36.19a.2.2,0,0,0-.07-.2.4.4,0,0,0-.33-.1c-.14,0-.17.07-.17.07a.14.14,0,0,0,.07.16l.26.2.07-.13Z"/></g><g id="g5782"><path id="path5784" class="cls-7" d="M27.6,36.46a.63.63,0,0,0-.23.16c-.14.13-.1.13-.1.27a4.09,4.09,0,0,0,0,.7.84.84,0,0,0,.29.4c.14.1.14.1.21,0a4,4,0,0,0,.13-.57.66.66,0,0,0,.13-.33v-.44c0-.23,0-.23-.1-.2s-.13.1-.13.27-.07.33-.07.5a1.37,1.37,0,0,1-.07.47c0,.06-.13,0-.1-.17a1.34,1.34,0,0,0,0-.4c0-.13.1-.2.1-.34a1,1,0,0,0-.06-.29"/></g><g id="g5786"><path id="path5788" class="cls-7" d="M26.43,36.72s0-.2-.2-.2a1.07,1.07,0,0,0-.43.1,1.21,1.21,0,0,1-.27,0,.65.65,0,0,1,.1.17l.14.27.33-.17a.33.33,0,0,1-.17-.07c-.1-.06,0,0,.17,0h.2Z"/></g><g id="g5790"><path id="path5792" class="cls-7" d="M25.57,37.15a.69.69,0,0,0-.3-.2c-.2-.06-.17-.23-.4-.16s-.37.13-.4.23a.67.67,0,0,1-.1.17s.06.2.17.2a2.36,2.36,0,0,1,.26,0,1,1,0,0,1,.27,0l.1,0L25,37.22s0,0,.14,0h.26Z"/></g><g id="g5794"><path id="path5796" class="cls-7" d="M25.73,37.59a2.76,2.76,0,0,1,.17.46,1.63,1.63,0,0,1,0,.54,1.74,1.74,0,0,1-.07.23.7.7,0,0,1-.33-.13c-.1-.1-.47-.37-.5-.47s-.17-.2-.13-.3.06-.2.13-.1.17.14.17.27.16.13.13,0l-.07-.23s-.13-.17,0-.17a.29.29,0,0,1,.27.17l.13.26c.07.14.17.07.13,0s-.1-.26-.1-.26l-.06-.2Z"/></g><g id="g5798"><path id="path5800" class="cls-7" d="M24.43,38.12c.11,0,.14.14.11.27s-.21.3-.24.46-.2.27-.3.37-.37,0-.47,0a.61.61,0,0,1-.23-.07,2.84,2.84,0,0,1,.07-.33c0-.14-.07-.17.06-.27s.14-.16.24-.23a.3.3,0,0,1,.23-.07c.1,0,.07.07,0,.17a1,1,0,0,0-.2.23.76.76,0,0,0-.1.23.57.57,0,0,0,.23-.16,2.7,2.7,0,0,1,.3-.27,2.77,2.77,0,0,1,.23-.2Z"/></g><g id="g5802"><path id="path5804" class="cls-7" d="M23.4,38s.17.1.13.2.07.3-.1.33-.26.13-.26,0a2,2,0,0,1,0-.33Z"/></g><g id="g5806"><path id="path5808" class="cls-7" d="M23.1,38.36c.07.13.1.16,0,.26a2.58,2.58,0,0,1-.63.3.4.4,0,0,1-.23,0v-.13l.3-.14a2,2,0,0,0,.36-.2Z"/></g><g id="g5810"><path id="path5812" class="cls-7" d="M23.27,37.82a.33.33,0,0,1-.17.27c-.13.1-.2.23-.33.3a2,2,0,0,0-.37.26c-.16.14-.13,0-.13,0a1.75,1.75,0,0,0,.1-.3,1.15,1.15,0,0,1,.17-.37.32.32,0,0,1,.23-.16l.33-.07Z"/></g><g id="g5814"><path id="path5816" class="cls-7" d="M22.67,37.76l-.2.13h-.4c-.14,0-.33,0-.4-.17s-.1-.2,0-.3a2.07,2.07,0,0,1,.64-.36c.13,0,.3,0,.4,0a3.71,3.71,0,0,1,.29.27c.11.06.27.16.27.23s-.2,0-.2,0a1.57,1.57,0,0,0-.4-.1c-.13,0-.23,0-.4,0a.67.67,0,0,0-.33.11.68.68,0,0,0,.23.06h.27Z"/></g><g id="g5818"><path id="path5820" class="cls-7" d="M23.2,37.26A.51.51,0,0,1,23,37a.71.71,0,0,1,0-.27s.17-.1.2,0,0,.14,0,.27Z"/></g><g id="g5822"><path id="path5824" class="cls-7" d="M23.84,37.42a.52.52,0,0,1,.16-.1.47.47,0,0,1,.33.1.26.26,0,0,1,.1.2l-.13,0-.2-.07.07.2-.17.07a.35.35,0,0,0-.06-.13.88.88,0,0,1-.1-.24"/></g><g id="g5826"><path id="path5828" class="cls-5" d="M22.77,29.23a1.93,1.93,0,0,1,.46.13c.24.1,1.7.73,2.07.87a4.45,4.45,0,0,1,1.13.53c.1.13-.1.23-.16.37a.32.32,0,0,1-.17.16l-1.4-.56A17,17,0,0,1,23.17,30c-.2-.13-.33-.13-.37-.33a3.4,3.4,0,0,1,0-.43"/></g><g id="g5830"><path id="path5832" class="cls-5" d="M17.91,37.09a25,25,0,0,1,2.53-1.47l1.23-.56c.23-.1,1-.4,1.33-.5a2.71,2.71,0,0,1,1-.17c.1.07.1.37.27.27a5.91,5.91,0,0,0,.6-.77,3,3,0,0,1,.83-.63c.23-.1.8-.27,1-.37s.26-.16.16-.33a1.85,1.85,0,0,1-.16-.4s-.1.07-.14,0a1.76,1.76,0,0,0-.06-.17s-.1.13-.07.23a3.62,3.62,0,0,0,.2.4.55.55,0,0,1-.3-.13.42.42,0,0,1-.17-.3,1.61,1.61,0,0,0-.36.16,4,4,0,0,0-.74.5c-.16.2-.46.37-.56.54s-.24.46-.44.46-.5-.13-.76,0l-2.17.73-2.93,1.14c-.67.26-1.57.56-1.53.73s.47.5.77.9.53,1,.66,1,.14-.1.07-.3a2.65,2.65,0,0,0-.27-.5c-.1-.17-.1-.23,0-.4"/></g><g id="g5834"><path id="path5836" class="cls-5" d="M18.27,37.49c-.08-.09-.1-.2.07-.34s1.53-1,1.83-1.16a5.25,5.25,0,0,1,1.13-.6c.2,0,.2.07.1.13s-.83.44-1.2.7-1.23.87-1.43,1.07-.37.33-.5.2"/></g><g id="g5838"><path id="path5840" class="cls-5" d="M26.13,27.09c.23-.07.34.14.54.2s.33.07.36.17-.3,0-.5-.06l-.43-.17c-.13-.07-.07-.1,0-.14"/></g><g id="g5842"><path id="path5844" class="cls-3" d="M26.13,27.09c.23-.07.34.14.54.2s.33.07.36.17-.3,0-.5-.06l-.43-.17C26,27.16,26,27.13,26.13,27.09Z"/></g><g id="g5846"><path id="path5848" class="cls-5" d="M27.5,27.19c.2,0,.43.14.63.17a3,3,0,0,1,.63.17c.14.06.1.06-.16.06a2.91,2.91,0,0,1-.8-.13c-.23-.06-.4-.06-.4-.17a.1.1,0,0,1,.1-.1"/></g><g id="g5850"><path id="path5852" class="cls-3" d="M27.5,27.19c.2,0,.43.14.63.17a3,3,0,0,1,.63.17c.14.06.1.06-.16.06a2.91,2.91,0,0,1-.8-.13c-.23-.06-.4-.06-.4-.17A.1.1,0,0,1,27.5,27.19Z"/></g><g id="g5854"><path id="path5856" class="cls-5" d="M19.17,16.3a1,1,0,0,1,.6.2c.27.17,1.17.83,1.53,1.07s1.17.8,1.54,1a4.35,4.35,0,0,1,.86.6c.14.17.14.3-.07.2a11.56,11.56,0,0,1-1.23-.8c-.23-.2-1.2-.93-1.63-1.2l-1-.67c-.27-.16-.44-.23-.5-.33Z"/></g><g id="g5858"><path id="path5860" class="cls-3" d="M19.17,16.3a1,1,0,0,1,.6.2c.27.17,1.17.83,1.53,1.07s1.17.8,1.54,1a4.35,4.35,0,0,1,.86.6c.14.17.14.3-.07.2a11.56,11.56,0,0,1-1.23-.8c-.23-.2-1.2-.93-1.63-1.2l-1-.67c-.27-.16-.44-.23-.5-.33Z"/></g><g id="g5862"><path id="path5864" class="cls-5" d="M23.14,19.43c-.14-.06-.27-.16-.37-.2s-.17.1,0,.17a2,2,0,0,0,.29.1c.07,0,.11-.07.11-.07"/></g><g id="g5866"><path id="path5868" class="cls-3" d="M23.14,19.43c-.14-.06-.27-.16-.37-.2s-.17.1,0,.17a2,2,0,0,0,.29.1C23.1,19.53,23.14,19.43,23.14,19.43Z"/></g><g id="g5870"><path id="path5872" class="cls-5" d="M24.6,18.9a.93.93,0,0,1,.37.37c.06.13,0,.2-.14.06s-.26-.13-.33-.26.1-.17.1-.17"/></g><g id="g5874"><path id="path5876" class="cls-3" d="M24.6,18.9a.93.93,0,0,1,.37.37c.06.13,0,.2-.14.06s-.26-.13-.33-.26S24.6,18.9,24.6,18.9Z"/></g><g id="g5878"><path id="path5880" class="cls-5" d="M22.7,18a.5.5,0,0,0-.23-.3c-.14-.1-.4-.1-.27,0a1.29,1.29,0,0,0,.37.27Z"/></g><g id="g5882"><path id="path5884" class="cls-3" d="M22.7,18a.5.5,0,0,0-.23-.3c-.14-.1-.4-.1-.27,0a1.29,1.29,0,0,0,.37.27Z"/></g><g id="g5886"><path id="path5888" class="cls-5" d="M23.9,18.23a11.18,11.18,0,0,0-1.13-1c-.33-.23-1.13-.77-1.4-.94a4.9,4.9,0,0,0-1.07-.56,1.73,1.73,0,0,0-.7-.13c-.1,0,.14.1.4.19s.87.44,1.17.6,1.16.74,1.43.94.74.63,1,.8.2,0,.33.06"/></g><g id="g5890"><path id="path5892" class="cls-3" d="M23.9,18.23a11.18,11.18,0,0,0-1.13-1c-.33-.23-1.13-.77-1.4-.94a4.9,4.9,0,0,0-1.07-.56,1.73,1.73,0,0,0-.7-.13c-.1,0,.14.1.4.19s.87.44,1.17.6,1.16.74,1.43.94.74.63,1,.8S23.77,18.13,23.9,18.23Z"/></g><g id="g5894"><path id="path5896" class="cls-5" d="M24.87,18.37a8.76,8.76,0,0,0-1-.84c-.3-.2-.63-.46-1-.69s-.7-.47-.9-.57A1.84,1.84,0,0,0,21.4,16c-.13,0,0,.1.1.17s.63.33.87.5.83.53,1.1.73l.76.6a5.53,5.53,0,0,0,.44.34.21.21,0,0,0,.2,0"/></g><g id="g5898"><path id="path5900" class="cls-5" d="M25.5,18.23a2,2,0,0,0-.33-.36c-.1-.1-.2-.07-.1,0s.13.2.26.33.17,0,.17,0"/></g><g id="g5902"><path id="path5904" class="cls-5" d="M24.57,17.3c-.17-.1-.54-.4-.87-.6s-.76-.5-1.06-.67-.74-.26-.67-.33.33,0,.6.14a8.24,8.24,0,0,1,1,.59c.27.17.63.47.77.57a.75.75,0,0,1,.2.3"/></g><g id="g5906"><path id="path5908" class="cls-3" d="M24.57,17.3c-.17-.1-.54-.4-.87-.6s-.76-.5-1.06-.67-.74-.26-.67-.33.33,0,.6.14a8.24,8.24,0,0,1,1,.59c.27.17.63.47.77.57A.75.75,0,0,1,24.57,17.3Z"/></g><g id="g5910"><path id="path5912" class="cls-5" d="M25.63,17.67A7.16,7.16,0,0,0,24.9,17c-.23-.2-.5-.4-.53-.33s.2.23.36.4.5.4.64.53.33.34.4.27-.14-.2-.14-.2"/></g><g id="g5914"><path id="path5916" class="cls-5" d="M26,17.3c0-.24-.4-.43-.57-.6a2.21,2.21,0,0,0-.46-.4c-.14-.06-.34-.17-.3-.06a1.86,1.86,0,0,0,.43.43,7.54,7.54,0,0,1,.63.46c.1.14.27.34.27.17"/></g><g id="g5918"><path id="path5920" class="cls-5" d="M29.93,16.37a.59.59,0,0,1,.43.16.49.49,0,0,1,.07.44.5.5,0,0,1-.43.26c-.2,0-.34,0-.17-.1s.43-.1.47-.23a.25.25,0,0,0-.2-.33c-.2,0-.27-.2-.17-.2"/></g><g id="g5922"><path id="path5924" class="cls-5" d="M33.15,30.34l1.43-.56a2.4,2.4,0,0,1-.82-.12,4.44,4.44,0,0,1-.61-.41s.45.74.25.74a2,2,0,0,1-.52-.12Z"/></g><g id="g5926"><path id="path5928" class="cls-8" d="M24,28.09l1.26-.4.67.27a8.44,8.44,0,0,0,1,.27l.87.2a2,2,0,0,0,.19.26,1.27,1.27,0,0,1,.31.47c.06.2.23.5.26.63s.1.3,0,.4a5.83,5.83,0,0,1-.8.34l-4-1.57a1,1,0,0,0,.1-.33c0-.17.12-.54.12-.54"/></g><g id="g5930"><path id="path5932" class="cls-4" d="M24.75,28.25l.26.12.25-.12,0,.28.21.23h-.3L25,29l-.14-.25-.27,0,.19-.19Z"/></g><g id="g5934"><path id="path5936" class="cls-4" d="M26,28.74l.26.12.25-.13,0,.28.2.23h-.29l-.12.25-.13-.26-.27,0,.19-.2Z"/></g><g id="g5938"><path id="path5940" class="cls-4" d="M27.25,29.39l.26.12.25-.12,0,.28.21.23h-.3l-.12.26-.13-.26-.28,0,.2-.19Z"/></g><g id="g5942"><path id="path5944" class="cls-8" d="M20.54,31.66l1.09-.4a2.84,2.84,0,0,0,.77-.47l.6-.45a10.17,10.17,0,0,0,1,.52c.33.13,1.6.7,1.6.7l-2.93,1.3.2.2,3-1.33.2.13-3.13,1.53Z"/></g><g id="g5946"><path id="path5948" class="cls-4" d="M23.92,31.3l.26.12.25-.12,0,.28.2.23H24.3l-.12.26-.13-.26-.28,0,.2-.19Z"/></g><g id="g5950"><path id="path5952" class="cls-4" d="M22.59,32l.26.12.24-.12,0,.27.2.24H23l-.12.25-.13-.25-.28,0,.2-.19Z"/></g><g id="g5954"><path id="path5956" class="cls-4" d="M22.79,30.7l.26.12.24-.12,0,.28.2.23h-.29l-.12.25-.13-.25-.28,0,.2-.19Z"/></g><g id="g5958"><path id="path5960" class="cls-4" d="M21.76,31.37l.25.12.25-.13,0,.29.21.22h-.29l-.12.25-.13-.26-.28,0,.19-.19Z"/></g><g id="g5962"><path id="path5964" class="cls-8" d="M23.47,27.63s.47,0,.76-.1a3.37,3.37,0,0,0,.47-.14l.23.14-.56.13c-.34.07-.72.17-.72.17s0,.26-.1.5-.12.5-.12.5l-.23-.07a2,2,0,0,0,.14-.52,3.16,3.16,0,0,1,.13-.61"/></g><g id="g5966"><path id="path5968" class="cls-8" d="M22.57,29.83a2.75,2.75,0,0,1-.42.53,3.29,3.29,0,0,1-.87.55,8.27,8.27,0,0,1-.84.28c-.25,0-.5.12-.5.12l-.1.92L22.1,34l.82-.25-2.63-1.88,0,.52-.18-.15.05-.65.75-.25a5.39,5.39,0,0,0,1.23-.65l.6-.58Z"/></g><g id="g5970"><path id="path5972" class="cls-8" d="M24.73,35l1,.52c.25.13.86.4.86.4a.91.91,0,0,0,.17.27l.35.21a1.61,1.61,0,0,0-.35.14l-.25.16s.05,0,0-.15a.54.54,0,0,0-.37-.16,1,1,0,0,0-.27.05L25,36c-.5-.27-1.38-.83-1.38-.83a3.21,3.21,0,0,1,.52,0,.62.62,0,0,0,.4,0,.68.68,0,0,1,.21-.07"/></g><g id="g5974"><path id="path5976" class="cls-8" d="M28.18,36.62s.57.15,1.07.23a24.33,24.33,0,0,0,2.53.19,16.31,16.31,0,0,0,2.91-.33,10.79,10.79,0,0,0,1.3-.47l.29.23,0,.34a9.34,9.34,0,0,1-1.4.51,20.88,20.88,0,0,1-3.23.35,25,25,0,0,1-2.68-.21,6,6,0,0,1-.86-.19,1,1,0,0,0,.08-.23,2.14,2.14,0,0,0,0-.32.58.58,0,0,1,0-.1"/></g><g id="g5978"><path id="path5980" class="cls-8" d="M34.83,30.08s.58,1,.75,1.33a16.83,16.83,0,0,1,.66,1.68,9.64,9.64,0,0,1,.3,1,3.42,3.42,0,0,1,.05.34l-.26-.1a7.25,7.25,0,0,0-.39-1.48A22.47,22.47,0,0,0,35,30.74l-.31-.6Z"/></g><g id="g5982"><path id="path5984" class="cls-5" d="M30.88,34.73l.07.16a.83.83,0,0,1-.12.13c-.07.07-.08,0-.2,0l-.6.13a3,3,0,0,0-.63.22,2.79,2.79,0,0,0-.45.25c-.1.08-.53.2-.74.35s-.53.25-.83.43-.86.58-1.18.73-.52.24-.9.39-.5.17-.62.15,0-.07.24-.15.31-.09.65-.25l.9-.48.85-.49,1.15-.6a6.28,6.28,0,0,1,.81-.48c.25-.07.44-.17.55-.2s.35,0,.54-.1l.38-.13.13-.08"/></g><g id="g5986"><path id="path5988" class="cls-4" d="M26.73,33.44a.53.53,0,0,1,.09.25.35.35,0,0,1-.1.27.42.42,0,0,1-.2,0l-.07,0,.13,0c.05,0,0-.08,0-.08a.29.29,0,0,1-.21-.1,1.51,1.51,0,0,1-.14-.17,1.27,1.27,0,0,1,.25-.09l.3,0"/></g><g id="g5990"><path id="path5992" class="cls-2" d="M26,33.66a.44.44,0,0,0,.12.13.71.71,0,0,0,.24.13l.09,0,.13.07a.9.9,0,0,1-.31,0,.84.84,0,0,1-.37-.13s-.15-.1-.12-.15a.93.93,0,0,1,.22-.13"/></g><g id="g5994"><path id="path5996" class="cls-5" d="M23.42,37.67s0,.15.11.19a.8.8,0,0,0,.39,0,1.33,1.33,0,0,0,.3-.07,1.9,1.9,0,0,1,.5,0,.76.76,0,0,0-.22.1,1.26,1.26,0,0,1-.36.12,2.33,2.33,0,0,1-.41,0c-.12,0-.31,0-.35-.13s0-.15,0-.15Z"/></g><g id="g5998"><path id="path6000" class="cls-4" d="M32.78,29.74s.56.29.62.25,0-.14-.08-.3-.36-.6-.36-.6a1.65,1.65,0,0,0-.31-.37c-.11-.07.16,0,.25.15a5.41,5.41,0,0,0,.77.6,1,1,0,0,0,.45.18c.13,0,.26.06.11-.09s-.49-.47-.62-.58a1.16,1.16,0,0,1-.34-.44c-.07-.18,0-.18,0-.07s.33.25.53.45.38.49.51.53a3,3,0,0,0,.38.09,1.05,1.05,0,0,1,.42.22,1.72,1.72,0,0,0,.27.18h-.2l-.22-.1a2.18,2.18,0,0,0-.38-.18,2.68,2.68,0,0,1-.27-.09s.11.11,0,.13a1,1,0,0,1-.49,0,1.49,1.49,0,0,1-.49-.24c-.09-.09-.25-.23-.23-.18s.14.23.21.38.15.31.11.36a.83.83,0,0,1-.42,0L32.76,30Z"/></g><g id="g6002"><path id="path6004" class="cls-2" d="M34.16,30.36l.73.49s-.11-.25-.2-.4a1.63,1.63,0,0,0-.15-.25Z"/></g><g id="g6006"><path id="path6008" class="cls-4" d="M18.6,41.91h-.3V40.24l.08,0,.22,0Z"/></g><g id="g6010"><path id="path6012" class="cls-4" d="M22.2,40.54l0,.21h-.3l-.13-.17-.21-.08h-.26l-.21.21-.09.56.13.26.17.21h.34l.26-.34h.26l0,.08-.17.3-.34.26-.52,0-.3-.26-.21-.47.08-.52.13-.3.39-.21.13,0,.42,0Z"/></g><g id="g6014"><path id="path6016" class="cls-4" d="M20,41.27v0h0l0-1.07h.3V42h-.34l-.69-1.11,0,.13,0,.94-.17,0H19V40.24h.34Z"/></g><g id="g6018"><path id="path6020" class="cls-4" d="M34.57,40.54v.08l-.42.05-.09.6,0,.81-.22.05h0l0-1.42-.3-.09h-.17v-.25h1.28Z"/></g><g id="g6022"><path id="path6024" class="cls-4" d="M36.12,40.67l-.9,0,0,.26,0,.08.77.09v.21h-.77l0,.3v.13l.3.09h.65v.26H34.87V40.45l.09-.08,1.16.08Z"/></g><g id="g6026"><path id="path6028" class="cls-4" d="M23.61,40.58l-.34-.08-.26.08-.13.22v.6l.22.3.34,0,.25-.21.09-.69Zm.39,0,.17.39-.13.64-.22.3-.3.17L23,42l-.34-.26-.17-.47,0-.52.21-.34.35-.17.12,0,.43,0Z"/></g><g id="g6030"><path id="path6032" class="cls-4" d="M25.41,40.58h-.56V41h.56l.13-.26Zm.47,0,0,.35-.17.21.13.26.08.6h-.3l-.13-.64-.26-.09H24.9l-.09.22V42l-.22.09-.12,0,0-1.72,0,0,1.12.09Z"/></g><g id="g6034"><path id="path6036" class="cls-4" d="M27.12,40.62l-.51,0v.13l0,.39H27l.17-.13v-.22Zm.39,0,0,.35-.09.25-.21.17-.56,0h-.08l0,.34V42h-.3V40.33l.08,0,1,.09Z"/></g><g id="g6038"><path id="path6040" class="cls-4" d="M28.83,40.58h-.34l-.17.09-.13.26v.51l.17.3.3,0,.26-.08.17-.43,0-.43Zm.39-.08.22.38-.05.6-.13.3-.38.3h-.52l-.29-.21-.22-.39v-.64l.22-.34.34-.22.08,0,.52.09Z"/></g><g id="g6042"><path id="path6044" class="cls-4" d="M30.76,40.67l-.55,0-.05,0v.13l.05.3h.47l.17-.13v-.22Zm.3-.22.13.18V41l-.21.26.12.21.09.6h-.34l0-.55-.18-.13h-.47l-.08.64h-.26V40.33l1,0Z"/></g><g id="g6046"><path id="path6048" class="cls-4" d="M32.43,41.44l-.17-.6-.17.43v.17Zm0-1.07L33,42.13l-.25-.05L32.65,42l0-.17-.12,0H32l-.21.34h-.3l.47-1.33.13,0H32l.09-.3.17,0h.26Z"/></g><g id="g6050"><path id="path6052" class="cls-4" d="M37.31,40.71h-.47l0,1.11.22,0,.38-.09.13-.17V41Zm.56.09.05.64-.18.43-.3.26-.94,0V40.45l0,0,1,.09Z"/></g><g id="g6054"><path id="path6056" class="cls-4" d="M29.56,44.52,28.79,46l-.3,0h-.13v-.13l.56-1v-.08l-.3,0h-.26l-.08-.22.08-.17,1.2,0Z"/></g><g id="g6058"><path id="path6060" class="cls-4" d="M25.67,46V44.82l-.26,0,0-.17.56-.22V46Z"/></g><g id="g6062"><path id="path6064" class="cls-4" d="M30.59,46l-.17,0h-.13l0-.3,0-.77-.08-.09L30,44.78v-.09l.6-.25,0,.13Z"/></g><g id="g6066"><path id="path6068" class="cls-4" d="M27.34,45.38l-.13,0-.13.12,0,.18.21.08.13-.08v-.13Zm0-.69-.17,0-.09,0v.17l.17.09.09-.09,0-.08Zm.42,0v.22l-.12.17.17.38-.09.35-.3.21H27l-.17-.08-.21-.3,0-.26.17-.26-.13-.26,0-.34.25-.17h.26l.34.09Z"/></g></g></g></svg>