<svg id="Слой_1" data-name="Слой 1" xmlns="http://www.w3.org/2000/svg" viewBox="0 0 56.69 56.69"><defs><style>.cls-1{fill:#231f20;}.cls-2{fill:#0d68b1;}</style></defs><g id="surface1"><path class="cls-1" d="M6,49.8V48.29H7.8V38.93H6v-3l2.67,0,2.67,0,2.1,3.9,2.36,4.37.26.46V38.93H14.34v-3h7v3H19.53V51.31l-3.47-.06L14,47.36c-1.17-2.15-2.21-4.07-2.31-4.27l-.2-.36v5.56H13v3H6Z"/><path class="cls-1" d="M24.92,49.8V48.29h2.39l0-4.65,0-4.66-.86,0-.86,0v2.82H22.43L22.48,36l6.77,0,6.78,0v5.83H33V38.93H31.25v9.36h2.29v3H24.92Z"/><path class="cls-1" d="M39.66,49.8V48.29h2.28V38.93H40.18v2.81h-3V35.92H50.66v5.82h-3V38.93H45.89v9.36h2.28v3H39.66Z"/></g><path class="cls-2" d="M32.38,5.38a10.9,10.9,0,0,0-3.65.6l-.4.16L28.08,6a9.28,9.28,0,0,0-2-.52,11.35,11.35,0,0,0-3.19,0,12.19,12.19,0,0,0-8.66,7A16.69,16.69,0,0,0,13.7,25a15.05,15.05,0,0,0,5.84,7.17,16.4,16.4,0,0,0,7.94,2.68,15.62,15.62,0,0,0,8.06-1.75,15.5,15.5,0,0,0,4.08-2.94,13.63,13.63,0,0,0,2.88-4,14.47,14.47,0,0,0,1.35-4.34,22.61,22.61,0,0,0,0-4.93,15.33,15.33,0,0,0-1.41-4.6,12,12,0,0,0-8.86-6.79A8.38,8.38,0,0,0,32.38,5.38ZM24.73,9l-.4.44a9.6,9.6,0,0,0-1.95,3.35,7,7,0,0,0,1.55,7.45,6.46,6.46,0,0,0,7.36,1.05,6.63,6.63,0,0,0,3.36-7.37,9.5,9.5,0,0,0-2.19-4.39,3.51,3.51,0,0,1-.41-.49,2.42,2.42,0,0,1,.63,0A7.06,7.06,0,0,1,37.2,11.3a10.64,10.64,0,0,1,2.92,5.89,18,18,0,0,1,0,4.08A11.64,11.64,0,0,1,37.43,27a12,12,0,0,1-7.78,4,12.1,12.1,0,0,1-10.46-4.14A11.53,11.53,0,0,1,16.49,20c-.3-4.47,1.81-8.62,5.24-10.31A5.47,5.47,0,0,1,24.08,9Zm3.65,1A6.92,6.92,0,0,1,30,11.63c.15.24.39.65.52.92,1.24,2.48.55,5.24-1.42,5.73a2.58,2.58,0,0,1-2.63-.72,3.34,3.34,0,0,1-.83-2.46,5.36,5.36,0,0,1,.68-2.7,7.24,7.24,0,0,1,.6-1A5.79,5.79,0,0,1,28.38,10Z"/></svg>