<svg id="Слой_1" data-name="Слой 1" xmlns="http://www.w3.org/2000/svg" xmlns:xlink="http://www.w3.org/1999/xlink" viewBox="0 0 56.69 56.69"><defs><style>.cls-1{fill:url(#Безымянный_градиент_6);}.cls-2{fill:url(#Безымянный_градиент_3);}.cls-3{fill:url(#Безымянный_градиент_5);}.cls-4{fill:url(#Безымянный_градиент_4);}.cls-5{fill:url(#Безымянный_градиент_5-2);}</style><linearGradient id="Безымянный_градиент_6" x1="-6.36" y1="87.16" x2="-6.36" y2="70.71" gradientTransform="matrix(2.88, 0, 0, -2.88, 57.2, 252.45)" gradientUnits="userSpaceOnUse"><stop offset="0" stop-color="#fbb811"/><stop offset="0.17" stop-color="#ef8508"/><stop offset="0.31" stop-color="#e15e10"/><stop offset="0.43" stop-color="#da4614"/><stop offset="0.5" stop-color="#d83c15"/></linearGradient><linearGradient id="Безымянный_градиент_3" x1="-9.32" y1="86.58" x2="-18.04" y2="74.14" gradientTransform="matrix(2.88, 0, 0, -2.88, 57.2, 252.45)" gradientUnits="userSpaceOnUse"><stop offset="0" stop-color="#801710"/><stop offset="0.6" stop-color="#c82327"/><stop offset="0.73" stop-color="#c23a5a"/><stop offset="0.85" stop-color="#be4c82"/><stop offset="0.94" stop-color="#b9589a"/><stop offset="1" stop-color="#b75c9f"/></linearGradient><linearGradient id="Безымянный_градиент_5" x1="-9.15" y1="86.83" x2="-10.99" y2="84.2" gradientTransform="matrix(2.88, 0, 0, -2.88, 57.2, 252.45)" gradientUnits="userSpaceOnUse"><stop offset="0" stop-color="#010101" stop-opacity="0.4"/><stop offset="1" stop-color="#010101" stop-opacity="0"/></linearGradient><linearGradient id="Безымянный_градиент_4" x1="-13.78" y1="71.32" x2="-2.4" y2="71.32" gradientTransform="matrix(2.88, 0, 0, -2.88, 57.2, 252.45)" gradientUnits="userSpaceOnUse"><stop offset="0" stop-color="#e73347"/><stop offset="0.6" stop-color="#a51916"/></linearGradient><linearGradient id="Безымянный_градиент_5-2" x1="-6.05" y1="71.06" x2="-11.14" y2="71.5" xlink:href="#Безымянный_градиент_5"/></defs><path class="cls-1" d="M30.27,4.36l3.67,8.39V41.93L30.33,52.32,44,48.43a4.88,4.88,0,0,0,3.54-4.69V13A4.88,4.88,0,0,0,44,8.25Z"/><path class="cls-2" d="M13,41.62l4-2.16a3.48,3.48,0,0,0,1.8-3.06V20.69a3.52,3.52,0,0,1,2.3-3.28l12.89-4.66V9.21a5.05,5.05,0,0,0-3.67-4.85,4.94,4.94,0,0,0-1.38-.19,5.14,5.14,0,0,0-2.51.66L11.62,13.25a4.88,4.88,0,0,0-2.46,4.24V39.36a2.56,2.56,0,0,0,2.56,2.57A2.53,2.53,0,0,0,13,41.62Z"/><path class="cls-3" d="M13,41.62l4-2.16a3.48,3.48,0,0,0,1.8-3.06V20.69a3.52,3.52,0,0,1,2.3-3.28l12.89-4.66V9.21a5.05,5.05,0,0,0-3.67-4.85,4.94,4.94,0,0,0-1.38-.19,5.14,5.14,0,0,0-2.51.66L11.62,13.25a4.88,4.88,0,0,0-2.46,4.24V39.36a2.56,2.56,0,0,0,2.56,2.57A2.53,2.53,0,0,0,13,41.62Z"/><path class="cls-4" d="M33.94,41.93H18.7a2.57,2.57,0,0,0-1.27,4.8l9.08,5.15a4.9,4.9,0,0,0,2.45.64,4.54,4.54,0,0,0,1.37-.2,5,5,0,0,0,3.61-4.79Z"/><path class="cls-5" d="M33.94,41.93H18.7a2.57,2.57,0,0,0-1.27,4.8l9.08,5.15a4.9,4.9,0,0,0,2.45.64,4.54,4.54,0,0,0,1.37-.2,5,5,0,0,0,3.61-4.79Z"/></svg>