<svg id="Слой_1" data-name="Слой 1" xmlns="http://www.w3.org/2000/svg" viewBox="0 0 56.69 56.69"><defs><style>.cls-1{fill:#c51627;}</style></defs><g id="_c50124ff" data-name="#c50124ff"><path class="cls-1" d="M22.68,17.91a7.44,7.44,0,0,1,9.46-.34,5.32,5.32,0,0,1,2,4.81,6.73,6.73,0,0,1-3,4.62c.79,0,1.58,0,2.38,0,.31-.39.49-1.11,1.14-1-.34.65-.68,1.3-1,1.94C32,28,30.4,28,28.8,28a11.28,11.28,0,0,0,2.68-3A6,6,0,0,0,31,18.13a4.65,4.65,0,0,0-6.43-.34,5.15,5.15,0,0,0-1.66,4,6.89,6.89,0,0,0,1.77,4.47c.51.62,1.15,1.12,1.71,1.69-1.6.08-3.2,0-4.8,0-.33-.65-.68-1.29-1-1.94.67-.17.82.6,1.16,1h2.34a7.17,7.17,0,0,1-2.75-3.62A5.37,5.37,0,0,1,22.68,17.91Z"/><path class="cls-1" d="M48.43,30.29c1.74,3.32,3.39,6.7,5.12,10v0H51.94c-.33-.65-.66-1.3-1-2h-5c-.34.65-.66,1.31-1,2H43.31c1.74-3.35,3.42-6.72,5.12-10.08M46.63,37c1.21,0,2.42,0,3.62,0-.6-1.19-1.18-2.38-1.82-3.55C47.83,34.64,47.25,35.83,46.63,37Z"/><path class="cls-1" d="M3.73,33.3A5,5,0,1,1,7.9,40.57a5,5,0,0,1-4.75-4.71v-.47a5.44,5.44,0,0,1,.58-2.09M7,32.21a3.63,3.63,0,0,0-1.8,5.4,3.54,3.54,0,0,0,5.11.83,3.68,3.68,0,0,0,.55-5.12A3.54,3.54,0,0,0,7,32.21Z"/><path class="cls-1" d="M13.38,40.34c1.11-3.2,2-6.5,3.13-9.69.94,2.14,1.87,4.29,2.75,6.45.95-2.17,1.9-4.34,2.78-6.55,1.08,3.26,2.07,6.54,3.11,9.81H23.66c-.63-1.91-1.17-3.86-1.82-5.77-.82,2-1.7,4-2.58,6.06-.84-2-1.7-4-2.59-6-.57,1.91-1.18,3.82-1.76,5.73C14.4,40.37,13.89,40.37,13.38,40.34Z"/><path class="cls-1" d="M37.26,30.8a5.08,5.08,0,0,1,5.34,1.93l-1.17.84a3.55,3.55,0,0,0-4.2-1.3,3.61,3.61,0,0,0-2.1,4.36,3.47,3.47,0,0,0,3.54,2.54,3.56,3.56,0,0,0,3.27-2.53c-1.12,0-2.23,0-3.35,0,0-.46,0-.92,0-1.39h4.89A5.14,5.14,0,0,1,42,39.17a4.93,4.93,0,0,1-5,1.18,5,5,0,0,1,.26-9.55Z"/><path class="cls-1" d="M26.34,30.84h5.81c0,.46,0,.93,0,1.39-1.45,0-2.9,0-4.35,0,0,.89,0,1.79,0,2.68H32v1.4c-1.41,0-2.82,0-4.22,0,0,.89,0,1.78,0,2.67,1.45,0,2.9,0,4.35,0,0,.46,0,.92,0,1.38-1.93,0-3.87,0-5.81,0Z"/></g></svg>