<svg id="Слой_1" data-name="Слой 1" xmlns="http://www.w3.org/2000/svg" viewBox="0 0 56.69 56.69"><defs><style>.cls-1{fill:#c84834;}</style></defs><path class="cls-1" d="M24.74,29.39h3.53l-1.86-3L23,31.82H21.42l4.17-6.53A1,1,0,0,1,27,25.05a.76.76,0,0,1,.24.23l4.18,6.54H29.83L29.1,30.6H25.53l-.78-1.21M41,30.6V24.93H39.62v6.23a.63.63,0,0,0,.2.46.62.62,0,0,0,.48.2h6l.79-1.21H40.94m-21.9-1a2.33,2.33,0,0,0,0-4.66H13.25v6.89h1.32V26.15H19a1.12,1.12,0,1,1,0,2.23H15.23l3.95,3.44H21.1l-2.65-2.23H19M5.12,31.82h4a3.44,3.44,0,0,0,0-6.88h-4a3.44,3.44,0,0,0-.18,6.88h.18M9,30.61H5.21a2.23,2.23,0,0,1,0-4.46H9a2.23,2.23,0,0,1,.14,4.46H9m25.12,1.21h4.09L39,30.61H34.24a2.23,2.23,0,0,1-.14-4.46h4l.79-1.21H34.15A3.44,3.44,0,1,0,34,31.82h.17m16.19-1.21A2.24,2.24,0,0,1,48.19,29h5.66l.78-1.22H48.19a2.23,2.23,0,0,1,2.15-1.62h3.88L55,24.93H50.25a3.45,3.45,0,0,0,0,6.89h4.08l.78-1.22H50.33"/></svg>