<svg id="Слой_1" data-name="Слой 1" xmlns="http://www.w3.org/2000/svg" viewBox="0 0 56.69 56.69"><defs><style>.cls-1{fill:#ef781c;}.cls-2{fill:#fff;}</style></defs><rect class="cls-1" x="-0.39" y="-0.47" width="57.79" height="57.79"/><path class="cls-2" d="M22.27,51.71a4.79,4.79,0,0,1-2.65.8,2.22,2.22,0,0,1-2.38-2.35c0-1.79,1.65-2.75,5.05-3.13v-.45c0-.59-.45-.92-1.26-.92a2.42,2.42,0,0,0-2,.92l-1.43-.82a4,4,0,0,1,3.43-1.57c2.1,0,3.28.92,3.28,2.39v5.83H22.48ZM19.3,50a1,1,0,0,0,.95,1,2.93,2.93,0,0,0,2-.85v-1.9C20.23,48.57,19.3,49.06,19.3,50Z"/><path class="cls-2" d="M26,44.6l1.75-.24.19,1a4.59,4.59,0,0,1,2.77-1.1c1.65,0,2.51.88,2.51,2.61v5.61H31.1V47.19c0-1-.27-1.43-1-1.43a3.08,3.08,0,0,0-2,.9v5.77H26V44.6Z"/><path class="cls-2" d="M47.24,52.57c-2.36,0-3.79-1.53-3.79-4.18s1.43-4.2,3.75-4.2,3.71,1.47,3.71,4.1c0,.14,0,.28,0,.41H45.53c0,1.53.65,2.28,1.89,2.28a2,2,0,0,0,1.82-1l1.55.86A3.82,3.82,0,0,1,47.24,52.57Zm1.59-5.24a1.53,1.53,0,0,0-1.61-1.71c-1,0-1.55.61-1.63,1.71Z"/><path class="cls-2" d="M6.72,52.65c-2.1,0-4-1.32-4-4.24a3.85,3.85,0,0,1,4-4.24c2.1,0,4,1.33,4,4.24S8.82,52.65,6.72,52.65Zm0-6.7c-1.57,0-1.88,1.42-1.88,2.44s.29,2.45,1.88,2.45,1.87-1.43,1.87-2.45S8.29,46,6.72,46Z"/><path class="cls-2" d="M12.14,44.38h2v.93a3.12,3.12,0,0,1,2.22-1.12,1.27,1.27,0,0,1,.27,0v2h-.11c-.91,0-1.93.14-2.24.86v5.34H12.14Z"/><path class="cls-2" d="M38.39,50.69C40,50.67,40.13,49,40.13,48c0-1.26-.61-2.28-1.76-2.28-.75,0-1.61.55-1.61,2.37C36.78,49.06,36.85,50.69,38.39,50.69Zm3.8-6.33V52c0,1.34-.11,3.55-3.94,3.59-1.59,0-3-.64-3.34-2L37,53.24c.08.39.32.8,1.51.8s1.63-.53,1.63-1.78v-.93l0,0A2.13,2.13,0,0,1,38,52.47c-1.88,0-3.34-1.31-3.34-4s1.52-4.2,3.24-4.2,2.2.74,2.34,1.12h0l.18-.95h1.76Z"/></svg>