<svg id="Слой_1" data-name="Слой 1" xmlns="http://www.w3.org/2000/svg" viewBox="0 0 56.69 56.69"><defs><style>.cls-1{fill:#274671;}.cls-2{fill:#8a8a89;}</style></defs><path id="path22" class="cls-1" d="M40.15,13.38l-2.88,5h-3l-3.57,6.19h3l-2.29,4h7.43a13.44,13.44,0,0,0,1.3-15.16"/><path id="path26" class="cls-1" d="M25.42,28.54h0l9.24-16H26.85l-5.33,9.26L16.7,13.37A13.48,13.48,0,0,0,18,28.54Z"/><path id="path30" class="cls-1" d="M3.82,39.42c0,2.67,1.21,3.94,3.3,3.94s3.31-1.27,3.31-3.94-1.22-4-3.31-4-3.3,1.27-3.3,4m-1,0c0-3.24,1.61-4.79,4.26-4.79s4.26,1.55,4.26,4.79S9.77,44.2,7.12,44.2s-4.26-1.57-4.26-4.78"/><path id="path34" class="cls-1" d="M18.69,35a.47.47,0,0,1,.44-.3.45.45,0,0,1,.46.46.78.78,0,0,1,0,.21l-3.2,8.43a.46.46,0,0,1-.43.31.48.48,0,0,1-.44-.31l-3.2-8.43a.78.78,0,0,1,0-.21.46.46,0,0,1,.47-.46.45.45,0,0,1,.43.3l2.78,7.35Z"/><path id="path38" class="cls-1" d="M21.87,39.72v3.94a.47.47,0,0,1-.46.46.47.47,0,0,1-.47-.46V35.17a.47.47,0,0,1,.47-.46.47.47,0,0,1,.46.46v3.71h4.76V35.17a.46.46,0,0,1,.92,0v8.49a.46.46,0,0,1-.92,0V39.72Z"/><path id="path42" class="cls-2" d="M29.1,43.48a.64.64,0,1,1,1.28,0,.64.64,0,0,1-1.28,0"/><path id="path46" class="cls-2" d="M34.12,37.62a2.58,2.58,0,0,1,2.11.94.41.41,0,0,1,.09.26.39.39,0,0,1-.39.4.4.4,0,0,1-.33-.17,1.76,1.76,0,0,0-1.48-.64c-1.25,0-1.92.81-1.92,2.49s.67,2.5,1.92,2.5a2.51,2.51,0,0,0,1.59-.59.39.39,0,0,1,.26-.1.39.39,0,0,1,.39.4.43.43,0,0,1-.17.34,3.11,3.11,0,0,1-2.07.74c-1.76,0-2.81-1-2.81-3.29s1.05-3.28,2.81-3.28"/><path id="path50" class="cls-2" d="M42.18,40.9c0-1.72-.72-2.49-2-2.49s-2,.77-2,2.49.73,2.5,2,2.5,2-.75,2-2.5m.89,0c0,2.24-1.09,3.29-2.87,3.29s-2.87-1-2.87-3.29,1.11-3.28,2.87-3.28,2.87,1,2.87,3.28"/><path id="path54" class="cls-2" d="M53.83,40v3.64a.44.44,0,1,1-.87,0V40.21c0-1.07-.38-1.81-1.71-1.81A1.5,1.5,0,0,0,49.54,40v3.64a.44.44,0,1,1-.87,0V40.21c0-1.07-.34-1.81-1.68-1.81s-1.68.76-1.68,1.91v3.37a.44.44,0,1,1-.87,0V38.14a.44.44,0,1,1,.87,0v.44a1.91,1.91,0,0,1,1.78-1,2.39,2.39,0,0,1,2.17,1,2.16,2.16,0,0,1,2-1c2.1,0,2.58,1.26,2.58,2.42"/></svg>