<svg id="Слой_1" data-name="Слой 1" xmlns="http://www.w3.org/2000/svg" viewBox="0 0 56.69 56.69"><defs><style>.cls-1{fill:#2967ae;fill-rule:evenodd;}</style></defs><path class="cls-1" d="M15.66,26.69h1.95l.09.64c.15-.52,1.13-.88,1.73-.88,1.39,0,1.95.86,1.95,2.36V32H19.22V29.15c0-.58-.11-1-.69-1s-.81.58-.81,1V32H15.66V26.69ZM3,32.06V24.48H6.66c2.17,0,3.15,1.05,3.15,2.57s-.9,2.74-3.15,2.74H5.44v2.27ZM6.4,28c.58,0,1.2-.13,1.2-.79s-.66-.84-1.2-.84h-1V28Zm33.09-1.26h2l.06.64c.17-.52,1.16-.88,1.76-.88,1.37,0,1.95.86,1.95,2.36v3.25H43.07V29.15c0-.58-.13-1-.71-1s-.79.58-.79,1v2.93H39.49V26.69Zm-9.94,3.45a1,1,0,0,0,.23.64,1,1,0,0,0,.58.21c.39,0,.69-.1.69-.47,0-.9-3.26-.11-3.26-2.25,0-1.5,1.16-1.84,2.36-1.84s2.85.23,2.78,1.86H31.11a.63.63,0,0,0-.15-.38.72.72,0,0,0-.56-.24c-.36,0-.7,0-.7.32,0,.84,3.38.28,3.38,2.25,0,1.37-1,2-2.83,2-1.18,0-2.65-.63-2.65-2.1Zm22.17-1.38a.71.71,0,0,0-.17-.51.75.75,0,0,0-.58-.34c-.81,0-1,.79-1,1.43s.35,1.37,1,1.37a.88.88,0,0,0,.84-.94h1.88c0,1.12-.73,2.44-2.81,2.44A2.77,2.77,0,0,1,48,29.32a2.71,2.71,0,0,1,2.87-2.87c1.8,0,2.83,1.09,2.81,2.31Zm-38.35,3.3-.22-.45a2.1,2.1,0,0,1-1.52.54c-.66,0-2-.11-2-1.54,0-2.36,3.52-1.29,3.52-2.45,0-.38-.43-.36-.67-.36-.43,0-.71.09-.77.73H9.94c0-1.12.34-2.06,2.7-2.06s2.53,1.2,2.53,2.38v2.44a.87.87,0,0,0,.23.71v0ZM13.2,29.6c-.73.34-1.65.32-1.67.86,0,.34.19.51.62.51A1.2,1.2,0,0,0,13.2,29.6Zm12.25,2.46-.21-.45a2.17,2.17,0,0,1-1.52.54c-.69,0-2-.11-2-1.54,0-2.36,3.52-1.29,3.54-2.45,0-.38-.45-.36-.66-.36-.45,0-.71.09-.78.73H22c0-1.12.33-2.06,2.7-2.06s2.51,1.2,2.51,2.38v2.44a.84.84,0,0,0,.24.71v0l-2,0Zm-.17-2.46c-.73.34-1.67.32-1.67.86,0,.34.17.51.62.51A1.21,1.21,0,0,0,25.28,29.6Zm22.33,2.46V26.69h-2v5.37Zm-2-6.06h2V24.46h-2Zm-9.35.49a2.73,2.73,0,0,1,2.87,2.87,2.88,2.88,0,1,1-5.76,0,2.76,2.76,0,0,1,2.89-2.87Zm-.94,2.87c0,.67.22,1.48.94,1.5s.93-.83.93-1.5-.2-1.47-.93-1.47S35.35,28.72,35.33,29.36Z"/></svg>