<svg id="Слой_1" data-name="Слой 1" xmlns="http://www.w3.org/2000/svg" xmlns:xlink="http://www.w3.org/1999/xlink" viewBox="0 0 56.69 56.69"><defs><style>.cls-1{fill:none;}.cls-2{fill:#c2c3c3;}.cls-3{fill:#e9e8ea;}.cls-4{clip-path:url(#clip-path);}.cls-5{fill:url(#Безымянный_градиент_4);}.cls-6{clip-path:url(#clip-path-2);}.cls-7{fill:url(#Безымянный_градиент_2);}.cls-8{clip-path:url(#clip-path-3);}.cls-9{fill:url(#Безымянный_градиент_3);}.cls-10{clip-path:url(#clip-path-4);}.cls-11{fill:url(#Безымянный_градиент_4-2);}.cls-12{clip-path:url(#clip-path-5);}.cls-13{fill:url(#Безымянный_градиент_5);}.cls-14{clip-path:url(#clip-path-6);}.cls-15{fill:url(#Безымянный_градиент_6);}.cls-16{clip-path:url(#clip-path-7);}.cls-17{fill:url(#Безымянный_градиент_7);}.cls-18{fill:#d3d3d3;}.cls-19{clip-path:url(#clip-path-8);}.cls-20{fill:url(#Безымянный_градиент_8);}.cls-21{clip-path:url(#clip-path-9);}.cls-22{fill:url(#Безымянный_градиент_9);}.cls-23{clip-path:url(#clip-path-10);}.cls-24{fill:url(#Безымянный_градиент_10);}.cls-25{clip-path:url(#clip-path-11);}.cls-26{fill:url(#Безымянный_градиент_11);}.cls-27{clip-path:url(#clip-path-12);}.cls-28{fill:url(#Безымянный_градиент_12);}.cls-29{clip-path:url(#clip-path-13);}.cls-30{fill:url(#Безымянный_градиент_13);}.cls-31{clip-path:url(#clip-path-14);}.cls-32{fill:url(#Безымянный_градиент_14);}.cls-33{clip-path:url(#clip-path-15);}.cls-34{fill:url(#Безымянный_градиент_16);}.cls-35{clip-path:url(#clip-path-16);}.cls-36{fill:url(#Безымянный_градиент_16-2);}.cls-37{fill:#508fcc;}.cls-38,.cls-43{fill:#1e478b;}.cls-39{fill:#07a2a3;}.cls-40{fill:#e73838;}.cls-41{fill:#f4a021;}.cls-42{fill:#f9bf34;}.cls-43{fill-rule:evenodd;}</style><clipPath id="clip-path"><rect class="cls-1" x="14.69" y="24.75" width="3.19" height="0.19"/></clipPath><linearGradient id="Безымянный_градиент_4" x1="-145.24" y1="-267.61" x2="-144.57" y2="-267.61" gradientTransform="translate(-847.58 -1570.51) rotate(180) scale(5.96)" gradientUnits="userSpaceOnUse"><stop offset="0" stop-color="#c2c3c3"/><stop offset="0.1" stop-color="#c2c3c3"/><stop offset="0.22" stop-color="#d8d8d7"/><stop offset="0.36" stop-color="#ebebea"/><stop offset="0.49" stop-color="#f9f9f9"/><stop offset="0.62" stop-color="#fff"/><stop offset="1" stop-color="#fff"/></linearGradient><clipPath id="clip-path-2"><rect class="cls-1" x="31.06" y="24.94" width="0.2" height="6.39"/></clipPath><linearGradient id="Безымянный_градиент_2" x1="-90.8" y1="-225.18" x2="-90.13" y2="-225.18" gradientTransform="translate(-1983.56 836.9) rotate(90) scale(8.95)" gradientUnits="userSpaceOnUse"><stop offset="0" stop-color="#c2c3c3"/><stop offset="0.1" stop-color="#c2c3c3"/><stop offset="0.5" stop-color="#dadad9"/><stop offset="1" stop-color="#fbfbfb"/></linearGradient><clipPath id="clip-path-3"><rect class="cls-1" x="44.24" y="18.15" width="0.2" height="6.59"/></clipPath><linearGradient id="Безымянный_градиент_3" x1="-90.41" y1="-224.44" x2="-89.75" y2="-224.44" gradientTransform="translate(-1963.73 826.7) rotate(90) scale(8.95)" gradientUnits="userSpaceOnUse"><stop offset="0" stop-color="#e9e8ea"/><stop offset="0.1" stop-color="#e9e8ea"/><stop offset="0.66" stop-color="#ecebeb"/><stop offset="0.89" stop-color="#f2f0f0"/><stop offset="1" stop-color="#fbfbfb"/></linearGradient><clipPath id="clip-path-4"><rect class="cls-1" x="24.47" y="8.37" width="0.2" height="3.19"/></clipPath><linearGradient id="Безымянный_градиент_4-2" x1="-181.87" y1="-195.7" x2="-181.2" y2="-195.7" gradientTransform="translate(1191.3 -1072.32) rotate(-90) scale(5.96)" xlink:href="#Безымянный_градиент_4"/><clipPath id="clip-path-5"><rect class="cls-1" x="37.65" y="2.81" width="0.2" height="8.75"/></clipPath><linearGradient id="Безымянный_градиент_5" x1="-151.81" y1="-205.99" x2="-151.15" y2="-205.99" gradientTransform="translate(2742.65 -1981.92) rotate(-90) scale(13.13)" gradientUnits="userSpaceOnUse"><stop offset="0" stop-color="#c2c3c3"/><stop offset="0.1" stop-color="#c2c3c3"/><stop offset="0.41" stop-color="#c5c5c4"/><stop offset="0.61" stop-color="#cccccb"/><stop offset="0.77" stop-color="#d8d8d8"/><stop offset="0.92" stop-color="#ecedec"/><stop offset="1" stop-color="#fff"/></linearGradient><clipPath id="clip-path-6"><rect class="cls-1" x="31.06" y="8.37" width="0.2" height="3.19"/></clipPath><linearGradient id="Безымянный_градиент_6" x1="-181.86" y1="-196.26" x2="-181.2" y2="-196.26" gradientTransform="translate(1201.32 -1072.38) rotate(-90) scale(5.96)" gradientUnits="userSpaceOnUse"><stop offset="0" stop-color="#c2c3c3"/><stop offset="0.1" stop-color="#c2c3c3"/><stop offset="0.17" stop-color="#d0d0d0"/><stop offset="0.28" stop-color="#e3e2e2"/><stop offset="0.4" stop-color="#f1f0f0"/><stop offset="0.55" stop-color="#fcfbfb"/><stop offset="0.81" stop-color="#fff"/><stop offset="1" stop-color="#fff"/></linearGradient><clipPath id="clip-path-7"><rect class="cls-1" x="24.47" y="31.33" width="6.79" height="0.2"/></clipPath><linearGradient id="Безымянный_градиент_7" x1="-115.99" y1="-181.4" x2="-115.33" y2="-181.4" gradientTransform="translate(1171.72 1825.35) scale(9.89)" gradientUnits="userSpaceOnUse"><stop offset="0" stop-color="#d3d3d3"/><stop offset="0.1" stop-color="#d3d3d3"/><stop offset="0.12" stop-color="#d5d5d4"/><stop offset="1" stop-color="#fbfbfb"/></linearGradient><clipPath id="clip-path-8"><rect class="cls-1" x="37.65" y="11.56" width="6.79" height="0.2"/></clipPath><linearGradient id="Безымянный_градиент_8" x1="-116.98" y1="-181.44" x2="-116.32" y2="-181.44" gradientTransform="translate(1232.35 1864.46) scale(10.21)" gradientUnits="userSpaceOnUse"><stop offset="0" stop-color="#c2c3c3"/><stop offset="0.47" stop-color="#c4c4c3"/><stop offset="0.66" stop-color="#cac9c9"/><stop offset="0.79" stop-color="#d5d4d4"/><stop offset="0.9" stop-color="#e4e2e2"/><stop offset="1" stop-color="#fefdfd"/><stop offset="1" stop-color="#fff"/></linearGradient><clipPath id="clip-path-9"><rect class="cls-1" x="37.65" y="18.16" width="6.79" height="0.19"/></clipPath><linearGradient id="Безымянный_градиент_9" x1="-116.98" y1="-181.77" x2="-116.32" y2="-181.77" gradientTransform="translate(1232.34 1874.37) scale(10.21)" gradientUnits="userSpaceOnUse"><stop offset="0" stop-color="#c2c3c3"/><stop offset="0.1" stop-color="#c2c3c3"/><stop offset="0.12" stop-color="#c7c6c6"/><stop offset="0.23" stop-color="#d6d6d6"/><stop offset="0.36" stop-color="#e0e0e0"/><stop offset="0.53" stop-color="#e8e7e7"/><stop offset="1" stop-color="#e9e8ea"/></linearGradient><clipPath id="clip-path-10"><rect class="cls-1" x="37.65" y="24.74" width="6.79" height="0.2"/></clipPath><linearGradient id="Безымянный_градиент_10" x1="-116.98" y1="-182.1" x2="-116.32" y2="-182.1" gradientTransform="translate(1232.34 1884.29) scale(10.21)" gradientUnits="userSpaceOnUse"><stop offset="0" stop-color="#c2c3c3"/><stop offset="0.44" stop-color="#dadad9"/><stop offset="1" stop-color="#fbfbfb"/></linearGradient><clipPath id="clip-path-11"><rect class="cls-1" x="40.52" y="11.56" width="6.79" height="0.2"/></clipPath><linearGradient id="Безымянный_градиент_11" x1="-117.13" y1="-181.46" x2="-116.46" y2="-181.46" gradientTransform="translate(1237.43 1865.74) scale(10.22)" gradientUnits="userSpaceOnUse"><stop offset="0" stop-color="#e9e8ea"/><stop offset="0.28" stop-color="#e9e8ea"/><stop offset="0.71" stop-color="#ecebeb"/><stop offset="0.89" stop-color="#f2f0f0"/><stop offset="1" stop-color="#fff"/></linearGradient><clipPath id="clip-path-12"><rect class="cls-1" x="11.29" y="18.16" width="6.59" height="0.19"/></clipPath><linearGradient id="Безымянный_градиент_12" x1="-138.1" y1="-247.01" x2="-137.44" y2="-247.01" gradientTransform="translate(-1326.98 -2387.15) rotate(180) scale(9.74)" gradientUnits="userSpaceOnUse"><stop offset="0" stop-color="#c2c3c3"/><stop offset="0.39" stop-color="#c5c5c4"/><stop offset="0.63" stop-color="#cccccb"/><stop offset="0.84" stop-color="#d9d8d8"/><stop offset="1" stop-color="#e9e8ea"/></linearGradient><clipPath id="clip-path-13"><rect class="cls-1" x="17.88" y="11.56" width="0.2" height="6.59"/></clipPath><linearGradient id="Безымянный_градиент_13" x1="-155.15" y1="-204" x2="-154.48" y2="-204" gradientTransform="translate(2355.08 -1758.59) rotate(-90) scale(11.46)" gradientUnits="userSpaceOnUse"><stop offset="0" stop-color="#c2c3c3"/><stop offset="0.49" stop-color="#c5c5c4"/><stop offset="0.79" stop-color="#cccccb"/><stop offset="1" stop-color="#d5d6d7"/></linearGradient><clipPath id="clip-path-14"><rect class="cls-1" x="11.29" y="11.56" width="13.18" height="0.2"/></clipPath><linearGradient id="Безымянный_градиент_14" x1="-132.21" y1="-230.3" x2="-131.55" y2="-230.3" gradientTransform="translate(-2579.58 -4524.19) rotate(180) scale(19.7)" gradientUnits="userSpaceOnUse"><stop offset="0" stop-color="#c2c3c3"/><stop offset="0.34" stop-color="#cccccb"/><stop offset="0.94" stop-color="#e5e5e4"/><stop offset="1" stop-color="#e9e8ea"/></linearGradient><clipPath id="clip-path-15"><rect class="cls-1" x="17.88" y="24.94" width="0.2" height="6.59"/></clipPath><linearGradient id="Безымянный_градиент_16" x1="-97.92" y1="-223.49" x2="-97.26" y2="-223.49" gradientTransform="translate(-2475.3 1117.06) rotate(90) scale(11.16)" gradientUnits="userSpaceOnUse"><stop offset="0" stop-color="#c2c3c3"/><stop offset="0.1" stop-color="#c2c3c3"/><stop offset="0.59" stop-color="#c4c4c3"/><stop offset="0.77" stop-color="#cac9c9"/><stop offset="0.9" stop-color="#d3d3d3"/><stop offset="1" stop-color="#d3d3d3"/></linearGradient><clipPath id="clip-path-16"><rect class="cls-1" x="24.47" y="24.94" width="0.2" height="6.59"/></clipPath><linearGradient id="Безымянный_градиент_16-2" x1="-98.67" y1="-222.94" x2="-98" y2="-222.94" gradientTransform="translate(-2528.49 1154.52) rotate(90) scale(11.45)" xlink:href="#Безымянный_градиент_16"/></defs><path class="cls-2" d="M37.65,18.16H31.26v-6.4h6.39Zm-6.59,6.58H24.67V18.35h6.39Zm6.59,0H31.26V18.35h6.39Zm-13.18,0H18.08V18.35h6.39Zm0-6.59H18.08V11.76h6.39Zm6.59,0H24.67v-6.4h6.39Zm6.79-6.6h-20V24.94h20Z"/><rect class="cls-3" x="44.24" y="11.76" width="0.2" height="6.39"/><g class="cls-4"><rect class="cls-5" x="14.69" y="24.75" width="3.19" height="0.19"/></g><g class="cls-6"><rect class="cls-7" x="31.06" y="24.94" width="0.2" height="6.39"/></g><g class="cls-8"><rect class="cls-9" x="44.24" y="18.15" width="0.2" height="6.59"/></g><g class="cls-10"><rect class="cls-11" x="24.47" y="8.37" width="0.2" height="3.19"/></g><g class="cls-12"><rect class="cls-13" x="37.65" y="2.81" width="0.2" height="8.75"/></g><g class="cls-14"><rect class="cls-15" x="31.06" y="8.37" width="0.2" height="3.19"/></g><g class="cls-16"><rect class="cls-17" x="24.47" y="31.33" width="6.79" height="0.2"/></g><rect class="cls-18" x="17.88" y="31.33" width="6.79" height="0.2"/><g class="cls-19"><rect class="cls-20" x="37.65" y="11.56" width="6.79" height="0.2"/></g><g class="cls-21"><rect class="cls-22" x="37.65" y="18.16" width="6.79" height="0.19"/></g><g class="cls-23"><rect class="cls-24" x="37.65" y="24.74" width="6.79" height="0.2"/></g><g class="cls-25"><rect class="cls-26" x="40.52" y="11.56" width="6.79" height="0.19"/></g><g class="cls-27"><rect class="cls-28" x="11.29" y="18.16" width="6.59" height="0.19"/></g><g class="cls-29"><rect class="cls-30" x="17.88" y="11.56" width="0.2" height="6.59"/></g><g class="cls-31"><rect class="cls-32" x="11.29" y="11.56" width="13.18" height="0.2"/></g><rect class="cls-3" x="11.29" y="11.56" width="0.19" height="6.59"/><g class="cls-33"><rect class="cls-34" x="17.88" y="24.94" width="0.2" height="6.59"/></g><g class="cls-35"><rect class="cls-36" x="24.47" y="24.94" width="0.2" height="6.59"/></g><rect class="cls-37" x="17.98" y="24.84" width="6.59" height="6.59"/><rect class="cls-38" x="24.57" y="18.25" width="6.59" height="6.59"/><rect class="cls-39" x="31.16" y="18.25" width="6.59" height="6.59"/><rect class="cls-40" x="11.39" y="11.66" width="6.59" height="6.59"/><rect class="cls-41" x="31.16" y="11.66" width="6.59" height="6.59"/><rect class="cls-42" x="37.75" y="11.66" width="6.59" height="6.59"/><rect class="cls-40" x="37.75" y="5.07" width="6.59" height="6.59"/><polygon class="cls-38" points="9.02 46.53 15.47 46.53 14.98 47.16 12.41 47.16 12.28 47.55 15.07 47.55 15.82 47.55 15.21 49.43 14.46 49.43 14.86 48.18 12.08 48.18 11.55 49.78 10.73 49.78 11.25 48.18 8.46 48.18 8.05 49.43 7.3 49.43 7.71 48.18 7.91 47.55 8.66 47.55 11.46 47.55 11.58 47.16 8.81 47.16 9.02 46.53"/><path class="cls-38" d="M33,43.16l1.44-1.55a9.81,9.81,0,0,1-2.69.51c-2.3,0-3-1.24-3-2.29a3.43,3.43,0,0,1,3.61-3.26,3.12,3.12,0,0,1,2.43.91l.92-2a7.13,7.13,0,0,0-3.51-.81c-4.36,0-6.62,2.52-6.62,5.3,0,2.24,1.68,4,4.78,4a11,11,0,0,0,2.13-.32Z"/><path class="cls-38" d="M24.5,43.16l1.44-1.55a9.81,9.81,0,0,1-2.69.51c-2.3,0-2.95-1.24-2.94-2.29a3.42,3.42,0,0,1,3.61-3.26,3.09,3.09,0,0,1,2.42.91l.92-2a7.11,7.11,0,0,0-3.51-.81c-4.36,0-6.61,2.52-6.61,5.3,0,2.24,1.67,4,4.78,4A10.87,10.87,0,0,0,24,43.64Z"/><path class="cls-38" d="M14.25,34.94H9.66L6.93,43.72h3.21l.9-2.85a12.12,12.12,0,0,0,1.8.15,5.82,5.82,0,0,0,3.25-.79,3.46,3.46,0,0,0,1.5-2.62c.06-1.77-1.78-2.67-3.34-2.67m.08,3.1a1.59,1.59,0,0,1-1.4,1A3.34,3.34,0,0,1,11.62,39l.63-2.09h1.07c.56,0,1.23.37,1,1.13"/><polygon class="cls-38" points="44.95 43.72 41.59 43.72 41.5 39.54 39.3 43.72 35.56 43.72 35.78 34.93 38.82 34.93 38.46 40.02 41.53 34.93 43.84 34.93 44.18 40.05 46.5 34.93 49.77 34.93 44.95 43.72"/><path class="cls-38" d="M28.09,51.5l-.53,1.62h1.05l.52-1.62ZM33.76,51l-.14.42Zm0,0-.14.42,0,.11-.53,1.62h1l-.46.59H25.78l.19-.59h.8L27.48,51l0-.06h6.28l0,.06Zm-3.32,2.15L31,51.5h-1l-.52,1.62Zm1.32-1.62-.53,1.62h1l.53-1.62Z"/><polygon class="cls-38" points="44.95 46.53 43.48 51.06 44.53 51.06 43.97 51.77 43.25 51.77 42.62 53.71 41.79 53.71 42.42 51.77 39.75 51.77 39.98 51.06 42.66 51.06 44.13 46.53 44.95 46.53"/><path class="cls-38" d="M30.43,48.67a6,6,0,0,1,.53.41,6.53,6.53,0,0,0,.76-.69H29.47a6.35,6.35,0,0,1-1.77,2.16H26.65a6.35,6.35,0,0,0,2.49-3.35h-1l.21-.66h6.12l-.4,1.25H35L34.63,49c-.41,1.27-.91,1.77-1.79,1.57l-.52-.85c.46.24,1,.27,1.18,0a3.87,3.87,0,0,0,.33-.74l.22-.65h-.93l.39-1.19H30c-.05.18-.12.38-.2.59H33.1a8.44,8.44,0,0,1-1.64,1.72c.39.37.79.76,1,1h-1l-.58-.62a6.25,6.25,0,0,1-1,.62H28.32a8.23,8.23,0,0,0,2.1-1.08,12.5,12.5,0,0,0-1-.8Z"/><path class="cls-38" d="M25.55,46.54l-2,6.2c-.15.43.51.44.79.44l-.46.59s-1.53.12-1.15-1.08c.05-.12,1.28-3.92,1.79-5.49H23.24c-.17.52-.42,1.26-.72,2.06h1.19l-.52.67h-.93a17,17,0,0,1-1.94,3.78H19.24a13.05,13.05,0,0,0,2.2-3.78H20.8l.22-.67h.69c.32-.82.56-1.55.71-2.06h-.74l.22-.66h3.65Z"/><path class="cls-38" d="M17.24,53.31h-.75l.85-2.61h2.8l-.85,2.61H17.24Zm.64-2-.44,1.35h1.3l.44-1.35Z"/><polygon class="cls-43" points="17.68 49.65 20.52 49.65 20.03 50.28 17.47 50.28 17.68 49.65"/><polygon class="cls-43" points="18.01 48.63 20.85 48.63 20.36 49.26 17.8 49.26 18.01 48.63"/><path class="cls-38" d="M11.28,50.63l-.13.41H13.3l.13-.41Zm-1,.41.13-.41H8.3L8.17,51Zm.52,1H13l.15-.44H11Zm-3,0H10l.14-.44H8Zm5.28.56H10.65s0,.09,0,.14a.66.66,0,0,0,0,.2c.05.13.21.19.5.19h3.12l-.49.62H10.87c-.84,0-1-.23-1.09-.47a.86.86,0,0,1,0-.39,1.77,1.77,0,0,1,.07-.29H6.93l.8-2.48h6.64l-.81,2.48Z"/><polygon class="cls-43" points="12.5 48.44 14.49 48.44 14.09 48.95 12.1 48.95 12.5 48.44"/><polygon class="cls-43" points="12.22 49.27 14.22 49.27 13.82 49.78 11.82 49.78 12.22 49.27"/></svg>