<svg id="Слой_1" data-name="Слой 1" xmlns="http://www.w3.org/2000/svg" viewBox="0 0 56.69 56.69"><defs><style>.cls-1{fill:#323b8f;}.cls-2{fill:#4283c4;}</style></defs><path id="path4655" class="cls-1" d="M24,27.81c-4.66,0-5.86,4.51-6.53,7l-5,18.2h2.9l4.41-16.14h3l-2,7.34h2.91l2.4-8.8H20.25c.31-1.11.63-2.29.89-3.25.49-1.78,1.29-3.08,2.44-3s.63.89.46,1.53a1.44,1.44,0,0,0,1.55,1.77C28.08,32.38,28.69,27.81,24,27.81ZM7.56,31h0L4,44.16H7l1.33-4.87H11c2.9,0,4.83-1.6,5.35-3.83s-.73-4.46-4-4.46Zm2.61,1.55h1.16c1.22,0,2.19,1,1.95,2.67s-1.92,2.51-3.41,2.51H8.75Zm28.7,2.55c-2.54,0-4.38,2.19-4.82,4.37a4,4,0,0,0,4.1,4.9,5.61,5.61,0,0,0,3.55-1L41.16,42a4.13,4.13,0,0,1-2.38.81c-1.38,0-2.25-1.09-2.06-2.83h5.65C42.77,38.94,43,35.1,38.87,35.1Zm11.25.11a4,4,0,0,0-3,2l.5-1.81H44.7l-2.4,8.8h2.9s.7-2.57,1.06-3.85c.54-2,1.67-3.26,2.2-3.32s.57,1.44,1.78,1.44c1.84,0,2.24-3.22-.12-3.22Zm-22.85.15-.4,1.47h3.68l-5.79,7.33h8.17l.4-1.46H29.18L35,35.36Zm11.59,1.19h0c1.58,0,1.22,2.08,1.22,2.08H36.92s.52-2.08,1.94-2.08Z"/><path id="path4664" class="cls-2" d="M25.34,16.55c.92-3.37,4.76-4.18,8.3-4.27a48,48,0,0,1,6.16.3l-1.53,5.57a49.93,49.93,0,0,0-6.15-.3c-3.54.1-7.38.9-8.31,4.27Z"/><path id="path4668" class="cls-1" d="M47.42,27C37,26.34,24.91,21,25.34,16.55L23.9,21.8c-.44,4.51,10.79,9.87,22,10.76Z"/><path id="path4672" class="cls-1" d="M51.21,19.75c-.93,3.37-4.77,4.18-8.31,4.28a48.91,48.91,0,0,1-6.15-.31l1.52-5.57a47.93,47.93,0,0,0,6.15.3c3.54-.1,7.39-.9,8.31-4.27Z"/><path id="path4674" class="cls-2" d="M29.12,9.31c10.41.65,22.51,6,22.09,10.44l1.43-5.25c.44-4.51-10.79-9.87-22-10.76Z"/></svg>