<svg id="Слой_1" data-name="Слой 1" xmlns="http://www.w3.org/2000/svg" viewBox="0 0 56.69 56.69"><defs><style>.cls-1{fill:#305ea9;}</style></defs><g id="g2853"><path id="path2859" class="cls-1" d="M19.74,23.63H16.86v3.75h-3V23.63H11v9.43h2.88V29.35h3v3.71h2.88Zm10,7.54V23.63H26.87v9.43h5.2l.43-1.89Zm-5-7.54H21.86v9.43h2.88Zm11.66,0H33.53v9.43H36.4ZM50.59,26c0-.51.51-.75,1.34-.75a7.39,7.39,0,0,1,2.56.47l-.24-2.05a11.2,11.2,0,0,0-2.64-.27c-2.32,0-3.9.91-3.9,2.84,0,3.31,4.5,2.64,4.5,4.18,0,.59-.44.9-1.5.9a8.44,8.44,0,0,1-3.27-.75l.31,2.17a9.42,9.42,0,0,0,3,.48c2.4,0,4.37-.79,4.37-3.16,0-3.15-4.53-2.56-4.53-4.06m-8.12,4.77c2.68,0,4.38-1.38,4.38-3.78,0-2.65-1.82-3.59-4.77-3.59a34.91,34.91,0,0,0-3.51.19v9.43h2.88V30.81ZM44,27.07a1.84,1.84,0,0,1-2.09,2.05h-.47v-3.9h.47c1.42,0,2.09.67,2.09,1.86M5.47,30.81c2.68,0,4.38-1.38,4.38-3.78,0-2.65-1.82-3.59-4.77-3.59a34.91,34.91,0,0,0-3.51.19v9.43H4.45V30.81ZM7,27.07a1.84,1.84,0,0,1-2.09,2.05H4.45v-3.9h.47c1.42,0,2.09.67,2.09,1.86"/></g></svg>