<svg id="Слой_1" data-name="Слой 1" xmlns="http://www.w3.org/2000/svg" viewBox="0 0 56.69 56.69"><defs><style>.cls-1{fill:#010101;}</style></defs><path id="path8999" class="cls-1" d="M13.38,23.2a1,1,0,0,1,.66.5l.16,1.39v9.06L14,35.51a1,1,0,0,1-.66.53v.06h3.31V36a.92.92,0,0,1-.63-.53,3.34,3.34,0,0,1-.2-1.36V25.09a4.55,4.55,0,0,1,.2-1.39.9.9,0,0,1,.63-.5v-.06H13.38v.06"/><path id="path9001" class="cls-1" d="M53.8,21.71h0l-.6-1.09-.82-1.06A3.2,3.2,0,0,0,50.73,19l-1.29,0V35a10.79,10.79,0,0,0,.23,2.41,1.59,1.59,0,0,0,1.32.83v.07h-4.9v-.07a1.76,1.76,0,0,0,1.33-.83A7.56,7.56,0,0,0,47.65,35V19H46.59l-1.46.33A3.55,3.55,0,0,0,44,20.42l-.69,1.29h-.07l.83-3.3H53l.79,3.3"/><path id="path9003" class="cls-1" d="M32.23,22.71a4.5,4.5,0,0,0-2.71,1s-1.88,1.65-1.88,5.75c0,0,0,4.17,1.75,6a4.32,4.32,0,0,0,1.42,1l1.09.2,1.29-.33,1.36-.3,1,.1V29.39H32.33v.06s.93.14,1.19.73a5.57,5.57,0,0,1,.24,2v1.72l-.17,1a1.84,1.84,0,0,1-.83,1l-.89.16-.5-.13-.49-.3-.6-.79-.4-1.49a19.89,19.89,0,0,1-.36-3.91,16.38,16.38,0,0,1,.46-3.9s.73-2.25,2.25-2.28a3.26,3.26,0,0,1,1.56.46,5,5,0,0,1,1.65,2.12h0l-.83-2.71,0,0-.17.23L34,23.2a3.61,3.61,0,0,0-1.79-.49"/><path id="path9005" class="cls-1" d="M38.52,25.09v9.06l-.13,1.36a.85.85,0,0,1-.6.53v.06h6.32l1-3h0A4.61,4.61,0,0,1,43.58,35a5.76,5.76,0,0,1-2.71.56h-.66V29.82h.89l1.29,0a1.66,1.66,0,0,1,1,.86h0l-.79-3.21h-.07s.14,1.06-.29,1.43a2,2,0,0,1-1.16.26h-.89V23.7h1.12l2.05.26a3.36,3.36,0,0,1,1.19,1.56v0h0l-.73-2.35H37.79v.06a.86.86,0,0,1,.6.53,4.37,4.37,0,0,1,.13,1.36"/><path id="path9007" class="cls-1" d="M2.89,18.41v.06s1,.1,1.32.76a7.74,7.74,0,0,1,.24,2.45V35a10.84,10.84,0,0,1-.24,2.45,1.6,1.6,0,0,1-1.32.79v0h4.9v0s-1-.13-1.29-.79A8.06,8.06,0,0,1,6.27,35V28.79l.82,0a6.49,6.49,0,0,0,3.61-1.12,5.51,5.51,0,0,0,1.52-4s0-2.78-1.19-4a5.17,5.17,0,0,0-3.61-1.19ZM6.27,19h1a3.19,3.19,0,0,1,2.45,1.1,7.12,7.12,0,0,1,.63,3.47s0,2.45-1.06,3.61a3.47,3.47,0,0,1-2.35.92H6.27Z"/><path id="path9011" class="cls-1" d="M22.54,21.78l-3.6,12.5-.6,1.43a.81.81,0,0,1-.6.33l0,.06h2.15V36s-.63-.1-.63-.66l.33-1.53,1.12-4H22.9l1.23,4.4A1.57,1.57,0,0,1,24,35.51l-.9.53v.06h4.3V36a1.89,1.89,0,0,1-.86-.47A3.08,3.08,0,0,1,26,34.42ZM21.85,26l.89,3.21H21Z"/></svg>