<svg id="Слой_1" data-name="Слой 1" xmlns="http://www.w3.org/2000/svg" viewBox="0 0 56.69 56.69"><defs><style>.cls-1{fill:#676767;}.cls-2{fill:#ad1917;}</style></defs><path class="cls-1" d="M35.45,40.27,35.61,42h-.26a1.84,1.84,0,0,0-1.69-1.08H32.1v9c0,.73.45.67,1.1.92v.27H29.34V50.8c.64-.25,1.08-.19,1.1-.92v-9H28.88A1.83,1.83,0,0,0,27.2,42h-.27l.17-1.71Zm19.76,0H46.86L46.69,42H47a1.83,1.83,0,0,1,1.68-1.08H50.2v9c0,.73-.45.62-1.1.87v.27H53V50.8c-.64-.25-1.09-.14-1.1-.87v-9h1.56A1.84,1.84,0,0,1,55.11,42h.26Zm-40.38.29v-.29H11v.29c.65.25,1.1.19,1.11.92v8.4c0,.73-.45.67-1.1.92v.27h3.87V50.8c-.65-.25-1.09-.19-1.11-.92v-8.4c0-.73.45-.67,1.1-.92M4.09,45.91c3.51.66,4.15-1.24,4.15-2.51,0-1.75-1-2.79-4.15-2.45v5M6,40.28c2.25,0,3.65,1.07,3.65,3.11,0,4-4.86,3.36-5.58,3.25v3.24c0,.73.46.67,1.11.92v.27H1.32V50.8c.65-.25,1.09-.19,1.1-.92V41.46c0-.73-.46-.66-1.11-.91v-.28H6M43,50.45H40.67c-.43,0-.59-.09-.6-.57v-4h2.66c.47,0,.5.24.76.79h.25V44.37H43.5c-.26.56-.29.78-.76.79H40.07V40.9h2.69A2.25,2.25,0,0,1,44.57,42h.26l-.17-1.71H37.31v.29c.65.25,1.1.19,1.11.92v8.4c0,.73-.45.67-1.1.92v.27h7.54l.25-1.88h-.26A2.14,2.14,0,0,1,43,50.45m-20.56,0c-2.42,0-3.85-2.26-3.85-4.91,0-.16,0-.32,0-.48.15-2.42,1.39-4.33,3.82-4.33a3.3,3.3,0,0,1,3.2,2.49H26l-.21-2.33a10.35,10.35,0,0,0-3.67-.86,5.14,5.14,0,0,0-5.36,5.51c0,3.44,2,5.6,5.49,5.6a4.64,4.64,0,0,0,4.19-2.48l-.62-.25a3.83,3.83,0,0,1-3.35,2"/><path class="cls-2" d="M16.75,12.67c0-.86.81-1.14,1.66-1.06h0a1,1,0,0,1,.18-.4.73.73,0,0,0-1,.08c.3-1.15,1.32-.79,1.77-.58a1,1,0,0,1,.3,0c.77.05,1.56,1,2.14,1.46h0a5.2,5.2,0,0,0,2,.89A2.51,2.51,0,0,0,25,15.32a3.46,3.46,0,0,1-1.49-.3,2.82,2.82,0,0,0,.79,2,6.35,6.35,0,0,1-2.79-1.87,1.75,1.75,0,0,0-.23-.24c-1.17-1-1.82.75-2.9-.36-.09.08-.6.34-.28.85-1-.48-.39-1.34-.13-1.6a1.79,1.79,0,0,1,0-.4c-.21,0-.92.22-.77.79-.65-1,.29-1.38.56-1.51a.92.92,0,0,1,0-.29,0,0,0,0,1,0,0,.89.89,0,0,0-1,.31Zm24.09,6.1c-.44.79-1.11,2.67.78,5.11a5,5,0,0,1,1.54-4,1.33,1.33,0,0,0,.07-1.5,1.38,1.38,0,0,1,0-1.09c.18-.88,0-3.23-2.17-3.35S36.36,16.26,38,24c.31,1.46.14,3.76-2.76,3.76-3.88,0-4.12-4.79-2.75-6.58a4.89,4.89,0,0,1-3,.56,5.63,5.63,0,0,0,.6-1,2.83,2.83,0,0,1-3.39-.29,1.73,1.73,0,0,0,1-1.17,3.53,3.53,0,0,1-2.84.24,3.15,3.15,0,0,1-.75-.34A2.55,2.55,0,0,0,25.52,18a12,12,0,0,1-3.38.39,9.46,9.46,0,0,1-2.25-.49,1.35,1.35,0,0,0-1.19.21c-.47,0-1.73.14-1.5,1.31.16-.61.83-.55,1.06-.52v0a1.28,1.28,0,0,0-.37.55c-.34.14-1.54.74-.85,1.72a1,1,0,0,1,.8-.84,1.4,1.4,0,0,0,.15.3c-.24.33-.7,1.08.2,1.6a1.07,1.07,0,0,1,.41-1.13,1.4,1.4,0,0,0,.1.35c-.1.28-.31,1.51.81,1.49-.41-.2-.22-.73-.14-.91a.92.92,0,0,0,.29,0c1.37,0,.69-.88,4.72-1.55a.76.76,0,0,1,.3,0c-1,4.22,2.32,5,2.32,6.7,0,.59-.43,1-1.24,1H18.13v1.81H42.86V28.31h-4.1a5.12,5.12,0,0,0,.93-4.79C37.5,16.64,39.87,14.8,41,15s1.39,1.48.72,2.47a10.05,10.05,0,0,0-.92,1.32ZM29.05,35.18c0,.86-.71,1.39-1.85,1.39s-1.75-.5-1.75-1.31a1.1,1.1,0,0,1,.75-1l.14-.08-.13-.09a1,1,0,0,1-.54-1c0-.76.68-1.22,1.68-1.22s1.52.57,1.52,1.17a1,1,0,0,1-.58,1l-.16.09.16.07a1.07,1.07,0,0,1,.76,1ZM26.61,33c0,.54.46.68.83.8l.09,0,0,0a.82.82,0,0,0,.35-.64.68.68,0,0,0-.64-.71h-.05a.6.6,0,0,0-.63.57Zm1.46,2.28c0-.56-.62-.74-1-.86l-.15,0a.88.88,0,0,0-.48.73.79.79,0,0,0,.87.8.68.68,0,0,0,.78-.65Zm6-1.08c0,1.52-.64,2.32-1.79,2.32s-1.77-.79-1.77-2.32.66-2.37,1.81-2.37,1.75.82,1.75,2.37Zm-1,.07c0-.93-.1-1.79-.8-1.79s-.76.93-.76,1.68c0,1,.14,1.72.8,1.72s.76-.89.76-1.61Zm3.66-.86v-.87h1.83l.08-.64H36v2.22c1.66-.43,2,.54,2,.94,0,.75-.82,1.23-2.11.71l-.22.47a2.91,2.91,0,0,0,1.27.28c1.53,0,2-.87,2-1.61s-.51-1.6-2.13-1.49ZM23.13,35.87v-4h-.25L21.56,33v.14h.66v2.77c0,.29-.06.23-.62.44v.19h2.16v-.19c-.55-.2-.63-.15-.63-.45Zm1.36-22.66A5.53,5.53,0,0,0,26.58,13a.64.64,0,0,1,.73.16c1.87,2,4.54.82,4.6-1.48,0-.17-.12-.15-.15-.06-.4,1.78-2.73,2.34-3.42,1.1a.26.26,0,0,1,.07-.36.18.18,0,0,0,.09-.24.7.7,0,0,1,.24-.92,1.25,1.25,0,0,0,.69.95,1.19,1.19,0,0,0,1.64-1,1.94,1.94,0,0,0,0-.24,3.69,3.69,0,0,0-2.71,0c-1.9.83-2.68-.35-2.87-.88a3.18,3.18,0,0,0,2.5.25,5.46,5.46,0,0,1,3,0,1.84,1.84,0,0,0-1.5-1.36A1.72,1.72,0,0,0,28,9.75a1,1,0,0,1-.09-1.33,2.92,2.92,0,0,1,.85-.62c.26-.17,0-.32-.2-.23a9.16,9.16,0,0,1-.93.4c-.12,0-.14,0-.15-.11a.64.64,0,0,1,.4-.65,3,3,0,0,0,.81-.38,5,5,0,0,1,4.11-.7s.78-.88,1.46-.54,0,1.17,0,1.17,0,0,0,0a1.6,1.6,0,0,1,.35.28c.59-.38,1.39-.7,1.76-.35s0,1.13-.64,1.67l.42.58a6.61,6.61,0,0,1,.79,6.8,1.81,1.81,0,0,0-.24-.95,3.53,3.53,0,0,1-.82-2.2c0-.16-.2-.13-.27,0A2.44,2.44,0,0,0,36,15.18c.27.4.84,1.45-.39,3.14a3,3,0,0,0-.45-1.59A1.87,1.87,0,0,1,35,15.39c0-.13-.06-.2-.2-.1a1.39,1.39,0,0,0-.36.9,5.81,5.81,0,0,0,.53,1.8c.33,1.64-1.52,2.43-1.77,2.55a2.24,2.24,0,0,0,.43-2.28,3.26,3.26,0,0,1-.37-1.33c0-.21-.07-.24-.19-.13-.46.41,0,1.8,0,2.13s0,1.89-2.36,2.15a3.94,3.94,0,0,0,.5-2.88c-.06-.23-.17-.16-.18,0a2.34,2.34,0,0,1-3.11,2.19c.45-.28.64-1.15.68-1.33a2.43,2.43,0,0,1,.67-1.16c.13-.13.08-.15,0-.16-.58,0-1,.75-1.45,1a3.84,3.84,0,0,1-2.27.25c.23-.06.66-.41.94-1.29a1.67,1.67,0,0,1,1.41-1.18c.22,0,.15-.15,0-.2a1.61,1.61,0,0,0-1.42.42,1.36,1.36,0,0,1-2.11-1,2.37,2.37,0,0,0,2-.23c.09-.05.24-.17,0-.22-1.79-.44-1.82-1.62-1.8-2.07Zm7.77-6.28A2.9,2.9,0,0,0,30,7a2.32,2.32,0,0,1,.53.94,3,3,0,0,1,1.73-1Z"/></svg>