<svg id="Слой_1" data-name="Слой 1" xmlns="http://www.w3.org/2000/svg" viewBox="0 0 56.69 56.69"><defs><style>.cls-1{fill:#010101;}</style></defs><g id="layer1"><g id="layer1-1"><g id="g16771"><path id="path16773" class="cls-1" d="M14,26.9V24.74H5.67V26.9Zm3,0a3,3,0,0,1-3,3H5.67V33.5a1.52,1.52,0,0,1-3,0V23.22A1.52,1.52,0,0,1,4.15,21.7H14a3,3,0,0,1,3,3V26.9Z"/></g><g id="g16775"><path id="path16777" class="cls-1" d="M19.82,35a1.52,1.52,0,0,0,1.52-1.52V23.19a1.52,1.52,0,1,0-3,0V33.51A1.52,1.52,0,0,0,19.82,35"/></g><g id="g16779"><path id="path16781" class="cls-1" d="M25.64,33.51a1.52,1.52,0,0,1-3,0V23.79a2.07,2.07,0,0,1,2.08-2.08,2.12,2.12,0,0,1,1.48.6l8.56,8.44V23.23a1.52,1.52,0,1,1,3,0V33A2.07,2.07,0,0,1,35.68,35a2.12,2.12,0,0,1-1.48-.6l-8.56-8.6v7.68Z"/></g><g id="g16783"><path id="path16785" class="cls-1" d="M42.06,35a3,3,0,0,1-3-3V24.71a3,3,0,0,1,3-3H51.7a1.52,1.52,0,0,1,0,3H42.06V32h9V29.87h-5.4a1.52,1.52,0,1,1,0-3H51a3,3,0,0,1,3,3V32a3,3,0,0,1-3,3Z"/></g></g></g></svg>