<svg id="Слой_1" data-name="Слой 1" xmlns="http://www.w3.org/2000/svg" viewBox="0 0 56.69 56.69"><defs><style>.cls-1{fill:#aa1736;}</style></defs><path class="cls-1" d="M11.15,27.33c-.2.53-1.4,1.09-4.35.43l.39,1.74c3,.54,4.7.1,5.69-.95A1.89,1.89,0,0,0,13.16,26,5,5,0,0,0,9.3,24.59c-2.58,0-4.41.75-5.43,3.54L2.5,31.89H4.9l1.36-3.8c.56-1.56,1.73-1.82,3-1.82S11.32,26.83,11.15,27.33Z"/><path class="cls-1" d="M34.85,29l-.09,0a4.51,4.51,0,0,1,1.7-.33,4.07,4.07,0,0,1,1.46.24c.08,0,.15.12.11.21C37.89,29.38,35.75,29.37,34.85,29Zm4.38-.88a5.85,5.85,0,0,0-2.41-.58c-1.9-.08-4,.56-4.48,2.09-.25.88.6,2.06,2.81,2.4a10,10,0,0,0,4.14-.29l.47-1.31c-2.57.89-5.93.63-5.81-.69a6.56,6.56,0,0,0,4.4.5C40.68,29.84,40.64,28.85,39.23,28.1Z"/><path class="cls-1" d="M43.15,29l-.09,0a4.5,4.5,0,0,1,1.69-.33,4,4,0,0,1,1.46.24c.08,0,.16.12.12.21C46.18,29.38,44.05,29.37,43.15,29Zm4.38-.88a5.86,5.86,0,0,0-2.42-.58c-1.89-.08-4,.56-4.48,2.09-.24.88.61,2.06,2.82,2.4a10,10,0,0,0,4.14-.29l.47-1.31c-2.57.89-5.93.63-5.81-.69a6.56,6.56,0,0,0,4.4.5C49,29.84,48.94,28.85,47.53,28.1Z"/><path class="cls-1" d="M49.27,29.22l-1,2.67h2.2l.73-2.06c.18-.52.33-.91,1-.91h1.54l.43-1.23H51.35A2.08,2.08,0,0,0,49.27,29.22Z"/><polygon class="cls-1" points="12.55 31.89 14.82 31.89 16.36 27.69 14.09 27.69 12.55 31.89"/><path class="cls-1" d="M27.28,29.63a1.46,1.46,0,0,1,1.41-.85c.55,0,1.08.33.88.89l-.81,2.22H31l.82-2.25c.43-1.17-.5-2.14-2.57-2.14-2.3,0-3.61.75-4.11,2.13l-.83,2.26h2.19Z"/><path class="cls-1" d="M20.52,28.83c.88,0,1.6.48,1.47,1.06s-1,.94-1.88.9-1.6-.49-1.47-1.07S19.62,28.79,20.52,28.83Zm.31-1.31c-2.29-.1-4.32.88-4.59,2.12S17.51,32,19.8,32.1s4.32-.88,4.59-2.13S23.12,27.61,20.83,27.52Z"/></svg>