<svg id="Слой_1" data-name="Слой 1" xmlns="http://www.w3.org/2000/svg" viewBox="0 0 56.69 56.69"><defs><style>.cls-1{fill:#e84436;}.cls-2{fill:#fbbc0c;}.cls-3{fill:#517cbe;}.cls-4{fill:#32a853;}</style></defs><path class="cls-1" d="M26.92,27.28l-20.06,21a5.45,5.45,0,0,0,6.71,3.76,6.34,6.34,0,0,0,1.26-.53L37.39,38.66Z"/><path class="cls-2" d="M47.2,23.7l-9.76-5.58-11,9.63,11,10.88,9.69-5.53a5.3,5.3,0,0,0,2.23-7.16,5.41,5.41,0,0,0-2.23-2.24Z"/><path class="cls-3" d="M6.86,8.42a5.26,5.26,0,0,0-.18,1.37V46.91a5.33,5.33,0,0,0,.18,1.38L27.6,27.81Z"/><path class="cls-4" d="M27.07,28.35,37.44,18.12,14.9,5.2a5.59,5.59,0,0,0-2.79-.76,5.44,5.44,0,0,0-5.25,4Z"/></svg>