<svg id="Слой_1" data-name="Слой 1" xmlns="http://www.w3.org/2000/svg" viewBox="0 0 56.69 56.69"><defs><style>.cls-1{fill:#010101;}</style></defs><g id="g10"><g id="g344"><path id="path346" class="cls-1" d="M22.88,6V37.17l7.06,2.24V13.25c0-1.23.55-2.05,1.43-1.77,1.15.32,1.38,1.46,1.38,2.68V24.61c4.39,2.12,7.86,0,7.86-5.62s-2-8.29-8-10.35A86,86,0,0,0,22.88,6"/></g><g id="g348"><path id="path350" class="cls-1" d="M31.28,34.85l11.35-4c1.28-.47,1.48-1.12.44-1.46a7.77,7.77,0,0,0-4.24.22l-7.55,2.66V28l.44-.14A26,26,0,0,1,37,26.73a22.68,22.68,0,0,1,9.78,1.16c3.34,1.06,3.71,2.6,2.87,3.68A8.36,8.36,0,0,1,46.7,33.4L31.28,38.94"/></g><g id="g352"><path id="path354" class="cls-1" d="M9.93,34.42c-3.41-1-4-3-2.42-4.12a16.66,16.66,0,0,1,3.88-1.86l10.12-3.61v4.11l-7.27,2.61C13,32,12.75,32.66,13.79,33A7.42,7.42,0,0,0,18,32.78l3.5-1.26v3.66l-.7.12a22.64,22.64,0,0,1-10.88-.88"/></g></g><g id="g364"><path id="path366" class="cls-1" d="M6.87,40.56H3.72l0,0V48s0,0,0,0H5l0,0V41.38H6.49c.53,0,.83.53.83,1.51s-.3,1.51-.83,1.51H5.61l0,0v.76s0,0,0,0H6.87a1.64,1.64,0,0,0,1.2-.56,2.62,2.62,0,0,0,.57-1.76c0-1.41-.69-2.32-1.77-2.32"/></g><g id="g368"><path id="path370" class="cls-1" d="M10.73,40.56H9.45s0,0,0,0V48a0,0,0,0,0,0,0h1.28l0,0V40.58l0,0"/></g><g id="g372"><path id="path374" class="cls-1" d="M16.3,42.35l0,0H14c-2,0-2.3,1.5-2.3,2.82v1.13A1.54,1.54,0,0,0,13.15,48h1.24l0,0v-.76l0,0H13.5c-.2,0-.48-.09-.48-.8V45.14a3.54,3.54,0,0,1,.25-1.63.73.73,0,0,1,.73-.37h1V48s0,0,0,0h1.28s0,0,0,0"/></g><g id="g376"><path id="path378" class="cls-1" d="M25.5,43.64l-.63,0c-.48,0-.83-.31-.83-1.08s.41-1.15.95-1.15h1.74l0,0v-.77l0,0H24.81a1.9,1.9,0,0,0-2,2.09v.06a1.84,1.84,0,0,0,1.69,2l.62,0c.48,0,.78.47.78,1.12V46c0,.4-.1,1.15-1,1.15H23.08s0,0,0,0V48l0,0h2.24c.7,0,1.86-.28,1.86-2.17a2.53,2.53,0,0,0-.47-1.61,1.67,1.67,0,0,0-1.21-.56"/></g><g id="g380"><path id="path382" class="cls-1" d="M36,42.35l0,0H33.66c-2,0-2.3,1.5-2.3,2.82v1.13A1.54,1.54,0,0,0,32.81,48h1.24l0,0v-.76l0,0h-.89c-.2,0-.47-.09-.47-.8V45.14a3.58,3.58,0,0,1,.24-1.63.74.74,0,0,1,.73-.37h1V48a0,0,0,0,0,0,0h1.27a0,0,0,0,0,0,0"/></g><g id="g384"><path id="path386" class="cls-1" d="M30.83,42.33H29.44v-.93s0,0,0,0H28.14s0,0,0,0v4.9A1.53,1.53,0,0,0,29.56,48h.92s0,0,0,0v-.76l0,0h-.56c-.15,0-.48,0-.49-.74V43.14h1.4l0,0v-.76a0,0,0,0,0,0,0"/></g><g id="g388"><path id="path390" class="cls-1" d="M39.75,42.33H38.36v-.93l0,0H37.06a0,0,0,0,0,0,0v4.9A1.53,1.53,0,0,0,38.49,48h.91s0,0,0,0v-.76l0,0h-.56c-.14,0-.48,0-.48-.74V43.14h1.39l0,0v-.76l0,0"/></g><g id="g392"><path id="path394" class="cls-1" d="M41.86,42.33H40.58a0,0,0,0,0,0,0V48l0,0h1.28s0,0,0,0v-5.6l0,0"/></g><g id="g396"><path id="path398" class="cls-1" d="M41.86,40.56H40.58l0,0v1.07a0,0,0,0,0,0,0h1.28l0,0V40.58l0,0"/></g><g id="g400"><path id="path402" class="cls-1" d="M50.7,42.33H48.42l0,0V48l0,0h1.27l0,0v-4.8h1a.76.76,0,0,1,.73.34A3.12,3.12,0,0,1,51.68,45v3s0,0,0,0H53a0,0,0,0,0,0,0V45.14c0-1.31-.27-2.81-2.3-2.81"/></g><g id="g404"><path id="path406" class="cls-1" d="M46,46.8a1.07,1.07,0,0,1-1.62,0,3.42,3.42,0,0,1-.27-1.65h0c0-1,.12-1.53.39-1.79a.9.9,0,0,1,.69-.22.91.91,0,0,1,.7.22c.26.26.38.82.38,1.79A3.42,3.42,0,0,1,46,46.8m-.81-4.47c-2.13,0-2.4,1.51-2.4,2.82S43,48,45.14,48s2.41-1.51,2.41-2.83-.28-2.82-2.41-2.82"/></g><g id="g408"><path id="path410" class="cls-1" d="M17,42.33v0L18.9,47.9V48l-1.07,2.74s0,0,0,0H19a0,0,0,0,0,0,0l3.33-8.34s0,0,0,0H21.09l0,0L19.65,46h0l-1.25-3.65s0,0,0,0"/></g></svg>