<svg id="Слой_1" data-name="Слой 1" xmlns="http://www.w3.org/2000/svg" viewBox="0 0 56.69 56.69"><defs><style>.cls-1{fill:#e84436;}.cls-2{fill:#fbbc0c;}.cls-3{fill:#517cbe;}.cls-4{fill:#32a853;}</style></defs><path class="cls-1" d="M24.8,28.79a4.27,4.27,0,1,1-4.27-4.25A4.2,4.2,0,0,1,24.8,28.79Zm-1.87,0a2.41,2.41,0,1,0-2.4,2.58A2.45,2.45,0,0,0,22.93,28.79Z"/><path class="cls-2" d="M34,28.79a4.28,4.28,0,1,1-4.28-4.25A4.21,4.21,0,0,1,34,28.79Zm-1.87,0a2.41,2.41,0,1,0-2.41,2.58A2.46,2.46,0,0,0,32.15,28.79Z"/><path class="cls-3" d="M42.85,24.79v7.65c0,3.14-1.86,4.43-4.05,4.43A4,4,0,0,1,35,34.36l1.62-.68a2.36,2.36,0,0,0,2.15,1.51c1.4,0,2.27-.86,2.27-2.49v-.62H41a2.9,2.9,0,0,1-2.25,1,4.26,4.26,0,0,1,0-8.51,3,3,0,0,1,2.25.95h.06v-.7Zm-1.65,4a2.4,2.4,0,0,0-2.27-2.6,2.59,2.59,0,0,0,0,5.16A2.38,2.38,0,0,0,41.2,28.81Z"/><path class="cls-4" d="M45.78,20.31V32.79H44V20.31Z"/><path class="cls-1" d="M52.88,30.2l1.45,1a4.24,4.24,0,0,1-7.77-2.37,4,4,0,0,1,4-4.26,4,4,0,0,1,3.64,2.71l.2.49-5.7,2.35a2.17,2.17,0,0,0,2.07,1.29,2.41,2.41,0,0,0,2.09-1.17Zm-4.46-1.54,3.8-1.58a1.65,1.65,0,0,0-1.58-.9A2.33,2.33,0,0,0,48.42,28.66Z"/><path class="cls-3" d="M9.35,27.69V25.88h6.09A6.51,6.51,0,0,1,14,31.2a6,6,0,0,1-4.61,1.85,6.61,6.61,0,1,1,0-13.22,6.3,6.3,0,0,1,4.53,1.82l-1.27,1.27a4.62,4.62,0,0,0-3.26-1.29,4.81,4.81,0,0,0,0,9.61,4.42,4.42,0,0,0,3.34-1.32,3.73,3.73,0,0,0,1-2.24Z"/></svg>