<svg id="Слой_1" data-name="Слой 1" xmlns="http://www.w3.org/2000/svg" viewBox="0 0 56.69 56.69"><defs><style>.cls-1{fill:#4374b9;}</style></defs><path id="path53" class="cls-1" d="M28.32,7.18a1.44,1.44,0,0,0,1.22-.81l.48-1a1.16,1.16,0,0,0,.07-1.17,1,1,0,0,0-.84-.41H26.39l-3,6.31h1.49l1.14-2.48h.79a.46.46,0,0,1,.34.19c.1.16.07.4-.08.72-.36.77-.64,1.57-.64,1.57H28a3.28,3.28,0,0,1,.18-.61c.12-.27.47-1.14.47-1.15.29-.71-.07-1-.3-1.13Zm-.16-1a.62.62,0,0,1-.57.4h-1l.79-1.72h1.13a.26.26,0,0,1,.16.09.42.42,0,0,1-.05.36l-.26.54Z"/><path id="path55" class="cls-1" d="M12.42,7.18a1.41,1.41,0,0,0,1.21-.81c.19-.39.48-1,.49-1a1.16,1.16,0,0,0,.07-1.17,1,1,0,0,0-.84-.4H10.48l-3,6.3H9L10.14,7.6h.8a.42.42,0,0,1,.34.18c.1.16.07.4-.08.72-.36.78-.64,1.58-.64,1.58h1.51a3.07,3.07,0,0,1,.18-.61c.12-.28.47-1.15.47-1.16C13,7.6,12.65,7.32,12.42,7.18Zm-.16-1a.61.61,0,0,1-.57.39h-1l.81-1.71h1.11a.18.18,0,0,1,.15.08c0,.07,0,.2,0,.36l-.26.55Z"/><path id="path57" class="cls-1" d="M19.42,5.34c.52-1.12-.07-1.61-.82-1.61H16.79a1.7,1.7,0,0,0-1.65,1.1c-.18.4-.49,1-.85,1.8l-.76,1.59c-.76,1.6.38,1.87.94,1.87h1.14a2,2,0,0,0,2.15-1.23c.3-.62.71-1.5,1.14-2.43Zm-1.49-.18L16.41,8.39c-.21.45-.35.52-.68.52h-.65c-.12,0-.35,0-.18-.41.26-.55,1.32-2.85,1.54-3.31s.3-.38.51-.38h.81c.16,0,.3.08.17.35Z"/><path id="path59" class="cls-1" d="M21.9,6.57l-.5,1h.79l-.44,1a.46.46,0,0,1-.52.33h-.78c-.24,0-.32-.12-.18-.41l1.58-3.3c.16-.34.26-.39.5-.39h.81c.19,0,.3.09.17.35L23,5.92H24.4l.32-.69c.47-1,.05-1.49-.93-1.51H22.25a1.88,1.88,0,0,0-1.75,1.1c-.29.6-1.61,3.39-1.61,3.39-.49,1-.21,1.87,1.12,1.87H21.2A1.62,1.62,0,0,0,23.05,9l1.1-2.42Z"/><polygon id="polygon61" class="cls-1" points="43.32 3.75 40.35 10.06 41.88 10.06 44.87 3.75 43.32 3.75"/><polygon id="polygon63" class="cls-1" points="45.19 9.31 46.95 3.75 45.34 3.75 43.87 10.06 45.94 10.06 50.27 3.75 48.66 3.75 45.19 9.31"/><path id="path65" class="cls-1" d="M36.8,7.87l-.12-2.33c0-.28,0-.67.56-.67h1l.53-1.12H37.05A1.61,1.61,0,0,0,35.23,5.6c0,.62.12,2.61.12,2.61,0,.48-.17.7-.62.7H33.55L33,10.06H34.9a1.82,1.82,0,0,0,1.9-2.19Z"/><path id="path67" class="cls-1" d="M40.2,5.54c0-.28,0-.66.57-.66h1l.53-1.13H40.57a1.63,1.63,0,0,0-1.82,1.86c0,.61.12,2.6.12,2.6,0,.49-.16.71-.61.71H37.11l-.53,1.14h1.85a1.84,1.84,0,0,0,1.9-2.19Z"/><path id="path69" class="cls-1" d="M31.55,7.24h1.91l.49-1H32l.61-1.31h2l.52-1.12H31.69l-3,6.31h3.74L33,8.92H30.75Z"/><path id="path71" class="cls-1" d="M47.83,10.06h3.74l.54-1.14H49.84l.8-1.68h1.91l.49-1H51.12l.61-1.31h2l.52-1.12H50.78Z"/><path id="path73" class="cls-1" d="M8.34,6.78c.13-.26.38-.79.66-1.41.49-1.09-.12-1.6-.77-1.6H5.4L2.46,10.08H4L5,7.87H6.5A1.71,1.71,0,0,0,8.34,6.78ZM7.55,5.32l-.5,1.07a.6.6,0,0,1-.57.38h-1l.9-2h1C7.6,4.8,7.75,4.91,7.55,5.32Z"/><path id="path53-2" data-name="path53" class="cls-1" d="M28.32,14.32a1.45,1.45,0,0,0,1.22-.8l.48-1a1.16,1.16,0,0,0,.07-1.17,1,1,0,0,0-.84-.41H26.39l-3,6.3h1.49l1.14-2.47h.79a.45.45,0,0,1,.34.18.8.8,0,0,1-.08.73c-.36.77-.64,1.57-.64,1.57H28a3.07,3.07,0,0,1,.18-.61c.12-.28.47-1.15.47-1.16a.79.79,0,0,0-.3-1.13Zm-.16-1a.61.61,0,0,1-.57.41h-1L27.34,12h1.13a.21.21,0,0,1,.16.08.41.41,0,0,1-.05.36l-.26.55Z"/><path id="path55-2" data-name="path55" class="cls-1" d="M12.42,14.32a1.41,1.41,0,0,0,1.21-.81c.19-.39.48-1,.49-1a1.16,1.16,0,0,0,.07-1.17,1,1,0,0,0-.84-.41H10.48l-3,6.31H9l1.13-2.48h.8a.46.46,0,0,1,.34.19c.1.16.07.4-.08.72-.36.77-.64,1.57-.64,1.57h1.51a3.28,3.28,0,0,1,.18-.61c.12-.27.47-1.15.47-1.15C13,14.75,12.65,14.46,12.42,14.32Zm-.16-1a.6.6,0,0,1-.57.4h-1L11.46,12h1.11a.24.24,0,0,1,.15.08c0,.08,0,.2,0,.37l-.26.54Z"/><path id="path57-2" data-name="path57" class="cls-1" d="M19.42,12.48c.52-1.12-.07-1.6-.82-1.6H16.79A1.7,1.7,0,0,0,15.14,12c-.18.39-.49,1-.85,1.79l-.76,1.6c-.76,1.6.38,1.87.94,1.87h1.14A2,2,0,0,0,17.76,16c.3-.61.71-1.5,1.14-2.43Zm-1.49-.18-1.52,3.24c-.21.44-.35.52-.68.52h-.65c-.12,0-.35,0-.18-.41.26-.55,1.32-2.85,1.54-3.32.15-.31.3-.37.51-.37h.81c.16,0,.3.07.17.34Z"/><path id="path59-2" data-name="path59" class="cls-1" d="M21.9,13.72l-.5,1h.79l-.44,1c-.13.28-.22.34-.52.34h-.78c-.24,0-.32-.12-.18-.42l1.58-3.3c.16-.33.26-.38.5-.38h.81c.19,0,.3.09.17.35,0,0-.36.76-.36.76H24.4l.32-.7c.47-1,.05-1.49-.93-1.5H22.25A1.86,1.86,0,0,0,20.5,12c-.29.59-1.61,3.39-1.61,3.39-.49,1-.21,1.87,1.12,1.87H21.2a1.62,1.62,0,0,0,1.85-1.09l1.1-2.42Z"/><polygon id="polygon61-2" data-name="polygon61" class="cls-1" points="43.32 10.89 40.35 17.21 41.88 17.21 44.87 10.89 43.32 10.89"/><polygon id="polygon63-2" data-name="polygon63" class="cls-1" points="45.19 16.46 46.95 10.89 45.34 10.89 43.87 17.21 45.94 17.21 50.27 10.89 48.66 10.89 45.19 16.46"/><path id="path65-2" data-name="path65" class="cls-1" d="M36.8,15l-.12-2.34c0-.28,0-.66.56-.66h1l.53-1.13H37.05a1.62,1.62,0,0,0-1.82,1.86c0,.61.12,2.61.12,2.61,0,.48-.17.7-.62.7H33.55L33,17.2H34.9A1.81,1.81,0,0,0,36.8,15Z"/><path id="path67-2" data-name="path67" class="cls-1" d="M40.2,12.68c0-.28,0-.66.57-.66h1l.53-1.12H40.57a1.62,1.62,0,0,0-1.82,1.85c0,.62.12,2.61.12,2.61,0,.48-.16.7-.61.7H37.11l-.53,1.15h1.85a1.85,1.85,0,0,0,1.9-2.2Z"/><path id="path69-2" data-name="path69" class="cls-1" d="M31.55,14.39h1.91L34,13.33H32L32.64,12h2l.52-1.11H31.69l-3,6.3h3.74L33,16.07H30.75Z"/><path id="path71-2" data-name="path71" class="cls-1" d="M47.83,17.21h3.74l.54-1.14H49.84l.8-1.68h1.91L53,13.33H51.12L51.73,12h2l.52-1.11H50.78Z"/><path id="path73-2" data-name="path73" class="cls-1" d="M8.34,13.93c.13-.26.38-.79.66-1.42.49-1.09-.12-1.59-.77-1.6H5.4L2.46,17.23H4L5,15H6.5A1.73,1.73,0,0,0,8.34,13.93Zm-.79-1.47c-.27.59-.48,1-.5,1.07a.58.58,0,0,1-.57.38h-1l.9-2h1C7.6,12,7.75,12.06,7.55,12.46Z"/><path id="path53-3" data-name="path53" class="cls-1" d="M28.32,21.47a1.44,1.44,0,0,0,1.22-.81c.18-.39.48-1,.48-1a1.16,1.16,0,0,0,.07-1.17,1,1,0,0,0-.84-.41H26.39l-3,6.31h1.49l1.14-2.48h.79a.46.46,0,0,1,.34.19c.1.16.07.4-.08.72-.36.77-.64,1.57-.64,1.57H28a3.28,3.28,0,0,1,.18-.61c.12-.27.47-1.14.47-1.15.29-.71-.07-1-.3-1.13Zm-.16-1a.62.62,0,0,1-.57.4h-1l.79-1.72h1.13a.26.26,0,0,1,.16.09.42.42,0,0,1-.05.36l-.26.54Z"/><path id="path55-3" data-name="path55" class="cls-1" d="M12.42,21.47a1.41,1.41,0,0,0,1.21-.81c.19-.39.48-1,.49-1a1.16,1.16,0,0,0,.07-1.17,1,1,0,0,0-.84-.4H10.48l-3,6.3H9l1.13-2.47h.8a.45.45,0,0,1,.34.18c.1.16.07.4-.08.72-.36.78-.64,1.58-.64,1.58h1.51a3.07,3.07,0,0,1,.18-.61c.12-.28.47-1.15.47-1.16C13,21.89,12.65,21.61,12.42,21.47Zm-.16-1a.61.61,0,0,1-.57.39h-1l.81-1.71h1.11a.18.18,0,0,1,.15.08c0,.07,0,.2,0,.36l-.26.55Z"/><path id="path57-3" data-name="path57" class="cls-1" d="M19.42,19.63c.52-1.12-.07-1.61-.82-1.61H16.79a1.7,1.7,0,0,0-1.65,1.1c-.18.4-.49,1.05-.85,1.8l-.76,1.59c-.76,1.6.38,1.87.94,1.87h1.14a2,2,0,0,0,2.15-1.23c.3-.62.71-1.5,1.14-2.43Zm-1.49-.18-1.52,3.23c-.21.45-.35.52-.68.52h-.65c-.12,0-.35,0-.18-.41.26-.55,1.32-2.85,1.54-3.31s.3-.38.51-.38h.81c.16,0,.3.08.17.35Z"/><path id="path59-3" data-name="path59" class="cls-1" d="M21.9,20.86l-.5,1.05h.79l-.44,1a.46.46,0,0,1-.52.33h-.78c-.24,0-.32-.12-.18-.41l1.58-3.3c.16-.34.26-.39.5-.39h.81c.19,0,.3.09.17.35l-.36.76H24.4l.32-.69c.47-1,.05-1.49-.93-1.51H22.25a1.88,1.88,0,0,0-1.75,1.1c-.29.6-1.61,3.39-1.61,3.39-.49,1-.21,1.87,1.12,1.87H21.2a1.62,1.62,0,0,0,1.85-1.09l1.1-2.42Z"/><polygon id="polygon61-3" data-name="polygon61" class="cls-1" points="43.32 18.04 40.35 24.35 41.88 24.35 44.87 18.04 43.32 18.04"/><polygon id="polygon63-3" data-name="polygon63" class="cls-1" points="45.19 23.6 46.95 18.04 45.34 18.04 43.87 24.35 45.94 24.35 50.27 18.04 48.66 18.04 45.19 23.6"/><path id="path65-3" data-name="path65" class="cls-1" d="M36.8,22.16l-.12-2.33c0-.28,0-.67.56-.67h1L38.81,18H37.05a1.62,1.62,0,0,0-1.82,1.86c0,.61.12,2.6.12,2.6,0,.48-.17.7-.62.7H33.55L33,24.35H34.9a1.82,1.82,0,0,0,1.9-2.19Z"/><path id="path67-3" data-name="path67" class="cls-1" d="M40.2,19.83c0-.28,0-.66.57-.66h1L42.33,18H40.57a1.63,1.63,0,0,0-1.82,1.86c0,.61.12,2.6.12,2.6,0,.49-.16.71-.61.71H37.11l-.53,1.14h1.85a1.84,1.84,0,0,0,1.9-2.19Z"/><path id="path69-3" data-name="path69" class="cls-1" d="M31.55,21.53h1.91L34,20.48H32l.61-1.31h2l.52-1.12H31.69l-3,6.31h3.74L33,23.21H30.75Z"/><path id="path71-3" data-name="path71" class="cls-1" d="M47.83,24.35h3.74l.54-1.14H49.84l.8-1.68h1.91L53,20.48H51.12l.61-1.31h2l.52-1.12H50.78Z"/><path id="path73-3" data-name="path73" class="cls-1" d="M8.34,21.07c.13-.25.38-.79.66-1.41.49-1.09-.12-1.6-.77-1.6H5.4L2.46,24.37H4l1-2.21H6.5A1.71,1.71,0,0,0,8.34,21.07Zm-.79-1.46-.5,1.07a.6.6,0,0,1-.57.38h-1l.9-2h1C7.6,19.09,7.75,19.2,7.55,19.61Z"/><path id="path53-4" data-name="path53" class="cls-1" d="M28.32,28.61a1.45,1.45,0,0,0,1.22-.8l.48-1a1.16,1.16,0,0,0,.07-1.17,1,1,0,0,0-.84-.41H26.39l-3,6.3h1.49L26.05,29h.79a.45.45,0,0,1,.34.18.8.8,0,0,1-.08.73c-.36.77-.64,1.57-.64,1.57H28a3.07,3.07,0,0,1,.18-.61c.12-.28.47-1.15.47-1.16a.79.79,0,0,0-.3-1.13Zm-.16-1a.61.61,0,0,1-.57.41h-1l.79-1.72h1.13a.21.21,0,0,1,.16.08.41.41,0,0,1-.05.36l-.26.55Z"/><path id="path55-4" data-name="path55" class="cls-1" d="M12.42,28.61a1.41,1.41,0,0,0,1.21-.81c.19-.39.48-1,.49-1a1.16,1.16,0,0,0,.07-1.17,1,1,0,0,0-.84-.41H10.48l-3,6.31H9L10.14,29h.8a.46.46,0,0,1,.34.19c.1.16.07.4-.08.72-.36.77-.64,1.57-.64,1.57h1.51a3.28,3.28,0,0,1,.18-.61c.12-.27.47-1.15.47-1.15C13,29,12.65,28.75,12.42,28.61Zm-.16-1a.6.6,0,0,1-.57.4h-1l.81-1.72h1.11a.24.24,0,0,1,.15.08c0,.08,0,.2,0,.37l-.26.54Z"/><path id="path57-4" data-name="path57" class="cls-1" d="M19.42,26.77c.52-1.12-.07-1.6-.82-1.6H16.79a1.7,1.7,0,0,0-1.65,1.1c-.18.39-.49,1.05-.85,1.79l-.76,1.6c-.76,1.6.38,1.87.94,1.87h1.14a2,2,0,0,0,2.15-1.24c.3-.61.71-1.5,1.14-2.43Zm-1.49-.18-1.52,3.24c-.21.44-.35.52-.68.52h-.65c-.12,0-.35,0-.18-.41.26-.55,1.32-2.85,1.54-3.32.15-.31.3-.37.51-.37h.81c.16,0,.3.07.17.34Z"/><path id="path59-4" data-name="path59" class="cls-1" d="M21.9,28l-.5,1h.79l-.44,1c-.13.28-.22.34-.52.34h-.78c-.24,0-.32-.12-.18-.42l1.58-3.3c.16-.33.26-.38.5-.38h.81c.19,0,.3.09.17.35,0,0-.36.76-.36.76H24.4l.32-.7c.47-1,.05-1.49-.93-1.5H22.25a1.86,1.86,0,0,0-1.75,1.1c-.29.59-1.61,3.39-1.61,3.39-.49,1-.21,1.87,1.12,1.87H21.2a1.62,1.62,0,0,0,1.85-1.09L24.15,28Z"/><polygon id="polygon61-4" data-name="polygon61" class="cls-1" points="43.32 25.18 40.35 31.5 41.88 31.5 44.87 25.18 43.32 25.18"/><polygon id="polygon63-4" data-name="polygon63" class="cls-1" points="45.19 30.75 46.95 25.18 45.34 25.18 43.87 31.5 45.94 31.5 50.27 25.18 48.66 25.18 45.19 30.75"/><path id="path65-4" data-name="path65" class="cls-1" d="M36.8,29.31,36.68,27c0-.28,0-.66.56-.66h1l.53-1.13H37.05A1.62,1.62,0,0,0,35.23,27c0,.61.12,2.61.12,2.61,0,.48-.17.7-.62.7H33.55L33,31.49H34.9a1.81,1.81,0,0,0,1.9-2.18Z"/><path id="path67-4" data-name="path67" class="cls-1" d="M40.2,27c0-.28,0-.66.57-.66h1l.53-1.12H40.57A1.62,1.62,0,0,0,38.75,27c0,.62.12,2.61.12,2.61,0,.48-.16.7-.61.7H37.11l-.53,1.15h1.85a1.85,1.85,0,0,0,1.9-2.2Z"/><path id="path69-4" data-name="path69" class="cls-1" d="M31.55,28.68h1.91L34,27.63H32l.61-1.32h2l.52-1.11H31.69l-3,6.3h3.74L33,30.36H30.75Z"/><path id="path71-4" data-name="path71" class="cls-1" d="M47.83,31.5h3.74l.54-1.14H49.84l.8-1.68h1.91L53,27.63H51.12l.61-1.32h2l.52-1.11H50.78Z"/><path id="path73-4" data-name="path73" class="cls-1" d="M8.34,28.22c.13-.26.38-.79.66-1.42.49-1.09-.12-1.59-.77-1.6H5.4L2.46,31.52H4l1-2.21H6.5A1.73,1.73,0,0,0,8.34,28.22Zm-.79-1.47c-.27.59-.48,1-.5,1.07a.58.58,0,0,1-.57.38h-1l.9-2h1C7.6,26.24,7.75,26.35,7.55,26.75Z"/><path id="path53-5" data-name="path53" class="cls-1" d="M28.32,35.76A1.44,1.44,0,0,0,29.54,35l.48-1a1.16,1.16,0,0,0,.07-1.17,1,1,0,0,0-.84-.41H26.39l-3,6.31h1.49l1.14-2.48h.79a.46.46,0,0,1,.34.19c.1.16.07.4-.08.72-.36.77-.64,1.57-.64,1.57H28a3.28,3.28,0,0,1,.18-.61c.12-.27.47-1.14.47-1.15.29-.71-.07-1-.3-1.13Zm-.16-1a.62.62,0,0,1-.57.4h-1l.79-1.72h1.13a.26.26,0,0,1,.16.09.42.42,0,0,1-.05.36l-.26.54Z"/><path id="path55-5" data-name="path55" class="cls-1" d="M12.42,35.76A1.41,1.41,0,0,0,13.63,35c.19-.39.48-1,.49-1a1.16,1.16,0,0,0,.07-1.17,1,1,0,0,0-.84-.4H10.48l-3,6.3H9l1.13-2.47h.8a.45.45,0,0,1,.34.18c.1.16.07.4-.08.72-.36.78-.64,1.58-.64,1.58h1.51a3.07,3.07,0,0,1,.18-.61c.12-.28.47-1.15.47-1.16C13,36.18,12.65,35.9,12.42,35.76Zm-.16-1a.61.61,0,0,1-.57.39h-1l.81-1.71h1.11a.18.18,0,0,1,.15.08c0,.07,0,.2,0,.36l-.26.55Z"/><path id="path57-5" data-name="path57" class="cls-1" d="M19.42,33.92c.52-1.12-.07-1.61-.82-1.61H16.79a1.7,1.7,0,0,0-1.65,1.1c-.18.4-.49,1.05-.85,1.8l-.76,1.59c-.76,1.6.38,1.87.94,1.87h1.14a2,2,0,0,0,2.15-1.23c.3-.62.71-1.5,1.14-2.43Zm-1.49-.18L16.41,37c-.21.45-.35.52-.68.52h-.65c-.12,0-.35,0-.18-.41.26-.55,1.32-2.85,1.54-3.31s.3-.38.51-.38h.81c.16,0,.3.08.17.35Z"/><path id="path59-5" data-name="path59" class="cls-1" d="M21.9,35.15l-.5,1.05h.79l-.44,1a.46.46,0,0,1-.52.33h-.78c-.24,0-.32-.12-.18-.41l1.58-3.3c.16-.34.26-.39.5-.39h.81c.19,0,.3.09.17.35L23,34.5H24.4l.32-.69c.47-1,.05-1.49-.93-1.51H22.25a1.88,1.88,0,0,0-1.75,1.1c-.29.6-1.61,3.39-1.61,3.39-.49,1-.21,1.87,1.12,1.87H21.2a1.62,1.62,0,0,0,1.85-1.09l1.1-2.42Z"/><polygon id="polygon61-5" data-name="polygon61" class="cls-1" points="43.32 32.33 40.35 38.64 41.88 38.64 44.87 32.33 43.32 32.33"/><polygon id="polygon63-5" data-name="polygon63" class="cls-1" points="45.19 37.89 46.95 32.33 45.34 32.33 43.87 38.64 45.94 38.64 50.27 32.33 48.66 32.33 45.19 37.89"/><path id="path65-5" data-name="path65" class="cls-1" d="M36.8,36.45l-.12-2.33c0-.28,0-.67.56-.67h1l.53-1.12H37.05a1.62,1.62,0,0,0-1.82,1.86c0,.61.12,2.6.12,2.6,0,.48-.17.7-.62.7H33.55L33,38.64H34.9a1.82,1.82,0,0,0,1.9-2.19Z"/><path id="path67-5" data-name="path67" class="cls-1" d="M40.2,34.12c0-.28,0-.66.57-.66h1l.53-1.13H40.57a1.63,1.63,0,0,0-1.82,1.86c0,.61.12,2.6.12,2.6,0,.49-.16.71-.61.71H37.11l-.53,1.14h1.85a1.84,1.84,0,0,0,1.9-2.19Z"/><path id="path69-5" data-name="path69" class="cls-1" d="M31.55,35.82h1.91l.49-1H32l.61-1.31h2l.52-1.12H31.69l-3,6.31h3.74L33,37.5H30.75Z"/><path id="path71-5" data-name="path71" class="cls-1" d="M47.83,38.64h3.74l.54-1.14H49.84l.8-1.68h1.91l.49-1H51.12l.61-1.31h2l.52-1.12H50.78Z"/><path id="path73-5" data-name="path73" class="cls-1" d="M8.34,35.36c.13-.25.38-.79.66-1.41.49-1.09-.12-1.6-.77-1.6H5.4L2.46,38.66H4l1-2.21H6.5A1.71,1.71,0,0,0,8.34,35.36ZM7.55,33.9,7.05,35a.6.6,0,0,1-.57.38h-1l.9-2h1C7.6,33.38,7.75,33.49,7.55,33.9Z"/><path id="path53-6" data-name="path53" class="cls-1" d="M28.32,42.9a1.45,1.45,0,0,0,1.22-.8l.48-1a1.16,1.16,0,0,0,.07-1.17,1,1,0,0,0-.84-.41H26.39l-3,6.3h1.49l1.14-2.47h.79a.45.45,0,0,1,.34.18.8.8,0,0,1-.08.73c-.36.77-.64,1.57-.64,1.57H28a3.07,3.07,0,0,1,.18-.61c.12-.28.47-1.15.47-1.16a.79.79,0,0,0-.3-1.13Zm-.16-1a.61.61,0,0,1-.57.41h-1l.79-1.72h1.13a.21.21,0,0,1,.16.08.41.41,0,0,1-.05.36l-.26.55Z"/><path id="path55-6" data-name="path55" class="cls-1" d="M12.42,42.9a1.41,1.41,0,0,0,1.21-.81c.19-.39.48-1,.49-1a1.16,1.16,0,0,0,.07-1.17,1,1,0,0,0-.84-.41H10.48l-3,6.31H9l1.13-2.48h.8a.46.46,0,0,1,.34.19c.1.16.07.4-.08.72-.36.77-.64,1.57-.64,1.57h1.51a3.28,3.28,0,0,1,.18-.61c.12-.27.47-1.15.47-1.15C13,43.33,12.65,43,12.42,42.9Zm-.16-1a.6.6,0,0,1-.57.4h-1l.81-1.72h1.11a.24.24,0,0,1,.15.08c0,.08,0,.2,0,.37l-.26.54Z"/><path id="path57-6" data-name="path57" class="cls-1" d="M19.42,41.06c.52-1.12-.07-1.6-.82-1.6H16.79a1.7,1.7,0,0,0-1.65,1.1c-.18.39-.49,1-.85,1.79L13.53,44c-.76,1.6.38,1.87.94,1.87h1.14a2,2,0,0,0,2.15-1.24c.3-.61.71-1.49,1.14-2.43Zm-1.49-.18-1.52,3.24c-.21.44-.35.52-.68.52h-.65c-.12,0-.35,0-.18-.41.26-.55,1.32-2.85,1.54-3.32.15-.31.3-.37.51-.37h.81c.16,0,.3.07.17.34Z"/><path id="path59-6" data-name="path59" class="cls-1" d="M21.9,42.3l-.5,1.05h.79l-.44.95c-.13.28-.22.34-.52.34h-.78c-.24,0-.32-.12-.18-.42l1.58-3.3c.16-.33.26-.38.5-.38h.81c.19,0,.3.09.17.35,0,0-.36.76-.36.76H24.4l.32-.7c.47-1,.05-1.49-.93-1.5H22.25a1.86,1.86,0,0,0-1.75,1.1c-.29.59-1.61,3.39-1.61,3.39-.49,1-.21,1.87,1.12,1.87H21.2a1.62,1.62,0,0,0,1.85-1.09l1.1-2.42Z"/><polygon id="polygon61-6" data-name="polygon61" class="cls-1" points="43.32 39.47 40.35 45.79 41.88 45.79 44.87 39.47 43.32 39.47"/><polygon id="polygon63-6" data-name="polygon63" class="cls-1" points="45.19 45.04 46.95 39.48 45.34 39.48 43.87 45.79 45.94 45.79 50.27 39.48 48.66 39.48 45.19 45.04"/><path id="path65-6" data-name="path65" class="cls-1" d="M36.8,43.6l-.12-2.34c0-.28,0-.66.56-.66h1l.53-1.13H37.05a1.62,1.62,0,0,0-1.82,1.86c0,.61.12,2.61.12,2.61,0,.48-.17.7-.62.7H33.55L33,45.78H34.9a1.81,1.81,0,0,0,1.9-2.18Z"/><path id="path67-6" data-name="path67" class="cls-1" d="M40.2,41.26c0-.28,0-.66.57-.66h1l.53-1.12H40.57a1.62,1.62,0,0,0-1.82,1.85c0,.62.12,2.61.12,2.61,0,.48-.16.7-.61.7H37.11l-.53,1.15h1.85a1.85,1.85,0,0,0,1.9-2.2Z"/><path id="path69-6" data-name="path69" class="cls-1" d="M31.55,43h1.91l.49-1H32l.61-1.31h2l.52-1.12H31.69l-3,6.3h3.74L33,44.65H30.75Z"/><path id="path71-6" data-name="path71" class="cls-1" d="M47.83,45.79h3.74l.54-1.14H49.84l.8-1.68h1.91l.49-1H51.12l.61-1.31h2l.52-1.12H50.78Z"/><path id="path73-6" data-name="path73" class="cls-1" d="M8.34,42.51c.13-.26.38-.79.66-1.42.49-1.09-.12-1.59-.77-1.6H5.4L2.46,45.81H4L5,43.6H6.5A1.73,1.73,0,0,0,8.34,42.51ZM7.55,41c-.27.59-.48,1-.5,1.07a.58.58,0,0,1-.57.38h-1l.9-2h1C7.6,40.53,7.75,40.64,7.55,41Z"/><path id="path53-7" data-name="path53" class="cls-1" d="M28.32,50.05a1.44,1.44,0,0,0,1.22-.81l.48-1A1.16,1.16,0,0,0,30.09,47a1,1,0,0,0-.84-.4H26.39l-3,6.3h1.49l1.14-2.48h.79a.46.46,0,0,1,.34.19c.1.16.07.4-.08.72-.36.77-.64,1.57-.64,1.57H28a3.28,3.28,0,0,1,.18-.61c.12-.27.47-1.14.47-1.15.29-.71-.07-1-.3-1.13Zm-.16-1a.62.62,0,0,1-.57.4h-1l.79-1.72h1.13a.26.26,0,0,1,.16.09.42.42,0,0,1-.05.36l-.26.54Z"/><path id="path55-7" data-name="path55" class="cls-1" d="M12.42,50.05a1.41,1.41,0,0,0,1.21-.81c.19-.39.48-1,.49-1A1.16,1.16,0,0,0,14.19,47a1,1,0,0,0-.84-.4H10.48l-3,6.3H9l1.13-2.47h.8a.45.45,0,0,1,.34.18c.1.16.07.4-.08.72-.36.78-.64,1.58-.64,1.58h1.51a3.07,3.07,0,0,1,.18-.61c.12-.28.47-1.15.47-1.16C13,50.47,12.65,50.19,12.42,50.05Zm-.16-1a.61.61,0,0,1-.57.39h-1l.81-1.71h1.11a.18.18,0,0,1,.15.08c0,.07,0,.2,0,.36l-.26.55Z"/><path id="path57-7" data-name="path57" class="cls-1" d="M19.42,48.21c.52-1.12-.07-1.61-.82-1.61H16.79a1.7,1.7,0,0,0-1.65,1.1c-.18.4-.49,1-.85,1.8l-.76,1.59c-.76,1.6.38,1.87.94,1.87h1.14a2,2,0,0,0,2.15-1.23c.3-.62.71-1.5,1.14-2.43ZM17.93,48l-1.52,3.23c-.21.45-.35.52-.68.52h-.65c-.12,0-.35,0-.18-.41.26-.55,1.32-2.85,1.54-3.31s.3-.38.51-.38h.81c.16,0,.3.08.17.35Z"/><path id="path59-7" data-name="path59" class="cls-1" d="M21.9,49.44l-.5,1.05h.79l-.44,1a.46.46,0,0,1-.52.33h-.78c-.24,0-.32-.12-.18-.41l1.58-3.3c.16-.34.26-.39.5-.39h.81c.19,0,.3.09.17.35l-.36.76H24.4l.32-.69c.47-1,.05-1.49-.93-1.51H22.25a1.88,1.88,0,0,0-1.75,1.1c-.29.6-1.61,3.39-1.61,3.39C18.4,52.11,18.68,53,20,53H21.2a1.62,1.62,0,0,0,1.85-1.09l1.1-2.42Z"/><polygon id="polygon61-7" data-name="polygon61" class="cls-1" points="43.32 46.62 40.35 52.93 41.88 52.93 44.87 46.62 43.32 46.62"/><polygon id="polygon63-7" data-name="polygon63" class="cls-1" points="45.19 52.18 46.95 46.62 45.34 46.62 43.87 52.93 45.94 52.93 50.27 46.62 48.66 46.62 45.19 52.18"/><path id="path65-7" data-name="path65" class="cls-1" d="M36.8,50.74l-.12-2.33c0-.28,0-.67.56-.67h1l.53-1.12H37.05a1.62,1.62,0,0,0-1.82,1.86c0,.61.12,2.6.12,2.6,0,.48-.17.7-.62.7H33.55L33,52.93H34.9a1.82,1.82,0,0,0,1.9-2.19Z"/><path id="path67-7" data-name="path67" class="cls-1" d="M40.2,48.41c0-.28,0-.66.57-.66h1l.53-1.13H40.57a1.63,1.63,0,0,0-1.82,1.86c0,.61.12,2.6.12,2.6,0,.49-.16.71-.61.71H37.11l-.53,1.14h1.85a1.84,1.84,0,0,0,1.9-2.19Z"/><path id="path69-7" data-name="path69" class="cls-1" d="M31.55,50.11h1.91l.49-1H32l.61-1.31h2l.52-1.12H31.69l-3,6.31h3.74L33,51.79H30.75Z"/><path id="path71-7" data-name="path71" class="cls-1" d="M47.83,52.93h3.74l.54-1.14H49.84l.8-1.68h1.91l.49-1H51.12l.61-1.31h2l.52-1.12H50.78Z"/><path id="path73-7" data-name="path73" class="cls-1" d="M8.34,49.65c.13-.25.38-.79.66-1.41.49-1.09-.12-1.6-.77-1.6H5.4L2.46,53H4l1-2.21H6.5A1.71,1.71,0,0,0,8.34,49.65Zm-.79-1.46-.5,1.07a.6.6,0,0,1-.57.38h-1l.9-2h1C7.6,47.67,7.75,47.78,7.55,48.19Z"/></svg>