<svg id="Слой_1" data-name="Слой 1" xmlns="http://www.w3.org/2000/svg" viewBox="0 0 56.69 56.69"><defs><style>.cls-1{fill:#0a7ac0;}</style></defs><path class="cls-1" d="M51,51.16a.73.73,0,0,0,.51-.13.89.89,0,0,0,.11-.55v-6a1.34,1.34,0,0,0-.1-.61.61.61,0,0,0-.53-.19h-.21v-.43l2.4-.18v7.38c0,.38.1.59.3.64a1.6,1.6,0,0,0,.36,0v.46H51v-.46Z"/><path class="cls-1" d="M47.19,49a2.8,2.8,0,0,1,1.19-.45v.85a2.18,2.18,0,0,1-.22,1.1.81.81,0,0,1-.73.49.55.55,0,0,1-.45-.23,1.13,1.13,0,0,1-.18-.69A1.35,1.35,0,0,1,47.19,49m-1-2.27a.85.85,0,0,1,.37-.36,1.56,1.56,0,0,1,.76-.19q1.08,0,1.08,1v.91a8,8,0,0,0-2.3.72,1.62,1.62,0,0,0-.91,1.47,1.48,1.48,0,0,0,.34,1,1.65,1.65,0,0,0,1.34.54,1.88,1.88,0,0,0,1.6-1v.29a4,4,0,0,1,0,.5h2.07v-.46h-.08c-.33,0-.5-.23-.5-.69V47.7c0-1.33-.75-2-2.26-2a2.86,2.86,0,0,0-1.54.39,1.15,1.15,0,0,0-.62,1,.82.82,0,0,0,.29.68.86.86,0,0,0,.58.21.85.85,0,0,0,.6-.23.66.66,0,0,0,.25-.51c0-.46-.25-.69-.74-.69a.61.61,0,0,0-.45.18l.12,0s0,0,0,0"/><path class="cls-1" d="M6,48.05A4.1,4.1,0,0,0,8.3,47.5a2,2,0,0,0,1-1.82,2.05,2.05,0,0,0-1-1.87,4.06,4.06,0,0,0-2.24-.53H2.91v.45a1.81,1.81,0,0,1,.69.08c.15.09.23.32.23.71v5.93a.7.7,0,0,1-.19.58,1,1,0,0,1-.59.12H2.9v.47H6.64v-.47H6.25A.93.93,0,0,1,5.64,51a.72.72,0,0,1-.16-.56v-2.4Zm1.52-2.37c0,1.23-.5,1.84-1.5,1.84H5.52V43.76h.53q1.5,0,1.5,1.92"/><path class="cls-1" d="M11.64,47c.22-.85.68-1.28,1.39-1.28a.9.9,0,0,1,.62.21.71.71,0,0,1,.24.56.85.85,0,0,1-.2.55.73.73,0,0,1-.57.26.66.66,0,0,1-.52-.2.53.53,0,0,1-.17-.43l0-.12A3.16,3.16,0,0,0,12,47.91a7.72,7.72,0,0,0-.16,1.43v1.14a1,1,0,0,0,.1.53c.07.1.27.14.59.14h.2v.47H9.53v-.47h.12a.71.71,0,0,0,.46-.11c.1-.08.14-.26.14-.56V48a6.57,6.57,0,0,0-.07-1.43.36.36,0,0,0-.38-.23H9.63v-.47h2Z"/><path class="cls-1" d="M18.17,50.7l-.08,0,.08,0a1.55,1.55,0,0,1-.55.71,1.65,1.65,0,0,1-1.06.37,1.63,1.63,0,0,1-1.41-.55,2.24,2.24,0,0,1-.33-1.35V47.47a3.22,3.22,0,0,0-.07-.95c-.07-.12-.22-.18-.47-.18h0v-.49h2.18v4.24c0,.56.23.84.7.84s.64-.26.78-.81a3.42,3.42,0,0,0,.09-.89V47.48a2.68,2.68,0,0,0-.09-1,.73.73,0,0,0-.53-.14H17.2v-.49h2.38v4.33a2,2,0,0,0,.08.82c.07.11.22.15.43.15h.14v.47H18.12l0-.93,0,0v0Z"/><path class="cls-1" d="M22.85,45.72a2.22,2.22,0,0,0-1.89,1,3.4,3.4,0,0,0-.63,2,3.93,3.93,0,0,0,.47,2,2,2,0,0,0,1.86,1,1.7,1.7,0,0,0,1.13-.4,1.43,1.43,0,0,0,.48-.7l0,0,0,0,0,.95h2.06v-.46h-.1a.52.52,0,0,1-.47-.18,1,1,0,0,1-.09-.49V43.1l-2.42.19v.43h.16c.31,0,.5.08.59.25a1.57,1.57,0,0,1,.1.66,11.91,11.91,0,0,0,.05,1.62,1.4,1.4,0,0,0-1.26-.53m1.22,2.4v1.17a3.5,3.5,0,0,1-.07.79c-.14.64-.45,1-.91,1-.65,0-1-.77-1-2.3a6.81,6.81,0,0,1,.12-1.51c.14-.63.44-1,.88-1q1,0,1,1.83"/><path class="cls-1" d="M28.06,48.6h3.5A3.33,3.33,0,0,0,31,46.55a2.24,2.24,0,0,0-1.91-.85,2.53,2.53,0,0,0-1.94.84,3.16,3.16,0,0,0-.77,2.19A3.27,3.27,0,0,0,27,50.91a2.51,2.51,0,0,0,2.07.88A2.3,2.3,0,0,0,30.86,51a2.22,2.22,0,0,0,.64-1.44h-.58a1.7,1.7,0,0,1-.43,1.07,1.44,1.44,0,0,1-1.15.56c-.63,0-1-.45-1.2-1.36a8,8,0,0,1-.08-1.26m1-2.46c.61,0,.91.66.91,2h-1.9c0-.21,0-.38,0-.52.08-1,.4-1.46,1-1.46"/><path class="cls-1" d="M33.84,46.6a1.7,1.7,0,0,1,.63-.65,1.86,1.86,0,0,1,1-.25c1.16,0,1.74.63,1.74,1.88v3.15q0,.42.54.42h.12v.47H35.58V47.38a1.42,1.42,0,0,0-.1-.63.6.6,0,0,0-.58-.28.73.73,0,0,0-.64.39A2.26,2.26,0,0,0,34,48v2.17a2.13,2.13,0,0,0,.07.81.68.68,0,0,0,.52.15h.09v.47H31.78v-.47h.15a.42.42,0,0,0,.48-.42,4.92,4.92,0,0,0,0-.56V47.28a1.87,1.87,0,0,0-.1-.82c-.06-.1-.21-.14-.42-.14h-.13v-.47h2.06Z"/><path class="cls-1" d="M40,51.79c-1,0-1.44-.54-1.44-1.63V46.34h-1v-.47h.16a1.67,1.67,0,0,0,1.43-.95,3.16,3.16,0,0,0,.52-1.64h.48v2.59h1.1v.47h-1.1v4c0,.48.15.72.44.72s.43-.23.5-.68a6.68,6.68,0,0,0,0-1h.54a4.21,4.21,0,0,1-.21,1.62,1.42,1.42,0,0,1-1.43.74"/><path class="cls-1" d="M42,51.16h.15a.42.42,0,0,0,.43-.22,3.5,3.5,0,0,0,0-.76v-3q0-.62-.12-.72a.53.53,0,0,0-.36-.11H42v-.46h2.2v4.3a2.09,2.09,0,0,0,.08.83.5.5,0,0,0,.42.15h.16v.46H42v-.46Zm.41-6.9a.91.91,0,0,1,.28-.66.92.92,0,0,1,.67-.27.94.94,0,0,1,.67.27.91.91,0,0,1,.28.66,1,1,0,0,1-.28.68,1,1,0,0,1-.67.28.91.91,0,0,1-.67-.28,1,1,0,0,1-.28-.68"/><path class="cls-1" d="M24.31,6.08A17.3,17.3,0,0,0,6.84,22.85,16.5,16.5,0,0,0,9.21,32c1.57-4.21,4.7-12.57,4.7-12.57a8.4,8.4,0,0,1,1.45-.65l2.1-5.34,1.36-.7,1.67-3.56,3.66.6L31.6,14,40,16.28A16.92,16.92,0,0,0,24.31,6.08M24.2,41.89A18.14,18.14,0,0,1,10,35.31H38.39c-3.29,4.26-8.95,6.58-14.19,6.58m5.62-7.44h-2.6l4.81-6,.49.92Zm2.53-19L24.1,10.62l-3-.55v2.22l2.32,2.16-3.23-.28s.1.17,2.79,3l12.3,2,2.16,1.4-5.61.27L29.5,29.38l-7.61,5.07h-5l1.67-3.29-.27-.11-4.48,3.4H12.78L17.36,28c.21-1.83.1-1,.38-4.31l-.7-1L15.2,29.86l-3.83,4.59h-1l2.26-3.18,3.19-9.76-.81.37-1.41,3.89-1,.54s-2.26,5.5-3.45,8.19A18.78,18.78,0,0,1,5.55,22.85c0-8.73,7.49-18,18.76-18C35.15,4.9,40.93,13.53,41.9,18ZM37.69,28l-1.57,1.35L33,34.45H31L33,30.83l1.61-1.34L36.94,23l2.47,1Zm1.46,6.42H35l3.93-6.2,1.19-4.05,2.48.87a18,18,0,0,1-3.45,9.38M34.08,27l-1.24.22.32-2.49-.32-.48.32-2.81,3.18,1.3Z"/></svg>