<svg id="Слой_1" data-name="Слой 1" xmlns="http://www.w3.org/2000/svg" viewBox="0 0 56.69 56.69"><defs><style>.cls-1{fill:#e76aa3;}.cls-2{fill:#f2be27;}.cls-3{fill:#ef9d36;}.cls-4{fill:#f3bc87;}.cls-5{fill:#e3721b;}.cls-6{fill:#ae1f17;}.cls-7{fill:#e88d16;}.cls-8{fill:#d85714;}.cls-9{fill:#c24517;}.cls-10{fill:#db4f19;}.cls-11{fill:#d13b16;}.cls-12{fill:#c22718;}.cls-13{fill:#010101;}</style></defs><path id="path4061" class="cls-1" d="M53.57,27.84H27.21V21.09H53.57Z"/><path id="path4103" class="cls-2" d="M50.15,27.84H27.21V11H50.15V27.84Z"/><path id="path4089" class="cls-3" d="M40.67,27.84H27.21V4.22H40.67Z"/><path id="path4075" class="cls-4" d="M43.32,27.84H27.21v-21H43.32Z"/><path id="path4688" class="cls-5" d="M27.21,6.86v21H40.67v-21Z"/><path id="path4119" class="cls-6" d="M13.72,27.84H27.21v3.37H13.72V27.84Z"/><path id="path4698" class="cls-7" d="M27.21,11V27.83H43.33V11Z"/><path id="path4693" class="cls-8" d="M27.21,11V27.83H40.67V11Z"/><path id="path4117" class="cls-9" d="M35.63,27.84H27.21V17.71h8.42V27.84Z"/><path id="path4713" class="cls-10" d="M27.21,21.09v6.74H50.16V21.09Z"/><path id="path4708" class="cls-11" d="M27.21,21.09v6.74H43.33V21.09Z"/><path id="path4703" class="cls-12" d="M27.21,21.09v6.74H40.67V21.09Z"/><path id="path4625" class="cls-6" d="M27.21,21.09v6.74h8.43V21.09Z"/><g id="g2925"><path id="path2850" class="cls-13" d="M49,35c-2.15.38-3.29,2-3.29,4.82s1.53,4.78,3.77,4.78c1.1,0,2.06-.38,4.06-1.38v2.34A12.11,12.11,0,0,1,47.79,47a6.1,6.1,0,0,1-4.87-1.81A6.55,6.55,0,0,1,41,40.44c0-4.07,3.06-6.88,7.5-6.88,2.91,0,5,1.38,5,3.34a2.18,2.18,0,0,1-2.34,2.2A4.35,4.35,0,0,1,49,38.43"/><path id="path2852" class="cls-13" d="M38.28,40.44C40.24,38,41,37,41,35.8a2.25,2.25,0,0,0-2.29-2.24,2.61,2.61,0,0,0-1.82.81v5l-3.2,4.3V33.94H30.59L25.53,42.3V33.94H23.81L19.17,35v1.19l2.54.24V46.79h3.2l4.87-8v8h3.58"/><path id="path2862" class="cls-13" d="M9.47,45.17h.72c2.58,0,4-1.58,4-4.73,0-2.63-1.14-4.07-3.29-4.07a7.48,7.48,0,0,0-1.44.2v8.6Zm0,5.63,2.11.48v1.2H3.31v-1.2l1.91-.48V36.37H3.12V35.18l5-1.53H9.47v1.72c2.35-1.43,3.16-1.67,4.4-1.67,2.77,0,4.87,2.58,4.87,6.16,0,4.11-2.82,6.93-7.12,6.93-.47,0-1.29,0-2.15-.1"/></g></svg>