<svg id="Слой_1" data-name="Слой 1" xmlns="http://www.w3.org/2000/svg" viewBox="0 0 56.69 56.69"><defs><style>.cls-1{fill:#e95224;}</style></defs><path class="cls-1" d="M15.18,50.73a.42.42,0,0,0,.48,0c.09-.08.23-.2.39-.36s.3-.3.4-.42a.36.36,0,0,0-.06-.55l-1.05-.78a6.26,6.26,0,0,1-.6.64c-.4.37-.72.61-.72.61Z"/><path class="cls-1" d="M26.65,47.25a3.79,3.79,0,0,1-4.1,4,3.78,3.78,0,0,1-4.09-4V42.18a.38.38,0,0,1,.38-.38h1.05v5.31a2.48,2.48,0,0,0,2.68,2.74,2.47,2.47,0,0,0,2.67-2.74V41.8h1.05a.36.36,0,0,1,.36.36v5.09Z"/><path class="cls-1" d="M36.85,46.45v.14a.4.4,0,0,1-.4.4H29.59a3.07,3.07,0,0,0,3.2,2.94A4.2,4.2,0,0,0,35.4,49a.36.36,0,0,1,.49.06l.54.67a5.07,5.07,0,0,1-3.72,1.42,4.43,4.43,0,0,1-4.57-4.7,4.43,4.43,0,0,1,4.47-4.69C35.06,41.8,36.83,43.71,36.85,46.45Zm-7.24-.61h5.81a2.85,2.85,0,0,0-2.83-2.79A3,3,0,0,0,29.61,45.84Z"/><path class="cls-1" d="M45,43.55a.36.36,0,0,1-.5.14A5.82,5.82,0,0,0,41.84,43c-1.29,0-2.13.54-2.13,1.42s.66,1.13,1.85,1.27l1.07.14c1.91.24,3,1,3,2.52,0,1.71-1.56,2.81-4,2.81A6.22,6.22,0,0,1,37.92,50l.44-.69a.42.42,0,0,1,.58-.14,5,5,0,0,0,2.78.73c1.53,0,2.48-.49,2.48-1.45,0-.71-.61-1.17-1.88-1.31l-1.08-.12c-2-.24-3-1.15-3-2.51,0-1.7,1.43-2.74,3.6-2.74a6.8,6.8,0,0,1,3.26.8.37.37,0,0,1,.14.51Z"/><path class="cls-1" d="M52.93,49.54a.38.38,0,0,0-.51-.14,3.47,3.47,0,0,1-1.6.43c-1,0-1.78-.61-1.78-2V43.07h2.4a.36.36,0,0,0,.36-.35V41.8H49V39.48a.38.38,0,0,0-.38-.38h-1v2.7H47a.42.42,0,0,0-.42.42v.85h1v4.76c0,2.26,1.16,3.34,3.11,3.34a4.33,4.33,0,0,0,2.68-.9Z"/><path class="cls-1" d="M16.81,44.17a6.76,6.76,0,0,0-7-6.5,3.26,3.26,0,0,0-.62.06,6.75,6.75,0,0,0,1.12,13.44A6.65,6.65,0,0,0,14,49.85l-1-.75a.36.36,0,0,0-.4,0,5.11,5.11,0,0,1-2.7.67,5.24,5.24,0,1,1,4.47-2.28.37.37,0,0,0,.08.51l.88.64A6.7,6.7,0,0,0,16.81,44.17Z"/><path class="cls-1" d="M40.63,36.64a1,1,0,0,0,1.14,0,11,11,0,0,0,.95-.85c.38-.38.71-.71,1-1a.89.89,0,0,0-.14-1.33L41,31.62a14.75,14.75,0,0,1-1.42,1.51c-1,.9-1.7,1.47-1.7,1.47Z"/><path class="cls-1" d="M44.52,21A16.13,16.13,0,0,0,27.84,5.5a8,8,0,0,0-1.47.14,16.09,16.09,0,0,0,2.65,32,15.87,15.87,0,0,0,8.91-3.13l-2.46-1.8a.86.86,0,0,0-.95,0,12.39,12.39,0,0,1-6.45,1.61,12.47,12.47,0,1,1,10.67-5.45.89.89,0,0,0,.19,1.23L41,31.62A16,16,0,0,0,44.52,21Z"/></svg>