<svg id="Слой_1" data-name="Слой 1" xmlns="http://www.w3.org/2000/svg" viewBox="0 0 56.69 56.69"><defs><style>.cls-1{fill:#d70c3d;}</style></defs><g id="layer1"><g id="g21287"><path id="path4448" class="cls-1" d="M22.57,28.35c0,1.83,1.35,3.18,3.62,3.18A6.29,6.29,0,0,0,29,30.94l.85,1.16a7.92,7.92,0,0,1-4,.95c-3.61,0-6.27-1.74-6.27-4.7h0c0-3,2.66-4.7,6.27-4.7a9,9,0,0,1,4,.77l-.87,1.34a5.21,5.21,0,0,0-2.69-.6c-2.27,0-3.62,1.35-3.62,3.18"/><path id="path4450" class="cls-1" d="M36.37,23.64c-3.5,0-6,1.75-6,4.71s2.53,4.7,6,4.7,6-1.74,6-4.7-2.53-4.71-6-4.71m0,8a3,3,0,0,1-3-3.25,3,3,0,1,1,6,0,3,3,0,0,1-3,3.25"/><path id="path4452" class="cls-1" d="M51.51,29v3.78H54.4V23.88H51.51v3.4H47.08v-3.4H44.19v8.93h2.89V29Z"/><path id="path4454" class="cls-1" d="M14.72,32.81h3V23.88h-3Z"/><path id="path4456" class="cls-1" d="M6,28v.85a22.71,22.71,0,0,1,4,4h3.41A22,22,0,0,0,9,28.93c1.57-.07,3.33-.71,3.33-2.51,0-2.32-2.48-2.75-5-2.75-2,0-3.93.1-5.06.19v9H5.14v-7.6a17.09,17.09,0,0,1,2.23-.12c1.46,0,2.2.48,2.2,1.33S9.27,28,6,28"/></g></g></svg>