<svg id="Слой_1" data-name="Слой 1" xmlns="http://www.w3.org/2000/svg" viewBox="0 0 56.69 56.69"><defs><style>.cls-1{fill:#201a18;}.cls-1,.cls-2{fill-rule:evenodd;}.cls-2{fill:#bfa161;}</style></defs><path id="path266" class="cls-1" d="M12.61,50.54H10.13c-.55-.82-1.05-1.53-1.49-2.13s-.93-1.22-1.45-1.86H6.25v2.8a1.12,1.12,0,0,0,.07.38.54.54,0,0,0,.31.25,2.42,2.42,0,0,0,.41.08c.19,0,.36,0,.49,0v.44H3.63V50.1l.46,0A1.82,1.82,0,0,0,4.5,50a.56.56,0,0,0,.28-.24.75.75,0,0,0,.09-.39V43a.92.92,0,0,0-.07-.38.47.47,0,0,0-.3-.26c-.11,0-.25-.07-.42-.1l-.45-.06v-.44H7.89a4.88,4.88,0,0,1,1.1.12,2.92,2.92,0,0,1,.93.37,2,2,0,0,1,.64.64,1.86,1.86,0,0,1,.24,1,2.49,2.49,0,0,1-.16.9,1.88,1.88,0,0,1-.48.67,2.83,2.83,0,0,1-.71.47,5.27,5.27,0,0,1-.9.33c.46.57.83,1.06,1.13,1.45l1.11,1.43a2.8,2.8,0,0,0,.52.55,2.92,2.92,0,0,0,.46.29,1.77,1.77,0,0,0,.42.12,2.6,2.6,0,0,0,.42.05v.44ZM9.19,44a1.71,1.71,0,0,0-.48-1.27,1.86,1.86,0,0,0-1.35-.46H6.25V46H7.1a2.12,2.12,0,0,0,1.5-.55A1.94,1.94,0,0,0,9.19,44Zm9.3,5.12a3.2,3.2,0,0,1-1.08,1.17,2.8,2.8,0,0,1-1.55.43,3.21,3.21,0,0,1-1.36-.26,2.7,2.7,0,0,1-.95-.7A3.13,3.13,0,0,1,13,48.69a4.26,4.26,0,0,1-.18-1.26,3.58,3.58,0,0,1,.2-1.16,3.13,3.13,0,0,1,.58-1,2.84,2.84,0,0,1,.92-.71,2.71,2.71,0,0,1,1.23-.27,2.89,2.89,0,0,1,1.2.22,2.19,2.19,0,0,1,.81.57,2.33,2.33,0,0,1,.45.82,3.75,3.75,0,0,1,.14,1v.41H14.09a4.55,4.55,0,0,0,.12,1.09,2.64,2.64,0,0,0,.38.87,1.8,1.8,0,0,0,.66.56,2.15,2.15,0,0,0,1,.21,1.91,1.91,0,0,0,1-.26,2.68,2.68,0,0,0,.8-.92l.46.26Zm-1.44-2.33A4.91,4.91,0,0,0,17,46a2.06,2.06,0,0,0-.2-.66,1.17,1.17,0,0,0-.41-.47,1.13,1.13,0,0,0-.67-.18,1.42,1.42,0,0,0-1.13.54,2.49,2.49,0,0,0-.49,1.51Zm5.06,3.77h-3v-.39l.31,0a1.46,1.46,0,0,0,.27,0,.39.39,0,0,0,.26-.18.63.63,0,0,0,.09-.35L19.92,43a2.29,2.29,0,0,0-.07-.44.48.48,0,0,0-.06-.14l-.05-.06c-.11-.1,0,0-.08,0s0,0-.17-.07a6,6,0,0,0-.66,0v-.43l2.25-.11.11.08v7.63a.63.63,0,0,0,.08.35.45.45,0,0,0,.26.2,1,1,0,0,0,.27.09l.31,0v.39Zm3.87,0H22.91v-.4l.31,0a1.08,1.08,0,0,0,.27,0,.45.45,0,0,0,.27-.19.64.64,0,0,0,.09-.36V45.77a.76.76,0,0,0-.1-.37.83.83,0,0,0-.26-.27,1.09,1.09,0,0,0-.35-.12,2.55,2.55,0,0,0-.43-.07v-.4L25,44.41l.09.08v4.95a.63.63,0,0,0,.08.35.47.47,0,0,0,.28.21l.27.09.3,0v.4ZM25.17,42a.89.89,0,0,1-.24.61.79.79,0,0,1-.6.26.78.78,0,0,1-.56-.25.82.82,0,0,1-.25-.57.83.83,0,0,1,.25-.59.75.75,0,0,1,.56-.25.85.85,0,0,1,.61.23A.8.8,0,0,1,25.17,42Zm7.66,8.41-.53.17a2.11,2.11,0,0,1-.52.07,1.32,1.32,0,0,1-.81-.23,1.06,1.06,0,0,1-.39-.66h0a3.05,3.05,0,0,1-.91.68,2.55,2.55,0,0,1-1.16.24,1.73,1.73,0,0,1-1.19-.42,1.43,1.43,0,0,1-.46-1.11,1.81,1.81,0,0,1,.1-.63,1.47,1.47,0,0,1,.32-.5,1.28,1.28,0,0,1,.42-.33,4.43,4.43,0,0,1,.5-.24l1.19-.39a7.9,7.9,0,0,0,1.2-.45V46a3,3,0,0,0,0-.31,1.57,1.57,0,0,0-.15-.43,1.18,1.18,0,0,0-.37-.4,1.09,1.09,0,0,0-.67-.17,1.69,1.69,0,0,0-.56.09,1.13,1.13,0,0,0-.36.21,1.64,1.64,0,0,0,.06.36,1.9,1.9,0,0,1,.07.45.51.51,0,0,1-.21.39.83.83,0,0,1-.57.18.55.55,0,0,1-.48-.22.84.84,0,0,1-.15-.49.88.88,0,0,1,.21-.55,2.31,2.31,0,0,1,.55-.46,3.37,3.37,0,0,1,.71-.3,2.94,2.94,0,0,1,.81-.12,5.27,5.27,0,0,1,.95.08,1.78,1.78,0,0,1,.74.3,1.45,1.45,0,0,1,.5.62,2.52,2.52,0,0,1,.18,1c0,.59,0,1.11,0,1.57s0,1,0,1.5a.69.69,0,0,0,.08.38.73.73,0,0,0,.27.25,1,1,0,0,0,.31.06h.43v.4Zm-2.26-3.27c-.37.1-.69.2-1,.3a3.66,3.66,0,0,0-.77.37,1.78,1.78,0,0,0-.52.5,1.27,1.27,0,0,0-.19.69.93.93,0,0,0,.29.75,1.07,1.07,0,0,0,.71.24,1.59,1.59,0,0,0,.82-.21,2.41,2.41,0,0,0,.59-.5l0-2.14Zm10,3.38H37.41v-.41l.32,0,.3,0a.46.46,0,0,0,.27-.2.64.64,0,0,0,.09-.36V46.36a1.47,1.47,0,0,0-.32-1,1.05,1.05,0,0,0-.79-.35,1.81,1.81,0,0,0-.63.1,2.12,2.12,0,0,0-.5.25,1.54,1.54,0,0,0-.35.31l-.18.26v3.52a.63.63,0,0,0,.09.35A.58.58,0,0,0,36,50a1.32,1.32,0,0,0,.3.09l.33,0v.41H33.47v-.41l.31,0,.28,0a.44.44,0,0,0,.26-.2.64.64,0,0,0,.09-.36V45.72a.79.79,0,0,0-.09-.38.81.81,0,0,0-.26-.29.89.89,0,0,0-.3-.11l-.36,0v-.4l2.13-.14.09.09v.86h0L36,45a3.52,3.52,0,0,1,.44-.34,2.72,2.72,0,0,1,.57-.25,2.52,2.52,0,0,1,.75-.1,1.65,1.65,0,0,1,1.37.55,2.21,2.21,0,0,1,.44,1.46v3.18a.7.7,0,0,0,.08.35A.5.5,0,0,0,40,50l.27.09a2,2,0,0,0,.31,0v.41Zm3.75.16a2.77,2.77,0,0,1-2.18-.88,3.41,3.41,0,0,1-.78-2.36,3.46,3.46,0,0,1,.21-1.21,3.54,3.54,0,0,1,.61-1,2.94,2.94,0,0,1,1-.71,2.89,2.89,0,0,1,1.25-.27,2.55,2.55,0,0,1,1.54.44,1.38,1.38,0,0,1,.59,1.17.94.94,0,0,1-.16.55.55.55,0,0,1-.51.24.82.82,0,0,1-.59-.19.55.55,0,0,1-.22-.41,2.38,2.38,0,0,1,.08-.58,2.19,2.19,0,0,0,.09-.43.52.52,0,0,0-.34-.25,1.63,1.63,0,0,0-.5-.07,1.38,1.38,0,0,0-.6.13,1.49,1.49,0,0,0-.54.46,2.34,2.34,0,0,0-.39.84,4.63,4.63,0,0,0-.15,1.26,3.12,3.12,0,0,0,.53,1.88,1.67,1.67,0,0,0,1.41.73,1.89,1.89,0,0,0,1.06-.29,3,3,0,0,0,.78-.88l.42.27a3.39,3.39,0,0,1-1.13,1.16,2.79,2.79,0,0,1-1.45.42Zm8.77-1.6A3.2,3.2,0,0,1,52,50.27a2.8,2.8,0,0,1-1.55.43,3.13,3.13,0,0,1-1.35-.26,2.65,2.65,0,0,1-1-.7,3.13,3.13,0,0,1-.57-1.05,4.26,4.26,0,0,1-.18-1.26,3.58,3.58,0,0,1,.2-1.16,3.13,3.13,0,0,1,.58-1,2.84,2.84,0,0,1,.92-.71,2.71,2.71,0,0,1,1.23-.27,2.89,2.89,0,0,1,1.2.22,2,2,0,0,1,.81.57,2.33,2.33,0,0,1,.45.82,3.75,3.75,0,0,1,.14,1v.41H48.66a4.55,4.55,0,0,0,.12,1.09,2.64,2.64,0,0,0,.38.87,1.8,1.8,0,0,0,.66.56,2.15,2.15,0,0,0,1,.21,1.88,1.88,0,0,0,1-.26,2.58,2.58,0,0,0,.8-.92l.46.26Zm-1.44-2.33a4.91,4.91,0,0,0-.06-.74,2.07,2.07,0,0,0-.19-.66A1.25,1.25,0,0,0,51,44.9a1.17,1.17,0,0,0-.67-.18,1.42,1.42,0,0,0-1.14.54,2.49,2.49,0,0,0-.49,1.51Z"/><path id="path262" class="cls-2" d="M38.21,38.72a4.47,4.47,0,0,1-4.34.46,2.1,2.1,0,0,1-.7-.51c-.29-.34-7.62-8.24-7.62-8.24l0,0a6.21,6.21,0,0,0,6-2.53,5.55,5.55,0,0,0,0-6.15c-1.45-2-4.27-2.6-6.63-2.3-4.1.55-7,4-8,7.66A19.37,19.37,0,0,0,18.2,38.83a9.45,9.45,0,0,0,1.35,2.28A19,19,0,0,1,9.42,31.56a17.88,17.88,0,0,1,.46-15.7,18.72,18.72,0,0,1,10.27-8.7,19.91,19.91,0,0,1,15.77,1c5.62,2.67,9.86,9.32,9.89,15.26a18,18,0,0,1-7.6,15.29"/><path id="path264" class="cls-2" d="M22.44,41c-2.1-2.16-3.79-5-2.51-7.89a26.21,26.21,0,0,0,2.63-7.09c.19,2.69,1.9,5.09,2.72,7.66a6.14,6.14,0,0,1-.16,3.83,11.26,11.26,0,0,1-2.51,3.68L22.44,41Z"/></svg>