<svg id="Слой_1" data-name="Слой 1" xmlns="http://www.w3.org/2000/svg" viewBox="0 0 56.69 56.69"><defs><style>.cls-1{fill:#e62e29;}</style></defs><path id="path51" class="cls-1" d="M10.27,48c0-2.91,1.69-4.92,4.47-4.92s4.46,2,4.46,4.92-1.73,4.89-4.46,4.89-4.47-2-4.47-4.89m7.11,0c0-2.13-.86-3.45-2.64-3.45S12.09,45.81,12.09,48s.91,3.43,2.65,3.43,2.64-1.27,2.64-3.43"/><path id="path55" class="cls-1" d="M31.61,43.19v9.57h5.9V51.34H33.35V48.6H37V47.17H33.35V44.62H37l.47-1.43Z"/><path id="path67" class="cls-1" d="M26.12,47.6,25.67,49h1.45v2.15a3,3,0,0,1-1.38.29c-2,0-3-1.36-3-3.42s1-3.46,3.09-3.46a4.08,4.08,0,0,1,2.17.65l.47-1.47a6.18,6.18,0,0,0-2.77-.65c-2.93,0-4.79,2.14-4.79,5a4.42,4.42,0,0,0,4.73,4.76,7,7,0,0,0,3.24-.77V47.6H26.12Z"/><path id="path71" class="cls-1" d="M2.22,43.19H5.1c2.64,0,3.47,1.64,3.47,2.92a2.76,2.76,0,0,1-1.75,2.63v.06c.18.05.58.24,1.1,1.17l1.59,2.79h-2L6.18,50.35c-.55-1-.77-1.31-1.65-1.31H3.92v3.72H2.22Zm2.83,4.42c1.47,0,1.77-.91,1.77-1.51s-.26-1.48-1.77-1.48H3.92v3Z"/><path id="path75" class="cls-1" d="M40,43.19h2.88c2.64,0,3.47,1.64,3.47,2.92a2.76,2.76,0,0,1-1.75,2.63v.06c.19.05.59.24,1.11,1.17l1.58,2.79h-2l-1.37-2.41c-.55-1-.77-1.31-1.65-1.31h-.61v3.72H40Zm2.84,4.42c1.46,0,1.76-.91,1.76-1.51s-.26-1.48-1.76-1.48H41.67v3Z"/><path id="path79" class="cls-1" d="M50.34,45.62c0-.76.72-1.08,1.52-1.08a5.49,5.49,0,0,1,2.07.42v-1.6a7.19,7.19,0,0,0-2.24-.29c-2.09,0-3.21,1.23-3.21,2.64s1.14,2.13,2.09,2.64l.68.36c.79.42,1.37.75,1.37,1.48s-.8,1.22-1.6,1.22a4.57,4.57,0,0,1-2.33-.58l-.46,1.42a6.14,6.14,0,0,0,2.82.63c2,0,3.43-1.15,3.43-2.85,0-1.2-.82-2-2.17-2.68L51.67,47c-.75-.4-1.33-.72-1.33-1.39"/><path id="path47" class="cls-1" d="M46.18,21.34c0,8.07-4.86,12.94-10.06,12.94a10.73,10.73,0,0,1-6.74-2c6.07-2.42,13-9.29,13-17.41a14.67,14.67,0,0,0-1.49-6.25,17.8,17.8,0,0,1,5.34,12.7M15.62,8.87a14.56,14.56,0,0,1,6.25-1.49c8.13,0,15,6.87,17.41,12.94a10.59,10.59,0,0,0,2-6.73c0-5.21-4.87-10.06-13-10.06a17.8,17.8,0,0,0-12.7,5.34m.23,25.21a14.68,14.68,0,0,1-1.48-6.25c0-8.13,6.87-15,12.94-17.41a10.67,10.67,0,0,0-6.73-2c-5.21,0-10.06,4.87-10.06,12.94a17.8,17.8,0,0,0,5.33,12.7m25.22-.23a14.56,14.56,0,0,1-6.25,1.49c-8.13,0-15-6.87-17.41-12.94a10.59,10.59,0,0,0-2,6.73c0,5.21,4.88,10.06,13,10.06a17.82,17.82,0,0,0,12.7-5.34"/></svg>