<svg id="Слой_1" data-name="Слой 1" xmlns="http://www.w3.org/2000/svg" viewBox="0 0 56.69 56.69"><defs><style>.cls-1{fill:#1c4377;}</style></defs><g id="Layer_1" data-name="Layer 1"><path id="path2" class="cls-1" d="M43.08,20.62a1.24,1.24,0,0,0-1.27,1.27V34.8a1.27,1.27,0,0,0,1.27,1.28H55.34V33h-9.6v-3.3h8v-3h-8v-3.1h9.49v-3Zm-32.5,7.26H8.08a.56.56,0,0,0-.49.85l4.75,7.35H17l-4.23-5.73c2-.27,3.74-1.34,3.74-4.73,0-3.57-1.54-5-5.31-5H2.62a1.25,1.25,0,0,0-1.27,1.27V36.08H5.42V23.56h5.22c1.53,0,2.12.7,2.12,2.13a2,2,0,0,1-2.18,2.19m15,7.55a1,1,0,0,1-.92.65H22.22a1,1,0,0,1-.95-.76l-3.52-14.7h4.17l1.93,9.54,3-8.88a1,1,0,0,1,.92-.66H30a1,1,0,0,1,.93.66l3,8.88,1.93-9.54H40L36.5,35.32a1,1,0,0,1-1,.76H33.1a1,1,0,0,1-.92-.65l-3.3-9.11Z"/></g></svg>