<svg id="Слой_1" data-name="Слой 1" xmlns="http://www.w3.org/2000/svg" viewBox="0 0 56.69 56.69"><defs><style>.cls-1{fill:#19478e;}</style></defs><path id="path23" class="cls-1" d="M13.8,11.47H11.47l-1,3.53c-.52,1.93-1,3.88-1.17,4.34l-.23.82h1.74l.14-.49c.07-.28.18-.7.24-1l.11-.45H13.8l.21.95.22.94h1.89l-.87-3.24c-.48-1.78-1-3.75-1.16-4.36Zm-1.27,1.88c.05,0,.84,3.32.84,3.52a2.56,2.56,0,0,1-.84.07c-.76,0-.84,0-.8-.16s.21-.9.4-1.8A13.26,13.26,0,0,1,12.53,13.35Z"/><path id="path29" class="cls-1" d="M40.23,15.81V11.5h1.2c.87,0,1.2-.09,1.24,0s.51,1.42,1.08,2.93,1.07,2.8,1.11,2.88A15.78,15.78,0,0,0,45,14.46v-3h1.62l0,4.33,0,4.33H44.24L43.09,17,42,13.87l0,3.15,0,3.14H40.23V15.81Z"/><path id="path27" class="cls-1" d="M16.89,15.81V11.47h2.82l.65,2.89c.36,1.58.67,2.87.7,2.87s.36-1.29.74-2.87l.69-2.89h2.73v8.69H23.56V16.87a27.13,27.13,0,0,0-.08-3.15c0,.08-.42,1.56-.84,3.3l-.76,3.14H21a5.24,5.24,0,0,1-.87,0c0-.15-1.41-6.22-1.48-6.39a20.87,20.87,0,0,0-.09,3.1v3.29H16.89Z"/><path id="path21" class="cls-1" d="M35.23,20.1a2.38,2.38,0,0,1-1.88-1.26c-.2-.36-.21-.49-.23-3.88l0-3.51h1.76l0,3.37c0,3,0,3.4.19,3.61A1.08,1.08,0,0,0,37,18.07c0-.2.09-1.63.09-3.48V11.45h1.76v3.28c0,1.86,0,3.42-.09,3.61a3.36,3.36,0,0,1-.36.75,3.25,3.25,0,0,1-3.16,1Z"/><path id="path31" class="cls-1" d="M20.86,22.23v23h4.7a24.38,24.38,0,0,0,5.64-.35A6.8,6.8,0,0,0,35.48,40c.59-2,.57-9.91,0-12.25-1.19-4.61-2.94-5.5-10.85-5.51ZM25.5,26h1.8c3.39,0,3.92,1.19,3.79,8.34C31,38.44,31,39,30.45,40a3.5,3.5,0,0,1-1.17,1.44,7.42,7.42,0,0,1-2.2.28H25.5V26Z"/><path id="path19" class="cls-1" d="M42.56,44.88C40.33,44.19,39,42,39,39.11V37.93h4.59l.17,1.38c.23,1.82.9,2.53,2.42,2.53s1.81-.16,2.24-1c1-2,.14-3.28-4.17-5.81-3.8-2.22-5.29-4.51-4.9-7.49.49-3.69,2.66-5.3,7.14-5.32s6.42,1.48,6.65,5.11l.1,1.54-2.29-.07-2.29-.07L48.55,28c-.12-1.24-.56-2-1.28-2.33a2.29,2.29,0,0,0-3.18,2.23c0,1.32.94,2.29,3.8,3.9,3,1.72,4.2,2.73,4.92,4.27a8.58,8.58,0,0,1,.28,5.37,5.51,5.51,0,0,1-3.76,3.41,15.32,15.32,0,0,1-6.77,0Z"/><path id="path17" class="cls-1" d="M6.64,45c-2.25-.73-3.64-3-3.64-6V38H7.59l.15.77a9,9,0,0,1,.15,1.36,2.1,2.1,0,0,0,2.3,1.8c1.43,0,1.81-.17,2.24-1,.94-1.83.19-3.13-2.87-5C6,33.65,4.9,32.76,4.12,31.32a5,5,0,0,1-.7-3.09c0-4.16,2.28-6,7.35-6,2.34,0,3.93.45,5,1.44a5.44,5.44,0,0,1,1.37,3.79v1.41H12.81l-.15-1a4.48,4.48,0,0,0-.44-1.43,2.28,2.28,0,0,0-4.08,1.52c0,1.32.92,2.27,3.79,3.9,4.34,2.46,5.5,3.94,5.5,7,0,2.21-.33,3.35-1.3,4.45-1.24,1.41-2.54,1.86-5.67,1.95A12.11,12.11,0,0,1,6.64,45Z"/><path id="path15" class="cls-1" d="M50.1,20.11c-1.69-.38-2.18-1.34-2.18-4.36,0-2.56.53-3.77,1.83-4.17a6.06,6.06,0,0,1,2.12-.07,2.25,2.25,0,0,1,1.77,2.09l0,.54H51.93l0-.42c-.09-.83-.74-1.26-1.4-1s-.65.61-.69,2.74.05,2.76.4,3.16c.19.23.28.25.8.25.93,0,.92,0,.92-1.06v-.93h-1v-1.3h2.78v2.13c0,1.94,0,2.13-.17,2.17a12.31,12.31,0,0,1-3.4.18Z"/><path id="path13" class="cls-1" d="M27.75,20a1.85,1.85,0,0,1-1.3-1.94l-.05-.67h1.76l.06.52c.07.73.3,1,.94,1s.91-.26.92-.87a.8.8,0,0,0-.31-.74,7.59,7.59,0,0,0-1.19-.86c-1.64-1-2-1.47-2-2.68,0-1.54.85-2.28,2.64-2.28a2.35,2.35,0,0,1,2,.6,2,2,0,0,1,.59,1.52V14H30.07L30,13.53a.89.89,0,0,0-.3-.65.83.83,0,0,0-1.33.38c-.2.72.09,1.09,1.48,1.87a4.22,4.22,0,0,1,1.8,1.54,3.14,3.14,0,0,1,.1,2c-.32,1.07-1,1.48-2.56,1.53A3.52,3.52,0,0,1,27.75,20Z"/><path id="path36" class="cls-1" d="M4.4,20a1.84,1.84,0,0,1-1.3-1.93l0-.67H4.82l0,.52c.08.72.31,1,1,1s.9-.27.91-.87a.8.8,0,0,0-.31-.74,7.59,7.59,0,0,0-1.19-.86c-1.63-1-2-1.47-2-2.67,0-1.54.85-2.28,2.64-2.28a2.35,2.35,0,0,1,2,.6,2,2,0,0,1,.6,1.52V14H6.72l0-.44a.9.9,0,0,0-.29-.65A.84.84,0,0,0,5,13.25c-.19.72.09,1.09,1.4,1.83a4.13,4.13,0,0,1,1.81,1.46,1.93,1.93,0,0,1,.25,1.27,2,2,0,0,1-.23,1.24c-.43.76-1.25,1.12-2.59,1.11A4.08,4.08,0,0,1,4.4,20Z"/></svg>