<svg id="Слой_1" data-name="Слой 1" xmlns="http://www.w3.org/2000/svg" viewBox="0 0 56.69 56.69"><defs><style>.cls-1{fill:#101010;}</style></defs><path class="cls-1" d="M38.38,32.68a14.4,14.4,0,0,0,4.18-10.94L35,29.3h0l-7.56,7.56a14.34,14.34,0,0,0,10.94-4.18Z"/><path class="cls-1" d="M31,25.29l1.46-4.24a7.25,7.25,0,0,1,1.71-2.74l5-5a14.43,14.43,0,0,1,2.9,5.55l-3.71,3.71a7.13,7.13,0,0,1-2.74,1.71L31.4,25.71h0L29.94,30a7.1,7.1,0,0,1-1.71,2.73L24.52,36.4A14.38,14.38,0,0,1,19,33.49l5-5a7.1,7.1,0,0,1,2.73-1.71L31,25.29Z"/><path class="cls-1" d="M25.49,19.79l4.23-1.46a7.13,7.13,0,0,0,2.74-1.71l5-5a14.09,14.09,0,0,0-5.55-2.9L28.23,12.4a7.22,7.22,0,0,0-1.71,2.73l-1.46,4.24h0l-4.24,1.46a7.22,7.22,0,0,0-2.73,1.71l-3.71,3.71a14.43,14.43,0,0,0,2.9,5.55l5-5A7.25,7.25,0,0,0,24,24l1.46-4.24Z"/><path class="cls-1" d="M18.09,12.4A14.3,14.3,0,0,1,29,8.22l-7.56,7.56h0l-7.56,7.56A14.3,14.3,0,0,1,18.09,12.4Z"/><path class="cls-1" d="M46.76,48.36H48.5V44.57l3.56,3.78h2.43l-4.24-4.41,3.93-3.88H51.64L48.5,43.42V40.07H46.76v8.29Z"/><path class="cls-1" d="M45.32,40.07H43.58v8.29h1.74Z"/><path class="cls-1" d="M34.81,40.07l2.74,8.29h2.67L43,40.07H41.11l-2.23,6.87-2.23-6.87Z"/><path class="cls-1" d="M31.24,40.07H27.58v8.29h3.64c2.49,0,3.62-1.5,3.62-4.12s-1.11-4.17-3.6-4.17Zm0,6.88H29.32V41.46h1.92c1.34,0,1.85.93,1.85,2.78S32.57,47,31.24,47Z"/><path class="cls-1" d="M18.84,48.36h1.7v-7l3.21,7h2.43V40.07h-1.7v6.27l-2.85-6.27H18.84Z"/><path class="cls-1" d="M2.21,45.38c-.07,2.3,1.41,3.12,3.85,3.12,2.07,0,3.65-.75,3.65-2.76,0-1.8-1.35-2.14-2.84-2.28l-1.52-.14c-.92-.08-1.25-.36-1.25-1s.58-1.2,1.78-1.2,1.92.42,1.93,1.6H9.63c0-1.92-.89-2.83-3.79-2.83-2.32,0-3.61.87-3.61,2.56s1.07,2.14,2.54,2.28l1.68.17c1.19.12,1.44.44,1.44,1,0,1-.58,1.31-1.82,1.31-1.7,0-2-.85-1.95-1.83Z"/><path class="cls-1" d="M15.44,40.07H12.63L9.8,48.36h1.79l.65-1.91h3.61l.65,1.91h1.79l-2.85-8.29ZM12.74,45l1.31-3.82L15.35,45Z"/></svg>