<svg id="Слой_1" data-name="Слой 1" xmlns="http://www.w3.org/2000/svg" viewBox="0 0 56.69 56.69"><defs><style>.cls-1{fill:#584294;}.cls-2{fill:#010101;}</style></defs><path class="cls-1" d="M45.63,27.84a36.48,36.48,0,0,1-.74,6.44c-2.12,8-7.32,12.66-15.3,14.2a25,25,0,0,1-12.52-.73c-6.51-2.12-10.9-6.37-12.66-13a26,26,0,0,1,.37-14.94A17.67,17.67,0,0,1,17.88,7.71a26.76,26.76,0,0,1,13.62.14,18.42,18.42,0,0,1,14,16.62C45.55,25.64,45.63,26.81,45.63,27.84Z"/><path class="cls-2" d="M23.54,45.24V41.47a1.93,1.93,0,0,1,0-.24.71.71,0,0,1,.5-.62A11.53,11.53,0,0,1,27,40a8.69,8.69,0,0,1,2.1.05,4.42,4.42,0,0,1,1.47.46A2.89,2.89,0,0,1,32.1,42.7a4,4,0,0,1,.06.77V49.2c0,.27-.13.4-.39.4H30.09c-.25,0-.37-.13-.39-.38V43.91a2.13,2.13,0,0,0-.08-.66,1.45,1.45,0,0,0-1.15-1,5.27,5.27,0,0,0-2,.09c-.36.08-.47.22-.47.59v6.26a.34.34,0,0,1-.38.38H24c-.3,0-.43-.13-.43-.43Z"/><path class="cls-2" d="M9.45,49.6H8.61c-.28,0-.38-.13-.3-.42a2.59,2.59,0,0,0,.1-.62,1.46,1.46,0,0,0-.64-1.28,3.89,3.89,0,0,0-1-.5L4.87,46.2a5.19,5.19,0,0,1-1.41-.66,2.53,2.53,0,0,1-1.14-2.08,3.18,3.18,0,0,1,2.27-3.29,5.65,5.65,0,0,1,2.08-.3,7.87,7.87,0,0,1,3.24.74,3.48,3.48,0,0,1,.43.22.47.47,0,0,1,.24.68c0,.12-.1.23-.15.35l-.42.89a.49.49,0,0,1-.76.25,7.65,7.65,0,0,0-1.73-.7,4,4,0,0,0-1.81-.06,1.46,1.46,0,0,0-.53.22.73.73,0,0,0,0,1.24,2.32,2.32,0,0,0,.66.35c.57.21,1.17.35,1.75.53a7.89,7.89,0,0,1,1.57.62,3.8,3.8,0,0,1,.94.69A3.06,3.06,0,0,1,10.92,48a3.69,3.69,0,0,1-.12,1.09s0,.11-.05.17a.41.41,0,0,1-.46.32Z"/><path class="cls-2" d="M45.35,44.58c0-1.46,0-2.91,0-4.37a4.81,4.81,0,0,1,.35-1.87,3.14,3.14,0,0,1,2.35-1.87,5.4,5.4,0,0,1,2.3,0h0c.37.08.46.21.38.59l-.18,1c-.07.35-.19.43-.54.38a7.53,7.53,0,0,0-.83-.08,2.32,2.32,0,0,0-.46.06,1.22,1.22,0,0,0-.95,1.16c0,.13,0,.26,0,.4s0,.16.15.16h2.19c.33,0,.45.11.45.45s0,.79,0,1.19-.12.44-.46.44H47.87a.07.07,0,0,0-.08.08v.18c0,2.2,0,4.39,0,6.6,0,.36-.09.54-.53.53H45.81a.41.41,0,0,1-.46-.47Z"/><path class="cls-2" d="M54.44,44.86v4.3c0,.33-.12.44-.46.44H52.35a.35.35,0,0,1-.37-.35,1.34,1.34,0,0,1,0-.2V40.67c0-.44.1-.54.54-.54H54c.33,0,.45.12.45.45Z"/><path class="cls-1" d="M54.52,37.66a1.18,1.18,0,0,1-.85,1.24,1.57,1.57,0,0,1-.91,0,1.22,1.22,0,0,1-.87-1.32,1.65,1.65,0,0,1,0-.31,1.11,1.11,0,0,1,.88-.88,1.56,1.56,0,0,1,.93,0,1.14,1.14,0,0,1,.78,1Z"/><path class="cls-1" d="M4.81,48.47a2.7,2.7,0,0,1,0,.41,1.13,1.13,0,0,1-1,.88,1.48,1.48,0,0,1-.78,0,1.11,1.11,0,0,1-.79-.82,1.64,1.64,0,0,1,0-.93,1.1,1.1,0,0,1,.82-.75,1.54,1.54,0,0,1,.85,0,1.14,1.14,0,0,1,.88,1C4.8,48.34,4.81,48.41,4.81,48.47Z"/><path class="cls-2" d="M21.24,41.33a.71.71,0,0,0-.52-.71l-.06,0A10.26,10.26,0,0,0,17.83,40a6.79,6.79,0,0,0-2.06.11,4.31,4.31,0,0,0-3.34,3,6,6,0,0,0,.06,3.83,3.84,3.84,0,0,0,1.77,2.19,4.68,4.68,0,0,0,2.22.64,9.25,9.25,0,0,0,2.67-.21A10.08,10.08,0,0,0,20.76,49a.75.75,0,0,0,.48-.66V41.53A1.33,1.33,0,0,0,21.24,41.33Zm-2.81,6a3.77,3.77,0,0,1-2.13.12,2,2,0,0,1-1.43-1.33,3.59,3.59,0,0,1,0-2.42,2.07,2.07,0,0,1,1.9-1.44,4.28,4.28,0,0,1,1.47.14l.17.05a.49.49,0,0,1,.38.54c0,.64,0,1.28,0,1.92v1.89A.5.5,0,0,1,18.43,47.3Z"/><path class="cls-2" d="M43.31,43.3a4.34,4.34,0,0,0-2.75-3A5.34,5.34,0,0,0,37.73,40a4.19,4.19,0,0,0-3.18,2.35,5.55,5.55,0,0,0-.2,4.53,4.24,4.24,0,0,0,2.78,2.63,5.26,5.26,0,0,0,2.46.19,4.28,4.28,0,0,0,3.33-2.29,5.71,5.71,0,0,0,.6-2.76A5.65,5.65,0,0,0,43.31,43.3Zm-2.52,2.85a2,2,0,0,1-2.22,1.35,2.58,2.58,0,0,1-.73-.16,2,2,0,0,1-1.14-1.22,3.64,3.64,0,0,1,0-2.54,2,2,0,0,1,2-1.36,2.82,2.82,0,0,1,.65.08,2,2,0,0,1,1.43,1.28A3.67,3.67,0,0,1,40.79,46.15Z"/></svg>