<svg id="Слой_1" data-name="Слой 1" xmlns="http://www.w3.org/2000/svg" xmlns:xlink="http://www.w3.org/1999/xlink" viewBox="0 0 56.69 56.69"><defs><style>.cls-1{fill:url(#Безымянный_градиент_2);}.cls-2{fill:#fff;}</style><linearGradient id="Безымянный_градиент_2" x1="27.98" y1="3.91" x2="27.98" y2="-23.76" gradientTransform="matrix(1, 0, 0, -1, 0, 33.04)" gradientUnits="userSpaceOnUse"><stop offset="0" stop-color="#2ea7df"/><stop offset="1" stop-color="#1556a4"/></linearGradient></defs><path class="cls-1" d="M56,29.13H0V56.8H28.29"/><path class="cls-2" d="M27.67,34.67v13l-4.79-13h-4.8L14,45.49c-.49-2.71-3.32-3.69-5.53-4.43-1.48-.49-3.08-1.1-3.08-2,0-.61.86-1.23,2.46-1.1a9.52,9.52,0,0,1,4.06,1.1l2-3.32A14.3,14.3,0,0,0,7.63,34.3a7.77,7.77,0,0,0-5.54,2A5,5,0,0,0,.74,39.46a4.46,4.46,0,0,0,2,3.94A13.86,13.86,0,0,0,6.4,45c1.59.49,2.82,1,2.82,1.84C9.1,48,7.87,48.2,7,48.2A7,7,0,0,1,2.46,47L.74,50.29a11.52,11.52,0,0,0,6.15,1.6,8.85,8.85,0,0,0,5.41-1.73l-.25,1.11h4.68l.86-2.09a10.33,10.33,0,0,0,5.78,0L24,51.27h8.37V46.35h1.72c4.3,0,6.88-2.09,6.88-5.78,0-4.18-2.46-5.9-7.74-5.9Zm-9,10.82L20.42,40h.12l1.72,5.53A5.88,5.88,0,0,1,18.69,45.49Zm13.66-2.83V38.23h1.23c1.59,0,2.82.5,2.82,2.09s-1.23,2.34-2.82,2.34Z"/></svg>