<svg id="Слой_1" data-name="Слой 1" xmlns="http://www.w3.org/2000/svg" viewBox="0 0 56.69 56.69"><defs><style>.cls-1{fill:#272f65;}</style></defs><path class="cls-1" d="M7.87,34.61c2.85,0,4.94-1.59,4.94-3.76,0-4.39-6.89-3-6.89-5.17,0-.89.87-1.42,2-1.42a2.36,2.36,0,0,1,2.3,1.3l2.38-.77a4.56,4.56,0,0,0-4.52-2.71c-2.86,0-4.73,1.73-4.73,3.81,0,4.24,6.84,2.68,6.84,5.1,0,.86-.93,1.43-2.29,1.43a2.74,2.74,0,0,1-2.75-2l-2.41.77c.56,2.08,2.53,3.41,5.09,3.41M47.55,22.08a6.27,6.27,0,1,0,6.36,6.27,6.27,6.27,0,0,0-6.36-6.27m0,2.28a3.76,3.76,0,0,1,3.74,4,3.74,3.74,0,1,1-7.46,0,3.77,3.77,0,0,1,3.72-4M22.19,22.27H20L14.82,34.42h2.64l1.05-2.55H23.6l1,2.54L26.31,32Zm-2.8,7.49,1.66-4.1,1.68,4.1Zm13-1.65-4.3,6.31H30.9l2.89-4.3,2.88,4.3h2.89l-4.33-6.37,3.92-5.78h-2.8L33.82,26,31.3,22.27H28.42Z"/></svg>