<svg id="Слой_1" data-name="Слой 1" xmlns="http://www.w3.org/2000/svg" viewBox="0 0 56.69 56.69"><defs><style>.cls-1{fill:#010101;}</style></defs><path class="cls-1" d="M10.53,40c0-1.38,1.27-2.12,3.05-2.12,2.69,0,3.48,1.41,3.63,3H20.1c-.07-3.18-2.49-5.36-6.41-5.36-3.34,0-6,2-6,4.86,0,6.45,10,3.32,10,7.62,0,1.69-1.68,2.54-3.47,2.54-2.42,0-4.13-1.16-4.25-3.55H7.06c0,4.38,3.55,5.87,6.84,5.87,3.85,0,6.65-1.8,6.65-5.09,0-6.65-10-3.69-10-7.74Z"/><path class="cls-1" d="M32.28,43.51a3.44,3.44,0,0,0,2.31-3.58c0-2.74-1.82-4.07-4.82-4.07H21.66V52.42h8.07c3.2,0,5.64-1.56,5.64-4.6a4,4,0,0,0-3.09-4.31Zm-7.76-5.32h4.72c1.84,0,2.53,1.05,2.53,2.32a2.19,2.19,0,0,1-2.37,2.31H24.52Zm5.16,11.93H24.52l0-5.21h5.07c2,0,2.9,1.11,2.9,2.61A2.63,2.63,0,0,1,29.68,50.12Z"/><path class="cls-1" d="M39.61,40c0-1.38,1.27-2.12,3.06-2.12,2.67,0,3.48,1.41,3.62,3h2.9c-.07-3.18-2.49-5.36-6.42-5.36-3.34,0-6,2-6,4.86,0,6.45,10,3.32,10,7.62,0,1.69-1.68,2.54-3.46,2.54-2.42,0-4.14-1.16-4.26-3.55H36.15c0,4.38,3.55,5.87,6.84,5.87,3.85,0,6.64-1.8,6.64-5.09,0-6.65-10-3.69-10-7.74Z"/><path class="cls-1" d="M30,14a16.75,16.75,0,0,0-1.53,6.79,16.91,16.91,0,0,0,3.85-5.75,16.67,16.67,0,0,0,1.53-6.78A18.55,18.55,0,0,0,30,14Z"/><path class="cls-1" d="M32.25,15a23.9,23.9,0,0,0-2.14,9.11,25,25,0,0,0,5.26-7.71,24.7,24.7,0,0,0,2.08-9.11A23.84,23.84,0,0,0,32.25,15Z"/><path class="cls-1" d="M42.21,5.84a32.71,32.71,0,0,0-7.1,10.46,32.38,32.38,0,0,0-2.8,12.36,32.71,32.71,0,0,0,7.1-10.46A33.39,33.39,0,0,0,42.27,5.84Z"/><path class="cls-1" d="M48.64,3.94a44.63,44.63,0,0,0-9.53,14.13,44,44,0,0,0-3.74,16.58,42.41,42.41,0,0,0,9.54-14.13A43.35,43.35,0,0,0,48.7,3.89Z"/></svg>