<svg id="Слой_1" data-name="Слой 1" xmlns="http://www.w3.org/2000/svg" viewBox="0 0 56.69 56.69"><defs><style>.cls-1{fill:#129cd8;}.cls-2{fill:#339d3b;}.cls-3{fill:#133b62;}</style></defs><g id="g392"><path id="path20605" class="cls-1" d="M31,11.39l1.88-3.22-1-1.79c-.4-.66-.63-.92-1.29-.94a1.33,1.33,0,0,0-1.09.77l-.74,1.27Z"/><path id="path20607" class="cls-1" d="M28.69,15.26l-2.27-3.89-8.53,14.7a1.44,1.44,0,0,0-.12,1.39l2.25,4a1.55,1.55,0,0,1,.16-1.62Z"/><path id="path20609" class="cls-2" d="M43.66,20.1a1.35,1.35,0,0,0-.14-1.31L36.22,6.22A1.29,1.29,0,0,0,35,5.44H30.51c.66,0,.89.28,1.29.94l8.28,14.34h2.13A1.52,1.52,0,0,0,43.66,20.1Z"/><path id="path20611" class="cls-2" d="M22.21,5.44c.66,0,.9.29,1.3.94l8.36,14.34h4.52L27.94,6.22a1.3,1.3,0,0,0-1.2-.78Z"/><path id="path20613" class="cls-2" d="M38.71,24.71H34.19l2,3.36h1.91a1.45,1.45,0,0,0,1.46-.65h0A1.36,1.36,0,0,0,39.45,26Z"/><path id="path20615" class="cls-3" d="M42.21,20.72H25.5l-2.33,4h16.9a1.34,1.34,0,0,0,1.28-.6l2.31-4A1.52,1.52,0,0,1,42.21,20.72Z"/><path id="path20617" class="cls-3" d="M20,31.45a1.32,1.32,0,0,0,1.23.59H36a1.28,1.28,0,0,0,1.26-.62l2.24-4a1.45,1.45,0,0,1-1.46.66H21.22l-1,1.76A1.53,1.53,0,0,0,20,31.45Z"/><path id="path20619" class="cls-3" d="M16,24.24a1.24,1.24,0,0,0,1.12.47h1.61l2.32-4H17.26l-.93,1.61-.17.29a1.56,1.56,0,0,0-.2,1.62Z"/><path id="path20621" class="cls-1" d="M24.54,8.14l-1-1.76c-.4-.66-.62-.92-1.3-.94a1.36,1.36,0,0,0-1.1.77L13.84,18.93a1.36,1.36,0,0,0-.11,1.39L16,24.24a1.56,1.56,0,0,1,.2-1.62Z"/></g><path id="path20627" class="cls-3" d="M45.07,35.39h-.79c-1.42,0-2,.16-2.89,2.08L35.51,51h3l1.57-3.71h7.08L48.69,51h3.15Zm1,9.34H41.13l2.48-5.87ZM34,37.58a7.76,7.76,0,0,0-6-2.4,8,8,0,0,0-.11,16.07,8.17,8.17,0,0,0,6.41-2.8l-1.89-1.92a5.84,5.84,0,0,1-4.43,2c-2.83,0-4.94-2.28-4.94-5.37a5,5,0,0,1,4.94-5.32,5.07,5.07,0,0,1,2.66.73,2.21,2.21,0,0,0,3.37-1ZM5.51,49.24a9.81,9.81,0,0,0,6.23,2c3.59,0,5.92-2,5.92-4.87,0-2.17-1.14-3.5-4-4.28L11,41.39c-1.4-.39-1.92-1-1.9-1.92s1.13-1.74,2.56-1.71a6.14,6.14,0,0,1,2.43.53c1.66.7,2.49.08,3.14-1.25a8.05,8.05,0,0,0-5.61-1.87c-3.22,0-5.5,1.94-5.5,4.63,0,2.26,1.33,3.52,3.7,4.22.48.14,2.15.57,2.41.63,2.07.49,2.46,1.13,2.46,2,0,1.12-1,2-2.82,2a6.92,6.92,0,0,1-3.18-.78,2.17,2.17,0,0,0-3.18,1.35Z"/></svg>