<svg id="Слой_1" data-name="Слой 1" xmlns="http://www.w3.org/2000/svg" viewBox="0 0 56.69 56.69"><defs><style>.cls-1{fill:#4b2985;}.cls-2{fill:#f9af20;}</style></defs><rect class="cls-1" x="11.59" y="3.62" width="33.65" height="33.32"/><path class="cls-2" d="M41.39,29.91,37.83,16,28.42,7.43,19,16,15.44,29.91l6.75,3.18h5.32V28.34s-9.88,5.23-7.32-6.47c.86-3.89,5.42-9,8-10.5a1.88,1.88,0,0,1,.24-.14h0c2.56,1.23,7.36,6.6,8.22,10.6,2.61,11.74-7.27,6.51-7.27,6.51v4.75h5.32Z"/><path class="cls-1" d="M20,43.09l.34-2a11.81,11.81,0,0,0-3.85-.63c-2.21,0-4.94.63-4.94,3.75,0,2.77,3.18,3.23,3.92,3.45s2.94.63,2.94,1.82-1.64,1.59-2.66,1.59a8.93,8.93,0,0,1-4-1.08l-.34,2.1a9.35,9.35,0,0,0,4.25,1c2.55,0,5.05-1.08,5.05-3.63,0-2.38-1.42-3.23-3.69-3.74-2.6-.62-3.11-1-3.11-1.7s.73-1.42,2.66-1.42A11.48,11.48,0,0,1,20,43.09Z"/><path class="cls-1" d="M32,43l.29-2a9.73,9.73,0,0,0-3.41-.62c-2,0-6.4.4-6.4,6.41S27,53.07,28.8,53.07a10.93,10.93,0,0,0,3.57-.74l-.28-2a7.93,7.93,0,0,1-3,.57c-1.7,0-3.85-.29-3.85-4.2s2.15-4.2,3.91-4.2A15.37,15.37,0,0,1,32,43Z"/><path class="cls-1" d="M42.8,46.44v-.12s1.82-.22,1.82-2.66-2.33-3.06-4.37-3.06h-5.5V52.84h5.79c2.72,0,4.7-.9,4.7-3.46A3,3,0,0,0,42.8,46.44Zm-5.67-3.8h3.24c1.07,0,1.92.34,1.92,1.53s-.56,1.53-1.92,1.53H37.13Zm3.46,8.16H37.13V47.46h3.58c.85,0,2,.17,2,1.58C42.69,50.63,41.73,50.8,40.59,50.8Z"/></svg>