<svg id="Слой_1" data-name="Слой 1" xmlns="http://www.w3.org/2000/svg" viewBox="0 0 56.69 56.69"><defs><style>.cls-1{fill:#08964c;}.cls-2{fill:#fff;}</style></defs><g id="layer1"><path id="path2622" class="cls-1" d="M6.61,16.67a3,3,0,0,0-3.26,2.89,3.08,3.08,0,0,0,2.83,3.13c1.73.53,2.82.49,2.82,1.92a1.56,1.56,0,0,1-1.57,1.54,2.47,2.47,0,0,1-2.51-2.36H3.44v3.58H5v-.66a4,4,0,0,0,2.64.91,3.13,3.13,0,0,0,3.29-3.26c0-2.27-1.37-2.78-2.79-3.2s-2.86-.63-2.86-1.64a1.36,1.36,0,0,1,1.48-1.41,2,2,0,0,1,1.41.57A2.49,2.49,0,0,1,8.84,20h1.45V16.89H8.75v.66A3.11,3.11,0,0,0,6.61,16.67Zm10.42,0a5.16,5.16,0,0,0-5.3,5.4,5.36,5.36,0,0,0,5.33,5.55,4.57,4.57,0,0,0,4.71-3.73H20.05a3.11,3.11,0,0,1-3,2,3.45,3.45,0,0,1-3.45-3.73,3.46,3.46,0,0,1,3.45-3.74,3.11,3.11,0,0,1,1.7.54,2.26,2.26,0,0,1,1,1.35H21.3V16.89H19.79v.69A4.62,4.62,0,0,0,17,16.67Zm5.81.22v1.44H24V26H22.84v1.41H27V26H25.85V22.63h3.74V26h-1.1v1.41H32.6V26H31.47V18.33H32.6V16.89H28.49v1.44h1.1V21H25.85V18.33H27V16.89Zm13.27,0v1.44h1.16L34.67,26h-.88v1.41h3.77V26H36.43l.72-2h3.17L41,26H39.88v1.41h3.86V26H43l-2.54-7.63h1.13V16.89Zm9.17,0v1.44h1.13V26H45.28v1.41h8.06V24.23H51.68V26H48.29V22.63h2.92V21H48.29V18.33h3.39v1.35h1.66V16.89ZM38.75,19h0l1.16,3.51H37.56Z"/></g><polygon class="cls-1" points="3.35 29.54 3.35 30.99 4.48 30.99 4.48 38.61 3.35 38.61 3.35 40.02 7.59 40.02 7.59 38.61 6.36 38.61 6.36 35.29 9.5 35.29 9.5 33.62 6.36 33.62 6.36 30.99 9.88 30.99 9.88 32.34 11.54 32.34 11.54 29.54 3.35 29.54 3.35 29.54"/><polygon class="cls-1" points="12.8 29.54 12.8 30.99 13.93 30.99 13.93 38.61 12.8 38.61 12.8 40.02 17.03 40.02 17.03 38.61 15.81 38.61 15.81 35.29 18.95 35.29 18.95 33.62 15.81 33.62 15.81 30.99 19.32 30.99 19.32 32.34 20.99 32.34 20.99 29.54 12.8 29.54 12.8 29.54"/><polygon class="cls-1" points="22.62 29.54 22.62 30.99 23.81 30.99 23.81 38.61 22.62 38.61 22.62 40.02 29.84 40.02 29.84 36.92 28.17 36.92 28.17 38.61 25.7 38.61 25.7 30.99 26.98 30.99 26.98 29.54 22.62 29.54 22.62 29.54"/><polygon class="cls-1" points="30.9 29.54 30.9 30.99 32 30.99 32 38.61 30.9 38.61 30.9 40.02 38.97 40.02 38.97 36.89 37.31 36.89 37.31 38.61 33.88 38.61 33.88 35.29 36.8 35.29 36.8 33.62 33.88 33.62 33.88 30.99 37.31 30.99 37.31 32.34 38.97 32.34 38.97 29.54 30.9 29.54 30.9 29.54"/><path class="cls-1" d="M40.63,29.54V31h1.13v7.62H40.63V40h4.18V38.61H43.65V35.29h1.13c.77,0,1.82.08,1.82,1.06V40h2.91V38.61h-1V36.23a1.48,1.48,0,0,0-1.29-1.67v0a2.29,2.29,0,0,0,1.63-2.35,2.22,2.22,0,0,0-.44-1.45,3.64,3.64,0,0,0-3.23-1.19Z"/><path class="cls-2" d="M43.65,31h1c1,0,2.32,0,2.32,1.28s-1.06,1.57-2.1,1.57H43.65V31Z"/></svg>