<svg id="Слой_1" data-name="Слой 1" xmlns="http://www.w3.org/2000/svg" viewBox="0 0 56.69 56.69"><defs><style>.cls-1{fill:#b1b0b3;}</style></defs><path id="path297" class="cls-1" d="M19.34,27.72h2v2.79h2.17V23.45H21.38V25.9h-2V23.45H17.16v7.06h2.18Zm-6,3a3,3,0,0,0,3.22-2.93H14.47c-.13.66-.42,1.17-1.15,1.17-1,0-1.35-1-1.35-1.94S12.3,25,13.32,25a1.14,1.14,0,0,1,1.14,1h2.11a2.88,2.88,0,0,0-3.19-2.8A3.42,3.42,0,0,0,9.8,27a3.43,3.43,0,0,0,3.58,3.7M3.51,33.41H53.59V32.13H3.51ZM50.12,28.7,53.43,25V23.45h-6v1.81h3.09l-3.28,3.55v1.7h6.31V28.7Zm-43.73.42a1,1,0,0,1-1-.51,1.61,1.61,0,0,1-.07-.47H3.1c0,2.26,2.3,2.54,3.11,2.54,1.57,0,3.26-.59,3.26-2.43,0-1.3-1-1.76-2-2s-2-.38-2-.89.48-.47.78-.47a1.06,1.06,0,0,1,.64.18.52.52,0,0,1,.26.56H9.17c-.06-1.72-1.41-2.31-2.94-2.31S3.38,24,3.38,25.62c0,1.42,1.27,1.73,2.39,2.05s1.52.44,1.52.81-.54.64-.9.64m35.89-4h1c.84,0,1.08.26,1.08.71,0,.63-.55.7-1,.7H42.28Zm0,2.92h1.15c.86,0,.92.7,1,1.38a5,5,0,0,0,.18,1.08h2.18A4.55,4.55,0,0,1,46.53,29a1.92,1.92,0,0,0-1-1.76,1.82,1.82,0,0,0,1.06-1.77,2.06,2.06,0,0,0-2.31-2H40.1v7.06h2.18ZM28,30.51l.74-4.3h0l.76,4.3h2.12l2-7.06H31.44l-.88,4.42h0l-.83-4.42H27.79l-.85,4.36h0l-.86-4.36H23.92l1.92,7.06Zm8.24-4.69h0L36.86,28H35.53Zm-1.48,4.69.32-1H37.3l.3,1h2.25l-2.57-7.06H35.15l-2.6,7.06Z"/></svg>