<svg id="Слой_1" data-name="Слой 1" xmlns="http://www.w3.org/2000/svg" viewBox="0 0 56.69 56.69"><defs><style>.cls-1{fill:#e12727;fill-rule:evenodd;}</style></defs><g id="g26283"><g id="g26201"><path id="path26196" class="cls-1" d="M32.34,11.85c-4,0-8.27,1.57-8.27,5.74v10.6c0,3.78,3.56,5.66,8.27,5.66h1c5.07,0,8.41-2,8.41-5.81V25.83H37.15a2.28,2.28,0,0,0-2.46,2.49V29a1.8,1.8,0,1,1-3.6,0V16.77a1.8,1.8,0,1,1,3.6,0v.31A2.07,2.07,0,0,0,37,19.2h4.67V17.76c0-3.94-3.31-5.91-8.52-5.91Z"/><path id="path26194" class="cls-1" d="M12.88,11.85c-4.89,0-7.52,2-7.52,4.63v3.4c0,2.25,1.89,4.25,5.47,4.41l2.37.1c1.25.06,2.23.55,2.23,2v2.42a1.85,1.85,0,0,1-2,2.05,1.83,1.83,0,0,1-1.93-2.05v-.66a2.11,2.11,0,0,0-2.21-2.29H5.26v1.71c0,3.41,2.46,6.41,8,6.41h.89c5.92,0,7.57-2.86,7.57-4.78V25.79c0-2.14-1.65-4.37-5.62-4.51l-1.92-.07c-1.64-.05-2.56-.6-2.56-1.93V16.77a1.82,1.82,0,0,1,2-2c1.49,0,1.92.76,1.92,1.91v.45a2.09,2.09,0,0,0,2.1,2.11H22v-1C22,14.44,19,11.85,14,11.85Z"/><path id="path26088" class="cls-1" d="M44.27,4.61V37.86c0,6-5.48,11.81-14.87,11.81-3.95,0-11.14-1.52-14-6.4a10.3,10.3,0,0,1-.95-2.71c-.66-3.24-1.82-4.25-3.38-4.25H5.12v2.07c0,8.07,8.9,13.7,24.28,13.7,14,0,22.17-5.73,22.17-14.22V4.61Z"/></g></g></svg>