<svg id="Слой_1" data-name="Слой 1" xmlns="http://www.w3.org/2000/svg" viewBox="0 0 56.69 56.69"><defs><style>.cls-1{fill:#116e8f;}.cls-2{fill:#4699b7;}</style></defs><path class="cls-1" d="M26.09,24.05a4.94,4.94,0,0,1-.92,1,1.52,1.52,0,0,1-1.54.15,8.18,8.18,0,0,0-1.95-.54,5,5,0,0,0-2.75.34,2.52,2.52,0,0,0-1.46,2.93A2.36,2.36,0,0,0,19,29.49a4.72,4.72,0,0,0,3.94-.15,13.21,13.21,0,0,0,2.75-1.81c1-.81,1.94-1.66,2.94-2.46a10,10,0,0,1,5.13-2.37,8.35,8.35,0,0,1,4.9.69,4.39,4.39,0,0,1,2.52,3.15,3.9,3.9,0,0,1-1.73,4.1A7.16,7.16,0,0,1,35,31.89a8.64,8.64,0,0,1-6.26-2.35c-.26-.24-.3-.37,0-.6a10.17,10.17,0,0,0,1-.87c.21-.21.33-.18.55,0a7,7,0,0,0,4.89,1.77,4.27,4.27,0,0,0,2-.57,2.3,2.3,0,0,0,0-4.14,4.77,4.77,0,0,0-4-.18,8.46,8.46,0,0,0-2.68,1.55c-1.25,1-2.47,2.07-3.73,3.07a9.78,9.78,0,0,1-4.92,2.21,8.53,8.53,0,0,1-5-.8,4,4,0,0,1-.73-6.8,7.33,7.33,0,0,1,5.73-1.5A12.31,12.31,0,0,1,26.09,24.05Z"/><path class="cls-1" d="M50,28.17l3.55,3.55a19.1,19.1,0,0,1-2.75-.09,1.61,1.61,0,0,1-.85-.5c-1.11-1.2-2.1-2.5-3.22-3.81l1.9-.25a7.36,7.36,0,0,0,1.83-.47,1.94,1.94,0,0,0,.77-.53A.83.83,0,0,0,51,24.74a3.66,3.66,0,0,0-5.09,1.79c-.56,1.57-1,3.16-1.53,4.75-.1.32-.24.46-.59.44-.63,0-1.27,0-1.9,0-.27,0-.34-.06-.25-.34.51-1.58,1-3.18,1.52-4.75a5.48,5.48,0,0,1,5.42-4,10.58,10.58,0,0,1,3.27.28,4.72,4.72,0,0,1,1.25.52,2,2,0,0,1,.34,3.4,5.63,5.63,0,0,1-2.73,1.21Z"/><path class="cls-1" d="M8.85,22.63a17.27,17.27,0,0,1,4.87.82c.2.06.31.12.17.34s-.25.48-.4.7a1,1,0,0,1-1.13.44,12.88,12.88,0,0,0-3.43-.51,3.72,3.72,0,0,0-1.33.22c-.24.11-.46.26-.46.56s.21.41.43.51a14.57,14.57,0,0,0,2.35.64,11.18,11.18,0,0,1,2.24.7c1.59.75,1.82,2.16.53,3.37a5.73,5.73,0,0,1-3.59,1.4,13.68,13.68,0,0,1-6.31-1.11c-.27-.11-.34-.22-.14-.46a6.12,6.12,0,0,0,.43-.69.74.74,0,0,1,1-.35,18.49,18.49,0,0,0,3,.78,7.62,7.62,0,0,0,2.43,0,1.37,1.37,0,0,0,.62-.26.58.58,0,0,0,0-1.05,6.45,6.45,0,0,0-1.7-.58,16.83,16.83,0,0,1-2.5-.78,5.38,5.38,0,0,1-.67-.36,1.75,1.75,0,0,1-.43-2.78,4.28,4.28,0,0,1,2.66-1.39A7.39,7.39,0,0,1,8.85,22.63Z"/><path class="cls-2" d="M49.66,33.87c0,.12,0,.2-.17.2s-.17-.12-.17-.24a.16.16,0,0,1,.19-.18C49.65,33.66,49.66,33.77,49.66,33.87Z"/><path class="cls-2" d="M29,33.83c0,.12,0,.23-.15.24s-.16-.06-.15-.17,0-.22.12-.24S29,33.73,29,33.83Z"/></svg>