<svg id="Слой_1" data-name="Слой 1" xmlns="http://www.w3.org/2000/svg" viewBox="0 0 56.69 56.69"><defs><style>.cls-1{fill:#010101;}</style></defs><path id="path3023" class="cls-1" d="M7.67,30.46l30.15,5.16a3.19,3.19,0,0,1-2.75,1.22l-7.19,0c-6.68,0-14.84-.29-20.21-.67.09,1.31.26,5.36.34,6.72.13,2,.21,2.41.72,2.79a3.61,3.61,0,0,0,1.9.46,226.73,226.73,0,0,0,29.64.38c3.89-.21,5.49-.5,6.89-1.73,1-.89,1.52-2.37,1.61-4.82.08-2,.16-5.62.16-6.72L7.67,25.47Zm11-10.06a2.84,2.84,0,0,1,2-1c.64-.08,5.88-.17,11.75-.12s12.56.42,16.53.59c-.08-1.69-.25-4.82-.29-6-.13-2-.21-2.41-.72-2.79a3.67,3.67,0,0,0-1.9-.47,228.5,228.5,0,0,0-29.64-.38c-3.89.21-5.49.51-6.89,1.73-1,.89-1.52,2.37-1.6,4.82-.09,1.91-.17,5.16-.17,6.47L49,30.38V26Z"/></svg>