<svg id="Слой_1" data-name="Слой 1" xmlns="http://www.w3.org/2000/svg" viewBox="0 0 56.69 56.69"><defs><style>.cls-1{fill:#1f3c79;}.cls-2{fill:#202121;}</style></defs><g id="layer1"><g id="g13393"><path id="path13364" class="cls-1" d="M28.46,4.64A17.49,17.49,0,1,0,46,22.13,17.49,17.49,0,0,0,28.46,4.64ZM14.61,26.28a.28.28,0,0,1-.28-.27.29.29,0,0,1,.28-.28.28.28,0,0,1,0,.55Zm0-3.67a.29.29,0,0,1-.28-.28.28.28,0,0,1,.28-.27.27.27,0,0,1,.27.27A.28.28,0,0,1,14.61,22.61Zm0-3.68a.28.28,0,0,1-.28-.27.29.29,0,0,1,.28-.28.28.28,0,0,1,.27.28A.27.27,0,0,1,14.61,18.93Zm1.88,7.49a.42.42,0,0,1,0-.83.42.42,0,0,1,0,.83Zm0-3.68a.41.41,0,0,1-.41-.41.42.42,0,0,1,.41-.41.41.41,0,0,1,.41.41A.41.41,0,0,1,16.49,22.74Zm0-3.67a.42.42,0,0,1-.41-.41.41.41,0,0,1,.41-.41.41.41,0,0,1,.41.41A.41.41,0,0,1,16.49,19.07Zm2.21,7.48a.55.55,0,1,1,.55-.54A.55.55,0,0,1,18.7,26.55Zm0-3.67a.55.55,0,1,1,.55-.55A.55.55,0,0,1,18.7,22.88Zm0-3.68a.55.55,0,0,1-.55-.54.55.55,0,0,1,.55-.55.55.55,0,1,1,0,1.09ZM21,26.69A.69.69,0,1,1,21.7,26,.68.68,0,0,1,21,26.69ZM21,23a.68.68,0,0,1-.68-.69.68.68,0,0,1,1.36,0A.68.68,0,0,1,21,23Zm0-3.68a.67.67,0,0,1-.68-.68.68.68,0,1,1,1.36,0A.67.67,0,0,1,21,19.34Zm2.72,7.49a.82.82,0,1,1,.82-.82A.82.82,0,0,1,23.74,26.83Zm0-3.68a.82.82,0,1,1,.82-.82A.82.82,0,0,1,23.74,23.15Zm0-3.67a.82.82,0,1,1,.82-.82A.82.82,0,0,1,23.74,19.48ZM26.58,27a1,1,0,0,1,0-1.91,1,1,0,1,1,0,1.91Zm0-3.67a1,1,0,1,1,1-1A1,1,0,0,1,26.58,23.29Zm0-3.68a1,1,0,0,1,0-1.91,1,1,0,1,1,0,1.91ZM30,34.45a1.1,1.1,0,1,1,1.09-1.1A1.09,1.09,0,0,1,30,34.45Zm0-3.68a1.09,1.09,0,1,1,1.09-1.09A1.09,1.09,0,0,1,30,30.77Zm0-3.67A1.1,1.1,0,1,1,31.06,26,1.09,1.09,0,0,1,30,27.1Zm0-3.68a1.09,1.09,0,1,1,1.09-1.09A1.09,1.09,0,0,1,30,23.42Zm0-3.67a1.09,1.09,0,1,1,1.09-1.09A1.09,1.09,0,0,1,30,19.75Zm0-3.67A1.1,1.1,0,1,1,31.06,15,1.09,1.09,0,0,1,30,16.08Zm0-3.68a1.09,1.09,0,1,1,1.09-1.09A1.09,1.09,0,0,1,30,12.4Zm3.51,18.49a1.21,1.21,0,1,1,1.21-1.21A1.21,1.21,0,0,1,33.48,30.89Zm0-3.68A1.21,1.21,0,1,1,34.69,26,1.2,1.2,0,0,1,33.48,27.21Zm0-3.67a1.21,1.21,0,1,1,1.21-1.21A1.21,1.21,0,0,1,33.48,23.54Zm0-3.68a1.21,1.21,0,1,1,1.21-1.2A1.2,1.2,0,0,1,33.48,19.86Zm0-3.67A1.21,1.21,0,1,1,34.69,15,1.21,1.21,0,0,1,33.48,16.19Zm3.77,11.18A1.36,1.36,0,1,1,38.6,26,1.35,1.35,0,0,1,37.25,27.37Zm0-3.67a1.36,1.36,0,1,1,1.35-1.36A1.35,1.35,0,0,1,37.25,23.7Zm0-3.68a1.36,1.36,0,1,1,1.35-1.35A1.34,1.34,0,0,1,37.25,20Zm3.84,3.83a1.49,1.49,0,1,1,1.48-1.48A1.48,1.48,0,0,1,41.09,23.85Z"/></g></g><g id="g13362"><path id="path13354" class="cls-2" d="M14.44,52.05a5,5,0,0,1-3.92-1.32L12,49.22a3.35,3.35,0,0,0,2.46.87c.79,0,1.62-.27,1.62-1,0-.46-.24-.77-1-.84l-1.45-.15C12,48,11,47.26,11,45.56c0-1.91,1.68-2.93,3.56-2.93a4.91,4.91,0,0,1,3.52,1.08l-1.42,1.43a3.18,3.18,0,0,0-2.14-.62c-.92,0-1.31.42-1.31.88s.14.73,1,.8l1.45.14c1.82.18,2.74,1.15,2.74,2.71C18.35,51.08,16.62,52.05,14.44,52.05Z"/><path id="path13356" class="cls-2" d="M21.46,48.06a1.91,1.91,0,0,0,2,2,2.55,2.55,0,0,0,2.08-.87L27,50.6a4.38,4.38,0,0,1-3.5,1.45c-2.18,0-4.26-1-4.26-4.72,0-3,1.62-4.7,4-4.7,2.56,0,4,1.87,4,4.4v1Zm3.29-2.57a1.72,1.72,0,0,0-3.08,0,2.65,2.65,0,0,0-.21,1H25A2.65,2.65,0,0,0,24.75,45.49Z"/><path id="path13358" class="cls-2" d="M30.53,48.06a1.91,1.91,0,0,0,2,2,2.55,2.55,0,0,0,2.08-.87L36,50.6a4.38,4.38,0,0,1-3.5,1.45c-2.18,0-4.26-1-4.26-4.72,0-3,1.62-4.7,4-4.7,2.56,0,4,1.87,4,4.4v1Zm3.29-2.57a1.72,1.72,0,0,0-3.08,0,2.65,2.65,0,0,0-.21,1H34a2.65,2.65,0,0,0-.21-1Z"/><path id="path13360" class="cls-2" d="M43.33,52l-2.26-3.84-1,1.1V52H37.8V39.36h2.29V46.5l3.06-3.77h2.78l-3.29,3.72L46.18,52Z"/></g></svg>