<svg id="Слой_1" data-name="Слой 1" xmlns="http://www.w3.org/2000/svg" viewBox="0 0 56.69 56.69"><defs><style>.cls-1{fill:#010101;}</style></defs><path class="cls-1" d="M34.79,52.47a37,37,0,0,0,4.12.22,7.51,7.51,0,0,0,4-.73,4,4,0,0,0,1.87-3.77c0-2.36-1.06-3.56-3.66-4.14l-.58-.13c-1.53-.33-2.23-.48-2.23-1.44s1.14-1.19,2.42-1.19a24.81,24.81,0,0,1,3.4.33v-2.8a27.13,27.13,0,0,0-3.78-.33,9.57,9.57,0,0,0-3.07.38,3.79,3.79,0,0,0-2.56,4c0,2.26,1,3.35,3.8,4,2.11.52,2.66.69,2.66,1.64,0,1.22-1.2,1.31-2.78,1.31a23.43,23.43,0,0,1-3.56-.28v2.93Zm-22.72,0a37,37,0,0,0,4.12.22A7.44,7.44,0,0,0,20.14,52,4,4,0,0,0,22,48.19c0-2.36-1.06-3.56-3.66-4.14l-.59-.13c-1.52-.33-2.22-.48-2.22-1.44s1.14-1.19,2.41-1.19a24.81,24.81,0,0,1,3.41.33v-2.8a27.13,27.13,0,0,0-3.78-.33,9.57,9.57,0,0,0-3.07.38,3.79,3.79,0,0,0-2.56,4c0,2.26,1,3.35,3.8,4,2.11.52,2.66.69,2.66,1.64,0,1.22-1.21,1.31-2.78,1.31a23.43,23.43,0,0,1-3.56-.28ZM23.44,38.78V49c0,2.27,1.18,3.48,3.43,3.48h6.36v-2.8H28.28A1.21,1.21,0,0,1,27,48.28V46.84h5.44V44.1H27V41.56h6V38.78Z"/><path class="cls-1" d="M28,4,44,37a47.62,47.62,0,0,0-32,0Z"/></svg>