<svg id="Слой_1" data-name="Слой 1" xmlns="http://www.w3.org/2000/svg" viewBox="0 0 56.69 56.69"><defs><style>.cls-1{fill:#e40520;}.cls-2{fill:#1f68a9;}</style></defs><path class="cls-1" d="M1.17,17.13l4.56,8h6.54l4.51-7.95Zm16.24,0L4.63,39.57H14l8.08-14.49Z"/><path class="cls-2" d="M48.51,17.13,44.79,21V17.23A3.86,3.86,0,0,1,42,18.53c-1.73-.18-3.21-1-5.11-1-2.22,0-3.77,1.24-3.78,3.09,0,1.67.83,2.45,2.68,2.45C34.34,22.56,34,22.38,34,21.6s.73-1,1.69-1c1.52,0,2.57.77,5,.77-7.08,5.87-9.21,10.56-6.3,14.54a7,7,0,0,1-8.6-2c-2.27-3.14-2-7.87,2.75-12.14l0,14.27,4.14-3.78,0-15.07A3.83,3.83,0,0,1,29.8,18.5c-1.73-.17-3.2-1-5.1-1-2.22,0-3.78,1.24-3.79,3.09,0,1.67.84,2.45,2.68,2.45-1.42-.52-1.81-.69-1.81-1.47s.72-1,1.69-1c1.52,0,2.57.76,5,.77-7.07,5.87-9.22,10.54-6.31,14.52l.52.68c2.9,3.52,9.1,4,12.19,0,3,3.71,9.75,4,12.65-.63l3.54,3.65L55.52,35l-.31-.29L53.93,36l-2.17-2.23.05-12.64,1.61-1.64-.32-.28-1.3,1.31Zm-2.79,3.59,1.74,1.79V35.4A7.07,7.07,0,0,1,37.91,34c-2.26-3.14-2-7.86,2.75-12.14l0,14.27,4.14-3.78V21.67Z"/></svg>