<svg id="Слой_1" data-name="Слой 1" xmlns="http://www.w3.org/2000/svg" viewBox="0 0 56.69 56.69"><defs><style>.cls-1{fill:#e3061b;}</style></defs><g id="layer1"><g id="g3157"><path id="path2604" class="cls-1" d="M2.06,34.3H6.3v1.78H4.37v.62H6.13v1.69H4.37V39h2V40.8H2.06Z"/><path id="path2616" class="cls-1" d="M12.82,34.3v3.84c0,1.9-1.15,2.76-2.92,2.76S7,40,7,38.14V34.3H9.28v3.62c0,.51,0,1,.62,1s.63-.45.63-1V34.3Z"/><path id="path2620" class="cls-1" d="M13.54,34.3h2.77c1.42,0,2.63.62,2.63,2.26a1.53,1.53,0,0,1-1.23,1.69v0c.12.09,1.76,2.5,1.76,2.5H16.83l-1-2.09h0V40.8H13.54Zm2.24,2.88h.16c.38,0,.75-.06.75-.54s-.34-.56-.73-.56h-.18Z"/><path id="path2624" class="cls-1" d="M26.33,37.57a3.27,3.27,0,0,1-3.49,3.33,3.27,3.27,0,0,1-3.49-3.33,3.32,3.32,0,0,1,3.49-3.37,3.33,3.33,0,0,1,3.49,3.37m-4.67,0a1.18,1.18,0,1,0,2.36,0,1.18,1.18,0,1,0-2.36,0"/><path id="path2628" class="cls-1" d="M26.86,34.3h2.33c2.12,0,3.74,1,3.74,3.34a3,3,0,0,1-3.17,3.16h-2.9Zm2.29,4.55h.14c.77,0,1.35-.36,1.35-1.21a1.18,1.18,0,0,0-1.35-1.31h-.14Z"/><path id="path2632" class="cls-1" d="M33.47,34.3h2.76c1.43,0,2.63.62,2.63,2.26a1.54,1.54,0,0,1-1.22,1.69v0c.12.09,1.76,2.5,1.76,2.5H36.75l-1-2.09h0V40.8H33.47Zm2.24,2.88h.16c.37,0,.75-.06.75-.54s-.34-.56-.74-.56h-.17Z"/><path id="path2634" class="cls-1" d="M39.67,34.3H42v6.5H39.67Z"/><path id="path2646" class="cls-1" d="M49.08,34.3l-2.44,6.5H44.7l-2.44-6.5h2.39l.83,3a3.17,3.17,0,0,1,.16,1h0a3.51,3.51,0,0,1,.16-1l.84-3Z"/><path id="path2650" class="cls-1" d="M49.26,34.3H53.5v1.78H51.57v.62h1.77v1.69H51.57V39h2V40.8H49.26Z"/><path id="path2662" class="cls-1" d="M3.16,27.24l.32.26a6.67,6.67,0,0,0,4,1.59c.62,0,1.62-.25,1.62-1s-.84-.85-1.41-1l-1.27-.23C3.9,26.41,1.82,25,1.82,22.23c0-4.13,3.76-6.44,7.55-6.44a10.46,10.46,0,0,1,5.52,1.52l-1.71,4.46a6.58,6.58,0,0,0-3.67-1.32c-.56,0-1.36.21-1.36.93s.78.74,1.26.85l1.44.33c2.68.6,4.61,2,4.61,5,0,4.16-3.78,6.21-7.55,6.21a15.7,15.7,0,0,1-6.69-1.59Z"/><path id="path2666" class="cls-1" d="M16.53,16.07h11.7v4.75H22.9v1.67h4.87V27H22.9v1.71h5.52v4.76H16.53Z"/><path id="path2670" class="cls-1" d="M34.62,16.07l2.19,10.05,2.52-10h4.85l2.38,10.05,2.33-10h6.58L49.33,33.48H43.81l-2-9.47-2.29,9.47H34.16L28.07,16.07Z"/></g></g></svg>