<svg id="Слой_1" data-name="Слой 1" xmlns="http://www.w3.org/2000/svg" viewBox="0 0 56.69 56.69"><defs><style>.cls-1{fill:#e1071b;}.cls-2{fill:#fff;}</style></defs><path id="path2" class="cls-1" d="M57.14-1.55H-1.11V56.69H57.14Z"/><path id="path4" class="cls-2" d="M27.69,36.13v-18h11V21h-8V25.9h6.93v2.79H30.65v7.44Zm23.5,0-4-7.25h-3v7.25h-3v-18h6.65c2.67,0,6.25.76,6.25,5.23,0,3-1.58,4.46-4.07,5.12l4.68,7.66H51.19Zm-3.71-9.94C50.16,26.19,51,25,51,23.32c0-1.13-.51-2.54-3.42-2.54H44.16v5.41Zm-29.58-1c-2.13-.6-2.38-1.73-2.38-2.46,0-1.4,1.08-2.34,3-2.34a4.12,4.12,0,0,1,3.4,1.73l2.35-1.37a6.58,6.58,0,0,0-5.75-3.07c-3.37,0-6.13,2.09-6.13,5.18s2.61,4.42,5.39,5.2l1.29.38c2.39.63,2.57,1.71,2.57,2.64,0,1.7-1.78,2.76-3.33,2.76a4.16,4.16,0,0,1-3.94-2.37l-2.34,1.39a6.5,6.5,0,0,0,6.3,3.68c3.26,0,6.41-2.49,6.41-5.59,0-3.68-3-4.72-5.57-5.39l-1.28-.37Z"/></svg>