<svg id="Слой_1" data-name="Слой 1" xmlns="http://www.w3.org/2000/svg" viewBox="0 0 56.69 56.69"><defs><style>.cls-1{fill:#cda62d;}</style></defs><path id="path186" class="cls-1" d="M43.18,29.69C38.8,31.34,32.61,34.12,29,38.94a.91.91,0,0,1-1.56,0c-1-1.22-6.23-6.63-13.59-6.63a24.4,24.4,0,0,0-6.38,1v18a11.59,11.59,0,0,1,6.09-1.7c3.75,0,10.91,3.21,13.54,5.6a1.63,1.63,0,0,0,2.59,0c3.85-3.75,10.72-7.07,19.49-7.07v-22H13.51c4.38-1.66,10.57-4.48,14.18-9.26a.91.91,0,0,1,1.56,0c1,1.22,6.24,6.63,13.59,6.63a23.82,23.82,0,0,0,6.39-1V5.37a11.61,11.61,0,0,1-6.09,1.71c-3.76,0-10.92-3.22-13.55-5.61a1.62,1.62,0,0,0-2.58,0C23.11,5.23,16.24,8.54,7.47,8.54V29.69"/></svg>