<svg id="Слой_1" data-name="Слой 1" xmlns="http://www.w3.org/2000/svg" viewBox="0 0 56.69 56.69"><defs><style>.cls-1{fill:#e30615;}</style></defs><g id="layer1"><g id="g9277"><path id="path9279" class="cls-1" d="M20.1,27.53H15.51V24.86H13.14v7h2.37V29H20.1v2.8h2.37v-7H20.1v2.67"/></g><g id="g9281"><path id="path9283" class="cls-1" d="M26.44,29l1.65-2.72L29.69,29H26.44m.73-4.18-4.26,7h1.82l.87-1.43h4.9l.85,1.43h2.89l-4.25-7H27.17"/></g><g id="g9285"><path id="path9287" class="cls-1" d="M43.66,27.88a1.59,1.59,0,0,0-.6-2.44,9.91,9.91,0,0,0-4.15-.8,24,24,0,0,0-4.23.32v6.88h2.38V26a9.74,9.74,0,0,1,2-.16,3.37,3.37,0,0,1,1.9.49.91.91,0,0,1,0,1.48c-.43.36-1.29.64-3.22.35l-.27.44,3.64,3.24h3.24L41.13,29a4,4,0,0,0,2.53-1.16"/></g><g id="g9289"><path id="path9291" class="cls-1" d="M7.94,27.27C6.57,27,5.4,26.84,5.4,26.39s.94-.61,2.28-.47a12.37,12.37,0,0,1,3.56.93l.84-1.38a15.5,15.5,0,0,0-4.42-.83c-1.84-.05-4.94.11-5.08,2-.12,1.7,2.3,2.11,3.89,2.48s3,.49,3,1c0,.38-.51.67-1.87.57a11.43,11.43,0,0,1-4.4-1.26l-.92,1.51a16.35,16.35,0,0,0,5.36,1.12c2.16,0,4.59-.31,4.65-2.16,0-1.54-1.55-2.08-4.36-2.63"/></g><g id="g9293"><path id="path9295" class="cls-1" d="M51.32,27.83a3,3,0,0,1-2,.45,9.59,9.59,0,0,1-2-.26V26a10,10,0,0,1,2.06-.16,3.41,3.41,0,0,1,1.91.49.93.93,0,0,1,0,1.5m2.08-2.39a9.5,9.5,0,0,0-4.17-.8A24.09,24.09,0,0,0,45,25v6.88h2.37V29.32a16.32,16.32,0,0,0,2.45.19c1.94,0,3.39-.48,4-1.19a1.77,1.77,0,0,0-.45-2.88"/></g></g></svg>