<svg id="Слой_1" data-name="Слой 1" xmlns="http://www.w3.org/2000/svg" xmlns:xlink="http://www.w3.org/1999/xlink" viewBox="0 0 56.69 56.69"><defs><style>.cls-1{fill:none;}.cls-2{clip-path:url(#clip-path);}.cls-3{fill:#0889c2;}</style><clipPath id="clip-path"><rect class="cls-1" x="0.42" y="18.98" width="55.46" height="20.11"/></clipPath></defs><g id="g10"><g id="g12"><g class="cls-2"><g id="g14"><g id="g20"><path id="path22" class="cls-3" d="M17.71,24.93a5.24,5.24,0,0,0-2.66.76V22.08a.46.46,0,0,0-.51-.52H12.65a.46.46,0,0,0-.52.52V34.29a.46.46,0,0,0,.52.51h1.88a.46.46,0,0,0,.52-.51V28.37c0-.7.87-1.14,1.8-1.14a1.76,1.76,0,0,1,1.27.39,1.36,1.36,0,0,1,.34,1v5.66a.46.46,0,0,0,.52.51h1.88a.46.46,0,0,0,.52-.51V28.64a3.36,3.36,0,0,0-3.67-3.71"/></g><g id="g24"><path id="path26" class="cls-3" d="M6.93,26.87c-2.13-.68-2.47-1.09-2.47-1.8S5.14,24,6.29,24a16.82,16.82,0,0,1,3.06.46c.38.09.57-.12.57-.41V22.77a.64.64,0,0,0-.5-.66A10.49,10.49,0,0,0,6,21.64c-2.18,0-4.46,1-4.46,3.65,0,2,1.22,3.14,3.87,4,1.91.59,2.54,1.15,2.54,1.92s-.72,1.27-2.29,1.27a13.74,13.74,0,0,1-3.8-.79c-.38-.1-.57.08-.57.39v1.48c0,.41.29.58.58.69a10.89,10.89,0,0,0,3.8.7h0c3.51,0,5.21-1.46,5.22-3.88,0-2.65-1.7-3.45-3.93-4.16"/></g><g id="g28"><path id="path30" class="cls-3" d="M49.57,20a1.29,1.29,0,0,0-.49-.16c-.28,0-.43.18-.43.49v1.94a.55.55,0,0,0,.25.51.79.79,0,0,0,.14.1,7.41,7.41,0,0,1,0,12.37.79.79,0,0,0-.14.1.55.55,0,0,0-.25.51v1.94c0,.31.15.49.43.49a1.14,1.14,0,0,0,.49-.16,10.22,10.22,0,0,0,0-18.13"/></g><g id="g32"><path id="path34" class="cls-3" d="M28.72,32.68a6.47,6.47,0,0,1-1.69.24c-1.11,0-1.66-.45-1.66-1.12s.48-1.21,1.9-1.21a4.18,4.18,0,0,1,1.45.23ZM27,24.93a10.49,10.49,0,0,0-2.88.4.63.63,0,0,0-.49.65v1.15c0,.26.17.48.65.38a11.92,11.92,0,0,1,2.52-.35c1.24,0,1.9.58,1.9,1.47V29a8.2,8.2,0,0,0-1.92-.24c-2.58,0-4.18,1.17-4.18,3.27,0,1.8,1.36,3.1,4.09,3.1h.55a15.63,15.63,0,0,0,3.66-.57c.19,0,.54-.15.54-.56V29.12a4,4,0,0,0-1-3.14A4.89,4.89,0,0,0,27,24.93"/></g><g id="g36"><path id="path38" class="cls-3" d="M46.09,25.22H44.4a.47.47,0,0,0-.52.52v5.6a1.22,1.22,0,0,1-1.4,1.26c-.69,0-1.33-.31-1.33-.93V25.74a.46.46,0,0,0-.52-.52H38.94a.47.47,0,0,0-.52.52v5.93c0,.66-.67.93-1.39.93a1.17,1.17,0,0,1-1.34-1.26v-5.6a.46.46,0,0,0-.51-.52H33.49a.46.46,0,0,0-.52.52v5.82c0,2.2,1.59,3.41,3.89,3.41a4.9,4.9,0,0,0,2.92-.9,4.63,4.63,0,0,0,2.81.91c2.3,0,4-1,4-3.42V25.74a.46.46,0,0,0-.52-.52"/></g></g></g></g></g></svg>