<svg id="Слой_1" data-name="Слой 1" xmlns="http://www.w3.org/2000/svg" viewBox="0 0 56.69 56.69"><defs><style>.cls-1{fill:#ffcd07;}.cls-2{fill:#da2a1c;}</style></defs><path class="cls-1" d="M28.35,48.47a1.75,1.75,0,0,1-1-.34l-1.16-.85h-11l-1-8.11L6.76,33.83a21.48,21.48,0,0,1-.31-3.7,21.9,21.9,0,0,1,43.8,0,23,23,0,0,1-.31,3.7l-7.35,5.35-1,8.11h-11l-1.17.86A1.82,1.82,0,0,1,28.35,48.47Z"/><path class="cls-2" d="M26.25,49.6a3.61,3.61,0,0,0,4.19,0l.7-.51h12l1.12-8.92,7.29-5.31a23.43,23.43,0,0,0,.48-4.73,23.71,23.71,0,1,0-47.41,0,23.43,23.43,0,0,0,.48,4.73l7.29,5.31,1.12,8.92h12Zm-.31-4.66H17.19l-.87-7.06L9.11,32.64A10,10,0,0,1,9.67,26L22.42,38.91,10,23.61a10.12,10.12,0,0,1,3.1-5.13L24.24,37.65l-9.86-21a10.08,10.08,0,0,1,5.08-3.57L26.25,36.9l-5-24.79a10,10,0,0,1,4.95-1.3c.37,0,.73,0,1.09,0l1,25.79,1-25.78a10,10,0,0,1,1.1-.06,10.14,10.14,0,0,1,4.95,1.3l-5,24.8,6.8-23.81a10,10,0,0,1,5.07,3.57l-9.84,21L43.58,18.48a10.26,10.26,0,0,1,3.1,5.13l-12.4,15.3L47,26a10,10,0,0,1,.87,4.11,9.65,9.65,0,0,1-.32,2.51l-7.19,5.24L39.5,45H30.76l-1.29.93a1.84,1.84,0,0,1-2.24,0Z"/></svg>