<svg id="Слой_1" data-name="Слой 1" xmlns="http://www.w3.org/2000/svg" viewBox="0 0 56.69 56.69"><defs><style>.cls-1{fill:#e7393c;}.cls-2{fill:#2d2e2f;}.cls-3{fill:#fdfdfd;}</style></defs><path class="cls-1" d="M15.82,13.35c.72.67-.09,1.85.95,1.91.71,0,.72-.93,1-1.46.51-.86.6-2.05,1.75-2.44.15.08.3.11.38.21.49.63-.26,1.91.77,2.07s1.25-1.06,1.76-1.73,1.17-1.54,1.78-2.28c.47-.55.95-.5,1.66-.25,1.1.38.55,1,.4,1.52-.23.78-.79,1.81-.11,2.23,1,.62,1.45-.65,2.06-1.2,1-1,1.86-2.27,3.6-2.08.29,1.06-.31,1.87-.6,2.75-.14.42-.59.89,0,1.28s.91-.05,1.32-.29.54-.35.81-.52c.94-.6,2.15-1.73,3-1,1,1-.43,1.92-1,2.77a2.21,2.21,0,0,0-.05,2.22c1.13,3.32.3,6.11-2.64,8a17.39,17.39,0,0,1-15.52,2.07c-4.11-1.38-5.51-4.59-3.86-8.63C14,16.81,14.17,14.8,15.82,13.35ZM22.9,26.88a11.38,11.38,0,0,0,6.41-2.24c3-2.32,2.64-5.92-.88-7.44a11.09,11.09,0,0,0-7.62-.3c-3.34,1-5.76,3.45-5.54,5.62C15.52,24.87,18.73,26.86,22.9,26.88Z"/><path class="cls-2" d="M32.19,40.56c.73-2.39,1.48-4.48,2-6.63.24-1,1-2.61-.8-3-1.51-.34-3.08-.18-3.61,1.8-.38,1.39-.89,2.74-1.29,4.12-1.11,3.77-1.1,3.77-5.28,3.52,1-3.37,1.93-6.72,2.93-10.06.15-.5.32-1.13.95-1.33,3.42-1,6.9-1.79,10.48-.93a2.16,2.16,0,0,1,1.62,2.62,37.15,37.15,0,0,1-2.59,9.19C36,41.38,33.86,40.11,32.19,40.56Z"/><path class="cls-2" d="M42.28,31.08c0-2.55,1.26-3.28,3.54-3.31a30.35,30.35,0,0,1,5.56.11c2.43.43,3.22,1.76,2.58,4.15-1.79,6.61-5,9.07-11.2,8.53-1.52-.13-3.08-.36-3.49-2a4.08,4.08,0,0,1,1.86-4.41c2.12-1.53,4.64-1.54,7.2-1.85-.08,1.51-.42,2.54-2,2.52-.07,0-.15.06-.22.08-1.18.23-2.28.7-2.44,2-.07.63.65,1.1,1.36,1.13,1.31.06,2.75,0,3.36-1.33a24,24,0,0,0,1.41-4.57c.33-1.43-1-1.51-1.84-1.71C46.07,30,44.28,30.7,42.28,31.08Z"/><path class="cls-2" d="M16.42,31.75c-1.94-.88-3.65-1.85-5.69-1.23-.59.18-1.46.16-1.51,1s.86.86,1.43,1c.77.23,1.6.25,2.37.46,1.16.31,2.45.5,2.75,2a3.72,3.72,0,0,1-1.37,3.66c-2.5,2.27-7.31,2.78-11.06,1.59-.81-.25-.93-.76-.75-1.47.33-1.26.32-2.83,2.41-1.4,1.45,1,3.26.86,5,.65a1.32,1.32,0,0,0,1.22-1c0-.66-.7-.74-1.22-.85-.87-.2-1.75-.36-2.62-.5a3,3,0,0,1-2.76-2,3.48,3.48,0,0,1,1.32-3.68,8.25,8.25,0,0,1,4.84-2c1-.05,1.94,0,2.91,0C17.48,28,17.55,28.07,16.42,31.75Z"/><path class="cls-2" d="M23.88,29.45c-2.05,6.3-3.79,12.49-7.23,18-.9-3.62.25-7.06.73-10.53.27-2,.95-3.9,1.21-5.87.18-1.43.61-2,2.13-1.68A17.1,17.1,0,0,0,23.88,29.45Z"/><path class="cls-3" d="M22.9,26.88c-4.17,0-7.38-2-7.63-4.36-.22-2.17,2.2-4.66,5.54-5.62a11.09,11.09,0,0,1,7.62.3c3.52,1.52,3.91,5.12.88,7.44A11.38,11.38,0,0,1,22.9,26.88Zm-1.14-1A4.39,4.39,0,0,0,26,21.79a2.92,2.92,0,0,0-3-3.27,4.35,4.35,0,0,0-4.34,4A3.17,3.17,0,0,0,21.76,25.85Z"/><path class="cls-2" d="M21.76,25.85a3.17,3.17,0,0,1-3.08-3.33,4.35,4.35,0,0,1,4.34-4,2.92,2.92,0,0,1,3,3.27A4.39,4.39,0,0,1,21.76,25.85Zm-.39-4.28c-.51.29-1.12.62-1.21,1.41a.91.91,0,0,0,.93,1.11c.9.07,1.28-.57,1.41-1.28S22.12,21.83,21.37,21.57Z"/><path class="cls-3" d="M21.37,21.57c.75.26,1.25.6,1.13,1.24s-.51,1.35-1.41,1.28A.91.91,0,0,1,20.16,23C20.25,22.19,20.86,21.86,21.37,21.57Z"/></svg>