<svg id="Слой_1" data-name="Слой 1" xmlns="http://www.w3.org/2000/svg" xmlns:xlink="http://www.w3.org/1999/xlink" viewBox="0 0 56.69 56.69"><defs><style>.cls-1{fill:url(#Безымянный_градиент_7);}.cls-2{fill:url(#Безымянный_градиент_6);}.cls-3,.cls-4{fill:#010101;isolation:isolate;}.cls-3,.cls-4,.cls-6{fill-rule:evenodd;}.cls-3{opacity:0.05;}.cls-4{opacity:0.1;}.cls-5{fill:url(#Безымянный_градиент_5);}.cls-6{fill:#fff;}</style><linearGradient id="Безымянный_градиент_7" x1="-287.02" y1="-40.51" x2="-286.88" y2="-41.36" gradientTransform="matrix(33.33, 0, 0, -33.33, 9583.3, -1346.58)" gradientUnits="userSpaceOnUse"><stop offset="0.01" stop-color="#22b5ea"/><stop offset="0.34" stop-color="#279ad6"/><stop offset="0.76" stop-color="#287ec1"/><stop offset="1" stop-color="#2974ba"/></linearGradient><linearGradient id="Безымянный_градиент_6" x1="-286.72" y1="-41.78" x2="-285.97" y2="-41.34" gradientTransform="matrix(33.33, 0, 0, -33.33, 9583.3, -1346.58)" gradientUnits="userSpaceOnUse"><stop offset="0" stop-color="#2974ba"/><stop offset="0.37" stop-color="#2875bb"/><stop offset="0.57" stop-color="#287ec1"/><stop offset="0.73" stop-color="#238ccd"/><stop offset="0.88" stop-color="#24a1dc"/><stop offset="1" stop-color="#22bcef"/></linearGradient><linearGradient id="Безымянный_градиент_5" x1="-286.92" y1="-40.79" x2="-286.23" y2="-41.98" gradientTransform="matrix(33.33, 0, 0, -33.33, 9583.3, -1346.58)" gradientUnits="userSpaceOnUse"><stop offset="0" stop-color="#22b5ea"/><stop offset="1" stop-color="#067dc1"/></linearGradient></defs><path class="cls-1" d="M32.74,18a14.47,14.47,0,0,1-14.5,14.45h0A14.47,14.47,0,0,1,3.75,18h0A14.47,14.47,0,0,1,18.24,3.52h0A14.47,14.47,0,0,1,32.74,18h0"/><path class="cls-2" d="M53,38.72A14.51,14.51,0,1,1,38.44,24.26,14.48,14.48,0,0,1,53,38.72h0"/><path class="cls-3" d="M3.8,19.21A14.49,14.49,0,1,0,20.05,3.63,26.33,26.33,0,0,0,3.8,19.21Z"/><path class="cls-3" d="M52.91,37.68A14.5,14.5,0,1,0,37.13,53.11,26.33,26.33,0,0,0,52.91,37.68Z"/><path class="cls-4" d="M4.48,22.51A14.49,14.49,0,1,0,23.34,4.44,24.64,24.64,0,0,0,4.48,22.51Z"/><path class="cls-4" d="M52.25,34.29a14.5,14.5,0,1,0-18.53,18.1,24.64,24.64,0,0,0,18.53-18.1Z"/><path class="cls-4" d="M5,23.88A14.49,14.49,0,1,0,24.7,5,23.8,23.8,0,0,0,5,23.88Z"/><path class="cls-4" d="M51.71,32.89A14.49,14.49,0,1,0,32.33,51.83,23.8,23.8,0,0,0,51.71,32.89Z"/><path class="cls-5" d="M51.31,28.45a22.93,22.93,0,0,1-23,22.89h0a22.93,22.93,0,0,1-23-22.89h0a22.92,22.92,0,0,1,23-22.88h0a22.92,22.92,0,0,1,23,22.88h0"/><path class="cls-6" d="M21.89,27.66a7.18,7.18,0,0,1-2.26-2.39,6.53,6.53,0,0,1-.77-3.3,5.9,5.9,0,0,1,1.39-4,8.4,8.4,0,0,1,3.64-2.43,14.1,14.1,0,0,1,4.77-.8,18.72,18.72,0,0,1,3.17.24,11.86,11.86,0,0,1,2.2.57,4.17,4.17,0,0,1,1.72,1.1,2.2,2.2,0,0,1,.53,1.47,2.11,2.11,0,0,1-.56,1.55,1.84,1.84,0,0,1-1.4.58,2.55,2.55,0,0,1-1-.23,16.73,16.73,0,0,0-2.48-.91,8.82,8.82,0,0,0-2.4-.3,5.45,5.45,0,0,0-3,.77,2.49,2.49,0,0,0-1.2,2.24,2.26,2.26,0,0,0,.62,1.58,5.92,5.92,0,0,0,1.68,1.2c.7.34,1.75.81,3.14,1.38a3,3,0,0,1,.45.18,22.78,22.78,0,0,1,3.9,2,7.9,7.9,0,0,1,2.39,2.46,6.51,6.51,0,0,1,.87,3.42A6.86,6.86,0,0,1,36,38.17a7.17,7.17,0,0,1-3.35,2.49,14.4,14.4,0,0,1-5,.82,15.9,15.9,0,0,1-6.87-1.3,3.89,3.89,0,0,1-1.41-1.1,2.51,2.51,0,0,1-.46-1.5,2,2,0,0,1,.6-1.52,2.23,2.23,0,0,1,1.56-.55,4,4,0,0,1,1.82.47q1,.52,1.65.78a7.2,7.2,0,0,0,1.43.45,8,8,0,0,0,1.82.19,4.88,4.88,0,0,0,3.08-.82,2.71,2.71,0,0,0,1-2.24,2.37,2.37,0,0,0-.64-1.64,7,7,0,0,0-1.91-1.39c-.85-.44-2-1-3.56-1.62a22.92,22.92,0,0,1-3.9-2"/></svg>