<svg id="Слой_1" data-name="Слой 1" xmlns="http://www.w3.org/2000/svg" viewBox="0 0 56.69 56.69"><defs><style>.cls-1{fill:#099545;}.cls-2{fill:#1995d0;}.cls-3{fill:#65b448;}.cls-4{fill:#2da94a;}.cls-5{fill:#69bde2;}.cls-6{fill:#8ec045;}</style></defs><g id="layer3"><path id="path3636" class="cls-1" d="M10.22,37.53a5,5,0,0,0-2.66.71,3.45,3.45,0,0,0-1.49,2,3.09,3.09,0,0,0,.8,2.89A11.33,11.33,0,0,0,9.3,44.87a7.31,7.31,0,0,1,2,1.58.6.6,0,0,1,.12.61A1.35,1.35,0,0,1,10,47.8a6.77,6.77,0,0,1-2.7-1.33H7.22c-.53.59-1.13,1.13-1.64,1.74a9,9,0,0,0,1.7,1.38,4.84,4.84,0,0,0,2.71.67,4.15,4.15,0,0,0,2.33-.6A3.56,3.56,0,0,0,14,46.88a2.81,2.81,0,0,0-.82-2.09A20.62,20.62,0,0,0,9.24,42a2.35,2.35,0,0,1-.69-.68,1,1,0,0,1,.39-1.1,2,2,0,0,1,1.6-.3,3.74,3.74,0,0,1,1.92,1.45c.61-.6,1.19-1.22,1.8-1.81a5.68,5.68,0,0,0-2.78-2,7.57,7.57,0,0,0-1.26-.12Zm36.66.08h-1.2c0,1.14,0,2.28,0,3.42H44.48c0,.8,0,1.6,0,2.4.4,0,.8,0,1.2,0a25.1,25.1,0,0,0,.11,3.78,3.35,3.35,0,0,0,1.46,2.43,6.2,6.2,0,0,0,3.37.61c-.05-.79,0-1.59,0-2.38a3.83,3.83,0,0,1-2-.35,1.31,1.31,0,0,1-.51-1.17c0-1,0-2,0-2.93A3.63,3.63,0,0,0,50,42.77,3.23,3.23,0,0,0,51.12,41h-3c0-1.14,0-2.28,0-3.42ZM18.06,41a3.79,3.79,0,0,0-1.29.25,1.94,1.94,0,0,0,0-.24H14.36c0,3.09,0,6.17,0,9.26.8,0,1.61,0,2.41,0V44.74a1.38,1.38,0,0,1,2.75,0c0,1.84,0,3.68,0,5.52.81,0,1.61,0,2.42,0q0-2.76,0-5.52a1.36,1.36,0,0,1,1.87-1.25,1.38,1.38,0,0,1,.87,1.24c0,1.84,0,3.69,0,5.53.81,0,1.61,0,2.41,0,0-1.81,0-3.62,0-5.42a4.1,4.1,0,0,0-.48-1.91A3.79,3.79,0,0,0,23.5,41a3.62,3.62,0,0,0-2.79,1,3.7,3.7,0,0,0-2.65-1Zm25.53,0a3.08,3.08,0,0,0-2.68,1.82.8.8,0,0,1-.19.32c.08-.7,0-1.41,0-2.11-.79,0-1.59,0-2.38,0v9.21c.84,0,1.68,0,2.53,0,0-.87,0-1.74,0-2.61a6.57,6.57,0,0,1,.22-2.34,2.85,2.85,0,0,1,3-1.92c0-.78,0-1.56,0-2.35a2.57,2.57,0,0,0-.48,0ZM32.08,41a4.7,4.7,0,0,0-4.56,3.79,4.61,4.61,0,0,0,1,3.87,4.66,4.66,0,0,0,4.29,1.57,5.33,5.33,0,0,0,2.26-1v1c.83,0,1.66,0,2.5,0,0-3.06,0-6.13,0-9.2H35.09c0,.37,0,.73,0,1.1a4.73,4.73,0,0,0-3-1.11Zm0,2.32a2.35,2.35,0,0,1,2.29,2.23,2.32,2.32,0,1,1-2.79-2.18h0a2.92,2.92,0,0,1,.5,0Z"/></g><g id="g4467"><path id="path8108" class="cls-2" d="M25.51,26.72a30.46,30.46,0,0,0-2.66,10.15,46.84,46.84,0,0,0,6.86.66,33.88,33.88,0,0,0,6.94-.86,30.83,30.83,0,0,0,8.53-3.41,32.84,32.84,0,0,1-9.4-1.33l-2.8-1-1.4-.6A32.49,32.49,0,0,1,25.51,26.72Z"/><path id="path8114" class="cls-3" d="M29.71,6.36a25.4,25.4,0,0,1,4.21,9.28,25.28,25.28,0,0,1,.53,3.07,28.33,28.33,0,0,1-.4,8.21,32,32,0,0,0,9.73-2.74,33.76,33.76,0,0,0-2.53-5.87A28.86,28.86,0,0,0,37.52,13l-.2-.2A30.06,30.06,0,0,0,29.71,6.36Z"/><path id="path8120" class="cls-4" d="M29.71,20a27.36,27.36,0,0,0-7.4,3.93,15.25,15.25,0,0,0-1.93,1.61,25.17,25.17,0,0,0-6.07,8.28,32.6,32.6,0,0,0,8.54,3.07,30.46,30.46,0,0,1,2.66-10.15A38.16,38.16,0,0,1,29.71,20Zm-6.15,6.38c.36.08.72.16,1.09.22a2.57,2.57,0,0,0,.46.07l-.46-.06-1.09-.23Z"/><path id="path8126" class="cls-4" d="M29.71,6.36a31,31,0,0,0-7.53,6.41L22,13a32.58,32.58,0,0,1,7,6,8.19,8.19,0,0,1,.73,1,30.32,30.32,0,0,1,4.34,6.94,28.33,28.33,0,0,0,.4-8.21,25.28,25.28,0,0,0-.53-3.07,25.4,25.4,0,0,0-4.21-9.28Z"/><path id="path8132" class="cls-5" d="M43.78,24.18a32,32,0,0,1-9.73,2.74,33.21,33.21,0,0,1-8.54-.2,32.49,32.49,0,0,0,6.07,3.6l1.4.6,2.8,1a32.84,32.84,0,0,0,9.4,1.33,29.83,29.83,0,0,0-1.4-9.08Z"/><path id="path8138" class="cls-6" d="M22,13a34.12,34.12,0,0,0-3.93,5.67,32.65,32.65,0,0,0-2.14,5,33.52,33.52,0,0,0-1.46,6.74,28.07,28.07,0,0,1,4.86-5.27c.8-.6,1.6-1.21,2.47-1.74A28,28,0,0,1,29.71,20,8.19,8.19,0,0,0,29,19,32.58,32.58,0,0,0,22,13Z"/></g></svg>