<svg id="Слой_1" data-name="Слой 1" xmlns="http://www.w3.org/2000/svg" xmlns:xlink="http://www.w3.org/1999/xlink" viewBox="0 0 56.69 56.69"><defs><style>.cls-1{fill:url(#Безымянный_градиент_8);}.cls-2{fill:#fff;}</style><linearGradient id="Безымянный_градиент_8" x1="143.38" y1="-107.2" x2="143.64" y2="-107.2" gradientTransform="matrix(211.12, 0, 0, -211.12, -30271.42, -22590.7)" gradientUnits="userSpaceOnUse"><stop offset="0" stop-color="#7d2370"/><stop offset="0.25" stop-color="#a9157d"/><stop offset="0.81" stop-color="#e42027"/><stop offset="1" stop-color="#e42027"/></linearGradient></defs><path class="cls-1" d="M1,27.66c-.62,0-1,.31-1,.92V55.79a.87.87,0,0,0,.86.9H49.44c.44,0,.79,0,1-.61l5-15.69A.87.87,0,0,0,55,39.2C39.19,29.06,15.52,27.59,4.79,27.59c-1.54,0-2.81,0-3.77.07"/><path class="cls-2" d="M30.89,49.1a3.57,3.57,0,0,1-.78-3c.4-2.72,3-4.43,6.58-4.43a17.51,17.51,0,0,1,2.21.13l.69-2.05a20,20,0,0,0-2.89-.18,10.28,10.28,0,0,0-7.64,3,.17.17,0,0,1-.14.06c-.06,0-.09,0-.08-.06l.89-2.78H27.14L24.3,48.71a32.08,32.08,0,0,0-5-8.89H16.49l-2.07,6.47a4,4,0,0,1,1.64,2.14.09.09,0,0,0,.1.06c.06,0,.08,0,.09-.06l1.82-5.63a32.2,32.2,0,0,1,4.62,9.7h3l1.47-4.6a.09.09,0,0,1,.1-.06c.05,0,.09,0,.09.06.45,2.89,3.33,4.83,7.41,4.83a15.1,15.1,0,0,0,5.61-1l1.55-4.86h5.93l.6-1.89H42.5l1-3.2H50.6l.61-2H41.28L37.9,50.36a10.64,10.64,0,0,1-2.52.27c-2,0-3.58-.47-4.49-1.53M14.14,41.77l.59-1.86a13.1,13.1,0,0,0-2.47-.26c-3.25-.08-6.2.82-7,2.73C4.41,44.63,7,45.9,9.16,47c1.75.83,3.13,1.61,2.65,2.65-.38.8-1.62,1.18-3.42,1.14a12.54,12.54,0,0,1-5-1.26l-.91,2a15.82,15.82,0,0,0,5.43,1.28c3.73.08,6.14-.86,7.11-2.88,1.14-2.41-1.69-3.72-4-4.82-1.78-.86-3-1.31-2.71-2.18s2.14-1.41,3.77-1.37a9.17,9.17,0,0,1,2.07.28"/></svg>