<svg id="Слой_1" data-name="Слой 1" xmlns="http://www.w3.org/2000/svg" viewBox="0 0 56.69 56.69"><defs><style>.cls-1{fill:#322820;}.cls-2{fill:#d73429;}</style></defs><path class="cls-1" d="M26.06,14.13a6.85,6.85,0,0,0,0,1.11c.35,2.29-2.05,3.61-3.83,3.23a9.43,9.43,0,0,0-1.5-.16.94.94,0,0,0-1,.86c0,.39.5.3.81.37,2.06.45,3,1.72,2.7,3.66a1.79,1.79,0,0,1-.94,1.35,1,1,0,0,0-.56,1.08c.1.5.51.46.87.53a2.48,2.48,0,0,1,.75.26,13.8,13.8,0,0,0,3.85,1.21,1.25,1.25,0,0,1,1.07,1.45,1.22,1.22,0,0,1-1.17,1.38,3.74,3.74,0,0,1-2.58-.74c-1.18-.84-2.6-1.23-3.79-2.06-.8-.56-1.59-.3-2.49.25A14.71,14.71,0,0,1,13.67,30,1.46,1.46,0,0,1,11.85,29c-.18-.57-.19-1.1.7-1.15A11.74,11.74,0,0,0,16.39,27c1.14-.47,1.28-.92.57-1.91s-1.26-2.06-2.56-2.43c-.31-.09-.89-.27-.64-.84a.94.94,0,0,1,1.3-.42,4.6,4.6,0,0,1,1.12.68c.91.69,1.82,1.39,2.71,2.12.37.29.69.53,1.17.23a2.29,2.29,0,0,0,1.15-2.28,1.18,1.18,0,0,0-1.14-1c-.47,0-.93.1-1.41.11s-.9.22-1.05-.31a1,1,0,0,1,.53-1.28c.24-.13.71-.08.64-.5s-.41-.66-.84-.77a3.84,3.84,0,0,0-1.31,0,9.65,9.65,0,0,1-1.61.08,1.78,1.78,0,0,1-1.89-2c0-1,0-2.09,0-3.14,0-.45.08-1,.68-1.1s.81.37.92.78c.18.77.76.57,1.26.64s1.57-.28,1.65.52-1,.72-1.53,1c-.37.17-.94-.16-1.14.42a.93.93,0,0,0,1,1.32c1.93-.09,2.46-.62,2.38-2.53s-.27-4-.4-6c0-.43,0-.91.4-1.18a1.24,1.24,0,0,1,1.15-.19,1,1,0,0,1,.59,1.07c-.08,2.06-.15,4.11-.3,6.16-.07.93-.08,1.87.87,2.25a4.22,4.22,0,0,0,3.05-.28c.45-.18.28-.71.29-1.1s-.37-.26-.6-.31c-.56-.13-1.12-.24-1.67-.38-.32-.08-.74-.14-.71-.57s.44-.49.77-.55a9.11,9.11,0,0,1,1.8-.2c.64,0,.64-.35.6-.76s.27-1.08-.55-1.18c-.54-.06-1.07-.14-1.6-.23s-.95-.37-.89-1,.62-.63,1.07-.64a3.51,3.51,0,0,1,3.84,3.78c0,.34,0,.67,0,1Z"/><path class="cls-1" d="M32.19,29.08a2,2,0,0,1-1.35-.5c-.6-.58-.86-1.42-1.56-1.93a.75.75,0,0,1-.11-.94c.21-.36.54-.35.88-.34a1.65,1.65,0,0,1,1.1.43c.3.27.54.62,1,.26s1-.64.86-1.33a3.47,3.47,0,0,1,.26-2.33,4.05,4.05,0,0,0-.11-2.48c0-.14,0-.39-.27-.34a.54.54,0,0,0-.37.3c-.26,1.32-1.51,1.83-2.28,2.73-.57.66-1.36.39-2,.08a.67.67,0,0,1-.07-1.22,6.74,6.74,0,0,1,1-.61,8,8,0,0,0,3.05-3.16c.49-.79-.29-1.54-.13-2.34,0-.15-.32-.19-.52-.1a3.07,3.07,0,0,0-1.05.75,1.85,1.85,0,0,1-2.24.67c-.74-.32-.86-.82-.25-1.37A9.23,9.23,0,0,1,30.29,14a1.08,1.08,0,0,0,.3-1.89,5.29,5.29,0,0,1-1.12-1.55c-.22-.49-.52-1.06.23-1.36s1.43-.63,2,.26c.31.51.56,1.07.87,1.58s.62.45.81,0,.85-1.17,0-1.86A.69.69,0,0,1,33.58,8a1,1,0,0,1,1.52.17c1,1.28.91,2.41,0,3.86a4.06,4.06,0,0,0-.58,4.05c1.44,3.3,1.05,6.7,0,10.05A5.47,5.47,0,0,1,33,28.62C32.72,28.88,32.43,29.11,32.19,29.08Z"/><path class="cls-1" d="M8.26,24.31c0-.57,0-1.14,0-1.71,0-.82-.47-1.15-1.27-.93a6,6,0,0,0-1,.48,10.15,10.15,0,0,1-1,.51,1.55,1.55,0,0,1-1.69-.78c-.13-.54.54-1.12,1.2-1.36,1.14-.41,2.55-.23,3.35-1.44a4,4,0,0,0-.15-3.82A.85.85,0,0,0,6.57,15a5.68,5.68,0,0,1-1.85.44c-.47.07-1,.05-1.12-.58a1.12,1.12,0,0,1,.6-1.36,3.61,3.61,0,0,1,1.69-.19,5.44,5.44,0,0,0,1.21,0c.56-.11,1-.34.82-1.09A12.62,12.62,0,0,1,7.85,10c0-.7.24-1.32,1.05-1.35S10,9.26,10.05,10a20.56,20.56,0,0,1,0,2.22c-.05.79.15,1.28,1.07,1.09a1.14,1.14,0,0,1,1,.33A.79.79,0,0,1,12,15.07a2.82,2.82,0,0,1-.77.2,1.86,1.86,0,0,0-1.74,2.54.73.73,0,0,0,.94.65c.35-.07.78-.34.93.2s.13,1.1-.45,1.31c-1,.37-1,1-.92,2a20.73,20.73,0,0,1-.11,6c-.3,1.34-1.34,2-3,1.9a2.38,2.38,0,0,1-2.09-2.22c0-.48-.06-1,.5-1.2s.81.19,1.09.54a3.81,3.81,0,0,1,.24.32c.2.33.42.62.88.51s.55-.45.64-.82a3,3,0,0,0,.13-.59c0-.7,0-1.41,0-2.12Z"/><path class="cls-1" d="M41.27,12a2.93,2.93,0,0,0-2.73,1.29,2.33,2.33,0,0,0,.07,2.51c1.42,2.55.6,5.12.29,7.69a18.55,18.55,0,0,1-.94,4,5.08,5.08,0,0,1-.39.93,1.54,1.54,0,0,1-2,.79,1.81,1.81,0,0,1-.38-2.44,8.84,8.84,0,0,0,2.14-4.84c.5-2.53.65-5.07-.67-7.47a3.47,3.47,0,0,1-.32-2.06,2.17,2.17,0,0,1,2.36-2.22,8.69,8.69,0,0,1,1,0,11.72,11.72,0,0,0,7-1.78,1.35,1.35,0,0,1,1.9.16,1.39,1.39,0,0,1-.45,1.95,3.37,3.37,0,0,1-1.3.53c-1.61.34-3.3.23-4.84.91A2.21,2.21,0,0,1,41.27,12Z"/><path class="cls-1" d="M38.08,33.7c-6.85.53-13.71-.06-20.56,0-2.13,0-4.25.16-6.37.33a7.64,7.64,0,0,1-2.61-.09,2.18,2.18,0,0,0-1.48.2A5.48,5.48,0,0,1,4,34.39c-.25,0-.55,0-.63-.38a.82.82,0,0,1,.32-.9,3.39,3.39,0,0,1,1.87-.66,21,21,0,0,1,3.63.23,95.84,95.84,0,0,0,13.66.13c5.72-.26,11.41.33,17.11.27.26,0,.64,0,.62.31s-.39.3-.66.31Z"/><path class="cls-1" d="M45.13,26.76a3,3,0,0,1-3.88.94,1.58,1.58,0,0,1-.79-1c-.41-1.42-.61-2.84.42-4.13a3.34,3.34,0,0,0,.51-1.4c.09-.36.07-.81.28-1.07,1-1.33.63-2.6.07-4a1.79,1.79,0,0,1,.36-2.31c.75-.57,1.47-.3,1.59.63a10.79,10.79,0,0,1-.61,6.11,16.63,16.63,0,0,0-1.18,3.28c-.28,1.35.46,2.35,1.6,2.16.64-.1,1.07-.42.83-1.18-.06-.19-.08-.4-.14-.59-.11-.38-.36-.85,0-1.13s.83.08,1.18.3A4.79,4.79,0,0,1,46.88,27a.74.74,0,0,1-1.21.35C45.45,27.17,45.43,26.83,45.13,26.76Z"/><path class="cls-1" d="M17.6,41.54c-1-.29-.69-1-.48-1.62a4,4,0,0,1,2.78-1.87,3.07,3.07,0,0,1,2.71,2.41,3.67,3.67,0,0,0,.32.73c.22.47.51,1.07.27,1.45-.69,1.08-.23,2.12-.16,3.2s-.1,2.38-1.53,2.85c-.23.07-.39.36-.6.53a1.54,1.54,0,0,1-2.29-.09,1.57,1.57,0,0,0-.38-.3,4.38,4.38,0,0,1-2.46-4.72c.13-1,.83-1.71,1.59-1.49a1.85,1.85,0,0,1,0,1.27,3.93,3.93,0,0,0,1.25,4,1.38,1.38,0,0,0,1.92,0A4.08,4.08,0,0,0,22,45.27a5.53,5.53,0,0,0-1.27-5.1,1.34,1.34,0,0,0-2.05-.07A12.75,12.75,0,0,0,17.6,41.54Z"/><path class="cls-2" d="M17.6,41.54a12.75,12.75,0,0,1,1.1-1.44,1.34,1.34,0,0,1,2.05.07A5.53,5.53,0,0,1,22,45.27a4.08,4.08,0,0,1-1.44,2.64,1.38,1.38,0,0,1-1.92,0,3.93,3.93,0,0,1-1.25-4,1.85,1.85,0,0,0,0-1.27A1.72,1.72,0,0,0,17.6,41.54Z"/><path class="cls-1" d="M45.75,45.76a3,3,0,0,1-.9,2.85,3.07,3.07,0,0,1-4.8-.51,4,4,0,0,1-.48-2.72,32.57,32.57,0,0,0,.29-4.52,2.07,2.07,0,0,0-.3-1.41c-.4-.47.53-1.93,1.14-1.9.41,0,.42.39.52.65a7.07,7.07,0,0,1,0,3.39,27.37,27.37,0,0,0-.07,4.34,1.94,1.94,0,0,0,1.65,1.78A1.7,1.7,0,0,0,44.4,46c.05-.53,0-1.07,0-1.61a.67.67,0,0,1,.65-.75.66.66,0,0,1,.67.63C45.79,44.75,45.75,45.26,45.75,45.76Z"/><path class="cls-1" d="M46.47,20.57V19.25c0-.31.06-.64.44-.67a.64.64,0,0,1,.68.5,6.15,6.15,0,0,1,.29,1.27A10.28,10.28,0,0,0,51.11,27a2.21,2.21,0,0,0,1.17.49c.71.17,1.18.56,1.08,1.34s-.69.81-1.29.83a4.58,4.58,0,0,1-3.91-2.87,17.9,17.9,0,0,0-1.32-3.36A5.9,5.9,0,0,1,46.47,20.57Z"/><path class="cls-1" d="M32.61,46.55c0-.7,0-1.41,0-2.11s-.19-.91-.83-.86a1.79,1.79,0,0,1-.4,0c-.4-.09-1.05,0-1.08-.5s.62-.45,1-.52a4.45,4.45,0,0,0,.9-.14c.51-.2,1-.72.73-1.13-.55-.84-.23-1.7-.35-2.53-.09-.6.08-1.23.86-1.17s1,.57.89,1.28-.06,1.43-.63,2c-.33.31-.13.59.06.89s.51.64.41,1.09c-.37,1.88,0,3.75,0,5.62,0,.59,0,1.12-.8,1.11s-.88-.45-.85-1.08,0-1.28,0-1.92Z"/><path class="cls-1" d="M7.72,49.5a3.54,3.54,0,0,1-3-2.49c0-.34,0-.65.4-.72a.78.78,0,0,1,.92.59c.11.31-.08.83.25.92a6.52,6.52,0,0,0,2,.29,2.1,2.1,0,0,0,1.86-1.87,1.33,1.33,0,0,0-1.28-1.51,2.6,2.6,0,0,1-1.72-.94c-.23-.29-.24-.53.21-.66a3.44,3.44,0,0,1,3.69,1.45,3.19,3.19,0,0,1-2.59,4.9A6.78,6.78,0,0,1,7.72,49.5Z"/><path class="cls-1" d="M29.42,39.42c0,.15-.11.58-.18,1s-.23.79-.1,1.08c1,2.29-.28,4.55,0,6.82a1.45,1.45,0,0,1-.18.88c-.13.21-.27.42-.52.41a.62.62,0,0,1-.59-.48,3.21,3.21,0,0,1-.27-1.76,13.14,13.14,0,0,0,.31-3.3,5.85,5.85,0,0,1,.4-2.25,1.87,1.87,0,0,0-.13-1.74,3.5,3.5,0,0,1-.43-1.43.83.83,0,0,1,.76-1.07c.67-.09.85.41.93.94A7.47,7.47,0,0,1,29.42,39.42Z"/><path class="cls-1" d="M7.53,37.9c.51,0,1.12,0,1.26.57s-.46.91-.94,1.12c-1.59.71-1.84,1.28-1.17,3,.11.28.31.55.07.83s-.59.19-.93.07a1.74,1.74,0,0,1-1-2.67,2.86,2.86,0,0,0,.53-1.44C5.36,38.66,6.64,37.9,7.53,37.9Z"/><path class="cls-1" d="M46.06,15.63c.1-1-.1-2,.93-2.7a1.11,1.11,0,0,1,1.39,0c.46.35.36.81.18,1.28a9.21,9.21,0,0,0-1.08,3.4.52.52,0,0,1-.48.55c-.36,0-.56-.21-.68-.5A5.1,5.1,0,0,1,46.06,15.63Z"/><path class="cls-1" d="M44.32,40.47a11.24,11.24,0,0,1,0-2,.94.94,0,0,1,1-.87c.47,0,.62.41.71.84A6.21,6.21,0,0,1,45.73,42c-.16.45-.41.93-1,.8s-.38-.64-.39-1S44.32,40.91,44.32,40.47Z"/><path class="cls-1" d="M17,10.17a.85.85,0,0,1-.31.61A4.93,4.93,0,0,1,14.41,12a.9.9,0,0,1-1-.46c-.21-.39.12-.59.34-.85a5.33,5.33,0,0,1,1.65-1.45A1.18,1.18,0,0,1,17,10.17Z"/><path class="cls-1" d="M11.46,39.6c0,.31,0,.64-.37.74a.77.77,0,0,1-.85-.13,6.53,6.53,0,0,1-.64-.77c-.28-.43-.84-.95-.28-1.41s1.08,0,1.54.35A1.39,1.39,0,0,1,11.46,39.6Z"/></svg>