<svg id="Слой_1" data-name="Слой 1" xmlns="http://www.w3.org/2000/svg" viewBox="0 0 56.69 56.69"><defs><style>.cls-1{fill:#0f0f0f;}</style></defs><path class="cls-1" d="M41.48,24.41v1h1a1.15,1.15,0,0,1,.85.44c.13.14,2.9,3.28,3,3.37s.06.08.06.13v1.56a.75.75,0,0,1,0,.21.33.33,0,0,1-.21.19l-.27,0h-1v1h5.41v-1h-1l-.27,0a.35.35,0,0,1-.22-.19,1.49,1.49,0,0,1,0-.21V29.33a.23.23,0,0,1,0-.14l3-3.42a.84.84,0,0,1,.78-.38h1v-1H49.09v1h.67a.19.19,0,0,1,.2.18.17.17,0,0,1,0,.12s-1.86,2.2-1.89,2.22,0,0-.05,0l-1.85-2.21a.17.17,0,0,1,.12-.3h.66v-1Z"/><path class="cls-1" d="M28.23,24.41v1h.86c.62,0,.66.35.66.65v4.61c0,.28,0,.66-.38.66H28.31v1h4.54v-1H31.74c-.44,0-.46-.2-.46-.63V26.73l6.24,5.56H39.1L39,26c0-.46,0-.62.51-.62h1v-1H35.89v1h1c.47,0,.55.18.55.62l.06,3.29L32.1,24.41Z"/><path class="cls-1" d="M7.76,23.91a7.65,7.65,0,0,0-3,.61,2.28,2.28,0,0,0-1.59,2.06A2.14,2.14,0,0,0,3.73,28a3.24,3.24,0,0,0,1.73.87c.48.1,1.5.26,2.51.37a24.12,24.12,0,0,1,2.4.31c.32.08.86.19.86.79a.91.91,0,0,1-.66.83,5.08,5.08,0,0,1-2,.35,8.37,8.37,0,0,1-2.38-.41,2.91,2.91,0,0,1-1.39-.92,1.53,1.53,0,0,1-.28-.88H3.4v3.11H4.63V32a.18.18,0,0,1,.17-.18.17.17,0,0,1,.1,0,10.21,10.21,0,0,0,1.8.58,8,8,0,0,0,1.87.23,7.83,7.83,0,0,0,2.5-.35,4.34,4.34,0,0,0,1.49-.74,2,2,0,0,0,.8-1.63,2.3,2.3,0,0,0-.65-1.61,2.84,2.84,0,0,0-.79-.54,5.68,5.68,0,0,0-1-.34,26.94,26.94,0,0,0-2.76-.42,21,21,0,0,1-2.47-.33.61.61,0,0,1-.46-.56.77.77,0,0,1,.42-.64,4.83,4.83,0,0,1,2.27-.45,6.59,6.59,0,0,1,2.63.51,3,3,0,0,1,.62.38,1.86,1.86,0,0,1,.62,1h1V24.3H11.69v.32c0,.1-.1.23-.3.12a8.56,8.56,0,0,0-3.63-.83Z"/><path class="cls-1" d="M21.1,23.91a7.3,7.3,0,0,0-4.64,1.56,3.89,3.89,0,0,0-1.27,2.87,3.8,3.8,0,0,0,1.27,2.88,6.92,6.92,0,0,0,4.64,1.56,7,7,0,0,0,4.67-1.56A4,4,0,0,0,27,28.34a3.86,3.86,0,0,0-1.24-2.87,6.67,6.67,0,0,0-4.67-1.56Zm0,1.16a3.58,3.58,0,0,1,2.5.95,3.21,3.21,0,0,1,.91,2.32,3.07,3.07,0,0,1-.91,2.31,3.72,3.72,0,0,1-5,0,3.4,3.4,0,0,1,0-4.63,3.55,3.55,0,0,1,2.49-.95Z"/></svg>