<svg id="Слой_1" data-name="Слой 1" xmlns="http://www.w3.org/2000/svg" xmlns:xlink="http://www.w3.org/1999/xlink" viewBox="0 0 56.69 56.69"><defs><style>.cls-1{fill:none;}.cls-2{fill:#e73f11;}.cls-3{clip-path:url(#clip-path);}.cls-4{fill:#010101;}.cls-5{fill:#fff;}.cls-6{clip-path:url(#clip-path-2);}</style><clipPath id="clip-path"><rect class="cls-1" x="-1.96" y="4.18" width="59.38" height="35.71"/></clipPath><clipPath id="clip-path-2"><rect class="cls-1" x="3.09" y="31.12" width="52.88" height="17.54" transform="translate(59.06 79.78) rotate(180)"/></clipPath></defs><rect id="rect4407" class="cls-2" x="-1.1" y="-1.42" width="59.75" height="59.54"/><g class="cls-3"><path id="path2236" class="cls-4" d="M5.87,31V27.67H7.48V13.72H5.87V10.36l11.8,0a2.44,2.44,0,0,1,1,.28,2.09,2.09,0,0,1,.89.92,2.23,2.23,0,0,1,.29.93V28.71A2.32,2.32,0,0,1,17.62,31ZM16,27.67c0-4.47,0-9.13,0-13.95l-4.66,0c0,4.79,0,10.06,0,13.92Zm6.11,0h1.5V13.72h-1.5V10.33l14,0v3.09l0,3.09H32.4c0-.92,0-1.9,0-2.82H27.55v4.82h6.24v3.33H27.53l0,5.8h4.84V23.83h3.8V31H22.13Zm16,3.32V27.67H40V13.72H38.11V10.33H50.27a2.27,2.27,0,0,1,2.32,2.27l-.05,2.52c0,2.69,0,2.49,0,2.89a2.35,2.35,0,0,1-1.39,2.11c-.55.22-1.21.18-.65.18a2.29,2.29,0,0,1,2,2.26v5.1h1.59V31L47,31V27.67h1.47V21.86c-1.47,0-3.17,0-4.73,0v5.81h1.51V31Zm10.4-12.46.05-4.84-4.78,0s-.07,4.71,0,4.82C45.29,18.54,47.33,18.6,48.51,18.53ZM63.73,31a2.35,2.35,0,0,1-2.3-2.27c0-1.74,0-4.91,0-4.91h3.81s0,3.86,0,3.86h4.6s0-3.86,0-5.81H61.44V12.6a2.37,2.37,0,0,1,2.29-2.26c2.76,0,7.85,0,7.85,0a2.28,2.28,0,0,1,2.31,2.28v3.89h-4l0-2.79h-4.6s0,4.67.09,4.78l8.51,0c0,3.42,0,6.77,0,10.18A2.36,2.36,0,0,1,71.53,31l-3.86,0ZM76,27.67h1.58v-7l0-7H76V10.33H87.94a2.28,2.28,0,0,1,2.29,2.29v7a2.29,2.29,0,0,1-2.33,2.27l-1.09,0-5.2,0v5.81h1.45V31H76Zm10.33-9.13V13.72H81.61s0,2.79,0,4.82C81.61,18.54,86.25,18.58,86.32,18.54Zm4.88,9.13h1.5V13.72H91.2V10.33h6.9v3.39H96.62v14h1.49V31H91.2Zm8.75,0h1.43V13.72H100V10.33h14v6.18h-3.78V13.72h-4.84v4.82h6.26v3.32h-6.26v5.81h4.84V23.83l3.77,0V31l-14,0ZM118.38,31A2.35,2.35,0,0,1,116,28.72c0-.75,0,1.29,0-8.19l0-8a2.29,2.29,0,0,1,2.26-2.12l8,0a2.29,2.29,0,0,1,2.23,2.31v3.89l-4.07,0V13.72h-4.59v14h4.6c0-1.94,0-3.87,0-5.81h-3.16V18.54h7.22V31h-10.1Zm12.19,0V27.67H132V13.72h-1.45V10.33h14.07l0,6.18h-3.79V13.72h-4.75v4.82l6.15,0,0,3.29h-6.13v5.81h4.75V23.83h3.81V31Zm16.28-3.29,1.59,0V13.72h-1.59V10.33h7.23v3.39H152.4v14h4.75V23.81h3.79V31H146.85Z"/><path id="path5380" class="cls-5" d="M3.33,31V27.67H5V13.72H3.33V10.36l11.8,0a2.44,2.44,0,0,1,1,.28,2.14,2.14,0,0,1,.89.92,2.3,2.3,0,0,1,.28.93V28.71A2.32,2.32,0,0,1,15.08,31Zm10.16-3.32c0-4.47,0-9.13,0-13.95l-4.67,0V27.67Zm6.11,0h1.5V13.72H19.6V10.33l14,0,0,3.09,0,3.09H29.86V13.72H25v4.82h6.24v3.33H25l0,5.8h4.84V23.83h3.81V31H19.6Zm16,3.32V27.67h1.86V13.72H35.58V10.33H47.74a2.27,2.27,0,0,1,2.32,2.27L50,15.13c0,2.69,0,2.49,0,2.89a2.34,2.34,0,0,1-1.4,2.11c-.54.22-1.2.18-.64.18a2.29,2.29,0,0,1,2,2.26v5.1h1.59V31L44.5,31V27.67H46V21.86c-1.47,0-3.16,0-4.72,0v5.81h1.51V31ZM46,18.53l0-4.84-4.77,0s-.07,4.71,0,4.82C42.76,18.54,44.8,18.6,46,18.53ZM61.2,31a2.35,2.35,0,0,1-2.3-2.27c0-1.74,0-4.91,0-4.91h3.8s0,3.86,0,3.86h4.6s0-3.86,0-5.81H58.91V12.6a2.36,2.36,0,0,1,2.28-2.26c2.76,0,7.86,0,7.86,0a2.28,2.28,0,0,1,2.31,2.28v3.89h-4l0-2.79h-4.6s0,4.67.09,4.78l8.51,0c0,3.42,0,6.77,0,10.18A2.36,2.36,0,0,1,69,31l-3.86,0Zm12.26-3.32H75v-7l0-7H73.46V10.33H85.41a2.28,2.28,0,0,1,2.28,2.29v7a2.29,2.29,0,0,1-2.33,2.27l-1.08,0-5.2,0v5.81h1.45V31H73.46Zm10.32-9.13V13.72h-4.7s0,2.79,0,4.82C79.08,18.54,83.71,18.58,83.78,18.54Zm4.89,9.13h1.5V13.72h-1.5V10.33h6.9v3.39H94.09v14h1.49V31H88.67Zm8.75,0h1.43l0-13.95H97.42V10.33h14v6.18h-3.78V13.72h-4.84v4.82h6.25v3.32h-6.25v5.81h4.84V23.83l3.77,0V31l-14,0ZM115.85,31a2.35,2.35,0,0,1-2.41-2.28c0-.75,0,1.29,0-8.19l0-8a2.28,2.28,0,0,1,2.25-2.12l8,0A2.29,2.29,0,0,1,126,12.65v3.89l-4.07,0V13.72h-4.59v14h4.6c0-1.94,0-3.87,0-5.81h-3.17V18.54h7.23V31H115.85ZM128,31V27.67h1.45V13.72H128V10.33H142.1v6.18H138.3V13.72h-4.76v4.82l6.16,0,0,3.29h-6.14v5.81h4.76V23.83h3.8V31Zm16.28-3.29,1.59,0V13.72h-1.6V10.33h7.22v3.39h-1.68v14h4.76V23.81h3.79V31h-14.1Z"/></g><g class="cls-6"><path id="path2236-2" data-name="path2236" class="cls-4" d="M-22.23,44.29V42.65h.79V35.81h-.79V34.16l5.8,0a1.26,1.26,0,0,1,.49.14,1.06,1.06,0,0,1,.44.45,1.14,1.14,0,0,1,.14.46v8a1.13,1.13,0,0,1-1.1,1.12Zm5-1.64c0-2.19,0-4.48,0-6.84h-2.29c0,2.35,0,4.94,0,6.83Zm3,0h.74V35.81h-.74V34.14l6.89,0v3H-9.2V35.81h-2.38v2.36h3.06v1.64h-3.07v2.84H-9.2V40.77h1.87v3.52h-6.91Zm7.85,1.64V42.65h.91V35.81h-.91V34.14h6A1.12,1.12,0,0,1,.72,35.26l0,1.24c0,1.32,0,1.22,0,1.42A1.16,1.16,0,0,1,0,39c-.27.1-.59.08-.32.08a1.13,1.13,0,0,1,1,1.11v2.5h.78v1.62l-3.5,0V42.65h.72V39.8c-.72,0-1.55,0-2.32,0v2.85h.74v1.64Zm5.1-6.12,0-2.38-2.35,0s0,2.31,0,2.36C-2.87,38.17-1.87,38.2-1.29,38.17Zm7.48,6.12a1.16,1.16,0,0,1-1.13-1.12V40.76H6.93l0,1.89H9.21s0-1.89,0-2.85H5.06V35.26a1.15,1.15,0,0,1,1.12-1.11H10a1.12,1.12,0,0,1,1.14,1.12v1.91h-2l0-1.37H7s0,2.29,0,2.34l4.18,0c0,1.68,0,3.33,0,5A1.16,1.16,0,0,1,10,44.3H6.19Zm6-1.64H13V35.81h-.76V34.14h5.86a1.12,1.12,0,0,1,1.13,1.13v3.41a1.13,1.13,0,0,1-1.15,1.12H15v2.85h.71v1.64H12.21Zm5.07-4.48V35.81H15s0,1.37,0,2.36C15,38.17,17.24,38.19,17.28,38.17Zm2.4,4.48h.73V35.81h-.73V34.14h3.39v1.67h-.73v6.84h.73v1.64H19.68Zm4.29,0h.71V35.81H24V34.14h6.9v3H29V35.81H26.64s0,1.37,0,2.36h3.08V39.8H26.63v2.85H29V40.77l1.85,0v3.48l-6.9,0ZM33,44.29a1.15,1.15,0,0,1-1.18-1.12c0-.37,0,.64,0-4V35.2a1.13,1.13,0,0,1,1.11-1h3.92A1.11,1.11,0,0,1,38,35.28v1.91H36V35.81H33.73v6.84H36q0-1.42,0-2.85H34.43V38.17H38v6.12H33Zm6,0V42.65h.71V35.81H39V34.14h6.91v3H44.05V35.81H41.71v2.36l3,0V39.8h-3v2.85h2.34V40.77h1.87v3.52Zm8-1.62.78,0V35.81H47V34.14h3.54v1.67h-.82v6.84h2.33V40.76h1.86v3.53H47Z"/><path id="path5380-2" data-name="path5380" class="cls-5" d="M-23.47,44.29V42.65h.79V35.81h-.79V34.16l5.79,0a1.28,1.28,0,0,1,.5.14,1.06,1.06,0,0,1,.44.45,1.14,1.14,0,0,1,.14.46v8a1.13,1.13,0,0,1-1.1,1.12Zm5-1.64V35.81h-2.29v6.83Zm3,0h.74V35.81h-.74V34.14l6.9,0v3h-1.86c0-.45,0-.93,0-1.38h-2.38v2.36h3.07v1.64h-3.07v2.84h2.38V40.77h1.86v3.52h-6.91Zm7.85,1.64V42.65h.92V35.81h-.92V34.14h6A1.11,1.11,0,0,1-.53,35.26l0,1.24c0,1.32,0,1.22,0,1.42a1.15,1.15,0,0,1-.69,1c-.26.1-.59.08-.31.08a1.13,1.13,0,0,1,1,1.11v2.5H.25v1.62l-3.51,0V42.65h.73V39.8c-.73,0-1.56,0-2.32,0v2.85h.74v1.64Zm5.11-6.12,0-2.38-2.34,0s0,2.31,0,2.36C-4.11,38.17-3.11,38.2-2.53,38.17Zm7.47,6.12a1.15,1.15,0,0,1-1.12-1.12V40.76H5.69s0,1.89,0,1.89H8s0-1.89,0-2.85H3.82V35.26a1.15,1.15,0,0,1,1.12-1.11H8.8a1.11,1.11,0,0,1,1.13,1.12v1.91H8V35.81H5.71s0,2.29,0,2.34l4.18,0v5A1.17,1.17,0,0,1,8.77,44.3H4.94Zm6-1.64h.78V35.81H11V34.14h5.86A1.12,1.12,0,0,1,18,35.27v3.41a1.12,1.12,0,0,1-1.14,1.12H13.72v2.85h.72v1.64H11ZM16,38.17V35.81H13.72s0,1.37,0,2.36C13.72,38.17,16,38.19,16,38.17Zm2.4,4.48h.74V35.81h-.74V34.14h3.39v1.67h-.74v6.84h.74v1.64h-3.4Zm4.3,0h.7V35.81h-.69V34.14h6.9v3H27.77V35.81H25.39v2.36h3.07V39.8H25.39v2.85h2.38V40.77l1.86,0v3.48l-6.9,0Zm9.05,1.64a1.15,1.15,0,0,1-1.18-1.12c0-.37,0,.64,0-4V35.2a1.12,1.12,0,0,1,1.11-1h3.91a1.12,1.12,0,0,1,1.1,1.13v1.91h-2V35.81H32.49v6.84h2.26c0-.95,0-1.9,0-2.85H33.19V38.17h3.55v6.12h-5Zm6,0V42.65h.71V35.81h-.71V34.14h6.9v3H42.8V35.81H40.47v2.36l3,0V39.8h-3v2.85H42.8V40.77h1.86v3.52Zm8-1.62.78,0V35.81h-.78V34.14h3.55v1.67h-.83v6.84h2.34V40.76h1.86v3.53H45.76Z"/></g></svg>