<svg id="Слой_1" data-name="Слой 1" xmlns="http://www.w3.org/2000/svg" viewBox="0 0 56.69 56.69"><defs><style>.cls-1{fill:#d60659;stroke:#d60659;stroke-linecap:round;stroke-linejoin:round;stroke-width:0.5px;}.cls-2{fill:#1d5eaa;}</style></defs><path id="path4762" class="cls-1" d="M3.22,38.16A69.05,69.05,0,0,0,28.47,43a66.79,66.79,0,0,0,25-4.84,83.32,83.32,0,0,1-25,3.66A86.21,86.21,0,0,1,3.22,38.16Zm0-19.63a69.05,69.05,0,0,1,25.25-4.82,66.79,66.79,0,0,1,25,4.84,83.32,83.32,0,0,0-25-3.66A86.21,86.21,0,0,0,3.22,18.53Z"/><path id="path4790" class="cls-2" d="M48.07,29.08l-1.8-3.44-1.84,3.44Zm2.68,2.65H49.46l-.81-1.59H43.86L43,31.73H41.76l3.75-7.1H47l3.75,7.1ZM37.54,30.67A2.34,2.34,0,0,0,40,28.23a2.45,2.45,0,0,0-.73-1.85,2.69,2.69,0,0,0-1.92-.69H33.9v5Zm-.33-6a4.18,4.18,0,0,1,2.94,1,3.42,3.42,0,0,1,1.09,2.65,3.26,3.26,0,0,1-1.15,2.53,3.9,3.9,0,0,1-2.65.94H32.72v-7.1Zm-8.55,4.45-1.81-3.44L25,29.08Zm2.68,2.65H30.05l-.82-1.59H24.45l-.82,1.59H22.34l3.76-7.1h1.48Zm-8.29-6h-3.4v6H18.48v-6h-3.4V24.63h8v1.06Zm-10,.6a7.06,7.06,0,0,0-3.21-.8,4.28,4.28,0,0,0-1.67.25c-.39.17-.58.41-.58.71s.21.54.62.69a6,6,0,0,0,1.44.21c1,.07,1.63.12,1.94.16a4.23,4.23,0,0,1,2,.66,1.59,1.59,0,0,1,.64,1.36,1.94,1.94,0,0,1-1,1.75,5.51,5.51,0,0,1-2.87.62,6.63,6.63,0,0,1-4.23-1.2l.65-.86a6.66,6.66,0,0,0,3.59,1,4.38,4.38,0,0,0,1.93-.35,1,1,0,0,0,.66-.91q0-.67-.87-.9a19,19,0,0,0-2.43-.25A7,7,0,0,1,7.13,28a1.42,1.42,0,0,1-.83-1.38A1.78,1.78,0,0,1,7.24,25a5,5,0,0,1,2.64-.58,6.71,6.71,0,0,1,3.85,1.05l-.72.79Z"/></svg>