<svg id="Слой_1" data-name="Слой 1" xmlns="http://www.w3.org/2000/svg" viewBox="0 0 56.69 56.69"><defs><style>.cls-1{fill:#cb2326;}</style></defs><path class="cls-1" d="M8,40.55c-1.1-.24-2.23-.48-2.23-1.37S6.82,38,7.7,38a6.23,6.23,0,0,1,2.65.61l.08,0a0,0,0,0,0,.06,0l.79-1.4a0,0,0,0,0,0-.07h0l-.08,0a8.28,8.28,0,0,0-3.51-.79c-2.34,0-3.85,1.13-3.85,2.88,0,2,1.69,2.65,3.52,3,1.15.24,2.26.48,2.26,1.4s-1.1,1.21-2,1.21A6.24,6.24,0,0,1,4.5,44l0,0a0,0,0,0,0-.06,0h0L3.59,45.4s0,.05,0,.06l0,0a8,8,0,0,0,3.92,1.05c2.56,0,4-1.06,4-2.91C11.58,41.3,9.54,40.86,8,40.55Z"/><path class="cls-1" d="M17.52,44.68s0,0-.06,0h0l-.1,0a3.16,3.16,0,0,1-1.28.22c-.69,0-1.14-.37-1.14-.94V40.49h2.45a0,0,0,0,0,.05-.05h0V39a0,0,0,0,0-.05,0H15V37.15a0,0,0,0,0,0,0H13.11a0,0,0,0,0,0,0h0V39H11.6a.06.06,0,0,0,0,.05h0v1.42s0,0,0,0h1.46v3.68c0,1.48,1,2.36,2.64,2.36a5,5,0,0,0,2.11-.44l.11-.05A.07.07,0,0,0,18,46Z"/><path class="cls-1" d="M25.89,45h-.28a.48.48,0,0,1-.54-.55V41.49c0-1.81-1-2.69-3-2.69a7.5,7.5,0,0,0-3.24.67s0,0,0,.06l.45,1.37a0,0,0,0,0,.06,0h0a7.47,7.47,0,0,1,2.48-.61c.7,0,1.4.13,1.4,1.09v.4L20.84,42a2.43,2.43,0,0,0-2.57,2.39,2.2,2.2,0,0,0,2.44,2.14,4.09,4.09,0,0,0,2.72-1h0c.17.35.64.94,1.94.94h.52a0,0,0,0,0,.05,0h0V45a0,0,0,0,0-.05,0Zm-2.71-.69a3.48,3.48,0,0,1-2,.83c-.63,0-1.06-.32-1.06-.81a.92.92,0,0,1,.92-1l2.16-.27Z"/><path class="cls-1" d="M50.14,41.88c-1.21-.21-1.81-.32-1.81-.89,0-.34.16-.78,1.47-.78a4.77,4.77,0,0,1,2.3.59l0,0a0,0,0,0,0,.06,0l.7-1.22a0,0,0,0,0,0-.06h0l-.06,0a6.43,6.43,0,0,0-3-.71c-2.1,0-3.25.81-3.25,2.27,0,1.67,1.55,2.07,3,2.31,1.28.22,1.8.4,1.8,1s-.5.77-1.56.77a6.07,6.07,0,0,1-2.65-.77l0,0a0,0,0,0,0-.06,0l-.7,1.23a0,0,0,0,0,0,.06h0l0,0a7.37,7.37,0,0,0,3.39.87c2.19,0,3.3-.77,3.3-2.3S51.64,42.15,50.14,41.88Z"/><path class="cls-1" d="M30.9,38.8a3.3,3.3,0,0,0-2.27.88V39a0,0,0,0,0,0,0h-1.8a0,0,0,0,0,0,0h0V49.4a0,0,0,0,0,0,.05h1.79a0,0,0,0,0,.05-.05h0V45.67a3.66,3.66,0,0,0,2.26.86c2,0,3.4-1.59,3.4-3.87A3.61,3.61,0,0,0,30.9,38.8Zm-.48,6.12a2.29,2.29,0,0,1-1.79-1V41.33a2.42,2.42,0,0,1,1.79-.93,2,2,0,0,1,2,2.26A2,2,0,0,1,30.42,44.92Z"/><rect class="cls-1" x="35.31" y="36.53" width="1.89" height="9.81" rx="0.05"/><path class="cls-1" d="M44.88,44.35a0,0,0,0,0-.06,0l-.06,0a4.25,4.25,0,0,1-2.32.65,2.11,2.11,0,0,1-2.27-1.87h5.31s.05,0,.05,0h0v-.52a3.44,3.44,0,0,0-3.65-3.78,3.63,3.63,0,0,0-3.66,3.92,3.73,3.73,0,0,0,4.05,3.81,6.19,6.19,0,0,0,3.27-.89l0,0s0,0,0-.06Zm-3-4a1.61,1.61,0,0,1,1.74,1.48H40.17A1.64,1.64,0,0,1,41.9,40.32Z"/><path class="cls-1" d="M46.9,7.25H9.79a6.24,6.24,0,0,0-6.21,6.38V33.47a.14.14,0,0,0,.14.14h4.8a.13.13,0,0,0,.13-.14V13.33H48V33.47a.14.14,0,0,0,.14.14H53a.13.13,0,0,0,.13-.14V13.63A6.23,6.23,0,0,0,46.9,7.25Z"/></svg>