<svg id="Слой_1" data-name="Слой 1" xmlns="http://www.w3.org/2000/svg" viewBox="0 0 56.69 56.69"><defs><style>.cls-1{fill:#65b765;}.cls-2{fill:#5fb561;}.cls-3{fill:#fff;}</style></defs><path class="cls-1" d="M41,45.37c0-.58,0-1.15,0-1.72s0-.76.6-.75.76.19.74.75c0,1.1,0,2.21,0,3.32,0,.92.35,1.52,1.35,1.58s1.54-.35,1.6-1.43,0-2.29,0-3.43c0-.4-.08-.78.56-.79s.73.23.72.76c0,1.15,0,2.3,0,3.44-.05,1.7-1,2.56-2.77,2.59s-2.7-.73-2.8-2.5c0-.61,0-1.22,0-1.82Z"/><path class="cls-1" d="M38,46.32c0,.86,0,1.72,0,2.58,0,.52-.19.67-.69.67s-.59-.19-.61-.63c0-.7.35-1.65-.19-2s-1.38-.08-2.09-.16-1,.19-.89.89c.05.43,0,.86,0,1.29s-.1.64-.6.64-.7-.14-.69-.67q0-2.68,0-5.37c0-.47.18-.62.64-.62s.7.1.64.59v.11c.13,2.22.13,2.21,2.49,2.08.49,0,.72-.15.69-.67s0-1,0-1.5.19-.61.64-.61.68.15.64.62v2.79Z"/><path class="cls-2" d="M29.71,49.42c-1.11.43-1.6-.1-2-.91-.32-.57-.56-1.58-1.24-1.43s-.2,1.11-.26,1.7-.05.79-.69.8-.66-.32-.66-.8c0-1.68,0-3.36,0-5.05,0-.68.22-.89.87-.82A12.37,12.37,0,0,1,27.5,43a1.77,1.77,0,0,1,.94,3.11c-.48.46-.34.69-.05,1.11C28.86,48,29.27,48.69,29.71,49.42ZM26.13,45c.17.34-.33,1,.51,1a1,1,0,0,0,1.07-1c0-.69-.4-1-1-1C25.87,43.93,26.25,44.6,26.13,45Z"/><path class="cls-2" d="M49.48,46.28a8.86,8.86,0,0,1,0-1.71c.1-.55-.51-1.39.42-1.63,1.56-.39,3,.11,3.48,1s-.48,1.54-.25,2.05.94,1.06.81,1.85a1.84,1.84,0,0,1-1.11,1.48,2.63,2.63,0,0,1-.82.22c-2.56.26-2.56.26-2.56-2.3Zm1.29,1.41c-.08.44-.06.84.66.8s1.21-.16,1.22-.88-.61-.81-1.23-.86S50.72,47.14,50.77,47.69Zm0-2.87c0,.41-.16.93.58.86.53,0,.91-.29.92-.83s-.48-.81-1-.84S50.82,44.51,50.75,44.82Z"/><path class="cls-1" d="M22.11,49.44c-1,.34-1.51.06-1.73-.86s-1-.53-1.6-.6-1-.07-1.16.61c-.17.88-.66,1.19-1.6.85.78-2,1.57-4,2.34-6a.61.61,0,0,1,.62-.48.62.62,0,0,1,.68.39ZM19,45.05c-.77,1.91-.77,1.91.72,1.72A5.27,5.27,0,0,0,19,45.05Z"/><path class="cls-1" d="M6.76,44.31C6.12,44.17,5.64,44,5.15,44a.74.74,0,0,0-.87.47c-.13.38.13.63.39.81s.79.47,1.19.71A1.93,1.93,0,0,1,7,48.14c-.21,1.07-1,1.4-2,1.53a3.31,3.31,0,0,1-1.88-.31c-.25-.12-.6-.19-.38-.6s.28-.68.79-.42a2,2,0,0,0,1.35.24c.31-.07.64-.16.73-.53a.73.73,0,0,0-.38-.82c-.41-.27-.86-.5-1.28-.76a1.89,1.89,0,0,1-.84-2.72,2.89,2.89,0,0,1,3.34-.6C6.9,43.46,6.64,43.86,6.76,44.31Z"/><path class="cls-1" d="M11.37,46.86c0-.35,0-.71,0-1.07.06-1,.16-2.08-1.45-1.77-.37.07-.49-.18-.5-.53s.14-.58.57-.58c1.36,0,2.73,0,4.1,0,.23,0,.67-.17.57.34-.06.32-.05.83-.57.74-1.64-.29-1.48.78-1.45,1.8s0,2.08,0,3.12c0,.43-.09.65-.59.64s-.73-.13-.7-.67S11.37,47.54,11.37,46.86Z"/><path class="cls-3" d="M26.13,45c.12-.38-.26-1,.59-1,.59.06,1,.32,1,1a1,1,0,0,1-1.07,1C25.8,46,26.3,45.32,26.13,45Z"/><path class="cls-3" d="M50.77,47.69c-.05-.55-.09-1,.65-.94s1.24.12,1.23.86-.59.84-1.22.88S50.69,48.13,50.77,47.69Z"/><path class="cls-3" d="M50.75,44.82c.07-.31-.19-.85.49-.81s1,.2,1,.84-.39.78-.92.83C50.59,45.75,50.78,45.23,50.75,44.82Z"/><path class="cls-3" d="M19,45.05a5.27,5.27,0,0,1,.72,1.72C18.19,47,18.19,47,19,45.05Z"/><path class="cls-2" d="M25,32.88c-2.08,1.88-3.91,3.64-5.94,5.17a11.77,11.77,0,0,1-2.83,1.79c-.8.31-1.08,0-.94-.78a8.64,8.64,0,0,1,.92-2.4A113.33,113.33,0,0,1,23.39,25c.22-.32.43-.65.73-1.12l-4.53-.36a11.38,11.38,0,0,1-2.78-.59c-.45-.16-.94-.37-1-.91s.41-.83.82-1.06a22.23,22.23,0,0,1,5.25-1.82c2-.51,2-.49,1.87-2.51-.2-2.92-.4-5.84-.67-8.76-.07-.8.08-1,.89-.8,2.36.53,4.74,1,7.12,1.44.83.16,1,.55.94,1.32-.2,2.15-.3,4.3-.5,6.44-.07.78.08,1.06.94,1a24.82,24.82,0,0,1,6.21,0,8.52,8.52,0,0,1,1.14.23c1.82.54,2.13,1.87.74,3.16A14.19,14.19,0,0,1,36.42,23c-1.89.83-1.87.82-1.24,2.78a54.7,54.7,0,0,1,2.65,10,3.93,3.93,0,0,1,.06.9c-.08.63-.1,1.32-.85,1.61a1.57,1.57,0,0,1-1.65-.49A23.19,23.19,0,0,1,32,33.73c-.44-.61-.88-1.23-1.49-2.1-.15,2-.3,3.77-.37,5.51A2.31,2.31,0,0,1,29.23,39c-1.11.89-2.16,1.85-3.46,3Zm4.41-4.47.74,1.12a55.31,55.31,0,0,0,5.09,7c.39.42.81,1.16,1.44.9s.36-1,.31-1.62a11,11,0,0,0-.21-1.4,63.77,63.77,0,0,0-2.91-9.77c-.41-1.1-.15-1.47.88-1.82a18,18,0,0,0,4.84-2.43c.47-.35,1.1-.75.93-1.43s-.93-.68-1.49-.85a5,5,0,0,0-.78-.08,26.9,26.9,0,0,0-5.95,0c-.66.06-1-.09-1.14-.81A17.55,17.55,0,0,0,29.7,13c-.19-.37-.38-.84-.89-.83s-.69.47-.89.84a15.13,15.13,0,0,0-1.48,4.25c-.19.88-.47,1.43-1.48,1.38-.81,0-1,.4-.85,1.17a10.39,10.39,0,0,1,.13,1.68c.28,3.63.57,7.25.85,10.87Z"/><path class="cls-3" d="M29.42,28.41l-4.33,3.9c-.28-3.62-.57-7.24-.85-10.87a10.39,10.39,0,0,0-.13-1.68c-.17-.77,0-1.2.85-1.17,1,.05,1.29-.5,1.48-1.38A15.13,15.13,0,0,1,27.92,13c.2-.37.39-.83.89-.84s.7.46.89.83a17.55,17.55,0,0,1,1.47,4.27c.16.72.48.87,1.14.81a26.9,26.9,0,0,1,5.95,0,5,5,0,0,1,.78.08c.56.17,1.32.17,1.49.85s-.46,1.08-.93,1.43a18,18,0,0,1-4.84,2.43c-1,.35-1.29.72-.88,1.82a63.77,63.77,0,0,1,2.91,9.77,11,11,0,0,1,.21,1.4c0,.57.32,1.36-.31,1.62s-1-.48-1.44-.9a55.31,55.31,0,0,1-5.09-7Z"/></svg>