<svg id="Слой_1" data-name="Слой 1" xmlns="http://www.w3.org/2000/svg" viewBox="0 0 56.69 56.69"><defs><style>.cls-1{fill:#e52629;}.cls-2{fill:#fff;}</style></defs><path class="cls-1" d="M27.62,42.11l0,0,0,0a2.47,2.47,0,0,0-1.32-.34,2.78,2.78,0,0,0-2.4,1.31,4.85,4.85,0,0,0-.75,2.62,2.81,2.81,0,0,0,.48,1.76,2.29,2.29,0,0,0,2.14.89,3.19,3.19,0,0,0,1.79-.43l0-.06c.06-.22.23-1.25.3-1.51l0,0a2.89,2.89,0,0,1-1.74.72,1.43,1.43,0,0,1-1-.31,1.09,1.09,0,0,1-.33-.85c0-.13,0-.25,0-.39v0h0c1,0,1.53,0,2.38,0h1l.06-.05a6,6,0,0,0,.18-1.4,2.09,2.09,0,0,0-.81-1.86M27,44.27v0H25v0c0-.07,0-.14.07-.22a2,2,0,0,1,.33-.67l.1-.11a1,1,0,0,1,.77-.38.71.71,0,0,1,.58.26l.06.09a.8.8,0,0,1,.11.34.66.66,0,0,1,0,.14,3.31,3.31,0,0,1-.06.55m-3.86-1.12-.07.07-1,0-.45,2.13a9.29,9.29,0,0,0-.2,1.15.52.52,0,0,0,.18.42.6.6,0,0,0,.35.11,1.17,1.17,0,0,0,.55-.14l0,0-.24,1.22-.08.08a3.62,3.62,0,0,1-.94.13c-.9,0-1.56-.31-1.56-1.37A13.41,13.41,0,0,1,20,44.88l.37-1.69-.77,0-.05-.07L19.8,42l.07,0h.78L21,40.35l.06-.07c.78-.2,1-.3,1.72-.53l0,0-.23,1-.25,1.14,1,0,0,.05Zm12.06-2-.06.06H32.51l-.42,2.15,2.26-.06,0,0c-.19.62-.23.79-.36,1.33l-.06.06H31.83l-.28,1.5-.36,1.94-.05,0-1.85.05,0-.05.32-1.65.49-2.33c.37-1.81.48-2.39.82-4.37l.06-.05h2.7l1.72,0,0,0Zm3.64,1a3,3,0,0,0-1.71-.38,6.82,6.82,0,0,0-1.18.11c-.35.07-.57.13-.75.18l0,0-.26,1.31.09,0a6.47,6.47,0,0,1,.72-.28,2.53,2.53,0,0,1,.89-.17,2,2,0,0,1,.9.16.72.72,0,0,1,.36.64,1.1,1.1,0,0,1,0,.18.56.56,0,0,1,0,.1v0l-.26,0-.34,0c-.21,0-.46.05-.68.09-.52.09-2,.31-2.41,1.29A2.2,2.2,0,0,0,34.14,48a1.25,1.25,0,0,0,.72.42h0l.08,0a2.61,2.61,0,0,0,2.17-.91l-.14.68.06.05,1.42-.05,0,0L39.34,44a2.61,2.61,0,0,0,0-.31c0-.12,0-.22,0-.29a1.4,1.4,0,0,0-.61-1.17m-1.46,4.2a2,2,0,0,1-.82.72.81.81,0,0,1-1-.15.88.88,0,0,1,.09-1.14c.45-.53,1.93-.57,1.93-.57Zm6.89-4.66-.35,1.8-.07.07a2.09,2.09,0,0,0-2,.81h0l-.71,3.74-.06,0-1.55.05,0,0,1.22-6.28.07-.07,1.54-.15.06.07-.18.91.08-.07a5.49,5.49,0,0,1,.93-.68,1.88,1.88,0,0,1,1-.27h.09Zm8.33,1.58a5.69,5.69,0,0,1-.16,1.15l-.73,3.7,0,0L50,48.25l0-.06s.83-4.08.83-4.28a.64.64,0,0,0-.62-.68,1.52,1.52,0,0,0-.83.41l-.88,4.51,0,0-.7,0-.63,0h-.31l0,0,0,0L47,46.8h0c.24-1.2.55-2.77.55-2.89a.63.63,0,0,0-.61-.68,1.47,1.47,0,0,0-.83.41l-.88,4.51-.06,0h-.25l-1.39,0,0-.06,1.22-6.27.06-.06,1.63-.16.06.07-.17.88a2.83,2.83,0,0,1,1.78-.88,1.13,1.13,0,0,1,1.13.88,3.2,3.2,0,0,1,1.92-.88,1.37,1.37,0,0,1,1.43,1.53m-34-1.12a3.06,3.06,0,0,0-1.72-.38,6.62,6.62,0,0,0-1.17.11c-.35.07-.57.13-.76.18l0,0-.25,1.31.08,0a6.47,6.47,0,0,1,.72-.28,2.53,2.53,0,0,1,.89-.17,2,2,0,0,1,.9.16.72.72,0,0,1,.36.64,1.09,1.09,0,0,1,0,.18.84.84,0,0,0,0,.1v0l-.26,0-.33,0c-.22,0-.47.05-.68.09-.52.09-2,.31-2.42,1.29A2.22,2.22,0,0,0,13.86,48a1.28,1.28,0,0,0,.73.42h0l.07,0a2.59,2.59,0,0,0,2.17-.91l-.13.68.05.05,1.42-.05.06,0L19.06,44c0-.09,0-.2.05-.31s0-.22,0-.29a1.37,1.37,0,0,0-.6-1.17m-1.46,4.2a2,2,0,0,1-.83.72.82.82,0,0,1-1-.15.89.89,0,0,1,.1-1.14c.44-.53,1.92-.57,1.92-.57Zm-3.42-3.23-.07.07-1,0-.46,2.13a9.29,9.29,0,0,0-.2,1.15.52.52,0,0,0,.18.42.6.6,0,0,0,.35.11,1.17,1.17,0,0,0,.55-.14l0,0-.24,1.22-.08.08a3.62,3.62,0,0,1-.94.13c-.9,0-1.56-.31-1.56-1.37a12.42,12.42,0,0,1,.35-2.07l.36-1.69-.77,0-.05-.07L10.35,42l.07,0h.78l.31-1.57.06-.07c.78-.2,1-.3,1.72-.53l0,0-.23,1-.24,1.14,1,0,0,.05ZM10,40.25l-.3,1.53-.06,0a1.54,1.54,0,0,0-.36-.36A2,2,0,0,0,8,41a1.21,1.21,0,0,0-.83.29.93.93,0,0,0-.32.72c0,.54.37.81,1,1.2l.25.14a2.5,2.5,0,0,1,1.41,2.17,2.8,2.8,0,0,1-3.11,2.86,4.4,4.4,0,0,1-1.57-.28,2.56,2.56,0,0,1-.71-.4l0-.1.29-1.49.06,0a2.21,2.21,0,0,0,.55.47A2.21,2.21,0,0,0,6.29,47a1.23,1.23,0,0,0,1.38-1.13c0-.61-.48-.92-1-1.22l-.35-.21A2.33,2.33,0,0,1,5,42.3a2.94,2.94,0,0,1,.55-1.71,2.78,2.78,0,0,1,2.3-1,3.67,3.67,0,0,1,2.08.59Z"/><path class="cls-1" d="M23,18.85a10.21,10.21,0,0,0,5.32,1.35,10.43,10.43,0,0,0,5.35-1.35,3.83,3.83,0,0,0,2.16-3.1,3.83,3.83,0,0,0-2.15-3.09,10.58,10.58,0,0,0-5.35-1.33A10.43,10.43,0,0,0,23,12.66a3.81,3.81,0,0,0-2.13,3.09A3.82,3.82,0,0,0,23,18.85"/><path class="cls-1" d="M23.35,25.2A10.58,10.58,0,0,0,18,23.88a10.43,10.43,0,0,0-5.32,1.32,3.81,3.81,0,0,0-2.13,3.08,3.82,3.82,0,0,0,2.12,3.11A10.31,10.31,0,0,0,18,32.74a10.48,10.48,0,0,0,5.35-1.35,3.83,3.83,0,0,0,2.16-3.1,3.83,3.83,0,0,0-2.15-3.09"/><path class="cls-1" d="M44,25.2a10.58,10.58,0,0,0-5.35-1.32,10.46,10.46,0,0,0-5.32,1.32,3.81,3.81,0,0,0-2.13,3.09,3.82,3.82,0,0,0,2.12,3.1,10.33,10.33,0,0,0,5.32,1.35A10.58,10.58,0,0,0,44,31.39a3.83,3.83,0,0,0,2.16-3.1A3.83,3.83,0,0,0,44,25.2"/><path class="cls-1" d="M38.61,20.8a15.37,15.37,0,0,0-2.75.25A6.63,6.63,0,0,0,39,15.74c0-4.17-4.73-7.49-10.61-7.49s-10.57,3.32-10.57,7.49a6.66,6.66,0,0,0,3.05,5.32A14.92,14.92,0,0,0,18,20.8c-5.88,0-10.56,3.32-10.56,7.48S12.13,35.83,18,35.83c5,0,9.19-2.45,10.34-5.75,1.11,3.3,5.23,5.75,10.24,5.75,5.87,0,10.63-3.38,10.63-7.55S44.49,20.8,38.61,20.8"/><path class="cls-2" d="M19.69,15.74A4.83,4.83,0,0,1,22,12a11.06,11.06,0,0,1,6.38-1.83A11.18,11.18,0,0,1,34.75,12,4.85,4.85,0,0,1,37,15.74c0,3.13-4,5.62-8.73,5.62A11,11,0,0,1,22,19.52a4.78,4.78,0,0,1-2.27-3.78"/><path class="cls-2" d="M18,33.91a10.93,10.93,0,0,1-6.36-1.85,4.81,4.81,0,0,1-2.27-3.78,4.87,4.87,0,0,1,2.27-3.74A11.21,11.21,0,0,1,18,22.71a11.26,11.26,0,0,1,6.41,1.84,4.85,4.85,0,0,1,2.3,3.73c0,3.13-4,5.62-8.73,5.63"/><path class="cls-2" d="M28.35,26.49A7.25,7.25,0,0,0,25.63,23a14.52,14.52,0,0,0,2.68.24A15.37,15.37,0,0,0,31.06,23a7.19,7.19,0,0,0-2.71,3.46"/><path class="cls-2" d="M38.58,33.91a10.92,10.92,0,0,1-6.35-1.85A4.78,4.78,0,0,1,30,28.28a4.89,4.89,0,0,1,2.27-3.74,11.21,11.21,0,0,1,6.38-1.83A11.26,11.26,0,0,1,45,24.55a4.84,4.84,0,0,1,2.29,3.73c0,3.13-4.05,5.62-8.73,5.63"/></svg>