<svg id="Слой_1" data-name="Слой 1" xmlns="http://www.w3.org/2000/svg" viewBox="0 0 56.69 56.69"><defs><style>.cls-1{fill:#2e2a70;}.cls-2{fill:#22b3e9;}</style></defs><g id="layer1"><g id="g9996"><path id="path2868" class="cls-1" d="M19.81,39.4a19.8,19.8,0,0,0-5.06-2.71c-2.32-1-4.33-1.79-4.33-3.32a2.18,2.18,0,0,1,.89-1.74,3.89,3.89,0,0,1,2.36-.72A8.84,8.84,0,0,1,18.91,33l.56.51,2.58-4.82-.3-.31a11.33,11.33,0,0,0-8-2.92,9.91,9.91,0,0,0-6.5,2.26,7.49,7.49,0,0,0-2.65,5.74A6.63,6.63,0,0,0,7.13,38.8a20.61,20.61,0,0,0,5,2.74c2.39,1,4.46,1.92,4.46,3.5,0,1.21-.82,2.5-3.11,2.5A9.67,9.67,0,0,1,7.55,45l-.5-.48L3.86,49l.31.36a11.11,11.11,0,0,0,2.42,1.86A13.52,13.52,0,0,0,13.42,53,9.34,9.34,0,0,0,20,50.62a7.71,7.71,0,0,0,2.4-5.69,6.78,6.78,0,0,0-2.61-5.53"/><path id="path2870" class="cls-1" d="M46.85,52.6h6V25.84h-6Z"/><path id="path2874" class="cls-1" d="M35.13,47.59H30.57V30.85h4a2.55,2.55,0,0,1,2.84,2.77c0,1.77-.93,2.67-2.77,2.67H33.28v4.93h1.85a3.28,3.28,0,0,1,2.44.91,2.8,2.8,0,0,1,.87,2.16,3.07,3.07,0,0,1-3.31,3.3m8-7a6,6,0,0,0-2.37-2.17A6.75,6.75,0,0,0,43.16,33a6.59,6.59,0,0,0-2.44-5.35,9.56,9.56,0,0,0-6.06-1.85H24.92V52.6h9.85a10.82,10.82,0,0,0,6.55-1.91,7.86,7.86,0,0,0,1.77-10.11"/></g></g><path id="path2878" class="cls-2" d="M28.35,3.69a9.76,9.76,0,0,0-1,19.47V16.07a2.81,2.81,0,1,1,2,0v7.09a9.76,9.76,0,0,0-1-19.47"/></svg>