<svg id="Слой_1" data-name="Слой 1" xmlns="http://www.w3.org/2000/svg" viewBox="0 0 56.69 56.69"><defs><style>.cls-1{fill:#e51648;}</style></defs><g id="g3027"><path id="path3029" class="cls-1" d="M53.75,40.76a.23.23,0,0,0-.36-.13l-3,1.79V40.85c0-.17-.12-.24-.28-.17l-.92.33a.27.27,0,0,0-.18.27v6.9a.23.23,0,0,0,.24.24h.9a.23.23,0,0,0,.24-.24V44l3.5-2.15c.14-.09.21-.16.14-.31s-.28-.73-.28-.73"/></g><g id="g3031"><path id="path3033" class="cls-1" d="M4.16,43.67a2.31,2.31,0,0,1,2.38-1.78,1.89,1.89,0,0,1,2.1,1.78Zm5.93.41a3.38,3.38,0,0,0-3.5-3.53,3.86,3.86,0,0,0-3.95,4.08,3.77,3.77,0,0,0,4,4,4.75,4.75,0,0,0,3.16-1.17.23.23,0,0,0,0-.34l-.44-.67a.21.21,0,0,0-.33,0,4,4,0,0,1-2.43.87,2.46,2.46,0,0,1-2.61-2.38H9.85a.23.23,0,0,0,.24-.24Z"/></g><g id="g3035"><path id="path3037" class="cls-1" d="M15.14,47.25a2.68,2.68,0,0,1,0-5.36,2.42,2.42,0,0,1,2.52,2.67,2.43,2.43,0,0,1-2.52,2.69m2.75,4.37h.89a.23.23,0,0,0,.24-.24V40.85c0-.18-.11-.24-.28-.18l-.92.34a.26.26,0,0,0-.17.27v.34a3.16,3.16,0,0,0-2.53-1.07,3.87,3.87,0,0,0-3.92,4,3.78,3.78,0,0,0,3.84,4,3.57,3.57,0,0,0,2.61-1.06v3.83a.23.23,0,0,0,.24.24"/></g><g id="g3039"><path id="path3041" class="cls-1" d="M23.58,48.61a2.72,2.72,0,0,0,2.34-1.14v.71a.23.23,0,0,0,.24.24h.89a.23.23,0,0,0,.24-.24V40.87c0-.2-.11-.26-.27-.2l-.93.34a.25.25,0,0,0-.17.27v3.84a2,2,0,0,1-2.08,2.13,1.9,1.9,0,0,1-2-2.13V40.85c0-.18-.11-.24-.27-.18l-.93.34a.25.25,0,0,0-.17.27v3.89c0,2.27,1.37,3.44,3.1,3.44"/></g><g id="g3043"><path id="path3045" class="cls-1" d="M29.16,39.86l1-.32a.26.26,0,0,0,.22-.29V38.08a.2.2,0,0,0-.29-.19l-1,.35c-.14,0-.22.12-.22.27v1.12c0,.18.1.29.27.23"/></g><g id="g3047"><path id="path3049" class="cls-1" d="M29.18,48.42h.89a.23.23,0,0,0,.24-.24V40.85c0-.18-.11-.24-.27-.18l-.93.34a.26.26,0,0,0-.17.27v6.9a.23.23,0,0,0,.24.24"/></g><g id="g3051"><path id="path3053" class="cls-1" d="M32.2,48.42h.9a.23.23,0,0,0,.24-.24V44a2,2,0,0,1,2.08-2.12,1.89,1.89,0,0,1,2,2.12v4.15a.23.23,0,0,0,.24.24h.9a.23.23,0,0,0,.24-.24V44c0-2.28-1.38-3.44-3.11-3.44a2.7,2.7,0,0,0-2.33,1.13v-.83c0-.18-.12-.24-.28-.18l-.92.34a.26.26,0,0,0-.18.27v6.9a.23.23,0,0,0,.24.24"/></g><g id="g3055"><path id="path3057" class="cls-1" d="M43.9,47.26a2.69,2.69,0,1,1,2.53-2.68,2.49,2.49,0,0,1-2.53,2.68m0-6.71a4,4,0,1,0,3.94,4,3.86,3.86,0,0,0-3.94-4"/></g><g id="g3021"><g id="g3059"><path id="path3061" class="cls-1" d="M18.69,12.18v9a.73.73,0,0,0,.36.64l7.77,4.48a.5.5,0,0,0,.75-.43v-9a.74.74,0,0,0-.37-.64l-7.77-4.48a.49.49,0,0,0-.74.43m23.94-7L31.44,11.62a1.07,1.07,0,0,0-.54.93V25.46a.72.72,0,0,0,1.08.62l11.19-6.45a1.06,1.06,0,0,0,.53-.93V5.79a.72.72,0,0,0-1.07-.62M27.28,32.64l-3.11,1.79a.3.3,0,0,0-.15.26v3.59a.2.2,0,0,0,.3.17l3.11-1.79a.3.3,0,0,0,.14-.26V32.81a.19.19,0,0,0-.29-.17m-1.81-3.31-4.66-2.7a.45.45,0,0,0-.45,0l-4.66,2.7a.3.3,0,0,0,0,.51l4.66,2.7a.45.45,0,0,0,.45,0l4.66-2.7a.3.3,0,0,0,0-.51m7.49.48L35,31a.41.41,0,0,0,.4,0l2.07-1.2a.26.26,0,0,0,0-.45l-2.07-1.2a.41.41,0,0,0-.4,0L33,29.36a.26.26,0,0,0,0,.45M31.3,32.7l2.07,1.19a.4.4,0,0,1,.2.34v2.39a.27.27,0,0,1-.4.23L31.1,35.66a.4.4,0,0,1-.2-.35V32.92a.26.26,0,0,1,.4-.22"/></g></g></svg>