<svg id="Слой_1" data-name="Слой 1" xmlns="http://www.w3.org/2000/svg" viewBox="0 0 56.69 56.69"><defs><style>.cls-1{fill:#4a2680;}</style></defs><path id="path885" class="cls-1" d="M22.32,15.5v5.4h5.29V15.5Zm5.29,5.4V26h5.28V20.9Zm0,5.13H22.32v9.08a6.1,6.1,0,0,0,1.56,4.36,6.6,6.6,0,0,0,4.81,1.72,6.7,6.7,0,0,0,4.2-1.2V35.67a4.62,4.62,0,0,1-2.68.8,2.8,2.8,0,0,1-2-.64,2.78,2.78,0,0,1-.6-2ZM10.92,20.3A8.6,8.6,0,0,0,5,22.38a5.84,5.84,0,0,0-1.88,4.33A5,5,0,0,0,4.6,30.39a8.67,8.67,0,0,0,4.2,2.12l3,.72c1.52.36,2.2.92,2.2,1.92,0,1.24-1.12,2-3,2A4.16,4.16,0,0,1,8,36a2.78,2.78,0,0,1-.8-1.84l-4.56,1a5.67,5.67,0,0,0,1.72,3.52,9.23,9.23,0,0,0,6.72,2.56A8.92,8.92,0,0,0,17.4,39a5.82,5.82,0,0,0,1.72-4.2,5.44,5.44,0,0,0-1.6-3.92,8.31,8.31,0,0,0-4.4-2.16L10,28.07c-1.28-.24-2-.88-2-1.76,0-1.16,1.12-2,2.92-2a3.75,3.75,0,0,1,2.72,1A3,3,0,0,1,14.44,27l4.44-1a5.38,5.38,0,0,0-1.64-3.33A8.87,8.87,0,0,0,10.92,20.3Zm33.77,0a10.15,10.15,0,0,0-7.24,2.92,10.62,10.62,0,0,0-3,7.53,10.47,10.47,0,0,0,3,7.52,10.27,10.27,0,0,0,7.32,2.92,9.52,9.52,0,0,0,6.81-2.6,8.86,8.86,0,0,0,2.4-4L49.38,33a4.46,4.46,0,0,1-1.25,2.08,4.56,4.56,0,0,1-3.28,1.24,5,5,0,0,1-3.56-1.44,5.81,5.81,0,0,1-1.48-4.12,5.74,5.74,0,0,1,1.48-4.12,4.89,4.89,0,0,1,3.52-1.4A4.28,4.28,0,0,1,48,26.43a5.12,5.12,0,0,1,1.2,2.12L53.94,27a9,9,0,0,0-2.24-4A9.75,9.75,0,0,0,44.69,20.3Z"/></svg>