<svg id="Слой_1" data-name="Слой 1" xmlns="http://www.w3.org/2000/svg" viewBox="0 0 56.69 56.69"><defs><style>.cls-1{fill:#1f3d8a;}.cls-2{fill:#e1111a;}</style></defs><g id="layer1"><g id="g3536"><path id="path3538" class="cls-1" d="M30.77,46.43H22.45v1.85h4l-4.16,3.88v1.55h8.45V51.86H26.55L30.77,48Z"/></g><g id="g3540"><path id="path3542" class="cls-1" d="M17.55,53.9c3.33,0,4.18-.85,4.18-2.72V46.43H19.1v4.46c0,.75-.64,1.2-1.55,1.2S16,51.64,16,50.88V46.43H13.38v4.75c0,1.87.85,2.72,4.17,2.72"/></g><g id="g3544"><path id="path3546" class="cls-1" d="M35.6,53.9c3.33,0,4.18-.85,4.18-2.72V46.43H37.14v4.46c0,.75-.64,1.2-1.54,1.2s-1.54-.45-1.54-1.21V46.43H31.42v4.75c0,1.87.85,2.72,4.18,2.72"/></g><path id="path3548" class="cls-1" d="M52.93,46.43H50.19v7.28h2.74V46.43Z"/><g id="g3550"><path id="path3552" class="cls-1" d="M49.77,46.43H46.15l-2.92,2.51V46.43H40.48v7.28h2.75V51.13l2.71,2.58h3.7l-4-3.73Z"/></g><g id="g3554"><path id="path3556" class="cls-1" d="M6.88,48.44c0-.56.84-.58,1.12-.58a1.59,1.59,0,0,1,1.35.82h3.11c0-1.37-1.3-2.46-4.45-2.46-3.5,0-4.1,1.53-4.1,2.42,0,1.62,1.26,2.1,4,2.39.24,0,1.66,0,1.66.64,0,.51-.8.54-1.1.54a1.39,1.39,0,0,1-1.29-.85H3.76c0,1.6,1.08,2.52,4.71,2.52,3.34,0,4.23-1.36,4.23-2.4s-.69-2-3.54-2.4c-1.19-.15-2.28-.22-2.28-.64"/></g></g><g id="g3532"><path id="path3534" class="cls-2" d="M49.09,31.4s-3.84,1.12-11.29,5.69C31.13,41.2,28.51,44,28.51,44L7.92,29.73s8.66-6.37,15.9-1.49l9.71,6.66,1.18-.78L7.92,15.35s3.85-1.11,11.29-5.69c6.68-4.11,9.3-6.87,9.3-6.87L49.1,17s-8.66,6.37-15.9,1.49l-9.71-6.66-1.19.78Z"/></g></svg>