<svg id="Слой_1" data-name="Слой 1" xmlns="http://www.w3.org/2000/svg" viewBox="0 0 56.69 56.69"><defs><style>.cls-1{fill:#2e4597;}.cls-1,.cls-2{fill-rule:evenodd;}.cls-2{fill:#e6302f;}</style></defs><path class="cls-1" d="M2.06,29.48H3.9c0,.65.3.69.83.69H7c.39,0,.78,0,.78-.5s-.23-.55-2.62-.55c-2.8,0-3.13-.37-3.13-1.85,0-1.11.1-1.93,2.47-1.93H7.12c2.14,0,2.37.72,2.37,1.77v.2H7.62c0-.43-.07-.63-.92-.63H4.63c-.43,0-.69.13-.69.46,0,.53.23.56,2.2.56,2.92,0,3.58.17,3.58,1.94s-.56,1.9-3,1.9H4.43c-1.71,0-2.37-.32-2.37-1.64v-.42Z"/><polygon class="cls-1" points="9.98 25.4 11.82 25.4 13.1 29.87 13.14 29.87 14.68 25.4 16.39 25.4 17.96 29.87 17.96 29.87 19.25 25.4 21.09 25.4 19.11 31.48 16.98 31.48 15.53 27.47 15.53 27.47 14.12 31.48 11.95 31.48 9.98 25.4"/><path class="cls-1" d="M23.29,25.4h2.43l3.35,6.08H27l-.56-1.08H22.6l-.53,1.08H20l3.32-6.08Zm0,3.68h2.37L24.5,26.81l-1.18,2.27Z"/><polygon class="cls-1" points="27.75 25.4 34.88 25.4 34.88 26.91 32.26 26.91 32.26 31.48 30.38 31.48 30.38 26.91 27.75 26.91 27.75 25.4"/><path class="cls-1" d="M35.34,27.54c0-1.81,1-2.2,2.7-2.2h2.2c2.63,0,3,.55,3,2.26H41.36v-.16c0-.43-.33-.56-.89-.56h-2c-1,0-1.18.46-1.18,1.22v.65c0,.89.2,1.22,1.08,1.22h2c.82,0,1.08-.07,1.08-.82H43.3v.56c0,1-.4,1.83-2.27,1.83H38c-1.68,0-2.69-.42-2.69-2.2v-1.8Z"/><polygon class="cls-1" points="44.22 25.4 46.05 25.4 46.05 27.57 50 27.57 50 25.4 51.87 25.4 51.87 31.48 50 31.48 50 29.18 46.05 29.18 46.05 31.48 44.22 31.48 44.22 25.4"/><path class="cls-1" d="M2.06,36.05c0-1.81,1-2.21,2.7-2.21H7.55c2.14,0,2.43.76,2.43,1.94V36H8.14c0-.62-.36-.69-1-.69h-2c-.92,0-1.18.23-1.18,1.28v.76c0,1,.26,1.25,1.18,1.25h2c.49,0,1-.07,1-.66v-.16H5.81V36.47H10v1.74c0,1.74-.92,1.84-3,1.84H4.76c-1.71,0-2.7-.42-2.7-2.2v-1.8Z"/><path class="cls-1" d="M10.9,33.91h5.65c1.45,0,1.84.69,1.84,1.81v.36c0,.82-.2,1.31-1.05,1.51h0c.56.13,1,.36,1,1.35V40H16.49v-.72c0-.66-.2-.86-.76-.86h-3V40H10.9V33.91Zm1.87,3h3.09c.53,0,.69-.2.69-.66v-.19c0-.53-.26-.63-.85-.63H12.77V36.9Z"/><path class="cls-1" d="M19.28,36.05c0-1.81,1-2.21,2.69-2.21h3c1.68,0,2.7.4,2.7,2.21v1.8c0,1.78-1,2.2-2.7,2.2H22c-1.67,0-2.69-.42-2.69-2.2v-1.8Zm1.94,1.21c0,.89.16,1.22,1.05,1.22h2.4c.88,0,1.08-.33,1.08-1.22V36.6c0-.75-.2-1.21-1.18-1.21h-2.2c-1,0-1.15.46-1.15,1.21v.66Z"/><path class="cls-1" d="M28.58,33.91h1.87v3.52c0,.75.26,1,1,1h1.87c.76,0,1-.3,1-1V33.91h1.87v3.91c0,1.51-.79,2.23-2.49,2.23H31.07c-1.7,0-2.49-.72-2.49-2.23V33.91Z"/><path class="cls-1" d="M37.28,33.91h5.1c1.77,0,2.2.89,2.2,2.07v.53c0,.92-.4,1.93-1.71,1.93H39.16V40H37.28V33.91Zm1.88,3h2.89a.55.55,0,0,0,.62-.62v-.26c0-.4-.2-.63-.79-.63H39.16v1.51Z"/><path class="cls-2" d="M35.51,20.45H34.36V19.3h1.15V18.15h.72a2.66,2.66,0,0,0-2.17-1,2.75,2.75,0,1,0,2.14,4.5h-.69V20.45Z"/><path class="cls-2" d="M18.16,19.37h.89a2.33,2.33,0,1,0,0,.92h-.89v-.92Z"/><path class="cls-2" d="M5.28,19.4h.53a1.9,1.9,0,1,0,0,.92H5.28V19.4Z"/><path class="cls-2" d="M48.26,19.83a3.19,3.19,0,1,1,6.37,0,3.19,3.19,0,0,1-6.37,0Zm3.9-.73V17.66H50.72V19.1H49.27v1.45h1.45V22h1.44V20.55h1.42V19.1Z"/></svg>