<svg id="Слой_1" data-name="Слой 1" xmlns="http://www.w3.org/2000/svg" viewBox="0 0 56.69 56.69"><defs><style>.cls-1{fill:#283172;}.cls-2{fill:#e62d2e;}.cls-3{fill:#fff;}</style></defs><g id="layer1"><g id="g76"><rect id="base-2" class="cls-1" x="-1.68" y="-1.68" width="60.05" height="60.05"/><polygon id="switch" class="cls-2" points="32.09 27.98 35.53 27.98 58.37 -1.68 55 -1.68 32.09 27.98"/><path id="axa" class="cls-3" d="M44.21,41.21c1,2.93,3.2,10.55,4.06,11.16H42.6a8.91,8.91,0,0,0-.26-2c-.24-.87-2.29-7.46-2.29-7.46h-9l-1.41,2s1.7,5.32,1.8,5.58c.19.47,1,1.88,1,1.88H27s-.14-.81-.19-1.15-.52-1.77-.52-1.77a16,16,0,0,0-1.56,2c-.34.63-.49.95-.49.95H20s-.14-.81-.19-1.15-.56-1.89-.56-1.89a21,21,0,0,0-1.53,2.07c-.33.62-.48,1-.48,1H13s1.19-1.13,1.6-1.62c.7-.82,3.31-4.22,3.31-4.22L16.9,42.91H8S2.89,49.6,2.69,49.8A19.86,19.86,0,0,0,1,52.37H-1.68V50.68l.1-.1c.09-.06,3.86-4.75,7.33-9.37,3.12-4,6.05-8,6.3-8.32A27.2,27.2,0,0,0,13.57,30h4.61a21.85,21.85,0,0,0,.28,2.23c.12.39,2.93,9.61,3,9.71L23,40,20.36,31.8A15.09,15.09,0,0,0,19.53,30h5.39a4.56,4.56,0,0,0,.18,1.47c.22.67,1.37,4.84,1.37,4.84s3.68-4.6,3.89-4.94A3,3,0,0,0,30.82,30h4.49a13.93,13.93,0,0,0-2.26,2.43c-.49.61-5.23,6.64-5.23,6.64l.61,2.11c.06.2.1.34.1.35l.28-.35c1.23-1.55,6.79-8.85,7.13-9.47A15.09,15.09,0,0,0,36.85,30h4.38a11.58,11.58,0,0,0,.23,1.67ZM37.54,34.3a59.91,59.91,0,0,1-4.43,6h6s-1.17-3.58-1.37-4.39a6.89,6.89,0,0,1-.12-1.57C37.62,34.27,37.61,34.15,37.54,34.3Zm-23,0a58.37,58.37,0,0,1-4.43,6h6s-1.16-3.58-1.36-4.39a5.91,5.91,0,0,1-.12-1.57C14.58,34.27,14.56,34.15,14.49,34.3Zm9,14L25.17,46c-.15-.16-1.08-3-1.08-3L22.5,45.1Z"/></g></g></svg>