<svg id="Слой_1" data-name="Слой 1" xmlns="http://www.w3.org/2000/svg" viewBox="0 0 56.69 56.69"><defs><style>.cls-1{fill:#eb621d;}</style></defs><g id="g8"><g id="g9709"><g id="g9684"><path id="path9675" class="cls-1" d="M38.42,17.32c3.72-1.16,8.5-1.26,10.61-.65,1.75.5,1.94,1.51,1.3,3.09l1.46.23c1.58-2.2.81-4.17-1.51-5.06a16.58,16.58,0,0,0-6.77-.51L43.62,13,40,13.1,40.16,15a26.48,26.48,0,0,0-5.93,2.35A11.1,11.1,0,0,0,35.67,15l-3.1-.64a17.47,17.47,0,0,1-2,5.66l.73.56a28.84,28.84,0,0,1,7.08-3.3"/><path id="path9673" class="cls-1" d="M7.16,17.76a1.85,1.85,0,1,0-1.85-1.85,1.85,1.85,0,0,0,1.85,1.85"/><path id="path9671" class="cls-1" d="M20.35,14a14.11,14.11,0,0,0-6.57,1.55,7.32,7.32,0,0,0,1.08-2.09L11.75,13a12.71,12.71,0,0,1-2.44,5.43l.84.76a15.83,15.83,0,0,1,10-3.19c2.63,0,4.06,1.28,4.41,3.43a20.65,20.65,0,0,1-.09,6.69c-.71,3.62-2.08,4.57-5.6,3.85l-.21,1.22a13,13,0,0,0,2.83.47c4.68.21,6.26-3,6.33-8.81,0-7.2-3-8.69-7.46-8.84"/><path id="path9669" class="cls-1" d="M46.54,26.86a1.53,1.53,0,0,0,1.51,1.53,1.48,1.48,0,0,0,1.51-1.49,1.53,1.53,0,0,0-1.51-1.53,1.49,1.49,0,0,0-1.51,1.49"/><path id="path9667" class="cls-1" d="M21.14,28.81c1.23-.1,1.83-.78,1.77-1.62L22.76,25a24.84,24.84,0,0,1-4,1.77c0-1,0-2,0-3l3.21-.1c1,0,1.38-.44,1.42-1.63l-4.63.17c0-.6,0-1.2,0-1.79l2.6-.1c.95-.05,1.34-.38,1.42-1.63-2.36.1-5.17.19-7.61.22a8.82,8.82,0,0,0,.64-.89l-2.19-.35a14.22,14.22,0,0,1-2.54,2.91l.83.88a14.06,14.06,0,0,0,1.52-.93l2.53,0c0,.58,0,1.18,0,1.8-1.51,0-3,.07-4.44.08l-.1,1.57L16,23.81c0,1.24,0,2.49,0,3.67l-.32.06c-1.28.19-1.9-.05-1.92-.82a5.19,5.19,0,0,1,.18-1.34l-2.41-.29a6.94,6.94,0,0,0-.28,2.31c.11,2,2,2.69,5.35,1.84A24.38,24.38,0,0,0,21,27.4Z"/><path id="path9665" class="cls-1" d="M6.25,19.25,5,21.05a20,20,0,0,1,2.83,1.48.91.91,0,0,1,.35,1.3A38.07,38.07,0,0,1,3.8,29.7l3.29,1.57a69.51,69.51,0,0,0,2.82-7.33,2.65,2.65,0,0,0-.08-2c-.53-.83-1.38-1.53-3.58-2.69"/><path id="path9663" class="cls-1" d="M43.41,25.07c2.17-.05,4.12-.12,5.37-.18.93,0,1.44-.49,1.45-1.79-2,.07-4.37.16-6.82.23,0-.84,0-1.65,0-2.39l4.55-.14c.93,0,1.46-.49,1.49-1.78-4.6.13-10,.28-14.56.32v1.74c1.65,0,3.5,0,5.33-.07,0,.73,0,1.55,0,2.4-2.23.05-4.37.08-6.14.08v1.74c1.73,0,3.93,0,6.15-.09,0,1.37,0,2.75,0,4-3.13,0-6.2,0-8.93,0V31c6.44,0,13.76-.09,19.83-.28,1.08,0,1.67-.48,1.81-1.87-2.92.1-6.2.18-9.52.24,0-1.21,0-2.6,0-4"/></g><g id="g9692"><path id="path9661" class="cls-1" d="M13,34.74v-.05H4.83V36H7.92v7.58H9.74V36h2.09c.74,0,1.1-.42,1.18-1.3"/><path id="path9659" class="cls-1" d="M32.18,42.6h0c-1.22,0-1.65-1-1.74-2,0-.15,0-.31,0-.47V40h0a2.44,2.44,0,0,1,.65-1.84,1.58,1.58,0,0,1,1.11-.42h0c1.12,0,1.77.92,1.77,2.4s-.65,2.46-1.77,2.46m.33-6.05a3,3,0,0,0-2,.66V34.39H28.8v9.23a2.52,2.52,0,0,0,1.46-.71,2.75,2.75,0,0,0,2.07.77,3.35,3.35,0,0,0,3.33-3.49c0-2.29-1.41-3.61-3.15-3.64"/><path id="path9657" class="cls-1" d="M48.26,42.65h0c-1.12,0-1.75-1-1.75-2.54s.63-2.48,1.75-2.48h0c1.13,0,1.75,1,1.75,2.48s-.62,2.54-1.75,2.54m0-6.1a3.36,3.36,0,0,0-3.6,3.56,3.6,3.6,0,0,0,7.2,0,3.36,3.36,0,0,0-3.6-3.56"/><path id="path9655" class="cls-1" d="M40,42.63a1.48,1.48,0,0,1-1.49-1.58,1.51,1.51,0,0,1,1.52-1.58,1.5,1.5,0,0,1,1.49,1.58A1.53,1.53,0,0,1,40,42.63m3.1-.9s0-1.45,0-2.31a2.52,2.52,0,0,0-1.47-2.59,4.8,4.8,0,0,0-1.93-.28,11,11,0,0,0-2.06.24l-.16,1.09a6,6,0,0,1,3.22-.17c.52.22.8.57.75,1.42a2.54,2.54,0,0,0-2-.62A2.57,2.57,0,0,0,36.85,41a2.51,2.51,0,0,0,2.58,2.67,3,3,0,0,0,2-.71,1.33,1.33,0,0,0,1.12.65,1.62,1.62,0,0,0,1.35-.81c-.54,0-.8-.19-.79-1.08"/><path id="path9653" class="cls-1" d="M15.52,42.63A1.49,1.49,0,0,1,14,41.05a1.53,1.53,0,0,1,1.52-1.58A1.48,1.48,0,0,1,17,41.05a1.51,1.51,0,0,1-1.52,1.58m3.11-.9s0-1.45,0-2.31a2.53,2.53,0,0,0-1.47-2.59,4.8,4.8,0,0,0-1.93-.28,11,11,0,0,0-2.06.24L13,37.88a6,6,0,0,1,3.23-.17c.51.22.79.57.75,1.42a2.58,2.58,0,0,0-2-.62A2.56,2.56,0,0,0,12.34,41a2.51,2.51,0,0,0,2.57,2.67A3.06,3.06,0,0,0,17,43a1.32,1.32,0,0,0,1.12.65,1.6,1.6,0,0,0,1.34-.81c-.54,0-.79-.19-.78-1.08"/><path id="path2414" class="cls-1" d="M23.77,42.65h0c-1.12,0-1.75-1-1.75-2.54s.63-2.48,1.75-2.48h0c1.12,0,1.75,1,1.75,2.48s-.63,2.54-1.75,2.54m0-6.1a3.36,3.36,0,0,0-3.6,3.56,3.37,3.37,0,0,0,3.6,3.57,3.37,3.37,0,0,0,3.6-3.57,3.36,3.36,0,0,0-3.6-3.56"/></g></g></g></svg>