<svg id="Слой_1" data-name="Слой 1" xmlns="http://www.w3.org/2000/svg" viewBox="0 0 56.69 56.69"><defs><style>.cls-1{fill:#cc1517;}</style></defs><path class="cls-1" d="M9.75,20a18.6,18.6,0,1,1,18.6,18.6A18.59,18.59,0,0,1,9.75,20Zm18.6,12.4A12.4,12.4,0,1,0,16,20,12.4,12.4,0,0,0,28.35,32.37ZM34.54,20a6.2,6.2,0,1,1-6.19-6.19A6.19,6.19,0,0,1,34.54,20Z"/><path class="cls-1" d="M13,41v2.19h1.47v1.34H13v3.61c0,.67.17.84.85.84a2.94,2.94,0,0,0,.62-.05v1.56a7.47,7.47,0,0,1-1.19.07c-1.53,0-2.28-.46-2.28-1.76V44.51H9.75V43.17H11V41Zm8.69,7.58c0,.47.09.57.51.57h.06v1.3a1.76,1.76,0,0,1-.84.17c-.93,0-1.41-.28-1.56-.94a3.22,3.22,0,0,1-2.54,1c-1.5,0-2.48-.78-2.48-2.19a1.91,1.91,0,0,1,.63-1.55,4.1,4.1,0,0,1,2.36-.73c1.29-.15,1.86-.26,1.86-.91,0-.83-.61-1-1.28-1-.84,0-1.27.34-1.34,1.1H15c.09-1.59,1.4-2.44,3.44-2.44s3.19.72,3.19,2.07v3.52ZM18,49.32a1.46,1.46,0,0,0,1.62-1.65v-.78a2.26,2.26,0,0,1-1.21.35c-1,.13-1.64.36-1.64,1.15,0,.57.35.93,1.23.93ZM27.41,43V44.9a3.51,3.51,0,0,0-.72-.07c-1.45,0-2,1-2,2.34v3.29h-2V43.17h1.91v1.35h0A2.56,2.56,0,0,1,27,43a1.43,1.43,0,0,1,.44.07Zm5.3,1.1h0v-1h1.9V50c0,1.89-1.1,3.21-3.76,3.21-1.69,0-3.15-.86-3.23-2.34h2a1.33,1.33,0,0,0,1.49,1c1,0,1.61-.64,1.61-1.76v-1h0a2.41,2.41,0,0,1-2.18,1.13c-2.11,0-3.12-1.54-3.12-3.67,0-1.86,1.08-3.61,3.13-3.61a2.27,2.27,0,0,1,2.17,1.17ZM31,48.74c1.09,0,1.71-.89,1.71-2s-.31-2.23-1.72-2.23c-1,0-1.61.87-1.61,2.07s.47,2.19,1.62,2.19Zm11.44-1.81c0,.12,0,.37,0,.37H37.2c.06,1.26.63,1.85,1.78,1.85a1.66,1.66,0,0,0,1.59-.95h1.76a3.26,3.26,0,0,1-3.41,2.46,3.56,3.56,0,0,1-3.72-3.84A3.65,3.65,0,0,1,38.92,43c2.3,0,3.55,1.8,3.55,4Zm-2-.9c-.2-1.1-.68-1.55-1.61-1.55A1.54,1.54,0,0,0,37.2,46Zm5-5.05v2.19H47v1.34H45.48v3.61c0,.67.17.84.85.84a2.94,2.94,0,0,0,.62-.05v1.56a7.47,7.47,0,0,1-1.19.07c-1.54,0-2.28-.46-2.28-1.76V44.51H42.26V43.17h1.22V41Z"/></svg>