<svg id="Слой_1" data-name="Слой 1" xmlns="http://www.w3.org/2000/svg" viewBox="0 0 56.69 56.69"><defs><style>.cls-1{fill:#1c68b1;}</style></defs><path class="cls-1" d="M2,14.37q6.35,0,12.68,0c0,1.28,0,2.56,0,3.84H11.06c0,3.09,0,6.17,0,9.26H5.78c0-2.38,0-4.76,0-7.14-.07-.71.08-1.42,0-2.13-1.26,0-2.51,0-3.76,0C2,16.93,2,15.65,2,14.37Z"/><path class="cls-1" d="M18.33,14.41c1.76-.08,3.53,0,5.29,0a.26.26,0,0,1,.3.19c1.69,4.3,3.34,8.61,5,12.91-1.71,0-3.42,0-5.13,0-.92-2.59-1.78-5.19-2.71-7.77-.93,2.57-1.78,5.16-2.67,7.75-1.69,0-3.38,0-5.08,0C15,23.11,16.7,18.77,18.33,14.41Z"/><path class="cls-1" d="M27.75,14.37H38.51c.63,0,1.26,0,1.89,0q0,1.9,0,3.81H36.76c0,3.09,0,6.18,0,9.26-1.75,0-3.51,0-5.26,0,0-3.08,0-6.17,0-9.25-1.26,0-2.51,0-3.76,0Z"/><path class="cls-1" d="M44.05,14.42c.86-.11,1.72,0,2.58-.05s2,0,3,.05q2.51,6.53,5.07,13H49.54C48.71,25,47.86,22.6,47,20.17c-.05-.14-.08-.32-.25-.35-.83,2.55-1.75,5.08-2.59,7.63-1.69,0-3.39,0-5.08,0C40.76,23.12,42.42,18.77,44.05,14.42Z"/><path class="cls-1" d="M17.56,32.32a4.41,4.41,0,0,1,3.28,1,5.07,5.07,0,0,1,1.57,3.93,5.54,5.54,0,0,1-1,3.48,4.1,4.1,0,0,1-2.86,1.58,4.33,4.33,0,0,1-3.51-1,5.1,5.1,0,0,1-1.54-3.89,5.29,5.29,0,0,1,1.45-3.9,4.21,4.21,0,0,1,2.63-1.19m-.06,1.76a2,2,0,0,0-1.25.93,4.52,4.52,0,0,0-.58,2.3,4.33,4.33,0,0,0,.62,2.36,1.94,1.94,0,0,0,3.28,0,4.79,4.79,0,0,0,.59-3,3.41,3.41,0,0,0-1-2.17A1.93,1.93,0,0,0,17.5,34.08Z"/><path class="cls-1" d="M34.25,32.32a4.4,4.4,0,0,1,3.27,1,5,5,0,0,1,1.58,3.93,5.52,5.52,0,0,1-1,3.48,4.1,4.1,0,0,1-2.85,1.58,4.34,4.34,0,0,1-3.52-1,5.1,5.1,0,0,1-1.54-3.89,5.31,5.31,0,0,1,1.45-3.9,4.19,4.19,0,0,1,2.63-1.19m-.07,1.76a2.05,2.05,0,0,0-1.24.94,4.46,4.46,0,0,0-.58,2.29A4.33,4.33,0,0,0,33,39.67a1.95,1.95,0,0,0,3.32,0,4.89,4.89,0,0,0,.54-3.08,3.35,3.35,0,0,0-1-2.12A1.93,1.93,0,0,0,34.18,34.08Z"/><path class="cls-1" d="M50.93,32.4a5.76,5.76,0,0,1,3.38.38c-.16.58-.33,1.16-.46,1.75a4.27,4.27,0,0,0-2.38-.42,1,1,0,0,0-.92.82.86.86,0,0,0,.39.82c.74.51,1.64.68,2.39,1.17a2.86,2.86,0,0,1,1.16,1.32,2.91,2.91,0,0,1-.63,3.1,3.88,3.88,0,0,1-2.57,1,6.34,6.34,0,0,1-3-.58c.14-.61.28-1.21.43-1.81a5.24,5.24,0,0,0,2.39.61,1.66,1.66,0,0,0,1.22-.45,1,1,0,0,0-.07-1.29,8,8,0,0,0-2-1A3.25,3.25,0,0,1,48.52,36a2.76,2.76,0,0,1,.41-2.43A3.18,3.18,0,0,1,50.93,32.4Z"/><path class="cls-1" d="M40.54,32.59a18.8,18.8,0,0,1,3.09-.2,4.48,4.48,0,0,1,2.65.72,2.61,2.61,0,0,1-.72,4.44,2.21,2.21,0,0,1,1.06,1.23c.4,1.1.53,2.27.94,3.37-.72,0-1.45,0-2.18,0a21.23,21.23,0,0,1-.64-2.37,2,2,0,0,0-.62-1.21,2.64,2.64,0,0,0-1.5-.24v3.83H40.53c0-3.18,0-6.37,0-9.55m2.08,1.49c0,.89,0,1.78,0,2.66a3.64,3.64,0,0,0,1.88-.27,1.34,1.34,0,0,0,.07-2.2A3.28,3.28,0,0,0,42.62,34.08Z"/><path class="cls-1" d="M2.59,32.48H5.42c.6,2.21,1.3,4.41,1.7,6.68a.75.75,0,0,0,.13-.38c.47-2.14,1.14-4.22,1.79-6.31h2.77c.14,3.21.34,6.43.48,9.65h-2c-.05-2-.18-4-.21-6,0-.55,0-1.1,0-1.66C9.34,37,8.55,39.49,7.8,42H6.15C5.6,39.83,5,37.69,4.52,35.5a9.52,9.52,0,0,0-.23-1.06C4.23,37,4.07,39.58,4,42.14H2C2.2,38.92,2.42,35.7,2.59,32.48Z"/><path class="cls-1" d="M22.69,32.49c2.37,0,4.75,0,7.13,0,0,.6,0,1.21,0,1.82-.84,0-1.68,0-2.52,0,0,2.61,0,5.21,0,7.82H25.19V34.32h-2.5C22.69,33.71,22.7,33.1,22.69,32.49Z"/></svg>