<svg id="Слой_1" data-name="Слой 1" xmlns="http://www.w3.org/2000/svg" viewBox="0 0 56.69 56.69"><defs><style>.cls-1{fill:#010101;}</style></defs><g id="layer1"><g id="g2100"><path id="path24" class="cls-1" d="M42.15,46.32a.94.94,0,0,1,.26.14l6.7,5.69H44.84L38.5,46.32l5.79-5.41h4l-5.92,5.27A.6.6,0,0,1,42.15,46.32Z"/><path id="path26" class="cls-1" d="M21.46,40.91h7.27c3.66,0,6,2.43,6,5.62a5.63,5.63,0,0,1-5.93,5.62H21.46Zm2.87,8.87h4.3a2.94,2.94,0,0,0,3.3-3.25c0-1.69-.72-3.31-3.48-3.31H24.33Z"/><path id="path46" class="cls-1" d="M20.79,40.91H7.58V43.3h5.1v8.85h3V43.3h5.09Z"/><path id="path48" class="cls-1" d="M38.41,52.15V40.91h-3V52.15Z"/></g></g><path id="path28" class="cls-1" d="M47.9,26,35.52,18.85V4.54ZM8.79,26l12.42-7.16V4.54Zm19.56,5.23L16,38.4h24.8Zm7.17-26.7H21.21l7.14,7.16Zm0,14.31L28.35,31.24l9.77-2.62Zm-14.31,0H35.52L28.35,11.7Zm16.91,9.77,2.64,9.78L47.9,26ZM21.21,18.85l7.14,12.39-9.78-2.62Zm-2.64,9.77L16,38.4,8.79,26Z"/></svg>