<svg id="Слой_1" data-name="Слой 1" xmlns="http://www.w3.org/2000/svg" viewBox="0 0 56.69 56.69"><defs><style>.cls-1{fill:#3463ac;}</style></defs><path class="cls-1" d="M19,12.09A6.92,6.92,0,1,0,12.09,19,6.91,6.91,0,0,0,19,12.09"/><path class="cls-1" d="M35.26,12.09A6.92,6.92,0,1,0,28.35,19a6.91,6.91,0,0,0,6.91-6.91"/><path class="cls-1" d="M51.52,12.09A6.92,6.92,0,1,0,44.61,19a6.91,6.91,0,0,0,6.91-6.91"/><path class="cls-1" d="M35.26,28.35a6.92,6.92,0,1,0-6.91,6.91,6.91,6.91,0,0,0,6.91-6.91"/><path class="cls-1" d="M35.26,44.61a6.92,6.92,0,1,0-6.91,6.91,6.91,6.91,0,0,0,6.91-6.91"/></svg>