<svg id="Слой_1" data-name="Слой 1" xmlns="http://www.w3.org/2000/svg" viewBox="0 0 56.69 56.69"><defs><style>.cls-1{fill:#291f4c;}</style></defs><path class="cls-1" d="M7.06,11.61c0,.36,0,.47.41.51l.58,0v.33H4.86v-.33l.55,0c.33,0,.4-.15.4-.51V6.53H5.37c-.92,0-1,.33-1.32,1.29H3.72V6.13H9.19V7.86H8.86c-.25-1-.4-1.33-1.28-1.33H7.06Z"/><path class="cls-1" d="M11.4,7c0-.48-.07-.51-.77-.55V6.13h4.85V7.78h-.33c-.26-.92-.4-1.25-1.36-1.25H13c-.26,0-.33.08-.33.33V9h1.07c.62,0,.73-.18.84-.85h.33v2.1h-.33c-.11-.66-.22-.81-.84-.81H12.65v2c0,.58.07.69,1.1.69s1.44-.36,1.73-1.39h.29l0,1.8H10.66v-.33c.7,0,.74-.08.74-.55Z"/><path class="cls-1" d="M17.28,12.49v-.33c.48,0,.63,0,.7-.52a11.64,11.64,0,0,0,0-1.36V7c0-.48-.08-.51-.74-.55V6.13H19.6c.48,1.25,1.32,3.42,1.73,4.45h0c.52-1.36,1.29-3.13,1.77-4.45h2.2v.33c-.7,0-.81,0-.81.51v4.6c0,.48.08.55.78.59v.33H22.58v-.33c.69,0,.73-.08.73-.55V7h0c-.55,1.43-1.72,4.38-2.09,5.4H20.7C20.11,10.8,19,8.26,18.53,7v3.31a11.27,11.27,0,0,0,0,1.36c.07.55.37.44.88.48v.33Z"/><path class="cls-1" d="M29.93,12.49v-.33h.51c.22,0,.26-.11.19-.33-.15-.52-.45-1.29-.56-1.66H28.24c-.19.55-.37,1.18-.48,1.58-.08.19,0,.33.18.37h.55v.33H26.36v-.33c.55,0,.59,0,.77-.51.55-1.33,1.4-3.83,2-5.55h1c.52,1.58,1.47,4.33,1.88,5.62.11.4.25.44.77.44v.33H29.93Zm-.77-5.26h0c-.23.66-.59,1.73-.81,2.54h1.58C29.71,9.14,29.38,7.86,29.16,7.23Z"/><path class="cls-1" d="M37.57,7.86c-.22-1-.77-1.47-1.39-1.47a1,1,0,0,0-1,1c0,.69.67,1,1.36,1.32.92.4,1.77.77,1.77,2,0,1-.59,2-2.39,2A2.86,2.86,0,0,1,34,12.16L33.9,10.5h.33c.33,1.14,1,1.77,1.73,1.77a1.05,1.05,0,0,0,1.17-1.07c0-.62-.44-1-1.25-1.36C34.85,9.4,34,8.92,34,7.89S34.74,6,36.21,6a3.71,3.71,0,0,1,1.73.41V7.86Z"/><path class="cls-1" d="M40.84,7c0-.48-.07-.51-.73-.55V6.13H45V7.78h-.33c-.26-.92-.41-1.25-1.4-1.25h-.7c-.25,0-.33.08-.33.33V9h.92c.63,0,.74-.18.85-.85h.33v2.17H44c-.11-.66-.22-.88-.85-.88h-.92v2c0,.58.08.69,1.1.69s1.36-.44,1.66-1.47h.33l-.15,1.88H40.07v-.33c.7,0,.74-.08.74-.55V7Z"/><path class="cls-1" d="M47.57,7c0-.48-.07-.51-.73-.55V6.13h2.79v.33c-.7,0-.73.07-.73.55v4.6c0,.47.07.51.77.55v.33h-2.8v-.33c.7,0,.74-.08.74-.55V7ZM51,6.5l-.4,0V6.13H53v.33a2,2,0,0,0-1.25.44,19.7,19.7,0,0,0-1.84,1.77,21.81,21.81,0,0,0,2.2,3,1.91,1.91,0,0,0,.85.59l0,.33-.62,0a2.3,2.3,0,0,1-2.06-1.14c-.52-.67-1.47-2.21-1.47-2.21A30,30,0,0,0,51,6.75C51.1,6.61,51.1,6.5,51,6.5Z"/><path class="cls-1" d="M7.06,21.11c0,.36,0,.47.41.51l.58,0V22H4.86v-.33l.55,0c.33,0,.4-.15.4-.51V16H5.37c-.92,0-1,.33-1.32,1.29H3.72V15.63H9.19v1.73H8.86c-.25-1-.4-1.33-1.28-1.33H7.06Z"/><path class="cls-1" d="M11.4,16.51c0-.48-.07-.51-.77-.55v-.33h4.85v1.65h-.33c-.26-.92-.4-1.25-1.36-1.25H13c-.26,0-.33.08-.33.33v2.1h1.07c.62,0,.73-.18.84-.85h.33v2.1h-.33c-.11-.66-.22-.81-.84-.81H12.65v2c0,.58.07.69,1.1.69s1.44-.36,1.73-1.39h.29l0,1.8H10.66v-.33c.7,0,.74-.08.74-.55Z"/><path class="cls-1" d="M17.28,22v-.33c.48,0,.63,0,.7-.52a11.64,11.64,0,0,0,0-1.36V16.51c0-.48-.08-.51-.74-.55v-.33H19.6c.48,1.25,1.32,3.42,1.73,4.45h0c.52-1.36,1.29-3.13,1.77-4.45h2.2V16c-.7,0-.81,0-.81.51v4.6c0,.48.08.55.78.59V22H22.58v-.33c.69,0,.73-.08.73-.55v-4.6h0c-.55,1.44-1.72,4.38-2.09,5.41H20.7c-.59-1.62-1.69-4.16-2.17-5.41v3.31a11.27,11.27,0,0,0,0,1.36c.07.55.37.44.88.48V22Z"/><path class="cls-1" d="M29.93,22v-.33h.51c.22,0,.26-.11.19-.33-.15-.52-.45-1.29-.56-1.66H28.24c-.19.55-.37,1.18-.48,1.58-.08.19,0,.33.18.37h.55V22H26.36v-.33c.55,0,.59,0,.77-.51.55-1.33,1.4-3.83,2-5.55h1c.52,1.58,1.47,4.33,1.88,5.62.11.4.25.44.77.44V22H29.93Zm-.77-5.26h0c-.23.66-.59,1.73-.81,2.54h1.58C29.71,18.64,29.38,17.36,29.16,16.73Z"/><path class="cls-1" d="M37.57,17.36c-.22-1-.77-1.47-1.39-1.47a1,1,0,0,0-1,1c0,.69.67,1,1.36,1.32.92.4,1.77.77,1.77,2,0,1-.59,2-2.39,2A2.86,2.86,0,0,1,34,21.66L33.9,20h.33c.33,1.14,1,1.77,1.73,1.77a1.05,1.05,0,0,0,1.17-1.07c0-.62-.44-1-1.25-1.36-1-.44-1.91-.92-1.91-1.95s.77-1.91,2.24-1.91a3.71,3.71,0,0,1,1.73.41v1.47Z"/><path class="cls-1" d="M40.84,16.51c0-.48-.07-.51-.73-.55v-.33H45v1.65h-.33c-.26-.92-.41-1.25-1.4-1.25h-.7c-.25,0-.33.08-.33.33v2.1h.92c.63,0,.74-.18.85-.85h.33v2.17H44c-.11-.66-.22-.88-.85-.88h-.92v2c0,.58.08.69,1.1.69s1.36-.44,1.66-1.47h.33L45.18,22H40.07v-.33c.7,0,.74-.08.74-.55v-4.6Z"/><path class="cls-1" d="M47.57,16.51c0-.48-.07-.51-.73-.55v-.33h2.79V16c-.7,0-.73.07-.73.55v4.6c0,.47.07.51.77.55V22h-2.8v-.33c.7,0,.74-.08.74-.55v-4.6ZM51,16l-.4,0v-.33H53V16a2,2,0,0,0-1.25.44,19.7,19.7,0,0,0-1.84,1.77,21.81,21.81,0,0,0,2.2,3,1.91,1.91,0,0,0,.85.59l0,.33-.62,0a2.3,2.3,0,0,1-2.06-1.14c-.52-.67-1.47-2.21-1.47-2.21A28.44,28.44,0,0,0,51,16.25C51.1,16.11,51.1,16,51,16Z"/><path class="cls-1" d="M7.06,30.61c0,.36,0,.48.41.51l.58,0v.33H4.86v-.33l.55,0c.33,0,.4-.15.4-.51V25.53H5.37c-.92,0-1,.34-1.32,1.29H3.72V25.13H9.19v1.73H8.86c-.25-1-.4-1.33-1.28-1.33H7.06Z"/><path class="cls-1" d="M11.4,26c0-.48-.07-.51-.77-.55v-.33h4.85v1.65h-.33c-.26-.91-.4-1.25-1.36-1.25H13c-.26,0-.33.08-.33.34V28h1.07c.62,0,.73-.18.84-.85h.33v2.1h-.33c-.11-.66-.22-.81-.84-.81H12.65v2c0,.58.07.7,1.1.7s1.44-.37,1.73-1.4h.29l0,1.8H10.66v-.33c.7,0,.74-.07.74-.55Z"/><path class="cls-1" d="M17.28,31.49v-.33c.48,0,.63,0,.7-.52a11.64,11.64,0,0,0,0-1.36V26c0-.48-.08-.51-.74-.55v-.33H19.6c.48,1.25,1.32,3.42,1.73,4.45h0c.52-1.36,1.29-3.13,1.77-4.45h2.2v.33c-.7,0-.81,0-.81.52v4.59c0,.48.08.55.78.59v.33H22.58v-.33c.69,0,.73-.07.73-.55V26h0c-.55,1.44-1.72,4.38-2.09,5.41H20.7C20.11,29.8,19,27.26,18.53,26v3.31a11.27,11.27,0,0,0,0,1.36c.07.55.37.44.88.48v.33Z"/><path class="cls-1" d="M29.93,31.49v-.33h.51c.22,0,.26-.11.19-.33-.15-.52-.45-1.29-.56-1.66H28.24c-.19.55-.37,1.18-.48,1.58-.08.19,0,.34.18.37h.55v.33H26.36v-.33c.55,0,.59,0,.77-.51.55-1.33,1.4-3.83,2-5.55h1c.52,1.58,1.47,4.33,1.88,5.62.11.41.25.44.77.44v.33H29.93Zm-.77-5.26h0c-.23.66-.59,1.73-.81,2.54h1.58C29.71,28.14,29.38,26.86,29.16,26.23Z"/><path class="cls-1" d="M37.57,26.86c-.22-1-.77-1.47-1.39-1.47a1,1,0,0,0-1,1c0,.69.67,1,1.36,1.32.92.4,1.77.77,1.77,2,0,1-.59,2-2.39,2A2.86,2.86,0,0,1,34,31.16L33.9,29.5h.33c.33,1.14,1,1.77,1.73,1.77a1.05,1.05,0,0,0,1.17-1.07c0-.62-.44-1-1.25-1.36-1-.44-1.91-.92-1.91-1.95S34.74,25,36.21,25a3.71,3.71,0,0,1,1.73.41v1.47Z"/><path class="cls-1" d="M40.84,26c0-.48-.07-.51-.73-.55v-.33H45v1.65h-.33c-.26-.91-.41-1.25-1.4-1.25h-.7c-.25,0-.33.08-.33.34V28h.92c.63,0,.74-.18.85-.85h.33v2.17H44c-.11-.66-.22-.88-.85-.88h-.92v2c0,.58.08.7,1.1.7s1.36-.45,1.66-1.48h.33l-.15,1.88H40.07v-.33c.7,0,.74-.07.74-.55V26Z"/><path class="cls-1" d="M47.57,26c0-.48-.07-.51-.73-.55v-.33h2.79v.33c-.7,0-.73.07-.73.55v4.6c0,.48.07.51.77.55v.33h-2.8v-.33c.7,0,.74-.07.74-.55V26ZM51,25.5l-.4,0v-.33H53v.33a2,2,0,0,0-1.25.44,19.7,19.7,0,0,0-1.84,1.77,21.81,21.81,0,0,0,2.2,3,1.91,1.91,0,0,0,.85.59l0,.33-.62,0a2.28,2.28,0,0,1-2.06-1.14c-.52-.67-1.47-2.21-1.47-2.21A28.44,28.44,0,0,0,51,25.75C51.1,25.61,51.1,25.5,51,25.5Z"/><path class="cls-1" d="M7.06,40.11c0,.37,0,.48.41.51l.58,0V41H4.86v-.33l.55,0c.33,0,.4-.14.4-.51V35H5.37c-.92,0-1,.34-1.32,1.29H3.72V34.63H9.19v1.73H8.86c-.25-1-.4-1.33-1.28-1.33H7.06Z"/><path class="cls-1" d="M11.4,35.51c0-.48-.07-.51-.77-.55v-.33h4.85v1.65h-.33c-.26-.91-.4-1.25-1.36-1.25H13c-.26,0-.33.08-.33.34v2.09h1.07c.62,0,.73-.18.84-.84h.33v2.09h-.33c-.11-.66-.22-.81-.84-.81H12.65v2c0,.59.07.7,1.1.7s1.44-.37,1.73-1.4h.29l0,1.8H10.66v-.33c.7,0,.74-.07.74-.55Z"/><path class="cls-1" d="M17.28,41v-.33c.48,0,.63,0,.7-.52a11.64,11.64,0,0,0,0-1.36V35.51c0-.48-.08-.51-.74-.55v-.33H19.6c.48,1.25,1.32,3.42,1.73,4.45h0c.52-1.36,1.29-3.13,1.77-4.45h2.2V35c-.7,0-.81,0-.81.52v4.59c0,.48.08.55.78.59V41H22.58v-.33c.69,0,.73-.07.73-.55v-4.6h0c-.55,1.44-1.72,4.38-2.09,5.41H20.7c-.59-1.62-1.69-4.16-2.17-5.41v3.31a11.27,11.27,0,0,0,0,1.36c.07.55.37.44.88.48V41Z"/><path class="cls-1" d="M29.93,41v-.33h.51c.22,0,.26-.11.19-.33-.15-.52-.45-1.29-.56-1.66H28.24c-.19.56-.37,1.18-.48,1.58-.08.19,0,.34.18.37h.55V41H26.36v-.33c.55,0,.59,0,.77-.51.55-1.33,1.4-3.83,2-5.55h1c.52,1.58,1.47,4.33,1.88,5.62.11.41.25.44.77.44V41H29.93Zm-.77-5.26h0c-.23.66-.59,1.73-.81,2.54h1.58C29.71,37.64,29.38,36.36,29.16,35.73Z"/><path class="cls-1" d="M37.57,36.36c-.22-1-.77-1.47-1.39-1.47a1,1,0,0,0-1,1c0,.7.67,1,1.36,1.32.92.4,1.77.77,1.77,2,0,1-.59,2-2.39,2A2.86,2.86,0,0,1,34,40.66L33.9,39h.33c.33,1.14,1,1.77,1.73,1.77a1.05,1.05,0,0,0,1.17-1.07c0-.62-.44-1-1.25-1.36-1-.44-1.91-.92-1.91-2s.77-1.91,2.24-1.91a3.71,3.71,0,0,1,1.73.41v1.47Z"/><path class="cls-1" d="M40.84,35.51c0-.48-.07-.51-.73-.55v-.33H45v1.65h-.33c-.26-.91-.41-1.25-1.4-1.25h-.7c-.25,0-.33.08-.33.34v2.09h.92c.63,0,.74-.18.85-.84h.33v2.16H44c-.11-.66-.22-.88-.85-.88h-.92v2c0,.59.08.7,1.1.7s1.36-.45,1.66-1.47h.33L45.18,41H40.07v-.33c.7,0,.74-.07.74-.55v-4.6Z"/><path class="cls-1" d="M47.57,35.51c0-.48-.07-.51-.73-.55v-.33h2.79V35c-.7,0-.73.07-.73.55v4.6c0,.48.07.51.77.55V41h-2.8v-.33c.7,0,.74-.07.74-.55v-4.6ZM51,35l-.4,0v-.33H53V35a2.07,2.07,0,0,0-1.25.44,19.7,19.7,0,0,0-1.84,1.77,21.81,21.81,0,0,0,2.2,3,1.91,1.91,0,0,0,.85.59l0,.33-.62,0a2.28,2.28,0,0,1-2.06-1.14c-.52-.66-1.47-2.21-1.47-2.21A30,30,0,0,0,51,35.26C51.1,35.11,51.1,35,51,35Z"/><path class="cls-1" d="M7.06,49.61c0,.37,0,.48.41.51l.58,0v.33H4.86v-.33l.55,0c.33,0,.4-.14.4-.51V44.54H5.37c-.92,0-1,.33-1.32,1.28H3.72V44.13H9.19v1.73H8.86c-.25-1-.4-1.32-1.28-1.32H7.06Z"/><path class="cls-1" d="M11.4,45c0-.47-.07-.51-.77-.55v-.33h4.85v1.66h-.33c-.26-.92-.4-1.25-1.36-1.25H13c-.26,0-.33.07-.33.33V47h1.07c.62,0,.73-.18.84-.84h.33v2.09h-.33c-.11-.66-.22-.81-.84-.81H12.65v2c0,.59.07.7,1.1.7s1.44-.37,1.73-1.4h.29l0,1.8H10.66v-.33c.7,0,.74-.07.74-.55Z"/><path class="cls-1" d="M17.28,50.49v-.33c.48,0,.63,0,.7-.51a11.93,11.93,0,0,0,0-1.37V45c0-.47-.08-.51-.74-.55v-.33H19.6c.48,1.25,1.32,3.42,1.73,4.45h0c.52-1.36,1.29-3.13,1.77-4.45h2.2v.33c-.7,0-.81,0-.81.52v4.59c0,.48.08.55.78.59v.33H22.58v-.33c.69,0,.73-.07.73-.55V45h0c-.55,1.44-1.72,4.38-2.09,5.41H20.7C20.11,48.8,19,46.26,18.53,45v3.31a11.27,11.27,0,0,0,0,1.36c.07.55.37.44.88.48v.33Z"/><path class="cls-1" d="M29.93,50.49v-.33h.51c.22,0,.26-.11.19-.33-.15-.52-.45-1.29-.56-1.66H28.24c-.19.56-.37,1.18-.48,1.59-.08.18,0,.33.18.36h.55v.33H26.36v-.33c.55,0,.59,0,.77-.51.55-1.33,1.4-3.82,2-5.55h1c.52,1.58,1.47,4.34,1.88,5.62.11.41.25.44.77.44v.33H29.93Zm-.77-5.26h0c-.23.67-.59,1.73-.81,2.54h1.58C29.71,47.15,29.38,45.86,29.16,45.23Z"/><path class="cls-1" d="M37.57,45.86c-.22-1-.77-1.47-1.39-1.47a1,1,0,0,0-1,1c0,.7.67,1,1.36,1.32.92.41,1.77.77,1.77,2,0,1-.59,2-2.39,2A2.86,2.86,0,0,1,34,50.16l-.11-1.65h.33c.33,1.14,1,1.76,1.73,1.76a1.05,1.05,0,0,0,1.17-1.07c0-.62-.44-1-1.25-1.36-1-.44-1.91-.92-1.91-1.94S34.74,44,36.21,44a3.71,3.71,0,0,1,1.73.41v1.47Z"/><path class="cls-1" d="M40.84,45c0-.47-.07-.51-.73-.55v-.33H45v1.66h-.33c-.26-.92-.41-1.25-1.4-1.25h-.7c-.25,0-.33.07-.33.33V47h.92c.63,0,.74-.18.85-.84h.33v2.16H44c-.11-.66-.22-.88-.85-.88h-.92v2c0,.59.08.7,1.1.7s1.36-.44,1.66-1.47h.33l-.15,1.87H40.07v-.33c.7,0,.74-.07.74-.55V45Z"/><path class="cls-1" d="M47.57,45c0-.47-.07-.51-.73-.55v-.33h2.79v.33c-.7,0-.73.08-.73.55v4.6c0,.48.07.51.77.55v.33h-2.8v-.33c.7,0,.74-.07.74-.55V45ZM51,44.5l-.4,0v-.33H53v.33a2.07,2.07,0,0,0-1.25.44,19.7,19.7,0,0,0-1.84,1.77,22.52,22.52,0,0,0,2.2,3,2,2,0,0,0,.85.58l0,.33-.62,0a2.28,2.28,0,0,1-2.06-1.14c-.52-.66-1.47-2.21-1.47-2.21A30,30,0,0,0,51,44.76C51.1,44.61,51.1,44.5,51,44.5Z"/></svg>