<svg id="Слой_1" data-name="Слой 1" xmlns="http://www.w3.org/2000/svg" viewBox="0 0 56.69 56.69"><defs><style>.cls-1{fill:#214f78;}.cls-2{fill:#269f76;}.cls-3{fill:#a1c747;}.cls-4{fill:#36796e;}</style></defs><g id="g257"><path id="path148" class="cls-1" d="M50.59,23.49v.76a6.27,6.27,0,0,0-4-1.36,7,7,0,0,0-6.77,7.27A7.53,7.53,0,0,0,41.6,35a6.88,6.88,0,0,0,5.2,2.36A5.76,5.76,0,0,0,50.59,36v.76a.31.31,0,0,0,.31.32h3a.31.31,0,0,0,.31-.32V23.49a.31.31,0,0,0-.31-.31h-3a.31.31,0,0,0-.31.31m.27,6.67a3.68,3.68,0,0,1-3.63,3.75,3.6,3.6,0,0,1-3.64-3.75,3.59,3.59,0,0,1,3.59-3.77,3.67,3.67,0,0,1,3.68,3.77"/><path id="path152" class="cls-1" d="M11,34a2.2,2.2,0,0,1-1.84-.76,2.64,2.64,0,0,1-.45-1.73V26.39h3.86a.29.29,0,0,0,.3-.3V23.45a.3.3,0,0,0-.3-.3H8.75V19.6a.3.3,0,0,0-.3-.31H5.32A.31.31,0,0,0,5,19.6v3.55H2.81a.31.31,0,0,0-.31.31v2.62a.31.31,0,0,0,.31.31H5v4.8a6.59,6.59,0,0,0,1,4.17,5.65,5.65,0,0,0,4.78,2,5.37,5.37,0,0,0,3.29-.85.48.48,0,0,0,.1-.56l-1.36-2.16a.42.42,0,0,0-.57-.12A3,3,0,0,1,11,34"/><path id="path156" class="cls-1" d="M20.15,22.87a6.38,6.38,0,0,0-4.89,2.18,7.71,7.71,0,0,0-1.82,5.09,6.92,6.92,0,0,0,7.22,7.24,7.68,7.68,0,0,0,5-1.83l.2-.19a.32.32,0,0,0,0-.41c-.34-.45-1.11-1.47-1.48-2a.31.31,0,0,0-.46,0l-.29.26a4.64,4.64,0,0,1-2.92,1.11,3.57,3.57,0,0,1-3.66-3.22h9.11a.44.44,0,0,0,.44-.4,6.54,6.54,0,0,0,0-.7,7.48,7.48,0,0,0-1.83-5,6.17,6.17,0,0,0-4.68-2.11m0,3.07a2.74,2.74,0,0,1,2.68,2.36H17.25a3,3,0,0,1,2.9-2.36"/><path id="path160" class="cls-2" d="M33.47,33.81v-2A8.51,8.51,0,0,1,34,29.17a8,8,0,0,1,1.43-2.6l.86-1.11v4.65Z"/><path id="path164" class="cls-3" d="M36.24,25.46l1.83-2.37a.52.52,0,0,1,.61-.18.59.59,0,0,1,.36.56v2.94l-2.79,3.7Z"/><path id="path168" class="cls-4" d="M39,26.41V28.1A8.3,8.3,0,0,1,38.56,31a8,8,0,0,1-1.2,2.36L36.24,34.8V30.11Z"/><path id="path172" class="cls-1" d="M36.24,30.11V34.8l-1.81,2.36a.52.52,0,0,1-.61.17.57.57,0,0,1-.36-.55v-3Z"/><path id="path176" class="cls-2" d="M33.07,33.81v-2a8.51,8.51,0,0,0-.48-2.65,8,8,0,0,0-1.43-2.6l-.86-1.11v4.65Z"/><path id="path180" class="cls-3" d="M30.3,25.46l-1.83-2.37a.52.52,0,0,0-.61-.18.59.59,0,0,0-.36.56v2.94l2.79,3.7Z"/><path id="path184" class="cls-4" d="M27.51,26.41V28.1A8.3,8.3,0,0,0,28,31a8,8,0,0,0,1.2,2.36L30.3,34.8V30.11Z"/><path id="path188" class="cls-1" d="M30.3,30.11V34.8l1.81,2.36a.52.52,0,0,0,.61.17.57.57,0,0,0,.36-.55v-3Z"/></g></svg>