<svg id="Слой_1" data-name="Слой 1" xmlns="http://www.w3.org/2000/svg" viewBox="0 0 56.69 56.69"><defs><style>.cls-1{fill:#010101;}</style></defs><path class="cls-1" d="M11.12,17.4V20L11,20c-.63-1.56-1.11-2.35-3-2.35H7.74V26a1.11,1.11,0,0,0,.25.89,2.24,2.24,0,0,0,1.11.2v.19H5v-.19a2.24,2.24,0,0,0,1.11-.2A1.11,1.11,0,0,0,6.4,26V17.65H6.18c-1.91,0-2.39.79-3,2.35L3,20V17.4h8.1"/><path class="cls-1" d="M13.54,26.06a1.07,1.07,0,0,1-.23.84,1.71,1.71,0,0,1-1,.16v.18H16v-.18a1.69,1.69,0,0,1-1-.16,1.07,1.07,0,0,1-.24-.84V20.68a1.07,1.07,0,0,1,.24-.84,1.67,1.67,0,0,1,1-.17V19.5H12.35v.17a1.7,1.7,0,0,1,1,.17,1.07,1.07,0,0,1,.23.84v5.38"/><path class="cls-1" d="M23.19,19.5H17.52v.17a1.43,1.43,0,0,1,.88.17,1.12,1.12,0,0,1,.22.84v5.38a1.12,1.12,0,0,1-.22.84,1.45,1.45,0,0,1-.88.16v.18h3.6v-.18a1.79,1.79,0,0,1-1-.16,1.07,1.07,0,0,1-.24-.84v-2.6h.56a1.68,1.68,0,0,1,1.15.29,1.09,1.09,0,0,1,.37.81h.16V22.11H22a1.13,1.13,0,0,1-.37.83,1.73,1.73,0,0,1-1.15.29H19.9V19.74h.71a2.17,2.17,0,0,1,2.49,1.8l.12,0,0-2"/><path class="cls-1" d="M30,19.5H24.35v.17a1.45,1.45,0,0,1,.88.17,1.16,1.16,0,0,1,.21.84v5.38a1.16,1.16,0,0,1-.21.84,1.47,1.47,0,0,1-.88.16v.18H28v-.18a1.84,1.84,0,0,1-1-.16,1.07,1.07,0,0,1-.24-.84v-2.6h.57a1.66,1.66,0,0,1,1.14.29,1.1,1.1,0,0,1,.38.81H29V22.11h-.15a1.14,1.14,0,0,1-.38.83,1.72,1.72,0,0,1-1.14.29h-.57V19.74h.71a2.19,2.19,0,0,1,2.5,1.8l.12,0,0-2"/><path class="cls-1" d="M37.66,27.07c-.61-.07-.8-.28-1.08-1l-2.53-6.75h-.27l-2.47,6.6c-.34.88-.6,1-1.34,1.16v.17H32.3v-.17c-.68,0-1-.31-.67-1.16l.54-1.47h2.52L35.26,26c.28.73,0,1.07-.7,1.12v.17h3.1Zm-5.4-2.87,1.15-3.15L34.6,24.2H32.26"/><path class="cls-1" d="M45.88,19.5H43.23v.17c.58.06.86.11,1,.37a3.1,3.1,0,0,1,.25,1.48v3.71L40.11,19.5H37.93v.17a1.06,1.06,0,0,1,1.21,1.12v4.45a3.07,3.07,0,0,1-.22,1.46c-.15.26-.3.32-.85.36v.18H40.7v-.18c-.59,0-.87-.1-1-.36a3.13,3.13,0,0,1-.25-1.46V20.71l5.14,6.59h.21V21.52A3.3,3.3,0,0,1,45,20c.15-.26.3-.31.88-.37V19.5"/><path class="cls-1" d="M53.69,19.5H51.42v.17c.7,0,.95.29.7.8L50.57,23.4l-1.69-3c-.25-.49,0-.76.73-.76V19.5h-3.2v.17a1,1,0,0,1,1,.68l2,3.54v2.17a1.16,1.16,0,0,1-.21.84,1.54,1.54,0,0,1-.9.16v.18h3.5v-.18a1.49,1.49,0,0,1-.89-.16,1.16,1.16,0,0,1-.22-.84v-2.4l1.76-3.21a1.25,1.25,0,0,1,1.21-.78V19.5"/><path class="cls-1" d="M30.49,34.46h-3.1v.17c.77,0,1.17.3.88.91a8.25,8.25,0,0,1-.76,1.29l-2.26-2.9c1.33-.64,2-1.29,2-2.33A1.8,1.8,0,0,0,25.37,30a2.16,2.16,0,0,0-2.18,2,3.39,3.39,0,0,0,.86,2.11,3.33,3.33,0,0,0-2.46,2.76,2.4,2.4,0,0,0,2.57,2.38,3.76,3.76,0,0,0,2.73-1.38l.93,1.24h2.33V39a1.47,1.47,0,0,1-.82-.17,3.25,3.25,0,0,1-.92-.83L27.67,37c.43-.57.8-1.17,1.19-1.71s.61-.61,1.62-.69v-.17Zm-5.07-4.14c.72,0,1.14.54,1.14,1.41a2.3,2.3,0,0,1-1.49,2,3.26,3.26,0,0,1-.8-2c0-1,.46-1.37,1.15-1.37m-2.53,6.12a2.14,2.14,0,0,1,1.31-2.07l2.52,3.33a2.94,2.94,0,0,1-1.89.91,2,2,0,0,1-1.94-2.17"/><path class="cls-1" d="M41.2,36.24h-.15A3.2,3.2,0,0,1,38.24,39c-2.23,0-3.66-2-3.66-4.76s1.24-4.81,3.45-4.81A3.2,3.2,0,0,1,41,32.1l.16,0-.08-2.93h-.17c0,.43-.32.68-.75.51a6,6,0,0,0-2.1-.48,5.16,5.16,0,0,0-5.16,5.08,5.11,5.11,0,0,0,5.16,5,5,5,0,0,0,3-.84l.14-2.22"/><path class="cls-1" d="M42.42,35.29a3.87,3.87,0,1,0,3.87-4A3.92,3.92,0,0,0,42.42,35.29Zm6.23,0c0,2.18-.8,3.75-2.36,3.75s-2.37-1.57-2.37-3.75.81-3.76,2.37-3.76,2.36,1.58,2.36,3.76"/><path class="cls-1" d="M51.38,37.66a.81.81,0,1,1-.79.81.79.79,0,0,1,.79-.81"/></svg>