<svg id="Слой_1" data-name="Слой 1" xmlns="http://www.w3.org/2000/svg" viewBox="0 0 56.69 56.69"><defs><style>.cls-1{fill:#9d1c27;}</style></defs><polygon class="cls-1" points="24.38 19.36 17.14 19.36 17.09 43.73 10.82 43.73 10.82 19.41 3.63 19.36 3.63 13.05 24.38 13.05 24.38 19.36"/><polygon class="cls-1" points="42.41 18.35 46.08 13.11 52.82 13.11 46.08 24.09 53.06 35.02 46.2 35.02 42.38 29.49 32.87 43.68 26.07 43.68 38.82 24.12 31.79 13.11 38.75 13.11 42.41 18.35"/><path class="cls-1" d="M31.17,31.91A13.39,13.39,0,0,1,17.84,43.65v-6.1a7.62,7.62,0,0,0,7-5.11,4.13,4.13,0,0,0,.27-1l0-18.46H31.2Z"/></svg>