<svg id="Слой_1" data-name="Слой 1" xmlns="http://www.w3.org/2000/svg" viewBox="0 0 56.69 56.69"><defs><style>.cls-1{fill:#e52221;}</style></defs><path class="cls-1" d="M51.43,32.06h2.18l-2.25-7.43h-3.1L46,32.06h2.18l.4-1.37H51l.4,1.37m-2.37-3,.74-2.56h0L50.56,29ZM14,32.2c2.24,0,3.32-.4,3.47-2.42,0-.48.05-1,.05-1.43s0-1-.05-1.44c-.15-2-1.23-2.41-3.47-2.41s-3.33.39-3.48,2.41c0,.49-.05,1-.05,1.44s0,.95.05,1.43c.15,2,1.23,2.42,3.48,2.42m-1.41-3.85c0-.41,0-.65,0-.83.05-1.15.51-1.28,1.39-1.28s1.33.13,1.39,1.28c0,.18,0,.42,0,.83s0,.65,0,.83c-.06,1.14-.51,1.28-1.39,1.28s-1.34-.14-1.39-1.28C12.58,29,12.57,28.76,12.57,28.35ZM3.08,24.63v1.86H5.3v5.58H7.53V26.49H9.75V24.63H3.08m34.1,7.43V24.63H35.07v7.43h2.11m-8.49-4.72V24.63H26.6v7.43h2.09V29.2h2.44v2.86h2.1V24.63h-2.1v2.71H28.69m15.43.84a1.44,1.44,0,0,0,1.2-1.61c0-1.63-1-1.94-2.48-1.94H39.05v7.43h4c1.83,0,2.45-.79,2.45-2a1.64,1.64,0,0,0-1.35-1.88m-3,.83H42.6c.59,0,.71.26.71.68a.62.62,0,0,1-.71.67H41.15Zm0-2.68H42.6a.54.54,0,0,1,.61.61.56.56,0,0,1-.61.6H41.15ZM18.72,29.62h2c0,.36.05.61.22.74s.38.2,1,.2,1.19,0,1.19-.7-.35-.68-1-.71c-1.59-.09-2.17-.13-2.76-.57a2,2,0,0,1-.62-1.68c0-1.35.47-1.82,1.15-2.15a8.69,8.69,0,0,1,4.18,0c.93.43,1,1.36,1,2.21H23c0-.43-.1-.56-.18-.64a1.38,1.38,0,0,0-.93-.22c-.52,0-1.11,0-1.11.65s.2.67.75.71a8.81,8.81,0,0,1,2.73.4,2,2,0,0,1,.92,2c0,1.39-.49,1.79-1.18,2.1a8.62,8.62,0,0,1-4.31,0c-1-.42-1-1.26-1-2.29"/></svg>