<svg id="Слой_1" data-name="Слой 1" xmlns="http://www.w3.org/2000/svg" xmlns:xlink="http://www.w3.org/1999/xlink" viewBox="0 0 56.69 56.69"><defs><style>.cls-1{fill:url(#Безымянный_градиент_6);}.cls-2{fill:url(#Безымянный_градиент_2);}.cls-3{fill:url(#Безымянный_градиент_3);}.cls-4{fill:url(#Безымянный_градиент_4);}.cls-5{fill:url(#Безымянный_градиент_5);}.cls-6{fill:#e52520;}</style><linearGradient id="Безымянный_градиент_6" x1="-124.39" y1="-586.03" x2="-96.68" y2="-555.94" gradientTransform="translate(87.07 292.35) scale(0.47 0.47)" gradientUnits="userSpaceOnUse"><stop offset="0" stop-color="#3a7bbf"/><stop offset="0.13" stop-color="#3a7bbf"/><stop offset="0.32" stop-color="#49b8ab"/><stop offset="0.67" stop-color="#a9c932"/><stop offset="1" stop-color="#ffd704"/></linearGradient><linearGradient id="Безымянный_градиент_2" x1="-146.74" y1="-558.33" x2="-146.51" y2="-577.22" gradientTransform="translate(87.07 292.35) scale(0.47 0.47)" gradientUnits="userSpaceOnUse"><stop offset="0" stop-color="#f07e1a"/><stop offset="1" stop-color="#e52621"/></linearGradient><linearGradient id="Безымянный_градиент_3" x1="-118.83" y1="-597.71" x2="-88.24" y2="-597.12" gradientTransform="translate(87.07 292.35) scale(0.47 0.47)" gradientUnits="userSpaceOnUse"><stop offset="0" stop-color="#3a7bbf"/><stop offset="0.2" stop-color="#3a7bbf"/><stop offset="1" stop-color="#3d59a5"/></linearGradient><linearGradient id="Безымянный_градиент_4" x1="-83.56" y1="-582.08" x2="-80.75" y2="-587.64" gradientTransform="translate(87.07 292.35) scale(0.47 0.47)" gradientUnits="userSpaceOnUse"><stop offset="0" stop-color="#654696"/><stop offset="0.85" stop-color="#3d59a5"/><stop offset="1" stop-color="#3d59a5"/></linearGradient><linearGradient id="Безымянный_градиент_5" x1="-89.77" y1="-580.73" x2="-113.25" y2="-579.62" gradientTransform="translate(87.07 292.35) scale(0.47 0.47)" gradientUnits="userSpaceOnUse"><stop offset="0" stop-color="#654696"/><stop offset="1" stop-color="#e52621"/></linearGradient></defs><g id="surface1"><path class="cls-1" d="M30.72,13.43a14,14,0,0,0-3.89,4.64c-1.76,3.66-.78,7,0,9.21,1,3,3.12,4.48,5.6,5.57a18.92,18.92,0,0,0,12.05.62c1.42-.36,3.64-1.13,4.12-1.85a2.08,2.08,0,0,0-.52-2.92c-1.09-.65-1.2-.16-4.47.57a12,12,0,0,1-7.73-.69,5.76,5.76,0,0,1-3.59-3.76c-1.24-4.89,1.45-6.7,2-7Z"/><path class="cls-2" d="M34.43,19.18c-1.4-.18-5.52-.62-9.83-1.39-6.66-1.18-14.5-2.82-17-3-4.81-.34-5.61,5.91-1.77,7,2.18.6,8.17,0,9.62,2.84.45.87,1.62,4.18,2.95,8.27.52,1.6,4.75,1.35,4-2.07-.46-1.95-1.48-7.21-1.48-7.21S33,24.91,34,25Z"/><path class="cls-3" d="M40.83,16c1.54,0,4.23.44,5.44,1.25L53,18.54a7.16,7.16,0,0,0-4.29-6.92,15.42,15.42,0,0,0-7.87-1.44c-3.52.15-7.21.92-10.16,3.27l3.53,4.37A11.37,11.37,0,0,1,40.83,16Z"/><path class="cls-4" d="M46.16,17.14s.35.23.51.37c.73.67,1,1.48-1.25,1.84l1.76,5.45c4-1.07,5.78-3.44,5.83-6.33Z"/><path class="cls-5" d="M45.48,19.34a39.77,39.77,0,0,1-11.08-.16L34,25c8.58.74,11.59.23,13.25-.21Z"/><path class="cls-6" d="M3.36,40.32a.18.18,0,0,0,.17.18H5.15v4.32H6.22V40.5H7.83A.18.18,0,0,0,8,40.32v-.67a.17.17,0,0,0-.18-.18H3.53a.18.18,0,0,0-.17.18Z"/><path class="cls-6" d="M7.15,42.85a2.06,2.06,0,0,0,2.13,2,2,2,0,1,0,0-4.07A2.08,2.08,0,0,0,7.15,42.85Zm1.18,0a1,1,0,0,1,.95-1,1,1,0,0,1,0,2A1,1,0,0,1,8.33,42.84Zm3.8.83a1.22,1.22,0,0,0,1.35,1.24,2.09,2.09,0,0,0,1.23-.3c.49-.37.08-1.13-.59-.76a.89.89,0,0,1-.59,0c-.13-.06-.37-.1-.35-.48V41.75h1a.49.49,0,1,0,0-1h-1V39.48h-1v1.31h-.52v1h.52Zm3-.84a2,2,0,0,0,2,2,1.57,1.57,0,0,0,1.26-.52v.52h1V41.3a.48.48,0,1,0-1,0,1.57,1.57,0,0,0-1.27-.47A2,2,0,0,0,15.11,42.83Zm1.18,0a1,1,0,1,1,1,1A1,1,0,0,1,16.29,42.84Zm5,2V39.94c0-.62-1.1-.6-1.1,0v4.88Zm1-5.41a.17.17,0,0,0-.18.17v5.06a.17.17,0,0,0,.18.18h3.57V43.73H23.32v-1h2a.19.19,0,0,0,.18-.18v-.7a.18.18,0,0,0-.18-.18h-2V40.5h2.3a.18.18,0,0,0,.19-.18v-.73a.18.18,0,0,0-.19-.18Zm7.18,5.25a.17.17,0,0,0,.18.16h.7a.17.17,0,0,0,.17-.16V42.53a1.62,1.62,0,0,0-1.58-1.79,2.08,2.08,0,0,0-1.44.45c0-.56-.93-.59-.93,0v3.68h1V42.66a.93.93,0,0,1,1.86,0Zm8.54-4a1.53,1.53,0,0,0-1.27.69v-.26c0-.48-.87-.53-.87,0v3.66h1V43a1.3,1.3,0,0,1,.78-1.25l.42-.07C38.76,41.64,38.66,40.7,38,40.7Zm2.76,4.87a3.17,3.17,0,0,1-1.32-.18c-.66-.37-1,.43-.63.67a2.87,2.87,0,0,0,1.86.47c1.33,0,2-.73,2-1.8V41.15c0-.48-.92-.53-.92-.06v.24a1.62,1.62,0,0,0-1.28-.47,2,2,0,0,0,0,4,1.35,1.35,0,0,0,1.12-.49v.33A.83.83,0,0,1,40.77,45.57Zm-1-2.71a1,1,0,0,1,1.92,0,1,1,0,0,1-1.92,0Z"/><path class="cls-6" d="M44.12,40.32a.65.65,0,1,0-.63-.64A.64.64,0,0,0,44.12,40.32Zm.37,4.5a.16.16,0,0,0,.16-.16V41.34a.53.53,0,0,0-1.06,0v3.32a.16.16,0,0,0,.16.16Z"/><path class="cls-6" d="M47.39,40.73a2.09,2.09,0,0,0-2.13,2.13A2.06,2.06,0,0,0,47.41,45a2,2,0,0,0,1.73-.69c.2-.35-.27-.77-.69-.53a1.52,1.52,0,0,1-1,.22.92.92,0,0,1-.94-.82h2.63c.17,0,.21-.09.21-.19v-.22A1.89,1.89,0,0,0,47.39,40.73Zm.89,1.66H46.51a.92.92,0,0,1,.88-.71A.89.89,0,0,1,48.28,42.39Z"/><path class="cls-6" d="M51.48,40.7c-1.09,0-1.76.58-1.76,1.31a1.2,1.2,0,0,0,1.11,1.18l.67.14c.39.07.59.15.59.35s-.18.34-.56.34a1.72,1.72,0,0,1-1.08-.3c-.58-.3-1.09.33-.51.77a2.72,2.72,0,0,0,1.55.44c1.12,0,1.85-.58,1.85-1.35s-.57-1.08-1.27-1.21l-.65-.12c-.34-.07-.47-.17-.47-.33s.21-.3.53-.3a1.59,1.59,0,0,1,.89.2.45.45,0,0,0,.55-.72A2,2,0,0,0,51.48,40.7Z"/><path class="cls-6" d="M33.28,40.73a2.09,2.09,0,0,0-2.13,2.13A2.06,2.06,0,0,0,33.3,45,2,2,0,0,0,35,44.26c.2-.35-.27-.77-.69-.53a1.51,1.51,0,0,1-1,.22.92.92,0,0,1-.94-.82H35c.16,0,.21-.09.21-.19v-.22A1.9,1.9,0,0,0,33.28,40.73Zm.89,1.66H32.41a.91.91,0,0,1,.88-.71A.88.88,0,0,1,34.17,42.39Z"/></g></svg>