<svg id="Слой_1" data-name="Слой 1" xmlns="http://www.w3.org/2000/svg" viewBox="0 0 56.69 56.69"><defs><style>.cls-1{fill:#010101;}.cls-2{fill:#fff;}</style></defs><path class="cls-1" d="M10.31,39.48H3.06v1.61H5.73v6.83h1.9V41.09h2.68V39.48m7.09,5.58a2.34,2.34,0,0,1-1.76,1.43,3.13,3.13,0,0,1-.44,0,3.27,3.27,0,0,1-.44,0A2.34,2.34,0,0,1,13,45.06a3.76,3.76,0,0,1-.25-1.36A3.67,3.67,0,0,1,13,42.35a2.33,2.33,0,0,1,1.75-1.44,2.66,2.66,0,0,1,.89,0,2.34,2.34,0,0,1,1.75,1.43,3.75,3.75,0,0,1,0,2.72m-2.2-5.83a4.47,4.47,0,1,0,4.48,4.47,4.47,4.47,0,0,0-4.48-4.47Zm4.5.26h2.24L24,43.11l2.09-3.63h2.23L25,44.8v3.12h-1.9V44.8L19.7,39.48m13.16,7.05a3.13,3.13,0,0,0,.44,0,2.33,2.33,0,0,0,1.75-1.43,3.73,3.73,0,0,0,0-2.71,2.34,2.34,0,0,0-1.75-1.44,2.6,2.6,0,0,0-.88,0,2.34,2.34,0,0,0-1.75,1.44,3.68,3.68,0,0,0-.26,1.35,3.62,3.62,0,0,0,.26,1.36,2.31,2.31,0,0,0,1.75,1.43,3.27,3.27,0,0,0,.44,0M28.39,43.7a4.47,4.47,0,0,1,8.94,0h0a4.47,4.47,0,0,1-8.94,0Zm21.89.88L49,41.25,47.8,44.58h2.48m.55,1.48H47.24l-.69,1.86H44.44l3.42-8.44h2.36l3.42,8.44H51.53ZM45,39.48H37.75v1.61h2.67v6.83h1.9V41.09H45V39.48"/><path class="cls-1" d="M38.19,8.92a32.49,32.49,0,0,0-9.84-1.4,32.44,32.44,0,0,0-9.84,1.4c-7.28,2.34-12.3,7.21-12.3,12.81,0,7.9,9.89,14.33,22.14,14.33s22.13-6.41,22.13-14.33c0-5.6-5-10.47-12.29-12.81Z"/><path class="cls-2" d="M28.39,29.91c-1.83,0-3.32-3.57-3.4-8.1a31.3,31.3,0,0,0,3.4.15c1.17,0,2.32-.06,3.41-.14-.09,4.51-1.58,8.09-3.41,8.09Z"/><path class="cls-2" d="M25.22,18.3c.48-3.18,1.71-5.4,3.17-5.4s2.66,2.22,3.17,5.4A35.33,35.33,0,0,1,25.22,18.3Z"/><path class="cls-2" d="M33.51,18c-.74-4.94-2.75-8.52-5.12-8.52S24,13.07,23.27,18c-4.49-.71-7.64-2.29-7.64-4.15,0-2.51,5.73-4.55,12.76-4.55s12.77,2,12.77,4.55c0,1.86-3.15,3.47-7.64,4.15Z"/><path class="cls-2" d="M9.48,21.22a10.4,10.4,0,0,1,2.58-6.67,1.94,1.94,0,0,0,0,.4c0,3.06,4.58,5.63,11,6.61v.69c0,5.66,1.58,10.47,3.75,12.12C17.07,33.8,9.49,28.14,9.49,21.22Z"/><path class="cls-2" d="M30.05,34.41c2.17-1.66,3.75-6.47,3.75-12.14v-.68c6.37-.94,11-3.55,11-6.61a1.71,1.71,0,0,0,0-.4,10.36,10.36,0,0,1,2.58,6.66c0,6.9-7.58,12.56-17.25,13.16Z"/></svg>