<svg id="Слой_1" data-name="Слой 1" xmlns="http://www.w3.org/2000/svg" viewBox="0 0 56.69 56.69"><defs><style>.cls-1{fill:#e7bf2a;fill-rule:evenodd;}.cls-2{fill:#862981;}</style></defs><path class="cls-1" d="M1.88,15.45v3.61H7.66V35h4.26V19.06H17.7V15.45Zm37.46,0V35H43.2V15.45ZM21.61,20.8a7,7,0,0,0-7,7V35h3.82V27.82a3.2,3.2,0,0,1,3.15-3.15Zm1.1,0,3.91,11.82a4.13,4.13,0,0,0,3.87,2.69,4,4,0,0,0,3.87-2.69l3.91-11.82h-4L30.79,31.3a.34.34,0,0,1-.3.22.32.32,0,0,1-.29-.22L26.72,20.84ZM16,37.72a1.26,1.26,0,0,0-1.41,1.15V40.1c0,.69.51,1.15,1.38,1.15a1.48,1.48,0,0,0,1.32-.8l-.53-.28a.88.88,0,0,1-.76.49c-.54,0-.81-.26-.81-.6V38.87c0-.38.28-.6.76-.6a.93.93,0,0,1,.82.49l.52-.28A1.47,1.47,0,0,0,16,37.72Zm11.81,0v3.41h.6V38.66l1.47,2.51h.66V37.76h-.6v2.56l-1.51-2.56Zm4.38,0v3.41h.6V38.66l1.47,2.51h.65V37.76h-.59v2.56L32.8,37.76Zm8.85,0v3.41h2.21v-.56H41.63V37.76Zm-16.55,0-1.27,3.41h.64l.3-.9h1.27l.34.9h.6L25.1,37.76ZM19,37.81v3.4h.6V39.76h1.57v1.45h.6v-3.4h-.6v1.44H19.61V37.81Zm17.61,0v3.4H39v-.55H37.21v-.9h1.62v-.55H37.21v-.89H39v-.51Zm-11.82.51.45,1.4h-.9Z"/><path class="cls-2" d="M45.93,34.41V16.08a.58.58,0,0,1,.59-.64.64.64,0,0,1,.51.3l7.61,9.1a.61.61,0,0,1,.17.38.66.66,0,0,1-.17.39L47,34.79a.55.55,0,0,1-.45.23A.62.62,0,0,1,45.93,34.41Z"/></svg>