<svg id="Слой_1" data-name="Слой 1" xmlns="http://www.w3.org/2000/svg" viewBox="0 0 56.69 56.69"><defs><style>.cls-1{fill:#e31f24;fill-rule:evenodd;}</style></defs><path class="cls-1" d="M4.73,23.13a.11.11,0,0,1-.08,0A.15.15,0,0,1,4.51,23s0-.05,0-.06h0a26,26,0,0,1,47.64,0h0s0,0,0,.06a.14.14,0,0,1-.14.14l-.07,0h0a14.58,14.58,0,0,0-7.27-1.76,13.7,13.7,0,0,0-8.07,2.29h0a.18.18,0,0,1-.09,0,.19.19,0,0,1-.09,0h0a13.81,13.81,0,0,0-8.08-2.29,13.73,13.73,0,0,0-8.07,2.29h0a.15.15,0,0,1-.09,0,.19.19,0,0,1-.08,0h0A13.78,13.78,0,0,0,12,21.38a14.63,14.63,0,0,0-7.25,1.74Z"/><path class="cls-1" d="M29.69,23.33v0a.13.13,0,0,0-.12-.13h0a10.63,10.63,0,0,0-1.28-.07,9.54,9.54,0,0,0-1.08.05h0a.13.13,0,0,0-.11.13h0V44.53a2.19,2.19,0,0,1-4.26.73h0a1.31,1.31,0,0,0-1.24-.89,1.29,1.29,0,0,0-1.29,1.29,1.08,1.08,0,0,0,.05.36h0a4.79,4.79,0,0,0,9.34-1.5V23.33Z"/></svg>