<svg id="Слой_1" data-name="Слой 1" xmlns="http://www.w3.org/2000/svg" viewBox="0 0 56.69 56.69"><defs><style>.cls-1{fill:#d41119;}</style></defs><path class="cls-1" d="M46.33,52.84a.75.75,0,0,0,.21-.26,1.09,1.09,0,0,0,.06-.44V37.91a1.09,1.09,0,0,0-.06-.44.64.64,0,0,0-.21-.25,2.78,2.78,0,0,0-1.5-.25,2.94,2.94,0,0,0-1.52.25.55.55,0,0,0-.2.25,1.09,1.09,0,0,0-.06.44V52.15a.87.87,0,0,0,.25.69,2.88,2.88,0,0,0,1.53.25,2.73,2.73,0,0,0,1.5-.25Zm-10.62.08a5.47,5.47,0,0,0,2-1.17A4.44,4.44,0,0,0,38.87,50a6.47,6.47,0,0,0,.37-2.22V37.91a.83.83,0,0,0-.25-.7,3,3,0,0,0-1.5-.25,3.16,3.16,0,0,0-1.52.25.57.57,0,0,0-.21.25,1.38,1.38,0,0,0-.08.45v9.84a3.72,3.72,0,0,1-.2,1.19,1.9,1.9,0,0,1-.89,1,3.59,3.59,0,0,1-1.82.4,4.28,4.28,0,0,1-1.33-.19,2.34,2.34,0,0,1-.9-.53,2,2,0,0,1-.52-.83,3.27,3.27,0,0,1-.16-1.07V37.91a.83.83,0,0,0-.25-.7,3,3,0,0,0-1.5-.25,3.18,3.18,0,0,0-1.53.25.55.55,0,0,0-.2.25,1.14,1.14,0,0,0-.05.45v9.88A6.41,6.41,0,0,0,26.7,50a4.31,4.31,0,0,0,1.15,1.76,5.17,5.17,0,0,0,2,1.15,10.43,10.43,0,0,0,5.86,0Zm-17.4-.08a.73.73,0,0,0,.2-.26,1.61,1.61,0,0,0,.06-.44V40h3.55a2.22,2.22,0,0,0,.63-.08.62.62,0,0,0,.38-.33,3,3,0,0,0,.25-.88,6.54,6.54,0,0,0,.09-.89,1.58,1.58,0,0,0,0-.43.41.41,0,0,0-.19-.24.54.54,0,0,0-.24-.09,3.71,3.71,0,0,0-.47,0H11.46a2.22,2.22,0,0,0-.63.08.63.63,0,0,0-.4.33,2.34,2.34,0,0,0-.25.76,5.52,5.52,0,0,0-.09,1,1.31,1.31,0,0,0,.07.44.44.44,0,0,0,.19.25,1.46,1.46,0,0,0,.71.12h4V52.14a.79.79,0,0,0,.27.69,2.84,2.84,0,0,0,1.52.25,2.86,2.86,0,0,0,1.5-.24Z"/><path class="cls-1" d="M46.6,6.58A3.22,3.22,0,0,1,43.38,9.8h0a3.22,3.22,0,0,1-3.22-3.22h0a3.22,3.22,0,0,1,3.22-3.22h0A3.22,3.22,0,0,1,46.6,6.58ZM11.81,11.5H20.5A1.57,1.57,0,0,1,22.25,13c.27,1.35.17,2.29-1.35,2.39l-2.73.2c2,12.67,13.73,16.8,20.12,3.15,1.06-2.26,1.39-2.67,2.56-2.39,1.57.39,1.78,1.21,1,3.48-5.51,16.83-24.07,18.52-27.71-4L12,16c-1.81.13-1.88-1.39-1.88-2.23,0-1.68.62-2.27,1.73-2.27Z"/></svg>