<svg id="Слой_1" data-name="Слой 1" xmlns="http://www.w3.org/2000/svg" viewBox="0 0 56.69 56.69"><defs><style>.cls-1{fill:#040406;}.cls-2{fill:#fdfdfd;}.cls-3{fill:#f0811b;}.cls-4{fill:#e6262e;}.cls-5{fill:#ffcf04;}</style></defs><path class="cls-1" d="M23.72,39.09A9.07,9.07,0,0,1,39.88,39a.92.92,0,0,0,.07-.58c0-2.62,0-5.24,0-7.85,0-.48.09-.65.62-.64,1.75,0,3.51,0,5.26,0,.44,0,.53.13.53.54,0,3.94,0,7.88,0,11.83a7.64,7.64,0,0,0,0,1,2.57,2.57,0,0,0,2.82,2.39c.78,0,.78,0,.78.81v5c0,.2.1.46-.28.47a13.88,13.88,0,0,1-4.84-.55A6.72,6.72,0,0,1,40.55,47c-.06-.16-.11-.33-.17-.5,0,0,0,0-.11-.06C38.54,50,35.75,52.06,31.72,52S25,49.81,23.36,46.21a1.93,1.93,0,0,0-.3.71A7.75,7.75,0,0,1,15.68,52a8.31,8.31,0,0,1-7.07-2.86,7.91,7.91,0,0,1-1.83-4.89c-.1-3.19,0-6.39-.07-9.59,0-.34.14-.39.43-.39,1.82,0,3.63,0,5.45,0,.41,0,.45.16.45.49q0,4.05,0,8.09A4.41,4.41,0,0,0,13.14,44a2.16,2.16,0,0,0,4.25-.11,5.35,5.35,0,0,0,.11-1.13c0-2.64,0-5.28,0-7.91,0-.43.07-.59.55-.58,1.71,0,3.43,0,5.14,0,.41,0,.55.08.54.52C23.7,36.16,23.72,37.55,23.72,39.09Zm8.09,1.3a2.67,2.67,0,0,0-2.63,2.67,2.69,2.69,0,0,0,2.71,2.66A2.65,2.65,0,0,0,34.51,43,2.62,2.62,0,0,0,31.81,40.39Z"/><path class="cls-2" d="M31.81,40.39A2.62,2.62,0,0,1,34.51,43a2.65,2.65,0,0,1-2.62,2.68,2.69,2.69,0,0,1-2.71-2.66A2.67,2.67,0,0,1,31.81,40.39Z"/><path class="cls-3" d="M18.16,26.07a11.53,11.53,0,0,1-2.71-5.76A13.19,13.19,0,1,1,41.5,16.25a12.55,12.55,0,0,1-.74,6.16c0-.22,0-.44.07-.65a4.74,4.74,0,0,0-1.53-4.44c.2-.16.12-.37.12-.56a10.6,10.6,0,0,0-3.89-8.7,10.47,10.47,0,0,0-10-2.22,10.6,10.6,0,0,0-7.89,8.23,7.22,7.22,0,0,0-.08,3.9,9.26,9.26,0,0,1,3-3.89,11,11,0,0,1,8.28-2.2,10.55,10.55,0,0,1,7,3.87,1.5,1.5,0,0,0,1,.69c-.54.09-1.08,0-1.62.1a8.6,8.6,0,0,0-5.54,4.07,6.24,6.24,0,0,0-1,5.38c.15.45.36.87.54,1.33a10.74,10.74,0,0,1-7.62-2.26,11,11,0,0,1-4.12-6.69c-.21.09-.19.25-.23.38a9,9,0,0,0,.5,6.39C18,25.43,18.27,25.69,18.16,26.07Z"/><path class="cls-4" d="M39.3,17.32a4.74,4.74,0,0,1,1.53,4.44c0,.21,0,.43-.07.65A12.53,12.53,0,0,1,32,30.48a12.75,12.75,0,0,1-12.75-3.12,6.76,6.76,0,0,1-.57-.62c0-.11,0-.21-.18-.22v0a.12.12,0,0,0-.12-.15l0,0a.13.13,0,0,0-.12-.15h0c0-.12,0-.24-.17-.19h0c.11-.38-.18-.64-.33-.93a9,9,0,0,1-.5-6.39c0-.13,0-.29.23-.38a11,11,0,0,0,4.12,6.69,10.74,10.74,0,0,0,7.62,2.26c-.18-.46-.39-.88-.54-1.33a6.24,6.24,0,0,1,1-5.38,8.6,8.6,0,0,1,5.54-4.07c.54-.12,1.08,0,1.62-.1A4.57,4.57,0,0,1,39.3,17.32Z"/><path class="cls-3" d="M18.16,26.08c.18,0,.18.07.17.19A.2.2,0,0,1,18.16,26.08Z"/><path class="cls-3" d="M18.54,26.52c.14,0,.17.11.18.22A.27.27,0,0,1,18.54,26.52Z"/><path class="cls-3" d="M18.33,26.26a.13.13,0,0,1,.12.15A.13.13,0,0,1,18.33,26.26Z"/><path class="cls-3" d="M18.43,26.39a.12.12,0,0,1,.12.15A.14.14,0,0,1,18.43,26.39Z"/><path class="cls-5" d="M39.3,17.32a4.57,4.57,0,0,0-2.41-.88,1.5,1.5,0,0,1-1-.69,10.55,10.55,0,0,0-7-3.87,11,11,0,0,0-8.28,2.2,9.26,9.26,0,0,0-3,3.89,7.22,7.22,0,0,1,.08-3.9,10.6,10.6,0,0,1,7.89-8.23,10.47,10.47,0,0,1,10,2.22,10.6,10.6,0,0,1,3.89,8.7C39.42,17,39.5,17.16,39.3,17.32Z"/></svg>