<svg id="Слой_1" data-name="Слой 1" xmlns="http://www.w3.org/2000/svg" viewBox="0 0 56.69 56.69"><defs><style>.cls-1{fill:#2f180f;fill-rule:evenodd;}.cls-2{fill:#fbb913;}</style></defs><path class="cls-1" d="M6.82,17.44,7,39.75l5,6.19,15,8,18.48-9,3.83-9.14L49,6.14,35,5.75,20.48,8.11,7.21,15.77Z"/><path class="cls-2" d="M28.34,1.32c-8.75,0-16.39,1.7-22.7,5V33.09A16.94,16.94,0,0,0,11.75,46.7c3.71,3,15.19,8.06,16.6,8.67,1.33-.58,12.94-5.68,16.6-8.67a17,17,0,0,0,6.1-13.61V6.36c-6.31-3.34-13.95-5-22.71-5Zm13,5.18c2.61,0,5.18.2,7.66.43V33.09a14.83,14.83,0,0,1-5.35,12c-3.14,2.59-12.63,6.84-15.27,8-2.69-1.18-12.2-5.48-15.28-8a14.9,14.9,0,0,1-5.35-12V17.8C17.78,8.58,30,6.35,41.31,6.5ZM28.94,18.68a9.58,9.58,0,0,0-5.33,1.41V45.84h3.95V37.52a6.57,6.57,0,0,0,1.78.22c4.39,0,6.91-4,6.91-9.72s-2.6-9.34-7.31-9.34Zm13.5,0a5.25,5.25,0,0,0-5.3,5.15c0,2.11.59,3.68,3.85,5.59,1.73,1,2.43,1.69,2.46,2.93a2.09,2.09,0,0,1-2.36,2.2A6.29,6.29,0,0,1,37.31,33v3.63a8.63,8.63,0,0,0,4.34,1.23,5.33,5.33,0,0,0,5.72-5.29c.08-2.3-.56-4-3.86-6-1.47-.87-2.64-1.43-2.6-2.87s1.21-1.9,2.32-1.89a5.27,5.27,0,0,1,3.54,1.62V20a6.73,6.73,0,0,0-4.33-1.29Zm-32.7.4V31.5c0,4.19,2,6.31,5.89,6.31a10.43,10.43,0,0,0,5.95-1.59V19.08H17.64V34a3.36,3.36,0,0,1-1.87.48c-1.81,0-2.08-1.66-2.08-2.78V19.08ZM29,21.87c2.3,0,3.25,1.83,3.25,6.25s-1.09,6.41-3.36,6.41a3.94,3.94,0,0,1-1.29-.24V22.15a3.44,3.44,0,0,1,1.4-.28Z"/></svg>