<svg id="Слой_1" data-name="Слой 1" xmlns="http://www.w3.org/2000/svg" viewBox="0 0 56.69 56.69"><defs><style>.cls-1{fill:#0065a5;}.cls-2{fill:#fff;}.cls-3{fill:#6e6f72;}</style></defs><path class="cls-1" d="M44.54,23.07A16.2,16.2,0,1,1,28.35,6.87h0a16.19,16.19,0,0,1,16.19,16.2Z"/><polygon class="cls-2" points="32.14 16.01 39.58 16.01 35.98 22.25 28.54 22.25 32.14 16.01"/><polygon class="cls-2" points="28.35 34.96 32.04 28.56 24.8 16.01 17.41 16.01 28.35 34.96"/><path class="cls-3" d="M12.51,44H14l-2,5.66H10.6L8.66,44h1.51l1.17,4Z"/><path class="cls-3" d="M14.49,44h4.18v1.1H15.9v1h2.59v1.07H15.9v1.35h3v1.12H14.49Z"/><path class="cls-3" d="M19.91,44h2.55a2.38,2.38,0,0,1,1.86.58,1.92,1.92,0,0,1,.44,1.26,1.5,1.5,0,0,1-1.16,1.56l1.31,2.26H23.35l-1.13-2h-.89v2H19.91Zm1.42,1.06v1.53h1.18a.75.75,0,0,0,.85-.65.56.56,0,0,0,0-.13c0-.72-.52-.74-.82-.75Z"/><path class="cls-3" d="M27.25,44v5.66H25.84V44Z"/><path class="cls-3" d="M29.24,48a1.64,1.64,0,0,0,.55.43,2.3,2.3,0,0,0,1.09.28c.56,0,1-.27,1-.66s-.57-.52-1-.58-.62-.08-.93-.14-1.52-.32-1.52-1.54c0-1.46,1.29-1.9,2.28-1.9A3.44,3.44,0,0,1,33.25,45l-1,.74a2.7,2.7,0,0,0-.56-.45,2,2,0,0,0-.92-.25c-.57,0-.85.32-.85.59,0,.44.49.5.73.53a10.4,10.4,0,0,1,1.73.35,1.4,1.4,0,0,1,1,1.38,2,2,0,0,1-.45,1.21,2.74,2.74,0,0,1-2.13.76,3,3,0,0,1-2.58-1.15Z"/><path class="cls-3" d="M35.8,44v5.66H34.39V44Z"/><path class="cls-3" d="M41,49.15a2.23,2.23,0,0,1-1.67.66c-1.59,0-2.56-1.28-2.56-3a2.79,2.79,0,0,1,2.8-3,3,3,0,0,1,2.5,1.3L41,45.79A1.47,1.47,0,0,0,39.68,45c-1.08,0-1.49.89-1.49,1.84a2.09,2.09,0,0,0,.46,1.44,1.4,1.4,0,0,0,1,.41,1.33,1.33,0,0,0,.77-.22,1,1,0,0,0,.46-.84H39.64V46.54h2.47v3.14H41Z"/><path class="cls-3" d="M43.27,44h1.38l1.22,2.09c.45.79.59,1,.85,1.55L46.66,44H48v5.66H46.64L45.58,47.9c-.36-.58-.69-1.17-1-1.78l0,3.56H43.26Z"/></svg>