<svg id="Слой_1" data-name="Слой 1" xmlns="http://www.w3.org/2000/svg" viewBox="0 0 56.69 56.69"><defs><style>.cls-1{fill:#4d5358;}.cls-2{fill:#e52629;}</style></defs><path id="path43" class="cls-1" d="M52.28,50c0,.67,0,.72-.35.89A16.67,16.67,0,0,1,45.39,52c-6.64,0-12.53-2.86-12.53-9.67a9.06,9.06,0,0,1,4.72-8.06,14.21,14.21,0,0,1,7.3-1.6,35.75,35.75,0,0,1,4.8.39,18.12,18.12,0,0,0,2.14.27c.33,0,.38.13.38.3a30.16,30.16,0,0,0-.19,4c0,.4-.08.52-.3.52s-.24-.12-.27-.32a3.31,3.31,0,0,0-.92-2.05,9.19,9.19,0,0,0-6.05-1.92,8.38,8.38,0,0,0-5.37,1.53c-1.52,1.16-2.5,3-2.5,6,0,5.3,3.72,9.27,9.44,9.27a6.6,6.6,0,0,0,2.31-.27.85.85,0,0,0,.51-.91V47.25c0-1.23,0-2.17,0-2.91s-.27-1.23-1.17-1.4a6,6,0,0,0-1.06-.08c-.24,0-.4,0-.4-.2s.19-.24.57-.24c1.41,0,3.12.07,3.93.07s2.28-.07,3.17-.07c.36,0,.55,0,.55.24s-.17.2-.36.2a4.84,4.84,0,0,0-.73.08c-.73.12-1,.54-1,1.4s0,1.73,0,3ZM25.9,40.17c0-3.75,0-4.44,0-5.22s-.3-1.26-.85-1.39a3.77,3.77,0,0,0-.9-.09c-.25,0-.4,0-.4-.25s.2-.2.6-.2c.95,0,2.53.08,3.26.08s2.1-.08,3.06-.08c.32,0,.52,0,.52.2s-.15.25-.4.25a4.19,4.19,0,0,0-.75.07c-.68.12-.88.54-.93,1.41s0,1.47,0,5.22v4.34c0,2.4,0,4.34.1,5.4.08.67.25,1.11,1,1.21a10.86,10.86,0,0,0,1.28.1c.28,0,.4.08.4.2s-.2.25-.47.25c-1.66,0-3.24-.08-3.91-.08s-2.16.08-3.16.08c-.33,0-.5-.08-.5-.25s.1-.2.4-.2a4.08,4.08,0,0,0,.9-.1c.5-.1.65-.51.73-1.23.12-1,.12-3,.12-5.38ZM5.45,35.44c-.58-1.36-1-1.63-1.9-1.88a4.34,4.34,0,0,0-1-.09c-.23,0-.3-.08-.3-.23s.27-.22.65-.22c1.33,0,2.76.08,3.63.08.63,0,1.83-.08,3.09-.08.3,0,.57,0,.57.22s-.15.23-.37.23a1.82,1.82,0,0,0-1,.17.57.57,0,0,0-.25.52,6.85,6.85,0,0,0,.58,1.89l4.31,11.2h.1C14.67,44.54,17.93,36.6,18.53,35a2.88,2.88,0,0,0,.23-.91.47.47,0,0,0-.33-.47,3.31,3.31,0,0,0-1-.12c-.22,0-.42,0-.42-.2s.22-.25.7-.25c1.25,0,2.3.08,2.63.08S21.94,33,22.7,33c.32,0,.52,0,.52.22s-.15.23-.4.23a2.24,2.24,0,0,0-1.23.29c-.32.22-.7.64-1.38,2.22-1,2.32-1.65,3.65-3,6.68-1.61,3.6-2.79,6.29-3.34,7.53-.65,1.43-.8,1.82-1.15,1.82s-.48-.34-1-1.5Z"/><path id="path31" class="cls-2" d="M34.53,25.18c-2.11,2.09-1.81,3.87-1.81,7.73,0,.11.37.13.4,0a8.79,8.79,0,0,1,2-3.3l1-1.05c1.08-1,3.55-2.42,4.82-4.09,2.38-3.1,2.72-7.34,2.72-11.21,0-.11-.37-.13-.4,0a17.35,17.35,0,0,1-3,6.78,9.59,9.59,0,0,1-1.11,1.16c-1.15,1-3.27,2.61-4.65,4M30.94,6.32a1.67,1.67,0,0,0-1.66-1.64h-5v5a1.64,1.64,0,0,0,1.63,1.64h5Zm0,13.62V14.88c0-.88-.4-1.6-1.31-1.6H24.3c0,7.44,6.64,6.66,6.64,6.66m1.78,0s6.63.78,6.63-6.66H34c-.91,0-1.31.72-1.31,1.6v5.06m0-13.62a1.67,1.67,0,0,1,1.66-1.64h5v5a1.64,1.64,0,0,1-1.62,1.64h-5Z"/></svg>