<svg id="Слой_1" data-name="Слой 1" xmlns="http://www.w3.org/2000/svg" viewBox="0 0 56.69 56.69"><defs><style>.cls-1{fill:#e32124;}</style></defs><g id="g11"><g id="g9"><path id="path7" class="cls-1" d="M22.8,7.2s0,0,0,0l0,0a.33.33,0,0,0,0-.1V6.89a.08.08,0,0,0,0-.07l0-.06s0,0,0,0,0,0,0,0,0-.06,0-.1,0,0,0-.08,0,0,0,0,0,0,0-.05,0,0,0-.06a.19.19,0,0,1,0-.07.08.08,0,0,0,0,0s0,0,0,0,0,0,0-.07,0,0,0,0l0,0s0,0,0,0a.6.6,0,0,0-.06-.11.06.06,0,0,1,0,0l0,0a1.58,1.58,0,0,1-.12-.15s0,0-.08,0v0h0s0,0,0,0h0s0,0,0,0h0s0,0,0,0a.06.06,0,0,0,0,0H22s0,0,0,0a.08.08,0,0,0-.06,0l0,0,0,0-.09,0-.11-.07-.09,0-.1,0h-.1a.09.09,0,0,0-.07,0h-.11l-.11,0h-.32l-.07,0s0,0-.05,0l-.13,0-.14,0c-.05,0-.06,0-.11,0a.35.35,0,0,0-.12,0l-.11,0a3.61,3.61,0,0,0-.5.33.68.68,0,0,0-.12.12s0,0,0,0,0,0-.05,0,0,0,0,.07a.08.08,0,0,0-.07.07h0s0,0-.05.05a.2.2,0,0,1,0,.08L19,6.1c0,.05-.07.07-.1.12a.68.68,0,0,0-.14.23s-.05.1-.07.14-.12.17-.15.23-.08.16-.12.25-.13.31-.2.47a1.53,1.53,0,0,1-.11.27.62.62,0,0,0-.11.25,1.1,1.1,0,0,1-.11.32c0,.1-.08.19-.11.29s-.16.35-.23.53a1.17,1.17,0,0,1-.11.28,1.83,1.83,0,0,1-.1.28c-.07.17-.12.37-.19.55a.7.7,0,0,0-.09.17,1.42,1.42,0,0,1-.07.22c-.07.13-.1.28-.16.42s-.13.32-.18.46-.15.39-.22.6a1.22,1.22,0,0,0-.1.24,1,1,0,0,1-.1.28,3,3,0,0,0-.12.32c-.05.13-.08.26-.13.38s-.12.28-.17.43-.12.36-.2.54c-.18.44-.32.9-.47,1.35a.22.22,0,0,1-.05.12.61.61,0,0,0,0,.11S15,16,15,16.06a.35.35,0,0,0-.06.14,1.33,1.33,0,0,0-.06.3,1.86,1.86,0,0,1-.12.38,1.59,1.59,0,0,1-.07.2,1.3,1.3,0,0,0-.17.38,2.6,2.6,0,0,1-.1.25l-.06.28c0,.06-.09.16-.05.23s-.06.18-.09.25a2.14,2.14,0,0,1-.06.27c0,.09-.12.17-.12.27a2.8,2.8,0,0,0,0,.29c0,.08,0,.09-.09.14a.53.53,0,0,0-.05.18.5.5,0,0,1,0,.17c0,.06,0,.12-.08.19-.07.25-.13.49-.21.73s-.06.26-.1.38-.09.24-.12.36-.12.5-.17.74a2.44,2.44,0,0,0-.06.26s0,.08,0,.12-.06.09-.08.16a1.08,1.08,0,0,1,0,.19,2,2,0,0,0-.13.34c-.05.25-.15.5-.21.75s-.12.39-.16.59a1.17,1.17,0,0,1,0,.26c0,.1-.06.21-.09.31a.73.73,0,0,0-.05.2s0,.08,0,.1,0,0-.05.07a1,1,0,0,1,0,.17c0,.06,0,.1,0,.17s-.06.25-.08.37L12,26.8c0,.1,0,.21-.06.31a5,5,0,0,0-.1.56c0,.09-.05.19-.08.29a2.3,2.3,0,0,1-.06.28c0,.07-.09.2,0,.26a.63.63,0,0,0-.07.26.69.69,0,0,1,0,.25c0,.14-.07.28-.1.42a1.86,1.86,0,0,1-.07.34,1.09,1.09,0,0,0,0,.25c0,.15-.05.28-.06.43a7.58,7.58,0,0,1-.15.83c0,.12,0,.25-.06.37s-.09.37-.1.57,0,.13,0,.2,0,.3-.05.43a4.93,4.93,0,0,1-.15.8c0,.09,0,.19,0,.29A9.87,9.87,0,0,1,10.48,35c0,.17-.05.34-.06.51s0,.18,0,.27a.55.55,0,0,0,0,.18l0,.06v.08c0,.11,0,.22,0,.33h0a.34.34,0,0,0,0,.1s0,.09-.05.1,0,0,0-.09,0-.06-.12,0l0-.09a.11.11,0,0,1,0-.08.44.44,0,0,0,0-.23s0,0,0-.09,0,0,0-.08-.08-.09-.16-.12,0,0,0-.06,0-.06,0-.1V35.5a1.21,1.21,0,0,0,0-.19c0-.06,0-.09,0-.17s0-.12,0-.18a.21.21,0,0,1,0-.07s0-.09,0-.11.06-.07,0-.17,0-.13,0-.2a.38.38,0,0,0-.05-.15s0,0-.06,0,0,0,0-.07a.43.43,0,0,1,0,0s.06,0,.05,0h0s0,0,0,0-.07,0-.05-.06,0,0,0-.06,0,0,0,0,.1-.05.09-.08h0s0,0,0,0l-.07,0c0,.05,0,0-.06,0a.43.43,0,0,1,0,0s0,0,0-.05v-.1a.12.12,0,0,1,0-.08s0,0,0-.08,0,0,0-.06,0,0,0,0a.64.64,0,0,0,0-.07s0,0,0-.06a.17.17,0,0,1,0-.07h0s0,0,0,0a.14.14,0,0,0,0-.06.16.16,0,0,0,0-.12s0-.06,0-.09,0-.07,0-.09l0-.05s0,0,0-.08-.06,0,0,0,0,0,0-.06,0,0,0-.08a.16.16,0,0,1,0-.06s0,0,0-.07,0-.1,0-.16V32a.75.75,0,0,0,0-.15l0-.05s0,0,0-.07,0,0,0-.06l0-.08s0-.11,0-.14,0,0,0-.06,0-.05,0-.07a.15.15,0,0,0,0-.07s0,0,0-.05h.07a.15.15,0,0,0,0-.07S9.29,31,9.27,31a.2.2,0,0,1-.06-.15s0-.06,0-.1a.26.26,0,0,0,0-.11v-.11s0,0,0-.08,0-.06,0-.09l-.06-.06A.39.39,0,0,1,9,30.15a.09.09,0,0,1,0,0s0,0,0,0S9,30,9,30s0,0,0,0,0,0,0-.06,0,0,0-.07,0,0,0-.07,0,0-.07,0-.05,0-.05-.05a.15.15,0,0,1,0-.09s0-.06,0-.1a.2.2,0,0,1,0-.09s0-.07,0-.12,0-.05,0-.06,0,0-.05,0,0-.22,0-.33,0,0,0-.06,0-.05,0-.07a.29.29,0,0,1,0-.16s0-.07,0-.11a.36.36,0,0,1,0-.11s0,0,0,0,.05,0,0,0,0,0-.05,0,0,0,0,0,0,0,0-.05,0,0,0,0a.13.13,0,0,1,0-.1s0,0,0-.05,0,0,0,0,0,0,0,0,0,0,0,0,0,0,0-.05v0s0-.05,0,0,0,0,0,0l0,0a.11.11,0,0,1,0,0c0-.05,0-.06.05-.08s0,0,0,0,0,0,0,0v-.06s0,0,0-.06v-.05s-.05,0,0-.05,0,0,.05,0,0,0,0,0,0,0,0,0,0,0,0,0-.06,0-.08,0,0-.07,0-.1,0,0,0-.08,0,0,0,0,0,0,0-.05,0-.09,0-.11h0s0,0,0,0-.05,0-.06,0h0a.05.05,0,0,1,0,0s0,0,0,0,0,0,0-.05l0,0s0-.09,0-.1,0,0,0,0,0,0,0,0l0,0s0,0,0,0a.5.5,0,0,1,0-.12.07.07,0,0,1,0-.05s0,0,0,0a.15.15,0,0,0-.06-.1.15.15,0,0,1,0-.09v0s0,0,0-.05v-.06a.43.43,0,0,1,0,0s0,0,0,0a.31.31,0,0,1,0-.17.14.14,0,0,0,0-.09s0-.08,0-.11a.35.35,0,0,0,0-.11V25.2s0,0,0-.06a.66.66,0,0,1,0-.14V25s0,0,0,0a.4.4,0,0,0,0-.11s0,0,0,0l0,0s0,0,0,0a.36.36,0,0,1,0-.11c0-.05,0-.08,0-.12v-.06a.13.13,0,0,0,0-.06s0-.05,0-.07,0,0,0,0,0,0,0,0v0s0,0,0,0v-.09a.16.16,0,0,0,0-.09v-.07s0,0,0,0,0-.09,0-.13,0-.07,0-.1,0-.05,0-.08,0,0,0-.06a.23.23,0,0,1,0-.12v0s0,0,0-.06a2,2,0,0,0,0-.24s0-.07,0-.11l0-.11a1.87,1.87,0,0,0-.07-.22s0-.05,0-.07,0,0,0-.05,0,0,0,0a.06.06,0,0,1,0,0,.93.93,0,0,0-.05-.1s0,0,0,0,0,0,0,0,0,0,0-.07l0-.06s0,0-.07-.06L7.24,22s0,0-.06,0A.91.91,0,0,0,7,21.87l0,0a.25.25,0,0,0-.12,0H6.8a.35.35,0,0,1-.14,0H6.48a.08.08,0,0,1-.05,0,.4.4,0,0,0-.11,0H6.21l-.11,0h0l0,0H6l-.11,0L5.75,22a.45.45,0,0,0-.16.12.5.5,0,0,1-.13.12.77.77,0,0,0-.14.19,1.38,1.38,0,0,0-.14.27c0,.1-.07.21-.11.32a.25.25,0,0,1,0,.07l0,.07c0,.05,0,.11,0,.16l0,0a.33.33,0,0,1,0,.06.94.94,0,0,1,0,.09.09.09,0,0,0,0,.07s0,0,0,0l0,0s0,0,0,0-.09.23-.12.35a.69.69,0,0,1,0,.08s0,0,0,.07a.34.34,0,0,1-.05.14.78.78,0,0,1,0,.14,5.52,5.52,0,0,1-.16.54.8.8,0,0,1-.08.16.28.28,0,0,0,0,.17.78.78,0,0,0,0,.21.3.3,0,0,1-.08.16c-.06.08,0,.13-.08.23a1.42,1.42,0,0,1-.08.18c0,.06,0,.1,0,.16a1.17,1.17,0,0,1-.06.2c0,.12-.09.24-.12.37s-.09.21-.12.31a.33.33,0,0,1-.07.17.31.31,0,0,0-.06.16s0,.11,0,.16a.58.58,0,0,1,0,.19c0,.14-.09.23-.12.37s-.12.18-.17.29a.45.45,0,0,0,0,.19.39.39,0,0,1,0,.21,1,1,0,0,1-.1.24s-.17.1-.07.13-.11.08,0,.16-.06.11-.07.12a.63.63,0,0,1,0,.19c0,.14-.12.29-.17.43s-.16.34-.22.51h0a.66.66,0,0,1,0,.15c0,.05-.05.11-.06.16s0,.06,0,.09a.35.35,0,0,1-.05.08s0,.1-.06.14,0,.1,0,.13a.9.9,0,0,0,0,.16,1.72,1.72,0,0,1-.11.29,2.64,2.64,0,0,0-.1.3,1.33,1.33,0,0,0-.11.63.67.67,0,0,0,.1.31,1.13,1.13,0,0,0,.38.4.78.78,0,0,0,.24.09l.11,0s.06,0,.1,0h.13l.1,0h.19s0,0,.05,0h.06l0,0s.06,0,.09,0a.45.45,0,0,0,.2-.12s.06-.06.09-.09l0,0s0,0,0-.06.1,0,.11,0,0,0,0-.05,0-.1,0-.15,0,0,.07-.07a.06.06,0,0,0,0-.08.43.43,0,0,0,0,0s0,0,0,0,0,0,0,0a.22.22,0,0,1,0-.08l0-.05s0-.06,0-.09a.25.25,0,0,1,.08-.12.06.06,0,0,0,0-.06s0,0,0-.05.09-.06.1-.09,0,0,0-.08,0,0,0-.06a.22.22,0,0,1,0-.08s0-.05,0-.07,0-.09.06-.15a.16.16,0,0,1,.07-.07s.09,0,.08,0-.06,0-.09,0,0-.06,0-.09l0,0a.11.11,0,0,0,0-.05v-.05s0,0,0,0,0,0,0,0v0s0,0,0,0,0,0,0,0,0,0,0,0,0,0,0,0v0s0,0,0,0,0,0,0,0,0,0,0-.06l0-.06s0,0,0,0,0,0,0,0v-.05l0,0s0,0,0,0,0,0,0,0h0s0,0,0,0l0,0h0a.07.07,0,0,1,0-.07s0,0,0,0h0s0,0,0,0,0,0,0,0a.06.06,0,0,0,0,0s0,0,0,0,0,0,0,0a0,0,0,0,0,0,0v0s0,0,0,0a.13.13,0,0,1,0-.05l0,0s0,0,0,0,0,0,0,0,0,0,0-.05,0-.07,0-.08,0,0,0,0,0,0,0,0,0-.05,0-.07a.06.06,0,0,1,0,0H5A.11.11,0,0,0,5,30s0,0,0,0,0,0,0,0,0-.07,0-.08,0,0,0,0v0s0,0,0-.06,0,0,0,0h0s0,0,0,0h0v0h0s0,0,0,0a.08.08,0,0,0,0,0s0,0,0,0,0,0,0,0l0,0s.07,0,.08,0a.06.06,0,0,0,0-.07s0,0,0,0,0,0,0,0,0,0,0,0,0-.05,0-.05l0,0s0,0,0,0,0-.06,0-.09,0,0,0,0,0,0,0,0l0,0s0,0,0-.05,0,0,.07,0,0,0,0,0,0,0,0,0,.05,0,.07,0,0,0,0,0,0,0,0,0,0,0,0,0,0,0,0,0h0s0,0,0,0,0,0,0-.05v0s0,0,0,0a.08.08,0,0,1,0-.07s.08.07.1,0,0,0,0,0,0,0,0,0,0,0,0-.06h.05s0,0,0,0,0,0,0,0,0,0,0,0,0,0,0,0l0,0s0,0,0,0,0,0,0,0h0v0a.06.06,0,0,1,0,0,.59.59,0,0,0,0-.06v0h0s0,0,0,0,0,0,.06,0a.11.11,0,0,1,.08,0s0,0,0,0,0,0,0,0H6s0,0,0,0,0,0,0,0a.05.05,0,0,0,0,.06l0,0s0,0,0,0,0,0,0,0v.07s0,0,0,0,0,0,0,0,0,0,0,.07,0,0,0,0,0,0,0,0,0,0,0-.05,0,0,.08,0,0,0,.06.05,0,0,0,0,0,0,0,0,0,0,0,0v0s0,0,0,.05-.07,0,0,0a.14.14,0,0,1,.08.05s0,0,0,0v0s0,0,0,0h0s0,0,0,0,0,0,0,0,0,0,0,0a.11.11,0,0,0,0,.08s0,0,.06.05,0,0,0,.06a.15.15,0,0,0,0,.17.27.27,0,0,0,.07.08h0s0,0,0,0,0,0,0,0,0,0,0,0h0s0,0,0,0a.81.81,0,0,1,0,.15.18.18,0,0,1,0,.12s0,0,.06,0a.5.5,0,0,1,0,.17s0,0,0,.06a.25.25,0,0,1,0,.08c0,.06,0,.11,0,.17a.69.69,0,0,1,0,.13s0,.09,0,.12a.15.15,0,0,0,0,.07.47.47,0,0,0,0,.16.91.91,0,0,1,0,.17.25.25,0,0,0,0,.09s0,0,0,.06,0,0,0,0,0,0,0,0,0,0,0,.06a.83.83,0,0,0,0,.13.5.5,0,0,0,0,.13s0,.08,0,.13a.24.24,0,0,0,0,.09s0,.05,0,.08,0,.1,0,.15,0,0,0,0,0,0,0,0,0,.06,0,.08a1.08,1.08,0,0,1,0,.18s0,0,0,0,0,0,0,0,0,.14.06.11,0,0,0,.06,0,0,0,.05,0,.06,0,.09a.6.6,0,0,0,0,.2s0,.1,0,.14a.19.19,0,0,0,0,.09s0,.05,0,.06,0,0,0,.07a.24.24,0,0,0,0,.08.8.8,0,0,0,0,.15,1.86,1.86,0,0,1,0,.34v.08a.08.08,0,0,1,0,.07s0,.06,0,.08l0,.09a.58.58,0,0,0,0,.14.17.17,0,0,0,0,.07.25.25,0,0,1,0,.15s0,.06,0,.09v0s0,0,0,0,0,0,0,.08a1.22,1.22,0,0,0,0,.17.22.22,0,0,0,0,.08.15.15,0,0,1,0,.07v.16s0,0,0,.06,0,0,0,.06a0,0,0,0,1,0,0v0a.17.17,0,0,0,0,.07l0,.16c0,.05,0,.11,0,.16s0,.08,0,.12a.17.17,0,0,1,0,.07.36.36,0,0,0,0,.1.15.15,0,0,1,0,.1s0,.08,0,.12,0,.08,0,.13a.13.13,0,0,1,0,.06s0,.05,0,.07,0,.05,0,.09v.07a.16.16,0,0,0,0,.09.2.2,0,0,1,0,.05v0s0,0,0,.06,0,0,0,0,0,0,0,0,0,.07,0,.11v0s0,0,0,0,0,.07,0,.11,0,.07,0,.1v0s0,0,0,0,0,0,0,0,0,0,0,0,0,0,0,.05a.2.2,0,0,1,0,.11h0v0s0,0,0,0,0,0,0,0a.1.1,0,0,0,0,.07.11.11,0,0,1,0,.06.22.22,0,0,0,0,.08s0,0,0,0v0s0,.07,0,.11a.41.41,0,0,0,0,.11l0,0s0,0,0,0v.06s0,0,0,0v.1h0s0,0,0,0,0,0,0,.05,0,0,0,.06V39s0,0,0,0,0,.05,0,.07a.11.11,0,0,0,0,.06v0s0,0,0,.06,0,0,0,.06,0,0,0,0,0,0,0,0,0,.14,0,.14v.08a0,0,0,0,1,0,0s0,0,0,0a.07.07,0,0,0,0,.05.29.29,0,0,1,0,.09v.06s0,0,0,0l0,0v0s0,.05,0,.07a.09.09,0,0,1,0,.08s0,0,0,.06a.08.08,0,0,1,0,.07s0,0,0,.05a.08.08,0,0,1,0,.06s0,.05,0,.08l0,0,0,0,.06.07a.06.06,0,0,1,0,0s0,0,0,.05v0l0,0s0,.07-.05.08l0,0s0,0,0,0,0,0,0,0,0,0,0,0l0,0h.15a.08.08,0,0,1,0,0s0,.06,0,.09,0,.06,0,.09,0,.06,0,.1a.18.18,0,0,0,0,.1s0,0,0,.05,0,0,0,0v0h0a.06.06,0,0,0,0,0v.12s0,0,0,0l0,0,0,0,0,0v0a.17.17,0,0,0,0,.05s0,0,0,0,0,0,0,0V42s0,.09,0,.13v0s0,0,0,0a.06.06,0,0,0,0,.1l0,0s0,0,0,0l0,.08v.1s0,0,0,0v0s0,0,0,0,0,.08,0,.12,0,.07,0,.11a.34.34,0,0,0,0,.1v.09s0,0,0,0h0s0,0,0,0v0s0,0,0,0,0,0,0,0l0,0a.11.11,0,0,1,0,0s0,0,0,0a.68.68,0,0,1,0,.14c0,.05,0,.1,0,.16s0,0,0,.09,0,0,0,.07a.17.17,0,0,1,0,.07V44s0,0,0,0v.06s0,0,0,0a.29.29,0,0,1,0,.09s0,.08,0,.1,0,0,0,0,0,.05,0,.07,0,.05,0,.06v0s0,0,0,0l0,0s0,0,0,0h0v0a.07.07,0,0,1,0,0s0,0,0,.06,0,0,0,0h0v.08a.22.22,0,0,0,0,.08s0,0,0,0,0,0,0,0A.07.07,0,0,1,9,45s0,.05,0,.08v0H9s0,0,0,0a.18.18,0,0,1,0,.1.13.13,0,0,0,0,.05l0,0s0,0,0,.06a.11.11,0,0,0,0,.06s0,0,0,0h0s0,0,0,0,0,.07,0,.09v.15s0,.06,0,.08,0,0,0,0,0,0,0,0,0,0,0,0,0,.06,0,.1a.11.11,0,0,1,0,.05.14.14,0,0,0,0,.06l0,0s0,0,0,.05,0,0,0,.09l0,0s0,0,.05.07l0,0v0s0,0,0,0l0,0s0,0,0,0l.06,0s0,0,.05,0v0s0,0,0,0,.05,0,.07,0l.1.05H10l.1,0a0,0,0,0,0,0,0h.28l.11,0,.18,0h0s0,0,0,0,0,0,.05,0,0,0,0,0l.05,0,0,0s0,0,0,0l.07-.07a.13.13,0,0,0,.07-.06l0,0s0,0,0,0,0,0,0-.06l0,0s0,0,0,0,0,0,0,0,0,0,0-.05,0,0,0,0l0,0s0-.05,0-.06l0-.09a.45.45,0,0,1,0-.11l0,0a.06.06,0,0,1,0,0s0-.08,0-.1,0,0,0,0a.11.11,0,0,1,0,0,.16.16,0,0,0,0-.09s0,0,0,0v-.05a.94.94,0,0,1,0-.16s0,0,0,0,0,0,0,0v0s0-.07,0-.09,0-.06,0-.1v-.11l0,0s0,0,0,0a.16.16,0,0,1,0-.1.32.32,0,0,1,0-.09.2.2,0,0,0,0-.11s0-.06,0-.1a.1.1,0,0,1,0-.07.37.37,0,0,0,0-.11v-.1a.43.43,0,0,1,0,0V44a.16.16,0,0,1,0-.09.45.45,0,0,0,0-.11.07.07,0,0,0,0-.05v0s0,0,0,0,0,0,0-.05,0,0,0,0,0,0,0-.05,0-.06,0-.1,0,0,0,0v0a.2.2,0,0,1,0,0V43.3s0,0,0,0v0s0,0,0,0,0,0,0,0a0,0,0,0,1,0,0V43s0,0,0-.05v0s0,0,0,0a.37.37,0,0,1,0-.11.45.45,0,0,0,0-.11s0-.06,0-.1,0-.06,0-.08v0h0s0,0,0-.05v0a.22.22,0,0,0,0-.08s0,0,0,0,0-.06,0-.1,0-.07,0-.11,0,0,0,0,0,0,0,0a.2.2,0,0,0,0-.05v0s0,0,0,0v0s0,0,0-.05,0-.07,0-.11,0,0,0,0,0,0,0,0h0v-.11s0-.06,0-.09v0s0,0,0,0a.41.41,0,0,0,0-.11s0-.06,0-.1a.25.25,0,0,1,0-.09h0s0,0,0-.08,0,0,0,0,0-.08,0-.11a.09.09,0,0,1,0-.05s0,0,0,0h0v-.18a.07.07,0,0,1,0-.05s0,0,0,0a.11.11,0,0,1,0-.08.2.2,0,0,0,0-.1.34.34,0,0,0,0-.1V40s0,0,0,0h0s0,0,0,0l0,0s0-.06,0-.09a.87.87,0,0,1,0-.1.28.28,0,0,1,0-.09.23.23,0,0,0,0-.12s0,0,0-.05v0a.2.2,0,0,1,0-.11.08.08,0,0,0,0,0v-.05a.22.22,0,0,1,0-.11s0-.07,0-.11v0s0,0,0,0,0,0,0,0v0a.12.12,0,0,0,0-.09s0,0,0,0,0,0,0-.05,0-.06,0-.1a.11.11,0,0,1,0,0s0,0,0,0,0,0,0,0a.16.16,0,0,0,0-.07s0,0,0,0h0s0-.07,0-.09,0,0,0,0,0,0,0-.06V38.1s0-.06,0-.08a.37.37,0,0,1,0-.11v0l0,0s0,0,0-.05a.09.09,0,0,1,0,0l0,0v0s0,0,0,0,0,0,0,0,0,0,0,0v0a.08.08,0,0,1,0,0l0,0v-.12a.15.15,0,0,0,0-.07s0,0,0,0h0v0s0,0,0,0,0-.05,0,0,0,0,0,0h0s0,0,0,0,0,0,0,0a0,0,0,0,0,0,0s0,0,0,0,0,0,0-.06v0s0,0,0,0,0,0,0,0,0,0,0,0,0,0,0,0h0s0,0,0-.09v-.05s0,0,0,0v0s0,0,0,0,0,0,0,0,0,0,0,0,0,0,0-.07,0-.08,0-.1a.21.21,0,0,1,0-.11.18.18,0,0,0,0-.1s0-.06,0-.09a.28.28,0,0,1,0-.09s0-.06,0-.09,0,0,0,0v0s0,0,0-.07h0v0h0l0,0v-.05s.08,0,.05-.09h0s0,0,0,0,0,0,0,0,0-.06,0-.07H13s0,0,.06,0,0-.06,0-.09,0,0,0-.06,0,0,0-.07v-.08h0s0,0,0,0h0s0,0,0,0a.07.07,0,0,0,0-.09.21.21,0,0,1,0-.08s0,0,0-.07a.08.08,0,0,0,0,0v0a.08.08,0,0,0,0,0l0,0v-.08s0,0,0,0v0s0,0,0,0h0s0,0,0,0v0s0,0,0,0,0,0-.05,0-.05,0-.06,0,0,0,0-.08v-.06s0,0,0,0h0s0,0,0,0,0,0,0-.08,0,0,0,0,0,0,0-.05v-.12s0,0,0,0v-.13h0v0a.06.06,0,0,0,0,0s0,0,0-.05,0,0,0,0v0s0,0,0,0a.09.09,0,0,0,0-.07s0-.06,0-.07,0,0,0,0a0,0,0,0,0,0,0,.27.27,0,0,0,0-.09.31.31,0,0,1,0-.1s0,0,0,0v0h0a.2.2,0,0,0,0,0s0,0,0,0,0,0,0,0h0s0,0,0,0v0s0,0,0,0h0s0,0,0,0,0,0,0,0,0,0,0,0a0,0,0,0,1,0,0s0,0,0,0h0v0a.06.06,0,0,1,0-.06l0,0h0l0,0s0-.11,0-.17v-.09s0,0,0,0a.19.19,0,0,1,0-.07v0a.17.17,0,0,1,0-.07s0,0,0-.06,0,0,0-.06a.11.11,0,0,1,0-.08s0,0,0-.07a.22.22,0,0,1,0-.14.1.1,0,0,0,0-.08v0a0,0,0,0,0,0,0,0,0,0,0,0,0-.05.06.06,0,0,1,0-.07s0,0,0,0,0,0,0-.06,0,0,0,0a0,0,0,0,1,0,0s0,0,0,0v-.07s0,0,0,0,0,0,0,0h0V31s0,0,0,0v0s0,0,0,0v0h0s0,0,0,0h0s0,0,0,0,0,0,0,0h0s0-.05,0-.08a0,0,0,0,1,0,0,0,0,0,0,0,0,0,.41.41,0,0,0,0-.11s0-.06,0-.1a.22.22,0,0,0,0-.08s0,0,0,0,0,0,0,0,0,0,0,0v0s0,0,0,0a.13.13,0,0,1,0-.06,1.51,1.51,0,0,1,.07-.37.22.22,0,0,1,0-.08,0,0,0,0,1,0,0h.05s0,0,.06-.06a.39.39,0,0,0,0-.09s0,0,0-.07h-.05v0s0,0,.05-.06,0-.05,0-.07,0,0,0,0a0,0,0,0,1,0,0s0-.05,0-.08,0,0,0-.07,0,0,0,0v0s0,0,0,0a.14.14,0,0,1,0-.09s0-.06,0-.08a.25.25,0,0,0,0-.09.3.3,0,0,1,0-.11s0,0,0,0,0,0,0,0,0,0,0,0,0-.07,0-.12,0,0,0-.05,0,0,0,0h0a0,0,0,0,1,0,0s0,0,0-.06,0-.06,0-.08l0-.08a.22.22,0,0,1,0-.08.13.13,0,0,0,0-.09.22.22,0,0,1,0-.08l0-.07s0-.05,0-.08v-.08a.06.06,0,0,1,0,0l0,0a.22.22,0,0,1,0-.08s0,0,0,0v-.05a.11.11,0,0,1,0-.07,1.62,1.62,0,0,1,0-.19.3.3,0,0,0,0-.08s0-.07,0-.07,0,0,0,0,0,0,0,0h0s0,0,0,0a.57.57,0,0,1,0-.13.08.08,0,0,0,0,0s0,0,0-.05,0,0,0,0v-.05a.38.38,0,0,1,0-.1l0,0,0,0v-.05l0,0v0s0-.06,0-.1v0s0,0,0,0,0,0,0-.06,0,0,0,0v-.05s0,0,0,0,0,0,0,0,0,0,0,0,0,0,0,0v0a.2.2,0,0,1,0-.08.12.12,0,0,1,0-.07s0-.05,0-.08,0,0,0,0v0s0,0,0,0v0s0,0,0,0,0,0,0-.05,0,0,0-.05,0,0,0,0a0,0,0,0,1,0,0,.14.14,0,0,1,0-.06l0,0s0,0,0,0h0v-.07s0-.05.05-.06a.07.07,0,0,1,0,0s0,0,0,0v0s0-.1,0-.13l0-.06s0-.07,0-.1a.15.15,0,0,1,0-.09s.08-.05.11-.09a.08.08,0,0,0,0,0s0,0,0,0V24.1a.16.16,0,0,1,0-.09s.05,0,.05-.07a.09.09,0,0,1,0-.05v0a0,0,0,0,1,0,0,.32.32,0,0,1,0-.09.19.19,0,0,1,0-.08.54.54,0,0,1,0-.1l0-.07a.13.13,0,0,1,.07-.06.06.06,0,0,0,0,0l0,0s0,0,0-.07,0,0,0,0,0,0,0,0l0,0s0,0,0,0a.11.11,0,0,0,0-.06.13.13,0,0,0,0-.05v0a.08.08,0,0,0,0-.07s0-.06,0-.1a.21.21,0,0,0,0-.07s0,0,0,0,0,0,0,0,0-.07,0-.09,0-.07,0-.1,0,0,0,0v-.05a.12.12,0,0,0,0-.1.34.34,0,0,1,0-.1v0s0,0,0,0v-.05s0,0,0,0,0,0,0,0,0,0,0,0a.22.22,0,0,0,0-.08.27.27,0,0,1,0-.09s0,0,.05,0,0,0,0-.06,0,0,0-.08a.61.61,0,0,1,.09-.18c0-.06.05-.12.09-.19s.07-.12.1-.2,0,0,0-.05,0,0,0,0,0-.07,0-.12a.55.55,0,0,0,.05-.17.93.93,0,0,1,0-.1.25.25,0,0,1,0-.09s0-.06,0-.1a.07.07,0,0,1,0-.05l.05,0a.1.1,0,0,0,.05-.08c0-.05,0-.12.06-.15s0,0,.05,0,0,0,0-.06,0,0,0-.06-.06-.05-.08-.1a.24.24,0,0,1,0-.12l0,0,0,0a.93.93,0,0,0,0-.1.41.41,0,0,0,0-.11.08.08,0,0,1,0-.06l0,0s0,0,.05,0a.19.19,0,0,0,0-.08s0,0,0-.06,0,0,0,0a.12.12,0,0,1,0-.1l.06-.09s.05-.09,0-.09a.19.19,0,0,1,0-.08s0,0,0,0,0,0,0,0,0,0,0,0,0,0,0,0,0-.07,0-.12a.43.43,0,0,1,.05-.12s0,0,0,0,0,0,0,0a.2.2,0,0,0,0-.05s0-.07,0-.1,0-.07,0-.09,0-.06.05-.09a.11.11,0,0,0,0-.08s0,0,0-.05,0,0,0,0,0,0,0-.05,0,0,0,0,0,0,0,0,0,0,0-.06,0,0,0,0,0,0,0-.05,0,0,0-.05,0,0,0,0,0,0,0-.05,0,0,0,0l0,0s0,0,0-.05a.23.23,0,0,1,0-.11.17.17,0,0,1,0-.07s0,0,0-.05v-.05s0,0,0,0,0-.05,0-.08,0,0,0-.06a0,0,0,0,0,0,0,.15.15,0,0,1,0-.09s0,0,0,0h0s0,0,0,0h0v0a.1.1,0,0,0,0,0v0h0a0,0,0,0,1,0-.05s0,0,0,0,0,0,0,0a0,0,0,0,0,0,0,.43.43,0,0,0,0-.05v-.13s0,0,0,0a.17.17,0,0,0,0-.07s0,0,0,0,0-.06,0-.07h0s0,0,0,0V16a.06.06,0,0,1,0,0s0-.05,0-.08l0,0s0,0,0-.06,0,0,0-.05a.21.21,0,0,1,0-.1s0-.06,0-.08.1-.11.12-.2,0-.07,0-.11a.08.08,0,0,0,0-.06s0,0,0-.05.05-.07.08-.09,0-.08,0-.13l.05,0a.08.08,0,0,0,0,0l0,0a.06.06,0,0,0,0,0l0,0a.25.25,0,0,0,0-.09s0,0,0-.06,0,0,0-.06a.31.31,0,0,1,0-.09s0,0,0,0,0-.09.05-.12l.06-.13a.59.59,0,0,0,.06-.14l0-.06a.23.23,0,0,0,0-.07.5.5,0,0,0,.08-.14s0,0,0,0l0,0s0-.05,0-.07,0-.05.05-.07v0s0,0,0,0L19,13.4l0,0s0,0,0,0,0,0,0,0,0,0,0,0,0-.07,0-.08v0s.07-.16.08-.18.12-.24.17-.36a.7.7,0,0,1,.11-.21h0a.07.07,0,0,1,0-.06s0,0,0-.06a.38.38,0,0,1,.06-.13v0l0,0s0,0,0-.07a.61.61,0,0,1,.05-.12.61.61,0,0,0,.07-.14.05.05,0,0,1,0,0v0l0-.08a0,0,0,0,1,0,0s0,0,0,0l0-.07s0,0,0-.07a.24.24,0,0,1,.06-.1s0,0,0-.05a.31.31,0,0,1,0-.1s0-.08.07-.11,0,0,.06,0,0,0,0,0,0-.18.06-.14a.08.08,0,0,1,0-.08l.06,0c-.06,0,0-.09.05-.11h0l0,0s0,0,0-.06a.12.12,0,0,1,.06-.08s0-.08.07-.1,0,0,0,0a.2.2,0,0,1,.06-.11c.05-.07.11-.13.16-.19s0,0,0,0h0l0-.06a.15.15,0,0,1,0-.08L21,9.77s0,0,.05,0a.35.35,0,0,1,0-.08.07.07,0,0,1,0-.05s0,0,0,0,0,0,0,0,0,0,0,0l0,0,0,0,0,0,0,0s0,0,0,0l0,0s0,0,0,0h0v0l0,0s.06-.05.06-.08a.34.34,0,0,1,.1,0s0-.05,0-.07,0,0,0,0l0,0s0,0,0,0,0,0,0,0l0,0s0,0,0,0,0,0,0,0h0s0,0,0,0,.05,0,.07,0a0,0,0,0,0,0,0l0,0s0,0,0-.07a0,0,0,0,1,0,0s0,0,.05,0,0,0,0,0,0,0,0,0,0,0,0,0h.05s0,0,0,0v0h0s0,0,0,0a0,0,0,0,1,0,0h.06v0h0s0,0,0,0h0l0,0a.05.05,0,0,1,0,0V8.58l0,0s0,0,0,0,0,0,0,0,0,0,0,0a.28.28,0,0,0,0-.09s0-.06,0-.08,0,0,.06,0h.08s0-.05,0-.07l0,0,0,0s0,0,0,0h0s0,0,0,0l0,0V8l0,0,0,0s0,0,.05-.06a.56.56,0,0,0,.05-.08s0,0,0,0a.1.1,0,0,0,0,0,0,0,0,0,0,0,0s0,0,0,0l0-.08s0-.06,0-.08l0,0s0,0,0,0V7.34a.22.22,0,0,0,0-.08s0-.06,0-.1,0,0,0,0a0,0,0,0,1,0,0c-.13.13-.13.13-.13.11M15.64,37.53s0,.09,0,.14a.78.78,0,0,0,.05.14l0,.13c0,.05.07.08.07.11s0,0,0,.06,0,0,.06,0l.14.06a1,1,0,0,0,.3.07h.07s0,0,.08,0h.16s0,0,.05,0l.06,0,.12-.06.21-.12.13-.09a.22.22,0,0,1,.11-.1l.12-.07.19-.17s0-.1.09-.07a.17.17,0,0,0,.14,0s0-.12.05-.16,0,.06.09.07h.06a.08.08,0,0,0,0,0,.25.25,0,0,1,0-.11c0-.12-.07-.05-.15-.05s0,0,0,0V37c0-.06.07-.1.09-.16s0-.12,0-.17,0,0,0-.07v-.1a.47.47,0,0,1,0-.17s0-.05,0-.07,0,0,0-.06v0s0-.06,0-.08a.22.22,0,0,0,0-.11.16.16,0,0,1,0-.1s0-.1,0-.08,0-.19-.05-.25a.31.31,0,0,0,0-.17s0-.06,0-.09,0,0,0,0a.34.34,0,0,1,0-.1V35.1s0,0,0-.05h0c0-.06,0-.12,0-.17s0,0,0-.06a.2.2,0,0,0,0-.07,1.09,1.09,0,0,0,0-.17s0,0,0-.08,0-.06,0-.08,0-.12,0-.18,0-.1,0-.15a1,1,0,0,1,0-.17c0-.05,0-.08,0-.13s0-.14,0-.17h0s0-.06,0-.1a.21.21,0,0,1,0-.07c0-.05,0-.1,0-.15a.43.43,0,0,0,0-.16.49.49,0,0,1,0-.17s0-.12,0-.15,0,0,0,0a.78.78,0,0,0,0-.22s0,0,0-.07,0,0,0-.05,0-.09,0-.15v-.14a.86.86,0,0,1,0-.16.4.4,0,0,0,0-.15,3,3,0,0,0,0-.31.85.85,0,0,1,0-.16l.07-.11c0-.05,0-.11,0-.14s0-.1.05-.15,0-.1,0-.16,0,0,0-.06,0-.05,0-.07,0-.07,0-.14a.91.91,0,0,0,0-.17s0,0,0-.06l0,0a.43.43,0,0,1,0-.11c0-.07.06-.11.09-.18a.76.76,0,0,0,0-.11c0-.05-.05-.06-.05-.11a.37.37,0,0,1,0-.12s.05,0,.05-.08,0,0,0,0,0-.09-.06-.12a.43.43,0,0,1-.07-.2.44.44,0,0,1,0-.2s.18,0,.18-.08-.1-.08-.15-.13,0-.16,0-.16h0a.19.19,0,0,1,0-.06l0-.12a.76.76,0,0,0-.08-.21.26.26,0,0,0-.1-.11c-.08-.06-.08-.09-.11-.09s-.08,0-.12,0h-.19a.6.6,0,0,0-.3.06,1.55,1.55,0,0,0-.52.24.5.5,0,0,1-.17.11.33.33,0,0,0-.14.1l0,0a.47.47,0,0,0-.09,0s0,0-.06.06-.1.08-.11.13-.14.12-.18.18a1.38,1.38,0,0,0-.17.25c-.08.17-.14.35-.22.53l-.07.19c0,.05,0,.22-.06.22s0,0,0,0,0,.18,0,.29a2.07,2.07,0,0,0,0,.35c0,.13,0,.24,0,.36s0,.21-.05.32,0,.34,0,.38,0,.06,0,.11,0,.09,0,.13a2.65,2.65,0,0,1,0,.27.32.32,0,0,1,0,.13.33.33,0,0,0,0,.1,1.59,1.59,0,0,1-.06.58s0,.16,0,.19,0,.15,0,.21h0c0,.07,0,.17,0,.24-.14-.09,0,.18,0,.21s0,.1,0,.14,0,.1,0,.16a1.88,1.88,0,0,1-.06.31c0,.11,0,.2-.05.31s0,0,0,.07,0,0,0,0a2.11,2.11,0,0,1,0,.25c0,.2,0,.37,0,.56a.78.78,0,0,1,0,.16,1,1,0,0,0,0,.16.33.33,0,0,1,0,.14.36.36,0,0,0,0,.15c0,.11,0,.2,0,.31v.68c0-.07.07,0,0,.08M19.59,24s0,0,0-.07,0,0,.06,0,.05,0,.06,0,0-.06.05-.06a.15.15,0,0,1,0-.08s0,0,0,0,0,0,0-.05,0,0,0,0,0,0,0,0,0,0,.07-.09,0-.06,0-.09,0,0,0,0,0,0,0,0h0s0,0,0,0,0-.05,0-.05,0,0,0,0v-.06s0,0,0,0a.28.28,0,0,0,0-.18v-.07s-.05-.05-.05-.09,0-.08-.06-.09,0,0,0-.06,0,0,0-.05,0,0,0,0v0l0,0s0,0,0-.06a.07.07,0,0,1,0-.05s0-.08-.07-.06,0,0,0,0l-.07,0h-.06s-.05,0-.06,0,0,0,0,0,0,0,0,0a.17.17,0,0,0-.14,0s-.05,0-.07,0l-.07,0h-.05s0,0,0,0-.06,0-.07,0l-.14.05-.07,0-.07,0-.13.08a.28.28,0,0,0-.09,0l-.07.06-.21.18-.11.1s-.09,0-.11.07a.26.26,0,0,1-.09.09.44.44,0,0,1-.1.08.94.94,0,0,0-.12.18s0,0-.05.05-.05,0-.06.05a.16.16,0,0,0,0,.07s0,0,0,.07a.16.16,0,0,1,0,.06s0,0,0,.05a.06.06,0,0,1,0,0s0,0,0,0,0,.05,0,.09l0,.08s0,0,0,.05,0,0,0,0a.34.34,0,0,0,0,.11s0,.06,0,.09,0,0,0,.05,0,0,0,0,0,0,0,0,0,0,0,.06,0,0,0,0a.07.07,0,0,1,0,0v.07a.25.25,0,0,1,0,.11v0h0s0,0,0,0,0,0,0,.06l.06,0c0,.05,0,.06,0,.11l.06.05,0,0h.05a.12.12,0,0,1,.08,0l0,0a0,0,0,0,1,0,0l.08,0h.06s0,0,.05,0,0,0,0,0h0s.05,0,.08,0,0,0,.08,0h.05a.06.06,0,0,0,0,0s.06,0,.07,0,0,0,0,0,0,0,.06,0,0,0,0-.05.05,0,.08,0,.09,0,.09-.06,0,0,0,0l.06,0h0l0,0s0,0,0,0h0s0,0,0,0,0,0,.07,0l0,0s0,0,0,0H19s0-.05,0-.05a.61.61,0,0,1,.1-.07s.06,0,.09-.05,0,0,0,0,0-.05,0-.06,0,0,.06,0a.13.13,0,0,0,.1-.07s0,0,0,0,.08,0,.08-.06m6.5,1.87a.08.08,0,0,1,0-.07s0,0,0-.06h0s0,0,0-.06l0,0s0,0,0,0h0a0,0,0,0,1,0,0v0s0,0,0,0l0-.06s0,0,0,0l0,0s0,0,0-.07l0-.05,0-.06,0,0a0,0,0,0,0,0,0s0,0-.05-.07a.2.2,0,0,0-.1-.08s0,0-.06,0l-.09,0a.71.71,0,0,0-.17,0h-.07l-.08,0h-.22l0,0a0,0,0,0,0,0,0s0,0,0,0a.15.15,0,0,1-.08,0s0,0-.06,0,0,0,0,0v0s0,0-.05,0,0,0,0-.05h0s0,0,0,0,0,0-.05,0,0,0,0,0a.16.16,0,0,1-.07,0s0,0,0,0h-.06s0,0-.06,0,0,0-.06,0,0,0-.08.07-.08,0-.11,0h0v0c-.05,0-.1,0-.08.05s0,0,.06,0,0,0,0,0l-.13,0c-.07,0-.1,0-.13,0s0,.05-.07.06a1,1,0,0,0-.16.05c-.07,0-.11.06-.18.07l-.06,0-.07,0s-.1,0-.11,0l-.28,0-.12,0-.12,0s0,0,0,0,0,0,0,0h0a1.41,1.41,0,0,1-.22.06l-.18.08-.06,0a.13.13,0,0,1-.08,0L22,26s-.05,0-.07,0,0,0-.06.05l-.07,0s0,0,0,0l0,0-.22.18-.11.11a.76.76,0,0,0-.08.11s0,0,0,0,0,0,0,0,0,0,0,.06,0,.07-.06.12,0,.11-.07.16l-.06.14a.14.14,0,0,0,0,.09.42.42,0,0,0-.06.14.65.65,0,0,1-.05.2c0,.11,0,.22,0,.33s0,.19,0,.29a.66.66,0,0,1,0,.14.12.12,0,0,1,0,.08s0,0,0,.07,0,.07,0,.08v.11a2.35,2.35,0,0,1,0,.27c0,.11,0,.21,0,.32s0,.06,0,.08,0,.05,0,.07,0,.11,0,.16,0,.12,0,.17a1.08,1.08,0,0,1,0,.18c0,.06,0,.11,0,.17a.9.9,0,0,1,0,.16,1.1,1.1,0,0,0,0,.18v.1s0,0,0,.07,0,.09,0,.12v.1l0,0s0,0,0,0a.07.07,0,0,1,0,.05s0,0,0,.08a.44.44,0,0,1-.05.15c-.06,0-.05.15,0,.15s0,.06,0,.07,0,.07,0,.09-.06.22,0,.2,0,.08,0,.09-.05,0-.05.07,0,.06,0,.09,0,.09,0,.14a.07.07,0,0,1,0,.06s0,0,0,0,0,0,0,0a.64.64,0,0,0,0,.07.11.11,0,0,0,0,.07.27.27,0,0,0,0,.09s0,.06,0,.08a.27.27,0,0,1,0,.09s0,0,0,.07,0,0,0,.06,0,.05,0,.06a.25.25,0,0,1,0,.17h0a.16.16,0,0,1,0,.15s0,0,0,.06,0,.07,0,.1,0,.11,0,.15a.47.47,0,0,1,0,.17s-.05.08-.05.14a.22.22,0,0,1,0,.08.11.11,0,0,0,0,.08s0,0,0,.09,0,.06,0,.09a.33.33,0,0,0,0,.17,1,1,0,0,1,0,.17,1,1,0,0,0,0,.17,1.09,1.09,0,0,0,0,.18c0,.05,0,.12,0,.17s0,0,0,.06a.15.15,0,0,0,0,.07.19.19,0,0,1,0,.08.06.06,0,0,0,0,0l0,0s0,0,0,0a.17.17,0,0,0,0,.05s0,0,.06.07l0,0s0,0,0,0,0,0,0,0,0,0,0,0l0,0h0v0s.05,0,.07,0l.09,0s.09,0,.12,0a.44.44,0,0,0,.16,0h.13c.05,0,.08,0,.13-.05s.09,0,.1,0h.06s.12,0,.15,0l.13-.07.06,0h0l0,0a0,0,0,0,0,0,0l0,0,.06,0s0,0,.07,0,0,0,.05,0,0,0,.05,0a.1.1,0,0,1,0,0s.07,0,.08,0,0,0,0-.06l0,0,.15-.14s0,0,0-.05,0,0,.05,0,.05-.09.08-.14l.07-.12a.29.29,0,0,0,0-.13s0-.12.06-.12v-.05l0,0a.31.31,0,0,0,0-.11.58.58,0,0,0,0-.19c0-.06,0-.12,0-.18a.86.86,0,0,0,0-.16s0,0,0-.07,0,0,0-.07,0-.1,0-.15.05-.06.05-.09a.25.25,0,0,0,0-.12.35.35,0,0,1,0-.11s0,0,0,0,0,0,0,0,0-.11,0-.15a.81.81,0,0,1,0-.15v-.31s0,0,0-.07-.05,0,0-.06,0-.06,0-.07,0-.06,0-.09v-.17c0-.05,0-.12,0-.17a1,1,0,0,0,0-.17.12.12,0,0,1,0-.08.13.13,0,0,1,0-.09c.06,0,0-.08,0-.12a.86.86,0,0,1,0-.16s.05-.07.05-.12,0,0,0-.06a.17.17,0,0,1,0-.07.86.86,0,0,1,0-.16.83.83,0,0,0,0-.13l0,0a0,0,0,0,0,0,0s0,0,0,0h0s0-.06,0-.08,0-.06,0-.09,0,0,0-.07,0,0,0-.05l0,0s0-.08,0-.09,0,0,.06,0,0,0,.05,0h0s0,0,0,0,0,0,0-.07a.15.15,0,0,0,0-.07s0-.05,0-.08,0-.05,0-.07,0-.06,0-.07.07,0,.09-.08,0,0,0-.07a.22.22,0,0,1,0-.08.28.28,0,0,1,0-.09s0,0,.06,0-.05,0-.05,0,0-.06,0-.07.09,0,.1-.09a.13.13,0,0,1,0-.08.16.16,0,0,1,0-.1.16.16,0,0,1,.05-.08s0-.08.06-.08,0-.05,0-.07a.15.15,0,0,1,.05-.07.58.58,0,0,1,.1-.12,1,1,0,0,1,.08-.11.94.94,0,0,0,.09-.12,1.1,1.1,0,0,0,.09-.14s.06,0,0-.07,0,0,0,0l0,0h0l.06,0,.05,0,0,0s0,0,0,0,0,0,0,0,0,0,0,0,0,0,0,0l.05,0h0l.09-.06s.07,0,.07-.08a.13.13,0,0,0,.1-.06.9.9,0,0,0,.1-.09s0,0,.05,0,0,0,0,0h0l.05,0,.06,0a1.48,1.48,0,0,1,.13-.08l.08-.08s0,0,0,0,0,0,0,0l.07,0c.06,0,.08-.16.17-.17a.73.73,0,0,1,0-.12.13.13,0,0,1,0-.06s0,0,0,0,0-.05,0-.06,0,0,0-.06a.33.33,0,0,0,0-.15c-.06,0,0-.13,0-.17A.19.19,0,0,1,26,26c.1-.06.1-.1.1-.14m11.69-6.75-.11.1s0,0,0,0,0,0,0,0,0,0,0,0,0,0,0,0,0,0,0,0l-.08.08-.08.09s0,.06,0,.07a0,0,0,0,0,0,0s0,.05,0,.06,0,0,0,0,0,0,0,.06a.73.73,0,0,0-.08.09s0,0,0,0-.05.06,0,.07,0,0,0,0l0,0s0,0,0,0h0v0s0,0,0,0,0,0,0,0,0,0,0,0,0,0,0,.06,0,0,0,0a.13.13,0,0,0,0,.05v.05h0l0,.07a1.27,1.27,0,0,1,0,.14h0s0,0,0,.05a.28.28,0,0,1,0,.09,0,0,0,0,0,0,0s0,0,0,0,0,0,0,0,0,0,0,0,0,0,0,0,0,0,0,0,0,0,0,.05v.11a.43.43,0,0,0,0,.07s0,0,0,0v.07s0,0,0,0a.2.2,0,0,0,0,.07.22.22,0,0,0,0,.08v.09s0,0,0,0,0,0,0,0h0s0,0,0,0,0,0,0,.05,0,0,0,0h0v0s0,0,0,0,0,0,0,.06a.1.1,0,0,1,0,0v.05h0s0,0,0,0h0v0a.57.57,0,0,1,0,.13s0,.07,0,.09,0,0,0,.05v.07h0s0,0,0,0v0s0,.09,0,.1,0,.07,0,.08v.11s0,0,0,0h0s0,0,0,0h0s0,0,0,0h0s0,0,0,0,0,0,0,0h0s0,0,0,0v0a.06.06,0,0,0,0,0s0,0,0,.05h-.05s0,0,0,0a0,0,0,0,0,0,0s0,.08,0,.1,0,0,0,.06V23s0,0,0,0v.11s0,.06,0,.06h0s0,0,0,0v0h0a0,0,0,0,0,0,0v.07a.54.54,0,0,1,0,.08v.11a0,0,0,0,1,0,0s0,0,0,0,0,0,0,0,0,0,0,0v0a0,0,0,0,1,0,0l0,0s0,0,0,0,0,0,0,0V24s0,.07,0,.09a0,0,0,0,0,0,0v0a0,0,0,0,1,0,0v0a0,0,0,0,1,0,0v0s0,0,0,0h0s0,.08,0,.08a.92.92,0,0,0,0,.16s0,0,0,0,0,0,0,0,0,0,0,.05a.53.53,0,0,0,0,.12,1,1,0,0,0,0,.18.26.26,0,0,0,0,.09s0,.08,0,.1,0,.15,0,.15,0,0,0,.05,0,0,0,0,0,0,0,.05,0,.15,0,.17v.06s0,0,0,0,0,0,0,0,0,.06,0,.06,0,0,0,0l0,0h0s0,0,0,0,0,0,0,.07v.08a1.7,1.7,0,0,1,0,.28.51.51,0,0,0,0,.17,1.28,1.28,0,0,1,0,.19,1.09,1.09,0,0,0,0,.17.65.65,0,0,1,0,.2s0,.06,0,.08v.08a1.59,1.59,0,0,1,0,.29,1.21,1.21,0,0,0,0,.19s0,.06,0,.09a.32.32,0,0,0,0,.16.78.78,0,0,1,0,.14.2.2,0,0,0,.06.11.58.58,0,0,0,.12.1s.08,0,.08.06l.16,0a.62.62,0,0,0,.17,0,.44.44,0,0,0,.2,0l.26-.08s.23-.12.26-.15l.16-.08h0s0,0,0,0,.06,0,.09,0l.12-.1s.06,0,.07,0l0,0s0,0,.05,0,.06-.07.1-.11a.77.77,0,0,1,.13-.12.42.42,0,0,0,.15-.17.5.5,0,0,1,.08-.12.15.15,0,0,0,0-.1s0,0,.07,0a.09.09,0,0,0,0-.11c0-.05,0-.09,0-.13s0,0,0,0,0,0,0,0,0-.06,0-.06,0,0,0-.06,0,0,0-.06,0,0,0,0,0,0,0,0,0-.05,0-.06,0-.05,0-.09l-.05-.05a.12.12,0,0,1,0-.08,1.09,1.09,0,0,1,0-.18,1.2,1.2,0,0,0,0-.19v-.07h0s0,0,0,0,0,0,0,0,0,0,0,0,0,0,0,0,0-.11,0-.16,0-.06,0-.1a1.85,1.85,0,0,1,0-.29.37.37,0,0,1,0-.18s0,0,0-.05,0,0,0,0v-.06a.64.64,0,0,1,0-.07s0,0,0,0v0s0,0,0,0,0,0,0,0l.11.06s0,0,0,0,0,0,0,0v0s0,0,0,0l0,0s0,0,0,0,0,0,0,0a0,0,0,0,0,0-.05,0,0,0,0,1,0,0h0s0,0,0,0h0s0,0,0,0,0,0,0-.05l0,0s0,0,0,0,0,0,0,0l0,0s0,0,0,0,0,0,0,0h0s0,0,0,0a.43.43,0,0,0,0-.05s0,0,0,0,0,0,0,0l0,0,0,0s-.06,0-.07,0,0,0,0,0v-.05s0,0,0,0a0,0,0,0,0,0-.05s0-.07,0-.08,0,0,0,0h0s0,0,0,0a.12.12,0,0,1,0-.11s0,0,.05,0h0s0,0,0,0,0,0,0,0,0,0,0,0,0-.05.06,0,0,0,0,0a0,0,0,0,0,0,0s0,0-.05-.05a.07.07,0,0,1,0-.08l0,0v-.05s0,0,0,0a.06.06,0,0,1,0-.05s0,0,0,0,.05,0,0,0,0,0,0,0,0,0,0,0h0s0-.09,0-.11,0,0,0,0,0,0,0,0,0,0,0,0,0,0,0,0,0,0,0,0,0,0,0,0,0,0,0,0,0,0,0,0,0,0,0,0,0,0,0,0,0,0,0,0l0,0s0,0,0,0h0s0,0,0,0a.27.27,0,0,1,0-.09v0s0,0,0,0a0,0,0,0,1,0,0h0s0,0,0,0,0,0,0-.07,0,0,0,0,0,0,0,0,0,0,0,0h0l0,0a0,0,0,0,1,0,0s0-.07,0-.09,0,0,0-.07,0-.06,0-.08v0s0,0,0,0v0s0,0,0,0l0,0h0s0,0,0,0v0s0,0,0,0,0,0,0,0a0,0,0,0,0,0,0h0s0,0,0,0h0l0,0h0s0,0,0,0a0,0,0,0,1,0,0h0s0,0,0,0v-.27s0,0,0,0,0,0,0,0,0,0,0,0,0,0,0,0h0v0s0,0,0-.05,0-.06,0-.08h0s0,0,0,0h0s0,0,0,0,0,0,0,0,0,0,0,0l0,0a.08.08,0,0,1,0,0h0s0,0,0,0,0,0,0,0,0,0,0,0v0s0,0,0,0,0,0,0,0,0,0,0,0h0s0,0,0,0h0s0,0,0,0a0,0,0,0,0,0,0s0,0,0,0v0l0,0h-.06s-.07,0-.06,0v0h0a0,0,0,0,1,0,0h0s0,0,0,0v0s0,0,0,0,0,0,0,0,0,0,0,0h0v0s0,0,0,0,0,0,0,0v0s0,0,0,0,0,0,0,0h0v0h0s0,0,0,0,0,0,0,0h0l0,0s0,0,0,0V20.5a0,0,0,0,1,0,0s0,0,0,0h0s0-.05,0-.05,0,0,0,0,0,0,0,0h0s0,0,0,0a0,0,0,0,1,0,0s0,0,0,0v0a0,0,0,0,0,0,0,0,0,0,0,1,0,0s0,0,0,0l.06-.05s0,0,0,0,0,0,0,0h0v0s0,0,0,0h0s0,0,0,0h0s0,0,0,0,0,0,0,0h0s0,0,0,0,0,0,0,0,0,0,0,0v-.05l0,0a.07.07,0,0,0,0,0,0,0,0,0,0,0,0s0,0,0,0V19.7s0,0,0,0v0s0,0,0,0,0,0,0,0v0h0a.1.1,0,0,0,0,0l0,0v0h0s0,0,0,0v0s0,0,0-.06,0,0,0,0h0s0,0,0,0a0,0,0,0,0,0,0s0,0,0,0,0,0,0,0h0s0,0,0,0h0s0,0,0,0,0,0,0,0h0v0a0,0,0,0,1,0,0h0v0h0a0,0,0,0,1,0,0s0,0,0-.05v0s0,0,0,0h0s0,0,0-.05,0,0,0,0v0h0v0h0l0,0a0,0,0,0,1,0,0H39s0,0,0,0,0,0-.06,0h-.34s0,0,0,0,0,0,0,0h-.07s0,0,0,0h-.1s0,0,0,0,0,0,0,0a.06.06,0,0,0,0,0,0,0,0,0,1,0,0h0s0,0,0,0,0,0,0,0S38,19,38,19s-.09.06-.09.07l-.17,0m2.61-4.26v-.08a0,0,0,0,0,0,0v0s0,0,0,0,0-.08,0-.11V14.5s0,0,0-.05l0,0s0,0,0,0l0,0s0,0,0-.06,0,0,0,0a.05.05,0,0,1,0,0h0a.13.13,0,0,1-.11,0l-.06,0h-.05s0,0,0,0,0,0,0,0h-.36s0,0,0,0,0,0,0,0a.06.06,0,0,0,0,0,.18.18,0,0,1-.11,0l-.1,0a.06.06,0,0,0-.05,0l0,0-.1,0,0,0a.25.25,0,0,1-.09,0h0l0,0a0,0,0,0,0,0,0h0s0,0,0,0l0,0h0l0,0v0s0,0-.05,0l0,0-.08.06,0,0-.05,0,0,0s0,0,0,0l0,0v.05s0,.05-.07.07,0,0,0,0l0,0,0,0s0,0,0,0a.29.29,0,0,0-.06.11.14.14,0,0,0,0,.06s0,.13,0,.11,0,.05,0,.06v0s0,0,0,0,0,.05,0,.06,0,.06,0,.08,0,.05,0,.06a.15.15,0,0,0,0,.06s0,.08,0,.11,0,0,0,.09,0,.07,0,.12a.35.35,0,0,1,0,.11.13.13,0,0,0,0,.06.05.05,0,0,1,0,0c0,.07.09.09.15.14s0,.05.09.05a.15.15,0,0,1,.11,0c.06.05.14,0,.2.05l.16,0c.05,0,.06,0,.11,0h.05l0,0h.1l0,0s.13,0,.16-.08,0-.05.08-.06l.1,0s0,0,0-.05l0,0,.11-.06a.67.67,0,0,0,.19-.16.28.28,0,0,0,.06-.09l.06-.09s0-.06.06-.08a.41.41,0,0,1,.12-.11.5.5,0,0,0,.08-.12s.06,0,.09-.06a.09.09,0,0,0,0-.05.09.09,0,0,1,0,0l0,0s0,0,0,0l0,0s0,0,0,0,0,0,0,0v0s0-.07,0-.09a.42.42,0,0,0,0-.1c0-.05,0-.07,0-.1m14.49,7.87-.06,0a.27.27,0,0,1,0-.09s0,0-.07,0,0-.05.06-.07,0,0,0,0,0,0,0,0,0,0,0,0,0,0,0,0,0,0,0,0,0,0,0,0,0,0,0-.06,0,0-.05-.05v0s0,0,0,0a.15.15,0,0,1,0-.07s0,0,0-.06,0,0,0-.05,0,0,0-.06,0,0,0-.06l0-.06a.16.16,0,0,0,0-.06l0,0h0s0,0,0,0,0,0,0-.05,0,0-.07,0,0,0,0,0a.16.16,0,0,1-.1,0s0-.06,0-.07,0,0-.06,0,0,0,0,.05a.18.18,0,0,1-.1,0s-.07,0-.11,0l-.1,0s-.06,0-.09,0-.07,0-.1,0h-.42a.22.22,0,0,1-.08,0H53l-.15,0-.14.05s0,0-.05,0l-.29.11s-.1.05-.12.08l0,0,0,0h0s-.06.05-.09.06h0s-.09,0-.12.07-.08.05-.13.06l-.12.06a.6.6,0,0,1-.16.08s0,0-.06,0,0,0,0,0,0,0-.06,0-.08,0-.06.06h0s-.06,0-.1.06l0,0s0,0,0,0-.08,0-.1,0,0,0,0,0,0,0,0,0a.08.08,0,0,0-.06,0l-.05,0h-.06l-.09,0-.06,0a.84.84,0,0,1-.14.06l-.14.08h-.06s-.1,0-.12.06a1.31,1.31,0,0,0-.15.05,1,1,0,0,1-.31.08h-.11l-.1,0v0a.21.21,0,0,1-.1-.06c0-.05,0-.08,0-.11s-.07,0-.1,0-.05,0-.05,0l0,0s0,0,0,0,0,0,0,0,0-.05,0-.08v-.09s0-.05-.05,0a0,0,0,0,1-.06,0s0,0,0-.05h0s0,0,0,0,0,0,0,0a.12.12,0,0,0,.1-.1s0,0,0-.07l0,0s0,0,0,0-.05,0-.06,0S49,22,49,22s0-.09,0-.11H49s-.06,0-.06,0,0,0,0,0a0,0,0,0,0,0,0s0,0,0,0a.19.19,0,0,0,0-.08s0,0,0-.07,0-.05,0-.06,0,0,.07,0,0,0,0-.07,0,0-.06,0-.09-.09-.05-.12.06,0,.07,0,0,0,0,0,0,0,0,0,.06,0,.07,0v-.06s0-.06,0-.05,0,0,0,.06-.06,0-.06,0,0,0,0,0,0,0,0,0a.22.22,0,0,1,0-.08s0-.05,0,0,0,.06,0,0,0-.1,0-.13v-.06s0,0,0-.05,0,0,0-.05,0,0,0-.05,0-.06,0,0,0,.05,0,.07,0,0,0,0,0,0,0,0l0,0,0-.05s0,0,0,0,0,0,0-.05.05,0,.07-.06,0-.05,0-.07-.07,0-.1,0,0,0,0,0,0,0,0,0,0,0,0,0,0,0,0-.05.06,0,.08,0,0,0,0,0,0,0,0-.08V20l0,0s0,0,0,0,0,0,0,0,.07,0,.09,0,0,0,0-.06,0-.05,0-.07,0,0,0,0,0-.07,0-.11,0-.13,0-.2,0-.13,0-.19v-.19a.74.74,0,0,1,0-.21s0-.05,0-.07,0,0,0,0a.49.49,0,0,1,0-.12s.06,0,.09,0,.07,0,0,0,0,0-.06,0,0,0,0,0,0,0,0,0,0-.07,0-.1,0,0,.05,0a.09.09,0,0,0,.08-.05c0-.05,0,0,0-.05a.07.07,0,0,1-.07-.06.36.36,0,0,1,0-.18h.06s0,0,0,0,0,0,.05,0v0a0,0,0,0,0,0,0s0,0,0-.07a.2.2,0,0,0,0-.09s0,0,0-.07,0,0,0,0,0,0,0-.05.06,0,0,0-.06,0-.06,0,0,0,0,0,0-.05,0-.06,0,0,0-.05a0,0,0,0,1,0-.05s0,0,.06,0,0,0,0-.05,0,0-.07,0a.22.22,0,0,1,0-.16.13.13,0,0,0,0-.07s0,0,0,0,0,0,0,0-.08.05-.1.07,0,0-.07,0a.11.11,0,0,1,0-.08s0,0,0,0,0-.05,0-.06,0,0,0-.06v-.1a.34.34,0,0,1,0-.17l0-.06s0,0,0,0h.06s0,0,0,0,0,0,0,0,0,0,0,0,0,0,0,0,0,0,0-.06,0-.07,0-.11,0,0,0-.06,0,0,0,0-.06,0-.08,0,0-.06,0-.1,0,0-.05-.06a.54.54,0,0,1,0-.18s.08,0,.1,0,0-.1-.08-.11l-.08,0s0-.06,0-.08,0-.09,0-.14,0-.06,0-.07,0,0-.06,0,0-.07,0-.12,0,0,0-.06l-.06-.06s0,0,0-.06,0,0,0-.07-.06,0-.07,0-.08-.08-.09-.11l-.07-.06s-.06,0-.06-.06a3.21,3.21,0,0,0-.33-.12l-.16,0h-.38a.72.72,0,0,0-.19,0l-.06,0h-.08a.16.16,0,0,0-.1,0l-.09,0L47,15l-.06.05a.27.27,0,0,0-.11.05l-.15.07a2.61,2.61,0,0,0-.28.17.67.67,0,0,0-.14.09s-.1,0-.12.08a.36.36,0,0,0,0,.07.19.19,0,0,1-.07.06.8.8,0,0,0-.13.13l-.08.1s0,0-.07,0l-.07.05c-.06.06-.16.12-.2.22s0,0,0,0,0,0,0,.05,0,0-.06,0,0,.07-.07.1a.24.24,0,0,1-.11.09l-.06,0,0,.05a.32.32,0,0,1-.12.08s-.09,0-.14.06l-.08,0-.08,0a.11.11,0,0,1-.07,0,.33.33,0,0,1-.1,0c-.06,0-.09,0-.15,0h-.07s0,0-.08,0-.09,0-.12,0,0,0-.05-.05a.06.06,0,0,0-.06-.05.08.08,0,0,1-.07,0,.33.33,0,0,0-.17,0l-.07,0s0,0-.05.05a.31.31,0,0,1-.19,0,.55.55,0,0,0-.18,0,2.2,2.2,0,0,0-.37.05.49.49,0,0,0-.16.06l-.08,0h0c-.06,0-.1.07-.16.09a.44.44,0,0,0-.15.08l-.08.06s0,0,0,0h0s0,0,0,0h0s0,.06-.07.08-.09.09-.14.14-.06.09-.09.12l-.08.12a1,1,0,0,0-.08.14s-.06.1-.07.14a.94.94,0,0,1-.06.15,1.21,1.21,0,0,0-.11.32.63.63,0,0,0,0,.19v.18c0,.12,0,.24,0,.37a1,1,0,0,1,0,.3,1.77,1.77,0,0,0,0,.23c0,.07,0,.15,0,.22a.78.78,0,0,1,0,.22.2.2,0,0,0,0,0s0,0,0,0a.43.43,0,0,1,0,0s0,0,0,.05,0,.15,0,.23a1.69,1.69,0,0,0,0,.23c0,.09,0,.16,0,.23v.05s0,0,0,0,0,.06,0,.11a.41.41,0,0,1,0,.11v.12a.33.33,0,0,0,0,.14s0,.05,0,.07a.17.17,0,0,0,0,.13.22.22,0,0,1,0,.08s0,.06,0,.09,0,0,0,0,0,0,0,.05,0,.09,0,.14,0,.08,0,.11a2.18,2.18,0,0,1,0,.25c0,.07,0,.15,0,.24a.15.15,0,0,1,0,.06s0,0,0,.06,0,.11,0,.16a.5.5,0,0,1,0,.16.28.28,0,0,1,0,.08s0,.06,0,.09h0s0,.1,0,.13,0,.11,0,.12l0,0v.12s0,.05,0,.07,0,.06,0,.09a.37.37,0,0,0,0,.11c0,.08,0,.17,0,.24s0,.07,0,.11,0,.07,0,.11a.2.2,0,0,1,0,.05.1.1,0,0,0,0,.06.23.23,0,0,1,0,.11.49.49,0,0,0,0,.13V25s0,.05,0,.08,0,0,0,.05a.45.45,0,0,0,0,.12s0,.06,0,.08v.1a.85.85,0,0,0,0,.22h0v0l0,.05a.51.51,0,0,0,0,.1.26.26,0,0,0,.15.14.36.36,0,0,0,.2.11l.09,0h.12a1.41,1.41,0,0,0,.21,0,1.85,1.85,0,0,0,.23,0l.22-.08s0,0,.08,0a.15.15,0,0,1,.1,0s0,0,.07-.06h0l.05,0,.15-.06a.12.12,0,0,0,0-.05l.07,0s0,0,0,0h.05s0,0,0,0l0,0a.13.13,0,0,0,0-.09h0s.1,0,.07,0h0c0-.06.09-.05.11-.08s0-.09,0-.11,0,0,0,0,0,0,0,0h0s0,0,0,0,0,0,0,0,0,0,0-.05,0,0,0,0V25s0,0,0,0v-.05c.1,0,0,0,0-.07l.07-.05,0,0s0,0,0,0,0,0,.08,0,0-.08,0-.13,0,0-.06-.08a.15.15,0,0,1,0-.11c0-.05,0-.07,0-.12s0,.11.08.12,0,0,0-.06,0,0,0-.07,0,0,0,0,0,0,0,0,0,0,0-.08,0-.06,0-.07,0,0,0,0,0,0,0,0,.07-.06.07-.1,0-.07,0-.07-.06,0,0,0-.12,0-.1,0,.09,0,.11,0v-.05s0,0,0,0,0,0,0-.07,0-.05,0-.08,0,0,0,0,0,0,0-.06,0,0,.07-.05a.09.09,0,0,0,0-.11s0,0,0,0h0s0,0,0,.05,0,0,0,0,0,0,0-.06,0,0,0,0a.64.64,0,0,0,0-.09V23a.55.55,0,0,1,0-.18v-.15s0-.1,0-.13,0,0,0-.05V22.4s0,0,0,0,0,0,.06,0,0,0,0-.07,0,0,0,0,0,0,0,0,0-.06,0-.09,0-.07.05-.07,0,0,0,0,0,0,0,0,0-.1,0-.07,0,.09,0,.13a.07.07,0,0,0,.07,0l.07,0c.05,0,0,0,0-.05a.05.05,0,0,1,0,0s0,0,0-.06,0-.06,0-.07,0,0,0-.05,0,0,0,0a.19.19,0,0,1,0-.08s0,0,0,0h0s-.09-.05-.1-.1,0,0,0,0,0,0,0-.06h0s0,0,0-.07l.08,0s.06,0,0,0,0,0,0-.09.16,0,.1-.07,0,0,0,0,0,0,.07,0,0-.06.07-.1,0-.06,0-.1,0,0,0-.05-.05,0-.06-.06,0,0,0-.06,0,0,0-.06,0,0,0-.07,0,0,0-.06a.11.11,0,0,1,.08-.09s.11,0,.13,0,0,0-.05-.05H43.9s.1,0,.11-.05,0,0,0-.05,0,0,0-.06,0,0,0,0,0,0-.07,0-.11,0-.07-.07,0,0,0,0h0s0,0,0-.06.12,0,.06.05a0,0,0,0,0,0,0l0,0s.07-.05.05-.09-.07,0-.08,0,0-.06,0-.09.05,0,.05-.05,0-.05,0-.07,0,0,0,0v-.15s0-.06,0-.08,0,0,0-.08,0,0,0,0,0,0,.05,0,0,0,0,0v0s0,0,0,0a.22.22,0,0,0,0-.08.11.11,0,0,0,0-.07c0-.06,0-.11,0-.17s0-.05,0-.06l.08,0a.36.36,0,0,0,.12-.08.17.17,0,0,0,0-.15s-.06-.05-.05-.06,0,0,0,0,0,0,0,0,0,0,0,0l.07-.08a.49.49,0,0,1,.14-.11l.06-.05.06,0s0-.11.05-.15a.3.3,0,0,0,.11-.07s0,0,0,0,0,0,0-.05a.11.11,0,0,1,0-.05l.06,0a.08.08,0,0,1,.07,0c.08,0,.08-.09.13-.12s0,0,.05,0,.06,0,.08,0l.07-.06s.06,0,.08,0a.27.27,0,0,1,.14-.07c.05,0,.1,0,.13,0a.11.11,0,0,1,.08,0h.05s0,0,0,0h0s0,0,0,0,.11,0,.17,0a.39.39,0,0,1,.27.18s0,0,0,.08,0,0,0,.06l0,0s0,0,0,0,0,.05,0,.09,0,.24,0,.36,0,.28,0,.42,0,.12,0,.18,0,0,0,.07,0,0,0,0,0,0,0,0h0a.5.5,0,0,1,0,.17c0,.06,0,.11,0,.17s0,.24,0,.38v.06c0,.05,0,.09,0,.14a.19.19,0,0,1,0,.08s0,0,0,0,0,0,0,0a.27.27,0,0,0,0,.09h0s0,.06,0,.08,0,0-.05.05,0,.06,0,.1,0,0,0,0,0,0,0,0,0,.08,0,.1,0,0,0,0,0,0,0,.05a.27.27,0,0,1-.05.15.19.19,0,0,0,0,.07s0,.06,0,.09a.59.59,0,0,1,0,.2c0,.06,0,.09,0,.14a.61.61,0,0,1,0,.17.33.33,0,0,1,0,.19s0,.12,0,.17v.19a.25.25,0,0,1,0,.09v0l0,0a.22.22,0,0,0,0,.11c0,.05-.05.07,0,.12a.25.25,0,0,1,0,.07.28.28,0,0,1,0,.09.22.22,0,0,0,0,.08s0,.05,0,.09a1,1,0,0,1,0,.17,2,2,0,0,0,0,.35,1,1,0,0,1,0,.18.45.45,0,0,0,0,.16s0,.06,0,.09,0,0,0,.07l.05.05s0,.05,0,.07,0,.06,0,.09l.07.07a.5.5,0,0,0,.1.11l.07.05.05,0a.55.55,0,0,0,.15.08s0,0,.06.07a.09.09,0,0,1,0,.07l-.06,0s-.06.05-.1.06H47l-.17.11-.12.07s-.07,0-.12.08,0,0-.07,0,0,0-.07.05l-.06,0s0,0-.07,0a1.14,1.14,0,0,1-.19.1,2.49,2.49,0,0,0-.28.15c-.21.12-.41.25-.62.36l-.16.07a.13.13,0,0,1-.09.05s-.05,0-.06,0a1.82,1.82,0,0,1-.31.16.19.19,0,0,0-.12.07h0s-.06,0-.07,0l-.08,0-.2.11h0l-.1.07-.09.06s-.07,0-.08,0a2.91,2.91,0,0,0-.3.17,1.64,1.64,0,0,0-.29.16s0,.05-.06.05h0s0,0,0,0,0,0-.07,0l-.07,0-.29.17c-.1.06-.21.1-.31.17l-.15.1-.14.08a1.3,1.3,0,0,0-.26.14.59.59,0,0,1-.14.06c-.07,0-.07.06-.12.08a.07.07,0,0,1-.06,0s0,0-.07,0a.61.61,0,0,1-.14.1A2.82,2.82,0,0,0,41,28l-.1.07-.1,0-.06,0-.07,0-.06.05s0,0-.06,0l-.07.05s0,0-.07,0,0,.05-.05.06,0,0,0,0a.05.05,0,0,0,0,0l0,0h0a0,0,0,0,0,0,0h0a.16.16,0,0,0-.11.08.1.1,0,0,1-.07,0l-.06,0-.07,0s0,0-.06,0-.09,0-.09.05,0,0,0,0,0,0,0,0-.06.09-.11.1,0,0-.06,0l0,.05a.25.25,0,0,1-.12.07l-.15.06-.15.07a.55.55,0,0,0-.15.08s-.08,0-.12.07,0,0-.07.06l0,0-.12.07a.61.61,0,0,1-.14.1l-.11.05s-.09,0-.11.06h0l-.14.1-.14.07c-.06,0-.08.06-.13.08s-.06.05-.09.05-.05,0-.07,0l-.09.06s-.1.05-.1.07h0c-.12.05-.24.15-.37.21s-.24.16-.37.23-.45.27-.68.41l-.42.27-.07.06h-.08s0,0-.06.05l-.08.05-.14.07s-.1,0-.15.09l-.07,0-.07,0a.43.43,0,0,1-.13.09l-.06,0s0,0-.05,0,0,0-.06,0l-.07,0,0,0h0s0,0-.05.05h0s0,0,0,0,0,0-.06,0-.12.06-.15,0h0s0-.08,0-.12,0,0,0-.06,0,0,0-.07a.07.07,0,0,0,0-.07s0,0,0-.06a.27.27,0,0,0,0-.15.14.14,0,0,1,0-.14s0-.1,0-.15a.41.41,0,0,1,0-.16c0-.05,0-.11,0-.16a.12.12,0,0,0,0-.07v0s0,0,0,0,0,0,0,0,0,0,0-.06,0,0,0-.05,0,0,0,0,0,0,0,0-.06-.05,0-.09a.21.21,0,0,0,0-.12c-.07,0,0-.05,0-.08s0-.12,0-.14h0s0,0,0-.05,0,0,0-.06a.31.31,0,0,0,0-.12s0,0,0-.06,0,0,0-.07v0s0,0,0,0,0,0,0-.06-.05,0-.05-.07v-.29s0,0,0,0,0,0,0,0,0,0,0-.06a.93.93,0,0,0,0-.1.79.79,0,0,0,0-.22V28.8s0,0,0-.06a0,0,0,0,0,0,0s0,0-.07,0,0-.06,0-.09,0-.11,0-.17,0-.11,0-.16.05-.08,0-.14,0-.05,0-.07a.11.11,0,0,0,0-.11c0-.09,0-.16,0-.25a2,2,0,0,1,0-.23s0-.07,0-.11V27.3s0-.05,0,0h0s0-.08,0-.11a.81.81,0,0,0,0-.16v-.17s0-.13,0-.13a4.4,4.4,0,0,1,0-.51c0-.16,0-.31,0-.47a.69.69,0,0,1,0-.13v-.12c0-.07,0-.16,0-.24a.37.37,0,0,1,0-.11s0,0,0-.05,0,0,0,0,0-.05,0-.07,0-.06,0-.09,0-.06,0-.11,0-.07,0-.1,0-.14,0-.21.15-.05.07-.09,0,.07-.06,0,0-.06,0-.09,0-.08,0-.09h0s0-.07,0-.1,0-.05,0-.05,0,0,.05,0a.11.11,0,0,0,0-.08s0,0,0,0,0,0,0,0,0,0,0,0,0-.05,0-.08a.64.64,0,0,0,0-.07s0,0,0-.07a.07.07,0,0,0,0-.07s0,0,0-.06.1-.07.06-.13,0,0,0-.07,0,0,0-.06,0,0,0-.06,0-.06,0-.08,0-.15,0-.16a.06.06,0,0,0,0-.09.08.08,0,0,1,0-.07s0-.06,0-.06,0-.06,0-.09,0,0,.06,0,0,0,0-.05,0,0-.06-.05,0-.08,0-.12,0,0,0-.07,0,0,0,0,0,0,0-.06,0,0,0-.07,0-.06,0-.09v-.08s0-.06,0-.07.05,0,0-.07,0,0,0-.06,0,0,.07,0,0,0,0,0-.06,0-.08,0,0,0,0-.05a.09.09,0,0,0-.05-.12s0,0,0-.05l0-.06s-.08-.06-.1-.11a.51.51,0,0,0-.3-.15.46.46,0,0,0-.2-.05h-.21a.71.71,0,0,0-.38,0,.84.84,0,0,0-.14.06l-.07,0H33.1a.06.06,0,0,0,0,0s-.07.05-.09,0,0,0,0,0-.06,0-.1.07a.3.3,0,0,0-.1.07l-.09.09s-.08.07-.08.11h0s0,0,0,0,0,0,0,.06v0s0,0,0,0a.56.56,0,0,0-.07.16s0,.05,0,.08a.24.24,0,0,0,0,.08c0,.05,0,.11,0,.17a1,1,0,0,0,0,.17.48.48,0,0,1,0,.12s0,.05,0,.07a1.09,1.09,0,0,0,0,.18.83.83,0,0,0,0,.22v.12a.4.4,0,0,0,0,.11.45.45,0,0,1,0,.16s0,0,0,0,0,0,0,0,0,0,0,.06,0,.13,0,.19a.28.28,0,0,1,0,.08s0,0,0,.07,0,0,0,0,0,0,0,0v.08a1.34,1.34,0,0,0,0,.2,1,1,0,0,1,0,.17.86.86,0,0,0,0,.17s0,.06,0,.08a.2.2,0,0,0,0,.07,1.55,1.55,0,0,0,0,.21.28.28,0,0,1,0,.09s0,.06,0,.08,0,.06,0,.1,0,.06,0,.08,0,.1,0,.16,0,.1,0,.15,0,.08,0,.13a.48.48,0,0,1,0,.12S32,26,32,26s0,.06,0,.07,0,0,.05,0a.48.48,0,0,1,0,.17s0,0,0,0,0,0,0,0a.16.16,0,0,0,0,.07.41.41,0,0,1,0,.19c0,.06,0,.12,0,.2A1.11,1.11,0,0,0,32,27a.34.34,0,0,1,0,.1v.06c0,.06,0,.11,0,.17s0,.11,0,.16,0,.09,0,.13a.43.43,0,0,1,0,.16h0a.71.71,0,0,1,0,.14s0,.1,0,.16a.83.83,0,0,0,0,.27s0,.06,0,.08a.13.13,0,0,1,0,.06,1.5,1.5,0,0,0,0,.2,1,1,0,0,0,0,.17,1.27,1.27,0,0,1-.05.34.19.19,0,0,0,0,.08.19.19,0,0,1,0,.08.53.53,0,0,0,0,.17,1.38,1.38,0,0,1-.25.57l-.08.09c-.05.06-.12.13-.16.19l-.09.07h0l-.05,0,0,0,0,0-.07,0a.11.11,0,0,0-.05,0l-.06,0-.08,0-.08,0a.15.15,0,0,1-.09,0,1.4,1.4,0,0,1-.28.06h-.25l-.08,0s-.07,0-.09,0l-.08-.05a.28.28,0,0,1-.12-.12s-.08-.09-.08-.14a.18.18,0,0,0,0-.1s0,0,0-.05a1.28,1.28,0,0,1-.07-.34.92.92,0,0,1,0-.33s0,0,0-.06,0,0,0,0,0,0,0-.06,0-.08,0-.13a.22.22,0,0,1,0-.08s0-.07,0-.09l0-.06a.4.4,0,0,0,0-.15c0-.06,0-.11,0-.17a1.27,1.27,0,0,1,0-.34.5.5,0,0,0,0-.17s0-.06,0-.09,0-.05,0-.08a.48.48,0,0,1,0-.12l0,0s0,0,0-.06.06-.11.06-.14a1.13,1.13,0,0,0,0-.18c-.05,0,0,0,0-.08s0,0,0,0,0,0,0,0a.1.1,0,0,0,0-.09s0-.08,0-.1,0-.22,0-.24a.24.24,0,0,1,0-.09c0-.05.07-.08.07-.13s0-.06,0-.09a.19.19,0,0,1,0-.07s0-.05,0-.09l0-.07a.53.53,0,0,0,.05-.18.59.59,0,0,1,.05-.19l.06-.16s.13-.09.13-.16,0-.12,0-.19,0-.18.08-.19,0-.08,0-.07a.17.17,0,0,0,0-.07c.06,0,0-.08.05-.11s.05-.1.07,0,0-.06.07-.08h0s0-.08,0-.1,0-.06,0-.07,0-.08.06-.09h0s.1,0,.1-.11h0a.26.26,0,0,1,.05-.17s.1-.14.11-.12h0v0s.05,0,.07,0,0-.06.06-.06.05,0,.06-.05.05-.07.08-.1,0,0,0,0A.21.21,0,0,0,31,24s.06,0,.06,0,0,0,0-.06,0,0,0-.05,0,0,0,0,.07,0,.07-.07a.26.26,0,0,1,0-.12l0-.05s0-.05,0-.06.06-.11.08-.16,0-.06,0-.07,0,0,0,0,0-.11,0-.12a.18.18,0,0,0,0-.16.42.42,0,0,0,0-.06s0-.05,0-.08a0,0,0,0,0,0,0s0,0,0-.06,0,0,0-.07l-.05,0,0-.06a.07.07,0,0,0-.07,0l-.08,0-.06,0h-.47s0,0,0,0a.9.9,0,0,0-.16,0,.5.5,0,0,0-.13,0l-.08,0-.06,0h-.07a.13.13,0,0,1-.08,0,.26.26,0,0,0-.12.05s0,0,0,0,0,0-.06.05,0,0-.07.06l0,0,0,0s0,.07,0,0,0,0,0,0h-.05a.22.22,0,0,0-.09.07.86.86,0,0,0-.24.17,2,2,0,0,0-.22.19.39.39,0,0,1-.1.08.11.11,0,0,0,0,.06s0,.05,0,.06,0,0,0,0,0,0,0,0,0,0,0,0l-.08.09s0,0,0,.05l0,0s0,.06-.05.08a.44.44,0,0,0-.1.15s-.08.08-.09.11l0,.06s0,0,0,0,0,0,0,0a.2.2,0,0,0-.05.09.6.6,0,0,0-.08.08l0,.1h0s0,.05,0,.06l-.05.06,0,.06v0s0,0,0,0,0,0,0,0l0,0a.21.21,0,0,1,0,.06s0,0,0,.06l0,.06s0,.05,0,.08a.13.13,0,0,0,0,.06.59.59,0,0,0-.06.14.36.36,0,0,0,0,.07.19.19,0,0,0,0,.07s0,0,0,.07,0,0,0,.06,0,0,0,0a.32.32,0,0,1,0,.09.52.52,0,0,0,0,.11.37.37,0,0,0,0,.14.78.78,0,0,1-.05.14.42.42,0,0,0,0,.15.57.57,0,0,1,0,.14c0,.1,0,.19,0,.28a.7.7,0,0,0,0,.14s0,.05,0,.06,0,0,0,.05a.42.42,0,0,1,0,.15.28.28,0,0,0,0,.09.48.48,0,0,1,0,.12s0,.06-.05.1,0,.06,0,.08v0s0,0,0,0a.08.08,0,0,1,0,.07l0,0v0a1,1,0,0,1,0,.17c0,.11,0,.22,0,.33s0,.23,0,.34v.11s0,.06,0,.08a.18.18,0,0,1,0,.1.24.24,0,0,0,0,.09v.11a.87.87,0,0,1,0,.1s0,.16,0,.21l.05.08a.2.2,0,0,1,0,.11,3.23,3.23,0,0,0,0,.44c0,.12,0,.23,0,.35s0,.07,0,.1a1.61,1.61,0,0,1,0,.22c0,.13,0,.26,0,.41a.32.32,0,0,0,0,.14s0,0,0,0,0,.08,0,.12,0,.08,0,.13a.33.33,0,0,0,0,.14,2.44,2.44,0,0,1,.06.26V32l0,.06a.33.33,0,0,0,0,.13s.07.1.05.13a.24.24,0,0,1,0,.09s0,0,0,.07,0,.06,0,.1.05,0,.06.07a1.14,1.14,0,0,0,.15.16,1.74,1.74,0,0,1,.14.12s0,0,0,.05,0,0,0,0a1,1,0,0,0,.24.15l.16.06a.08.08,0,0,1,0,0s0,.05.05.05,0,0,0,0,.05,0,.08,0l.08,0h.11l.09,0h.08a.33.33,0,0,1,.1,0h.17v0h0c.05,0,.12,0,.19,0h.11l.1,0c.07,0,.15,0,.22,0l.2,0s.05,0,.07,0h0a.06.06,0,0,0,0,0s0,0,.05,0v0H30s.1.05.12,0-.1,0-.09,0,.07,0,.1,0,.07-.05.11,0,.07,0,.09,0,0,0,0,0h.06s0,0,0,0,.11,0,.15,0l.12,0c.05,0,.1,0,.1-.06h.05s0,0,0,0,.06,0,.09,0,0,0,0,0l0,0a.2.2,0,0,1,.06-.07s.08,0,.11,0,0-.06,0-.08l.08-.05.08,0,.1,0a.12.12,0,0,1,.05-.07.07.07,0,0,1,.07,0h0c.08,0,.06.14.06.17a1.12,1.12,0,0,0,0,.2.13.13,0,0,1,0,.05,0,0,0,0,1,0,0s0,.07,0,.1,0,0,0,0a.43.43,0,0,0,0,.05.4.4,0,0,0,0,.11l0,.06s0,0-.05,0a.06.06,0,0,0,0,.08s0,0,0,0v.06a.07.07,0,0,1,0,0s0,0,0,0h0v0a.25.25,0,0,1,0,.08.16.16,0,0,1,0,.07s0,0,0,.05v0h0s-.07,0-.11,0a.15.15,0,0,1-.07.05,1125396362522.18,1125396362522.18,0,0,0-.16.1.74.74,0,0,0-.13.12l-.16.09-.11.09s-.11,0-.12.1h0a2,2,0,0,0-.39.25l-.15.11-.07.06-.09,0,0,0,0,0s0,0-.07.06l-.29.22a1.59,1.59,0,0,1-.32.26,2.4,2.4,0,0,1-.37.25s0,0-.05.06l-.06,0-.14.09-.07,0s0,0-.05.08-.05,0-.07,0l-.07.06s0,0-.06,0,0,0-.07,0-.05,0-.09.07-.05.06-.1.07a.39.39,0,0,1-.11.06s0,.06-.09.06,0,0-.07.07,0,0-.06.06l-.08,0-.06.06a.09.09,0,0,1-.07.05.26.26,0,0,0-.09,0,.75.75,0,0,0-.13.11,1,1,0,0,1-.2.15l-.2.13h0s0,0-.06,0l-.05,0s0,0-.05,0l0,.05-.12.06-.11.07s0,0-.05.05,0,0,0,.06a.15.15,0,0,0-.08,0s0,0,0,0h0l-.11.09-.05,0s0,0,0,.06a.25.25,0,0,0-.14.08l-.05,0-.07,0s0,0,0,0l0,0s0,0,0,.06a.15.15,0,0,1-.08,0,1.25,1.25,0,0,1-.12.08l-.13.09-.08,0-.06.05v0a.72.72,0,0,0-.15.11l-.08,0a.55.55,0,0,0-.06.08l-.07.06s0,.05-.07.06-.06,0-.09.05,0,0-.08.07a1.3,1.3,0,0,0-.15.1l-.12.11-.15.09-.13.1s-.07.1-.12.12-.08.07-.14.11a3.65,3.65,0,0,0-.31.24,3.61,3.61,0,0,0-.3.25.65.65,0,0,0-.16.13s0,0-.07.07l-.08.05c-.09.07-.16.15-.25.21s-.16.12-.23.19a.35.35,0,0,1-.19.12c0,.08-.14.08-.13.16s0,0,0,0-.15.14-.2.18-.07.05-.1.1-.09,0-.15.06,0,.06,0,.07l-.06.07-.13.14a2.6,2.6,0,0,0-.31.25l-.1.06a.39.39,0,0,0-.06.11s0,0-.07,0-.05,0-.08,0l-.14.11a2.43,2.43,0,0,1-.3.24c-.12.08-.21.22-.34.29a.2.2,0,0,0-.09,0s0,.06-.06.07-.05,0-.07.05l-.08,0a.83.83,0,0,0-.16.12s0,0,0,.05a.61.61,0,0,0-.16.12s-.13.08-.13.11a.59.59,0,0,0-.18.13s-.06,0-.08.06,0,0-.07.07a.7.7,0,0,1-.16.13.57.57,0,0,0-.14.13l-.3.24-.13.12s-.07,0-.11.09l-.1.08s0,0,0,0H18a.93.93,0,0,0-.15.13.23.23,0,0,1-.07.07l-.07,0-.08.08s-.05,0-.07,0,0,0-.05.07l0,0,0,0a1.27,1.27,0,0,1-.13.11,3.5,3.5,0,0,0-.27.28.57.57,0,0,1-.15.12l-.15.15a1.5,1.5,0,0,0-.27.24c-.09.1-.2.17-.3.27l-.07.06s0,.06-.07.09l-.13.1-.11.13-.14.11-.26.23c-.09.07-.16.17-.25.25s-.19.21-.31.3l-.14.15c0,.05-.1.08-.13.15a2.21,2.21,0,0,1-.25.3,2.15,2.15,0,0,0-.18.24,1,1,0,0,0-.12.16s-.07.11-.1.15a.25.25,0,0,0-.08.15s0,.05,0,.08,0,.14,0,.19,0,.12,0,.21,0,.07,0,.11a.29.29,0,0,0,0,.09s0,.1.05.14,0,0,0,.07a1.19,1.19,0,0,0,.08.16s0,0,0,.06a1.17,1.17,0,0,1,.05.11.27.27,0,0,0,.1.06s.06.09.11.11.18.11.28.14.05,0,.07,0l.06,0s.06,0,.09,0l.07,0,.18,0,0,0,0,0s.05,0,.09,0a.08.08,0,0,0,.08,0s.05,0,.08,0,.05,0,.08,0,.05,0,.09,0,.12,0,.17,0,0,0,.07,0,0,0,0,0l0,0a.1.1,0,0,1,.07,0s0,0,.05,0,0,0,.06,0l0,0c0-.06,0-.05.07-.06s0,0,.07-.06.06,0,.07,0l0-.06a.38.38,0,0,0,.08-.11s0,0,0,0l.06,0s0,0,0,0l.05,0,.12-.11a1.12,1.12,0,0,0,.2-.17l0,0s0,0,0,0l.09-.11a.73.73,0,0,1,.08-.09s.06-.08.1-.09.09-.07.13-.11,0,0,0,0a.35.35,0,0,0,.05-.08l0-.06.05,0a.07.07,0,0,0,.05,0,.16.16,0,0,1,0-.07l.06,0s0,0,.05-.06.06,0,.07-.05,0,0,0-.07l0,0s0,0,.07-.06L18,48a.18.18,0,0,1,.06-.09s0-.08.05-.09l.05,0,0,0h0s0,0,0,0v0s0,0,.05,0,0,0,0-.06l.05,0s0,0,0-.05l.11-.1.1-.07s.07-.09.1-.11a.11.11,0,0,0,0,0s0,0,0-.06.08,0,.11-.07L19,47s.05,0,.07-.07l0,0s0,0,0,0,0-.07.07-.11h0a.12.12,0,0,1,.05,0l.05,0a.5.5,0,0,1,.1-.11s0-.07.08-.11a.07.07,0,0,0,0,0s0,0,0-.06a.26.26,0,0,1,.09-.09.3.3,0,0,1,.13-.09.56.56,0,0,0,.18-.25.41.41,0,0,1,.21-.2.09.09,0,0,0,.05,0,.76.76,0,0,1,.09-.09s0-.06.07-.09.06,0,.07,0,0-.07.07-.12.08,0,.09,0v0s0,0,0,0l.06,0a.24.24,0,0,0,.06-.08.23.23,0,0,1,.05-.07l.07-.06.13-.13c.06-.06.12-.06.18-.16s.08,0,.11-.07l.12-.06s.06-.07.09-.08,0,0,.05,0l.05-.05a.28.28,0,0,1,.09-.1l.06,0a.11.11,0,0,0,.05,0l.1-.1s.06,0,.07-.06,0,0,0-.06.05-.08.08-.11.08,0,.1-.1,0,0,.05,0l.08,0a.52.52,0,0,1,.1-.11s.05,0,.06-.06a.64.64,0,0,1,0-.07l.11-.08s0,0,.07,0l.07,0,0-.06a.09.09,0,0,1,.06,0,.15.15,0,0,0,.07,0s0,0,0-.06.09,0,.12-.08l.05-.05,0,0,.09-.06a.46.46,0,0,1,.07-.07h0l.1-.07c.06-.06.15-.1.21-.16a.52.52,0,0,1,.11-.1.63.63,0,0,0,.13-.11l.05-.05.06,0,.12-.11.13-.1a2.23,2.23,0,0,1,.24-.19l.06-.08.17-.09.14-.15a2.15,2.15,0,0,1,.24-.18,1.43,1.43,0,0,0,.12-.11h0v0a.35.35,0,0,0,.08,0c.05,0,.07-.07.12-.09l.12-.09a.53.53,0,0,0,.14-.12s.06,0,.1-.06a.34.34,0,0,0,.09-.08s0,0,.06,0,0,0,0,0h0l0-.05a1.5,1.5,0,0,0,.13-.11.12.12,0,0,0,.07,0s0,0,0,0h0a.22.22,0,0,1,.05-.06.19.19,0,0,1,.07-.06l.13-.1a.4.4,0,0,1,.12-.1s0,0,0,0,0,0,.06,0,0,0,.05-.06a.12.12,0,0,0,0,0l0,0a.06.06,0,0,0,0,0s0,0,0-.06h0l0,0,.05,0,.14-.11.25-.21a.11.11,0,0,1,.06,0s0,0,.06,0l.11-.09.11-.1s.09,0,.13-.08h0a.16.16,0,0,1,.06,0l.06,0s0,0,0,0h0s0,0,.07-.06l.13-.11,0,0,0,0s0,0,.05,0a.13.13,0,0,1,.07,0,.67.67,0,0,1,.11-.07s.07-.06.11-.1,0,0,.05-.06h0s0,0,0,0a.08.08,0,0,0,0,0s0,0,0,0h0s0,0,.06-.05,0,0,.05,0l0,0a.09.09,0,0,1,.06,0l.06,0s0,0,0-.05l.07,0,.08,0,.07-.06.1-.09s.06,0,.09-.06,0-.1.05-.06.08-.06.12-.07.1-.06.12-.1.1-.06.14-.11,0-.05,0-.06,0,0,.07,0a.13.13,0,0,0,.05-.06s0,0,.05-.05.09,0,.11-.09l.11-.08a.57.57,0,0,1,.13-.08s.05,0,.07-.06l.1-.07a1,1,0,0,1,.14-.08.54.54,0,0,1,.12-.09l.06,0,.06,0s.07,0,.1-.07a.19.19,0,0,1,.1,0l.07,0h0v0s.08,0,.11-.05,0,0,0,0a.06.06,0,0,0,0,.08.11.11,0,0,1,0,.08.11.11,0,0,0,0,.08.43.43,0,0,0,0,.05v.07c0,.06,0,.1,0,.16s0,.05,0,.07,0,0,0,.08,0,.22,0,.34v.17a1,1,0,0,1,0,.17h0s0,.08,0,.13,0,.05,0,.08a.66.66,0,0,1,0,.15.19.19,0,0,0,0,.08s0,.11,0,.15,0,.13,0,.17v.09s0,0,0,0,0,0,0,0a1.08,1.08,0,0,1,0,.18v.33a.86.86,0,0,0,0,.16s0,.06,0,.09,0,0,0,.08v.35s0,.11,0,.16a0,0,0,0,0,0,0,.81.81,0,0,0,0,.27s0,.06,0,.08a.19.19,0,0,0,0,.08s0,0,0,.07,0,0,0,.09,0,0,0,.08,0,0,0,0,0,0,0,0,0,.12,0,.18,0,.05,0,.08v.17s0,0,0,.07a.19.19,0,0,0,0,.07s0,0,0,.07,0,.09,0,.13a1,1,0,0,0,0,.17v.13a.57.57,0,0,0,0,.13s0,.09,0,.14h0s0,0,0,0,0,.06,0,.08v.05s0,0,0,0,0,0,0,0l0,0c0,.06,0,.13,0,.18s-.05,0-.06,0a.14.14,0,0,0,0,.09l0,.07a.17.17,0,0,1,0,.07.27.27,0,0,1,0,.09s0,0,0,.07,0,.11,0,.16,0,.07,0,.12,0,.08,0,.13,0,.1,0,.16a1,1,0,0,1,0,.17s0,.06,0,.09,0,0,0,.07a2.13,2.13,0,0,1,0,.27v.13c0,.05,0,.07,0,.11a.13.13,0,0,1,0,.08.5.5,0,0,0,0,.17c0,.06,0,.11,0,.17a1,1,0,0,0,0,.17s0,.07,0,.09a.14.14,0,0,1,0,.06s0,0,0,.07a.27.27,0,0,1,0,.09.29.29,0,0,1,0,.16.37.37,0,0,0,0,.11s0,0,0,.07,0,.11,0,.17v.34c0,.05,0,.11,0,.16v.07a.14.14,0,0,0,0,.06s0,.08,0,.13v.09s0,0,0,.06,0,.06,0,.08,0,.06,0,.09,0,.11,0,.17v.14a.76.76,0,0,1,0,.15v.15a.22.22,0,0,1,0,.08.35.35,0,0,1,0,.06s0,.12,0,.17a1,1,0,0,1,0,.17s0,.06,0,.09,0,.05,0,.07,0,.05,0,.07,0,0,0,0,0,0,0,0,0,.14,0,.21,0,.11,0,.18,0,0,0,.07,0,.06,0,.08a.16.16,0,0,0,0,.09,1.77,1.77,0,0,1,0,.23,0,0,0,0,1,0,.08l0,0,0,.06s0,.07,0,.11,0,.09,0,.12a1.15,1.15,0,0,0,0,.16v.08s0,0,0,0h0s0,0,0,0v0s0,0,0,0,0,.06,0,.08,0,.06,0,.09a.12.12,0,0,0,0,.08,0,0,0,0,1,0,0v0s0,0,0,.08a.52.52,0,0,1,0,.14h0s0,.06,0,.09,0,0,0,.06a1.66,1.66,0,0,0,.06.16s0,.06,0,.08a.08.08,0,0,0,0,0l0,0a.94.94,0,0,0,.06.15.16.16,0,0,0,.06.08s.05,0,.07.06a.18.18,0,0,1,0,.08,1.21,1.21,0,0,0,.14.1l.12.08a.94.94,0,0,0,.15.06l.33.1.19,0h.28a1,1,0,0,0,.3,0l.09,0h.07s0,0,.06-.05a.15.15,0,0,0,.08,0,3.41,3.41,0,0,0,.37-.25.12.12,0,0,0,0,0l.05-.05s.07-.08.1-.13,0,0,0-.06,0-.05,0-.08a.24.24,0,0,0,.05-.1s0,0,0-.05v0s0,0,0,0h.06s0,0,0,0h0l0,0s.05,0,.06,0-.1,0-.13,0H34.6s0,0,0-.07,0,0,0-.07,0,0,0-.06.13,0,.1,0,0,0,0,0,0,0,0,0,0,0,.05,0,0,0,0,0,0,0,0-.09,0-.06.09-.06a.06.06,0,0,0,0-.07.11.11,0,0,1,0,0s0,0,0,0h-.08s0,0,0,0,0,0,0,0-.05,0,0,0,0,0,0,0,0,0,0,0,0-.05,0-.07,0,.06,0,0l0,0h0s0,0,0,0-.06,0-.07,0v0s0,0,0,0,0,0,0-.05h0s0,0,0,0,.06,0,.05,0,0,0,0-.07,0,0,0,0,0,0,0,0-.06,0-.07,0,0,0,0,0l0,0h0s0,0,0,0,0,0,0,0,0,0,0,0a.07.07,0,0,0,.07,0,.23.23,0,0,0,0-.07s.08,0,.07,0-.07,0,0-.06a.05.05,0,0,1,0,0s0,0,0,0,0,0,0,0,0-.05,0-.05,0,.05,0,.07.08-.06,0-.08,0,0-.06,0,0,0-.05,0,0,0-.06-.07-.06,0-.11,0,.06-.08.11-.06,0,.05,0,.05,0,0,0-.05,0,0,0,0,0,0,0,0,0,0,0,0,0,0,0,0a.16.16,0,0,1,0-.12s0,0,0,0l0,0s0,.11,0,.12-.12,0-.13-.06,0-.06,0-.07,0,0,0-.06l0,0v0s0,0,0,0,0,0,0,0,0,0,0,0,0,0,0,0,0,0,0,0,0,0,0,0,0,0,0,0,.07,0,.11,0a.11.11,0,0,0,.07-.06h0a.22.22,0,0,0-.08-.05s0,.05,0,.06,0,0,0,0,0-.06,0-.07a.2.2,0,0,1,.1,0s.05,0,.09,0-.06,0-.05-.06l.06-.06,0,0s0,0,0,0,.05,0,.05-.06-.05,0-.05,0,.06,0,0-.05,0,0,0,0,0,0,0,0,0,0-.06,0v0h0s0,0,0,0,0,0,0-.05v0h0s0,0,0-.06,0,0,0-.06,0,0,0-.06h0s0,0,0,0,0,0,0,0,0,0,0,0h0l0,0a0,0,0,0,1,0-.05s0,0,0,0,0,0,0,0,0,0,0,0,0,0,0,0,0,0,0,0h0s0,0,0,0,0,0,0,0,0,0,0,0a0,0,0,0,0,0,0l0,0s0,0,0,.05h0l0,0,0,0s0,0,0,0,0,0,0,0v0h0v0s0,0,0,0,0,0,0,0,0,0,0,0h0v0s0,0,0-.05,0-.06,0-.07-.06,0,0-.07.12-.09.12,0,0,.07,0,0v0s0,0,0,0,0,0,0,0a.13.13,0,0,0,0-.06s0,0,0,0,0,0,0-.05h-.08c0-.06.1,0,0-.1s-.13,0-.07-.09,0,0,.05,0,0,0,0-.05,0,0,0,0,0,0-.06,0,0,0,0-.07,0,0,0-.06,0,0,0,0,0,0,0,0l0,0c.06,0,0-.07-.1,0s0,0-.06,0,0-.05,0-.06,0-.11,0-.15h0s0,0,0,0h0l0,0v0c0-.06-.08,0-.09,0h0s0,0,0-.07,0,0-.07,0,0,0,0-.07-.09,0-.09-.08,0,0,.06-.07a.16.16,0,0,0,0-.13s0,0,0,0v0l0,0c0-.08.06,0,.11,0s0,0,.06-.05,0,0-.06,0a0,0,0,0,1,0,0s0,0,0,0,0,0,0-.08v0s0,0,0,0,0,0-.05,0,0,0,0,0l0,.05s0,0-.06,0,0,0,0,0l0,0s0,0,0-.06,0,0,0-.07,0,0,0-.09.14,0,.16,0,0,0,0-.06-.06,0-.06-.05,0-.06,0-.08-.06,0-.08,0,0,0,0-.07,0,0,0,0h0c-.05,0,0,0,0,0s0,0,0,0l0,0s0-.06,0-.09,0,0,.09,0,.06-.06.07-.09,0,0,0,.06-.05,0-.05,0,0,0,0-.06S34,44,34,44s0,0,0,0,0,0,0,0,0,0,0,0,0,0,0-.05,0,0,0,0,0,0,0,0,0,0,0-.08l0,0s0,0,0,0,0,0,0,0,0,0,0,0h0v-.05s0,0,0,0l0,0s0,0,0,0a.06.06,0,0,0,0,0l0,0s0-.05,0-.06l0,0s0,0,0,0a.09.09,0,0,0,0-.07.11.11,0,0,0,0-.08s0,0,0,0,0,0,0,0h.05s0,0,0,0h-.09s-.06,0-.06,0,.06,0,.07,0h.05s0,0,0,0,0,0,.06,0v0s0,0,0,0,0,0,0-.08h0v0h0s-.07,0,0-.06.06,0,.07,0,0,0,0-.05l-.08,0s0,0,0,0,0,0,0,0,0,0,0,0,0,0,0,0,0,0,0,0l.07,0s0,0,0,0,0,0,0,0,0,0,0,0v0a.07.07,0,0,0,0,0l0,0s0,.06-.08,0,.05,0,0-.05,0,0-.06,0,0,0,0,0,0,0,0,0,0,0,0,0l0,0s0,0,0,0a0,0,0,0,0,0,0s0,0,0,0,0-.05,0-.08,0,0,0,0,0,0,0,0l0,0v0s0,0,0,0,0,0,0,0l0,0,.07,0a.11.11,0,0,0,.08,0s0,0,0,0,0,0,0,0,0,0,0,0v0s0,0,.05,0,0,0,0,0h0l0,0v0s0,0,0-.05,0,0,0,0,0,0,0,0,0,0,0,0,0,0,0,0l0-.06s0,0,0,0l0,0s0,.07,0,0,0-.06,0-.08l0-.07s0-.05,0-.06h0s0,0,0,0a0,0,0,0,0,0,0h0s0,0,0,0,0,0,0,0v0s0,0,0,0l0,0v0s0,0,0,0v-.08s0,0,0,0,0,0,0,0,0,0,0,0V41h0l0,0s0,0,0,0,0,0,0,0,0,0,0,0h0v0s0,0,0,0v-.06h0a.15.15,0,0,0,0-.09v-.08s0-.05,0-.07h0s0,0,0,0h0v-.13s0,0,0,0v-.09s0,0,0,0v-.12s0,0,0,0h0v0h0v0s0,0,0,0,0,0,0,0,0,0,0,0,0,0,0,0l0,0s0,0,0,0h0v0s0,0,0-.06a.22.22,0,0,1,0-.08s0,0,0,0v0h0s0,0,0,0v0s0,0,0,0,0,0,0,0,0,0,0,0,0,0,0,0,0,0,0,0h0v0s0,0,0,0a0,0,0,0,0,0,0v-.06h0s0,0,0-.06,0,0,0-.05H33.8s0,0,0,0h0v0s0,0,0,0h0l0,0s0,0,0,0,0,0,0,0,0,0,.06,0v0s0,0,0,0h0s0,0,0,0,0,0,0-.05h0a.1.1,0,0,0,0,0v0s0,0,0,0,0,0,0,0a0,0,0,0,1,0,0s0,0,0,0-.06,0,0,0l0,0v0s0,0,0-.05,0,0,0,0v0s0,0,0,0,0,0,0,0v0s0,0,0,0a.27.27,0,0,0,0-.09s0,0,0-.07,0,0,0,0,0,0,0,0a0,0,0,0,1,0-.07s0,0,0-.06a.2.2,0,0,0,0,0s0,0,0,0,0,0,0,0v0s0,0,0,0,0,0,0,0,0,0,0,0,0,0,0,0,0-.05,0-.05h0V38l0,0a.06.06,0,0,0,0,0s0,0,0,0,0,0,0,0,0,0,0,0v0s0,0,0,0,0,0-.06,0,0-.07,0-.09,0,0,0,0l0,0s0,0,0-.05v0h0s0-.06,0-.07l0,0s0,0,0,0a.1.1,0,0,1,0-.07v0a.05.05,0,0,1,0,0s0-.06,0-.07h0s0,0,0,.05,0,0,0,0,0,0,0-.05l0,0v0h0l-.06,0s0-.05,0-.08,0,0,0,0v0s0,0,0,0,0,0,0,0,0,0,0,0,0,0,0,0,0,0,0,0,0,0,0-.05a.06.06,0,0,1,0,0s0,0,0,0v-.08s0-.06,0-.08h0s0,0,0,0,0,0,0,0h0s0,0,0,0l0,0s0,0,0-.07,0,0,0,0,0,0,0,0a.22.22,0,0,1,0-.08A.09.09,0,0,0,34,36s0,0,0,0,0,0,0,0-.07,0-.07,0h0v-.06s0,0,0,0l0,0,0,0s0,0,0,0l0,0a.08.08,0,0,0,0,0s0,0,0,0h0s0,0,0-.06v0s0,0,0,0v-.06s0,0,0,0,0,0,0,0,0,0,0,0a.11.11,0,0,1,0-.07s0-.05,0-.06,0,0,0,0,0,0,0,0,0,0,0,0,0,0,0,0a0,0,0,0,1,0,0s0,0,0,0-.08,0-.07,0,0,0,0-.06v-.05s0,0,0,0,0,0,0,0,0,0,0,0,0,0,0,0v0a0,0,0,0,1,0,0s0,0,.06,0,.06-.05.06-.07h0l0-.07a0,0,0,0,0,.05,0s0,0,0,0,.05,0,.06,0,0,0,0,0,.07,0,.11,0,0,0,0,0l0,0s0,0,0-.06,0,0,0-.06,0,0,0,0h0s0,0,0,0,0,0,0,0l0,0,0,0h0s0,0,0,0h0s0,0,0,0h0v0h.09s0,0,0,0h0l0,0,0,0s.05-.05.08-.05,0,0,0,0v0s0,0,.06,0h0s0,0,0,0,0,0,0,0l0,0s0,0,0,0l0,0h0s.11-.13.14-.1.07-.05.11-.09,0,0,0,0,0,0,.06,0l.12-.07a.07.07,0,0,0,0,0l.06,0a1,1,0,0,0,.13-.09.28.28,0,0,1,.15-.08.08.08,0,0,1,.07,0s.06,0,.07,0v0s0,0,0,0,.05,0,.06,0,0,0,.07,0,.08,0,.08,0l0,0s0,0,0,0l0,0s0,0,.06,0h0s0,0,0,0,0,0,.07,0,0,0,0-.05a.94.94,0,0,1,.15-.06,0,0,0,0,0,0,0s.1,0,.15-.09l0,0,0,0s.07,0,.07,0,.1-.07.11-.06.07,0,.13-.07l.12-.08.06,0s0,0,.05,0l.13-.08.14-.09a.69.69,0,0,0,.13,0,.12.12,0,0,0,0-.05l.06,0h0l0,0h.05s0,0,0,0l.06-.05.15-.08.28-.16s.06-.06.11-.07a.6.6,0,0,0,.15-.09,2.61,2.61,0,0,0,.28-.17.67.67,0,0,1,.17-.08s.09,0,.14-.07a1.19,1.19,0,0,1,.15-.09.61.61,0,0,0,.14-.07l.11-.07a.64.64,0,0,0,.14-.08l0-.05.07,0s0,0,.06-.05l.09,0,0,0,.08,0,.12-.08.08-.05a.3.3,0,0,0,.08,0l.06,0h0s0,0,0,0l.08,0,.06,0s.05-.06.11-.07l.15-.07s0,0,.05-.05l.07,0a1,1,0,0,0,.15-.08l.27-.15.07,0,.12-.06,0,0,.14-.07a.85.85,0,0,1,.14-.09s0,0,.07,0,0,0,0,0,.12,0,.12-.06h0s0,0,0,0l.09-.05h.06l.06,0,0,0a0,0,0,0,1,0,0l.06-.05.08,0,.13-.07s0-.05.06-.06l.14-.06a.11.11,0,0,1,.06,0l.18-.07s0,0,.07,0,0,0,0-.05l.12,0s.09-.06.11-.07l0,0,.07,0a.47.47,0,0,1,.12-.07l.06,0s0,0,0-.05a.11.11,0,0,0,.08,0l0,0h0s.08-.06.15-.07.08,0,.13-.07,0,0,.05,0h0s0,0,0,0l.18-.08.15-.09.13-.06.14-.07a.51.51,0,0,1,.18-.09.3.3,0,0,1,.1-.07h.05v0l.08,0s0,0,.05,0l.17-.07.05,0s0,0,0,0,.05,0,.06,0a0,0,0,0,1,0,0h0s.07-.05.12-.07.05,0,.06,0l.05,0a.75.75,0,0,1,.13-.06h0s0,0,.05,0,0,0,.07,0l.12-.08.07,0s.08,0,.12,0,0-.05.07-.06l.08,0a.26.26,0,0,0,.13-.06,1.74,1.74,0,0,1,.19-.1A.51.51,0,0,0,48,26.6l.09,0s0,0,0,0h0v0s.1,0,.13-.06,0,0,.06,0l.07,0,.16-.05.15-.07a.75.75,0,0,1,.13-.06.39.39,0,0,0,.14-.05l.13-.06s0,0,.07,0,0,0,.07,0,0,0,0,0,0,0,.06,0l.14-.06.15-.06.07-.05.09,0a.58.58,0,0,1,.11-.05.25.25,0,0,0,.11,0l.11-.05.11,0,.13-.06.11,0,.36-.12.16-.06.37-.12c.11-.05.23-.07.34-.11a1.89,1.89,0,0,0,.18-.06l.18,0c.11,0,.24-.06.35-.11a.84.84,0,0,0,.17,0l.25-.09a.94.94,0,0,1,.28-.1.39.39,0,0,0,.11-.06s.23-.12.26-.15l.14-.08c.09-.06.16-.16.26-.18l0,0s0-.06.06-.07.09,0,.06-.07l.07-.05s.06,0,.07,0l.1-.15c0-.05.06-.05.07-.09s0-.05,0-.08a.11.11,0,0,0,0-.06s0,0,0,0,0,0,0,0,0,.06.05,0,0-.06,0-.08,0,0,0,0a.08.08,0,0,1,0-.05s0,0,0-.05h0s0-.12.06-.08,0,0,0,0,0,0,0,0,0,0,0-.07,0,0,0-.06a.13.13,0,0,0,0-.09s.07,0,.07,0a1.32,1.32,0,0,1,.06-.29"/></g></g></svg>