<svg id="Слой_1" data-name="Слой 1" xmlns="http://www.w3.org/2000/svg" viewBox="0 0 56.69 56.69"><defs><style>.cls-1{fill:#2e4999;}</style></defs><path class="cls-1" d="M36.39,19.73c-3.77,0-7.15,2-7.15,5.57,0,4.15,6,4.44,6,6.52,0,.88-1,1.66-2.72,1.66a9.08,9.08,0,0,1-4.26-1.09L27.47,36a13.26,13.26,0,0,0,4.88.93c4.13,0,7.38-2.05,7.38-5.73,0-4.38-6-4.66-6-6.59,0-.69.82-1.44,2.54-1.44a8.56,8.56,0,0,1,3.5.8l.76-3.53a11.37,11.37,0,0,0-4.13-.74ZM1.85,20l-.09.53a17.69,17.69,0,0,1,3,.87c1.84.67,2,1.05,2.28,2.26l3.38,13H15L22,20H17.44L13,31.34l-1.83-9.61A2,2,0,0,0,9.06,20H1.85Zm21.92,0L20.23,36.69h4.31L28.07,20Zm24.05,0a2,2,0,0,0-2,1.53L39.51,36.69H44l.87-2.53h5.51l.53,2.53h4L51.45,20Zm.58,4.51,1.35,6.26H46.16l2.25-6.26h0Z"/></svg>