<svg id="Слой_1" data-name="Слой 1" xmlns="http://www.w3.org/2000/svg" viewBox="0 0 56.69 56.69"><defs><style>.cls-1{fill:#295f9e;}.cls-2{fill:#49a2da;}.cls-3{fill:#79cced;}.cls-4{fill:#2e3d4b;}</style></defs><g id="layer1"><g id="g25556"><path id="path25558" class="cls-1" d="M28.2,39.75l8.74-15.14H19.45Z"/></g><g id="g25560"><path id="path25562" class="cls-2" d="M19.45,24.61H36.94L28.2,9.47Z"/></g><g id="g25564"><path id="path25566" class="cls-3" d="M25.81,5.33H8.33L19.45,24.61,28.2,9.47Z"/></g><g id="g25568"><path id="path25570" class="cls-1" d="M30.58,5.33,28.2,9.47l8.74,15.14L48.07,5.33Z"/></g></g><g id="g25484"><path id="path25486" class="cls-4" d="M12.05,44.91l-1.42,3-1.43-3H8.33l2.3,4.78,2.29-4.78Z"/></g><g id="g25490"><g id="g25496"><path id="path25498" class="cls-4" d="M16,48.35a1.45,1.45,0,0,0,1.2.63c.49,0,1-.21,1-.72s-.49-.63-1-.74c-.89-.2-1.65-.39-1.65-1.35s.88-1.38,1.75-1.38a1.69,1.69,0,0,1,1.58.85l-.65.43a1.09,1.09,0,0,0-1-.56c-.43,0-.92.21-.92.65s.56.55,1.18.67c.82.16,1.52.46,1.52,1.4s-.94,1.46-1.86,1.46a2,2,0,0,1-1.82-.86Z"/></g><g id="g25500"><path id="path25502" class="cls-4" d="M22.65,45.57H21.28V47.9c0,.6,0,1.08.7,1.08a1.52,1.52,0,0,0,.69-.16l0,.7a2.37,2.37,0,0,1-.91.17c-1.11,0-1.29-.59-1.29-1.56V45.57h-1v-.66h1V43.59h.78v1.32h1.37Z"/></g><g id="g25504"><path id="path25506" class="cls-4" d="M48.33,45.57H47V47.9c0,.6,0,1.08.7,1.08a1.52,1.52,0,0,0,.69-.16l0,.7a2.37,2.37,0,0,1-.91.17c-1.11,0-1.28-.59-1.28-1.56V45.57h-1v-.66h1V43.59H47v1.32h1.38Z"/></g><g id="g25508"><path id="path25510" class="cls-4" d="M29.24,44.91H30v.68h0a2.17,2.17,0,0,1,1.68-.8,2.45,2.45,0,0,1,.12,4.9,2,2,0,0,1-1.8-.94h0v2.61h-.77ZM31.67,49A1.74,1.74,0,1,0,30,47.24,1.63,1.63,0,0,0,31.67,49"/></g><g id="g25512"><path id="path25514" class="cls-4" d="M28.11,44.91h-.78v.68h0a2.16,2.16,0,0,0-1.67-.8,2.45,2.45,0,0,0-.12,4.9,2,2,0,0,0,1.79-.94h0v.82h.78ZM25.68,49a1.74,1.74,0,1,1,1.65-1.74A1.63,1.63,0,0,1,25.68,49"/></g><g id="g25516"><path id="path25518" class="cls-4" d="M35,46c0-.43,0-.8,0-1.11h.74c0,.25,0,.51,0,.77h0a1.68,1.68,0,0,1,1.55-.89.93.93,0,0,1,.32.05l-.05.79a1.47,1.47,0,0,0-.42-.06c-.94,0-1.36.67-1.36,1.73v2.27H35Z"/></g><g id="g25520"><path id="path25522" class="cls-4" d="M40.53,46c0-.43,0-.8,0-1.11h.74c0,.25,0,.51,0,.77h0a1.68,1.68,0,0,1,1.55-.89,1.66,1.66,0,0,1,1.77,1.9v2.88h-.77v-2.8c0-.77-.34-1.26-1.07-1.26-1,0-1.44.73-1.44,1.79v2.27h-.78Z"/></g></g><path id="path25524" class="cls-4" d="M13.81,44.91h.77v4.66h-.77Z"/><path id="path25538" class="cls-4" d="M38.47,44.91h.78v4.66h-.78Z"/></svg>