<svg id="Слой_1" data-name="Слой 1" xmlns="http://www.w3.org/2000/svg" viewBox="0 0 56.69 56.69"><defs><style>.cls-1{fill:#010101;}</style></defs><path class="cls-1" d="M28.35,2.07A26.28,26.28,0,1,0,54.62,28.35,26.25,26.25,0,0,0,28.35,2.07m0,3.09a23.09,23.09,0,0,1,7.51,1.29L28.63,22.06c-.09.09-.09.29-.28.29s-.2-.2-.29-.29L20.84,6.45a23,23,0,0,1,7.51-1.27M17.18,8.07l8.36,18c.18.37.38.48.62.48h4.38c.26,0,.43-.11.63-.48l8.26-18A24.19,24.19,0,0,1,48,16.24L36.23,38.94c-.09.2-.22.29-.29.29s-.17-.18-.28-.29L31.17,29c-.2-.37-.37-.46-.63-.46H26.16c-.24,0-.44.09-.64.46L21,38.94c-.11.11-.08.29-.28.29s-.2-.18-.29-.29L8.64,16.24a23.89,23.89,0,0,1,8.54-8.17M6.58,20.75,20.09,47c.18.38.37.66.86.66s.63-.28.83-.66l6.28-14c.09-.17.2-.3.29-.3s.19.21.28.3L35,47c.2.38.37.66.86.66s.65-.28.83-.66L50.24,20.75a23.12,23.12,0,0,1,1.29,7.6A23.42,23.42,0,0,1,28.35,51.53,23.26,23.26,0,0,1,5.27,28.35,23,23,0,0,1,6.58,20.75Z"/></svg>