<svg id="Слой_1" data-name="Слой 1" xmlns="http://www.w3.org/2000/svg" viewBox="0 0 56.69 56.69"><defs><style>.cls-1{fill:#010101;}</style></defs><g id="volvo-logo-grey"><path class="cls-1" d="M46.72,14.6l1.1-1.1a34.24,34.24,0,0,1,2.11,3.25h.87V5.94H39.94v.87A17.4,17.4,0,0,1,43.1,8.92L42,10A22.13,22.13,0,0,0,28.35,5.43,22.92,22.92,0,1,0,51.26,28.35,23.18,23.18,0,0,0,46.72,14.6ZM45.07,32.47a17.22,17.22,0,0,1-33.45,0Zm-33.5-8.29a17.23,17.23,0,0,1,33.46,0Zm29,4.07c0-.77.41-1.51,1.1-1.51s1,.74,1,1.61-.37,1.6-1.1,1.6S40.58,29.08,40.58,28.25Zm-19,0c0-.77.42-1.51,1.1-1.51s1,.74,1,1.61-.36,1.6-1.1,1.6S21.56,29.08,21.56,28.25Zm1.1-2.19c2,0,3,1,3,2.24s-1,2.25-3,2.25-3-1.06-3-2.3S20.65,26.06,22.66,26.06Zm-6.18,3.39,1.42-2.66H17v-.64H20v.64H19L17,30.41H14.74l-2-3.62h-1v-.64H16v.64H15l1.47,2.66Zm25.2-3.39c2,0,3,1,3,2.24s-1,2.25-3,2.25-3-1-3-2.25,1-2.24,3-2.24Zm-9.9.77h-1v-.64h4.3v.64h-1l1.43,2.66,1.42-2.66h-.78v-.64h2.93v.64h-1l-1.92,3.62H33.85C33.8,30.45,31.78,26.83,31.78,26.83Zm-4.9,0h-1v-.64h3.94v.64h-1v2.94h.92a1.29,1.29,0,0,0,1.38-1.29h.64v2H25.87v-.64h1v-3Z"/></g></svg>