<svg id="Слой_1" data-name="Слой 1" xmlns="http://www.w3.org/2000/svg" viewBox="0 0 56.69 56.69"><defs><style>.cls-1{fill:#fcc124;}.cls-2{fill:#276eb6;}</style></defs><path class="cls-1" d="M28.35,16.28a1.72,1.72,0,0,0,1.8-1.1l.91-10.34c0-1-1.21-1.87-2.71-1.87s-2.71.84-2.71,1.87l.92,10.34c.09.62.87,1.1,1.79,1.1"/><path class="cls-1" d="M22.74,19.52a1.7,1.7,0,0,0-.06-2.11l-8.53-6c-.88-.52-2.21.1-3,1.4s-.6,2.77.26,3.28l9.44,4.37a1.68,1.68,0,0,0,1.86-1"/><path class="cls-1" d="M34,19.51a1.74,1.74,0,0,0,1.86,1l9.44-4.39c.88-.52,1-2,.27-3.27s-2.1-1.92-3-1.41L34,17.4a1.75,1.75,0,0,0,0,2.12"/><path class="cls-1" d="M28.35,29.2a1.72,1.72,0,0,1,1.8,1.1l.91,10.35c0,1-1.21,1.85-2.71,1.85s-2.71-.83-2.71-1.85l.92-10.35c.09-.62.87-1.1,1.79-1.1"/><path class="cls-1" d="M34,26c.48-.81,1.27-1.24,1.86-1l9.44,4.38c.88.5,1,2,.27,3.27s-2.1,1.91-3,1.41l-8.53-6A1.71,1.71,0,0,1,34,26"/><path class="cls-1" d="M22.74,26a1.69,1.69,0,0,1-.06,2.1l-8.53,6c-.88.51-2.21-.1-3-1.4s-.6-2.77.26-3.27L20.88,25a1.68,1.68,0,0,1,1.86,1"/><path class="cls-2" d="M43.65,49.23a2.76,2.76,0,0,0-3.09-3.1,5.7,5.7,0,0,0-2.72.65l.39,1.32a4,4,0,0,1,2-.55c1.2,0,1.4.68,1.4,1.12v.1c-2.63,0-4.3.91-4.3,2.76a2.19,2.19,0,0,0,2.32,2.19,2.63,2.63,0,0,0,2.12-.94h.05s.29,1.26,1.95.78a11.54,11.54,0,0,1-.11-1.75Zm-2,1.73a1.23,1.23,0,0,1,0,.39,1.36,1.36,0,0,1-1.32.93.9.9,0,0,1-1-1c0-1,1.1-1.27,2.35-1.26"/><path class="cls-2" d="M3.36,43.89s1.72,7,2,8.17c.33,1.33.9,1.83,2.57,1.5L9,49.2a30,30,0,0,0,.63-3h0a29.06,29.06,0,0,0,.52,3l.67,3c.22,1,.84,1.69,2.47,1.34l2.56-9.67H13.81l-.88,4.18c-.23,1.21-.45,2.17-.61,3.28h0c-.15-1.1-.34-2-.58-3.2l-.91-4.26H8.65L7.68,48c-.28,1.27-.54,2.28-.7,3.36H7c-.16-1-.39-2.3-.63-3.52l-.78-4"/><path class="cls-2" d="M21.62,49.23c0-1.65-.7-3.1-3.08-3.1a5.7,5.7,0,0,0-2.72.65l.39,1.32a4,4,0,0,1,2-.55c1.21,0,1.41.68,1.41,1.12v.1c-2.64,0-4.3.91-4.3,2.76a2.19,2.19,0,0,0,2.32,2.19,2.61,2.61,0,0,0,2.11-.94h.05s.3,1.26,2,.78a10.31,10.31,0,0,1-.12-1.75Zm-2,1.73a1.23,1.23,0,0,1-.05.39,1.38,1.38,0,0,1-1.33.93.9.9,0,0,1-1-1c0-1,1.1-1.27,2.36-1.26"/><polygon class="cls-2" points="22.69 43.89 22.69 53.55 24.66 53.55 24.66 51.51 24.66 43.89 22.69 43.89"/><path class="cls-2" d="M49.68,43.89V51a3,3,0,0,0,.58,2.09,2.18,2.18,0,0,0,1.6.61,4.68,4.68,0,0,0,1.42-.21l0-1.53a3.57,3.57,0,0,1-.75.08c-.67,0-.89-.42-.89-1.31V48h1.71V46.18H51.62V43.89"/><path class="cls-2" d="M44.6,46.3v7.26h2V49.84a2.86,2.86,0,0,1,0-.53A1.54,1.54,0,0,1,48.28,48a3.21,3.21,0,0,1,.58,0v-1.9a1.94,1.94,0,0,0-.44,0,2.15,2.15,0,0,0-2,1.53h0V46.3"/><path class="cls-2" d="M25.8,46.3v7.26h2V49.3a1.66,1.66,0,0,1,.09-.59,1.33,1.33,0,0,1,1.2-.93c.8,0,1.18.67,1.18,1.64v4.14h2V49.24a2.25,2.25,0,0,1,.08-.58,1.24,1.24,0,0,1,1.19-.88c.81,0,1.2.65,1.2,1.8v4h2V49.28c0-2.25-1.15-3.14-2.45-3.14a2.63,2.63,0,0,0-1.43.39,3,3,0,0,0-.92.9h0a2.07,2.07,0,0,0-2-1.29,2.3,2.3,0,0,0-2.12,1.14h0v-1"/></svg>