<svg id="Слой_1" data-name="Слой 1" xmlns="http://www.w3.org/2000/svg" viewBox="0 0 56.69 56.69"><defs><style>.cls-1{fill:#213b8a;}.cls-2{fill:#53a9df;}</style></defs><g id="Group_3" data-name="Group 3"><path id="Path_1" data-name="Path 1" class="cls-1" d="M2.57,13.57H9.19l-.3,1.54H6.7v7.65H4.81V15.11H2.57Z"/><path id="Path_2" data-name="Path 2" class="cls-1" d="M9.8,13.39,11.61,13a9.1,9.1,0,0,1,.12,1.65V16c0,.22,0,.49,0,.57a3,3,0,0,1,1.92-.72,1.79,1.79,0,0,1,1.76,1A2.84,2.84,0,0,1,15.55,18v4.73H13.81V18.21c0-.67-.18-.92-.68-.92a2.28,2.28,0,0,0-1.4.62v4.85H9.93V14.93a7.28,7.28,0,0,0-.13-1.54"/><path id="Path_3" data-name="Path 3" class="cls-1" d="M21.85,21,22.54,22A3.92,3.92,0,0,1,20,23c-1.94,0-3.2-1.38-3.2-3.5a3.71,3.71,0,0,1,.85-2.69,2.64,2.64,0,0,1,2.12-.91,2.76,2.76,0,0,1,2,.71,4,4,0,0,1,.9,3v.41H18.71V20c0,1,.51,1.64,1.42,1.64A2.71,2.71,0,0,0,21.85,21m-3.12-2.31h2.05v-.08a1.72,1.72,0,0,0-.21-1,.88.88,0,0,0-.78-.4c-.67,0-1.06.53-1.06,1.47Z"/><path id="Path_4" data-name="Path 4" class="cls-1" d="M2.5,25h2l.79,3.62a24,24,0,0,1,.49,3c0-.35.2-1.66.47-2.93L7,24.94h2l.84,4.12c.18.85.4,2.43.4,2.43,0-.29.35-2.29.5-3L11.56,25H13.5l-2.22,9.26h-2l-.82-3.74A24,24,0,0,1,8,27.8s-.19,1.3-.45,2.64L6.8,34.21H4.69Z"/><path id="Path_5" data-name="Path 5" class="cls-1" d="M18.88,32.32l.68,1a3.85,3.85,0,0,1-2.55.94c-1.94,0-3.2-1.37-3.2-3.5a3.73,3.73,0,0,1,.85-2.68,2.67,2.67,0,0,1,2.13-.92,2.79,2.79,0,0,1,2,.72,4,4,0,0,1,.9,3v.41H15.73v.05c0,1,.52,1.64,1.43,1.64a2.68,2.68,0,0,0,1.72-.67M15.76,30h2v-.08a1.72,1.72,0,0,0-.22-1,.84.84,0,0,0-.78-.4c-.67,0-1,.53-1,1.47Z"/><path id="Path_6" data-name="Path 6" class="cls-1" d="M20.61,28.15a4.92,4.92,0,0,1,1.1-.55,4.53,4.53,0,0,1,1.85-.4,2.07,2.07,0,0,1,2.18,1.18,3.51,3.51,0,0,1,.12,1.21l0,2.28V32a1.37,1.37,0,0,0,.64,1.39l-.95,1.08a2,2,0,0,1-1-.82,2.86,2.86,0,0,1-.41.36,2.33,2.33,0,0,1-1.36.37c-1.5,0-2.32-.77-2.32-2.12,0-1.59,1.09-2.33,3.25-2.33a2.89,2.89,0,0,1,.39,0v-.28c0-.76-.14-1-.79-1a3.81,3.81,0,0,0-2,.77Zm3.47,3H24c-1.23,0-1.65.22-1.65,1a.81.81,0,0,0,.71.88h.07a1.29,1.29,0,0,0,.93-.46Z"/><path id="Path_7" data-name="Path 7" class="cls-1" d="M30.88,27.24l-.45,1.18H29.29v3.45c0,.86.16,1.08.77,1.08a2.21,2.21,0,0,0,.63-.13l.23,1.06a3.79,3.79,0,0,1-1.44.3,1.82,1.82,0,0,1-1.83-1,2.63,2.63,0,0,1-.12-1V28.42h-.67V27.27h.68a10.79,10.79,0,0,1,.06-1.61l1.8-.45c-.07.67-.1,1.35-.11,2Z"/><path id="Path_8" data-name="Path 8" class="cls-1" d="M31.28,24.65l1.81-.42a9.17,9.17,0,0,1,.12,1.65v1.35c0,.21,0,.49,0,.57a3,3,0,0,1,1.92-.73,1.81,1.81,0,0,1,1.75,1A2.84,2.84,0,0,1,37,29.3V34H35.29V29.48c0-.68-.18-.93-.68-.93a2.39,2.39,0,0,0-1.41.62V34H31.41V26.2a7.32,7.32,0,0,0-.13-1.55"/><path id="Path_9" data-name="Path 9" class="cls-1" d="M43.33,32.22,44,33.28a3.92,3.92,0,0,1-2.55.94c-1.95,0-3.2-1.37-3.2-3.5A3.7,3.7,0,0,1,39.11,28a2.66,2.66,0,0,1,2.13-.91,2.74,2.74,0,0,1,2,.72,4,4,0,0,1,.9,3v.41H40.18v.05c0,1,.52,1.64,1.43,1.64a2.6,2.6,0,0,0,1.72-.68m-3.12-2.31h2v-.08a1.81,1.81,0,0,0-.21-1,.85.85,0,0,0-.78-.39c-.68,0-1.06.52-1.06,1.46Z"/><path id="Path_10" data-name="Path 10" class="cls-1" d="M45.08,27.52l1.58-.42a2.14,2.14,0,0,1,.28,1,3,3,0,0,1,1-.86,1.61,1.61,0,0,1,.58-.1,1.38,1.38,0,0,1,.66.14L48.7,28.8a1.06,1.06,0,0,0-.52-.13,1.46,1.46,0,0,0-1.08.57V34H45.33V29.5a6,6,0,0,0-.26-2"/><path id="Path_11" data-name="Path 11" class="cls-1" d="M9.08,37l-.83,1.26a2.36,2.36,0,0,0-1.46-.51,1.89,1.89,0,0,0-1.56.79,4.26,4.26,0,0,0-.52,2.37,5.25,5.25,0,0,0,.38,2.46,1.93,1.93,0,0,0,1.78,1,2.4,2.4,0,0,0,1.39-.45,2,2,0,0,0,.18-.15l.85,1.17a3.76,3.76,0,0,1-2.55.86,3.76,3.76,0,0,1-3-1.27,4.77,4.77,0,0,1-1.11-3.29,5.89,5.89,0,0,1,.62-2.86,4,4,0,0,1,3.52-2.13A3.78,3.78,0,0,1,9.09,37"/><path id="Path_12" data-name="Path 12" class="cls-1" d="M12.69,38.71a2.84,2.84,0,0,1,2.3,1,3.57,3.57,0,0,1,.78,2.47,3.67,3.67,0,0,1-.85,2.62,2.78,2.78,0,0,1-2.23.94c-1.84,0-3-1.38-3-3.5s1.22-3.55,3-3.55m0,1.31a1,1,0,0,0-.92.69,6.46,6.46,0,0,0,0,3.21,1,1,0,0,0,.9.56c.77,0,1.1-.69,1.1-2.29a3.15,3.15,0,0,0-.36-1.81.91.91,0,0,0-.76-.36"/><path id="Path_13" data-name="Path 13" class="cls-1" d="M16.77,39.07l1.6-.44a1.67,1.67,0,0,1,.24.69,2.33,2.33,0,0,1,1.65-.69,1.83,1.83,0,0,1,1.38.56,2.91,2.91,0,0,1,.26.33,2.5,2.5,0,0,1,1.91-.89,2.22,2.22,0,0,1,1.34.42c.38.33.5.73.5,1.66v4.81H23.93V41.05c0-.8-.09-1-.55-1a2,2,0,0,0-1.18.56v4.87H20.52v-4.4c0-.85-.12-1-.6-1a1.85,1.85,0,0,0-1.17.52v4.93H17V40.8a3.41,3.41,0,0,0-.25-1.73"/><path id="Path_14" data-name="Path 14" class="cls-1" d="M27.32,38.8l1.58-.28a3.44,3.44,0,0,1,.12.64,2.27,2.27,0,0,1,1.66-.64,2.54,2.54,0,0,1,1.34.41,3.25,3.25,0,0,1,1.26,2.92,3.7,3.7,0,0,1-.94,2.95,2.44,2.44,0,0,1-1.81.77,2.91,2.91,0,0,1-1.42-.36,5.25,5.25,0,0,1,0,.56v2.12l-1.71.44V40.51a8.2,8.2,0,0,0-.11-1.71m1.83,5a1.62,1.62,0,0,0,1,.4c.87,0,1.21-.59,1.21-2.14a5,5,0,0,0-.17-1.49.81.81,0,0,0-.85-.57,1.62,1.62,0,0,0-1.17.51v3.29Z"/><path id="Path_15" data-name="Path 15" class="cls-1" d="M34.39,39.46a5.39,5.39,0,0,1,1.1-.55,4.6,4.6,0,0,1,1.85-.4,2.08,2.08,0,0,1,2.18,1.18,3.09,3.09,0,0,1,.12,1.21l0,2.28v.12a1.38,1.38,0,0,0,.63,1.39l-.94,1.08a1.91,1.91,0,0,1-.95-.82,3.52,3.52,0,0,1-.41.36,2.35,2.35,0,0,1-1.36.37c-1.51,0-2.33-.77-2.33-2.12,0-1.59,1.1-2.33,3.25-2.33a3,3,0,0,1,.4,0V41c0-.76-.15-1-.79-1a3.69,3.69,0,0,0-2,.77Zm3.48,3h-.08c-1.23,0-1.65.22-1.65,1a.8.8,0,0,0,.71.88h.07a1.29,1.29,0,0,0,.93-.46Z"/><path id="Path_16" data-name="Path 16" class="cls-1" d="M41.06,39l1.57-.44a1.65,1.65,0,0,1,.25.84,6.44,6.44,0,0,1,.78-.5,2.74,2.74,0,0,1,1.22-.29,1.67,1.67,0,0,1,1.62,1,2.62,2.62,0,0,1,.13,1v5H44.89V41.11c0-.76-.13-1-.6-1a2.09,2.09,0,0,0-1.23.61v4.79H41.29V40.61A4.8,4.8,0,0,0,41.05,39"/><path id="Path_17" data-name="Path 17" class="cls-1" d="M47.49,38.87l1.81-.21,1.18,3.94c.12.41.35,1.4.35,1.4s.14-.76.22-1.09.13-.49.26-.94l1-3.21h1.86l-2.46,6.86a4.23,4.23,0,0,1-1.29,2.23,3.63,3.63,0,0,1-1.64.63l-.61-1.17a3.87,3.87,0,0,0,1.1-.45,2,2,0,0,0,.5-.55,4.78,4.78,0,0,0,.38-.79h-.45c-.1-.32-.16-.45-.28-.8l-.35-1.11Z"/><path id="Path_18" data-name="Path 18" class="cls-2" d="M37.33,8.22c-.27.66-.52,1.28-.76,1.91a11.62,11.62,0,0,0-.65,5.13,9,9,0,0,1-.22,3.55,5.08,5.08,0,0,1-4.43,3.64A5.28,5.28,0,0,1,25.9,20a5.39,5.39,0,0,1,1.31-7.51,5.47,5.47,0,0,1,1.86-.83c1-.29,2.13-.45,3.18-.71A12.17,12.17,0,0,0,37,8.51l.38-.29"/></g></svg>