<svg id="Слой_1" data-name="Слой 1" xmlns="http://www.w3.org/2000/svg" viewBox="0 0 56.69 56.69"><defs><style>.cls-1{fill:#1c5faa;}</style></defs><g id="layer1"><path id="path2478" class="cls-1" d="M49.5,26H48v-2.1H49.5ZM55,35.69V30.07a1.58,1.58,0,0,0-1.27-1.72A1.6,1.6,0,0,0,55,26.62V21.68A1.71,1.71,0,0,0,53.28,20H42.43V26H40.94V20H35.36V26H28.07V24.6h5.79V20H22.49V26H21V20H15.42V32.09h-1.5V20H8.35V32.09H6.85V20H1.28V35.69a1,1,0,0,0,1,1H10.1a1,1,0,0,0,1-1,1,1,0,0,0,1,1H20a1,1,0,0,0,1-1v-5h1.49v6.06H33.87V32.09h-5.8V30.67h7.29v6.06h5.58V30.67h1.49v6.06H48V30.67h1a.51.51,0,0,1,.51.51v4.51a1,1,0,0,0,1,1h4.88c-.34-.18-.42-.47-.42-1"/><path id="path2489" class="cls-1" d="M49.5,26H48v-2.1H49.5ZM55,35.69V30.07a1.58,1.58,0,0,0-1.27-1.72A1.6,1.6,0,0,0,55,26.62V21.68A1.71,1.71,0,0,0,53.28,20H42.43V26H40.94V20H35.36V26H28.07V24.6h5.79V20H22.49V26H21V20H15.42V32.09h-1.5V20H8.35V32.09H6.85V20H1.28V35.69a1,1,0,0,0,1,1H10.1a1,1,0,0,0,1-1,1,1,0,0,0,1,1H20a1,1,0,0,0,1-1v-5h1.49v6.06H33.87V32.09h-5.8V30.67h7.29v6.06h5.58V30.67h1.49v6.06H48V30.67h1a.51.51,0,0,1,.51.51v4.51a1,1,0,0,0,1,1h4.88c-.34-.18-.42-.47-.42-1"/></g></svg>