<svg id="Слой_1" data-name="Слой 1" xmlns="http://www.w3.org/2000/svg" xmlns:xlink="http://www.w3.org/1999/xlink" viewBox="0 0 56.69 56.69"><defs><style>.cls-1{fill:none;}.cls-2{clip-path:url(#clip-path);}.cls-3{fill:#131327;}.cls-4{fill:#dcc58e;}.cls-5{fill:#fefeff;}</style><clipPath id="clip-path"><rect class="cls-1" x="-1.7" y="-1.7" width="60.09" height="60.09"/></clipPath></defs><g class="cls-2"><rect class="cls-3" x="-1.7" y="-1.7" width="60.09" height="60.09"/><path class="cls-4" d="M46,15.92a11,11,0,0,1,.92-.89,4.11,4.11,0,0,1,1-.62,1.43,1.43,0,0,1,.82-.11.64.64,0,0,1,.52.52,1.78,1.78,0,0,1,0,.76c0,.08,0,.16-.05.26s.1-.08.14-.12a9.65,9.65,0,0,1,1.05-1,2.67,2.67,0,0,1,.7-.39,1.27,1.27,0,0,1,.64-.06.71.71,0,0,1,.59.51,1.72,1.72,0,0,1,0,.87,3.7,3.7,0,0,1-.42,1.12,21.75,21.75,0,0,1-1.61,2.43,14.73,14.73,0,0,0-.89,1.19,1.49,1.49,0,0,0-.25.63.47.47,0,0,0,.5.56,1.61,1.61,0,0,0,.81-.18,3.68,3.68,0,0,0,1-.73,8.22,8.22,0,0,0,1.4-1.92,11.14,11.14,0,0,0,.94-2.29,9.74,9.74,0,0,0,.4-3.31,3.92,3.92,0,0,0-.32-1.4A2.34,2.34,0,0,0,52,10.33a3.47,3.47,0,0,0-1.86.18,2.26,2.26,0,0,0-1.14,1,1.47,1.47,0,0,0-.19,1.06.76.76,0,0,0,.65.59,1.54,1.54,0,0,0,1.38-.44,2.33,2.33,0,0,0,.53-.75s0-.1.09-.13a.14.14,0,0,1,0,.16,1.42,1.42,0,0,1-.07.22,2.58,2.58,0,0,1-1,1.12,1.66,1.66,0,0,1-1.15.22,1.06,1.06,0,0,1-.92-1,2,2,0,0,1,.84-1.89,3.06,3.06,0,0,1,1.36-.58A4.5,4.5,0,0,1,51.86,10a2.81,2.81,0,0,1,2.37,1.59A3.92,3.92,0,0,1,54.64,13a7.32,7.32,0,0,1-.28,2.79,13.66,13.66,0,0,1-1,2.69,11.09,11.09,0,0,1-1.47,2.26,5.33,5.33,0,0,1-1.15,1,2.24,2.24,0,0,1-1.29.37,1.42,1.42,0,0,1-.72-.2,1,1,0,0,1-.56-1,2.81,2.81,0,0,1,.32-1.3,10.48,10.48,0,0,1,1.33-2c.36-.44.73-.87,1.07-1.33a3.87,3.87,0,0,0,.41-.64,1,1,0,0,0,.14-.49.3.3,0,0,0-.38-.34,1.17,1.17,0,0,0-.56.24,4.7,4.7,0,0,0-.77.71c-.5.55-.94,1.14-1.39,1.73C47.22,19,46.12,20.4,45,21.83a.35.35,0,0,1-.31.15c-.4,0-.79,0-1.19,0h-.17c0-.08.06-.11.1-.16l4.15-5.2a7.07,7.07,0,0,0,.58-.82,1,1,0,0,0,.18-.59c0-.27-.13-.38-.4-.33a1.73,1.73,0,0,0-.7.32,6.3,6.3,0,0,0-1,1c-.48.54-.9,1.13-1.35,1.7-1,1.33-2.05,2.67-3.07,4a.28.28,0,0,1-.25.12H40.28a.28.28,0,0,1-.15,0l.09-.13,4.25-5.33a4.43,4.43,0,0,0,.57-.86,1.11,1.11,0,0,0,.12-.44.28.28,0,0,0-.32-.33.87.87,0,0,0-.45.1,2.32,2.32,0,0,0-.54.39,9.49,9.49,0,0,0-.85.94l-1.83,2.23c-.2.26-.43.49-.63.75s-.65.82-1,1.22a9.06,9.06,0,0,1-.88,1,2.46,2.46,0,0,1-.62.45,1.4,1.4,0,0,1-.83.16.82.82,0,0,1-.74-.8,1.87,1.87,0,0,1,0-.53.76.76,0,0,0,0-.16.14.14,0,0,0-.1.08,2.86,2.86,0,0,1-.46.46c-.19.15-.36.33-.55.48a2.19,2.19,0,0,1-1.27.48.73.73,0,0,1-.75-.5,2,2,0,0,1-.12-.68c0-.06,0-.11,0-.17s-.09.07-.12.11a5.56,5.56,0,0,1-.84.77,2.39,2.39,0,0,1-.84.43,1.34,1.34,0,0,1-.63,0,1,1,0,0,1-.85-.95c0-.13,0-.26,0-.42l-.14.15a4.92,4.92,0,0,1-.8.78,2.06,2.06,0,0,1-1.23.47A1.06,1.06,0,0,1,26.7,21v-.17c-.07,0-.09.07-.13.11a4.7,4.7,0,0,1-.75.73,2.11,2.11,0,0,1-1.33.48,1,1,0,0,1-.92-.51,1.11,1.11,0,0,1-.15-.61,1.41,1.41,0,0,1,0-.21.8.8,0,0,0-.13.13,5.83,5.83,0,0,1-.75.74,2,2,0,0,1-1.28.46A1,1,0,0,1,20.16,21a2.35,2.35,0,0,1,.21-1,4.3,4.3,0,0,1,.5-.85l3.41-4.66a.24.24,0,0,1,.21-.11H25.9a.24.24,0,0,1,.14,0l-.1.14-4.52,5.68a2.52,2.52,0,0,0-.45.82,1.24,1.24,0,0,0,0,.27.4.4,0,0,0,.45.41,1.15,1.15,0,0,0,.4-.12,2.8,2.8,0,0,0,.64-.44,10,10,0,0,0,1.34-1.49l6.41-8.46a.38.38,0,0,1,.35-.17H32c0,.07-.05.1-.08.14q-2.76,3.5-5.53,7l-1.64,2.07a3.9,3.9,0,0,0-.36.54.94.94,0,0,0-.14.51.43.43,0,0,0,.54.44,1.59,1.59,0,0,0,.55-.24,3.9,3.9,0,0,0,.84-.73c.69-.8,1.33-1.64,2-2.48q2.7-3.54,5.39-7.09a.31.31,0,0,1,.27-.13H35.1a.33.33,0,0,1,.14,0,.16.16,0,0,1-.07.12L33.3,13.56c-.17.2-.34.39-.5.6-.55.73-1.13,1.44-1.69,2.15l-2.28,2.88c-.28.34-.54.7-.82,1a2.37,2.37,0,0,0-.41.68.87.87,0,0,0-.08.48.39.39,0,0,0,.47.35,1.26,1.26,0,0,0,.46-.16,3.34,3.34,0,0,0,.92-.76c.54-.6,1-1.24,1.53-1.89s.84-1.14,1.26-1.71l2-2.73a.18.18,0,0,1,.16-.09H35.9c0,.06,0,.08-.06.11-.58.73-1.15,1.46-1.74,2.18-.24.29-.48.58-.7.87-.71.93-1.45,1.83-2.17,2.75a2.19,2.19,0,0,0-.39.74,1.43,1.43,0,0,0,0,.29.39.39,0,0,0,.46.39,1.13,1.13,0,0,0,.43-.13,3.32,3.32,0,0,0,.62-.44,9.8,9.8,0,0,0,1.22-1.36.69.69,0,0,0,.1-.19,10.33,10.33,0,0,1,2.11-3.22,7.44,7.44,0,0,1,2.63-1.8,4.26,4.26,0,0,1,1.12-.27,1.61,1.61,0,0,1,.38,0,.69.69,0,0,1,.54.47.15.15,0,0,0,0,.08c.09-.12.19-.24.27-.37a.25.25,0,0,1,.24-.12H42.5c0,.07,0,.09-.06.12q-2,2.52-4,5c-.2.26-.41.5-.61.76a1.79,1.79,0,0,0-.37.71.82.82,0,0,0,0,.49.35.35,0,0,0,.4.22,1.09,1.09,0,0,0,.42-.2,4.63,4.63,0,0,0,.71-.69c.42-.48.81-1,1.21-1.48s.77-.94,1.15-1.4l2.09-2.55a4.77,4.77,0,0,1,.74-.75,1.58,1.58,0,0,1,1-.37.79.79,0,0,1,.86.76,2,2,0,0,1-.06.69l0,.16s0,0,0,.06S46,15.94,46,15.92ZM34.1,21.16a.33.33,0,0,0,.41.38,1.57,1.57,0,0,0,.65-.25,5,5,0,0,0,.82-.64,12.38,12.38,0,0,0,.9-1c.44-.53.87-1.08,1.27-1.64a17.11,17.11,0,0,0,1.27-1.91,2.72,2.72,0,0,0,.26-.58.7.7,0,0,0,0-.29c0-.28-.17-.39-.45-.33a1.71,1.71,0,0,0-.68.29,5.2,5.2,0,0,0-1,.77,19,19,0,0,0-2.54,3.11,8.46,8.46,0,0,0-.79,1.45A2.16,2.16,0,0,0,34.1,21.16Z"/><path class="cls-4" d="M19.08,13.65a1.35,1.35,0,0,0-.32.31,9.82,9.82,0,0,0-1,1.36c-.5.82-1,1.65-1.47,2.47-.19.31-.4.6-.59.91a14,14,0,0,1-1.32,1.84,6.09,6.09,0,0,1-1.11,1,2.63,2.63,0,0,1-1.87.53.79.79,0,0,0-.48.08,1.35,1.35,0,0,1-.79.17.67.67,0,0,1-.28-.06.28.28,0,0,1-.05-.53,1,1,0,0,1,.51-.16,1.74,1.74,0,0,1,.6.08.2.2,0,0,0,.25-.07,8.77,8.77,0,0,0,1-1.6c.48-.89.88-1.81,1.3-2.72A31.62,31.62,0,0,1,15,14.39,11.37,11.37,0,0,1,16,13a7.1,7.1,0,0,1,1.25-1.2c.05,0,.11,0,.13-.12a2.83,2.83,0,0,0-.89-.34,4.89,4.89,0,0,0-2,0,8.36,8.36,0,0,0-1.75.58l-.05,0a.07.07,0,0,0,0,.07,2.08,2.08,0,0,1,.6,1.15,4.31,4.31,0,0,1-.05,1.89,6.78,6.78,0,0,1-.3,1,6.43,6.43,0,0,1-1.64,2.59,3.7,3.7,0,0,1-1.41.85,2.36,2.36,0,0,1-1.12.08,1.31,1.31,0,0,1-.56-.23.19.19,0,0,0-.19,0,3.46,3.46,0,0,1-1.27.33,2.56,2.56,0,0,1-.62,0s0,.07,0,.11a5.27,5.27,0,0,0,1.12,2.46,4.81,4.81,0,0,0,2.67,1.62A7.72,7.72,0,0,0,11.6,24H82.66c.25,0,.25,0,.25.25v.08c0,.06,0,.09-.09.09a.4.4,0,0,0-.11,0H11.23A5.62,5.62,0,0,1,7.1,22.68a5.5,5.5,0,0,1-1.51-2.91,1.76,1.76,0,0,0-.07-.4c-.06-.11-.21-.14-.32-.21a3.11,3.11,0,0,1-1.29-1.88,4.13,4.13,0,0,1-.07-1.05,6.71,6.71,0,0,1,.82-2.84,8.3,8.3,0,0,1,1.93-2.28,12,12,0,0,1,3.49-2A14.32,14.32,0,0,1,13,8.35a14.55,14.55,0,0,1,3-.18,13.56,13.56,0,0,1,3,.43,9.47,9.47,0,0,1,3.18,1.45,6,6,0,0,1,.61.5.76.76,0,0,1,.09.09s0,0,0,.07,0,0-.07,0l-.07,0a10.78,10.78,0,0,0-3.3-1.48,12.21,12.21,0,0,0-3.61-.45,14.26,14.26,0,0,0-8.46,3,11.88,11.88,0,0,0-1.11,1,6,6,0,0,0-.79.95,5.87,5.87,0,0,0-.94,2,3.66,3.66,0,0,0,.08,2,2.39,2.39,0,0,0,.79,1.09.31.31,0,0,0,.15.08c0-.24,0-.47,0-.7a7.27,7.27,0,0,1,1.19-3.77A6.54,6.54,0,0,1,9.45,12a4.67,4.67,0,0,1,1.8-.44.37.37,0,0,0,.17-.05,8,8,0,0,1,2.33-.82,6.34,6.34,0,0,1,2.84.08,3.06,3.06,0,0,1,1.11.56.14.14,0,0,0,.18,0,4.3,4.3,0,0,1,.88-.45,2.07,2.07,0,0,1,.43-.1.51.51,0,0,1,.32,0,.3.3,0,0,1,.15.42.76.76,0,0,1-.3.29,2.23,2.23,0,0,1-.76.27,3.08,3.08,0,0,1-.61.07.25.25,0,0,0-.22.12,10.17,10.17,0,0,0-.94,1.41c-.33.57-.64,1.15-.94,1.73-.19.36-.4.71-.57,1.07-.42.9-.87,1.77-1.35,2.64a13,13,0,0,1-1,1.62,8.41,8.41,0,0,1-1.27,1.26l-.12.1v0a.66.66,0,0,0,.37,0,2.26,2.26,0,0,0,.88-.31,3.94,3.94,0,0,0,.94-.74,11.74,11.74,0,0,0,1.5-1.93c.55-.86,1.05-1.76,1.56-2.65a26,26,0,0,1,1.61-2.55,10.15,10.15,0,0,1,2.14-2.2,4,4,0,0,1,.8-.47.54.54,0,0,1,.38,0v0a5.58,5.58,0,0,0-1,1.58c-.36.79-.65,1.6-1,2.4-.38,1-.77,2-1.24,2.94A11.48,11.48,0,0,1,17,20.46a10.08,10.08,0,0,1-1.41,1.36s-.06,0-.07.08a.9.9,0,0,0,.49,0,1.79,1.79,0,0,0,.72-.32,5.73,5.73,0,0,0,1-1,23.87,23.87,0,0,0,1.52-2c.51-.73,1-1.46,1.52-2.18.83-1.16,1.65-2.33,2.57-3.42A12.47,12.47,0,0,1,26,10.57a6.79,6.79,0,0,1,2.31-1,4.63,4.63,0,0,1,4.45,1.28.29.29,0,0,1,.12.22A.21.21,0,0,1,32.8,11a5.07,5.07,0,0,0-2.49-1,5.38,5.38,0,0,0-2.8.47,7.89,7.89,0,0,0-2.11,1.46l-.54.54c-.2.23-.41.46-.61.7-.61.74-1.21,1.5-1.79,2.27-.2.27-.4.55-.61.81s-.61.79-.9,1.2c-.76,1.05-1.55,2.08-2.4,3.06-.25.29-.5.56-.77.83a3.76,3.76,0,0,1-1,.68,2.06,2.06,0,0,1-1.42.15.38.38,0,0,0-.31,0,1.5,1.5,0,0,1-.88.22.6.6,0,0,1-.35-.1.25.25,0,0,1-.05-.43.92.92,0,0,1,.57-.22,1.52,1.52,0,0,1,.6.1c.13.05.13.05.22-.05a8.21,8.21,0,0,0,1-1.45,29.52,29.52,0,0,0,1.33-2.85c.41-1,.78-1.93,1.23-2.87.13-.28.27-.54.41-.81,0,0,0,0,0,0S19.09,13.64,19.08,13.65ZM8.57,19.05a1.1,1.1,0,0,0,.56.19,2.19,2.19,0,0,0,1.3-.31,4,4,0,0,0,1-.84A6.78,6.78,0,0,0,13,15a3.7,3.7,0,0,0,0-1.84,1.79,1.79,0,0,0-.6-.95.2.2,0,0,0-.25,0,14.08,14.08,0,0,0-1.43.88,6.25,6.25,0,0,0-.85.69,7.27,7.27,0,0,0-.93,1,7.57,7.57,0,0,0-.52.74,3.19,3.19,0,0,0-.52,2.36,2.53,2.53,0,0,0,.28.77c.1.16.1.16.25.06A5.49,5.49,0,0,0,9.23,18a7.66,7.66,0,0,0,1.56-2.58.78.78,0,0,1,.05-.14,0,0,0,0,1,.06,0s.06,0,0,.07,0,0,0,.08a9.13,9.13,0,0,1-.7,1.72A5.18,5.18,0,0,1,8.61,19Zm2.07-7.12a3.39,3.39,0,0,0-.78.25,6.39,6.39,0,0,0-2.09,1.7,6.69,6.69,0,0,0-.69,1,10.71,10.71,0,0,0-.64,1.32A6.19,6.19,0,0,0,6.05,19c0,.15,0,.15.16.19a2,2,0,0,0,1.14,0,1.8,1.8,0,0,0,.53-.2,1.94,1.94,0,0,1-.31-.56,3.8,3.8,0,0,1-.11-2.31,6.34,6.34,0,0,1,1.47-2.69A8.46,8.46,0,0,1,10.58,12S10.63,12,10.64,11.93Z"/><path class="cls-4" d="M26.33,12.18a.64.64,0,0,1,0-.2,1.34,1.34,0,0,1,1-1,.57.57,0,0,1,.29,0,.53.53,0,0,1,.46.52.5.5,0,0,1,0,.21,1.36,1.36,0,0,1-1.08,1A.56.56,0,0,1,26.33,12.18Z"/><path class="cls-4" d="M36.2,12.17a.82.82,0,0,1,0-.21,1.41,1.41,0,0,1,1-1,.71.71,0,0,1,.29,0,.53.53,0,0,1,.46.52,1.49,1.49,0,0,1,0,.21,1.36,1.36,0,0,1-1.09,1A.55.55,0,0,1,36.2,12.17Z"/><path class="cls-3" d="M19.08,13.65s0,0,0,0,0,0,0,0Z"/><path class="cls-5" d="M19.57,37.3V48.19c0,.4,0,.34-.34.34H13.36c-.13,0-.21,0-.19-.18a1.47,1.47,0,0,0,0-.21V39.9c0-.25,0-.26-.24-.26H10.22c-.22,0-.23,0-.23.24v8.54c0,.08,0,.11-.12.11H3.73c-.12,0-.16,0-.16-.16a1.47,1.47,0,0,0,0-.21V26.33c0-.23,0-.23.24-.23H9.74c.28,0,.25,0,.25.28v6.51c0,.31,0,.63,0,.94,0,.12,0,.18.17.18H13c.13,0,.19,0,.18-.17a1.47,1.47,0,0,1,0-.21V26.38c0-.33,0-.28.3-.28h5.81c.33,0,.29-.05.29.29Z"/><path class="cls-5" d="M43.28,37.31V26.42c0-.38-.05-.32.32-.32h5.9a.75.75,0,0,0,.15,0c.11,0,.17,0,.16.16a1.92,1.92,0,0,0,0,.24c0,4.92,0,9.85,0,14.78,0,.38-.05.34.33.34H54c.14,0,.22,0,.2.18a1.08,1.08,0,0,0,0,.18v6.27c0,.32,0,.29-.3.29H43.41c-.09,0-.13,0-.13-.12V37.31Z"/><path class="cls-5" d="M30.75,37.31V26.43c0-.39-.05-.33.34-.33H37c.26,0,.25,0,.25.23V41.38c0,.23,0,.23.24.23h3.92c.26,0,.26,0,.26.27v6.44c0,.16,0,.24-.2.21H31.09c-.38,0-.34.06-.34-.33Z"/><path class="cls-5" d="M22,37.29V26.43c0-.38-.06-.33.34-.33,1.91,0,3.83,0,5.75,0,.36,0,.32,0,.32.32V48.19c0,.4,0,.34-.34.34H22.24c-.32,0-.29,0-.29-.29Z"/></g></svg>