<svg id="Слой_1" data-name="Слой 1" xmlns="http://www.w3.org/2000/svg" viewBox="0 0 56.69 56.69"><defs><style>.cls-1{fill:#b2cdec;}.cls-2{fill:#e73239;}.cls-3{fill:#a6ca62;}.cls-4{fill:#4da0d9;}.cls-5{fill:#d5e5b6;}.cls-6{fill:#80ba27;}.cls-7{fill:#127abf;}</style></defs><g id="g2002"><path id="path2004" class="cls-1" d="M34.19,4.28a24.41,24.41,0,0,0-11.69,0v6.54H34.19Z"/></g><path id="path2006" class="cls-2" d="M34.19,34.19H22.5V22.5H34.19Z"/><path id="path2008" class="cls-3" d="M34.19,45.87H22.5V34.19H34.19Z"/><g id="g2010"><path id="path2012" class="cls-4" d="M22.5,52.41a24.41,24.41,0,0,0,11.69,0V45.87H22.5Z"/></g><path id="path2014" class="cls-5" d="M34.19,22.5H22.5V10.82H34.19Z"/><path id="path2016" class="cls-5" d="M22.5,34.19H10.82V22.5H22.5Z"/><path id="path2018" class="cls-6" d="M22.5,45.87H10.82V34.19H22.5Z"/><g id="g2020"><path id="path2022" class="cls-7" d="M10.82,45.87A24.61,24.61,0,0,0,22.5,52.41V45.87Z"/></g><path id="path2024" class="cls-3" d="M22.5,22.5H10.82V10.82H22.5Z"/><g id="g2026"><path id="path2028" class="cls-4" d="M22.5,4.28a24.7,24.7,0,0,0-11.68,6.54H22.5Z"/></g><g id="g2030"><path id="path2032" class="cls-7" d="M10.82,45.87V34.19H4.28a24.7,24.7,0,0,0,6.54,11.68"/></g><g id="g2034"><path id="path2036" class="cls-4" d="M10.82,10.82A24.7,24.7,0,0,0,4.28,22.5h6.54Z"/></g><path id="path2038" class="cls-3" d="M45.87,34.19H34.19V22.5H45.87Z"/><path id="path2040" class="cls-6" d="M45.87,45.87H34.19V34.19H45.87Z"/><g id="g2042"><path id="path2044" class="cls-7" d="M45.87,45.87H34.19v6.54a24.61,24.61,0,0,0,11.68-6.54"/></g><path id="path2046" class="cls-6" d="M45.87,22.5H34.19V10.82H45.87Z"/><g id="g2048"><path id="path2050" class="cls-7" d="M34.19,4.28v6.54H45.87A24.7,24.7,0,0,0,34.19,4.28"/></g><g id="g2052"><path id="path2054" class="cls-7" d="M45.87,45.87a24.7,24.7,0,0,0,6.54-11.68H45.87Z"/></g><g id="g2056"><path id="path2058" class="cls-7" d="M45.87,10.82V22.5h6.54a24.7,24.7,0,0,0-6.54-11.68"/></g><g id="g2060"><path id="path2062" class="cls-1" d="M4.28,22.5a24.41,24.41,0,0,0,0,11.69h6.54V22.5Z"/></g><g id="g2064"><path id="path2066" class="cls-4" d="M52.41,34.19a24.41,24.41,0,0,0,0-11.69H45.87V34.19Z"/></g></svg>