<svg id="Слой_1" data-name="Слой 1" xmlns="http://www.w3.org/2000/svg" viewBox="0 0 56.69 56.69"><defs><style>.cls-1{fill:#d91737;}.cls-2{fill:#fff;}</style></defs><path id="path30" class="cls-1" d="M-1.69,59.13h61.6V-2.72H-1.69Z"/><path id="path32" class="cls-2" d="M16,44.75H15l-1.3,5.86L12,44.8v0H11L9.33,50.59,8,44.8v0H7l1.73,7.59v0H9.84l1.63-5.9,1.67,5.85v0h1.12L16,44.8v0"/><path id="path34" class="cls-2" d="M43.9,51.05V44.72h-1v2.66a2,2,0,0,0-.5-.34,2.43,2.43,0,0,0-1.09-.26,2.2,2.2,0,0,0-1.07.26,2.18,2.18,0,0,0-1,1.1,3.75,3.75,0,0,0-.29,1.5,3.55,3.55,0,0,0,.52,1.92,2.09,2.09,0,0,0,.72.7,2.16,2.16,0,0,0,1.08.27,2.22,2.22,0,0,0,1.08-.27,2.45,2.45,0,0,0,.53-.38l0,.5h1l0-.42c0-.28,0-.6,0-.91m-1-1.52A2.77,2.77,0,0,1,42.53,51a1.28,1.28,0,0,1-.47.43,1.6,1.6,0,0,1-.75.17,1.05,1.05,0,0,1-.62-.18,1.21,1.21,0,0,1-.3-.33,2.17,2.17,0,0,1-.27-.72,3.94,3.94,0,0,1-.08-.8,2.41,2.41,0,0,1,.31-1.27,1.15,1.15,0,0,1,.41-.41,1.19,1.19,0,0,1,.64-.16,1.48,1.48,0,0,1,.68.15,1.3,1.3,0,0,1,.6.66,2.41,2.41,0,0,1,.19,1"/><path id="path36" class="cls-2" d="M19.44,47a2.7,2.7,0,0,0-2.31,0,2.35,2.35,0,0,0-1.1,1.1,3.3,3.3,0,0,0-.35,1.52,3.18,3.18,0,0,0,.63,2,2.18,2.18,0,0,0,.82.66,2.7,2.7,0,0,0,2.31,0,2.35,2.35,0,0,0,1.1-1.1,3.29,3.29,0,0,0,.35-1.51,3.19,3.19,0,0,0-.63-2,2.26,2.26,0,0,0-.82-.66M19,51.41a1.45,1.45,0,0,1-.7.17,1.48,1.48,0,0,1-.7-.17,1.66,1.66,0,0,1-.63-.76,2.42,2.42,0,0,1-.21-1,2.34,2.34,0,0,1,.37-1.31,1.34,1.34,0,0,1,.47-.45,1.38,1.38,0,0,1,.7-.18,1.33,1.33,0,0,1,.7.18,1.5,1.5,0,0,1,.64.75,2.44,2.44,0,0,1,.21,1,2.39,2.39,0,0,1-.37,1.3,1.4,1.4,0,0,1-.48.46"/><path id="path38" class="cls-2" d="M25.1,47.06a2.72,2.72,0,0,0-2.32,0,2.37,2.37,0,0,0-1.09,1.1,3.3,3.3,0,0,0-.35,1.52,3.12,3.12,0,0,0,.63,2,2.37,2.37,0,0,0,.81.67,2.82,2.82,0,0,0,2.32,0,2.44,2.44,0,0,0,1.09-1.11,3.29,3.29,0,0,0,.35-1.51,3.13,3.13,0,0,0-.63-2,2.23,2.23,0,0,0-.81-.66m.38,2.62a2.41,2.41,0,0,1-.36,1.3,1.61,1.61,0,0,1-.48.46,1.53,1.53,0,0,1-1.4,0,1.62,1.62,0,0,1-.64-.76,2.59,2.59,0,0,1-.21-1,2.35,2.35,0,0,1,.38-1.31,1.42,1.42,0,0,1,1.87-.45,1.55,1.55,0,0,1,.64.75,2.6,2.6,0,0,1,.2,1"/><path id="path40" class="cls-2" d="M31.91,51.07V44.74h-1V47.4a2,2,0,0,0-.5-.34,2.4,2.4,0,0,0-1.09-.26,2.2,2.2,0,0,0-1.07.26,2.13,2.13,0,0,0-1,1.1,3.75,3.75,0,0,0-.29,1.5,3.7,3.7,0,0,0,.52,1.93,2.25,2.25,0,0,0,.72.69,2.16,2.16,0,0,0,1.08.27,2.29,2.29,0,0,0,1.09-.27,2.66,2.66,0,0,0,.52-.38l0,.5h1L32,52c0-.3,0-.64,0-1m-1-1.51A2.66,2.66,0,0,1,30.54,51a1.21,1.21,0,0,1-.47.43,1.6,1.6,0,0,1-.75.17,1,1,0,0,1-.92-.51,2,2,0,0,1-.27-.72,4,4,0,0,1-.08-.79,2.45,2.45,0,0,1,.31-1.28,1.15,1.15,0,0,1,.41-.41,1.19,1.19,0,0,1,.64-.16,1.45,1.45,0,0,1,.68.15,1.3,1.3,0,0,1,.6.66,2.43,2.43,0,0,1,.19,1"/><path id="path42" class="cls-2" d="M35.91,49.34c-.42-.14-.81-.24-1.15-.32l-.57-.16a1,1,0,0,1-.43-.21.28.28,0,0,1-.08-.11.47.47,0,0,1,0-.17.51.51,0,0,1,.07-.28.66.66,0,0,1,.34-.26,1.6,1.6,0,0,1,.56-.09,1.58,1.58,0,0,1,.75.16.62.62,0,0,1,.22.2.64.64,0,0,1,.11.31v.18h1.06l0-.21a1.77,1.77,0,0,0-.21-.75,1.56,1.56,0,0,0-.79-.65,2.86,2.86,0,0,0-1.07-.17,2.63,2.63,0,0,0-1.39.34,1.33,1.33,0,0,0-.5.5,1.46,1.46,0,0,0-.2.76,1.24,1.24,0,0,0,.17.67,1.16,1.16,0,0,0,.3.36,2.39,2.39,0,0,0,.62.32,5.13,5.13,0,0,0,.7.19l.15,0a4.55,4.55,0,0,1,.93.26.73.73,0,0,1,.3.22.49.49,0,0,1,.1.32.69.69,0,0,1-.09.36.85.85,0,0,1-.42.34,2,2,0,0,1-1.5-.06.61.61,0,0,1-.26-.24.74.74,0,0,1-.12-.38v-.18H32.41v.2a1.62,1.62,0,0,0,.22.8,1.7,1.7,0,0,0,.84.71,2.7,2.7,0,0,0,1.08.21,3,3,0,0,0,1.6-.43,1.72,1.72,0,0,0,.56-.58,1.69,1.69,0,0,0,.21-.84,1.38,1.38,0,0,0-.28-.83,1.53,1.53,0,0,0-.73-.53"/><path id="path44" class="cls-2" d="M37.38,45.89h1.11V44.75H37.38Z"/><path id="path46" class="cls-2" d="M37.44,52.41h1V47h-1Z"/><path id="path48" class="cls-2" d="M48.52,50.53a1.34,1.34,0,0,1-.46.74,1.29,1.29,0,0,1-.84.3,1.78,1.78,0,0,1-.72-.14,1.37,1.37,0,0,1-.65-.63,2.4,2.4,0,0,1-.21-.82h4v-.2a3.53,3.53,0,0,0-.56-2.1,2,2,0,0,0-.8-.66,2.76,2.76,0,0,0-1.18-.24A2.43,2.43,0,0,0,46,47a2.38,2.38,0,0,0-1.06,1.09,3.44,3.44,0,0,0-.34,1.53,3.3,3.3,0,0,0,.59,2,2.18,2.18,0,0,0,.77.65,2.43,2.43,0,0,0,1.09.25A2.64,2.64,0,0,0,48.65,52a2.44,2.44,0,0,0,.89-1.43l0-.08Zm-2.45-2.36a1.27,1.27,0,0,1,1-.45,1.81,1.81,0,0,1,.63.11,1.28,1.28,0,0,1,.6.53,1.94,1.94,0,0,1,.22.68H45.68a1.83,1.83,0,0,1,.39-.87"/><g id="g24"><path id="path50" class="cls-2" d="M48.76,10.2C46.53,8.33,39,15,35.94,18a20.11,20.11,0,0,1-3.11,14.65,11.81,11.81,0,0,1-.95,1.28c3.05.38,7.62-2.4,13.17-10.22,3.1-4.36,6.38-11.25,3.71-13.49"/><path id="path52" class="cls-2" d="M24.06,37.35c-4.66-.92-5.54-6.07-5.27-11,0-.17,0-.33,0-.5-3.91-3-9.26-6.59-11-5C5.17,23.43,9,30.43,12.54,34.8c7.91,9.87,13.72,11.49,16.5,8.82.92-.88,1.67-3.21-.42-7.12l-.12.06a7.55,7.55,0,0,1-4.44.79"/><path id="path54" class="cls-2" d="M35.94,18h0c-1.07-6.56-5.42-14-8.85-13.83-3.59.18-7.91,13-8.28,21.74,2.2,1.72,4,3.28,4.31,3.64a30.63,30.63,0,0,1,5.5,7,10.6,10.6,0,0,0,3.26-2.59,3.83,3.83,0,0,1-2.05-.9c-1.38-1.17-2.59-5.45,4.85-13.75.16-.18.61-.65,1.26-1.28"/></g></svg>