<svg id="Слой_1" data-name="Слой 1" xmlns="http://www.w3.org/2000/svg" viewBox="0 0 56.69 56.69"><defs><style>.cls-1{fill:#010101;}</style></defs><path class="cls-1" d="M16.11,47.6H13.85L10,42.24,6.07,47.6H3.81l5-6.9-4.6-6.36H6.48L10,39.16l3.5-4.82h2.25L11.1,40.7Zm11.71-3.77a3.44,3.44,0,0,1-1.15,2.75,4.93,4.93,0,0,1-3.3,1H17.18V41.69h-3L15.45,40h1.73V34.34h5.94a4.44,4.44,0,0,1,3.08,1,3.17,3.17,0,0,1,1.07,2.5,3.12,3.12,0,0,1-1.73,2.89,3.61,3.61,0,0,1,1.68,1.23,3.06,3.06,0,0,1,.6,1.9ZM19.19,40H23a2.53,2.53,0,0,0,1.74-.52A2,2,0,0,0,25.29,38a1.67,1.67,0,0,0-.6-1.38A2.58,2.58,0,0,0,23,36.08H19.19V40Zm6.6,3.77a1.94,1.94,0,0,0-.63-1.57,2.82,2.82,0,0,0-1.87-.52h-4.1v4.15h4.07a3.08,3.08,0,0,0,1.87-.52,1.89,1.89,0,0,0,.66-1.54ZM41.47,41A8.33,8.33,0,0,1,41,43.78,7,7,0,0,1,39.71,46a6,6,0,0,1-2.07,1.43,6.65,6.65,0,0,1-2.64.46,7.35,7.35,0,0,1-2.64-.46A6.17,6.17,0,0,1,30.3,46,6.26,6.26,0,0,1,29,43.78,8.33,8.33,0,0,1,28.51,41a8.23,8.23,0,0,1,.44-2.8,6.21,6.21,0,0,1,1.35-2.23,5.71,5.71,0,0,1,2.06-1.43,7.65,7.65,0,0,1,5.28,0,5.63,5.63,0,0,1,2.07,1.43A6.44,6.44,0,0,1,41,38.17a8.94,8.94,0,0,1,.44,2.8ZM30.6,41a5.4,5.4,0,0,0,1.21,3.71,4.38,4.38,0,0,0,6.38,0A5.39,5.39,0,0,0,39.38,41a5.49,5.49,0,0,0-1.19-3.74,4.4,4.4,0,0,0-6.38,0A5.55,5.55,0,0,0,30.6,41Zm17.25-.27,4.62-6.36H50.21l-3.49,4.82-3.49-4.82H41l4.62,6.36-5,6.9h2.25l3.88-5.36,3.91,5.36h2.25Zm-19.5-23h0c3.32,2.54,9,8.75,7.26,10.51a11,11,0,0,1-14.52,0c-1.74-1.76,3.93-8,7.23-10.48a0,0,0,0,1,0,0Zm5.74-7.23a11,11,0,0,0-11.49,0s0,0,0,.06,0,0,.06,0c2.14-.46,5.39,1.38,5.69,1.57h.05c.31-.19,3.55-2,5.7-1.57,0,0,0,0,0,0s0-.06,0-.06ZM20.62,12s0,0-.06,0a11.08,11.08,0,0,0-1,14.52s0,0,.06,0,0,0,0-.06c-.86-2.61,3.46-8.91,5.69-11.55l0,0s0,0,0,0c-3.38-3.36-4.51-3-4.7-2.92Zm10.75,2.89,0,0s0,0,0,0c2.23,2.64,6.52,8.94,5.7,11.56v.05s0,0,0,0A11,11,0,0,0,36.1,12s0,0-.05,0-1.29-.41-4.68,2.92Z"/></svg>