<svg id="Слой_1" data-name="Слой 1" xmlns="http://www.w3.org/2000/svg" viewBox="0 0 56.69 56.69"><defs><style>.cls-1{fill:#4d3f92;}</style></defs><g id="layer1"><path id="path1139" class="cls-1" d="M4.14,6.85H7L8.7,11.14l1.7-4.29h2.8L9,17H6.16l1.16-2.69Z"/><path id="path1141" class="cls-1" d="M16.12,6.68a3.7,3.7,0,0,0-3.53,3.87,3.66,3.66,0,0,0,3.49,3.9,2.37,2.37,0,0,0,2.05-.9v.7h2.51V6.85H18.13v.67A2.55,2.55,0,0,0,16.12,6.68Zm.54,2.38a1.51,1.51,0,1,1,0,3,1.52,1.52,0,0,1-1.52-1.49A1.47,1.47,0,0,1,16.66,9.06Z"/><path id="path1145" class="cls-1" d="M21.5,14.25V3.58h2.63v4a2.44,2.44,0,0,1,1.93-.87c1.6,0,2.54,1.19,2.54,2.89v4.68H26v-4c0-.57-.27-1.13-.9-1.13a1,1,0,0,0-1,1.13v4Z"/><path id="path1147" class="cls-1" d="M33.08,6.68a3.84,3.84,0,0,0-4,3.9,4,4,0,0,0,7.92,0A3.81,3.81,0,0,0,33.08,6.68Zm0,2.4a1.49,1.49,0,0,1,1.48,1.51,1.51,1.51,0,0,1-1.48,1.48,1.47,1.47,0,0,1-1.47-1.49A1.42,1.42,0,0,1,33.1,9.08Z"/><path id="path1153" class="cls-1" d="M41.42,6.68a3.84,3.84,0,0,0-4,3.9,4,4,0,0,0,7.92,0A3.81,3.81,0,0,0,41.42,6.68Zm0,2.4a1.49,1.49,0,0,1,1.48,1.51,1.51,1.51,0,0,1-1.48,1.48A1.47,1.47,0,0,1,40,10.58,1.43,1.43,0,0,1,41.44,9.08Z"/><circle id="path1155" class="cls-1" cx="47.46" cy="12.66" r="1.74"/><path id="path1157" class="cls-1" d="M49.77,10.28H46.63l2.79-6.7h3.13Z"/></g><g id="layer1-2" data-name="layer1"><path id="path1139-2" data-name="path1139" class="cls-1" d="M4.14,18.89H7L8.7,23.18l1.7-4.29h2.8L9,29H6.16l1.16-2.69Z"/><path id="path1141-2" data-name="path1141" class="cls-1" d="M16.12,18.71a3.71,3.71,0,0,0-3.53,3.88,3.66,3.66,0,0,0,3.49,3.9,2.37,2.37,0,0,0,2.05-.91v.71h2.51v-7.4H18.13v.67A2.54,2.54,0,0,0,16.12,18.71Zm.54,2.38a1.52,1.52,0,0,1,0,3,1.52,1.52,0,0,1-1.52-1.49A1.47,1.47,0,0,1,16.66,21.09Z"/><path id="path1145-2" data-name="path1145" class="cls-1" d="M21.5,26.29V15.62h2.63v4a2.45,2.45,0,0,1,1.93-.86c1.6,0,2.54,1.19,2.54,2.89v4.68H26v-4c0-.58-.27-1.13-.9-1.13a1,1,0,0,0-1,1.13v4Z"/><path id="path1147-2" data-name="path1147" class="cls-1" d="M33.08,18.72a3.89,3.89,0,1,0,4,3.94A3.83,3.83,0,0,0,33.08,18.72Zm0,2.39a1.49,1.49,0,0,1,1.48,1.51A1.51,1.51,0,0,1,33.1,24.1a1.46,1.46,0,0,1-1.47-1.49A1.43,1.43,0,0,1,33.1,21.11Z"/><path id="path1153-2" data-name="path1153" class="cls-1" d="M41.42,18.72a3.89,3.89,0,1,0,4,3.94A3.83,3.83,0,0,0,41.42,18.72Zm0,2.39a1.49,1.49,0,0,1,1.48,1.51,1.51,1.51,0,0,1-1.48,1.48A1.46,1.46,0,0,1,40,22.61,1.44,1.44,0,0,1,41.44,21.11Z"/><circle id="path1155-2" data-name="path1155" class="cls-1" cx="47.46" cy="24.7" r="1.74"/><path id="path1157-2" data-name="path1157" class="cls-1" d="M49.77,22.31H46.63l2.79-6.69h3.13Z"/></g><g id="layer1-3" data-name="layer1"><path id="path1139-3" data-name="path1139" class="cls-1" d="M4.14,30.92H7L8.7,35.21l1.7-4.29h2.8L9,41.08H6.16l1.16-2.7Z"/><path id="path1141-3" data-name="path1141" class="cls-1" d="M16.12,30.75a3.7,3.7,0,0,0-3.53,3.87,3.66,3.66,0,0,0,3.49,3.9,2.37,2.37,0,0,0,2.05-.9v.7h2.51v-7.4H18.13v.67A2.55,2.55,0,0,0,16.12,30.75Zm.54,2.38a1.51,1.51,0,1,1,0,3,1.52,1.52,0,0,1-1.52-1.49A1.46,1.46,0,0,1,16.66,33.13Z"/><path id="path1145-3" data-name="path1145" class="cls-1" d="M21.5,38.32V27.65h2.63v4a2.44,2.44,0,0,1,1.93-.87c1.6,0,2.54,1.19,2.54,2.89v4.68H26v-4c0-.57-.27-1.13-.9-1.13a1,1,0,0,0-1,1.13v4Z"/><path id="path1147-3" data-name="path1147" class="cls-1" d="M33.08,30.75a3.89,3.89,0,1,0,4,3.94A3.83,3.83,0,0,0,33.08,30.75Zm0,2.4a1.49,1.49,0,0,1,1.48,1.51,1.51,1.51,0,0,1-1.48,1.48,1.47,1.47,0,0,1-1.47-1.49A1.42,1.42,0,0,1,33.1,33.15Z"/><path id="path1153-3" data-name="path1153" class="cls-1" d="M41.42,30.75a3.89,3.89,0,1,0,4,3.94A3.83,3.83,0,0,0,41.42,30.75Zm0,2.4a1.49,1.49,0,0,1,1.48,1.51,1.51,1.51,0,0,1-1.48,1.48A1.47,1.47,0,0,1,40,34.65,1.43,1.43,0,0,1,41.44,33.15Z"/><circle id="path1155-3" data-name="path1155" class="cls-1" cx="47.46" cy="36.73" r="1.74"/><path id="path1157-3" data-name="path1157" class="cls-1" d="M49.77,34.35H46.63l2.79-6.7h3.13Z"/></g><g id="layer1-4" data-name="layer1"><path id="path1139-4" data-name="path1139" class="cls-1" d="M4.14,43H7L8.7,47.24,10.4,43h2.8L9,53.11H6.16l1.16-2.69Z"/><path id="path1141-4" data-name="path1141" class="cls-1" d="M16.12,42.78a3.7,3.7,0,0,0-3.53,3.88,3.65,3.65,0,0,0,3.49,3.89,2.37,2.37,0,0,0,2.05-.9v.7h2.51V43H18.13v.68A2.54,2.54,0,0,0,16.12,42.78Zm.54,2.38a1.51,1.51,0,1,1,0,3,1.52,1.52,0,0,1-1.52-1.48A1.47,1.47,0,0,1,16.66,45.16Z"/><path id="path1145-4" data-name="path1145" class="cls-1" d="M21.5,50.35V39.69h2.63v4a2.44,2.44,0,0,1,1.93-.87c1.6,0,2.54,1.2,2.54,2.9v4.67H26v-4c0-.58-.27-1.13-.9-1.13a1,1,0,0,0-1,1.13v4Z"/><path id="path1147-4" data-name="path1147" class="cls-1" d="M33.08,42.78a3.89,3.89,0,1,0,0,7.77,3.89,3.89,0,1,0,0-7.77Zm0,2.4a1.49,1.49,0,0,1,1.48,1.51,1.51,1.51,0,0,1-1.48,1.48,1.46,1.46,0,0,1-1.47-1.49A1.43,1.43,0,0,1,33.1,45.18Z"/><path id="path1153-4" data-name="path1153" class="cls-1" d="M41.42,42.78a3.89,3.89,0,1,0,0,7.77,3.89,3.89,0,1,0,0-7.77Zm0,2.4a1.49,1.49,0,0,1,1.48,1.51,1.51,1.51,0,0,1-1.48,1.48A1.46,1.46,0,0,1,40,46.68,1.44,1.44,0,0,1,41.44,45.18Z"/><circle id="path1155-4" data-name="path1155" class="cls-1" cx="47.46" cy="48.77" r="1.74"/><path id="path1157-4" data-name="path1157" class="cls-1" d="M49.77,46.38H46.63l2.79-6.69h3.13Z"/></g></svg>