<svg id="Слой_1" data-name="Слой 1" xmlns="http://www.w3.org/2000/svg" viewBox="0 0 56.69 56.69"><defs><style>.cls-1{fill:#181e28;}.cls-2{fill:#ec641d;}</style></defs><g id="layer1"><path id="Shape" class="cls-1" d="M5.6,28.86a2.57,2.57,0,0,1-1.29-.32,2.28,2.28,0,0,1-.86-.91,2.8,2.8,0,0,1-.31-1.35,2.89,2.89,0,0,1,.45-1.61A2.94,2.94,0,0,1,4.9,23.61a5,5,0,0,1,2-.37,4.07,4.07,0,0,1,.86.07v-.22a1.92,1.92,0,0,0-.29-1.16,1,1,0,0,0-.88-.4,1.17,1.17,0,0,0-1.21,1c-.06.2-.17.28-.35.25l-1.4-.25a.29.29,0,0,1-.21-.13.42.42,0,0,1,0-.28,2.7,2.7,0,0,1,1.14-1.63,3.88,3.88,0,0,1,2.2-.59,3.17,3.17,0,0,1,2.38.85,3.39,3.39,0,0,1,.82,2.46V28.4a.26.26,0,0,1-.08.2.24.24,0,0,1-.18.07H8.34A.3.3,0,0,1,8,28.4l-.21-1H7.74A2.2,2.2,0,0,1,5.6,28.86ZM5.39,26a1.34,1.34,0,0,0,.27.88,1,1,0,0,0,.78.32,1.09,1.09,0,0,0,1-.57A3.36,3.36,0,0,0,7.76,25v-.55a3.62,3.62,0,0,0-.55-.05,1.92,1.92,0,0,0-1.34.45A1.49,1.49,0,0,0,5.39,26Zm5.83-5.67a.26.26,0,0,1,.08-.19.27.27,0,0,1,.19-.08h1.36a.25.25,0,0,1,.19.07.35.35,0,0,1,.1.2l.21,1h.08a2.26,2.26,0,0,1,.8-1.08,2,2,0,0,1,1.23-.39,2.13,2.13,0,0,1,1.31.41,2.53,2.53,0,0,1,.86,1.14h.08a3.36,3.36,0,0,1,1-1.16A2.19,2.19,0,0,1,20,19.9a2.12,2.12,0,0,1,1.32.42,2.51,2.51,0,0,1,.87,1.17,4.94,4.94,0,0,1,.3,1.81v5.1a.3.3,0,0,1-.08.2.25.25,0,0,1-.19.07H20.57a.24.24,0,0,1-.27-.27V23.46A2,2,0,0,0,20,22.31a1,1,0,0,0-.83-.41,1,1,0,0,0-.92.48A2.48,2.48,0,0,0,18,23.75V28.4a.3.3,0,0,1-.08.2.25.25,0,0,1-.19.07H16a.29.29,0,0,1-.2-.07.35.35,0,0,1-.07-.2V23.46a1.9,1.9,0,0,0-.29-1.15,1,1,0,0,0-.83-.41,1,1,0,0,0-.92.48,2.48,2.48,0,0,0-.31,1.37V28.4a.3.3,0,0,1-.08.2.25.25,0,0,1-.19.07H11.49a.26.26,0,0,1-.19-.07.3.3,0,0,1-.08-.2Zm12.34,5.92A2.89,2.89,0,0,1,24,24.67a2.94,2.94,0,0,1,1.31-1.06,5,5,0,0,1,2-.37,4,4,0,0,1,.85.07v-.22a1.85,1.85,0,0,0-.29-1.16,1,1,0,0,0-.87-.4,1.18,1.18,0,0,0-1.22,1c-.06.2-.17.28-.34.25l-1.4-.25a.29.29,0,0,1-.22-.13.37.37,0,0,1,0-.28A2.73,2.73,0,0,1,25,20.49a3.9,3.9,0,0,1,2.2-.59,3.16,3.16,0,0,1,2.38.85,3.39,3.39,0,0,1,.83,2.46V28.4a.3.3,0,0,1-.08.2.25.25,0,0,1-.19.07H28.76a.3.3,0,0,1-.31-.27l-.21-1h-.08a2.22,2.22,0,0,1-.83,1.06,2.33,2.33,0,0,1-1.3.37,2.52,2.52,0,0,1-1.29-.32,2.31,2.31,0,0,1-.87-.91,2.8,2.8,0,0,1-.31-1.35ZM25.81,26a1.29,1.29,0,0,0,.28.88,1,1,0,0,0,.77.32,1.08,1.08,0,0,0,1-.57A3.25,3.25,0,0,0,28.18,25v-.55a3.51,3.51,0,0,0-.55-.05,1.92,1.92,0,0,0-1.34.45A1.49,1.49,0,0,0,25.81,26Zm5.67,1.13a.6.6,0,0,1,.13-.4l3.52-4.94h-3.3a.26.26,0,0,1-.19-.07.28.28,0,0,1-.08-.2V20.36a.26.26,0,0,1,.08-.19.27.27,0,0,1,.19-.08h5.43a.29.29,0,0,1,.27.27v1.25a.59.59,0,0,1-.13.39l-3.19,4.39a3.68,3.68,0,0,1,.58-.05,7.06,7.06,0,0,1,1.36.13,6.33,6.33,0,0,1,1.3.42.35.35,0,0,1,.24.35v1.18a.24.24,0,0,1-.1.23.3.3,0,0,1-.26,0,8,8,0,0,0-1.37-.4,6.4,6.4,0,0,0-1.29-.13,7.56,7.56,0,0,0-1.36.13,9.66,9.66,0,0,0-1.47.4.35.35,0,0,1-.25,0,.23.23,0,0,1-.11-.22Zm6.67-2.78a5.29,5.29,0,0,1,.48-2.28A3.93,3.93,0,0,1,40,20.49a3.35,3.35,0,0,1,3.8,0A4,4,0,0,1,45.1,22.1a5.15,5.15,0,0,1,.49,2.28,5.23,5.23,0,0,1-.49,2.29,4,4,0,0,1-1.34,1.61,3.4,3.4,0,0,1-3.8,0,4,4,0,0,1-1.33-1.61A5.37,5.37,0,0,1,38.15,24.38Zm2.26,0a4.4,4.4,0,0,0,.38,2,1.15,1.15,0,0,0,1.07.7,1.17,1.17,0,0,0,1.08-.7,4.27,4.27,0,0,0,.38-2,4.23,4.23,0,0,0-.38-2,1.16,1.16,0,0,0-1.08-.71,1.14,1.14,0,0,0-1.07.71A4.35,4.35,0,0,0,40.41,24.38Zm6.3-4a.25.25,0,0,1,.07-.19.28.28,0,0,1,.2-.08h1.36a.24.24,0,0,1,.18.07.36.36,0,0,1,.11.2l.2,1h.08a2.33,2.33,0,0,1,.82-1.08A2.13,2.13,0,0,1,51,19.9a2.21,2.21,0,0,1,1.35.42,2.61,2.61,0,0,1,.89,1.17,4.93,4.93,0,0,1,.31,1.81v5.1a.27.27,0,0,1-.09.2.23.23,0,0,1-.18.07H51.64a.24.24,0,0,1-.27-.27V23.46a1.83,1.83,0,0,0-.31-1.15,1.05,1.05,0,0,0-.88-.41,1.09,1.09,0,0,0-1,.48,2.39,2.39,0,0,0-.33,1.37V28.4a.26.26,0,0,1-.08.2.24.24,0,0,1-.18.07H47a.27.27,0,0,1-.2-.07.29.29,0,0,1-.07-.2Z"/><path id="Path" class="cls-2" d="M8.87,29.86c-.13.1-.16.27-.08.51a2.78,2.78,0,0,0,.48.8,13.72,13.72,0,0,0,3.67,3.15,16.64,16.64,0,0,0,4.55,1.86,20.6,20.6,0,0,0,11.16-.34,14,14,0,0,0,4.91-2.64c.46-.41.69-.73.69-1a.41.41,0,0,0-.12-.27.36.36,0,0,0-.37-.1,2.64,2.64,0,0,0-.61.26,18,18,0,0,1-4.6,1.57,25.93,25.93,0,0,1-5.64.6,24.93,24.93,0,0,1-7-1,17.2,17.2,0,0,1-6-3.09,2.14,2.14,0,0,0-.62-.38.35.35,0,0,0-.37,0Z"/><path id="path6" class="cls-2" d="M31.79,30.37a.37.37,0,0,0-.11.44A.3.3,0,0,0,32,31a1.79,1.79,0,0,0,.58,0,9.1,9.1,0,0,1,1.29-.18,6.31,6.31,0,0,1,1.17,0,.93.93,0,0,1,.62.24c.12.19.08.58-.14,1.18A7.74,7.74,0,0,1,34.64,34a2,2,0,0,0-.25.54.34.34,0,0,0,.1.33.3.3,0,0,0,.21.09,1.59,1.59,0,0,0,.87-.52A4.82,4.82,0,0,0,37,32.28,5.26,5.26,0,0,0,37.28,31a1.6,1.6,0,0,0-.16-1,1.52,1.52,0,0,0-.86-.47,4.7,4.7,0,0,0-1.33-.19,5.31,5.31,0,0,0-2.49.62,3.78,3.78,0,0,0-.65.44Z"/></g></svg>