<svg id="Слой_1" data-name="Слой 1" xmlns="http://www.w3.org/2000/svg" viewBox="0 0 56.69 56.69"><defs><style>.cls-1{fill:#e8452a;}.cls-2{fill:#010101;}</style></defs><path class="cls-1" d="M6.71,50.34V49.11a7.83,7.83,0,0,0-.86-3.94L2.58,38.11H4.84l2.77,6a9.34,9.34,0,0,1,1.17,4.7v1.49ZM8,44l2.57-5.92h2.17L10.17,44Z"/><path class="cls-2" d="M49.86,47.35l-1.79,3H45.94l2.79-4.61-2.68-4.24h2.36l1.69,2.68,1.52-2.68h2.1l-2.5,4.3,2.89,4.55H51.74ZM40.4,45.12h2.93v-.18c0-1.11-.32-2-1.36-2s-1.52.74-1.57,2.15m2,5.4c-2.68,0-4.2-1.5-4.2-4.58,0-2.67,1.22-4.62,3.77-4.62,2.1,0,3.46,1.16,3.46,4.24v1.11H40.4c.09,1.47.67,2.2,2.2,2.2A5.33,5.33,0,0,0,45.37,48v1.71a5.21,5.21,0,0,1-2.94.77M31.29,46c0,2,.57,2.89,1.72,2.89s1.78-.9,1.78-3S34.22,43,33.09,43s-1.8.92-1.8,3m-2.17,0c0-3,1.41-4.66,3.44-4.66a2.6,2.6,0,0,1,2.23,1.21V38.11h2.1V50.34H35l-.11-1.14a2.73,2.73,0,0,1-2.36,1.32c-2,0-3.36-1.62-3.36-4.54m-6.35,4.36h-2.1V41.49h2l.05.74h.11a3.26,3.26,0,0,1,2.41-.88c1.72,0,2.42.78,2.42,2.54v6.46h-2.1V44.1c0-.67-.33-1-1.08-1a2.33,2.33,0,0,0-1.76.88Zm-5.91-4.13h-.3c-1.8,0-2.52.37-2.52,1.41a1.2,1.2,0,0,0,1.32,1.32,1.74,1.74,0,0,0,1.5-.71Zm2.1,2c0,.72,0,1.44.1,2.16H17a2.77,2.77,0,0,1-.16-.7h-.09a2.65,2.65,0,0,1-2.17.83,2.56,2.56,0,0,1-2.72-2.8c0-1.8,1.43-2.85,4.64-2.85h.34v-.49c0-.95-.46-1.31-1.47-1.31a5.51,5.51,0,0,0-2.87.88V42.16a6.27,6.27,0,0,1,3.12-.81c2.22,0,3.32.81,3.32,3Z"/><path class="cls-1" d="M25.73,39.11V35.8A21.08,21.08,0,0,0,23.4,25.18l-8.79-19h6.08l7.47,16.26c2.18,4.74,3.13,7.2,3.13,12.66v4Zm3.57-17L36.24,6.17h5.84l-7,15.93Z"/></svg>