<svg id="Слой_1" data-name="Слой 1" xmlns="http://www.w3.org/2000/svg" viewBox="0 0 56.69 56.69"><defs><style>.cls-1{fill:none;}.cls-2{fill:#e52629;}</style></defs><g id="アートボード1"><rect class="cls-1" x="7.31" y="47.04" width="42.07" height="5.31"/><path class="cls-2" d="M12.66,48a.66.66,0,0,0-.66-.65H7.9a.3.3,0,0,0-.3.28v.69a.3.3,0,0,0,.3.29h3.27v.56H7.9a.3.3,0,0,0-.3.28v.69a.3.3,0,0,0,.3.29h3.27V51H7.9a.3.3,0,0,0-.3.28v.69a.3.3,0,0,0,.3.29h4.43c.34,0,.33-.4.33-.62ZM43,51.14a.47.47,0,0,0,.46-.46v-.32a.46.46,0,0,0-.23-.4l-1.1-.47L43,48.16a.45.45,0,0,0-.38-.7h-.74c-.29,0-.51.34-.51.34l-.76,1.08L38.56,48s-.33-.07-.3.29V49a.41.41,0,0,0,.28.37l1.37.57L38.43,52c-.1.13,0,.23.11.23h1.32a.64.64,0,0,0,.48-.26l1-1.45,1.42.59A.47.47,0,0,0,43,51.14Zm-5.57.6V48.4a.46.46,0,0,0-.46-.45H35.2s0,0,0-.08a.51.51,0,0,0-.12-.3.44.44,0,0,0-.33-.16h-.82c-.17,0-.24.09-.3.28l-.09.26h-.91a.3.3,0,0,0-.31.28v.69a.3.3,0,0,0,.31.29h.49l-.92,2.72c-.05.17.13.28.3.28h.72c.26,0,.49,0,.62-.26l.92-2.74h1.14v1.86H35a.3.3,0,0,0-.3.29v.55a.31.31,0,0,0,.3.3h1.89A.47.47,0,0,0,37.39,51.74ZM48.6,49H44.55a.29.29,0,0,0-.3.28v.55a.3.3,0,0,0,.3.29h2.29l-1,1.87c-.13.25.06.24.13.24h1.35a.44.44,0,0,0,.39-.2L49,49.63a.46.46,0,0,0,0-.21A.45.45,0,0,0,48.6,49ZM30.87,51.38l-4.38.82a.28.28,0,0,1-.29-.28V51c0-.16.14-.26.32-.3l4.28-.8c.3,0,.49.27.49.47v.58A.46.46,0,0,1,30.87,51.38Zm-12.72-.8a.45.45,0,0,0,.46-.46v-.28a.45.45,0,0,0-.39-.45L15,49V47.82a.46.46,0,0,0-.46-.45h-.68a.29.29,0,0,0-.3.28v4.24a.3.3,0,0,0,.3.29h.72a.46.46,0,0,0,.42-.42V50.22Zm6.26-1.39A.44.44,0,0,0,24,48.9h-.74a.26.26,0,0,0-.27.37c.08.25.89,2.61.89,2.61.06.19.14.29.31.29h.86c.17,0,.33-.16.28-.3S24.47,49.35,24.41,49.19Zm-1.95-1.38a.46.46,0,0,0-.47-.46h-.82c-.17,0-.26.1-.3.28,0,0-1.32,4-1.39,4.18a.29.29,0,0,0,.28.35h1.1c.19,0,.25-.2.29-.34s1.27-3.84,1.29-3.88A.59.59,0,0,0,22.46,47.81Zm5.74,2.11H26.5a.29.29,0,0,1-.31-.28V49a.3.3,0,0,1,.3-.29h1.78a.46.46,0,0,1,.45.46v.2A.49.49,0,0,1,28.2,49.92Zm-9.55-1.78v-.27a.46.46,0,0,0-.45-.46H18a.3.3,0,0,0-.3.29v.61a.3.3,0,0,0,.3.29h.21A.46.46,0,0,0,18.65,48.14Zm-1.28,0v-.27a.46.46,0,0,0-.45-.46h-.2a.3.3,0,0,0-.31.29v.61a.3.3,0,0,0,.31.29h.2A.46.46,0,0,0,17.37,48.14Zm7.9,0v-.27a.46.46,0,0,0-.44-.46h-.21a.29.29,0,0,0-.3.29v.61a.29.29,0,0,0,.3.29h.21A.46.46,0,0,0,25.27,48.14Zm-1.27,0v-.27a.46.46,0,0,0-.45-.46h-.21a.3.3,0,0,0-.3.29v.61a.3.3,0,0,0,.3.29h.21A.47.47,0,0,0,24,48.14Zm4.2.42H26.5a.3.3,0,0,1-.31-.29v-.6a.3.3,0,0,1,.3-.29h1.78a.46.46,0,0,1,.45.46V48A.49.49,0,0,1,28.2,48.56Zm20.51,0H44.55a.3.3,0,0,1-.3-.28v-.55a.29.29,0,0,1,.3-.29h4.23a.47.47,0,0,1,.46.46V48A.5.5,0,0,1,48.71,48.55Z"/></g><path class="cls-2" d="M45.93,37.45,9.72,44.2a2.3,2.3,0,0,1-2.34-2.37v-7.9c0-1.31,1.15-2.18,2.64-2.46l35.37-6.6c2.42-.44,4,2.23,4,3.86v4.83A3.82,3.82,0,0,1,45.93,37.45Z"/><path class="cls-2" d="M23.85,25.37h-14A2.44,2.44,0,0,1,7.31,23V18a2.42,2.42,0,0,1,2.48-2.37H24.45a3.79,3.79,0,0,1,3.74,3.78v1.67A4.06,4.06,0,0,1,23.85,25.37Z"/><path class="cls-2" d="M23.85,14.12h-14a2.46,2.46,0,0,1-2.5-2.37v-5A2.42,2.42,0,0,1,9.79,4.35H24.45a3.8,3.8,0,0,1,3.74,3.79V9.79A4.07,4.07,0,0,1,23.85,14.12Z"/></svg>