<svg id="Слой_1" data-name="Слой 1" xmlns="http://www.w3.org/2000/svg" viewBox="0 0 56.69 56.69"><defs><style>.cls-1{fill:#e6233c;}.cls-2{fill:#fff;}.cls-3{fill:#010101;}</style></defs><g id="layer1"><g id="g2366"><path id="path1412" class="cls-1" d="M28.32,36.68s14.45,0,18-1a5.77,5.77,0,0,0,4.07-4c1-3.53,1-10.95,1-10.95s0-7.38-1-10.88a5.65,5.65,0,0,0-4.07-4c-3.58-1-18-1-18-1s-14.41,0-18,1a5.81,5.81,0,0,0-4.1,4c-1,3.5-1,10.88-1,10.88s0,7.42,1,11a5.94,5.94,0,0,0,4.1,4c3.57,1,18,1,18,1Z"/><path id="path1414" class="cls-2" d="M35.5,20.78,23.58,14V27.54Z"/></g></g><g id="g2362"><path id="path1418" class="cls-3" d="M9.72,51.66v-4l2.57-8.38H10.37l-1,3.8c-.22.88-.42,1.79-.56,2.63H8.71A20.68,20.68,0,0,0,8.15,43l-.94-3.79H5.29l2.53,8.38v4Z"/><path id="path1420" class="cls-3" d="M14.87,42.34c-2.24,0-3,1.3-3,4.08v1.33c0,2.5.48,4.06,3,4.06s3-1.49,3-4.06V46.42c0-2.49-.51-4.08-2.93-4.08Zm1,6.23c0,1.21-.21,2-1,2s-1-.77-1-2v-3c0-1,.15-2,1-2s1,1,1,2Z"/><path id="path1422" class="cls-3" d="M20.91,51.8a2.57,2.57,0,0,0,2.31-1.27h.08l.08,1.13h1.47V42.52h-2v7.34a1.39,1.39,0,0,1-1.14.63c-.57,0-.75-.45-.75-1.21V42.52H19.07v6.85c0,1.49.43,2.43,1.84,2.43Z"/><path id="path1424" class="cls-3" d="M28.71,51.66V40.75H31V39.24H24.54v1.51h2.24V51.66Z"/><path id="path1426" class="cls-3" d="M32.44,51.8a2.56,2.56,0,0,0,2.31-1.27h.08l.08,1.13h1.48V42.52h-2v7.34a1.36,1.36,0,0,1-1.13.63c-.57,0-.75-.45-.75-1.21V42.52H30.6v6.85c0,1.49.43,2.43,1.84,2.43Z"/><path id="path1428" class="cls-3" d="M41.91,42.32a2.36,2.36,0,0,0-2.08,1.09h-.09c.06-.89.1-1.64.1-2.24V38.75H38V51.66H39.6l.14-.89h0a2.36,2.36,0,0,0,2,1c1.49,0,2.12-1.28,2.12-4V46.33c0-2.54-.28-4-2-4ZM42,47.75c0,1.7-.25,2.71-1,2.71a1.42,1.42,0,0,1-1.1-.51V44.52a1.29,1.29,0,0,1,1.13-.9c.8,0,1,1,1,2.74Z"/><path id="path1430" class="cls-3" d="M50.77,46.19c0-2.21-.23-3.84-2.76-3.84s-2.92,1.59-2.92,3.93v1.6c0,2.28.49,3.93,2.86,3.93,1.88,0,2.85-.94,2.74-2.75L49,49c0,1.12-.28,1.58-1,1.58-.94,0-1-.9-1-2.23V47.7h3.76ZM48,43.58c.91,0,1,.85,1,2.29v.75H47v-.75C47,44.44,47.07,43.58,48,43.58Z"/></g></svg>