<svg id="Слой_1" data-name="Слой 1" xmlns="http://www.w3.org/2000/svg" viewBox="0 0 56.69 56.69"><defs><style>.cls-1{fill:#2a2627;}.cls-2{fill:#799dc9;}.cls-3{fill:#fcfcfe;}</style></defs><path class="cls-1" d="M10.94,30.22c1.2.66,1.35,1.16.69,2.44Q8.91,37.87,6.18,43.05l-.38.77h5.65c.85,0,.82,0,.86.82,0,.53-.13.69-.67.68-1.32,0-2.63,0-3.95,0-1,0-2,0-3.06,0-1.52,0-2.09-.81-1.42-2.17,1-2,2-3.94,3.07-5.91.87-1.66,1.73-3.33,2.62-5,.2-.37.19-.52-.29-.49a27,27,0,0,0-3.24.1c-.86.17-1.09.41-1.2,1.3,0,.42-.14.66-.64.61-.31,0-.4-.12-.39-.42,0-1,0-2.07,0-3.11Z"/><path class="cls-2" d="M43.4,51.45H34.86c-.78,0-1.07-.28-1.07-1.06v-3c0-.68.28-1,1-1H52.08a1,1,0,0,1,1.07,1.05c0,1,0,2,0,3,0,.69-.31,1-1,1ZM46,48.9v1.4c0,.24,0,.49.36.44s.55,0,.52-.44c0-.59,0-1.18,0-1.77s.22-.77.7-.78.6.37.59.79c0,.59,0,1.19,0,1.78,0,.32.11.46.44.46s.44-.14.44-.47c0-.59,0-1.18,0-1.77s.1-.76.6-.79.68.34.68.78,0,1.19,0,1.78c0,.3.11.41.41.41s.5,0,.49-.4c0-.72,0-1.44,0-2.16,0-.51-.25-1-.77-1a28.29,28.29,0,0,0-3.19,0c-.23,0-.41.15-.69,0s-.56,0-.54.41S46,48.44,46,48.9Zm-4.23,0a1.79,1.79,0,1,0,3.57.07A1.69,1.69,0,0,0,43.61,47,1.73,1.73,0,0,0,41.81,48.87Zm-3.59,0a1.83,1.83,0,0,0,2.66,1.77c.24-.08.51-.14.38-.52s-.31-.3-.61-.18a1.05,1.05,0,0,1-1.53-1.07,1,1,0,0,1,1.47-1.1c.35.1.54,0,.65-.25s-.24-.4-.44-.47A1.89,1.89,0,0,0,38.22,48.91Zm-1.49.41a.93.93,0,1,0-1.84,0,.89.89,0,0,0,.89,1A.91.91,0,0,0,36.73,49.32Z"/><path class="cls-1" d="M23.5,44.76v3.46a4.65,4.65,0,0,1-.07.75,1,1,0,0,1-1.08.89,1.07,1.07,0,0,1-1.1-.88,2.65,2.65,0,0,1-.07-.69c0-3.66,0-7.32,0-11,0-.44.06-.68.58-.61a2.4,2.4,0,0,0,2.11-.94,2.72,2.72,0,0,1,2.27-.9,2.85,2.85,0,0,1,2.51,1.86,9.06,9.06,0,0,1,.2,6.56A3.25,3.25,0,0,1,23.5,44.76Zm0-4.68c0,.53,0,1,0,1.45A3.49,3.49,0,0,0,24,43.4a1.25,1.25,0,0,0,2.22-.06,2.53,2.53,0,0,0,.29-.7,10.79,10.79,0,0,0,.23-3.58,4.6,4.6,0,0,0-.48-2,1.12,1.12,0,0,0-1.93-.24,4.51,4.51,0,0,0-.46.68A4.66,4.66,0,0,0,23.5,40.08Z"/><path class="cls-1" d="M32.53,44.71c0,1.35,0,2.58,0,3.8,0,.84-.43,1.35-1.11,1.36a1.25,1.25,0,0,1-1.2-1.37c0-3.79,0-7.58,0-11.37,0-.34.1-.47.43-.42a2.43,2.43,0,0,0,2.2-.88c1.69-1.8,4.24-1,5,1.28a9.36,9.36,0,0,1,0,6.16,3.28,3.28,0,0,1-3.81,2.32A3.6,3.6,0,0,1,32.53,44.71Zm0-4.71v.51a8.28,8.28,0,0,0,.26,2.38A1.46,1.46,0,0,0,34.15,44c.71,0,1-.44,1.29-1a5.6,5.6,0,0,0,.34-1.85,9,9,0,0,0-.32-3.69c-.19-.51-.45-1-1.08-1s-1,.34-1.31.83A4.27,4.27,0,0,0,32.53,40Z"/><path class="cls-1" d="M19.88,40.7c0,.95,0,1.9,0,2.85,0,.37-.07.58-.49.52a3.08,3.08,0,0,0-2.48.88,2.7,2.7,0,0,1-3.8-.43,2.78,2.78,0,0,1,.46-3.86A6.08,6.08,0,0,1,17,39.55c.41,0,.55-.12.54-.55a10,10,0,0,0-.24-2.32.78.78,0,0,0-.86-.67c-.49,0-.62.38-.68.79s-.09.62-.15.93a1.2,1.2,0,0,1-.8,1c-.45.17-.73-.07-1-.38-1.05-1.08-1-2.08.35-2.89a4.54,4.54,0,0,1,4.16-.31c1.18.45,1.43,1.55,1.5,2.65s0,1.94,0,2.92Zm-2.32,1.2V41c0-.17-.06-.26-.26-.27a2,2,0,0,0-2.2,2.18,1.05,1.05,0,0,0,.56,1,1.19,1.19,0,0,0,1.24-.27A1.68,1.68,0,0,0,17.56,41.9Z"/><path class="cls-1" d="M39,40.14a9,9,0,0,1,.68-3.41,3.31,3.31,0,0,1,3-1.92,3.39,3.39,0,0,1,3.19,1.6,7.31,7.31,0,0,1,.91,4.51,6.64,6.64,0,0,1-.52,2.52A3.74,3.74,0,0,1,39.4,43,11.14,11.14,0,0,1,39,40.14Zm5.52-.62a6.77,6.77,0,0,0-.27-2.32C44,36.38,43.58,36,42.94,36s-1,.33-1.28,1.18a10.81,10.81,0,0,0-.32,3.58,7,7,0,0,0,.41,2.67,1.26,1.26,0,0,0,1.15.86,1.28,1.28,0,0,0,1.22-.76,3.49,3.49,0,0,0,.4-1.64C44.53,41.13,44.52,40.32,44.52,39.52Z"/><path class="cls-1" d="M53.16,36.34c0,.21,0,.42,0,.63s.13.51-.28.5-.55.08-.61-.4c-.08-.69-.79-1-1.63-.92s-1,.44-1,1.1a1.32,1.32,0,0,0,.61.92c.62.45,1.25.87,1.88,1.3a3.57,3.57,0,0,1,1.46,3.88,2.71,2.71,0,0,1-2,2,4.31,4.31,0,0,1-3-.18,2.05,2.05,0,0,1-.58-.37c-.34-.33-.76-.74-.39-1.19s.81-.19,1.21.06a2.42,2.42,0,0,0,1.69.43,1.06,1.06,0,0,0,.73-1.79A6,6,0,0,0,50,41.16c-.34-.25-.7-.47-1-.74a3.17,3.17,0,0,1-1.19-3.91,3.42,3.42,0,0,1,3.73-1.67l.44.07C53.16,35.13,53.16,35.13,53.16,36.34Z"/><path class="cls-3" d="M46,48.9c0-.46,0-.93,0-1.39s.22-.59.54-.41.46,0,.69,0a28.29,28.29,0,0,1,3.19,0c.52,0,.75.52.77,1,0,.72,0,1.44,0,2.16,0,.37-.2.4-.49.4s-.41-.11-.41-.41c0-.59,0-1.19,0-1.78s-.13-.81-.68-.78-.62.34-.6.79,0,1.18,0,1.77c0,.33-.11.47-.44.47s-.45-.14-.44-.46c0-.59,0-1.19,0-1.78,0-.42-.07-.79-.59-.79s-.72.27-.7.78,0,1.18,0,1.77c0,.43-.25.41-.52.44s-.36-.2-.36-.44Z"/><path class="cls-3" d="M41.81,48.87A1.73,1.73,0,0,1,43.61,47a1.69,1.69,0,0,1,1.77,1.94,1.79,1.79,0,1,1-3.57-.07Zm.91,0c0,.71.32,1.17.85,1.18s.91-.46.91-1.21-.28-1.11-.82-1.13S42.72,48.12,42.72,48.89Z"/><path class="cls-3" d="M38.22,48.91a1.89,1.89,0,0,1,2.58-1.82c.2.07.57.08.44.47s-.3.35-.65.25a1,1,0,0,0-1.47,1.1A1.05,1.05,0,0,0,40.65,50c.3-.12.49-.2.61.18s-.14.44-.38.52A1.83,1.83,0,0,1,38.22,48.91Z"/><path class="cls-3" d="M36.73,49.32a.91.91,0,0,1-.95,1,.89.89,0,0,1-.89-1,.93.93,0,1,1,1.84,0Z"/><path class="cls-3" d="M23.5,40.08a4.66,4.66,0,0,1,.36-2.53,4.51,4.51,0,0,1,.46-.68,1.12,1.12,0,0,1,1.93.24,4.6,4.6,0,0,1,.48,2,10.79,10.79,0,0,1-.23,3.58,2.53,2.53,0,0,1-.29.7A1.25,1.25,0,0,1,24,43.4a3.49,3.49,0,0,1-.49-1.87C23.48,41.07,23.5,40.61,23.5,40.08Z"/><path class="cls-3" d="M32.53,40a4.27,4.27,0,0,1,.54-2.73c.32-.49.66-.89,1.31-.83s.89.52,1.08,1a9,9,0,0,1,.32,3.69A5.6,5.6,0,0,1,35.44,43c-.25.58-.58,1-1.29,1a1.46,1.46,0,0,1-1.36-1.14,8.28,8.28,0,0,1-.26-2.38Z"/><path class="cls-3" d="M17.56,41.9a1.68,1.68,0,0,1-.66,1.69,1.19,1.19,0,0,1-1.24.27,1.05,1.05,0,0,1-.56-1,2,2,0,0,1,2.2-2.18c.2,0,.26.1.26.27Z"/><path class="cls-3" d="M44.52,39.52c0,.8,0,1.61,0,2.41a3.49,3.49,0,0,1-.4,1.64,1.28,1.28,0,0,1-1.22.76,1.26,1.26,0,0,1-1.15-.86,7,7,0,0,1-.41-2.67,10.81,10.81,0,0,1,.32-3.58c.25-.85.63-1.18,1.28-1.18s1,.34,1.31,1.16A6.77,6.77,0,0,1,44.52,39.52Z"/><path class="cls-2" d="M42.72,48.89c0-.77.34-1.18.94-1.16s.82.42.82,1.13-.36,1.22-.91,1.21S42.71,49.6,42.72,48.89Z"/><path class="cls-2" d="M35.23,5.25c2.24,1.3,2.6,3.55,2.67,5.78a35.16,35.16,0,0,1-3,16c-.31.7-.59.72-1.18.32A6,6,0,0,0,29,26.41c-.6.13-.78-.08-.88-.63a17.94,17.94,0,0,1-.21-5.17,39,39,0,0,1,1-6.69A22.52,22.52,0,0,1,31.49,7.2,4.52,4.52,0,0,1,34,5.25Zm-4.39,14,4.63,1.05c.24.05.41,0,.46-.29a20.63,20.63,0,0,0,.51-5.77Zm-1.78,3c.07.48-.25,1.13.64,1.29,1.44.27,2.87.6,4.3.92a.6.6,0,0,0,.82-.45,5.33,5.33,0,0,1,.29-.85c.31-.61,0-.85-.54-1-1.44-.3-2.86-.63-4.3-.95C29.06,21,29.06,21,29.06,22.24ZM31.46,11c1.51.34,2.94.64,4.37,1,.45.11.54-.06.49-.43a7,7,0,0,0-1-3c-.56-.84-1.16-.92-2-.25A7.19,7.19,0,0,0,31.46,11ZM29.3,18.3l5.48-4.61c-1.28-.29-2.39-.51-3.48-.8-.49-.13-.68,0-.85.46A31.09,31.09,0,0,0,29.3,18.3Z"/><path class="cls-2" d="M27.09,31.74a3.31,3.31,0,0,1,3.44-3.34,3.19,3.19,0,0,1,3.2,3.38,3.32,3.32,0,1,1-6.64,0Z"/><path class="cls-3" d="M30.84,19.27l5.6-5A20.63,20.63,0,0,1,35.93,20c0,.27-.22.34-.46.29Z"/><path class="cls-3" d="M29.06,22.24c0-1.28,0-1.28,1.21-1,1.44.32,2.86.65,4.3.95.58.12.85.36.54,1a5.33,5.33,0,0,0-.29.85.6.6,0,0,1-.82.45c-1.43-.32-2.86-.65-4.3-.92C28.81,23.37,29.13,22.72,29.06,22.24Z"/><path class="cls-3" d="M31.46,11a7.19,7.19,0,0,1,1.92-2.74c.8-.67,1.4-.59,2,.25a7,7,0,0,1,1,3c0,.37,0,.54-.49.43C34.4,11.61,33,11.31,31.46,11Z"/><path class="cls-3" d="M29.3,18.3a31.09,31.09,0,0,1,1.15-5c.17-.47.36-.59.85-.46,1.09.29,2.2.51,3.48.8Z"/></svg>