<svg id="Слой_1" data-name="Слой 1" xmlns="http://www.w3.org/2000/svg" viewBox="0 0 56.69 56.69"><defs><style>.cls-1{fill:#010101;}</style></defs><path id="path815" class="cls-1" d="M52.38,38.94,44.44,17.1v0h-.16l-1.63,4.49-3,8.18h0a7.7,7.7,0,0,0-4.31-1.69L34.79,28l.55-.07c3-.54,5-2.45,5-4.75,0-3.15-3-5.35-7.21-5.35H24.35V18h2.57V34.27L20.68,17.1v0h-.15l-1.64,4.49-6.3,17.32h0c-.11,0-.21,0-.32,0a3.7,3.7,0,0,1-.47,0H5.38L17.49,18l.09-.16H2.77v6.49h.16C3,21.15,4.8,18,8.86,18h4.9L1.57,39.1H18V32.89h-.16a5.79,5.79,0,0,1-5,6h-.11l2.58-7.1h7.24l2.61,7.18H22.62v.16h10.1v-.16H30.14V28.11h3c3,0,4.77,1.35,4.77,3.72v1.92c0,.21,0,.52,0,.78h0l-1.61,4.4H34.23v.16h4.33v-.16H36.49l1.46-4V35l0,.37,0,.23a4.91,4.91,0,0,0,1.69,3.24l.12.09a4.21,4.21,0,0,0,2.45.69,3.51,3.51,0,0,0,2.82-1.07L45,38.46a2.63,2.63,0,0,1-1.87.84c-1.16,0-1.76-1.41-1.76-2.79v-2.7a6.23,6.23,0,0,0-.31-2l0-.09h5.3L49,38.94H46.38v.16h8.74v-.16Zm-37-7.34L19,21.8l3.56,9.8ZM30.14,28V18h2.27c3.05,0,4.65,1.81,4.65,5.22,0,3.64-.92,4.75-3.94,4.75ZM41,31.6l0,0A4.89,4.89,0,0,0,40,30l-.15-.15h0l2.93-8.06,3.56,9.8Z"/></svg>