<svg id="Слой_1" data-name="Слой 1" xmlns="http://www.w3.org/2000/svg" viewBox="0 0 56.69 56.69"><defs><style>.cls-1,.cls-2{fill:#010101;}.cls-2,.cls-3{fill-rule:evenodd;}.cls-3{fill:#de162b;}</style></defs><path id="path2988" class="cls-1" d="M32.34,37.94v15l3,.05V43.21c0-1.43,1.57-2.28,2.85-2.42A3.07,3.07,0,0,1,41.35,44a3.66,3.66,0,0,1-2.72,3.24,3.19,3.19,0,0,1-2.69-.69v2.58a5.56,5.56,0,0,0,7.2-2.06,5.87,5.87,0,0,0,6.34,2.41l.53-.17a5.86,5.86,0,1,0-6.89-8.74v0a5.69,5.69,0,0,0-4.92-2.46,8.58,8.58,0,0,0-3.22.78v-1ZM48,40.74a3.17,3.17,0,1,1-3.17,3.17A3.16,3.16,0,0,1,48,40.74Z"/><path id="path3004" class="cls-2" d="M19.88,37.94v15l2.95.05V43.21c0-1.43,1.57-2.28,2.85-2.42A3.29,3.29,0,0,1,29,44a3.69,3.69,0,0,1-2.85,3.32,3.93,3.93,0,0,1-2.68-.77v2.58c1.49,1.14,8.11,1.19,8.11-5.43a5.88,5.88,0,0,0-5.86-5.61,8.36,8.36,0,0,0-3.22.78v-1Z"/><path id="path3000" class="cls-2" d="M4.64,38.24,3.19,41.7a13,13,0,0,1,5.13-.8L2.81,49.55H17a1.16,1.16,0,0,0,1.25-1.25V42.94H15.15v4H8.21l5.43-8.65Z"/><path id="path3596" class="cls-3" d="M17.32,42.07c1.83-.66,1.9-3.26.16-5.3,0,.58-.07.83-.22.94a5.71,5.71,0,0,0-2.06-2.39c.62,2.33-.28,2.69-.48,4.22A2.66,2.66,0,0,0,16,42c-.1,0-.22-1.34.58-1.4s.75,1.48.71,1.51Z"/><path id="path3000-2" data-name="path3000" class="cls-2" d="M21.58,10l-3.12,7.46a27.79,27.79,0,0,1,11.05-1.73L17.65,34.34h30.6a2.5,2.5,0,0,0,2.7-2.7V20.1H44.21v8.51H29.28L41,10Z"/><path id="path3596-2" data-name="path3596" class="cls-3" d="M48.89,18.22c3.94-1.41,4.08-7,.35-11.39,0,1.24-.16,1.78-.49,2-1.15-1.92-1.6-3.21-4.43-5.15,1.33,5-.59,5.8-1,9.09-.42,3.1,2.74,5.31,2.83,5.2-.21,0-.49-2.88,1.25-3s1.61,3.2,1.53,3.24Z"/></svg>