<svg id="Слой_1" data-name="Слой 1" xmlns="http://www.w3.org/2000/svg" viewBox="0 0 260 55"><path d="M0,6.88H6.87V0h27.5V6.88h6.88V55H27.5V41.25H13.75V55H0ZM13.75,27.5H27.5V13.75H13.75Z"/><path d="M48.12,0H82.5V6.88h6.87V27.5H82.5V41.25h6.87V55H75.62V41.25H68.75V34.37H61.87V55H48.12ZM61.87,13.75v6.87H75.62V13.75Z"/><path d="M96.25,0h34.37V6.88h6.88V27.5h-6.88v6.87H110V55H96.25ZM110,20.62h13.75V13.75H110Z"/><path d="M144.37,6.88h6.88V0h27.5V6.88h6.87V55H171.87V41.25H158.12V55H144.37ZM158.12,27.5h13.75V13.75H158.12Z"/><path d="M192.49,41.25h13.75V55H192.49Z"/></svg>