<svg id="Слой_1" data-name="Слой 1" xmlns="http://www.w3.org/2000/svg" viewBox="0 0 260 55"><defs><style>.cls-1{fill:#65a30d;}</style></defs><path class="cls-1" d="M44.78,0H86V13.75H72.28V55H58.53V13.75H44.78Z"/><path class="cls-1" d="M92.9,0h13.75V41.25h27.5V55H92.9Z"/><path class="cls-1" d="M141,0H175.4V6.88h6.87V48.13H175.4V55H141Zm27.5,13.75H154.77v27.5h13.75Z"/><path class="cls-1" d="M189.15,41.25H202.9V55H189.15Z"/><path class="cls-1" d="M0,27.65H3.91v-3.9H23.44v7.81H7.81V47.19H23.44V55H3.91V51.09H0Z"/><path class="cls-1" d="M27.35,27.65h3.9v-3.9H50.78v7.81H35.16V47.19H50.78V55H31.25V51.09h-3.9Z"/></svg>