<svg id="Слой_1" data-name="Слой 1" xmlns="http://www.w3.org/2000/svg" viewBox="0 0 260 55"><defs><style>.cls-1{fill:#f43f5e;}</style></defs><path class="cls-1" d="M0,26.85H4v-4H24.13v8H8V47h8.05v-4h-4v-8H24.13V51h-4v4H4V51H0Z"/><path class="cls-1" d="M28.15,22.83H52.28v8H36.19v4H48.26v8H36.19v4H52.28v8H28.15Z"/><path class="cls-1" d="M56.3,26.85h4v-4H76.41v4h4V51h-4v4H60.32V51h-4Zm8,20.11h8V30.87h-8Z"/><path class="cls-1" d="M70.68.12h41.15V13.84H98.12V55H84.4V13.84H70.68Z"/><path class="cls-1" d="M118.69.12h13.72V41.28h27.44V55H118.69Z"/><path class="cls-1" d="M166.71.12H201V7h6.86V48.14H201V55h-34.3Zm27.44,13.72H180.43V41.28h13.72Z"/><path class="cls-1" d="M214.72,41.28h13.72V55H214.72Z"/></svg>