<svg id="Слой_1" data-name="Слой 1" xmlns="http://www.w3.org/2000/svg" viewBox="0 0 260 55"><defs><style>.cls-1{fill:#06b6d4;}</style></defs><path class="cls-1" d="M0,.24H40.89V13.87H27.26V41.13H40.89V54.76H0V41.13H13.63V13.87H0Z"/><path class="cls-1" d="M47.71,7.05h6.81V.24H88.6V13.87H61.34V41.13H88.6V54.76H54.52V48H47.71Z"/><path class="cls-1" d="M95.42,7.05h6.81V.24H129.5V7.05h6.81V54.76H122.68V41.13H109.05V54.76H95.42ZM109.05,27.5h13.63V13.87H109.05Z"/><path class="cls-1" d="M143.13.24h13.63V13.87h6.81v6.81h6.82V.24H184V54.76H170.39V34.32h-6.82V27.5h-6.81V54.76H143.13Z"/><path class="cls-1" d="M190.84.24h13.63V13.87h6.81v6.81h6.82V.24h13.63V54.76H218.1V34.32h-6.82V27.5h-6.81V54.76H190.84Z"/><path class="cls-1" d="M238.54,41.13h13.64V54.76H238.54Z"/></svg>