<svg id="Слой_1" data-name="Слой 1" xmlns="http://www.w3.org/2000/svg" xmlns:xlink="http://www.w3.org/1999/xlink" viewBox="0 0 56.69 56.69"><defs><style>.cls-1{fill:#111;}.cls-2{fill:url(#Безымянный_градиент_2);}</style><linearGradient id="Безымянный_градиент_2" x1="3.8" y1="-269.36" x2="7.75" y2="-276.2" gradientTransform="matrix(1, 0, 0, -1, 0, -235.72)" gradientUnits="userSpaceOnUse"><stop offset="0" stop-color="#6fc7d8"/><stop offset="0.51" stop-color="#78c3a3"/><stop offset="0.59" stop-color="#79c2a0"/><stop offset="0.67" stop-color="#7fc395"/><stop offset="0.76" stop-color="#88c485"/><stop offset="0.84" stop-color="#96c56b"/><stop offset="0.92" stop-color="#accb49"/><stop offset="0.99" stop-color="#c8d523"/></linearGradient></defs><path class="cls-1" d="M15.37,40.56H11.45l4.38-24.84H20.9l-2,11A5.37,5.37,0,0,1,24.32,23c3.4,0,5.75,2.28,5.75,7.18,0,6.1-3.2,10.84-8.71,10.84-2.27,0-4.24-1-4.57-3Zm2.35-7.15c-.38,2.11.5,4.05,2.52,4.05,2.82,0,4.38-3.39,4.38-6.87,0-2.46-1.12-3.75-2.87-3.75s-3.12,1.45-3.64,4.3Z"/><path class="cls-2" d="M1.9,37.08a3.75,3.75,0,0,0,3.78,3.78,3.77,3.77,0,0,0,3.94-3.78,3.84,3.84,0,0,0-3.94-3.94A3.79,3.79,0,0,0,1.9,37.08"/><path class="cls-1" d="M36.7,35.16c-.14.83-.11,1.54,1,1.54a4.54,4.54,0,0,0,1.12-.14L38,40.28a10.23,10.23,0,0,1-2.71.44c-3.21,0-4.38-1.67-3.86-4.76l2.22-12.6h5.06Z"/><path class="cls-1" d="M48.88,34a17.27,17.27,0,0,1-2.35,2.71v.14a18.73,18.73,0,0,1,3-.19H54.8l-.66,3.86H40.23l.6-2.87L46.25,30a20.25,20.25,0,0,1,2.33-2.71v-.14a18.42,18.42,0,0,1-3,.19H41.22l.65-3.94H54.36v3.12Z"/><path class="cls-1" d="M36.75,16.19a2.82,2.82,0,0,1,3.12,2.9c0,1.81-1.34,2.82-3.12,2.82a2.78,2.78,0,0,1-3-2.82,2.81,2.81,0,0,1,3-2.9"/></svg>