<svg id="Слой_1" data-name="Слой 1" xmlns="http://www.w3.org/2000/svg" viewBox="0 0 56.69 56.69"><defs><style>.cls-1{fill:#265aa7;}</style></defs><path class="cls-1" d="M27.51,21.47a1.47,1.47,0,0,0-1.66-1.4,10.38,10.38,0,0,0-1,.05c0,.78-.07,1.5-.07,2.28V23c.11,0,.61,0,.72,0,.88,0,2.05-.3,2.05-1.52M46,17.62a18.7,18.7,0,0,1,3.84,9.54h0L51.51,10h.93S51.38,21.1,50.76,26.6C50,33.49,49,36.35,47.13,39.36l-.29-1.31a17.37,17.37,0,0,0,2.07-6,18.91,18.91,0,0,0-2.82-12.64,17.17,17.17,0,0,0-27.17-1.8l-.76-.6A18.15,18.15,0,0,1,46,17.62m-9.21,9.49h-.35c-.43-.58-4.93-5.27-5.32-5.69,0,.4,0,1.22,0,2,0,1.07.08,2.69.13,3.57a2.61,2.61,0,0,0-.46,0,2.94,2.94,0,0,0-.47,0c.09-1.13.12-3,.12-4.7,0-1.35,0-2.09,0-2.77h.35c.45.49,4.92,5.11,5.31,5.53,0-.4,0-1.1,0-1.9,0-1.06-.08-2.69-.12-3.56a2.58,2.58,0,0,0,.45,0,2.84,2.84,0,0,0,.47,0c-.09,1.13-.11,3-.11,4.69,0,1.35,0,2.12,0,2.8M28.66,27A6.18,6.18,0,0,0,28,27a31.65,31.65,0,0,0-2.7-3.63h-.55v.85c0,.93,0,1.86.09,2.78a5.22,5.22,0,0,0-.58,0,4.94,4.94,0,0,0-.58,0c0-.92.08-1.85.08-2.78V22.39c0-.92,0-1.85-.08-2.77.41,0,.92.05,1.33.05s.81-.05,1.22-.05c1.21,0,2.32.36,2.32,1.7s-1.42,1.94-2.24,2.05c.53.65,2.41,2.94,3,3.64a6.47,6.47,0,0,0-.67,0m-6.29,0L20.94,27h-.89c-.66,0-1.66,0-2.31.05,0-.93.08-1.86.08-2.79V22.38c0-.92,0-1.85-.08-2.76.64,0,1.63.05,2.27.05s1.85,0,2.22-.05a1.86,1.86,0,0,0,0,.36,2.73,2.73,0,0,0,0,.37c-.71-.05-2-.14-3.36-.14,0,.47,0,2.42,0,2.69,1.26,0,2.07-.06,2.7-.11a2.83,2.83,0,0,0,0,.41,2.4,2.4,0,0,0,0,.37c-.73-.08-2.39-.1-2.7-.1,0,.36,0,2.68,0,2.87.78,0,2.79-.07,3.52-.14a4,4,0,0,0,0,.42,2.24,2.24,0,0,0,0,.39M15.52,37.66a18.92,18.92,0,0,1-1.93-7.76l1,0a18.73,18.73,0,0,0,2.55,8.67,5.93,5.93,0,0,1-1.64-.93M9.85,23.31A3.81,3.81,0,0,1,14,19.47a7.26,7.26,0,0,1,2.56.54,4.14,4.14,0,0,0-.26.86l-.07,0A2.94,2.94,0,0,0,13.92,20,3.08,3.08,0,0,0,11,23.28a3.12,3.12,0,0,0,3,3.31,3.43,3.43,0,0,0,2.47-1.07l0,0-.15.84a4.3,4.3,0,0,1-2.48.75,3.73,3.73,0,0,1-4.05-3.84M29,6.41a18.48,18.48,0,0,1,7.55,4.19,18.37,18.37,0,0,0-1.85-.39,17.54,17.54,0,0,0-10.8-3.72,17.49,17.49,0,1,0,13.94,7.29,7.71,7.71,0,0,1,1.64.75c1.29,2,2.48,5.13,3.5,10,1.07,5.12,6.59,29.67,7.19,32.32h6.68V6.56L29,6.39ZM19.85,42.25a20.08,20.08,0,0,0,6.21,3.63l-.73.77A20,20,0,0,1,18,41.74a18.17,18.17,0,0,0,1.84.51M-.18-.18V56.87h17L33.69,39l0,0a17.06,17.06,0,0,1-9.85,3A17.82,17.82,0,0,1,8.27,32.74l0,0,3.58,12.06h-1S9.07,38.71,7.56,33.39c-1.14-4-1.85-7-1.84-9.67,0-9.12,7.2-17.48,16.73-18.09.26,0,1.07-.1,2.28-.11,7.34,0,30,.17,32.14.19V-.18Zm45,41.07.25,1.17a18.16,18.16,0,0,1-13.28,5.82,18.48,18.48,0,0,1-3.77-.4l.79-.85a16.6,16.6,0,0,0,2.92.26,17.18,17.18,0,0,0,13.09-6M42,24.22a17,17,0,0,1-2.94,9.64A43.27,43.27,0,0,1,34,40c-3.68,3.9-15.15,16.09-15.91,16.91H49.2L42,24.22Z"/></svg>