<svg id="Слой_1" data-name="Слой 1" xmlns="http://www.w3.org/2000/svg" viewBox="0 0 56.69 56.69"><defs><style>.cls-1{fill:#065565;}</style></defs><path class="cls-1" d="M7.15,32.79c-2.87,0-5.65-2.1-5.65-6.38,0-4.47,3-6.24,5.52-6.24a5.89,5.89,0,0,1,4.16,1.52A10.83,10.83,0,0,1,11,23.91a5.73,5.73,0,0,1-.82.05,9.61,9.61,0,0,1-1-.05C9.21,22.44,8.14,22,7,22c-1.93,0-3.1,1.85-3.1,4.4s1.16,4.51,3.28,4.51a2.63,2.63,0,0,0,2.41-1.66,4.7,4.7,0,0,1,2,.57A4.45,4.45,0,0,1,7.15,32.79Z"/><path class="cls-1" d="M12.31,28.6a4.11,4.11,0,0,1,3.93-4.37,4,4,0,0,1,3.91,4.37,3.93,3.93,0,1,1-7.84,0Zm5.47,0c0-1.28-.36-2.63-1.54-2.63s-1.55,1.35-1.55,2.63.47,2.52,1.55,2.52S17.78,29.83,17.78,28.6Z"/><path class="cls-1" d="M22,21.65c0-.71-.59-.46-.59-.46a3.65,3.65,0,0,1-.62-1.31,3.54,3.54,0,0,1,1.68-.55,1.69,1.69,0,0,1,1.79,1.82v9.19c0,.85.58.46.58.46a2.23,2.23,0,0,1,.71,1.09,2.17,2.17,0,0,1-1.81.9A1.81,1.81,0,0,1,22,30.89V21.65Z"/><path class="cls-1" d="M26.94,21.65c0-.71-.58-.46-.58-.46a3.65,3.65,0,0,1-.62-1.31,3.54,3.54,0,0,1,1.68-.55,1.69,1.69,0,0,1,1.79,1.82v9.19c0,.85.58.46.58.46a2.32,2.32,0,0,1,.71,1.09,2.19,2.19,0,0,1-1.81.9,1.81,1.81,0,0,1-1.76-1.9V21.65Z"/><path class="cls-1" d="M35.1,32.79a3.86,3.86,0,0,1-3.91-4.21c0-3.1,2.2-4.35,3.77-4.35,1.78,0,3.41,1.36,3.41,3.86,0,.9-1.93,1.42-3.64,1.42a5.51,5.51,0,0,1-1.16-.11c.15,1.49,1,1.71,1.67,1.71a2,2,0,0,0,1.5-1,2.57,2.57,0,0,1,1.64.61A3.5,3.5,0,0,1,35.1,32.79ZM34.65,28c.71,0,1.38-.07,1.38-.25,0-.68-.3-1.83-1.06-1.83s-1.3.76-1.39,2A10.47,10.47,0,0,0,34.65,28Z"/><path class="cls-1" d="M39.64,31.47A1.81,1.81,0,0,1,40.76,30a3,3,0,0,1-1.19-2.5,3.43,3.43,0,0,1,3.55-3.27A3.33,3.33,0,0,1,45,24.7,4.43,4.43,0,0,1,47,24.14a3.75,3.75,0,0,1,.16,1.56,6.1,6.1,0,0,0-1.19.05,2.82,2.82,0,0,1,.63,1.74,3.29,3.29,0,0,1-3.57,3.25,6.84,6.84,0,0,1-1.15-.12.45.45,0,0,0-.25.36c0,1,5.6-.5,5.6,3.24,0,1.58-1.47,3.15-4.16,3.15S39,36.11,39,34.77a2.22,2.22,0,0,1,1.39-1.9A1.55,1.55,0,0,1,39.64,31.47Zm1.44,3c0,.79.92,1.21,2.05,1.21s1.94-.58,1.94-1.22c0-1.12-2.19-.88-3.38-1.17A1.83,1.83,0,0,0,41.08,34.51Zm3.28-7c0-1-.53-1.61-1.22-1.61a1.5,1.5,0,0,0-1.26,1.65c0,1,.61,1.61,1.26,1.61S44.36,28.51,44.36,27.49Z"/><path class="cls-1" d="M51.92,32.79A3.86,3.86,0,0,1,48,28.58c0-3.1,2.19-4.35,3.76-4.35,1.78,0,3.41,1.36,3.41,3.86,0,.9-1.92,1.42-3.64,1.42a5.42,5.42,0,0,1-1.15-.11c.15,1.49,1,1.71,1.66,1.71a2,2,0,0,0,1.5-1,2.62,2.62,0,0,1,1.65.61A3.52,3.52,0,0,1,51.92,32.79ZM51.46,28c.71,0,1.39-.07,1.39-.25,0-.68-.31-1.83-1.07-1.83s-1.3.76-1.39,2A10.67,10.67,0,0,0,51.46,28Z"/></svg>