<svg id="Слой_1" data-name="Слой 1" xmlns="http://www.w3.org/2000/svg" viewBox="0 0 56.69 56.69"><defs><style>.cls-1{fill:#023138;}.cls-2{fill:#20badb;}.cls-3{fill:#ec663c;}</style></defs><g id="g834"><g id="g840"><path id="path842" class="cls-1" d="M52,18.83v5.32h0a2.29,2.29,0,0,1-4.57,0V18.83H44.11v5.32a5.6,5.6,0,0,0,11.2,0V18.83Z"/></g><g id="g844"><path id="path846" class="cls-2" d="M1.38,27.7a1.91,1.91,0,0,1,2-1.89,1.9,1.9,0,1,1,0,3.8A1.92,1.92,0,0,1,1.38,27.7"/></g><g id="g848"><path id="path850" class="cls-1" d="M14.18,25.05H17.5a5.12,5.12,0,0,1-5.41,4.56,5.51,5.51,0,1,1,0-11,5.11,5.11,0,0,1,5.41,4.56H14.18a2,2,0,0,0-2.07-1.59A2.33,2.33,0,0,0,9.7,24.09a2.35,2.35,0,0,0,2.41,2.54,2,2,0,0,0,2.07-1.58"/></g><g id="g852"><path id="path854" class="cls-1" d="M24.44,34.24H20.72l2-4.74-5-10.67h3.72l3,6.5,2.74-6.5h3.69Z"/></g><g id="g856"><path id="path858" class="cls-1" d="M39.24,24.11a2.38,2.38,0,1,0-4.76,0,2.39,2.39,0,1,0,4.76,0m3.32,0a5.47,5.47,0,0,1-5.69,5.61,5.49,5.49,0,0,1-5.74-5.61,5.43,5.43,0,0,1,5.74-5.49,5.4,5.4,0,0,1,5.69,5.49"/></g><g id="g860"><path id="path862" class="cls-3" d="M43.34,38.1a13.26,13.26,0,0,1-9.44-3.91l2.35-2.34a10,10,0,0,0,14.17,0l2.35,2.34a13.25,13.25,0,0,1-9.43,3.91"/></g></g></svg>