<svg id="Слой_1" data-name="Слой 1" xmlns="http://www.w3.org/2000/svg" viewBox="0 0 56.69 56.69"><defs><style>.cls-1{fill:#e72e66;}.cls-2{fill:#fab51d;}.cls-3{fill:#196bb3;}.cls-4{fill:#6ab548;}.cls-5{fill:#6b358c;}</style></defs><g id="g187"><g id="g171"><path id="path165" class="cls-1" d="M21.11,37.63a4.5,4.5,0,0,1-1.82-1.57,3.07,3.07,0,0,1-.54-1.52.51.51,0,0,1,.16-.39.57.57,0,0,1,.4-.15h2.08a.61.61,0,0,1,.36.11.82.82,0,0,1,.25.39,2.57,2.57,0,0,0,.77,1,2.44,2.44,0,0,0,1.59.43,2.93,2.93,0,0,0,2.06-.62,2.89,2.89,0,0,0,.65-2.16V31.59a4.42,4.42,0,0,1-3.57,1.5,4.49,4.49,0,0,1-3.65-1.47,6.5,6.5,0,0,1-1.31-4l0-.64,0-.63a6.62,6.62,0,0,1,1.33-4,4.43,4.43,0,0,1,3.63-1.52,4.66,4.66,0,0,1,2.17.47,4.4,4.4,0,0,1,1.54,1.25V21.6a.47.47,0,0,1,.18-.41A.55.55,0,0,1,27.8,21h1.92a.56.56,0,0,1,.4.17.55.55,0,0,1,.17.41l0,11.25a5.37,5.37,0,0,1-1.46,4A5.92,5.92,0,0,1,24.5,38.3a6.83,6.83,0,0,1-3.39-.67Zm5.23-7.85a3.5,3.5,0,0,0,.71-2.06,5.69,5.69,0,0,0,0-.74,5.88,5.88,0,0,0,0-.75,3.7,3.7,0,0,0-.71-2.06,2.34,2.34,0,0,0-2-.84c-1.68,0-2.57,1-2.66,3.08l0,.57c0,2.43.9,3.65,2.68,3.65a2.33,2.33,0,0,0,2-.85Z"/><path id="path167" class="cls-1" d="M33.32,33a3.89,3.89,0,0,1-1.57-1.3,3.2,3.2,0,0,1,.72-4.37A7.84,7.84,0,0,1,36,26l3.19-.47V25a2.1,2.1,0,0,0-.51-1.52A2.22,2.22,0,0,0,37.05,23a2.54,2.54,0,0,0-1.25.28,4.54,4.54,0,0,0-.76.56l-.38.39a.36.36,0,0,1-.35.28H32.49a.51.51,0,0,1-.36-.14A.51.51,0,0,1,32,24a2.52,2.52,0,0,1,.57-1.31,4.58,4.58,0,0,1,1.69-1.28,6.56,6.56,0,0,1,2.82-.56,5.55,5.55,0,0,1,4,1.25,4.34,4.34,0,0,1,1.26,3.24v7.33a.59.59,0,0,1-.16.4.51.51,0,0,1-.41.17H39.82a.56.56,0,0,1-.4-.17.52.52,0,0,1-.16-.4v-.91A3.92,3.92,0,0,1,37.81,33a5.08,5.08,0,0,1-2.34.48A5,5,0,0,1,33.32,33Zm5.07-2.61a3.39,3.39,0,0,0,.81-2.44v-.45l-2.33.37c-1.8.28-2.68.88-2.68,1.8a1.32,1.32,0,0,0,.62,1.16,2.65,2.65,0,0,0,1.48.41,2.85,2.85,0,0,0,2.1-.85Z"/><path id="path169" class="cls-1" d="M45.31,37.48a.5.5,0,0,1-.15-.33.79.79,0,0,1,.1-.37l1.83-4.32L42.62,21.89a.79.79,0,0,1-.1-.33.56.56,0,0,1,.17-.36.43.43,0,0,1,.34-.15H45a.63.63,0,0,1,.6.44l3.11,7.62,3.16-7.62a.71.71,0,0,1,.65-.44h1.89a.41.41,0,0,1,.34.14.45.45,0,0,1,.14.33,1,1,0,0,1-.09.37L48.16,37.18a.67.67,0,0,1-.65.44H45.64a.45.45,0,0,1-.33-.14Z"/></g><g id="g185"><g id="g181"><path id="path173" class="cls-2" d="M10.47,31.1a4.12,4.12,0,0,0,.58,2.1h3.48a2.1,2.1,0,0,0,2.1-2.1V27.61a4,4,0,0,0-2.1-.58A4.05,4.05,0,0,0,10.47,31.1Z"/><path id="path175" class="cls-3" d="M7.36,31.1a7.19,7.19,0,0,1,7.19-7.19,7,7,0,0,1,2.1.32V21.6A9.73,9.73,0,0,0,5.05,33.2H7.68A7,7,0,0,1,7.36,31.1Z"/><path id="path177" class="cls-4" d="M7.64,31.1A6.69,6.69,0,0,0,8,33.2h2.76a4.36,4.36,0,0,1,5.92-5.92V24.52a7,7,0,0,0-2.1-.33A6.91,6.91,0,0,0,7.64,31.1Z"/><path id="path179" class="cls-5" d="M4.53,31.1a10,10,0,0,1,10-10,10.31,10.31,0,0,1,2.1.22V18.57a13,13,0,0,0-2.1-.18A12.7,12.7,0,0,0,1.83,31.1,12.23,12.23,0,0,0,2,33.2H4.75A10.47,10.47,0,0,1,4.53,31.1Z"/></g><circle id="circle183" class="cls-1" cx="14.55" cy="31.1" r="2.1"/></g></g></svg>