<svg id="Слой_1" data-name="Слой 1" xmlns="http://www.w3.org/2000/svg" viewBox="0 0 56.69 56.69"><defs><style>.cls-1{fill:#19678a;}.cls-2{fill:#d4232d;}</style></defs><path class="cls-1" d="M17.4,25.41a3.45,3.45,0,0,0-2.53-1,3.45,3.45,0,0,0-2.53,1,3.53,3.53,0,0,0,0,4.92,3.48,3.48,0,0,0,2.53,1,3.48,3.48,0,0,0,2.53-1,3.45,3.45,0,0,0,0-4.92ZM8.8,39.23l1.36-3.06c.16.13.41.16.71.35s-.28-.12.6.2a7.69,7.69,0,0,0,2.61.48,4.28,4.28,0,0,0,3.11-1.08,3.93,3.93,0,0,0,1.11-3v-.31a5.09,5.09,0,0,1-4.12,1.78,6.39,6.39,0,0,1-4.74-2,6.6,6.6,0,0,1-1.93-4.78A6.71,6.71,0,0,1,9.41,23a6.55,6.55,0,0,1,4.91-2A6.12,6.12,0,0,1,19,23l0-1.75h3.19V32.19a8.91,8.91,0,0,1-2.05,6.17,7.23,7.23,0,0,1-5.68,2.29,11.93,11.93,0,0,1-2.32-.23,10.37,10.37,0,0,1-1.89-.54,11.12,11.12,0,0,1-1.38-.65c-.4-.2,1,.53.77.41ZM32,24.73a3.3,3.3,0,0,0-2.53,1.1,4.19,4.19,0,0,0,0,5.43A3.33,3.33,0,0,0,32,32.36a3.29,3.29,0,0,0,2.53-1.1,4.09,4.09,0,0,0,0-5.43A3.25,3.25,0,0,0,32,24.73Zm7.25-8.68V35.84l-3.49,0V33.66a5.25,5.25,0,0,1-4.54,2.46A6,6,0,0,1,26.54,34a7.78,7.78,0,0,1-1.93-5.35,7.79,7.79,0,0,1,2-5.4A6.09,6.09,0,0,1,31.31,21a4.93,4.93,0,0,1,4.09,2V16.05Zm7,12.35v7.44H42.37V21.25l3.57,0,0,2.26A4.83,4.83,0,0,1,50.44,21a4.69,4.69,0,0,1,3.67,1.58A6.29,6.29,0,0,1,55.56,27v8.88H51.74V28.26A4,4,0,0,0,51,25.63a2.31,2.31,0,0,0-1.9-.9,2.72,2.72,0,0,0-2.11.9,4.13,4.13,0,0,0-.79,2.77Z"/><ellipse class="cls-2" cx="3.82" cy="33.54" rx="2.68" ry="2.71"/></svg>