<svg id="Слой_1" data-name="Слой 1" xmlns="http://www.w3.org/2000/svg" viewBox="0 0 56.69 56.69"><defs><style>.cls-1{fill:#e84436;}.cls-2{fill:#fbbc0c;}.cls-3{fill:#517cbe;}.cls-4{fill:#32a853;}</style></defs><path class="cls-1" d="M24.4,28.82a4.53,4.53,0,1,1-4.52-4.51A4.45,4.45,0,0,1,24.4,28.82Zm-2,0a2.55,2.55,0,1,0-2.54,2.73A2.6,2.6,0,0,0,22.42,28.82Z"/><path class="cls-2" d="M34.15,28.82a4.52,4.52,0,1,1-4.52-4.51A4.45,4.45,0,0,1,34.15,28.82Zm-2,0a2.55,2.55,0,1,0-2.54,2.73A2.59,2.59,0,0,0,32.17,28.82Z"/><path class="cls-3" d="M43.5,24.58v8.1c0,3.33-2,4.69-4.28,4.69a4.31,4.31,0,0,1-4-2.66L37,34a2.46,2.46,0,0,0,2.27,1.6c1.48,0,2.4-.91,2.4-2.64V32.3h-.07a3,3,0,0,1-2.37,1,4.51,4.51,0,0,1,0-9,3.12,3.12,0,0,1,2.37,1h.07v-.73H43.5Zm-1.74,4.26a2.54,2.54,0,0,0-2.4-2.75,2.74,2.74,0,0,0,0,5.46A2.51,2.51,0,0,0,41.76,28.84Z"/><path class="cls-4" d="M46.6,19.84V33.05H44.67V19.84Z"/><path class="cls-1" d="M54.12,30.3l1.54,1a4.5,4.5,0,0,1-3.75,2,4.41,4.41,0,0,1-4.48-4.51,4.29,4.29,0,0,1,4.25-4.51,4.18,4.18,0,0,1,3.86,2.87l.21.51-6,2.5a2.3,2.3,0,0,0,2.19,1.36,2.55,2.55,0,0,0,2.21-1.25ZM49.4,28.68l4-1.67a1.74,1.74,0,0,0-1.67-1A2.46,2.46,0,0,0,49.4,28.68Z"/><path class="cls-3" d="M8.05,27.65V25.73h6.44a6.69,6.69,0,0,1,.1,1.16,6.33,6.33,0,0,1-1.66,4.47,6.4,6.4,0,0,1-4.88,2,7,7,0,1,1,0-14,6.62,6.62,0,0,1,4.79,1.93l-1.35,1.35a4.83,4.83,0,0,0-3.44-1.37,5.09,5.09,0,0,0,0,10.17A4.68,4.68,0,0,0,11.58,30a4,4,0,0,0,1-2.36Z"/></svg>