<svg id="Слой_1" data-name="Слой 1" xmlns="http://www.w3.org/2000/svg" viewBox="0 0 56.69 56.69"><defs><style>.cls-1{fill:#ffd962;}.cls-2{fill:#83cfeb;}.cls-3{fill:#63b76a;}.cls-4{fill:#e8491e;}.cls-5{fill:#070404;}</style></defs><g id="Layer_2" data-name="Layer 2"><g id="Layer_1-2" data-name="Layer 1-2"><path class="cls-1" d="M4.91,37.56C2.62,37.56,1,39,1,41.67s1.61,4.17,3.9,4.17,3.91-1.35,3.91-4.17S7.21,37.56,4.91,37.56Z"/><polygon class="cls-1" points="52.87 14.16 37.94 14.16 38.57 19.23 42.49 19.23 45.7 45.47 51.37 45.47 48.16 19.23 53.48 19.23 52.87 14.16"/><polygon class="cls-1" points="20.39 14.16 14.74 14.16 11 45.47 26.3 45.47 26.81 40.39 17.26 40.39 20.39 14.16"/><path class="cls-1" d="M24.83,9.55,21.32,38.8l5.5-.13.48-4.81.16-1.71h5l.15,1.71,1.11,11.62h5.78L35.12,9.41Zm3.05,17.93,1.17-13.31h1.72L32,27.48Z"/><path class="cls-2" d="M7.08,39c-2.3,0-3.91,1.4-3.91,4.11s1.61,4.17,3.91,4.17S11,45.93,11,43.11,9.37,39,7.08,39Z"/><polygon class="cls-2" points="55.08 15.6 40.26 15.6 40.88 20.67 44.8 20.67 48.01 46.91 53.68 46.91 50.47 20.67 55.69 20.67 55.08 15.6"/><polygon class="cls-2" points="22.41 15.58 16.76 15.58 13.02 46.89 28.32 46.89 28.83 41.82 19.28 41.82 22.41 15.58"/><path class="cls-2" d="M26.83,10.86l-3.5,29.25H29l.48-4.81.16-1.71h4.95l.16,1.71,1.12,11.64h5.93L37.41,10.86ZM30,28.92l1.17-13.31H32.9l1.22,13.31Z"/><path class="cls-3" d="M6.84,38.28c-2.3,0-3.91,1.4-3.91,4.11s1.61,4.17,3.91,4.17,3.9-1.35,3.9-4.17S9.13,38.28,6.84,38.28Z"/><polygon class="cls-3" points="54.72 14.88 39.8 14.88 40.43 19.95 44.35 19.95 47.56 46.19 53.23 46.19 50.02 19.95 55.33 19.95 54.72 14.88"/><polygon class="cls-3" points="22.11 14.88 16.46 14.88 12.72 46.19 28.02 46.19 28.53 41.12 18.98 41.12 22.11 14.88"/><path class="cls-3" d="M26.56,10.13,23.05,39.39h5.63l.48-4.81.16-1.71h5l.16,1.71,1.12,11.63h5.78L37,10.13ZM29.74,28.2l1.17-13.31h1.72L33.84,28.2Z"/><path class="cls-4" d="M5.39,38.28c-2.29,0-3.9,1.4-3.9,4.11s1.61,4.17,3.9,4.17S9.3,45.21,9.3,42.39,7.69,38.28,5.39,38.28Z"/><polygon class="cls-4" points="53.28 14.88 38.36 14.88 38.99 19.95 42.91 19.95 46.12 46.19 51.79 46.19 48.58 19.95 53.89 19.95 53.28 14.88"/><polygon class="cls-4" points="20.67 14.88 15.02 14.88 11.28 46.19 26.58 46.19 27.09 41.12 17.54 41.12 20.67 14.88"/><path class="cls-4" d="M25.12,10.13,21.61,39.39h5.63l.48-4.81.16-1.71h4.95L33,34.58l1.12,11.63h5.78L35.54,10.13ZM28.3,28.2l1.17-13.31h1.72L32.4,28.2Z"/><path class="cls-5" d="M6.12,38.28c-2.3,0-3.91,1.4-3.91,4.11s1.61,4.17,3.91,4.17S10,45.21,10,42.39,8.41,38.28,6.12,38.28Z"/><polygon class="cls-5" points="54 14.88 39.08 14.88 39.71 19.95 43.63 19.95 46.84 46.19 52.51 46.19 49.3 19.95 54.61 19.95 54 14.88"/><polygon class="cls-5" points="21.39 14.88 15.74 14.88 12 46.19 27.3 46.19 27.81 41.12 18.26 41.12 21.39 14.88"/><path class="cls-5" d="M25.84,10.13,22.33,39.39H28l.48-4.81.16-1.71h4.95l.16,1.71,1.12,11.63h5.78L36.26,10.13ZM29,28.2l1.17-13.31h1.72L33.12,28.2Z"/></g></g></svg>