<svg id="Слой_1" data-name="Слой 1" xmlns="http://www.w3.org/2000/svg" viewBox="0 0 56.69 56.69"><defs><style>.cls-1{fill:#3e3e3d;}.cls-1,.cls-2{fill-rule:evenodd;}.cls-2{fill:#14a44a;}</style></defs><g id="g6"><path id="path2" class="cls-1" d="M16.73,28.5c0-1.18,0-2.19-.08-3h2.49l.14,1.3h0a3.36,3.36,0,0,1,2.85-1.51c1.88,0,3.3,1.27,3.3,4.06V35H22.61V29.7c0-1.22-.41-2.05-1.45-2.05a1.54,1.54,0,0,0-1.45,1.1,2,2,0,0,0-.11.74V35H16.73ZM26.8,35h2.65V21.31H26.8Zm4.05,0h2.92V25.44H30.85V35Zm3-12.15a1.47,1.47,0,0,1-1.57,1.48,1.49,1.49,0,1,1,0-3,1.47,1.47,0,0,1,1.55,1.49Zm1.4,5.7c0-1.18,0-2.19-.07-3h2.48l.14,1.3h0a3.36,3.36,0,0,1,2.85-1.51c1.89,0,3.3,1.27,3.3,4.06V35H41.14V29.7c0-1.22-.41-2.05-1.45-2.05a1.54,1.54,0,0,0-1.45,1.1,2,2,0,0,0-.11.74V35H35.26V28.5Zm16.22.73c0-.73-.3-2-1.63-2a1.93,1.93,0,0,0-1.78,2Zm-3.4,2.07c.1,1.25,1.28,1.84,2.62,1.84a8.12,8.12,0,0,0,2.57-.39l.37,2a8.67,8.67,0,0,1-3.35.6,4.56,4.56,0,0,1-5-4.94c0-2.46,1.46-5.18,4.69-5.18,3,0,4.14,2.44,4.14,4.84a7.19,7.19,0,0,1-.1,1.19ZM11,33.23c-1.24,0-1.9-1.25-1.9-2.91,0-1.43.51-2.91,1.9-2.91s1.84,1.46,1.84,2.91c0,1.74-.72,2.91-1.84,2.91m.07-8c-3,0-4.95,2-4.95,5.13v.24a3.13,3.13,0,0,1,1.44,2.67,3,3,0,0,1-.08.73,4.75,4.75,0,0,0,3.44,1.35c2.49,0,4.9-1.63,4.9-5.17A4.62,4.62,0,0,0,11,25.27"/><path id="path4" class="cls-2" d="M6.51,33a2,2,0,1,1-2-2,2,2,0,0,1,2,2"/></g></svg>