<svg id="Слой_1" data-name="Слой 1" xmlns="http://www.w3.org/2000/svg" viewBox="0 0 56.69 56.69"><defs><style>.cls-1{fill:#1c3e90;}</style></defs><g id="Layer_2" data-name="Layer 2"><g id="Layer_1-2" data-name="Layer 1-2"><path class="cls-1" d="M47.64,43.84h-.86a7.76,7.76,0,0,1-5.56-2.13,6.25,6.25,0,0,1-1.68-2.49l4.66-2.71a3.1,3.1,0,0,0,5.95,1v-.14a1,1,0,0,1,.06-.22,2.33,2.33,0,0,0,.08-.36v-.24h0v-1.6l-.12.06L50,35a8.42,8.42,0,0,1-11.59-7.9,8.12,8.12,0,0,1,.67-3.37,8.4,8.4,0,0,1,7.79-5.11,9.3,9.3,0,0,1,4.23.73,6.82,6.82,0,0,1,2.79,2.11,22.46,22.46,0,0,0-42.52-.75A9.11,9.11,0,0,1,14,19.22a9.76,9.76,0,0,1,6.78,0A8.79,8.79,0,0,1,23.7,21a8.53,8.53,0,0,1,2,2.69,8.06,8.06,0,0,1-2,9.36,9,9,0,0,1-2.9,1.77A9.5,9.5,0,0,1,13,34.31a8.53,8.53,0,0,1-2.51-2A22.43,22.43,0,0,0,48.89,43.76a10.36,10.36,0,0,1-1.25.1M36.82,23.35a1.82,1.82,0,0,0-1-.29h-.28c-1.24.05-1.86.92-1.86,2.6v9.27h-4.9V25.66q0-6.69,6.76-7h.28a8.09,8.09,0,0,1,1,.09ZM17.4,31a4,4,0,0,1-2.86-1.18A3.76,3.76,0,0,1,13.31,27a3.63,3.63,0,0,1,.57-2,4.23,4.23,0,0,1,1.52-1.42,4,4,0,0,1,2-.53,3.92,3.92,0,0,1,2,.53A4.17,4.17,0,0,1,20.91,25a3.63,3.63,0,0,1,.57,2,3.78,3.78,0,0,1-1.22,2.81A4,4,0,0,1,17.4,31m33.27-5.91A3.85,3.85,0,0,1,50,29.85a3.92,3.92,0,0,1-5.53.07l-.06-.07a3.83,3.83,0,0,1-.67-4.76,4.17,4.17,0,0,1,1.48-1.44,3.82,3.82,0,0,1,2-.51,4,4,0,0,1,3.49,1.95M8.43,32.68a2.84,2.84,0,1,1-2.85-2.81h0A2.83,2.83,0,0,1,8.43,32.7h0"/></g></g></svg>