<svg id="Слой_1" data-name="Слой 1" xmlns="http://www.w3.org/2000/svg" viewBox="0 0 56.69 56.69"><defs><style>.cls-1{fill:#1c2137;}.cls-2{fill:#2db8e6;}</style></defs><g id="g687"><path id="path620" class="cls-1" d="M11.11,34.66a3,3,0,0,0-3,3h0a3,3,0,0,0,3.09,3,3,3,0,0,0,2.68-1.48l-1.29-.72a1.7,1.7,0,0,1-1.38.8,1.49,1.49,0,0,1-1.56-1.06h4.51v-.59a2.94,2.94,0,0,0-3-3ZM9.68,37a1.53,1.53,0,0,1,1.44-.92,1.35,1.35,0,0,1,1.39.92Z"/><path id="path622" class="cls-1" d="M26.62,39.34a1.47,1.47,0,0,1-1.55-1.06h4.51v-.59a2.94,2.94,0,0,0-3-3,3,3,0,0,0-3,3h0a3.11,3.11,0,0,0,5.76,1.56L28,38.54A1.7,1.7,0,0,1,26.62,39.34Zm-.05-3.27A1.34,1.34,0,0,1,28,37H25.14A1.5,1.5,0,0,1,26.57,36.07Z"/><path id="path624" class="cls-1" d="M55.86,37.69a3,3,0,0,0-3-3,3,3,0,0,0-3,3h0a3.11,3.11,0,0,0,5.76,1.56l-1.29-.72a1.69,1.69,0,0,1-1.38.8,1.5,1.5,0,0,1-1.56-1.06h4.51ZM51.41,37a1.53,1.53,0,0,1,1.44-.92,1.35,1.35,0,0,1,1.39.92Z"/><circle id="circle626" class="cls-1" cx="2.04" cy="39.52" r="1.21"/><path id="path628" class="cls-1" d="M8.15,34.78H7.51a1.66,1.66,0,0,0-1.62,1v-1H4.3v5.84H5.91V37.87c0-1.09.37-1.53,1.22-1.53h1Z"/><path id="path630" class="cls-1" d="M18.93,35.35a2.38,2.38,0,0,0-1.74-.69,3,3,0,0,0,0,6.08A2.25,2.25,0,0,0,18.93,40v.66h1.6V34.78h-1.6Zm-1.49,3.88A1.53,1.53,0,1,1,19,37.7a1.54,1.54,0,0,1-1.53,1.53Z"/><path id="path632" class="cls-1" d="M43.74,35.35A2.36,2.36,0,0,0,42,34.66a3,3,0,0,0,0,6.08A2.24,2.24,0,0,0,43.74,40v.66h1.6V34.78h-1.6Zm-1.49,3.88a1.53,1.53,0,1,1,1.53-1.53,1.54,1.54,0,0,1-1.53,1.53Z"/><path id="path634" class="cls-1" d="M33,36.9c-.89-.17-1.24-.27-1.24-.53s.24-.49.78-.49a1.12,1.12,0,0,1,1.1.65l1.44-.6a2.58,2.58,0,0,0-2.53-1.38c-1.48,0-2.44.87-2.44,1.87,0,1.27,1.07,1.64,2.14,1.83.69.13,1.27.22,1.27.55s-.28.54-.82.54a1.26,1.26,0,0,1-1.25-.81l-1.56.6a2.63,2.63,0,0,0,2.74,1.61,2.24,2.24,0,0,0,2.53-2c0-1.28-1.16-1.64-2.16-1.85Z"/><path id="path636" class="cls-1" d="M37.84,32.54l-1.6.88v1.36h-1v1.44h1v1.87c0,1.9.61,2.53,2.47,2.53h.23V39.13c-1,0-1.1-.14-1.1-1.05V36.22h1.1V34.78h-1.1Z"/><path id="path638" class="cls-1" d="M48.44,32.54l-1.6.88v1.36h-1v1.44h1v1.87c0,1.9.6,2.53,2.46,2.53h.24V39.13c-1,0-1.1-.14-1.1-1.05V36.22h1.1V34.78h-1.1Z"/><path id="path640" class="cls-1" d="M24.1,34.4l.74-1.4L16,28.31l-8.31,4.4.74,1.4,7.57-4,5.28,2.79v7.73h1.6V33.74Z"/></g><g id="g674"><path id="path642" class="cls-2" d="M18.11,18.81a3,3,0,0,0-3,3h0a3.11,3.11,0,0,0,5.76,1.56l-1.28-.72a1.72,1.72,0,0,1-1.38.79,1.49,1.49,0,0,1-1.56-1.06h4.51v-.58A2.94,2.94,0,0,0,18.11,18.81Zm-1.43,2.33a1.53,1.53,0,0,1,1.44-.93,1.36,1.36,0,0,1,1.39.93Z"/><path id="path644" class="cls-2" d="M42.22,19.88v-.95H40.64v5.84h1.6V22c0-1.09.37-1.53,1.22-1.53h1V18.92h-.64A1.69,1.69,0,0,0,42.22,19.88Z"/><path id="path646" class="cls-2" d="M37.16,18.81a3,3,0,1,0,3,3,3,3,0,0,0-3-3Zm0,4.56a1.53,1.53,0,1,1,1.52-1.52,1.52,1.52,0,0,1-1.52,1.52Z"/><path id="path648" class="cls-2" d="M9,22.46a1.21,1.21,0,1,0,1.21,1.2A1.21,1.21,0,0,0,9,22.46Z"/><path id="path650" class="cls-2" d="M15.14,18.93H14.5a1.65,1.65,0,0,0-1.61,1v-1H11.3v5.84h1.6V22c0-1.09.38-1.53,1.23-1.53h1Z"/><path id="path652" class="cls-2" d="M25.93,19.5a2.37,2.37,0,0,0-1.75-.69,2.84,2.84,0,0,0-2.83,3,2.88,2.88,0,0,0,2.81,3,2.34,2.34,0,0,0,1.77-.77v.65h1.6V18.93h-1.6Zm-1.49,3.87A1.53,1.53,0,1,1,26,21.85h0A1.52,1.52,0,0,1,24.44,23.37Z"/><path id="path654" class="cls-2" d="M28.24,16h1.6v8.82h-1.6Z"/><path id="path656" class="cls-2" d="M32.83,16.68l-1.6.88v1.37h-1v1.43h1v1.87c0,1.91.6,2.54,2.46,2.54h.24v-1.5c-1,0-1.1-.14-1.1-1.05V20.36h1.1V18.93h-1.1Z"/><path id="path658" class="cls-2" d="M45.71,18.93v.21h.51v1.34h.23V19.14H47v-.21Zm2.95,0-.66.84-.64-.84h-.21v1.56h.22V19.31l.63.8.63-.8v1.17h.23V18.92Z"/></g></svg>