<svg id="Слой_1" data-name="Слой 1" xmlns="http://www.w3.org/2000/svg" viewBox="0 0 56.69 56.69"><defs><style>.cls-1{fill:#2e2a70;}.cls-2{fill:#22b3e9;}</style></defs><g id="layer1"><g id="g9996"><path id="path2868" class="cls-1" d="M33.47,28.49a12.62,12.62,0,0,0-3.41-1.82c-1.56-.65-2.9-1.21-2.9-2.24a1.46,1.46,0,0,1,.59-1.16,2.57,2.57,0,0,1,1.59-.49,6,6,0,0,1,3.52,1.39l.38.35L35,21.27l-.2-.2a7.61,7.61,0,0,0-5.41-2A6.62,6.62,0,0,0,25,20.62a5,5,0,0,0-1.78,3.86,4.45,4.45,0,0,0,1.72,3.6,13.6,13.6,0,0,0,3.37,1.84c1.61.7,3,1.29,3,2.36,0,.81-.55,1.67-2.09,1.67a6.62,6.62,0,0,1-4-1.69l-.33-.33-2.15,3,.22.24a7,7,0,0,0,1.62,1.25,9.09,9.09,0,0,0,4.59,1.23A6.32,6.32,0,0,0,33.61,36a5.19,5.19,0,0,0,1.61-3.82,4.56,4.56,0,0,0-1.75-3.72"/><path id="path2870" class="cls-1" d="M51.64,37.36h4v-18h-4Z"/><path id="path2874" class="cls-1" d="M43.77,34H40.7V22.74h2.7a1.72,1.72,0,0,1,1.91,1.86,1.63,1.63,0,0,1-1.86,1.8h-.93v3.31h1.25a2.24,2.24,0,0,1,1.64.61A1.91,1.91,0,0,1,46,31.77,2.06,2.06,0,0,1,43.77,34m5.34-4.71a4.05,4.05,0,0,0-1.59-1.46,4.52,4.52,0,0,0,1.64-3.61,4.47,4.47,0,0,0-1.64-3.6,6.43,6.43,0,0,0-4.07-1.24H36.9v18h6.62a7.27,7.27,0,0,0,4.4-1.29,5.26,5.26,0,0,0,1.19-6.79"/><path id="path2878" class="cls-2" d="M10.7,19.05a9.32,9.32,0,0,0-.95,18.59V30.87a2.68,2.68,0,1,1,1.9,0v6.77a9.32,9.32,0,0,0-1-18.59"/></g></g></svg>