<svg id="Слой_1" data-name="Слой 1" xmlns="http://www.w3.org/2000/svg" xmlns:xlink="http://www.w3.org/1999/xlink" viewBox="0 0 56.69 56.69"><defs><style>.cls-1{fill:url(#Безымянный_градиент_2);}.cls-2{fill:#fff;}</style><linearGradient id="Безымянный_градиент_2" x1="-112.99" y1="-67.44" x2="-112.72" y2="-67.44" gradientTransform="matrix(211.12, 0, 0, -211.12, 23854.21, -14196.38)" gradientUnits="userSpaceOnUse"><stop offset="0" stop-color="#7d2370"/><stop offset="0.25" stop-color="#a9157d"/><stop offset="0.81" stop-color="#e42027"/><stop offset="1" stop-color="#e42027"/></linearGradient></defs><path class="cls-1" d="M1,27.59c-.62,0-1,.31-1,.92V55.79a.87.87,0,0,0,.87.9H49.56c.44,0,.79,0,1-.61,0,0,4.94-15.45,5-15.73a.87.87,0,0,0-.43-1.19C39.28,29,15.56,27.52,4.8,27.52c-1.54,0-2.82,0-3.77.07"/><path class="cls-2" d="M31,49.09a3.65,3.65,0,0,1-.79-3c.41-2.73,3.06-4.45,6.6-4.45a17.47,17.47,0,0,1,2.21.14l.7-2.06a20.22,20.22,0,0,0-2.91-.19,10.3,10.3,0,0,0-7.65,3,.18.18,0,0,1-.14,0c-.06,0-.1,0-.08,0l.89-2.79H27.2l-2.84,8.91a31.62,31.62,0,0,0-5-8.91H16.53l-2.08,6.49a3.92,3.92,0,0,1,1.65,2.14.09.09,0,0,0,.1.06.08.08,0,0,0,.09-.06l1.82-5.64a32.33,32.33,0,0,1,4.63,9.72h3l1.48-4.62s.05,0,.1,0,.08,0,.09,0c.45,2.9,3.33,4.85,7.42,4.85a15.24,15.24,0,0,0,5.63-1L42,46.83h5.95l.61-1.89H42.6l1-3.2h7.09l.61-2h-10L38,50.35a10.67,10.67,0,0,1-2.53.27c-2,0-3.59-.48-4.49-1.53m-16.8-7.36.6-1.86a13.21,13.21,0,0,0-2.48-.26c-3.26-.08-6.21.82-7,2.73C4.42,44.6,7,45.87,9.18,46.92c1.75.83,3.14,1.63,2.65,2.66-.38.81-1.62,1.19-3.42,1.15a12.71,12.71,0,0,1-5.05-1.26l-.92,2a15.7,15.7,0,0,0,5.45,1.29c3.74.08,6.16-.86,7.12-2.89,1.15-2.41-1.69-3.72-4-4.83-1.79-.86-3-1.31-2.72-2.18.35-1,2.15-1.42,3.78-1.38a9.77,9.77,0,0,1,2.07.28"/></svg>