<svg id="Слой_1" data-name="Слой 1" xmlns="http://www.w3.org/2000/svg" viewBox="0 0 56.69 56.69"><defs><style>.cls-1{fill:#010101;}</style></defs><path class="cls-1" d="M46.49,23.6l1.78-.11a.4.4,0,0,0,.45-.34.28.28,0,0,0,0-.09,9.26,9.26,0,0,0-.13-.92,1.86,1.86,0,0,0-.7-1.32,1.11,1.11,0,0,0-1.21.13,3.3,3.3,0,0,0-.63,2.25.39.39,0,0,0,.38.41h.05"/><path class="cls-1" d="M32,22.33c-.45-.55-.91-.75-1.39-.58s-.73.61-.74,1.32A9.63,9.63,0,0,0,30.52,26a9.52,9.52,0,0,0,1.29,2.71c.45.56.91.75,1.39.58s.73-.61.74-1.32A9.2,9.2,0,0,0,33.33,25,9.33,9.33,0,0,0,32,22.33"/><path class="cls-1" d="M54.78,30.62l-1.1-16.35a3.8,3.8,0,0,0-4-3.55L13.79,13.14a3.67,3.67,0,0,0-1.48.43,4.25,4.25,0,0,0-1.41,1.08L3,23.72A4.46,4.46,0,0,0,3.41,30l7,6.16a4.42,4.42,0,0,0,3.05,1.09c.38,0,1.65-.13,1.93-.15l21.09-1.41a2.3,2.3,0,0,1,.12-.34,2.36,2.36,0,0,1,.58-.82,2.57,2.57,0,0,1,.87-.55,3,3,0,0,1,2.08,0,2.58,2.58,0,0,1,1.45,1.36l9.69-.66a3.8,3.8,0,0,0,3.5-4.05m-46.53-2a1.92,1.92,0,1,1,1.9-1.93,1.91,1.91,0,0,1-1.9,1.93h0m13.6-.21a3.39,3.39,0,0,1-1,1.23,4.81,4.81,0,0,1-1.57.78,8.19,8.19,0,0,1-1.09.25,9.09,9.09,0,0,1-3,.11h-.09l-.11,0-.12,0h-.08l-.12,0-.09,0-.1,0h0l-.11,0h0a3,3,0,0,1-1.75-1.27,1.78,1.78,0,0,1-.14-.36v0a1.76,1.76,0,0,1-.06-.46,2.1,2.1,0,0,1,.05-.43,1.53,1.53,0,0,1,.88-1,1.47,1.47,0,0,1,.46-.11,1.49,1.49,0,0,1,1.59,1.4,1.13,1.13,0,0,1,0,.26h0a.85.85,0,0,1,0,.23,1.29,1.29,0,0,0-.07.51.62.62,0,0,0,.36.48.77.77,0,0,0,.36.09,3.42,3.42,0,0,0,.64,0A5.16,5.16,0,0,0,18,29.73a2.43,2.43,0,0,0,1.19-.88,1.44,1.44,0,0,0,.18-1.09,1.38,1.38,0,0,0-.25-.5,3.27,3.27,0,0,0-.71-.68,6.11,6.11,0,0,0-1-.58l-1.17-.55-1.34-.66a6.93,6.93,0,0,1-1.22-.8,4.13,4.13,0,0,1-.9-1,3,3,0,0,1-.41-1.34,3.33,3.33,0,0,1,.19-1.37s.4-1.63,3.15-2.51a5.17,5.17,0,0,1,1.35-.24h.38a6,6,0,0,1,1.78.33h0a3.18,3.18,0,0,1,1.09.58,1.7,1.7,0,0,1,.46.54,1.66,1.66,0,0,1,.12.31v0a1.74,1.74,0,0,1,.05.39,1.23,1.23,0,0,1,0,.38,1.31,1.31,0,0,1-.76.85,1.37,1.37,0,0,1-.4.09,1.24,1.24,0,0,1-.95-.33,1.28,1.28,0,0,1-.47-.91.89.89,0,0,1,0-.23h0a1.18,1.18,0,0,1,0-.2,1,1,0,0,0-.25-.82.83.83,0,0,0-.32-.17l-.12,0a2.31,2.31,0,0,0-.37,0,2.91,2.91,0,0,0-.52,0,2.51,2.51,0,0,0-1.27.58l0,0a1.63,1.63,0,0,0-.31.58,1.84,1.84,0,0,0-.08.7,1.4,1.4,0,0,0,.34.82,2.42,2.42,0,0,0,.32.32c.13.1.26.2.4.29a4.82,4.82,0,0,0,.63.35c.12.07.25.13.38.19l1.08.47q.73.32,1.41.66a6.07,6.07,0,0,1,1.2.82,3.83,3.83,0,0,1,.88,1.08,3.81,3.81,0,0,1,.1,3.17m14.62-2.62a4.09,4.09,0,0,1-.46,1.6,4.44,4.44,0,0,1-1.08,1.35,5.23,5.23,0,0,1-3.43,1.17,4.3,4.3,0,0,1-1.66-.39,4,4,0,0,1-1.09-.73A3.91,3.91,0,0,1,27.08,30a4.12,4.12,0,0,1-1.33.29h0a3.4,3.4,0,0,1-1-.09,2.54,2.54,0,0,1-.88-.37,2.13,2.13,0,0,1-.61-.69,2.45,2.45,0,0,1-.26-1l-.33-4.87c0-.32-.09-.43-.41-.43h-.18a.7.7,0,0,1-.48-1.23l2.7-2.22a.67.67,0,0,1,1,.09.65.65,0,0,1,.16.4l0,.31,0,.5c0,.38.09.49.52.46l.46,0a.71.71,0,0,1,.76.66.73.73,0,0,1-.67.76h0l-.56,0c-.33,0-.37.17-.35.51L26,27.84a1.47,1.47,0,0,0,.34.94,1,1,0,0,0,.8.26,3.07,3.07,0,0,0,.85-.18,2.17,2.17,0,0,0,.35-.15l.07,0,.11-.08-.05-.06a4.28,4.28,0,0,1-.63-4.86,4.32,4.32,0,0,1,1.08-1.32,4.74,4.74,0,0,1,1.6-.92,5,5,0,0,1,1.83-.29,4.39,4.39,0,0,1,1.67.39,3.94,3.94,0,0,1,1.34,1,4.4,4.4,0,0,1,1.11,3.25m6-2.52c-.06.09-.2,0-.27-.11a2.3,2.3,0,0,0-.92-.77,1.34,1.34,0,0,0-1.17.06l.31,4.36a1.49,1.49,0,0,0,.2.8,4,4,0,0,0,.58.51.58.58,0,0,1,.21.68c-.12.22-.4.26-.65.28l-3.43.24a.69.69,0,0,1-.54-.1c-.22-.2-.12-.57.06-.79a2.83,2.83,0,0,0,.55-.69,1.41,1.41,0,0,0,0-.58l-.22-3.6a2,2,0,0,0-.11-.59,4.67,4.67,0,0,0-.41-.58.65.65,0,0,1-.11-.56.58.58,0,0,1,.44-.33l2.13-.67a.8.8,0,0,1,.55-.05.57.57,0,0,1,.32.39,1.75,1.75,0,0,1,0,.56,3.92,3.92,0,0,1,1.72-1.07.75.75,0,0,1,.82.11.84.84,0,0,1,.1.64c0,.05-.09.92-.12,1.11s-.06.63-.07.66a.12.12,0,0,1,0,.1m3.65.93a4.8,4.8,0,0,0,.33,1.33,2.9,2.9,0,0,0,.6.94,2.15,2.15,0,0,0,.85.55,2.79,2.79,0,0,0,1.07.13,2.93,2.93,0,0,0,.67-.11,3.47,3.47,0,0,0,.57-.19,4.09,4.09,0,0,0,.46-.25l.29-.22h0s.05,0,.07,0h0a.13.13,0,0,1,0,.07v0h0a5,5,0,0,1-.57.87,3.6,3.6,0,0,1-.79.72,3.78,3.78,0,0,1-1,.49,4.76,4.76,0,0,1-1.25.23,4.46,4.46,0,0,1-1.7-.19,3.84,3.84,0,0,1-1.34-.78,3.92,3.92,0,0,1-.9-1.27,4.81,4.81,0,0,1-.4-1.66,5.09,5.09,0,0,1,.19-1.82,4,4,0,0,1,2.1-2.46,4.61,4.61,0,0,1,1.75-.44,3.94,3.94,0,0,1,1.6.19,3.69,3.69,0,0,1,1.24.73,3.51,3.51,0,0,1,.81,1.17,4.42,4.42,0,0,1,.32,1.13.41.41,0,0,1-.29.44l-4.73.32v0"/><path class="cls-1" d="M9.72,38.05a4.56,4.56,0,0,0-1.63-.82A8,8,0,0,0,6,37H2.26a.37.37,0,0,0-.36.37.36.36,0,0,0,.11.25l.58.58h0a1.77,1.77,0,0,1,.29,1.07v4.28a1.74,1.74,0,0,1-.29,1.06L2,45.16a.37.37,0,0,0,0,.52.35.35,0,0,0,.25.1H6a8.22,8.22,0,0,0,2.15-.26,4.69,4.69,0,0,0,1.64-.82,3.63,3.63,0,0,0,1-1.38,5.32,5.32,0,0,0,0-3.9,3.57,3.57,0,0,0-1.06-1.37M8.45,43.2A3.56,3.56,0,0,1,8,44.44a1.87,1.87,0,0,1-.76.74,2.77,2.77,0,0,1-1.2.24h-.8V37.33h.79a2.46,2.46,0,0,1,1.17.24,2,2,0,0,1,.78.75,3.86,3.86,0,0,1,.42,1.28,10.36,10.36,0,0,1,.13,1.84,10.23,10.23,0,0,1-.12,1.75"/><path class="cls-1" d="M30.18,45.16l-.32-.33,0,0a.85.85,0,0,1-.23-.37h0l0-.16V41.23a2,2,0,0,0-.17-.87,1.79,1.79,0,0,0-.44-.58,1.67,1.67,0,0,0-.59-.31,2.32,2.32,0,0,0-1.33,0,3.61,3.61,0,0,0-.61.26,3,3,0,0,0-.5.38c-.13.12-.26.25-.38.38a2,2,0,0,0-.35-.55,1.74,1.74,0,0,0-.43-.34,1.62,1.62,0,0,0-.48-.17,2.42,2.42,0,0,0-.47,0,1.8,1.8,0,0,0-.65.09,2.6,2.6,0,0,0-.58.23,3.84,3.84,0,0,0-.5.32,3.9,3.9,0,0,0-.38.33v-.61a.37.37,0,0,0-.38-.37h-.08l-1.92.46a.37.37,0,0,0-.27.45.21.21,0,0,0,0,.1l.36.63v3.4a.85.85,0,0,1-.23.37h0l-.33.34a.37.37,0,0,0,.26.62h2.91a.37.37,0,0,0,.36-.37.39.39,0,0,0-.1-.25L22,44.82a0,0,0,0,0,0,0,1.14,1.14,0,0,1-.23-.38h0a.71.71,0,0,0,0-.2V40.69l.19-.16a1.41,1.41,0,0,1,.24-.13,1.21,1.21,0,0,1,.25-.08l.23,0a.73.73,0,0,1,.59.25,1,1,0,0,1,.2.65v3.25a1.1,1.1,0,0,1-.23.37v0l-.33.33a.37.37,0,0,0,0,.52.39.39,0,0,0,.25.1h2.91a.36.36,0,0,0,.37-.37.36.36,0,0,0-.11-.25L26,44.83l0,0a1.1,1.1,0,0,1-.23-.37h0a.75.75,0,0,0,0-.21v-.76h0V41.05c0-.1,0-.2,0-.3a1.14,1.14,0,0,1,.41-.31,1,1,0,0,1,.51-.13.71.71,0,0,1,.58.25,1,1,0,0,1,.2.65v3.23a1.1,1.1,0,0,1-.23.37v0l-.33.33a.37.37,0,0,0,0,.52.39.39,0,0,0,.25.1H30a.35.35,0,0,0,.36-.37.35.35,0,0,0-.1-.25"/><path class="cls-1" d="M17.89,40.57a2.92,2.92,0,0,0-1-.81,3.15,3.15,0,0,0-1.23-.38,3.82,3.82,0,0,0-1.39.11,3.57,3.57,0,0,0-1.25.58,3.46,3.46,0,0,0-.88,1,3.29,3.29,0,0,0,.23,3.7,3,3,0,0,0,1,.82,3.5,3.5,0,0,0,1.22.4,4,4,0,0,0,2.66-.72,3.46,3.46,0,0,0,.88-.95,3.09,3.09,0,0,0,.43-1.19,3.33,3.33,0,0,0-.67-2.51m-1.35,4c0,.54-.25.86-.62,1s-.71-.07-1-.52A7,7,0,0,1,14.06,43a7.2,7.2,0,0,1-.34-2.26c0-.54.25-.87.62-1a1,1,0,0,1,1,.52,7,7,0,0,1,.84,2.11,6.91,6.91,0,0,1,.32,2.26"/><path class="cls-1" d="M40.86,45.16l-.33-.33,0,0a1.1,1.1,0,0,1-.23-.37h0a1.49,1.49,0,0,0,0-.21V39.76a.37.37,0,0,0-.37-.37H39.8l-1.91.46a.37.37,0,0,0-.27.45.18.18,0,0,0,0,.1L38,41v3.4a.85.85,0,0,1-.23.37v0l-.33.33a.37.37,0,0,0,0,.52.39.39,0,0,0,.25.1h2.92a.36.36,0,0,0,.25-.62"/><path class="cls-1" d="M48.85,45.16l-.32-.33,0,0a1.1,1.1,0,0,1-.23-.37h0V41.15a1.78,1.78,0,0,0-.14-.72,1.72,1.72,0,0,0-.41-.56,1.92,1.92,0,0,0-.6-.36,2.11,2.11,0,0,0-.75-.12,2.36,2.36,0,0,0-.65.07,4.19,4.19,0,0,0-.59.22,4,4,0,0,0-.52.31,5.2,5.2,0,0,0-.44.38v-.61a.37.37,0,0,0-.38-.37h-.08l-1.92.46a.37.37,0,0,0-.27.45.18.18,0,0,0,0,.1l.36.63v3.4a.85.85,0,0,1-.23.37v0l-.33.33a.37.37,0,0,0,0,.52.36.36,0,0,0,.25.1h2.91a.36.36,0,0,0,.36-.37.39.39,0,0,0-.1-.25l-.33-.33,0,0a1.1,1.1,0,0,1-.23-.37h0a.75.75,0,0,0,0-.21V40.69a1.24,1.24,0,0,1,.46-.29,1.46,1.46,0,0,1,.55-.11.82.82,0,0,1,.64.26,1,1,0,0,1,.21.68v3.2a.85.85,0,0,1-.23.37v0l-.33.33a.36.36,0,0,0,0,.52.37.37,0,0,0,.25.1h2.91a.37.37,0,0,0,.37-.36.41.41,0,0,0-.11-.26"/><path class="cls-1" d="M34,44.73a1.6,1.6,0,0,1-.75.15,1.09,1.09,0,0,1-.79-.23.81.81,0,0,1-.24-.6,1.14,1.14,0,0,1,.46-.88,2.88,2.88,0,0,1,1.32-.5Zm2.62.22-.16-.3,0-.06a2.89,2.89,0,0,1-.16-.72V41.58a3.94,3.94,0,0,0-.1-.9,1.56,1.56,0,0,0-.35-.69,1.81,1.81,0,0,0-.71-.44A3.38,3.38,0,0,0,34,39.39a2.55,2.55,0,0,0-.39,0,4.63,4.63,0,0,0-.52.07,4.73,4.73,0,0,0-.81.25,4.8,4.8,0,0,0-.7.39,4.6,4.6,0,0,0-.54.45l0,.06v0h0v0a.07.07,0,0,0,0,.06h0l0,0a0,0,0,0,0,0,0h0l.23-.14.17-.09.19-.08.34-.1h.1a2.92,2.92,0,0,1,.51,0,1.94,1.94,0,0,1,.34,0,1.43,1.43,0,0,1,.63.21l.09.07a1.08,1.08,0,0,1,.35.86v.81a7.6,7.6,0,0,0-1.33.25,4.27,4.27,0,0,0-1.1.46,2.51,2.51,0,0,0-.76.69,1.48,1.48,0,0,0-.3.91,1.29,1.29,0,0,0,.13.58,1.18,1.18,0,0,0,.34.43,1.45,1.45,0,0,0,.51.26,2,2,0,0,0,.64.1,2.29,2.29,0,0,0,1.06-.27,3.25,3.25,0,0,0,.81-.61v.52a.37.37,0,0,0,.37.38h.09l1.91-.46a.37.37,0,0,0,.28-.45.49.49,0,0,0,0-.11"/><path class="cls-1" d="M54.61,43.27a2,2,0,0,0-.46-.58,3.77,3.77,0,0,0-.64-.43c-.24-.13-.49-.25-.74-.36l-.56-.25L52,41.56h0l-.31-.18a1.24,1.24,0,0,1-.18-.14,1,1,0,0,1-.15-.14.44.44,0,0,1-.11-.29.7.7,0,0,1,0-.25.65.65,0,0,1,.16-.21h0a1.3,1.3,0,0,1,.61-.2h.26l.17,0h0l.12.06a.27.27,0,0,1,.05.23.29.29,0,0,0,0,.09v0a.24.24,0,0,0,0,.12.74.74,0,0,0,.26.56.94.94,0,0,0,.6.22.75.75,0,0,0,.26,0,.8.8,0,0,0,.54-.46.59.59,0,0,0,0-.22.86.86,0,0,0,0-.23h0a.44.44,0,0,0-.07-.19.86.86,0,0,0-.26-.31,1.86,1.86,0,0,0-.58-.33h0a4.21,4.21,0,0,0-1-.22h-.26a3.27,3.27,0,0,0-.76.08c-1.48.31-1.84,1-1.88,1.16a1.57,1.57,0,0,0-.16.71,1.27,1.27,0,0,0,.2.71,2,2,0,0,0,.47.54,4,4,0,0,0,.65.42c.23.13.47.24.7.36a6.26,6.26,0,0,1,.58.29,3,3,0,0,1,.49.29,1.47,1.47,0,0,1,.32.29.38.38,0,0,1,.08.17.42.42,0,0,1-.09.37,1.19,1.19,0,0,1-.58.32,3.79,3.79,0,0,1-1,0,.31.31,0,0,1-.13,0h0a.16.16,0,0,1-.08-.1.24.24,0,0,1,0-.15h0a.56.56,0,0,0,0-.12v-.17a.91.91,0,0,0-1-.85,1,1,0,0,0-.29,0,.89.89,0,0,0-.6.52,1,1,0,0,0-.06.25,1.22,1.22,0,0,0,0,.26h0a.68.68,0,0,0,.07.2,1.67,1.67,0,0,0,.95.72h0l.06,0h.38a5.51,5.51,0,0,0,1,.08l.66,0,.61-.09a3,3,0,0,0,.9-.33,1.84,1.84,0,0,0,.63-.58,1.56,1.56,0,0,0,.23-.87,1.52,1.52,0,0,0-.17-.76"/><path class="cls-1" d="M39.43,35.17h0a.52.52,0,0,0,.56.29.52.52,0,0,1,.61.42.51.51,0,0,1-.07.38.54.54,0,0,0,0,.63.52.52,0,0,1,0,.74.51.51,0,0,1-.37.13.52.52,0,0,0-.51.33.52.52,0,0,1-1,.06.53.53,0,0,0-.56-.27.53.53,0,0,1-.61-.43.56.56,0,0,1,.08-.38.53.53,0,0,0-.05-.62.53.53,0,0,1,.43-.87.54.54,0,0,0,.51-.35.52.52,0,0,1,.66-.32.55.55,0,0,1,.3.26"/></svg>