<svg id="Слой_1" data-name="Слой 1" xmlns="http://www.w3.org/2000/svg" viewBox="0 0 56.69 56.69"><defs><style>.cls-1{fill:#262626;}.cls-2{fill:#36ab4d;}</style></defs><g id="Layer_2" data-name="Layer 2"><g id="Layer_1-2" data-name="Layer 1-2"><polygon class="cls-1" points="11.63 20.16 11.06 23.59 9.41 23.59 8.92 26.73 10.63 26.73 9.46 34.19 11.14 36.53 16.07 36.53 18 34.22 18.32 32.25 15.08 32.25 15 32.88 14.54 33.29 13.18 33.29 12.82 32.91 13.82 26.68 17.03 26.67 17.52 23.59 14.57 23.61 15.2 20.16 11.63 20.16"/><path class="cls-1" d="M29.08,23.61l1.8,2.21-.57,3.48L28,31.22l-5.24.05-.24,1.54.38.44,2.93,0,.58-.46v-.59l3.44,0-.32,2.07-2,2.26h-6.7L19,34.22l1.36-8.28,2.77-2.31Zm-2,4.5.3-1.33-.3-.37h-3l-.49.41-.3,1.78h3.48Z"/><polygon class="cls-1" points="39 36.53 32.23 36.53 30.41 34.19 31.8 25.85 34.47 23.61 40.88 23.61 42.44 25.87 42.12 27.94 38.54 27.85 38.59 27.12 38.35 26.73 35.33 26.67 34.74 27.16 33.8 33.01 34.16 33.46 37.15 33.46 37.67 33 37.81 32.23 41.36 32.2 41.07 34.24 39 36.53"/><polygon class="cls-1" points="44.33 20.2 41.58 36.53 44.87 36.53 46.31 27.91 47.37 27.21 49.54 27.21 50.03 28.11 48.64 36.53 51.83 36.53 53.56 25.85 51.85 23.61 48.1 23.61 46.87 24.59 47.57 20.2 44.33 20.2"/><circle class="cls-2" cx="5.86" cy="33.8" r="2.73"/></g></g></svg>