<svg id="Слой_1" data-name="Слой 1" xmlns="http://www.w3.org/2000/svg" viewBox="0 0 56.69 56.69"><defs><style>.cls-1{fill:#e63a15;}</style></defs><path class="cls-1" d="M18.15,15.92v5.37h2.92v4H18.15v5a2.75,2.75,0,0,0,.17,1.19,1,1,0,0,0,.91.46,5.86,5.86,0,0,0,1.65-.35l.39,3.74a17.15,17.15,0,0,1-3.68.43,6.41,6.41,0,0,1-2.93-.51,3.18,3.18,0,0,1-1.39-1.58,9.39,9.39,0,0,1-.45-3.42v-5h-2v-4h2V18.7l5.33-2.78Zm3.26,12.47a7.06,7.06,0,0,1,2.19-5.33A8.23,8.23,0,0,1,29.52,21q4.26,0,6.44,2.46a7.08,7.08,0,0,1,1.75,4.88,7,7,0,0,1-2.17,5.33,8.32,8.32,0,0,1-6,2.08A8.46,8.46,0,0,1,24,34,6.92,6.92,0,0,1,21.41,28.39Zm5.45,0a4.19,4.19,0,0,0,.77,2.79,2.4,2.4,0,0,0,1.93.91,2.43,2.43,0,0,0,1.93-.89,4.43,4.43,0,0,0,.75-2.86,4.14,4.14,0,0,0-.76-2.73,2.37,2.37,0,0,0-1.88-.9,2.48,2.48,0,0,0-2,.91,4.24,4.24,0,0,0-.77,2.77Zm11.86,12.4V21.29h5v2.08a6.88,6.88,0,0,1,1.92-1.78,5.51,5.51,0,0,1,2.6-.62,5,5,0,0,1,4.36,2.17,9,9,0,0,1,1.54,5.35,7.76,7.76,0,0,1-1.68,5.38,5.45,5.45,0,0,1-4.24,1.85A5.92,5.92,0,0,1,46,35.3,5.45,5.45,0,0,1,44.16,34v6.73Zm5.4-12.38a3.71,3.71,0,0,0,.7,2.48,2.25,2.25,0,0,0,1.77.81,1.94,1.94,0,0,0,1.57-.78,4.14,4.14,0,0,0,.64-2.63,3.92,3.92,0,0,0-.66-2.52,2,2,0,0,0-1.62-.81,2.18,2.18,0,0,0-1.72.81A4.12,4.12,0,0,0,44.12,28.39Z"/><circle class="cls-1" cx="6.01" cy="32.57" r="3.5"/></svg>