<svg id="Слой_1" data-name="Слой 1" xmlns="http://www.w3.org/2000/svg" viewBox="0 0 56.69 56.69"><defs><style>.cls-1{fill:#4db0e3;}.cls-2{fill:#56c0d1;}</style></defs><g id="Layer_1-2" data-name="Layer 1-2"><path id="path870" class="cls-1" d="M7.26,28.27H6.39V27h.87V24.41h4.23V27h2l-.79,1.29H11.49v3.49A1.88,1.88,0,0,0,11.85,33a1.24,1.24,0,0,0,1,.43l-.48,1.06a4.51,4.51,0,0,1-.86.27,5.33,5.33,0,0,1-1,.1A4.15,4.15,0,0,1,9,34.63,2.46,2.46,0,0,1,8,34a2.33,2.33,0,0,1-.57-1,4.4,4.4,0,0,1-.19-1.3Z"/><path id="path872" class="cls-1" d="M13.68,27h3.74l.36,1.12c.3-.22.58-.4.84-.56a6.86,6.86,0,0,1,.76-.4,3.53,3.53,0,0,1,.72-.22,3.08,3.08,0,0,1,.68-.08,2.79,2.79,0,0,1,.91.14,2,2,0,0,1,.69.4,1.71,1.71,0,0,1,.44.62,2,2,0,0,1,.15.78,1.75,1.75,0,0,1-.18.78,1.7,1.7,0,0,1-.54.62,2.53,2.53,0,0,1-.86.41,4.14,4.14,0,0,1-1.16.14l-1.37-1.82a1.37,1.37,0,0,0-.49.09,1.15,1.15,0,0,0-.46.3v5.4H13.68Z"/><path id="path874" class="cls-1" d="M21.6,32.27a2.21,2.21,0,0,1,.24-1,2.57,2.57,0,0,1,.73-.84,3.49,3.49,0,0,1,1.14-.57,5.22,5.22,0,0,1,1.47-.21,6.14,6.14,0,0,1,1.54.2,4.25,4.25,0,0,1,1.19.48v-.06a2.94,2.94,0,0,0-.12-.93,1.45,1.45,0,0,0-.39-.62,1.35,1.35,0,0,0-.63-.35,3.11,3.11,0,0,0-.91-.11,6.37,6.37,0,0,0-1,.08,5.16,5.16,0,0,0-.94.23l-.57-1.05a7.84,7.84,0,0,1,1.76-.5A10.73,10.73,0,0,1,27,26.82a9.42,9.42,0,0,1,2.19.23,4.44,4.44,0,0,1,1.6.71,3.11,3.11,0,0,1,1,1.19,4,4,0,0,1,.36,1.69V34.7h-4L27.91,34a2.88,2.88,0,0,1-.56.34,4.48,4.48,0,0,1-.68.29,6,6,0,0,1-.81.2,5.46,5.46,0,0,1-.9.07,4.66,4.66,0,0,1-1.38-.2,3.38,3.38,0,0,1-1-.54,2.48,2.48,0,0,1-.69-.82A2.1,2.1,0,0,1,21.6,32.27ZM26,32.11a.88.88,0,0,0,.27.68,1,1,0,0,0,.73.26,1.62,1.62,0,0,0,.49-.08,1.38,1.38,0,0,0,.46-.25V31.41a1.73,1.73,0,0,0-.86-.23,1.19,1.19,0,0,0-.81.26A.89.89,0,0,0,26,32.11Z"/><path id="path876" class="cls-1" d="M31.37,27H35.8l1.84,5,1.78-5h1.75L38.29,34.7H34.47Z"/><path id="path878" class="cls-1" d="M40.4,30.8a3.6,3.6,0,0,1,.21-1.22,3.44,3.44,0,0,1,.58-1,4.26,4.26,0,0,1,.88-.76,5.39,5.39,0,0,1,1.1-.55,7.44,7.44,0,0,1,1.23-.33,8.35,8.35,0,0,1,1.31-.1,6.59,6.59,0,0,1,1.6.17,5.27,5.27,0,0,1,1.27.48,4.2,4.2,0,0,1,1.64,1.57,3.55,3.55,0,0,1,.4.94,3.68,3.68,0,0,1,.13.94l-5.9.7A2.43,2.43,0,0,0,45.53,33a2,2,0,0,0,1.44.48,3.81,3.81,0,0,0,1-.12,2.52,2.52,0,0,0,.69-.31l.62,1.09a6.24,6.24,0,0,1-.63.28,4.66,4.66,0,0,1-.75.23,9.1,9.1,0,0,1-.91.16,9.77,9.77,0,0,1-1.08.06,8.42,8.42,0,0,1-2.45-.33,5.12,5.12,0,0,1-1.7-.89,3.6,3.6,0,0,1-1-1.29,3.89,3.89,0,0,1-.31-1.54ZM47,30.15a3.31,3.31,0,0,0-.24-1.47.82.82,0,0,0-.76-.46.88.88,0,0,0-.47.13.93.93,0,0,0-.37.39,2.06,2.06,0,0,0-.25.68,4.88,4.88,0,0,0-.11,1Z"/><path id="path880" class="cls-1" d="M51,21.84h4.23V34.7H51Z"/><circle id="circle896" class="cls-2" cx="3.53" cy="32.24" r="2.56"/></g></svg>