<svg id="Слой_1" data-name="Слой 1" xmlns="http://www.w3.org/2000/svg" viewBox="0 0 56.69 56.69"><defs><style>.cls-1{fill:#010101;}</style></defs><g id="BLOCK_RECORD" data-name="BLOCK RECORD"><polygon class="cls-1" points="2.88 26.98 4.7 30.28 6.8 30.28 8.58 26.98 9.47 26.98 9.47 26.38 6.79 26.38 6.79 26.98 7.56 26.98 6.26 29.38 4.95 26.98 5.89 26.98 5.89 26.38 1.99 26.38 1.99 26.98 2.88 26.98"/><path class="cls-1" d="M26,27v-.6h3.6V27h-.9v2.69h.83a1.17,1.17,0,0,0,1.27-1.2h.6v1.81H26v-.61h.91V27Z"/><path class="cls-1" d="M17.27,26.3c-1.8,0-2.76.9-2.76,2s.92,2.06,2.78,2.06,2.76-.91,2.76-2.06S19.08,26.3,17.27,26.3Zm0,3.48c-.66,0-1-.75-.94-1.47s.37-1.4,1-1.39.94.67.93,1.42S17.93,29.79,17.26,29.78Z"/><polygon class="cls-1" points="37.54 26.98 39.35 30.28 41.45 30.28 43.23 26.98 44.13 26.98 44.13 26.38 41.44 26.38 41.44 26.98 42.22 26.98 40.92 29.38 39.6 26.98 40.55 26.98 40.55 26.38 36.64 26.38 36.64 26.98 37.54 26.98"/><path class="cls-1" d="M51.93,26.3c-1.81,0-2.77.9-2.77,2s.93,2.06,2.78,2.06,2.77-.91,2.77-2.06S53.74,26.3,51.93,26.3Zm0,3.48c-.66,0-.95-.75-.94-1.47s.37-1.4,1-1.39.94.67.93,1.42S52.59,29.79,51.91,29.78Z"/></g></svg>