<?xml version="1.0" encoding="utf-8"?>
<!-- Generator: Adobe Illustrator 26.0.1, SVG Export Plug-In . SVG Version: 6.00 Build 0)  -->
<svg version="1.1" id="Слой_1" xmlns="http://www.w3.org/2000/svg" xmlns:xlink="http://www.w3.org/1999/xlink" x="0px" y="0px"
	 viewBox="0 0 40 40" style="enable-background:new 0 0 40 40;" xml:space="preserve">
<style type="text/css">
	.st0{fill:#FFFFFF;}
	.st1{fill:#7A5CA3;}
	.st2{font-family:'Comfortaa-Bold';}
	.st3{font-size:7.583px;}
</style>
<g>
	<path class="st0" d="M25.2,27.7c0,0.3-0.1,0.5-0.3,0.6c-0.2,0.2-0.4,0.2-0.6,0.2H6.9c-0.4,0-0.7-0.1-0.8-0.2
		C6,28.2,5.9,28,5.9,27.6V12.9c0-0.2,0.1-0.5,0.3-0.6C6.4,12.1,6.6,12,6.8,12h17.5c0.2,0,0.5,0.1,0.6,0.3c0.2,0.2,0.3,0.4,0.3,0.7
		V27.7z"/>
	<circle class="st0" cx="16.3" cy="19.2" r="14.2"/>
	<g>
		<g>
			<path class="st1" d="M16.1,4C7.5,4,0.6,11,0.6,19.5C0.6,28.1,7.5,35,16.1,35c8.5,0,15.5-6.9,15.5-15.5C31.6,11,24.6,4,16.1,4z
				 M10.6,30.2c0.3,0.8,0.7,1.4,1.1,2c-1.6-0.5-3-1.4-4.2-2.4c0.7-0.6,1.5-1.1,2.4-1.6C10,28.9,10.3,29.5,10.6,30.2z M11.7,27.4
				c1.4-0.5,2.8-0.7,4.3-0.7c1.5,0,3,0.2,4.3,0.7c-1.1,3.5-2.7,5.6-4.3,5.6C14.5,32.9,12.8,30.8,11.7,27.4z M9.8,10.9
				c-0.8-0.4-1.6-1-2.4-1.6c1.2-1,2.7-1.9,4.2-2.4c-0.4,0.6-0.8,1.3-1.1,2C10.3,9.5,10,10.2,9.8,10.9z M16.1,6.1
				c1.6,0,3.3,2.1,4.3,5.6c-1.4,0.5-2.8,0.7-4.3,0.7c-1.5,0-2.9-0.2-4.3-0.7C12.8,8.2,14.5,6.1,16.1,6.1z M21.6,8.9
				c-0.3-0.8-0.7-1.4-1.1-2c1.6,0.5,3,1.4,4.2,2.4c-0.7,0.6-1.5,1.1-2.4,1.6C22.1,10.2,21.9,9.5,21.6,8.9z M16.1,14.5
				c1.7,0,3.3-0.3,4.8-0.8c0.3,1.4,0.5,3,0.5,4.8H10.7c0.1-1.7,0.2-3.3,0.5-4.8C12.8,14.2,14.4,14.5,16.1,14.5z M21.5,20.6
				c-0.1,1.7-0.2,3.3-0.5,4.8c-1.5-0.5-3.2-0.8-4.8-0.8c-1.7,0-3.3,0.3-4.8,0.8c-0.3-1.4-0.5-3-0.5-4.8H21.5z M21.6,30.2
				c0.3-0.6,0.5-1.3,0.7-2c0.8,0.4,1.6,1,2.4,1.6c-1.2,1-2.7,1.9-4.2,2.4C20.9,31.6,21.2,30.9,21.6,30.2z M22.9,26.1
				c0.4-1.7,0.6-3.6,0.7-5.6h5.9c-0.2,2.9-1.4,5.6-3.2,7.7C25.2,27.4,24.1,26.7,22.9,26.1z M23.5,18.5c-0.1-1.9-0.3-3.8-0.7-5.6
				c1.2-0.6,2.3-1.3,3.3-2.2c1.8,2.1,3,4.8,3.2,7.7H23.5z M6,10.7c1,0.9,2.1,1.6,3.3,2.2c-0.4,1.7-0.6,3.6-0.7,5.6H2.7
				C2.9,15.5,4.1,12.9,6,10.7z M2.7,20.6h5.9c0.1,1.9,0.3,3.8,0.7,5.6C8.1,26.7,7,27.4,6,28.3C4.1,26.2,2.9,23.5,2.7,20.6z"/>
			<path class="st1" d="M25.4,23.2H6.8c-0.6,0-1.1-0.5-1.1-1.1v-5.2c0-0.6,0.5-1.1,1.1-1.1h18.6c0.6,0,1.1,0.5,1.1,1.1v5.2
				C26.5,22.7,26,23.2,25.4,23.2z"/>
			<text transform="matrix(1 0 0 1 6.7829 21.666)" class="st0 st2 st3">www</text>
		</g>
		<path class="st1" d="M26.7,23.9l3.2,9.5c0.1,0.4,0.7,0.5,1,0.1l1.1-2c0.2-0.3,0.6-0.4,0.8-0.1l2.7,2.7c0.2,0.2,0.5,0.2,0.7,0
			l0.7-0.7l0.7-0.7c0.2-0.2,0.2-0.5,0-0.7l-2.7-2.7c-0.2-0.2-0.2-0.7,0.1-0.8l2-1.1c0.4-0.2,0.4-0.8-0.1-1l-9.5-3.2
			C27,23.1,26.6,23.5,26.7,23.9z"/>
		<g>
			<path class="st0" d="M35.8,36c-0.6,0-1.2-0.2-1.6-0.7l-1.5-1.5l-0.3,0.6c-0.4,0.7-1.2,1.2-2,1.2c-1,0-1.8-0.6-2.1-1.5l-3.2-9.5
				c-0.2-0.7-0.1-1.4,0.3-2c0.4-0.6,1.1-0.9,1.8-0.9c0.2,0,0.5,0,0.7,0.1l9.5,3.2c0.9,0.3,1.5,1,1.5,1.9c0.1,0.9-0.4,1.8-1.2,2.2
				l-0.6,0.3l1.5,1.5c0.4,0.4,0.7,1,0.7,1.6c0,0.6-0.2,1.2-0.7,1.6l-1.3,1.3C37,35.7,36.4,36,35.8,36z"/>
		</g>
		<path class="st1" d="M26.7,23.9l3.2,9.5c0.1,0.4,0.7,0.5,1,0.1l1.1-2c0.2-0.3,0.6-0.4,0.8-0.1l2.7,2.7c0.2,0.2,0.5,0.2,0.7,0
			l0.7-0.7l0.7-0.7c0.2-0.2,0.2-0.5,0-0.7l-2.7-2.7c-0.2-0.2-0.2-0.7,0.1-0.8l2-1.1c0.4-0.2,0.4-0.8-0.1-1l-9.5-3.2
			C27,23.1,26.6,23.5,26.7,23.9z"/>
	</g>
</g>
</svg>
