<?xml version="1.0" encoding="utf-8"?>
<!-- Generator: Adobe Illustrator 26.0.1, SVG Export Plug-In . SVG Version: 6.00 Build 0)  -->
<svg version="1.1" id="Слой_1" xmlns="http://www.w3.org/2000/svg" xmlns:xlink="http://www.w3.org/1999/xlink" x="0px" y="0px"
	 viewBox="0 0 40 40" style="enable-background:new 0 0 40 40;" xml:space="preserve">
<style type="text/css">
	.st0{fill:#FFFFFF;}
</style>
<g>
	<path class="st0" d="M1.2,8.4V4C1.2,3,2,2.1,3,2.1C3,2,3,2,3.1,2h33.8c0.8-0.1,1.6,0.4,1.9,1.2C38.9,3.4,39,3.7,39,3.9V8
		c0,0.3,0,0.3-0.3,0.3C38.5,8.4,1.2,8.4,1.2,8.4z M9.3,3.5H5.1C4.4,3.5,3.7,4,3.5,4.6c-0.3,0.9,0.2,1.8,1,2.1C4.8,6.9,5,6.9,5.2,6.9
		h8c0.2,0,0.3,0,0.5-0.1c0.6-0.1,1.1-0.4,1.3-1C15.4,5,15,4,14.2,3.6c-0.2-0.1-0.4-0.1-0.7-0.1L9.3,3.5z M19.7,5.2
		c0-0.9-0.7-1.7-1.7-1.7l0,0c-0.9,0-1.6,0.7-1.6,1.5c0,0.1,0,0.1,0,0.2c0,0.9,0.7,1.7,1.7,1.7l0,0C19,6.9,19.7,6.1,19.7,5.2z
		 M21.3,5.2c0,0.9,0.7,1.7,1.7,1.7c0.9,0,1.7-0.7,1.7-1.7l0,0c0-0.9-0.7-1.7-1.6-1.7l0,0C22.1,3.5,21.3,4.3,21.3,5.2z M29.7,5.2
		c0-0.9-0.7-1.7-1.6-1.7l0,0c-0.9,0-1.7,0.7-1.7,1.7c0,0.9,0.7,1.7,1.7,1.7C28.9,6.9,29.7,6.2,29.7,5.2C29.7,5.3,29.7,5.2,29.7,5.2z
		"/>
	<path d="M9.2,6H5.3C5.2,6,5,6,4.9,6C4.5,5.9,4.3,5.5,4.3,5.1S4.6,4.4,5,4.4h8.3c0.6,0,1.1,0.5,0.9,1C14,5.7,13.6,6,13.3,5.9H9.7
		C9.6,6,9.4,6,9.2,6z"/>
	<path d="M18.8,5.2C18.8,5.7,18.5,6,18,6c-0.4,0-0.8-0.4-0.8-0.8s0.3-0.8,0.7-0.8l0,0C18.4,4.4,18.8,4.8,18.8,5.2z"/>
	<path d="M22.2,5.2c0-0.4,0.3-0.8,0.8-0.8l0,0c0.4,0,0.8,0.4,0.8,0.8S23.5,6,23.1,6l0,0C22.6,6,22.3,5.7,22.2,5.2z"/>
	<path d="M28.9,5.2c0,0.4-0.3,0.8-0.8,0.8l0,0c-0.4,0-0.8-0.4-0.8-0.8s0.4-0.8,0.8-0.8C28.5,4.4,28.9,4.8,28.9,5.2z"/>
	<path d="M6.9,31.1c0.6,0.9,1.2,1.8,1.8,2.7c0.5,0.7,0.7,0.7,1.4,0.3c5.3-3.2,10.8-3.7,16.5-1.5c1.1,0.4,2.1,1.1,3.2,1.6
		c0.5,0.3,0.9,0.3,1.1-0.1c0.7-1.1,1.4-2.1,2.1-3.2c0.2-0.3,0.2-0.7-0.1-0.9h-0.1c-0.1-0.1-0.3-0.2-0.4-0.3
		c-3.7-2.3-7.9-3.6-12.3-3.6c-4.6-0.1-9.1,1.2-13,3.7C6.6,30.1,6.6,30.5,6.9,31.1z"/>
	<path class="st0" d="M38.3,9.3H20c-6.1,0-12.3,0-18.4-0.1c-0.4,0-0.4,0-0.4,0.4v26.2v0.1c0,1.1,1,2,2.1,1.9c1.4-0.1,2.7,0,4.1,0
		h29.4c0.1,0,0.2,0,0.3,0c1-0.1,1.8-1,1.7-2v-26C38.8,9.3,38.8,9.3,38.3,9.3z M5.1,22.3L5,22.2c-0.2-0.3-0.1-0.7,0.2-0.9
		c0.5-0.5,1-1,1.5-1.5c0.2-0.2,0.4-0.4,0.7-0.6c-0.6-0.5-1-1-1.5-1.4c-0.3-0.3-0.5-0.5-0.8-0.7C5,17,5,17,5,17
		c-0.2-0.3-0.2-0.7,0.1-0.9l2.2-2.2l0.1-0.1c0.3-0.2,0.7-0.1,0.9,0.2l1.6,1.6c0.2,0.1,0.3,0.2,0.4,0.4c0.1-0.1,0.2-0.2,0.3-0.3
		c0.5-0.6,1.1-1.1,1.7-1.7l0.1-0.1c0.3-0.3,0.8-0.2,1.1,0.1l2.1,2.1c0.1,0,0.1,0.1,0.1,0.1c0.2,0.3,0.2,0.7-0.1,1L14,18.8
		c-0.1,0.2-0.3,0.3-0.4,0.5c0.6,0.5,1.1,1.1,1.6,1.6c0.2,0.1,0.3,0.3,0.4,0.4c0,0,0,0,0.1,0.1c0.3,0.3,0.2,0.7-0.1,1
		c-0.7,0.7-1.4,1.5-2.1,2.2c0,0.1-0.1,0.1-0.2,0.2c-0.3,0.2-0.7,0.1-0.9-0.2l-1.7-1.7l-0.4-0.4c-0.2,0.1-0.3,0.3-0.5,0.4l-1.6,1.6
		l0,0c-0.3,0.3-0.8,0.3-1.1,0C6.6,23.7,5.8,23,5.1,22.3z M33.1,30.9C32.4,32,31.8,33,31,34.1c-0.3,0.4-0.6,0.4-1.1,0.1
		c-1.1-0.5-2.1-1.2-3.2-1.6C21,30.5,15.4,31,10.2,34.1c-0.7,0.4-1,0.4-1.4-0.3C8.2,32.9,7.6,32,7,31.1c-0.4-0.6-0.3-0.9,0.3-1.2
		c3.9-2.5,8.4-3.8,13-3.7c4.3,0,8.6,1.2,12.3,3.5c0.2,0.1,0.3,0.2,0.4,0.3h0.1C33.3,30.2,33.3,30.6,33.1,30.9z M34.8,22.2l-2.2,2.2
		c-0.3,0.3-0.7,0.3-1.1-0.1l-1.6-1.6c-0.1-0.2-0.3-0.3-0.5-0.5L27.8,24c-0.9,1-1.1,1-2,0l-1.6-1.6c-0.1-0.1-0.1-0.1-0.2-0.2
		c-0.2-0.3-0.2-0.8,0.2-1c0.6-0.6,1.3-1.3,2-2c-0.1-0.2-0.3-0.3-0.4-0.5c-0.6-0.5-1.1-1.1-1.6-1.8c-0.4-0.4-0.4-0.7-0.1-1.1
		c0.7-0.7,1.4-1.4,2.2-2.1c0-0.1,0.1-0.1,0.2-0.2c0.3-0.2,0.7-0.1,0.9,0.2l1.7,1.7l0.4,0.4c0.2-0.2,0.3-0.4,0.5-0.5
		c0.5-0.5,1-1,1.5-1.5c0-0.1,0.1-0.1,0.2-0.2c0.3-0.2,0.7-0.1,0.9,0.2c0.7,0.7,1.4,1.4,2.1,2.2l0.1,0.1c0.2,0.3,0.2,0.8-0.1,1
		l-1.6,1.6c-0.2,0.1-0.3,0.3-0.4,0.4c0.5,0.5,1,0.9,1.5,1.4l0.6,0.6l0.1,0.1C35.1,21.6,35.1,22,34.8,22.2z"/>
	<path d="M31.5,30.8l-1.3,1.9c-6.9-3.7-13.7-3.7-20.6,0l-0.6-1c-0.2-0.3-0.4-0.6-0.6-1c3.1-1.9,6.6-3,10.1-3.2
		C24.1,27.2,28.8,28.9,31.5,30.8z"/>
	<path d="M33.3,16.7c-0.6,0.6-1.2,1.2-1.8,1.8c-0.6,0.6-0.6,0.9,0,1.5c0.6,0.6,1.2,1.2,1.9,1.8c-0.4,0.4-0.9,0.8-1.3,1.2
		c-0.5-0.5-1.1-1.1-1.6-1.6c-0.9-0.9-1-0.9-1.9,0L26.9,23c-0.4-0.4-0.7-0.8-1.2-1.2c0.3-0.3,0.7-0.7,1.1-1.1
		c0.3-0.3,0.6-0.5,0.9-0.9c0.3-0.3,0.4-0.8,0.1-1.1l-0.1-0.1c-0.6-0.6-1.3-1.3-2-2c0.4-0.4,0.8-0.7,1.3-1.1l0.3,0.3l1.5,1.5
		c0.5,0.5,0.9,0.5,1.4,0l1.6-1.6l0.3-0.3C32.5,15.8,32.9,16.2,33.3,16.7z"/>
	<path d="M14.2,16.7c-0.6,0.6-1.2,1.2-1.8,1.8c-0.6,0.6-0.6,0.9,0,1.5s1.2,1.2,1.9,1.8c-0.4,0.4-0.9,0.8-1.3,1.2
		c-0.5-0.5-1.1-1.1-1.6-1.6c-0.9-0.9-1-0.9-1.9,0L7.8,23c-0.4-0.4-0.7-0.8-1.2-1.2C7,21.4,7.4,21,7.8,20.6c0.3-0.3,0.6-0.5,0.9-0.9
		C9,19.5,9,19,8.8,18.7l-0.1-0.1c-0.6-0.6-1.3-1.3-2-2c0.4-0.4,0.8-0.7,1.3-1.1l0.3,0.3l1.5,1.5c0.5,0.5,0.9,0.5,1.4,0l1.6-1.6
		l0.3-0.3C13.5,15.8,13.8,16.2,14.2,16.7z"/>
</g>
</svg>
