<?xml version="1.0" encoding="utf-8"?>
<!-- Generator: Adobe Illustrator 26.0.1, SVG Export Plug-In . SVG Version: 6.00 Build 0)  -->
<svg version="1.1" id="Слой_1" xmlns="http://www.w3.org/2000/svg" xmlns:xlink="http://www.w3.org/1999/xlink" x="0px" y="0px"
	 viewBox="0 0 40 40" style="enable-background:new 0 0 40 40;" xml:space="preserve">
<style type="text/css">
	.st0{fill:#47AD4B;}
	.st1{fill:#FFFFFF;}
</style>
<g>
	<path class="st0" d="M21,37c-4.7-0.2-9.1-1.4-12.9-4.6c-3.4-3-4.9-6.7-4.3-11.3c0.3-1.9,0.2-3.3-1.3-4.8c-0.9-1-1.4-2.5-1.7-3.7
		C0.2,8.8,3.2,5.8,7.1,6c1.2,0,2.4-0.2,3.3-0.6C15.8,3,21.6,2.4,27.1,3.5c2.5,0.5,4.8,1.7,7.6,1.9c3.5,0.3,5.6,4.7,3.8,8.3
		c-1.2,2.5-1.3,4.7-0.5,7.1c1.7,5.1-0.5,8.7-4.4,11.7C29.9,35.3,25.8,37,21,37z M19.9,13.8c-0.4-0.3-0.8-0.6-1.1-0.9
		c-4-3.3-8.8-1.7-9.9,3.4C7.4,23,13,29.6,19.7,29.3c6.3-0.3,11.1-4.8,11.7-11.2c0.3-2.9-0.6-4.8-2.7-6c-2.9-1.5-5.2-1.3-7.5,0.6
		C20.8,13.1,20.4,13.5,19.9,13.8z"/>
	<path class="st1" d="M19.9,13.8c0.5-0.4,1-0.6,1.3-1c2.3-2,4.7-2.2,7.5-0.6c2.1,1.1,3,3.1,2.7,6c-0.6,6.3-5.4,10.8-11.7,11.2
		C13,29.7,7.4,23,8.9,16.3c1.1-5.2,5.9-6.7,9.9-3.4C19.1,13.2,19.4,13.5,19.9,13.8z"/>
	<g id="XMLID_00000134937471341075927050000002055920239436135842_">
		<g>
			<path class="st0" d="M15.1,21.2c-0.2,0.2-0.7,0.2-0.9,0.1c-0.8-0.6-1.5-1.3-2.1-2c-0.2-0.2-0.3-0.6-0.4-1c-0.2-0.6,0-1.3,0.6-1.6
				s1.1-0.1,1.6,0.2c0.2,0.2,0.5,0.3,0.7,0.6c0.2-0.2,0.2-0.4,0.3-0.6c0.4-1,1.1-1.3,1.8-1.1c0.9,0.2,1.5,1.3,1.3,2.1
				c-0.2,0.5-0.4,1-0.7,1.3C16.6,20,15.8,20.7,15.1,21.2z"/>
		</g>
	</g>
	<path class="st0" d="M27.3,15.8c-0.6-0.1-1.3,0.4-1.6,1.3c-0.1,0.2-0.2,0.2-0.3,0.5c-0.2-0.2-0.4-0.3-0.6-0.5
		c-0.5-0.4-1-0.7-1.7-0.4c-0.5,0.2-0.7,1.1-0.5,1.9c0.1,0.2,0.2,0.5,0.3,0.6c0.7,0.7,1.4,1.4,2.2,2.1c0.2,0.2,0.6,0.1,0.8,0
		c0.9-0.7,1.7-1.3,2.5-2.1c0.3-0.3,0.5-1,0.5-1.4C28.9,16.8,28.1,15.9,27.3,15.8z"/>
</g>
</svg>
