<svg width="55" height="55" viewBox="0 0 55 55" fill="none" xmlns="http://www.w3.org/2000/svg">
<rect x="0.335938" y="0.444336" width="53.6763" height="53.6763" fill="#5865F2"/>
<path d="M39.3924 16.1609C43.3595 21.9935 45.3186 28.5727 44.5863 36.1467C44.5832 36.1788 44.5665 36.2082 44.5402 36.2275C41.536 38.4334 38.6254 39.7722 35.7556 40.66C35.7332 40.6668 35.7093 40.6664 35.6872 40.6589C35.6651 40.6514 35.6458 40.6372 35.6322 40.6183C34.9692 39.6958 34.3668 38.7232 33.839 37.7019C33.8087 37.6418 33.8364 37.5693 33.8987 37.5456C34.8555 37.1851 35.7652 36.7531 36.6403 36.2416C36.7092 36.2012 36.7136 36.1024 36.65 36.055C36.4642 35.9171 36.2803 35.7722 36.1042 35.6273C36.0713 35.6005 36.0269 35.5952 35.9896 35.6132C30.3084 38.2367 24.0849 38.2367 18.3365 35.6132C18.2992 35.5966 18.2549 35.6023 18.2228 35.6286C18.0472 35.7735 17.8628 35.9171 17.6788 36.055C17.6151 36.1024 17.6204 36.2012 17.6898 36.2416C18.5648 36.7434 19.4746 37.1851 20.43 37.5474C20.4919 37.5711 20.5214 37.6418 20.4906 37.7019C19.9743 38.7245 19.3719 39.6971 18.6966 40.6196C18.6671 40.6569 18.6188 40.674 18.5732 40.66C15.717 39.7722 12.8064 38.4334 9.8022 36.2275C9.77717 36.2082 9.75917 36.1775 9.75653 36.1454C9.14446 29.594 10.3919 22.9604 14.9455 16.1595C14.9565 16.1415 14.9732 16.1275 14.9925 16.1191C17.2331 15.0908 19.6336 14.3343 22.1424 13.9022C22.1881 13.8952 22.2338 13.9163 22.2575 13.9567C22.5675 14.5055 22.9218 15.2094 23.1615 15.7846C25.8061 15.3806 28.4919 15.3806 31.1918 15.7846C31.4315 15.2217 31.7736 14.5055 32.0822 13.9567C32.0932 13.9366 32.1103 13.9206 32.1309 13.9108C32.1516 13.901 32.1748 13.898 32.1973 13.9022C34.7075 14.3356 37.1079 15.0921 39.3468 16.1191C39.3665 16.1275 39.3828 16.1415 39.3924 16.1609V16.1609ZM24.506 28.6174C24.5336 26.6807 23.1216 25.0781 21.349 25.0781C19.591 25.0781 18.1925 26.6666 18.1925 28.6174C18.1925 30.5678 19.6186 32.1564 21.349 32.1564C23.1075 32.1564 24.506 30.5678 24.506 28.6174V28.6174ZM36.1775 28.6174C36.2052 26.6807 34.7931 25.0781 33.021 25.0781C31.2625 25.0781 29.864 26.6666 29.864 28.6174C29.864 30.5678 31.2902 32.1564 33.021 32.1564C34.7931 32.1564 36.1775 30.5678 36.1775 28.6174V28.6174Z" fill="white"/>
</svg>
