<?xml version="1.0" encoding="utf-8"?>
<!-- Generator: Adobe Illustrator 26.0.1, SVG Export Plug-In . SVG Version: 6.00 Build 0)  -->
<svg version="1.1" id="Слой_1" xmlns="http://www.w3.org/2000/svg" xmlns:xlink="http://www.w3.org/1999/xlink" x="0px" y="0px"
	 viewBox="0 0 40 40" style="enable-background:new 0 0 40 40;" xml:space="preserve">
<style type="text/css">
	.st0{fill:#FFDE8B;stroke:#1B3642;stroke-width:3;}
	.st1{fill:#9BD0B6;stroke:#1B3642;stroke-width:0.5;}
	.st2{fill:#1B3742;}
</style>
<path class="st0" d="M40,0H0v40h40V0z"/>
<path class="st1" d="M-72.1,33.7c22.1,0,40-17.9,40-40h-40V33.7z"/>
<g>
	<path class="st2" d="M35.7,11.5v18.7c0,0.5-0.4,0.8-0.9,0.8h-7.9c-0.5,0-0.9-0.4-0.9-0.8V11.5c0-0.5,0.4-0.8,0.9-0.8h7.9
		C35.3,10.7,35.7,11,35.7,11.5z"/>
	<path class="st2" d="M14,11.5v18.7c0,0.5-0.4,0.8-0.9,0.8H5.2c-0.5,0-0.9-0.4-0.9-0.8V11.5c0-0.5,0.4-0.8,0.9-0.8h7.9
		C13.6,10.7,14,11,14,11.5z"/>
	<path class="st2" d="M24.9,9.8v18.7c0,0.5-0.4,0.8-0.9,0.8h-7.9c-0.5,0-0.9-0.4-0.9-0.8V9.8c0-0.5,0.4-0.8,0.9-0.8h7.9
		C24.5,9,24.9,9.4,24.9,9.8z"/>
</g>
</svg>
