<?xml version="1.0" encoding="utf-8"?>
<!-- Generator: Adobe Illustrator 26.0.1, SVG Export Plug-In . SVG Version: 6.00 Build 0)  -->
<svg version="1.1" id="Слой_1" xmlns="http://www.w3.org/2000/svg" xmlns:xlink="http://www.w3.org/1999/xlink" x="0px" y="0px"
	 viewBox="0 0 128 128" style="enable-background:new 0 0 128 128;" xml:space="preserve">
<style type="text/css">
	.st0{fill:#090909;}
	.st1{fill:#7A5CA3;}
	.st2{fill:#FFFFFF;}
	.st3{font-family:'Comfortaa-Bold';}
	.st4{font-size:27.7358px;}
	.st5{letter-spacing:2;}
	.st6{fill:#010101;}
</style>
<rect x="-278.7" y="-13.8" class="st0" width="155.5" height="155.5"/>
<path class="st1" d="M122.6,88h-0.7c-0.8,0-1.3-0.4-1.3-1.4V16.4c0-0.9-0.4-1.7-1-2.3c-0.6-0.6-1.5-1-2.4-1H32c-0.9,0-1.7,0.3-2.3,1
	c-0.6,0.6-1,1.4-0.9,2.3v6.7c0,0.8-0.1,1.5-0.3,2.3c0,0.7-0.3,1.5-0.7,2.1l-5.5,5.6c-0.6,0.7-1.5,1-2.4,1.1h-9.5
	c-0.8,0.1-1.6,0.5-2.1,1.2c-0.5,0.6-0.8,1.5-0.8,2.3v72.6c0,1.2,0,2.4,0.2,3.6c0.1,0.5,0.3,1,0.5,1.4c0.9,0.6,1.9,0.8,2.9,0.7h85.1
	c0,0,0,0,0,0c1.8,0,3.3-1.5,3.3-3.3v-9.6c0-0.9,0.3-1.8,0.9-2.4l4.9-4.9c0.6-0.7,1.4-1.1,2.3-1.1l14.9,0
	C122.6,92.4,122.6,90.1,122.6,88z M99.4,91.6c0,0.9-0.3,1.7-1,2.3c-0.6,0.6-1.5,0.9-2.3,0.9H32.5c-1.6,0-2.6-0.2-2.9-0.6
	c-0.6-0.9-0.9-1.9-0.7-2.9l-0.1-53.7c0-0.9,0.3-1.7,0.9-2.4c0.6-0.6,1.4-1,2.3-1h64.1c0.9,0,1.7,0.3,2.3,0.9c0.6,0.6,1,1.5,1,2.4
	V91.6z"/>
<circle class="st1" cx="66.6" cy="60.7" r="51.8"/>
<path class="st2" d="M65.9,5.1C34.6,5.1,9.2,30.5,9.2,61.9s25.4,56.7,56.7,56.7s56.7-25.4,56.7-56.7l0,0
	C122.7,30.5,97.3,5.1,65.9,5.1z M45.8,100.7c1.1,2.6,2.5,5,4.1,7.4c-5.6-2-10.8-4.9-15.4-8.8c2.7-2.2,5.5-4.2,8.6-5.8
	C43.8,95.9,44.7,98.3,45.8,100.7z M50.1,90.4c10.3-3.5,21.4-3.5,31.6,0c-3.9,12.6-10,20.4-15.8,20.4C60.1,110.8,54,103.1,50.1,90.4z
	 M43.1,30.1c-3.1-1.6-6-3.6-8.6-5.8c4.6-3.8,9.8-6.8,15.4-8.8c-1.6,2.3-2.9,4.8-4.1,7.4C44.7,25.2,43.8,27.6,43.1,30.1z M65.9,12.8
	c5.8,0,11.9,7.7,15.8,20.3c-5.1,1.7-10.4,2.6-15.8,2.6c-5.4,0-10.7-0.9-15.8-2.6C54,20.5,60.2,12.8,65.9,12.8z M86.1,22.9
	c-1.1-2.6-2.5-5-4-7.4c5.6,2,10.8,4.9,15.4,8.8c-2.7,2.2-5.6,4.2-8.7,5.8C88,27.6,87.1,25.2,86.1,22.9z M65.9,43.3
	c6,0,12-0.9,17.7-2.8c1.1,5.7,1.8,11.6,2,17.4H46.2c0.2-5.8,0.9-11.7,2.1-17.4C54,42.4,60,43.3,65.9,43.3z M85.6,65.6
	c-0.2,5.9-0.8,11.7-2,17.4c-11.5-3.8-23.9-3.8-35.4,0c-1.2-5.7-1.9-11.6-2.1-17.4H85.6z M86.1,100.7c1-2.3,1.9-4.7,2.6-7.2
	c3.1,1.6,6,3.6,8.6,5.8c-4.6,3.8-9.8,6.8-15.4,8.8C83.6,105.7,84.9,103.2,86.1,100.7L86.1,100.7z M90.8,85.9
	c1.4-6.7,2.3-13.5,2.4-20.3h21.5c-0.8,10.5-5,20.4-11.9,28.3C99.2,90.7,95.2,88,90.8,85.9L90.8,85.9z M93.2,58
	c-0.2-6.9-1-13.7-2.4-20.4c4.4-2.1,8.4-4.8,12.1-8c6.9,7.9,11.1,17.9,11.9,28.4H93.2z M29,29.6c3.7,3.2,7.7,5.9,12.1,8
	c-1.4,6.7-2.3,13.5-2.4,20.4H17.1C17.9,47.5,22,37.6,29,29.6z M17.1,65.6h21.5c0.2,6.8,1,13.6,2.4,20.3c-4.4,2.1-8.4,4.8-12.1,8
	C22.1,86,17.9,76.1,17.1,65.6z"/>
<path class="st2" d="M30.2,48.2h71.5c1.3,0,2.3,1,2.3,2.3V73c0,1.3-1,2.3-2.3,2.3H30.2c-1.3,0-2.3-1-2.3-2.3V50.6
	C27.9,49.3,28.9,48.2,30.2,48.2z"/>
<text transform="matrix(1 0 0 1 31.9502 69.5967)" class="st1 st3 st4 st5">www</text>
<path class="st6" d="M104.9,77.8l11.6,34.9c0.3,1,1.4,1.6,2.4,1.2c0.5-0.2,0.9-0.5,1.1-0.9l4-7.4c0.5-0.9,1.7-1.3,2.6-0.8
	c0.2,0.1,0.3,0.2,0.5,0.3l9.8,9.8c0.7,0.7,1.9,0.7,2.7,0l2.5-2.5l2.5-2.5c0.7-0.7,0.8-1.9,0-2.6c0,0,0,0,0,0l-9.8-9.8
	c-0.7-0.8-0.7-2,0-2.7c0.1-0.1,0.3-0.2,0.4-0.3l7.4-4c0.9-0.5,1.3-1.7,0.7-2.6c-0.2-0.4-0.6-0.7-1-0.9l-34.8-11.6
	c-1-0.3-2.1,0.2-2.4,1.2C104.8,77,104.7,77.4,104.9,77.8z"/>
<path class="st1" d="M138.1,121.9c-2.2,0-4.3-0.9-5.8-2.4l-5.6-5.6l-1.2,2.1c-2.1,4-7.1,5.5-11.1,3.4c-1.9-1-3.3-2.7-3.9-4.7
	L98.9,79.8c-1.5-4.3,0.9-9,5.2-10.4c0.9-0.3,1.8-0.4,2.7-0.4c0.9,0,1.8,0.1,2.6,0.4L144.1,81c4.3,1.4,6.7,6.1,5.3,10.4
	c-0.7,2-2.1,3.7-3.9,4.7l-2.1,1.2l5.6,5.6c3.2,3.2,3.2,8.5,0,11.7l-4.9,4.9C142.5,121,140.4,121.9,138.1,121.9z"/>
<path class="st2" d="M104.9,77.8l11.6,34.9c0.3,1,1.4,1.6,2.4,1.2c0.5-0.2,0.9-0.5,1.1-0.9l4-7.4c0.5-0.9,1.7-1.3,2.6-0.8
	c0.2,0.1,0.3,0.2,0.5,0.3l9.8,9.8c0.7,0.7,1.9,0.7,2.7,0l2.5-2.5l2.5-2.5c0.7-0.7,0.8-1.9,0-2.6c0,0,0,0,0,0l-9.8-9.8
	c-0.7-0.8-0.7-2,0-2.7c0.1-0.1,0.3-0.2,0.4-0.3l7.4-4c0.9-0.5,1.3-1.7,0.7-2.6c-0.2-0.4-0.6-0.7-1-0.9l-34.8-11.6
	c-1-0.3-2.1,0.2-2.4,1.2C104.8,77,104.7,77.4,104.9,77.8z"/>
</svg>
