<svg id="Слой_1" data-name="Слой 1" xmlns="http://www.w3.org/2000/svg" viewBox="0 0 413.31 60"><defs><style>.cls-1,.cls-3{fill:#fff;}.cls-2{fill:#010101;}.cls-3{font-size:13.2px;font-family:Comfortaa-Bold, Comfortaa;font-weight:700;letter-spacing:0.1em;}</style></defs><path class="cls-1" d="M6.28,55.21A1.62,1.62,0,0,1,6,54.56a9.08,9.08,0,0,1-.1-1.7V18.28a1.65,1.65,0,0,1,.45-1.18,1.48,1.48,0,0,1,1.1-.47h4.36a1.59,1.59,0,0,0,1.15-.5l2.66-2.66a1.5,1.5,0,0,0,.45-1.1V8.16a1.49,1.49,0,0,1,.45-1.1,1.51,1.51,0,0,1,1.1-.46H58.24a1.43,1.43,0,0,1,1.13.58,3,3,0,0,1,.48,1.93V41.53a1.77,1.77,0,0,0-.13.35,3.64,3.64,0,0,1-.37.81,6.27,6.27,0,0,1-1.66,1.55L42.46,54.51a7.37,7.37,0,0,1-1,.58,2.6,2.6,0,0,1-.85.27,7.1,7.1,0,0,1-1.86.2H7.68A2.24,2.24,0,0,1,6.28,55.21ZM16.1,43.79a1.94,1.94,0,0,0,.35,1.4,2.31,2.31,0,0,0,1.41.3H37.4a7.68,7.68,0,0,0,1-.05,2.53,2.53,0,0,0,.85-.25c.27-.13.55-.28.86-.45l1-.55,7.51-5.06c.67-.44,1-.8,1-1.1a4.57,4.57,0,0,0,.08-.66c0-.26,0-.58,0-.95V18.23a1.52,1.52,0,0,0-.46-1.15,1.49,1.49,0,0,0-1.1-.45H17.65a1.5,1.5,0,0,0-1.1.45,1.55,1.55,0,0,0-.45,1.15Z"/><path class="cls-1" d="M63.31,18.28a1.7,1.7,0,0,1,.4-1.1,1.34,1.34,0,0,1,1-.55h4.51a1.59,1.59,0,0,0,1.15-.5L73,13.47a1.93,1.93,0,0,0,.32-1,6.85,6.85,0,0,0,.13-1.1V8.16a1.49,1.49,0,0,1,.45-1.1A1.51,1.51,0,0,1,75,6.6h40.59a1.6,1.6,0,0,1,1.13.46,1.44,1.44,0,0,1,.48,1.1V41.63c0,.44.2.65.6.65h1.9a.57.57,0,0,0,.65-.65V18.23a1.6,1.6,0,0,1,.45-1.13,1.5,1.5,0,0,1,1.11-.47h4.51a1.67,1.67,0,0,0,1.15-.45L129.8,14a1.46,1.46,0,0,0,.45-1.1V8.16a1.49,1.49,0,0,1,.46-1.1,1.51,1.51,0,0,1,1.1-.46H163a1.56,1.56,0,0,1,1.15.46,1.49,1.49,0,0,1,.45,1.1v4.46a1.8,1.8,0,0,0,.45,1.15l2.41,2.41a1.8,1.8,0,0,0,1.15.45h4.26a1.53,1.53,0,0,1,1.15.47,1.56,1.56,0,0,1,.45,1.13V54a1.45,1.45,0,0,1-.45,1.1,1.55,1.55,0,0,1-1.15.45h-6.71a1.52,1.52,0,0,1-1.11-.45,1.49,1.49,0,0,1-.45-1.1V18.23a1.6,1.6,0,0,0-.45-1.13,1.53,1.53,0,0,0-1.15-.47h-9.37a1.51,1.51,0,0,0-1.15.47,1.61,1.61,0,0,0-.46,1.13V43.84a1.55,1.55,0,0,1-.45,1.15,1.49,1.49,0,0,1-1.1.45h-6.71a1.58,1.58,0,0,1-1.16-.45,1.55,1.55,0,0,1-.45-1.15V18.23a1.6,1.6,0,0,0-.45-1.13,1.48,1.48,0,0,0-1.1-.47h-8.77a1.48,1.48,0,0,0-1.1.47,1.61,1.61,0,0,0-.46,1.13V43.89a1.46,1.46,0,0,1-.45,1.1,1.49,1.49,0,0,1-1.1.45L111,45.49a1.34,1.34,0,0,0-1.1.5l-2.35,2.31a1.51,1.51,0,0,0-.45,1.15V54a1.55,1.55,0,0,1-1.56,1.55H65.06a2.24,2.24,0,0,1-1.4-.35,1.62,1.62,0,0,1-.25-.65,9.08,9.08,0,0,1-.1-1.7ZM73.48,43.79a2,2,0,0,0,.35,1.4c.17.2.63.3,1.4.3H105.5a1.56,1.56,0,0,0,1.1-.42,1.45,1.45,0,0,0,.46-1.08V18.23a1.56,1.56,0,0,0-.46-1.15,1.5,1.5,0,0,0-1.1-.45H75a1.48,1.48,0,0,0-1.1.47,1.6,1.6,0,0,0-.45,1.13Z"/><path class="cls-1" d="M178.61,55.56a1.37,1.37,0,0,1-1.12-.52,1.81,1.81,0,0,1-.43-1.18V44.49a1.48,1.48,0,0,1,.6-1.25c.27-.2.6-.46,1-.78l1.41-1.13,2.15-1.75q2.61-2.05,6.09-4.84l7.27-5.81,7.59-6.06,7-5.62q3.21-2.58,5.57-4.43c1.57-1.24,2.64-2.09,3.2-2.56L223.26,7a1.44,1.44,0,0,1,1-.36h6.32a1.61,1.61,0,0,1,1.13.46,1.47,1.47,0,0,1,.47,1.1v3.61a1.56,1.56,0,0,1-.6,1.25c-.87.67-1.9,1.48-3.08,2.43l-3.88,3.13a1.4,1.4,0,0,0-.08,1.46,1.28,1.28,0,0,0,1.23.75h4.81a1.6,1.6,0,0,1,1.13.45,1.53,1.53,0,0,1,.47,1.15V54a1.46,1.46,0,0,1-.47,1.13,1.67,1.67,0,0,1-1.13.42h-6.92a1.54,1.54,0,0,1-1.13-.47,1.63,1.63,0,0,1-.47-1.18V21.84a.67.67,0,0,0-.22-.5.49.49,0,0,0-.53-.1q-3,2.4-6.37,5.11t-6.74,5.39c-2.25,1.78-4.44,3.53-6.56,5.23l-5.91,4.74-4.81,3.83-3.19,2.56a1.46,1.46,0,0,0-.55,1.25V54a1.53,1.53,0,0,1-.47,1.15,1.67,1.67,0,0,1-1.18.45Z"/><path class="cls-1" d="M236.06,7a2,2,0,0,1,1.38-.38h58.73a1.47,1.47,0,0,1,1,.36l4.26,3.35q5.4,4.37,10.74,8.62L322.26,27l8.59,6.86,6.32,5,.19.2a.63.63,0,0,0,.53-.15.66.66,0,0,0,.23-.5V8.16a1.54,1.54,0,0,1,.42-1.1,1.5,1.5,0,0,1,1.13-.46h7a1.42,1.42,0,0,1,1.08.46,1.5,1.5,0,0,1,.42,1.1V38.07a1.52,1.52,0,0,1-1.54,1.56l-4.32-.1a2,2,0,0,0-1.35.5,1.49,1.49,0,0,1-.28.32c-.08.09-.16.16-.21.23a.56.56,0,0,0,0,1l7.11,5.71a1.33,1.33,0,0,1,.55,1.21v5.41a1.8,1.8,0,0,1-.42,1.18,1.32,1.32,0,0,1-1.08.52h-7a1.49,1.49,0,0,1-1.1-.45,1.55,1.55,0,0,1-.45-1.15v-.7a1.52,1.52,0,0,0-.61-1.2l-6.6-5.27-4.4-3.5-5.71-4.56-6.71-5.39q-3.58-2.88-7.45-5.94a.69.69,0,0,0-.44-.15h-2.41a.66.66,0,0,0-.45.18.51.51,0,0,0-.21.42V53.91a1.68,1.68,0,0,1-.42,1.18,1.38,1.38,0,0,1-1.08.47h-7a1.61,1.61,0,0,1-1.15-.42,1.45,1.45,0,0,1-.46-1.13V25.8a1.46,1.46,0,0,1,.46-1.1,1.47,1.47,0,0,1,1.1-.46h6.21a.61.61,0,0,0,.65-.42.51.51,0,0,0-.25-.68c-.13-.13-.44-.39-.92-.78s-1.25-1-2.28-1.82L293.57,17a1.38,1.38,0,0,0-.95-.35H268.76c-.73,0-1.2.11-1.4.35a1.94,1.94,0,0,0-.4,1.4V43.89a1.47,1.47,0,0,0,.47,1.13,1.67,1.67,0,0,0,1.13.42H288a1.93,1.93,0,0,1,1.38.4,2.06,2.06,0,0,1,.37,1.4v6.57a2,2,0,0,1-.37,1.38,2,2,0,0,1-1.38.37h-19.5a1.5,1.5,0,0,1-1.1-.45,1.49,1.49,0,0,1-.45-1.1V49.1a1,1,0,0,0-.13-.53,3.58,3.58,0,0,0-.32-.47l-2.21-2.16a1.3,1.3,0,0,0-1.05-.5h-2.86a1.3,1.3,0,0,0-1,.5l-2.21,2.16a1.42,1.42,0,0,0-.45,1V54a1.45,1.45,0,0,1-.45,1.1,1.49,1.49,0,0,1-1.1.45H237.44a2,2,0,0,1-1.38-.37,2,2,0,0,1-.37-1.38V47.24a2.12,2.12,0,0,1,.37-1.4,1.89,1.89,0,0,1,1.38-.4h17.64a1.54,1.54,0,0,0,1.1-.42,1.46,1.46,0,0,0,.45-1.13V18.38a2,2,0,0,0-.35-1.4c-.2-.24-.66-.35-1.4-.35H237.44a2,2,0,0,1-1.38-.38,2,2,0,0,1-.37-1.38V8.36A2,2,0,0,1,236.06,7Z"/><path class="cls-1" d="M351.59,18.18a1.61,1.61,0,0,1,.46-1.13,1.48,1.48,0,0,1,1.1-.47h4.31a1.57,1.57,0,0,0,1.15-.45l2.66-3.61a1.76,1.76,0,0,0,.45-1.1V8.16a1.52,1.52,0,0,1,.4-1,1.41,1.41,0,0,1,.95-.51h40.64a2,2,0,0,1,1.38.38,2,2,0,0,1,.38,1.38v6.51a2,2,0,0,1-.38,1.38,2,2,0,0,1-1.38.38H363.07a1.73,1.73,0,0,0-.95.52,1.45,1.45,0,0,0-.4,1v5.16a1.38,1.38,0,0,0,.43,1,1.91,1.91,0,0,0,1.07.53l3.11.19,5.74.36q3.33.19,7,.45c2.46.17,4.95.32,7.47.47l7.16.45c2.26.16,4.28.28,6.07.38l4.18.25A1.88,1.88,0,0,1,405,28a1.46,1.46,0,0,1,.43,1.07V43.94a1.46,1.46,0,0,1-.46,1.13,1.54,1.54,0,0,1-1.1.42H400.3a1.55,1.55,0,0,0-1.1.5l-3.4,3.41a1.41,1.41,0,0,0-.46,1.05V54a1.49,1.49,0,0,1-.45,1.1,1.5,1.5,0,0,1-1.1.45H353.35a1.44,1.44,0,0,1-1.76-1.75V48.2c0-.34,0-.78.08-1.33s.14-.88.28-1c.2-.27.66-.4,1.4-.4h40.44a1.56,1.56,0,0,0,1.1-.42,1.49,1.49,0,0,0,.45-1.13V38.53a1.59,1.59,0,0,0-.4-1.11,1.52,1.52,0,0,0-1.05-.5q-3.4-.2-7.29-.45l-7.72-.5-7.26-.48-5.94-.37-12.63-.8a1.57,1.57,0,0,1-1.06-.48,1.53,1.53,0,0,1-.4-1.08Z"/><circle class="cls-1" cx="91.48" cy="29.26" r="24.66"/><path class="cls-2" d="M91.15,2.82a27,27,0,1,0,27,27A27,27,0,0,0,91.15,2.82ZM81.56,48.29a22.21,22.21,0,0,0,1.93,3.51,23.28,23.28,0,0,1-7.32-4.17,22.89,22.89,0,0,1,4.1-2.77A31.34,31.34,0,0,0,81.56,48.29Zm2.06-4.88a23.48,23.48,0,0,1,15.06,0c-1.85,6-4.78,9.69-7.53,9.69S85.47,49.44,83.62,43.41ZM80.27,14.7a23.43,23.43,0,0,1-4.1-2.77,23.31,23.31,0,0,1,7.32-4.18,23.14,23.14,0,0,0-1.93,3.51A31.52,31.52,0,0,0,80.27,14.7ZM91.15,6.46c2.75,0,5.68,3.65,7.53,9.68a23.45,23.45,0,0,1-7.53,1.24,23.5,23.5,0,0,1-7.53-1.24C85.47,10.11,88.41,6.46,91.15,6.46Zm9.59,4.8a24,24,0,0,0-1.92-3.51,23.42,23.42,0,0,1,7.32,4.18A23.5,23.5,0,0,1,102,14.7,31.52,31.52,0,0,0,100.74,11.26ZM91.15,21a27,27,0,0,0,8.43-1.33,49.67,49.67,0,0,1,.94,8.28H81.78a49.62,49.62,0,0,1,1-8.28A27,27,0,0,0,91.15,21Zm9.37,10.58a49.92,49.92,0,0,1-.94,8.29,27.16,27.16,0,0,0-16.85,0,49.87,49.87,0,0,1-1-8.29Zm.22,16.7A31.34,31.34,0,0,0,102,44.86a23,23,0,0,1,4.11,2.77,23.4,23.4,0,0,1-7.32,4.17A23,23,0,0,0,100.74,48.29Zm2.25-7a52.67,52.67,0,0,0,1.16-9.68H114.4a23.2,23.2,0,0,1-5.66,13.48A26.17,26.17,0,0,0,103,41.27ZM104.15,28A52.67,52.67,0,0,0,103,18.29a26.58,26.58,0,0,0,5.75-3.81A23.23,23.23,0,0,1,114.4,28ZM73.56,14.48a27.08,27.08,0,0,0,5.75,3.81A53.44,53.44,0,0,0,78.15,28H67.9A23.26,23.26,0,0,1,73.56,14.48ZM67.9,31.59H78.15a53.55,53.55,0,0,0,1.16,9.68,27,27,0,0,0-5.75,3.8A23.26,23.26,0,0,1,67.9,31.59Z"/><rect class="cls-2" x="73.05" y="23.34" width="36.21" height="12.87" rx="1.1"/><text class="cls-3" transform="translate(74.98 33.5)">www</text><path class="cls-2" d="M109.68,37.41,115.2,54a.9.9,0,0,0,1.66.14l1.89-3.5a.91.91,0,0,1,1.45-.21l4.68,4.68a.91.91,0,0,0,1.28,0l1.17-1.18,1.17-1.17a.89.89,0,0,0,0-1.28l-4.68-4.68a.92.92,0,0,1,.22-1.45l3.5-1.88a.92.92,0,0,0-.14-1.67l-16.57-5.52A.91.91,0,0,0,109.68,37.41Z"/><path class="cls-1" d="M125.52,58.37a3.91,3.91,0,0,1-2.78-1.15l-2.67-2.68-.55,1a3.92,3.92,0,0,1-7.18-.62l-5.52-16.57a3.91,3.91,0,0,1,3.72-5.16,3.75,3.75,0,0,1,1.24.2l16.57,5.52A3.93,3.93,0,0,1,129,46.1l-1,.55,2.68,2.67a3.94,3.94,0,0,1,0,5.56l-2.35,2.34A3.89,3.89,0,0,1,125.52,58.37Z"/><path class="cls-2" d="M109.68,37.41,115.2,54a.9.9,0,0,0,1.66.14l1.89-3.5a.91.91,0,0,1,1.45-.21l4.68,4.68a.91.91,0,0,0,1.28,0l1.17-1.18,1.17-1.17a.89.89,0,0,0,0-1.28l-4.68-4.68a.92.92,0,0,1,.22-1.45l3.5-1.88a.92.92,0,0,0-.14-1.67l-16.57-5.52A.91.91,0,0,0,109.68,37.41Z"/></svg>