<svg width="55" height="54" viewBox="0 0 55 54" fill="none" xmlns="http://www.w3.org/2000/svg">
<rect x="0.349609" width="53.6763" height="53.6763" fill="#1D9BF0"/>
<path d="M31.701 15.9555V15.9507H32.9594L33.4192 16.0425C33.7257 16.1021 34.004 16.1803 34.2541 16.2769C34.5042 16.3736 34.7462 16.4864 34.9801 16.6153C35.2141 16.7442 35.4262 16.8755 35.6166 17.0092C35.8054 17.1413 35.9748 17.2815 36.1248 17.4297C36.2732 17.5795 36.5047 17.6182 36.8193 17.5457C37.1339 17.4732 37.4728 17.3725 37.8358 17.2436C38.1988 17.1147 38.5577 16.9697 38.9127 16.8086C39.2676 16.6475 39.4838 16.5452 39.5613 16.5017C39.6371 16.4566 39.6774 16.4324 39.6823 16.4292L39.6871 16.4219L39.7113 16.4099L39.7355 16.3978L39.7597 16.3857L39.7839 16.3736L39.7887 16.3664L39.796 16.3615L39.8033 16.3567L39.8081 16.3494L39.8323 16.3422L39.8565 16.3374L39.8517 16.3736L39.8444 16.4099L39.8323 16.4461L39.8202 16.4824L39.8081 16.5065L39.796 16.5307L39.7839 16.5669C39.7758 16.5911 39.7678 16.6233 39.7597 16.6636C39.7516 16.7039 39.675 16.865 39.5298 17.1469C39.3846 17.4289 39.2031 17.7149 38.9853 18.0049C38.7675 18.2949 38.5723 18.514 38.3996 18.6622C38.2254 18.812 38.11 18.9168 38.0536 18.9764C37.9971 19.0376 37.9285 19.094 37.8479 19.1455L37.7269 19.2253L37.7027 19.2374L37.6785 19.2495L37.6736 19.2567L37.6664 19.2615L37.6591 19.2664L37.6543 19.2736L37.6301 19.2857L37.6059 19.2978L37.601 19.305L37.5938 19.3099L37.5865 19.3147L37.5817 19.322L37.5768 19.3292L37.5696 19.334L37.5623 19.3389L37.5575 19.3461H37.6785L38.3561 19.2011C38.8078 19.1045 39.2394 18.9877 39.6508 18.8507L40.3042 18.6332L40.3768 18.609L40.4131 18.597L40.4373 18.5849L40.4615 18.5728L40.4857 18.5607L40.5099 18.5486L40.5583 18.5414L40.6067 18.5365V18.5849L40.5946 18.5897L40.5825 18.597L40.5777 18.6042L40.5704 18.609L40.5631 18.6139L40.5583 18.6211L40.5535 18.6284L40.5462 18.6332L40.5389 18.638L40.5341 18.6453L40.5293 18.6525L40.522 18.6574L40.5099 18.6815L40.4978 18.7057L40.4905 18.7105C40.4873 18.7154 40.3849 18.8523 40.1832 19.1214C39.9815 19.392 39.8726 19.529 39.8565 19.5322C39.8404 19.537 39.8178 19.5612 39.7887 19.6047C39.7613 19.6498 39.5903 19.8295 39.2757 20.1436C38.9611 20.4578 38.653 20.7373 38.3512 20.9822C38.0479 21.2287 37.8947 21.5316 37.8914 21.8909C37.8866 22.2486 37.868 22.653 37.8358 23.1041C37.8035 23.5552 37.743 24.0425 37.6543 24.5662C37.5655 25.0898 37.4284 25.6819 37.2428 26.3424C37.0573 27.003 36.8314 27.6474 36.5652 28.2758C36.299 28.9041 36.0207 29.468 35.7303 29.9675C35.4399 30.4669 35.1737 30.8898 34.9317 31.2362C34.6897 31.5826 34.4437 31.9089 34.1936 32.215C33.9435 32.5211 33.6273 32.8659 33.245 33.2493C32.861 33.6312 32.6513 33.8406 32.6158 33.8777C32.5787 33.9131 32.4206 34.0452 32.1414 34.274C31.8639 34.5044 31.5655 34.7348 31.246 34.9652C30.9282 35.194 30.6362 35.3849 30.37 35.5379C30.1038 35.691 29.7827 35.8658 29.4068 36.0623C29.0325 36.2605 28.6275 36.4442 28.1919 36.6133C27.7563 36.7825 27.2965 36.9396 26.8125 37.0846C26.3285 37.2296 25.8606 37.3424 25.4089 37.4229C24.9572 37.5035 24.4449 37.572 23.8722 37.6284L23.0131 37.7129V37.725H21.4401V37.7129L21.2343 37.7009C21.0972 37.6928 20.9843 37.6847 20.8955 37.6767C20.8068 37.6686 20.472 37.6243 19.8912 37.5438C19.3104 37.4632 18.8547 37.3827 18.5239 37.3021C18.1932 37.2216 17.7011 37.0685 17.0477 36.8429C16.3943 36.6174 15.8353 36.3894 15.3706 36.159C14.9076 35.9302 14.6172 35.7852 14.4994 35.724C14.3832 35.6644 14.2526 35.5903 14.1074 35.5017L13.8896 35.3688L13.8847 35.3615L13.8775 35.3567L13.8702 35.3518L13.8654 35.3446L13.8412 35.3325L13.817 35.3204L13.8121 35.3132L13.8049 35.3083L13.7976 35.3035L13.7928 35.2963L13.7879 35.289L13.7807 35.2842H13.7686V35.2358L13.7928 35.2407L13.817 35.2479L13.9259 35.26C13.9985 35.2681 14.1961 35.2801 14.5188 35.2963C14.8415 35.3124 15.1843 35.3124 15.5473 35.2963C15.9103 35.2801 16.2814 35.2439 16.6605 35.1875C17.0396 35.1311 17.4873 35.0345 18.0036 34.8975C18.5199 34.7605 18.9942 34.5978 19.4266 34.4093C19.8574 34.2192 20.1639 34.0774 20.3462 33.984C20.5269 33.8922 20.8028 33.7214 21.1738 33.4717L21.7305 33.0971L21.7353 33.0898L21.7426 33.085L21.7498 33.0802L21.7547 33.0729L21.7595 33.0657L21.7668 33.0608L21.774 33.056L21.7789 33.0487L21.8031 33.0415L21.8273 33.0367L21.8321 33.0125L21.8394 32.9883L21.8466 32.9835L21.8515 32.9762L21.6579 32.9642C21.5288 32.9561 21.4037 32.948 21.2827 32.94C21.1617 32.9319 20.9722 32.8957 20.714 32.8312C20.4559 32.7668 20.1776 32.6701 19.8791 32.5412C19.5807 32.4123 19.2903 32.2593 19.0079 32.0821C18.7256 31.9048 18.5215 31.7574 18.3957 31.6398C18.2714 31.5238 18.1101 31.3595 17.9116 31.1468C17.7148 30.9325 17.5438 30.7126 17.3986 30.487C17.2534 30.2615 17.1147 30.0013 16.9824 29.7065L16.7815 29.2666L16.7694 29.2304L16.7573 29.1941L16.75 29.17L16.7452 29.1458L16.7815 29.1506L16.8178 29.1579L17.084 29.1941C17.2615 29.2183 17.5398 29.2263 17.9189 29.2183C18.2981 29.2102 18.5602 29.1941 18.7054 29.17C18.8506 29.1458 18.9394 29.1297 18.9716 29.1216L19.02 29.1095L19.0805 29.0975L19.141 29.0854L19.1459 29.0781L19.1531 29.0733L19.1604 29.0685L19.1652 29.0612L19.1168 29.0491L19.0684 29.037L19.02 29.025L18.9716 29.0129L18.9232 29.0008C18.891 28.9927 18.8345 28.9766 18.7538 28.9525C18.6732 28.9283 18.4554 28.8397 18.1004 28.6866C17.7455 28.5336 17.4631 28.3845 17.2534 28.2395C17.0431 28.0941 16.8426 27.9351 16.6532 27.7634C16.4645 27.5894 16.2572 27.3655 16.0313 27.0916C15.8054 26.8177 15.6038 26.4995 15.4263 26.137C15.2488 25.7745 15.1157 25.4281 15.027 25.0978C14.9386 24.7695 14.8803 24.4338 14.8528 24.0949L14.8092 23.5874L14.8334 23.5922L14.8576 23.5995L14.8818 23.6116L14.906 23.6237L14.9302 23.6357L14.9544 23.6478L15.3295 23.817C15.5796 23.9298 15.8901 24.0264 16.2612 24.107C16.6323 24.1875 16.8541 24.2319 16.9267 24.2399L17.0356 24.252H17.2534L17.2486 24.2447L17.2413 24.2399L17.234 24.2351L17.2292 24.2278L17.2244 24.2206L17.2171 24.2157L17.2098 24.2109L17.205 24.2037L17.1808 24.1916L17.1566 24.1795L17.1518 24.1722L17.1445 24.1674L17.1372 24.1626L17.1324 24.1553L17.1082 24.1432L17.084 24.1312L17.0792 24.1239C17.0743 24.1207 17.005 24.0691 16.871 23.9692C16.7387 23.8677 16.6 23.7364 16.4548 23.5753C16.3096 23.4142 16.1644 23.245 16.0192 23.0678C15.8737 22.8902 15.7441 22.7002 15.632 22.4999C15.5191 22.2985 15.3997 22.0423 15.2738 21.7314C15.1496 21.4221 15.0552 21.1103 14.9907 20.7961C14.9262 20.482 14.8899 20.1718 14.8818 19.8657C14.8737 19.5596 14.8818 19.2978 14.906 19.0803C14.9302 18.8628 14.9786 18.6171 15.0512 18.3432C15.1238 18.0693 15.2287 17.7793 15.3658 17.4732L15.5715 17.014L15.5836 16.9778L15.5957 16.9415L15.603 16.9367L15.6078 16.9294L15.6126 16.9222L15.6199 16.9174L15.6272 16.9222L15.632 16.9294L15.6368 16.9367L15.6441 16.9415L15.6514 16.9464L15.6562 16.9536L15.661 16.9609L15.6683 16.9657L15.6804 16.9899L15.6925 17.014L15.6998 17.0189L15.7046 17.0261L16.0313 17.3886C16.2491 17.6303 16.5072 17.9002 16.8057 18.1982C17.1042 18.4963 17.2695 18.6509 17.3018 18.6622C17.3341 18.6751 17.3744 18.7121 17.4228 18.7734C17.4712 18.833 17.6325 18.9756 17.9068 19.2011C18.1811 19.4267 18.5401 19.6885 18.9837 19.9865C19.4274 20.2846 19.9195 20.5786 20.4599 20.8686C21.0004 21.1586 21.5812 21.4204 22.2024 21.6541C22.8235 21.8877 23.2591 22.0407 23.5092 22.1132C23.7593 22.1857 24.1868 22.2784 24.7918 22.3912C25.3968 22.5039 25.8526 22.5764 26.1591 22.6087C26.4657 22.6409 26.6754 22.6594 26.7883 22.6642L26.9577 22.6691L26.9529 22.6328L26.9456 22.5966L26.8972 22.2945C26.865 22.0931 26.8488 21.8111 26.8488 21.4486C26.8488 21.0861 26.8771 20.7518 26.9335 20.4457C26.99 20.1396 27.0747 19.8295 27.1876 19.5153C27.3006 19.2011 27.4111 18.949 27.5192 18.7589C27.6289 18.5704 27.7725 18.3553 27.9499 18.1136C28.1274 17.8719 28.3573 17.6222 28.6396 17.3644C28.922 17.1067 29.2446 16.8771 29.6077 16.6757C29.9707 16.4743 30.3054 16.3212 30.612 16.2165C30.9185 16.1118 31.1767 16.0433 31.3864 16.0111C31.5961 15.9789 31.701 15.9604 31.701 15.9555V15.9555Z" fill="white"/>
</svg>
