<?xml version="1.0" encoding="utf-8"?>
<!-- Generator: Adobe Illustrator 26.0.1, SVG Export Plug-In . SVG Version: 6.00 Build 0)  -->
<svg version="1.1" id="Слой_1" xmlns="http://www.w3.org/2000/svg" xmlns:xlink="http://www.w3.org/1999/xlink" x="0px" y="0px"
	 viewBox="0 0 40 40" style="enable-background:new 0 0 40 40;" xml:space="preserve">
<style type="text/css">
	.st0{fill:#9FC527;}
</style>
<g>
	<path class="st0" d="M34.8,12.6c-0.4,0.2-0.8,0.1-1.3,0.4c0.8,0.2,1.6,0.5,2.3,1.2c-0.5-0.1-0.8-0.4-1.3-0.4
		c0.8,0.6,1.6,1.1,2.2,1.9c-0.4-0.1-0.6-0.4-0.9-0.4c0.5,0.5,0.8,1.1,1.2,1.6c0.5,1.4,0.8,2.7,0.9,4.2c0,0.4,0,0.7,0,1.1
		c0,0.1,0,0.2-0.1,0.4c-0.1,0.6-0.4,1.1-0.7,1.5c-0.1-0.1,0-0.1,0-0.2c0.8-1.4,0.8-3.5,0-5c0.2,1.1,0.2,2.1,0.2,3.2
		c0,0.6,0,1.2-0.4,1.6l0,0c0-0.1,0-0.1,0-0.2s0.1-0.4,0.1-0.5c0.1-0.9,0.1-1.8-0.4-2.7c-0.1-0.6-0.5-1.1-0.7-1.4
		c-0.1-0.5,0-0.9-0.1-1.4c0-0.1,0-0.1-0.1-0.2c0,0.1,0,0.2,0,0.4c0,0.1,0,0.2-0.1,0.4c0-0.2,0.1-0.5,0-0.7c0-0.4-0.1-0.6-0.4-0.8
		c0.1,0.4,0.1,0.7,0.1,1.1c0,0.1-0.1,0.1-0.1,0c-0.2-0.4-0.6-0.7-0.9-1.1c0,0,0,0-0.1-0.1c0,0,0,0-0.1-0.1c-0.2-0.5-0.5-0.9-0.8-1.4
		c0-0.1-0.1-0.1-0.1-0.2c0,0-0.1,0,0,0l0,0c-0.1,0.1,0,0.2,0.1,0.2c0,0.1,0.1,0.2,0.1,0.4c-0.2-0.5-0.6-0.9-0.9-1.2
		c0,0.4,0.4,0.5,0.5,0.8c-0.2-0.1-0.4-0.2-0.6-0.4c-0.5-0.6-1.1-0.9-1.6-1.2c0,0-0.1,0-0.1-0.1l0,0c0,0,0.1,0.1,0.1,0
		c0,0.1,0.1,0.1,0.2,0.2c0.2,0.2,0.5,0.5,0.7,0.6c-0.4-0.1-0.7-0.1-1.2-0.2c-0.1,0-0.4,0-0.5-0.2c0,0-0.1-0.1-0.2-0.1
		c-0.2,0.1-0.4,0-0.6,0c-0.4,0-0.8,0-1.2,0.1c-0.5,0-0.8,0.2-1.3,0.4c-0.2,0-0.4,0.1-0.6,0.2c-0.1,0-0.1,0.1-0.2,0c0,0,0,0,0-0.1
		c1.3-1.5,3.7-2.7,6.2-1.2c0.8,0.5,1.5,1.1,2.2,1.8l0.1,0.1c0.1,0.1,0.1,0.2,0.2,0.4c0,0,0,0,0.1,0.1c0,0,0,0,0.1,0.1
		c0,0,0,0.1,0.1,0c0,0.1,0,0.1,0.1,0.1c0,0,0,0.1,0.1,0.1l0,0l0,0l0,0v-0.1l-0.1-0.1c0,0,0-0.1-0.1-0.1V15c0,0,0,0-0.1-0.1
		c-0.1-0.1-0.2-0.2-0.2-0.4l-0.1-0.1c-0.7-0.8-1.5-1.5-2.5-2c-2.1-1.2-4.9-0.6-6.5,1.2c-0.6,0.5-1.1,1.2-1.4,1.8
		c-0.4,0.6-0.7,1.2-0.9,1.8c0.1,0.4,0.1,0.5,0.1,0.6c-0.1,0.2-0.2,0.5-0.4,0.7c0,0.1,0,0.2,0.1,0.2c0.6,0.2,1.1,0.7,1.5,0.9
		c0.6,0.5,1.2,0.9,1.6,1.5c0.4,0.7,0.7,1.3,1.2,2c0.4,0.7,0.7,1.5,1.1,2.2c0,0.1,0,0.1,0.1,0.2c0,0,0,0.1,0.1,0.1
		c0,0.1,0,0.2,0.1,0.4v0.1v0.1c0.1,0.7,0.1,1.4,0,2.1l-0.1,0.1c0-0.9-0.2-1.8-0.6-2.6c-0.6-1.6-1.6-3-2.9-4.2c0,0,0,0-0.1-0.1
		c0,0-0.1-0.1-0.1,0c0-0.1,0-0.1-0.1-0.1l0,0l0,0c-0.1,0,0,0.1-0.1,0c-0.1,0-0.1-0.1-0.2-0.2c-0.6-0.7-1.2-1.3-1.9-1.9
		c0-0.1-0.1-0.1-0.1-0.1c0-0.1,0-0.1-0.1,0l0,0l0,0c0,0,0,0,0,0.1h0.1c0,0.1,0,0.1,0.1,0.2c0.2,0.4,0.4,0.8,0.5,1.2
		c0,0.2,0,0.4,0,0.7c-0.5-0.7-0.7-1.3-1.2-1.9c-0.4-0.6-0.6-1.1-0.9-1.6c0.1,0.5,0.2,0.8,0.4,1.3c0,0.1,0,0.2,0,0.2v0.1l0,0
		c0,0.2,0,0.5,0,0.7c0,0.1,0.1,0.4-0.1,0.5c0-0.2-0.1-0.4-0.2-0.6c-0.6-1.3-0.7-2.8-1.1-4.1c0.2,1.5,0.5,3,0.4,4.6
		c0,0.1,0,0.4,0,0.5c-0.2-0.1-0.1-0.4-0.2-0.5c0,0.1,0,0.2,0,0.4c0.2,0.7,0,1.3-0.1,2c-0.1,0.2-0.1,0.5-0.2,0.7
		c-0.2,0.4-0.2,0.7-0.5,1.1c0-0.4,0.1-0.6,0.1-0.9c0.1-0.4,0.1-0.7,0-1.1c0.1-0.8,0-1.6-0.1-2.5c0-0.1,0-0.2,0-0.4
		c0.5,0.1,0.2,0.6,0.4,0.8c0-0.2,0.1-0.5,0.1-0.7c0-0.1,0.1-0.2,0.1-0.4c0,0.5-0.1,0.9,0,1.5c0.1-0.7,0.1-1.4,0.1-2
		c0.2,0,0.1,0.2,0.2,0.2c-0.4-0.8-0.5-1.8-0.7-2.7c0,0.1,0,0.4,0,0.5c0.1,0.9,0.1,1.9,0,2.8c-0.1-0.1-0.1-0.2-0.1-0.4
		c0-0.2,0-0.4,0-0.6c0,0,0,0-0.1,0c0,0.2,0,0.5-0.1,0.7c-0.1-0.2-0.1-0.5-0.2-0.7c0,0.2-0.1,0.5-0.1,0.7l0,0c-0.1,0.1,0,0.1,0,0.2
		s-0.1,0.2-0.1,0.4c-0.2,1.4-0.6,2.8-1.3,4c-0.1,0.1-0.1,0.4-0.4,0.4c0-0.2,0.1-0.4,0.1-0.6c0.1-0.1,0.1-0.2,0.1-0.5
		c0.2-0.6,0.2-1.2,0.5-1.8v-0.1v0.1c-0.1,0-0.1,0.1-0.2,0.2c0.1-0.8,0.5-1.5,0.6-2.2c-0.1,0.2-0.2,0.5-0.4,0.8
		c-0.1-0.1-0.1-0.2-0.1-0.4c-0.2-0.9-0.2-1.9-0.1-2.9c0-0.6,0.1-1.3-0.2-1.9v-0.1c0-0.1,0-0.4,0.2-0.4s0.2,0.1,0.2,0.2
		c0,0.4-0.1,0.6-0.1,0.8c-0.1,1.5-0.4,2.9-0.7,4.3c0,0.1-0.1,0.2,0,0.2c0.2,0.1,0,0.4,0,0.5c0,0.2-0.1,0.4-0.1,0.6l0,0l0,0
		c0.4-0.7,0.5-1.4,0.6-2.1c0.2,0.4,0.2,0.8,0.1,1.2c-0.4,0.7-0.6,1.4-0.9,2.1c-0.1,0.2-0.2,0.5-0.4,0.7l0,0c0.1-0.4,0.1-0.8,0.2-1.2
		s0.1-0.8,0.2-1.3c0-0.1,0.1-0.2,0-0.4c0.1-0.1,0.1-0.2,0.1-0.2c0.1-0.4,0.1-0.8,0.2-1.3l0,0c0,0,0,0,0.1,0c0,0,0,0,0,0.1
		c-0.2,0.5-0.4,1.1-0.4,1.5c-0.1,0.1-0.1,0.1-0.1,0.2c-0.1,0,0,0.1-0.1,0.1c0.1-0.5,0.2-0.9,0.2-1.5c-0.5,0.6-0.5,0.7-0.5,0.9
		c-0.1,0-0.1-0.1-0.1-0.1c0-0.2,0.1-0.6,0.1-0.8c0.1-0.1,0-0.2,0.1-0.4c0,0,0.1-0.1,0-0.2c0,0.1,0,0.1,0,0.2
		c-0.1,0.1-0.2,0.2-0.2,0.4c-0.2,0.8-0.6,1.5-0.9,2.3c-0.2,0.4-0.5,0.7-0.6,1.1l0,0v0.1l0,0c0,0,0,0,0,0.1c0,0.1-0.1,0.1-0.1,0.2
		c0.2-1.2,0.5-2.2,0.7-3.4c-0.1,0.1-0.1,0.4-0.2,0.6c0-0.5,0.1-0.8,0.1-1.2c-0.4,0.9-0.6,2-1.2,2.8c0.1-0.7,0.2-1.5,0.4-2.2
		c0-0.1,0.1-0.2,0-0.2l0,0c0-0.2,0.2-0.5,0.1-0.8c-0.1,0.4-0.2,0.6-0.4,0.8c0-0.4,0.1-0.7,0.2-0.9v-0.1l0,0
		c-0.4,0.5-0.6,0.9-0.8,1.5c-0.1,0.1-0.1,0.2-0.2,0.4c0-0.2,0.2-0.5,0.2-0.6c0.2-0.5,0.5-0.8,0.7-1.2c0.4-0.5,0.5-0.9,0.5-1.5
		c-0.2,0.1-0.1,0.4-0.2,0.5c0-0.5,0.1-0.8,0-1.3c0,0,0,0.1-0.1,0.1c0-0.2,0-0.4,0-0.6c-0.1,0.4-0.1,0.7-0.2,0.9
		c-0.1-0.2,0-0.4,0-0.6c-0.5,1.1-0.6,2.1-1.3,3c-0.2,0.4-0.4,0.6-0.6,0.9c0,0,0,0-0.1,0c0-0.1,0.1-0.4,0.1-0.5l0,0c0,0,0,0,0-0.1
		v-0.1c0-0.1,0-0.2,0-0.4c0.1-0.4,0.1-0.7,0.1-1.1c0-0.1,0-0.2,0.1-0.2c0,0,0.1-0.1,0-0.1c0,0,0,0.1-0.1,0.1c0,0.1-0.1,0.1-0.1,0.2
		c-0.1,0.4-0.2,0.6-0.2,0.9c-0.1-0.2,0-0.5,0-0.6c0-0.1,0-0.1,0-0.2c-0.1,0-0.1,0.1-0.1,0.1c-0.1,0.2-0.1,0.5-0.4,0.7
		c0-0.2,0.1-0.5,0.1-0.6c-0.2,0.1-0.2,0.2-0.4,0.2c0-0.1,0.1-0.2,0.1-0.2l0,0l0,0c0.1-0.1,0.2-0.4,0.2-0.6c0.1-0.5,0.4-0.9,0.6-1.3
		c0.1,0,0,0.1,0.1,0.2c-0.1,0-0.1,0-0.1,0.1l0,0c0,0,0,0,0-0.1c0.1-0.1,0.2-0.2,0.4-0.5l0,0c0.4-0.5,0.7-0.9,1.1-1.4
		c0.1-0.1,0.1-0.1,0.2-0.2c0,0,0.1-0.1,0.1,0l0,0c0,0,0,0.1-0.1,0.1c0,0.1-0.1,0.1,0,0.2c-0.1,0,0,0.1-0.1,0.1l0,0l0,0l0,0
		c0,0,0-0.1,0.1-0.1c0,0,0-0.1,0.1-0.1l0.1-0.1c0,0,0-0.1,0.1-0.1c0.1-0.2,0.2-0.4,0.4-0.6c0,0,0-0.1,0.1-0.1l0,0
		c0.1-0.2,0.4-0.6,0.5-0.8l0,0c0,0.1,0,0.4,0,0.5c0.2-0.2,0.4-0.6,0.5-0.9c0.2-0.5,0.5-0.8,0.6-1.3c0,0.1,0,0.2,0,0.4
		c0,0.8-0.2,1.6-0.6,2.3c-0.2,0.6-0.5,1.1-0.6,1.8c-0.1,0.1,0,0.1-0.1,0.2l0,0l0,0l0,0c0-0.1,0.1-0.1,0.1-0.2
		c0.6-1.2,0.9-2.5,1.3-3.7l0,0c0,0,0,0,0-0.1c0-0.2,0.1-0.6,0.1-0.8s0.1,0,0.1,0c0,0.1,0,0.2,0.1,0.4c0-0.2,0.1-0.5,0-0.6v-0.1
		c0,0,0.1,0,0.1,0.1c0,0.2,0,0.4,0.1,0.6c0,0.2,0,0.6,0,0.8c0.1-0.6,0.1-1.3,0.1-2c0.1,0.2,0.2,0.5,0.4,0.6l0,0
		c0-0.2-0.1-0.5-0.1-0.7c0.5,1.1,0.2,2.1,0.1,3.2c0.5-1.3,0.2-2.7-0.1-4.1c0.5,0.6,0.8,1.2,0.8,1.6c-0.1-0.9-0.4-1.9-0.8-2.7
		c0.1-0.1,0.2,0,0.5,0.1c0-0.2-0.2-0.4-0.4-0.6c0.1-0.1,0.2,0.1,0.2,0c0,0,0,0-0.1,0l0,0c0,0,0,0,0-0.1c-0.1-0.1-0.2-0.2-0.2-0.2
		c0.1-0.2-0.1-0.4-0.2-0.5c-0.5-0.5-0.9-0.7-1.5-0.9c-0.4-0.1-0.7-0.2-1.1-0.1C14.2,6.4,14,6.7,13.9,7C14,7,14,6.9,14.1,6.9
		c0,0.2-0.1,0.5,0.2,0.6l0,0c0.1,0.1,0.4,0,0.5,0.1c0.2,0,0.4-0.1,0.6-0.1C15,8,14.7,7.7,14.2,7.6C14.4,8,14.7,8.1,14.9,8
		c0.4-0.1,0.6-0.4,0.7-0.7c0.1-0.1,0-0.2-0.1-0.5c0,0.4,0.1,0.6-0.1,0.7c0.1-0.4,0.1-0.6-0.1-0.9c0.5,0,0.7,0.4,1.1,0.6
		c-0.1,0.2,0,0.5-0.2,0.7C15.8,8,16,8.3,15.6,8.3c0.1,0.1,0.1,0.1,0.2,0.1c0,0,0.1,0.1,0.1,0.2c0,0.1-0.1,0.1-0.2,0.1s-0.2,0-0.5,0
		c0.1,0.1,0.2,0.2,0.4,0.4c-0.2,0.1-0.5,0.1-0.8,0.1l0,0l0,0c0.1,0.1,0.2,0.1,0.5,0.4c-0.4-0.1-0.5,0.2-0.7,0.2h-0.1
		c0,0.2-0.1,0.1-0.1,0c-0.1-0.2-0.4-0.5-0.6-0.5c-0.2-0.1-0.4-0.2-0.6-0.4c0,0-0.1-0.1-0.1,0l0,0l0,0l0,0c0,0,0,0,0.1,0.1
		c0.1,0.2,0.1,0.6,0.1,0.9c0.1-0.1,0.1-0.2,0.2,0c0.2,0.4,0.4,0.8,0.2,1.3c0,0.2,0,0.5,0.1,0.7c0.2-0.8,0.4-1.6-0.4-2.3
		c0.4,0.1,0.5,0.4,0.6,0.6c0.2,0.4,0.2,0.8,0.4,1.2c0,0.4,0,0.7,0,0.9c-0.2,0.6-0.5,0.8-1.1,0.7c-0.2,0-0.5-0.1-0.7-0.2
		c-0.6-0.5-0.8-0.9-0.7-1.6c0-0.2,0.2-0.5,0.4-0.7c0-0.1,0.1-0.1,0.1-0.2c0,0,0-0.1,0.1-0.1l0,0c0.4-0.5,0.4-0.9-0.1-1.4
		c0.4,0,0.7,0.1,0.9,0.1C13.6,9,13.9,9,14.2,9.1c0.1,0,0.4,0.1,0.4-0.1c0-0.2-0.1-0.2-0.4-0.2l0,0c0-0.1-0.1-0.1-0.1-0.1l0,0
		c0-0.1-0.1-0.1-0.2-0.1l0,0c-0.1-0.1-0.1-0.1-0.4-0.1l0,0c0-0.1-0.1-0.1-0.1-0.1l0,0C13,8,12.6,8,12.2,7.7c0.9,0.2,1.1-0.6,1.3-1.2
		c0.1,0.1,0,0.2,0.1,0.4c0.2-0.6,0.7-0.9,1.2-1.1l0,0c-0.1,0.1-0.4,0.2-0.5,0.5c0,0-0.1,0-0.1,0.1l0,0l0,0l0,0h0.1
		c0.7-0.4,1.4-0.4,2,0.2c0.5,0.4,0.8,0.7,1.3,1.2c0.6,0.6,0.9,1.3,1.3,2c0.2,0.5,0.4,0.9,0.6,1.3c0.1,0.2,0.2,0.5,0.2,0.7l0,0l0,0
		c-0.1,0.1,0,0.1,0,0.2c0.2,0.8,0.4,1.5,0.5,2.3c0,0.1,0,0.2,0,0.4c0.1,1.5,0.6,2.9,1.9,4c0.1-1.1,0.1-1.2-0.7-1.6
		C21.2,17,21.1,17,21,16.8l0,0c0.1-0.1,0.2,0,0.4,0c0.1,0,0.2,0.1,0.4,0.1s0.1,0.1,0.2,0.1c0.2,0.1,0.4,0,0.4-0.2
		c0-0.4,0-0.7,0.1-1.1c0-0.1,0-0.4-0.1-0.5c0-0.2-0.1-0.4-0.2-0.5c0.2,0,0.2,0.1,0.5,0.1c0-0.4-0.1-0.5-0.4-0.7
		c0.2,0,0.4,0.1,0.6,0.1c0-0.2,0-0.4-0.1-0.6c0-0.2-0.1-0.5-0.1-0.7c0.2,0.1,0.2,0.4,0.4,0.5l0,0l0,0l0,0c-0.1-0.5-0.2-0.9-0.1-1.4
		c0,0,0,0,0-0.1l0,0l0,0c0,0.1,0,0.2,0.1,0.5c0-0.2,0-0.4,0-0.6s0.1-0.6,0.1-0.8c0.1,0.4,0,0.8,0.1,1.2c0.1-0.7,0.1-1.5,0.5-2.2
		c0.1,0.4,0,0.6,0.1,0.9c0.2-0.6,0.4-1.2,0.6-1.8c0-0.1,0.1-0.1,0.1-0.2c0.5-0.8,0.5-0.8-0.5-1.2c-0.4-0.2-0.7-0.4-1.2-0.4
		c-0.1-0.1-0.4-0.1-0.5-0.1c-0.2-0.1-0.4-0.1-0.6-0.2c-0.1,0-0.2,0-0.2,0C21,7,20.5,7,20.1,6.9c0.4-0.4,0.7-0.5,1.1-0.4
		c0.1,0,0.4,0,0.5,0.1c0.2-0.2,0.4-0.2,0.6-0.2c0.7,0.2,1.4,0.5,2.1,0.7c0.4,0.1,0.6,0.2,0.9,0.5c-0.4,0.5-0.2,1.1-0.4,1.5
		c0,0-0.1,0.1,0,0.1c0,0,0-0.1,0.1-0.1l0,0c0.4-0.5,0.5-0.9,0.4-1.5c0.2,0.1,0.4,0.1,0.6,0.2c0,0.1,0,0.2,0,0.2l0,0l0,0l0,0
		C25.9,8,26,7.8,26,7.8c0.1-0.1,0.1-0.2,0.2-0.4c0.2-0.2,0.6-0.6,0.9-0.8C27.1,6.9,27,7.1,27,7.3c0,0,0,0.1-0.1,0.1l-0.1,0.1
		c0,0,0,0,0,0.1c0,0,0,0,0-0.1c0.1,0.1,0.1,0,0.2-0.1l0.1-0.1c0.4-0.4,0.8-0.6,1.2-0.9h0.1c-0.1,0.2-0.4,0.5-0.5,0.8
		c1.1-0.7,1.5-0.8,2-0.7c-0.5,0.1-0.8,0.4-1.2,0.7c0.6,0,1.3-0.2,1.9-0.2c0.6,0.1,1.1,0.2,1.5,0.5c0,0,0.1,0.1,0.1,0
		c0,0.1,0,0.1,0.1,0.1l0,0c0,0,0,0.1,0.1,0.1c0,0,0,0.1,0.1,0.1c-0.4-0.1-0.6-0.2-0.9-0.2c-0.1-0.1-0.4-0.1-0.6-0.1
		c0.1,0.1,0.2,0.2,0.4,0.2c0.5,0.2,0.8,0.6,1.3,0.8c0.6,0.5,1.1,1.1,1.4,1.8c0.1,0.4,0.4,0.7,0.2,1.1c0,0.1,0,0.4-0.2,0.6
		c0.1-0.5,0-0.9-0.2-1.3c-0.1-0.4-0.4-0.6-0.6-0.8c-0.1-0.1-0.1-0.4-0.4-0.2c0-0.1,0-0.1,0-0.1s0-0.1-0.1-0.1l0,0l0,0
		c0.1,0,0.1,0,0.1,0.1v0.1c0.1,0.1,0.2,0.2,0.2,0.4c0.1,0.2,0.2,0.5,0.4,0.7c0,0.4,0.1,0.7,0,1.1c-0.1-0.2-0.1-0.6-0.2-0.7
		c-0.2-0.7-0.8-1.3-1.5-1.6c-0.2-0.2-0.8-0.5-1.3-0.6l0,0c-0.1-0.1-0.2-0.1-0.4-0.1c-0.2-0.2-0.6-0.1-0.8-0.2h-0.1
		c0,0.1,0,0,0.1,0.1c0,0.1,0.2,0.1,0.2,0.2c-0.5-0.2-0.9-0.5-1.5-0.4c0.2,0.1,0.5,0.2,0.8,0.4c-0.4,0-0.5,0.2-0.7,0.1
		c0,0-0.1-0.1-0.1,0c0,0,0,0,0.1,0.1c0,0.1,0,0.1,0,0.1c-0.2-0.1-0.5-0.1-0.7-0.2c-0.2,0-0.6,0-0.7,0.4c0.2,0,0.4,0,0.6,0
		c0.1,0,0.2,0,0.2,0.1c0,0.1-0.1,0.1-0.2,0.2c-0.1,0-0.2,0-0.2,0c-0.2,0-0.6,0.1-0.8,0.4l0,0l0,0l0,0c0.2,0,0.5-0.1,0.8,0
		c-0.2,0.4-0.5,0.7-0.8,1.1c-0.4,0.2-0.6,0.5-0.9,0.7c-0.1,0-0.1,0.1-0.2,0.2c0.1,0,0.1-0.1,0.2-0.1c0.2-0.1,0.5-0.2,0.8-0.4
		c0,0.5-0.5,0.6-0.7,0.8c-0.2,0.1-0.4,0.2-0.5,0.5c-0.1,0-0.1,0.1-0.1,0.1l0,0l0,0l0,0c0.1,0,0.1-0.1,0.2-0.1
		c0.2-0.1,0.4-0.2,0.6-0.4c0.1,0,0.2-0.2,0.2,0.1c-0.1,0.4,0,0.7-0.2,0.9c-0.1,0.1-0.2,0.2-0.2,0.4c-0.1,0-0.1-0.1-0.1-0.1
		c-0.2,0.1-0.2,0.4-0.4,0.5c0-0.1,0-0.2,0-0.4s0-0.2-0.1-0.2c0,0.1,0,0.1,0,0.2c-0.1,0.1-0.1,0.2-0.2,0.4c-0.1-0.1-0.1-0.4-0.2-0.6
		c-0.1,0.4-0.1,0.7-0.2,0.9c0,0,0,0.1-0.1,0.1v-0.1v-0.1c0.1-1.2,0.4-2.3,0.9-3.4c0.9-1.6,2.7-3.3,5.1-2.7c0.4,0.1,0.6,0.1,0.9,0.2
		c0-0.1-0.1-0.1-0.1-0.1c-0.6-0.6-0.7-0.7-0.9-0.7c-1.5-0.4-2.9-0.1-4,0.8c-1.6,1.5-2.5,3.4-2.9,5.6c0,0,0,0,0,0.1s-0.1,0.1,0,0.2
		C23,14.6,23,14.7,23,15c-0.1,0.4-0.1,0.7-0.1,1.2l0,0c-0.1,0.7-0.1,1.4-0.1,2.1c0,0.1,0,0.2,0.1,0.2s0.2,0,0.2-0.1
		c0.1-0.8,0.5-1.6,0.8-2.5c0.4-0.7,0.8-1.3,1.3-1.9c0.1-0.1,0.2-0.2,0.4-0.4l0.1-0.1c0.1-0.1,0.2-0.4,0.4-0.5
		c0.1-0.1,0.1-0.1,0.2-0.2c0,0,0,0,0.1-0.1v-0.1c0.1,0,0.1,0,0.1-0.1h0.1l0,0c0,0-0.1,0-0.1,0.1c0,0,0,0-0.1,0.1v0.1
		c0,0,0,0-0.1,0.1c-0.1,0-0.1,0.1-0.2,0.2c0-0.1,0.1-0.2,0.1-0.2c0.4-0.4,0.7-0.7,1.1-0.9c0.2-0.1,0.5-0.4,0.8-0.5
		c-0.1,0.2-0.4,0.5-0.5,0.6c-0.1,0-0.1,0.1-0.1,0.2l-0.1,0.1c-0.1,0.1-0.2,0.2-0.1,0.4l0,0l0,0c0-0.1,0.1-0.2,0.2-0.4l0.1-0.1
		c0-0.1,0.1-0.1,0.1-0.2c0.4-0.4,0.8-0.6,1.3-0.9c-0.4-0.2-0.6-0.6-0.9-0.7c-0.2-0.1-0.4-0.2-0.6-0.5c0.5-0.4,0.5-0.4,0.9,0
		c0.4,0.4,0.7,0.6,1.2,0.9c0.1,0.1,0.2,0.2,0.2,0.4c0.1,0,0.2,0,0.2-0.1l0,0c0,0,0.1,0,0.1-0.1l0,0c0.5-0.1,0.8-0.4,1.3-0.4
		c-0.4,0.2-0.8,0.4-1.1,0.7c0.2,0,0.2,0,0.4,0s0.2,0,0.2,0c0.6,0,1.1-0.1,1.6-0.1c0.2,0,0.4,0.1,0.6,0.1c0,0.1-0.1,0.1-0.1,0.1
		c-0.2,0-0.5,0-0.8,0.1c0.6,0.1,1.1,0.2,1.5,0.4c0,0,0,0,0.1,0l0,0c-0.1,0.1-0.1,0.1-0.2,0.1c-0.5,0-0.9,0.1-1.4,0.1
		c0.4,0.1,0.8,0.2,1.2,0.2l0,0l0,0c0.1,0.1,0.2,0.1,0.4,0C34.1,12.5,34.4,12.6,34.8,12.6z M35.6,15.9C35.7,15.9,35.7,15.9,35.6,15.9
		c0.1,0.1,0.1,0.1,0.1,0.2h0.1c0,0.1,0,0.1,0,0.2l0,0l0,0l0,0c0-0.1,0-0.1,0-0.2h-0.1C35.8,16,35.8,16,35.6,15.9
		C35.7,15.9,35.7,15.8,35.6,15.9c0-0.1,0-0.1,0-0.1l0,0l0,0l0,0C35.6,15.8,35.6,15.8,35.6,15.9z M15.1,20.9L15.1,20.9L15.1,20.9
		L15.1,20.9c0.1-0.1,0-0.2,0-0.2c0,0.1,0.2-0.2,0.1,0.1c-0.1,0.2-0.1,0.6-0.2,0.8c0,0,0,0,0.1,0c0.6-1.6,0.7-3.3,1.1-4.9
		c0,0.1-0.1,0.2-0.1,0.4c-0.2,1.2-0.6,2.5-0.9,3.6C15.3,20.7,15.3,20.8,15.1,20.9z M13.4,16.1c0,0.1-0.1,0.1-0.1,0.2
		c-0.2,0.2-0.4,0.5-0.5,0.8c-0.4,0.7-0.4,0.8-0.2,1.4c0,0,0-0.1,0.1-0.1c0.1-0.6,0.4-1.3,0.6-1.9c0-0.1,0.1-0.1,0-0.2
		C13.5,16.4,13.4,16.3,13.4,16.1L13.4,16.1L13.4,16.1z M18.2,22.5c0.1-0.1,0.1-0.2,0.2-0.4c0-0.1,0-0.2,0.1-0.2
		c0.4-1.1,0.4-2.1,0.2-3.3c0-0.7-0.1-1.4-0.2-2.2c0,0.8,0,1.8,0,2.6c0,0.9-0.2,1.8-0.5,2.6l0,0l0,0c0,0,0,0,0-0.1
		c0.1,0,0.1-0.2,0.2-0.2c0.1,0.2-0.1,0.5,0,0.8C18.3,22.1,18.2,22.2,18.2,22.5L18.2,22.5c0,0.1,0,0.1,0,0.1
		C18.2,22.5,18.2,22.5,18.2,22.5z M30.2,11.3C30.2,11.3,30.2,11.2,30.2,11.3C30.2,11.2,30.2,11.2,30.2,11.3c-0.1,0-0.2,0-0.2,0.1
		C30,11.5,30.1,11.3,30.2,11.3z M31.4,8.1L31.4,8.1L31.4,8.1L31.4,8.1c-0.1-0.1-0.4-0.2-0.5-0.2C31.1,8,31.2,8.1,31.4,8.1z M28,11.8
		c0.4-0.2,0.6-0.4,0.8-0.6c0.1,0,0.2-0.1,0.1-0.2c-0.1-0.1-0.2-0.2-0.4,0C28.5,11.3,28.2,11.6,28,11.8c-0.1,0-0.2,0.1-0.4,0.2
		C27.9,12,27.9,11.9,28,11.8z M14.6,20c0.6-1.1,0.7-2.2,1.1-3.4c-0.4,0.9-0.7,1.9-1.1,2.7c-0.1,0.1,0,0.2,0.1,0.1l0,0
		C14.7,19.6,14.4,19.9,14.6,20L14.6,20L14.6,20L14.6,20z M12.3,18.5L12.3,18.5L12.3,18.5L12.3,18.5L12.3,18.5z M32.6,13.8
		C32.6,13.8,32.7,13.8,32.6,13.8c0-0.1,0-0.1,0-0.1S32.5,13.7,32.6,13.8L32.6,13.8z M27.8,7.3L27.8,7.3L27.8,7.3L27.8,7.3z
		 M17.8,8.8L17.8,8.8L17.8,8.8L17.8,8.8L17.8,8.8z"/>
	<path class="st0" d="M8.9,35.3C8.9,35.2,8.9,35.2,8.9,35.3c-0.7-0.5-1.3-1.1-1.9-1.5c-0.5-0.5-0.9-1.1-1.4-1.5
		c-0.1-0.2-0.2-0.4-0.4-0.6c1.2,0,2.3,0,3.5,0c0-0.1-0.1-0.1-0.1-0.1c-1.2-0.1-2.3-0.2-3.5-0.4c-0.2,0-0.4-0.1-0.5-0.2
		c-0.1-0.2-0.4-0.5-0.5-0.7c-0.2-0.4-0.5-0.7-0.6-1.1c-0.1-0.4-0.4-0.7-0.5-1.1c-0.4-0.8-0.6-1.5-0.8-2.3c-0.1-0.5-0.1-0.9-0.2-1.4
		c0-0.4-0.1-0.7-0.1-1.1c0-0.1,0-0.2,0-0.5c0-0.4,0-0.7,0-1.1c0.1-0.1,0.1-0.1,0-0.2l0,0l0,0c0.1,0,0-0.1,0-0.1l0,0l0,0
		c0,0,0,0,0-0.1v-0.1l0,0h0.1c0.1,0,0.2,0,0.4,0h0.1c0,0,0,0,0.1,0c0,0.2,0,0.6,0,0.8c0,0.2-0.1,0.4,0.1,0.6c0.1,0,0.4,0.1,0.5,0.1
		c0.6,0.2,1.2,0.5,1.9,0.7s1.4,0.6,2.2,0.8c0.1,0,0.1,0.1,0.1-0.1c0.2,0,0.5,0.4,0.8,0.4c-0.2-0.1-0.5-0.4-0.7-0.5
		c-0.1-0.1,0,0.1,0,0.1C7.2,24,7,23.6,6.6,23.4c0.5,0.1,1.1,0.2,1.5,0.5c0,0,0,0,0-0.1c-1.1-0.5-2-0.9-2.8-1.5l0,0
		c0.2,0,0.5,0.1,0.7,0.1c0.1,0.1,0.2,0.1,0.4,0.1c0.6,0.2,1.3,0.4,2,0.5c-0.5-0.2-0.9-0.5-1.4-0.7c0.7,0.1,1.3,0.4,2,0.5
		c0.1,0,0.2,0.1,0.2-0.1c0.1-0.1-0.1-0.1-0.1-0.2c-0.6-0.4-1.3-0.7-1.9-0.9c-0.1-0.1-0.5-0.1-0.6-0.4c0.4,0,0.7,0.1,1.2,0.1
		c0.2,0.1,0.6,0.1,0.8,0.1c0.6,0.1,0.5,0.2,0.8-0.7c-0.2,0.1-0.4,0.2-0.6,0.2c-0.1-0.1-0.1-0.2,0-0.4s0.1-0.1,0.2-0.2
		c0.2-0.1,0.2-0.4,0.5-0.5c0.1-0.1,0-0.1,0-0.2c-0.1,0-0.2-0.1-0.4-0.1c-0.2-0.1-0.6-0.4-0.8-0.5c0.4,0,0.7,0.2,1.2,0.2l0,0
		c0.2,0.1,0.4,0.1,0.5-0.1c0-0.1,0.1-0.1,0.1-0.2c0.2-0.4,0.2-0.6,0.4-0.9c0.1-0.2-0.2-0.2-0.2-0.4c0.1,0,0.1,0,0.2,0c0,0,0,0,0.1,0
		c0-0.1,0-0.1-0.1-0.1c-0.5-0.4-0.9-0.6-1.4-0.8c0,0,0-0.1,0.1-0.1c0.5,0.2,0.9,0.4,1.4,0.6c0.2,0.1,0.2,0,0.2-0.1
		c0.2-0.2,0.1-0.5-0.1-0.6c-0.4-0.2-0.6-0.5-0.8-0.6c0-0.1-0.2-0.1-0.2-0.2c0.2,0.1,0.4,0.1,0.6,0.2c0.4,0.1,0.6,0.2,0.9,0.5
		c0.1,0.1,0.2,0,0.2-0.1c0.1-0.4,0.4-0.7,0.5-1.1c0.4-0.5,0.6-1.1,0.9-1.5c0.1-0.1,0.1-0.4-0.1-0.4c-0.6-0.2-1.1-0.7-1.2-1.4
		c-0.1-0.6,0-1.1,0.2-1.6c0.1-0.4,0.2-0.6,0.4-0.9c0.1-0.4,0-0.5-0.4-0.6s-0.6,0-0.8,0.1c-1.2,0.6-2.3,1.5-3.3,2.5
		c-0.2,0-0.5,0-0.7,0c-0.2-0.2,0-0.4,0.1-0.6c0.6-0.5,1.1-0.9,1.6-1.4C9.2,9,9.5,8.8,10,8.4C9.8,8.2,9.8,8,10.1,7.5
		C10.6,7.1,11.2,7,11.8,7c-0.1,0.1-0.2,0.1-0.4,0.2c0,0-0.1,0,0,0c0,0,0,0,0.1,0c0,0,0.2-0.1,0.1,0c0,0.1,0,0.1,0.1,0.1
		c0.6,0.1,1.2,0.2,1.8,0.5l0,0C13.5,8,13.6,8,13.6,8l0,0c0.1,0.1,0.1,0.1,0.4,0.1l0,0c0,0.1,0.1,0.1,0.2,0.1l0,0c0,0,0.1,0,0.1,0.1
		l0,0c0,0.1,0.2,0.1,0.1,0.2c-0.1,0.1-0.1,0-0.2,0c-0.1-0.1-0.4-0.1-0.5-0.2l0,0l0,0c-0.5-0.4-1.1-0.5-1.6-0.5c-0.7,0-1.4,0-2,0.6
		c0.5,0,0.8,0,1.3,0c0.2,0,0.5,0.1,0.7,0.4c0,0.5-0.2,0.9-0.5,1.3c-0.2,0.5-0.4,0.9-0.2,1.5v0.1v0.1l0,0c0.2,0.5,0.5,0.8,1.1,0.9
		h0.1c0.2,0,0.2,0.1,0.2,0.4c-0.5,0.7-0.9,1.3-1.2,2c-0.4,0.6-0.6,1.3-0.8,1.9c-0.1,0.2-0.2,0.6-0.4,0.8s-0.1,0.5-0.2,0.6
		c-0.2,0.6-0.5,1.2-0.9,1.5c-0.2,0.2-0.5,0.2-0.6,0.5c0.5,0,0.7-0.4,1.2-0.5c-0.6,0.5-0.6,1.2-1.1,1.6c0.4-0.1,0.5-0.4,0.6-0.6
		c0.1-0.4,0.5-0.5,0.8-0.6c-0.1,0.6-0.4,1.2-0.6,1.6c-0.4,0.5-0.6,0.8-0.9,1.3c-0.1,0-0.1,0.1-0.1,0.1c0.1,0.1,0.2-0.2,0.5,0
		c-0.1,0.5-0.4,0.8-0.2,1.3c0.2-0.5,0.5-0.8,0.8-1.2c0.2,0.5,0.2,0.9,0.1,1.4c0,0.1-0.1,0.1,0,0.2c-0.2,0.8-0.4,1.6-0.5,2.5
		c0,0.2,0,0.4-0.1,0.6c0.1,0,0.1-0.1,0.1-0.2c0.1-0.4,0.2-0.7,0.4-1.2c0.2,0.2,0.4,0.6,0.5,0.8c0.1,0.5,0.4,0.9,0.5,1.5
		c0.1-0.2,0.1-0.6,0.4-0.8c0.2,0.2,0.2,0.6,0.4,0.9c0.1,0.4,0.1,0.7,0.2,1.1c0,0.6,0,1.3,0.6,1.8C12,31.5,11.9,31,12,30.4l0,0
		c0,0,0.1,0,0.1,0.1c0.5,0.6,0.7,1.3,1.1,2c0-0.4,0-0.7-0.1-0.9v-0.1l0,0c0.2,0.2,0.4,0.6,0.6,0.9c0.1,0.4,0.2,0.6,0.5,0.9
		c0.4,0.7,0.8,1.4,1.4,1.9l0,0c0,0,0,0,0.1,0.1c0.1,0.1,0.1,0.1,0.2,0.2c0.4,0.1,0.5,0.5,0.5,0.7c0,0.4,0,0.7,0.2,0.9
		c0,0.1,0.1,0.2,0.2,0.5c-0.2,0-0.4,0-0.6-0.1c-0.1,0-0.2-0.1-0.4-0.1c-0.7-0.2-1.3-0.5-2.1-0.5c-0.8-0.1-1.5-0.6-2.3-0.8
		c0,0,0,0-0.1,0c-0.2-0.2-0.7-0.2-0.9-0.6c1.4,0,2.9-0.1,4.3-0.1c-0.1,0.1-0.2,0-0.2,0c-1.4-0.1-2.8-0.2-4.2-0.4l0,0
		c-0.1-0.1-0.2,0-0.4,0c-0.1,0-0.4,0-0.5,0C9.1,35.3,9.1,35.3,8.9,35.3z M7.2,26.2L7.2,26.2c-0.5-0.2-0.7-0.4-1.1-0.5v-0.1l0,0
		c0.9,0.1,1.8,0.2,2.6,0.5c0,0,0,0,0.1,0c-0.6-0.2-1.2-0.6-1.8-0.7H7l0,0c-0.1-0.2-0.2-0.2-0.4-0.2l0,0c-0.4-0.2-0.7-0.4-1.1-0.5
		c-0.5-0.2-0.8-0.4-1.3-0.6C4,24,3.8,23.9,3.6,23.7h0.1c0.2,0.1,0.5,0.1,0.8,0.2c0.2,0,0.6,0.2,1.1,0.2c0,0,0,0.1,0,0l0,0
		C5.2,24,5,23.9,4.7,23.9c0-0.1-0.1-0.1-0.2-0.1H4.4c-0.6-0.2-1.2-0.6-1.8-0.8c0,0.9,0.1,1.8,0.4,2.6c0,0.1,0,0.2,0.2,0.2
		c0.6,0.1,1.2,0.4,1.8,0.4c0.1,0,0.2,0,0.4,0.1h0.1c0.5,0.1,0.9,0.2,1.4,0.2c0,0,0.1,0.1,0.2,0h0.1c0.5,0.1,0.9,0.2,1.5,0.2
		c-0.5,0-0.8-0.1-1.2-0.4C7.4,26.3,7.4,26.2,7.2,26.2C7.3,26.2,7.3,26.2,7.2,26.2L7.2,26.2z M6.5,30.5h0.1H6.5L6.5,30.5
		c-0.6-0.2-1.1-0.5-1.6-0.7c0,0.2,0.2,0.4,0.4,0.4C5.7,30.3,6,30.4,6.5,30.5z M4.2,26.7c0.2,0.1,0.4,0.1,0.6,0.1
		c0.9,0.1,1.8,0.4,2.7,0.5c-1.3-0.6-2.6-1.1-4-1.5c-0.1,0-0.2-0.1-0.4,0c-0.1,0.1,0,0.2,0,0.4v0.1c0,0.1,0,0.4,0.2,0.4
		C3.7,26.7,3.9,26.7,4.2,26.7L4.2,26.7L4.2,26.7z M3.3,26.7c0.1,0.2,0.1,0.4,0.1,0.6c0.1,0.2,0.2,0.4,0.6,0.4
		c0.7,0.1,1.4,0.2,2.2,0.5c0.7,0.1,1.4,0.2,2.1,0.5l0,0C6.7,27.8,5.1,27.3,3.3,26.7z M3.8,28C3.9,28.2,4,28.4,4,28.7
		c0,0.1,0.1,0.1,0.2,0.1c1.3,0.2,2.6,0.5,3.9,0.7C6.8,29,5.3,28.5,3.8,28z M4.4,29c0.1,0.2,0.1,0.4,0.2,0.5c0.7,0.1,1.3,0.2,2,0.4
		l0,0C5.9,29.5,5.1,29.2,4.4,29z M8.5,23C8.5,23,8.4,23,8.5,23C8.4,23,8.5,23.2,8.5,23C8.5,23.2,8.5,23.2,8.5,23L8.5,23z M8.6,29.6
		L8.6,29.6C8.5,29.6,8.5,29.6,8.6,29.6C8.5,29.6,8.5,29.6,8.6,29.6L8.6,29.6z"/>
	<path class="st0" d="M21.2,4.3c-0.1,0.4-0.2,0.8-0.4,1.2c-0.5,0.8-1.3,1.2-2.2,1.2h-0.1c-0.5-0.2-0.9-0.5-1.2-0.9
		c-0.1-0.1-0.2-0.1-0.4-0.1c-0.2,0-0.4,0.2-0.6,0.1c-0.4-0.1-0.7-0.1-1.2-0.2c0.2-0.2,0.5-0.4,0.7-0.6c-0.6,0-1.1,0.2-1.5,0.6
		c-0.1-0.1,0.1-0.2,0-0.2C14.2,5.4,14,5.7,13.9,6c0,0-0.1,0.1-0.2,0.1c-0.1,0,0-0.1,0-0.2c0-0.4,0.2-0.7,0.6-0.9
		c-0.2,0-0.5,0.1-0.7,0.2c0,0.1,0.2,0,0.2,0.1c0,0.2-0.4,0.2-0.5,0.2c0,0.1,0.2,0.1,0.2,0.4c-0.2,0.1-0.5,0-0.7-0.1l-0.1-0.1
		c-0.1,0.1,0,0.1,0,0.1C12.8,5.8,12.9,6,13,6.2c-0.4,0-0.5-0.1-0.7-0.4c0,0.2,0.1,0.4,0.2,0.6c-0.2,0-0.5-0.1-0.6-0.2
		c0,0.1,0,0.1,0.1,0.2c0.2,0.2,0.6,0.2,0.8,0.5c-0.5,0-0.8,0-1.1,0c-0.5-0.1-0.7-0.5-0.7-0.8c-0.1-0.5-0.1-0.9,0.2-1.2
		C11.9,4.4,11.9,4,12,3.4c0,0,0,0,0-0.1c0.2,0.2,0.5,0.6,0.8,0.7c0-0.2,0-0.4,0-0.6C13,2.7,13.5,2,14,1.3c0,0.5,0,0.9,0.1,1.3
		c0,0.2,0,0.5,0.2,0.7c0.1-0.5,0.5-0.8,0.7-1.2c0.1-0.1,0.2-0.2,0.4-0.4c0.5-0.5,0.8-0.8,1.1-1.4c0.2,0.2,0.1,0.5,0.2,0.7
		c0,0.1,0,0.1,0,0.2c-0.1,0.1,0,0.2,0,0.4c-0.1,0.6-0.2,1.1-0.1,1.6c0,0.1,0,0.2,0.1,0.4C16.9,3.9,17,3.7,17,3.5
		c0-0.1,0.1-0.4,0.1-0.5c0.2-0.5,0.6-0.7,1.1-0.9c0.7-0.4,1.5-0.5,2.2-0.8c0.1,0,0.2-0.2,0.4-0.2c0.1,0.2,0,0.5,0,0.7c0,0,0,0,0,0.1
		c-0.4,0.9-1.1,1.5-1.6,2.2C19.6,4,20.1,4,20.5,4c0.5,0,0.9,0,1.4-0.1c0,0.1,0,0.2,0,0.5C21.2,4.1,21.2,4.2,21.2,4.3z"/>
	<path class="st0" d="M36,30.3c-0.1,0.8-0.4,1.5-0.6,2.3c-0.6,1.4-1.3,2.7-2.2,4c-0.5,0.6-0.9,1.2-1.5,1.9c-0.5,0.5-0.9,0.9-1.5,1.2
		c0-0.2,0.2-0.5,0.5-0.6v0.1l0.1-0.1c0.2-0.1,0.4-0.4,0.5-0.5c0.2-0.2,0.5-0.5,0.7-0.7c1.6-2,3-4.1,3.5-6.8c0.6-2.9,0.6-5.7-0.4-8.5
		c-1.2-3.5-3.9-5.5-7.4-6.2c-0.8-0.1-1.5-0.1-2.2,0.4c-0.1,0-0.2,0.1-0.4,0.2c-0.4,0.2-0.6,0.5-0.9,0.7C24,17.8,24,17.8,24,17.5
		c0.4-0.4,0.7-0.8,1.2-1.1c0.5-0.2,0.9-0.5,1.4-0.6c0.2,0,0.5,0,0.6,0s0.2,0,0.4,0c0.2,0,0.5,0.1,0.7,0.1c0.8,0.2,1.6,0.5,2.5,0.9
		c1.1,0.6,1.9,1.3,2.7,2.1c0.1,0.1,0.2,0.4,0.5,0.4l0,0l0,0l0,0c-0.2-0.8-0.7-1.6-1.2-2.5l-0.1-0.1c-0.4-0.1-0.7-0.5-1.1-0.6
		l-0.1-0.1c-0.1-0.1-0.2-0.1-0.4-0.2c0.1,0.1,0.2,0.2,0.2,0.4l0.1,0.1c0.5,0.6,0.9,1.1,1.3,1.8l0,0c-0.7-0.6-1.4-1.1-2.1-1.4
		c-0.1-0.1-0.2-0.2-0.4-0.4c-0.5-0.5-0.8-0.8-1.4-1.1l0,0l0,0c0,0,0,0,0-0.1h0.1c0.2,0.1,0.6,0.1,0.8,0.2c0,0,0,0,0-0.1
		c-0.2-0.1-0.5-0.2-0.8-0.4l0,0h-0.1c-0.4-0.1-0.8-0.2-1.2-0.4c-0.1,0-0.1,0-0.2-0.1c0.1,0,0.1,0,0.2,0c0.2,0,0.6-0.1,0.8-0.1
		c0.1,0,0.1,0,0.2,0h0.1c0.9,0,1.9,0.4,2.7,0.8c-0.1-0.2-0.4-0.5-0.5-0.7c0.6,0.1,0.8,0.4,1.1,0.7c0.4,0.7,0.8,1.3,1.2,2
		c0.4,0.7,0.6,1.5,0.9,2.2c0,0.1,0.1,0.4,0.2,0.5c0.1,0.1,0.4,0.1,0.4,0.4c-0.4,0-0.6-0.2-0.8-0.4c0,0,0,0-0.1,0c0,0,0,0-0.1-0.1
		l-0.1-0.1c0,0,0,0-0.1,0l0,0c0,0,0,0,0.1,0c0,0.1,0,0.1,0.1,0.2c0,0.1,0,0.1,0.1,0.1c0,0,0,0,0.1,0.1c0.2,0.2,0.5,0.4,0.7,0.6l0,0
		c0.4,0.2,0.6,0.6,0.9,0.8c0,0,0,0.1-0.1,0.1c-0.4-0.1-0.6-0.4-0.9-0.4c0.2,0.2,0.4,0.5,0.6,0.7c0.4,0.7,0.7,1.3,0.8,2.1
		c-0.2-0.2-0.4-0.5-0.6-0.7c0,0,0-0.1-0.1-0.1c0-0.1,0-0.2-0.2-0.1c0,0,0,0,0-0.1l0,0c0,0,0,0,0,0.1c0,0.1,0.1,0.1,0.1,0.2
		c0,0,0,0.1,0.1,0.1c0.4,0.8,0.6,1.6,0.8,2.6c-0.2-0.1-0.4-0.5-0.5-0.6c0.1,0.6,0.2,1.1,0.5,1.6c0,0.4,0.1,0.6,0.1,0.9
		c-0.1-0.2-0.2-0.5-0.2-0.7c0,0.5,0,0.8,0,1.3c0,0.4,0,0.7-0.1,1.1c-0.1,0.4-0.1,0.7-0.1,1.1C36,30.2,36,30.2,36,30.3z M32.9,16.4
		C32.9,16.3,32.9,16.3,32.9,16.4c-0.2-0.4-0.4-0.7-0.6-0.9c-0.1-0.1-0.1-0.2-0.2-0.2c-0.7-0.2-1.3-0.5-2-0.6
		C31.1,15,32.1,15.6,32.9,16.4L32.9,16.4L32.9,16.4L32.9,16.4z"/>
	<path class="st0" d="M30.6,15.1C30.5,15.1,30.5,15.1,30.6,15.1C30.5,15.1,30.4,15.1,30.6,15.1C30.5,15.1,30.5,15.1,30.6,15.1
		C30.6,15.1,30.5,15.2,30.6,15.1C30.5,15.2,30.6,15.2,30.6,15.1C30.6,15.2,30.6,15.1,30.6,15.1z"/>
	<path class="st0" d="M2.9,20c0,0.1,0,0.2,0,0.4c0,0.4-0.2,0.5-0.5,0.4c-0.1,0-0.1-0.1-0.1-0.1c0-0.1,0-0.4,0-0.5
		c0.1-0.5,0.1-0.9,0.2-1.4C2.7,17.9,3,17,3.3,16.1c0.2-0.5,0.4-0.8,0.6-1.3c0.2,0,0.4,0,0.6,0c-0.2,0.6-0.6,1.2-0.7,1.8"/>
	<path class="st0" d="M18.3,38.2c0,0-0.1-0.1,0-0.1c0.1-0.1,0.2-0.1,0.4-0.2c0.8-0.5,1.3-1.2,1.2-2c0-0.1,0.1-0.1,0.1,0
		c0.2,0.1,0.2,0.4,0.4,0.5c0,0.2,0.1,0.4,0.1,0.6c0,0.4,0,0.7,0.1,1.1c0.1,0.2,0,0.2-0.2,0.2c-0.4,0-0.8,0-1.2,0.1
		C18.9,38.2,18.5,38.2,18.3,38.2z"/>
	<path class="st0" d="M5.2,13.8C5.1,14,5,14.2,4.7,14.2c-0.1,0-0.2,0-0.2,0l0,0c0.2-0.6,0.6-0.9,0.9-1.5c0.1-0.1,0.1-0.2,0.2-0.4
		c0.2-0.4,0.6-0.6,1.2-0.5"/>
	<path class="st0" d="M24.9,37.1c-0.1,0-0.2,0-0.4,0.1c-0.1,0.1-0.2,0-0.2-0.1c0-0.6,0-0.6,0.5-0.6c0.4,0,0.6,0,0.9-0.1
		c0.2,0,0.4-0.1,0.6,0l0,0C25.8,36.6,25.3,36.8,24.9,37.1z"/>
	<path class="st0" d="M21.9,35.1c-0.1-0.4-0.4-0.8-0.7-1.1c0.1-0.1,0.1,0,0.2,0c0.4,0.2,0.6,0.5,0.7,0.8c0,0.1,0.1,0.4,0.1,0.5v0.1
		l0,0l0,0C22,35.4,22.2,35.2,21.9,35.1z"/>
	<path class="st0" d="M12.9,7c-0.2,0.1-0.5,0.2-0.8,0.2C12.3,6.9,12.7,7,12.9,7z"/>
	<path class="st0" d="M15,5.5C15,5.4,14.9,5.4,15,5.5C15,5.4,15,5.4,15,5.5C15,5.4,15,5.4,15,5.5L15,5.5z"/>
	<path class="st0" d="M29.1,31.1c0.1-0.1,0.1-0.5,0.4-0.6c0.2,0.8,0.1,1.8,0,2.6c-0.2,1.3-0.5,2.6-1.1,3.7V37c0,0,0,0,0.1,0
		c0.5-0.4,0.8-0.8,1.2-1.4c0.8-1.2,1.5-2.5,2.2-3.7c0.1-0.4,0.2-0.6,0.2-0.9c0-0.6,0.1-1.1,0.4-1.6c0.1,0.2,0.1,0.5,0.1,0.8
		c0.2-0.4,0.2-0.6,0.4-0.9c0.2,0.4,0.2,0.7,0.2,1.1c0,1.2-0.2,2.3-0.7,3.5c-0.2,0.6-0.5,1.2-0.8,1.8c0,0.1-0.1,0.1,0,0.2l0,0
		c-0.1,0-0.1,0.2-0.2,0.2l0,0c0.1-0.4,0.4-0.7,0.5-1.2l0,0l0,0c0.4-0.6,0.6-1.2,0.7-1.9c0.4-0.9,0.5-1.9,0.5-2.9h-0.1
		c-0.4,0.7-0.7,1.5-1.2,2.2c-0.4,0.7-0.7,1.3-1.1,2c-0.4,0.6-0.8,1.3-1.2,1.9c-0.1,0.1-0.2,0.2-0.4,0.4c-0.2,0.2-0.4,0.4-0.6,0.6
		c-0.1,0.1-0.2,0.1-0.4,0c-0.1-0.1,0-0.2,0-0.2c0-0.1,0.1-0.2,0.1-0.4c0.2-0.5,0.4-1.1,0.5-1.6c-0.5,0.4-0.8,0.7-1.4,0.8
		c-0.5,0.1-0.8,0.2-1.2,0.4c-0.1,0-0.2,0-0.4,0.1c-0.4,0.1-0.7,0.2-1.1,0.2s-0.4,0-0.2-0.4c0-0.1,0.1-0.2,0.2-0.4l0,0
		c0.1-0.1,0.2,0,0.4,0c0.1,0,0.4-0.1,0.2-0.2c-0.1-0.1-0.1-0.2,0-0.4c0.1-0.2,0.2-0.5,0.5-0.6c0.2,0.1,0,0.2,0.1,0.4
		c0.5-0.4,0.8-0.7,0.9-1.4v-0.1c0-0.1,0-0.1,0-0.2c0.5,0.4,0.8,0.8,1.2,1.2c0.1-0.1,0.1-0.2,0.1-0.4c0.1-0.1,0.1-0.2,0.1-0.5
		c0.1-0.1,0.1-0.2,0.1-0.5c0.1-0.4,0.2-0.7,0.2-1.1c0.1-0.2,0.1-0.5,0.2-0.6C28.9,31.3,29.1,31.2,29.1,31.1z"/>
	<path class="st0" d="M31.3,38.1c0.5-0.6,0.8-1.2,1.2-1.8c0.4-0.7,0.7-1.4,1.1-2c-0.5,1.5-1.2,2.8-2.1,4.1c-0.1,0.1-0.2,0.4-0.5,0.4
		C30.9,38.5,31.2,38.4,31.3,38.1z"/>
	<path class="st0" d="M30.8,38.9h-0.1c0-0.1,0-0.1,0.1-0.1C30.8,38.8,30.8,38.8,30.8,38.9z"/>
	<path class="st0" d="M19.6,29.2c0-0.1-0.1-0.1-0.1-0.2s-0.1-0.1-0.1-0.2c0.4,0.1,0.8,0.2,1.3,0c-0.5-0.2-0.8-0.5-1.2-0.7
		c-0.2-0.2-0.5-0.5-0.7-0.8c0.4,0.2,0.7,0.5,1.1,0.6c-0.1-0.4-0.4-0.6-0.4-0.8c0.1,0.1,0.2,0.2,0.4,0.4c0,0,0,0,0.1,0.1l0,0
		c0.2,0.2,0.5,0.4,0.8,0.7c-0.5,0-0.7-0.1-1.1-0.2c0-0.1-0.1-0.1-0.2,0l0,0l0,0c0,0,0,0,0,0.1c0,0,0.1,0,0.1,0.1
		c0.5,0.5,1.1,0.8,1.8,0.9c-0.5,0.4-0.9,0.4-1.5,0.4c0.4,0.4,0.7,0.5,1.2,0.6c0.4,0.1,0.8,0,1.3,0c-0.2,0.5-0.6,0.7-0.9,0.9
		c0,0-0.1,0-0.1,0.1c0,0.1,0.1,0.1,0.1,0.1l0,0c0.1,0.1,0.2,0.1,0.2,0.1l0,0c0.1,0.1,0.2,0.1,0.2,0c0.4,0.1,0.7,0.1,1.1,0v0.1
		c-0.1,0.4-0.1,0.4,0.2,0.5c0,0,0,0,0.1,0c0.1,0.1,0.5,0,0.5,0.2c0,0.2-0.1,0.4-0.4,0.5c-0.1,0.1-0.2,0.2-0.4,0.2
		c-0.1,0.1-0.2,0.1-0.4,0.2c0.5,0,0.9,0,1.4-0.2c0.1,0,0.1-0.1,0.2,0c-0.2,0.2-0.5,0.5-0.8,0.7c0.1,0.1,0.4,0.1,0.5,0.2
		c0.1,0.1,0,0-0.1,0.1h-0.1c-0.1,0-0.1,0-0.2,0l0,0l0,0c-0.5-0.1-0.8-0.4-1.3-0.5c-0.1-0.1-0.2-0.1-0.4-0.2
		c-0.2-0.1-0.5-0.4-0.6-0.5c-0.2-0.2-0.5-0.5-0.6-0.6c0,0-0.1-0.1-0.1,0c0.1-0.1,0-0.1,0-0.2l0,0l0,0l0,0c0,0.1,0,0.1,0,0.2
		c0.2,0.2,0.4,0.6,0.5,0.9c-0.7-0.1-1.3-0.4-1.9-0.6c-0.1-0.1-0.2-0.1-0.4-0.2c0,0.1,0.1,0.2,0.1,0.4c0,0,0,0.1-0.1,0.1
		c0-0.1,0-0.1-0.1-0.1c-0.1,0.1,0.1,0.2,0,0.5C18.5,33,18.4,33,18.3,33c-0.1-0.1-0.2-0.1-0.4-0.2h-0.1v0.1V33l0,0l0,0
		c-0.1-0.1-0.2-0.4-0.5-0.5c-0.1,0.2,0.1,0.5,0.1,0.6l0,0c-0.2-0.2-0.5-0.4-0.7-0.6v-0.1l0,0c0,0,0,0.1,0.1,0.1c0,0.1,0,0.1-0.1,0.1
		c-0.2-0.2-0.5-0.5-0.7-0.7c-0.1-0.1-0.1-0.2-0.2-0.4l0,0c0,0.1,0.1,0.2,0.2,0.2c0.1,0.1,0.2,0.2,0.4,0.4l0,0c0,0,0,0,0-0.1
		c0-0.1-0.1-0.2,0-0.4c0.2,0.4,0.5,0.7,0.8,0.9c0-0.4-0.1-0.7-0.1-1.1c0.4,0.4,0.7,0.7,1.2,0.9c0-0.4-0.1-0.6,0-0.9
		c0.2,0.1,0.4,0.2,0.5,0.4c0.5,0.4,1.1,0.5,1.6,0.6c-0.1-0.4-0.4-0.6-0.4-0.9l0,0c0.8,0.7,2.2,1.1,2.8,0.6c-1.1-0.2-1.9-0.8-2.7-1.5
		c0.7,0,1.1-0.1,1.3-0.4C20.8,29.9,20.2,29.7,19.6,29.2L19.6,29.2L19.6,29.2z"/>
	<path class="st0" d="M18.2,34c0.4,0,0.7,0,1.1,0.1l0,0c-0.2,0.1-0.5,0.1-0.7,0.2c0.2,0.2,0.5,0.2,0.7,0.4c0.4,0.1,0.8,0.4,1.2,0.7
		c-0.1,0.1-0.2,0-0.4,0c-0.9-0.5-2-0.8-2.9-1.1c-0.2,0-0.4-0.1-0.6-0.2c-0.6-0.5-1.2-0.8-1.6-1.4c0,0,0,0,0-0.1
		c0.2,0,0.4,0.2,0.5,0.4c0.5,0.4,0.8,0.7,1.3,0.8C17,34,17.3,34,17.6,34l0,0l0,0C17.8,34.2,18,34,18.2,34z"/>
	<path class="st0" d="M28,32.7c0,0.2-0.1,0.4-0.1,0.6c-0.2-0.2-0.5-0.5-0.7-0.7c-0.5-0.6-1.1-0.9-1.6-1.4c-0.1-0.1-0.2-0.2-0.4-0.2
		c-1.1-0.7-2.2-1.4-3.2-2.3c0,0,0,0-0.1-0.1l0,0c-0.4-0.5-0.7-0.8-1.1-1.3c-0.1-0.1-0.1-0.2-0.2-0.4c-0.1-0.4-0.5-0.7-0.6-1.3
		c0.2,0.4,0.5,0.7,0.7,0.9c0.1,0.1,0.1,0.2,0.2,0.4c0.5,0.5,1.1,0.8,1.4,1.3c0.4,0.4,0.7,0.7,1.1,0.8c0.2,0.1,0.6,0.2,0.7,0.5h0.1
		l0,0c0,0,0,0-0.1,0c0.1-0.1-0.1-0.2-0.1-0.2c-0.4-0.4-0.6-0.6-0.9-0.9C23,28.2,23,28.2,23,28c0.6,0.5,1.2,0.9,1.6,1.3l0.1,0.1
		l-0.1-0.1c-0.4-0.5-0.7-0.8-0.8-1.3c0.5,0.6,0.9,1.1,1.6,1.4l0,0l0,0c0-0.2-0.2-0.2-0.2-0.4c-0.4-0.4-0.6-0.6-0.6-0.9
		c0.1,0,0.1,0.1,0.2,0.2c0.2,0.2,0.4,0.5,0.7,0.6c0.1,0.1,0.1,0.1,0.2,0.1c-0.1-0.1-0.1-0.1-0.2-0.2s-0.1-0.4-0.2-0.5v-0.1
		c0,0,0.1,0,0.1,0.1c0.2,0.4,0.6,0.7,0.9,0.8c-0.2-0.4-0.4-0.7-0.6-0.9c0-0.1-0.2-0.2,0-0.4c0.1,0.2,0.4,0.5,0.6,0.6
		c0,0,0,0.1,0.1,0l0,0l0,0l0,0c0,0,0-0.1-0.1,0c0-0.2-0.1-0.4-0.1-0.6c0.4,0.6,0.7,0.9,1.2,1.4c0-0.1-0.1-0.2-0.1-0.4
		c-0.2-0.4-0.5-0.7-0.6-1.2c0-0.1-0.1-0.2,0-0.4c0.1-0.1,0.2,0.1,0.2,0.2c0.1,0.1,0.1,0.2,0.2,0.2c0-0.1-0.1-0.4-0.1-0.5
		c0-0.1,0-0.1,0-0.2c0.1,0.4,0.2,0.7,0.5,0.9c0,0.1,0,0.1,0.1,0.2c0,0,0,0,0,0.1l0,0c0,0,0-0.1,0,0c0-0.1,0-0.1,0-0.2
		c-0.1-0.4-0.2-0.7-0.2-1.2c0.1,0.1,0.1,0.4,0.4,0.5c0-0.4-0.1-0.6-0.2-0.9c0-0.1-0.1-0.2,0.1-0.2c0.4,0.9,0.7,1.9,0.8,2.9
		c0,0.6,0,1.2,0,1.6l0,0c-0.2-0.2-0.4-0.6-0.7-0.8c-0.1-0.1-0.1-0.2-0.2-0.2c0.1-0.1,0-0.1,0-0.2l0,0l0,0c0,0.1,0,0.1,0,0.1
		c0.4,0.5,0.6,0.8,0.9,1.3c-0.1,0.6-0.2,1.1-0.2,1.6c-0.1,0.1-0.1,0-0.2-0.1c0-0.1-0.1-0.1-0.1-0.2c-0.5-0.8-1.1-1.5-1.9-2.1
		l-0.1-0.1c0,0,0-0.1,0,0l0,0c-0.1,0.1,0,0.1,0.1,0.2c0.6,0.7,1.2,1.4,1.8,2.1c0,0.1,0.1,0.1,0.1,0.2C27.9,32.6,27.9,32.7,28,32.7z
		 M26.5,29.5L26.5,29.5C26.5,29.5,26.5,29.6,26.5,29.5C26.5,29.6,26.5,29.5,26.5,29.5v0.1c0.5,0.6,0.9,1.2,1.4,1.9
		c0,0.1,0,0.1,0.1,0.1c0-0.1,0-0.1-0.1-0.2C27.7,30.8,27.2,30.2,26.5,29.5C26.6,29.6,26.6,29.6,26.5,29.5z"/>
	<path class="st0" d="M15.4,28.5c-0.2,0-0.5-0.1-0.7-0.2c-0.1,0.4,0,0.6,0.1,0.9c-0.2-0.1-0.2-0.2-0.4-0.4c0,0.2,0.1,0.4,0.1,0.6
		c-0.1,0-0.1-0.2-0.2-0.2c-0.1,0.1,0,0.2,0,0.2c0,0.1,0,0.1,0,0.2c0,0.1,0,0.2,0,0.4c-0.1,0.1,0,0.2,0,0.4l-0.1-0.1
		c-0.1-0.4-0.4-0.6-0.6-0.9c-0.1,0.2,0,0.5,0,0.7c-0.1-0.1-0.1-0.2-0.1-0.4c-0.1,0.2-0.1,0.5-0.1,0.7c-0.1-0.1-0.2-0.2-0.2-0.4
		c-0.8-0.4-1.4-0.7-1.4-1.4c0,0.2-0.1,0.4-0.1,0.6c0,0,0,0.1-0.1,0.1l-0.1-0.1c-0.1-0.5-0.2-0.9-0.1-1.4c-0.1,0-0.1,0.1-0.2,0.2
		c-0.1,0,0-0.1-0.1-0.2c-0.1,0.1-0.2,0.2-0.2,0.4c0.1-0.4,0.4-0.7,0.6-0.9c0.1,0,0.1-0.2,0.4-0.2c0,0.5,0,0.9,0.1,1.4
		c0.1-0.2,0.1-0.5,0.2-0.7c0.4,0.8,0.5,1.5,1.1,2.3c0.1-0.4,0.1-0.7,0.1-0.9c0.1-0.1,0-0.2,0.1-0.2c0.2,0.4,0.4,0.7,0.6,0.9
		c0-0.2,0.1-0.5,0.1-0.6c0-0.1,0-0.5,0.1-0.5c0.4-0.1,0.2-0.5,0.4-0.7c0-0.1,0-0.2,0.1-0.2C14.7,28,14.9,28.3,15.4,28.5
		C15.3,28.4,15.3,28.5,15.4,28.5z"/>
	<path class="st0" d="M12.3,25.5c-0.1,0-0.1-0.1-0.2-0.1c-0.2-0.2-0.2-0.2-0.4,0.1c-0.1-0.2-0.2-0.2-0.4,0c0,0.1,0,0.2-0.1,0
		l-0.1,0.1c-0.1,0.2-0.2,0.4-0.2,0.6c0-0.7,0.2-1.2,0.8-1.3c0.4,0,0.4,0,0.5-0.5C12.2,24.8,12.2,25.1,12.3,25.5z"/>
	<path class="st0" d="M29.3,18c-0.6-0.5-1.3-0.7-2-0.9c0-0.1-0.2,0-0.2-0.1c0.6,0,1.3,0.1,1.9,0.4c0.1,0,0.2,0.1,0.4,0
		c0,0,0,0,0,0.1l0,0h-0.1c-0.5-0.4-1.1-0.5-1.5-0.7l0,0c0.9,0.1,1.9,0.5,2.8,0.8c0.2,0.1,0.4,0.2,0.6,0.2c0.9,0.4,1.5,1.1,1.9,2
		c0-0.2-0.1-0.4-0.1-0.6c0.4,0.2,0.6,0.6,0.9,0.9c1.1,1.5,1.6,3.2,2,4.9c0.4,2.2,0.1,4.4-0.5,6.7c-0.2,0.9-0.7,1.8-1.2,2.6
		c0-0.1,0-0.2,0.1-0.4c0.2-0.9,0.5-1.9,0.8-2.8c0.1-0.4,0.2-0.7,0.2-1.1c-0.1,0.2-0.2,0.6-0.4,0.8c-0.1,0.4-0.4,0.7-0.4,1.1
		c-0.1,0,0-0.1-0.1-0.2c0.2-0.8,0.5-1.8,0.7-2.6c0.2-0.6,0.5-1.3,0.5-2c-0.1,0.7-0.5,1.3-0.7,2c-0.1,0.2-0.2,0.4-0.2,0.6
		c0-0.1,0-0.2,0-0.4c0.1-0.7,0.4-1.4,0.4-2.1c0.1-0.4,0.1-0.8,0.1-1.2c-0.1,0.5-0.2,0.9-0.4,1.4c0,0.1-0.1,0.2-0.2,0.4
		c0-0.1,0-0.1,0-0.2c0.2-1.6,0.4-3.2,0-4.8c0,0.7,0.1,1.4-0.1,2.1c-0.1-0.8-0.1-1.6-0.4-2.5c0-0.2-0.1-0.5-0.2-0.7v-0.1l0,0v0.1
		c0,0.4,0.1,0.7,0.1,1.2c0,0.2,0,0.5,0,0.7c-0.2-0.8-0.5-1.6-0.8-2.5c0,0.4,0.2,0.7,0.1,1.1c-0.4-0.7-0.7-1.5-1.1-2.3
		c-0.1-0.1,0-0.2-0.2-0.2c0,0,0,0,0-0.1l0,0c0,0,0,0,0,0.1c0,0.1,0.1,0.1,0.1,0.2c0.1,0.5,0.4,1.1,0.4,1.5c-0.1-0.2-0.2-0.5-0.5-0.7
		c-0.4-0.6-0.6-1.1-0.9-1.5c-0.1-0.1-0.1-0.2-0.2-0.2c0,0,0-0.1-0.1-0.1c0,0,0,0,0-0.1l0,0l0,0c0,0.1,0,0.1,0,0.1v0.1
		c0.4,0.5,0.7,1.1,0.8,1.8C31.1,19.4,30.4,18.6,29.3,18z M29.5,17.3L29.5,17.3L29.5,17.3L29.5,17.3z"/>
	<path class="st0" d="M32.3,28.3c-0.1,0.1-0.1,0.2-0.4,0.4c-0.1-0.6-0.1-1.2-0.4-1.8c-0.1,0.6,0,1.2,0,1.8c0.1,0.9,0.1,1.9-0.2,2.8
		c0,0.1-0.1,0.2-0.2,0.4c0-0.5,0-0.8,0-1.3c0-0.6,0.1-1.2-0.1-1.6v-0.1c0,0,0,0,0.1,0v0.1c-0.2,0.6-0.1,1.2-0.1,1.8
		c-0.1,1.2-0.6,2.2-1.1,3.2c0.4-1.5,0.5-3.2,0.4-4.7c-0.1-0.8-0.2-1.6-0.2-2.5c0-0.1,0-0.4,0.1-0.5c0.1,0.2,0.1,0.5,0.4,0.7
		c0-0.6,0.2-1.2,0.1-1.6c0.2,0.8,0.5,1.8,0.7,2.6c0.2-0.4,0.2-0.7,0.1-1.2c-0.1,0,0,0.1-0.1,0.1c0,0,0,0,0-0.1c-0.4-2-0.9-3.9-2-5.5
		c0-0.1,0-0.1-0.1-0.1c0-0.1,0-0.1,0-0.1l0,0c0,0,0-0.1-0.1-0.1l0,0c0-0.1,0.1-0.1,0.1,0c0.1,0.1,0.2,0.1,0.4,0.2
		c0.5,0.4,0.7,0.8,1.1,1.3c0.6,0.9,1.1,1.9,1.4,2.8c0.1,0.4,0.2,0.7,0.4,1.2C32.3,27,32.6,27.7,32.3,28.3z"/>
	<path class="st0" d="M25.9,17.5c1.1,0.1,2.1,0.6,3,1.1c0.6,0.4,1.2,0.7,1.6,1.1c0.1,0.1,0.2,0.1,0.4,0.2l0,0
		c-0.2,0-0.4-0.2-0.6-0.2c-0.1-0.1-0.2-0.1-0.4-0.1c0-0.1-0.2-0.1-0.2-0.1c-0.1,0-0.1,0-0.2,0l0,0l0,0c0,0,0-0.1,0.1,0
		c0,0,0,0,0,0.1c0.1,0,0.1,0,0.2,0c0,0.1,0.1,0.1,0.2,0.1c0,0.1,0.1,0.1,0.2,0.2c0.6,0.4,1.2,0.7,1.8,1.2c1.5,1.3,2.3,2.9,2.5,4.9
		c0,0.2,0,0.5,0,0.7c-0.1,0-0.1-0.1-0.1-0.2c-0.4-1.9-1.2-3.5-2.6-4.9c-0.1-0.1-0.1-0.1-0.2-0.2c0,0,0,0-0.1-0.1c0,0,0,0,0-0.1
		c0,0,0,0-0.1-0.1c0,0-0.1,0-0.1-0.1l0,0l0,0c0,0,0.1,0,0.1,0.1c0,0.1,0,0,0.1,0.1c-0.1,0,0,0.1,0,0.1s0,0,0.1,0.1
		c1.2,1.6,1.8,3.4,1.9,5.4c0,0.2,0,0.6,0,0.8c0,0,0,0.1-0.1,0.1c0-0.2,0-0.6-0.1-0.8c-0.1-0.7-0.4-1.4-0.7-2.1
		c-0.4-1.1-0.8-2-1.4-2.9c-0.2-0.5-0.6-0.9-1.1-1.3c-0.5-0.6-1.1-1.1-1.8-1.5l-0.1-0.1c0,0-0.1,0-0.1-0.1c0,0-0.1,0-0.1-0.1
		c-0.9-0.7-2-0.9-3.7-1.1C24.7,17.5,25.3,17.5,25.9,17.5z M30.5,20.1C30.5,20.2,30.5,20.2,30.5,20.1c0.4,0.4,0.7,0.6,1.1,0.9
		l0.1,0.1l0.1,0.1l0,0l0,0l0,0c0-0.1,0-0.1-0.1-0.2l-0.1-0.1c-0.1-0.1-0.1-0.1-0.2-0.2C31.2,20.6,30.9,20.2,30.5,20.1
		C30.6,20.2,30.6,20.2,30.5,20.1L30.5,20.1L30.5,20.1L30.5,20.1z"/>
	<path class="st0" d="M25.2,19.2c0,0-0.1,0-0.1-0.1c-0.4-0.2-0.7-0.4-1.1-0.6l0,0c0.5,0,0.8,0.2,1.2,0.4c0.7,0.4,1.4,0.7,2,1.2h0.1
		l0,0l0,0l0,0c0,0,0-0.1-0.1-0.1c-1.1-1.1-2.2-1.6-3.7-1.9c0.8-0.4,2.5-0.1,3.4,0.6c-0.2-0.1-0.5-0.1-0.7-0.2
		c0.6,0.2,1.2,0.6,1.6,0.8c0.1,0.1,0.2,0.2,0.5,0.4l0,0c-0.2,0.1-0.4-0.1-0.6-0.1c0,0,0,0-0.1,0h-0.1c-0.1-0.1-0.2-0.1-0.4-0.1
		c0.1,0.1,0.2,0.1,0.4,0.2c0,0,0.1,0,0.1,0.1h0.1c0.5,0.4,0.9,0.8,1.4,1.2l0,0c0,0,0,0.1,0.1,0.1l0,0c0,0.1,0,0.1,0,0.1
		c-0.2,0-0.4-0.2-0.5-0.2c-0.1-0.1-0.1-0.2-0.4-0.2c0,0,0,0-0.1-0.1l0,0l0,0c0,0,0.1,0,0.1,0.1c0.1,0.1,0.2,0.1,0.4,0.2
		c0.9,1.2,1.4,2.7,1.6,4c-0.2-0.2-0.2-0.6-0.4-0.8c-0.1-0.4-0.2-0.6-0.5-0.9c-0.2-0.5-0.5-0.9-0.8-1.3c-0.2-0.4-0.5-0.7-0.8-0.9
		c-0.1-0.1-0.2-0.2-0.4-0.4c-0.1-0.1-0.2-0.2-0.4-0.4c-0.5-0.5-1.1-0.8-1.6-1.1c0,0,0,0-0.1,0C25.3,19.2,25.2,19.2,25.2,19.2z"/>
	<path class="st0" d="M29.4,26.3c-0.1-0.5-0.4-1.1-0.6-1.5c-0.2-0.7-0.6-1.4-0.9-2c-0.1-0.4-0.5-0.7-0.7-1.1
		c0.2,0.1,0.2,0.2,0.5,0.4c0,0.1,0.1,0.1,0.1,0.1c0.1,0.1,0.1,0.2,0.2,0.2c0.5,0.6,0.9,1.2,1.3,1.9c0.2,0.7,0.5,1.5,0.6,2.2
		c0,0.1,0.1,0.2,0,0.5C29.8,26.8,29.5,26.7,29.4,26.3L29.4,26.3L29.4,26.3z"/>
	<path class="st0" d="M34,29.2c0.1,0,0.1,0.1,0.1,0.2c0,0.6-0.2,1.2-0.4,1.8c-0.2,0.6-0.4,1.2-0.6,1.8c-0.1,0.2-0.1,0.4-0.2,0.6
		c-0.4,0.7-0.7,1.4-1.1,2c-0.1,0.2-0.4,0.5-0.5,0.7c-0.1,0.1-0.2,0.4-0.4,0.6L30.9,37l0,0c0.1-0.4,0.1-0.6,0.4-0.9l0,0
		c0,0.1,0,0.1,0,0.2c-0.1,0-0.1,0.1,0,0.2c0,0,0,0-0.1,0l0,0c0,0,0,0,0.1,0v-0.1c0.1-0.1,0.2-0.2,0.2-0.5l0,0
		c0.4-0.4,0.6-0.9,0.8-1.4c0.7-1.4,1.1-2.9,1.4-4.3C33.9,29.7,33.9,29.5,34,29.2z"/>
	<path class="st0" d="M30.1,30.1c0-0.2,0-0.5-0.1-0.7c0-0.5-0.1-0.9-0.1-1.4c0.4,0.6,0.6,2.9,0.2,4.7C30.1,31.7,30.2,30.9,30.1,30.1
		z"/>
	<path class="st0" d="M32.7,28.4c0-0.1,0-0.2,0.1-0.5c0,0.2,0.1,0.6-0.1,0.8C32.7,28.7,32.7,28.5,32.7,28.4z"/>
	<path class="st0" d="M30.9,20L30.9,20L30.9,20L30.9,20z"/>
	<path class="st0" d="M11.3,18.8c-0.1-0.1,0-0.1,0-0.1V18.8z"/>
	<path class="st0" d="M16.7,10.5c-0.1,0.1-0.1,0.2-0.2,0.4c-0.1,0.2-0.4,0.4-0.6,0.4c-0.2,0-0.4-0.2-0.5-0.5c0-0.1,0-0.2,0-0.4v-0.1
		c0.2-0.6,0.6-1.1,0.9-1.6c0.2,0.8-0.2,1.4-0.5,2.2c0.8-0.6,0.7-1.4,0.7-2.2c0.1,0.6,0.1,1.3,0,1.9C16.7,10.4,16.7,10.4,16.7,10.5
		L16.7,10.5z"/>
	<path class="st0" d="M17.3,7.7c-0.1,0.4-0.2,0.6-0.6,0.6c-0.2,0-0.4,0-0.5-0.2c-0.1-0.1,0-0.2,0.1-0.4c0-0.1,0.1-0.2,0.2-0.2
		c0.2-0.1,0.4-0.1,0.4,0.2C16.9,7.8,16.9,7.8,17.3,7.7z"/>
	<path class="st0" d="M15.1,6.8c0.1,0.1,0.2,0.2,0.1,0.4c-0.1,0.1-0.2,0.2-0.4,0.2s-0.4-0.1-0.5,0l0,0c0-0.1-0.2-0.4,0-0.6
		c0,0.2,0,0.4,0.2,0.4c0.2,0,0.4,0,0.5-0.1C15.3,7,15.1,6.9,15.1,6.8L15.1,6.8z"/>
	<path class="st0" d="M15.1,6.8c-0.1-0.1-0.2,0-0.2,0C14.8,6.9,15,6.9,15,7c-0.1,0-0.2,0-0.2-0.1c0-0.1,0.1-0.2,0.1-0.2
		C14.9,6.7,15,6.5,15.1,6.8L15.1,6.8z"/>
	<path class="st0" d="M24.9,21.3C24.9,21.4,24.9,21.4,24.9,21.3c0.1,0.1,0.1,0.1,0.1,0.1s0,0,0.1,0.1c0.7,0.8,1.3,1.9,1.8,2.9v0.1
		c-0.1-0.1-0.4-0.4-0.5-0.5c0,0.5,0.2,0.9,0.2,1.4c-0.8-0.5-1.2-1.4-1.8-2c0,0,0-0.1,0,0l0,0c0.1,0.5,0.4,0.9,0.4,1.4
		c0,0.2,0.1,0.5,0.1,0.7c-0.1,0-0.2-0.1-0.4-0.1c-1.1-0.7-1.2-1.9-1.6-2.9c0,0.5,0.1,0.8,0.1,1.3c-0.5-0.4-0.7-0.9-1.1-1.3
		c0,0,0,0,0-0.1c0,0,0-0.1-0.1-0.1c-0.1,0,0,0.1,0,0.1s0,0,0,0.1c0.5,0.9,0.9,1.8,1.2,2.8c-0.1,0-0.2-0.2-0.4-0.1
		c0,0.2,0.1,0.5,0.2,0.7c-0.5-0.1-0.8-0.5-1.1-0.8c-0.1-0.1-0.1-0.2-0.2-0.2c-0.1-0.1-0.1-0.2-0.2-0.2s0,0.2,0,0.4
		c0,0.2,0,0.5,0,0.7c0,0.1,0,0.2-0.1,0.2c0,0.1-0.1,0.2-0.1,0.2c-0.1,0.1-0.2,0-0.5-0.1c-0.7-0.6-0.9-1.4-1.1-2.2
		c0.1,0,0.1,0,0.1,0.1c0,0,0.1,0.1,0.1,0.2c0-0.4-0.1-0.6-0.1-0.8l0,0c0.1,0.2,0.4,0.5,0.5,0.7c0.1-0.7,0-1.3,0-2
		c0.1,0.1,0.1,0.2,0.2,0.4c0-0.4-0.1-0.7-0.2-1.1c0-0.1,0-0.4,0-0.6c0.1,0.2,0.2,0.5,0.2,0.7c0,0,0,0.1,0.1,0.1v-0.1
		c0-0.1-0.1-0.4-0.1-0.5l0,0c0.1,0,0.1,0.2,0.4,0.4c0.1-0.4,0.1-0.7,0.2-1.1c0.4,0.5,0.4,0.9,0.6,1.4c0,0,0,0.1,0.1,0.1
		c0.1,0,0-0.1,0-0.2c0-0.1-0.1-0.4,0-0.6c0.2,0.4,0.4,0.7,0.6,0.9c0-0.2-0.2-0.5,0-0.7c0.1,0.2,0.2,0.5,0.5,0.6
		c0-0.2-0.1-0.5-0.1-0.7l0,0c0.2,0.1,0.2,0.5,0.6,0.7c-0.1-0.4-0.2-0.7-0.4-1.1c0-0.2-0.1-0.5-0.2-0.6c0.1-0.1,0.1,0,0.1,0
		c0.4,0.4,0.7,0.6,1.1,0.9c0.1,0.1,0.1,0.1,0.2,0C24.7,21.2,24.7,21.3,24.9,21.3z M21.6,24.1L21.6,24.1L21.6,24.1
		C21.6,24.1,21.6,24,21.6,24.1C21.6,24,21.6,24,21.6,24.1C21.6,24,21.6,24,21.6,24.1z M21.8,24.4c0-0.1,0-0.1-0.1-0.1
		C21.7,24.3,21.7,24.4,21.8,24.4c0,0.1,0,0.2,0,0.1C21.9,24.6,21.9,24.6,21.8,24.4z M23.8,22.1L23.8,22.1L23.8,22.1L23.8,22.1
		L23.8,22.1z M21.7,24.2L21.7,24.2L21.7,24.2C21.6,24.2,21.7,24.2,21.7,24.2L21.7,24.2z"/>
	<path class="st0" d="M26.3,14.3L26.3,14.3L26.3,14.3C26.3,14.2,26.3,14.2,26.3,14.3c0-0.1,0-0.1,0-0.1
		C26.4,14.2,26.3,14.2,26.3,14.3z"/>
	<path class="st0" d="M14.2,19.8c0,0.1-0.1,0.2-0.1,0.2l0,0C14.1,19.9,14.1,19.9,14.2,19.8L14.2,19.8z"/>
	<path class="st0" d="M14.1,20C14.1,20.1,14.1,20.1,14.1,20C14.1,20.1,14,20.1,14.1,20C14,20.1,14,20,14.1,20L14.1,20z"/>
	<path class="st0" d="M23.8,18.5c0.1,0,0.1,0,0.2,0.1l0,0C23.9,18.6,23.8,18.5,23.8,18.5L23.8,18.5z"/>
	<path class="st0" d="M23.8,18.5L23.8,18.5L23.8,18.5L23.8,18.5z"/>
	<path class="st0" d="M21.2,21.1L21.2,21.1L21.2,21.1L21.2,21.1z"/>
	<path class="st0" d="M21.2,16.4L21.2,16.4L21.2,16.4L21.2,16.4z"/>
	<path class="st0" d="M14.1,17c0-0.1,0-0.2,0-0.4C14.2,16.8,14.1,17,14.1,17z"/>
	<path class="st0" d="M13.6,8.3L13.6,8.3c-0.1,0.1-0.1,0.1-0.2,0.1c-0.5-0.1-0.8-0.1-1.3-0.1c-0.5,0-0.9,0-1.4,0
		c0.4-0.2,0.8-0.2,1.3-0.2c0.5,0,0.9,0.1,1.3,0.2C13.4,8.3,13.5,8.3,13.6,8.3z"/>
	<path class="st0" d="M18.4,21.1c-0.1,0,0,0.1-0.1,0.1c0-0.1,0-0.2,0.1-0.4C18.4,20.9,18.3,21.1,18.4,21.1z"/>
	<path class="st0" d="M18.4,21.8C18.4,21.8,18.3,21.8,18.4,21.8c0-0.1-0.1-0.2,0-0.4C18.4,21.5,18.4,21.6,18.4,21.8z"/>
	<path class="st0" d="M18.4,21.4c0-0.1,0-0.2,0-0.2C18.4,21.2,18.4,21.3,18.4,21.4z"/>
	<path class="st0" d="M14.7,19.5C14.7,19.4,14.7,19.4,14.7,19.5C14.7,19.4,14.7,19.4,14.7,19.5C14.7,19.4,14.7,19.5,14.7,19.5
		L14.7,19.5z"/>
	<path class="st0" d="M18.3,21.8c0,0.1,0,0.2,0,0.2l0,0C18.3,21.9,18.3,21.8,18.3,21.8z"/>
	<path class="st0" d="M34,34.2L34,34.2C34.1,34.2,34.1,34.2,34,34.2z"/>
	<path class="st0" d="M27.7,16.5C27.7,16.5,27.7,16.6,27.7,16.5L27.7,16.5L27.7,16.5z"/>
	<path class="st0" d="M33.3,17.8C33.4,17.8,33.4,17.8,33.3,17.8L33.3,17.8L33.3,17.8z"/>
	<path class="st0" d="M30.9,36.8c0,0.1-0.1,0.1-0.1,0.2C30.8,36.8,30.9,36.8,30.9,36.8L30.9,36.8z"/>
	<path class="st0" d="M20.2,31.2L20.2,31.2L20.2,31.2L20.2,31.2z"/>
	<path class="st0" d="M28.4,19.8C28.4,19.9,28.4,19.9,28.4,19.8C28.4,19.9,28.4,19.9,28.4,19.8L28.4,19.8z"/>
</g>
<g>
	<path class="st0" d="M-24.6,11.3c-0.3,0.2-0.7,0.1-1.1,0.3c0.7,0.2,1.4,0.4,2,1c-0.4-0.1-0.7-0.3-1.1-0.3c0.7,0.5,1.4,0.9,1.9,1.6
		c-0.3-0.1-0.5-0.3-0.8-0.3c0.4,0.4,0.7,0.9,1,1.4c0.4,1.2,0.7,2.3,0.8,3.6c0,0.3,0,0.6,0,0.9c0,0.1,0,0.2-0.1,0.3
		c-0.1,0.5-0.3,0.9-0.6,1.3c-0.1-0.1,0-0.1,0-0.2c0.7-1.2,0.7-3,0-4.3c0.2,0.9,0.2,1.8,0.2,2.7c0,0.5,0,1-0.3,1.4l0,0
		c0-0.1,0-0.1,0-0.2s0.1-0.3,0.1-0.4c0.1-0.8,0.1-1.5-0.3-2.3c-0.1-0.5-0.4-0.9-0.6-1.2c-0.1-0.4,0-0.8-0.1-1.2c0-0.1,0-0.1-0.1-0.2
		c0,0.1,0,0.2,0,0.3s0,0.2-0.1,0.3c0-0.2,0.1-0.4,0-0.6c0-0.3-0.1-0.5-0.3-0.7c0.1,0.3,0.1,0.6,0.1,0.9c0,0.1-0.1,0.1-0.1,0
		c-0.2-0.3-0.5-0.6-0.8-0.9c0,0,0,0-0.1-0.1c0,0,0,0-0.1-0.1c-0.2-0.4-0.4-0.8-0.7-1.2c0-0.1-0.1-0.1-0.1-0.2c0,0-0.1,0,0,0l0,0
		c-0.1,0.1,0,0.2,0.1,0.2c0,0.1,0.1,0.2,0.1,0.3c-0.2-0.4-0.5-0.8-0.8-1c0,0.3,0.3,0.4,0.4,0.7c-0.2-0.1-0.3-0.2-0.5-0.3
		c-0.4-0.5-0.9-0.8-1.4-1c0,0-0.1,0-0.1-0.1l0,0c0,0,0.1,0.1,0.1,0c0,0.1,0.1,0.1,0.2,0.2c0.2,0.2,0.4,0.4,0.6,0.5
		c-0.3-0.1-0.6-0.1-1-0.2c-0.1,0-0.3,0-0.4-0.2c0,0-0.1-0.1-0.2-0.1c-0.2,0.1-0.3,0-0.5,0c-0.3,0-0.7,0-1,0.1
		c-0.4,0-0.7,0.2-1.1,0.3c-0.2,0-0.3,0.1-0.5,0.2c-0.1,0-0.1,0.1-0.2,0c0,0,0,0,0-0.1c1.1-1.3,3.2-2.3,5.3-1
		c0.7,0.4,1.3,0.9,1.9,1.5l0.1,0.1c0.1,0.1,0.1,0.2,0.2,0.3c0,0,0,0,0.1,0.1c0,0,0,0,0.1,0.1c0,0,0,0.1,0.1,0c0,0.1,0,0.1,0.1,0.1
		c0,0,0,0.1,0.1,0.1l0,0l0,0l0,0v-0.1l-0.1-0.1c0,0,0-0.1-0.1-0.1v-0.1c0,0,0,0-0.1-0.1s-0.2-0.2-0.2-0.3l-0.1-0.1
		c-0.6-0.7-1.3-1.3-2.1-1.7c-1.8-1-4.2-0.5-5.6,1c-0.5,0.4-0.9,1-1.2,1.5c-0.3,0.5-0.6,1-0.8,1.5c0.1,0.3,0.1,0.4,0.1,0.5
		c-0.1,0.2-0.2,0.4-0.3,0.6c0,0.1,0,0.2,0.1,0.2c0.5,0.2,0.9,0.6,1.3,0.8c0.5,0.4,1,0.8,1.4,1.3c0.3,0.6,0.6,1.1,1,1.7
		c0.3,0.6,0.6,1.3,0.9,1.9c0,0.1,0,0.1,0.1,0.2c0,0,0,0.1,0.1,0.1c0,0.1,0,0.2,0.1,0.3v0.1v0.1c0.1,0.6,0.1,1.2,0,1.8l-0.1,0.1
		c0-0.8-0.2-1.5-0.5-2.2c-0.5-1.4-1.4-2.6-2.5-3.6c0,0,0,0-0.1-0.1c0,0-0.1-0.1-0.1,0c0-0.1,0-0.1-0.1-0.1l0,0l0,0
		c-0.1,0,0,0.1-0.1,0c-0.1,0-0.1-0.1-0.2-0.2c-0.5-0.6-1-1.1-1.6-1.6c0-0.1-0.1-0.1-0.1-0.1c0-0.1,0-0.1-0.1,0l0,0l0,0
		c0,0,0,0,0,0.1h0.1c0,0.1,0,0.1,0.1,0.2c0.2,0.3,0.3,0.7,0.4,1c0,0.2,0,0.3,0,0.6c-0.4-0.6-0.6-1.1-1-1.6c-0.3-0.5-0.5-0.9-0.8-1.4
		c0.1,0.4,0.2,0.7,0.3,1.1c0,0.1,0,0.2,0,0.2v0.1l0,0c0,0.2,0,0.4,0,0.6c0,0.1,0.1,0.3-0.1,0.4c0-0.2-0.1-0.3-0.2-0.5
		c-0.5-1.1-0.6-2.4-0.9-3.5c0.2,1.3,0.4,2.6,0.3,3.9c0,0.1,0,0.3,0,0.4c-0.2-0.1-0.1-0.3-0.2-0.4c0,0.1,0,0.2,0,0.3
		c0.2,0.6,0,1.1-0.1,1.7c-0.1,0.2-0.1,0.4-0.2,0.6c-0.2,0.3-0.2,0.6-0.4,0.9c0-0.3,0.1-0.5,0.1-0.8c0.1-0.3,0.1-0.6,0-0.9
		c0.1-0.7,0-1.4-0.1-2.1c0-0.1,0-0.2,0-0.3c0.4,0.1,0.2,0.5,0.3,0.7c0-0.2,0.1-0.4,0.1-0.6c0-0.1,0.1-0.2,0.1-0.3
		c0,0.4-0.1,0.8,0,1.3c0.1-0.6,0.1-1.2,0.1-1.7c0.2,0,0.1,0.2,0.2,0.2c-0.3-0.7-0.4-1.5-0.6-2.3c0,0.1,0,0.3,0,0.4
		c0.1,0.8,0.1,1.6,0,2.4c-0.1-0.1-0.1-0.2-0.1-0.3c0-0.2,0-0.3,0-0.5c0,0,0,0-0.1,0c0,0.2,0,0.4-0.1,0.6c-0.1-0.2-0.1-0.4-0.2-0.6
		c0,0.2-0.1,0.4-0.1,0.6l0,0c-0.1,0.1,0,0.1,0,0.2s-0.1,0.2-0.1,0.3c-0.2,1.2-0.5,2.4-1.1,3.4c-0.1,0.1-0.1,0.3-0.3,0.3
		c0-0.2,0.1-0.3,0.1-0.5c0.1-0.1,0.1-0.2,0.1-0.4c0.2-0.5,0.2-1,0.4-1.5v-0.1v0.1c-0.1,0-0.1,0.1-0.2,0.2c0.1-0.7,0.4-1.3,0.5-1.9
		c-0.1,0.2-0.2,0.4-0.3,0.7c-0.1-0.1-0.1-0.2-0.1-0.3c-0.2-0.8-0.2-1.6-0.1-2.5c0-0.5,0.1-1.1-0.2-1.6v-0.1c0-0.1,0-0.3,0.2-0.3
		s0.2,0.1,0.2,0.2c0,0.3-0.1,0.5-0.1,0.7c-0.1,1.3-0.3,2.5-0.6,3.7c0,0.1-0.1,0.2,0,0.2c0.2,0.1,0,0.3,0,0.4c0,0.2-0.1,0.3-0.1,0.5
		l0,0l0,0c0.3-0.6,0.4-1.2,0.5-1.8c0.2,0.3,0.2,0.7,0.1,1c-0.3,0.6-0.5,1.2-0.8,1.8c-0.1,0.2-0.2,0.4-0.3,0.6l0,0
		c0.1-0.3,0.1-0.7,0.2-1c0.1-0.3,0.1-0.7,0.2-1.1c0-0.1,0.1-0.2,0-0.3c0.1-0.1,0.1-0.2,0.1-0.2c0.1-0.3,0.1-0.7,0.2-1.1l0,0
		c0,0,0,0,0.1,0c0,0,0,0,0,0.1c-0.2,0.4-0.3,0.9-0.3,1.3c-0.1,0.1-0.1,0.1-0.1,0.2c-0.1,0,0,0.1-0.1,0.1c0.1-0.4,0.2-0.8,0.2-1.3
		c-0.4,0.5-0.4,0.6-0.4,0.8c-0.1,0-0.1-0.1-0.1-0.1c0-0.2,0.1-0.5,0.1-0.7c0.1-0.1,0-0.2,0.1-0.3c0,0,0.1-0.1,0-0.2
		c0,0.1,0,0.1,0,0.2c-0.1,0.1-0.2,0.2-0.2,0.3c-0.2,0.7-0.5,1.3-0.8,2c-0.2,0.3-0.4,0.6-0.5,0.9l0,0v0.1l0,0c0,0,0,0,0,0.1
		s-0.1,0.1-0.1,0.2c0.2-1,0.4-1.9,0.6-2.9c-0.1,0.1-0.1,0.3-0.2,0.5c0-0.4,0.1-0.7,0.1-1c-0.3,0.8-0.5,1.7-1,2.4
		c0.1-0.6,0.2-1.3,0.3-1.9c0-0.1,0.1-0.2,0-0.2l0,0c0-0.2,0.2-0.4,0.1-0.7c-0.1,0.3-0.2,0.5-0.3,0.7c0-0.3,0.1-0.6,0.2-0.8v-0.1l0,0
		c-0.3,0.4-0.5,0.8-0.7,1.3c-0.1,0.1-0.1,0.2-0.2,0.3c0-0.2,0.2-0.4,0.2-0.5c0.2-0.4,0.4-0.7,0.6-1c0.3-0.4,0.4-0.8,0.4-1.3
		c-0.2,0.1-0.1,0.3-0.2,0.4c0-0.4,0.1-0.7,0-1.1c0,0,0,0.1-0.1,0.1c0-0.2,0-0.3,0-0.5c-0.1,0.3-0.1,0.6-0.2,0.8
		c-0.1-0.2,0-0.3,0-0.5c-0.4,0.9-0.5,1.8-1.1,2.6c-0.2,0.3-0.3,0.5-0.5,0.8c0,0,0,0-0.1,0c0-0.1,0.1-0.3,0.1-0.4l0,0c0,0,0,0,0-0.1
		v-0.1c0-0.1,0-0.2,0-0.3c0.1-0.3,0.1-0.6,0.1-0.9c0-0.1,0-0.2,0.1-0.2c0,0,0.1-0.1,0-0.1c0,0,0,0.1-0.1,0.1c0,0.1-0.1,0.1-0.1,0.2
		c-0.1,0.3-0.2,0.5-0.2,0.8c-0.1-0.2,0-0.4,0-0.5s0-0.1,0-0.2c-0.1,0-0.1,0.1-0.1,0.1c-0.1,0.2-0.1,0.4-0.3,0.6
		c0-0.2,0.1-0.4,0.1-0.5c-0.2,0.1-0.2,0.2-0.3,0.2c0-0.1,0.1-0.2,0.1-0.2l0,0l0,0c0.1-0.1,0.2-0.3,0.2-0.5c0.1-0.4,0.3-0.8,0.5-1.1
		c0.1,0,0,0.1,0.1,0.2c-0.1,0-0.1,0-0.1,0.1l0,0c0,0,0,0,0-0.1c0.1-0.1,0.2-0.2,0.3-0.4l0,0c0.3-0.4,0.6-0.8,0.9-1.2
		c0.1-0.1,0.1-0.1,0.2-0.2c0,0,0.1-0.1,0.1,0l0,0c0,0,0,0.1-0.1,0.1c0,0.1-0.1,0.1,0,0.2c-0.1,0,0,0.1-0.1,0.1l0,0l0,0l0,0
		c0,0,0-0.1,0.1-0.1c0,0,0-0.1,0.1-0.1l0.1-0.1c0,0,0-0.1,0.1-0.1c0.1-0.2,0.2-0.3,0.3-0.5c0,0,0-0.1,0.1-0.1l0,0
		c0.1-0.2,0.3-0.5,0.4-0.7l0,0c0,0.1,0,0.3,0,0.4c0.2-0.2,0.3-0.5,0.4-0.8c0.2-0.4,0.4-0.7,0.5-1.1c0,0.1,0,0.2,0,0.3
		c0,0.7-0.2,1.4-0.5,2c-0.2,0.5-0.4,0.9-0.5,1.5c-0.1,0.1,0,0.1-0.1,0.2l0,0l0,0l0,0c0-0.1,0.1-0.1,0.1-0.2c0.5-1,0.8-2.1,1.1-3.2
		l0,0c0,0,0,0,0-0.1c0-0.2,0.1-0.5,0.1-0.7s0.1,0,0.1,0c0,0.1,0,0.2,0.1,0.3c0-0.2,0.1-0.4,0-0.5v-0.1c0,0,0.1,0,0.1,0.1
		c0,0.2,0,0.3,0.1,0.5c0,0.2,0,0.5,0,0.7c0.1-0.5,0.1-1.1,0.1-1.7c0.1,0.2,0.2,0.4,0.3,0.5l0,0c0-0.2-0.1-0.4-0.1-0.6
		c0.4,0.9,0.2,1.8,0.1,2.7c0.4-1.1,0.2-2.3-0.1-3.5c0.4,0.5,0.7,1,0.7,1.4c-0.1-0.8-0.3-1.6-0.7-2.3c0.1-0.1,0.2,0,0.4,0.1
		c0-0.2-0.2-0.3-0.3-0.5c0.1-0.1,0.2,0.1,0.2,0c0,0,0,0-0.1,0l0,0c0,0,0,0,0-0.1c-0.1-0.1-0.2-0.2-0.2-0.2c0.1-0.2-0.1-0.3-0.2-0.4
		C-40.1,6.4-40.5,6.2-41,6c-0.3-0.1-0.6-0.2-0.9-0.1s-0.5,0.3-0.6,0.6c0.1,0,0.1-0.1,0.2-0.1c0,0.2-0.1,0.4,0.2,0.5l0,0
		c0.1,0.1,0.3,0,0.4,0.1c0.2,0,0.3-0.1,0.5-0.1c-0.3,0.4-0.6,0.2-1,0.1c0.2,0.3,0.4,0.4,0.6,0.3c0.3-0.1,0.5-0.3,0.6-0.6
		c0.1-0.1,0-0.2-0.1-0.4c0,0.3,0.1,0.5-0.1,0.6c0.1-0.3,0.1-0.5-0.1-0.8c0.4,0,0.6,0.3,0.9,0.5c-0.1,0.2,0,0.4-0.2,0.6
		c-0.2,0.1-0.1,0.4-0.4,0.4c0.1,0.1,0.1,0.1,0.2,0.1c0,0,0.1,0.1,0.1,0.2S-40.8,8-40.9,8c-0.1,0-0.2,0-0.4,0
		c0.1,0.1,0.2,0.2,0.3,0.3c-0.2,0.1-0.4,0.1-0.7,0.1l0,0l0,0c0.1,0.1,0.2,0.1,0.4,0.3c-0.3-0.1-0.4,0.2-0.6,0.2H-42
		c0,0.2-0.1,0.1-0.1,0c-0.1-0.2-0.3-0.4-0.5-0.4c-0.2-0.1-0.3-0.2-0.5-0.3c0,0-0.1-0.1-0.1,0l0,0l0,0l0,0c0,0,0,0,0.1,0.1
		C-43,8.5-43,8.8-43,9.1c0.1-0.1,0.1-0.2,0.2,0c0.2,0.3,0.3,0.7,0.2,1.1c0,0.2,0,0.4,0.1,0.6c0.2-0.7,0.3-1.4-0.3-2
		c0.3,0.1,0.4,0.3,0.5,0.5c0.2,0.3,0.2,0.7,0.3,1c0,0.3,0,0.6,0,0.8c-0.2,0.5-0.4,0.7-0.9,0.6c-0.2,0-0.4-0.1-0.6-0.2
		c-0.5-0.4-0.7-0.8-0.6-1.4c0-0.2,0.2-0.4,0.3-0.6c0-0.1,0.1-0.1,0.1-0.2c0,0,0-0.1,0.1-0.1l0,0c0.3-0.4,0.3-0.8-0.1-1.2
		c0.3,0,0.6,0.1,0.8,0.1c0.2,0.1,0.4,0.1,0.7,0.2c0.1,0,0.3,0.1,0.3-0.1C-41.9,8-42,8-42.2,8l0,0c0-0.1-0.1-0.1-0.1-0.1l0,0
		c0-0.1-0.1-0.1-0.2-0.1l0,0c-0.1-0.1-0.1-0.1-0.3-0.1l0,0c0-0.1-0.1-0.1-0.1-0.1l0,0c-0.3-0.3-0.7-0.3-1-0.5c0.8,0.2,0.9-0.5,1.1-1
		c0.1,0.1,0,0.2,0.1,0.3c0.2-0.5,0.6-0.8,1-0.9l0,0c-0.1,0.1-0.3,0.2-0.4,0.4c0,0-0.1,0-0.1,0.1l0,0l0,0l0,0h0.1
		c0.6-0.3,1.2-0.3,1.7,0.2c0.4,0.3,0.7,0.6,1.1,1c0.5,0.5,0.8,1.1,1.1,1.7c0.2,0.4,0.3,0.8,0.5,1.1c0.1,0.2,0.2,0.4,0.2,0.6l0,0l0,0
		c-0.1,0.1,0,0.1,0,0.2c0.2,0.7,0.3,1.3,0.4,2c0,0.1,0,0.2,0,0.3c0.1,1.3,0.5,2.5,1.6,3.4c0.1-0.9,0.1-1-0.6-1.4
		c-0.1-0.1-0.2-0.1-0.3-0.2l0,0c0.1-0.1,0.2,0,0.3,0s0.2,0.1,0.3,0.1s0.1,0.1,0.2,0.1c0.2,0.1,0.3,0,0.3-0.2c0-0.3,0-0.6,0.1-0.9
		c0-0.1,0-0.3-0.1-0.4c0-0.2-0.1-0.3-0.2-0.4c0.2,0,0.2,0.1,0.4,0.1c0-0.3-0.1-0.4-0.3-0.6c0.2,0,0.3,0.1,0.5,0.1
		c0-0.2,0-0.3-0.1-0.5c0-0.2-0.1-0.4-0.1-0.6c0.2,0.1,0.2,0.3,0.3,0.4l0,0l0,0l0,0c-0.1-0.4-0.2-0.8-0.1-1.2c0,0,0,0,0-0.1l0,0l0,0
		c0,0.1,0,0.2,0.1,0.4c0-0.2,0-0.3,0-0.5s0.1-0.5,0.1-0.7c0.1,0.3,0,0.7,0.1,1c0.1-0.6,0.1-1.3,0.4-1.9c0.1,0.3,0,0.5,0.1,0.8
		c0.2-0.5,0.3-1,0.5-1.5c0-0.1,0.1-0.1,0.1-0.2c0.4-0.7,0.4-0.7-0.4-1c-0.3-0.2-0.6-0.3-1-0.3c-0.1-0.1-0.3-0.1-0.4-0.1
		c-0.2-0.1-0.3-0.1-0.5-0.2c-0.1,0-0.2,0-0.2,0c-0.4-0.1-0.8-0.1-1.2-0.2c0.3-0.3,0.6-0.4,0.9-0.3c0.1,0,0.3,0,0.4,0.1
		C-35.7,6-35.6,6-35.4,6c0.6,0.2,1.2,0.4,1.8,0.6c0.3,0.1,0.5,0.2,0.8,0.4c-0.3,0.4-0.2,0.9-0.3,1.3c0,0-0.1,0.1,0,0.1
		c0,0,0-0.1,0.1-0.1l0,0c0.3-0.4,0.4-0.8,0.3-1.3c0.2,0.1,0.3,0.1,0.5,0.2c0,0.1,0,0.2,0,0.2l0,0l0,0l0,0c0-0.1,0.1-0.2,0.1-0.2
		C-32,7.1-32,7-31.9,6.9c0.2-0.2,0.5-0.5,0.8-0.7c-0.1,0.2-0.2,0.4-0.2,0.5c0,0,0,0.1-0.1,0.1l-0.1,0.1c0,0,0,0,0,0.1c0,0,0,0,0-0.1
		c0.1,0.1,0.1,0,0.2-0.1l0.1-0.1c0.3-0.3,0.7-0.5,1-0.8h0.1c-0.1,0.2-0.3,0.4-0.4,0.7c0.9-0.6,1.3-0.7,1.7-0.6
		c-0.4,0.1-0.7,0.3-1,0.6c0.5,0,1.1-0.2,1.6-0.2c0.5,0.1,0.9,0.2,1.3,0.4c0,0,0.1,0.1,0.1,0c0,0.1,0,0.1,0.1,0.1l0,0
		c0,0,0,0.1,0.1,0.1c0,0,0,0.1,0.1,0.1C-26.8,7-27,6.9-27.3,6.9c-0.1-0.1-0.3-0.1-0.5-0.1c0.1,0.1,0.2,0.2,0.3,0.2
		c0.4,0.2,0.7,0.5,1.1,0.7c0.5,0.4,0.9,0.9,1.2,1.5c0.1,0.3,0.3,0.6,0.2,0.9c0,0.1,0,0.3-0.2,0.5c0.1-0.4,0-0.8-0.2-1.1
		c-0.1-0.3-0.3-0.5-0.5-0.7C-26,8.7-26,8.5-26.2,8.6c0-0.1,0-0.1,0-0.1s0-0.1-0.1-0.1l0,0l0,0c0.1,0,0.1,0,0.1,0.1v0.1
		c0.1,0.1,0.2,0.2,0.2,0.3c0.1,0.2,0.2,0.4,0.3,0.6c0,0.3,0.1,0.6,0,0.9c-0.1-0.2-0.1-0.5-0.2-0.6c-0.2-0.6-0.7-1.1-1.3-1.4
		c-0.2-0.2-0.7-0.4-1.1-0.5l0,0c-0.1-0.1-0.2-0.1-0.3-0.1c-0.2-0.2-0.5-0.1-0.7-0.2h-0.1c0,0.1,0,0,0.1,0.1c0,0.1,0.2,0.1,0.2,0.2
		c-0.4-0.2-0.8-0.4-1.3-0.3c0.2,0.1,0.4,0.2,0.7,0.3c-0.3,0-0.4,0.2-0.6,0.1c0,0-0.1-0.1-0.1,0c0,0,0,0,0.1,0.1c0,0.1,0,0.1,0,0.1
		c-0.2-0.1-0.4-0.1-0.6-0.2c-0.2,0-0.5,0-0.6,0.3c0.2,0,0.3,0,0.5,0c0.1,0,0.2,0,0.2,0.1s-0.1,0.1-0.2,0.2c-0.1,0-0.2,0-0.2,0
		c-0.2,0-0.5,0.1-0.7,0.3l0,0l0,0l0,0c0.2,0,0.4-0.1,0.7,0c-0.2,0.3-0.4,0.6-0.7,0.9c-0.3,0.2-0.5,0.4-0.8,0.6
		c-0.1,0-0.1,0.1-0.2,0.2c0.1,0,0.1-0.1,0.2-0.1c0.2-0.1,0.4-0.2,0.7-0.3c0,0.4-0.4,0.5-0.6,0.7c-0.2,0.1-0.3,0.2-0.4,0.4
		c-0.1,0-0.1,0.1-0.1,0.1l0,0l0,0l0,0c0.1,0,0.1-0.1,0.2-0.1c0.2-0.1,0.3-0.2,0.5-0.3c0.1,0,0.2-0.2,0.2,0.1c-0.1,0.3,0,0.6-0.2,0.8
		c-0.1,0.1-0.2,0.2-0.2,0.3c-0.1,0-0.1-0.1-0.1-0.1c-0.2,0.1-0.2,0.3-0.3,0.4c0-0.1,0-0.2,0-0.3s0-0.2-0.1-0.2c0,0.1,0,0.1,0,0.2
		c-0.1,0.1-0.1,0.2-0.2,0.3c-0.1-0.1-0.1-0.3-0.2-0.5c-0.1,0.3-0.1,0.6-0.2,0.8c0,0,0,0.1-0.1,0.1v-0.1v-0.1c0.1-1,0.3-2,0.8-2.9
		c0.8-1.4,2.3-2.8,4.4-2.3c0.3,0.1,0.5,0.1,0.8,0.2c0-0.1-0.1-0.1-0.1-0.1C-28.4,7.1-28.5,7-28.7,7c-1.3-0.3-2.5-0.1-3.4,0.7
		c-1.4,1.3-2.1,2.9-2.5,4.8c0,0,0,0,0,0.1s-0.1,0.1,0,0.2c-0.1,0.2-0.1,0.3-0.1,0.5c-0.1,0.3-0.1,0.6-0.1,1l0,0
		c-0.1,0.6-0.1,1.2-0.1,1.8c0,0.1,0,0.2,0.1,0.2c0.1,0,0.2,0,0.2-0.1c0.1-0.7,0.4-1.4,0.7-2.1c0.3-0.6,0.7-1.1,1.1-1.6
		c0.1-0.1,0.2-0.2,0.3-0.3l0.1-0.1c0.1-0.1,0.2-0.3,0.3-0.4c0.1-0.1,0.1-0.1,0.2-0.2c0,0,0,0,0.1-0.1v-0.1c0.1,0,0.1,0,0.1-0.1h0.1
		l0,0c0,0-0.1,0-0.1,0.1c0,0,0,0-0.1,0.1v0.1c0,0,0,0-0.1,0.1c-0.1,0-0.1,0.1-0.2,0.2c0-0.1,0.1-0.2,0.1-0.2
		c0.3-0.3,0.6-0.6,0.9-0.8c0.2-0.1,0.4-0.3,0.7-0.4c-0.1,0.2-0.3,0.4-0.4,0.5c-0.1,0-0.1,0.1-0.1,0.2l-0.1,0.1
		c-0.1,0.1-0.2,0.2-0.1,0.3l0,0l0,0c0-0.1,0.1-0.2,0.2-0.3l0.1-0.1c0-0.1,0.1-0.1,0.1-0.2c0.3-0.3,0.7-0.5,1.1-0.8
		c-0.3-0.2-0.5-0.5-0.8-0.6c-0.2-0.1-0.3-0.2-0.5-0.4c0.4-0.3,0.4-0.3,0.8,0c0.3,0.3,0.6,0.5,1,0.8c0.1,0.1,0.2,0.2,0.2,0.3
		c0.1,0,0.2,0,0.2-0.1l0,0c0,0,0.1,0,0.1-0.1l0,0c0.4-0.1,0.7-0.3,1.1-0.3c-0.3,0.2-0.7,0.3-0.9,0.6c0.2,0,0.2,0,0.3,0
		c0.1,0,0.2,0,0.2,0c0.5,0,0.9-0.1,1.4-0.1c0.2,0,0.3,0.1,0.5,0.1c0,0.1-0.1,0.1-0.1,0.1c-0.2,0-0.4,0-0.7,0.1
		c0.5,0.1,0.9,0.2,1.3,0.3c0,0,0,0,0.1,0l0,0c-0.1,0.1-0.1,0.1-0.2,0.1c-0.4,0-0.8,0.1-1.2,0.1c0.3,0.1,0.7,0.2,1,0.2l0,0l0,0
		c0.1,0.1,0.2,0.1,0.3,0C-25.2,11.2-24.9,11.3-24.6,11.3z M-23.9,14.1C-23.8,14.1-23.8,14.1-23.9,14.1c0.1,0.1,0.1,0.1,0.1,0.2h0.1
		c0,0.1,0,0.1,0,0.2l0,0l0,0l0,0c0-0.1,0-0.1,0-0.2h-0.1C-23.7,14.2-23.7,14.2-23.9,14.1C-23.8,14.1-23.8,14-23.9,14.1
		c0-0.1,0-0.1,0-0.1l0,0l0,0l0,0C-23.9,14-23.9,14-23.9,14.1z M-41.4,18.4L-41.4,18.4L-41.4,18.4L-41.4,18.4c0.1-0.1,0-0.2,0-0.2
		c0,0.1,0.2-0.2,0.1,0.1c-0.1,0.2-0.1,0.5-0.2,0.7c0,0,0,0,0.1,0c0.5-1.4,0.6-2.8,0.9-4.2c0,0.1-0.1,0.2-0.1,0.3
		c-0.2,1-0.5,2.1-0.8,3.1C-41.3,18.2-41.3,18.3-41.4,18.4z M-42.9,14.3c0,0.1-0.1,0.1-0.1,0.2c-0.2,0.2-0.3,0.4-0.4,0.7
		c-0.3,0.6-0.3,0.7-0.2,1.2c0,0,0-0.1,0.1-0.1c0.1-0.5,0.3-1.1,0.5-1.6c0-0.1,0.1-0.1,0-0.2C-42.8,14.5-42.9,14.4-42.9,14.3
		L-42.9,14.3L-42.9,14.3z M-38.8,19.7c0.1-0.1,0.1-0.2,0.2-0.3c0-0.1,0-0.2,0.1-0.2c0.3-0.9,0.3-1.8,0.2-2.8c0-0.6-0.1-1.2-0.2-1.9
		c0,0.7,0,1.5,0,2.2c0,0.8-0.2,1.5-0.4,2.2l0,0l0,0c0,0,0,0,0-0.1c0.1,0,0.1-0.2,0.2-0.2c0.1,0.2-0.1,0.4,0,0.7
		C-38.7,19.4-38.8,19.5-38.8,19.7L-38.8,19.7c0,0.1,0,0.1,0,0.1C-38.8,19.7-38.8,19.7-38.8,19.7z M-28.5,10.2
		C-28.5,10.2-28.5,10.1-28.5,10.2C-28.5,10.1-28.5,10.1-28.5,10.2c-0.1,0-0.2,0-0.2,0.1C-28.7,10.3-28.6,10.2-28.5,10.2z M-27.5,7.4
		L-27.5,7.4L-27.5,7.4L-27.5,7.4c-0.1-0.1-0.3-0.2-0.4-0.2C-27.8,7.3-27.7,7.4-27.5,7.4z M-30.4,10.6c0.3-0.2,0.5-0.3,0.7-0.5
		c0.1,0,0.2-0.1,0.1-0.2c-0.1-0.1-0.2-0.2-0.3,0C-30,10.2-30.2,10.4-30.4,10.6c-0.1,0-0.2,0.1-0.3,0.2
		C-30.5,10.8-30.5,10.7-30.4,10.6z M-41.9,17.6c0.5-0.9,0.6-1.9,0.9-2.9c-0.3,0.8-0.6,1.6-0.9,2.3c-0.1,0.1,0,0.2,0.1,0.1l0,0
		C-41.8,17.3-42,17.5-41.9,17.6L-41.9,17.6L-41.9,17.6L-41.9,17.6z M-43.8,16.3L-43.8,16.3L-43.8,16.3L-43.8,16.3L-43.8,16.3z
		 M-26.5,12.3C-26.5,12.3-26.4,12.3-26.5,12.3c0-0.1,0-0.1,0-0.1S-26.6,12.2-26.5,12.3L-26.5,12.3z M-30.6,6.7L-30.6,6.7L-30.6,6.7
		L-30.6,6.7z M-39.1,8L-39.1,8L-39.1,8L-39.1,8L-39.1,8z"/>
	<path class="st0" d="M-46.7,30.7C-46.7,30.6-46.7,30.6-46.7,30.7c-0.6-0.4-1.1-0.9-1.6-1.3c-0.4-0.4-0.8-0.9-1.2-1.3
		c-0.1-0.2-0.2-0.3-0.3-0.5c1,0,2,0,3,0c0-0.1-0.1-0.1-0.1-0.1c-1-0.1-2-0.2-3-0.3c-0.2,0-0.3-0.1-0.4-0.2c-0.1-0.2-0.3-0.4-0.4-0.6
		c-0.2-0.3-0.4-0.6-0.5-0.9c-0.1-0.3-0.3-0.6-0.4-0.9c-0.3-0.7-0.5-1.3-0.7-2c-0.1-0.4-0.1-0.8-0.2-1.2c0-0.3-0.1-0.6-0.1-0.9
		c0-0.1,0-0.2,0-0.4c0-0.3,0-0.6,0-0.9c0.1-0.1,0.1-0.1,0-0.2l0,0l0,0c0.1,0,0-0.1,0-0.1l0,0l0,0c0,0,0,0,0-0.1v-0.1l0,0h0.1
		c0.1,0,0.2,0,0.3,0h0.1c0,0,0,0,0.1,0c0,0.2,0,0.5,0,0.7s-0.1,0.3,0.1,0.5c0.1,0,0.3,0.1,0.4,0.1c0.5,0.2,1,0.4,1.6,0.6
		c0.6,0.2,1.2,0.5,1.9,0.7c0.1,0,0.1,0.1,0.1-0.1c0.2,0,0.4,0.3,0.7,0.3c-0.2-0.1-0.4-0.3-0.6-0.4c-0.1-0.1,0,0.1,0,0.1
		c-0.4-0.2-0.6-0.5-0.9-0.7c0.4,0.1,0.9,0.2,1.3,0.4c0,0,0,0,0-0.1c-0.9-0.4-1.7-0.8-2.4-1.3l0,0c0.2,0,0.4,0.1,0.6,0.1
		c0.1,0.1,0.2,0.1,0.3,0.1c0.5,0.2,1.1,0.3,1.7,0.4c-0.4-0.2-0.8-0.4-1.2-0.6c0.6,0.1,1.1,0.3,1.7,0.4c0.1,0,0.2,0.1,0.2-0.1
		c0.1-0.1-0.1-0.1-0.1-0.2c-0.5-0.3-1.1-0.6-1.6-0.8c-0.1-0.1-0.4-0.1-0.5-0.3c0.3,0,0.6,0.1,1,0.1c0.2,0.1,0.5,0.1,0.7,0.1
		c0.5,0.1,0.4,0.2,0.7-0.6c-0.2,0.1-0.3,0.2-0.5,0.2c-0.1-0.1-0.1-0.2,0-0.3c0.1-0.1,0.1-0.1,0.2-0.2c0.2-0.1,0.2-0.3,0.4-0.4
		c0.1-0.1,0-0.1,0-0.2c-0.1,0-0.2-0.1-0.3-0.1c-0.2-0.1-0.5-0.3-0.7-0.4c0.3,0,0.6,0.2,1,0.2l0,0c0.2,0.1,0.3,0.1,0.4-0.1
		c0-0.1,0.1-0.1,0.1-0.2c0.2-0.3,0.2-0.5,0.3-0.8c0.1-0.2-0.2-0.2-0.2-0.3c0.1,0,0.1,0,0.2,0c0,0,0,0,0.1,0c0-0.1,0-0.1-0.1-0.1
		c-0.4-0.3-0.8-0.5-1.2-0.7c0,0,0-0.1,0.1-0.1c0.4,0.2,0.8,0.3,1.2,0.5c0.2,0.1,0.2,0,0.2-0.1c0.2-0.2,0.1-0.4-0.1-0.5
		c-0.3-0.2-0.5-0.4-0.7-0.5c0-0.1-0.2-0.1-0.2-0.2c0.2,0.1,0.3,0.1,0.5,0.2c0.3,0.1,0.5,0.2,0.8,0.4c0.1,0.1,0.2,0,0.2-0.1
		c0.1-0.3,0.3-0.6,0.4-0.9c0.3-0.4,0.5-0.9,0.8-1.3c0.1-0.1,0.1-0.3-0.1-0.3c-0.5-0.2-0.9-0.6-1-1.2c-0.1-0.5,0-0.9,0.2-1.4
		c0.1-0.3,0.2-0.5,0.3-0.8c0.1-0.3,0-0.4-0.3-0.5c-0.3-0.1-0.5,0-0.7,0.1c-1,0.5-2,1.3-2.8,2.1c-0.2,0-0.4,0-0.6,0
		c-0.2-0.2,0-0.3,0.1-0.5c0.5-0.4,0.9-0.8,1.4-1.2c0.4-0.2,0.7-0.4,1.1-0.7C-46,7.5-46,7.3-45.7,6.9c0.4-0.3,0.9-0.4,1.4-0.4
		c-0.1,0.1-0.2,0.1-0.3,0.2c0,0-0.1,0,0,0c0,0,0,0,0.1,0c0,0,0.2-0.1,0.1,0c0,0.1,0,0.1,0.1,0.1c0.5,0.1,1,0.2,1.5,0.4l0,0
		c0,0.1,0.1,0.1,0.1,0.1l0,0c0.1,0.1,0.1,0.1,0.3,0.1l0,0c0,0.1,0.1,0.1,0.2,0.1l0,0c0,0,0.1,0,0.1,0.1l0,0c0,0.1,0.2,0.1,0.1,0.2
		c-0.1,0.1-0.1,0-0.2,0c-0.1-0.1-0.3-0.1-0.4-0.2l0,0l0,0C-43,7.3-43.5,7.2-44,7.2c-0.6,0-1.2,0-1.7,0.5c0.4,0,0.7,0,1.1,0
		c0.2,0,0.4,0.1,0.6,0.3c0,0.4-0.2,0.8-0.4,1.1c-0.2,0.4-0.3,0.8-0.2,1.3v0.1v0.1l0,0c0.2,0.4,0.4,0.7,0.9,0.8h0.1
		c0.2,0,0.2,0.1,0.2,0.3c-0.4,0.6-0.8,1.1-1,1.7c-0.3,0.5-0.5,1.1-0.7,1.6c-0.1,0.2-0.2,0.5-0.3,0.7c-0.1,0.2-0.1,0.4-0.2,0.5
		c-0.2,0.5-0.4,1-0.8,1.3c-0.2,0.2-0.4,0.2-0.5,0.4c0.4,0,0.6-0.3,1-0.4c-0.5,0.4-0.5,1-0.9,1.4c0.3-0.1,0.4-0.3,0.5-0.5
		c0.1-0.3,0.4-0.4,0.7-0.5c-0.1,0.5-0.3,1-0.5,1.4c-0.3,0.4-0.5,0.7-0.8,1.1c-0.1,0-0.1,0.1-0.1,0.1c0.1,0.1,0.2-0.2,0.4,0
		c-0.1,0.4-0.3,0.7-0.2,1.1c0.2-0.4,0.4-0.7,0.7-1c0.2,0.4,0.2,0.8,0.1,1.2c0,0.1-0.1,0.1,0,0.2c-0.2,0.7-0.3,1.4-0.4,2.1
		c0,0.2,0,0.3-0.1,0.5c0.1,0,0.1-0.1,0.1-0.2c0.1-0.3,0.2-0.6,0.3-1c0.2,0.2,0.3,0.5,0.4,0.7c0.1,0.4,0.3,0.8,0.4,1.3
		c0.1-0.2,0.1-0.5,0.3-0.7c0.2,0.2,0.2,0.5,0.3,0.8c0.1,0.3,0.1,0.6,0.2,0.9c0,0.5,0,1.1,0.5,1.5c-0.1-0.5-0.2-0.9-0.1-1.4l0,0
		c0,0,0.1,0,0.1,0.1c0.4,0.5,0.6,1.1,0.9,1.7c0-0.3,0-0.6-0.1-0.8v-0.1l0,0c0.2,0.2,0.3,0.5,0.5,0.8c0.1,0.3,0.2,0.5,0.4,0.8
		c0.3,0.6,0.7,1.2,1.2,1.6l0,0c0,0,0,0,0.1,0.1c0.1,0.1,0.1,0.1,0.2,0.2c0.3,0.1,0.4,0.4,0.4,0.6c0,0.3,0,0.6,0.2,0.8
		c0,0.1,0.1,0.2,0.2,0.4c-0.2,0-0.3,0-0.5-0.1c-0.1,0-0.2-0.1-0.3-0.1c-0.6-0.2-1.1-0.4-1.8-0.4c-0.7-0.1-1.3-0.5-2-0.7
		c0,0,0,0-0.1,0c-0.2-0.2-0.6-0.2-0.8-0.5c1.2,0,2.5-0.1,3.7-0.1c-0.1,0.1-0.2,0-0.2,0c-1.2-0.1-2.4-0.2-3.6-0.3l0,0
		c-0.1-0.1-0.2,0-0.3,0c-0.1,0-0.3,0-0.4,0C-46.6,30.7-46.6,30.7-46.7,30.7z M-48.2,22.9L-48.2,22.9c-0.4-0.2-0.6-0.3-0.9-0.4v-0.1
		l0,0c0.8,0.1,1.5,0.2,2.2,0.4c0,0,0,0,0.1,0c-0.5-0.2-1-0.5-1.5-0.6h-0.1l0,0c-0.1-0.2-0.2-0.2-0.3-0.2l0,0
		c-0.3-0.2-0.6-0.3-0.9-0.4c-0.4-0.2-0.7-0.3-1.1-0.5c-0.2-0.1-0.4-0.2-0.6-0.3h0.1c0.2,0.1,0.4,0.1,0.7,0.2c0.2,0,0.5,0.2,0.9,0.2
		c0,0,0,0.1,0,0l0,0c-0.3-0.2-0.5-0.3-0.7-0.3c0-0.1-0.1-0.1-0.2-0.1h-0.1c-0.5-0.2-1-0.5-1.5-0.7c0,0.8,0.1,1.5,0.3,2.2
		c0,0.1,0,0.2,0.2,0.2c0.5,0.1,1,0.3,1.5,0.3c0.1,0,0.2,0,0.3,0.1h0.1c0.4,0.1,0.8,0.2,1.2,0.2c0,0,0.1,0.1,0.2,0h0.1
		c0.4,0.1,0.8,0.2,1.3,0.2c-0.4,0-0.7-0.1-1-0.3C-48,23-48,22.9-48.2,22.9C-48.1,22.9-48.1,22.9-48.2,22.9L-48.2,22.9z M-48.8,26.6
		h0.1H-48.8L-48.8,26.6c-0.5-0.2-0.9-0.4-1.4-0.6c0,0.2,0.2,0.3,0.3,0.3C-49.5,26.4-49.2,26.5-48.8,26.6z M-50.8,23.3
		c0.2,0.1,0.3,0.1,0.5,0.1c0.8,0.1,1.5,0.3,2.3,0.4c-1.1-0.5-2.2-0.9-3.4-1.3c-0.1,0-0.2-0.1-0.3,0c-0.1,0.1,0,0.2,0,0.3v0.1
		c0,0.1,0,0.3,0.2,0.3C-51.2,23.3-51,23.3-50.8,23.3L-50.8,23.3L-50.8,23.3z M-51.5,23.3c0.1,0.2,0.1,0.3,0.1,0.5
		c0.1,0.2,0.2,0.3,0.5,0.3c0.6,0.1,1.2,0.2,1.9,0.4c0.6,0.1,1.2,0.2,1.8,0.4l0,0C-48.6,24.3-50,23.8-51.5,23.3z M-51.1,24.4
		c0.1,0.2,0.2,0.4,0.2,0.6c0,0.1,0.1,0.1,0.2,0.1c1.1,0.2,2.2,0.4,3.3,0.6C-48.5,25.3-49.8,24.9-51.1,24.4z M-50.6,25.3
		c0.1,0.2,0.1,0.3,0.2,0.4c0.6,0.1,1.1,0.2,1.7,0.3l0,0C-49.3,25.7-50,25.5-50.6,25.3z M-47.1,20.2C-47.1,20.2-47.2,20.2-47.1,20.2
		C-47.2,20.2-47.1,20.3-47.1,20.2C-47.1,20.3-47.1,20.3-47.1,20.2L-47.1,20.2z M-47,25.8L-47,25.8C-47.1,25.8-47.1,25.8-47,25.8
		C-47.1,25.8-47.1,25.8-47,25.8L-47,25.8z"/>
	<path class="st0" d="M-36.2,4.2c-0.1,0.3-0.2,0.7-0.3,1c-0.4,0.7-1.1,1-1.9,1h-0.1c-0.4-0.2-0.8-0.4-1-0.8
		c-0.1-0.1-0.2-0.1-0.3-0.1c-0.2,0-0.3,0.2-0.5,0.1c-0.3-0.1-0.6-0.1-1-0.2c0.2-0.2,0.4-0.3,0.6-0.5c-0.5,0-0.9,0.2-1.3,0.5
		C-42.1,5.1-41.9,5-42,5c-0.2,0.1-0.4,0.4-0.5,0.6c0,0-0.1,0.1-0.2,0.1c-0.1,0,0-0.1,0-0.2c0-0.3,0.2-0.6,0.5-0.8
		c-0.2,0-0.4,0.1-0.6,0.2c0,0.1,0.2,0,0.2,0.1c0,0.2-0.3,0.2-0.4,0.2c0,0.1,0.2,0.1,0.2,0.3c-0.2,0.1-0.4,0-0.6-0.1l-0.1-0.1
		c-0.1,0.1,0,0.1,0,0.1c0.1,0.1,0.2,0.2,0.3,0.4c-0.3,0-0.4-0.1-0.6-0.3c0,0.2,0.1,0.3,0.2,0.5c-0.2,0-0.4-0.1-0.5-0.2
		c0,0.1,0,0.1,0.1,0.2c0.2,0.2,0.5,0.2,0.7,0.4c-0.4,0-0.7,0-0.9,0c-0.4-0.1-0.6-0.4-0.6-0.7c-0.1-0.4-0.1-0.8,0.2-1
		c0.4-0.4,0.4-0.8,0.5-1.3c0,0,0,0,0-0.1c0.2,0.2,0.4,0.5,0.7,0.6c0-0.2,0-0.3,0-0.5c0.2-0.6,0.6-1.2,1-1.8c0,0.4,0,0.8,0.1,1.1
		c0,0.2,0,0.4,0.2,0.6c0.1-0.4,0.4-0.7,0.6-1c0.1-0.1,0.2-0.2,0.3-0.3c0.4-0.4,0.7-0.7,0.9-1.2c0.2,0.2,0.1,0.4,0.2,0.6
		c0,0.1,0,0.1,0,0.2c-0.1,0.1,0,0.2,0,0.3c-0.1,0.5-0.2,0.9-0.1,1.4c0,0.1,0,0.2,0.1,0.3c0.2,0.2,0.3,0.1,0.3-0.1
		c0-0.1,0.1-0.3,0.1-0.4c0.2-0.4,0.5-0.6,0.9-0.8c0.6-0.3,1.3-0.4,1.9-0.7c0.1,0,0.2-0.2,0.3-0.2c0.1,0.2,0,0.4,0,0.6c0,0,0,0,0,0.1
		C-36.9,2.9-37.5,3.4-38,4c0.4-0.1,0.8-0.1,1.2-0.1c0.4,0,0.8,0,1.2-0.1c0,0.1,0,0.2,0,0.4C-36.2,4-36.2,4.1-36.2,4.2z"/>
	<path class="st0" d="M-23.6,26.4c-0.1,0.7-0.3,1.3-0.5,2c-0.5,1.2-1.1,2.3-1.9,3.4c-0.4,0.5-0.8,1-1.3,1.6c-0.4,0.4-0.8,0.8-1.3,1
		c0-0.2,0.2-0.4,0.4-0.5V34l0.1-0.1c0.2-0.1,0.3-0.3,0.4-0.4c0.2-0.2,0.4-0.4,0.6-0.6c1.4-1.7,2.6-3.5,3-5.8
		c0.5-2.5,0.5-4.9-0.3-7.3c-1-3-3.3-4.7-6.3-5.3c-0.7-0.1-1.3-0.1-1.9,0.3c-0.1,0-0.2,0.1-0.3,0.2c-0.3,0.2-0.5,0.4-0.8,0.6
		c-0.1,0.1-0.1,0.1-0.1-0.1c0.3-0.3,0.6-0.7,1-0.9c0.4-0.2,0.8-0.4,1.2-0.5c0.2,0,0.4,0,0.5,0s0.2,0,0.3,0c0.2,0,0.4,0.1,0.6,0.1
		c0.7,0.2,1.4,0.4,2.1,0.8c0.9,0.5,1.6,1.1,2.3,1.8c0.1,0.1,0.2,0.3,0.4,0.3l0,0l0,0l0,0c-0.2-0.7-0.6-1.4-1-2.1l-0.1-0.1
		c-0.3-0.1-0.6-0.4-0.9-0.5l-0.1-0.1c-0.1-0.1-0.2-0.1-0.3-0.2c0.1,0.1,0.2,0.2,0.2,0.3l0.1,0.1c0.4,0.5,0.8,0.9,1.1,1.5l0,0
		c-0.6-0.5-1.2-0.9-1.8-1.2c-0.1-0.1-0.2-0.2-0.3-0.3c-0.4-0.4-0.7-0.7-1.2-0.9l0,0l0,0c0,0,0,0,0-0.1h0.1c0.2,0.1,0.5,0.1,0.7,0.2
		c0,0,0,0,0-0.1c-0.2-0.1-0.4-0.2-0.7-0.3l0,0h-0.1c-0.3-0.1-0.7-0.2-1-0.3c-0.1,0-0.1,0-0.2-0.1c0.1,0,0.1,0,0.2,0
		c0.2,0,0.5-0.1,0.7-0.1c0.1,0,0.1,0,0.2,0h0.1c0.8,0,1.6,0.3,2.3,0.7c-0.1-0.2-0.3-0.4-0.4-0.6c0.5,0.1,0.7,0.3,0.9,0.6
		c0.3,0.6,0.7,1.1,1,1.7c0.3,0.6,0.5,1.3,0.8,1.9c0,0.1,0.1,0.3,0.2,0.4c0.1,0.1,0.3,0.1,0.3,0.3c-0.3,0-0.5-0.2-0.7-0.3
		c0,0,0,0-0.1,0c0,0,0,0-0.1-0.1l-0.1-0.1c0,0,0,0-0.1,0l0,0c0,0,0,0,0.1,0c0,0.1,0,0.1,0.1,0.2c0,0.1,0,0.1,0.1,0.1
		c0,0,0,0,0.1,0.1c0.2,0.2,0.4,0.3,0.6,0.5l0,0c0.3,0.2,0.5,0.5,0.8,0.7c0,0,0,0.1-0.1,0.1c-0.3-0.1-0.5-0.3-0.8-0.3
		c0.2,0.2,0.3,0.4,0.5,0.6c0.3,0.6,0.6,1.1,0.7,1.8c-0.2-0.2-0.3-0.4-0.5-0.6c0,0,0-0.1-0.1-0.1c0-0.1,0-0.2-0.2-0.1c0,0,0,0,0-0.1
		l0,0c0,0,0,0,0,0.1s0.1,0.1,0.1,0.2c0,0,0,0.1,0.1,0.1c0.3,0.7,0.5,1.4,0.7,2.2c-0.2-0.1-0.3-0.4-0.4-0.5c0.1,0.5,0.2,0.9,0.4,1.4
		c0,0.3,0.1,0.5,0.1,0.8c-0.1-0.2-0.2-0.4-0.2-0.6c0,0.4,0,0.7,0,1.1c0,0.3,0,0.6-0.1,0.9s-0.1,0.6-0.1,0.9
		C-23.6,26.3-23.6,26.3-23.6,26.4z M-26.2,14.5C-26.2,14.4-26.2,14.4-26.2,14.5c-0.2-0.3-0.3-0.6-0.5-0.8c-0.1-0.1-0.1-0.2-0.2-0.2
		c-0.6-0.2-1.1-0.4-1.7-0.5C-27.8,13.3-26.9,13.8-26.2,14.5L-26.2,14.5L-26.2,14.5L-26.2,14.5z M-28.2,13.4
		C-28.3,13.4-28.3,13.4-28.2,13.4C-28.3,13.4-28.4,13.4-28.2,13.4C-28.3,13.4-28.3,13.4-28.2,13.4C-28.2,13.4-28.3,13.5-28.2,13.4
		C-28.3,13.5-28.2,13.5-28.2,13.4C-28.2,13.5-28.2,13.4-28.2,13.4z"/>
	<path class="st0" d="M-36.4,35C-36.4,35-36.3,35-36.4,35c0.3,0,0.5,0,0.8,0c-0.1-0.1-0.3-0.2-0.4-0.1c-0.3-0.1-0.1-0.2-0.1-0.4
		c0.1,0,0.1,0.1,0.2,0c-0.1,0-0.1-0.1-0.2-0.1c0-0.1,0-0.2,0.1-0.1h0.1c0.2,0,0.4-0.1,0.5,0c0.1,0.1,0,0.3,0.1,0.5
		c0.1,0.2,0.1,0.3,0.3,0.4c0.2,0.1,0.4,0.1,0.6,0.1c-0.3,0.3-0.6,0.4-1,0.4c-0.1-0.1-0.2-0.1-0.2,0.1c0,0.2-0.1,0.4-0.1,0.7
		s0.1,0.6,0.4,0.7c0.3,0.1,0.5,0.3,0.8,0.4c0,0,0.1,0.1,0,0.1c-0.2,0.2-0.2,0.5-0.1,0.7c-0.2,0-0.2-0.1-0.3-0.2
		c-0.1-0.1-0.1-0.2-0.2-0.3c-0.1,0-0.2-0.1-0.2-0.1c-0.1,0-0.2-0.2-0.2,0.1c0,0.1-0.2,0.1-0.4,0.1c-0.1,0-0.3,0-0.4,0
		c-0.1,0-0.2,0-0.3,0c-0.3-0.2-0.6,0-0.8,0.2c-0.2,0.1-0.3,0.3-0.4,0.5c-0.1,0.1-0.2,0.2-0.3,0.3l-0.1-0.1c0-0.3-0.2-0.5-0.4-0.7
		c0.3,0,0.4,0.3,0.7,0.4c-0.1-0.2-0.2-0.3-0.3-0.5c0.6-0.2,0.8-0.3,0.9-0.6c-0.2,0.1-0.3,0.2-0.5,0.2c0-0.2,0.1-0.2,0.1-0.3
		c0.1,0,0.1-0.1,0.2-0.1h0.1l0,0c0.6-0.2,1.1,0,1.6,0.2l0,0l0,0l0,0c0-0.2-0.1-0.2-0.2-0.2c-0.3-0.2-0.6-0.2-1-0.2
		c0-0.3,0.2-0.3,0.4-0.3c0.2,0,0.4,0.1,0.7,0.1c-0.2-0.2-0.4-0.2-0.7-0.2c-0.1,0-0.2,0-0.2-0.1s0.1-0.3,0.2-0.2c0.2,0,0.3,0,0.5,0
		c-0.1-0.1-0.2-0.1-0.3-0.1s-0.2,0-0.2-0.1s0.1-0.2,0.3-0.2c0.1,0,0.2,0.1,0.4,0c-0.2-0.1-0.3-0.1-0.4-0.1
		C-36.6,35.2-36.3,35.1-36.4,35z"/>
	<path class="st0" d="M-40.4,36.2c0.1,0.2,0.1,0.6,0,0.7c-0.1,0.1-0.3,0.1-0.3,0c-0.1-0.2-0.3-0.3-0.5-0.2c-0.5,0-0.9,0.2-1.4,0.4
		c-0.3,0.2-0.7,0.4-1,0.6c-0.1,0.1-0.3,0.2-0.5,0c0.1-0.2,0.1-0.3-0.1-0.4c-0.1,0-0.2,0-0.1-0.1c0-0.1,0.1-0.1,0.2-0.1
		c0,0,0.1,0.1,0.1,0c0-0.3,0.2-0.2,0.3-0.1c0.1,0,0.2,0.1,0.3,0.2c0-0.1-0.1-0.2-0.1-0.3c0.1,0,0.2-0.1,0.4-0.1s0.3-0.1,0.4-0.3
		c0-0.1,0.1-0.1,0.2-0.1c0.4,0,0.8-0.1,1.1-0.2c0.3-0.1,0.5-0.3,0.6-0.6c0-0.2,0.2-0.1,0.3-0.2c0-0.1-0.2-0.1-0.2-0.2
		c0.1-0.3,0.3-0.1,0.5-0.2c-0.1-0.1-0.3,0-0.3-0.2s0.2-0.2,0.3-0.2c0-0.1-0.2-0.1-0.2-0.2c0-0.2,0.2-0.1,0.3-0.2
		c-0.1,0-0.1-0.1-0.2-0.1c0.2-0.6,0.2-0.6,0.8-0.6c0,0,0,0,0.1,0c-0.1,0.3-0.2,0.6-0.3,0.9v0.1c-0.1,0.3-0.1,0.6-0.1,0.9
		c0,0.6,0.2,0.8,0.8,0.8c0.2,0,0.4,0,0.2,0.4c0.1-0.2,0.1-0.3,0.2-0.4v0.1c-0.1,0.1-0.2,0.3,0,0.4c0.2,0.2,0,0.2-0.1,0.2
		c-0.1,0-0.2,0-0.3-0.1c-0.5-0.4-0.8-0.5-1.2-0.1C-40.3,36.5-40.2,36.3-40.4,36.2C-40.4,36.2-40.4,36.1-40.4,36.2
		C-40.5,36.2-40.5,36.2-40.4,36.2z M-43.8,37.2C-43.8,37.2-43.8,37.3-43.8,37.2C-43.7,37.2-43.8,37.2-43.8,37.2c0-0.1,0-0.2-0.1-0.2
		H-44C-44,37.1-43.9,37.2-43.8,37.2z"/>
	<path class="st0" d="M-51.9,17.6c0,0.1,0,0.2,0,0.3c0,0.3-0.2,0.4-0.4,0.3c-0.1,0-0.1-0.1-0.1-0.1c0-0.1,0-0.3,0-0.4
		c0.1-0.4,0.1-0.8,0.2-1.2c0.2-0.7,0.4-1.5,0.7-2.2c0.2-0.4,0.3-0.7,0.5-1.1c0.2,0,0.3,0,0.5,0c-0.2,0.5-0.5,1-0.6,1.5"/>
	<path class="st0" d="M-38.7,33.2C-38.7,33.2-38.8,33.1-38.7,33.2c0.1-0.2,0.2-0.2,0.3-0.3c0.7-0.4,1.1-1,1-1.7c0-0.1,0.1-0.1,0.1,0
		c0.2,0.1,0.2,0.3,0.3,0.4c0,0.2,0.1,0.3,0.1,0.5c0,0.3,0,0.6,0.1,0.9c0.1,0.2,0,0.2-0.2,0.2c-0.3,0-0.7,0-1,0.1
		C-38.2,33.2-38.5,33.2-38.7,33.2z"/>
	<path class="st0" d="M-49.9,12.3c-0.1,0.2-0.2,0.3-0.4,0.3c-0.1,0-0.2,0-0.2,0l0,0c0.2-0.5,0.5-0.8,0.8-1.3
		c0.1-0.1,0.1-0.2,0.2-0.3c0.2-0.3,0.5-0.5,1-0.4"/>
	<path class="st0" d="M-33.1,32.2c-0.1,0-0.2,0-0.3,0.1s-0.2,0-0.2-0.1c0-0.5,0-0.5,0.4-0.5c0.3,0,0.5,0,0.8-0.1
		c0.2,0,0.3-0.1,0.5,0l0,0C-32.3,31.8-32.7,32-33.1,32.2z"/>
	<path class="st0" d="M-38.8,39.2c-0.1-0.3-0.2-0.6-0.1-0.9c0-0.1,0-0.3,0.2-0.3c0.1,0,0.2,0.1,0.3,0.3c0,0.1,0,0.2,0,0.3
		c-0.1,0.2-0.1,0.3-0.1,0.5c0,0.1,0,0.2-0.1,0.2S-38.8,39.2-38.8,39.2z"/>
	<path class="st0" d="M-44.2,38.3c-0.1,0.2-0.2,0.2-0.3,0c-0.1-0.2-0.1-0.5-0.1-0.7c0-0.1,0.1-0.1,0.1-0.2c0.2,0,0.4,0,0.3,0.3
		c-0.1,0.1-0.1,0.2,0,0.3C-44.2,38-44.2,38.1-44.2,38.3C-44.2,38.2-44.2,38.2-44.2,38.3z"/>
	<path class="st0" d="M-40.5,38c0,0.1,0,0.1,0,0.2c0,0.2-0.1,0.1-0.2,0.1c-0.1-0.2-0.2-0.5-0.2-0.7c0-0.1,0.1-0.2,0.2-0.2
		c0.1,0,0.2,0.1,0.2,0.2S-40.5,37.9-40.5,38z"/>
	<path class="st0" d="M-43.6,36.4c0.1,0.2,0.1,0.3-0.1,0.3h-0.1c-0.4,0-0.5,0.2-0.7,0.5c-0.1-0.2,0-0.4,0-0.6c0.1,0,0.1-0.1,0.2-0.1
		s0.1-0.1,0.1-0.1c0.1,0,0.1,0.1,0.2,0C-43.9,36.4-43.7,36.3-43.6,36.4z"/>
	<path class="st0" d="M-35.6,30.5c-0.1-0.3-0.3-0.7-0.6-0.9c0.1-0.1,0.1,0,0.2,0c0.3,0.2,0.5,0.4,0.6,0.7c0,0.1,0.1,0.3,0.1,0.4v0.1
		l0,0l0,0C-35.5,30.8-35.4,30.6-35.6,30.5z"/>
	<path class="st0" d="M-40.3,37.6c-0.1-0.3-0.2-0.4-0.5-0.3c0.1-0.2,0.2-0.2,0.4-0.2C-40.3,37.2-40.2,37.4-40.3,37.6z"/>
	<path class="st0" d="M-43.2,36.3c0.1,0,0.2,0,0.4,0c-0.1,0.1-0.3,0.2-0.5,0.2s-0.1-0.1-0.1-0.2C-43.4,36.3-43.3,36.3-43.2,36.3z"/>
	<path class="st0" d="M-43.3,6.5c-0.2,0.1-0.4,0.2-0.7,0.2C-43.8,6.4-43.5,6.5-43.3,6.5z"/>
	<path class="st0" d="M-41.5,5.2C-41.5,5.1-41.6,5.1-41.5,5.2C-41.5,5.1-41.5,5.1-41.5,5.2C-41.5,5.1-41.5,5.1-41.5,5.2L-41.5,5.2z"
		/>
	<path class="st0" d="M-29.5,27.1c0.1-0.1,0.1-0.4,0.3-0.5c0.2,0.7,0.1,1.5,0,2.2c-0.2,1.1-0.4,2.2-0.9,3.2v0.1c0,0,0,0,0.1,0
		c0.4-0.3,0.7-0.7,1-1.2c0.7-1,1.3-2.1,1.9-3.2c0.1-0.3,0.2-0.5,0.2-0.8c0-0.5,0.1-0.9,0.3-1.4c0.1,0.2,0.1,0.4,0.1,0.7
		c0.2-0.3,0.2-0.5,0.3-0.8C-26,25.7-26,26-26,26.3c0,1-0.2,2-0.6,3c-0.2,0.5-0.4,1-0.7,1.5c0,0.1-0.1,0.1,0,0.2l0,0
		c-0.1,0-0.1,0.2-0.2,0.2l0,0c0.1-0.3,0.3-0.6,0.4-1l0,0l0,0c0.3-0.5,0.5-1,0.6-1.6c0.3-0.8,0.4-1.6,0.4-2.5h-0.1
		c-0.3,0.6-0.6,1.3-1,1.9c-0.3,0.6-0.6,1.1-0.9,1.7c-0.3,0.5-0.7,1.1-1,1.6c-0.1,0.1-0.2,0.2-0.3,0.3c-0.2,0.2-0.3,0.3-0.5,0.5
		c-0.1,0.1-0.2,0.1-0.3,0c-0.1-0.1,0-0.2,0-0.2c0-0.1,0.1-0.2,0.1-0.3c0.2-0.4,0.3-0.9,0.4-1.4c-0.4,0.3-0.7,0.6-1.2,0.7
		c-0.4,0.1-0.7,0.2-1,0.3c-0.1,0-0.2,0-0.3,0.1c-0.3,0.1-0.6,0.2-0.9,0.2s-0.3,0-0.2-0.3c0-0.1,0.1-0.2,0.2-0.3l0,0
		c0.1-0.1,0.2,0,0.3,0s0.3-0.1,0.2-0.2c-0.1-0.1-0.1-0.2,0-0.3c0.1-0.2,0.2-0.4,0.4-0.5c0.2,0.1,0,0.2,0.1,0.3
		c0.4-0.3,0.7-0.6,0.8-1.2v-0.1c0-0.1,0-0.1,0-0.2c0.4,0.3,0.7,0.7,1,1c0.1-0.1,0.1-0.2,0.1-0.3c0.1-0.1,0.1-0.2,0.1-0.4
		c0.1-0.1,0.1-0.2,0.1-0.4c0.1-0.3,0.2-0.6,0.2-0.9c0.1-0.2,0.1-0.4,0.2-0.5C-29.6,27.3-29.5,27.2-29.5,27.1z"/>
	<path class="st0" d="M-27.6,33.1c0.4-0.5,0.7-1,1-1.5c0.3-0.6,0.6-1.2,0.9-1.7c-0.4,1.3-1,2.4-1.8,3.5c-0.1,0.1-0.2,0.3-0.4,0.3
		C-27.9,33.4-27.7,33.3-27.6,33.1z"/>
	<path class="st0" d="M-28,33.8h-0.1C-28.1,33.7-28.1,33.7-28,33.8C-28,33.7-28,33.7-28,33.8z"/>
	<path class="st0" d="M-37.6,25.5c0-0.1-0.1-0.1-0.1-0.2s-0.1-0.1-0.1-0.2c0.3,0.1,0.7,0.2,1.1,0c-0.4-0.2-0.7-0.4-1-0.6
		c-0.2-0.2-0.4-0.4-0.6-0.7c0.3,0.2,0.6,0.4,0.9,0.5c-0.1-0.3-0.3-0.5-0.3-0.7c0.1,0.1,0.2,0.2,0.3,0.3c0,0,0,0,0.1,0.1l0,0
		c0.2,0.2,0.4,0.3,0.7,0.6c-0.4,0-0.6-0.1-0.9-0.2c0-0.1-0.1-0.1-0.2,0l0,0l0,0c0,0,0,0,0,0.1c0,0,0.1,0,0.1,0.1
		c0.4,0.4,0.9,0.7,1.5,0.8c-0.4,0.3-0.8,0.3-1.3,0.3c0.3,0.3,0.6,0.4,1,0.5c0.3,0.1,0.7,0,1.1,0c-0.2,0.4-0.5,0.6-0.8,0.8
		c0,0-0.1,0-0.1,0.1s0.1,0.1,0.1,0.1l0,0c0.1,0.1,0.2,0.1,0.2,0.1l0,0c0.1,0.1,0.2,0.1,0.2,0c0.3,0.1,0.6,0.1,0.9,0v0.1
		c-0.1,0.3-0.1,0.3,0.2,0.4c0,0,0,0,0.1,0c0.1,0.1,0.4,0,0.4,0.2s-0.1,0.3-0.3,0.4c-0.1,0.1-0.2,0.2-0.3,0.2
		c-0.1,0.1-0.2,0.1-0.3,0.2c0.4,0,0.8,0,1.2-0.2c0.1,0,0.1-0.1,0.2,0c-0.2,0.2-0.4,0.4-0.7,0.6c0.1,0.1,0.3,0.1,0.4,0.2
		c0.1,0.1,0,0-0.1,0.1h-0.1c-0.1,0-0.1,0-0.2,0l0,0l0,0c-0.4-0.1-0.7-0.3-1.1-0.4c-0.1-0.1-0.2-0.1-0.3-0.2
		c-0.2-0.1-0.4-0.3-0.5-0.4c-0.2-0.2-0.4-0.4-0.5-0.5c0,0-0.1-0.1-0.1,0c0.1-0.1,0-0.1,0-0.2l0,0l0,0l0,0c0,0.1,0,0.1,0,0.2
		c0.2,0.2,0.3,0.5,0.4,0.8c-0.6-0.1-1.1-0.3-1.6-0.5c-0.1-0.1-0.2-0.1-0.3-0.2c0,0.1,0.1,0.2,0.1,0.3c0,0,0,0.1-0.1,0.1
		c0-0.1,0-0.1-0.1-0.1c-0.1,0.1,0.1,0.2,0,0.4c-0.1-0.1-0.2-0.1-0.3-0.1c-0.1-0.1-0.2-0.1-0.3-0.2h-0.1v0.1v0.1l0,0l0,0
		c-0.1-0.1-0.2-0.3-0.4-0.4c-0.1,0.2,0.1,0.4,0.1,0.5l0,0c-0.2-0.2-0.4-0.3-0.6-0.5v-0.1l0,0c0,0,0,0.1,0.1,0.1c0,0.1,0,0.1-0.1,0.1
		c-0.2-0.2-0.4-0.4-0.6-0.6c-0.1-0.1-0.1-0.2-0.2-0.3l0,0c0,0.1,0.1,0.2,0.2,0.2c0.1,0.1,0.2,0.2,0.3,0.3l0,0c0,0,0,0,0-0.1
		s-0.1-0.2,0-0.3c0.2,0.3,0.4,0.6,0.7,0.8c0-0.3-0.1-0.6-0.1-0.9c0.3,0.3,0.6,0.6,1,0.8c0-0.3-0.1-0.5,0-0.8
		c0.2,0.1,0.3,0.2,0.4,0.3c0.4,0.3,0.9,0.4,1.4,0.5c-0.1-0.3-0.3-0.5-0.3-0.8l0,0c0.7,0.6,1.9,0.9,2.4,0.5c-0.9-0.2-1.6-0.7-2.3-1.3
		c0.6,0,0.9-0.1,1.1-0.3C-36.6,26.1-37.1,25.9-37.6,25.5L-37.6,25.5L-37.6,25.5z"/>
	<path class="st0" d="M-38.8,29.6c0.3,0,0.6,0,0.9,0.1l0,0c-0.2,0.1-0.4,0.1-0.6,0.2c0.2,0.2,0.4,0.2,0.6,0.3c0.3,0.1,0.7,0.3,1,0.6
		c-0.1,0.1-0.2,0-0.3,0c-0.8-0.4-1.7-0.7-2.5-0.9c-0.2,0-0.3-0.1-0.5-0.2c-0.5-0.4-1-0.7-1.4-1.2c0,0,0,0,0-0.1
		c0.2,0,0.3,0.2,0.4,0.3c0.4,0.3,0.7,0.6,1.1,0.7c0.3,0.2,0.5,0.2,0.8,0.2l0,0l0,0C-39.1,29.7-39,29.6-38.8,29.6z"/>
	<path class="st0" d="M-33.9,38.9c-0.1-0.3-0.2-0.6-0.5-0.8c-0.1-0.1-0.1-0.3,0.1-0.4c0.1-0.1,0.2,0,0.3,0.1
		C-33.8,38-33.7,38.5-33.9,38.9z"/>
	<path class="st0" d="M-38.2,36.9c0-0.1-0.1-0.2-0.1-0.2c-0.2-0.1-0.2-0.2-0.1-0.4c0.1-0.1,0.2-0.1,0.3,0c0.3,0.1,0.4,0.4,0.4,0.7
		c-0.1,0.1,0,0.2-0.1,0.3c0,0.2-0.1,0.4-0.4,0.4c-0.4,0.1-0.7,0.2-0.8,0.7c0,0.1-0.1,0.1-0.2,0.1c-0.1,0-0.1-0.1-0.1-0.2
		c0-0.1,0-0.3-0.1-0.4l0,0c0-0.1,0-0.1-0.1-0.1l0,0c0-0.1,0-0.1-0.1-0.1l0,0c0.1-0.1,0.1-0.1,0.2,0c0.1,0.1,0.1,0.2,0.2,0.3
		c0-0.2,0-0.3-0.1-0.4c-0.1-0.1,0-0.1,0.1-0.1c0.2,0,0.2,0.2,0.4,0.2c-0.1-0.2,0-0.3,0.2-0.3c0.1,0,0.2,0,0.3,0
		C-38.1,37.3-38,37.3-38.2,36.9z M-39.3,38L-39.3,38C-39.3,38.1-39.2,38.1-39.3,38C-39.2,38-39.2,38-39.3,38
		C-39.2,38-39.2,38-39.3,38z"/>
	<path class="st0" d="M-39.6,37.8c-0.1,0.1,0,0.2,0,0.2c-0.4,0-0.3,0.3-0.3,0.6c0,0.1,0,0.1,0,0.2c0,0.1-0.1,0.2-0.2,0
		c-0.2-0.2-0.2-0.5-0.1-0.8c0.1-0.2,0.2-0.4,0.5-0.4l0,0c-0.1,0.1,0,0.1,0.1,0.1l0,0C-39.7,37.8-39.6,37.8-39.6,37.8L-39.6,37.8z"/>
	<path class="st0" d="M-30.4,28.5c0,0.2-0.1,0.3-0.1,0.5c-0.2-0.2-0.4-0.4-0.6-0.6c-0.4-0.5-0.9-0.8-1.4-1.2
		c-0.1-0.1-0.2-0.2-0.3-0.2c-0.9-0.6-1.9-1.2-2.7-2c0,0,0,0-0.1-0.1l0,0c-0.3-0.4-0.6-0.7-0.9-1.1c-0.1-0.1-0.1-0.2-0.2-0.3
		c-0.1-0.3-0.4-0.6-0.5-1.1c0.2,0.3,0.4,0.6,0.6,0.8c0.1,0.1,0.1,0.2,0.2,0.3c0.4,0.4,0.9,0.7,1.2,1.1c0.3,0.3,0.6,0.6,0.9,0.7
		c0.2,0.1,0.5,0.2,0.6,0.4h0.1l0,0c0,0,0,0-0.1,0c0.1-0.1-0.1-0.2-0.1-0.2c-0.3-0.3-0.5-0.5-0.8-0.8c-0.1-0.1-0.1-0.1-0.1-0.3
		c0.5,0.4,1,0.8,1.4,1.1l0.1,0.1l-0.1-0.1c-0.3-0.4-0.6-0.7-0.7-1.1c0.4,0.5,0.8,0.9,1.4,1.2l0,0l0,0c0-0.2-0.2-0.2-0.2-0.3
		c-0.3-0.3-0.5-0.5-0.5-0.8c0.1,0,0.1,0.1,0.2,0.2c0.2,0.2,0.3,0.4,0.6,0.5c0.1,0.1,0.1,0.1,0.2,0.1c-0.1-0.1-0.1-0.1-0.2-0.2
		c-0.1-0.1-0.1-0.3-0.2-0.4v-0.1c0,0,0.1,0,0.1,0.1c0.2,0.3,0.5,0.6,0.8,0.7c-0.2-0.3-0.3-0.6-0.5-0.8c0-0.1-0.2-0.2,0-0.3
		c0.1,0.2,0.3,0.4,0.5,0.5c0,0,0,0.1,0.1,0l0,0l0,0l0,0c0,0,0-0.1-0.1,0c0-0.2-0.1-0.3-0.1-0.5c0.3,0.5,0.6,0.8,1,1.2
		c0-0.1-0.1-0.2-0.1-0.3c-0.2-0.3-0.4-0.6-0.5-1c0-0.1-0.1-0.2,0-0.3c0.1-0.1,0.2,0.1,0.2,0.2c0.1,0.1,0.1,0.2,0.2,0.2
		c0-0.1-0.1-0.3-0.1-0.4s0-0.1,0-0.2c0.1,0.3,0.2,0.6,0.4,0.8c0,0.1,0,0.1,0.1,0.2c0,0,0,0,0,0.1l0,0c0,0,0-0.1,0,0
		c0-0.1,0-0.1,0-0.2c-0.1-0.3-0.2-0.6-0.2-1c0.1,0.1,0.1,0.3,0.3,0.4c0-0.3-0.1-0.5-0.2-0.8c0-0.1-0.1-0.2,0.1-0.2
		c0.3,0.8,0.6,1.6,0.7,2.5c0,0.5,0,1,0,1.4l0,0c-0.2-0.2-0.3-0.5-0.6-0.7c-0.1-0.1-0.1-0.2-0.2-0.2c0.1-0.1,0-0.1,0-0.2l0,0l0,0
		c0,0.1,0,0.1,0,0.1c0.3,0.4,0.5,0.7,0.8,1.1c-0.1,0.5-0.2,0.9-0.2,1.4c-0.1,0.1-0.1,0-0.2-0.1c0-0.1-0.1-0.1-0.1-0.2
		c-0.4-0.7-0.9-1.3-1.6-1.8l-0.1-0.1c0,0,0-0.1,0,0l0,0c-0.1,0.1,0,0.1,0.1,0.2c0.5,0.6,1,1.2,1.5,1.8c0,0.1,0.1,0.1,0.1,0.2
		C-30.5,28.4-30.5,28.5-30.4,28.5z M-31.7,25.7L-31.7,25.7C-31.7,25.7-31.7,25.8-31.7,25.7C-31.7,25.8-31.7,25.7-31.7,25.7v0.1
		c0.4,0.5,0.8,1,1.2,1.6c0,0.1,0,0.1,0.1,0.1c0-0.1,0-0.1-0.1-0.2C-30.7,26.8-31.1,26.3-31.7,25.7C-31.6,25.8-31.6,25.8-31.7,25.7z"
		/>
	<path class="st0" d="M-41.2,24.9c-0.2,0-0.4-0.1-0.6-0.2c-0.1,0.3,0,0.5,0.1,0.8c-0.2-0.1-0.2-0.2-0.3-0.3c0,0.2,0.1,0.3,0.1,0.5
		c-0.1,0-0.1-0.2-0.2-0.2c-0.1,0.1,0,0.2,0,0.2c0,0.1,0,0.1,0,0.2s0,0.2,0,0.3c-0.1,0.1,0,0.2,0,0.3l-0.1-0.1
		c-0.1-0.3-0.3-0.5-0.5-0.8c-0.1,0.2,0,0.4,0,0.6c-0.1-0.1-0.1-0.2-0.1-0.3c-0.1,0.2-0.1,0.4-0.1,0.6c-0.1-0.1-0.2-0.2-0.2-0.3
		c-0.7-0.3-1.2-0.6-1.2-1.2c0,0.2-0.1,0.3-0.1,0.5c0,0,0,0.1-0.1,0.1l-0.1-0.1c-0.1-0.4-0.2-0.8-0.1-1.2c-0.1,0-0.1,0.1-0.2,0.2
		c-0.1,0,0-0.1-0.1-0.2c-0.1,0.1-0.2,0.2-0.2,0.3c0.1-0.3,0.3-0.6,0.5-0.8c0.1,0,0.1-0.2,0.3-0.2c0,0.4,0,0.8,0.1,1.2
		c0.1-0.2,0.1-0.4,0.2-0.6c0.3,0.7,0.4,1.3,0.9,2c0.1-0.3,0.1-0.6,0.1-0.8c0.1-0.1,0-0.2,0.1-0.2c0.2,0.3,0.3,0.6,0.5,0.8
		c0-0.2,0.1-0.4,0.1-0.5s0-0.4,0.1-0.4c0.3-0.1,0.2-0.4,0.3-0.6c0-0.1,0-0.2,0.1-0.2C-41.8,24.4-41.6,24.7-41.2,24.9
		C-41.3,24.8-41.3,24.9-41.2,24.9z"/>
	<path class="st0" d="M-43.8,22.3c-0.1,0-0.1-0.1-0.2-0.1c-0.2-0.2-0.2-0.2-0.3,0.1c-0.1-0.2-0.2-0.2-0.3,0c0,0.1,0,0.2-0.1,0
		l-0.1,0.1c-0.1,0.2-0.2,0.3-0.2,0.5c0-0.6,0.2-1,0.7-1.1c0.3,0,0.3,0,0.4-0.4C-43.9,21.7-43.9,22-43.8,22.3z"/>
	<path class="st0" d="M-29.3,15.9c-0.5-0.4-1.1-0.6-1.7-0.8c0-0.1-0.2,0-0.2-0.1c0.5,0,1.1,0.1,1.6,0.3c0.1,0,0.2,0.1,0.3,0
		c0,0,0,0,0,0.1l0,0h-0.1c-0.4-0.3-0.9-0.4-1.3-0.6l0,0c0.8,0.1,1.6,0.4,2.4,0.7c0.2,0.1,0.3,0.2,0.5,0.2c0.8,0.3,1.3,0.9,1.6,1.7
		c0-0.2-0.1-0.3-0.1-0.5c0.3,0.2,0.5,0.5,0.8,0.8c0.9,1.3,1.4,2.7,1.7,4.2c0.3,1.9,0.1,3.8-0.4,5.7c-0.2,0.8-0.6,1.5-1,2.2
		c0-0.1,0-0.2,0.1-0.3c0.2-0.8,0.4-1.6,0.7-2.4c0.1-0.3,0.2-0.6,0.2-0.9c-0.1,0.2-0.2,0.5-0.3,0.7c-0.1,0.3-0.3,0.6-0.3,0.9
		c-0.1,0,0-0.1-0.1-0.2c0.2-0.7,0.4-1.5,0.6-2.2c0.2-0.5,0.4-1.1,0.4-1.7c-0.1,0.6-0.4,1.1-0.6,1.7c-0.1,0.2-0.2,0.3-0.2,0.5
		c0-0.1,0-0.2,0-0.3c0.1-0.6,0.3-1.2,0.3-1.8c0.1-0.3,0.1-0.7,0.1-1c-0.1,0.4-0.2,0.8-0.3,1.2c0,0.1-0.1,0.2-0.2,0.3
		c0-0.1,0-0.1,0-0.2c0.2-1.4,0.3-2.7,0-4.1c0,0.6,0.1,1.2-0.1,1.8c-0.1-0.7-0.1-1.4-0.3-2.1c0-0.2-0.1-0.4-0.2-0.6V19l0,0v0.1
		c0,0.3,0.1,0.6,0.1,1c0,0.2,0,0.4,0,0.6c-0.2-0.7-0.4-1.4-0.7-2.1c0,0.3,0.2,0.6,0.1,0.9c-0.3-0.6-0.6-1.3-0.9-2
		c-0.1-0.1,0-0.2-0.2-0.2c0,0,0,0,0-0.1l0,0c0,0,0,0,0,0.1s0.1,0.1,0.1,0.2c0.1,0.4,0.3,0.9,0.3,1.3c-0.1-0.2-0.2-0.4-0.4-0.6
		c-0.3-0.5-0.5-0.9-0.8-1.3c-0.1-0.1-0.1-0.2-0.2-0.2c0,0,0-0.1-0.1-0.1c0,0,0,0,0-0.1l0,0l0,0c0,0.1,0,0.1,0,0.1v0.1
		c0.3,0.4,0.6,0.9,0.7,1.5C-27.8,17.1-28.4,16.4-29.3,15.9z M-29.1,15.3L-29.1,15.3L-29.1,15.3L-29.1,15.3z"/>
	<path class="st0" d="M-26.7,24.7c-0.1,0.1-0.1,0.2-0.3,0.3c-0.1-0.5-0.1-1-0.3-1.5c-0.1,0.5,0,1,0,1.5c0.1,0.8,0.1,1.6-0.2,2.4
		c0,0.1-0.1,0.2-0.2,0.3c0-0.4,0-0.7,0-1.1c0-0.5,0.1-1-0.1-1.4v-0.1c0,0,0,0,0.1,0v0.1c-0.2,0.5-0.1,1-0.1,1.5
		c-0.1,1-0.5,1.9-0.9,2.7c0.3-1.3,0.4-2.7,0.3-4c-0.1-0.7-0.2-1.4-0.2-2.1c0-0.1,0-0.3,0.1-0.4c0.1,0.2,0.1,0.4,0.3,0.6
		c0-0.5,0.2-1,0.1-1.4c0.2,0.7,0.4,1.5,0.6,2.2c0.2-0.3,0.2-0.6,0.1-1c-0.1,0,0,0.1-0.1,0.1c0,0,0,0,0-0.1c-0.3-1.7-0.8-3.3-1.7-4.7
		c0-0.1,0-0.1-0.1-0.1c0-0.1,0-0.1,0-0.1l0,0c0,0,0-0.1-0.1-0.1l0,0c0-0.1,0.1-0.1,0.1,0c0.1,0.1,0.2,0.1,0.3,0.2
		c0.4,0.3,0.6,0.7,0.9,1.1c0.5,0.8,0.9,1.6,1.2,2.4c0.1,0.3,0.2,0.6,0.3,1C-26.7,23.6-26.5,24.2-26.7,24.7z"/>
	<path class="st0" d="M-32.2,15.5c0.9,0.1,1.8,0.5,2.6,0.9c0.5,0.3,1,0.6,1.4,0.9c0.1,0.1,0.2,0.1,0.3,0.2l0,0
		c-0.2,0-0.3-0.2-0.5-0.2c-0.1-0.1-0.2-0.1-0.3-0.1c0-0.1-0.2-0.1-0.2-0.1c-0.1,0-0.1,0-0.2,0l0,0l0,0c0,0,0-0.1,0.1,0
		c0,0,0,0,0,0.1c0.1,0,0.1,0,0.2,0c0,0.1,0.1,0.1,0.2,0.1c0,0.1,0.1,0.1,0.2,0.2c0.5,0.3,1,0.6,1.5,1c1.3,1.1,2,2.5,2.1,4.2
		c0,0.2,0,0.4,0,0.6c-0.1,0-0.1-0.1-0.1-0.2c-0.3-1.6-1-3-2.2-4.2c-0.1-0.1-0.1-0.1-0.2-0.2c0,0,0,0-0.1-0.1c0,0,0,0,0-0.1
		c0,0,0,0-0.1-0.1c0,0-0.1,0-0.1-0.1l0,0l0,0c0,0,0.1,0,0.1,0.1s0,0,0.1,0.1c-0.1,0,0,0.1,0,0.1s0,0,0.1,0.1c1,1.4,1.5,2.9,1.6,4.6
		c0,0.2,0,0.5,0,0.7c0,0,0,0.1-0.1,0.1c0-0.2,0-0.5-0.1-0.7c-0.1-0.6-0.3-1.2-0.6-1.8c-0.3-0.9-0.7-1.7-1.2-2.5
		c-0.2-0.4-0.5-0.8-0.9-1.1c-0.4-0.5-0.9-0.9-1.5-1.3l-0.1-0.1c0,0-0.1,0-0.1-0.1c0,0-0.1,0-0.1-0.1c-0.8-0.6-1.7-0.8-3.2-0.9
		C-33.2,15.5-32.7,15.5-32.2,15.5z M-28.3,17.7C-28.3,17.8-28.3,17.8-28.3,17.7c0.3,0.3,0.6,0.5,0.9,0.8l0.1,0.1l0.1,0.1l0,0l0,0
		l0,0c0-0.1,0-0.1-0.1-0.2l-0.1-0.1c-0.1-0.1-0.1-0.1-0.2-0.2C-27.7,18.1-27.9,17.8-28.3,17.7C-28.2,17.8-28.2,17.8-28.3,17.7
		L-28.3,17.7L-28.3,17.7L-28.3,17.7z"/>
	<path class="st0" d="M-32.8,16.9c0,0-0.1,0-0.1-0.1c-0.3-0.2-0.6-0.3-0.9-0.5l0,0c0.4,0,0.7,0.2,1,0.3c0.6,0.3,1.2,0.6,1.7,1h0.1
		l0,0l0,0l0,0c0,0,0-0.1-0.1-0.1c-0.9-0.9-1.9-1.4-3.2-1.6c0.7-0.3,2.1-0.1,2.9,0.5c-0.2-0.1-0.4-0.1-0.6-0.2c0.5,0.2,1,0.5,1.4,0.7
		c0.1,0.1,0.2,0.2,0.4,0.3l0,0c-0.2,0.1-0.3-0.1-0.5-0.1c0,0,0,0-0.1,0h-0.1C-31,17-31.1,17-31.2,17c0.1,0.1,0.2,0.1,0.3,0.2
		c0,0,0.1,0,0.1,0.1h0.1c0.4,0.3,0.8,0.7,1.2,1l0,0c0,0,0,0.1,0.1,0.1l0,0c0,0.1,0,0.1,0,0.1c-0.2,0-0.3-0.2-0.4-0.2
		c-0.1-0.1-0.1-0.2-0.3-0.2c0,0,0,0-0.1-0.1l0,0l0,0c0,0,0.1,0,0.1,0.1c0.1,0.1,0.2,0.1,0.3,0.2c0.8,1,1.2,2.3,1.4,3.4
		c-0.2-0.2-0.2-0.5-0.3-0.7c-0.1-0.3-0.2-0.5-0.4-0.8c-0.2-0.4-0.4-0.8-0.7-1.1c-0.2-0.3-0.4-0.6-0.7-0.8c-0.1-0.1-0.2-0.2-0.3-0.3
		c-0.1-0.1-0.2-0.2-0.3-0.3c-0.4-0.4-0.9-0.7-1.4-0.9c0,0,0,0-0.1,0C-32.7,16.9-32.8,16.9-32.8,16.9z"/>
	<path class="st0" d="M-29.2,23c-0.1-0.4-0.3-0.9-0.5-1.3c-0.2-0.6-0.5-1.2-0.8-1.7c-0.1-0.3-0.4-0.6-0.6-0.9
		c0.2,0.1,0.2,0.2,0.4,0.3c0,0.1,0.1,0.1,0.1,0.1c0.1,0.1,0.1,0.2,0.2,0.2c0.4,0.5,0.8,1,1.1,1.6c0.2,0.6,0.4,1.3,0.5,1.9
		c0,0.1,0.1,0.2,0,0.4C-28.9,23.4-29.1,23.3-29.2,23L-29.2,23L-29.2,23z"/>
	<path class="st0" d="M-25.3,25.5c0.1,0,0.1,0.1,0.1,0.2c0,0.5-0.2,1-0.3,1.5c-0.2,0.5-0.3,1-0.5,1.5c-0.1,0.2-0.1,0.3-0.2,0.5
		c-0.3,0.6-0.6,1.2-0.9,1.7c-0.1,0.2-0.3,0.4-0.4,0.6c-0.1,0.1-0.2,0.3-0.3,0.5l-0.1,0.1l0,0c0.1-0.3,0.1-0.5,0.3-0.8l0,0
		c0,0.1,0,0.1,0,0.2c-0.1,0-0.1,0.1,0,0.2c0,0,0,0-0.1,0l0,0c0,0,0,0,0.1,0v-0.1c0.1-0.1,0.2-0.2,0.2-0.4l0,0
		c0.3-0.3,0.5-0.8,0.7-1.2c0.6-1.2,0.9-2.5,1.2-3.7C-25.4,25.9-25.4,25.7-25.3,25.5z"/>
	<path class="st0" d="M-28.6,26.2c0-0.2,0-0.4-0.1-0.6c0-0.4-0.1-0.8-0.1-1.2c0.3,0.5,0.5,2.5,0.2,4C-28.6,27.6-28.5,26.9-28.6,26.2
		z"/>
	<path class="st0" d="M-26.4,24.8c0-0.1,0-0.2,0.1-0.4c0,0.2,0.1,0.5-0.1,0.7C-26.4,25-26.4,24.9-26.4,24.8z"/>
	<path class="st0" d="M-27.9,17.6L-27.9,17.6L-27.9,17.6L-27.9,17.6z"/>
	<path class="st0" d="M-44.7,16.6c-0.1-0.1,0-0.1,0-0.1V16.6z"/>
	<path class="st0" d="M-40.1,9.5c-0.1,0.1-0.1,0.2-0.2,0.3c-0.1,0.2-0.3,0.3-0.5,0.3s-0.3-0.2-0.4-0.4c0-0.1,0-0.2,0-0.3V9.3
		c0.2-0.5,0.5-0.9,0.8-1.4c0.2,0.7-0.2,1.2-0.4,1.9c0.7-0.5,0.6-1.2,0.6-1.9C-40.1,8.4-40.1,9-40.1,9.5C-40.1,9.4-40.1,9.4-40.1,9.5
		L-40.1,9.5z"/>
	<path class="st0" d="M-39.6,7.1c-0.1,0.3-0.2,0.5-0.5,0.5c-0.2,0-0.3,0-0.4-0.2c-0.1-0.1,0-0.2,0.1-0.3c0-0.1,0.1-0.2,0.2-0.2
		c0.2-0.1,0.3-0.1,0.3,0.2C-39.9,7.2-39.9,7.2-39.6,7.1z"/>
	<path class="st0" d="M-41.4,6.3c0.1,0.1,0.2,0.2,0.1,0.3c-0.1,0.1-0.2,0.2-0.3,0.2c-0.1,0-0.3-0.1-0.4,0l0,0c0-0.1-0.2-0.3,0-0.5
		c0,0.2,0,0.3,0.2,0.3s0.3,0,0.4-0.1C-41.3,6.5-41.4,6.4-41.4,6.3L-41.4,6.3z"/>
	<path class="st0" d="M-41.4,6.3c-0.1-0.1-0.2,0-0.2,0c-0.1,0.1,0.1,0.1,0.1,0.2c-0.1,0-0.2,0-0.2-0.1s0.1-0.2,0.1-0.2
		C-41.6,6.2-41.5,6.1-41.4,6.3L-41.4,6.3z"/>
	<path class="st0" d="M-33.1,18.7C-33.1,18.8-33.1,18.8-33.1,18.7c0.1,0.1,0.1,0.1,0.1,0.1s0,0,0.1,0.1c0.6,0.7,1.1,1.6,1.5,2.5v0.1
		c-0.1-0.1-0.3-0.3-0.4-0.4c0,0.4,0.2,0.8,0.2,1.2c-0.7-0.4-1-1.2-1.5-1.7c0,0,0-0.1,0,0l0,0c0.1,0.4,0.3,0.8,0.3,1.2
		c0,0.2,0.1,0.4,0.1,0.6c-0.1,0-0.2-0.1-0.3-0.1c-0.9-0.6-1-1.6-1.4-2.5c0,0.4,0.1,0.7,0.1,1.1c-0.4-0.3-0.6-0.8-0.9-1.1
		c0,0,0,0,0-0.1c0,0,0-0.1-0.1-0.1c-0.1,0,0,0.1,0,0.1s0,0,0,0.1c0.4,0.8,0.8,1.5,1,2.4c-0.1,0-0.2-0.2-0.3-0.1
		c0,0.2,0.1,0.4,0.2,0.6c-0.4-0.1-0.7-0.4-0.9-0.7c-0.1-0.1-0.1-0.2-0.2-0.2c-0.1-0.1-0.1-0.2-0.2-0.2c-0.1,0,0,0.2,0,0.3
		c0,0.2,0,0.4,0,0.6c0,0.1,0,0.2-0.1,0.2c0,0.1-0.1,0.2-0.1,0.2c-0.1,0.1-0.2,0-0.4-0.1c-0.6-0.5-0.8-1.2-0.9-1.9
		c0.1,0,0.1,0,0.1,0.1c0,0,0.1,0.1,0.1,0.2c0-0.3-0.1-0.5-0.1-0.7l0,0c0.1,0.2,0.3,0.4,0.4,0.6c0.1-0.6,0-1.1,0-1.7
		c0.1,0.1,0.1,0.2,0.2,0.3c0-0.3-0.1-0.6-0.2-0.9c0-0.1,0-0.3,0-0.5c0.1,0.2,0.2,0.4,0.2,0.6c0,0,0,0.1,0.1,0.1v-0.1
		c0-0.1-0.1-0.3-0.1-0.4l0,0c0.1,0,0.1,0.2,0.3,0.3c0.1-0.3,0.1-0.6,0.2-0.9c0.3,0.4,0.3,0.8,0.5,1.2c0,0,0,0.1,0.1,0.1
		c0.1,0,0-0.1,0-0.2s-0.1-0.3,0-0.5c0.2,0.3,0.3,0.6,0.5,0.8c0-0.2-0.2-0.4,0-0.6c0.1,0.2,0.2,0.4,0.4,0.5c0-0.2-0.1-0.4-0.1-0.6
		l0,0c0.2,0.1,0.2,0.4,0.5,0.6c-0.1-0.3-0.2-0.6-0.3-0.9c0-0.2-0.1-0.4-0.2-0.5c0.1-0.1,0.1,0,0.1,0c0.3,0.3,0.6,0.5,0.9,0.8
		c0.1,0.1,0.1,0.1,0.2,0C-33.2,18.6-33.2,18.7-33.1,18.7z M-35.9,21.1L-35.9,21.1L-35.9,21.1C-35.9,21.1-35.9,21-35.9,21.1
		C-35.9,21-35.9,21-35.9,21.1C-35.9,21-35.9,21-35.9,21.1z M-35.7,21.4c0-0.1,0-0.1-0.1-0.1C-35.8,21.3-35.8,21.4-35.7,21.4
		c0,0.1,0,0.2,0,0.1C-35.6,21.5-35.6,21.5-35.7,21.4z M-34,19.4L-34,19.4L-34,19.4L-34,19.4L-34,19.4z M-35.8,21.2L-35.8,21.2
		L-35.8,21.2C-35.9,21.2-35.8,21.2-35.8,21.2L-35.8,21.2z"/>
	<path class="st0" d="M-31.9,12.7L-31.9,12.7L-31.9,12.7C-31.9,12.6-31.9,12.6-31.9,12.7c0-0.1,0-0.1,0-0.1
		C-31.8,12.6-31.9,12.6-31.9,12.7z"/>
	<path class="st0" d="M-42.2,17.4c0,0.1-0.1,0.2-0.1,0.2l0,0C-42.3,17.5-42.3,17.5-42.2,17.4L-42.2,17.4z"/>
	<path class="st0" d="M-42.3,17.6C-42.3,17.7-42.3,17.7-42.3,17.6C-42.3,17.7-42.4,17.7-42.3,17.6C-42.4,17.7-42.4,17.6-42.3,17.6
		L-42.3,17.6z"/>
	<path class="st0" d="M-34,16.3c0.1,0,0.1,0,0.2,0.1l0,0C-33.9,16.4-34,16.3-34,16.3L-34,16.3z"/>
	<path class="st0" d="M-34,16.3L-34,16.3L-34,16.3L-34,16.3z"/>
	<path class="st0" d="M-36.2,18.5L-36.2,18.5L-36.2,18.5L-36.2,18.5z"/>
	<path class="st0" d="M-36.2,14.5L-36.2,14.5L-36.2,14.5L-36.2,14.5z"/>
	<path class="st0" d="M-42.3,15c0-0.1,0-0.2,0-0.3C-42.2,14.9-42.3,15-42.3,15z"/>
	<path class="st0" d="M-42.7,7.6L-42.7,7.6c-0.1,0.1-0.1,0.1-0.2,0.1c-0.4-0.1-0.7-0.1-1.1-0.1c-0.4,0-0.8,0-1.2,0
		c0.3-0.2,0.7-0.2,1.1-0.2s0.8,0.1,1.1,0.2C-42.9,7.6-42.8,7.6-42.7,7.6z"/>
	<path class="st0" d="M-38.6,18.5c-0.1,0,0,0.1-0.1,0.1c0-0.1,0-0.2,0.1-0.3C-38.6,18.4-38.7,18.5-38.6,18.5z"/>
	<path class="st0" d="M-38.6,19.1C-38.6,19.1-38.7,19.1-38.6,19.1c0-0.1-0.1-0.2,0-0.3C-38.6,18.9-38.6,19-38.6,19.1z"/>
	<path class="st0" d="M-38.6,18.8c0-0.1,0-0.2,0-0.2C-38.6,18.6-38.6,18.7-38.6,18.8z"/>
	<path class="st0" d="M-41.8,17.2C-41.8,17.1-41.8,17.1-41.8,17.2C-41.8,17.1-41.8,17.1-41.8,17.2C-41.8,17.1-41.8,17.2-41.8,17.2
		L-41.8,17.2z"/>
	<path class="st0" d="M-38.7,19.1c0,0.1,0,0.2,0,0.2l0,0C-38.7,19.2-38.7,19.1-38.7,19.1z"/>
	<path class="st0" d="M-25.3,29.7L-25.3,29.7C-25.2,29.7-25.2,29.7-25.3,29.7z"/>
	<path class="st0" d="M-30.7,14.6C-30.7,14.6-30.7,14.7-30.7,14.6L-30.7,14.6L-30.7,14.6z"/>
	<path class="st0" d="M-25.9,15.7C-25.8,15.7-25.8,15.7-25.9,15.7L-25.9,15.7L-25.9,15.7z"/>
	<path class="st0" d="M-27.9,32c0,0.1-0.1,0.1-0.1,0.2C-28,32-27.9,32-27.9,32L-27.9,32z"/>
	<path class="st0" d="M-37.1,27.2L-37.1,27.2L-37.1,27.2L-37.1,27.2z"/>
	<path class="st0" d="M-30.1,17.4C-30.1,17.5-30.1,17.5-30.1,17.4C-30.1,17.5-30.1,17.5-30.1,17.4L-30.1,17.4z"/>
</g>
</svg>
