<?xml version="1.0" encoding="utf-8"?>
<!-- Generator: Adobe Illustrator 25.2.1, SVG Export Plug-In . SVG Version: 6.00 Build 0)  -->
<svg version="1.1" id="Ebene_1" xmlns="http://www.w3.org/2000/svg" xmlns:xlink="http://www.w3.org/1999/xlink" x="0px" y="0px"
	 viewBox="0 0 193.1 92.3" style="enable-background:new 0 0 193.1 92.3;" xml:space="preserve">
<style type="text/css">
	.st0{fill:#111111;}
	.st1{fill:url(#SVGID_1_);}
</style>
<g>
	<path class="st0" d="M49.2,90.7H43h-8.1L50.9,0h18.5l-7.2,40c3.5-8.8,9.8-13.6,19.7-13.6c12.4,0,21,8.3,21,26.2
		c0,22.3-11.7,39.6-31.8,39.6c-8.3,0-15.5-3.8-16.7-11.1L49.2,90.7z M57.8,64.6c-1.4,7.7,1.8,14.8,9.2,14.8c10.3,0,16-12.4,16-25.1
		c0-9-4.1-13.7-10.5-13.7c-6.1,0-11.4,5.3-13.3,15.7L57.8,64.6z"/>
</g>
<linearGradient id="SVGID_1_" gradientUnits="userSpaceOnUse" x1="6.9569" y1="65.4187" x2="21.3868" y2="90.4119">
	<stop  offset="1.343419e-03" style="stop-color:#00FFFE"/>
	<stop  offset="0.5119" style="stop-color:#43FDBD"/>
	<stop  offset="0.5928" style="stop-color:#47FDB9"/>
	<stop  offset="0.6739" style="stop-color:#53FDAD"/>
	<stop  offset="0.7552" style="stop-color:#67FC99"/>
	<stop  offset="0.8366" style="stop-color:#83FB7D"/>
	<stop  offset="0.9174" style="stop-color:#A7FA59"/>
	<stop  offset="0.9859" style="stop-color:#CCF935"/>
</linearGradient>
<path class="st1" d="M0,78c0,7.7,6.1,13.8,13.8,13.8c8.4,0,14.4-6.1,14.4-13.8c0-8.2-6.1-14.4-14.4-14.4C6.1,63.5,0,69.8,0,78"/>
<path class="st0" d="M127.1,71c-0.5,3-0.4,5.6,3.7,5.6c1.2,0,2.4-0.1,4.1-0.5L132,89.7c-3.1,0.9-6.8,1.6-9.9,1.6
	c-11.7,0-16-6.1-14.1-17.4l8.1-46h18.5L127.1,71z"/>
<path class="st0" d="M171.6,66.8c-4.9,6.7-8.6,9.9-8.6,9.9v0.5c0,0,3.9-0.7,10.9-0.7h19.3l-2.4,14.1H140l2.2-10.5l19.8-28
	c4.9-6.6,8.5-9.9,8.5-9.9v-0.5c0,0-3.8,0.7-10.9,0.7h-16l2.4-14.4h45.6v11.4L171.6,66.8z"/>
<path class="st0" d="M127.3,1.7c6.5,0,11.4,3.7,11.4,10.6c0,6.6-4.9,10.3-11.4,10.3c-6,0-11-3.7-11-10.3
	C116.3,5.4,121.4,1.7,127.3,1.7"/>
</svg>
