<?xml version="1.0" encoding="UTF-8"?>
<!-- Created with Inkscape (http://www.inkscape.org/) -->
<svg id="svg824" width="162.25253" height="58.667065" version="1.1" viewBox="0 0 162.25253 58.667064" xml:space="preserve" xmlns="http://www.w3.org/2000/svg"><defs id="defs828"><clipPath id="clipPath838"><path id="path836" d="m0 400h400v-400h-400z"/></clipPath></defs><g id="g830" transform="matrix(1.3333333,0,0,-1.3333333,-186.87306,296.44439)"><g id="g832"><g id="g834" clip-path="url(#clipPath838)"><g id="g840" transform="translate(254.3652,221.7944)"><path id="path842" d="m0 0v-11.983h2e-3c-1e-3 -2.845-2.315-5.159-5.16-5.159-2.843 0-5.157 2.314-5.157 5.159v11.983h-7.48v-11.983c0-6.979 5.658-12.638 12.638-12.638 6.979 0 12.636 5.659 12.636 12.638v11.983z" fill="#003038"/></g><g id="g844" transform="translate(140.1548,201.7974)"><path id="path846" d="m0 0c0 2.402 2.009 4.264 4.412 4.264 2.45 0 4.509-1.862 4.509-4.264 0-2.45-2.059-4.312-4.509-4.312-2.403 0-4.412 1.862-4.412 4.312" fill="#00bedf"/></g><g id="g848" transform="translate(169.0293,207.7773)"><path id="path850" d="m0 0h7.499c-0.589-6.125-5.637-10.292-12.204-10.292-7.45 0-12.987 5.194-12.987 12.449 0 7.203 5.537 12.399 12.987 12.399 6.567 0 11.615-4.166 12.204-10.292h-7.499c-0.393 2.157-2.255 3.578-4.657 3.578-3.43 0-5.439-2.45-5.439-5.685s2.009-5.735 5.439-5.735c2.402 0 4.264 1.421 4.657 3.578" fill="#003038"/></g><g id="g852" transform="translate(192.1753,187.0459)"><path id="path854" d="m0 0h-8.38l4.509 10.685-11.272 24.064h8.381l6.862-14.654 6.173 14.654h8.333z" fill="#003038"/></g><g id="g856" transform="translate(225.5674,209.8843)"><path id="path858" d="m0 0c0 3.089-2.155 5.587-5.342 5.587-3.284 0-5.391-2.498-5.391-5.587 0-3.185 2.107-5.734 5.391-5.734 3.187 0 5.342 2.549 5.342 5.734m7.498 0.05c0-7.255-5.342-12.644-12.84-12.644-7.549 0-12.937 5.389-12.937 12.644 0 7.156 5.388 12.399 12.937 12.399 7.498 0 12.84-5.243 12.84-12.399" fill="#003038"/></g><g id="g860" transform="translate(234.8174,178.333)"><path id="path862" d="m 0,0 c -8.037,0 -15.595,3.131 -21.281,8.815 l 5.287,5.289 C -11.72,9.831 -6.039,7.479 0,7.479 c 6.04,0 11.721,2.352 15.995,6.625 L 21.282,8.815 C 15.596,3.131 8.038,0 0,0" fill="#ff6434"/></g></g></g></g></svg>
