<?xml version="1.0" encoding="UTF-8"?>
<!-- Generator: Adobe Illustrator 24.0.1, SVG Export Plug-In . SVG Version: 6.00 Build 0)  -->
<svg id="Layer_1" width="383.7" height="144.0167" version="1.1" viewBox="0 0 383.7 144.0167" xml:space="preserve" xmlns="http://www.w3.org/2000/svg">
<style id="style163" type="text/css">
	.st0{fill:#EE2864;}
	.st1{fill:#FCB415;}
	.st2{fill:#146AB4;}
	.st3{fill:#65BC46;}
	.st4{fill:#6C338F;}
	.st5{fill:#FFFFFF;}
</style>
<g id="g187" transform="translate(-76.5,-48.5)">
	<g id="g171">
		<path id="path165" class="st0" d="m216 187.7c-6.2-3.3-10.6-7.1-13.2-11.4s-3.9-7.9-3.9-11c0-1.1 0.4-2.1 1.2-2.8s1.7-1.1 2.9-1.1h15c1 0 1.9 0.3 2.6 0.8s1.3 1.4 1.8 2.8c1.2 2.9 3.1 5.4 5.6 7.5s6.3 3.1 11.5 3.1c6.8 0 11.7-1.5 14.9-4.5s4.7-8.2 4.7-15.6v-11.5c-6.1 7.2-14.7 10.8-25.8 10.8-11.7 0-20.5-3.5-26.4-10.6s-9.1-16.8-9.5-29.1l-0.2-4.6 0.2-4.6c0.4-12 3.7-21.7 9.6-29.1 6-7.3 14.8-11 26.3-11 6 0 11.2 1.1 15.7 3.4s8.2 5.3 11.1 9.1v-6.6c0-1.2 0.4-2.3 1.3-3 0.8-0.8 1.8-1.2 3-1.2h13.9c1.1 0 2.1 0.4 2.9 1.2s1.2 1.8 1.2 3l0.2 81.4c0 12.5-3.5 22.2-10.5 29.1s-17.5 10.3-31.6 10.3c-10.2 0.2-18.3-1.4-24.5-4.8zm37.8-56.8c3.2-4.1 4.9-9 5.2-14.9 0.1-0.9 0.2-2.7 0.2-5.4s-0.1-4.5-0.2-5.4c-0.3-5.9-2.1-10.8-5.2-14.9-3.2-4.1-7.9-6.1-14.2-6.1-12.2 0-18.6 7.4-19.3 22.3l-0.2 4.1c0 17.6 6.5 26.4 19.4 26.4 6.5 0 11.2-2.1 14.3-6.1z"/>
		<path id="path167" class="st0" d="m304.3 153.8c-4.8-2.3-8.6-5.4-11.3-9.4-2.8-3.9-4.1-8.3-4.1-13 0-7.7 3.1-13.9 9.3-18.6s14.7-7.9 25.5-9.6l23.1-3.4v-3.5c0-4.8-1.2-8.5-3.7-11s-6.4-3.7-11.8-3.7c-3.7 0-6.7 0.7-9 2-2.3 1.4-4.1 2.7-5.5 4.1l-2.8 2.8c-0.5 1.4-1.3 2-2.5 2h-13.2c-1 0-1.9-0.3-2.6-1s-1.1-1.6-1.1-2.7c0.1-2.8 1.5-6 4.1-9.5s6.7-6.6 12.2-9.3c5.5-2.6 12.3-4 20.4-4 13.3 0 23 3 29.1 9s9.1 13.8 9.1 23.5v53c0 1.1-0.4 2.1-1.1 2.9s-1.7 1.2-3 1.2h-14c-1.1 0-2.1-0.4-2.9-1.2s-1.2-1.7-1.2-2.9v-6.6c-2.5 3.6-6 6.6-10.5 8.9s-10.1 3.5-16.9 3.5c-5.6-0.1-10.9-1.2-15.6-3.5zm36.7-18.9c3.9-4.1 5.9-9.9 5.9-17.6v-3.3l-16.9 2.7c-13 2-19.4 6.4-19.4 13 0 3.6 1.5 6.4 4.5 8.4s6.6 3 10.7 3c6.2-0.1 11.3-2.1 15.2-6.2z"/>
		<path id="path169" class="st0" d="m391.1 186.6c-0.7-0.7-1.1-1.5-1.1-2.4 0-0.8 0.2-1.7 0.7-2.7l13.3-31.2-32.4-76.5c-0.5-1-0.7-1.8-0.7-2.4 0.1-1 0.5-1.9 1.2-2.6s1.5-1.1 2.5-1.1h14c2 0 3.5 1.1 4.4 3.2l22.5 55.1 22.8-55.1c1.1-2.1 2.7-3.2 4.7-3.2h13.7c1 0 1.9 0.3 2.5 1s1 1.5 1 2.4c0 0.8-0.2 1.7-0.7 2.7l-47.8 110.6c-0.9 2.1-2.5 3.2-4.7 3.2h-13.5c-0.9 0-1.7-0.3-2.4-1z"/>
	</g>
	<g id="g185">
		<g id="g181">
			<path id="path173" class="st1" d="m139 140.4c0 5.5 1.5 10.7 4.2 15.2h25.2c8.4 0 15.2-6.8 15.2-15.2v-25.2c-4.4-2.7-9.6-4.2-15.2-4.2-16.2-0.1-29.4 13.1-29.4 29.4z"/>
			<path id="path175" class="st2" d="m116.5 140.4c0-28.7 23.3-52 52-52 5.3 0 10.4 0.8 15.2 2.3v-19c-4.9-1.1-10-1.7-15.2-1.7-38.8 0-70.4 31.6-70.4 70.4 0 5.2 0.6 10.3 1.7 15.2h19c-1.5-4.8-2.3-9.9-2.3-15.2z"/>
			<path id="path177" class="st3" d="m118.5 140.4c0 5.3 0.8 10.4 2.4 15.2h20c-2.5-4.5-3.9-9.7-3.9-15.2 0-17.4 14.1-31.5 31.5-31.5 5.5 0 10.7 1.4 15.2 3.9v-20c-4.8-1.5-9.9-2.4-15.2-2.4-27.6 0-50 22.4-50 50z"/>
			<path id="path179" class="st4" d="m96 140.4c0-39.9 32.5-72.4 72.4-72.4 5.2 0 10.3 0.6 15.2 1.6v-19.8c-4.9-0.8-10-1.3-15.2-1.3-50.7 0-91.9 41.1-91.9 91.9 0 5.2 0.4 10.2 1.3 15.2h19.8c-1-4.9-1.6-10-1.6-15.2z"/>
		</g>
		<circle id="circle183" class="st0" cx="168.5" cy="140.4" r="15.2"/>
	</g>
</g>
</svg>
