<svg xmlns="http://www.w3.org/2000/svg" height="256" width="256">
  <g style="display:inline">
    <path style="fill:#e9eaee;fill-opacity:1;stroke:none;stroke-width:1.00157;stroke-linecap:round;stroke-linejoin:round" d="M0 .00000763h256v256H0z"/>
  </g>
  <g style="display:inline">
    <g style="font-style:normal;font-variant:normal;font-weight:400;font-stretch:normal;font-size:113.077px;line-height:1.25;font-family:Uniform;-inkscape-font-specification:Uniform;fill:#156689;fill-opacity:1;stroke:none;stroke-width:2.82695" aria-label="gdn">
      <path style="fill:#156689;fill-opacity:1;stroke-width:2.82695" d="M85.229262 110.93172c-2.940002-2.71385-6.558466-4.07077-10.855392-4.07077s-7.91539 1.35692-10.855392 4.07077c-2.864617 2.71385-4.296926 5.99308-4.296926 9.8377s1.432309 7.12385 4.296926 9.8377c2.940002 2.71385 6.558466 4.07077 10.855392 4.07077s7.91539-1.35692 10.855392-4.07077c2.940003-2.71385 4.410004-5.99308 4.410004-9.8377s-1.470001-7.12385-4.410004-9.8377zm-36.863103 55.29466 5.827625-12.24827c.678462.5277 1.754992.62828 3.036532 1.38212 1.28154.75385-1.212612-.47925 2.556621.80229 3.844618 1.28154 7.576159 1.92231 11.194623 1.92231 5.729235 0 10.17693-1.43231 13.343086-4.29692 3.166157-2.78923 4.749235-6.82231 4.749235-12.09924v-1.24385c-4.221542 4.74923-10.101546 7.12385-17.640013 7.12385-8.066159 0-14.85078-2.60077-20.353861-7.80231-5.503081-5.27693-8.254621-11.64693-8.254621-19.11002 0-7.84001 2.713848-14.36078 8.141544-19.56232 5.503081-5.276926 12.513856-7.915389 21.032323-7.915389 7.538467 0 15.044583 2.78527 19.944587 8.137579l-.156111-7.006809h13.682321V138.0702c0 10.3277-2.94 18.54463-8.82001 24.65079-5.804619 6.10616-13.908471 9.15924-24.311556 9.15924-3.39231 0-6.709235-.30154-9.950776-.90462-3.241541-.60308-5.955389-1.31923-8.141544-2.14846-2.186156-.82923-4.146158-1.69616-5.880005-2.60077-1.733847-.82923 4.227391 2.09265 3.298571 1.63286zM147.69724 108.21787c-4.29693 0-7.91539 1.47-10.85539 4.41001-2.86462 2.94-4.29693 6.55846-4.29693 10.85539s1.43231 7.91539 4.29693 10.85539c2.94 2.94 6.55846 4.41 10.85539 4.41 4.37231 0 7.99078-1.47 10.85539-4.41 2.94001-2.94 4.41001-6.55846 4.41001-10.85539s-1.47-7.91539-4.41001-10.85539c-2.86461-2.94001-6.48308-4.41001-10.85539-4.41001zm31.09618-34.714637v79.153907l-15 .11173-.0392-8.81866c-4.82462 6.55847-11.3077 9.8377-19.44925 9.8377-7.76462 0-14.39847-2.90231-19.90155-8.70693-5.50308-5.80462-8.25462-12.92847-8.25462-21.37156 0-8.51847 2.82692-15.7177 8.48077-21.59771 5.65385-5.955386 12.40078-8.933079 20.24079-8.933079 7.31231 0 13.15462 2.60077 17.52693 7.802309V73.503233ZM208.69522 122.91788v29.73926h-16.39616V94.309401l15.30567-.111726.0728 9.044805c4.14615-6.709233 10.55385-10.063849 19.22309-10.063849 6.40769 0 11.64693 2.110771 15.7177 6.332312 4.14616 4.221547 6.21924 10.101547 6.21924 17.640017v35.50618h-16.39617V122.3525c0-4.67385-1.05538-8.17924-3.16615-10.51616-2.03539-2.41231-4.74924-3.61847-8.14155-3.61847-3.69385 0-6.70923 1.20616-9.04616 3.61847-2.26154 2.41231-3.39231 6.10615-3.39231 11.08154z" transform="scale(.96576 1.03546)"/>
    </g>
    <ellipse ry="11.241732" rx="11.113772" cy="148.55531" cx="26.059879" style="fill:#d3212c;fill-opacity:1;stroke:none;stroke-width:1.04396;stroke-linecap:round;stroke-linejoin:round"/>
  </g>
</svg>
