<svg xmlns="http://www.w3.org/2000/svg" width="227.6" height="157.62" viewBox="0 0 227.6 157.62"><defs><style>.cls-1{fill:#ffd961;}.cls-2{fill:#6ee4ff;}.cls-3{fill:#60ba6a;}.cls-4{fill:#ea471b;}.cls-5{fill:#0a0101;}</style></defs><g id="Layer_2" data-name="Layer 2"><g id="Layer_1-2" data-name="Layer 1"><path class="cls-1" d="M16.26,117.15C6.72,117.15,0,123,0,134.28,0,146,6.72,151.62,16.26,151.62S32.52,146,32.52,134.28C32.52,123,25.8,117.15,16.26,117.15Z"/><polygon class="cls-1" points="215.86 19.74 153.75 19.74 156.37 40.85 172.69 40.85 186.04 150.07 209.64 150.07 196.29 40.85 218.4 40.85 215.86 19.74"/><polygon class="cls-1" points="80.7 19.74 57.18 19.74 41.61 150.07 105.29 150.07 107.4 128.96 67.66 128.96 80.7 19.74"/><path class="cls-1" d="M99.17.55,84.57,122.32l22.87-.55,2-20,.67-7.12h20.63l.65,7.12L136,150.15h24.07L142,0Zm12.7,74.65,4.87-55.42h7.14l5.06,55.42Z"/><path class="cls-2" d="M25.26,123.15C15.72,123.15,9,129,9,140.28c0,11.71,6.72,17.34,16.26,17.34S41.52,152,41.52,140.28C41.52,129,34.8,123.15,25.26,123.15Z"/><polygon class="cls-2" points="225.06 25.74 163.37 25.74 165.99 46.85 182.31 46.85 195.66 156.07 219.26 156.07 205.91 46.85 227.6 46.85 225.06 25.74"/><polygon class="cls-2" points="89.11 25.68 65.58 25.68 50.02 156 113.69 156 115.81 134.89 76.06 134.89 89.11 25.68"/><path class="cls-2" d="M107.5,6,92.9,127.77h23.43l2-20,.66-7.12H139.6l.65,7.12,4.67,48.42h24.69L151.51,6Zm13.26,75.2,4.86-55.42h7.15l5.06,55.42Z"/><path class="cls-3" d="M24.26,120.15C14.72,120.15,8,126,8,137.28c0,11.71,6.72,17.34,16.26,17.34S40.52,149,40.52,137.28C40.52,126,33.8,120.15,24.26,120.15Z"/><polygon class="cls-3" points="223.59 22.74 161.48 22.74 164.1 43.85 180.42 43.85 193.77 153.07 217.38 153.07 204.03 43.85 226.13 43.85 223.59 22.74"/><polygon class="cls-3" points="87.86 22.74 64.34 22.74 48.77 153.07 112.45 153.07 114.56 131.96 74.82 131.96 87.86 22.74"/><path class="cls-3" d="M106.35,3,91.75,124.77h23.43l2-20,.66-7.12h20.63l.65,7.12,4.67,48.42h24.07L149.74,3Zm13.26,75.2,4.86-55.42h7.15l5.06,55.42Z"/><path class="cls-4" d="M18.26,120.15C8.72,120.15,2,126,2,137.28,2,149,8.72,154.62,18.26,154.62S34.52,149,34.52,137.28C34.52,126,27.8,120.15,18.26,120.15Z"/><polygon class="cls-4" points="217.59 22.74 155.48 22.74 158.1 43.85 174.42 43.85 187.77 153.07 211.38 153.07 198.03 43.85 220.13 43.85 217.59 22.74"/><polygon class="cls-4" points="81.86 22.74 58.34 22.74 42.77 153.07 106.45 153.07 108.56 131.96 68.82 131.96 81.86 22.74"/><path class="cls-4" d="M100.35,3,85.75,124.77h23.43l2-20,.66-7.12h20.63l.65,7.12,4.67,48.42h24.07L143.74,3Zm13.26,75.2,4.86-55.42h7.15l5.06,55.42Z"/><path class="cls-5" d="M21.26,120.15C11.72,120.15,5,126,5,137.28c0,11.71,6.72,17.34,16.26,17.34S37.52,149,37.52,137.28C37.52,126,30.8,120.15,21.26,120.15Z"/><polygon class="cls-5" points="220.59 22.74 158.48 22.74 161.1 43.85 177.42 43.85 190.77 153.07 214.38 153.07 201.03 43.85 223.13 43.85 220.59 22.74"/><polygon class="cls-5" points="84.86 22.74 61.34 22.74 45.77 153.07 109.45 153.07 111.56 131.96 71.82 131.96 84.86 22.74"/><path class="cls-5" d="M103.35,3,88.75,124.77h23.43l2-20,.66-7.12h20.63l.65,7.12,4.67,48.42h24.07L146.74,3Zm13.26,75.2,4.86-55.42h7.15l5.06,55.42Z"/></g></g></svg>