<?xml version="1.0" encoding="UTF-8"?>
<svg id="dot_realtor_realestate" width="493.94" height="222.56366" data-di-rand="1662575037696" data-di-res-id="ed332f8e-c8813944" data-name="Layer 1" version="1.1" viewBox="0 0 493.94001 222.56366" xmlns="http://www.w3.org/2000/svg" xmlns:cc="http://creativecommons.org/ns#" xmlns:rdf="http://www.w3.org/1999/02/22-rdf-syntax-ns#">
 <defs id="defs616">
  <style id="style614">.hcls-1{fill:#1c2138}.hcls-2{fill:#2cb8e6}</style>
 </defs>
 <g id="g687" transform="translate(-399.1,110.987)">
  <path id="path620" class="hcls-1" d="m491.33 57.02a27.22 27.22 0 0 0-27.28 27.28c0 15.1 11.33 27.27 27.7 27.27 11.31 0 19.4-5.49 24.05-13.27l-11.57-6.46c-3 4.08-7 7.14-12.38 7.14-7.55 0-12.27-3.77-13.95-9.54h40.49v-5.25c0-15.1-11.01-27.17-27.06-27.17zm-12.8 20.88a13.71 13.71 0 0 1 12.9-8.29c6.08 0 10.6 2.84 12.48 8.29z"/>
  <path id="path622" class="hcls-1" d="m630.58 98.98c-7.55 0-12.27-3.77-13.95-9.54h40.53v-5.25c0-15.1-11-27.17-27.06-27.17a27.22 27.22 0 0 0-27.28 27.28c0 15.1 11.33 27.27 27.69 27.27 11.32 0 19.41-5.49 24.06-13.27l-11.61-6.46c-3.01 4.08-7.02 7.14-12.38 7.14zm-0.42-29.37c6.08 0 10.6 2.84 12.48 8.29h-25.38a13.71 13.71 0 0 1 12.9-8.29z"/>
  <path id="path624" class="hcls-1" d="m893.04 84.19c0-15.1-11-27.17-27.06-27.17a27.22 27.22 0 0 0-27.28 27.28c0 15.1 11.33 27.27 27.7 27.27 11.32 0 19.4-5.49 24-13.27l-11.57-6.46c-3 4.08-7 7.14-12.38 7.14-7.55 0-12.27-3.77-14-9.54h40.49zm-39.88-6.29a13.71 13.71 0 0 1 12.9-8.29c6.09 0 10.6 2.84 12.48 8.29z"/>
  <circle id="circle626" class="hcls-1" cx="409.92999" cy="100.61" r="10.83"/>
  <path id="path628" class="hcls-1" d="m464.75 58.07h-5.77c-7.14 0-11.86 3.15-14.48 8.61v-8.61h-14.27v52.45h14.38v-24.75c0-9.76 3.35-13.74 11-13.74h9.13z"/>
  <path id="path630" class="hcls-1" d="m561.53 63.21c-3.46-3.67-8.81-6.19-15.63-6.19-11.85 0-25.49 8.71-25.49 27.28s14.16 27.27 25.28 27.27a20.44 20.44 0 0 0 15.84-6.9v5.87h14.37v-52.47h-14.37zm-13.37 34.76a13.7 13.7 0 1 1 13.7-13.7 13.7 13.7 0 0 1-13.7 13.7z"/>
  <path id="path632" class="hcls-1" d="m784.28 63.21c-3.46-3.67-8.81-6.19-15.63-6.19-11.86 0-25.49 8.71-25.49 27.28s14.16 27.27 25.28 27.27a20.44 20.44 0 0 0 15.84-6.9v5.87h14.37v-52.47h-14.37zm-13.38 34.76a13.7 13.7 0 1 1 13.7-13.7 13.7 13.7 0 0 1-13.7 13.7z"/>
  <path id="path634" class="hcls-1" d="m687.4 77.13c-8-1.6-11.12-2.46-11.12-4.81s2.14-4.39 7-4.39 8.45 2.36 9.84 5.88l12.94-5.45c-3.9-7.49-10.74-12.41-22.72-12.41-13.27-0.21-21.93 7.81-21.93 16.8 0 11.44 9.63 14.76 19.25 16.47 6.21 1.17 11.45 2 11.45 4.92 0 2.56-2.57 4.81-7.38 4.81-5.24 0-9.31-2.35-11.23-7.27l-14 5.45c3.85 9.41 11.66 14.44 24.61 14.44 15.4 0.21 22.67-10.05 22.67-17.86-0.02-11.55-10.39-14.76-19.38-16.58z"/>
  <path id="path636" class="hcls-1" d="m731.33 37.93-14.37 7.87v12.27h-8.92v12.91h8.92v16.78c0 17.1 5.45 22.76 22.13 22.76h2.07v-13.42c-8.81 0-9.86-1.26-9.86-9.44v-16.68h9.86v-12.91h-9.86z"/>
  <path id="path638" class="hcls-1" d="m826.47 37.93-14.37 7.87v12.27h-8.94v12.91h8.91v16.78c0 17.1 5.46 22.76 22.13 22.76h2.1v-13.42c-8.81 0-9.86-1.26-9.86-9.44v-16.68h9.86v-12.91h-9.86z"/>
  <path id="path640" class="hcls-1" d="m607.94 54.65 6.63-12.56-79.62-42.09-74.62 39.45 6.63 12.56 67.99-35.94 47.39 25.05v69.4h14.37v-61.81z"/>
 </g>
 <g id="g674" transform="translate(62.805001,-31.36)">
  <path id="path642" class="hcls-2" d="m92.22 57.03a27.22 27.22 0 0 0-27.27 27.27c0 15.11 11.33 27.27 27.69 27.27 11.32 0 19.41-5.49 24.06-13.27l-11.54-6.46c-3 4.08-7 7.15-12.38 7.15-7.55 0-12.28-3.78-14-9.55h40.49v-5.24c0.02-15.11-11-27.17-27.05-27.17zm-12.79 20.87a13.7 13.7 0 0 1 12.9-8.29c6.08 0 10.59 2.84 12.48 8.29z"/>
  <path id="path644" class="hcls-2" d="m308.76 66.67v-8.6h-14.26v52.45h14.37v-24.75c0-9.76 3.35-13.74 11-13.74h9.13v-14h-5.77c-7.13 0.05-11.85 3.19-14.47 8.64z"/>
  <path id="path646" class="hcls-2" d="m263.26 57a27.28 27.28 0 1 0 27.29 27.28 27.28 27.28 0 0 0-27.29-27.28zm0 41a13.7 13.7 0 1 1 13.7-13.7 13.7 13.7 0 0 1-13.7 13.68z"/>
  <path id="path648" class="hcls-2" d="m10.83 89.78a10.83 10.83 0 1 0 10.83 10.83 10.83 10.83 0 0 0-10.83-10.83z"/>
  <path id="path650" class="hcls-2" d="m65.64 58.08h-5.77c-7.13 0-11.85 3.14-14.47 8.6v-8.6h-14.24v52.45h14.34v-24.76c0-9.76 3.36-13.74 11-13.74h9.12z"/>
  <path id="path652" class="hcls-2" d="m162.43 63.22c-3.46-3.67-8.81-6.19-15.63-6.19-11.85 0-25.49 8.7-25.49 27.27s14.16 27.27 25.28 27.27a20.44 20.44 0 0 0 15.84-6.9v5.88h14.37v-52.47h-14.37zm-13.38 34.76a13.7 13.7 0 1 1 13.7-13.7 13.7 13.7 0 0 1-13.7 13.7z"/>
  <path id="path654" class="hcls-2" d="m183.24 31.36h14.37v79.17h-14.37z"/>
  <path id="path656" class="hcls-2" d="m224.39 37.94-14.37 7.87v12.27h-8.92v12.9h8.92v16.78c0 17.1 5.46 22.77 22.13 22.77h2.1v-13.43c-8.81 0-9.86-1.26-9.86-9.44v-16.68h9.86v-12.9h-9.86z"/>
  <path id="path658" class="hcls-2" d="m340.03 58.08v1.87h4.58v12.08h2.06v-12.08h4.49v-1.87zm26.52 0-5.92 7.59-5.73-7.6h-1.92v14h2v-10.53l5.65 7.13 5.63-7.12v10.48h2.07v-14z"/>
 </g>
 <metadata id="metadata663">
  <rdf:RDF>
   <cc:Work rdf:about=""/>
  </rdf:RDF>
 </metadata>
</svg>
