<?xml version="1.0" encoding="UTF-8" standalone="no"?>
<!-- Created with Inkscape (http://www.inkscape.org/) -->

<svg
   width="377.95276"
   height="129.4848"
   viewBox="0 0 100 34.259519"
   version="1.1"
   id="svg9969"
   inkscape:version="1.1.2 (b8e25be833, 2022-02-05)"
   sodipodi:docname="State_Bank_of_India_logo.svg"
   xmlns:inkscape="http://www.inkscape.org/namespaces/inkscape"
   xmlns:sodipodi="http://sodipodi.sourceforge.net/DTD/sodipodi-0.dtd"
   xmlns="http://www.w3.org/2000/svg"
   xmlns:svg="http://www.w3.org/2000/svg"
   xmlns:rdf="http://www.w3.org/1999/02/22-rdf-syntax-ns#"
   xmlns:cc="http://creativecommons.org/ns#"
   xmlns:dc="http://purl.org/dc/elements/1.1/">
  <defs
     id="defs9963" />
  <sodipodi:namedview
     id="base"
     pagecolor="#ffffff"
     bordercolor="#666666"
     borderopacity="1.0"
     inkscape:pageopacity="0.0"
     inkscape:pageshadow="2"
     inkscape:zoom="1"
     inkscape:cx="280.5"
     inkscape:cy="59"
     inkscape:document-units="mm"
     inkscape:current-layer="g9996"
     showgrid="false"
     fit-margin-top="0"
     fit-margin-left="0"
     fit-margin-right="0"
     fit-margin-bottom="0"
     units="px"
     inkscape:window-width="1024"
     inkscape:window-height="705"
     inkscape:window-x="-8"
     inkscape:window-y="-8"
     inkscape:window-maximized="1"
     inkscape:pagecheckerboard="0" />
  <metadata
     id="metadata9966">
    <rdf:RDF>
      <cc:Work
         rdf:about="">
        <dc:format>image/svg+xml</dc:format>
        <dc:type
           rdf:resource="http://purl.org/dc/dcmitype/StillImage" />
      </cc:Work>
    </rdf:RDF>
  </metadata>
  <g
     inkscape:label="Layer 1"
     inkscape:groupmode="layer"
     id="layer1"
     transform="translate(-33.915775,-175.709)">
    <g
       id="g9996"
       transform="translate(0.13229192,-0.13228808)">
      <path
         d="m 92.879525,193.22725 c -1.82615,-1.51394 -4.190058,-2.4914 -6.27489,-3.35414 -2.874922,-1.18892 -5.358622,-2.21482 -5.358622,-4.11738 0,-0.83092 0.388666,-1.59418 1.095934,-2.14478 0.745474,-0.5814 1.786634,-0.90088 2.929728,-0.90088 3.594928,0 6.46221,2.54226 6.487692,2.5652 l 0.700854,0.6395 3.18587,-5.97542 -0.36445,-0.38508 c -0.1389,-0.1474 -3.494256,-3.61144 -9.966668,-3.61144 -3.105576,0 -5.961388,0.99264 -8.04495,2.79462 -2.114136,1.82866 -3.281442,4.35322 -3.281442,7.10702 0,2.68498 1.042416,4.85648 3.182042,6.63684 1.799384,1.49478 4.04096,2.46074 6.209902,3.39608 2.95775,1.27436 5.515364,2.3767 5.515364,4.33784 0,1.49354 -1.01183,3.0903 -3.847252,3.0903 -4.066436,0 -7.330036,-3.09666 -7.361896,-3.12852 l -0.611692,-0.59364 -3.960668,5.48856 0.395086,0.44236 c 0.04434,0.0458 1.067904,1.17626 2.990892,2.30142 1.763696,1.02972 4.664108,2.25822 8.457838,2.25822 3.31967,0 6.148724,-1.01822 8.182576,-2.94244 1.912794,-1.8122 2.965404,-4.31502 2.965404,-7.04842 0,-2.81252 -1.055152,-5.05534 -3.22664,-6.85598"
         style="fill:#292075;fill-opacity:1;fill-rule:nonzero;stroke:none;stroke-width:1.27435"
         id="path2868"
         inkscape:connector-curvature="0" />
      <path
         inkscape:connector-curvature="0"
         id="path2870"
         style="fill:#292075;fill-opacity:1;fill-rule:nonzero;stroke:none;stroke-width:1.27435"
         d="m 126.36169,209.58089 h 7.42179 v -33.1445 h -7.42179 z" />
      <path
         d="m 111.85454,203.37355 h -5.64918 v -20.7323 h 4.98142 c 2.23266,0 3.51337,1.24884 3.51337,3.42542 0,2.19952 -1.152,3.31332 -3.42544,3.31332 h -1.71527 v 6.10024 h 2.2951 c 1.25523,0 2.30147,0.3912 3.02402,1.13542 0.75953,0.77996 1.0679,1.55218 1.0679,2.6647 0,2.52576 -1.56744,4.0932 -4.09192,4.0932 m 9.85452,-8.68842 c -0.73402,-1.15462 -1.74075,-2.07216 -2.93864,-2.68636 1.93318,-1.54964 3.02657,-3.92888 3.02657,-6.64572 0,-2.7475 -1.04624,-5.03876 -3.02657,-6.63042 -1.86565,-1.49736 -4.45639,-2.28996 -7.49571,-2.28996 H 99.199003 v 33.1444 h 12.210787 c 3.23939,0 6.04168,-0.8181 8.1023,-2.36898 2.3397,-1.75866 3.57454,-4.3761 3.57454,-7.57216 0,-1.8211 -0.47531,-3.53376 -1.37757,-4.9508"
         style="fill:#292075;fill-opacity:1;fill-rule:nonzero;stroke:none;stroke-width:1.27435"
         id="path2874"
         inkscape:connector-curvature="0" />
      <path
         d="m 50.918349,175.84129 c -9.463306,0 -17.134866,7.68936 -17.134866,17.17438 0,8.89234 6.742566,16.20584 15.381364,17.08514 v -12.47584 c -1.856724,-0.70824 -3.1795,-2.50666 -3.1795,-4.6093 0,-2.72076 2.212264,-4.93432 4.933002,-4.93432 2.719454,0 4.934266,2.21356 4.934266,4.93432 0,2.10264 -1.325316,3.90072 -3.18204,4.6093 v 12.47584 c 8.640066,-0.8793 15.382632,-8.1928 15.382632,-17.08514 0,-9.48502 -7.671564,-17.17438 -17.134858,-17.17438"
         style="fill:#00b5ef;fill-opacity:1;fill-rule:nonzero;stroke:none;stroke-width:1.27435"
         id="path2878"
         inkscape:connector-curvature="0" />
    </g>
  </g>
</svg>
