<svg id="Layer_1" data-name="Layer 1" xmlns="http://www.w3.org/2000/svg" viewBox="0 0 182.87 121.89"><path d="M153.52,44.46l6.12-.4a1.37,1.37,0,0,0,1.56-1.48,29.7,29.7,0,0,0-.44-3.14c-.43-1.88-.78-3.52-2.39-4.54a3.86,3.86,0,0,0-4.16.46c-2,2-2.05,5.18-2.17,7.73a1.34,1.34,0,0,0,1.48,1.37"/><path d="M103.84,40.1c-1.54-1.91-3.14-2.59-4.79-2s-2.5,2.08-2.52,4.53.69,5.81,2.14,10.08,2.94,7.39,4.46,9.31,3.1,2.58,4.76,2,2.51-2.08,2.55-4.53-.66-5.82-2.12-10.1-2.95-7.37-4.48-9.29"/><path d="M182,68.55,178.22,12.4A13.09,13.09,0,0,0,164.35.22L41.25,8.52A13.12,13.12,0,0,0,36.14,10a15.19,15.19,0,0,0-4.84,3.7L4.15,44.85A15.36,15.36,0,0,0,5.59,66.39L29.68,87.53a15.08,15.08,0,0,0,10.45,3.75c1.3,0,5.68-.44,6.62-.5l72.43-4.84a8.07,8.07,0,0,1,.4-1.17,8.8,8.8,0,0,1,2-2.84,8.69,8.69,0,0,1,3-1.88,10.22,10.22,0,0,1,7.12,0,8.86,8.86,0,0,1,5,4.69l33.26-2.28A13.1,13.1,0,0,0,182,68.55M22.21,61.61A6.57,6.57,0,1,1,28.75,55a6.55,6.55,0,0,1-6.54,6.57m46.7-.72a11.3,11.3,0,0,1-3.41,4.23,16.7,16.7,0,0,1-5.37,2.69,29.67,29.67,0,0,1-3.74.86A31.81,31.81,0,0,1,46.11,69l-.3,0-.37-.06L45,68.8l-.13,0h0l-.12,0-.42-.09-.3-.08a3.58,3.58,0,0,1-.35-.09l-.08,0h0l-.38-.12h0c-2.33-.81-4.82-2.17-6-4.38a5.63,5.63,0,0,1-.48-1.22l0-.1a7.56,7.56,0,0,1-.21-1.57,5.56,5.56,0,0,1,.19-1.48,5.19,5.19,0,0,1,3-3.38,5.27,5.27,0,0,1,1.59-.37,5.15,5.15,0,0,1,5.47,4.8,4.52,4.52,0,0,1,0,.9h0a5.37,5.37,0,0,1-.15.8,3.74,3.74,0,0,0-.23,1.74,2.16,2.16,0,0,0,1.21,1.66,3.7,3.7,0,0,0,1.26.31,17.7,17.7,0,0,0,2.18,0,17.24,17.24,0,0,0,4.63-.64,8.33,8.33,0,0,0,4.1-3,5,5,0,0,0,.63-3.77A5.32,5.32,0,0,0,59.55,57a10.87,10.87,0,0,0-2.44-2.32,24.13,24.13,0,0,0-3.41-2c-1.28-.62-2.6-1.24-4-1.87q-2.31-1.08-4.62-2.28a24.6,24.6,0,0,1-4.17-2.73,14.22,14.22,0,0,1-3.1-3.49,9.92,9.92,0,0,1-1.4-4.61A11.55,11.55,0,0,1,37.05,33s1.36-5.6,10.83-8.61a18.14,18.14,0,0,1,4.62-.83c.44,0,.87,0,1.3,0a21.93,21.93,0,0,1,6.13,1.13h0a11.67,11.67,0,0,1,3.74,2,6,6,0,0,1,1.57,1.87,4.69,4.69,0,0,1,.42,1.06.29.29,0,0,0,0,.09,6.31,6.31,0,0,1,.18,1.35,4.56,4.56,0,0,1-.16,1.29,4.46,4.46,0,0,1-2.6,2.92,4.22,4.22,0,0,1-1.38.32,4.39,4.39,0,0,1-3.27-1.14,4.44,4.44,0,0,1-1.6-3.13,4.07,4.07,0,0,1,0-.78h0a5,5,0,0,1,.13-.69,3.26,3.26,0,0,0-.86-2.8A3.32,3.32,0,0,0,55,26.44l-.41-.11a8.19,8.19,0,0,0-1.26-.1c-.63,0-1.23,0-1.79.07a9.12,9.12,0,0,0-4.36,2l-.1.12a6,6,0,0,0-1.08,2,6.26,6.26,0,0,0-.27,2.38,4.72,4.72,0,0,0,1.16,2.83A9.69,9.69,0,0,0,48,36.71a13.11,13.11,0,0,0,1.37,1,20.24,20.24,0,0,0,2.16,1.22c.42.22.86.43,1.31.63,1.27.56,2.51,1.09,3.72,1.61q2.51,1.08,4.82,2.28a21.73,21.73,0,0,1,4.15,2.81,13.57,13.57,0,0,1,3,3.71,12.12,12.12,0,0,1,1.36,5,11.9,11.9,0,0,1-1,5.88m50.2-9a14.11,14.11,0,0,1-1.6,5.51A15.4,15.4,0,0,1,113.78,62,18,18,0,0,1,102,66a15.35,15.35,0,0,1-5.69-1.32,14,14,0,0,1-3.75-2.5,13.33,13.33,0,0,1-5.7,4.13,14.27,14.27,0,0,1-4.57,1h0A11.37,11.37,0,0,1,79,67,8.33,8.33,0,0,1,76,65.74a7,7,0,0,1-2.1-2.39A8.38,8.38,0,0,1,73,59.83L71.88,43.11c-.08-1.09-.31-1.48-1.41-1.48l-.62,0a2.38,2.38,0,0,1-1.66-4.22l9.26-7.63a2.36,2.36,0,0,1,3.87,1.68l.08,1.06.11,1.72c.09,1.3.33,1.68,1.8,1.58l1.56-.11a2.45,2.45,0,0,1,.32,4.89l-1.93.13c-1.13.15-1.28.59-1.2,1.77L83.16,59a4.9,4.9,0,0,0,1.17,3.23,3.38,3.38,0,0,0,2.76.9A10.67,10.67,0,0,0,90,62.52,7.59,7.59,0,0,0,91.21,62l.23-.14.39-.29-.18-.19a14.66,14.66,0,0,1-2.16-16.69,15.32,15.32,0,0,1,3.69-4.55A16.89,16.89,0,0,1,98.69,37a17.18,17.18,0,0,1,6.28-1,15.18,15.18,0,0,1,5.72,1.33,14,14,0,0,1,4.63,3.38,15.14,15.14,0,0,1,3.79,11.16m20.55-8.67c-.23.32-.7,0-.94-.35a7.61,7.61,0,0,0-3.17-2.65,4.58,4.58,0,0,0-4,.18l1.05,15a5.41,5.41,0,0,0,.7,2.73,12.13,12.13,0,0,0,2,1.75,2.07,2.07,0,0,1,.72,2.35c-.41.74-1.39.88-2.23.94L122,64a2.44,2.44,0,0,1-1.85-.36c-.76-.67-.42-1.94.21-2.72a9.27,9.27,0,0,0,1.87-2.35,4.81,4.81,0,0,0,.16-2l-.78-12.38a6.05,6.05,0,0,0-.38-2,15.28,15.28,0,0,0-1.4-2,2.33,2.33,0,0,1-.38-1.91,2,2,0,0,1,1.51-1.15l7.31-2.31a3,3,0,0,1,1.9-.17A2,2,0,0,1,131.27,36a6.11,6.11,0,0,1,0,1.91,13.45,13.45,0,0,1,5.89-3.66c1-.3,2.19-.41,2.84.37a3,3,0,0,1,.35,2.2c0,.16-.34,3.18-.41,3.82s-.22,2.15-.24,2.27a.63.63,0,0,1-.09.33m12.53,3.19A16.57,16.57,0,0,0,153.28,51a10.29,10.29,0,0,0,2.06,3.24,7.46,7.46,0,0,0,2.92,1.88,9.4,9.4,0,0,0,3.69.44,11.65,11.65,0,0,0,2.3-.36,13.48,13.48,0,0,0,1.95-.67,11,11,0,0,0,1.57-.86c.3-.2.77-.59,1-.73h0a.32.32,0,0,1,.14,0,.38.38,0,0,1,.24.09h0a.33.33,0,0,1,.12.25.27.27,0,0,1,0,.12v0a17.46,17.46,0,0,1-1.95,3,13,13,0,0,1-2.71,2.47,13.65,13.65,0,0,1-3.45,1.68,17.59,17.59,0,0,1-4.31.79,14.94,14.94,0,0,1-5.84-.67,12.79,12.79,0,0,1-4.6-2.68,13.31,13.31,0,0,1-3.1-4.35,16.45,16.45,0,0,1-1.37-5.7,17.15,17.15,0,0,1,.67-6.23,13.93,13.93,0,0,1,2.71-5,13.65,13.65,0,0,1,4.49-3.45,15.93,15.93,0,0,1,6-1.53,14,14,0,0,1,5.52.66,11.93,11.93,0,0,1,4.24,2.52,12.09,12.09,0,0,1,2.8,4,15.63,15.63,0,0,1,1.08,3.9,1.36,1.36,0,0,1-1,1.49l-16.24,1.1c0,.09,0,0,0,.13"/><path d="M27.27,94.05a15.55,15.55,0,0,0-5.61-2.79,27,27,0,0,0-7.29-.92H1.66a1.26,1.26,0,0,0-.88,2.14l2,2h0a6,6,0,0,1,1,3.66v14.69a6,6,0,0,1-1,3.66l-2,2a1.25,1.25,0,0,0,.88,2.13H14.31a27.6,27.6,0,0,0,7.38-.92,15.6,15.6,0,0,0,5.63-2.81,12.37,12.37,0,0,0,3.59-4.74,16.43,16.43,0,0,0,1.25-6.69,16.2,16.2,0,0,0-1.27-6.69,12.37,12.37,0,0,0-3.62-4.71M22.9,111.76A12.27,12.27,0,0,1,21.5,116a6.31,6.31,0,0,1-2.62,2.53,9.08,9.08,0,0,1-4.11.83H12V91.58h2.74a8.47,8.47,0,0,1,4,.85A6.47,6.47,0,0,1,21.41,95a13.14,13.14,0,0,1,1.46,4.4,38.42,38.42,0,0,1,.45,6.32,37.94,37.94,0,0,1-.42,6"/><path d="M97.52,118.48l-1.11-1.12-.07-.09a3.21,3.21,0,0,1-.79-1.28h0l-.06-.54V105a7,7,0,0,0-.59-3,5.76,5.76,0,0,0-1.52-2,5.53,5.53,0,0,0-2-1.06,7.88,7.88,0,0,0-4.58,0,10.61,10.61,0,0,0-2.08.9A10.07,10.07,0,0,0,83,101.13a18.21,18.21,0,0,0-1.32,1.31,6.44,6.44,0,0,0-1.2-1.9A5.73,5.73,0,0,0,79,99.39a5.86,5.86,0,0,0-1.64-.58,8.36,8.36,0,0,0-1.61-.16,7.78,7.78,0,0,0-2.22.31,10,10,0,0,0-2,.8,10.22,10.22,0,0,0-1.71,1.1A9.93,9.93,0,0,0,68.5,102v-2.1a1.29,1.29,0,0,0-1.59-1.25l-6.57,1.58a1.29,1.29,0,0,0-.81,1.91l1.26,2.15,0,11.67a3.24,3.24,0,0,1-.79,1.27l0,.06-1.14,1.15a1.25,1.25,0,0,0,.88,2.13h10a1.25,1.25,0,0,0,.88-2.13l-1.11-1.12a.28.28,0,0,0-.07-.09,3.32,3.32,0,0,1-.79-1.28h0c0-.23,0-.46-.07-.69V103.14a4,4,0,0,1,.65-.57,5,5,0,0,1,.82-.44,4.51,4.51,0,0,1,.86-.27,3.89,3.89,0,0,1,.8-.1,2.41,2.41,0,0,1,2,.86,3.43,3.43,0,0,1,.69,2.24V116a3.36,3.36,0,0,1-.79,1.27l0,.06-1.14,1.15a1.25,1.25,0,0,0,.88,2.13h10a1.25,1.25,0,0,0,.88-2.13L83,117.36l-.07-.09a3.32,3.32,0,0,1-.79-1.28h0c0-.23,0-.46-.07-.69v-2.63h0v-7.32c0-.28,0-.62,0-1a8.83,8.83,0,0,0-.08-1,4.53,4.53,0,0,1,1.42-1.09,3.71,3.71,0,0,1,1.75-.43,2.4,2.4,0,0,1,2,.85,3.44,3.44,0,0,1,.67,2.22V116a3.36,3.36,0,0,1-.79,1.27l0,.06-1.14,1.15a1.25,1.25,0,0,0,.87,2.13h10a1.25,1.25,0,0,0,.88-2.13"/><path d="M55.31,102.71A10.69,10.69,0,0,0,52,99.92a11.53,11.53,0,0,0-4.25-1.3A13,13,0,0,0,43,99a12.68,12.68,0,0,0-4.32,2,11.59,11.59,0,0,0-3,3.25,11.29,11.29,0,0,0,.79,12.73,10.42,10.42,0,0,0,3.32,2.79A11.43,11.43,0,0,0,44,121.14a13.61,13.61,0,0,0,9.13-2.46,11.55,11.55,0,0,0,3-3.25,10.61,10.61,0,0,0,1.49-4.08,11.52,11.52,0,0,0-2.3-8.64m-4.63,13.91c-.15,1.85-.87,2.95-2.15,3.3s-2.44-.25-3.49-1.77a24.72,24.72,0,0,1-2.9-7.27A24.89,24.89,0,0,1,41,103.14c.15-1.85.86-3,2.13-3.29s2.45.24,3.52,1.77a24.22,24.22,0,0,1,2.91,7.25,24,24,0,0,1,1.09,7.75"/><path d="M134.18,118.48l-1.11-1.12-.07-.09a3.32,3.32,0,0,1-.79-1.28h0c0-.23-.05-.46-.07-.69V102.86l0-2.92a1.29,1.29,0,0,0-1.59-1.25L124,100.27a1.29,1.29,0,0,0-.81,1.91l1.26,2.15,0,11.67a3.36,3.36,0,0,1-.79,1.27l-.05.06-1.14,1.15a1.25,1.25,0,0,0,.88,2.13h10a1.25,1.25,0,0,0,.88-2.13"/><path d="M161.64,118.48l-1.1-1.12-.07-.09a3.23,3.23,0,0,1-.8-1.28h0c0-.17,0-.35,0-.52V104.71a5.82,5.82,0,0,0-.5-2.46,5.65,5.65,0,0,0-1.38-1.92,6.31,6.31,0,0,0-2.07-1.24,7.42,7.42,0,0,0-2.57-.44,9.24,9.24,0,0,0-2.25.27,11.41,11.41,0,0,0-2,.74,10.64,10.64,0,0,0-1.79,1.08,12.19,12.19,0,0,0-1.52,1.3v-2.1a1.29,1.29,0,0,0-1.59-1.25l-6.57,1.58a1.29,1.29,0,0,0-.81,1.91l1.26,2.15,0,11.67a3.24,3.24,0,0,1-.79,1.27l0,.06-1.14,1.15a1.25,1.25,0,0,0,.88,2.13h10a1.25,1.25,0,0,0,.88-2.13l-1.11-1.12a.28.28,0,0,0-.07-.09,3.32,3.32,0,0,1-.79-1.28h0c0-.23,0-.46-.07-.69V103.13a4.43,4.43,0,0,1,1.55-1,5,5,0,0,1,1.89-.36,2.77,2.77,0,0,1,2.2.88,3.42,3.42,0,0,1,.75,2.32v11a3.36,3.36,0,0,1-.79,1.27l-.05.06-1.15,1.15a1.25,1.25,0,0,0,.88,2.13h10a1.25,1.25,0,0,0,.88-2.13"/><path d="M110.78,117a6.05,6.05,0,0,1-2.59.53,3.75,3.75,0,0,1-2.69-.81,2.73,2.73,0,0,1-.84-2.06,3.79,3.79,0,0,1,1.57-3,9.57,9.57,0,0,1,4.55-1.72Zm9,.74-.56-1-.13-.21a9.74,9.74,0,0,1-.56-2.49v-7.84a13.43,13.43,0,0,0-.33-3.09,5.41,5.41,0,0,0-1.22-2.38,5.85,5.85,0,0,0-2.43-1.52,12,12,0,0,0-3.92-.54c-.45,0-.89,0-1.33.06a14.67,14.67,0,0,0-1.78.25,14.09,14.09,0,0,0-2.78.86,13,13,0,0,0-2.41,1.33,13.27,13.27,0,0,0-1.85,1.56l-.12.19,0,.09h0s0,.08,0,.09a.25.25,0,0,0,.07.2h0a.25.25,0,0,0,.17.08.2.2,0,0,0,.11,0h0c.19-.1.57-.37.8-.5a5.85,5.85,0,0,1,.56-.29c.21-.1.43-.19.67-.28a11.57,11.57,0,0,1,1.17-.34l.09,0,.25,0a9.56,9.56,0,0,1,1.75-.16,7.31,7.31,0,0,1,1.17.09,4.87,4.87,0,0,1,2.15.72,2,2,0,0,1,.33.25,3.68,3.68,0,0,1,1.18,2.93v2.78a26.36,26.36,0,0,0-4.55.86,15.52,15.52,0,0,0-3.8,1.6,8.41,8.41,0,0,0-2.61,2.35,5.24,5.24,0,0,0-1,3.12,4.42,4.42,0,0,0,.42,2,4.19,4.19,0,0,0,1.17,1.47,5.49,5.49,0,0,0,1.77.91,7.36,7.36,0,0,0,2.2.32,7.7,7.7,0,0,0,3.64-.91,10.34,10.34,0,0,0,2.76-2.11V120a1.29,1.29,0,0,0,1.59,1.26l6.57-1.58a1.29,1.29,0,0,0,.81-1.91"/><path d="M181.4,112a6.76,6.76,0,0,0-1.58-2,12.37,12.37,0,0,0-2.21-1.49q-1.22-.64-2.52-1.23c-.63-.27-1.27-.56-1.93-.86-.2-.09-.41-.19-.65-.32h0c-.39-.2-.75-.4-1.06-.6a6.62,6.62,0,0,1-.64-.47,4.53,4.53,0,0,1-.49-.49,1.45,1.45,0,0,1-.39-1,2.08,2.08,0,0,1,.18-.87,2.21,2.21,0,0,1,.53-.72h0a4.87,4.87,0,0,1,2.1-.68c.31,0,.61,0,.91,0a4.54,4.54,0,0,1,.58.07l.16.05a1.74,1.74,0,0,1,.41.21.81.81,0,0,1,.19.77,1.68,1.68,0,0,0-.09.32.31.31,0,0,0,0,.08,2.15,2.15,0,0,0,0,.43,2.52,2.52,0,0,0,.92,1.91,3.08,3.08,0,0,0,2.06.76,3,3,0,0,0,.89-.13,2.79,2.79,0,0,0,1.84-1.58,2.26,2.26,0,0,0,.17-.76,3,3,0,0,0-.06-.8v0a2.29,2.29,0,0,0-.23-.63,3.35,3.35,0,0,0-.9-1.08,6.64,6.64,0,0,0-2-1.13l0,0a13.46,13.46,0,0,0-3.37-.74H174l-.66,0a11.77,11.77,0,0,0-2.61.25c-5.1,1.09-6.31,3.59-6.46,4a5.32,5.32,0,0,0-.55,2.42,4.63,4.63,0,0,0,.67,2.46,7.5,7.5,0,0,0,1.64,1.85,13.71,13.71,0,0,0,2.22,1.45c.79.42,1.6.82,2.4,1.21s1.37.65,2,1a12.42,12.42,0,0,1,1.68,1,4.72,4.72,0,0,1,1.09,1,1.71,1.71,0,0,1,.29.59,1.5,1.5,0,0,1-.31,1.25,3.94,3.94,0,0,1-2,1.1,13.06,13.06,0,0,1-3.45.06,2,2,0,0,1-.47-.11l-.07,0a.49.49,0,0,1-.26-.36,1,1,0,0,1,.13-.51s0,0,0,0a2,2,0,0,0,.13-.42.29.29,0,0,0,0-.09,2.61,2.61,0,0,0,0-.48,3.13,3.13,0,0,0-3.28-2.93,3.48,3.48,0,0,0-1,.15,3.13,3.13,0,0,0-2.06,1.78,2.77,2.77,0,0,0-.2.85,3.73,3.73,0,0,0,.08.9v0a2.91,2.91,0,0,0,.26.71,5.7,5.7,0,0,0,3.27,2.45h0l.18.06.06,0h0l.17,0h0l.16,0,.23,0,.05,0h0l.07,0,.23,0,.2,0,.16,0a17.91,17.91,0,0,0,3.37.3,20.91,20.91,0,0,0,2.27-.12,18.8,18.8,0,0,0,2.09-.29,10.26,10.26,0,0,0,3.12-1.13,6.23,6.23,0,0,0,2.14-2,5.41,5.41,0,0,0,.81-3,5.51,5.51,0,0,0-.61-2.62"/><path d="M129.29,84.16h0a1.8,1.8,0,0,0,1.92,1,1.81,1.81,0,0,1,1.84,2.76,1.85,1.85,0,0,0,.14,2.15,1.81,1.81,0,0,1-1.45,3A1.81,1.81,0,0,0,130,94.2a1.8,1.8,0,0,1-3.3.22,1.79,1.79,0,0,0-1.91-.94,1.82,1.82,0,0,1-1.84-2.77,1.82,1.82,0,0,0-.15-2.14,1.82,1.82,0,0,1,1.46-3A1.78,1.78,0,0,0,126,84.39a1.8,1.8,0,0,1,3.3-.23"/></svg>