<svg xmlns="http://www.w3.org/2000/svg" xml:space="preserve" viewBox="0 0 479 249"><path fill="#E7380D" d="M152.232 19.464V65.51h25.073v33.964h-25.073v42.883c0 5.158.484 8.57 1.455 10.237 1.492 2.578 4.103 3.867 7.835 3.867 3.358 0 8.06-.984 14.104-2.958l3.358 32.022c-11.269 2.507-21.791 3.761-31.566 3.761-11.344 0-19.701-1.479-25.074-4.439s-9.347-7.455-11.921-13.488c-2.574-6.034-3.862-15.804-3.862-29.312V99.475h-16.79V65.51h16.79V43.285l45.671-23.821zm27.929 106.907c0-18.464 6.263-33.68 18.792-45.647 12.527-11.968 29.448-17.951 50.762-17.951 24.367 0 42.777 7.029 55.229 21.085 10.008 11.323 15.012 25.265 15.012 41.829 0 18.617-6.207 33.87-18.621 45.761-12.414 11.893-29.582 17.837-51.506 17.837-19.556 0-35.369-4.938-47.438-14.816-14.821-12.234-22.23-28.267-22.23-48.098zm46.751-.114c0 10.79 2.195 18.769 6.589 23.935 4.392 5.168 9.912 7.751 16.558 7.751 6.721 0 12.24-2.545 16.557-7.637 4.314-5.09 6.475-13.259 6.475-24.505 0-10.485-2.178-18.293-6.531-23.421-4.355-5.129-9.74-7.693-16.156-7.693-6.801 0-12.415 2.604-16.845 7.807-4.433 5.205-6.647 13.126-6.647 23.763zm101.72 106.339V65.508h43.198v17.894c5.971-7.522 11.451-12.612 16.44-15.272 6.727-3.571 14.173-5.357 22.336-5.357 16.101 0 28.553 6.194 37.359 18.578 8.805 12.386 13.209 27.696 13.209 45.933 0 20.136-4.801 35.503-14.399 46.103-9.601 10.6-21.732 15.899-36.396 15.899-7.105 0-13.588-1.216-19.445-3.647-5.858-2.431-11.094-6.04-15.703-10.827v57.785h-46.599zm46.26-106.225c0 9.574 2.002 16.68 6.009 21.313 4.006 4.636 9.071 6.952 15.193 6.952 5.366 0 9.864-2.223 13.492-6.668 3.629-4.444 5.442-11.984 5.442-22.623 0-9.802-1.89-17-5.669-21.599-3.78-4.597-8.39-6.896-13.832-6.896-5.896 0-10.811 2.318-14.74 6.952-3.931 4.637-5.895 12.16-5.895 22.569z"/><circle fill="#E7380D" cx="42.018" cy="162.285" r="29.981"/></svg>