<?xml version="1.0" encoding="UTF-8"?>
<svg id="asset_logo" width="238.23" height="57.084743" version="1.1" viewBox="0 0 238.23 57.084745" xmlns="http://www.w3.org/2000/svg" xmlns:cc="http://creativecommons.org/ns#" xmlns:dc="http://purl.org/dc/elements/1.1/" xmlns:rdf="http://www.w3.org/1999/02/22-rdf-syntax-ns#">
 <defs id="defs866">
  <style id="style864">.cls-1{fill:#4cb0e3;}.cls-2{fill:#4fc5d4;}</style>
 </defs>
 <title id="title868">DotTravel</title>
 <g id="Layer_1-2" transform="translate(23.820002)" data-name="Layer 1">
  <path id="path870" class="cls-1" d="m3.83 28.2h-3.83v-5.64h3.83v-11.28h18.56v11.28h8.92l-3.49 5.64h-5.43v15.34a8.24 8.24 0 0 0 1.55 5.37 5.48 5.48 0 0 0 4.46 1.88l-2.12 4.68a19.73 19.73 0 0 1-3.77 1.18 22 22 0 0 1-4.63 0.43 19.11 19.11 0 0 1-6.36-0.94 11.31 11.31 0 0 1-4.38-2.68 10.65 10.65 0 0 1-2.51-4.28 18.91 18.91 0 0 1-0.8-5.7z"/>
  <path id="path872" class="cls-1" d="m32 22.56h16.39l1.61 4.92c1.3-1 2.52-1.78 3.67-2.48a29.15 29.15 0 0 1 3.35-1.74 17 17 0 0 1 3.15-1 14.83 14.83 0 0 1 3-0.32 11.91 11.91 0 0 1 4 0.61 8.77 8.77 0 0 1 3 1.75 7.52 7.52 0 0 1 1.92 2.7 8.55 8.55 0 0 1 0.67 3.44 7.55 7.55 0 0 1-0.8 3.45 8 8 0 0 1-2.34 2.72 11.61 11.61 0 0 1-3.78 1.77 18.91 18.91 0 0 1-5.11 0.63l-6-8a6.55 6.55 0 0 0-2.15 0.41 4.86 4.86 0 0 0-2 1.3v23.71h-18.58z"/>
  <path id="path874" class="cls-1" d="m66.74 45.77a9.82 9.82 0 0 1 1.09-4.58 10.91 10.91 0 0 1 3.17-3.69 15.69 15.69 0 0 1 5-2.48 21.57 21.57 0 0 1 6.49-0.91 25.77 25.77 0 0 1 6.72 0.84 20.2 20.2 0 0 1 5.25 2.13v-0.27a13.77 13.77 0 0 0-0.53-4.07 6.54 6.54 0 0 0-1.7-2.74 6.38 6.38 0 0 0-2.78-1.54 14.71 14.71 0 0 0-4-0.48 27 27 0 0 0-4.31 0.36 23 23 0 0 0-4.1 1l-2.5-4.61a35.17 35.17 0 0 1 7.71-2.2 49.12 49.12 0 0 1 8.22-0.67 40.27 40.27 0 0 1 9.62 1 20.24 20.24 0 0 1 7 3.11 13.28 13.28 0 0 1 4.33 5.2 17.06 17.06 0 0 1 1.58 7.42v17.84h-17.38l-1.16-3.28a17 17 0 0 1-2.46 1.5 21.74 21.74 0 0 1-3 1.27 23.63 23.63 0 0 1-3.55 0.85 23.88 23.88 0 0 1-3.93 0.31 19.82 19.82 0 0 1-6.07-0.87 14.45 14.45 0 0 1-4.63-2.38 10.56 10.56 0 0 1-3-3.57 9.68 9.68 0 0 1-1.08-4.49zm19.14-0.72a3.93 3.93 0 0 0 1.19 3 4.48 4.48 0 0 0 3.22 1.14 7 7 0 0 0 2.15-0.35 6.34 6.34 0 0 0 2-1.08v-5.76a7.22 7.22 0 0 0-3.76-1 5 5 0 0 0-3.54 1.14 3.89 3.89 0 0 0-1.26 2.91z"/>
  <path id="path876" class="cls-1" d="m109.65 22.56h19.42l8.1 22 7.82-22h7.66l-12.65 33.87h-16.75z"/>
  <path id="path878" class="cls-1" d="m149.29 39.31a14.91 14.91 0 0 1 0.92-5.37 14.75 14.75 0 0 1 2.55-4.36 17.05 17.05 0 0 1 3.84-3.36 24.36 24.36 0 0 1 4.82-2.4 30.92 30.92 0 0 1 5.43-1.43 34.5 34.5 0 0 1 5.75-0.48 29.22 29.22 0 0 1 7 0.77 22.87 22.87 0 0 1 5.57 2.1 18.68 18.68 0 0 1 7.22 6.89 16.6 16.6 0 0 1 1.74 4.12 15.83 15.83 0 0 1 0.56 4.13l-25.89 3.08a10.54 10.54 0 0 0 3 5.88 9 9 0 0 0 6.33 2.12 15.38 15.38 0 0 0 4.16-0.55 10.08 10.08 0 0 0 3-1.33l2.74 4.78c-0.85 0.43-1.76 0.84-2.76 1.23a23.52 23.52 0 0 1-3.28 1 33.13 33.13 0 0 1-4 0.68 41.08 41.08 0 0 1-4.77 0.26 35.12 35.12 0 0 1-10.73-1.45 22.33 22.33 0 0 1-7.47-3.9 15.25 15.25 0 0 1-4.37-5.66 16.46 16.46 0 0 1-1.36-6.75zm28.78-2.87q0-4.44-1.07-6.44a3.57 3.57 0 0 0-3.3-2 4.08 4.08 0 0 0-2.09 0.55 4.56 4.56 0 0 0-1.64 1.7 10.62 10.62 0 0 0-1.09 3 21.74 21.74 0 0 0-0.45 4.42z"/>
  <path id="path880" class="cls-1" d="m195.85 0h18.56v56.43h-18.56z"/>
  <circle id="circle896" class="cls-2" cx="-12.580002" cy="45.619999" r="11.24"/>
 </g>
 <metadata id="metadata984">
  <rdf:RDF>
   <cc:Work rdf:about="">
    <dc:title>DotTravel</dc:title>
   </cc:Work>
  </rdf:RDF>
 </metadata>
</svg>
