<svg id="Слой_1" data-name="Слой 1" xmlns="http://www.w3.org/2000/svg" viewBox="0 0 56.69 56.69"><defs><style>.cls-1{fill:#fff;}.cls-2{fill:#db2425;}.cls-3{fill:#fffdfd;}.cls-4{fill:#010101;}</style></defs><rect class="cls-1" x="-1.19" y="-0.54" width="58.58" height="58.58"/><path class="cls-2" d="M26.89,5H48.64c.14,1.25-.58,3,1.83,2.88.43,0,.29.68.29,1.06,0,11.4,0,22.81,0,34.21,0,1-.41,1.17-1.26,1.14-1.22,0-2.45,0-3.68,0-.8,0-1.45.17-1.39,1.12s-.48,1-1.2,1-1.63,0-2.45,0-.9-.24-1.3-.91a18.49,18.49,0,0,0-3.16-3.29c-.07-.06-.23,0-.35,0-.74,0-.65-.58-.59-1s-.38-1.63.42-1.64c2.19,0,1.7-1.54,1.62-2.7-.09-1.33.34-1.68,1.65-1.64,3.16.09,6.32,0,9.47,0a1.38,1.38,0,0,0,1.58-1c1-2.51-2.59-2.31-2.37-4.3,0-.23-.41-.37-.72-.37H37.36c-.61,0-1.35,0-1.3.8.11,1.72-1.06,1.28-2,1.29-2.29,0-2.27,0-2.32,2.33,0,.6.25,1.75-.26,1.73-1.66-.06-1.84,1.09-2.29,2.24a16.85,16.85,0,0,1-.17-4.68c.32-2.05-2.92-1.29-2.45-3.4.07-.33-.79-.31-1.24-.31-3,0-6,0-8.95,0-.88,0-1.53.18-1.45,1.23,0,.71-.29.89-.94.89-1.67,0-1.07,1.33-1.17,2.2-.13,1.15.57,1.35,1.53,1.34,2.52,0,5,0,7.54,0,1.15,0,1.49.31,1.49,1.47S23.05,38,22,38c-1.87-.08-3.74,0-5.61,0-.77,0-1.23.15-1.48,1.07-.38,1.37-2.42,1.5-2.61,3.13-1.8-.18-1.58,1.08-1.57,2.19,0,.65,0,1.3,0,2.34-1-.92-.33-2-1.47-2.45-2.61-1.08-2.47,2.54-4.48,2.4-.35,0-.31.67-.38,1.06-.33,1.66.43,2.43,2.2,2.45l-.19.47H3V28.83c2.82,0,2.82,0,2.81-2.83V23.38c0-.42,0-.9.59-.85,1.66.15,1.52-1,1.52-2.05S7.5,18,9.46,18.22c.42-1.34,1.72-1.84,2.51-2.75a12.93,12.93,0,0,1,1.57-1.57c.91-.77,1.39-2.1,2.74-2.5-.2-2.1,1.34-1.45,2.42-1.54.65-.06,1.78.24,1.75-.63-.06-1.9,1.15-1.46,2.17-1.47s2,0,3,0,1.31-.31,1.27-1.22C26.85,6,26.88,5.49,26.89,5Z"/><path class="cls-3" d="M27.59,50.58h-.46c-.49-2.06-.49-2.1-1.94-2.07-4.66.09-3.77-.88-4,4.16,0,1.19.47,1.49,1.57,1.47,3.68,0,7.36,0,11,0s3.59,0,3.57-3.63c0-1.08.17-2.23-1.52-2-.32.05-.62-.06-.58-.44.18-1.34-.43-1.82-1.7-1.67-.29,0-.43-.18-.4-.44.26-2.11-1.27-1.59-2.41-1.66-1.68-.09-.68,3.09-2.93,2.39-.28-.08-.28.68-.28,1.08C27.59,48.69,27.59,49.63,27.59,50.58Zm24.57-1.29a15.53,15.53,0,0,1,0-1.93c.15-1.16-.67-1.15-1.3-1s-2.23-1-2.21.91c0,.88-.18,1.18-1.14,1.2-3.07,0-3.07.08-3.11,3.21,0,.35,0,.7,0,1.05-.07,1,.38,1.55,1.33,1.31,1.43-.36,3.46,1.13,4.24-1,.34-.92.53-1.22,1.4-1.11.6.07.83-.19.79-.79S52.16,49.93,52.16,49.29ZM20,47.79c1.1-.18,3,.73,2.7-1.8,0-.08.24-.3.34-.28,2.06.3,1.75-1.13,1.74-2.34-.05-3.82.51-3.27-3.37-3.3-1.12,0-2.47-.36-2.28,1.61.08.77-.66.46-1,.47-1,0-1.17.72-1,1.45.3,1.38-.83,3,.73,4.16.15.11.45,0,.69,0Z"/><path class="cls-4" d="M50,5c0,.7-.28,1.57,1.05,1.42,1.14-.13,1.07.78,1.07,1.55,0,6,0,11.94,0,17.9s0,12.06,0,18.08c0,1.39-.4,1.94-1.8,1.79a26.13,26.13,0,0,0-2.8,0c-1,0-2.06-.3-1.81,1.4.09.59-.6.72-1.18.71q-2.19,0-4.38,0c-1.14,0-2,.13-2.31-1.56a5.39,5.39,0,0,0-2.48-2.47c-1.5-.38-1.57-1-1.53-2.14q0-1.23,0-2.46c0-.79.27-1.31,1.1-1.18,1.17.17,1-.58,1-1.28,0-3.35-.35-2.93,3-3,3.19,0,6.37,0,9.59,0-.08-1-.7-.66-1.07-.69-.63-.05-1.1-.31-1-.94.2-1.32-.61-1.19-1.46-1.19-2.22,0-4.44,0-6.66,0-.39,0-1.1-.28-1,.53.2,1.67-.86,1.71-2,1.55-1.74-.25-2.59.24-2.28,2.16.19,1.16.15,2.32-1.6,2.08-.38-.05-.51.22-.48.55.2,2.21-1.46,1.5-2.51,1.51-1.43,0-.93-1.19-1-2s0-1.75,0-2.63.3-2-1.28-1.72a.74.74,0,0,1-.81-.91c.16-1.1-.41-1.2-1.3-1.18-2.28,0-4.56,0-6.84,0-.34,0-.77-.23-1,.37-.63,1.65-.66,1.64-2.07,2,0,.72.56.45.88.45,2.63,0,5.27.07,7.9,0,1.25,0,1.75.3,1.75,1.66,0,4,0,4-4,4h-2.8c-.88,0-1.41-.08-1.88,1.22a5.94,5.94,0,0,1-2.92,2.84c-1.07.42-1.08.81-1.1,1.62s.12,1.07,1,1.47a8.75,8.75,0,0,1,3.05,3c.59.81.15,2.38.12,3.6a1.31,1.31,0,0,1-.31.77,16.19,16.19,0,0,1-5.15.11.9.9,0,0,1-.16-.62c.13-1-.15-1.38-1.3-1.41s-.72-1.22-.79-2-.12-1.46.93-1.53c.39,0,.82.17,1.32-.44-1.43-.2-2.82-.49-2.29-2.49-1.11.46-.41,1.36-.82,1.87-.53.67-1.36.12-1.91.51q-.1.48.3.54a2.08,2.08,0,0,1,1.7,3c-.24.52-.68.55-1.17.55C5.49,52,4.26,52,3,52V50.59H6.4l.19-.47c-1.77,0-2.53-.79-2.2-2.45.07-.39,0-1.09.38-1.06,2,.14,1.87-3.48,4.48-2.4,1.14.47.51,1.53,1.47,2.45,0-1,0-1.69,0-2.34,0-1.11-.23-2.37,1.57-2.19.19-1.63,2.23-1.76,2.61-3.13.25-.92.71-1.07,1.48-1.07,1.87,0,3.74,0,5.61,0,1.06,0,1.41-.24,1.42-1.35s-.34-1.5-1.49-1.47c-2.51.08-5,0-7.54,0-1,0-1.66-.19-1.53-1.34.1-.87-.5-2.18,1.17-2.2.65,0,1-.18.94-.89-.08-1.05.57-1.24,1.45-1.23,3,0,6,0,9,0,.45,0,1.31,0,1.24.31-.47,2.11,2.77,1.35,2.45,3.4a16.85,16.85,0,0,0,.17,4.68c.45-1.15.63-2.3,2.29-2.24.51,0,.25-1.13.26-1.73.05-2.31,0-2.3,2.32-2.33.91,0,2.08.43,2-1.29-.05-.76.69-.8,1.3-.8H47c.31,0,.75.14.72.37-.22,2,3.39,1.79,2.37,4.3a1.38,1.38,0,0,1-1.58,1c-3.15,0-6.31.06-9.47,0-1.31,0-1.74.31-1.65,1.64.08,1.16.57,2.68-1.62,2.7-.8,0-.35,1.06-.42,1.64s-.15,1,.59,1c.12,0,.28,0,.35,0a18.49,18.49,0,0,1,3.16,3.29c.4.67.61.93,1.3.91s1.64,0,2.45,0,1.27,0,1.2-1,.59-1.14,1.39-1.12c1.23,0,2.46,0,3.68,0,.85,0,1.26-.15,1.26-1.14,0-11.4,0-22.81,0-34.21,0-.38.14-1.08-.29-1.06C48.06,8,48.78,6.22,48.64,5Zm-40,45.34c1.24.14,2.2.19,2.21,1.77,0,1.08,1.1.42,1.69.56s1.08-.1,1-.83.39-1.78-.43-1.76c-1.67,0-1.6-1.2-2-2.26C12.47,49.46,11.65,50.14,10.05,50.31Z"/><path class="cls-4" d="M27.59,50.58c0-.95,0-1.89,0-2.84,0-.4,0-1.16.28-1.08,2.25.7,1.25-2.48,2.93-2.39,1.14.07,2.67-.45,2.41,1.66,0,.26.11.47.4.44,1.27-.15,1.88.33,1.7,1.67,0,.38.26.49.58.44,1.69-.22,1.52.93,1.52,2,0,3.63,0,3.63-3.57,3.63s-7.36,0-11,0c-1.1,0-1.61-.28-1.57-1.47.18-5-.71-4.07,4-4.16,1.45,0,1.45,0,1.94,2.07Zm3.89-4.85c-.38,1.06-.29,2.36-1.95,2.13-.47-.06-.48.41-.49.76,0,.64,0,1.28,0,1.93,0,.86-.16,1.58-1.21,1.47s-2.29.59-2.38-1.17-1.28-.82-2-.87c-1.22-.08-.64,1-.75,1.54-.19,1,.34,1.16,1.2,1.15,3.51,0,7,0,10.52,0,.6,0,1.57.4,1.49-.83-.05-.79.54-2-1.15-1.9-.62,0-.9-.42-.94-1,0-.37.15-1-.4-1C31.8,48.06,31.71,47,31.48,45.73Z"/><path class="cls-4" d="M52.16,49.29c0,.64,0,1.29,0,1.93s-.19.86-.79.79c-.87-.11-1.06.19-1.4,1.11-.78,2.1-2.81.61-4.24,1-.95.24-1.4-.34-1.33-1.31,0-.35,0-.7,0-1.05,0-3.13,0-3.18,3.11-3.21,1,0,1.15-.32,1.14-1.2,0-1.91,1.45-.68,2.21-.91s1.45-.21,1.3,1A15.53,15.53,0,0,0,52.16,49.29Zm-1.77-1.4C50.42,50,49.06,50,47.56,50c-.6,0-1.71-.55-1.65.79,0,.63-.58,1.71.59,1.83.82.1,2.26.71,2.13-1.19a.69.69,0,0,1,.59-.76C51.6,50.62,50.49,49,50.39,47.89Z"/><path class="cls-4" d="M20,47.79h-1.5c-.24,0-.54.08-.69,0-1.56-1.14-.43-2.78-.73-4.16-.16-.73,0-1.41,1-1.45.38,0,1.12.3,1-.47-.19-2,1.16-1.62,2.28-1.61,3.88,0,3.32-.52,3.37,3.3,0,1.21.32,2.64-1.74,2.34-.1,0-.35.2-.34.28C23,48.52,21.11,47.61,20,47.79Zm1.74-6.31c-.71-.12-1.27.09-1.17,1.19a.77.77,0,0,1-.84.9c-1.61-.15-1.17,1-1.24,1.84s.38,1,1.06.94c.83,0,1.84.3,1.72-1.18-.06-.62.41-1,1-.91,1.59.08.93-1.11,1-1.83C23.5,41.25,22.59,41.54,21.75,41.48Z"/><path class="cls-2" d="M10.05,50.31c1.6-.17,2.42-.85,2.38-2.52.44,1.06.37,2.3,2,2.26.82,0,.33,1.14.43,1.76s-.35,1-1,.83-1.67.52-1.69-.56C12.25,50.5,11.29,50.45,10.05,50.31Z"/><path class="cls-2" d="M31.48,45.73c.23,1.22.32,2.33,2,2.17.55-.06.38.61.4,1,0,.61.32,1.07.94,1,1.69-.12,1.1,1.11,1.15,1.9.08,1.23-.89.82-1.49.83-3.5,0-7,0-10.52,0-.86,0-1.39-.18-1.2-1.15.11-.58-.47-1.62.75-1.54.68.05,1.88-.74,2,.87s1.46,1.08,2.38,1.17,1.24-.61,1.21-1.47c0-.65,0-1.29,0-1.93,0-.35,0-.82.49-.76C31.19,48.09,31.1,46.79,31.48,45.73Z"/><path class="cls-2" d="M50.39,47.89c.1,1.15,1.21,2.73-1.17,2.75a.69.69,0,0,0-.59.76c.13,1.9-1.31,1.29-2.13,1.19-1.17-.12-.55-1.2-.59-1.83C45.85,49.42,47,50,47.56,50,49.06,50,50.42,50,50.39,47.89Z"/><path class="cls-2" d="M21.75,41.48c.84.06,1.75-.23,1.59,1-.1.72.56,1.91-1,1.83-.62,0-1.09.29-1,.91.12,1.48-.89,1.14-1.72,1.18-.68,0-1.12-.12-1.06-.94s-.37-2,1.24-1.84a.77.77,0,0,0,.84-.9C20.48,41.57,21,41.36,21.75,41.48Z"/></svg>