<?xml version="1.0" encoding="UTF-8"?>
<!-- Created with Inkscape (http://www.inkscape.org/) -->
<svg id="svg5" width="354.75" height="278.25" version="1.1" viewBox="0 0 93.860944 73.620308" xmlns="http://www.w3.org/2000/svg">
 <g id="layer1" transform="translate(-85.016878,-33.372776)">
  <g id="text4146" fill="#00205b" stroke-width=".264583" aria-label=".AS">
   <path id="path16390" d="m85.016878 96.327072h9.921875v9.921878h-9.921875z"/>
   <path id="path16392" d="m116.71727 34.116917h8.63203l16.66875 72.132033h-10.12031l-10.86446-57.348439-10.86445 57.348439h-10.12031zm-6.00274 47.525781h21.38164v8.880078h-21.38164z"/>
   <path id="path16394" d="m161.56414 106.99309q-5.65546 0-9.5746-1.93477-3.91915-1.98437-5.95313-5.754685-2.03398-3.819922-2.03398-9.276953v-3.571875h9.42578v3.224609q0 3.919141 2.08359 6.052344 2.1332 2.083594 6.05234 2.083594 3.81993 0 5.85391-2.083594 2.03399-2.083594 2.03399-6.052344v-6.30039q0-2.629297-1.28985-4.464844-1.28984-1.835547-3.22461-2.976563-1.93476-1.190625-5.35781-2.728515-0.0992-0.04961-0.19844-0.04961-0.0992-0.04961-0.19844-0.09922l-0.69453-0.297656q-4.56406-2.083594-7.49101-4.067969-2.87735-1.984375-4.91133-5.506641-2.03398-3.522265-2.03398-8.929687v-4.167188q0-5.357812 1.98437-9.078515 2.03398-3.770312 5.95313-5.705078 3.91914-1.934766 9.525-1.934766 5.45703 0 9.22734 1.984375 3.81992 1.934766 5.75469 5.754688 1.98437 3.770312 1.98437 9.177734v3.770312h-9.42578v-3.373437q0-3.96875-1.93477-6.052344-1.93476-2.083593-5.60585-2.083593-3.91915 0-6.00274 1.984375-2.03398 1.984375-2.03398 5.655468v4.514453q0 2.728516 1.28984 4.613672 1.28984 1.835547 3.22461 2.976563 1.93477 1.141015 5.3082 2.629296 0.34727 0.148829 0.64492 0.297657 0.29766 0.148828 0.64493 0.297656 0.24804 0.09922 0.49609 0.248047 0.29766 0.09922 0.5457 0.198437 4.31602 1.934766 6.94532 3.720703 2.62929 1.736328 4.46484 5.060156 1.83555 3.323829 1.83555 8.681641v6.598047q0 5.457031-2.03399 9.276953-1.98437 3.770317-5.8539 5.754687-3.86954 1.93477-9.42579 1.93477z"/>
  </g>
 </g>
</svg>
