<svg id="Слой_1" data-name="Слой 1" xmlns="http://www.w3.org/2000/svg" viewBox="0 0 56.69 56.69"><defs><style>.cls-1{fill:#f7e822;}</style></defs><path class="cls-1" d="M37.14,54H19.62a1.88,1.88,0,0,1-1.84-1.55l-1-5.65h-2.2a5.38,5.38,0,0,1-5.37-5.37v-.07A5.29,5.29,0,0,1,10.44,38,22,22,0,0,1,6.22,25.05v-.41A21.95,21.95,0,0,1,12.65,9.12,21.84,21.84,0,0,1,28.18,2.69h.4a21.92,21.92,0,0,1,22,22v.41A22,22,0,0,1,46.33,38a5.33,5.33,0,0,1,1.19,3.38v.07a5.37,5.37,0,0,1-5.36,5.37H40l-1,5.65A1.88,1.88,0,0,1,37.14,54ZM21.2,50.27H35.57l1-5.65a1.88,1.88,0,0,1,1.84-1.55h3.78a1.63,1.63,0,0,0,1.63-1.63v-.07a1.62,1.62,0,0,0-.9-1.46A1.87,1.87,0,0,1,42.32,37a18.24,18.24,0,0,0,4.49-12v-.41A18.23,18.23,0,0,0,28.58,6.42h-.4A18.21,18.21,0,0,0,10,24.64v.41a18.23,18.23,0,0,0,4.48,12,1.85,1.85,0,0,1-.57,2.89,1.64,1.64,0,0,0-.9,1.46v.07a1.64,1.64,0,0,0,1.64,1.63h3.77a1.88,1.88,0,0,1,1.84,1.55Z"/><circle class="cls-1" cx="35.59" cy="28.79" r="5.16"/><path class="cls-1" d="M25.55,40l-.28,0a1.46,1.46,0,0,1-1.14-1.7l.8-4.13A1.46,1.46,0,0,1,26.63,33a1.44,1.44,0,0,1,1.14,1.7L27,38.85A1.44,1.44,0,0,1,25.55,40Z"/><path class="cls-1" d="M31.21,40a1.45,1.45,0,0,1-1.42-1.17L29,34.72a1.45,1.45,0,1,1,2.84-.55l.8,4.13A1.45,1.45,0,0,1,31.49,40Z"/><path class="cls-1" d="M16.24,27.27A4.85,4.85,0,0,0,16,28.89a5.16,5.16,0,0,0,10.32-.1h0a1.27,1.27,0,0,0-1.2-1.26,44.55,44.55,0,0,1-7.38-1.1A1.27,1.27,0,0,0,16.24,27.27Z"/><path class="cls-1" d="M13.66,39.43a1.25,1.25,0,0,1-1.25-1.25V29.73a1.25,1.25,0,1,1,2.49,0v8.45A1.24,1.24,0,0,1,13.66,39.43Z"/><path class="cls-1" d="M43.05,39.43a1.25,1.25,0,0,1-1.24-1.25V29.73a1.25,1.25,0,1,1,2.49,0v8.45A1.25,1.25,0,0,1,43.05,39.43Z"/></svg>