<svg id="Слой_1" data-name="Слой 1" xmlns="http://www.w3.org/2000/svg" viewBox="0 0 56.69 56.69"><defs><style>.cls-1{fill:#7db441;}.cls-2{fill:#f7e822;}</style></defs><path class="cls-1" d="M31,12.9A6.69,6.69,0,0,0,27,11.75a6.76,6.76,0,0,0-5.55,2.66V1.34H14.93V38.58a2.15,2.15,0,0,1-1.62,2.32,7.21,7.21,0,0,0,1,14.34A7.15,7.15,0,0,0,19,53.51l.11-.12c.23-.12.35-.35.47-.46a1.3,1.3,0,0,1,.92-.35,2,2,0,0,1,1.16.35,6.87,6.87,0,0,0,5.43,2.43h.24a6.33,6.33,0,0,0,3.93-1.16,6.82,6.82,0,0,0,2.31-2.54,12.85,12.85,0,0,0,.58-4.4V20.19a11.66,11.66,0,0,0-.69-4.74A8.41,8.41,0,0,0,31,12.9m-3.47,31v2.43a2.38,2.38,0,0,1-.81,2,2.89,2.89,0,0,1-2.55.81A4.18,4.18,0,0,1,21.41,47V20.19a4.08,4.08,0,0,1,2.77-2,2.81,2.81,0,0,1,2.55.81,2.39,2.39,0,0,1,.81,2Z"/><path class="cls-1" d="M43.85,14.41V12.09H37.37V55h6.48V20.08a4.49,4.49,0,0,1,2.89-2,3.44,3.44,0,0,1,2.78.81V11.75a6.41,6.41,0,0,0-5.67,2.66"/><circle class="cls-2" cx="14.35" cy="48.07" r="3.7"/></svg>