<svg id="Слой_1" data-name="Слой 1" xmlns="http://www.w3.org/2000/svg" xmlns:xlink="http://www.w3.org/1999/xlink" viewBox="0 0 56.69 56.69"><defs><style>.cls-1{fill:#1174bb;}.cls-2{fill:none;stroke:#1174bb;stroke-miterlimit:10;stroke-width:5px;}.cls-3{fill:url(#Безымянный_градиент_2);}</style><linearGradient id="Безымянный_градиент_2" x1="-159.02" y1="-208.39" x2="-154.42" y2="-208.39" gradientTransform="matrix(3.46, 0, 0, -3.46, 584.8, -692.43)" gradientUnits="userSpaceOnUse"><stop offset="0" stop-color="#1174bb"/><stop offset="0.56" stop-color="#1174bb"/><stop offset="1" stop-color="#1a3645"/></linearGradient></defs><g id="layer1"><circle id="path826" class="cls-1" cx="4.46" cy="33.95" r="2.49"/><path id="path830" class="cls-2" d="M30.17,35.19h-13a4.4,4.4,0,0,1-4-4.68V26.19a4.4,4.4,0,0,1,4-4.68h13"/><path id="path887" class="cls-3" d="M34.77,19.46V37.23h4.08V23.55H48c1.62,0,1.95.45,2.25.9a3.22,3.22,0,0,1,.38,1.2V37.23h4.08V25.46a5.61,5.61,0,0,0-1-3.26A6.72,6.72,0,0,0,48,19.46H34.77Z"/><path id="path873" class="cls-1" d="M46.65,19.46A5.45,5.45,0,0,1,48.91,21a6,6,0,0,1,1.23,1.94,8.9,8.9,0,0,1,.5,2.54V37.23h4.08V25.46a5.61,5.61,0,0,0-1-3.26A6.72,6.72,0,0,0,48,19.46Z"/></g></svg>