<svg id="Слой_1" data-name="Слой 1" xmlns="http://www.w3.org/2000/svg" viewBox="0 0 56.69 56.69"><defs><style>.cls-1{fill:#ed6e1e;}.cls-2{fill:#fff;}</style></defs><path class="cls-1" d="M43,3.19H6.23a3,3,0,0,0-3,3V50.83a3,3,0,0,0,3,3H50.89a3,3,0,0,0,3-3V13.43a1.42,1.42,0,0,0-.5-1.21L45.28,4.13A2.54,2.54,0,0,0,43,3.19"/><path class="cls-2" d="M41.2,31.58A9.4,9.4,0,1,0,50.6,41a9.39,9.39,0,0,0-9.4-9.39m0,14.26A4.87,4.87,0,1,1,46.07,41a4.87,4.87,0,0,1-4.87,4.87"/><path class="cls-2" d="M26.25,43a3.27,3.27,0,0,0-.77.76,4.87,4.87,0,1,1,0-5.51,3.27,3.27,0,0,0,.77.76c1.15.78,2.95.76,4.49.63a9.4,9.4,0,1,0,0,2.73c-1.54-.13-3.34-.15-4.49.63"/><path class="cls-2" d="M10.86,47.19A2.17,2.17,0,1,1,8.69,45a2.17,2.17,0,0,1,2.17,2.17"/></svg>