<svg id="Слой_1" data-name="Слой 1" xmlns="http://www.w3.org/2000/svg" viewBox="0 0 56.69 56.69"><defs><style>.cls-1{fill:#097b9f;}.cls-2{fill:#fff;}</style></defs><g id="g6"><path id="path2" class="cls-1" d="M30,1.61A26.74,26.74,0,1,0,56.69,28.35,26.74,26.74,0,0,0,30,1.61Z"/><path id="path4" class="cls-2" d="M23.29,22.16a7.27,7.27,0,0,0-5.93-3C12.51,19.18,9,23,9,29.12c0,6.34,3.63,10,8.41,10a7.4,7.4,0,0,0,5.93-3v2.49H28V11.71H23.29Zm0,10.47a5.65,5.65,0,0,1-4.48,2.3c-3,0-5-2.37-5-5.81s2-5.76,5-5.76a5.64,5.64,0,0,1,4.48,2.29Zm27.84-3.07c0-6.11-3.75-10.38-9.44-10.38a9.65,9.65,0,0,0-9.76,9.94c0,6.07,4.31,10,10.07,10a11.64,11.64,0,0,0,7.78-2.68l-2.12-3.1a8,8,0,0,1-5.16,1.93c-3.34,0-5.31-2.08-5.65-4.57H51.13V29.56ZM36.82,27.4A4.64,4.64,0,0,1,41.67,23a4.6,4.6,0,0,1,4.94,4.37Z"/></g></svg>