<svg id="Слой_1" data-name="Слой 1" xmlns="http://www.w3.org/2000/svg" xmlns:xlink="http://www.w3.org/1999/xlink" viewBox="0 0 56.69 56.69"><defs><style>.cls-1{fill:#361414;}.cls-2{fill:url(#Безымянный_градиент_2);}.cls-3{fill:url(#Безымянный_градиент_2-2);}</style><linearGradient id="Безымянный_градиент_2" x1="42.31" y1="12.51" x2="47.44" y2="12.51" gradientTransform="matrix(1.91, 0.89, 0.89, -1.91, -88.14, 11.61)" gradientUnits="userSpaceOnUse"><stop offset="0" stop-color="#e6177a"/><stop offset="1" stop-color="#f3a141"/></linearGradient><linearGradient id="Безымянный_градиент_2-2" x1="39.79" y1="12.51" x2="49.96" y2="12.51" xlink:href="#Безымянный_градиент_2"/></defs><g id="_84219156-b151-4fa1-9b7c-e17a37053e0c" data-name="84219156-b151-4fa1-9b7c-e17a37053e0c"><g id="g3300"><path id="path3099" class="cls-1" d="M50.91,32.92a1,1,0,0,1-1,1H46.49a1,1,0,1,0,0,1.93H49.9a2.87,2.87,0,0,0,2.91-2.9V19.4a.95.95,0,0,0-1.9,0Z"/><path id="path3097" class="cls-1" d="M46.2,39.7H50a6.44,6.44,0,0,0,6.67-6.78V19.4a1,1,0,0,0-.95-.95,1,1,0,0,0-1,.95V32.92A4.51,4.51,0,0,1,50,37.76H46.2a1,1,0,0,0,0,1.94Z"/></g><g id="g3304"><path id="path3095" class="cls-1" d="M27.33,38.75V20.39h4.79a8.31,8.31,0,0,1,8.69,8.67,8.32,8.32,0,0,1-8.69,8.7H30.18a1,1,0,0,0,0,1.94h1.94A10.23,10.23,0,0,0,42.75,29.06,10.22,10.22,0,0,0,32.12,18.45H26.33a1,1,0,0,0-.95.95V38.75a1,1,0,0,0,.95,1A1,1,0,0,0,27.33,38.75Z"/><path id="path3093" class="cls-1" d="M32.12,35.86a6.46,6.46,0,0,0,6.58-6.8,6.44,6.44,0,0,0-6.58-6.77h-1.9a1,1,0,0,0-1,1V31a1,1,0,0,0,1,1,1,1,0,0,0,1-1V24.23h.95a4.56,4.56,0,0,1,4.69,4.83,4.57,4.57,0,0,1-4.69,4.86h-1.9a1,1,0,0,0-1,.95,1,1,0,0,0,1,1Z"/></g></g><g id="_25a123cb-dfe8-4514-9f2a-ea04b094eb97" data-name="25a123cb-dfe8-4514-9f2a-ea04b094eb97"><circle id="circle865" class="cls-2" cx="11.75" cy="29.16" r="5.39"/><path id="path867" class="cls-3" d="M22.45,18.45H1.06V39.84H22.45ZM11.75,35.89a6.73,6.73,0,1,1,6.73-6.73A6.74,6.74,0,0,1,11.75,35.89Z"/></g></svg>