<?xml version="1.0" encoding="UTF-8"?>
<svg id="svg870" class="iconAbove" width="177.09254" height="69.333" data-v-fde0c5aa="" version="1.1" viewBox="0 0 177.09254 69.333001" xmlns="http://www.w3.org/2000/svg" xmlns:cc="http://creativecommons.org/ns#" xmlns:dc="http://purl.org/dc/elements/1.1/" xmlns:rdf="http://www.w3.org/1999/02/22-rdf-syntax-ns#" xmlns:xlink="http://www.w3.org/1999/xlink">
 <title id="title1042">.dj</title>
 <!---->
 <defs id="defs849" data-v-fde0c5aa="">
  <!---->
  <linearGradient id="linearGradient1034" x1="7.934" x2="24.066" y1="7.9549999" y2="7.9549999" gradientUnits="userSpaceOnUse" xlink:href="#9773d0d5-1978-42b4-a672-350346ff2f53"/>
  <linearGradient id="linearGradient1036" x2="32" gradientUnits="userSpaceOnUse" xlink:href="#9773d0d5-1978-42b4-a672-350346ff2f53"/>
 </defs>
 <defs id="defs853" data-v-fde0c5aa="">
  <!----></defs>
 <g id="84219156-b151-4fa1-9b7c-e17a37053e0c" transform="matrix(6.4993567,0,0,6.4993567,47.79525,-1.2747748)" fill="#361414" data-v-fde0c5aa="">
  <g id="g3300">
   <path id="path3099" d="m16.94 7.36c0 0.28-0.22 0.47-0.49 0.47h-1.65c-0.27 0-0.48 0.21-0.48 0.47 0 0.25 0.21 0.46 0.48 0.46h1.65c0.78 0 1.41-0.6 1.41-1.4v-6.55c0-0.25-0.21-0.46-0.46-0.46s-0.46 0.21-0.46 0.46z"/>
   <path id="path3097" d="m14.66 10.64h1.85c2.03 0 3.23-1.48 3.23-3.28v-6.55c0-0.25-0.21-0.46-0.46-0.46-0.27 0-0.48 0.21-0.48 0.46v6.55c0 1.29-0.82 2.36-2.29 2.34h-1.85c-0.25 0-0.46 0.21-0.46 0.48 0 0.25 0.21 0.46 0.46 0.46z"/>
  </g>
  <g id="g3304">
   <path id="path3095" d="m5.52 10.18v-8.89h2.32c2.51 0 4.21 1.76 4.21 4.2 0 2.45-1.7 4.21-4.21 4.21h-0.94c-0.25 0-0.46 0.21-0.46 0.48 0 0.25 0.21 0.46 0.46 0.46h0.94c3.04 0 5.15-2.18 5.15-5.15 0-2.96-2.11-5.13989245-5.15-5.13994843l-2.8-5.157e-5c-0.25-4.6e-6 -0.46 0.21-0.46 0.46v9.37c0 0.25 0.21 0.46 0.46 0.46 0.27 0 0.48-0.21 0.48-0.46z"/>
   <path id="path3093" d="m7.84 8.78c1.92 0 3.19-1.44 3.19-3.29 0-1.84-1.27-3.28-3.19-3.28h-0.92c-0.26 0-0.47 0.21-0.47 0.48v3.74c0 0.26 0.21 0.47 0.47 0.47s0.46-0.21 0.46-0.47v-3.28h0.46c1.39 0 2.27 1.02 2.27 2.34 0 1.33-0.88 2.35-2.27 2.35h-0.92c-0.26 0-0.47 0.21-0.47 0.46 0 0.27 0.21 0.48 0.47 0.48z"/>
  </g>
 </g>
 <defs id="defs863" data-v-fde0c5aa="">
  <linearGradient id="9773d0d5-1978-42b4-a672-350346ff2f53" data-v-fde0c5aa="" gradientTransform="rotate(25)">
   <stop id="stop858" stop-color="#F00079" data-v-fde0c5aa="" offset="0"/>
   <stop id="stop860" stop-color="#F2A041" data-v-fde0c5aa="" offset="1"/>
  </linearGradient>
 </defs>
 <g id="25a123cb-dfe8-4514-9f2a-ea04b094eb97" transform="matrix(2.1041511,0,0,2.1041511,1,1)" data-v-fde0c5aa="">
  <circle id="circle865" cx="16" cy="16.021" r="8.066" fill="url(#linearGradient1034)"/>
  <path id="path867" d="m32 0h-32v32l32.000078 7.9e-5zm-16 26.086c-5.551 0-10.066-4.516-10.066-10.065 0-5.55 4.516-10.066 10.066-10.066s10.065 4.516 10.065 10.066c1e-3 5.55-4.515 10.065-10.065 10.065z" fill="url(#linearGradient1036)"/>
 </g>
 <!---->
 <metadata id="metadata1040">
  <rdf:RDF>
   <cc:Work rdf:about="">
    <dc:title>.dj</dc:title>
   </cc:Work>
  </rdf:RDF>
 </metadata>
</svg>
