<?xml version="1.0" encoding="UTF-8"?>
<svg version="1.1" viewBox="0 0 450 450" xmlns="http://www.w3.org/2000/svg">
<g>
<ellipse cx="226.8" cy="225.38" rx="211.42" ry="210.85" fill="#fa2140" stop-color="#000000" stroke="#fa2140" stroke-width="3.5"/>
</g>
<g>
<ellipse cx="74.223" cy="282.22" rx="12.275" ry="11.842" fill="#fff" stop-color="#000000" stroke="#fff" stroke-width="3.5"/>
<path d="m253.1 112.08h27.801l0.1258 120.51 50.444-51.702h34.719l-45.16 47.676 52.457 67.175h-35.977l-35.977-46.922-20.714 21.587v24.995h-27.575z" fill="#fff" stop-color="#000000" stroke="#fff" stroke-width=".4" style="font-variation-settings:normal"/>
<path d="m226.6 112.54h-27.134v76.167c-41.674-26.548-91.452 0.68178-93.304 47.604-0.46305 39.977 35.607 65.34 60.457 61.79 20.033-1.4734 22.165-5.1795 32.752-10.473v7.8071h27.42z" fill="#fff" stop-color="#000000" stroke="#fff" stroke-width="1px" style="-inkscape-stroke:none;font-variation-settings:normal"/>
<path d="m198.97 222.54v33.179c-16.371 31.979-64.394 20.3-64.285-19.209-0.764-34.707 52.279-48.35 64.285-13.97z" fill="#fa2140" stop-color="#000000" style="font-variation-settings:normal"/>
</g>
</svg>
