<svg id="Слой_1" data-name="Слой 1" xmlns="http://www.w3.org/2000/svg" viewBox="0 0 56.69 56.69"><defs><style>.cls-1,.cls-5{fill:#e72f46;}.cls-1{stroke:#e72f46;}.cls-1,.cls-2{stroke-width:3.5px;}.cls-2,.cls-3,.cls-4{fill:#fff;stroke:#fff;}.cls-3{stroke-width:0.4px;}</style></defs><ellipse class="cls-1" cx="28.55" cy="29.16" rx="25.59" ry="25.52"/><ellipse class="cls-2" cx="10.08" cy="36.04" rx="1.49" ry="1.43"/><path class="cls-3" d="M31.73,15.44H35.1V30l6.11-6.26h4.2L40,29.54l6.35,8.14H42L37.59,32l-2.5,2.61v3H31.75Z"/><path class="cls-4" d="M28.52,15.5H25.24v9.22A7.19,7.19,0,0,0,14,30.48c-.06,4.84,4.31,7.91,7.31,7.48a7.28,7.28,0,0,0,4-1.27v1h3.32Z"/><path class="cls-5" d="M25.18,28.81v4c-2,3.87-7.79,2.46-7.78-2.32C17.31,26.3,23.73,24.65,25.18,28.81Z"/></svg>