<svg id="Слой_1" data-name="Слой 1" xmlns="http://www.w3.org/2000/svg" viewBox="0 0 56.69 56.69"><defs><style>.cls-1{fill:#f7e822;}</style></defs><path class="cls-1" d="M37.1,53.3H19.59a1.87,1.87,0,0,1-1.84-1.55l-1-5.65h-2.2A5.37,5.37,0,0,1,9.2,40.74v-.07a5.37,5.37,0,0,1,1.2-3.39A21.94,21.94,0,0,1,6.19,24.34v-.4a22,22,0,0,1,22-22h.41A21.95,21.95,0,0,1,44.08,8.41a22,22,0,0,1,4.7,7,21.74,21.74,0,0,1,1.73,8.55v.4a22,22,0,0,1-4.22,12.94,5.37,5.37,0,0,1,1.2,3.39v.07a5.37,5.37,0,0,1-5.37,5.36h-2.2l-1,5.65A1.87,1.87,0,0,1,37.1,53.3ZM21.16,49.56H35.53l1-5.64a1.86,1.86,0,0,1,1.84-1.55h3.77a1.63,1.63,0,0,0,1.63-1.63v-.07a1.62,1.62,0,0,0-.9-1.46,1.87,1.87,0,0,1-.56-2.9,18.19,18.19,0,0,0,4.48-12v-.4A18.21,18.21,0,0,0,28.55,5.72h-.41A18.21,18.21,0,0,0,9.92,23.94v.4a18.15,18.15,0,0,0,4.49,12,1.91,1.91,0,0,1,.42,1.59,1.87,1.87,0,0,1-1,1.31,1.62,1.62,0,0,0-.9,1.46v.07a1.63,1.63,0,0,0,1.63,1.63h3.77a1.86,1.86,0,0,1,1.84,1.55Z"/><circle class="cls-1" cx="35.55" cy="28.09" r="5.16"/><path class="cls-1" d="M25.52,39.31a1.27,1.27,0,0,1-.28,0,1.45,1.45,0,0,1-1.15-1.7l.81-4.13a1.44,1.44,0,0,1,1.69-1.15A1.46,1.46,0,0,1,27.74,34l-.81,4.13A1.44,1.44,0,0,1,25.52,39.31Z"/><path class="cls-1" d="M31.18,39.31a1.43,1.43,0,0,1-1.42-1.17L29,34a1.44,1.44,0,1,1,2.83-.55l.81,4.13a1.45,1.45,0,0,1-1.15,1.7A1.23,1.23,0,0,1,31.18,39.31Z"/><path class="cls-1" d="M16.21,26.57A5.08,5.08,0,0,0,16,28.19a5.16,5.16,0,0,0,10.32-.1v0a1.28,1.28,0,0,0-1.2-1.26,44.42,44.42,0,0,1-7.37-1.1A1.27,1.27,0,0,0,16.21,26.57Z"/><path class="cls-1" d="M13.62,38.72a1.25,1.25,0,0,1-1.24-1.24V29a1.25,1.25,0,1,1,2.49,0v8.46A1.25,1.25,0,0,1,13.62,38.72Z"/><path class="cls-1" d="M43,38.72a1.25,1.25,0,0,1-1.25-1.24V29a1.25,1.25,0,1,1,2.49,0v8.46A1.24,1.24,0,0,1,43,38.72Z"/></svg>