<?xml version="1.0" encoding="UTF-8"?>
<svg width="600" height="600" version="1.1" xmlns="http://www.w3.org/2000/svg" xmlns:cc="http://creativecommons.org/ns#" xmlns:dc="http://purl.org/dc/elements/1.1/" xmlns:rdf="http://www.w3.org/1999/02/22-rdf-syntax-ns#">
 <title>_et</title>
 <circle cx="300" cy="300" r="300" fill="#fcdd09"/>
 <path d="m95 199h174.37l-6.5 20h-140.34l-27.527-20m87.184 268.33 53.882-165.83-103.22-74.992h34.026l93.998 62.978-7.7917 24.376-43.37 133.47-27.528 20m141.07-102.49-103.22 74.992 10.515-32.36 150-108.98 6.5 19.999-46.78 33.988m70.172-50.982 39.424 121.34-27.528-20-57.292-176.33h21.028l17.868 54.992m-26.804-82.492h127.58l-27.524 20h-185.41l6.496-20h57.824z" fill="#0f47af"/>
 <path d="m300 410.47v130m-104.62-206.01-123.64 40.174m163.6-163.16-76.413-105.17m205.72 105.17 76.412-105.17m-36.452 228.15 123.64 40.174z" display="none" fill="none" stroke="#fcdd09" stroke-width="10"/>
 <metadata>
  <rdf:RDF>
   <cc:Work rdf:about="">
    <dc:title>_et</dc:title>
   </cc:Work>
  </rdf:RDF>
 </metadata>
</svg>
