<svg id="Слой_1" data-name="Слой 1" xmlns="http://www.w3.org/2000/svg" viewBox="0 0 56.69 56.69"><defs><style>.cls-1{fill:#2da8dc;}</style></defs><path class="cls-1" d="M46.76,8.48C40.28,4,35,1.19,30.7,1.39s-8.79,2.9-13.37,5.19-11.07,2-12.78,6.28c0,0-1,2-.29,6,.9,7.67-3.29,9.28-2.69,13.36s6.48,9.18,9.08,12.27a91.68,91.68,0,0,0,8.77,8.19c4.29,3.19,7.58,3.19,12.47,1.59a63.65,63.65,0,0,0,10.57-4.19C50,45.88,54,39.6,55,31.21,55.93,23.15,53,12.77,46.76,8.48ZM15.43,25.73A2.17,2.17,0,0,1,17.92,28a2.2,2.2,0,0,1-2.39,2.2,2.46,2.46,0,0,1-2.4-1.9A2.11,2.11,0,0,1,15.43,25.73Zm27.43.8c-2.09,0-2.8-1.79-3.39-1.79s-4,1.39-5.09,7.38c-.4,2.6-.4,4.79,2.09,4.69,0,0-1.3,1.39-5.29,1.39s-2.8-4.39-1.9-6.58a14,14,0,0,0,1-2.69c.1-.49-.09-1.39-1.5-.09a20.63,20.63,0,0,1-3.49,2.8,67.34,67.34,0,0,0,4.79,13c.61,1.3.1,1.7-.89,2.2s-2.3.9-3.1-.7a46.86,46.86,0,0,1-4.39-12.17c-.1.09-5.79,3.68-8.88-.4,0,0,5.09-1.2,8.08-3.59,0,0-1.91-10.48,1.19-15s6.12-6.49,13.2-5.7c1.59.2,1.3,1.39,1.19,2.09s-.2,2.09-1.5,1.9c0,0-6.68-.09-8.47,3.1s-2.4,6.28-1.8,11.37c0,0,6.88-5.29,8.77-6.89s3.59-2.09,2.9.4c-.3,1.1-.7,2.3-.7,2.3-.09.49.09.79.7.2s4.08-3.39,6.28-3.89,3.79,1.19,3.79,3.59S43.76,26.53,42.86,26.53Z"/></svg>