<svg id="Слой_1" data-name="Слой 1" xmlns="http://www.w3.org/2000/svg" xmlns:xlink="http://www.w3.org/1999/xlink" viewBox="0 0 56.69 56.69"><defs><style>.cls-1{fill:url(#Безымянный_градиент_2);}</style><linearGradient id="Безымянный_градиент_2" x1="59.31" y1="28.37" x2="62.55" y2="28.37" gradientTransform="matrix(16.5, 0, 0, -9.17, -978.45, 288.38)" gradientUnits="userSpaceOnUse"><stop offset="0" stop-color="#087b5f"/><stop offset="1" stop-color="#ce1327"/></linearGradient></defs><g id="c2385c67-0a59-4ecd-a44f-4d7f737f9aa5"><path id="path853" class="cls-1" d="M0,38.93v4.28H3.83V38.93ZM26.23,14.05A31.85,31.85,0,0,0,20,13.48c-9.3,0-14.12,4.94-14.12,13.25,0,10.47,8.14,16.48,17.85,16.48h2.64V27.36h-8.5v3.29h4.91V40c-7.51-.42-13-5.65-13-13.25,0-5.92,3-10,10.32-10a31.93,31.93,0,0,1,6.13.6ZM34.9,43.21c11.78,0,18.6-7.18,18.6-16.54C53.5,19,48.57,13.9,35.32,13.9H29.79V17H32.9V43.21ZM49.46,26.82c0,7.3-5.17,13.16-12.8,13.16V17C46.11,17.31,49.46,20.66,49.46,26.82Z"/></g></svg>