<svg id="Слой_1" data-name="Слой 1" xmlns="http://www.w3.org/2000/svg" viewBox="0 0 56.69 56.69"><defs><style>.cls-1{fill:#f7e822;}</style></defs><path class="cls-1" d="M37.1,54H19.59a1.87,1.87,0,0,1-1.84-1.55l-1-5.65h-2.2A5.38,5.38,0,0,1,9.2,41.46v-.07A5.37,5.37,0,0,1,10.4,38,21.94,21.94,0,0,1,6.19,25.06v-.4A21.84,21.84,0,0,1,12.62,9.13,21.95,21.95,0,0,1,28.14,2.7h.41A21.95,21.95,0,0,1,44.08,9.13a22,22,0,0,1,4.7,7,21.74,21.74,0,0,1,1.73,8.55v.4A22,22,0,0,1,46.29,38a5.37,5.37,0,0,1,1.2,3.39v.07a5.38,5.38,0,0,1-5.37,5.36h-2.2l-1,5.65A1.87,1.87,0,0,1,37.1,54ZM21.16,50.28H35.53l1-5.64a1.86,1.86,0,0,1,1.84-1.55h3.77a1.63,1.63,0,0,0,1.63-1.63v-.07a1.62,1.62,0,0,0-.9-1.46,1.87,1.87,0,0,1-.56-2.9,18.19,18.19,0,0,0,4.48-12v-.4A18.23,18.23,0,0,0,28.55,6.43h-.41A18.23,18.23,0,0,0,9.92,24.66v.4a18.15,18.15,0,0,0,4.49,12,1.88,1.88,0,0,1-.57,2.9,1.62,1.62,0,0,0-.9,1.46v.07a1.63,1.63,0,0,0,1.63,1.63h3.77a1.86,1.86,0,0,1,1.84,1.55Z"/><circle class="cls-1" cx="35.55" cy="28.8" r="5.16"/><path class="cls-1" d="M25.52,40a1.27,1.27,0,0,1-.28,0,1.45,1.45,0,0,1-1.15-1.7l.81-4.13A1.44,1.44,0,0,1,26.59,33a1.46,1.46,0,0,1,1.15,1.7l-.81,4.13A1.44,1.44,0,0,1,25.52,40Z"/><path class="cls-1" d="M31.18,40a1.44,1.44,0,0,1-1.42-1.17L29,34.73a1.44,1.44,0,1,1,2.83-.55l.81,4.13A1.45,1.45,0,0,1,31.45,40,1.23,1.23,0,0,1,31.18,40Z"/><path class="cls-1" d="M16.21,27.28A5.16,5.16,0,1,0,26.3,28.8h0a1.28,1.28,0,0,0-1.2-1.26,44.42,44.42,0,0,1-7.37-1.1A1.28,1.28,0,0,0,16.21,27.28Z"/><path class="cls-1" d="M13.62,39.44a1.25,1.25,0,0,1-1.24-1.24V29.74a1.25,1.25,0,1,1,2.49,0V38.2A1.25,1.25,0,0,1,13.62,39.44Z"/><path class="cls-1" d="M43,39.44a1.25,1.25,0,0,1-1.25-1.24V29.74a1.25,1.25,0,1,1,2.49,0V38.2A1.24,1.24,0,0,1,43,39.44Z"/></svg>