<svg id="Слой_1" data-name="Слой 1" xmlns="http://www.w3.org/2000/svg" viewBox="0 0 56.69 56.69"><defs><style>.cls-1{fill:#e52521;}</style></defs><path class="cls-1" d="M23.27,6.26a12.55,12.55,0,0,0-7.87,3.85c-1.47,1.58-2,2.83-2.37,5.71-.28,2.11-.28,23.74,0,25.54a10.26,10.26,0,0,0,3.81,6.77A11.27,11.27,0,0,0,27.19,50a7.93,7.93,0,0,0,3.23-2.47l.68-.9.51,1.48.49,1.48h7.19V26.8H26v6.48H28.3l-.05,4c-.06,3.43-.12,4.08-.35,4.74a1.84,1.84,0,0,1-2.57,1.23c-1.1-.44-1,.42-1-14.94,0-13.53,0-13.66.3-14.15a1.51,1.51,0,0,1,1.64-.81c1.42.14,1.61.82,1.61,5.9v3.5H39.29V20.56c0-4-.51-6.94-1.48-8.71-1.25-2.3-4.26-4.4-7.41-5.19A21.5,21.5,0,0,0,23.27,6.26Z"/><path class="cls-1" d="M43.78,28.35V49.61H55.23V7.09H43.78Z"/><path class="cls-1" d="M1.46,45.31v4.3H9.72V41H1.46Z"/></svg>