<svg id="Слой_1" data-name="Слой 1" xmlns="http://www.w3.org/2000/svg" xmlns:xlink="http://www.w3.org/1999/xlink" viewBox="0 0 56.69 56.69"><defs><style>.cls-1{fill:url(#Безымянный_градиент_3);}</style><linearGradient id="Безымянный_градиент_3" x1="-230.5" y1="34.79" x2="-227.28" y2="34.79" gradientTransform="matrix(15, 0, 0, -15.83, 3460.82, 579.04)" gradientUnits="userSpaceOnUse"><stop offset="0" stop-color="#e7265b"/><stop offset="1" stop-color="#f28f6b"/></linearGradient></defs><g id="_4e2cc1e4-14e2-47d3-9de1-6f1649156548" data-name="4e2cc1e4-14e2-47d3-9de1-6f1649156548"><path id="path853" class="cls-1" d="M4.23,37.08a4.47,4.47,0,0,1,.64-2.49,4.24,4.24,0,0,1,1.71-1.5,5.07,5.07,0,0,1,2.21-.5,5.15,5.15,0,0,1,2.25.5,4.34,4.34,0,0,1,1.67,1.5,4.25,4.25,0,0,1,.68,2.49,4.3,4.3,0,0,1-.68,2.5A4.4,4.4,0,0,1,11,41.07a5,5,0,0,1-2.25.5,4.93,4.93,0,0,1-2.21-.5,4.29,4.29,0,0,1-1.71-1.49A4.53,4.53,0,0,1,4.23,37.08Zm34-24.46h.61V48.1a11.91,11.91,0,0,1-3.93,4.2,9.59,9.59,0,0,1-5.34,1.5,20.44,20.44,0,0,1-2.71-.18A13.43,13.43,0,0,1,24.12,53a15,15,0,0,1-2.85-1.32,25.14,25.14,0,0,1-3-2.29l4-6a14,14,0,0,0,3.06,2,8.55,8.55,0,0,0,2.54.71,5.78,5.78,0,0,0,1.88-.14,3.62,3.62,0,0,0,1.18-.53l0-4a6.94,6.94,0,0,1-.75,0H27.76A12.07,12.07,0,0,1,24,40.82,8.32,8.32,0,0,1,19,36.05a10.71,10.71,0,0,1-.75-4.17V22.36a10.81,10.81,0,0,1,.75-4.1,9.09,9.09,0,0,1,2-3.07,8.63,8.63,0,0,1,3-1.89,10.36,10.36,0,0,1,3.75-.68h1.46a7.59,7.59,0,0,1,3,.58,13.17,13.17,0,0,1,2.61,1.42ZM27.76,33.73H31V20.25H27.76a1.48,1.48,0,0,0-1.57,1.61v10.3a1.5,1.5,0,0,0,.43,1.11,1.55,1.55,0,0,0,1.14.46Zm24.7,7.63H43.41l.43-.54V3.53l-.43-.64h9L52,3.53V40.75Z"/></g></svg>