<svg id="Слой_1" data-name="Слой 1" xmlns="http://www.w3.org/2000/svg" viewBox="0 0 56.69 56.69"><defs><style>.cls-1{fill:none;stroke:#2b4b9b;stroke-miterlimit:15.12;stroke-width:0.5px;}</style></defs><g id="layer1"><rect id="rect910" class="cls-1" x="1.67" y="16.77" width="3.02" height="3.02"/><rect id="rect910-4" class="cls-1" x="1.67" y="20.12" width="3.02" height="3.02"/><rect id="rect910-4-2" class="cls-1" x="1.67" y="23.48" width="3.02" height="3.02"/><rect id="rect910-4-8" class="cls-1" x="1.67" y="26.84" width="3.02" height="3.02"/><rect id="rect910-4-22" class="cls-1" x="1.67" y="30.19" width="3.02" height="3.02"/><rect id="rect910-4-22-8" class="cls-1" x="1.67" y="33.55" width="3.02" height="3.02"/><rect id="rect910-4-22-4" class="cls-1" x="1.67" y="36.9" width="3.02" height="3.02"/><rect id="rect910-5" class="cls-1" x="5.03" y="16.77" width="3.02" height="3.02"/><rect id="rect910-4-88" class="cls-1" x="5.03" y="20.12" width="3.02" height="3.02"/><rect id="rect910-4-2-8" class="cls-1" x="5.03" y="23.48" width="3.02" height="3.02"/><rect id="rect910-4-8-8" class="cls-1" x="5.03" y="26.84" width="3.02" height="3.02"/><rect id="rect910-4-22-7" class="cls-1" x="5.03" y="30.19" width="3.02" height="3.02"/><rect id="rect910-4-22-8-1" class="cls-1" x="5.03" y="33.55" width="3.02" height="3.02"/><rect id="rect910-4-22-4-7" class="cls-1" x="5.03" y="36.9" width="3.02" height="3.02"/><rect id="rect910-7" class="cls-1" x="8.38" y="16.77" width="3.02" height="3.02"/><rect id="rect910-4-7" class="cls-1" x="8.38" y="20.12" width="3.02" height="3.02"/><rect id="rect910-4-2-4" class="cls-1" x="8.38" y="23.48" width="3.02" height="3.02"/><rect id="rect910-4-8-7" class="cls-1" x="8.38" y="26.84" width="3.02" height="3.02"/><rect id="rect910-4-22-3" class="cls-1" x="8.38" y="30.19" width="3.02" height="3.02"/><rect id="rect910-4-22-8-0" class="cls-1" x="8.38" y="33.55" width="3.02" height="3.02"/><rect id="rect910-4-22-4-0" class="cls-1" x="8.38" y="36.9" width="3.02" height="3.02"/><rect id="rect910-7-1" class="cls-1" x="11.74" y="16.77" width="3.02" height="3.02"/><rect id="rect910-7-0" class="cls-1" x="15.09" y="16.77" width="3.02" height="3.02"/><rect id="rect910-7-10" class="cls-1" x="18.45" y="16.77" width="3.02" height="3.02"/><rect id="rect910-4-7-8" class="cls-1" x="11.74" y="36.9" width="3.02" height="3.02"/><rect id="rect910-4-7-2" class="cls-1" x="18.45" y="36.9" width="3.02" height="3.02"/><rect id="rect910-4-7-0" class="cls-1" x="15.09" y="36.9" width="3.02" height="3.02"/><rect id="rect910-4-7-9" class="cls-1" x="21.8" y="36.9" width="3.02" height="3.02"/><rect id="rect910-4-7-1" class="cls-1" x="21.8" y="30.19" width="3.02" height="3.02"/><rect id="rect910-4-7-16" class="cls-1" x="21.8" y="33.55" width="3.02" height="3.02"/><rect id="rect910-4-7-89" class="cls-1" x="21.8" y="26.84" width="3.02" height="3.02"/><rect id="rect910-4-7-10" class="cls-1" x="21.8" y="23.48" width="3.02" height="3.02"/><rect id="rect910-4-7-105" class="cls-1" x="18.45" y="23.48" width="3.02" height="3.02"/><rect id="rect910-4-7-86" class="cls-1" x="15.09" y="23.48" width="3.02" height="3.02"/><rect id="rect910-9" class="cls-1" x="31.87" y="16.77" width="3.02" height="3.02"/><rect id="rect910-4-6" class="cls-1" x="31.87" y="20.12" width="3.02" height="3.02"/><rect id="rect910-4-2-2" class="cls-1" x="31.87" y="23.48" width="3.02" height="3.02"/><rect id="rect910-4-8-0" class="cls-1" x="31.87" y="26.84" width="3.02" height="3.02"/><rect id="rect910-4-22-1" class="cls-1" x="31.87" y="30.19" width="3.02" height="3.02"/><rect id="rect910-4-22-8-4" class="cls-1" x="31.87" y="33.55" width="3.02" height="3.02"/><rect id="rect910-4-22-4-6" class="cls-1" x="31.87" y="36.9" width="3.02" height="3.02"/><rect id="rect910-1" class="cls-1" x="38.58" y="16.77" width="3.02" height="3.02"/><rect id="rect910-4-4" class="cls-1" x="38.58" y="20.12" width="3.02" height="3.02"/><rect id="rect910-4-2-81" class="cls-1" x="38.58" y="23.48" width="3.02" height="3.02"/><rect id="rect910-4-8-3" class="cls-1" x="38.58" y="26.84" width="3.02" height="3.02"/><rect id="rect910-4-22-2" class="cls-1" x="38.58" y="30.19" width="3.02" height="3.02"/><rect id="rect910-4-22-8-5" class="cls-1" x="38.58" y="33.55" width="3.02" height="3.02"/><rect id="rect910-4-22-4-5" class="cls-1" x="38.58" y="36.9" width="3.02" height="3.02"/><rect id="rect910-6" class="cls-1" x="35.22" y="16.77" width="3.02" height="3.02"/><rect id="rect910-4-71" class="cls-1" x="35.22" y="20.12" width="3.02" height="3.02"/><rect id="rect910-4-2-9" class="cls-1" x="35.22" y="23.48" width="3.02" height="3.02"/><rect id="rect910-4-8-74" class="cls-1" x="35.22" y="26.84" width="3.02" height="3.02"/><rect id="rect910-4-22-35" class="cls-1" x="35.22" y="30.19" width="3.02" height="3.02"/><rect id="rect910-4-22-8-3" class="cls-1" x="35.22" y="33.55" width="3.02" height="3.02"/><rect id="rect910-4-22-4-69" class="cls-1" x="35.22" y="36.9" width="3.02" height="3.02"/><rect id="rect910-7-07" class="cls-1" x="41.93" y="16.77" width="3.02" height="3.02"/><rect id="rect910-7-1-1" class="cls-1" x="45.29" y="16.77" width="3.02" height="3.02"/><rect id="rect910-7-0-4" class="cls-1" x="48.64" y="16.77" width="3.02" height="3.02"/><rect id="rect910-7-10-0" class="cls-1" x="52" y="16.77" width="3.02" height="3.02"/><rect id="rect910-4-7-1-1" class="cls-1" x="45.29" y="26.84" width="3.02" height="3.02"/><rect id="rect910-4-7-89-5" class="cls-1" x="45.29" y="23.48" width="3.02" height="3.02"/><rect id="rect910-4-7-10-6" class="cls-1" x="45.29" y="20.12" width="3.02" height="3.02"/><rect id="rect910-4-1" class="cls-1" x="52" y="20.12" width="3.02" height="3.02"/><rect id="rect910-4-2-0" class="cls-1" x="52" y="23.48" width="3.02" height="3.02"/><rect id="rect910-4-8-6" class="cls-1" x="52" y="26.84" width="3.02" height="3.02"/><rect id="rect910-4-22-9" class="cls-1" x="52" y="30.19" width="3.02" height="3.02"/><rect id="rect910-4-22-8-46" class="cls-1" x="52" y="33.55" width="3.02" height="3.02"/><rect id="rect910-4-22-4-2" class="cls-1" x="52" y="36.9" width="3.02" height="3.02"/></g></svg>