<svg id="Слой_1" data-name="Слой 1" xmlns="http://www.w3.org/2000/svg" viewBox="0 0 56.69 56.69"><defs><style>.cls-1{fill:#f7e822;}</style></defs><path class="cls-1" d="M36.52,54H19a1.87,1.87,0,0,1-1.84-1.55l-1-5.65H14a5.38,5.38,0,0,1-5.37-5.37v-.07A5.34,5.34,0,0,1,9.82,38,22,22,0,0,1,5.6,25.05v-.41a21.92,21.92,0,0,1,22-21.95H28a21.92,21.92,0,0,1,22,22v.41A22,22,0,0,1,45.71,38a5.34,5.34,0,0,1,1.2,3.38v.07a5.38,5.38,0,0,1-5.37,5.37h-2.2l-1,5.65A1.87,1.87,0,0,1,36.52,54ZM20.58,50.27H35l1-5.65a1.87,1.87,0,0,1,1.84-1.55h3.77a1.63,1.63,0,0,0,1.63-1.63v-.07a1.62,1.62,0,0,0-.9-1.46A1.86,1.86,0,0,1,41.71,37a18.23,18.23,0,0,0,4.48-12v-.41A18.23,18.23,0,0,0,28,6.42h-.41A18.23,18.23,0,0,0,9.34,24.64v.41a18.23,18.23,0,0,0,4.48,12,1.86,1.86,0,0,1-.56,2.89,1.62,1.62,0,0,0-.9,1.46v.07A1.63,1.63,0,0,0,14,43.07h3.77a1.87,1.87,0,0,1,1.84,1.55Z"/><circle class="cls-1" cx="34.97" cy="28.79" r="5.16"/><path class="cls-1" d="M24.93,40l-.27,0a1.46,1.46,0,0,1-1.15-1.7l.81-4.13a1.45,1.45,0,1,1,2.84.55l-.81,4.13A1.44,1.44,0,0,1,24.93,40Z"/><path class="cls-1" d="M30.6,40a1.44,1.44,0,0,1-1.42-1.17l-.81-4.13a1.45,1.45,0,1,1,2.84-.55L32,38.3A1.46,1.46,0,0,1,30.87,40Z"/><path class="cls-1" d="M15.62,27.27a5.42,5.42,0,0,0-.22,1.62,5.16,5.16,0,0,0,10.32-.1h0a1.27,1.27,0,0,0-1.2-1.26,44.42,44.42,0,0,1-7.37-1.1A1.28,1.28,0,0,0,15.62,27.27Z"/><path class="cls-1" d="M13,39.43a1.24,1.24,0,0,1-1.24-1.25V29.73a1.25,1.25,0,1,1,2.49,0v8.45A1.25,1.25,0,0,1,13,39.43Z"/><path class="cls-1" d="M42.44,39.43a1.25,1.25,0,0,1-1.25-1.25V29.73a1.25,1.25,0,1,1,2.49,0v8.45A1.25,1.25,0,0,1,42.44,39.43Z"/></svg>