<svg id="Слой_1" data-name="Слой 1" xmlns="http://www.w3.org/2000/svg" viewBox="0 0 56.69 56.69"><defs><style>.cls-1{fill:#f7e822;}</style></defs><path class="cls-1" d="M37.34,54H19.82A1.88,1.88,0,0,1,18,52.46l-1-5.65H14.8a5.37,5.37,0,0,1-5.36-5.37v-.07A5.33,5.33,0,0,1,10.63,38,22,22,0,0,1,6.42,25.05v-.41a21.92,21.92,0,0,1,22-21.95h.4A22,22,0,0,1,49,16.1a21.69,21.69,0,0,1,1.73,8.54v.41A22,22,0,0,1,46.52,38a5.29,5.29,0,0,1,1.2,3.38v.07a5.38,5.38,0,0,1-5.37,5.37h-2.2l-1,5.65A1.88,1.88,0,0,1,37.34,54Zm-16-3.74H35.76l1-5.65a1.88,1.88,0,0,1,1.84-1.55h3.77A1.64,1.64,0,0,0,44,41.44v-.07a1.64,1.64,0,0,0-.9-1.46A1.85,1.85,0,0,1,42.52,37a18.23,18.23,0,0,0,4.48-12v-.41A18.21,18.21,0,0,0,28.78,6.42h-.4A18.23,18.23,0,0,0,10.15,24.64v.41a18.24,18.24,0,0,0,4.49,12,1.87,1.87,0,0,1-.57,2.89,1.62,1.62,0,0,0-.9,1.46v.07a1.63,1.63,0,0,0,1.63,1.63h3.78a1.88,1.88,0,0,1,1.84,1.55Z"/><circle class="cls-1" cx="35.78" cy="28.79" r="5.16"/><path class="cls-1" d="M25.75,40l-.28,0a1.45,1.45,0,0,1-1.14-1.7l.8-4.13a1.45,1.45,0,1,1,2.84.55l-.8,4.13A1.45,1.45,0,0,1,25.75,40Z"/><path class="cls-1" d="M31.41,40A1.44,1.44,0,0,1,30,38.85l-.8-4.13A1.44,1.44,0,0,1,30.33,33,1.46,1.46,0,0,1,32,34.17l.8,4.13A1.46,1.46,0,0,1,31.69,40Z"/><path class="cls-1" d="M16.44,27.27a5.12,5.12,0,0,0-.23,1.62,5.16,5.16,0,0,0,10.32-.1h0a1.27,1.27,0,0,0-1.19-1.26A44.55,44.55,0,0,1,18,26.42,1.27,1.27,0,0,0,16.44,27.27Z"/><path class="cls-1" d="M13.86,39.43a1.25,1.25,0,0,1-1.25-1.25V29.73a1.25,1.25,0,1,1,2.49,0v8.45A1.25,1.25,0,0,1,13.86,39.43Z"/><path class="cls-1" d="M43.25,39.43A1.25,1.25,0,0,1,42,38.18V29.73a1.25,1.25,0,1,1,2.49,0v8.45A1.24,1.24,0,0,1,43.25,39.43Z"/></svg>