<svg id="Слой_1" data-name="Слой 1" xmlns="http://www.w3.org/2000/svg" viewBox="0 0 56.69 56.69"><defs><style>.cls-1{fill:#0c6b39;}</style></defs><g id="layer1"><g id="text2828"><path id="path7214" class="cls-1" d="M3.3,35.69a2.59,2.59,0,0,1-1.9-.8,2.68,2.68,0,0,1,0-3.8,2.59,2.59,0,0,1,1.9-.8,2.61,2.61,0,0,1,1.91.8A2.58,2.58,0,0,1,6,33a2.54,2.54,0,0,1-.37,1.35,2.82,2.82,0,0,1-1,1,2.57,2.57,0,0,1-1.35.36Z"/><path id="path7216" class="cls-1" d="M21.64,44.55a13.13,13.13,0,0,1-4.41-.66,9.5,9.5,0,0,1-3.07-1.7,9.33,9.33,0,0,1-1.93-2.25l2.82-2c.32.42.72.9,1.21,1.44a6.15,6.15,0,0,0,2,1.42,7.86,7.86,0,0,0,3.37.62,7.46,7.46,0,0,0,4.59-1.35,4.92,4.92,0,0,0,1.82-4.22V31.19h-.3a19.06,19.06,0,0,1-1.11,1.56,6.29,6.29,0,0,1-2,1.63,7.57,7.57,0,0,1-3.56.71,9.61,9.61,0,0,1-5-1.32,9.23,9.23,0,0,1-3.48-3.84,13.36,13.36,0,0,1-1.28-6.11,14.18,14.18,0,0,1,1.25-6.15A9.58,9.58,0,0,1,16,13.59a9.14,9.14,0,0,1,5.13-1.45,7.19,7.19,0,0,1,3.56.75,6.25,6.25,0,0,1,2,1.68c.48.62.85,1.13,1.11,1.52h.36V12.44h3.41V36.1a8,8,0,0,1-1.35,4.83,7.65,7.65,0,0,1-3.59,2.74A13.57,13.57,0,0,1,21.64,44.55Zm-.12-12.64a6.36,6.36,0,0,0,3.59-1,6.09,6.09,0,0,0,2.23-2.8,11.32,11.32,0,0,0,.77-4.38,12,12,0,0,0-.75-4.39,6.63,6.63,0,0,0-2.22-3,6,6,0,0,0-3.62-1.07,6.08,6.08,0,0,0-3.75,1.13,6.93,6.93,0,0,0-2.23,3.06,11.81,11.81,0,0,0-.73,4.25A11.18,11.18,0,0,0,15.56,28a6.41,6.41,0,0,0,2.24,2.88,6.39,6.39,0,0,0,3.72,1Z"/><path id="path7218" class="cls-1" d="M52.55,26V12.44h3.54v23H52.55v-3.9h-.24a7.55,7.55,0,0,1-2.52,3,7.23,7.23,0,0,1-4.31,1.22,7.63,7.63,0,0,1-3.83-1A6.64,6.64,0,0,1,39,31.93a10.92,10.92,0,0,1-1-4.87V12.44h3.54V26.82a5.64,5.64,0,0,0,1.4,4,4.79,4.79,0,0,0,3.63,1.5,6,6,0,0,0,2.68-.67,5.85,5.85,0,0,0,2.31-2.07A6.19,6.19,0,0,0,52.55,26Z"/></g></g></svg>