<svg id="Слой_1" data-name="Слой 1" xmlns="http://www.w3.org/2000/svg" viewBox="0 0 56.69 56.69"><defs><style>.cls-1{fill:#010101;}.cls-2{fill:#d11317;}</style></defs><path class="cls-1" d="M8.43,37.76A3.85,3.85,0,1,1,4.58,33.9a3.86,3.86,0,0,1,3.85,3.86Z"/><path class="cls-1" d="M49.56,34.41H46.34L41.85,22,37.24,34.41H34l-6.4-18.24h3.94l4.29,12.54q1.1-3.11,2.23-6.31c.75-2.14,1.5-4.2,2.22-6.21h3.14L48,28.67l4.23-12.5H56Z"/><path class="cls-1" d="M24.12,33.35a12.49,12.49,0,0,1-2.86.33,11.81,11.81,0,0,1-3.54-.52,8.17,8.17,0,0,1-5.16-4.55,10.13,10.13,0,0,1-.81-4.21,10.5,10.5,0,0,1,.66-3.72,8.38,8.38,0,0,1,1.91-3,8.74,8.74,0,0,1,3-1.94,11.07,11.07,0,0,1,4-.7,17,17,0,0,1,3.1.29c1.06.2,2.17.46,3.35.8V33.61a9.59,9.59,0,0,1-.63,3.67,6.37,6.37,0,0,1-1.73,2.49,6.87,6.87,0,0,1-2.67,1.41,12.69,12.69,0,0,1-3.42.44,9.47,9.47,0,0,1-4.24-.94,12.43,12.43,0,0,1-3.44-2.54l2.49-2.7A6.82,6.82,0,0,0,19.45,38,5.59,5.59,0,0,0,23,37a3.78,3.78,0,0,0,1.16-3.11v-.59h0Zm-8.55-9a5.79,5.79,0,0,0,1.58,4.38,5.92,5.92,0,0,0,4.3,1.54,5.64,5.64,0,0,0,1.3-.15l1.38-.32v-11a11.46,11.46,0,0,0-3-.37,5.26,5.26,0,0,0-4.11,1.62A6,6,0,0,0,15.57,24.36Z"/><path class="cls-2" d="M16.58,24.3a4.79,4.79,0,0,0,1.24,3.55,4.49,4.49,0,0,0,3.32,1.24,4.7,4.7,0,0,0,1-.12l1.06-.27V19.82a8.49,8.49,0,0,0-2.3-.29,4,4,0,0,0-3.18,1.31A5.05,5.05,0,0,0,16.58,24.3Z"/></svg>