<svg id="Слой_1" data-name="Слой 1" xmlns="http://www.w3.org/2000/svg" viewBox="0 0 56.69 56.69"><defs><style>.cls-1{fill:#383737;}.cls-2{fill:#231f20;}.cls-3{fill:#49c1f1;}</style></defs><path class="cls-1" d="M39.69,29.16a1.35,1.35,0,0,1-1.35,1.35"/><path class="cls-1" d="M35.35,15.19h-.46a9.25,9.25,0,0,0-4.64,1.39.17.17,0,0,1,0-.09V10.6a1.36,1.36,0,0,0-1.36-1.35H27.1V30.52h1.78a1.37,1.37,0,0,0,1.36-1.35v-9.6A1.37,1.37,0,0,1,31.6,18.2h3.6a1.38,1.38,0,0,1,1.37,1.37v9.59a1.34,1.34,0,0,0,1.36,1.35h.42a1.35,1.35,0,0,0,1.35-1.35V19.21c0-2.44-1.71-4-4.35-4Z"/><path class="cls-2" d="M24.49,28.54a2.06,2.06,0,1,1-2.06-2.05,2.05,2.05,0,0,1,2.06,2.05"/><path class="cls-1" d="M44.35,9.25H43v0h1.14Z"/><path class="cls-1" d="M49.73,21.49l5.06-3.85a1,1,0,0,0,.4-.8,1.29,1.29,0,0,0-.31-.84l-.3-.35a1.15,1.15,0,0,0-.93-.48,1.6,1.6,0,0,0-.87.3l-6.66,5V10.6a1.35,1.35,0,0,0-1.35-1.35h-.42l-.22,0H43V30.52h1.77a1.35,1.35,0,0,0,1.35-1.35V24.25l1.18-.87,5.41,6.74a1.48,1.48,0,0,0,1.12.49,1.23,1.23,0,0,0,.82-.27l.35-.29a1.14,1.14,0,0,0,.47-1,1.28,1.28,0,0,0-.37-.88Z"/><path class="cls-1" d="M24.49,28.54a2.06,2.06,0,1,1-2.06-2.05,2.05,2.05,0,0,1,2.06,2.05"/><path class="cls-3" d="M25.4,39a1.75,1.75,0,0,0-1.11-1.12,1.7,1.7,0,0,0-1,0,14.29,14.29,0,0,1-8.68,0A14.47,14.47,0,0,1,5.2,28.49L5,27.73a1.7,1.7,0,0,0-1.1-1.1,1.81,1.81,0,0,0-.51-.08,1.75,1.75,0,0,0-.51.07l-1.61.51L2,29.49A17.8,17.8,0,0,0,24.3,41.16l1.63-.51-.18-.54Z"/><path class="cls-3" d="M35.54,35.35a1.57,1.57,0,0,0-.87-.25,1.71,1.71,0,0,0-.62.12l-.25.14a1.57,1.57,0,0,0-.48.48,17.83,17.83,0,0,1-5.46,5.51,19.17,19.17,0,0,1-2.8,1.48A18.09,18.09,0,0,1,8.5,41.47L7.69,41a1.61,1.61,0,0,0-1.46-.13L6,41a1.47,1.47,0,0,0-.49.5l-.86,1.36,2.15,1.36a21.2,21.2,0,0,0,19.52,1.61,22.76,22.76,0,0,0,3.28-1.72A21.12,21.12,0,0,0,36,37.55l.86-1.35-.2-.12Z"/><path class="cls-3" d="M20.93,16.4l-.47-.91-1.32.69a10.69,10.69,0,0,0-4.56,14.41l.47.9.3-.15L16,31a1,1,0,0,0,.44-1.37A8.63,8.63,0,0,1,20.08,18l.42-.22A1,1,0,0,0,21,17a1,1,0,0,0-.1-.6Z"/><path class="cls-3" d="M17.19,34.56a.67.67,0,0,0-.11-.14,1,1,0,0,0-.33-.23,10.54,10.54,0,0,1-3.82-2.66A10,10,0,0,1,11.76,30a10.86,10.86,0,0,1-.92-9.93l.22-.53A1,1,0,0,0,11,18.7a.54.54,0,0,0-.09-.12.81.81,0,0,0-.34-.24L9.64,18l-.58,1.41a12.75,12.75,0,0,0,1.08,11.7,12.07,12.07,0,0,0,1.36,1.75A12.93,12.93,0,0,0,16,36l.9.36,0-.12.3-.77a1,1,0,0,0-.08-.88Z"/></svg>