<svg id="Слой_1" data-name="Слой 1" xmlns="http://www.w3.org/2000/svg" viewBox="0 0 56.69 56.69"><defs><style>.cls-1{fill:#f7e822;}</style></defs><path class="cls-1" d="M35.53,54H18a1.87,1.87,0,0,1-1.84-1.55l-1-5.65H13a5.38,5.38,0,0,1-5.37-5.37v-.07A5.34,5.34,0,0,1,8.83,38,22,22,0,0,1,4.62,25.05v-.41a21.92,21.92,0,0,1,22-21.95H27A22,22,0,0,1,47.21,16.1a21.69,21.69,0,0,1,1.73,8.54v.41A22,22,0,0,1,44.72,38a5.29,5.29,0,0,1,1.2,3.38v.07a5.38,5.38,0,0,1-5.37,5.37h-2.2l-1,5.65A1.87,1.87,0,0,1,35.53,54ZM19.59,50.27H34l1-5.65a1.87,1.87,0,0,1,1.84-1.55h3.77a1.63,1.63,0,0,0,1.63-1.63v-.07a1.63,1.63,0,0,0-.89-1.46A1.85,1.85,0,0,1,40.72,37a18.23,18.23,0,0,0,4.48-12v-.41A18.23,18.23,0,0,0,27,6.42h-.41A18.23,18.23,0,0,0,8.35,24.64v.41a18.19,18.19,0,0,0,4.49,12,1.9,1.9,0,0,1,.42,1.59,1.87,1.87,0,0,1-1,1.3,1.62,1.62,0,0,0-.9,1.46v.07A1.63,1.63,0,0,0,13,43.07h3.77a1.87,1.87,0,0,1,1.84,1.55Z"/><circle class="cls-1" cx="33.98" cy="28.79" r="5.16"/><path class="cls-1" d="M24,40a1.27,1.27,0,0,1-.28,0,1.43,1.43,0,0,1-1.14-1.69l.8-4.13a1.45,1.45,0,1,1,2.84.55l-.81,4.13A1.44,1.44,0,0,1,24,40Z"/><path class="cls-1" d="M29.61,40a1.44,1.44,0,0,1-1.42-1.17l-.8-4.13A1.44,1.44,0,0,1,28.53,33a1.46,1.46,0,0,1,1.7,1.15L31,38.3A1.44,1.44,0,0,1,29.88,40Z"/><path class="cls-1" d="M14.64,27.27a5.12,5.12,0,0,0-.23,1.62,5.16,5.16,0,0,0,10.32-.1h0a1.27,1.27,0,0,0-1.19-1.26,44.55,44.55,0,0,1-7.38-1.1A1.27,1.27,0,0,0,14.64,27.27Z"/><path class="cls-1" d="M12.05,39.43a1.25,1.25,0,0,1-1.24-1.25V29.73a1.25,1.25,0,1,1,2.49,0v8.45A1.25,1.25,0,0,1,12.05,39.43Z"/><path class="cls-1" d="M41.45,39.43a1.25,1.25,0,0,1-1.25-1.25V29.73a1.25,1.25,0,1,1,2.49,0v8.45A1.24,1.24,0,0,1,41.45,39.43Z"/></svg>