<svg id="Слой_1" data-name="Слой 1" xmlns="http://www.w3.org/2000/svg" viewBox="0 0 56.69 56.69"><defs><style>.cls-1{fill:#6e6f70;}</style></defs><rect class="cls-1" x="1.63" y="38.18" width="6.61" height="6.26"/><path class="cls-1" d="M19.84,44.44H13.49V12.26h6.35V23.32q2.19-3,6.65-3a7.92,7.92,0,0,1,6.15,2.47,9.58,9.58,0,0,1,2.27,6.74v15H28.56V31.08c0-3.44-1.36-5.16-4.1-5.16-3.08,0-4.63,1.87-4.63,5.6V44.44Z"/><path class="cls-1" d="M47.08,44.44H40.74V20.81h5.59l.44,3.61q2.16-4,8.29-4v6H53.87q-6.78,0-6.79,6.17V44.44Z"/></svg>