<svg id="Слой_1" data-name="Слой 1" xmlns="http://www.w3.org/2000/svg" viewBox="0 0 56.69 56.69"><defs><style>.cls-1{fill:#f7e822;}</style></defs><path class="cls-1" d="M37.1,55.05H19.59a1.87,1.87,0,0,1-1.84-1.55l-1-5.65h-2.2A5.38,5.38,0,0,1,9.2,42.48v-.07A5.34,5.34,0,0,1,10.4,39,21.94,21.94,0,0,1,6.19,26.09v-.41a21.92,21.92,0,0,1,22-21.95h.41a22,22,0,0,1,22,22v.41A22,22,0,0,1,46.29,39a5.34,5.34,0,0,1,1.2,3.38v.07a5.38,5.38,0,0,1-5.37,5.37h-2.2l-1,5.65A1.87,1.87,0,0,1,37.1,55.05ZM21.16,51.31H35.53l1-5.65a1.86,1.86,0,0,1,1.84-1.54h3.77a1.64,1.64,0,0,0,1.63-1.64v-.07a1.6,1.6,0,0,0-.9-1.45,1.87,1.87,0,0,1-.56-2.9,18.21,18.21,0,0,0,4.48-12v-.41A18.23,18.23,0,0,0,28.55,7.46h-.41A18.23,18.23,0,0,0,9.92,25.68v.41a18.17,18.17,0,0,0,4.49,12,1.88,1.88,0,0,1-.57,2.9,1.6,1.6,0,0,0-.9,1.45v.07a1.64,1.64,0,0,0,1.63,1.64h3.77a1.86,1.86,0,0,1,1.84,1.54Z"/><circle class="cls-1" cx="35.55" cy="29.83" r="5.16"/><path class="cls-1" d="M25.52,41.06l-.28,0a1.46,1.46,0,0,1-1.15-1.7l.81-4.13a1.45,1.45,0,1,1,2.84.55l-.81,4.13A1.44,1.44,0,0,1,25.52,41.06Z"/><path class="cls-1" d="M31.18,41.06a1.44,1.44,0,0,1-1.42-1.17L29,35.76a1.44,1.44,0,1,1,2.83-.55l.81,4.13A1.46,1.46,0,0,1,31.45,41Z"/><path class="cls-1" d="M16.21,28.31A5.12,5.12,0,0,0,16,29.93a5.16,5.16,0,0,0,10.32-.1h0a1.27,1.27,0,0,0-1.2-1.26,44.42,44.42,0,0,1-7.37-1.1A1.28,1.28,0,0,0,16.21,28.31Z"/><path class="cls-1" d="M13.62,40.47a1.25,1.25,0,0,1-1.24-1.25V30.77a1.25,1.25,0,1,1,2.49,0v8.45A1.25,1.25,0,0,1,13.62,40.47Z"/><path class="cls-1" d="M43,40.47a1.25,1.25,0,0,1-1.25-1.25V30.77a1.25,1.25,0,1,1,2.49,0v8.45A1.24,1.24,0,0,1,43,40.47Z"/></svg>