<svg id="Слой_1" data-name="Слой 1" xmlns="http://www.w3.org/2000/svg" viewBox="0 0 56.69 56.69"><defs><style>.cls-1{fill:#139446;}.cls-2{fill:#e52521;}</style></defs><circle id="path302" class="cls-1" cx="7.96" cy="44.68" r="6.33"/><g id="g1115"><path id="path285" class="cls-2" d="M25.8,50.35c-3.23-1-5.88-3.31-6.66-5.84-.26-.86-.32-5.4-.18-13.5l.2-12.19H29.93V50.7l-1.6,0a11.78,11.78,0,0,1-2.53-.32Zm14.82-.17c-3.18-1-5.72-3-6.54-5.22-.26-.7-.4-7.6-.4-20.17V5.69H45.29l.1,6.47.11,6.47,4.78.1,4.78.11v9H45.31V50.7l-1.6,0a12.87,12.87,0,0,1-3.09-.5Z"/><circle id="path1109" class="cls-2" cx="24.39" cy="11.07" r="4.92"/></g></svg>