<svg id="Слой_1" data-name="Слой 1" xmlns="http://www.w3.org/2000/svg" viewBox="0 0 56.69 56.69"><defs><style>.cls-1{fill:#e52629;}.cls-2{fill:#bbbdc0;}.cls-3{fill:#231f20;}</style></defs><path class="cls-1" d="M11.12,45.28a4.4,4.4,0,1,1-4.4-4.4,4.4,4.4,0,0,1,4.4,4.4"/><path class="cls-2" d="M3.37,7.8H10.1l-.78,30h-5"/><path class="cls-3" d="M20.21,10.85s1.31-.21,1.51,5.27.21,19.81.16,21.42c0,0,.16,6.57-3.18,9.33a14.93,14.93,0,0,1-1.77,1.25.82.82,0,0,0-.21.84.66.66,0,0,0,1,.47c.42-.21,8.52-4,9.12-10.79.58-6.42.32-27.69.32-27.69s0-1.87,0-2.5.31-1-.21-1.3-.58,0-.78.15a43.22,43.22,0,0,1-5.37,2.3c-.53.15-.68.05-.73.36s-.11.73.15.89"/><path class="cls-3" d="M48.89,28.52c-.27,5.11-3.39,7-5.06,6.88a6,6,0,0,1-2.61-.94,4.1,4.1,0,0,1-1.77-3.75L39.4,24.4s.05-1.35.05-2.5c.1-2.08,2.71-2.87,4.59-2.34,3.7,1.09,5.11,3.85,4.85,9m-3-11.88a12.59,12.59,0,0,0-5.32,1.66s-1,.84-1.14.06a6,6,0,0,1,.26-1.83c.05-.57-.47-1.2-1.15-.68A19.91,19.91,0,0,1,33.3,18.3c-.89.26-1.3.79-.84,1.31s1.57.93,1.67,1.93,0,1,0,1l.06,22.94s0,2-1.25,2.34c-.89.11-1.31.26-1.62.26s-.52.26-.47.68-.1.63,1.36.57,9.07-.2,10.06,0,1-.41,1-.62,0-.79-.73-.73a7.61,7.61,0,0,1-2-.21c-.47-.11-1.1-.73-1.1-2.61V38.43s-.1-1.31.94-1.2S51,38.48,54,29.25c1-4.43.52-12.77-8.14-12.61"/><path class="cls-1" d="M11.1,45.26a4.4,4.4,0,1,1-4.39-4.4,4.39,4.39,0,0,1,4.39,4.4"/><path class="cls-2" d="M3.36,7.78h6.73l-.78,30h-5"/><path class="cls-3" d="M20.2,10.83s1.3-.21,1.51,5.26.21,19.81.16,21.43c0,0,.15,6.57-3.18,9.33a15.5,15.5,0,0,1-1.78,1.25.82.82,0,0,0-.2.84.66.66,0,0,0,1,.47c.41-.21,8.51-4,9.12-10.8.57-6.41.31-27.68.31-27.68s-.05-1.87,0-2.5.32-1-.21-1.3-.57,0-.78.15a43.22,43.22,0,0,1-5.37,2.3c-.52.15-.68.05-.73.36s-.1.73.16.89"/><path class="cls-3" d="M48.87,28.5c-.26,5.11-3.39,7-5,6.88a6,6,0,0,1-2.61-.94,4.1,4.1,0,0,1-1.77-3.75l-.06-6.31s.06-1.35.06-2.5c.1-2.08,2.71-2.87,4.58-2.34,3.71,1.09,5.11,3.85,4.85,9m-3-11.89a12.69,12.69,0,0,0-5.32,1.67s-1,.84-1.15.06a6,6,0,0,1,.27-1.83c.05-.57-.47-1.2-1.15-.68a20.16,20.16,0,0,1-5.22,2.45c-.88.26-1.3.79-.83,1.31s1.57.93,1.67,1.92a3.46,3.46,0,0,1,.05,1l0,22.94s.06,2-1.25,2.34c-.88.11-1.3.26-1.61.26s-.53.26-.47.68-.11.63,1.35.57,9.07-.2,10.06-.05,1.05-.41,1.05-.62,0-.79-.73-.73a7.64,7.64,0,0,1-2-.21c-.46-.11-1.09-.73-1.09-2.61V38.41s-.11-1.31.94-1.2S51,38.46,54,29.23c1-4.43.52-12.77-8.13-12.62"/></svg>