<svg id="Слой_1" data-name="Слой 1" xmlns="http://www.w3.org/2000/svg" viewBox="0 0 56.69 56.69"><defs><style>.cls-1{fill:#f7e822;}</style></defs><path class="cls-1" d="M36.55,54H19a1.88,1.88,0,0,1-1.84-1.55l-1-5.65H14a5.37,5.37,0,0,1-5.36-5.37v-.07A5.33,5.33,0,0,1,9.84,38,22,22,0,0,1,5.63,25.05v-.41a21.92,21.92,0,0,1,22-21.95H28a22,22,0,0,1,22,22v.41A22,22,0,0,1,45.73,38a5.29,5.29,0,0,1,1.2,3.38v.07a5.38,5.38,0,0,1-5.36,5.37H39.36l-1,5.65A1.88,1.88,0,0,1,36.55,54ZM20.6,50.27H35l1-5.65a1.88,1.88,0,0,1,1.84-1.55h3.78a1.63,1.63,0,0,0,1.63-1.63v-.07a1.64,1.64,0,0,0-.9-1.46A1.87,1.87,0,0,1,41.73,37a18.23,18.23,0,0,0,4.48-12v-.41A18.21,18.21,0,0,0,28,6.42h-.4A18.23,18.23,0,0,0,9.36,24.64v.41a18.24,18.24,0,0,0,4.49,12,1.86,1.86,0,0,1,.42,1.59,1.83,1.83,0,0,1-1,1.3,1.64,1.64,0,0,0-.9,1.46v.07A1.63,1.63,0,0,0,14,43.07h3.78a1.88,1.88,0,0,1,1.84,1.55Z"/><circle class="cls-1" cx="34.99" cy="28.79" r="5.16"/><path class="cls-1" d="M25,40l-.28,0a1.45,1.45,0,0,1-1.14-1.7l.8-4.13a1.45,1.45,0,1,1,2.84.55l-.8,4.13A1.45,1.45,0,0,1,25,40Z"/><path class="cls-1" d="M30.62,40a1.45,1.45,0,0,1-1.42-1.17l-.8-4.13a1.45,1.45,0,1,1,2.84-.55L32,38.3A1.46,1.46,0,0,1,30.9,40Z"/><path class="cls-1" d="M15.65,27.27a5.12,5.12,0,0,0-.23,1.62,5.17,5.17,0,0,0,10.33-.1h0a1.28,1.28,0,0,0-1.2-1.26,44.55,44.55,0,0,1-7.38-1.1A1.27,1.27,0,0,0,15.65,27.27Z"/><path class="cls-1" d="M13.07,39.43a1.25,1.25,0,0,1-1.25-1.25V29.73a1.25,1.25,0,1,1,2.49,0v8.45A1.25,1.25,0,0,1,13.07,39.43Z"/><path class="cls-1" d="M42.46,39.43a1.24,1.24,0,0,1-1.24-1.25V29.73a1.25,1.25,0,1,1,2.49,0v8.45A1.25,1.25,0,0,1,42.46,39.43Z"/></svg>