<svg id="Слой_1" data-name="Слой 1" xmlns="http://www.w3.org/2000/svg" viewBox="0 0 56.69 56.69"><defs><style>.cls-1{fill:#f7e822;}</style></defs><path class="cls-1" d="M35.45,54.05H17.93a1.87,1.87,0,0,1-1.84-1.55l-1-5.64H12.91a5.37,5.37,0,0,1-5.36-5.37v-.07A5.33,5.33,0,0,1,8.75,38,22,22,0,0,1,4.53,25.1v-.41A21.95,21.95,0,0,1,11,9.16a22.14,22.14,0,0,1,7-4.7,21.74,21.74,0,0,1,8.55-1.73h.4a21.74,21.74,0,0,1,8.55,1.73A22,22,0,0,1,47.12,16.14a21.78,21.78,0,0,1,1.73,8.55v.41A22,22,0,0,1,44.63,38a5.33,5.33,0,0,1,1.2,3.39v.07a5.37,5.37,0,0,1-5.36,5.37H38.26l-1,5.64A1.87,1.87,0,0,1,35.45,54.05Zm-16-3.73H33.88l1-5.65a1.88,1.88,0,0,1,1.84-1.55h3.78a1.63,1.63,0,0,0,1.63-1.63v-.07A1.64,1.64,0,0,0,41.2,40a1.87,1.87,0,0,1-.57-2.89,18.23,18.23,0,0,0,4.48-12v-.41A18.21,18.21,0,0,0,26.89,6.47h-.4A18.21,18.21,0,0,0,8.27,24.69v.41a18.23,18.23,0,0,0,4.48,12A1.87,1.87,0,0,1,12.18,40a1.64,1.64,0,0,0-.9,1.46v.07a1.63,1.63,0,0,0,1.63,1.63h3.78a1.88,1.88,0,0,1,1.84,1.55Z"/><circle class="cls-1" cx="33.9" cy="28.84" r="5.16"/><path class="cls-1" d="M23.86,40.07l-.28,0a1.44,1.44,0,0,1-1.14-1.69l.8-4.14a1.45,1.45,0,0,1,2.84.55l-.8,4.14A1.45,1.45,0,0,1,23.86,40.07Z"/><path class="cls-1" d="M29.52,40.07A1.45,1.45,0,0,1,28.1,38.9l-.8-4.14a1.45,1.45,0,0,1,2.84-.55l.8,4.14A1.44,1.44,0,0,1,29.8,40Z"/><path class="cls-1" d="M14.55,27.32a5.08,5.08,0,0,0-.23,1.62,5.17,5.17,0,0,0,10.33-.1h0a1.27,1.27,0,0,0-1.2-1.26,45.62,45.62,0,0,1-7.38-1.1A1.27,1.27,0,0,0,14.55,27.32Z"/><path class="cls-1" d="M12,39.48a1.25,1.25,0,0,1-1.25-1.25V29.77a1.25,1.25,0,0,1,2.49,0v8.46A1.24,1.24,0,0,1,12,39.48Z"/><path class="cls-1" d="M41.36,39.48a1.24,1.24,0,0,1-1.24-1.25V29.77a1.25,1.25,0,0,1,2.49,0v8.46A1.25,1.25,0,0,1,41.36,39.48Z"/></svg>