<svg id="Слой_1" data-name="Слой 1" xmlns="http://www.w3.org/2000/svg" viewBox="0 0 56.69 56.69"><defs><style>.cls-1{fill:#f7e822;}</style></defs><path class="cls-1" d="M35.54,54.05H18a1.87,1.87,0,0,1-1.84-1.55l-1-5.64H13a5.37,5.37,0,0,1-5.36-5.37v-.07A5.38,5.38,0,0,1,8.83,38,21.94,21.94,0,0,1,4.62,25.1v-.41A21.95,21.95,0,0,1,11.05,9.16a22,22,0,0,1,7-4.7,21.74,21.74,0,0,1,8.55-1.73H27a21.74,21.74,0,0,1,8.55,1.73A22,22,0,0,1,47.21,16.14a21.78,21.78,0,0,1,1.73,8.55v.41A22,22,0,0,1,44.72,38a5.33,5.33,0,0,1,1.2,3.39v.07a5.38,5.38,0,0,1-5.36,5.37H38.35l-1,5.64A1.87,1.87,0,0,1,35.54,54.05ZM19.59,50.32H34l1-5.65a1.88,1.88,0,0,1,1.84-1.55h3.78a1.63,1.63,0,0,0,1.63-1.63v-.07a1.64,1.64,0,0,0-.9-1.46,1.88,1.88,0,0,1-1-1.31,1.86,1.86,0,0,1,.43-1.58,18.23,18.23,0,0,0,4.48-12v-.41A18.21,18.21,0,0,0,27,6.47h-.4A18.23,18.23,0,0,0,8.35,24.69v.41a18.24,18.24,0,0,0,4.49,12A1.87,1.87,0,0,1,12.27,40a1.64,1.64,0,0,0-.9,1.46v.07A1.63,1.63,0,0,0,13,43.12h3.78a1.88,1.88,0,0,1,1.84,1.55Z"/><circle class="cls-1" cx="33.98" cy="28.84" r="5.16"/><path class="cls-1" d="M24,40.07a1.33,1.33,0,0,1-.28,0,1.44,1.44,0,0,1-1.14-1.69l.8-4.14a1.45,1.45,0,0,1,2.84.55l-.8,4.14A1.45,1.45,0,0,1,24,40.07Z"/><path class="cls-1" d="M29.61,40.07a1.45,1.45,0,0,1-1.42-1.17l-.8-4.14a1.45,1.45,0,0,1,2.84-.55l.8,4.14A1.44,1.44,0,0,1,29.89,40Z"/><path class="cls-1" d="M14.64,27.32a5.08,5.08,0,0,0-.23,1.62,5.17,5.17,0,0,0,10.33-.1h0a1.28,1.28,0,0,0-1.2-1.26,45.62,45.62,0,0,1-7.38-1.1A1.27,1.27,0,0,0,14.64,27.32Z"/><path class="cls-1" d="M12.06,39.48a1.25,1.25,0,0,1-1.25-1.25V29.77a1.25,1.25,0,0,1,2.49,0v8.46A1.25,1.25,0,0,1,12.06,39.48Z"/><path class="cls-1" d="M41.45,39.48a1.25,1.25,0,0,1-1.25-1.25V29.77a1.25,1.25,0,0,1,2.49,0v8.46A1.24,1.24,0,0,1,41.45,39.48Z"/></svg>