<svg id="Слой_1" data-name="Слой 1" xmlns="http://www.w3.org/2000/svg" viewBox="0 0 56.69 56.69"><defs><style>.cls-1{fill:#f7e822;}</style></defs><path class="cls-1" d="M38,54H20.45a1.88,1.88,0,0,1-1.84-1.55l-1-5.65h-2.2a5.37,5.37,0,0,1-5.36-5.37v-.07A5.33,5.33,0,0,1,11.26,38,22,22,0,0,1,7.05,25.05v-.41A21.92,21.92,0,0,1,29,2.69h.4a22,22,0,0,1,22,22v.41A22,22,0,0,1,47.15,38a5.29,5.29,0,0,1,1.2,3.38v.07A5.38,5.38,0,0,1,43,46.81H40.78l-1,5.65A1.88,1.88,0,0,1,38,54ZM22,50.27H36.39l1-5.65a1.88,1.88,0,0,1,1.84-1.55H43a1.63,1.63,0,0,0,1.63-1.63v-.07a1.64,1.64,0,0,0-.9-1.46A1.87,1.87,0,0,1,43.15,37a18.23,18.23,0,0,0,4.48-12v-.41A18.21,18.21,0,0,0,29.41,6.42H29A18.23,18.23,0,0,0,10.78,24.64v.41a18.24,18.24,0,0,0,4.49,12,1.86,1.86,0,0,1,.42,1.59,1.83,1.83,0,0,1-1,1.3,1.64,1.64,0,0,0-.9,1.46v.07a1.63,1.63,0,0,0,1.63,1.63h3.78a1.88,1.88,0,0,1,1.84,1.55Z"/><circle class="cls-1" cx="36.41" cy="28.79" r="5.16"/><path class="cls-1" d="M26.38,40l-.28,0A1.45,1.45,0,0,1,25,38.3l.8-4.13a1.45,1.45,0,1,1,2.84.55l-.8,4.13A1.45,1.45,0,0,1,26.38,40Z"/><path class="cls-1" d="M32,40a1.45,1.45,0,0,1-1.42-1.17l-.8-4.13a1.45,1.45,0,1,1,2.84-.55l.8,4.13A1.46,1.46,0,0,1,32.32,40Z"/><path class="cls-1" d="M17.07,27.27a5.12,5.12,0,0,0-.23,1.62,5.17,5.17,0,0,0,10.33-.1h0A1.28,1.28,0,0,0,26,27.52a44.55,44.55,0,0,1-7.38-1.1A1.27,1.27,0,0,0,17.07,27.27Z"/><path class="cls-1" d="M14.49,39.43a1.25,1.25,0,0,1-1.25-1.25V29.73a1.25,1.25,0,1,1,2.49,0v8.45A1.25,1.25,0,0,1,14.49,39.43Z"/><path class="cls-1" d="M43.88,39.43a1.24,1.24,0,0,1-1.24-1.25V29.73a1.25,1.25,0,1,1,2.49,0v8.45A1.25,1.25,0,0,1,43.88,39.43Z"/></svg>