<svg id="Слой_1" data-name="Слой 1" xmlns="http://www.w3.org/2000/svg" viewBox="0 0 56.69 56.69"><defs><style>.cls-1{fill:#0fa4b9;}.cls-2{fill:#e6274a;}</style></defs><g id="Layer_2" data-name="Layer 2"><g id="Layer_1-2" data-name="Layer 1-2"><path class="cls-1" d="M41.81,32.15c.58,0,.6-.17.42-.64-1.08-2.62-2.14-5.25-3.2-7.87q-.9-2.17-1.79-4.37a6.85,6.85,0,0,1-.51-3.82,4.32,4.32,0,0,1,6.75-2.86,5.41,5.41,0,0,1,2.15,2.66q4.5,11.22,9,22.47a5.1,5.1,0,0,1-2.7,6.69A3.42,3.42,0,0,1,49,44.28a5,5,0,0,1-2.76-3c-.51-1.24-.22-1.09-1.64-1.09-3,0-5.88,0-8.82,0a.88.88,0,0,0-1,.65,8.57,8.57,0,0,1-1.1,2.28,4.11,4.11,0,0,1-6,.74,5.12,5.12,0,0,1-1.51-6.26q2.2-5.15,4.37-10.28c1-2.4,3.07-3.28,5.65-2.42a4.23,4.23,0,0,1,2.88,5.3,10.48,10.48,0,0,1-.42,1.23c-.26.66-.26.67.47.67Z"/><path class="cls-1" d="M16.31,25.46V34c0,1,0,1,1.05,1H19.6A4.48,4.48,0,0,1,24,37.88a4.8,4.8,0,0,1-.76,5.29,4.56,4.56,0,0,1-3.71,1.67c-2.36,0-4.72,0-7.07,0a4.82,4.82,0,0,1-5-4.82c0-7.7,0-15.43,0-23.13a4.93,4.93,0,0,1,1.66-4,4.35,4.35,0,0,1,7,2.67A6.1,6.1,0,0,1,16.31,17q0,4.25,0,8.49Z"/><path class="cls-2" d="M4.18,44.47a2.63,2.63,0,0,1,0-5.25,2.63,2.63,0,0,1,0,5.25Z"/></g></g></svg>