<svg id="Слой_1" data-name="Слой 1" xmlns="http://www.w3.org/2000/svg" viewBox="0 0 56.69 56.69"><defs><style>.cls-1{fill:#f7e822;}</style></defs><path class="cls-1" d="M37.89,54.84H20.37a1.87,1.87,0,0,1-1.84-1.55l-1-5.65H15.35A5.37,5.37,0,0,1,10,42.28v-.07a5.31,5.31,0,0,1,1.2-3.39A22,22,0,0,1,7,25.88v-.4A21.74,21.74,0,0,1,8.7,16.93,22,22,0,0,1,28.93,3.52h.4A21.95,21.95,0,0,1,44.86,10a21.84,21.84,0,0,1,6.43,15.53v.4a21.94,21.94,0,0,1-4.21,12.94,5.36,5.36,0,0,1,1.19,3.39v.07a5.36,5.36,0,0,1-5.36,5.36h-2.2l-1,5.65A1.87,1.87,0,0,1,37.89,54.84ZM22,51.1H36.32l1-5.64a1.87,1.87,0,0,1,1.84-1.55h3.78a1.63,1.63,0,0,0,1.63-1.63v-.07a1.64,1.64,0,0,0-.9-1.46,1.84,1.84,0,0,1-1-1.31,1.87,1.87,0,0,1,.42-1.59,18.2,18.2,0,0,0,4.49-12v-.4A18.21,18.21,0,0,0,29.33,7.26h-.4A18.2,18.2,0,0,0,10.71,25.48v.4a18.19,18.19,0,0,0,4.48,12,1.86,1.86,0,0,1-.57,2.9,1.64,1.64,0,0,0-.9,1.46v.07a1.64,1.64,0,0,0,1.63,1.63h3.78A1.87,1.87,0,0,1,21,45.46Z"/><circle class="cls-1" cx="36.34" cy="29.63" r="5.16"/><path class="cls-1" d="M26.3,40.86l-.28,0a1.45,1.45,0,0,1-1.14-1.7l.8-4.13a1.45,1.45,0,0,1,1.7-1.14,1.44,1.44,0,0,1,1.14,1.69l-.8,4.14A1.44,1.44,0,0,1,26.3,40.86Z"/><path class="cls-1" d="M32,40.86a1.45,1.45,0,0,1-1.42-1.17l-.8-4.14A1.45,1.45,0,0,1,32.58,35l.8,4.13a1.44,1.44,0,0,1-1.14,1.7A1.33,1.33,0,0,1,32,40.86Z"/><path class="cls-1" d="M17,28.11a5.08,5.08,0,0,0-.23,1.62,5.17,5.17,0,0,0,10.33-.1v0a1.28,1.28,0,0,0-1.2-1.26,44.55,44.55,0,0,1-7.38-1.1A1.29,1.29,0,0,0,17,28.11Z"/><path class="cls-1" d="M14.41,40.26A1.24,1.24,0,0,1,13.16,39V30.56a1.25,1.25,0,0,1,2.49,0V39A1.23,1.23,0,0,1,14.41,40.26Z"/><path class="cls-1" d="M43.8,40.26A1.23,1.23,0,0,1,42.56,39V30.56a1.25,1.25,0,0,1,2.49,0V39A1.24,1.24,0,0,1,43.8,40.26Z"/></svg>