<svg id="Слой_1" data-name="Слой 1" xmlns="http://www.w3.org/2000/svg" viewBox="0 0 56.69 56.69"><defs><style>.cls-1{fill:#010101;}</style></defs><path class="cls-1" d="M52.91,51.29H45.58V50.16h6.2V6.5h-6.2V5.37h7.33Zm-38.27,0H7.32V5.37h7.32V6.5H8.45V50.16h6.19Zm9-35.38H27v19c0,2.1.83,2.47,1.86,2.47.31,0,.58,0,.58,0v3a9.08,9.08,0,0,1-1.1.07c-1.89,0-4.68-.52-4.68-4.89V15.91Zm7.47,9.81H28.81V23h2.37V18h3.24v5h4.19v2.68H34.42v7.74c0,3.48,2.44,3.93,3.71,3.93a4,4,0,0,0,.79-.07v3a9,9,0,0,1-1.17.07c-2.23,0-6.67-.69-6.67-6.51V25.72Zm-9,12.8a1.69,1.69,0,1,1-1.69-1.69,1.68,1.68,0,0,1,1.69,1.69"/></svg>