<svg id="Слой_1" data-name="Слой 1" xmlns="http://www.w3.org/2000/svg" viewBox="0 0 56.69 56.69"><defs><style>.cls-1{fill:#f4e600;stroke:#010101;}.cls-1,.cls-12{stroke-linecap:round;stroke-linejoin:round;}.cls-2{fill:#fff;}.cls-3,.cls-4,.cls-5{fill:none;}.cls-12,.cls-3{stroke:#df2b1b;}.cls-3{stroke-width:0.99px;}.cls-4{stroke:#fff;stroke-width:29.39px;}.cls-5{stroke:#f08412;stroke-width:0.99px;}.cls-6{fill:#009539;stroke:#009539;stroke-width:0.98px;}.cls-10,.cls-12,.cls-6,.cls-7,.cls-8,.cls-9{fill-rule:evenodd;}.cls-7,.cls-8,.cls-9{fill:#66b32e;stroke:#66b32e;}.cls-7{stroke-width:0.49px;}.cls-8{stroke-miterlimit:5.97;stroke-width:0.74px;}.cls-9{stroke-miterlimit:5.97;stroke-width:0.74px;}.cls-10,.cls-12{fill:#df2b1b;}.cls-11{fill:#010101;}.cls-12{stroke-width:0.39px;}</style></defs><circle id="circle512" class="cls-1" cx="28.23" cy="29.15" r="26.68"/><circle id="circle514" class="cls-2" cx="28.23" cy="29.15" r="9.37"/><g id="g566"><path id="path516" class="cls-3" d="M44.26,43.82l-6.41-1.89"/><g id="g564"><path id="path518" class="cls-3" d="M18.9,49.13C14.66,48.05,9.35,41.19,9,39.78l38.1.09c-1.91,4.54-8,8.76-9.46,9.09"/><path id="path520" class="cls-3" d="M9.52,40.78H46.63"/><path id="path522" class="cls-3" d="M10.35,41.93H46"/><path id="path524" class="cls-3" d="M11.84,43.83H44.38"/><g id="g530"><path id="path526" class="cls-3" d="M16.46,48h23"/><path id="path528" class="cls-3" d="M16.17,47.79H39.86"/></g><g id="g536"><path id="path532" class="cls-3" d="M13.58,45.65h29"/><path id="path534" class="cls-3" d="M13.43,45.49H42.74"/></g><path id="path538" class="cls-3" d="M11.68,40.79l3-1"/><path id="path540" class="cls-3" d="M44.46,40.79l-3.12-1"/><path id="path542" class="cls-3" d="M11.94,43.78l6.33-1.84"/><path id="path544" class="cls-3" d="M39.32,40.78l3.77,1.16"/><path id="path546" class="cls-3" d="M15.39,45.58l3-1.72"/><path id="path548" class="cls-3" d="M40.85,45.58l-3.19-1.75"/><path id="path550" class="cls-3" d="M17.05,47.75l2.76-2.14"/><path id="path552" class="cls-3" d="M39.15,47.91l-2.8-2.27"/><path id="path554" class="cls-3" d="M30.23,40.81l-1.4-1"/><path id="path556" class="cls-3" d="M24.44,40.81l1.53-1"/><path id="path558" class="cls-3" d="M31.27,47.85l-.91-2.24"/><path id="path560" class="cls-3" d="M24.76,47.88l1-2.24"/><path id="path562" class="cls-3" d="M13.31,41.93l3.29-1.15"/></g></g><path id="path568" class="cls-4" d="M17.89,50.78a24,24,0,0,0,20.69,0"/><g id="g696"><g id="g576"><g id="use570"><path id="a" class="cls-5" d="M30.1,19.62l2-10.14"/></g><g id="use572"><path id="b" class="cls-5" d="M29.57,19.51l1-5.12"/></g><g id="use574"><path id="c" class="cls-5" d="M30.63,19.72l1-5.12"/></g></g><g id="g694"><g id="g592"><g id="g582"><g id="use578"><path id="d" class="cls-6" d="M27.94,8.42H26.53l1.14,10.89H28Z"/></g><g id="use580"><path id="e" class="cls-6" d="M28.51,8.42h1.41L28.78,19.31h-.29l0-10.88Z"/></g></g><g id="g590"><g id="use584"><path id="a-2" data-name="a" class="cls-5" d="M26.35,19.62l-2-10.14"/></g><g id="use586"><path id="b-2" data-name="b" class="cls-5" d="M26.88,19.51l-1-5.12"/></g><g id="use588"><path id="c-2" data-name="c" class="cls-5" d="M25.82,19.72l-1-5.12"/></g></g></g><g id="g642"><g id="g608"><g id="g598"><g id="use594"><path id="d-2" data-name="d" class="cls-6" d="M19.29,10.48,18,11.07l5.49,9.45.26-.12Z"/></g><g id="use596"><path id="e-2" data-name="e" class="cls-6" d="M19.81,10.25l1.29-.59,3.41,10.4-.26.11-4.44-9.92Z"/></g></g><g id="g606"><g id="use600"><path id="a-3" data-name="a" class="cls-5" d="M22.43,21.34l-5.95-8.41"/></g><g id="use602"><path id="b-3" data-name="b" class="cls-5" d="M22.86,21l-3-4.25"/></g><g id="use604"><path id="c-3" data-name="c" class="cls-5" d="M22,21.66l-3-4.25"/></g></g></g><g id="g624"><g id="g614"><g id="use610"><path id="d-3" data-name="d" class="cls-6" d="M12.46,15.77l-.93,1.08,8.92,6.27.18-.23Z"/></g><g id="use612"><path id="e-3" data-name="e" class="cls-6" d="M12.82,15.35l.93-1.08,7.43,8-.2.21-8.15-7.13Z"/></g></g><g id="g622"><g id="use616"><path id="a-4" data-name="a" class="cls-5" d="M19.82,24.31l-8.9-5.13"/></g><g id="use618"><path id="b-4" data-name="b" class="cls-5" d="M20.08,23.84l-4.49-2.59"/></g><g id="use620"><path id="c-4" data-name="c" class="cls-5" d="M19.55,24.79l-4.49-2.6"/></g></g></g><g id="g640"><g id="g630"><g id="use626"><path id="d-4" data-name="d" class="cls-6" d="M8.37,23.43,8,24.8l10.68,2.09.07-.27Z"/></g><g id="use628"><path id="e-4" data-name="e" class="cls-6" d="M8.53,22.89,9,21.53l10,4.3-.09.27L8.53,22.89Z"/></g></g><g id="g638"><g id="use632"><path id="a-5" data-name="a" class="cls-5" d="M18.52,28.25,8.33,27.18"/></g><g id="use634"><path id="b-5" data-name="b" class="cls-5" d="M18.58,27.71l-5.15-.54"/></g><g id="use636"><path id="c-5" data-name="c" class="cls-5" d="M18.47,28.79l-5.15-.54"/></g></g></g></g><g id="g692"><g id="g658"><g id="g648"><g id="use644"><path id="d-5" data-name="d" class="cls-6" d="M37.15,10.48l1.29.59L33,20.52l-.26-.12Z"/></g><g id="use646"><path id="e-5" data-name="e" class="cls-6" d="M36.64,10.25l-1.29-.59-3.41,10.4.26.11,4.44-9.92Z"/></g></g><g id="g656"><g id="use650"><path id="a-6" data-name="a" class="cls-5" d="M34,21.34,40,12.93"/></g><g id="use652"><path id="b-6" data-name="b" class="cls-5" d="M33.58,21l3-4.25"/></g><g id="use654"><path id="c-6" data-name="c" class="cls-5" d="M34.46,21.66l3-4.25"/></g></g></g><g id="g674"><g id="g664"><g id="use660"><path id="d-6" data-name="d" class="cls-6" d="M44,15.77l.93,1.08L36,23.12l-.18-.23Z"/></g><g id="use662"><path id="e-6" data-name="e" class="cls-6" d="M43.62,15.35l-.92-1.08-7.43,8,.2.21,8.15-7.13Z"/></g></g><g id="g672"><g id="use666"><path id="a-7" data-name="a" class="cls-5" d="M36.63,24.31l8.9-5.13"/></g><g id="use668"><path id="b-7" data-name="b" class="cls-5" d="M36.37,23.84l4.49-2.59"/></g><g id="use670"><path id="c-7" data-name="c" class="cls-5" d="M36.9,24.79l4.49-2.6"/></g></g></g><g id="g690"><g id="g680"><g id="use676"><path id="d-7" data-name="d" class="cls-6" d="M48.08,23.43l.41,1.37L37.82,26.89l-.07-.27Z"/></g><g id="use678"><path id="e-7" data-name="e" class="cls-6" d="M47.91,22.89l-.41-1.36-10,4.3.09.27,10.32-3.21Z"/></g></g><g id="g688"><g id="use682"><path id="a-8" data-name="a" class="cls-5" d="M37.92,28.25l10.2-1.07"/></g><g id="use684"><path id="b-8" data-name="b" class="cls-5" d="M37.87,27.71,43,27.17"/></g><g id="use686"><path id="c-8" data-name="c" class="cls-5" d="M38,28.79l5.15-.54"/></g></g></g></g></g></g><g id="g874"><g id="g784"><g id="g702"><g id="use698"><path id="f" class="cls-7" d="M17.8,50.18c.3-.35-.48-1.16-.85-1.44C16.78,49.19,17.22,50.32,17.8,50.18Z"/></g><g id="use700"><path id="g" class="cls-7" d="M17.34,50.68c-.16.43-1.25.14-1.67-.06C16,50.26,17.2,50.11,17.34,50.68Z"/></g></g><g id="g708"><g id="use704"><path id="f-2" data-name="f" class="cls-7" d="M16.38,49.32c.31-.36-.47-1.16-.84-1.44C15.37,48.33,15.81,49.46,16.38,49.32Z"/></g><g id="use706"><path id="g-2" data-name="g" class="cls-7" d="M15.93,49.82c-.16.43-1.25.14-1.67-.06C14.57,49.4,15.78,49.25,15.93,49.82Z"/></g></g><g id="g714"><g id="use710"><path id="f-3" data-name="f" class="cls-7" d="M14.73,48.34c.3-.35-.48-1.16-.85-1.44C13.71,47.35,14.15,48.48,14.73,48.34Z"/></g><g id="use712"><path id="g-3" data-name="g" class="cls-7" d="M14.28,48.84c-.17.43-1.26.14-1.68-.05C12.92,48.42,14.13,48.27,14.28,48.84Z"/></g></g><g id="g720"><g id="use716"><path id="f-4" data-name="f" class="cls-7" d="M13.27,47.52c.37-.29-.24-1.23-.54-1.58C12.47,46.35,12.68,47.55,13.27,47.52Z"/></g><g id="use718"><path id="g-4" data-name="g" class="cls-7" d="M12.73,47.92c-.25.39-1.26-.11-1.63-.38C11.48,47.25,12.69,47.34,12.73,47.92Z"/></g></g><g id="g726"><g id="use722"><path id="f-5" data-name="f" class="cls-7" d="M11.91,46.5c.39-.25-.11-1.25-.38-1.63C11.23,45.25,11.32,46.46,11.91,46.5Z"/></g><g id="use724"><path id="g-5" data-name="g" class="cls-7" d="M11.33,46.85c-.29.36-1.24-.24-1.58-.55C10.16,46.05,11.36,46.26,11.33,46.85Z"/></g></g><g id="g732"><g id="use728"><path id="f-6" data-name="f" class="cls-7" d="M10.69,45.29c.42-.21,0-1.26-.21-1.66C10.15,44,10.11,45.19,10.69,45.29Z"/></g><g id="use730"><path id="g-6" data-name="g" class="cls-7" d="M10.08,45.57c-.33.33-1.21-.36-1.52-.71C9,44.65,10.17,45,10.08,45.57Z"/></g></g><g id="g738"><g id="use734"><path id="f-7" data-name="f" class="cls-7" d="M9.56,43.86c.43-.17.1-1.25-.11-1.66C9.1,42.52,9,43.73,9.56,43.86Z"/></g><g id="use736"><path id="g-7" data-name="g" class="cls-7" d="M8.93,44.11c-.35.31-1.18-.44-1.47-.8C7.9,43.12,9.05,43.53,8.93,44.11Z"/></g></g><g id="g744"><g id="use740"><path id="f-8" data-name="f" class="cls-7" d="M8.62,42.38c.43-.18.1-1.25-.11-1.66C8.16,41,8,42.25,8.62,42.38Z"/></g><g id="use742"><path id="g-8" data-name="g" class="cls-7" d="M8,42.63c-.35.31-1.18-.45-1.47-.81C7,41.64,8.11,42.05,8,42.63Z"/></g></g><g id="g750"><g id="use746"><path id="f-9" data-name="f" class="cls-7" d="M7.53,41c.45-.1.31-1.21.18-1.66C7.3,39.61,7,40.79,7.53,41Z"/></g><g id="use748"><path id="g-9" data-name="g" class="cls-7" d="M6.87,41.15c-.4.25-1.09-.63-1.32-1C6,40,7.09,40.6,6.87,41.15Z"/></g></g><g id="g756"><g id="use752"><path id="f-10" data-name="f" class="cls-7" d="M6.75,39.57c.46-.07.4-1.19.3-1.64C6.63,38.16,6.22,39.31,6.75,39.57Z"/></g><g id="use754"><path id="g-10" data-name="g" class="cls-7" d="M6.08,39.66c-.41.22-1-.71-1.23-1.13C5.32,38.46,6.34,39.13,6.08,39.66Z"/></g></g><g id="g762"><g id="use758"><path id="f-11" data-name="f" class="cls-8" d="M6,38c.47,0,.46-1.17.38-1.62C6,36.6,5.49,37.72,6,38Z"/></g><g id="use760"><path id="g-11" data-name="g" class="cls-8" d="M5.33,38.07c-.42.2-1-.76-1.18-1.19C4.63,36.83,5.61,37.55,5.33,38.07Z"/></g></g><g id="g768"><g id="use764"><path id="f-12" data-name="f" class="cls-9" d="M5.46,36.47c.46,0,.6-1.11.58-1.57C5.59,35.06,5,36.11,5.46,36.47Z"/></g><g id="use766"><path id="g-12" data-name="g" class="cls-9" d="M4.78,36.44c-.44.14-.9-.89-1-1.33C4.25,35.12,5.13,36,4.78,36.44Z"/></g></g><g id="g774"><g id="use770"><path id="f-13" data-name="f" class="cls-9" d="M5.21,34.87c.47,0,.61-1.1.59-1.56C5.34,33.46,4.74,34.52,5.21,34.87Z"/></g><g id="use772"><path id="g-13" data-name="g" class="cls-9" d="M4.54,34.84c-.44.14-.9-.88-1-1.33C4,33.53,4.89,34.36,4.54,34.84Z"/></g></g><g id="g780"><g id="use776"><path id="f-14" data-name="f" class="cls-7" d="M5,33.33c.46.06.72-1,.75-1.49C5.23,31.94,4.52,32.92,5,33.33Z"/></g><g id="use778"><path id="g-14" data-name="g" class="cls-7" d="M4.28,33.22c-.45.1-.79-1-.86-1.43C3.9,31.86,4.68,32.79,4.28,33.22Z"/></g></g><g id="use782"><path id="h" class="cls-7" d="M4.65,32c-.45-.15-.26-1.1-.09-1.53C4.94,30.76,5.21,31.82,4.65,32Z"/></g></g><g id="g872"><g id="g790"><g id="use786"><path id="f-15" data-name="f" class="cls-7" d="M38.65,50.18c-.3-.35.48-1.16.85-1.44C39.67,49.19,39.23,50.32,38.65,50.18Z"/></g><g id="use788"><path id="g-15" data-name="g" class="cls-7" d="M39.1,50.68c.17.43,1.26.14,1.68-.06C40.46,50.26,39.25,50.11,39.1,50.68Z"/></g></g><g id="g796"><g id="use792"><path id="f-16" data-name="f" class="cls-7" d="M40.06,49.32c-.3-.36.48-1.16.85-1.44C41.08,48.33,40.64,49.46,40.06,49.32Z"/></g><g id="use794"><path id="g-16" data-name="g" class="cls-7" d="M40.52,49.82c.16.43,1.25.14,1.67-.06C41.88,49.4,40.67,49.25,40.52,49.82Z"/></g></g><g id="g802"><g id="use798"><path id="f-17" data-name="f" class="cls-7" d="M41.72,48.34c-.3-.35.48-1.16.85-1.44C42.74,47.35,42.3,48.48,41.72,48.34Z"/></g><g id="use800"><path id="g-17" data-name="g" class="cls-7" d="M42.17,48.84c.17.43,1.26.14,1.68-.05C43.53,48.42,42.32,48.27,42.17,48.84Z"/></g></g><g id="g808"><g id="use804"><path id="f-18" data-name="f" class="cls-7" d="M43.18,47.52c-.37-.29.24-1.23.54-1.58C44,46.35,43.77,47.55,43.18,47.52Z"/></g><g id="use806"><path id="g-18" data-name="g" class="cls-7" d="M43.72,47.92c.25.39,1.26-.11,1.63-.38C45,47.25,43.76,47.34,43.72,47.92Z"/></g></g><g id="g814"><g id="use810"><path id="f-19" data-name="f" class="cls-7" d="M44.54,46.5c-.39-.25.11-1.25.38-1.63C45.22,45.25,45.13,46.46,44.54,46.5Z"/></g><g id="use812"><path id="g-19" data-name="g" class="cls-7" d="M45.12,46.85c.29.36,1.24-.24,1.58-.55C46.29,46.05,45.09,46.26,45.12,46.85Z"/></g></g><g id="g820"><g id="use816"><path id="f-20" data-name="f" class="cls-7" d="M45.76,45.29c-.42-.21,0-1.26.2-1.66C46.3,44,46.34,45.19,45.76,45.29Z"/></g><g id="use818"><path id="g-20" data-name="g" class="cls-7" d="M46.37,45.57c.32.33,1.21-.36,1.51-.71C47.45,44.65,46.28,45,46.37,45.57Z"/></g></g><g id="g826"><g id="use822"><path id="f-21" data-name="f" class="cls-7" d="M46.89,43.86c-.43-.17-.1-1.25.1-1.66C47.35,42.52,47.47,43.73,46.89,43.86Z"/></g><g id="use824"><path id="g-21" data-name="g" class="cls-7" d="M47.52,44.11c.35.31,1.18-.44,1.47-.8C48.55,43.12,47.4,43.53,47.52,44.11Z"/></g></g><g id="g832"><g id="use828"><path id="f-22" data-name="f" class="cls-7" d="M47.83,42.38c-.43-.18-.1-1.25.11-1.66C48.29,41,48.41,42.25,47.83,42.38Z"/></g><g id="use830"><path id="g-22" data-name="g" class="cls-7" d="M48.46,42.63c.35.31,1.18-.45,1.47-.81C49.49,41.64,48.34,42.05,48.46,42.63Z"/></g></g><g id="g838"><g id="use834"><path id="f-23" data-name="f" class="cls-7" d="M48.92,41c-.45-.1-.31-1.21-.18-1.66C49.15,39.61,49.46,40.79,48.92,41Z"/></g><g id="use836"><path id="g-23" data-name="g" class="cls-7" d="M49.58,41.15c.4.25,1.09-.63,1.31-1C50.43,40,49.36,40.6,49.58,41.15Z"/></g></g><g id="g844"><g id="use840"><path id="f-24" data-name="f" class="cls-7" d="M49.7,39.57c-.46-.07-.4-1.19-.3-1.64C49.82,38.16,50.23,39.31,49.7,39.57Z"/></g><g id="use842"><path id="g-24" data-name="g" class="cls-7" d="M50.37,39.66c.41.22,1-.71,1.23-1.13C51.13,38.46,50.11,39.13,50.37,39.66Z"/></g></g><g id="g850"><g id="use846"><path id="f-25" data-name="f" class="cls-8" d="M50.45,38c-.47,0-.46-1.17-.38-1.62C50.5,36.6,51,37.72,50.45,38Z"/></g><g id="use848"><path id="g-25" data-name="g" class="cls-8" d="M51.12,38.07c.42.2,1-.76,1.18-1.19C51.82,36.83,50.84,37.55,51.12,38.07Z"/></g></g><g id="g856"><g id="use852"><path id="f-26" data-name="f" class="cls-9" d="M51,36.47c-.47,0-.6-1.11-.58-1.57C50.86,35.06,51.46,36.11,51,36.47Z"/></g><g id="use854"><path id="g-26" data-name="g" class="cls-9" d="M51.67,36.44c.44.14.89-.89,1-1.33C52.2,35.12,51.32,36,51.67,36.44Z"/></g></g><g id="g862"><g id="use858"><path id="f-27" data-name="f" class="cls-9" d="M51.23,34.87c-.46,0-.6-1.1-.58-1.56C51.11,33.46,51.71,34.52,51.23,34.87Z"/></g><g id="use860"><path id="g-27" data-name="g" class="cls-9" d="M51.91,34.84c.44.14.9-.88,1-1.33C52.44,33.53,51.56,34.36,51.91,34.84Z"/></g></g><g id="g868"><g id="use864"><path id="f-28" data-name="f" class="cls-7" d="M51.5,33.33c-.46.06-.72-1-.75-1.49C51.22,31.94,51.93,32.92,51.5,33.33Z"/></g><g id="use866"><path id="g-28" data-name="g" class="cls-7" d="M52.17,33.22c.45.1.79-1,.86-1.43C52.55,31.86,51.77,32.79,52.17,33.22Z"/></g></g><g id="use870"><path id="h-2" data-name="h" class="cls-7" d="M51.8,32c.45-.15.26-1.1.09-1.53C51.51,30.76,51.24,31.82,51.8,32Z"/></g></g></g><path id="path876" class="cls-10" d="M16.42,30.31C16.11,36.66,21,41.37,24.22,42V40.25c-3.83-1.31-6.53-4.54-7.8-9.94Zm23.61,0c-1.27,5.4-4,8.63-7.81,9.94V42c3.25-.65,8.12-5.36,7.81-11.71Zm-15.52,10v1.74a3.55,3.55,0,0,1,2.34,2,11,11,0,0,1,.7,2.57c0,.09,0,.15,0,.15s-.08-.08-.09-.12a10.62,10.62,0,0,0-1.25-3,4.46,4.46,0,0,0-.93-1.13.41.41,0,0,0-.41-.07,4.62,4.62,0,0,0,.4,1.51A8.35,8.35,0,0,0,26,45.13a4.66,4.66,0,0,1,.63,1.65c.14.66.13,1.53.26,2.24a1.35,1.35,0,0,0,2.68,0c.14-.71.13-1.58.27-2.24a4.47,4.47,0,0,1,.63-1.65A9.43,9.43,0,0,0,31.21,44a4.39,4.39,0,0,0,.4-1.51.41.41,0,0,0-.41.07,4.46,4.46,0,0,0-.93,1.13,10.93,10.93,0,0,0-1.25,3s0,.13-.09.12-.06-.06,0-.15a10.57,10.57,0,0,1,.71-2.57,3.52,3.52,0,0,1,2.34-2V40.31a10.25,10.25,0,0,1-3.72.63,10.16,10.16,0,0,1-3.71-.63Zm-1.19,1.93c-1.25,0-2.54.39-2.85,1.31a3.5,3.5,0,0,0,3.69-1.29,7.73,7.73,0,0,0-.84,0Zm9.24,0-.27,0A3.5,3.5,0,0,0,36,43.55c-.36-1.06-2-1.36-3.42-1.31Z"/><g id="g926"><path id="path878" class="cls-11" d="M5.42,23.3a.56.56,0,0,1,.23-.19A2,2,0,0,1,6.06,23l.83-.17-.1.39L6,23.36a1.06,1.06,0,0,0-.42.17.61.61,0,0,0-.18.32l-.1.4,1.13.3-.1.37L3.66,24.2l.22-.82a1.1,1.1,0,0,1,.37-.65.76.76,0,0,1,.64-.07.69.69,0,0,1,.39.23A.62.62,0,0,1,5.42,23.3Zm-1.36.62,1,.25.12-.46a.61.61,0,0,0,0-.43.44.44,0,0,0-.32-.23.43.43,0,0,0-.39,0,.59.59,0,0,0-.22.36Z"/><path id="path880" class="cls-11" d="M4.49,21.26l.62-1.66.3.11L4.92,21l.77.29.46-1.25.3.11L6,21.42l.94.36.5-1.33.29.11-.63,1.69Z"/><path id="path882" class="cls-11" d="M6,18.37l.93.48.21-.42A.63.63,0,0,0,7.2,18a.51.51,0,0,0-.28-.3.47.47,0,0,0-.41-.05.56.56,0,0,0-.31.3Zm-.44.2.38-.76a1,1,0,0,1,.51-.54.79.79,0,0,1,.66.07.79.79,0,0,1,.44.5,1.07,1.07,0,0,1-.13.73L7.19,19l1,.51L8,19.85Z"/><path id="path884" class="cls-11" d="M7.73,15.22a.81.81,0,0,0-.1.72,1.29,1.29,0,0,0,.56.66,1.28,1.28,0,0,0,.82.26.77.77,0,0,0,.61-.38.76.76,0,0,0,.1-.71,1.24,1.24,0,0,0-.56-.66,1.21,1.21,0,0,0-.82-.26A.76.76,0,0,0,7.73,15.22Zm-.25-.17a1.22,1.22,0,0,1,.84-.57,1.51,1.51,0,0,1,1.06.29,1.51,1.51,0,0,1,.68.88,1.21,1.21,0,0,1-.18,1,1.25,1.25,0,0,1-.84.58A1.54,1.54,0,0,1,8,16.94a1.55,1.55,0,0,1-.68-.88A1.2,1.2,0,0,1,7.48,15.05Z"/><path id="path886" class="cls-11" d="M10.14,14l.76.67.4-.46a.67.67,0,0,0,.2-.42.5.5,0,0,0-.2-.37.48.48,0,0,0-.38-.14.64.64,0,0,0-.39.26Zm-.86-.76.63.56.36-.43a.68.68,0,0,0,.19-.38.36.36,0,0,0-.15-.31.34.34,0,0,0-.32-.1.65.65,0,0,0-.35.24Zm-.48.09.63-.74a1.06,1.06,0,0,1,.56-.38.6.6,0,0,1,.54.16.67.67,0,0,1,.23.35.57.57,0,0,1-.09.39.78.78,0,0,1,.47-.16.71.71,0,0,1,.45.2.68.68,0,0,1,.27.57,1.11,1.11,0,0,1-.32.68l-.65.76Z"/><path id="path888" class="cls-11" d="M10.7,11.17l.28-.26,1.67,1.82,1-.93.21.24-1.26,1.18Z"/><path id="path890" class="cls-11" d="M12.43,9.62l.29-.23,1.74,2.18-.29.24Z"/><path id="path892" class="cls-11" d="M13.45,8.8l.31-.21.65,1,.39-1.69.4-.27-.43,1.86,2.05.42-.41.27L14.56,9.8l.74,1.12-.31.21Z"/><path id="path894" class="cls-11" d="M16.86,7.16,17,8.63l.91-.47Zm-.36-.24.38-.19,2.2,2-.35.17-.54-.52L17.07,9l.1.75-.35.18Z"/><path id="path896" class="cls-11" d="M18.45,6l.47-.18,1.95,1.78-.79-2.2.34-.13.95,2.63-.47.18L19,6.28l.8,2.2-.35.13Z"/><path id="path898" class="cls-11" d="M22.7,4.65l.23,1-.3.07-.23-1Z"/><path id="path900" class="cls-11" d="M23.22,4.55l.36-.08.53,2.75-.37.08Z"/><path id="path902" class="cls-11" d="M29.2,4l.56,0,.54,2,.87-1.84.56,0L31.49,7l-.36,0,.2-2.45-.87,1.85-.37,0-.55-2-.21,2.45-.36,0Z"/><path id="path904" class="cls-11" d="M33.55,5l-.79,1.25,1,.23Zm-.12-.41.41.1.43,3-.38-.08-.09-.76-1.22-.27-.4.64-.39-.08Z"/><path id="path906" class="cls-11" d="M35.76,5.52l-.71,2.06.43.15a1.13,1.13,0,0,0,.88,0,1.13,1.13,0,0,0,.52-.7,1.14,1.14,0,0,0,0-.87,1.2,1.2,0,0,0-.71-.52ZM35.5,5.1l.73.26a1.72,1.72,0,0,1,1,.71,1.35,1.35,0,0,1,0,1.12,1.32,1.32,0,0,1-.7.88A1.74,1.74,0,0,1,35.33,8l-.73-.26Z"/><path id="path908" class="cls-11" d="M39.05,6.94,38,8l.92.45Zm0-.43.39.19-.27,3-.35-.17.08-.76L37.75,8.2l-.54.53-.35-.17Z"/><path id="path910" class="cls-11" d="M41.24,10.57l.4-.63-.51-.34.17-.26.82.54-.65,1a2,2,0,0,1-.53-.07,2,2,0,0,1-.51-.24,1.39,1.39,0,0,1-.64-.89,1.45,1.45,0,0,1,.27-1.09A1.45,1.45,0,0,1,41,7.9a1.31,1.31,0,0,1,1,.24,1.94,1.94,0,0,1,.4.34,1.88,1.88,0,0,1,.27.42l-.22.34a1.7,1.7,0,0,0-.22-.47,1.38,1.38,0,0,0-.37-.35.93.93,0,0,0-.79-.18,1.26,1.26,0,0,0-.68.58,1.31,1.31,0,0,0-.25.85,1,1,0,0,0,.49.66,1.38,1.38,0,0,0,.31.17,1.09,1.09,0,0,0,.3.07Z"/><path id="path912" class="cls-11" d="M44.13,10.28,42.86,11l.78.66Zm.07-.43.33.28-1,2.84-.3-.26.25-.71-1-.81-.65.39-.3-.25Z"/><path id="path914" class="cls-11" d="M46.9,12.55l-.27.26a1.85,1.85,0,0,0-.17-.4,1.14,1.14,0,0,0-.21-.3.86.86,0,0,0-.41-.27.4.4,0,0,0-.36.12.36.36,0,0,0-.13.27,1,1,0,0,0,.18.41l.13.2a1.17,1.17,0,0,1,.22.65.72.72,0,0,1-.25.52.69.69,0,0,1-.63.23,1.32,1.32,0,0,1-.7-.43,2.3,2.3,0,0,1-.25-.34,2.78,2.78,0,0,1-.22-.42l.27-.27a2.75,2.75,0,0,0,.17.46,2.31,2.31,0,0,0,.25.36.92.92,0,0,0,.44.27.4.4,0,0,0,.38-.12.43.43,0,0,0,.14-.32.82.82,0,0,0-.16-.42l-.12-.2a1.16,1.16,0,0,1-.23-.62.65.65,0,0,1,.23-.49.68.68,0,0,1,.59-.21,1.12,1.12,0,0,1,.65.37,2.72,2.72,0,0,1,.25.32c.07.11.14.24.21.37Z"/><path id="path916" class="cls-11" d="M47.67,13.33l.24.29-2.15,1.77-.24-.3Z"/><path id="path918" class="cls-11" d="M48.47,14.34l.22.31-1,.68,1.67.36.27.4-1.84-.4-.38,2.08-.28-.41.34-1.88-1.1.77-.21-.31Z"/><path id="path920" class="cls-11" d="M50.16,17.74l-1.45.2.48.91Zm.23-.37.2.38L48.65,20l-.19-.35.51-.56L48.38,18l-.75.12-.18-.35Z"/><path id="path922" class="cls-11" d="M50.46,21.11a.58.58,0,0,1-.08.29,2,2,0,0,1-.25.35l-.57.64L49.41,22l.54-.6a1,1,0,0,0,.24-.39.59.59,0,0,0,0-.36L50,20.28l-1.09.43-.14-.35,2.58-1,.31.8a1.1,1.1,0,0,1,.07.74.74.74,0,0,1-.47.44.8.8,0,0,1-.45.05A.7.7,0,0,1,50.46,21.11Zm.74-1.31-.92.36.18.45a.53.53,0,0,0,.26.33.46.46,0,0,0,.4,0,.49.49,0,0,0,.29-.27.61.61,0,0,0,0-.43Z"/><path id="path924" class="cls-11" d="M52.27,23.27l-1.46-.16.25,1Zm.3-.3.11.42-2.43,1.72-.09-.38.62-.43-.3-1.22L49.73,23l-.1-.39Z"/></g><g id="g996"><path id="path994" class="cls-12" d="M27.87,37h-.14a.5.5,0,0,0-.16,0,.79.79,0,0,0-.22.07,1.49,1.49,0,0,0-.25.13,1.17,1.17,0,0,0-.19.14l-.09.08h-.06s-.05,0-.07,0a.27.27,0,0,1-.09,0l-.13,0a.28.28,0,0,0-.13,0s-.07,0-.08,0,0,0,0,0,0,0,0-.05l-.06,0a.24.24,0,0,1-.11-.06L26,37.22a.24.24,0,0,0-.11-.06l-.13,0h-.28l-.08,0s0,0,0,0v0s0,0,0,0l-.06,0-.05,0,0,0h-.07l-.05,0a.22.22,0,0,1,0-.08.13.13,0,0,1,0-.06.13.13,0,0,0,0-.06l-.06-.08,0-.07a.2.2,0,0,1,0-.07s0,0,0,0v0a.13.13,0,0,0,0-.07l-.08-.1-.11-.1a.22.22,0,0,1-.09-.07.44.44,0,0,1,0-.13v-.15a.71.71,0,0,1,0-.14v-.13a.49.49,0,0,0,0-.12l0-.07s0,0,0-.05a.27.27,0,0,0,0-.09.22.22,0,0,1,0-.09.05.05,0,0,1,.05,0s0,0,0,0,0,0,0,0,0,0,0,0a0,0,0,0,0,0,0s0,0-.06-.06l-.08-.06a.11.11,0,0,1,0-.08.45.45,0,0,1,0-.11.22.22,0,0,0,0-.09s0,0,0,0l-.07-.08-.09-.08a.3.3,0,0,1-.07-.1.3.3,0,0,1,0-.08.19.19,0,0,1,0-.08.43.43,0,0,1,0,0,.19.19,0,0,0,0-.07l0-.08a.22.22,0,0,1,0-.08l0-.07s0,0,0-.06a.59.59,0,0,1,0-.08.14.14,0,0,1,0-.09.05.05,0,0,1,0,0h0a.08.08,0,0,0,0-.07l0,0s0,0-.05,0a.34.34,0,0,1,0-.11s0,0,0-.07v-.1s0,0,0,0h0l0,0a0,0,0,0,0,0,0s0,0,0-.06v0s0,0,0-.06l0-.07s0,0,.05,0l0,0s0,0,0-.09v-.21c0-.05,0-.08,0-.1a.27.27,0,0,1,.1-.08.13.13,0,0,1,.08,0h.05s0,0,.05,0l0,0a.22.22,0,0,0,.05-.08s0-.09,0-.15,0-.13,0-.19a.59.59,0,0,1,.05-.13.14.14,0,0,1,.08-.05s0,0,.05,0a.21.21,0,0,0,0-.12.36.36,0,0,1,0-.11s0,0,.05-.06l0,0,.05,0a.08.08,0,0,0,0,0s0-.06,0-.08a.36.36,0,0,1,0-.09l.06-.11.06-.1a.86.86,0,0,1,.07-.1l0-.06a.06.06,0,0,0,0,0,.17.17,0,0,0,0-.05.06.06,0,0,0,0,0s0,0-.05,0,0,0,0-.06a1,1,0,0,1,0-.15c0-.05,0-.09,0-.11s0,0,0,0,0,0,0,0,0,0,0-.06,0,0,0-.06-.05-.06-.08-.11a.86.86,0,0,1-.1-.16.56.56,0,0,1-.07-.13.61.61,0,0,1,0-.11.38.38,0,0,1,0-.1.38.38,0,0,0,0-.1s0-.06,0-.12a1.2,1.2,0,0,0-.09-.21,1.59,1.59,0,0,1-.11-.16.15.15,0,0,1,0-.1.49.49,0,0,0,0-.17.51.51,0,0,0,0-.1.45.45,0,0,1,0-.12.24.24,0,0,1,0-.12.24.24,0,0,1,0-.09s0-.05,0-.08,0,0,0-.07a.24.24,0,0,0-.06-.08.35.35,0,0,1,0-.08.45.45,0,0,1,0-.11.61.61,0,0,1,0-.13.47.47,0,0,1,.05-.1l.07-.08a.41.41,0,0,0,0-.09.94.94,0,0,1,0-.09l.05-.06.06-.09a.47.47,0,0,0,.06-.09.32.32,0,0,1,0-.09.22.22,0,0,1,.05-.08l.05-.06a.08.08,0,0,0,0,0,.13.13,0,0,0,0-.06.41.41,0,0,1,0-.08s0,0,0,0l.05-.05s0,0,0-.06a.22.22,0,0,1-.05-.08.18.18,0,0,1,0-.11.34.34,0,0,1,.06-.15s0,0,.07,0h.08l.12,0,.12,0,.06,0,.12,0,.12-.11.09-.1a.67.67,0,0,1,.11-.07s0,0,.05,0,0,0,0,0a.21.21,0,0,1,0,.08.33.33,0,0,0,0,.1s0,0,.05,0l.06-.05s0,0,0,0a.05.05,0,0,1,0,0s0,0,0,0h.19a0,0,0,0,1,0,0s0,.05,0,.07,0,0,0,0l0,0,0,0a.56.56,0,0,0,0-.07.15.15,0,0,0,0-.07s0,0,0,0a.11.11,0,0,1,0-.06l.06,0,.06,0h.07l.09,0s.05,0,.06,0a.25.25,0,0,1,0,.09s0,0,0,0a.17.17,0,0,0,.1,0s0,0,0,0l-.05,0,0,0,.05-.06.05,0,.06,0h.07a.15.15,0,0,1,.06.05.08.08,0,0,1,0,.07l0,0,0,0,0,.06s0,.05,0,.06,0,0,0,0l.05,0,.06,0s0,0,0,0l-.05,0a.15.15,0,0,1-.06,0s0,0,0,0,0,0,0,0,0,0,0,0,0,0,0,0a.06.06,0,0,1,0,0l.06-.07.13-.11.05,0,.08-.06.13-.12.11-.1a.56.56,0,0,1,.13-.07s.06,0,.06,0a.13.13,0,0,1,0,.06.05.05,0,0,0,0,.05l.07,0s0,0,0,0,0,0,0,.05-.06,0-.07.08,0,.05,0,.05a.11.11,0,0,0,.09,0l.07,0h.06l0,0s0,0,0-.06l0,0s0-.05,0-.07,0,0-.06,0a.08.08,0,0,1,0,0,.19.19,0,0,1,0-.07.13.13,0,0,1,.05-.06.34.34,0,0,0,.09-.08.63.63,0,0,0,0-.09.24.24,0,0,1,.08-.06l.08,0s0,0,0-.05h-.06s0,0,0,0a.16.16,0,0,1,.05-.1.18.18,0,0,1,.12-.08.07.07,0,0,1,.08,0,.12.12,0,0,1,0,.08s0,0,0,.05,0,0,0,0l-.07.07a.49.49,0,0,0,0,.11s0,.07,0,.08,0,0,.05,0,0,0,0-.07l.07-.05.05-.1a1,1,0,0,1,0-.1.53.53,0,0,1,.06-.1.1.1,0,0,1,.05-.06.09.09,0,0,1,.06,0s0,0,.05,0,0,0,0,0l0,0s0,0,0,0,0,0,0,0a.08.08,0,0,1,0-.05s0,0,0,0,0,.06.05.06,0,0,0-.05a.16.16,0,0,0,0-.1s-.05,0-.08,0h-.11s0,0-.05,0,0,0-.05,0,0,0,0,0a.45.45,0,0,0,0-.11.92.92,0,0,1,0-.09s0,0,0,0l.05-.06s0-.05,0-.07h.05s0,0,.06,0,.05,0,.07,0a.06.06,0,0,0,0-.06s0,0,0-.06,0,0,0,0a.09.09,0,0,1,.06.07.18.18,0,0,1,0,.1.45.45,0,0,0,0,.08s0,0,0,0a.08.08,0,0,0,0-.08V23.5a.87.87,0,0,0,0-.1.06.06,0,0,0-.05,0,.18.18,0,0,1-.07-.05s0,0,0-.06-.05-.06-.07-.09l-.06-.07a.12.12,0,0,1,0-.08.06.06,0,0,1,0-.05s0,0,0,0,0,0,0-.06a0,0,0,0,1,0-.05l0,0s0,0,0,0,0-.06,0-.09,0,0,.06,0,0,.07,0,.09,0,0,0,0a.11.11,0,0,1,0-.05s0,0,0,0l0,.05,0,0a.1.1,0,0,1,0,.07.24.24,0,0,0,0,.13.15.15,0,0,0,.11.07s0,0,0-.05v-.13a.46.46,0,0,1,0-.09s0,0,0-.05l.08,0h.09s0,0,0,0,0,0-.05-.07a.15.15,0,0,1,0-.1s0,0,.05,0,0,0,0,.06l.08,0h.09l.06,0a.05.05,0,0,0,0-.05s0,0,0-.06,0,0,0-.05,0,0,0,0,0,0,0-.06a.11.11,0,0,1,0-.08.64.64,0,0,1,.06-.1,1.4,1.4,0,0,0,.09-.17s0-.07,0-.09a.12.12,0,0,0-.05-.05s0,0,0,0v-.07s0,0,0,0,0,0,0-.06a.07.07,0,0,0,0-.05h0s0,0,0-.05l-.07-.05s0-.06,0-.09a.06.06,0,0,1,.06,0l.09,0s0,0,.05.06a0,0,0,0,0,0,0s0,0,0-.06,0-.05,0-.08l0-.06.07,0h0l0,0,0,0s0,0,0-.06,0,0,0,0l-.07,0s0,0,0,0a.08.08,0,0,1,0-.06s.05,0,.07,0l0,0a.56.56,0,0,1,0-.07.11.11,0,0,1,0-.07.09.09,0,0,1,.06,0,.09.09,0,0,1,.06.06s0,.06,0,.08l0,.06s0,.06,0,.08,0,0,0,0a.11.11,0,0,0-.08,0s0,0,0,0,0,0,0,0a.07.07,0,0,1,0,.05s0,0,0,0l.05-.05a0,0,0,0,1,.05,0,.1.1,0,0,1,0,.05s0,.05,0,.06h.06a.2.2,0,0,1,.09,0,.22.22,0,0,1,.05.08.08.08,0,0,1,0,.08.24.24,0,0,0-.06.08.13.13,0,0,0,0,.09.1.1,0,0,0,.07,0,.07.07,0,0,1,0,.05.28.28,0,0,1,0,.08s0,0,0,0l.07,0s0,0,0,0a.07.07,0,0,0,0,.05s.05,0,.06.05,0,0,0,.06l.05.06a.13.13,0,0,1,0,.07s0,.06,0,.1a.45.45,0,0,0,0,.11l.06.1a.37.37,0,0,1,.07.12.13.13,0,0,1,0,.09.15.15,0,0,0,0,.07.21.21,0,0,0,0,.07.09.09,0,0,1,0,.05s0,.05,0,.07a.56.56,0,0,1,0,.08.22.22,0,0,1,0,.1v.43c0,.05,0,.06,0,.07l0,.05s0,.05,0,.07a.43.43,0,0,1,0,.05.08.08,0,0,0,0,.06.56.56,0,0,0,0,.13.34.34,0,0,0,0,.08l0,.06s0,0,0,.07a.57.57,0,0,0,0,.13.62.62,0,0,0,0,.1l0,0s0,0,0,.05a.36.36,0,0,0,0,.07.18.18,0,0,0,.07.08s0,0,.06.07a.41.41,0,0,1,0,.11.28.28,0,0,1,0,.09V25a1.3,1.3,0,0,0,0,.13.69.69,0,0,1-.07.15.47.47,0,0,0-.06.09.38.38,0,0,0,0,.1.13.13,0,0,1,0,.06s0,0,0,0l-.06.08a.09.09,0,0,1,0,.06,0,0,0,0,1,0,0s0,0,0,0a.24.24,0,0,0-.08-.06l-.06,0a.07.07,0,0,1,0-.06.15.15,0,0,0,0-.07l0,0s0,0,0-.05,0,0,0-.05l0,0a0,0,0,0,0,0,0l0,0s0,0,0-.06v-.1s0,0-.06,0l-.11,0-.08.06a.11.11,0,0,0,0,.07s0,0,0,.06a.11.11,0,0,1,0,.06.25.25,0,0,0,0,.07,1,1,0,0,0,0,.1.22.22,0,0,1,0,.08.13.13,0,0,1,0,.06.08.08,0,0,1,0,.05s0,0,0,0a0,0,0,0,0,0,.05l0,0s0,0,0,.06l.05,0,.08.06s0,0,0,.06l0,0a.28.28,0,0,0,0,.09.08.08,0,0,0,0,.06.05.05,0,0,1,0,0,.45.45,0,0,1,0,.11l0,.07,0,.06a.11.11,0,0,0,0,.05s0,0,0,0l-.06,0a.06.06,0,0,0,0,.07.17.17,0,0,0,.08.06s0,0,0,0l-.08,0-.1,0a.09.09,0,0,0-.06,0,.24.24,0,0,0-.08.09.2.2,0,0,0,0,.09.47.47,0,0,1,0,.09l-.06.12a.56.56,0,0,0,0,.12.2.2,0,0,0,0,.11s0,.05,0,.08,0,0,0,.06a.28.28,0,0,0,0,.09l0,.07a.45.45,0,0,1,0,.13c0,.07-.06.17-.08.23s0,.09,0,.12,0,.06,0,.08a.07.07,0,0,1,0,.06l0,.06a.17.17,0,0,0,0,.1v.09a.09.09,0,0,1,0,.05s0,.06-.06.1l-.07.13a1.09,1.09,0,0,0-.05.17c0,.06,0,.1-.05.15a.59.59,0,0,1-.06.16s-.05.06-.06.09a.2.2,0,0,0,0,.11.36.36,0,0,0,0,.11s0,.08,0,.12a.52.52,0,0,1-.07.12,1.08,1.08,0,0,0-.08.19l-.05.16,0,.18a.53.53,0,0,1,0,.13.56.56,0,0,1-.07.13,1,1,0,0,0-.08.15c0,.05,0,.12-.07.19s-.05.17-.08.26a1.58,1.58,0,0,0-.06.23,1.05,1.05,0,0,0,0,.13l0,.05s0,0,0,0,0,0,0,0a.58.58,0,0,1,0,.1l0,.12a1.21,1.21,0,0,0-.05.14s0,.08,0,.13l-.1.26-.16.45c-.05.12-.08.16-.09.2s0,.09,0,.14a1,1,0,0,1-.05.16l-.06.15s0,.08,0,.13,0,.11,0,.17a.88.88,0,0,1,0,.17.5.5,0,0,1-.05.13.43.43,0,0,0,0,.14c0,.05,0,.09,0,.14l-.07.15s0,.11-.07.15a.76.76,0,0,0,0,.16,1.86,1.86,0,0,1-.05.28,1.46,1.46,0,0,1-.11.3,1.47,1.47,0,0,0-.09.15.8.8,0,0,0,0,.15s-.05.08-.08.14a1.52,1.52,0,0,0-.06.2c0,.07,0,.12-.06.17s0,.07,0,.08,0,0,0,.05,0,0,0,.07a.35.35,0,0,1-.05.08s0,0,0,.07l-.05,0-.05,0s0,0,0,0a.08.08,0,0,0-.08,0,.37.37,0,0,1-.11.1.55.55,0,0,1-.22,0Zm4-10.12c0,.05-.06.13-.09.17s-.06.07-.09.07-.05,0,0-.05.06-.13.09-.21.06-.15.08-.19,0-.05.05,0a.23.23,0,0,1,0,.11A.3.3,0,0,1,31.84,26.83Zm-1.61-5-.08.05s0,.06,0,.08a.08.08,0,0,0,.05.07,0,0,0,0,0,.06,0,.07.07,0,0,0,0-.06.13.13,0,0,1,0-.06s0,0,0,0Zm-.42.76a.14.14,0,0,1-.08-.05.14.14,0,0,1,0-.06.16.16,0,0,1,0-.06h0s0,0,0,0a.05.05,0,0,1,0,0,.11.11,0,0,1,.08,0,.05.05,0,0,1,0,.05s0,0,0,.05l0,0v0s0,0,0,0l0,0Zm.1,0a.06.06,0,0,0-.06,0,0,0,0,0,0,0,.06.06.06,0,0,0,.06,0s0,0,0-.05,0-.05,0-.05Zm-.7.62a0,0,0,0,0,0,0s0,.05,0,.07,0,0,0,.06l0,0a.11.11,0,0,0,0-.05.22.22,0,0,0,0-.08l0-.05S29.22,23.19,29.21,23.2Zm-.24.65a.11.11,0,0,0,0,.08A.08.08,0,0,0,29,24a.09.09,0,0,0,.1,0,.09.09,0,0,0,0-.09.17.17,0,0,0-.06-.06,0,0,0,0,0-.05,0Zm-4.23,2.26a.06.06,0,0,0-.06.05s0,.05.06.06a.07.07,0,0,0,.08,0,0,0,0,0,0,0-.07A.07.07,0,0,0,24.74,26.11Zm0,2.73a.05.05,0,0,0-.06,0,.11.11,0,0,0,0,.08.08.08,0,0,0,.07,0,.09.09,0,0,0,.07-.06.11.11,0,0,0,0-.08A.12.12,0,0,0,24.75,28.84Zm-.18-.11a.07.07,0,0,0-.05,0,.07.07,0,0,0,0,.06.08.08,0,0,0,.08,0,0,0,0,0,0,0-.06.05.05,0,0,0,0-.05A.06.06,0,0,0,24.57,28.73Zm.19-.12s-.07,0-.07.05a.07.07,0,0,0,0,.08.06.06,0,0,0,.08,0,.08.08,0,0,0,0-.08A.07.07,0,0,0,24.76,28.61Z"/></g><g id="text5337"><path id="path5372" class="cls-11" d="M20.79,50.83l.47.15,0,.09L20.87,51l-.08.24.33.11,0,.09-.33-.11-.13.39-.11,0Z"/><path id="path5374" class="cls-11" d="M21.42,51l.11,0-.25.83-.11,0Z"/><path id="path5376" class="cls-11" d="M21.62,51.09l.7.19,0,.1L22,51.3l-.2.73-.12,0,.21-.73-.3-.08Z"/><path id="path5378" class="cls-11" d="M22.41,51.3l.11,0-.2.84-.12,0Z"/><path id="path5380" class="cls-11" d="M23,51.56l-.25.38.31.07Zm0-.13.13,0,.13.91-.12,0,0-.24L22.68,52l-.12.2-.12,0Z"/><path id="path5382" class="cls-11" d="M23.48,52.42l-.17-.91.12,0,.14.76.4-.66.12,0-.48.79Z"/><path id="path5384" class="cls-11" d="M24.38,51.82l-.22.4.31.05Zm-.05-.12.13,0,.19.9-.12,0,0-.23-.38-.06-.12.21-.12,0Z"/><path id="path5386" class="cls-11" d="M24.88,51.78l.16,0,.29.77.09-.72h.11l-.1.86-.16,0L25,51.94l-.09.71h-.11Z"/><path id="path5388" class="cls-11" d="M26,52l-.2.42.32,0ZM26,51.9l.14,0,.25.88h-.12l-.06-.22-.39,0-.1.21h-.12Z"/><path id="path5390" class="cls-11" d="M26.76,52l.72,0v.09h-.31l0,.76H27l0-.76-.31,0Z"/><path id="path5392" class="cls-11" d="M27.77,52.11l-.17.43h.32ZM27.7,52h.13l.32.86H28L28,52.64h-.38l-.09.22h-.12Z"/><path id="path5394" class="cls-11" d="M28.26,52h.16l.39.71V52h.11l0,.86h-.16l-.4-.71,0,.72h-.11Z"/><path id="path5396" class="cls-11" d="M29.12,52h.12l0,.86h-.12Z"/><path id="path5398" class="cls-11" d="M29.45,52h.15l.44.69L30,51.92h.12l.06.86-.16,0-.43-.7.05.72h-.11Z"/><path id="path5400" class="cls-11" d="M30.42,52l.08.66h.14a.35.35,0,0,0,.25-.11.31.31,0,0,0,.05-.26.35.35,0,0,0-.11-.25.42.42,0,0,0-.27,0Zm-.12-.08.24,0a.52.52,0,0,1,.37.06.39.39,0,0,1,.15.31.41.41,0,0,1-.08.34.52.52,0,0,1-.35.15l-.24,0Z"/><path id="path5402" class="cls-11" d="M31.64,52.19s.05,0,.08,0a.45.45,0,0,1,.09.1l.15.22-.12,0-.14-.21-.1-.1a.23.23,0,0,0-.12,0l-.12,0,.05.36-.11,0-.13-.86.26,0a.33.33,0,0,1,.23,0,.27.27,0,0,1,.1.18.22.22,0,0,1,0,.14.18.18,0,0,1-.1.09Zm-.34-.32.05.3.14,0a.14.14,0,0,0,.12,0,.16.16,0,0,0,0-.12.17.17,0,0,0-.06-.11.18.18,0,0,0-.13,0Z"/><path id="path5404" class="cls-11" d="M32.21,51.74l-.08.45.31,0Zm-.08-.1.13,0,.47.79-.12,0-.11-.2-.38.07,0,.23-.12,0Z"/><path id="path5406" class="cls-11" d="M32.63,51.55l.66-.14,0,.08-.39.78.54-.12,0,.1-.68.15,0-.09.39-.78-.52.12Z"/><path id="path5408" class="cls-11" d="M33.74,51.41l0,.46.3-.08Zm-.09-.09.13,0,.53.75-.12,0-.13-.19-.37.09,0,.23-.12,0Z"/><path id="path5410" class="cls-11" d="M34.19,51.18l.15,0,.57.58-.2-.69.11,0,.24.82-.15,0-.57-.59.2.7-.11,0Z"/><path id="path5412" class="cls-11" d="M35.32,51l0,.45.3-.1Zm-.1-.09.13,0,.58.71-.12,0-.14-.19-.37.13v.23l-.12,0Z"/></g><g id="text5337-3"><path id="path5415" class="cls-11" d="M24.07,53l.47.08,0,.1-.36-.07,0,.24.33.06,0,.09-.32-.05-.07.39-.11,0Z"/><path id="path5417" class="cls-11" d="M24.85,53.27l-.21.39.3,0Zm-.05-.12.13,0,.19.87L25,54,25,53.8l-.37-.06-.1.2h-.12Z"/><path id="path5419" class="cls-11" d="M25.33,53.22l.15,0,.29.73.08-.69H26l-.09.83-.15,0-.3-.73-.07.69h-.11Z"/><path id="path5421" class="cls-11" d="M26.25,53.41l0,.64h.14A.31.31,0,0,0,26.6,54a.34.34,0,0,0,.1-.24.31.31,0,0,0-.07-.25.32.32,0,0,0-.24-.1Zm-.1-.1h.23a.51.51,0,0,1,.35.13.39.39,0,0,1,.09.32.39.39,0,0,1-.14.3.49.49,0,0,1-.36.08l-.23,0Z"/><path id="path5423" class="cls-11" d="M27.37,53.81a.13.13,0,0,1,.07.06.52.52,0,0,1,.07.11l.1.23h-.12l-.1-.22a.26.26,0,0,0-.07-.11.18.18,0,0,0-.11,0h-.12v.35H27l0-.83h.26a.33.33,0,0,1,.21.06.24.24,0,0,1,.06.19.2.2,0,0,1,0,.13.17.17,0,0,1-.11.06Zm-.27-.35v.29h.15a.13.13,0,0,0,.16-.14.13.13,0,0,0,0-.11.21.21,0,0,0-.12,0Z"/><path id="path5425" class="cls-11" d="M28.09,53.46a.23.23,0,0,0-.19.09.37.37,0,0,0-.07.25.39.39,0,0,0,.07.25.24.24,0,0,0,.2.09.23.23,0,0,0,.19-.09.41.41,0,0,0,.07-.25.37.37,0,0,0-.07-.25A.24.24,0,0,0,28.09,53.46Zm0-.09a.34.34,0,0,1,.28.11.48.48,0,0,1,.11.32.45.45,0,0,1-.1.31.36.36,0,0,1-.28.12.35.35,0,0,1-.28-.12.45.45,0,0,1-.11-.31.47.47,0,0,1,.1-.32A.39.39,0,0,1,28.09,53.37Z"/><path id="path5427" class="cls-11" d="M29.13,53.38v.11l-.12,0H28.9a.26.26,0,0,0-.14,0,.12.12,0,0,0-.05.11.09.09,0,0,0,0,.08.24.24,0,0,0,.12,0h.07a.31.31,0,0,1,.19.08.26.26,0,0,1,.07.16.22.22,0,0,1-.08.18.32.32,0,0,1-.23.07.3.3,0,0,1-.13,0l-.14,0v-.12a.38.38,0,0,0,.13.06h.13a.21.21,0,0,0,.15,0,.14.14,0,0,0,0-.11.13.13,0,0,0,0-.09.22.22,0,0,0-.13-.05h-.07a.38.38,0,0,1-.18-.08.17.17,0,0,1-.06-.14.24.24,0,0,1,.07-.18.33.33,0,0,1,.21-.07H29l.13,0Z"/><path id="path5429" class="cls-11" d="M29.66,53.4a.22.22,0,0,0-.18.11.32.32,0,0,0-.06.25.43.43,0,0,0,.09.24.24.24,0,0,0,.2.08.27.27,0,0,0,.19-.1.42.42,0,0,0,.05-.26.32.32,0,0,0-.09-.24.23.23,0,0,0-.2-.08Zm0-.09a.32.32,0,0,1,.28.1.42.42,0,0,1,.13.3A.47.47,0,0,1,30,54a.36.36,0,0,1-.27.14.33.33,0,0,1-.29-.1.49.49,0,0,1,0-.62A.33.33,0,0,1,29.66,53.31Z"/><path id="path5431" class="cls-11" d="M30.46,53.37l-.11.42.3,0Zm-.08-.11h.13l.4.8h-.12l-.09-.21-.38,0-.05.22h-.12Z"/><path id="path5433" class="cls-11" d="M30.92,53.21l.15,0,.46.63-.1-.68.11,0,.11.82-.15,0L31,53.33l.1.68L31,54Z"/><path id="path5435" class="cls-11" d="M32,53.15l-.08.44.3-.06Zm-.09-.1.13,0,.45.77-.11,0-.11-.2-.37.06,0,.23-.12,0Z"/></g></svg>