<svg id="Слой_1" data-name="Слой 1" xmlns="http://www.w3.org/2000/svg" viewBox="0 0 56.69 56.69"><defs><style>.cls-1{fill:#f7e822;}</style></defs><path class="cls-1" d="M36,54H18.46a1.88,1.88,0,0,1-1.84-1.55l-1-5.65h-2.2a5.36,5.36,0,0,1-5.36-5.36v-.07A5.36,5.36,0,0,1,9.27,38,21.94,21.94,0,0,1,5.06,25v-.4a22,22,0,0,1,22-22h.4a22,22,0,0,1,22,22V25A22,22,0,0,1,45.16,38a5.31,5.31,0,0,1,1.2,3.39v.07A5.37,5.37,0,0,1,41,46.8h-2.2l-1,5.65A1.88,1.88,0,0,1,36,54ZM20,50.26H34.4l1-5.64a1.87,1.87,0,0,1,1.84-1.55H41a1.64,1.64,0,0,0,1.64-1.63v-.07a1.64,1.64,0,0,0-.9-1.46,1.9,1.9,0,0,1-1-1.31A1.88,1.88,0,0,1,41.16,37a18.19,18.19,0,0,0,4.48-12v-.4A18.21,18.21,0,0,0,27.42,6.41H27A18.23,18.23,0,0,0,8.79,24.64V25a18.2,18.2,0,0,0,4.49,12,1.88,1.88,0,0,1-.57,2.9,1.62,1.62,0,0,0-.9,1.46v.07a1.63,1.63,0,0,0,1.63,1.63h3.78a1.87,1.87,0,0,1,1.84,1.55Z"/><circle class="cls-1" cx="34.42" cy="28.79" r="5.16"/><path class="cls-1" d="M24.39,40a1.32,1.32,0,0,1-.28,0A1.44,1.44,0,0,1,23,38.29l.8-4.13a1.45,1.45,0,1,1,2.84.55l-.8,4.13A1.45,1.45,0,0,1,24.39,40Z"/><path class="cls-1" d="M30.05,40a1.44,1.44,0,0,1-1.42-1.17l-.8-4.13a1.45,1.45,0,1,1,2.84-.55l.8,4.13A1.45,1.45,0,0,1,30.33,40,1.37,1.37,0,0,1,30.05,40Z"/><path class="cls-1" d="M15.08,27.26a5.16,5.16,0,1,0,10.09,1.53v0A1.28,1.28,0,0,0,24,27.51a44.55,44.55,0,0,1-7.38-1.1A1.28,1.28,0,0,0,15.08,27.26Z"/><path class="cls-1" d="M12.5,39.42a1.25,1.25,0,0,1-1.25-1.24V29.72a1.25,1.25,0,1,1,2.49,0v8.46A1.25,1.25,0,0,1,12.5,39.42Z"/><path class="cls-1" d="M41.89,39.42a1.25,1.25,0,0,1-1.25-1.24V29.72a1.25,1.25,0,1,1,2.49,0v8.46A1.24,1.24,0,0,1,41.89,39.42Z"/></svg>