<svg id="Слой_1" data-name="Слой 1" xmlns="http://www.w3.org/2000/svg" viewBox="0 0 56.69 56.69"><defs><style>.cls-1{fill:#f7e822;}</style></defs><path class="cls-1" d="M40.08,54H22.56a1.88,1.88,0,0,1-1.84-1.55l-1-5.65h-2.2a5.36,5.36,0,0,1-5.36-5.36v-.07A5.36,5.36,0,0,1,13.37,38,21.94,21.94,0,0,1,9.16,25v-.4a22,22,0,0,1,22-22h.4a22,22,0,0,1,22,22V25A22,22,0,0,1,49.26,38a5.31,5.31,0,0,1,1.2,3.39v.07A5.37,5.37,0,0,1,45.1,46.8H42.89l-1,5.65A1.88,1.88,0,0,1,40.08,54ZM24.13,50.26H38.5l1-5.64a1.87,1.87,0,0,1,1.84-1.55H45.1a1.64,1.64,0,0,0,1.63-1.63v-.07a1.64,1.64,0,0,0-.9-1.46,1.9,1.9,0,0,1-1-1.31A1.88,1.88,0,0,1,45.26,37a18.19,18.19,0,0,0,4.48-12v-.4A18.21,18.21,0,0,0,31.52,6.41h-.4A18.23,18.23,0,0,0,12.89,24.64V25a18.2,18.2,0,0,0,4.49,12,1.88,1.88,0,0,1-.57,2.9,1.64,1.64,0,0,0-.9,1.46v.07a1.63,1.63,0,0,0,1.63,1.63h3.78a1.87,1.87,0,0,1,1.84,1.55Z"/><circle class="cls-1" cx="38.52" cy="28.79" r="5.16"/><path class="cls-1" d="M28.49,40a1.32,1.32,0,0,1-.28,0,1.44,1.44,0,0,1-1.14-1.7l.8-4.13a1.45,1.45,0,1,1,2.84.55l-.8,4.13A1.45,1.45,0,0,1,28.49,40Z"/><path class="cls-1" d="M34.15,40a1.45,1.45,0,0,1-1.42-1.17l-.8-4.13a1.45,1.45,0,1,1,2.84-.55l.8,4.13A1.45,1.45,0,0,1,34.43,40,1.37,1.37,0,0,1,34.15,40Z"/><path class="cls-1" d="M19.18,27.26a5.16,5.16,0,1,0,10.1,1.53v0a1.29,1.29,0,0,0-1.2-1.26,44.55,44.55,0,0,1-7.38-1.1A1.28,1.28,0,0,0,19.18,27.26Z"/><path class="cls-1" d="M16.6,39.42a1.25,1.25,0,0,1-1.25-1.24V29.72a1.25,1.25,0,1,1,2.49,0v8.46A1.25,1.25,0,0,1,16.6,39.42Z"/><path class="cls-1" d="M46,39.42a1.25,1.25,0,0,1-1.25-1.24V29.72a1.25,1.25,0,1,1,2.49,0v8.46A1.24,1.24,0,0,1,46,39.42Z"/></svg>