<svg id="Слой_1" data-name="Слой 1" xmlns="http://www.w3.org/2000/svg" xmlns:xlink="http://www.w3.org/1999/xlink" viewBox="0 0 56.69 56.69"><defs><style>.cls-1{fill:url(#Безымянный_градиент_2);}</style><linearGradient id="Безымянный_градиент_2" x1="-228.78" y1="-80.58" x2="-224.8" y2="-80.58" gradientTransform="matrix(13.65, 0, 0, -5.88, 3122.94, -445.09)" gradientUnits="userSpaceOnUse"><stop offset="0" stop-color="#294496"/><stop offset="1" stop-color="#407dc0"/></linearGradient></defs><g id="dd8c966b-c307-46b6-84b0-64ed15507a0f"><path class="cls-1" d="M3.05,30.23a1.77,1.77,0,0,1,1.3.55,1.83,1.83,0,0,1,.55,1.35,1.79,1.79,0,0,1-.55,1.31,1.81,1.81,0,0,1-1.3.55,1.86,1.86,0,0,1-1.35-.55,1.81,1.81,0,0,1-.53-1.31,1.86,1.86,0,0,1,.53-1.35A1.82,1.82,0,0,1,3.05,30.23ZM9.29,34v-9.1a9.72,9.72,0,0,1,1.41-4.95,6.94,6.94,0,0,1,2.5-2.28A5.71,5.71,0,0,1,16.1,17a7,7,0,0,1,2.43.45,4.88,4.88,0,0,1,1.93,1.21,8.9,8.9,0,0,1,1.37,2.26,7.86,7.86,0,0,1,1.59-2.26,8.11,8.11,0,0,1,1.53-1A8.57,8.57,0,0,1,27.89,17a6.83,6.83,0,0,1,3.32.87,4.69,4.69,0,0,1,2.24,2.41,13.16,13.16,0,0,1,.64,4.67V34H31.92V24.92a11.07,11.07,0,0,0-.4-3.65,3.34,3.34,0,0,0-1.28-1.62A4,4,0,0,0,28,19a5.74,5.74,0,0,0-4.18,2.39,10,10,0,0,0-1,4.16V34H20.66V25.47A8.45,8.45,0,0,0,20,21.4a5.65,5.65,0,0,0-1.59-1.73A4,4,0,0,0,16.1,19a4.26,4.26,0,0,0-2.54.75,5,5,0,0,0-1.66,2.28A12.47,12.47,0,0,0,11.41,27v7ZM39.91,19.87a11.18,11.18,0,0,0-1.64,4.45V40.05h2.1V30.78a8.75,8.75,0,0,0,3,2.46,8.3,8.3,0,0,0,3.65.81,8.1,8.1,0,0,0,6-2.56,8.56,8.56,0,0,0,2.48-6.2A8.46,8.46,0,0,0,53,19.16,8.26,8.26,0,0,0,47,16.64a9.11,9.11,0,0,0-7.06,3.23Zm6.88-1.19A6.43,6.43,0,0,1,52.5,22a6.75,6.75,0,0,1,.88,3.36,6.86,6.86,0,0,1-.88,3.36,6.52,6.52,0,0,1-2.44,2.5,6.26,6.26,0,0,1-3.23.89,6.71,6.71,0,0,1-3.34-.89,6.07,6.07,0,0,1-2.41-2.41,6.91,6.91,0,0,1-.84-3.4,6.64,6.64,0,0,1,1.9-4.83,6.3,6.3,0,0,1,4.65-1.92Z"/></g></svg>