<svg id="Слой_1" data-name="Слой 1" xmlns="http://www.w3.org/2000/svg" viewBox="0 0 56.69 56.69"><defs><style>.cls-1{fill:#f7e822;}</style></defs><path class="cls-1" d="M37.35,54H19.84A1.87,1.87,0,0,1,18,52.46l-1-5.65h-2.2a5.38,5.38,0,0,1-5.37-5.37v-.07A5.34,5.34,0,0,1,10.65,38,22,22,0,0,1,6.43,25.05v-.41A22,22,0,0,1,19.84,4.41a22,22,0,0,1,8.55-1.72h.41a21.92,21.92,0,0,1,22,22v.41A22,22,0,0,1,46.54,38a5.34,5.34,0,0,1,1.2,3.38v.07a5.38,5.38,0,0,1-5.37,5.37h-2.2l-1,5.65A1.87,1.87,0,0,1,37.35,54ZM21.41,50.27H35.78l1-5.65a1.87,1.87,0,0,1,1.84-1.55h3.77A1.63,1.63,0,0,0,44,41.44v-.07a1.62,1.62,0,0,0-.9-1.46A1.86,1.86,0,0,1,42.54,37a18.23,18.23,0,0,0,4.48-12v-.41A18.23,18.23,0,0,0,28.8,6.42h-.41A18.23,18.23,0,0,0,10.17,24.64v.41a18.23,18.23,0,0,0,4.48,12,1.86,1.86,0,0,1-.56,2.89,1.62,1.62,0,0,0-.9,1.46v.07a1.63,1.63,0,0,0,1.63,1.63h3.77a1.87,1.87,0,0,1,1.84,1.55Z"/><circle class="cls-1" cx="35.8" cy="28.79" r="5.16"/><path class="cls-1" d="M25.76,40l-.27,0a1.46,1.46,0,0,1-1.15-1.7l.81-4.13a1.45,1.45,0,1,1,2.84.55l-.81,4.13A1.44,1.44,0,0,1,25.76,40Z"/><path class="cls-1" d="M31.42,40A1.44,1.44,0,0,1,30,38.85l-.81-4.13A1.45,1.45,0,1,1,32,34.17l.81,4.13A1.46,1.46,0,0,1,31.7,40Z"/><path class="cls-1" d="M16.45,27.27a5.42,5.42,0,0,0-.22,1.62,5.16,5.16,0,0,0,10.32-.1h0a1.27,1.27,0,0,0-1.2-1.26A44.42,44.42,0,0,1,18,26.42,1.28,1.28,0,0,0,16.45,27.27Z"/><path class="cls-1" d="M13.87,39.43a1.24,1.24,0,0,1-1.24-1.25V29.73a1.25,1.25,0,1,1,2.49,0v8.45A1.25,1.25,0,0,1,13.87,39.43Z"/><path class="cls-1" d="M43.26,39.43A1.25,1.25,0,0,1,42,38.18V29.73a1.25,1.25,0,1,1,2.49,0v8.45A1.25,1.25,0,0,1,43.26,39.43Z"/></svg>