<svg id="Слой_1" data-name="Слой 1" xmlns="http://www.w3.org/2000/svg" viewBox="0 0 56.69 56.69"><defs><style>.cls-1{fill:#42509e;}</style></defs><g id="surface1"><path id="path2" class="cls-1" d="M41.6,23.87a2.7,2.7,0,0,0-2.19.86,3.3,3.3,0,0,0-.73,2.21v2.81A3.28,3.28,0,0,0,39.41,32a3.21,3.21,0,0,0,4.37,0,3.28,3.28,0,0,0,.73-2.21V26.94a3.3,3.3,0,0,0-.73-2.21A2.7,2.7,0,0,0,41.6,23.87Z"/><path id="path4" class="cls-1" d="M28.35,2.94a25.41,25.41,0,1,0,25.4,25.41A25.41,25.41,0,0,0,28.35,2.94Zm-16,33.73a5.31,5.31,0,1,1,0-10.61Zm18.23,0H25.2V26.76a2.59,2.59,0,0,0-.61-1.83,2.39,2.39,0,0,0-1.8-.66,2.68,2.68,0,0,0-1.82.61,2.45,2.45,0,0,0-.69,1.94v9.85H15V36a5.31,5.31,0,0,0,0-9.2V20h5.11V22a4.33,4.33,0,0,1,1.84-1.73,6.32,6.32,0,0,1,2.8-.59A5.5,5.5,0,0,1,29,21.32a6.68,6.68,0,0,1,1.51,4.61Zm17-1.72a8.13,8.13,0,0,1-5.94,2.11,8.14,8.14,0,0,1-6-2.11,7.34,7.34,0,0,1-2.15-5.49V27.24a7.31,7.31,0,0,1,2.15-5.49,8.1,8.1,0,0,1,6-2.11,8.09,8.09,0,0,1,5.94,2.11,7.31,7.31,0,0,1,2.15,5.49v2.22A7.34,7.34,0,0,1,47.54,35Z"/></g></svg>