<svg id="Слой_1" data-name="Слой 1" xmlns="http://www.w3.org/2000/svg" viewBox="0 0 56.69 56.69"><defs><style>.cls-1,.cls-2{fill:#010101;}.cls-2{isolation:isolate;opacity:0.3;}</style></defs><path id="path156" class="cls-1" d="M39.67,15.54a3.17,3.17,0,1,1,3.13-3.17A3.15,3.15,0,0,1,39.67,15.54Z"/><path id="path158" class="cls-2" d="M34.52,8.78a1.6,1.6,0,0,1-1.6-1.61h0a1.6,1.6,0,1,1,1.6,1.61Z"/><path id="path160" class="cls-1" d="M45.93,15.54a3.16,3.16,0,1,0,3.12,3.16A3.14,3.14,0,0,0,45.93,15.54ZM52.18,28.2A3.16,3.16,0,1,1,55.3,25,3.14,3.14,0,0,1,52.18,28.2Zm-6.25,0a3.17,3.17,0,1,0,3.12,3.17A3.15,3.15,0,0,0,45.93,28.2ZM39.67,40.85a3.17,3.17,0,1,1,3.13-3.16A3.15,3.15,0,0,1,39.67,40.85Z"/><path id="path162" class="cls-2" d="M46,39.56a1.89,1.89,0,0,1-1.87-1.9h0a1.88,1.88,0,1,1,3.75,0A1.9,1.9,0,0,1,46,39.56Z"/><path id="path164" class="cls-1" d="M33.42,47.17A3.17,3.17,0,1,1,36.55,44,3.15,3.15,0,0,1,33.42,47.17Z"/><path id="path166" class="cls-2" d="M28.13,51.13a1.79,1.79,0,1,1,1.73-1.79A1.76,1.76,0,0,1,28.13,51.13Zm17.8-28.06a2,2,0,0,0-2,2h0a2,2,0,1,0,2-2ZM39.72,45.73A1.75,1.75,0,0,1,38,44h0a1.73,1.73,0,1,1,1.73,1.75ZM52.18,16.8a1.9,1.9,0,1,0,1.93,1.9A1.92,1.92,0,0,0,52.18,16.8ZM39.67,20.41A1.69,1.69,0,0,1,38,18.7h0a1.7,1.7,0,1,1,1.7,1.71Z"/><path id="path168" class="cls-1" d="M1.4,47.13H4.64V41.82c0-1.22.66-1.8,1.61-1.8s1.36.52,1.36,1.6v5.51h3.25V41c0-2.44-1.27-3.58-3.1-3.58a3.35,3.35,0,0,0-3.12,1.78V37.65H1.39v9.48Z"/><path id="path172" class="cls-1" d="M11.59,47.13h8.57V44.68h-4L20.38,38v-.35H12v2.45h3.71L11.59,46.8Z"/></svg>