<svg id="Слой_1" data-name="Слой 1" xmlns="http://www.w3.org/2000/svg" viewBox="0 0 56.69 56.69"><defs><style>.cls-1,.cls-2{fill:#162025;}.cls-1{isolation:isolate;opacity:0.75;}</style></defs><rect class="cls-1" x="41.41" y="32.83" width="13.44" height="5.23"/><path class="cls-1" d="M24.09,18.64H21.25v5.23h3a4.3,4.3,0,0,1,4.48,4.48,4.3,4.3,0,0,1-4.48,4.48h-3v5.22h3A9.73,9.73,0,0,0,34,28.35,9.87,9.87,0,0,0,24.09,18.64Z"/><polygon class="cls-2" points="54.85 18.64 47.38 18.64 47.38 11.18 41.41 11.18 41.41 18.64 33.95 18.64 33.95 23.87 41.41 23.87 41.41 32.83 47.38 32.83 47.38 23.87 54.85 23.87 54.85 18.64"/><rect class="cls-2" x="15.28" y="18.64" width="5.97" height="26.87"/><circle class="cls-2" cx="6.7" cy="33.95" r="4.85"/></svg>