<svg id="Слой_1" data-name="Слой 1" xmlns="http://www.w3.org/2000/svg" viewBox="0 0 56.69 56.69"><defs><style>.cls-1{fill:#222753;}</style></defs><path class="cls-1" d="M26,26.33H22.63c-1.72,0-2.32-.11-2.72-.36A1.78,1.78,0,0,1,19,24.3c0-1.46.6-1.82,3.07-1.82h10V18.13H20.11c-2.42,0-3.68.31-4.64,1.06a6.29,6.29,0,0,0-2.21,4.91,6.31,6.31,0,0,0,2.41,5.21c1.21.86,2.42,1.16,5,1.16h3.43a5.77,5.77,0,0,1,2.42.26,1.89,1.89,0,0,1,1,1.77,1.5,1.5,0,0,1-1,1.56,15.93,15.93,0,0,1-3,.16h-10v4.34H25.1c2.47,0,3.88-.15,4.73-.6C31.7,37.05,33,34.62,33,32.14,33,28.4,30.44,26.33,26,26.33Zm29-5.92c-1.72-1.87-3.28-2.33-8-2.28H37.44v4.35h9.47c3.38,0,4.34.86,4.29,3.64H44.34a14.84,14.84,0,0,0-4.73.51C37.44,27.39,36,29.71,36,32.5a6,6,0,0,0,2.47,5c1.26.86,2.32,1,6.55,1H56.84V27.08C56.84,23.9,56.39,22.13,54.93,20.41ZM51.2,34.22H44.7c-2.22,0-3-.51-3-1.83a1.74,1.74,0,0,1,1.21-1.77,6.46,6.46,0,0,1,1.82-.1h6.5ZM8,34.22H3.63v4.35H8Zm.9-13.1a7.18,7.18,0,0,1,2.17-1A9.29,9.29,0,0,0,7,20.41a8.23,8.23,0,0,1,1.76-2.18,3.33,3.33,0,0,0-2.92,2,3.43,3.43,0,0,0-2.92-2,8.23,8.23,0,0,1,1.76,2.18A9.29,9.29,0,0,0,.56,20.1a11,11,0,0,1,2.17,1A5.93,5.93,0,0,0-.15,22.68a10.87,10.87,0,0,1,2.22-.4A5.43,5.43,0,0,0,.16,26a8.46,8.46,0,0,1,2.31-2.17,5.53,5.53,0,0,0-1,3.64,9.77,9.77,0,0,1,2-2.58,9.66,9.66,0,0,0-.2,2.93,11.7,11.7,0,0,1,1-1.31L3.58,33H7.91l-.7-6.47a14.67,14.67,0,0,1,1,1.31A8.3,8.3,0,0,0,8,24.91a8.55,8.55,0,0,1,2,2.58,5.54,5.54,0,0,0-1-3.64A9.16,9.16,0,0,1,11.34,26a5.53,5.53,0,0,0-1.91-3.74,10.77,10.77,0,0,1,2.21.4,4.59,4.59,0,0,0-2.77-1.56Z"/></svg>