<svg id="Слой_1" data-name="Слой 1" xmlns="http://www.w3.org/2000/svg" viewBox="0 0 56.69 56.69"><defs><style>.cls-1{fill:#676867;}.cls-2{fill:#aaa544;}</style></defs><path class="cls-1" d="M41.09,53.49h4.43l.72.06s-.27-.24-.27-.33V29.5H41.09V28H51.42V53.2c0,.1-.29.37-.29.37l.76-.08H56.3a3.61,3.61,0,0,1,0,1.5H41.08a3.38,3.38,0,0,1,0-1.5M.4,52.21a3.41,3.41,0,0,1,1-2.45,3.22,3.22,0,0,1,2.38-1,3.22,3.22,0,0,1,2.38,1,3.41,3.41,0,0,1,1,2.45,3.37,3.37,0,0,1-1,2.44,3.18,3.18,0,0,1-2.38,1,3.18,3.18,0,0,1-2.38-1,3.37,3.37,0,0,1-1-2.44m24.93,3.6c-6.58,0-10.64-4.35-10.64-7.34a3.05,3.05,0,0,1,3.1-3.31c1.22,0,2.87.56,2.87,2.29,0,1.27-1,2-.92,3.19,0,1.81,3,3.58,5.8,3.58,3.38,0,6.77-2.48,6.77-5.82,0-2.57-3.12-3.66-5.68-4.41l-1.78-.49c-6.78-1.9-8.35-4.94-8.35-8.34,0-5.3,4.89-8.36,9-8.36,5.15,0,8.29,2.51,8.45,5.05A2.67,2.67,0,0,1,31,35c-1.91,0-2.83-1.09-2.83-2.32,0-.87.63-1.57.63-2.62,0-.52,0-1.66-3.23-1.66A5.32,5.32,0,0,0,20,33.86c0,2.12,2.1,3.27,4.54,4l3.31.95C33.42,40.38,36,42.5,36,47.18c0,5.44-4.76,8.63-10.64,8.63"/><path class="cls-2" d="M43.49,14.7c-.07-.09-.18,0-.18,0a14.26,14.26,0,0,1-4.91,3.89,12.54,12.54,0,0,0-4.93-8.41A14.88,14.88,0,0,0,30.84,2c-.11-.13-.28,0-.22.15a13.69,13.69,0,0,1,1.8,7.52,13.64,13.64,0,0,0-8.63-1.23.13.13,0,0,0,0,.26A13,13,0,0,1,32.29,11a13.88,13.88,0,0,1-3.74,7.56A13.34,13.34,0,0,1,20.32,8a.13.13,0,0,0-.25,0,14.12,14.12,0,0,0,7.4,11.43,13.11,13.11,0,0,1-8.4,3,.13.13,0,0,0,0,.26A13.69,13.69,0,0,0,28.81,20,14.39,14.39,0,0,0,37.57,20a14.47,14.47,0,0,1-1.35,7.87.13.13,0,0,0,.23.13,15,15,0,0,0,2-8.37,15.25,15.25,0,0,0,5-4.71.15.15,0,0,0,0-.18M29.84,19a14,14,0,0,0,3.5-7.27A12.72,12.72,0,0,1,37.4,19a12,12,0,0,1-7.62,0"/></svg>