<svg id="Слой_1" data-name="Слой 1" xmlns="http://www.w3.org/2000/svg" viewBox="0 0 56.69 56.69"><defs><style>.cls-1{fill:#010101;}.cls-2{fill:#fff;stroke:#010101;stroke-miterlimit:3.74;stroke-width:2px;}.cls-3{fill:#1f71b8;}.cls-4{fill:#3dab3e;}</style></defs><path id="txt" class="cls-1" d="M23.67,56.21H20.21V52.9h3.46Zm5.94-2.66v-.81c0-.29-.17-.44-.5-.44H27.88c-1.94,0-2.9-.83-2.9-2.48V48.66c0-1.67,1-2.5,3-2.5h1.87c2,0,3,.83,3,2.5v.84H29.51v-.68q0-.45-.51-.45h-.2c-.33,0-.5.15-.5.45v.88c0,.3.17.45.5.45H30a3.23,3.23,0,0,1,2.23.63,2.37,2.37,0,0,1,.67,1.82v1.11c0,1.66-1,2.5-3,2.5H28c-2,0-3-.84-3-2.5v-.83h3.32v.67c0,.29.17.44.5.44h.25c.33,0,.5-.15.5-.44Zm8-10.81V56.21H34.24V42.74Z"/><g id="shape"><path id="white" class="cls-2" d="M29.25,8.53A11.27,11.27,0,0,1,31.37,2,18.45,18.45,0,0,0,28,1.32,14.08,14.08,0,1,0,47.81,21.13a21.12,21.12,0,0,0-.67-3.46A11.3,11.3,0,0,1,29.25,8.53Z"/><path id="blue" class="cls-3" d="M36.18,29.89A17.17,17.17,0,0,1,19.05,12.76a16.61,16.61,0,0,1,4-11A19.36,19.36,0,0,0,19,2.47a19.45,19.45,0,0,0-7.7,15.58A19.65,19.65,0,0,0,30.88,37.68,19.45,19.45,0,0,0,46.47,30a20.12,20.12,0,0,0,.67-4.13,17,17,0,0,1-11,4Z"/><path id="green" class="cls-4" d="M32.14,8.62A8.38,8.38,0,0,0,40.51,17,8.16,8.16,0,0,0,46,14.87,23,23,0,0,0,34.16,3a8.81,8.81,0,0,0-2,5.58Z"/></g></svg>