<svg id="Слой_1" data-name="Слой 1" xmlns="http://www.w3.org/2000/svg" viewBox="0 0 56.69 56.69"><defs><style>.cls-1{fill:#f7e822;}</style></defs><path class="cls-1" d="M37.1,54.71H19.59a1.87,1.87,0,0,1-1.84-1.55l-1-5.65h-2.2A5.38,5.38,0,0,1,9.2,42.14v-.07a5.34,5.34,0,0,1,1.2-3.38A22,22,0,0,1,6.19,25.75v-.41a21.92,21.92,0,0,1,22-21.95h.41A22,22,0,0,1,48.78,16.8a21.69,21.69,0,0,1,1.73,8.54v.41a22,22,0,0,1-4.22,12.94,5.34,5.34,0,0,1,1.2,3.38v.07a5.38,5.38,0,0,1-5.37,5.37h-2.2l-1,5.65A1.87,1.87,0,0,1,37.1,54.71ZM21.16,51H35.53l1-5.65a1.87,1.87,0,0,1,1.84-1.55h3.77a1.63,1.63,0,0,0,1.63-1.63v-.07a1.62,1.62,0,0,0-.9-1.46,1.86,1.86,0,0,1-.56-2.89,18.23,18.23,0,0,0,4.48-12v-.41A18.23,18.23,0,0,0,28.55,7.12h-.41A18.23,18.23,0,0,0,9.92,25.34v.41a18.19,18.19,0,0,0,4.49,12,1.9,1.9,0,0,1,.42,1.59,1.85,1.85,0,0,1-1,1.3,1.62,1.62,0,0,0-.9,1.46v.07a1.63,1.63,0,0,0,1.63,1.63h3.77a1.87,1.87,0,0,1,1.84,1.55Z"/><circle class="cls-1" cx="35.55" cy="29.49" r="5.16"/><path class="cls-1" d="M25.52,40.72l-.28,0A1.46,1.46,0,0,1,24.09,39l.81-4.13a1.45,1.45,0,1,1,2.84.55l-.81,4.13A1.44,1.44,0,0,1,25.52,40.72Z"/><path class="cls-1" d="M31.18,40.72a1.44,1.44,0,0,1-1.42-1.17L29,35.42a1.44,1.44,0,1,1,2.83-.55L32.6,39a1.46,1.46,0,0,1-1.15,1.7Z"/><path class="cls-1" d="M16.21,28A5.12,5.12,0,0,0,16,29.59a5.16,5.16,0,0,0,10.32-.1h0a1.27,1.27,0,0,0-1.2-1.26,44.42,44.42,0,0,1-7.37-1.1A1.27,1.27,0,0,0,16.21,28Z"/><path class="cls-1" d="M13.62,40.13a1.25,1.25,0,0,1-1.24-1.25V30.43a1.25,1.25,0,1,1,2.49,0v8.45A1.25,1.25,0,0,1,13.62,40.13Z"/><path class="cls-1" d="M43,40.13a1.25,1.25,0,0,1-1.25-1.25V30.43a1.25,1.25,0,1,1,2.49,0v8.45A1.24,1.24,0,0,1,43,40.13Z"/></svg>