<svg id="Слой_1" data-name="Слой 1" xmlns="http://www.w3.org/2000/svg" viewBox="0 0 56.69 56.69"><defs><style>.cls-1{fill:#f7e822;}</style></defs><path class="cls-1" d="M37.1,54H19.59a1.87,1.87,0,0,1-1.84-1.55l-1-5.65h-2.2A5.38,5.38,0,0,1,9.2,41.44v-.07A5.34,5.34,0,0,1,10.4,38,22,22,0,0,1,6.19,25.05v-.41a21.92,21.92,0,0,1,22-21.95h.41A22,22,0,0,1,48.78,16.1a21.69,21.69,0,0,1,1.73,8.54v.41A22,22,0,0,1,46.29,38a5.34,5.34,0,0,1,1.2,3.38v.07a5.38,5.38,0,0,1-5.37,5.37h-2.2l-1,5.65A1.87,1.87,0,0,1,37.1,54ZM21.16,50.27H35.53l1-5.65a1.87,1.87,0,0,1,1.84-1.55h3.77a1.63,1.63,0,0,0,1.63-1.63v-.07a1.62,1.62,0,0,0-.9-1.46A1.86,1.86,0,0,1,42.29,37a18.23,18.23,0,0,0,4.48-12v-.41A18.23,18.23,0,0,0,28.55,6.42h-.41A18.23,18.23,0,0,0,9.92,24.64v.41a18.19,18.19,0,0,0,4.49,12,1.9,1.9,0,0,1,.42,1.59,1.85,1.85,0,0,1-1,1.3,1.62,1.62,0,0,0-.9,1.46v.07a1.63,1.63,0,0,0,1.63,1.63h3.77a1.87,1.87,0,0,1,1.84,1.55Z"/><circle class="cls-1" cx="35.55" cy="28.79" r="5.16"/><path class="cls-1" d="M25.52,40l-.28,0a1.46,1.46,0,0,1-1.15-1.7l.81-4.13a1.45,1.45,0,1,1,2.84.55l-.81,4.13A1.44,1.44,0,0,1,25.52,40Z"/><path class="cls-1" d="M31.18,40a1.44,1.44,0,0,1-1.42-1.17L29,34.72a1.44,1.44,0,1,1,2.83-.55l.81,4.13A1.46,1.46,0,0,1,31.45,40Z"/><path class="cls-1" d="M16.21,27.27A5.12,5.12,0,0,0,16,28.89a5.16,5.16,0,0,0,10.32-.1h0a1.27,1.27,0,0,0-1.2-1.26,44.42,44.42,0,0,1-7.37-1.1A1.27,1.27,0,0,0,16.21,27.27Z"/><path class="cls-1" d="M13.62,39.43a1.25,1.25,0,0,1-1.24-1.25V29.73a1.25,1.25,0,1,1,2.49,0v8.45A1.25,1.25,0,0,1,13.62,39.43Z"/><path class="cls-1" d="M43,39.43a1.25,1.25,0,0,1-1.25-1.25V29.73a1.25,1.25,0,1,1,2.49,0v8.45A1.24,1.24,0,0,1,43,39.43Z"/></svg>