<svg id="Слой_1" data-name="Слой 1" xmlns="http://www.w3.org/2000/svg" viewBox="0 0 56.69 56.69"><defs><style>.cls-1{fill:#f7e822;}</style></defs><path class="cls-1" d="M37.94,53.11H20.43a1.86,1.86,0,0,1-1.84-1.55l-1-5.65h-2.2A5.37,5.37,0,0,1,10,40.55v-.07a5.37,5.37,0,0,1,1.2-3.39A22,22,0,0,1,7,24.15v-.4a22,22,0,0,1,22-22h.41A21.95,21.95,0,0,1,44.91,8.22a21.84,21.84,0,0,1,6.43,15.53v.4a21.94,21.94,0,0,1-4.21,12.94,5.37,5.37,0,0,1,1.2,3.39v.07A5.37,5.37,0,0,1,43,45.91h-2.2l-1,5.65A1.86,1.86,0,0,1,37.94,53.11ZM22,49.37H36.37l1-5.64a1.86,1.86,0,0,1,1.84-1.55H43a1.63,1.63,0,0,0,1.63-1.63v-.07a1.62,1.62,0,0,0-.9-1.46,1.87,1.87,0,0,1-.56-2.9,18.19,18.19,0,0,0,4.48-12v-.4A18.21,18.21,0,0,0,29.39,5.53H29A18.21,18.21,0,0,0,10.76,23.75v.4a18.19,18.19,0,0,0,4.48,12,1.87,1.87,0,0,1-.56,2.9,1.62,1.62,0,0,0-.9,1.46v.07a1.63,1.63,0,0,0,1.63,1.63h3.77A1.86,1.86,0,0,1,21,43.73Z"/><circle class="cls-1" cx="36.39" cy="27.9" r="5.16"/><path class="cls-1" d="M26.35,39.13l-.27,0a1.45,1.45,0,0,1-1.15-1.7l.81-4.13a1.45,1.45,0,0,1,2.84.55L27.77,38A1.44,1.44,0,0,1,26.35,39.13Z"/><path class="cls-1" d="M32,39.13A1.44,1.44,0,0,1,30.6,38l-.81-4.14a1.45,1.45,0,0,1,2.84-.55l.81,4.13a1.45,1.45,0,0,1-1.15,1.7Z"/><path class="cls-1" d="M17,26.38A5.38,5.38,0,0,0,16.82,28a5.16,5.16,0,0,0,10.32-.1v0a1.28,1.28,0,0,0-1.2-1.26,44.42,44.42,0,0,1-7.37-1.1A1.29,1.29,0,0,0,17,26.38Z"/><path class="cls-1" d="M14.46,38.53a1.23,1.23,0,0,1-1.24-1.24V28.83a1.25,1.25,0,0,1,2.49,0v8.46A1.24,1.24,0,0,1,14.46,38.53Z"/><path class="cls-1" d="M43.86,38.53a1.24,1.24,0,0,1-1.25-1.24V28.83a1.25,1.25,0,0,1,2.49,0v8.46A1.24,1.24,0,0,1,43.86,38.53Z"/></svg>