<svg id="Слой_1" data-name="Слой 1" xmlns="http://www.w3.org/2000/svg" viewBox="0 0 56.69 56.69"><defs><style>.cls-1{fill:#9fc969;}.cls-2{fill:#a0c96a;}</style></defs><path class="cls-1" d="M55.44,38.17a2.23,2.23,0,0,1-2.38-.71A23.34,23.34,0,0,1,48.81,31c-.31-.6-.58-1.2-1-2.08-.54.56-1.14.94-1.33,1.48-.12.31.36.92.67,1.31,1.37,1.63,2.87,3.19,4.16,4.88a4.71,4.71,0,0,1,.84,3.66c-2.31-2.89-4.52-5.64-6.67-8.35-1.41.33-1.89,2.35-3.69,1.15v2.56l.57-.19c-.44,1.92-.82,3.79-1.32,5.62a1.92,1.92,0,0,1-1.58,1.55c.13-1.65.27-3.25.42-5-1,.35-1.15,0-1.08-.79.52-4.59.93-9.23,1.58-13.81a48.42,48.42,0,0,1,1.73-7.13,3.77,3.77,0,0,1,2.56-2.68,4.09,4.09,0,0,1,.13,1.35c-.46,2.17-1.13,4.33-1.46,6.52-.42,2.83-.61,5.69-.9,8.54l.25.17c1.06-1.15,2.15-2.3,3.19-3.48,1.75-2,3.41-4,5.75-5.31a3.39,3.39,0,0,1,.91-.36c-1.27,2.88-4.12,4.48-5.83,7.23,2-1.27,3.42-3.29,5.79-3.71.08.08.13.17.21.25-.54.5-1,1.06-1.62,1.52-2.27,1.77-2.44,2.36-.86,4.75Z"/><path class="cls-2" d="M37,30.94l.9-.85c.06,0,.12.06.17.1-.8,2.82-1.61,5.65-2.46,8.59-1,.25-1.38,0-1.17-1.07Q36.08,29,37.82,20.26c.2-.92.54-1.82.83-2.77,1,.37.75,1.06.62,1.7-.5,2.11-1.06,4.21-1.49,6.32C37.44,27.21,37.25,29,37,30.94Z"/><path class="cls-1" d="M22,22.9c1.57.94,0,2.42,1,3.36.27-1.09.44-2.17.8-3.19a13,13,0,0,1,1.48-2.73,3.74,3.74,0,0,1,0,2.81,10.75,10.75,0,0,0-.35,2.25c0,.54.25.86,1,.77a14.68,14.68,0,0,1,6.19.11c.47.14,1,.25.77.83a1.26,1.26,0,0,1-.92.71,12.56,12.56,0,0,1-2.27-.27,8.31,8.31,0,0,0-5.13.81,5.11,5.11,0,0,0,3.5.58c1-.06,2-.1,3-.14a.31.31,0,0,1,.19,0c.44.31,1.25.66,1.21.93-.07.76-.79.8-1.48.76-2-.09-3.94-.13-5.92-.19-.58,0-.75.27-.77.83-.08,3.73-.17,7.46-.27,11.29l-1,.17c-.06-.13-.19-.29-.17-.42.3-1.31-.37-2-1.29-2.89-1.16-1.09-.75-2.75-.7-4.21,0-1.06.08-2.11.16-3.15s-.44-1.29-1.29-1.21c-1.08.11-2.14.38-3.23.44a9.34,9.34,0,0,1-2.06-.31c0-.15,0-.31,0-.48l2.35-.81a17.72,17.72,0,0,0,2.42-.84,7,7,0,0,0,1.35-1.31L20.24,27a11.77,11.77,0,0,0-1.78,0,6,6,0,0,0-1.35.48c-.52.17-1.08.27-1.23-.43s-.06-1.27.77-1.38a5.53,5.53,0,0,1,1.52,0c.59.06,1.19.23,1.8.27,1,.06,1.37-.29,1.51-1.29C21.59,24.09,21.8,23.57,22,22.9Z"/><path id="_Tracé_" data-name="&lt;Tracé&gt;" class="cls-1" d="M8,34.5a25.15,25.15,0,0,1,3.52,1,2.43,2.43,0,0,1,.81,4.16,12.14,12.14,0,0,1-3.63,2.4,12.86,12.86,0,0,1-4,.89,3.16,3.16,0,0,1-3.16-2.22A4.25,4.25,0,0,1,5.18,35c.89,0,1.79-.18,2.68-.27A.66.66,0,0,0,8,34.5ZM5.7,35.9a3.82,3.82,0,0,0-2.65,1.83,2.69,2.69,0,0,0,2.29,4.13A19.88,19.88,0,0,0,8.72,41,13.08,13.08,0,0,0,6.8,40C4.72,39,4.42,38,5.7,35.9Zm6.18,1.62a4.65,4.65,0,0,0-1-.91,3.76,3.76,0,0,0-3.16.12c-.36.13-1,.52-.94.69a2.12,2.12,0,0,0,.73,1.33,7.29,7.29,0,0,0,2,.8A2,2,0,0,0,11.88,37.52Z"/></svg>