<svg id="Слой_1" data-name="Слой 1" xmlns="http://www.w3.org/2000/svg" viewBox="0 0 56.69 56.69"><defs><style>.cls-1{fill:#1aa2dc;}</style></defs><g id="g14"><circle id="ellipse10" class="cls-1" cx="3.45" cy="45.45" r="2.61"/><path id="path12" class="cls-1" d="M30,2.52A25.82,25.82,0,0,0,9.59,44.16,8.75,8.75,0,0,1,9,40.89V31.67h4.63v8.19c0,2.63.45,3.89,2.6,3.89s2.67-1.32,2.67-3.87V31.67H23.5V40.9c0,4.88-2.83,7.15-7.28,7.15a8.34,8.34,0,0,1-3.78-.78A25.83,25.83,0,1,0,30,2.52Zm7.06,45.54-4.29-6.72-1.62,1.72v5H26.5V25.67h4.67V37.6l5.46-6h5.58L36,38.09l6.48,10H37.08Z"/></g></svg>