<svg id="Слой_1" data-name="Слой 1" xmlns="http://www.w3.org/2000/svg" viewBox="0 0 56.69 56.69"><defs><style>.cls-1{fill:#37abdd;}.cls-2{fill:#fff;}</style></defs><path class="cls-1" d="M28.51,56C23,55.65,18.38,54.43,15.1,52.45,8.58,48.51,4.17,42.7,3,36.48c-1-5-1.32-14.17-.65-17.26C3.3,14.63,7.8,10.73,17,6.55c1.41-.65,4.09-1.91,6-2.82C31.56-.44,33-.46,37.59,3.56c3,2.56,3.91,3,7.8,4,7.27,1.75,7.74,2.44,7.92,11.75a41,41,0,0,0,.57,8C55.66,38.54,55,40.92,48.33,47.59c-5.53,5.53-10.06,8-15.21,8.43a24.43,24.43,0,0,1-4.61,0Z"/><path class="cls-2" d="M45.34,12.17c-6.28,0-10.32,4-11,10.72l-.14,1.44-.31-.12c-1.9-.72-2.75.28-5.41,6.37-.75,1.73-1.4,2.84-1.65,2.84s-.53-2.06-.49-5.07c0-3.28-.26-4.07-1.6-4.22-1.08-.12-2.24,1.4-4.19,5.52a16.68,16.68,0,0,1-2,3.58c-.37.34-.34-.26.14-2.57.9-4.26.3-6.33-1.9-6.54-1.09-.1-1.65.31-4,2.87-1.12,1.25-2.43,2.09-3.24,2.09-.54,0-.45.19.3.7a4.44,4.44,0,0,0,4.86-.22l.35-.25v.41c0,.22-.09,1.41-.2,2.66-.39,4.2,0,5.69,1.62,6.16,1.4.4,2.51-.47,4.68-3.66,2-2.9,2.33-3.09,2.34-1.21,0,4.23,1.25,5.84,3.65,4.75,1.5-.68,3.84-4.29,5.35-8.26.64-1.67,1.6-2.07,1.6-.66,0,4.65,2,13.33,3.35,14.7a2,2,0,0,0,2.26,0c1.06-.54,1.11-.94.36-3a43.9,43.9,0,0,1-2.42-11.3l0-.53.9.06a5.42,5.42,0,0,0,6-4.83c.08-1.2.07-1.21-.82-.37a5.87,5.87,0,0,1-4.9,1.5c-1.25-.15-1.22-.12-1-1.67.73-6.29,4.34-9.3,9.92-8.26.93.17,1.29-.05,1.64-1,.8-2.15,0-2.66-4-2.65ZM9.44,34.06c-3.27,0-3.1,4.28.18,4.59a3.64,3.64,0,0,0,.64-.13c2.77-.76,2.08-4.47-.82-4.46Z"/></svg>