<svg id="Слой_1" data-name="Слой 1" xmlns="http://www.w3.org/2000/svg" xmlns:xlink="http://www.w3.org/1999/xlink" viewBox="0 0 56.69 56.69"><defs><style>.cls-1{fill:none;}.cls-2{fill:#010101;}.cls-3{fill:#e73741;}.cls-4{fill:#fff;}.cls-5{clip-path:url(#clip-path);}</style><clipPath id="clip-path"><rect class="cls-1" x="9.32" y="1.55" width="38.05" height="53.58"/></clipPath></defs><path class="cls-2" d="M32.86,20.2A8.6,8.6,0,0,1,32,18.39c-.32-.74-.26-.62-.72-1.74A10.06,10.06,0,0,0,30.39,15a3.91,3.91,0,0,0-1.19-1,3.71,3.71,0,0,0-1.06-.23,6.18,6.18,0,0,0-1.77.15,1.77,1.77,0,0,0-.88.47,1,1,0,0,1-.27.22,3.12,3.12,0,0,0-.8.44,1,1,0,0,0-.22,1.54h0c0-.19,0-.37,0-.36a1.35,1.35,0,0,0,.87.16c.37-.05.6.51.6.51l.06-.16a1.44,1.44,0,0,0,.22.43.18.18,0,0,0,0-.08c.11.14.29.23.31.46a.89.89,0,0,1-.35.63c-.1.09-.68.57-1.3,1.21-.33.32-.49.52-.81.88a.8.8,0,0,1-.49.3h-.07a.53.53,0,0,1-.41-.18c-.07-.08-3.22-4.25-4.73-6.24,2.74-2.67,7.27-3.11,8.4-3,.27,0,.57.23.24.66a2,2,0,0,0,1.5-.29,2,2,0,0,0,1.51.29c-.33-.43,0-.64.23-.66a12,12,0,0,1,8.45,3.09c-1.48,1.95-3.44,4.41-4.5,5.94a.5.5,0,0,1-.21.2.85.85,0,0,1-.49.12.58.58,0,0,1-.48-.24m14.49,8.05c.09-10.08-2.12-15.72-4-18.49l1.08-1.43a2,2,0,0,1,1.21-.59,21.72,21.72,0,0,1,.69-2.91,16,16,0,0,1-2.57,1.49,1.78,1.78,0,0,1-.25,1.32s-.33.45-.84,1.13a12.05,12.05,0,0,0-3.26-2.71c-.34-.19-.71-.38-1.11-.56a1.91,1.91,0,0,0-.51-1.42,1,1,0,0,0-.6-.82h0a1.31,1.31,0,0,0-1.07.3,2.35,2.35,0,0,0-1.43.78,27,27,0,0,0-4-.53,2.37,2.37,0,0,0-1.26-1.59,1.34,1.34,0,0,0-1-.67h0a1.38,1.38,0,0,0-1,.67A2.42,2.42,0,0,0,26.1,3.81a26.87,26.87,0,0,0-4,.53,2.35,2.35,0,0,0-1.44-.78,1.28,1.28,0,0,0-1.06-.3h0a1,1,0,0,0-.6.82,1.91,1.91,0,0,0-.52,1.42c-.39.18-.76.37-1.11.56a10.71,10.71,0,0,0-3.19,2.67c-.46-.61-.74-1-.76-1a1.78,1.78,0,0,1-.25-1.32A16.86,16.86,0,0,1,10.56,4.9a21.28,21.28,0,0,1,.69,2.91,2,2,0,0,1,1.21.59l1,1.26c-1.93,2.75-4.18,8.44-4.08,18.59,0,.94-.4,9.73,2.47,15.66a13.93,13.93,0,0,0,2.75,3.66,10.34,10.34,0,0,0,4.57,2.54l.21.06A6.91,6.91,0,0,0,24.09,50l-.11.27a2.34,2.34,0,0,0-.09.24c-.4,1.09-.13,2.21,1.34,2.38a3.9,3.9,0,0,1,1.33.3,4,4,0,0,1,1.19.89,5.49,5.49,0,0,1,.76,1.07h0a6,6,0,0,1,.75-1.07,4.29,4.29,0,0,1,1.19-.89,4,4,0,0,1,1.34-.3c1.47-.17,1.74-1.29,1.34-2.38l-.1-.25c0-.06-.11-.26-.11-.26,1,.59,4.16,1,7.18-.86A12.45,12.45,0,0,0,44.88,44c2.86-5.92,2.48-14.89,2.47-15.7"/><path class="cls-3" d="M46.83,29.91c0,2.67-.37,9.27-2.65,13.71A13.6,13.6,0,0,1,41.53,47,11.42,11.42,0,0,1,38,49.3a5.87,5.87,0,0,1-1.12.3,6.93,6.93,0,0,1-4.4-.67l-.77-1.81a1.14,1.14,0,0,0,.07-.19l.39,0a10.49,10.49,0,0,0,5.09-.51l-1.09-.8c0-.08,0-.15-.05-.23a2.51,2.51,0,0,0,1.34.31,3,3,0,0,0-.23-1.22,1.81,1.81,0,0,0,.83,0,12.82,12.82,0,0,0-1-2.2,37.31,37.31,0,0,0-2.94-4.12l.16-.12a.67.67,0,0,0,.17.12,1.17,1.17,0,0,0,.5.15c.27,0,.42,0,.51-.17l0,0a.49.49,0,0,0,.37-.32.28.28,0,0,0,0-.09.36.36,0,0,0,.42,0c.19-.16-.07-1-.93-1.77a5.7,5.7,0,0,0-1.71-1.14c-.41-.18-.65.17-.45.41a1.25,1.25,0,0,1,.18,1.32L33,36.37l-.14-.07a.53.53,0,0,1-.21-.18.25.25,0,0,1,0-.1l.41.06c-.21-.65.12-1.46,0-2.16.06,0,.16.15.22.18a7.18,7.18,0,0,0,0-2.35,1.68,1.68,0,0,1,.54-.75s0,0,0,0a8.46,8.46,0,0,0,1.2,2,5.48,5.48,0,0,1,1.71,2.89h0a4.12,4.12,0,0,0,.3.83,2,2,0,0,1,.26.91h0a26.31,26.31,0,0,0,.3,4.84,5.23,5.23,0,0,0,.66,1.75l.07-.06a4.09,4.09,0,0,0,.74,1.63S39.44,45,40.14,39c.78-6.49,1.17-13.28,1.17-13.28h0a10.52,10.52,0,0,0-.54-3.64,12.63,12.63,0,0,0-2.4-3.87,1.47,1.47,0,0,0-1.21-.44c.7-.89,1.38-1.75,1.58-2a26.84,26.84,0,0,1,3,12.45v.5l.68-.37a27.27,27.27,0,0,0,4.27-2.88c0,.67.08,2.14.1,3,0,0,0,.51,0,1.38M31.12,50.56a23.4,23.4,0,0,0-.37-2.91,1.78,1.78,0,0,0,.41.29s.13-.11.24-.27l1.21,3.1a1.38,1.38,0,0,0-1.49-.21m1.33,1.35c0,.05-.05.1-.08.14a.88.88,0,0,1-.62.32,4,4,0,0,0-1.51.35,4.73,4.73,0,0,0-1.73,1.42,4.9,4.9,0,0,0-1.73-1.42,4.06,4.06,0,0,0-1.52-.35.8.8,0,0,1-.61-.32.64.64,0,0,1-.08-.14c-.26-.57.49-1.38,1.72-.56a37.27,37.27,0,0,1,.45-4.25c.05.14.11.28.17.42a2,2,0,0,0,.41.64,3,3,0,0,0,1-1.23,3,3,0,0,0,1,1.25,2.34,2.34,0,0,0,.41-.64,5.25,5.25,0,0,0,.28-.78l.12.17.07.11a31.41,31.41,0,0,1,.5,4.31c1.23-.82,2,0,1.73.56M25.6,47.83c.06.07.1.11.14.11a1.9,1.9,0,0,0,.49-.37,26.9,26.9,0,0,0-.33,3,1.38,1.38,0,0,0-1.49.21s.7-1.72,1.19-2.94m-6.32,1.56-.34-.11A10,10,0,0,1,15.09,47a13.2,13.2,0,0,1-2.58-3.44c-2.18-4.5-2.66-11-2.66-13.71v-1.4s.07-2.29.11-3a27.26,27.26,0,0,0,4.39,2.95l.56.29V28A27.39,27.39,0,0,1,18,15.71c.44.59.95,1.24,1.4,1.83l.26.36a1.41,1.41,0,0,0-1.33.41,12.7,12.7,0,0,0-2.4,3.88,10.5,10.5,0,0,0-.54,3.63h0s.39,6.78,1.16,13.28c.71,5.9,1.1,6.68,1.1,6.68a4.37,4.37,0,0,0,.74-1.63l.07.05a5.23,5.23,0,0,0,.66-1.75,26.21,26.21,0,0,0,.3-4.83h0a2,2,0,0,1,.26-.9,4.35,4.35,0,0,0,.3-.83h0A5.45,5.45,0,0,1,21.7,33a7.51,7.51,0,0,0,1.15-1.88,1.46,1.46,0,0,1,.45.62,8.27,8.27,0,0,0,.06,2.2,1.08,1.08,0,0,0,.24-.14c-.18.72.1,1.83-.08,2.29l.36,0a.41.41,0,0,1,0,.09.61.61,0,0,1-.35.24,2.28,2.28,0,0,1-.38.14,1.25,1.25,0,0,1,.18-1.32c.2-.24,0-.59-.45-.41a5.55,5.55,0,0,0-1.7,1.14c-.87.82-1.12,1.61-.94,1.77a.32.32,0,0,0,.37,0s0,.07,0,.1a.49.49,0,0,0,.37.32l0,0c.09.13.24.18.5.17A1.23,1.23,0,0,0,22,38.2a.68.68,0,0,0,.2-.15,2,2,0,0,1,.25.2l-.13.13a1.74,1.74,0,0,0-.4.71,26.94,26.94,0,0,0-2.25,3.18,12.82,12.82,0,0,0-1,2.2,1.81,1.81,0,0,0,.83,0,3,3,0,0,0-.22,1.22,2.48,2.48,0,0,0,1.33-.31.51.51,0,0,0,0,.13c-.64.41-1.11.79-1.36,1a10.28,10.28,0,0,0,5.08.51c.29,0,.58-.07.86-.12a2.58,2.58,0,0,0,.08.26c-.21.5-.62,1.48-.71,1.73l0,.05a6.9,6.9,0,0,1-5.25.47"/><path class="cls-4" d="M12.72,12.08a9.53,9.53,0,0,0,2.43.23,4.79,4.79,0,0,1,.54,2.4,2.29,2.29,0,0,0,1.08-.61l.88,1.16a26.61,26.61,0,0,0-3.29,12.5,28.84,28.84,0,0,1-4.36-3c.3-5.26,1.11-9.23,2.72-12.67m1-1.92.33.43a4.8,4.8,0,0,1-.37.62,3.32,3.32,0,0,1-1,.84c.31-.65.64-1.28,1-1.89m-2.6-4.47a11,11,0,0,0,1.65.93A2.09,2.09,0,0,0,13.13,8l1.38,1.8a.91.91,0,0,0-.15.23l-3.23-4.3m8,0a1.36,1.36,0,0,1,.35-1.44.62.62,0,0,1,.29-.53.79.79,0,0,1,.61.25,1.66,1.66,0,0,1,1.32.9,26.51,26.51,0,0,1,4.82-.64,2,2,0,0,1,1.2-1.76A.92.92,0,0,1,28.35,2,.93.93,0,0,1,29,2.5a2,2,0,0,1,1.2,1.76A26.39,26.39,0,0,1,35,4.9,1.69,1.69,0,0,1,36.33,4a.78.78,0,0,1,.61-.25h0a.6.6,0,0,1,.29.52,1.38,1.38,0,0,1,.35,1.44,12.31,12.31,0,0,1,4.73,3.47L42,9.55a11.69,11.69,0,0,0-5.18-3.69,1,1,0,0,0-.21-1.39h0a1.2,1.2,0,0,0-1.18.94,26.06,26.06,0,0,0-5.73-.79A1.94,1.94,0,0,0,28.6,2.77a.46.46,0,0,0-.24-.37h0a.46.46,0,0,0-.24.37A1.94,1.94,0,0,0,27,4.62a26,26,0,0,0-5.73.79,1.2,1.2,0,0,0-1.18-.94h0a1,1,0,0,0-.21,1.39A11.52,11.52,0,0,0,14.72,9.5l-.26-.34a11.7,11.7,0,0,1,4.67-3.44M43.72,7.89a2.12,2.12,0,0,0,.36-1.33,12.4,12.4,0,0,0,1.64-.93s-1.59,2.12-3.34,4.43l-.14-.24,1.48-1.93M43.94,12a2.94,2.94,0,0,1-1.31-1.38s.22-.28.31-.41a18.52,18.52,0,0,1,1,1.79m-7.36,5.47a16.37,16.37,0,0,1,1.11-1.61c.57-.78,1.17-1.59,1.76-2.37l.17.22c-.86,1.14-1.49,2-1.62,2.17-.32.44-1.43,1.76-1.42,1.59M27.73,46a3.2,3.2,0,0,0,.43-.32,2.42,2.42,0,0,1-.73,1.5,5.61,5.61,0,0,1-.35-.83c.17-.08.4-.2.65-.35M23.8,44.35a8.11,8.11,0,0,0,1.39-.67,5.89,5.89,0,0,0,.55-.44l1.06,1a6.29,6.29,0,0,1-.94.71,24.12,24.12,0,0,1-4,1.25,16.2,16.2,0,0,0,4-.88,5.68,5.68,0,0,0,1.21-.82c.31.29.61.57.85.78a7.53,7.53,0,0,1-3.51,1.28A13.56,13.56,0,0,1,20,46.36a17.75,17.75,0,0,1,3.85-2M22.47,23.76c1.25,1.36,1.07,4.51.91,5a24,24,0,0,0-.91-5M21.36,23a4.62,4.62,0,0,1-.3-.76,3.44,3.44,0,0,1,0-1.32A5.37,5.37,0,0,1,21.36,23m.78,1.57A8.91,8.91,0,0,1,21.65,22a5.1,5.1,0,0,1,.49,2.64m-4.88-11.2c.64.85,1.28,1.72,1.9,2.56a16.37,16.37,0,0,1,1.11,1.61c0,.17-1.1-1.15-1.42-1.59-.13-.19-.83-1.11-1.75-2.33l.16-.25M18,11.24c-1.17,0-.66,2.12-1.91,2.79a4.45,4.45,0,0,0-.6-2.18h0l-.5.07a3,3,0,0,1-.45,0,5.16,5.16,0,0,1-.95-.09c1.07-.73.74-1.54,1.78-2.45.58-.41.82-.2.92-.1h0L18,11.24M38.33,11a.73.73,0,0,0-.15.82c-2.32-1.56-5-2.34-9.71-2.39h-.21c-4.73,0-7.39.81-9.73,2.38a.73.73,0,0,0-.15-.82c-.39-.46-1.92-2.17-1.92-2.17a10.72,10.72,0,0,1,3-2,23.74,23.74,0,0,1,8.85-1.48h0a23.74,23.74,0,0,1,8.85,1.48,10.72,10.72,0,0,1,3,2S38.72,10.52,38.33,11m.33.26c.66-.75,1.67-1.83,1.76-1.93a.41.41,0,0,1,.33-.15,1.22,1.22,0,0,1,.59.25l.26.26c.72.8.51,1.54,1.48,2.19a4.88,4.88,0,0,1-1.9,0h0A4.48,4.48,0,0,0,40.57,14h0a1.53,1.53,0,0,1-.21-.14,2.82,2.82,0,0,1-.77-1.49c-.17-.63-.33-1.17-.92-1.16m-4.57,0A14.45,14.45,0,0,0,30,10.67c-.74,0-.84.45-.75.68a1.24,1.24,0,0,1-.93-.45,1.22,1.22,0,0,1-.92.45c.09-.23,0-.65-.75-.68a14.55,14.55,0,0,0-4.07.54A11.57,11.57,0,0,0,18,13.8c-.1-.13-.21-.26-.31-.4a12.61,12.61,0,0,1,5.63-2.85,15.23,15.23,0,0,1,3.49-.35c.62,0,1,.25,1,.64.32-.05.5-.44.54-.65,0,.09.16.58.54.65,0-.39.41-.63,1-.64a15.23,15.23,0,0,1,3.49.35,13,13,0,0,1,5.66,2.93c-.11.13-.21.27-.31.41a12.24,12.24,0,0,0-4.67-2.68m-9.24,18.7a1.71,1.71,0,0,1-.74-1.31,4.48,4.48,0,0,1,.74,1.31m4.21,4.78a2.14,2.14,0,0,0-.54.39,1.52,1.52,0,0,1,.44-.71,3,3,0,0,0,.47-.63,2.08,2.08,0,0,1-.08.4,2.35,2.35,0,0,0,.49-.58,1.77,1.77,0,0,1-.78,1.13m1,3.47-.17,0a.26.26,0,0,0-.15,0l-.05,0h0c0-.12-.13-.42-.33-.89a6.56,6.56,0,0,1,.77.88l-.07,0m.17,3.49.8.74-.35.38L29.9,42l.34-.33M28.7,40.24l1.23,1.13-.33.32c-.32-.31-.8-.81-1.15-1.18l.25-.27M28.53,40l-.2.21c0-.07,0-.22,0-.41.05.06.21.2.21.2m-.2-2a3.65,3.65,0,0,1,.3,1.19v0c-.1.1-.29.33-.31.35,0-.59,0-1.36,0-1.56m.89.58-.28.29h0c0-.26-.06-1.06-.12-1.4a2.9,2.9,0,0,1,.4,1.1m-.78-1.69a3.83,3.83,0,0,1,.28-.29A.89.89,0,0,0,29,36.3a.59.59,0,0,1-.06.39,1,1,0,0,1-.37.36,1.81,1.81,0,0,1-.26.14,1,1,0,0,1,.16-.26m-1.22-3.21c.14.57.77.63.77,1.2-.29-.39-.84-.41-.77-1.2m.68,2.1a3.43,3.43,0,0,1-.69-.57.83.83,0,0,1-.14-.56s0,.1.21.33.83.51,1,.87a.59.59,0,0,1,0,.17.66.66,0,0,1,.08-.22,4,4,0,0,1,.91-.66,1.36,1.36,0,0,0,.41-.37,1.42,1.42,0,0,1-.19.44,6.31,6.31,0,0,1-1,.71.74.74,0,0,0-.23.26h0a1.21,1.21,0,0,0-.43-.4m-.23.54a.82.82,0,0,1,.39.59,1,1,0,0,1-.39-.59M27.62,39a1.87,1.87,0,0,1,.23-.6c0,.17,0,.54,0,.89L27.62,39m-.76-1.69a7.71,7.71,0,0,0-.28.85h0l-.1,0c-.13,0-.37.14-.47.17a7.32,7.32,0,0,1,.85-1m.51.11a6.63,6.63,0,0,1-.11,1.21L27,38.36a3.09,3.09,0,0,1,.34-1m-.51-4a.51.51,0,0,1-.22-.29,1.18,1.18,0,0,1-.05-.42.33.33,0,0,0,.08.13c.08.1.24.23.3.33a.94.94,0,0,1,.09.35.92.92,0,0,1-.2-.1m0,6-.15-.16a.1.1,0,0,0-.12,0s-.83.78-.83.78l-1.09,1-.68.61-.12-.11c-.1-.11-.08-.2.27-.53l1.78-1.77c.17-.19,0-.26-.15-.26a6.1,6.1,0,0,1-1.07-.05l0-.17a.9.9,0,0,0,0-.18l.06,0a2.66,2.66,0,0,0,1.18.07,3.72,3.72,0,0,0,.48-.12c.19-.05.49.26.72.51l.57.63a0,0,0,0,1,0,.06l-2.93,2.68s-.07,0-.12,0l-.45-.46,2.57-2.42a.11.11,0,0,0,0-.11m3.77-.17s1.67,1.68,1.77,1.77c.35.34.37.41.27.53l-.11.11L31.85,41l-1.09-1-.83-.78a.07.07,0,0,0-.11,0l-.15.16s0,.07,0,.11,2.57,2.42,2.57,2.42c-.17.16-.34.34-.45.46s-.08,0-.12,0S29,39.9,28.76,39.71a0,0,0,0,1,0-.06c.12-.12.38-.42.58-.63s.53-.56.71-.51a3.52,3.52,0,0,0,.49.12,2.61,2.61,0,0,0,1.17-.07h0a.61.61,0,0,0,0,.15.79.79,0,0,0,0,.2,7.42,7.42,0,0,1-1,0c-.2,0-.33.07-.15.26m-.39-8a3.43,3.43,0,0,1-.72,1.56,1.1,1.1,0,0,0-.26-.49s-.2,1.3-.71,1.7a2.69,2.69,0,0,0-.41-1.2,2.86,2.86,0,0,0-.11.95,1.72,1.72,0,0,1-.54-.76,5.2,5.2,0,0,1-.24-.92,2.42,2.42,0,0,0-.13.77c-.51-.49-.46-1.37-.55-1.66a1.16,1.16,0,0,0-.13.52,2,2,0,0,1-.6-1.13.58.58,0,0,0-.23.31,16.38,16.38,0,0,1-1.42-4.21l-.22.09c-.05-.39-.35-2.4-.4-3.11a5.18,5.18,0,0,1,.51-2.91,13.75,13.75,0,0,1,2.47-2.58c-.07.13-.15.4-.24.55.31-.12.57-.55,1-.78a2.58,2.58,0,0,0,0,.29,4,4,0,0,0,.94-.8.87.87,0,0,0,.84-.17c-.12,0-.48-.05-.54-.17a1.33,1.33,0,0,0,.75-.28c-.09,0-.32-.24-.64-.24a1.34,1.34,0,0,1,.11.25c-.94,0-1.42-.82-2.29-1,.33.17.68.71,1.1,1-.88.18-1-.71-1.78-.52-.05-.08,0-.22,0-.26s-.19.09-.32.07-.11-.14,0-.18l.53-.16c-.28,0-.49,0-.71,0s-.61,0-.63.14a.2.2,0,0,1-.32.15,1.09,1.09,0,0,1,.16-.58.89.89,0,0,1,.3-.31c.06,0,.13.24.42.29-.22-.32-.2-.44-.09-.52a.73.73,0,0,1,.19-.1c.17,0,.35-.09.39-.15.67-.78,2.09-.75,3.12-.55a1.71,1.71,0,0,1,.93.67c-.23,0-.37-.05-.55,0,1,.38,1.14.93,1.53,1.28-.28,0-.45-.05-.54,0,.29.23.39.4.65.64a3.2,3.2,0,0,1-.48,0c.4.25.58.73,1,1.47a14.37,14.37,0,0,1,.56,1.44.76.76,0,0,1,.22-.17,7.15,7.15,0,0,1,.77,1.69A8.14,8.14,0,0,1,33,23.63c0,.68-.11,1.66-.2,2.26-.05-.05-.16-.05-.22-.07a8.2,8.2,0,0,1-.55,2.53c-.19-.1,0-.06-.21-.13a9,9,0,0,1-.81,2.56c0-.17-.19-.27-.26-.36a2.81,2.81,0,0,1-.55,1.63,2.5,2.5,0,0,0,0-.81M22.44,31a8.6,8.6,0,0,0-1-3.27c.68,2.54,1,3.84.2,4.82A7.58,7.58,0,0,0,20.85,29c.35,2,.85,3.72-.08,4.6A8.71,8.71,0,0,0,20.14,30c.31,1.92.57,3.77-.05,4.7h0a2.18,2.18,0,0,0,0-.25,14.72,14.72,0,0,0-.24-1.75,11.7,11.7,0,0,0-.37-1.5,1.27,1.27,0,0,0,0-.14s.19,1.34.3,3a6,6,0,0,1-.31,2.53l-.06.11a26,26,0,0,0-.71-4.9s.25,2,.41,5.13c0,.11,0,.22,0,.33.21,4.46-.39,5.89-.58,6.31a2.52,2.52,0,0,0,.06-.65,4.94,4.94,0,0,0,0-1,7,7,0,0,0,.34-2.08A45,45,0,0,0,18,32.46l-.06-.26s0,.24,0,.33c.15,1.86.31,3.72.44,5.59.08,1,.13,1.88.11,2.15a5.92,5.92,0,0,1-.29,1.42,6.23,6.23,0,0,1-.43,3.09s-.18-.62-.32-1.4a.36.36,0,0,0,.18.16A5.53,5.53,0,0,0,17.82,41a3.84,3.84,0,0,0,.23-1.23,32.65,32.65,0,0,0-.36-3.83q-.09-.64-.18-1.23c-.09-.65-.19-1.31-.33-2a.8.8,0,0,0,0-.18s0,.47.05.68c.13,1.72.52,6.1.53,6.45a4.78,4.78,0,0,1-.2,1.27A9.27,9.27,0,0,1,17.46,43a5.12,5.12,0,0,1-.13-.73q-.57-4.26-.95-8.54c-.1-1.19-.22-2.53-.32-3.72h0c-.09-1-.16-1.92-.2-2.5l.1-.07a8.78,8.78,0,0,0,.85,3.22,3,3,0,0,0,.36-1.35,4.19,4.19,0,0,0,.72,1.11,3.25,3.25,0,0,0,.18-1.25,1.76,1.76,0,0,0,.65.65A2.6,2.6,0,0,0,19,28.49a1.86,1.86,0,0,0,.54.46c.07-.18.5-.85-.27-3.34.31,2.3.13,2.56.07,2.75a1.85,1.85,0,0,1-.36-.23,14.63,14.63,0,0,0-.23-1.64,6.42,6.42,0,0,1-.17,2.76A3,3,0,0,1,17.78,28a4.23,4.23,0,0,1-.08,1.67A3.93,3.93,0,0,1,17,28.28a3.84,3.84,0,0,1-.27,1.35,10.4,10.4,0,0,1-.6-2.78s0,0-.21.12a9.28,9.28,0,0,1,.08-3.2,10.59,10.59,0,0,1,2.48-4.94c.85-1,1.57-.55,2.28.24,1.16,1.26,1.41,1.82,2.8,2.07h0c.14,0,0,.09-.23.09a3.29,3.29,0,0,1-2.7-1.69c-.33-.37-.76-.7-1.12-.49-.13.07-.58.61-.11,1.91a1.12,1.12,0,0,1,.17-.62,8.1,8.1,0,0,0,.86,2.15,4,4,0,0,0,.1-.46c.17,1.06,1.11,2.16,1.25,3.67A1,1,0,0,0,22,25c.72,1.32,1.46,3.68,1,4.87a7.72,7.72,0,0,0-1.11-3.49c.49,1.55,1.06,3.47.57,4.62m.47,5.52-.59.16-.2.05A1.83,1.83,0,0,1,22,36c0-.3-.67.33-1.12.78-.19.19-.23.11-.12,0a6.3,6.3,0,0,1,1.6-1.36c.43-.27.65-.21.5,0a1.35,1.35,0,0,0,.06,1.17m.15,1.08c0-.1-.11-.13-.26-.13s-1.11,0-1.08.26c0,0,0,0,.06.06s.21.09.23.05a.55.55,0,0,1-.22.16c-.09,0-.49.15-.61,0l0-.08c-.07,0-.26,0-.3-.17s.12-.29.29-.37a8,8,0,0,1,1.59-.52,2.24,2.24,0,0,0,1.32-.6,2.59,2.59,0,0,0,.23-.68,1.34,1.34,0,0,1-.5.19,3.77,3.77,0,0,0,0-.62,5.16,5.16,0,0,1,.1-1.83,3,3,0,0,0-.36.21,4.46,4.46,0,0,1,0-1.1,9.35,9.35,0,0,1,.22-1.33.13.13,0,0,0,0-.06h0a.35.35,0,0,0-.15.07l-.17.1a2.55,2.55,0,0,0,.14-.87,4.62,4.62,0,0,1,.15-1.1,2,2,0,0,0,.31.5,1.83,1.83,0,0,1,.42.82v.06l.05,0a1.49,1.49,0,0,0,.27-.33,4.63,4.63,0,0,0,.85,1.42.7.7,0,0,0,.25-.35,3.79,3.79,0,0,1,.27.61,6.86,6.86,0,0,1,.49,2.1,5.06,5.06,0,0,1-.07,1.81l-.31-.34a5.9,5.9,0,0,0,0,.71,2.22,2.22,0,0,0,.12.53,1.21,1.21,0,0,1-.83-.22,1.32,1.32,0,0,1-.35-.31l-.11.28c-.08.23-.14.5,0,.64s.33.28.29.54a.37.37,0,0,1-.17.26h0v0a.35.35,0,0,1-.2.26A.51.51,0,0,0,25,38a.32.32,0,0,0-.28-.22l-.14,0s-.08.72-.14,1a6.52,6.52,0,0,0-.16,1l0,.25a.29.29,0,0,1-.3.29,1.63,1.63,0,0,1-.31,0h0c.19.05.17.13.17.15a.8.8,0,0,0,0,.48l0,0a.55.55,0,0,1-.25-.64v0h0c-.22-.13-.17-.56.14-1.21.15-.31.2-.81.11-.87s-.46.46-.55.57a1.07,1.07,0,0,0-.25.42c0,.22.18.2.33.17-.07.08-.33.37-.41.28s0,.14-.36.18-.38-.14-.39-.41a1.36,1.36,0,0,1,.44-.92c.58-.64.53-.78.49-.84m-1.13,5.84a3.7,3.7,0,0,1-2.08,1.63c.12-.62.31-.75.31-.75a5.74,5.74,0,0,0,.92-1A11.23,11.23,0,0,0,22.36,41c-.51.64-1.31,1.84-1.62,2.16-.67.7-1,.78-1.47.81a9.44,9.44,0,0,1,1.13-2.16,13.31,13.31,0,0,1,1.52-2.12l0,0a.49.49,0,0,0,.2.26.53.53,0,0,0,.36.11h.05a.52.52,0,0,0,.34-.16.36.36,0,0,0,.24-.06.67.67,0,0,0,.13.55,1,1,0,0,0,.29.7h0c-.19.29-.1.45,0,.55s.88,1,1.06,1.14a.33.33,0,0,0,.44,0l.14-.11.39.4a1.1,1.1,0,0,0-.15.14,3.53,3.53,0,0,1-.71.43c-.23.11-.71.28-1.26.5l-.27.1a6.49,6.49,0,0,0,.5-1.4c-.13.2-.55.94-.9,1.57-.35.15-.7.31-1,.48L21.5,45l-.49.27.09,0,0-.2a6.91,6.91,0,0,0,.73-.85A9.2,9.2,0,0,0,23,41.84c-.67,1-.84,1.29-1.11,1.64m7.57,2.87a1.82,1.82,0,0,1-.29.85,2.28,2.28,0,0,1-.63-1.36,4.72,4.72,0,0,0,.92.51M28.21,45a23.72,23.72,0,0,1-2.75-2.63l.81-.74s3.32,3.28,4.37,3.7a15.71,15.71,0,0,0,4,.88,24.41,24.41,0,0,1-4-1.25,44.87,44.87,0,0,1-4.06-3.61l1.22-1.13c.33.36,2.17,2.28,2.88,2.93a5.86,5.86,0,0,0,.63.51,8.11,8.11,0,0,0,1.39.67,17.94,17.94,0,0,1,3.86,2,13.56,13.56,0,0,1-4.46.23A7.29,7.29,0,0,1,28.21,45m7.46-1.61c-.09-.12-.15-.21,0,0s.13.18,0,0a5.84,5.84,0,0,0,.86,1s.23.14.35.77a3.73,3.73,0,0,1-2.09-1.63c-.26-.35-.43-.63-1.1-1.64a8.57,8.57,0,0,0,1.16,2.32,8.4,8.4,0,0,0,.72.85s0,.11.06.28a14.26,14.26,0,0,0-1.54-.81h0c-.36-.65-.77-1.38-.92-1.59.17.48.33,1,.46,1.4-.57-.24-1.43-.56-1.72-.68a3.15,3.15,0,0,1-.91-.56h0l-.05,0,.38-.38.13.11a.33.33,0,0,0,.44,0c.18-.16,1-1.06,1.06-1.15s.16-.24,0-.54a.11.11,0,0,1,0,0,.93.93,0,0,0,.27-.68.71.71,0,0,0,.13-.55.36.36,0,0,0,.24.06.52.52,0,0,0,.34.16.63.63,0,0,0,.4-.1.74.74,0,0,0,.18-.21l0-.07a.89.89,0,0,0,0-.36,19.46,19.46,0,0,1,1.8,2.49A9,9,0,0,1,37.49,44c-.51,0-.8-.11-1.46-.81-.31-.32-1.12-1.52-1.63-2.16a11.78,11.78,0,0,0,1.27,2.37m-2-8c-.15-.24.07-.3.5,0a6.62,6.62,0,0,1,1.61,1.37c.1.15.07.23-.12,0-.45-.45-1.13-1.08-1.12-.78a2.13,2.13,0,0,1-.13.78l-.26-.07-.53-.14a1.36,1.36,0,0,0,0-1.16m-.65-3h0a6.92,6.92,0,0,1,.07,1.16l-.23-.24s0,.66-.13,1.8a3,3,0,0,0,0,.62,1.57,1.57,0,0,1-.55-.22,2.87,2.87,0,0,0,.24.69.8.8,0,0,0,.29.26l.15.07c.13.06.49.17.51.18l.69.18.42.1a6.64,6.64,0,0,1,.85.33c.17.08.33.25.29.37s-.23.17-.3.17l0,.08c-.12.18-.52.07-.62,0a.58.58,0,0,1-.21-.16s.15,0,.23-.05.06,0,.06-.06-.37-.19-.6-.23a3.17,3.17,0,0,0-.49,0c-.15,0-.2,0-.25.13s-.09.2.49.84l.07.08a1.35,1.35,0,0,1,.34.6,1.75,1.75,0,0,1,0,.24c0,.27-.17.42-.39.41s-.17-.4-.36-.18-.34-.2-.41-.28l.2,0a.12.12,0,0,0,.09,0,.13.13,0,0,0,0-.1.73.73,0,0,0-.2-.42c-.13-.16-.23-.28-.33-.43s-.21-.22-.26-.21h0c-.09,0,0,.56.12.87.3.65.35,1.08.14,1.21h0v0a.55.55,0,0,1-.26.64l0,0a.8.8,0,0,0,0-.48s0-.1.17-.15h0a1.51,1.51,0,0,1-.3,0,.29.29,0,0,1-.3-.29l0-.25a8.15,8.15,0,0,0-.16-1c-.06-.3-.14-1-.14-1l-.14,0a.32.32,0,0,0-.28.22.51.51,0,0,0,0,.25.33.33,0,0,1-.2-.26v0h0a.37.37,0,0,1-.17-.26c0-.26.26-.52.29-.54s.12-.41,0-.64l-.09-.23a1.27,1.27,0,0,1-1.11.48,2,2,0,0,0,.13-.53,5.9,5.9,0,0,0,0-.71l-.32.34a7.38,7.38,0,0,1,0-1.91,4,4,0,0,1,.5-1.8h0a7.65,7.65,0,0,0,1.23-1.88s.36.41.27.33l.05,0v-.06a1.83,1.83,0,0,1,.42-.82,2,2,0,0,0,.31-.5s0,.05,0,0A5.08,5.08,0,0,1,33,30.36a2.85,2.85,0,0,0,.13.87l-.16-.1a.33.33,0,0,0-.16-.07h0a.07.07,0,0,0,0,.06A10.86,10.86,0,0,1,33,32.45M35.34,23a5.45,5.45,0,0,1,.34-2.08,3.49,3.49,0,0,1,0,1.33,6.17,6.17,0,0,1-.3.75m-.29-1.06a9,9,0,0,1-.49,2.64,5.1,5.1,0,0,1,.49-2.64m-1.67-.25c.23.12.57.72.17,1.91,0-1.11-.18-1.37-.17-1.91m.84,2.05a24.72,24.72,0,0,0-.91,5c-.15-.49-.33-3.65.91-5m3.93,5.49A6.34,6.34,0,0,1,38,26.44c-.13.69-.2,1.22-.24,1.64a1.52,1.52,0,0,1-.35.23c-.06-.19-.24-.46.06-2.75-.76,2.48-.34,3.16-.26,3.34a2,2,0,0,0,.54-.46A2.66,2.66,0,0,0,38,29.75a1.79,1.79,0,0,0,.66-.65,3.39,3.39,0,0,0,.17,1.25,4,4,0,0,0,.72-1.11,3.13,3.13,0,0,0,.37,1.35,9,9,0,0,0,.85-3.22l.1.07c0,.58-.2,2.5-.2,2.51-.1,1.18-.22,2.53-.32,3.72l-.06.58-.12,1.36c0,.38-.08.76-.12,1.12s-.08.78-.13,1.17c-.28,2.53-.52,4.31-.52,4.31a4.84,4.84,0,0,1-.13.72,9.24,9.24,0,0,1-.06-2,4.18,4.18,0,0,1-.2-1.27c0-.34.39-4.73.53-6.44,0-.39.05-.68,0-.69l0,.19c-.09.4-.16.8-.22,1.2l-.12.76c-.06.38-.11.8-.17,1.22a38.14,38.14,0,0,0-.36,3.83,4.36,4.36,0,0,0,.22,1.23,5.68,5.68,0,0,0,.19,2.58.33.33,0,0,0,.17-.16,13.64,13.64,0,0,1-.31,1.4,6.16,6.16,0,0,1-.43-3.1,5.41,5.41,0,0,1-.3-1.42c0-1,.19-3.17.27-4.24.11-1.45.23-2.85.28-3.5,0-.13.07-.63,0-.06s-.27,1.43-.37,2.15c-.07.51-.12,1-.19,1.48S38,37.16,38,37.75s-.1,1.3-.13,2a7,7,0,0,0,.34,2.09,4.87,4.87,0,0,0,0,1,2.72,2.72,0,0,0,.06.66c-.19-.43-.79-1.86-.59-6.32,0-.1,0-.21,0-.32.16-3.11.41-5.13.41-5.13a25.71,25.71,0,0,0-.71,4.9,2.68,2.68,0,0,1-.29-.82,5.65,5.65,0,0,1-.1-1c0-.28,0-.55,0-.82.11-1.64.3-3,.3-3s-.25.81-.41,1.65a10.32,10.32,0,0,0-.25,2c-.62-.92-.36-2.77,0-4.69a8.69,8.69,0,0,0-.63,3.64c-.93-.87-.43-2.61-.08-4.59a7.6,7.6,0,0,0-.79,3.58c-.75-1-.47-2.28.21-4.83a8.72,8.72,0,0,0-1,3.27c-.49-1.15.08-3.07.57-4.62a7.64,7.64,0,0,0-1.11,3.49c-.46-1.18.28-3.55,1-4.87a1,1,0,0,0,.19.66C35,24.13,36,23,36.16,22a4.57,4.57,0,0,0,.1.46,8,8,0,0,0,.86-2.16,1.16,1.16,0,0,1,.17.63c.47-1.31,0-1.84-.12-1.92-.35-.2-.78.13-1.11.5a3.28,3.28,0,0,1-2.7,1.68c-.27,0-.37-.06-.23-.08h0c1.39-.26,1.64-.82,2.79-2.08.72-.78,1.44-1.23,2.29-.23a10.59,10.59,0,0,1,2.48,4.94,9.28,9.28,0,0,1,.08,3.2c-.2-.07-.21-.13-.21-.13a10.33,10.33,0,0,1-.6,2.78,3.74,3.74,0,0,1-.27-1.35A4.09,4.09,0,0,1,39,29.61a4.29,4.29,0,0,1-.08-1.68,3,3,0,0,1-.77,1.26m8.54-4.44a28.84,28.84,0,0,1-4.36,3,26.11,26.11,0,0,0-3.24-12.42l.9-1.2a2,2,0,0,0,1,.57,4.8,4.8,0,0,1,.53-2.4A9.63,9.63,0,0,0,44,12.08c1.6,3.44,2.42,7.41,2.71,12.67"/><path class="cls-2" d="M36.54,27.2s-.28-.63.36-2.51c-.93,1.92-.8,2.44-.6,3.1a1.26,1.26,0,0,0,.64-.91,1,1,0,0,1-.4.32"/><path class="cls-2" d="M35.92,25.56s-.22-.42.35-2.07a3,3,0,0,0-.58,2.66,1.41,1.41,0,0,0,.68-.86.93.93,0,0,1-.45.27"/><path class="cls-2" d="M39.63,22.77a5.35,5.35,0,0,1-.48,2.28,1.13,1.13,0,0,1-.27-.44,1.2,1.2,0,0,0,.28,1,4.24,4.24,0,0,0,.47-2.84"/><path class="cls-2" d="M39.3,21.66a5.32,5.32,0,0,1-.76,2.59,1.58,1.58,0,0,1-.29-.57,1.36,1.36,0,0,0,.27,1.14,4.64,4.64,0,0,0,.78-3.16"/><path class="cls-2" d="M37.91,23.45a2.8,2.8,0,0,1-.13-1,1.71,1.71,0,0,0,.08,1.62,4.81,4.81,0,0,0,1-3.1,5.28,5.28,0,0,1-.91,2.48"/><path class="cls-2" d="M37.25,22.4a4.87,4.87,0,0,1-.06-1.3,2.45,2.45,0,0,0,0,2,4.5,4.5,0,0,0,1.16-2.88,4.62,4.62,0,0,1-1,2.21"/><path class="cls-2" d="M39.5,25.53a.79.79,0,0,0,.31.62A3,3,0,0,0,40.14,24a4.06,4.06,0,0,1-.39,1.68s-.21-.1-.25-.19"/><path class="cls-2" d="M40.13,26.1a.68.68,0,0,0,.29.54,2.66,2.66,0,0,0,.22-1.87,3.37,3.37,0,0,1-.32,1.51s-.16-.1-.19-.18"/><path class="cls-2" d="M17.55,25.11a5.2,5.2,0,0,1-.48-2.29,4.28,4.28,0,0,0,.47,2.85,1.23,1.23,0,0,0,.28-1,1.28,1.28,0,0,1-.27.45"/><path class="cls-2" d="M18.16,24.31a5.37,5.37,0,0,1-.76-2.59,4.57,4.57,0,0,0,.78,3.15,1.34,1.34,0,0,0,.27-1.13,1.66,1.66,0,0,1-.29.57"/><path class="cls-2" d="M18.79,23.51A5.33,5.33,0,0,1,17.88,21a4.75,4.75,0,0,0,1,3.1,1.71,1.71,0,0,0,.08-1.62,2.81,2.81,0,0,1-.13,1"/><path class="cls-2" d="M19.45,22.45a4.52,4.52,0,0,1-1.05-2.21,4.53,4.53,0,0,0,1.16,2.89,2.47,2.47,0,0,0,0-2,4.87,4.87,0,0,1-.06,1.3"/><path class="cls-2" d="M17,25.78a4.06,4.06,0,0,1-.39-1.68,3,3,0,0,0,.33,2.11.8.8,0,0,0,.31-.63c0,.09-.25.2-.25.2"/><path class="cls-2" d="M16.37,26.34a3.37,3.37,0,0,1-.31-1.51,2.71,2.71,0,0,0,.21,1.87.7.7,0,0,0,.3-.54.92.92,0,0,1-.2.18"/><path class="cls-2" d="M20.16,27.25a1,1,0,0,1-.4-.32,1.23,1.23,0,0,0,.64.91c.2-.66.33-1.18-.6-3.1.64,1.89.36,2.51.36,2.51"/><path class="cls-2" d="M20.78,25.62a1,1,0,0,1-.45-.28,1.41,1.41,0,0,0,.68.86,3,3,0,0,0-.58-2.65c.57,1.64.35,2.07.35,2.07"/><path class="cls-2" d="M25.42,33.59A4.52,4.52,0,0,0,25,31.65a.84.84,0,0,0-.1.39,2.53,2.53,0,0,1-.44-1.1,5.49,5.49,0,0,1-.35,1.16.81.81,0,0,0,.37-.14c.15.71.74.87,1,1.63"/><path class="cls-2" d="M31.62,32.09a.86.86,0,0,0-.1-.39,4.56,4.56,0,0,0-.43,1.94c.21-.76.8-.92.95-1.63a.71.71,0,0,0,.37.14A5.35,5.35,0,0,1,32.06,31a2.69,2.69,0,0,1-.44,1.09"/><path class="cls-2" d="M27,31.24a4.69,4.69,0,0,0-.61-1.67A2,2,0,0,0,27,31.24"/><path class="cls-2" d="M29.37,32.18a3.64,3.64,0,0,0,.51-2.05,3.6,3.6,0,0,0-.51,2.05"/><path class="cls-2" d="M28.63,32.67a1.67,1.67,0,0,0,0-1.42,1.77,1.77,0,0,0,0,1.42"/><path class="cls-2" d="M28.06,31.15a1.93,1.93,0,0,0-.11-1.6,2.08,2.08,0,0,0,.11,1.6"/><path class="cls-2" d="M32.13,25.94a6.78,6.78,0,0,0-.56,1.92c.12-.12.77-1.65.56-1.92"/><path class="cls-2" d="M32.16,24.22s.58-1,.25-1.6c-.38.09-.24,1.6-.25,1.6"/><path class="cls-2" d="M30.47,26.7a3,3,0,0,0,.88-2,1.93,1.93,0,0,1-.88,1.05,1.34,1.34,0,0,1-.5-.7,1.89,1.89,0,0,0,.5,1.63"/><path class="cls-2" d="M32.27,25.44c.24-.39.58-1,.3-1.31a10.41,10.41,0,0,0-.3,1.31"/><path class="cls-2" d="M29.42,29.76a3.6,3.6,0,0,0,.48-1.85,3,3,0,0,0-.48,1.85"/><path class="cls-2" d="M30.74,28.58a2.43,2.43,0,0,0,.59-2.23,5,5,0,0,0-.59,2.23"/><path class="cls-2" d="M29.56,26.24a2.8,2.8,0,0,1-.78,1.28,2.28,2.28,0,0,1-.56-.79,1.65,1.65,0,0,0,.7,1.59,2.67,2.67,0,0,0,.64-2.08"/><path class="cls-2" d="M27.19,28.49a2.83,2.83,0,0,1-.81-.84,3.66,3.66,0,0,0,1.1,1.68,2.86,2.86,0,0,0,.16-2.24,4.54,4.54,0,0,1-.45,1.4"/><path class="cls-2" d="M24,22.44c-.06-.43.48-.84.29-1.55A1.42,1.42,0,0,0,24,22.44"/><path class="cls-2" d="M25.09,27.65a4.73,4.73,0,0,0,.79,1c-.38-.58-.69-1.65-1.06-1.94a1.92,1.92,0,0,0,.27.94"/><path class="cls-2" d="M24.83,25.26c-.21.9.68,1.75.68,1.77a2.79,2.79,0,0,0-.68-1.77"/><path class="cls-2" d="M25.46,23.59a5.68,5.68,0,0,1-.1,1.14c-.25-.06-.37-.23-.56-.39a4.65,4.65,0,0,0,.88,1.23,3,3,0,0,0-.22-2"/><path class="cls-2" d="M25.07,21.28A15.38,15.38,0,0,1,26,19.36a1.89,1.89,0,0,0-.92,1.92"/><path class="cls-2" d="M24.3,25.2a5,5,0,0,0-.44-1.93,3.64,3.64,0,0,0,.44,1.93"/><path class="cls-2" d="M26.53,22.25c-.6.75.33,1.68.32,1.7s.08-1.42-.32-1.7"/><path class="cls-2" d="M27,20.2a1.1,1.1,0,0,0-.31,1.64A6.29,6.29,0,0,0,27,20.2"/><path class="cls-2" d="M27.5,26.22a2.82,2.82,0,0,0,.36-2,1.62,1.62,0,0,1-.59,1.15,1.41,1.41,0,0,1-.51-.64,1.84,1.84,0,0,0,.74,1.52"/><path class="cls-2" d="M32.05,20.31a5.25,5.25,0,0,0,.54,1.74,1.63,1.63,0,0,0-.54-1.74"/><path class="cls-2" d="M30.84,18.31c-.08.43.61,1.08.61,1.09a1.06,1.06,0,0,0-.61-1.09"/><path class="cls-2" d="M31.85,21.59a2.47,2.47,0,0,1-.61,1.31,3.87,3.87,0,0,1-.61-.63,2.68,2.68,0,0,0,.63,1.51,2.43,2.43,0,0,0,.59-2.19"/><path class="cls-2" d="M30,19.82c-.36.39,0,1.17.18,1.86.19-.34.42-1.49-.18-1.86"/><path class="cls-2" d="M30.25,18.74a1,1,0,0,0-.88-1c-.05.4.63.64.88,1"/><path class="cls-2" d="M29.41,17.28c.17.18.74.32,1.06.61a.77.77,0,0,0-1.06-.61"/><path class="cls-2" d="M28.63,19.49a.87.87,0,0,0-.21,1.08s.66-.71.21-1.08"/><path class="cls-2" d="M29.45,25.14a3.06,3.06,0,0,0,.75-2,5.06,5.06,0,0,1-.81,1,3.72,3.72,0,0,1-.68-.62,2.66,2.66,0,0,0,.74,1.56"/><path class="cls-2" d="M28.43,21.51a1.78,1.78,0,0,0,0,1.86s.42-1.27,0-1.86"/><path class="cls-2" d="M28.64,15c.17.16.7.39,1,.67,0-.46-.44-.71-1-.67"/><path class="cls-2" d="M28.92,15.51A1.68,1.68,0,0,0,28,15a1.09,1.09,0,0,0,1,.53"/><path class="cls-2" d="M30,16.45a1.12,1.12,0,0,0-.81-.57,2.74,2.74,0,0,1,.29.47,1.78,1.78,0,0,1-.49.1,1.12,1.12,0,0,0,1,0"/><path class="cls-2" d="M25.21,15.12c-.05,0-.09.18.08.19s.17-.16.17-.16-.18-.07-.25,0"/><path class="cls-2" d="M29.86,6l-.45-.33A4.77,4.77,0,0,0,29,6c.16.11.27.2.44.33L29.86,6"/><path class="cls-2" d="M26.88,14.87a.09.09,0,0,1-.12.05c-.05,0-.23-.1-.21-.15s.28,0,.32,0a.1.1,0,0,1,0,.13m.63-.12a4.14,4.14,0,0,1,.78.05,3.24,3.24,0,0,0-2.24-.22.75.75,0,0,0-.41.55c.13-.09.23-.08.28-.15s.1-.19.2-.2a.54.54,0,0,0-.06.25.48.48,0,0,0,.61.42.47.47,0,0,0,.38-.42.55.55,0,0,0,0-.3l.5,0"/><path class="cls-2" d="M30.15,7.6h-.87c-.4,0-.72,0-1.09,0,.65-.27,1.66-.68,1.94-.23a.27.27,0,0,1,0,.23m.57-.2A.56.56,0,0,0,30.51,7,1.12,1.12,0,0,0,30,6.77a1.74,1.74,0,0,0-.58.06,6.75,6.75,0,0,0-1.29.45c0-.19,0-.66-.05-.91A2.36,2.36,0,0,0,28.46,6a1,1,0,0,1-.61-.5c-.14.09-.27.18-.26.39s.13,1.35.17,1.68a34.27,34.27,0,0,0-5.66.67A1.88,1.88,0,0,0,21,7.33a2,2,0,0,0-.76,1.32,1.19,1.19,0,0,1,.9.16c-.3.37-1.52.71-1.86.3s.18-1.1.29-1.22c-.81.56-1.17,1.94.16,1.88a2.57,2.57,0,0,0,1.2-.42,1.63,1.63,0,0,0,.68-.68s-.12-.36-.82-.4c0-.08.23-.73.79-.13a3.27,3.27,0,0,1,.41.75,35.29,35.29,0,0,1,8.59-.69,2.34,2.34,0,0,0,.14-.8"/><path class="cls-2" d="M21,9.75a3.59,3.59,0,0,0-.39-.12,4.73,4.73,0,0,0-.28.46l.54.17.21-.32.38.12c.12-.18.16-.26.3-.46l-.57-.17L21,9.75"/><path class="cls-2" d="M37.19,8.11c.43,0,.83.07,1-.13-.27-.08-.55-.15-.64-.29.11-.09.28,0,.37.11l.16-.15a.56.56,0,0,0-.82.15.86.86,0,0,1,.25.14,1.54,1.54,0,0,0-.34.17"/><path class="cls-2" d="M36.94,8.92a13,13,0,0,1-.54,1.19c.13.05.29,0,.4-.12a3.88,3.88,0,0,0,1.14-1.78,1.59,1.59,0,0,0-.48.14c-.32.14-.38.22-.52.57"/><path class="cls-2" d="M32.87,9.11l.38.38.51-.27c-.15-.15-.24-.25-.39-.39a5.59,5.59,0,0,0-.5.28"/><path class="cls-2" d="M32.43,8h-.11c-.22,0-.36-.07-.43-.18a.59.59,0,0,1,.24-.25c.19-.07.4.22.3.44m3.8-.19a3.2,3.2,0,0,0-.5.41c.11.19.27.32.21.58a15.94,15.94,0,0,0-3-.74c0-.35,0-.82-.37-.91s-.71.31-.89.54c-.38.5-.19.72.6.84a3,3,0,0,1-1.42.42h-.44a4.78,4.78,0,0,0,1.33.38,2.26,2.26,0,0,0,1-.73,17.53,17.53,0,0,1,3.32.81,2.11,2.11,0,0,0,.44-.66,1,1,0,0,0-.27-.93"/><g class="cls-5"><path class="cls-2" d="M22.25,9.39l.51.22.36-.42L22.59,9a3,3,0,0,0-.34.43"/></g></svg>