<svg id="Слой_1" data-name="Слой 1" xmlns="http://www.w3.org/2000/svg" xmlns:xlink="http://www.w3.org/1999/xlink" viewBox="0 0 56.69 56.69"><defs><style>.cls-1{fill:none;}.cls-2{clip-path:url(#clip-path);}.cls-3{fill:#e72e3c;}.cls-4{fill:#ffd207;}.cls-5{fill:#fff;}</style><clipPath id="clip-path"><rect class="cls-1" x="-1.21" y="-0.59" width="58.92" height="58.92"/></clipPath></defs><g class="cls-2"><g id="g503"><rect id="rect4367" class="cls-3" x="-1.21" width="85.04" height="56.69"/><g id="g488"><path id="path4365" class="cls-4" d="M6.76,39.68a1.79,1.79,0,0,0,.27.1.84.84,0,0,0,.89-.42l0,0a1.16,1.16,0,0,0,.12-.51A1.2,1.2,0,0,0,8,38.36H8a1.1,1.1,0,0,0,.33.28h0a1.69,1.69,0,0,0,.27.13.82.82,0,0,0,1-.4.75.75,0,0,0,.1-.32.82.82,0,0,0-.4-.84.93.93,0,0,0-1.14.17h0c1.29-1.75,3,.17,2.64.78a1,1,0,0,1,1.71.8c-.29.92-1.06.78-1.75.54.95.92,2,3.3,1.87,4.25l1.68-6.52L5.16,31.86.47,36.75a6.67,6.67,0,0,1,4.47-.64c-.56-.49-1.05-1.07-.41-1.79A1,1,0,0,1,6.09,35.4c.34-.58,2.85-.09,2,1.92v0h0a.93.93,0,0,0-.42-1.07,1.32,1.32,0,0,0-.28-.11.86.86,0,0,0-.87.43,1.05,1.05,0,0,0-.12.31.9.9,0,0,0,.5.9l0,0A1.07,1.07,0,0,0,7.3,38h0L7.09,38a1.26,1.26,0,0,0-.63.47,1.45,1.45,0,0,0-.11.26.86.86,0,0,0,.41.93"/><path id="path1887" class="cls-4" d="M12.31,52.4a1.11,1.11,0,0,0,.27.1.83.83,0,0,0,.89-.41l0,0a1.26,1.26,0,0,0,.12-.5,1.36,1.36,0,0,0-.07-.46v0h0a1.1,1.1,0,0,0,.33.28h0a1.69,1.69,0,0,0,.27.13.83.83,0,0,0,1-.39.85.85,0,0,0,.1-.33.83.83,0,0,0-.4-.84.93.93,0,0,0-1.14.18h0c1.29-1.75,3,.16,2.64.77a1,1,0,0,1,1.71.8c-.29.93-1.06.79-1.75.55.94.92,2,3.29,1.87,4.24L19.85,50,10.7,44.58,6,49.47a6.67,6.67,0,0,1,4.47-.64c-.56-.48-1.05-1.07-.41-1.79a1,1,0,0,1,1.56,1.09c.34-.59,2.85-.1,2,1.91v0h0A.93.93,0,0,0,13.18,49a.87.87,0,0,0-.28-.1.84.84,0,0,0-.87.42,1.05,1.05,0,0,0-.12.31.9.9,0,0,0,.5.9l.05,0a1.07,1.07,0,0,0,.39.14h0l-.22.06a1,1,0,0,0-.74.74.84.84,0,0,0,.41.92"/><path id="path1889" class="cls-4" d="M25.85,50.74a1,1,0,0,0,.27.1.83.83,0,0,0,.89-.41l0,0a1.22,1.22,0,0,0,.12-.5,1.36,1.36,0,0,0-.07-.46h0a1.22,1.22,0,0,0,.33.27h0a1.13,1.13,0,0,0,.27.13.83.83,0,0,0,1-.39.8.8,0,0,0,.1-.32.82.82,0,0,0-.4-.84.93.93,0,0,0-1.14.17h0c1.29-1.75,3,.16,2.63.77a1,1,0,0,1,1.72.81c-.29.92-1.06.78-1.75.54.94.92,2,3.29,1.87,4.25l1.68-6.52-9.15-5.38-4.68,4.9A6.67,6.67,0,0,1,24,47.17c-.56-.48-1.05-1.07-.41-1.78a1,1,0,0,1,1.56,1.08c.34-.59,2.85-.09,2,1.91v0h0a.92.92,0,0,0-.41-1.07.87.87,0,0,0-.28-.1.86.86,0,0,0-.87.42,1.12,1.12,0,0,0-.12.32.88.88,0,0,0,.5.89l0,0a1.17,1.17,0,0,0,.4.13h0l-.22.06a1.26,1.26,0,0,0-.63.47,1.92,1.92,0,0,0-.11.27.82.82,0,0,0,.41.92"/></g><g id="g483"><path id="path1891" class="cls-4" d="M56.32,6.84a.9.9,0,0,0-.27-.1.86.86,0,0,0-.89.41l0,0a1.16,1.16,0,0,0-.12.51,1,1,0,0,0,.08.46h0a1.44,1.44,0,0,0-.33-.27h0a1.69,1.69,0,0,0-.27-.13.82.82,0,0,0-1,.4,1,1,0,0,0-.1.32.79.79,0,0,0,.4.83.93.93,0,0,0,1.14-.18h0c-1.27,1.76-3-.15-2.64-.75a1,1,0,0,1-1.71-.79c.29-.93,1-.79,1.74-.56-1-.92-2-3.27-1.89-4.23L48.8,9.31,58,14.63l4.65-4.92a6.77,6.77,0,0,1-4.46.68c.55.47,1,1.07.41,1.78A1,1,0,0,1,57,11.1c-.34.6-2.85.1-2-1.89v0h0a.94.94,0,0,0,.43,1.07,1.2,1.2,0,0,0,.28.1.84.84,0,0,0,.87-.44,1.25,1.25,0,0,0,.12-.31.88.88,0,0,0-.5-.88l-.05,0a1.28,1.28,0,0,0-.39-.13h0L56,8.51A1.32,1.32,0,0,0,56.64,8a1.92,1.92,0,0,0,.11-.27.89.89,0,0,0-.43-.93"/></g><g id="g478"><path id="rect4367-7" class="cls-5" d="M-1.21,0V12.53L75.27,56.69h8.56V45.17L6,0Z"/><path id="path204-1" class="cls-5" d="M8.82,0,52,24.94h0L81.37,41.87h0l2.46,1.42V38.74l-.19,0h0a1.54,1.54,0,0,1-.71-.12l-.09,0,0,0c-1-.54-1.63-2.07-1.2-2.77a1.35,1.35,0,0,0,.3,1.21l.16.12.11.07a2,2,0,0,0,.37.14,1.19,1.19,0,0,0,1.18-.56,1.86,1.86,0,0,0,.1-.25v-.67a1.23,1.23,0,0,0-.61-.71l-.06,0a1.49,1.49,0,0,0-.53-.2h0l.29-.08a1.7,1.7,0,0,0,.84-.62c0-.06,0-.12.08-.19v-.81a1,1,0,0,0-.43-.54l-.15-.1L83,32.5h-.37a1,1,0,0,0-.82.53l0,.05a1.67,1.67,0,0,0-.15.68,1.23,1.23,0,0,0,.1.62h0a2,2,0,0,0-.45-.37h0a2,2,0,0,0-.38-.17l-.32,0a1,1,0,0,0-1,.56,1.44,1.44,0,0,0-.15.43,1.11,1.11,0,0,0,.53,1.11L80,36a1.34,1.34,0,0,0,1.45-.28h0a2,2,0,0,1-2,.72h-.06l-.11,0-.1,0h-.07a3,3,0,0,1-.42-.14h0a1.62,1.62,0,0,1-1-1.61h0l-.15.08,0,0a.42.42,0,0,1-.14.06l0,0-.13,0h0l-.11,0h-.36a1.5,1.5,0,0,1-.29-.06h0l-.14-.06c-1.13-.46-1.83-2.15-1.34-2.87a1.26,1.26,0,0,0,.55,1.43,2,2,0,0,0,.37.14A1.17,1.17,0,0,0,77,32.89a1.59,1.59,0,0,0,.15-.42,1.2,1.2,0,0,0-.66-1.2l-.06,0a1.32,1.32,0,0,0-.53-.2h0l.29-.08a1.66,1.66,0,0,0,.84-.62,2.67,2.67,0,0,0,.14-.36,1.15,1.15,0,0,0-.49-1.18l-.14-.1-.29-.09a1.13,1.13,0,0,0-1.19.54l0,.05a1.52,1.52,0,0,0-.15.68,1.33,1.33,0,0,0,.09.62h0a2,2,0,0,0-.45-.37h0a2.27,2.27,0,0,0-.38-.17,1.1,1.1,0,0,0-1.29.53,1.22,1.22,0,0,0-.15.42A1.1,1.1,0,0,0,73.18,32a1.23,1.23,0,0,0,1.52-.23h0c-.53,1.1-3.82,1.13-3.77-1.09C69.06,31.88,67.44,29,68.12,28a1.25,1.25,0,0,0,.56,1.43,3.14,3.14,0,0,0,.36.14A1.16,1.16,0,0,0,70.22,29a1.59,1.59,0,0,0,.15-.42,1.18,1.18,0,0,0-.66-1.19l-.06,0a1.34,1.34,0,0,0-.52-.2h0l.29-.08a1.66,1.66,0,0,0,.84-.62,1.78,1.78,0,0,0,.14-.36,1.18,1.18,0,0,0-.52-1.21l-.1-.06-.31-.1a1.13,1.13,0,0,0-1.19.54l0,.05a1.52,1.52,0,0,0-.15.68,1.33,1.33,0,0,0,.09.62h0a2,2,0,0,0-.45-.37h0a1.84,1.84,0,0,0-.37-.17,1.1,1.1,0,0,0-1.29.53,1.22,1.22,0,0,0-.15.42,1.1,1.1,0,0,0,.53,1.12,1.23,1.23,0,0,0,1.52-.23h0c-.53,1.1-3.82,1.13-3.76-1.09-1.89,1.16-3.5-1.72-2.83-2.72a1.25,1.25,0,0,0,.56,1.43,2.61,2.61,0,0,0,.37.14,1.15,1.15,0,0,0,1.17-.57,1.3,1.3,0,0,0,.15-.42A1.17,1.17,0,0,0,63,23.51l-.05,0a1.44,1.44,0,0,0-.53-.2h0l.29-.08a1.61,1.61,0,0,0,.84-.62,1.78,1.78,0,0,0,.14-.36A1.13,1.13,0,0,0,63.08,21l0,0h0l-.07,0-.26-.08a1.13,1.13,0,0,0-1.18.54l0,.05a1.67,1.67,0,0,0-.15.68,1.23,1.23,0,0,0,.1.62h0a1.58,1.58,0,0,0-.44-.37h0a1.28,1.28,0,0,0-.37-.17,1.09,1.09,0,0,0-1.29.53,1.48,1.48,0,0,0-.14.42,1.11,1.11,0,0,0,.52,1.12A1.23,1.23,0,0,0,61.21,24h0c-.53,1.08-3.83,1.13-3.76-1.08-1.87,1.17-3.49-1.71-2.81-2.71a1.25,1.25,0,0,0,.56,1.43,3.14,3.14,0,0,0,.36.14,1.16,1.16,0,0,0,1.18-.57,1.59,1.59,0,0,0,.15-.42,1.18,1.18,0,0,0-.66-1.19l0,0a1.64,1.64,0,0,0-.53-.2h0l.29-.08a1.66,1.66,0,0,0,.84-.62,1.78,1.78,0,0,0,.14-.36,1.16,1.16,0,0,0-.54-1.24h0A1.27,1.27,0,0,0,56,17h-.2a1.07,1.07,0,0,0-1,.55l0,0a1.52,1.52,0,0,0-.15.68,1.33,1.33,0,0,0,.09.62h0a1.65,1.65,0,0,0-.45-.37h0a1.61,1.61,0,0,0-.37-.17,1.1,1.1,0,0,0-1.29.53,1.47,1.47,0,0,0-.15.42A1.12,1.12,0,0,0,53,20.39a1.23,1.23,0,0,0,1.52-.23h0a2.06,2.06,0,0,1-2.09.7h0a2.38,2.38,0,0,1-.69-.2l-.08,0h0l-.22-.13h0a1.6,1.6,0,0,1-.65-1.4c-1.88,1.16-3.49-1.72-2.81-2.72a1.26,1.26,0,0,0,.55,1.43,3.17,3.17,0,0,0,.37.14,1.18,1.18,0,0,0,1.18-.57,1.59,1.59,0,0,0,.15-.42,1.2,1.2,0,0,0-.66-1.2l-.06,0a1.47,1.47,0,0,0-.53-.19h0l.29-.08a1.7,1.7,0,0,0,.84-.62,3.31,3.31,0,0,0,.14-.36,1.17,1.17,0,0,0-.49-1.19l-.15-.09-.28-.09a1.13,1.13,0,0,0-1.19.54l0,.05a1.52,1.52,0,0,0-.15.68A1.21,1.21,0,0,0,48,15h0a1.78,1.78,0,0,0-.45-.37h0a1.67,1.67,0,0,0-.38-.17,1.08,1.08,0,0,0-1.29.53,1.22,1.22,0,0,0-.15.42,1.1,1.1,0,0,0,.53,1.12,1.23,1.23,0,0,0,1.52-.23h0C47.26,17.37,44,17.41,44,15.19c-1.88,1.16-3.5-1.72-2.82-2.72a1.25,1.25,0,0,0,.56,1.43,2.56,2.56,0,0,0,.36.14,1.17,1.17,0,0,0,1.18-.57,1.67,1.67,0,0,0,.15-.43,1.19,1.19,0,0,0-.66-1.18l-.06,0a1.47,1.47,0,0,0-.53-.19h0l.29-.08a1.66,1.66,0,0,0,.84-.62,3.31,3.31,0,0,0,.14-.36,1.17,1.17,0,0,0-.52-1.21l-.1-.06-.31-.1a1.13,1.13,0,0,0-1.19.54l0,0a1.52,1.52,0,0,0-.15.68,1.21,1.21,0,0,0,.09.62h0a1.78,1.78,0,0,0-.45-.37h0a1.42,1.42,0,0,0-.37-.17,1.08,1.08,0,0,0-1.29.53,1.22,1.22,0,0,0-.15.42,1.1,1.1,0,0,0,.53,1.12A1.23,1.23,0,0,0,41,12.39h0c-.53,1.09-3.82,1.13-3.77-1.09-1.88,1.16-3.5-1.72-2.82-2.72A1.25,1.25,0,0,0,35,10a1.8,1.8,0,0,0,.36.13,1.14,1.14,0,0,0,1.18-.56,1.67,1.67,0,0,0,.15-.43A1.17,1.17,0,0,0,36,8l-.05,0a1.61,1.61,0,0,0-.53-.19h0l.29-.08a1.66,1.66,0,0,0,.84-.62,2,2,0,0,0,.14-.36,1.13,1.13,0,0,0-.54-1.23l0,0h0l-.08-.05a1.86,1.86,0,0,0-.25-.08,1.13,1.13,0,0,0-1.18.54l0,0a1.76,1.76,0,0,0-.15.68,1.27,1.27,0,0,0,.1.63h0a1.58,1.58,0,0,0-.44-.37h0a1.6,1.6,0,0,0-.37-.18,1.12,1.12,0,0,0-1.29.53,2.16,2.16,0,0,0-.15.43,1.12,1.12,0,0,0,.53,1.12,1.24,1.24,0,0,0,1.52-.23h0c-.53,1.08-3.83,1.13-3.76-1.08-1.87,1.17-3.49-1.71-2.81-2.71a1.25,1.25,0,0,0,.56,1.43,3.14,3.14,0,0,0,.36.14,1.16,1.16,0,0,0,1.18-.57A1.59,1.59,0,0,0,30,5.3a1.18,1.18,0,0,0-.66-1.19l-.06,0a1.32,1.32,0,0,0-.53-.2h0L29,3.8a1.66,1.66,0,0,0,.84-.62A2.67,2.67,0,0,0,30,2.82a1.18,1.18,0,0,0-.54-1.24h0l0,0a1.83,1.83,0,0,0-.34-.12A1.14,1.14,0,0,0,27.9,2l0,0a1.52,1.52,0,0,0-.15.68,1.33,1.33,0,0,0,.09.62h0A1.62,1.62,0,0,0,27.36,3h0A1.28,1.28,0,0,0,27,2.79a1.09,1.09,0,0,0-1.29.53,1.47,1.47,0,0,0-.15.42,1.12,1.12,0,0,0,.53,1.12,1.23,1.23,0,0,0,1.52-.23h0c-.53,1.09-3.82,1.13-3.75-1.09C22,4.71,20.34,1.84,21,.84a1.24,1.24,0,0,0,.55,1.43,3.17,3.17,0,0,0,.37.14,1.18,1.18,0,0,0,1.18-.57,2.05,2.05,0,0,0,.15-.42A1.2,1.2,0,0,0,22.62.23l-.06,0A1.32,1.32,0,0,0,22,0H18.81a1.06,1.06,0,0,0,.53,1A1.24,1.24,0,0,0,20.86.74h0c-.5,1-3.47,1.13-3.74-.75Z"/><path id="path204-1-6" class="cls-5" d="M-1.21,14.4V19l.19,0h0a1.5,1.5,0,0,1,.7.12l.1.05h0c1,.54,1.63,2.07,1.19,2.77a1.27,1.27,0,0,0-.3-1.2.57.57,0,0,0-.15-.12l-.12-.08a3.14,3.14,0,0,0-.36-.14,1.16,1.16,0,0,0-1.18.57,1.86,1.86,0,0,0-.1.25v.67a1.24,1.24,0,0,0,.61.7l.06,0a1.47,1.47,0,0,0,.53.19H0l-.29.08a1.72,1.72,0,0,0-.84.62,1.54,1.54,0,0,0-.08.19v.82A1.11,1.11,0,0,0-.79,25l.15.09.29.09H0a1.06,1.06,0,0,0,.82-.54l0,0A1.52,1.52,0,0,0,1,23.92a1.21,1.21,0,0,0-.09-.62h0a1.78,1.78,0,0,0,.45.37h0a1.67,1.67,0,0,0,.38.17,1.27,1.27,0,0,0,.32,0,1,1,0,0,0,1-.57,1.22,1.22,0,0,0,.15-.42,1.1,1.1,0,0,0-.53-1.12l-.08,0-.17-.07A1.31,1.31,0,0,0,1.17,22h0a2,2,0,0,1,2-.71h.18l.1,0,.06,0a2.13,2.13,0,0,1,.43.13h0a1.61,1.61,0,0,1,1,1.61L5.08,23l0,0,.13-.06,0,0,.13,0h0l.11,0h0l.13,0h.18l.3.05h0l.15.05c1.13.46,1.82,2.15,1.33,2.87a1.24,1.24,0,0,0-.55-1.43,1.66,1.66,0,0,0-.37-.13,1.15,1.15,0,0,0-1.17.56,1.36,1.36,0,0,0-.15.43,1.16,1.16,0,0,0,.66,1.19l0,0a1.61,1.61,0,0,0,.53.19h0l-.28.08a1.68,1.68,0,0,0-.84.63,1.7,1.7,0,0,0-.14.35A1.16,1.16,0,0,0,6,28.9l.15.09.29.09a1.13,1.13,0,0,0,1.18-.54l0,0a1.59,1.59,0,0,0,.15-.68,1.37,1.37,0,0,0-.09-.63h0a1.49,1.49,0,0,0,.45.37h0a1.93,1.93,0,0,0,.38.18,1.11,1.11,0,0,0,1.29-.53,1.67,1.67,0,0,0,.15-.43,1.12,1.12,0,0,0-.53-1.12,1.26,1.26,0,0,0-1.52.23h0c.53-1.09,3.82-1.13,3.76,1.1,1.89-1.17,3.5,1.71,2.82,2.71a1.23,1.23,0,0,0-.55-1.42,2,2,0,0,0-.37-.14,1.15,1.15,0,0,0-1.17.56,1.46,1.46,0,0,0-.15.43,1.16,1.16,0,0,0,.65,1.18l.06,0a1.54,1.54,0,0,0,.53.19h0l-.29.08a1.77,1.77,0,0,0-.84.63,2.48,2.48,0,0,0-.13.35,1.15,1.15,0,0,0,.51,1.21l.11.06a2.28,2.28,0,0,0,.31.1,1.11,1.11,0,0,0,1.18-.54l0,0a1.59,1.59,0,0,0,.15-.68,1.37,1.37,0,0,0-.09-.63h0a1.49,1.49,0,0,0,.45.37h0a1.6,1.6,0,0,0,.37.18,1.12,1.12,0,0,0,1.29-.53,1.67,1.67,0,0,0,.15-.43,1.12,1.12,0,0,0-.53-1.12,1.26,1.26,0,0,0-1.52.23h0c.53-1.09,3.82-1.13,3.76,1.1,1.89-1.17,3.5,1.71,2.82,2.71a1.23,1.23,0,0,0-.55-1.42,2,2,0,0,0-.37-.14,1.15,1.15,0,0,0-1.17.56A1.46,1.46,0,0,0,19,33a1.16,1.16,0,0,0,.65,1.18l.06,0a1.54,1.54,0,0,0,.53.19h0l-.29.08a1.77,1.77,0,0,0-.84.63c-.05.11-.1.24-.14.35a1.15,1.15,0,0,0,.55,1.23l0,0h0l.08,0,.25.08a1.12,1.12,0,0,0,1.19-.54l0,0a1.52,1.52,0,0,0,.15-.68,1.33,1.33,0,0,0-.09-.62h0a2,2,0,0,0,.45.36h0a1.82,1.82,0,0,0,.37.18A1.11,1.11,0,0,0,23.3,35a1.36,1.36,0,0,0,.15-.43,1.08,1.08,0,0,0-.53-1.11,1.23,1.23,0,0,0-1.52.23h0v0c.53-1.08,3.82-1.12,3.75,1.09,1.88-1.18,3.49,1.7,2.81,2.7A1.24,1.24,0,0,0,27.4,36a2.82,2.82,0,0,0-.37-.13,1.15,1.15,0,0,0-1.17.56,1.46,1.46,0,0,0-.15.43,1.16,1.16,0,0,0,.65,1.18l.06,0a1.54,1.54,0,0,0,.53.19h0l-.29.08a1.76,1.76,0,0,0-.84.62,3.17,3.17,0,0,0-.13.36,1.18,1.18,0,0,0,.54,1.25h0a2,2,0,0,0,.35.12h.2a1.07,1.07,0,0,0,1-.55l0,0a1.46,1.46,0,0,0,.15-.68,1.25,1.25,0,0,0-.09-.63h0a1.78,1.78,0,0,0,.45.37h0a1.5,1.5,0,0,0,.36.18A1.11,1.11,0,0,0,30,38.85a1.36,1.36,0,0,0,.15-.43,1.1,1.1,0,0,0-.53-1.12,1.26,1.26,0,0,0-1.52.23h0a2.1,2.1,0,0,1,2.1-.69h0a2.55,2.55,0,0,1,.68.2l.09,0h0l.22.13h0a1.58,1.58,0,0,1,.65,1.4c1.87-1.17,3.48,1.71,2.81,2.71a1.23,1.23,0,0,0-.56-1.42,1.77,1.77,0,0,0-.37-.14,1.15,1.15,0,0,0-1.17.56,1.46,1.46,0,0,0-.15.43,1.17,1.17,0,0,0,.66,1.2l0,0a1.91,1.91,0,0,0,.53.2h0l-.29.08a1.66,1.66,0,0,0-.84.62,1.7,1.7,0,0,0-.14.35,1.15,1.15,0,0,0,.48,1.19l.15.09.29.09a1.13,1.13,0,0,0,1.19-.54l0,0a1.52,1.52,0,0,0,.15-.68,1.33,1.33,0,0,0-.09-.62v0h0a1.49,1.49,0,0,0,.45.37h0a1.93,1.93,0,0,0,.38.18,1.11,1.11,0,0,0,1.29-.53,1.67,1.67,0,0,0,.15-.43,1.09,1.09,0,0,0-.53-1.11,1.23,1.23,0,0,0-1.52.23h0v0c.53-1.09,3.82-1.12,3.76,1.1,1.89-1.17,3.5,1.71,2.82,2.71a1.23,1.23,0,0,0-.55-1.42,2,2,0,0,0-.37-.14,1.15,1.15,0,0,0-1.17.56,1.46,1.46,0,0,0-.15.43,1.17,1.17,0,0,0,.66,1.19l.05,0a1.91,1.91,0,0,0,.53.2h0l-.28.08a1.61,1.61,0,0,0-.84.62,1.7,1.7,0,0,0-.14.35,1.14,1.14,0,0,0,.52,1.21l.1.06a1.41,1.41,0,0,0,.31.1A1.13,1.13,0,0,0,41.28,48l0,0a1.52,1.52,0,0,0,.15-.68,1.33,1.33,0,0,0-.09-.62v0h0a1.49,1.49,0,0,0,.45.37h0a1.6,1.6,0,0,0,.37.18,1.11,1.11,0,0,0,1.29-.53,1.67,1.67,0,0,0,.15-.43,1.09,1.09,0,0,0-.53-1.11,1.23,1.23,0,0,0-1.52.23h0v0c.53-1.09,3.82-1.12,3.76,1.1,1.89-1.17,3.5,1.71,2.82,2.71a1.23,1.23,0,0,0-.55-1.42,2,2,0,0,0-.37-.14,1.15,1.15,0,0,0-1.17.56,1.46,1.46,0,0,0-.15.43,1.17,1.17,0,0,0,.65,1.19l.06,0a1.8,1.8,0,0,0,.53.2h0l-.29.08a1.7,1.7,0,0,0-.84.62,2.48,2.48,0,0,0-.13.35,1.15,1.15,0,0,0,.54,1.24l0,0h0l.08,0,.25.09A1.15,1.15,0,0,0,48,51.85l0-.05a1.52,1.52,0,0,0,.15-.68,1.21,1.21,0,0,0-.09-.62h0a1.74,1.74,0,0,0,.45.36l0,0a1.84,1.84,0,0,0,.37.17,1.11,1.11,0,0,0,1.29-.53,1.36,1.36,0,0,0,.15-.43A1.09,1.09,0,0,0,49.84,49a1.23,1.23,0,0,0-1.52.23h0c.53-1.09,3.82-1.13,3.75,1.08,1.88-1.18,3.49,1.7,2.81,2.7a1.23,1.23,0,0,0-.55-1.42,2,2,0,0,0-.37-.14,1.15,1.15,0,0,0-1.17.56,1.46,1.46,0,0,0-.15.43,1.16,1.16,0,0,0,.65,1.18l.06,0a1.54,1.54,0,0,0,.53.19h0l-.28.08a1.68,1.68,0,0,0-.84.63,1.7,1.7,0,0,0-.14.35,1.18,1.18,0,0,0,.54,1.25h0a2,2,0,0,0,.35.12,1.11,1.11,0,0,0,1.18-.54l0,0a1.67,1.67,0,0,0,.15-.68,1.23,1.23,0,0,0-.1-.62h0a2,2,0,0,0,.45.36l0,0a2.19,2.19,0,0,0,.37.17,1.1,1.1,0,0,0,1.28-.53,1.36,1.36,0,0,0,.15-.43,1.08,1.08,0,0,0-.53-1.11,1.21,1.21,0,0,0-1.51.23h0v0c.53-1.09,3.83-1.12,3.76,1.1,1.79-1.11,3.34,1.43,2.89,2.54h.27a2.56,2.56,0,0,1,3,0h7.14L30.6,32.75h0L1.25,15.82h0ZM60.47,55.28a1.12,1.12,0,0,0-1,.57,1.81,1.81,0,0,0-.15.43,1.37,1.37,0,0,0,0,.41h2.24A1.18,1.18,0,0,0,61,55.43a2,2,0,0,0-.36-.14Zm2.25,1.28a1.21,1.21,0,0,0-.57.13h1.07A1.16,1.16,0,0,0,62.72,56.56Z"/></g></g></g></svg>