<svg id="Слой_1" data-name="Слой 1" xmlns="http://www.w3.org/2000/svg" viewBox="0 0 56.69 56.69"><defs><style>.cls-1{fill:#046333;}.cls-2,.cls-3,.cls-4,.cls-5{fill:#fff;}.cls-2,.cls-3{stroke:#fff;stroke-width:0.25px;fill-rule:evenodd;}.cls-3,.cls-6{stroke-linecap:round;stroke-linejoin:round;}.cls-5{stroke:#010101;}.cls-6{fill:none;stroke:#f7c607;stroke-width:8.12px;}.cls-7{fill:#f7c607;}</style></defs><g id="g13237"><path id="_21399192" data-name="21399192" class="cls-1" d="M58.08,57.67V-1.42H-1.42V57.67Z"/><g id="g13004"><g id="g9244"><path id="path3159" class="cls-2" d="M18.67,29.51c-1.52,2.07-.43,3.42,1.13,3.51,1,.07,3.17-1.32,3.17-3l-.59-.3c.33.84,0,1.11-.71,1.68C20.3,32.58,17.5,32.66,18.67,29.51Z"/><path id="path3115" class="cls-2" d="M30.66,34.94c8.52.22,11.23-7.29,6-13.71l-.52.71c.34,3,.83,5.94.88,9a1.59,1.59,0,0,1-2.82-.53A8.65,8.65,0,0,0,32.83,26l-.42.7a11.44,11.44,0,0,1,1.14,3.7c-2.43,2.65-5.12,3.19-4.12-.3-1.92,3.06,1,5.21,4.28.51.71,3.21,3.44,1.21,3.61.52A26.15,26.15,0,0,0,36.86,23c2.37,3.73,2.45,6.43,1.19,8.23-1.4,2-4.45,2.94-7.39,3.73Z"/><path id="path3117" class="cls-2" d="M35.49,26.46c-1.82.12-2.75-.22-1.77-1.45s1.89-.24,2.14,1.36-3.21,3.43-4.39,3.43c-1.8,0-2.63-2.1-1-4C28.37,31.32,35.09,28.12,35.49,26.46Zm-1.26-1.28c-.22,0-.38.35-.27.42a.86.86,0,0,0,.88,0c.11-.23-.3-.39-.61-.4Z"/><path id="path3140" class="cls-2" d="M25.6,29.06c-1.76,3.13,0,4.43,2.24,4.07a7,7,0,0,0,3.93-2.22,74.73,74.73,0,0,0-.27-7.52c.87-.95-.08-.95-.41-2-.15.6-.52,1.24-.17,1.7a70,70,0,0,1,.39,7.56c-1.76,1.3-3.09,1.78-4,1.76-2,0-2.38-1.51-1.67-3.38Z"/><path id="path3150" class="cls-2" d="M29.18,29.89a61.68,61.68,0,0,0-.31-6.71c.91-.92,0-.94-.34-2-.18.59-.56,1.22-.22,1.7.15,2.53.29,5.06.32,7.59.21-.12.45-.17.55-.61Z"/><path id="path3152" class="cls-2" d="M22.38,29.78c-.23-.26-.38-.55-.57-.8,0-.35.24-.68.27-.86a5.34,5.34,0,0,0,.72.94m.31.17a4.74,4.74,0,0,0,1.47.17c1.92,0,3.94-.26,3.72,2.1a3.74,3.74,0,0,1-3.81,3.29c-2.44,0-4.52-2.46-.76-7a6.48,6.48,0,0,1,1.23.07,3,3,0,0,0,2.15-.58c-.09-1.48-.09-2.89-.29-4.23-.34-.47,0-1.1.22-1.69.3,1,1.25,1.05.34,2a27.55,27.55,0,0,1,.24,3.91,3,3,0,0,1-2.14,1.56c-1.36-.18-2-1.91-3.4-1.34.4-1.56,4-1.92,4.36-.69-.24,1.29-3.6.77-4.5,4.93-.27,1.28,1.21,2.46,2.74,2.37a3.25,3.25,0,0,0,3.23-2.62c.13-1.32-1.92-1.17-2.78-1.15a5.23,5.23,0,0,1-2.51-.4m1.27-2.87c.23-.19,1-.32,1.28,0a3.12,3.12,0,0,0-.58.43A6.16,6.16,0,0,1,23.89,27.06Z"/><path id="path3161" class="cls-2" d="M25.8,22.67a2.36,2.36,0,0,1,.31,1.11,1.41,1.41,0,0,1-1.19,1.09,1,1,0,0,1-1-.55c0-.06-.17-.2-.3-.13-.59.88-1,1.25-1.56,1.25-1.06,0-.75-.88-1.73-1.15a1.81,1.81,0,0,0-1.43,1.11c-1.3,3.38-2.5,0-2-1.58.08,1.5.48,2.39.88,2.37s.56-.66.94-1.32c.3-.5,1-1.41,1.74-1.41s.25,1.15,1.61,1.13c.65,0,1.25-.47,1.86-1.38.14,0,.17.2.2.27a.86.86,0,0,0,1.5.39c-.05-.17,0-.45-.23-.51Z"/><path id="path3163" class="cls-2" d="M30.06,19.87a1.31,1.31,0,0,1-1.54-.26c.52-.1.92-.27,1-.64-.24-.48-.79-.68-1.57-.69-1,0-1.59.41-1.65.94.48,0,.92-.11,1.11.32a7.19,7.19,0,0,1-3,.51,2.31,2.31,0,0,1-2.54-1.3.44.44,0,0,0-.27-.1c-.56,0-1,1.76-1.59,1.76s-.49-1.14-.67-1.75c-.15,1,.2,4.5,2.13.65.06-.13.14-.09.19,0a2.94,2.94,0,0,0,2.72,1.5,7.33,7.33,0,0,0,3.47-1,1.87,1.87,0,0,0,3.3-.4c.11-.36.12-1.06-.29-1.07-.58,0-1,1.26-.86,2.41,0,0,.07-.29.07-.29M27.58,19c.38-.16.75-.23,1,.12a1.52,1.52,0,0,0-.49.21A4.7,4.7,0,0,1,27.58,19Zm2.79.79c.1-.37.15-.68.49-.87C30.93,19.26,30.94,19.49,30.37,19.74Z"/><path id="path3169" class="cls-2" d="M32.65,20.33a4,4,0,0,1-.25-1,1,1,0,0,1,1.19-1.06,7.28,7.28,0,0,1,1.64.46c.47.14,1.1.26,1.7.41.34.14,0,.5-.09.55-1.5.53-2.57,1.38-3.53,1.42a1.79,1.79,0,0,1-1.54-1c0-1.35-.09-2.93-.23-3.93a1.78,1.78,0,0,0,.37-.51c.12,1.31.17,2.69.19,4.09a1.07,1.07,0,0,0,.55.54Zm1,.1c-.81.21-.71-.41-.79-.79s0-.95.6-.83a18.29,18.29,0,0,1,2.27.74Z"/><path id="path3173" class="cls-2" d="M32.83,21.09l.11.5H33l0-.46"/><path id="path5196" class="cls-3" d="M20,26.26l.41-.38.47.37-.44.35Z"/><path id="path6168" class="cls-3" d="M21,26.13l.41-.38.48.37-.44.35Z"/><path id="path6170" class="cls-3" d="M18.12,22.17l.41-.39.47.37-.43.36Z"/><path id="path6172" class="cls-3" d="M18.3,23.29l.42-.38.47.37-.44.35Z"/><path id="path6174" class="cls-3" d="M25.81,25.18l.38-.28.35.35-.4.25Z"/><path id="path6176" class="cls-3" d="M20.8,18l.27-.25.31.24-.29.23Z"/><path id="path6178" class="cls-3" d="M21.48,17.89l.27-.26.31.25-.29.23Z"/><path id="path6180" class="cls-3" d="M35.83,20.74l-.25.2-.25-.23.27-.18Z"/><path id="path9240" class="cls-2" d="M23.74,27.8l0,.42.73.06.59-.4-1.29-.08Z"/><path id="path9242" class="cls-2" d="M30,20l.22,0,0,.55-.13,0L30,20Z"/></g><path id="path2722" class="cls-4" d="M28.35,42c8.29,0,15-6.15,15-13.69A13.15,13.15,0,0,0,38.15,18a11.28,11.28,0,0,1,3.09,7.72c0,6.55-5.77,11.87-12.89,11.87s-12.9-5.32-12.9-11.87A11.28,11.28,0,0,1,18.54,18,13.15,13.15,0,0,0,13.3,28.31C13.3,35.85,20.05,42,28.35,42Z"/><g id="g2908"><path id="path2910" class="cls-5" d="M26.31,49.61a12.07,12.07,0,0,1-11-1c-.15-.07-.23,0-.08.41a2.74,2.74,0,0,1-.45,3.26c-.49.65.08.75.91.69a48.76,48.76,0,0,0,10.37-2Z"/><path id="path2912" class="cls-5" d="M26.24,51.39a36.94,36.94,0,0,1-6.11,1.48c-1,.14-1,.72.83.92s4.22-1,5.65-2.09Z"/><path id="path2914" class="cls-5" d="M28.35,48.1c.45,0,1.28-.17,2.11-.27,1.54-.24.41,1.92-2.11,1.92v.72c2.56,0,5.24-2.54,4.67-3.67-.79-1.65-3-.24-4.67-.24s-3.89-1.41-4.68.24c-.56,1.13,2.11,3.67,4.68,3.67v-.72c-2.53,0-3.66-2.16-2.11-1.92C27.07,47.93,27.89,48.1,28.35,48.1Z"/><path id="path2916" class="cls-5" d="M30.38,49.61a12.07,12.07,0,0,0,11-1c.16-.07.23,0,.08.41a2.74,2.74,0,0,0,.45,3.26c.49.65-.07.75-.9.69a48.63,48.63,0,0,1-10.37-2Z"/><path id="path2918" class="cls-5" d="M30.46,51.39a35.69,35.69,0,0,0,6.11,1.48c1,.14,1,.72-.83.92s-4.23-1-5.66-2.09Z"/><path id="path2920" class="cls-5" d="M28.46,51.05c.08.58.19,1.85,1.06,1.3A2.32,2.32,0,0,0,31,50.06c0-.66-.87-1.62-2.6-1.62s-2.6,1-2.6,1.62a2.31,2.31,0,0,0,1.43,2.29c.87.55.94-.72,1.05-1.3C28.27,50.84,28.46,50.91,28.46,51.05Z"/></g><g id="g2724"><path id="path2726" class="cls-5" d="M27.25,7.11C26.76,4.57,22.65,4.4,22,4s-.64,0-.37.69c.75,1.78,3.31,2.5,4.48,2.71C27.07,7.52,27.37,7.59,27.25,7.11Z"/><path id="path2728" class="cls-5" d="M28.5,7.17c.41-2.6-3.66-3.84-4.15-4.42s-.64-.24-.38.48a7.87,7.87,0,0,0,3.32,3.84C28.16,7.48,28.42,7.65,28.5,7.17Z"/><path id="path2730" class="cls-5" d="M31.85,8.68c.38-3.12-2.94-3.6-3.8-4.59-.57-.62-.61-.28-.42.44a7.89,7.89,0,0,0,3.05,4C31.48,9,31.82,9.16,31.85,8.68Z"/><path id="path2732" class="cls-5" d="M30.84,8C27.4,6,25,7.11,24,7s-1.24.45.38,1.27a9,9,0,0,0,5.88.48C31.4,8.34,31.06,8.13,30.84,8Z"/><path id="path2734" class="cls-5" d="M36,9.37C34.94,6,32.49,6.56,31.78,6.14s-.79-.3-.64.45c.3,1.34,2.82,2.81,4.07,3.26C35.66,10,36.23,10.19,36,9.37Z"/><path id="path2736" class="cls-5" d="M35.51,10c-2.94-2.16-5.24-.55-6.14-.79-.68-.17-.38.24-.12.42,1.89,1.2,4.22,1.85,6,1.09C36,10.4,36,10.33,35.51,10Z"/><path id="path2738" class="cls-5" d="M41.88,12.15c0-2.13-4.79-3-5.8-4.32-.61-.79-1.14-.38-.83.89.45,1.64,3.77,3.46,5.58,3.81C41.92,12.73,41.88,12.39,41.88,12.15Z"/><path id="path2740" class="cls-5" d="M41.73,12.53c-3-2.51-5.62-1.69-6.56-1.93s-1.32.31.15,1.34a9,9,0,0,0,5.77,1.24C42.26,12.94,42,12.7,41.73,12.53Z"/><path id="path2742" class="cls-5" d="M47.2,16.2c-.87-3.64-3.62-4.39-4.3-5.08s-1.32-.48-.75,1.17a7.88,7.88,0,0,0,4.07,4.08C47.35,16.81,47.27,16.47,47.2,16.2Z"/><path id="path2744" class="cls-5" d="M47.16,16.68c-2.22-3.26-5.13-3.16-6-3.61s-1.47-.06-.3,1.34a8.74,8.74,0,0,0,5.43,2.75C47.54,17.23,47.31,16.92,47.16,16.68Z"/><path id="path2746" class="cls-5" d="M50,20.55c1.28-3.7-1.66-5.07-2-5.69s-.68-.62-.87,0c-.83,2.64,1.85,5.22,2.26,5.73S50,20.86,50,20.55Z"/><path id="path2748" class="cls-5" d="M49.42,21.58c-1-4.15-3.69-3.91-4.3-4.49s-.71-.17-.6.58c.3,2,3,3.4,4.19,4.08C49.08,22,49.54,22.2,49.42,21.58Z"/><path id="path2750" class="cls-5" d="M52,26.45a5.94,5.94,0,0,0-1-7.13c-.68-.55-1.1-.79-.87,0,.3,1.2-.75,4.29.87,6.55C51.5,26.63,51.57,27.35,52,26.45Z"/><path id="path2752" class="cls-5" d="M51,27.24a5.39,5.39,0,0,0-2.72-5.45c-.94-.52-1-.38-1,.34.08,2.23,2.38,4.08,3,5.11S51,27.48,51,27.24Z"/><path id="path2754" class="cls-5" d="M50.59,33.49a6.6,6.6,0,0,1,2.34-7.65c.83-.55,1.36-.76,1,.1-.57,1.27,0,4.8-2.11,7C51.12,33.73,50.86,34.52,50.59,33.49Z"/><path id="path2756" class="cls-5" d="M50.89,32.49a5.77,5.77,0,0,0-2.07-6.62c-.72-.45-1.17-.62-.83.1.45,1.1,0,4.19,1.85,6.11C50.44,32.73,50.67,33.38,50.89,32.49Z"/><path id="path2758" class="cls-5" d="M49.5,30.64a5.77,5.77,0,0,0-1.17,6.62c.56,1,.64.93,1.17.21,1.43-2.1.56-5.12.64-6.45S49.72,30.43,49.5,30.64Z"/><path id="path2760" class="cls-5" d="M52.85,33.79a6.09,6.09,0,0,1-3.8,5.67c-1.14.37-1.14.27-1-.55.52-3.09,3.12-4.22,4.07-5.22S52.85,33.52,52.85,33.79Z"/><path id="path2762" class="cls-5" d="M45.84,42c3.32-2.74,1.55-4.67,1.7-6.45.07-1-.34-.72-.72-.38a7,7,0,0,0-1.77,6.56C45.24,42.27,45.54,42.2,45.84,42Z"/><path id="path2764" class="cls-5" d="M50.29,40.18a7.61,7.61,0,0,1-6.45,5c-1.43.07-1.39,0-.9-.93,1.85-3.22,5.13-3.6,6.6-4.42S50.4,39.87,50.29,40.18Z"/><path id="path2766" class="cls-5" d="M41.28,45.84c4.3-2,3.43-5.22,4.22-6,.57-.58-.11-.52-.45-.31-2.53,1.34-4.56,3.46-4.6,5.73C40.45,46.08,40.52,46.18,41.28,45.84Z"/><path id="path2768" class="cls-5" d="M35.4,49.47c5.43.79,8-2.95,9.54-3.29.83-.17.22-.48-.19-.52-3.62-.37-8.22,1.17-9.62,2.89C34.57,49.23,34.57,49.37,35.4,49.47Z"/><path id="path2770" class="cls-5" d="M40.9,43.61c-1.09,3.26-5.16,5.93-8.22,6.14-1.43.1-1.43,0-.9-.9,2.45-4,6.71-4.73,8.22-5.76C41.28,42.2,41,43.3,40.9,43.61Z"/><path id="path2772" class="cls-5" d="M29.44,7.11C29.93,4.57,34,4.4,34.68,4s.64,0,.38.69c-.76,1.78-3.32,2.5-4.49,2.71C29.63,7.52,29.33,7.59,29.44,7.11Z"/><path id="path2774" class="cls-5" d="M28.2,7.17c-.42-2.6,3.65-3.84,4.14-4.42s.64-.24.38.48A7.82,7.82,0,0,1,29.4,7.07C28.54,7.48,28.27,7.65,28.2,7.17Z"/><path id="path2776" class="cls-5" d="M24.84,8.68c-.38-3.12,2.94-3.6,3.81-4.59.56-.62.6-.28.41.44a7.79,7.79,0,0,1-3,4C25.22,9,24.88,9.16,24.84,8.68Z"/><path id="path2778" class="cls-5" d="M25.86,8c3.43-2,5.84-.89,6.82-1s1.25.45-.37,1.27a9,9,0,0,1-5.89.48C25.29,8.34,25.63,8.13,25.86,8Z"/><path id="path2780" class="cls-5" d="M20.69,9.37C21.75,6,24.2,6.56,24.92,6.14s.79-.3.64.45c-.3,1.34-2.83,2.81-4.07,3.26C21,10,20.47,10.19,20.69,9.37Z"/><path id="path2782" class="cls-5" d="M21.18,10c2.94-2.16,5.24-.55,6.15-.79.68-.17.38.24.11.42-1.88,1.2-4.22,1.85-6,1.09C20.69,10.4,20.66,10.33,21.18,10Z"/><path id="path2784" class="cls-5" d="M14.81,12.15c0-2.13,4.79-3,5.81-4.32.6-.79,1.13-.38.83.89-.45,1.64-3.77,3.46-5.58,3.81C14.77,12.73,14.81,12.39,14.81,12.15Z"/><path id="path2786" class="cls-5" d="M15,12.53C18,10,20.58,10.84,21.52,10.6s1.32.31-.15,1.34a9,9,0,0,1-5.77,1.24C14.44,12.94,14.74,12.7,15,12.53Z"/><path id="path2788" class="cls-5" d="M9.5,16.2c.86-3.64,3.62-4.39,4.29-5.08s1.32-.48.76,1.17a7.92,7.92,0,0,1-4.07,4.08C9.35,16.81,9.42,16.47,9.5,16.2Z"/><path id="path2790" class="cls-5" d="M9.53,16.68c2.23-3.26,5.13-3.16,6-3.61s1.47-.06.3,1.34a8.79,8.79,0,0,1-5.43,2.75C9.16,17.23,9.38,16.92,9.53,16.68Z"/><path id="path2792" class="cls-5" d="M6.67,20.55c-1.28-3.7,1.66-5.07,2-5.69s.68-.62.87,0c.83,2.64-1.85,5.22-2.27,5.73S6.74,20.86,6.67,20.55Z"/><path id="path2794" class="cls-5" d="M7.27,21.58c1-4.15,3.7-3.91,4.3-4.49s.72-.17.6.58c-.3,2-3,3.4-4.18,4.08C7.61,22,7.16,22.2,7.27,21.58Z"/><path id="path2796" class="cls-5" d="M4.71,26.45a5.93,5.93,0,0,1,1-7.13c.67-.55,1.09-.79.86,0-.3,1.2.76,4.29-.86,6.55C5.2,26.63,5.12,27.35,4.71,26.45Z"/><path id="path2798" class="cls-5" d="M5.69,27.24A5.37,5.37,0,0,1,8.4,21.79c.95-.52,1-.38,1,.34C9.31,24.36,7,26.21,6.33,27.24S5.73,27.48,5.69,27.24Z"/><path id="path2800" class="cls-5" d="M6.1,33.49a6.61,6.61,0,0,0-2.33-7.65c-.83-.55-1.36-.76-1,.1.56,1.27,0,4.8,2.11,7C5.58,33.73,5.8,34.52,6.1,33.49Z"/><path id="path2802" class="cls-5" d="M5.8,32.49a5.76,5.76,0,0,1,2.08-6.62c.71-.45,1.16-.62.82.1-.45,1.1,0,4.19-1.84,6.11C6.25,32.73,6,33.38,5.8,32.49Z"/><path id="path2804" class="cls-5" d="M7.2,30.64a5.81,5.81,0,0,1,1.17,6.62c-.57,1-.65.93-1.17.21-1.44-2.1-.57-5.12-.64-6.45S7,30.43,7.2,30.64Z"/><path id="path2806" class="cls-5" d="M3.84,33.79a6.1,6.1,0,0,0,3.81,5.67c1.13.37,1.13.27,1-.55-.53-3.09-3.13-4.22-4.07-5.22S3.84,33.52,3.84,33.79Z"/><path id="path2808" class="cls-5" d="M10.85,42c-3.31-2.74-1.54-4.67-1.69-6.45-.08-1,.34-.72.71-.38a7,7,0,0,1,1.78,6.56C11.46,42.27,11.16,42.2,10.85,42Z"/><path id="path2810" class="cls-5" d="M6.4,40.18a7.62,7.62,0,0,0,6.45,5c1.43.07,1.4,0,.91-.93-1.85-3.22-5.13-3.6-6.6-4.42S6.29,39.87,6.4,40.18Z"/><path id="path2812" class="cls-5" d="M15.42,45.84c-4.3-2-3.44-5.22-4.23-6-.56-.58.12-.52.46-.31,2.52,1.34,4.56,3.46,4.59,5.73C16.24,46.08,16.17,46.18,15.42,45.84Z"/><path id="path2814" class="cls-5" d="M21.3,49.47c-5.43.79-8-2.95-9.54-3.29-.83-.17-.23-.48.19-.52,3.62-.37,8.22,1.17,9.61,2.89C22.13,49.23,22.13,49.37,21.3,49.47Z"/><path id="path2816" class="cls-5" d="M15.79,43.61c1.1,3.26,5.17,5.93,8.22,6.14,1.43.1,1.43,0,.91-.9-2.45-4-6.71-4.73-8.22-5.76C15.42,42.2,15.68,43.3,15.79,43.61Z"/></g><g id="g2818"><path id="path2820" class="cls-1" d="M34.72,10.26c-.72-.48-3.36-.2-3.85-.51C31.82,10.47,33.93,10,34.72,10.26Z"/><path id="path2822" class="cls-1" d="M41.09,11.5c-.57-.93-3.92-1.55-4.41-2.37C37.55,10.71,40.15,10.5,41.09,11.5Z"/><path id="path2824" class="cls-1" d="M40.6,12.56c-1.24-1.1-4.15-.65-5-1.3C37.62,12.94,38.75,11.63,40.6,12.56Z"/><path id="path2826" class="cls-1" d="M33.32,7.69a4.47,4.47,0,0,1,2.27,1.65,11.85,11.85,0,0,0-2.42-1.55S33.29,7.72,33.32,7.69Z"/><path id="path2828" class="cls-1" d="M45.69,14.76c-.49-1-2.22-2.17-2.38-2.54C43.8,13.55,45.24,13.86,45.69,14.76Z"/><path id="path2830" class="cls-1" d="M46.14,16.57c-1.51-2.16-3.88-1.92-4.82-2.74C42,14.62,44.75,15.13,46.14,16.57Z"/><path id="path2832" class="cls-1" d="M49.65,19.9c.11-2.3-1.77-3.15-1.85-4.46C47.76,17,49.72,19.08,49.65,19.9Z"/><path id="path2834" class="cls-1" d="M48.71,21.14c-.38-2-2.94-2.13-3.4-3.3C45.31,18.94,48.33,20.07,48.71,21.14Z"/><path id="path2836" class="cls-1" d="M50.82,20c1.35,1.51.41,3.81,1,5.49C51.12,24.26,51.46,21.17,50.82,20Z"/><path id="path2838" class="cls-1" d="M48.59,26.45c2,2,1.21,4.22,2,5.18C49.61,30.3,49.76,27.69,48.59,26.45Z"/><path id="path2840" class="cls-1" d="M52.82,26.73c-1.74,1.75-.68,4.39-1.59,5.62C52.25,31.29,52.1,28,52.82,26.73Z"/><path id="path2842" class="cls-1" d="M50.63,26.73c-.23-2-2.3-3.09-2.49-4.19C47.91,23.64,50.14,25.36,50.63,26.73Z"/><path id="path2844" class="cls-1" d="M49.57,31.56c.34,1.41-.9,4.43-.52,5.36C48.22,35.3,49.76,32.25,49.57,31.56Z"/><path id="path2846" class="cls-1" d="M52.25,34.79c-.83,2.5-2.49,2.33-3,3.84C49.61,37.19,51.8,35.89,52.25,34.79Z"/><path id="path2848" class="cls-1" d="M46.86,36c-1.09,1.68-.19,3.6-1.09,4.8C47.05,39.56,46.37,37.33,46.86,36Z"/><path id="path2850" class="cls-1" d="M49.5,40.55c-1.32,2.23-4,2-5.13,3.64C45.46,42.17,48.82,41.82,49.5,40.55Z"/><path id="path2852" class="cls-1" d="M44.71,40.28c-2.34,1.47-1.62,3-3.39,4.66C43.54,43.3,43.35,41.48,44.71,40.28Z"/><path id="path2854" class="cls-1" d="M43.62,46.25c-2.27-.07-5.51,2.6-7.47,2.4C38.11,49,41.73,46.63,43.62,46.25Z"/><path id="path2856" class="cls-1" d="M40,43.85c-.15,2.09-6,3.43-6.67,4.83C34,46.83,39.17,45.46,40,43.85Z"/><path id="path2858" class="cls-1" d="M26.65,5.25C25.9,4.67,25,4.19,24.73,3.61a3.66,3.66,0,0,0,1.69,1.81C26.5,5.39,26.58,5.29,26.65,5.25Z"/><path id="path2860" class="cls-1" d="M25.37,5.87c-1.17-.51-2.53-.48-3.13-1.2.38.72,1.66,1,2.75,1.37A1.59,1.59,0,0,1,25.37,5.87Z"/><path id="path2862" class="cls-1" d="M22,10.26c.71-.48,3.35-.2,3.84-.51C24.88,10.47,22.77,10,22,10.26Z"/><path id="path2864" class="cls-1" d="M15.6,11.5c.57-.93,3.93-1.55,4.42-2.37C19.15,10.71,16.55,10.5,15.6,11.5Z"/><path id="path2866" class="cls-1" d="M16.09,12.56c1.25-1.1,4.15-.65,5-1.3C19.07,12.94,17.94,11.63,16.09,12.56Z"/><path id="path2868" class="cls-1" d="M21.11,9.34C21.82,8,23.86,7.79,24.39,7,23.6,8.2,21.86,8.41,21.11,9.34Z"/><path id="path2870" class="cls-1" d="M26.91,8.13C29,7.24,31,8,32,7.59,30.8,8.17,27.93,7.89,26.91,8.13Z"/><path id="path2872" class="cls-1" d="M11,14.76c.49-1,2.23-2.17,2.38-2.54C12.89,13.55,11.46,13.86,11,14.76Z"/><path id="path2874" class="cls-1" d="M10.55,16.57c1.51-2.16,3.89-1.92,4.83-2.74C14.66,14.62,12,15.13,10.55,16.57Z"/><path id="path2876" class="cls-1" d="M7.05,19.9c-.12-2.3,1.77-3.15,1.84-4.46C8.93,17,7,19.08,7.05,19.9Z"/><path id="path2878" class="cls-1" d="M8,21.14c.38-2,2.94-2.13,3.39-3.3C11.38,18.94,8.37,20.07,8,21.14Z"/><path id="path2880" class="cls-1" d="M5.88,20c-1.36,1.51-.42,3.81-1,5.49C5.58,24.26,5.24,21.17,5.88,20Z"/><path id="path2882" class="cls-1" d="M8.1,26.45c-2,2-1.2,4.22-2,5.18C7.08,30.3,6.93,27.69,8.1,26.45Z"/><path id="path2884" class="cls-1" d="M3.88,26.73c1.73,1.75.68,4.39,1.58,5.62C4.44,31.29,4.6,28,3.88,26.73Z"/><path id="path2886" class="cls-1" d="M6.07,26.73c.22-2,2.3-3.09,2.48-4.19C8.78,23.64,6.56,25.36,6.07,26.73Z"/><path id="path2888" class="cls-1" d="M7.12,31.56C6.78,33,8,36,7.65,36.92,8.48,35.3,6.93,32.25,7.12,31.56Z"/><path id="path2890" class="cls-1" d="M4.44,34.79c.83,2.5,2.49,2.33,3,3.84C7.08,37.19,4.9,35.89,4.44,34.79Z"/><path id="path2892" class="cls-1" d="M9.84,36c1.09,1.68.18,3.6,1.09,4.8C9.65,39.56,10.33,37.33,9.84,36Z"/><path id="path2894" class="cls-1" d="M7.2,40.55c1.32,2.23,4,2,5.12,3.64C11.23,42.17,7.88,41.82,7.2,40.55Z"/><path id="path2896" class="cls-1" d="M12,40.28c2.34,1.47,1.63,3,3.4,4.66C13.15,43.3,13.34,41.48,12,40.28Z"/><path id="path2898" class="cls-1" d="M13.08,46.25c2.26-.07,5.5,2.6,7.46,2.4C18.58,49,15,46.63,13.08,46.25Z"/><path id="path2900" class="cls-1" d="M16.74,43.85c.15,2.09,6,3.43,6.67,4.83C22.69,46.83,17.53,45.46,16.74,43.85Z"/><path id="path2902" class="cls-1" d="M25.29,8.2c.46-1.85,2.72-2.19,3-3.29C28.2,6.08,25.52,7.38,25.29,8.2Z"/><path id="path2904" class="cls-1" d="M32,3.61C31.63,5,29.18,5.8,28.84,6.87,29,5.42,31.48,4.6,32,3.61Z"/><path id="path2906" class="cls-1" d="M30,6.93c1.17-1.71,3.59-1.27,4.41-2.26C33.85,5.84,30.87,5.87,30,6.93Z"/></g><path id="path12826" class="cls-6" d="M46,28.14c0,8.9-7.94,16.13-17.73,16.13S10.54,37,10.54,28.14,18.48,12,28.27,12,46,19.23,46,28.14Z"/><g id="g12874"><path id="path12861" class="cls-7" d="M24.79,44.28l-.06.19a.33.33,0,0,1-.34.2c-.36-.1-.84-.19-1.27-.31l.4-1.25c.47.13.95.22,1.29.28a.23.23,0,0,1,.18.29l-.06.17m-3.05-.78.07-.2a.25.25,0,0,1,.32-.16c.36.13.78.28,1.25.4l-.4,1.25c-.44-.11-.87-.23-1.26-.37a.46.46,0,0,1-.13-.46"/><path id="path12865" class="cls-1" d="M24.55,44.17l-.05.14a.25.25,0,0,1-.27.13c-.3-.08-.7-.16-1.06-.26l.29-.89c.39.1.79.18,1.07.23a.18.18,0,0,1,.15.22l0,.12m-2.54-.65.05-.14a.2.2,0,0,1,.26-.11c.29.1.65.22,1,.33l-.29.89c-.36-.1-.72-.19-1.05-.3a.33.33,0,0,1-.12-.34"/></g><g id="g12878"><path id="path12880" class="cls-7" d="M19.94,42.71l-.12.17a.34.34,0,0,1-.38.11c-.32-.19-.75-.4-1.13-.62l.77-1.1c.41.24.85.45,1.15.59a.22.22,0,0,1,.08.33l-.1.15m-2.69-1.53.13-.18a.28.28,0,0,1,.36-.07,12.41,12.41,0,0,0,1.07.71l-.77,1.1c-.38-.23-.76-.45-1.09-.68-.11-.11-.06-.36,0-.48"/><path id="path12882" class="cls-1" d="M19.74,42.54l-.09.13a.25.25,0,0,1-.3,0c-.26-.15-.62-.33-.93-.52l.55-.78c.34.2.7.38,1,.5a.17.17,0,0,1,.08.25l-.07.11M17.7,41l.09-.12a.2.2,0,0,1,.28,0c.25.17.56.38.9.58l-.55.78c-.32-.18-.64-.37-.91-.56a.29.29,0,0,1,0-.35"/></g><g id="g12884"><path id="path12886" class="cls-7" d="M15.78,40l-.17.13a.35.35,0,0,1-.4,0c-.25-.26-.6-.57-.9-.88l1.08-.86c.33.34.67.65.93.87a.22.22,0,0,1,0,.33l-.14.12M14,37.52l.17-.13a.29.29,0,0,1,.38,0,11.57,11.57,0,0,0,.8,1l-1.08.86c-.29-.31-.59-.63-.83-.93-.07-.13,0-.36.17-.45"/><path id="path12888" class="cls-1" d="M15.63,39.76l-.12.09a.26.26,0,0,1-.31,0c-.2-.22-.49-.48-.73-.74l.77-.61c.27.28.55.54.76.72a.18.18,0,0,1,0,.27l-.1.08m-1.75-1.8.13-.1a.22.22,0,0,1,.28,0c.19.23.41.51.68.79l-.77.61c-.25-.26-.5-.52-.7-.77s0-.28.1-.34"/></g><g id="g12890"><path id="path12892" class="cls-7" d="M12.63,36.27l-.21.08a.32.32,0,0,1-.38-.1c-.16-.31-.4-.7-.59-1.08l1.31-.54a10.14,10.14,0,0,0,.61,1.06.22.22,0,0,1-.13.32l-.17.07m-1.35-2.6.21-.09a.27.27,0,0,1,.35.12,9.63,9.63,0,0,0,.48,1.12l-1.31.54a12.06,12.06,0,0,1-.51-1.11c0-.13.16-.33.3-.38"/><path id="path12894" class="cls-1" d="M12.55,36l-.14.06a.27.27,0,0,1-.29-.1c-.13-.26-.32-.59-.48-.9l.93-.39a8.24,8.24,0,0,0,.51.89.17.17,0,0,1-.08.25l-.13,0m-1.12-2.17.15-.06a.21.21,0,0,1,.26.11c.11.27.24.59.41.93l-.93.39c-.16-.31-.31-.62-.43-.92,0-.11.1-.26.2-.3"/></g><g id="g12896"><path id="path12898" class="cls-7" d="M10.75,31.91l-.23,0a.32.32,0,0,1-.33-.2C10.13,31.4,10,31,10,30.56l1.42-.19c.07.44.18.88.26,1.18a.23.23,0,0,1-.22.27l-.19,0M10.74,29,11,29a.26.26,0,0,1,.3.2,9.37,9.37,0,0,0,.11,1.2L10,30.56c-.06-.41-.13-.82-.15-1.2,0-.14.26-.27.41-.29"/><path id="path12900" class="cls-1" d="M10.75,31.66l-.16,0a.23.23,0,0,1-.24-.17c0-.28-.13-.64-.18-1l1-.14a9.52,9.52,0,0,0,.21,1,.19.19,0,0,1-.16.23H11.1m-.4-2.36.16,0a.2.2,0,0,1,.22.18c0,.28,0,.63.1,1l-1,.14a9.14,9.14,0,0,1-.13-1c0-.11.18-.22.29-.24"/></g><g id="g12902"><path id="path12904" class="cls-7" d="M10.3,27.25l-.23,0a.31.31,0,0,1-.26-.28c0-.34.09-.79.15-1.19l1.42.18a10,10,0,0,0-.11,1.2.25.25,0,0,1-.3.2l-.19,0m.41-2.86.23,0a.24.24,0,0,1,.22.27,11.82,11.82,0,0,0-.26,1.18L10,25.75c.07-.41.13-.82.23-1.19.05-.13.33-.2.48-.18"/><path id="path12906" class="cls-1" d="M10.38,27l-.16,0a.23.23,0,0,1-.18-.23c0-.28.07-.65.13-1l1,.13a8.62,8.62,0,0,0-.1,1,.2.2,0,0,1-.22.17l-.13,0m.34-2.37.16,0a.18.18,0,0,1,.16.22c-.07.28-.15.61-.21,1l-1-.13a9.68,9.68,0,0,1,.18-1c0-.11.24-.17.35-.15"/></g><g id="g12908"><path id="path12910" class="cls-7" d="M11.31,22.66l-.21-.09a.27.27,0,0,1-.16-.33c.15-.31.32-.73.51-1.11l1.3.54c-.2.41-.37.83-.48,1.13a.27.27,0,0,1-.35.11l-.17-.07M13,20.21l.21.08a.24.24,0,0,1,.13.32c-.19.3-.41.66-.62,1.06l-1.3-.54A11.93,11.93,0,0,1,12,20.06a.56.56,0,0,1,.52,0"/><path id="path12912" class="cls-1" d="M11.46,22.45l-.15-.06a.2.2,0,0,1-.1-.26c.13-.26.27-.61.43-.92l.93.39c-.17.33-.31.68-.41.92a.19.19,0,0,1-.26.11l-.12-.05m1.07-2.19.15.06a.19.19,0,0,1,.08.26,9.69,9.69,0,0,0-.51.89l-.93-.39c.16-.31.31-.62.48-.9a.4.4,0,0,1,.38-.06"/></g><g id="g12914"><path id="path12916" class="cls-7" d="M13.7,18.51l-.18-.13a.29.29,0,0,1,0-.37c.25-.25.54-.61.83-.93l1.09.86a9.65,9.65,0,0,0-.81.95.28.28,0,0,1-.37,0l-.14-.11m2-2.2.17.14a.21.21,0,0,1,0,.33,11.8,11.8,0,0,0-.92.87l-1.09-.86c.3-.31.6-.62.9-.88a.56.56,0,0,1,.51.09"/><path id="path12918" class="cls-1" d="M13.91,18.35l-.13-.1a.19.19,0,0,1,0-.27c.2-.22.45-.52.69-.78l.78.62c-.27.28-.51.57-.68.78a.21.21,0,0,1-.29,0l-.1-.08m1.71-1.83.12.1a.17.17,0,0,1,0,.26,9.92,9.92,0,0,0-.76.73l-.78-.62c.25-.25.5-.51.74-.73a.37.37,0,0,1,.39,0"/></g><g id="g12920"><path id="path12922" class="cls-7" d="M17.27,15.14,17.15,15a.27.27,0,0,1,.06-.36c.31-.18.71-.45,1.09-.68l.77,1.1a12.4,12.4,0,0,0-1.07.71.27.27,0,0,1-.36-.08l-.1-.14m2.64-1.59.12.17a.23.23,0,0,1-.08.34,11.54,11.54,0,0,0-1.15.59l-.77-1.1c.38-.22.76-.44,1.13-.62a.54.54,0,0,1,.46.22"/><path id="path12924" class="cls-1" d="M17.52,15.05l-.08-.13a.2.2,0,0,1,.06-.27c.27-.15.6-.38.91-.56l.56.78c-.35.2-.67.43-.9.58a.2.2,0,0,1-.28,0l-.08-.11M19.91,14l.09.12a.17.17,0,0,1-.08.25c-.28.14-.61.3-1,.5l-.56-.78c.32-.19.64-.37.94-.52a.4.4,0,0,1,.36.14"/></g><g id="g12926"><path id="path12928" class="cls-7" d="M21.74,12.83l-.06-.19a.27.27,0,0,1,.17-.33c.36-.1.82-.26,1.25-.38l.41,1.25c-.47.13-.93.29-1.25.41a.25.25,0,0,1-.32-.16l-.06-.17m3-.85.06.2a.23.23,0,0,1-.18.3c-.37.06-.81.15-1.28.27l-.41-1.25c.44-.11.87-.23,1.28-.3.16,0,.34.19.38.32"/><path id="path12930" class="cls-1" d="M22,12.8,22,12.66c0-.09,0-.19.15-.24l1.05-.31.29.9a9.3,9.3,0,0,0-1,.33.22.22,0,0,1-.27-.11l0-.12m2.51-.7.05.14c0,.1,0,.19-.16.22-.31.06-.67.13-1.06.24l-.29-.9c.36-.09.72-.19,1.06-.26a.38.38,0,0,1,.3.23"/></g><g id="g12932"><path id="path12934" class="cls-7" d="M26.75,11.76v-.2a.31.31,0,0,1,.26-.28c.38,0,.87,0,1.32,0v1.3c-.49,0-1,0-1.32.07a.25.25,0,0,1-.27-.24v-.17m3.17,0v.21a.25.25,0,0,1-.27.24c-.37,0-.82-.07-1.31-.07v-1.3c.46,0,.91,0,1.32,0a.49.49,0,0,1,.27.41"/><path id="path12936" class="cls-1" d="M27,11.81v-.15c0-.1.1-.17.22-.2l1.1,0v.93c-.41,0-.82,0-1.1.05-.12,0-.22-.07-.22-.17v-.13m2.64,0v.15c0,.1-.1.17-.22.17-.32,0-.69-.05-1.1-.05v-.93c.38,0,.75,0,1.1,0a.35.35,0,0,1,.22.3"/></g><g id="g12938"><path id="path12940" class="cls-7" d="M31.55,12l.06-.19a.31.31,0,0,1,.34-.2c.36.09.84.18,1.28.29l-.39,1.26c-.48-.13-1-.21-1.29-.27a.23.23,0,0,1-.19-.29l.05-.17m3.06.76-.06.2a.26.26,0,0,1-.33.16,12.32,12.32,0,0,0-1.24-.39l.39-1.26c.43.12.87.23,1.26.36a.47.47,0,0,1,.13.47"/><path id="path12942" class="cls-1" d="M31.8,12.1l0-.14c0-.1.14-.14.27-.13.3.07.7.15,1.06.25l-.28.89a10.8,10.8,0,0,0-1.07-.22c-.12,0-.19-.13-.16-.22l0-.12m2.54.63,0,.14a.2.2,0,0,1-.26.11c-.3-.1-.65-.22-1-.32l.28-.89c.37.09.73.18,1,.29a.31.31,0,0,1,.13.34"/></g><g id="g12944"><path id="path12946" class="cls-7" d="M36.41,13.52l.12-.17a.35.35,0,0,1,.39-.11c.32.18.75.39,1.13.61L37.29,15a12.82,12.82,0,0,0-1.16-.59.23.23,0,0,1-.08-.33l.1-.14m2.7,1.5-.12.18a.27.27,0,0,1-.36.07c-.3-.21-.67-.46-1.08-.69l.76-1.11c.39.22.77.44,1.1.67.11.1.06.36,0,.48"/><path id="path12948" class="cls-1" d="M36.62,13.69l.08-.13a.26.26,0,0,1,.3-.06L38,14l-.55.79c-.34-.19-.7-.37-1-.49a.17.17,0,0,1-.08-.25l.07-.1m2.24,1.25-.08.13a.22.22,0,0,1-.29,0,10.19,10.19,0,0,0-.9-.58L38,14c.32.19.63.37.91.56a.3.3,0,0,1,0,.35"/></g><g id="g12950"><path id="path12952" class="cls-7" d="M40.61,16.23l.17-.14a.35.35,0,0,1,.4,0c.25.26.6.57.9.88L41,17.83a11,11,0,0,0-.93-.85.22.22,0,0,1,0-.34l.14-.12m2.12,2.14-.17.14a.28.28,0,0,1-.37,0,11.86,11.86,0,0,0-.82-1L42.08,17c.3.31.6.62.84.92.07.13-.05.36-.16.46"/><path id="path12954" class="cls-1" d="M40.75,16.44l.12-.1a.27.27,0,0,1,.31,0c.21.22.5.48.75.74l-.77.61c-.27-.27-.56-.54-.77-.71a.18.18,0,0,1,0-.27l.1-.08m1.76,1.78-.12.1a.22.22,0,0,1-.29,0,10.13,10.13,0,0,0-.68-.79l.77-.61c.24.25.49.51.7.76s0,.28-.1.35"/></g><g id="g12956"><path id="path12958" class="cls-7" d="M43.79,19.91l.21-.09a.33.33,0,0,1,.38.1c.16.31.4.7.59,1.07l-1.29.55a10.73,10.73,0,0,0-.63-1.05.23.23,0,0,1,.13-.32l.17-.08m1.37,2.6-.2.09a.26.26,0,0,1-.35-.12c-.13-.32-.28-.71-.49-1.12L45,21a12.11,12.11,0,0,1,.53,1.1c0,.14-.16.34-.3.4"/><path id="path12960" class="cls-1" d="M43.87,20.15l.14-.07a.27.27,0,0,1,.29.1c.13.26.33.59.49.9l-.93.39c-.17-.33-.37-.66-.51-.88a.18.18,0,0,1,.08-.26l.12,0m1.14,2.16-.15.06a.19.19,0,0,1-.26-.1c-.11-.27-.25-.59-.42-.93l.93-.39c.16.31.32.62.44.91,0,.11-.1.26-.2.31"/></g><g id="g12962"><path id="path12964" class="cls-7" d="M45.71,24.25l.22,0a.32.32,0,0,1,.34.19c.06.34.17.78.24,1.18l-1.42.2a9.57,9.57,0,0,0-.27-1.18.24.24,0,0,1,.22-.27l.19,0m.51,2.85-.22,0a.26.26,0,0,1-.3-.2,9.7,9.7,0,0,0-.13-1.2l1.42-.2a10.72,10.72,0,0,1,.16,1.2c0,.14-.26.27-.41.3"/><path id="path12966" class="cls-1" d="M45.71,24.5l.16,0a.22.22,0,0,1,.24.16c0,.28.14.65.19,1l-1,.14a9.27,9.27,0,0,0-.22-1,.19.19,0,0,1,.16-.23h.13m.42,2.36-.16,0a.18.18,0,0,1-.21-.17c0-.28-.06-.63-.12-1l1-.14a9.06,9.06,0,0,1,.14,1c0,.11-.17.22-.28.24"/></g><g id="g12968"><path id="path12970" class="cls-7" d="M46.21,28.91l.22,0a.3.3,0,0,1,.26.28c0,.34-.07.79-.13,1.19l-1.42-.17c.06-.44.09-.89.1-1.2a.26.26,0,0,1,.3-.21l.18,0m-.38,2.86-.23,0a.23.23,0,0,1-.22-.27c.08-.33.18-.74.25-1.18l1.42.17a10.48,10.48,0,0,1-.22,1.19c-.05.13-.33.2-.48.18"/><path id="path12972" class="cls-1" d="M46.13,29.15l.16,0c.11,0,.17.1.18.22,0,.28-.07.65-.12,1l-1-.12a8.62,8.62,0,0,0,.1-1,.19.19,0,0,1,.21-.17h.14m-.33,2.38-.16,0a.17.17,0,0,1-.15-.22c.06-.28.14-.61.19-1l1,.12c-.05.34-.1.68-.17,1a.39.39,0,0,1-.35.16"/></g><g id="g12974"><path id="path12976" class="cls-7" d="M45.24,33.5l.21.09a.27.27,0,0,1,.17.33c-.16.31-.32.73-.5,1.11l-1.31-.53a12.14,12.14,0,0,0,.47-1.13.27.27,0,0,1,.34-.12l.18.07M43.54,36l-.21-.08a.24.24,0,0,1-.13-.32,11,11,0,0,0,.61-1.07l1.31.53a12.14,12.14,0,0,1-.58,1.08.55.55,0,0,1-.52,0"/><path id="path12978" class="cls-1" d="M45.09,33.71l.15.06a.22.22,0,0,1,.11.26c-.13.27-.27.61-.43.93L44,34.58c.16-.34.31-.69.4-.93a.2.2,0,0,1,.26-.12l.12,0m-1.05,2.2-.14-.06a.18.18,0,0,1-.09-.25c.15-.25.33-.55.5-.89l.93.38c-.15.31-.3.62-.47.9a.4.4,0,0,1-.38.06"/></g><g id="g12980"><path id="path12982" class="cls-7" d="M42.89,37.67l.17.13a.27.27,0,0,1,.06.36c-.24.26-.53.63-.82.94l-1.09-.84c.31-.34.6-.71.79-1a.28.28,0,0,1,.38,0l.14.11m-2,2.22-.18-.14a.22.22,0,0,1,0-.33,11.8,11.8,0,0,0,.92-.87l1.09.84c-.3.31-.59.63-.89.89a.56.56,0,0,1-.51-.08"/><path id="path12984" class="cls-1" d="M42.68,37.83l.13.1a.2.2,0,0,1,0,.27c-.21.22-.45.52-.69.78l-.78-.6c.26-.29.5-.58.67-.8a.22.22,0,0,1,.28,0l.11.08m-1.69,1.84-.12-.09a.16.16,0,0,1,0-.26c.23-.21.49-.45.76-.73l.78.6c-.25.26-.49.52-.73.75a.41.41,0,0,1-.39,0"/></g><g id="g12986"><path id="path12988" class="cls-7" d="M39.35,41.06l.12.17a.28.28,0,0,1,0,.37c-.32.18-.71.46-1.09.68l-.78-1.09c.41-.24.8-.52,1.06-.71a.27.27,0,0,1,.37.07l.1.14M36.45,42.3l-.12-.17a.24.24,0,0,1,.07-.34,11.8,11.8,0,0,0,1.15-.6l.78,1.09a12.64,12.64,0,0,1-1.12.63.54.54,0,0,1-.47-.21"/><path id="path12990" class="cls-1" d="M39.1,41.16l.09.13c.06.08,0,.19-.07.27l-.9.57-.56-.78c.34-.21.66-.43.88-.59a.22.22,0,0,1,.29,0l.08.11m-2.19,1.33-.09-.12c-.06-.09,0-.19.08-.26.28-.13.6-.3.95-.5l.56.78c-.32.18-.63.37-.93.52a.39.39,0,0,1-.37-.13"/></g><g id="g12992"><path id="path12994" class="cls-7" d="M34.9,43.41l.06.2a.27.27,0,0,1-.16.33c-.36.1-.82.26-1.25.38l-.42-1.25c.47-.13.93-.29,1.24-.41a.26.26,0,0,1,.33.16l.06.16m-3,.87-.07-.19a.23.23,0,0,1,.18-.3c.37-.07.81-.16,1.28-.29l.42,1.25c-.44.12-.87.24-1.28.32a.53.53,0,0,1-.38-.33"/><path id="path12996" class="cls-1" d="M34.63,43.44l0,.14c0,.1,0,.19-.14.25l-1.05.31-.29-.89c.39-.11.77-.24,1-.34a.2.2,0,0,1,.26.11l0,.12M32,43.86l0-.14c0-.1,0-.19.16-.23.31-.06.68-.13,1.07-.24l.29.89c-.36.1-.72.2-1,.27a.36.36,0,0,1-.31-.23"/></g><g id="g12998"><path id="path13000" class="cls-7" d="M29.9,44.52v.21a.31.31,0,0,1-.26.28c-.37,0-.86,0-1.32,0v-1.3c.49,0,1,0,1.32-.08a.24.24,0,0,1,.26.24v.17m-3.17.06v-.21a.25.25,0,0,1,.26-.24c.38,0,.83.06,1.32.06v1.3c-.45,0-.9,0-1.32,0a.47.47,0,0,1-.26-.41"/><path id="path13002" class="cls-1" d="M29.63,44.48v.15c0,.1-.09.17-.22.2-.31,0-.72,0-1.09,0v-.93a10.8,10.8,0,0,0,1.09-.06.21.21,0,0,1,.23.17v.13m-2.64,0v-.15c0-.1.09-.17.22-.17.31,0,.69,0,1.1,0v.93c-.38,0-.76,0-1.1,0a.34.34,0,0,1-.22-.3"/></g></g></g></svg>