<svg id="Слой_1" data-name="Слой 1" xmlns="http://www.w3.org/2000/svg" viewBox="0 0 56.69 56.69"><defs><style>.cls-1{fill:#352f32;}.cls-2{fill:#54585c;}.cls-3{fill:#fcfcfc;}</style></defs><path class="cls-1" d="M44.19,28.19c-.49.15-.66-.18-.83-.54-1-2.23-.74-2.89,1.63-3.59a10.7,10.7,0,0,1,5.18-.35,5.5,5.5,0,0,1,4.71,5.37c.19,3.23-.08,6.48.22,9.71a.87.87,0,0,1-.32.88c-.48.34-3.26.25-3.56-.23s-.58-.33-.95-.13a3.59,3.59,0,0,1-1.73.6c-.43-.34-.62-.67,0-1.08.29-.22.73-.59.13-.89s-.52-.92-.52-1.47c1.94-.5,2.47-1.23,2.49-3.12,0-.8-.31-.93-1-.83-.08-.47.11-1-.1-1.38-4.13,1.3-6.71,3.55-5.4,8.25a5.1,5.1,0,0,1,.07-8.81,11,11,0,0,1,5-1.45c1.54-.1,1.56-.19.69-1.49-.1-2.21-.42-2.59-2.17-2.33a12.76,12.76,0,0,0-2.49.68A1.82,1.82,0,0,0,44.19,28.19Z"/><path class="cls-1" d="M14.11,29.88a8.94,8.94,0,0,1,3.88-.8c.88-.07.72-.44.45-.94a1.91,1.91,0,0,0-1.82-.94H15.21c0-.2,0-.51-.25-.5s-.4.33-.37.64l-.69.22a10.76,10.76,0,0,0,.44-3.74,9.2,9.2,0,0,1,4-.12,5.5,5.5,0,0,1,4.75,5.43c.24,3.22-.15,6.46.32,9.68a.75.75,0,0,1-.69.95c-1.16-.07-2.47.66-3.45-.56a.56.56,0,0,0-.78,0,5.4,5.4,0,0,1-4.15.8A1.33,1.33,0,0,1,15,38.56a.77.77,0,0,0-.19-1.46c-1.71-.59-1.71-.59-1.38-2.4,0-.21.06-.43.11-.64.19-.71.54-1,1.22-.46-.72,1.28-.53,2.36.47,2.75a2.88,2.88,0,0,0,3.47-1.66c.53-1.6.1-2.19-1.52-2.06-.69-.69-1.55-.2-2.33-.32-.48-.08-.89-.09-.64-.75A2.84,2.84,0,0,0,14.11,29.88ZM15,26c.16-.07.34-.13.34-.36a.27.27,0,0,0-.35-.28c-.23,0-.24.23-.24.41S14.85,26,15,26Z"/><path class="cls-1" d="M37.55,39.76c-.84.13-1.1-.31-1.1-1.07,0-4.58,0-9.15,0-13.73,0-.74.28-1.09,1-1.09,4,0,3.35-.41,3.37,3.12,0,3.81,0,7.63,0,11.45,0,.49,0,1-.61,1.06-1.18,0-1.39-.36-1.09-1.8a3.86,3.86,0,0,0-.41-3.41c-.19,1-.11,2.06-1,2.8-.25.2-.17.53-.17.82C37.56,38.53,37.55,39.15,37.55,39.76Z"/><path class="cls-1" d="M29.89,36.42c.55-.26,1.2-.43,1.2-1.21s-.63-1.14-1.26-1.45a11.21,11.21,0,0,1-2.35-1c.44-.4.85-.22,1.27,0s.81.37,1.06,0,0-.8-.44-1.06a4,4,0,0,1-1-.75c-.3-.38-1.15-.43-1-1s.89-.52,1.39-.68a2.41,2.41,0,0,1,.54-.05c1,.44,2.11.83,3.12,1.32a4.73,4.73,0,0,1,3,4.64A4.67,4.67,0,0,1,32,39.62a9.31,9.31,0,0,1-7.31-.47c-1.14-.54-.74-1.3-.32-2.07.31.13.38.42.46.7a1.3,1.3,0,0,0,1.21.95c.6,0,.53-.69.67-1.1.27-.86.23-.87,1.15-.62-.23.13-.67,0-.61.46s.1.75.31.88a1.5,1.5,0,0,0,2.3-1.28C29.9,36.85,29.89,36.63,29.89,36.42ZM27.2,39.35c.68-.17,1.11,0,1.64-.37A1.42,1.42,0,0,0,27.2,39.35Z"/><path class="cls-1" d="M4.89,32.47A3.7,3.7,0,0,1,9,36.13a3.82,3.82,0,0,1-4,3.81C2.72,39.82,1.35,38,1.61,35.56c.77.15,1.53.7,2.28-.05.21-.2.44-.08.66.11s.58.14.49-.22C4.8,34.43,5.37,33.42,4.89,32.47Z"/><path class="cls-2" d="M14.11,29.88a2.84,2.84,0,0,1,.11,1.68c-.25.66.16.67.64.75.78.12,1.64-.37,2.33.32a8.08,8.08,0,0,0-2.42,1c-.68-.55-1-.25-1.22.46-.05.21-.07.43-.11.64-.33,1.81-.33,1.81,1.38,2.4A.77.77,0,0,1,15,38.56,1.33,1.33,0,0,0,14.35,40,4.88,4.88,0,0,1,10,36.35a5.43,5.43,0,0,1,2.26-5.64A3.83,3.83,0,0,1,14.11,29.88Z"/><path class="cls-1" d="M36,17.5c.19.1.42.24.44-.15.07-1,.77-.81,1.43-.79a4.37,4.37,0,0,1,3.93,2.81,2.45,2.45,0,0,1,.14,2c-.28.77-.86.85-1.55.68,0,0-.09,0-.1,0-1,1.25-2.12.93-3.37.44a2.1,2.1,0,0,1-1.17-.84c-.47-.78-.52-1.7-1-2.5C34.43,18.61,35.39,17.44,36,17.5Z"/><path class="cls-1" d="M24.57,27.7A4.42,4.42,0,0,1,27.73,24a8.41,8.41,0,0,1,6.29.26c.75.31,1.09.82.71,1.64a5.72,5.72,0,0,0-.26.83c-.32,1.2-.87,1.73-2.12.89a3.52,3.52,0,0,0-1.78-.45c-.05-.56-.2-.95-.87-.58C28.1,27.48,26.29,27.37,24.57,27.7Z"/><path class="cls-2" d="M48.11,36.47c0,.55-.19,1.11.52,1.47s.16.67-.13.89c-.58.41-.39.74,0,1.08a5.35,5.35,0,0,1-4.4-.52c-1.31-4.7,1.27-7,5.4-8.25.21.39,0,.91.1,1.38-.67.27-1.42.23-2.09.53-1.13.52-1.61,1.18-1.43,2.16S47.18,36.46,48.11,36.47Z"/><path class="cls-2" d="M24.57,27.7c1.72-.33,3.53-.22,5.13-1.1.67-.37.82,0,.87.58a4.78,4.78,0,0,1-.53.06,1.22,1.22,0,0,0-1.21.73c-.23.53.15.87.46,1.21a2.41,2.41,0,0,0-.54.05c-.5.16-1.23.21-1.39.68s.67.6,1,1a4,4,0,0,0,1,.75c.42.26.72.61.44,1.06s-.7.27-1.06,0-.83-.43-1.27,0A4.34,4.34,0,0,1,24.57,27.7Z"/><path class="cls-2" d="M44.19,28.19a1.82,1.82,0,0,1,1-2.2,12.76,12.76,0,0,1,2.49-.68c1.75-.26,2.07.12,2.17,2.33a5.65,5.65,0,0,0-4.59.12C44.92,27.91,44.62,28.21,44.19,28.19Z"/><path class="cls-2" d="M29.89,36.42c0,.21,0,.43,0,.65a1.5,1.5,0,0,1-2.3,1.28c-.21-.13-.27-.57-.31-.88s.38-.33.61-.46c-.92-.25-.88-.24-1.15.62-.14.41-.07,1.1-.67,1.1a1.3,1.3,0,0,1-1.21-.95c-.08-.28-.15-.57-.46-.7a1.52,1.52,0,0,1,.33-.89c.85.1,1.7.57,2.55,0A9.89,9.89,0,0,0,29.89,36.42Z"/><path class="cls-2" d="M4.89,32.47c.48,1-.09,2,.15,2.93.09.36-.25.43-.49.22s-.45-.31-.66-.11c-.75.75-1.51.2-2.28.05A3.33,3.33,0,0,1,4.89,32.47Z"/><path class="cls-2" d="M37.55,39.76c0-.61,0-1.23,0-1.85,0-.29-.08-.62.17-.82.89-.74.81-1.8,1-2.8a3.86,3.86,0,0,1,.41,3.41c-.3,1.44-.09,1.76,1.09,1.8C39.4,40.23,38.45,39.75,37.55,39.76Z"/><path class="cls-2" d="M14.34,23.82a10.76,10.76,0,0,1-.44,3.74c-.52.22-.91.73-1.56.61.32-1.31.92-2.58.67-4A2.32,2.32,0,0,1,14.34,23.82Z"/><path class="cls-1" d="M13,24.18c.25,1.41-.35,2.68-.67,4A3.56,3.56,0,0,1,11,25.57C11.27,24.62,12.2,24.46,13,24.18Z"/><path class="cls-1" d="M27.29,36.17c-.85.59-1.7.12-2.55,0,.11-.72.57-.86,1.18-.64S26.83,36,27.29,36.17Z"/><path class="cls-2" d="M14.59,27.34c0-.31,0-.63.37-.64s.22.3.25.5Z"/><path class="cls-3" d="M48.11,36.47c-.93,0-1.79-.13-2-1.26s.3-1.64,1.43-2.16c.67-.3,1.42-.26,2.09-.53.65-.1,1,0,1,.83C50.58,35.24,50.05,36,48.11,36.47Z"/><path class="cls-3" d="M14.77,33.6a8.08,8.08,0,0,1,2.42-1c1.62-.13,2,.46,1.52,2.06a2.88,2.88,0,0,1-3.47,1.66C14.24,36,14.05,34.88,14.77,33.6Z"/><path class="cls-2" d="M15,26c-.19,0-.26-.08-.25-.23s0-.37.24-.41a.27.27,0,0,1,.35.28C15.38,25.85,15.2,25.91,15,26Z"/><path class="cls-2" d="M27.2,39.35A1.42,1.42,0,0,1,28.84,39C28.31,39.4,27.88,39.18,27.2,39.35Z"/></svg>