<svg id="Слой_1" data-name="Слой 1" xmlns="http://www.w3.org/2000/svg" viewBox="0 0 56.69 56.69"><defs><style>.cls-1{fill:#4e6e81;}.cls-2{fill:#be2838;}</style></defs><path class="cls-1" d="M8.75,46.11c0-1.73,0-3.46,0-5.19,0-.25.08-.33.31-.38.7-.18,1.42-.3,2.13-.42.23,0,.28,0,.28.24,0,1,0,2.1,0,3.15,0,.27.06.32.33.24a5.38,5.38,0,0,1,3-.13,3.62,3.62,0,0,1,2.79,3.44,4.09,4.09,0,0,1-2.64,4.36,4.2,4.2,0,0,1-1.31.23c-1.49,0-3,0-4.49,0-.24,0-.32-.06-.32-.32,0-1.74,0-3.48,0-5.23Zm2.71,1.61c0,.56,0,1.12,0,1.68,0,.19.06.28.27.27.47,0,.95,0,1.42,0a1.75,1.75,0,0,0,1.63-1.21,3.05,3.05,0,0,0,0-1.72,1.47,1.47,0,0,0-1.31-1.17,3.85,3.85,0,0,0-1.84.25.29.29,0,0,0-.21.32C11.46,46.64,11.46,47.18,11.46,47.72Z"/><path class="cls-1" d="M23.51,51.66A5.3,5.3,0,0,1,20.44,51a3.74,3.74,0,0,1-1.75-2.74A4,4,0,0,1,19,45.83a3.71,3.71,0,0,1,2.12-1.94,7,7,0,0,1,4.18-.23,2.58,2.58,0,0,1,2,2.6c0,.52,0,1,0,1.56,0,.21-.06.27-.27.28l-4,.31c-.52,0-1,.09-1.55.11-.2,0-.22.08-.16.24a1.32,1.32,0,0,0,1.14.88,10.08,10.08,0,0,0,2.33,0c.46,0,.91-.06,1.36-.1.21,0,.3,0,.29.26,0,.47,0,.95,0,1.43,0,.13,0,.25-.19.26C25.27,51.5,24.33,51.68,23.51,51.66Zm0-6.25a3.46,3.46,0,0,0-1.27.21,1.49,1.49,0,0,0-1,1c-.07.22,0,.24.19.23l3.3-.25c.14,0,.19,0,.18-.19a.86.86,0,0,0-.76-.93A2.39,2.39,0,0,0,23.5,45.41Z"/><path class="cls-1" d="M45.8,47.92V44.51c0-.15,0-.28.2-.33a17,17,0,0,1,5-.71,4.35,4.35,0,0,1,1.85.41,2.62,2.62,0,0,1,1.37,2.49c0,1.67,0,3.35,0,5,0,.2-.07.25-.26.25-.71,0-1.41,0-2.12,0-.24,0-.31-.06-.31-.31,0-1.36,0-2.72,0-4.09,0-1.2-.6-1.4-1.47-1.42a4.32,4.32,0,0,0-1.28.19.35.35,0,0,0-.3.41c0,1.62,0,3.24,0,4.87,0,.28-.07.36-.36.35q-1,0-2,0c-.25,0-.33-.06-.33-.32C45.8,50.19,45.8,49.06,45.8,47.92Z"/><path class="cls-1" d="M28.78,47.92c0-1.12,0-2.25,0-3.37,0-.24.06-.34.3-.41a18.38,18.38,0,0,1,6.13-.62c.2,0,.26.07.26.27,0,.58,0,1.17,0,1.75,0,.2,0,.25-.26.23a10.74,10.74,0,0,0-3.39.23c-.25.07-.34.16-.34.44,0,1.63,0,3.27,0,4.9,0,.24-.06.32-.31.31-.7,0-1.4,0-2.11,0-.23,0-.29-.06-.29-.29C28.79,50.21,28.78,49.07,28.78,47.92Z"/><path class="cls-1" d="M39.24,45.89c0,1.81,0,3.62,0,5.42,0,.28-.08.35-.35.34-.68,0-1.36,0-2,0-.21,0-.3,0-.3-.28V40.88a.27.27,0,0,1,.23-.32A22,22,0,0,1,39,40.12c.29,0,.2.16.2.29Z"/><path class="cls-1" d="M43.86,47.66c0,1.22,0,2.44,0,3.67,0,.24-.07.31-.31.3-.7,0-1.39,0-2.08,0-.22,0-.3-.06-.3-.29V44.49c0-.19.06-.27.26-.32.69-.19,1.39-.31,2.09-.43.24,0,.34,0,.34.29C43.85,45.24,43.86,46.45,43.86,47.66Z"/><path class="cls-2" d="M4.62,51.73a2.11,2.11,0,1,1,0-4.22,2.11,2.11,0,1,1,0,4.22Z"/><path class="cls-1" d="M42.52,42.9a1.41,1.41,0,1,1,1.54-1.41A1.45,1.45,0,0,1,42.52,42.9Z"/><path class="cls-1" d="M23.68,22.21c0-5,0-10,0-14.92,0-.7.23-.94.89-1.1,2-.5,4.08-.84,6.13-1.2.65-.11.8.06.8.69,0,3,0,6,0,9,0,.79.16.92.95.69A15.83,15.83,0,0,1,40.87,15c4.42,1.13,7.51,4.43,8,9.89a11.77,11.77,0,0,1-7.61,12.52,11.38,11.38,0,0,1-3.75.66c-4.29,0-8.59,0-12.88,0-.72,0-.95-.16-.95-.91,0-5,0-10,0-15Zm7.79,4.6c0,1.62,0,3.23,0,4.84,0,.53.16.79.75.76,1.37-.06,2.74,0,4.1-.09A5.08,5.08,0,0,0,41,28.82a8.74,8.74,0,0,0,.1-4.94,4.23,4.23,0,0,0-3.76-3.35,10.87,10.87,0,0,0-5.29.73.8.8,0,0,0-.59.9C31.48,23.71,31.47,25.26,31.47,26.81Z"/><path class="cls-2" d="M11.82,38.34a6.07,6.07,0,0,1-.11-12.14,6.07,6.07,0,1,1,.11,12.14Z"/></svg>