<svg id="Слой_1" data-name="Слой 1" xmlns="http://www.w3.org/2000/svg" viewBox="0 0 56.69 56.69"><defs><style>.cls-1{fill:#541441;}</style></defs><path id="path9" class="cls-1" d="M53.48,28.7a3,3,0,0,0-1.55-.46c-.54,0-.83.17-.83.46s.16.4.75.57a3.12,3.12,0,0,1,1.37.68,2.48,2.48,0,0,1-2,4.18,4.58,4.58,0,0,1-2.06-.48V31.59a3.42,3.42,0,0,0,1.86.64c.56,0,.88-.18.88-.51s-.13-.42-.93-.63a2.5,2.5,0,0,1-1.32-.66,2.23,2.23,0,0,1-.58-1.57,2.49,2.49,0,0,1,2.7-2.46,4.06,4.06,0,0,1,1.72.41Z"/><path id="path8" class="cls-1" d="M45.92,22.57h2V33.94h-2Z"/><path id="path7" class="cls-1" d="M44.64,31.57A3.53,3.53,0,0,1,41.29,34a3.73,3.73,0,0,1,0-7.46,3.52,3.52,0,0,1,3.5,3.23c0,.77-.62,1.28-1.57,1.28H39.82a1.5,1.5,0,0,0,1.44,1,1.47,1.47,0,0,0,1.12-.53Zm-2-2a1.44,1.44,0,0,0-1.43-1.06,1.52,1.52,0,0,0-1.46,1.06Z"/><path id="path6" class="cls-1" d="M36.56,28.7A3,3,0,0,0,35,28.24c-.54,0-.83.17-.83.46s.16.4.75.57A3.12,3.12,0,0,1,36.3,30a2.48,2.48,0,0,1-2,4.18,4.54,4.54,0,0,1-2-.48V31.59a3.37,3.37,0,0,0,1.86.64c.55,0,.88-.18.88-.51s-.13-.42-.93-.63a2.5,2.5,0,0,1-1.32-.66,2.19,2.19,0,0,1-.59-1.57,2.49,2.49,0,0,1,2.71-2.46,4,4,0,0,1,1.71.41Z"/><path id="path5" class="cls-1" d="M31,28.7a3,3,0,0,0-1.55-.46c-.54,0-.83.17-.83.46s.16.4.75.57a3.12,3.12,0,0,1,1.37.68,2.48,2.48,0,0,1-2,4.18,4.51,4.51,0,0,1-2.05-.48V31.59a3.37,3.37,0,0,0,1.86.64c.55,0,.88-.18.88-.51s-.13-.42-.93-.63a2.5,2.5,0,0,1-1.32-.66,2.19,2.19,0,0,1-.59-1.57,2.49,2.49,0,0,1,2.71-2.46,4,4,0,0,1,1.71.41Z"/><path id="path4" class="cls-1" d="M25.5,30.32A3.59,3.59,0,0,1,25,32.64a3.06,3.06,0,0,1-2.63,1.49,3.13,3.13,0,0,1-2.66-1.5,4.24,4.24,0,0,1-.47-2.27V26.62h2v3.7a3.44,3.44,0,0,0,.1,1.11,1.13,1.13,0,0,0,1.05.73,1.07,1.07,0,0,0,1-.75,2.93,2.93,0,0,0,.1-1.1V26.62h2v3.7Z"/><path id="path3" class="cls-1" d="M14.89,33.94V30.21a4,4,0,0,1,.29-2,2.76,2.76,0,0,1,2.76-1.58h.33v1.93H18c-.9,0-1.14.29-1.14,1.17v4.2Z"/><path id="path2" class="cls-1" d="M8.59,22.57V27a3.34,3.34,0,0,1,1.73-.49,3.65,3.65,0,0,1,3.49,3.73,3.72,3.72,0,0,1-3.62,3.79,3.61,3.61,0,0,1-3-1.74,4.36,4.36,0,0,1-.57-2.58V22.57Zm0,7.72A1.69,1.69,0,0,0,10.21,32a1.76,1.76,0,0,0,0-3.5,1.7,1.7,0,0,0-1.63,1.76Z"/><path id="path1" class="cls-1" d="M4,31.45a1.19,1.19,0,0,1,1.19,1.24A1.19,1.19,0,1,1,4,31.45Z"/></svg>