<svg id="Слой_1" data-name="Слой 1" xmlns="http://www.w3.org/2000/svg" xmlns:xlink="http://www.w3.org/1999/xlink" viewBox="0 0 56.69 56.69"><defs><style>.cls-1{fill:none;}.cls-2{clip-path:url(#clip-path);}.cls-3{fill:#e72e3c;}.cls-4{fill:#ffd207;}.cls-5{fill:#fff;}.cls-6{fill:#010101;}.cls-7{fill:#f59a21;}</style><clipPath id="clip-path"><rect class="cls-1" x="-61.67" y="-0.59" width="58.92" height="58.92"/></clipPath></defs><g class="cls-2"><g id="g503"><rect id="rect4367" class="cls-3" x="-61.67" width="85.04" height="56.69"/><g id="g483"><path id="path1891" class="cls-4" d="M-4.14,6.84a.81.81,0,0,0-.27-.1.86.86,0,0,0-.89.41l0,0a1.16,1.16,0,0,0-.12.51,1,1,0,0,0,.08.46h0a1.44,1.44,0,0,0-.33-.27h0A1.69,1.69,0,0,0-6,7.75a.82.82,0,0,0-1,.4,1.34,1.34,0,0,0-.1.32.79.79,0,0,0,.4.83.93.93,0,0,0,1.14-.18h0c-1.26,1.76-3-.15-2.63-.75a1,1,0,0,1-1.72-.79c.29-.93,1-.79,1.74-.56-1-.92-2-3.27-1.89-4.23l-1.63,6.52,9.18,5.32L2.18,9.71a6.75,6.75,0,0,1-4.46.68c.55.47,1.06,1.07.41,1.78A1,1,0,0,1-3.43,11.1c-.35.6-2.86.1-2-1.89v0h0A.93.93,0,0,0-5,10.26a1.38,1.38,0,0,0,.28.1.84.84,0,0,0,.87-.44,1,1,0,0,0,.12-.31.88.88,0,0,0-.5-.88l0,0a1.49,1.49,0,0,0-.39-.13h0l.22-.06A1.36,1.36,0,0,0-3.81,8a1.81,1.81,0,0,0,.1-.27.87.87,0,0,0-.43-.93"/><path id="path1893" class="cls-4" d="M9.6,5a1.22,1.22,0,0,0-.28-.1.86.86,0,0,0-.88.41l0,0a1.09,1.09,0,0,0-.11.5,1,1,0,0,0,.08.46v0h0A1.16,1.16,0,0,0,8,6.08H8a2.51,2.51,0,0,0-.28-.13.82.82,0,0,0-1,.4,1.42,1.42,0,0,0-.11.33.83.83,0,0,0,.41.83,1,1,0,0,0,1.14-.19h0c-1.27,1.76-3-.15-2.64-.75-.9.62-1.74.07-1.71-.79.28-.92,1-.78,1.73-.55C4.65,4.29,3.57,2,3.72,1L2.08,7.51l9.19,5.32L15.92,7.9a6.79,6.79,0,0,1-4.47.68c.56.47,1.06,1.07.42,1.78A1,1,0,0,1,10.3,9.29c-.34.6-2.85.11-2-1.89v0h0a.94.94,0,0,0,.43,1.07,1.15,1.15,0,0,0,.27.1.85.85,0,0,0,.88-.43A1.63,1.63,0,0,0,10,7.81a.87.87,0,0,0-.49-.89l0,0a1.07,1.07,0,0,0-.39-.14h0l.22-.06a1.32,1.32,0,0,0,.63-.47A1.28,1.28,0,0,0,10,6,.91.91,0,0,0,9.6,5"/><path id="path1895" class="cls-4" d="M15.09,17.66a1.22,1.22,0,0,0-.28-.1.87.87,0,0,0-.88.41l0,0a1.11,1.11,0,0,0-.12.5,1,1,0,0,0,.08.46v0h0a1.26,1.26,0,0,0-.33-.28h0c-.08-.05-.17-.08-.27-.13a.83.83,0,0,0-1,.4,1.06,1.06,0,0,0-.1.33.81.81,0,0,0,.4.83.94.94,0,0,0,1.14-.19h0c-1.27,1.76-3-.15-2.64-.75a1,1,0,0,1-1.71-.79c.29-.92,1.05-.78,1.74-.55-1-.93-2-3.27-1.89-4.24L7.57,20.14l9.19,5.32,4.65-4.93a6.79,6.79,0,0,1-4.47.68c.56.47,1.06,1.07.42,1.78a1,1,0,0,1-1.57-1.07c-.34.6-2.85.11-2-1.89v0h0a.92.92,0,0,0,.43,1.06,1.38,1.38,0,0,0,.28.1.85.85,0,0,0,.87-.43,1.66,1.66,0,0,0,.12-.31.9.9,0,0,0-.5-.89l0,0a1.19,1.19,0,0,0-.4-.14h0l.22-.06a1.42,1.42,0,0,0,.64-.47,1.48,1.48,0,0,0,.1-.27.91.91,0,0,0-.44-.92"/></g><g id="g478"><path id="rect4367-7" class="cls-5" d="M-61.67,0V12.53L14.82,56.69h8.55V45.17L-54.5,0Z"/><path id="path204-1" class="cls-5" d="M-51.64,0l43.2,24.94h0L20.91,41.87h0l2.46,1.42V38.74l-.19,0h0a1.57,1.57,0,0,1-.71-.12l-.09,0,0,0c-1-.54-1.63-2.07-1.19-2.77A1.32,1.32,0,0,0,21.45,37l.16.12.11.07a2,2,0,0,0,.37.14,1.18,1.18,0,0,0,1.18-.56,1.86,1.86,0,0,0,.1-.25v-.67a1.23,1.23,0,0,0-.61-.71l-.06,0a1.49,1.49,0,0,0-.53-.2h0l.29-.08a1.66,1.66,0,0,0,.84-.62,1.08,1.08,0,0,0,.08-.19v-.81a1,1,0,0,0-.43-.54l-.15-.1-.28-.09h-.38a1,1,0,0,0-.82.53l0,.05a1.4,1.4,0,0,0-.15.68,1.21,1.21,0,0,0,.09.62h0a2,2,0,0,0-.45-.37h0a2.27,2.27,0,0,0-.38-.17l-.33,0a1,1,0,0,0-1,.56,1.45,1.45,0,0,0-.14.43,1.09,1.09,0,0,0,.52,1.11l.09,0a.85.85,0,0,0,.17.06A1.29,1.29,0,0,0,21,35.69h0a2,2,0,0,1-2,.72H19l-.12,0-.1,0h-.07a3.45,3.45,0,0,1-.42-.14h0a1.62,1.62,0,0,1-1-1.61h0l-.15.08,0,0a.38.38,0,0,1-.13.06l-.05,0-.14,0h0l-.12,0h-.35l-.3-.06h0l-.15-.06c-1.13-.46-1.82-2.15-1.34-2.87A1.25,1.25,0,0,0,15,33.32a1.77,1.77,0,0,0,.37.14,1.15,1.15,0,0,0,1.17-.57,1.59,1.59,0,0,0,.15-.42,1.17,1.17,0,0,0-.66-1.2l-.05,0a1.44,1.44,0,0,0-.53-.2h0L15.7,31a1.66,1.66,0,0,0,.84-.62,1.78,1.78,0,0,0,.14-.36,1.14,1.14,0,0,0-.48-1.18l-.15-.1-.29-.09a1.14,1.14,0,0,0-1.19.54l0,.05a1.52,1.52,0,0,0-.15.68,1.33,1.33,0,0,0,.09.62h0a2,2,0,0,0-.45-.37h0a2,2,0,0,0-.38-.17,1.1,1.1,0,0,0-1.29.53,1.22,1.22,0,0,0-.15.42A1.12,1.12,0,0,0,12.72,32a1.23,1.23,0,0,0,1.52-.23h0c-.53,1.1-3.82,1.13-3.76-1.09C8.6,31.88,7,29,7.67,28a1.23,1.23,0,0,0,.55,1.43,2.61,2.61,0,0,0,.37.14A1.15,1.15,0,0,0,9.76,29a1.3,1.3,0,0,0,.15-.42,1.17,1.17,0,0,0-.66-1.19l-.05,0a1.44,1.44,0,0,0-.53-.2h0l.28-.08a1.61,1.61,0,0,0,.84-.62,1.78,1.78,0,0,0,.14-.36,1.16,1.16,0,0,0-.52-1.21l-.1-.06L9,24.73a1.14,1.14,0,0,0-1.19.54l0,.05a1.52,1.52,0,0,0-.15.68,1.33,1.33,0,0,0,.09.62h0a2,2,0,0,0-.45-.37h0a1.61,1.61,0,0,0-.37-.17,1.1,1.1,0,0,0-1.29.53,1.47,1.47,0,0,0-.15.42A1.12,1.12,0,0,0,6,28.15a1.23,1.23,0,0,0,1.52-.23h0C7,29,3.67,29.06,3.73,26.84,1.84,28,.23,25.12.91,24.12a1.24,1.24,0,0,0,.55,1.43,3.17,3.17,0,0,0,.37.14A1.15,1.15,0,0,0,3,25.12a1.3,1.3,0,0,0,.15-.42,1.17,1.17,0,0,0-.65-1.19l-.06,0a1.38,1.38,0,0,0-.53-.2h0l.28-.08A1.69,1.69,0,0,0,3,22.58a2.6,2.6,0,0,0,.13-.36A1.13,1.13,0,0,0,2.62,21l0,0h0l-.08,0-.25-.08a1.13,1.13,0,0,0-1.19.54l0,.05a1.4,1.4,0,0,0-.15.68,1.21,1.21,0,0,0,.09.62H1a1.78,1.78,0,0,0-.45-.37h0a1.21,1.21,0,0,0-.36-.17,1.08,1.08,0,0,0-1.29.53,1.22,1.22,0,0,0-.15.42,1.1,1.1,0,0,0,.53,1.12A1.23,1.23,0,0,0,.76,24h0C.24,25.12-3,25.17-3,23c-1.87,1.17-3.48-1.71-2.8-2.71a1.23,1.23,0,0,0,.55,1.43,2.61,2.61,0,0,0,.37.14,1.15,1.15,0,0,0,1.17-.57,1.3,1.3,0,0,0,.15-.42,1.17,1.17,0,0,0-.66-1.19l0,0a1.64,1.64,0,0,0-.53-.2h0l.28-.08a1.61,1.61,0,0,0,.84-.62,1.78,1.78,0,0,0,.14-.36,1.16,1.16,0,0,0-.54-1.24h0A1.52,1.52,0,0,0-4.45,17h-.2a1.07,1.07,0,0,0-1,.55l0,0a1.67,1.67,0,0,0-.15.68,1.23,1.23,0,0,0,.1.62h0a1.77,1.77,0,0,0-.44-.37h0a1.61,1.61,0,0,0-.37-.17,1.11,1.11,0,0,0-1.29.53,1.86,1.86,0,0,0-.15.42,1.12,1.12,0,0,0,.53,1.12A1.23,1.23,0,0,0-6,20.16h0a2.08,2.08,0,0,1-2.1.7h0a2.23,2.23,0,0,1-.68-.2l-.09,0h0L-9,20.49h0a1.6,1.6,0,0,1-.65-1.4c-1.87,1.16-3.49-1.72-2.81-2.72a1.25,1.25,0,0,0,.56,1.43,3.14,3.14,0,0,0,.36.14,1.16,1.16,0,0,0,1.18-.57,1.59,1.59,0,0,0,.15-.42,1.19,1.19,0,0,0-.66-1.2l-.06,0a1.47,1.47,0,0,0-.53-.19h0l.29-.08a1.66,1.66,0,0,0,.84-.62,3.31,3.31,0,0,0,.14-.36,1.16,1.16,0,0,0-.48-1.19l-.15-.09-.29-.09a1.13,1.13,0,0,0-1.19.54l0,.05a1.52,1.52,0,0,0-.15.68,1.33,1.33,0,0,0,.09.62h0a1.78,1.78,0,0,0-.45-.37h0a1.67,1.67,0,0,0-.38-.17,1.09,1.09,0,0,0-1.29.53,1.22,1.22,0,0,0-.15.42,1.1,1.1,0,0,0,.53,1.12,1.23,1.23,0,0,0,1.52-.23h0c-.53,1.09-3.82,1.13-3.76-1.09-1.89,1.16-3.5-1.72-2.83-2.72a1.25,1.25,0,0,0,.56,1.43,2.61,2.61,0,0,0,.37.14,1.15,1.15,0,0,0,1.17-.57A1.36,1.36,0,0,0-17,13a1.16,1.16,0,0,0-.66-1.18l0,0a1.61,1.61,0,0,0-.53-.19h0l.29-.08a1.66,1.66,0,0,0,.84-.62,2,2,0,0,0,.14-.36,1.15,1.15,0,0,0-.52-1.21l-.1-.06a2.28,2.28,0,0,0-.31-.1,1.13,1.13,0,0,0-1.19.54l0,0a1.52,1.52,0,0,0-.15.68,1.33,1.33,0,0,0,.09.62h0a1.78,1.78,0,0,0-.45-.37h0a1.28,1.28,0,0,0-.37-.17,1.09,1.09,0,0,0-1.29.53,1.47,1.47,0,0,0-.15.42A1.12,1.12,0,0,0-21,12.62a1.23,1.23,0,0,0,1.52-.23h0c-.53,1.09-3.82,1.13-3.76-1.09-1.89,1.16-3.5-1.72-2.82-2.72A1.23,1.23,0,0,0-25.46,10a1.66,1.66,0,0,0,.37.13,1.13,1.13,0,0,0,1.17-.56,1.36,1.36,0,0,0,.15-.43A1.16,1.16,0,0,0-24.43,8l-.05,0A1.61,1.61,0,0,0-25,7.75h0l.28-.08a1.61,1.61,0,0,0,.84-.62,2,2,0,0,0,.14-.36,1.13,1.13,0,0,0-.54-1.23l0,0h0l-.07-.05-.26-.08a1.13,1.13,0,0,0-1.18.54l0,0a1.46,1.46,0,0,0-.15.68,1.25,1.25,0,0,0,.09.63h0a1.78,1.78,0,0,0-.45-.37h0a1.5,1.5,0,0,0-.36-.18,1.11,1.11,0,0,0-1.29.53,1.36,1.36,0,0,0-.15.43,1.1,1.1,0,0,0,.53,1.12,1.24,1.24,0,0,0,1.52-.23h0c-.53,1.08-3.82,1.13-3.76-1.08-1.87,1.17-3.48-1.71-2.81-2.71a1.25,1.25,0,0,0,.56,1.43,2.61,2.61,0,0,0,.37.14,1.15,1.15,0,0,0,1.17-.57,1.3,1.3,0,0,0,.15-.42,1.17,1.17,0,0,0-.66-1.19l-.05,0a1.44,1.44,0,0,0-.53-.2h0l.29-.08a1.66,1.66,0,0,0,.84-.62,1.78,1.78,0,0,0,.14-.36A1.16,1.16,0,0,0-31,1.58h0l0,0a1.83,1.83,0,0,0-.34-.12A1.13,1.13,0,0,0-32.55,2l0,0a1.52,1.52,0,0,0-.15.68,1.23,1.23,0,0,0,.1.62h0A1.49,1.49,0,0,0-33.1,3h0a1.28,1.28,0,0,0-.37-.17,1.09,1.09,0,0,0-1.29.53,1.47,1.47,0,0,0-.15.42,1.12,1.12,0,0,0,.53,1.12,1.23,1.23,0,0,0,1.52-.23h0c-.52,1.09-3.82,1.13-3.75-1.09-1.89,1.16-3.5-1.71-2.81-2.71a1.26,1.26,0,0,0,.55,1.43,3.17,3.17,0,0,0,.37.14,1.17,1.17,0,0,0,1.18-.57,1.59,1.59,0,0,0,.15-.42A1.2,1.2,0,0,0-37.84.23l-.06,0a1.32,1.32,0,0,0-.53-.2h-3.22a1.06,1.06,0,0,0,.53,1A1.24,1.24,0,0,0-39.6.74h0c-.49,1-3.46,1.13-3.74-.75Z"/><path id="path204-1-6" class="cls-5" d="M-61.67,14.4V19l.19,0h0a1.54,1.54,0,0,1,.71.12l.09.05h0c1,.54,1.63,2.07,1.19,2.77a1.29,1.29,0,0,0-.29-1.2.61.61,0,0,0-.16-.12l-.11-.08a3.17,3.17,0,0,0-.37-.14,1.17,1.17,0,0,0-1.18.57,1.86,1.86,0,0,0-.1.25v.67a1.24,1.24,0,0,0,.61.7l.06,0a1.47,1.47,0,0,0,.53.19h0l-.29.08a1.76,1.76,0,0,0-.84.62,1.54,1.54,0,0,0-.08.19v.82a1.08,1.08,0,0,0,.43.54l.15.09.28.09h.38a1.06,1.06,0,0,0,.82-.54l0,0a1.4,1.4,0,0,0,.15-.68,1.21,1.21,0,0,0-.09-.62h0a1.78,1.78,0,0,0,.45.37h0a1.67,1.67,0,0,0,.38.17,1.29,1.29,0,0,0,.33,0,1,1,0,0,0,1-.57,1.86,1.86,0,0,0,.15-.42,1.12,1.12,0,0,0-.53-1.12l-.09,0-.17-.07a1.31,1.31,0,0,0-1.28.34h0a2,2,0,0,1,2-.71h.17l.1,0,.07,0a2.25,2.25,0,0,1,.42.13h0a1.63,1.63,0,0,1,1,1.61l.15-.08,0,0,.13-.06.05,0,.14,0h0l.12,0h0l.13,0h.18l.3.05h0l.15.05c1.13.46,1.82,2.15,1.34,2.87a1.25,1.25,0,0,0-.56-1.43,1.8,1.8,0,0,0-.36-.13,1.15,1.15,0,0,0-1.18.56,1.67,1.67,0,0,0-.15.43,1.16,1.16,0,0,0,.66,1.19l.05,0a1.61,1.61,0,0,0,.53.19h0l-.29.08a1.72,1.72,0,0,0-.84.63,1.7,1.7,0,0,0-.14.35,1.16,1.16,0,0,0,.48,1.19l.15.09.29.09a1.14,1.14,0,0,0,1.19-.54l0,0a1.59,1.59,0,0,0,.15-.68,1.37,1.37,0,0,0-.09-.63h0a1.78,1.78,0,0,0,.45.37h0a1.93,1.93,0,0,0,.38.18,1.11,1.11,0,0,0,1.29-.53,1.36,1.36,0,0,0,.15-.43A1.12,1.12,0,0,0-51,25.66a1.26,1.26,0,0,0-1.52.23h0c.53-1.09,3.82-1.13,3.76,1.1,1.89-1.17,3.5,1.71,2.82,2.71a1.22,1.22,0,0,0-.55-1.42,1.77,1.77,0,0,0-.37-.14,1.15,1.15,0,0,0-1.17.56,1.46,1.46,0,0,0-.15.43,1.15,1.15,0,0,0,.66,1.18l0,0a1.61,1.61,0,0,0,.53.19h0l-.28.08a1.68,1.68,0,0,0-.84.63,1.7,1.7,0,0,0-.14.35,1.14,1.14,0,0,0,.52,1.21l.1.06a2.28,2.28,0,0,0,.31.1,1.12,1.12,0,0,0,1.19-.54l0,0a1.59,1.59,0,0,0,.15-.68,1.37,1.37,0,0,0-.09-.63h0a1.78,1.78,0,0,0,.45.37h0a1.6,1.6,0,0,0,.37.18,1.11,1.11,0,0,0,1.29-.53,1.67,1.67,0,0,0,.15-.43,1.12,1.12,0,0,0-.53-1.12,1.26,1.26,0,0,0-1.52.23h0c.53-1.09,3.82-1.13,3.76,1.1,1.89-1.17,3.5,1.71,2.82,2.71a1.23,1.23,0,0,0-.55-1.42,2,2,0,0,0-.37-.14,1.15,1.15,0,0,0-1.17.56,1.46,1.46,0,0,0-.15.43,1.16,1.16,0,0,0,.65,1.18l.06,0a1.54,1.54,0,0,0,.53.19h0l-.28.08a1.68,1.68,0,0,0-.84.63,1.7,1.7,0,0,0-.14.35,1.13,1.13,0,0,0,.54,1.23l0,0h0l.08,0,.26.08a1.11,1.11,0,0,0,1.18-.54l0,0a1.4,1.4,0,0,0,.15-.68A1.21,1.21,0,0,0-39.3,35h0a2,2,0,0,0,.45.36h0a1.5,1.5,0,0,0,.36.18A1.11,1.11,0,0,0-37.16,35a1.36,1.36,0,0,0,.15-.43,1.08,1.08,0,0,0-.53-1.11,1.23,1.23,0,0,0-1.52.23h0v0c.53-1.08,3.82-1.12,3.76,1.09,1.87-1.18,3.48,1.7,2.8,2.7A1.23,1.23,0,0,0-33.06,36a2.39,2.39,0,0,0-.37-.13,1.15,1.15,0,0,0-1.17.56,1.46,1.46,0,0,0-.15.43,1.15,1.15,0,0,0,.66,1.18l.05,0a1.61,1.61,0,0,0,.53.19h0l-.28.08a1.67,1.67,0,0,0-.84.62,2,2,0,0,0-.14.36,1.18,1.18,0,0,0,.54,1.25h0a2.32,2.32,0,0,0,.35.12h.2a1.07,1.07,0,0,0,1-.55l0,0a1.76,1.76,0,0,0,.15-.68,1.27,1.27,0,0,0-.1-.63h0a1.58,1.58,0,0,0,.44.37h0a1.6,1.6,0,0,0,.37.18,1.12,1.12,0,0,0,1.29-.53,2.16,2.16,0,0,0,.15-.43,1.12,1.12,0,0,0-.53-1.12,1.25,1.25,0,0,0-1.52.23h0a2.1,2.1,0,0,1,2.1-.69h0a2.73,2.73,0,0,1,.69.2l.08,0h0l.22.13h0a1.58,1.58,0,0,1,.65,1.4c1.87-1.17,3.49,1.71,2.81,2.71a1.23,1.23,0,0,0-.56-1.42,2,2,0,0,0-.36-.14,1.16,1.16,0,0,0-1.18.56,1.81,1.81,0,0,0-.15.43,1.19,1.19,0,0,0,.66,1.2l.06,0a1.7,1.7,0,0,0,.53.2h0l-.29.08a1.66,1.66,0,0,0-.84.62,2.55,2.55,0,0,0-.14.35,1.15,1.15,0,0,0,.48,1.19l.15.09.29.09a1.12,1.12,0,0,0,1.19-.54l0,0a1.52,1.52,0,0,0,.15-.68,1.33,1.33,0,0,0-.09-.62v0h0a1.78,1.78,0,0,0,.45.37h0a2.25,2.25,0,0,0,.38.18,1.11,1.11,0,0,0,1.29-.53,1.36,1.36,0,0,0,.15-.43,1.08,1.08,0,0,0-.53-1.11,1.23,1.23,0,0,0-1.52.23h0v0c.53-1.09,3.82-1.12,3.76,1.1,1.89-1.17,3.51,1.71,2.83,2.71a1.23,1.23,0,0,0-.56-1.42,1.77,1.77,0,0,0-.37-.14,1.15,1.15,0,0,0-1.17.56,1.81,1.81,0,0,0-.15.43,1.17,1.17,0,0,0,.66,1.19l.05,0a1.91,1.91,0,0,0,.53.2h0l-.29.08a1.66,1.66,0,0,0-.84.62,1.7,1.7,0,0,0-.14.35,1.14,1.14,0,0,0,.52,1.21l.1.06a1.62,1.62,0,0,0,.31.1A1.12,1.12,0,0,0-19.18,48l0,0a1.52,1.52,0,0,0,.15-.68,1.33,1.33,0,0,0-.09-.62v0h0a1.78,1.78,0,0,0,.45.37h0a1.6,1.6,0,0,0,.37.18A1.11,1.11,0,0,0-17,46.62a1.36,1.36,0,0,0,.15-.43,1.09,1.09,0,0,0-.53-1.11,1.23,1.23,0,0,0-1.52.23h0v0c.53-1.09,3.82-1.12,3.76,1.1,1.89-1.17,3.5,1.71,2.82,2.71a1.22,1.22,0,0,0-.55-1.42,1.77,1.77,0,0,0-.37-.14,1.15,1.15,0,0,0-1.17.56,1.46,1.46,0,0,0-.15.43,1.17,1.17,0,0,0,.66,1.19l0,0a1.91,1.91,0,0,0,.53.2h0l-.28.08a1.61,1.61,0,0,0-.84.62,1.7,1.7,0,0,0-.14.35A1.15,1.15,0,0,0-14,52.24l0,0h0l.07,0,.26.09a1.14,1.14,0,0,0,1.18-.54l0-.05a1.4,1.4,0,0,0,.15-.68,1.21,1.21,0,0,0-.09-.62h0a1.74,1.74,0,0,0,.45.36l0,0a1.52,1.52,0,0,0,.36.17,1.11,1.11,0,0,0,1.29-.53,1.36,1.36,0,0,0,.15-.43A1.09,1.09,0,0,0-10.62,49a1.23,1.23,0,0,0-1.52.23h0c.53-1.09,3.83-1.13,3.76,1.08C-6.52,49.09-4.91,52-5.58,53a1.23,1.23,0,0,0-.56-1.42,1.77,1.77,0,0,0-.37-.14A1.15,1.15,0,0,0-7.68,52a1.46,1.46,0,0,0-.15.43,1.15,1.15,0,0,0,.66,1.18l0,0a1.61,1.61,0,0,0,.53.19h0l-.29.08a1.72,1.72,0,0,0-.84.63,1.7,1.7,0,0,0-.14.35,1.18,1.18,0,0,0,.54,1.25h0a1.83,1.83,0,0,0,.34.12,1.11,1.11,0,0,0,1.18-.54l0,0A1.52,1.52,0,0,0-5.57,55a1.33,1.33,0,0,0-.09-.62h0a1.62,1.62,0,0,0,.45.36l0,0a2.19,2.19,0,0,0,.37.17,1.12,1.12,0,0,0,1.29-.53A1.67,1.67,0,0,0-3.37,54a1.09,1.09,0,0,0-.53-1.11,1.23,1.23,0,0,0-1.52.23h0v0c.53-1.09,3.82-1.12,3.75,1.1C.11,53,1.66,55.58,1.21,56.69h.27a2.58,2.58,0,0,1,3,0h7.14L-29.86,32.75h0L-59.21,15.82h0ZM0,55.28a1.12,1.12,0,0,0-1,.57,1.81,1.81,0,0,0-.15.43,1.37,1.37,0,0,0,0,.41H1.15a1.19,1.19,0,0,0-.57-1.26,2,2,0,0,0-.37-.14Zm2.25,1.28a1.17,1.17,0,0,0-.56.13H2.76A1.13,1.13,0,0,0,2.26,56.56Z"/></g></g></g><g id="g10"><path id="path14" class="cls-6" d="M25.61,54.91a27.92,27.92,0,0,1-13.67-5.5A34.89,34.89,0,0,1,7.5,45,27.16,27.16,0,0,1,1.64,28.35,27.19,27.19,0,0,1,7.5,11.69a34.89,34.89,0,0,1,4.44-4.41A27.48,27.48,0,0,1,28.35,1.64a27.48,27.48,0,0,1,16.4,5.64,35.63,35.63,0,0,1,4.45,4.41,27.24,27.24,0,0,1,5.85,16.66A27.21,27.21,0,0,1,49.2,45a35.63,35.63,0,0,1-4.45,4.41,28.09,28.09,0,0,1-11.22,5.12A28,28,0,0,1,25.61,54.91Z"/><circle id="path28" class="cls-6" cx="28.35" cy="28.35" r="26.7"/><ellipse id="circle30" class="cls-7" cx="10.8" cy="34.32" rx="2.16" ry="2.67"/><path id="path26" class="cls-5" d="M41.93,36.12a1.31,1.31,0,0,0-.29-1l-.32-.47V22.77l.56-.27c.65-.31,1-.22,1.22.33.07.19.12,2.88.12,6.47,0,4.05.05,6.27.14,6.51a2.23,2.23,0,0,0,.4.64c.26.27.37.29,2.07.29a5.68,5.68,0,0,0,2-.15,1.39,1.39,0,0,0-.17-1.5l-.32-.43V21.78l-.35-.69A2.89,2.89,0,0,0,46,20a1.83,1.83,0,0,0-1.4-.38,3.68,3.68,0,0,0-2.58,1.09,4.76,4.76,0,0,1-.67.5,19,19,0,0,1-.1-2.26l0-2.26H36.42l0,.64c0,.58,0,.65.34.84a.85.85,0,0,1,.45.77c0,.3.06,4,0,8.14l0,7.59-.35.36a1.14,1.14,0,0,0-.35.94,1.65,1.65,0,0,0,.09.67,24.27,24.27,0,0,0,2.7.05l2.62,0Z"/><path id="path24" class="cls-5" d="M34.75,36.39a29.9,29.9,0,0,0,.53-4.06c-.1-.27-1-.15-1.35.17a4.16,4.16,0,0,0-.49,1.14A4.29,4.29,0,0,1,33,34.81c-.23.27-1.3.52-1.3.31s.83-3.48,1.85-7.59S35.34,20,35.34,20a24.4,24.4,0,0,0-3.74-.12H27.86l-.07.35a34.47,34.47,0,0,0-.54,3.92c.08.21.87.24,1.22,0a3.37,3.37,0,0,0,.65-1.28c.45-1.25.73-1.56,1.35-1.49l.37,0L29,28.86c-1,4.09-1.81,7.53-1.82,7.66s.26.22,3.74.22h3.74Z"/><path id="path20" class="cls-5" d="M23.21,36.62c1.19-.54,2-1.89,2.42-3.89a22.12,22.12,0,0,0,.23-4.38c0-4.59-.35-6.3-1.56-7.65a2.8,2.8,0,0,0-4.2-.35l-.65.49,0-2.07,0-2.06h-4.7l0,.56c0,.5,0,.6.35.87l.39.31v16.4L15,35.2a.85.85,0,0,0-.35.92l0,.56h4.7l0-.48a1.1,1.1,0,0,1,.1-.48A2.45,2.45,0,0,1,20,36a3.12,3.12,0,0,0,3.21.59Zm-3.48-2.3-.28-.26V22.61l.32-.32a.79.79,0,0,1,1.36.21c.21.4.22.89.19,5.87,0,5.29,0,5.44-.3,5.78a.84.84,0,0,1-1.29.17Z"/></g></svg>