<svg id="Слой_1" data-name="Слой 1" xmlns="http://www.w3.org/2000/svg" viewBox="0 0 56.69 56.69"><defs><style>.cls-1{fill:#198fcf;}.cls-2{fill:#ba2e88;}</style></defs><path class="cls-1" d="M8.64,18.1H1.51V36H8.64a3.57,3.57,0,0,0,3.6-3.53V21.69A3.59,3.59,0,0,0,8.66,18.1h0M5.07,32.44V21.69h1.8a1.76,1.76,0,0,1,1.77,1.76h0v7.18a1.78,1.78,0,0,1-1.76,1.8H5.07Z"/><path class="cls-1" d="M51.63,36V19.89a1.78,1.78,0,0,1,1.76-1.79h1.8V34.22A1.79,1.79,0,0,1,53.4,36H51.63Z"/><path class="cls-1" d="M36.32,27.84a6.09,6.09,0,0,1-3,1.66,1.78,1.78,0,0,1-2.75,2.27,1.75,1.75,0,0,1-.41-1.13v-1H26.55v4.57A1.81,1.81,0,0,0,28.36,36h3.57a5.37,5.37,0,0,0,4.5-8.31l-.13.14"/><path class="cls-1" d="M30.14,23.48a1.81,1.81,0,0,1,1-1.62V18.1H26.55v6.36h3.58Z"/><path class="cls-1" d="M17.6,25.18V18.1H15.84a1.79,1.79,0,0,0-1.79,1.78h0v4.59h1.79a2.52,2.52,0,0,1,1.79.69"/><path class="cls-1" d="M24.77,24.46V19.89A1.8,1.8,0,0,0,23,18.1H21.19v7.08A2.58,2.58,0,0,1,23,24.49Z"/><path class="cls-1" d="M39.12,36H40.9a1.79,1.79,0,0,0,1.8-1.78h0V29.65H39.12Z"/><path class="cls-1" d="M42.67,24.46v-2h0v-2.6a2.6,2.6,0,0,1,.72-1.79h-.72a3.59,3.59,0,0,0-3.55,3.59v3.49a2.57,2.57,0,0,1,1.78-.69Z"/><path class="cls-1" d="M46.31,29.65h-.05v4.57A1.8,1.8,0,0,0,48,36h1.79v-8.2a4.33,4.33,0,0,1-3.52,1.89"/><path class="cls-2" d="M31.93,18.1v3.59a1.79,1.79,0,0,1,.15,3.58H23a1.78,1.78,0,0,0-1.79,1.78h0v5.39H19.37a1.79,1.79,0,0,1-1.79-1.79h0v-3.6a1.78,1.78,0,0,0-1.78-1.78H14v7.17A3.58,3.58,0,0,0,17.6,36h3.59a3.58,3.58,0,0,0,3.58-3.58h0V28.81h7.16a5.38,5.38,0,0,0,.25-10.71h-.25"/><path class="cls-2" d="M31,29.62h0v1a.94.94,0,0,0,.94.94h0a1,1,0,0,0,1-.94.94.94,0,0,0-.89-1Z"/><path class="cls-2" d="M19.69,36.71h0v.93a.93.93,0,0,0,.93,1,1,1,0,0,0,.95-.94.93.93,0,0,0-.93-.94h-.95Z"/><path class="cls-2" d="M17,36.71h0v.93a.93.93,0,0,0,.93,1,1,1,0,0,0,1-.94.92.92,0,0,0-.93-.94H17Z"/><path class="cls-2" d="M39.12,27.05a1.78,1.78,0,0,1,1.78-1.78h3.62a1.79,1.79,0,1,0,.25-3.58H43.55v-1.8a1.79,1.79,0,0,1,1.72-1.79h1a3.57,3.57,0,0,1,3.57,3.57h0v3.6a3.58,3.58,0,0,1-3.57,3.58H39.12Z"/></svg>