<svg id="Слой_1" data-name="Слой 1" xmlns="http://www.w3.org/2000/svg" viewBox="0 0 56.69 56.69"><defs><style>.cls-1,.cls-2{fill:#1b3761;}.cls-2,.cls-3{fill-rule:evenodd;}.cls-3{fill:#fff;}</style></defs><path id="path2582" class="cls-1" d="M50.37,37a2.63,2.63,0,1,1,0,5.26H10.74a4.5,4.5,0,0,1-4.51-4.51V35.61a4.68,4.68,0,0,1,.06-.76A2.71,2.71,0,0,0,8.94,37Z"/><path id="path2584" class="cls-1" d="M3.61,30.86a2.79,2.79,0,1,0,2.78-2.78A2.79,2.79,0,0,0,3.61,30.86Z"/><path id="path2586" class="cls-2" d="M17.76,21.92c.52-2.43,1.94-4,4.3-4a4.14,4.14,0,0,1,4,4ZM28.41,24.8c1.58,0,2.07-.45,2.07-2.16A8.16,8.16,0,0,0,22,14.46c-5.58,0-8.91,3.9-8.91,9.72,0,4.35,2.49,9.08,9.07,9.08,2.84,0,7.39-1.41,7.39-4.42a2,2,0,0,0-1.94-1.95c-1.9,0-1.9,2.46-5.45,2.46a4.2,4.2,0,0,1-4.36-4.55Z"/><path id="path2588" class="cls-1" d="M50.34,17c0-1.35-.52-2.52-2.38-2.52S45.58,15.63,45.58,17V25.3a3.81,3.81,0,0,1-3.62,4c-2.06,0-3-1.45-3-3.49V17c0-1.35-.52-2.52-2.38-2.52S34.19,15.63,34.19,17v9.8c0,5.11,3.13,6.63,6,6.63A6.74,6.74,0,0,0,46,30.23H46v.66c0,1.52.65,2.52,2.16,2.52s2.15-1,2.15-2.52Z"/><path id="path2590" class="cls-3" d="M12.8,38.05l.78,1.82v1.18h.6V39.87L15,38.05h-.65l-.42,1.16-.41-1.16Zm2,1.87c0,.79.19,1.2.89,1.19s.89-.42.89-1.19-.2-1.2-.89-1.19S14.76,39.15,14.76,39.92Zm.57,0c0-.46,0-.79.32-.79s.31.23.31.79-.08.8-.31.8S15.33,40.38,15.33,39.92ZM18,41.05h.56V38.79H18v1.5c0,.25-.11.38-.31.38s-.24-.09-.24-.32V38.79h-.58v1.68c0,.44.21.64.57.64a.63.63,0,0,0,.58-.32Zm.95,0h.57V39.7a.39.39,0,0,1,.43-.41h.18v-.56H20a.59.59,0,0,0-.52.37v-.31H19Zm2.42-3v3h1.71v-.49H22v-.81h1v-.49H22v-.71H23v-.5Zm3.16,3h.55V38.79H24.5v1.5c0,.25-.11.38-.3.38s-.25-.09-.25-.32V38.79h-.58v1.68c0,.44.21.64.58.64a.62.62,0,0,0,.57-.32Zm.94,0h.58V39.7a.39.39,0,0,1,.43-.41h.18v-.56h-.11a.59.59,0,0,0-.52.37v-.31h-.55Zm1.32-1.13c0,.79.19,1.2.89,1.19s.89-.42.89-1.19-.19-1.2-.89-1.19S26.79,39.15,26.79,39.92Zm.58,0c0-.46,0-.79.31-.79s.31.23.31.79-.07.8-.31.8S27.37,40.38,27.37,39.92Zm2.09,0c0-.49.05-.74.31-.74s.3.25.3.74-.05.75-.3.75S29.46,40.41,29.46,39.92Zm-.58,1.87h.58v-.95a.57.57,0,0,0,.5.27c.47,0,.69-.35.69-1.19s-.22-1.19-.69-1.19a.56.56,0,0,0-.52.3v-.24h-.56ZM32.62,40v-.13c0-.69-.15-1.15-.82-1.15s-.9.57-.9,1.17,0,1.21.87,1.21a.74.74,0,0,0,.82-.82h-.52c0,.28-.12.43-.31.43s-.28-.26-.28-.53V40Zm-1.14-.34v-.09c0-.21.06-.45.29-.45s.29.19.3.54Zm2-.19v-.06a.26.26,0,0,1,.27-.29.24.24,0,0,1,.27.27c0,.15-.06.22-.23.27l-.33.09c-.4.11-.57.28-.57.7s.14.65.54.65a.56.56,0,0,0,.58-.29,1,1,0,0,0,.08.23h.55a1.06,1.06,0,0,1-.07-.44V39.42c0-.4-.13-.69-.82-.69-.43,0-.79.18-.79.7v0Zm.54.89a.34.34,0,0,1-.36.35c-.15,0-.22-.15-.22-.32s.1-.32.33-.37a.6.6,0,0,0,.25-.11Zm1,.68h.58v-1.5c0-.25.11-.37.31-.37s.25.09.25.31v1.56h.58V39.38c0-.45-.22-.65-.58-.65a.62.62,0,0,0-.57.33v-.27h-.56Zm3.76,0v-3h-.6v3Zm1-1.13c0-.49.05-.74.3-.74s.31.25.31.74-.05.75-.31.75S39.66,40.41,39.66,39.92Zm.63,1.13h.56v-3h-.58v1a.57.57,0,0,0-.5-.27c-.47,0-.69.35-.69,1.19s.22,1.19.69,1.19a.54.54,0,0,0,.51-.3Zm2.58-1v-.13c0-.69-.15-1.15-.82-1.15s-.9.57-.9,1.17,0,1.21.87,1.21a.74.74,0,0,0,.82-.82h-.52c0,.28-.11.43-.31.43s-.28-.26-.28-.53V40Zm-1.14-.34v-.09c0-.21.06-.45.3-.45s.28.19.29.54Zm1.45,1.38h.58v-1.5c0-.25.1-.37.3-.37s.25.09.25.31v1.56h.58V39.38c0-.45-.22-.65-.58-.65a.62.62,0,0,0-.57.33v-.27h-.55Zm2.22-2.26h-.29v.4h.29v1.29c0,.46.08.6.54.6.13,0,.25,0,.38,0v-.4h-.13c-.17,0-.21-.07-.21-.25V39.19h.34v-.4H46v-.64H45.4Zm1.14,2.26h.58V38.79h-.58Zm0-2.53h.58V38h-.58Zm1.11.27h-.29v.4h.29v1.29c0,.46.09.6.54.6.13,0,.25,0,.38,0v-.4h-.13c-.17,0-.21-.07-.21-.25V39.19h.34v-.4h-.34v-.64h-.58Zm1.12,3H49c.54,0,.67-.11.87-.89l.55-2.11h-.58l-.3,1.56-.34-1.56h-.6l.63,2.26c0,.2-.1.32-.31.32h-.15Z"/></svg>