<svg id="Слой_1" data-name="Слой 1" xmlns="http://www.w3.org/2000/svg" xmlns:xlink="http://www.w3.org/1999/xlink" viewBox="0 0 56.69 56.69"><defs><style>.cls-1,.cls-3{fill:#fff;}.cls-1,.cls-5,.cls-6{fill-rule:evenodd;}.cls-2,.cls-6{fill:#010101;}.cls-4{mask:url(#mask);}.cls-5{fill:#afca21;}.cls-7{mask:url(#mask-2);}</style><mask id="mask" x="1.83" y="19.54" width="10.52" height="10.52" maskUnits="userSpaceOnUse"><g id="mask-4"><polygon id="path-3" class="cls-1" points="1.83 19.54 12.35 19.54 12.35 30.06 1.83 30.06 1.83 19.54"/></g></mask><mask id="mask-2" x="38.14" y="24.66" width="9.44" height="10.81" maskUnits="userSpaceOnUse"><g id="mask-6"><polygon id="path-5" class="cls-1" points="38.14 24.66 47.58 24.66 47.58 35.46 38.14 35.46 38.14 24.66"/></g></mask></defs><g id="tld_eus_col-positive" data-name="tld eus col-positive"><g id="Oval"><circle id="path-1" class="cls-2" cx="30.99" cy="29.38" r="23.88"/><circle id="path-1-2" data-name="path-1" class="cls-3" cx="30.99" cy="29.38" r="23.88"/></g><g id="Group-11"><g id="Group-3"><g class="cls-4"><path id="Fill-1" class="cls-5" d="M12.35,24.8a5.26,5.26,0,1,1-5.26-5.26,5.27,5.27,0,0,1,5.26,5.26"/></g></g><path id="Fill-4" class="cls-6" d="M32.65,33.55A3.77,3.77,0,0,1,31,35a5.43,5.43,0,0,1-3.51.22A2,2,0,0,1,26,33a22.7,22.7,0,0,1,.33-2.61c.15-1,.35-2,.53-2.93,0-.06,0-.12,0-.21a6.15,6.15,0,0,0-.86,0,.37.37,0,0,1-.45-.33c-.23-.92,0-1.58.93-1.87a5.52,5.52,0,0,1,1.34-.22,12.26,12.26,0,0,1,1.82,0,1,1,0,0,1,1,1.3c-.24,1.61-.51,3.22-.77,4.84a11.5,11.5,0,0,0-.12,1.18.57.57,0,0,0,.54.68,2.27,2.27,0,0,0,2.29-1,1.06,1.06,0,0,0,.1-.37c.24-1.71.46-3.41.7-5.12a3.8,3.8,0,0,1,.18-.74,1.18,1.18,0,0,1,1-.86,4.19,4.19,0,0,1,2.32.3.33.33,0,0,1,.23.42L36.19,32c0,.17,0,.35,0,.52s.1.4.37.4a3.64,3.64,0,0,0,.74-.06.35.35,0,0,1,.38.15,1.27,1.27,0,0,1-.29,1.74,3.42,3.42,0,0,1-1.05.47,8.11,8.11,0,0,1-2.6.17c-.82-.07-1.14-.47-1.11-1.29,0-.19,0-.37.06-.55"/><path id="Fill-6" class="cls-6" d="M18.71,29.25a12.13,12.13,0,0,0,1.48,0,2.41,2.41,0,0,0,1-.33,1.05,1.05,0,0,0,.41-1.23c-.12-.37-.44-.56-1-.56a2.16,2.16,0,0,0-1.92,2.14m-.19,1.64a1.76,1.76,0,0,0,1.13,1.82,4.14,4.14,0,0,0,2.39,0,9.25,9.25,0,0,0,1.35-.44.42.42,0,0,1,.5.08,1.4,1.4,0,0,1,.24,1.78,2.38,2.38,0,0,1-1.3.89,10,10,0,0,1-3.72.39A5.93,5.93,0,0,1,17,35,3.35,3.35,0,0,1,15,32.43a7.27,7.27,0,0,1,.74-5,5,5,0,0,1,3.81-2.55,6.43,6.43,0,0,1,3.05.15,3,3,0,0,1,1.35,4.81,3.7,3.7,0,0,1-2.23,1.05,10.19,10.19,0,0,1-3,.05l-.15,0"/><g id="Group-10"><g class="cls-7"><path id="Fill-8" class="cls-6" d="M42.13,35.46A7.49,7.49,0,0,1,39,34.91a1.47,1.47,0,0,1-.51-2.31c.3-.35.46-.36.88-.17a7.08,7.08,0,0,0,3.08.59c.57,0,.89-.37.72-.8a.82.82,0,0,0-.38-.4c-.41-.18-.84-.32-1.25-.48a8.09,8.09,0,0,1-.81-.33,2.79,2.79,0,0,1-1.64-2.94A3.48,3.48,0,0,1,41.82,25a8.44,8.44,0,0,1,4.32-.05,3,3,0,0,1,.59.23,1.61,1.61,0,0,1,.2,2.72.36.36,0,0,1-.41.05,5.75,5.75,0,0,0-2.58-.54,2,2,0,0,0-.54.1.47.47,0,0,0-.37.43.55.55,0,0,0,.25.6c.36.18.75.33,1.12.52a12,12,0,0,1,1.46.77,2.31,2.31,0,0,1,1,2.14,3.32,3.32,0,0,1-3,3.35,14.78,14.78,0,0,1-1.65.18"/></g></g></g></g></svg>