<svg id="Слой_1" data-name="Слой 1" xmlns="http://www.w3.org/2000/svg" xmlns:xlink="http://www.w3.org/1999/xlink" viewBox="0 0 56.69 56.69"><defs><style>.cls-1{fill:none;}.cls-2{clip-path:url(#clip-path);}.cls-3{fill:#fff;}.cls-4{fill:#5685c5;}.cls-5{fill:#e30615;}</style><clipPath id="clip-path"><rect class="cls-1" x="-0.64" y="-0.64" width="57.97" height="57.97"/></clipPath></defs><g class="cls-2"><g id="s"><g id="c"><path id="t" class="cls-3" d="M8.3,18.11,6.5,23.64l2.77.9Z"/><path id="t-2" data-name="t" class="cls-3" d="M8.3,18.11l1.8,5.53-2.77.9Z"/></g><g id="d"><g id="c-2" data-name="c"><path id="t-3" data-name="t" class="cls-3" d="M13.84,22.13H8V25Z"/><path id="t-4" data-name="t" class="cls-3" d="M13.84,22.13,9.13,25.55,7.42,23.2Z"/></g><g id="c-3" data-name="c"><path id="t-5" data-name="t" class="cls-3" d="M4.88,28.64l4.71-3.42L7.88,22.86Z"/><path id="t-6" data-name="t" class="cls-3" d="M4.88,28.64l1.8-5.54,2.77.9Z"/></g></g><g id="d-2" data-name="d"><g id="c-4" data-name="c"><path id="t-7" data-name="t" class="cls-3" d="M11.72,28.64,9.92,23.1,7.16,24Z"/><path id="t-8" data-name="t" class="cls-3" d="M11.72,28.64,7,25.22l1.71-2.36Z"/></g><g id="c-5" data-name="c"><path id="t-9" data-name="t" class="cls-3" d="M2.76,22.13l4.71,3.42L9.19,23.2Z"/><path id="t-10" data-name="t" class="cls-3" d="M2.76,22.13H8.59V25Z"/></g></g></g><g id="layer1"><g id="g3074"><path id="path3076" class="cls-4" d="M11.78,47.08c20.13,4,35,5.67,55.51-.13V49c-20.63,5.72-35.7,4-55.9,0-17.58-3.49-31.36-6.13-49-.11V46.82c17.69-5.89,31.72-3.25,49.36.26"/></g><g id="g3078"><path id="path3080" class="cls-5" d="M37.29,48.35l-.08-7.75a4.22,4.22,0,0,0-8.43,0l-.07,7c-4.54-.54-8.95-1.29-13.29-2.08a50.14,50.14,0,0,0,3.2-15.09H47.39A63.65,63.65,0,0,0,51.23,48a94,94,0,0,1-13.94.38"/></g><g id="g3082"><path id="path3084" class="cls-5" d="M24.47,13.33H22.94l-.77,1.32-.76-1.32H19.88L20.65,12l-.77-1.32h1.53l.76-1.32.77,1.32h1.53L23.7,12Z"/></g><g id="g3086"><path id="path3088" class="cls-5" d="M46.12,13.33H44.6l-.77,1.32-.76-1.32H41.54L42.3,12l-.76-1.32h1.53l.76-1.32.77,1.32h1.52L45.36,12Z"/></g><g id="g3090"><path id="path3092" class="cls-5" d="M29.08,13.89v-.13a3.91,3.91,0,0,1,3-3.81V8.26H30.68V6.68H32.1V5.06h1.81V6.68h1.42V8.26H33.91V10a4,4,0,0,1,3,3.94h1.52v2H36.74V26.72h3.69V15.91h6.81V26.72h2.14V28.8H16.62V26.72h2.15V15.91h6.81V26.72h3.69V15.91H27.56v-2Z"/></g></g></g></svg>