<svg id="Слой_1" data-name="Слой 1" xmlns="http://www.w3.org/2000/svg" viewBox="0 0 56.69 56.69"><defs><style>.cls-1{fill:#378ea2;}.cls-2{fill:#adc6d1;}.cls-3{fill:#fefeff;}</style></defs><path class="cls-1" d="M44,43a18.56,18.56,0,0,1,1.51-1.09,3.86,3.86,0,0,1,2.74-.4,2.91,2.91,0,0,1,2.21,3c0,1.44,0,2.87,0,4.31,0,.52.16.71.65.62.75-.14.89.22.86.89-.05,1.2,0,1.2-1.22,1.2s-2.39,0-3.58,0c-.45,0-.62-.15-.57-.59a4.69,4.69,0,0,0,0-.53c0-.93,0-.95.9-1,.35,0,.47-.12.47-.47,0-1.28,0-2.56,0-3.84,0-1.11-.62-1.57-1.73-1.43a4.39,4.39,0,0,0-2,.93c-.24.18-.21.43-.21.67,0,1.17,0,2.34,0,3.51,0,.51.14.71.64.62s.76.15.74.74c0,1.35,0,1.35-1.34,1.35-1.15,0-2.3,0-3.45,0-.41,0-.58-.12-.53-.54,0-.2,0-.4,0-.6,0-.92,0-1,.91-1,.41,0,.54-.14.53-.54q0-5.67,0-11.34c0-.54-.26-.61-.66-.54-.68.11-.83-.17-.8-.81,0-1.26,0-1.27,1.28-1.27.7,0,1.4,0,2.1,0,.49,0,.59.17.59.62C44,38,44,40.4,44,43Z"/><path class="cls-1" d="M35.18,51.7a6.5,6.5,0,0,1-3.11-.87,1.83,1.83,0,0,1-1-1.58,1.33,1.33,0,0,1,1.21-1.44A1.26,1.26,0,0,1,33.73,49c0,.55.28.68.72.74a4.53,4.53,0,0,0,1.94,0c.46-.13.86-.37.88-.89s-.38-.7-.76-.83c-.64-.23-1.29-.4-1.93-.61-.47-.15-.94-.3-1.4-.49a2.42,2.42,0,0,1-1.74-2.19,2.83,2.83,0,0,1,1.35-2.62,5.09,5.09,0,0,1,3.9-.6,4.69,4.69,0,0,1,1.75.69,1.79,1.79,0,0,1,.93,1.61,1.17,1.17,0,0,1-1.15,1.31,1.19,1.19,0,0,1-1.41-1.18c0-.46-.21-.55-.59-.62a3,3,0,0,0-1.79.13.88.88,0,0,0-.6.75c0,.4.24.61.55.77a10.27,10.27,0,0,0,2,.68,13.4,13.4,0,0,1,1.71.61,2.63,2.63,0,0,1,.51,4.46A5.3,5.3,0,0,1,35.18,51.7Z"/><path class="cls-1" d="M19.48,43.52c.54-.49.93-1,1.43-1.43a2.59,2.59,0,0,1,2.19-.66,1.6,1.6,0,0,1,.53,3A1.51,1.51,0,0,1,21.79,44c-.29-.35-.5-.26-.77-.06a2.73,2.73,0,0,0-1.44,2.62,15.9,15.9,0,0,1,0,2.29c0,.38.06.55.51.55,1.23,0,1.2,0,1.24,1.3,0,.62-.15.82-.78.8-1.42,0-2.84,0-4.26,0-.55,0-.74-.18-.66-.69a3.84,3.84,0,0,0,0-.48c0-.9,0-.92.93-.93.44,0,.52-.18.52-.56,0-1.53,0-3.06,0-4.59,0-.47-.15-.67-.61-.59-.7.12-.89-.16-.86-.84.06-1.28,0-1.29,1.34-1.29.7,0,1.4,0,2.1,0,.32,0,.44.1.43.42C19.47,42.5,19.48,43,19.48,43.52Z"/><path class="cls-1" d="M29.07,45.52c0,1.12,0,2.25,0,3.37,0,.38.06.56.51.55,1,0,1,0,1,1,0,1.12,0,1.12-1.15,1.12s-2.52,0-3.78,0c-.44,0-.63-.13-.58-.58a1.82,1.82,0,0,0,0-.33c0-1.1,0-1.11,1.09-1.18.32,0,.42-.14.42-.45,0-1.61,0-3.23,0-4.85,0-.51-.31-.44-.62-.44-1,0-.89.13-.89-.91,0-1.22,0-1.22,1.19-1.22.72,0,1.44,0,2.16,0,.51,0,.71.1.69.66C29,43.32,29.07,44.42,29.07,45.52Z"/><path class="cls-1" d="M13.22,45.52c0,1.1,0,2.2,0,3.3,0,.44.08.64.58.62,1,0,.9-.14.9,1s0,1.13-1.14,1.13-2.2,0-3.31,0c-.4,0-.61,0-.39-.51A1.86,1.86,0,0,0,10,50c0-.35-.09-.68.46-.61.26,0,.25-.2.25-.38,0-1.64,0-3.28,0-4.92,0-.46-.27-.42-.57-.42-1,0-1,0-1-1,0-1.14,0-1.14,1.13-1.14.72,0,1.44,0,2.16,0s.78.2.76.79C13.18,43.41,13.22,44.46,13.22,45.52Z"/><path class="cls-1" d="M9.15,50.18a2.19,2.19,0,0,1-4.38,0A2.27,2.27,0,0,1,7,48,2.17,2.17,0,0,1,9.15,50.18Z"/><path class="cls-1" d="M13.38,38.75a1.69,1.69,0,0,1-1.74,1.6,1.67,1.67,0,0,1-1.59-1.68,1.73,1.73,0,0,1,1.75-1.61A1.65,1.65,0,0,1,13.38,38.75Z"/><path class="cls-1" d="M27.56,40.35a1.61,1.61,0,0,1-1.63-1.61,1.66,1.66,0,0,1,1.66-1.68,1.65,1.65,0,1,1,0,3.29Z"/><path class="cls-2" d="M37.44,24.17c.25,1.64,1.48,2.11,2.86,2.44.35.08,1.08-.2,1,.37s-.53,1.49-1.26,1.27c-1.34-.39-1.32.24-1.31,1.2S37.77,30.55,37,31c.06-5.66-2.25-9.72-7.81-11s-9.45,1.31-11.92,6.39c-.54-.74-1.15-1.31-.77-2.25a.49.49,0,0,0-.19-.64c-1.2-.73-1-2-1.26-3.23.84.39,1.21,1.05,1.76,1.48s1,.54,1.46-.08-.27-.68-.49-1-.55-.5-.8-.77c-2.27-2.52-2.18-2.9-.93-6.43.3,2.81,1.24,5,3.64,6.35.65.35,1.06-.24,1.63-.6a12.49,12.49,0,0,1-2.44-1.84,5.53,5.53,0,0,1,4.47-9.09A4.22,4.22,0,0,1,27,12.27a4.17,4.17,0,0,1-3.42,4,2.45,2.45,0,0,1-2.75-1.77,2.31,2.31,0,0,1,1.25-2.77c.55-.22,1.19-.4,1.58.18s-.08,1-.65,1.31a.7.7,0,0,0-.38,1c.2.44.63.33,1,.25a2.49,2.49,0,0,0,1.66-2.35,2.31,2.31,0,0,0-2.28-2,3.48,3.48,0,0,0-3.26,2.08,3.55,3.55,0,0,0,.44,4A3.64,3.64,0,0,0,24,17.61a5.36,5.36,0,0,0,4.29-6,5.45,5.45,0,0,0-5.13-4.68,10.3,10.3,0,0,0-1.77.19c3.37-3,7.38-1,8.58,4.21a1.82,1.82,0,0,0,.75-2.51,10.33,10.33,0,0,0-3.69-4c1.24-.47,2.23-.64,3.15.38A13,13,0,0,1,32,7.59c.15.27.16,1,.81.51.39-.28.83-.59.42-1.2s-.91-1.43-1.47-2.32c1.2.31,2.37.15,2.9,1.39a.53.53,0,0,0,.8.29c.94-.39,1.52.24,2.31.85a12.71,12.71,0,0,0-4.47,2.94,12,12,0,0,0-3.28,7.28c0,.34-.17.8.19,1s.68.45,1,.26.21-.66.22-1a10.12,10.12,0,0,1,6.45-9,4.84,4.84,0,0,1,.82-.25,1.36,1.36,0,0,1,1.5,1c.2.63-.63.45-1,.56A8.49,8.49,0,0,0,33.24,19C33.34,20.16,34.3,20.4,35,21l.14.11L35,20.92c-.39-1.93-.75-3.86.22-5.75a7.28,7.28,0,0,1,5.37-4.09c.53-.09,1.09-.13,1.37.52.14.32.58.58.35,1s-.6.17-.91.19a5.36,5.36,0,0,0-1.66,10.37,6.54,6.54,0,0,0,2.15.54c.36,0,1.08-.27,1,.52-.1.56-.23,1.28-1.13,1.18a9.2,9.2,0,0,1-3-.82,2.52,2.52,0,0,0-1.26-.44c0-.11-.1-.21-.14-.32l-.09.07C37.32,24,37.38,24.07,37.44,24.17Z"/><path class="cls-2" d="M23.44,31.74c-2.17-.72-2.38-1.08-1.89-3.11a5.49,5.49,0,0,1,5.57-4.46,5.73,5.73,0,0,1,5.33,4.68,3.5,3.5,0,0,1-4.3,4.35c-2.75-.49-3.84-1.64-3.58-3.79a2.37,2.37,0,0,1,2.51-2.06,2.34,2.34,0,0,1,2.21,2.1c0,.46,0,.94-.56,1.08a.86.86,0,0,1-1.08-.61c-.19-.48-.33-1.06-1-.72s-.41.92-.2,1.42A2.26,2.26,0,0,0,28.84,32a2.39,2.39,0,0,0,1.92-2.27,3.71,3.71,0,0,0-2.08-3.39,3.5,3.5,0,0,0-4,.29,3.73,3.73,0,0,0-1.57,3.78C23.21,30.84,23.34,31.27,23.44,31.74Z"/><path class="cls-2" d="M33.25,32.56a6.93,6.93,0,0,0-7.85-9.62A6.91,6.91,0,0,0,20.08,29a2.78,2.78,0,0,1-.11.46c-1.56-.88-1.7-1.26-1.13-2.84,1.2-3.31,5.17-6,8.37-5.63,4.53.48,7.78,3.42,8.29,7.46a6,6,0,0,1,0,2.19c-.36,1.6-.53,1.8-2.3,1.9Z"/><path class="cls-2" d="M42.63,20.46c.35.24,1.18-.48,1.17.51,0,.81-.34,1.31-1.37,1.25-1.75-.09-3.24-.5-4.18-2.13a3.85,3.85,0,0,1,.2-4.3,4.16,4.16,0,0,1,3.76-1.64,1.4,1.4,0,0,1,1.37,1.31c.11.77.21,1.54.32,2.31A1.08,1.08,0,0,1,43,19.13a2,2,0,0,1-1.92-.53.81.81,0,0,1-.06-.93.69.69,0,0,1,.82-.4c.57.13,1.29.43,1.27-.5,0-.71-.75-.94-1.38-1a2.44,2.44,0,0,0-2.24,1.82,2.17,2.17,0,0,0,1.2,2.47A3.44,3.44,0,0,0,42.63,20.46Z"/><path class="cls-2" d="M33.24,32.55l-.09.11s0,0,0-.07l.08,0Z"/><path class="cls-3" d="M37.44,24.17c-.06-.1-.12-.2-.17-.3l.09-.07c0,.11.09.21.14.32Z"/><path class="cls-3" d="M35,20.92l.11.14L35,21Z"/></svg>