<svg id="Слой_1" data-name="Слой 1" xmlns="http://www.w3.org/2000/svg" viewBox="0 0 56.69 56.69"><defs><style>.cls-1{fill:#272224;}.cls-2{fill:#128ec2;}</style></defs><path class="cls-1" d="M53.5,36.09a15.07,15.07,0,0,1-3.67-.21,1.57,1.57,0,0,1-1.26-1.7c0-3.1,0-6.21,0-9.32a2,2,0,0,0-1.91-2.07,2.09,2.09,0,0,0-2.07,1.68,1.9,1.9,0,0,0,1.62,2.26c.63.09.7.34.69.85,0,1.85,0,3.7,0,5.55a2.59,2.59,0,0,1-1.5,2.51,6.32,6.32,0,0,1-7.69-1.34,4,4,0,0,1-3.37,2,8.89,8.89,0,0,1-4.09-.42,2.21,2.21,0,0,1-1.49-2.24c0-3.55,0-7.1-.07-10.65,0-.42.11-.53.47-.52,1,0,2.1,0,3.13.1a1.47,1.47,0,0,1,1.41,1.67c0,2.44,0,4.89,0,7.33,0,.6-.11,1.21.84,1.2s.78-.68.78-1.25c0-2.77,0-5.55,0-8.33,0-.6.14-.77.72-.73.89.05,1.8,0,2.69.07a1.52,1.52,0,0,1,1.58,1.74c-.05,2.4,0,4.81,0,7.22,0,.62-.13,1.29.87,1.27S42,32,42,31.42c0-2.33,0-4.67,0-7,0-1.39.36-1.84,1.73-1.9,2.65-.12,5.31-.13,8,0,.84,0,1.56.29,1.72,1.26,0,3.57,0,7.13,0,10.7,0,.18,0,.37.17.49Z"/><path class="cls-1" d="M13.72,29.71c0,1.88,0,3.75,0,5.63,0,.55-.07.81-.7.76a13.4,13.4,0,0,1-2.89-.21,1.56,1.56,0,0,1-1.3-1.66c0-4.44,0-8.88,0-13.32,0-.29-.1-.62.39-.59a16.41,16.41,0,0,1,3.13.13,1.62,1.62,0,0,1,1.37,1.84,41.32,41.32,0,0,0,.19,5.54c.54-1.14,1.13-2.27,1.62-3.43a2.77,2.77,0,0,1,2.53-1.87c1.14-.08,2.29,0,3.46,0-1,1.89-1.87,3.77-2.85,5.61a1.26,1.26,0,0,0,.09,1.5C20.16,31.7,21.53,33.81,23,36c-1.57,0-3,.07-4.49,0a2.55,2.55,0,0,1-2.12-1.61c-.77-1.58-1.62-3.13-2.44-4.7Z"/><path class="cls-1" d="M27.68,36.07a12.32,12.32,0,0,1-3.62-.21,1.42,1.42,0,0,1-1.13-1.54q0-5.66-.07-11.31c0-.48.13-.59.54-.58h.11c3.82-.28,4.17.05,4.17,3.78Z"/><path class="cls-2" d="M7.91,33.77a2.36,2.36,0,0,1-4.72-.06,2.3,2.3,0,0,1,2.46-2.32A2.28,2.28,0,0,1,7.91,33.77Z"/></svg>