<svg id="Слой_1" data-name="Слой 1" xmlns="http://www.w3.org/2000/svg" viewBox="0 0 56.69 56.69"><defs><style>.cls-1{fill:#fff;}.cls-2{fill:#feed8f;}.cls-3{fill:#fee14e;}.cls-4{fill:#d6c28f;}.cls-5{fill:#be9e4b;}.cls-6{fill:#6aba7a;}.cls-7{fill:#ea5154;}.cls-8{fill:#e52827;}.cls-9{fill:#2fa849;}.cls-10{fill:#141414;}.cls-11{fill:#010101;}</style></defs><g id="layer1"><g id="g2696"><path id="path2718" class="cls-1" d="M28,51a1.89,1.89,0,0,0-.07-.35c-.11-.38-.1-.51,0-.64s.09-.12.07-.14.1-.36.26-.42.21,0,.39.21l.15.17h.54l-.08-.1c-.07-.1-.07-.12,0-.24a1,1,0,0,1,.07-.18c.05,0,.18.21.19.36s0,.19.26.17h.17l-.09-.39a1.33,1.33,0,0,0-.15-.43c-.05,0-.05-.07,0-.23s.08-.18.12-.18.06,0,.06,0a.17.17,0,0,0,.07.1c.06,0,.08,0,.14-.11s.07-.14.16-.11.16,0,.2-.13.23,0,.27.09a.88.88,0,0,1-.11.29l-.11,0c-.05,0-.1,0-.1,0a.23.23,0,0,1-.05.1s-.06,0-.14,0-.1,0-.12.08a.8.8,0,0,1-.06.17s0,.16,0,.37l.08.34h.13l.33,0c.17,0,.18,0,.17-.11s0-.09-.11,0a.39.39,0,0,1-.38,0c-.17-.09,0-.74.18-.77s.44.31.47.71c0,.12,0,.3,0,.38l0,.15-.28,0c-.16,0-.8,0-1.42,0s-1.15,0-1.19.06-.06,0,0,.11c.09.33.11.5.06.61S28,51.15,28,51Zm.31-1.13c.06,0,.06,0,0-.08s-.08,0-.14,0-.08.08,0,.08Zm2.26-.58c0-.06-.13-.06-.13,0s0,.06.06,0S30.55,49.34,30.55,49.32Zm-1.67,1.41c-.1,0-.11-.12,0-.24s.09-.09.17-.05.09,0,.13,0,.08-.11.23,0,.13.07,0,.23-.08.11-.14.08-.15-.05-.17,0S29,50.8,28.88,50.73Zm2.19-.16a.51.51,0,0,1,.08-.21c.08-.09.19-.08.19,0s0,.08-.08.08-.07,0,0,0a.17.17,0,0,0,.12,0s.07,0,.07,0-.26.18-.34.18S31.06,50.64,31.07,50.57Zm-5.4,0a1.67,1.67,0,0,1-.29-.21l-.17-.15-.15.09c-.28.19-.5.16-.82-.11s-.17-.31.07-.15a.54.54,0,0,0,.25.09,1.26,1.26,0,0,0,.57-.26c.09-.09.1-.16,0-.3s0-.12,0-.27.08-.16.1-.16.12.25.12.37a2,2,0,0,1-.05.36l0,.23.13.09a.56.56,0,0,0,.61,0c.13-.08.14-.09.08-.11a.28.28,0,0,1-.21-.31c0-.33.26-.62.46-.53a.49.49,0,0,1,.16.44c0,.07,0,.08.15.1l.32,0h.14l-.1-.11a.34.34,0,0,0-.17-.11c-.09,0-.22-.2-.22-.35s.12-.29.42-.39l.31-.07c.06,0,.07.29,0,.31l-.22.06-.17,0,.18.22c.27.34.31.43.28.64l0,.18-.32,0-.47,0c-.14,0-.16,0-.23.11A.64.64,0,0,1,25.67,50.55Zm.61-.92c0-.07-.08-.09-.12,0s.05.12.11.12S26.31,49.69,26.28,49.63Zm4.86.36a3.54,3.54,0,0,0-.11-.62c-.1-.42-.11-.45-.05-.6s.07-.15.09-.15a4.34,4.34,0,0,1,.27,1.13c0,.25-.06.44-.14.44S31.14,50.15,31.14,50Zm3.27,0c-.27-.08-.37-.12-.37-.17s.07-.05.27-.05.28,0,.43-.15.18-.2,0-.2a.31.31,0,0,1-.18-.09c-.08-.08-.09-.13-.09-.31s0-.4.17-.46a.16.16,0,0,1,.19,0,.88.88,0,0,1,.24.36,1.73,1.73,0,0,0,.58-.16s-.26-.12-.35-.12a.35.35,0,0,1-.17-.05.36.36,0,0,1-.15-.39,1.77,1.77,0,0,1,.56-.51.86.86,0,0,1,.1.32l-.19.12-.18.13.22.11a2.15,2.15,0,0,1,.35.21l.13.11.35-.12c.28-.09.33-.12.27-.15a1,1,0,0,0-.52,0c-.11,0-.11,0,0-.22s.34-.26.77-.07a1.53,1.53,0,0,0,.39.12c.09,0,.11,0,.15.17a.41.41,0,0,1,0,.19s-1.3.46-1.76.59-.49.15-.49.21a.85.85,0,0,1-.24.48A.51.51,0,0,1,34.41,50Zm.48-1s-.14-.11-.17-.07a.09.09,0,0,0,0,.07C34.75,49.09,34.89,49.09,34.89,49Zm-2.35.76a.5.5,0,0,1-.11-.2l0-.11-.1.11c-.08.1-.11.11-.31.11s-.21,0-.21-.09a.84.84,0,0,1,.26-.56.39.39,0,0,0,.17-.28c0-.33.07-.29.25.25a1.91,1.91,0,0,0,.19.46.8.8,0,0,0,.51-.05.54.54,0,0,0,.18-.25.71.71,0,0,1,.19-.28c.09-.06.1-.06.2,0a1.34,1.34,0,0,1,.32.62l0,.14h-.33c-.29,0-.33,0-.39.06a.89.89,0,0,1-.58.16A.29.29,0,0,1,32.54,49.8Zm-.28-.52c.09-.1,0-.14-.09,0s-.1.1,0,.1A.17.17,0,0,0,32.26,49.28Zm1.39,0c-.08-.06-.13-.07-.13,0s.07.07.15.08S33.71,49.32,33.65,49.28Zm-9.82.43a.72.72,0,0,1-.36-.15c-.06-.06-.07-.07-.07,0s-.12.07-.3,0a.63.63,0,0,0-.25-.07.87.87,0,0,1-.54-.17c-.07-.07-.11-.08-.25-.06a1.9,1.9,0,0,1-.7-.16,4.3,4.3,0,0,1-.58-.22c-.09-.09-.07-.36,0-.71a1,1,0,0,0,.08-.4c0-.08,0-.13.09-.22s.14-.12.15-.11,0,.38-.06.65-.12.46,0,.51l.38.13.31.09,0-.08,0-.14a.25.25,0,0,1,.09-.18c.09-.11.11-.12.14-.08a.63.63,0,0,1,0,.31l0,.25h.13c.12,0,.2-.06.29-.21s.15,0,.1.13,0,.21.21.26.33,0,.33-.07.11-.15.17-.15,0,0,0,.14,0,.14,0,.18.07,0,.08-.06a.34.34,0,0,1,.11-.19c.09-.07.1-.07.12,0a.39.39,0,0,1,0,.19q0,.12,0,.12a.21.21,0,0,1,.11.05,1.14,1.14,0,0,0,.44.14c.08,0,0-.26-.08-.36l-.08-.09.09-.18c0-.1.1-.19.13-.19s.16.19.19.37a2.16,2.16,0,0,1-.05.5C24.23,49.83,24.27,49.81,23.83,49.71Zm-4-.63a1.24,1.24,0,0,1-.57-.32c-.18-.22-.05-.59.28-.84s.21-.15.24-.08-.05.13-.16.23-.23.32-.08.46a.87.87,0,0,0,.54.24c.15,0,.21,0,.28-.05s.09-.11.09-.29a.39.39,0,0,1,.11-.34c.05-.07.11-.12.13-.1a.86.86,0,0,1,0,.23,1.47,1.47,0,0,1-.29.79A.74.74,0,0,1,19.84,49.08Zm12-.52c-.09,0-.1-.07,0-.2s.06-.09.15-.08.11,0,.15-.07.06-.09.15-.07.19.07.12.22-.06.13-.15.09-.12-.05-.14.06S32,48.62,31.83,48.56ZM21.5,48l-.09-.11.1-.1c.11-.1.12-.11.21,0s.1.06.16,0,.13-.07.23,0l.08.09-.1.11c-.12.13-.15.13-.25.05s-.07-.06-.13,0S21.62,48.14,21.5,48Zm-1.38-.27a.5.5,0,0,1-.11-.16s.07-.05.14-.11l.12-.1.13.12a.53.53,0,0,1,.12.15,1,1,0,0,1-.26.25A.69.69,0,0,1,20.12,47.75Zm5.26,0a.53.53,0,0,1-.2-.12.8.8,0,0,1,0-.55,1.66,1.66,0,0,1,.36-.49c.08,0,.06.11-.06.29-.25.37-.15.57.29.56.26,0,.54-.06.54-.12s-.06,0-.12,0a.33.33,0,0,1-.19-.05c-.07,0-.07-.06,0-.19a.5.5,0,0,1,.26-.23.73.73,0,0,1,.48-.07l.27,0,.22-.23c.28-.28.38-.3.49-.08a.8.8,0,0,1,.08.2c0,.12.11.17.33.17a.66.66,0,0,0,.22,0,.43.43,0,0,0-.06-.12c-.05-.07-.05-.1,0-.23s.09-.21.18-.06.07.18.07.47v.34l-.45,0a2.06,2.06,0,0,1-.67-.09c-.2-.07-.22-.07-.33,0a.66.66,0,0,1-.35,0h-.2c.08,0,0,.25,0,.38s-.34.25-.7.28A1,1,0,0,1,25.38,47.77Zm2.1-1.05s-.08-.07-.1,0,0,0,0,.07S27.56,46.8,27.48,46.72Zm.4,1c-.13-.08-.13-.1,0-.27s.06-.06.14,0,.09,0,.16-.06l.08-.09.13.09c.08,0,.15.07.15,0s.05,0,.11,0c.23.14.44.09.73-.19s.19-.25.07-.39-.07-.11,0-.28.08-.2.19,0,.07.11.09.05a.81.81,0,0,1,.31-.37.23.23,0,0,0,.13-.2.47.47,0,0,1,.07-.2c0-.06.06,0,.13.33.12.57.16.64.31.64s.25,0,.25-.22a.51.51,0,0,1,.05-.24.18.18,0,0,0,0-.14A.66.66,0,0,1,31,46l0-.14.15.09a1.76,1.76,0,0,1,.58.57.8.8,0,0,1,.06.54c0,.08-.21.08-.42,0a.27.27,0,0,0-.31,0,.83.83,0,0,1-.38.07c-.2,0-.24,0-.3-.09a.67.67,0,0,1-.1-.21l0-.11-.08.08c-.08.07-.12.08-.3.06h-.2v.23a.52.52,0,0,1-.11.38.8.8,0,0,1-.48.3,1.5,1.5,0,0,1-.35-.15l-.28-.14-.06.11c0,.1-.06.1-.16,0s-.1,0-.14,0S28,47.81,27.88,47.71Zm3.66-1.07s-.08-.06-.1,0,0,.12.09.12S31.61,46.71,31.54,46.64Zm-.32-.12s0-.06,0-.06-.11.06-.08.11S31.21,46.59,31.22,46.52Zm-1-.07c0-.09,0-.08-.15,0l-.08.07h.11C30.14,46.52,30.18,46.49,30.19,46.45ZM33,47.59a.27.27,0,0,1-.14-.14c-.11-.22,0-.92.15-1s.06,0,0,.07c-.12.52-.12.5,0,.61s.08.1.24.08a1.65,1.65,0,0,0,.67-.28L34,46.9l-.13,0c-.26,0-.31,0-.32-.07a.53.53,0,0,1,.25-.46,1.66,1.66,0,0,1,.46-.17,1.38,1.38,0,0,0,.36-.11s0-.06,0-.1-.08-.11-.08-.24a.75.75,0,0,1,0-.17s.13.06.2.16l.06.1.05-.16a.77.77,0,0,1,.17-.29c.1-.09.12-.14.1-.23a.47.47,0,0,1,0-.21c0-.08,0-.06.24.33a3,3,0,0,0,.26.48s.09,0,.29,0,.36-.18.36-.32a.61.61,0,0,1,.22-.38c.1,0,.22,0,.35.22s.23.46.18.5a.77.77,0,0,1-.31.06c-.23,0-.29,0-.37.12a1.1,1.1,0,0,1-.59.23.37.37,0,0,1-.31-.23l-.06-.11-.09.12a.27.27,0,0,1-.26.11c-.18,0-.19,0-.13.25l0,.11-.43.11c-.28.06-.4.11-.38.13a.52.52,0,0,1,0,.23c0,.26-.11.38-.47.56A.86.86,0,0,1,33,47.59Zm2.2-1.93a.11.11,0,0,0,.06-.11c0-.06-.1,0-.16.1S35.1,45.74,35.21,45.66Zm1.4-.2a.12.12,0,0,0-.08,0,0,0,0,0,0-.05,0s0,0,.07,0S36.62,45.48,36.61,45.46ZM22.68,47a1.36,1.36,0,0,1-.29-.26c-.11-.13-.12-.17-.08-.2s.07,0,.15,0a.56.56,0,0,0,.65.12l.15-.07-.11-.08a.25.25,0,0,1-.12-.25.72.72,0,0,1,.26-.5c.22-.12.38,0,.36.33v.2l.24.05.33.06c.08,0,.08,0,0-.12a1,1,0,0,0-.19-.16.33.33,0,0,1-.13-.15.32.32,0,0,1,.15-.45,1.94,1.94,0,0,1,.63-.12.3.3,0,0,1,0,.16l0,.15-.2,0a.54.54,0,0,0-.22,0s0,.08.07.14a2.25,2.25,0,0,1,.19.32.54.54,0,0,1,.08.4c0,.23,0,.23-.57.11l-.42-.09-.12.13a.81.81,0,0,1-.5.27A.6.6,0,0,1,22.68,47Zm.76-.75a.3.3,0,0,0-.06-.11q0-.08-.09,0s0,.06,0,.11S23.44,46.26,23.44,46.21Zm-2.07.3a2.16,2.16,0,0,1-.22-.24c0-.08.12-.07.21,0a.53.53,0,0,0,.21.11,1,1,0,0,0,.64-.22c.09-.08.09-.09.05-.23a.3.3,0,0,1,0-.3c.09-.17.13-.19.16-.07a1.33,1.33,0,0,1-.15.89,1,1,0,0,1-.56.25C21.6,46.72,21.56,46.69,21.37,46.51Zm6.76-.44a.74.74,0,0,1-.08-.17c0-.06.18,0,.22,0s0,.06.06,0a.14.14,0,0,1,.13-.06c.06,0,.11,0,.11,0a.75.75,0,0,1-.1.16C28.35,46.24,28.24,46.25,28.13,46.07Zm9.13,0c-.12,0-.16-.06-.15-.1s0-.06.19-.05a.6.6,0,0,0,.53-.25c.11-.17.11-.19,0-.19s-.29-.13-.31-.4c0-.42.18-.59.43-.34a.9.9,0,0,1,.14.19s0,.07.05.07l.31-.12.29-.13-.17,0a.61.61,0,0,0-.21,0,.48.48,0,0,1-.35-.14.51.51,0,0,1,0-.22c0-.12,0-.17.22-.38l.25-.24s.06.06.1.13l.06.14-.16.16c-.08.09-.15.16-.14.17l.2.08.35.16.15.09.32-.14a1.74,1.74,0,0,0,.31-.17.28.28,0,0,0-.14,0,.58.58,0,0,0-.44.09s0,0,0-.12a.3.3,0,0,1,.11-.26c.14-.14.3-.14.67,0a1.6,1.6,0,0,0,.38.08c.09,0,.11,0,.17.12a1,1,0,0,1,.08.18,18,18,0,0,1-1.69.81l-.45.19,0,.17A.88.88,0,0,1,38,46,1.26,1.26,0,0,1,37.26,46.05Zm.58-.95c.06-.05-.05-.14-.13-.1s-.05,0,0,.07S37.77,45.14,37.84,45.1Zm-17,.81c-.35-.12-.37-.14-.37-.24s.14-.41.2-.27a.45.45,0,0,0,.21.12l.24.08c.08,0,.06-.18,0-.34l-.07-.14.1-.16c.05-.09.11-.16.14-.16s.14.22.14.42a1.91,1.91,0,0,1-.25.79Zm-.73-.26L20,45.54a.21.21,0,0,0-.14,0,1,1,0,0,1-.51-.18.19.19,0,0,1-.07-.13s0-.06-.07,0a.47.47,0,0,1-.44,0c-.8-.36-.92-.43-.95-.51s0-.3.15-.62a1.22,1.22,0,0,0,.13-.39.37.37,0,0,1,.12-.24l.14-.12s0,.08,0,.17a1.31,1.31,0,0,1-.15.52,1.52,1.52,0,0,0-.13.42,2.4,2.4,0,0,0,.72.35s0-.07,0-.13,0-.13.08-.24.13-.11.15-.09a1.53,1.53,0,0,1,0,.52s0,.06.12.07a.24.24,0,0,0,.25-.11c.14-.14.21-.11.14.06s0,.22.14.29.3.07.37,0,.19-.15.23-.12,0,.07,0,.15-.05.13,0,.19.07.06.07,0a.26.26,0,0,1,.22-.23c.07,0,.05.2-.06.47S20.35,45.76,20.16,45.65ZM34,45.58c-.06,0-.06,0,0-.13s0-.17.16-.17.11,0,.13-.1,0-.09.18-.07l.16,0a.37.37,0,0,1,0,.16c0,.13-.06.14-.16.13s-.12,0-.13.08S34.17,45.62,34,45.58Zm11.29-.45c.08-.08.1-.09.1,0s0,.06-.09.08S45.25,45.21,45.32,45.13Zm-28.53-.38a1.29,1.29,0,0,1-.36-.23c-.14-.14-.16-.17-.16-.32a.48.48,0,0,1,.11-.32c.12-.16.46-.39.54-.36s.06.09-.09.18-.3.27-.3.35.31.36.5.43c.35.12.5,0,.52-.28a.48.48,0,0,1,.14-.32c.06-.06.12-.12.14-.12s0,.33-.1.59-.28.48-.53.48A1.42,1.42,0,0,1,16.79,44.75ZM19,44,19,43.93l-.09.07-.08.07L18.7,44l-.11-.12.11-.09c.12-.1.15-.11.24,0s.08.06.16,0,.1,0,.19.06l.09.11-.12.1C19.11,44.12,19.1,44.12,19,44Zm-1.72-.47c-.13-.18-.13-.21,0-.31l.14-.1.09.1c.16.2.16.22,0,.32l-.15.1A.6.6,0,0,1,17.31,43.54Zm10.45-18c-.19-1.65-.36-3.15-.38-3.35l-.05-.35-.48,1.82c-.26,1-.48,1.82-.49,1.82s-.31-1-.67-2.24S25,20.93,25,20.9s0,0,.16,0h.18l.47,1.63c.26.9.48,1.65.49,1.66s0,0,.06-.12.23-.85.47-1.71.44-1.59.45-1.6a.31.31,0,0,1,.18,0l.15,0,.19,1.76c.1,1,.26,2.39.34,3.17s.17,1.41.18,1.41.89-6.23.89-6.32.07,0,.16,0a.41.41,0,0,1,.17,0s.89,3.43.91,3.45,0,0,0-.06L31,22.45l.45-1.65h.13c.08,0,.14,0,.14,0s-1.2,4.41-1.24,4.52,0,.05,0,0-.25-.85-.52-1.81-.5-1.73-.51-1.7-.89,6.62-.89,6.65-.09,0-.2,0h-.19Z"/><path id="path2716" class="cls-2" d="M27.54,10A1.82,1.82,0,0,1,27,9.76a1.31,1.31,0,0,1,.29.1l.37.17C27.82,10.08,27.69,10.08,27.54,10Zm1.53,0a.08.08,0,0,1,.06,0,2.3,2.3,0,0,0,.36-.15,1.43,1.43,0,0,1,.33-.13,1.16,1.16,0,0,1-.29.16C29.17,10.05,29,10.1,29.07,10Zm-3-1.36a1.79,1.79,0,0,1-.14-.36c0-.11,0-.11,0,0a2.67,2.67,0,0,1,.25.61S26.13,8.82,26.07,8.68Zm4.5.23a5.11,5.11,0,0,1,.27-.64c.05,0,0,.15-.15.42S30.57,8.93,30.57,8.91Zm.22-2.08c0-.07-.09-.22-.14-.31s-.11-.32,0-.1a1.48,1.48,0,0,1,.19.54S30.81,6.91,30.79,6.83Zm-4.88.09a3.33,3.33,0,0,1,.23-.56c.1-.16.08-.05,0,.15s-.1.23-.12.28S25.91,7,25.91,6.92Zm1.22-1.56a2,2,0,0,1,.59-.22s0,0-.07,0l-.34.15C27,5.47,26.88,5.5,27.13,5.36Zm2.31,0a1.54,1.54,0,0,0-.3-.12.08.08,0,0,1-.07,0s0,0,.06,0a3.27,3.27,0,0,1,.62.3S29.7,5.45,29.44,5.32Z"/><path id="path2714" class="cls-3" d="M27.94,10.12l-.2-.06-.42-.19-.41-.18A2.78,2.78,0,0,1,26.28,9c0-.07-.12-.26-.18-.41l-.18-.4a3.15,3.15,0,0,1,0-1.26A1.49,1.49,0,0,0,26,6.69a1.48,1.48,0,0,1,.12-.25.3.3,0,0,0,.05-.15A2,2,0,0,1,27,5.46a5.41,5.41,0,0,0,.74-.33,3.12,3.12,0,0,1,1.29,0l.43.2.4.18a2.47,2.47,0,0,1,.64.65l.18.4c.06.16.14.34.17.41a1.47,1.47,0,0,1,.07.64c0,.46,0,.54-.08.67a2.92,2.92,0,0,0-.18.39L30.5,9a2.55,2.55,0,0,1-.65.66c-.09,0-.65.28-.81.37a1.4,1.4,0,0,1-.56.07A3.85,3.85,0,0,1,27.94,10.12Z"/><path id="path2712" class="cls-4" d="M25,44.58a.57.57,0,0,1,.13-.2c.27-.34.37-.66.26-.87s-.25-.26-.6-.39a1,1,0,0,1-.58-.43,1,1,0,0,1-.06-.35.85.85,0,0,1,.12-.47,1.15,1.15,0,0,1,.17-.24s0,0,0,.09a1,1,0,0,0-.18.93,1.05,1.05,0,0,0,.58.43c.53.2.68.36.65.68a1.09,1.09,0,0,1-.08.31C25.26,44.24,25,44.64,25,44.58Zm6.6-.2a1.08,1.08,0,0,1-.28-.7.32.32,0,0,1,.14-.32,1.31,1.31,0,0,1,.49-.28c.4-.15.56-.29.63-.5a1.15,1.15,0,0,0-.15-.76c-.12-.22-.1-.28,0-.06a1.78,1.78,0,0,1,.2.66c0,.33-.18.51-.67.7s-.62.34-.62.56a1.08,1.08,0,0,0,.28.66,1,1,0,0,1,.15.26A.77.77,0,0,1,31.55,44.38Zm-7.14.11s0-.16.05-.27l0-.19-.34-.18a3,3,0,0,1-.89-.64c-.1-.13-.12-.14-.22-.11a1.41,1.41,0,0,0-.79.68c-.07.12-.13.19-.13.16a1.81,1.81,0,0,1,.42-.61,1.3,1.3,0,0,1,.52-.29c.11,0,.13,0,.24.13a2.87,2.87,0,0,0,.89.65l.34.17,0,.24a1.07,1.07,0,0,1-.07.29S24.39,44.54,24.41,44.49Zm7.78-.17a1.05,1.05,0,0,1,0-.28.59.59,0,0,1,.21-.15,4.09,4.09,0,0,0,.95-.66c.12-.14.17-.17.27-.17a1,1,0,0,1,.55.24,1.88,1.88,0,0,1,.41.6s-.06,0-.14-.16a1.24,1.24,0,0,0-.54-.55c-.27-.13-.34-.12-.51.07a3.93,3.93,0,0,1-.95.66.79.79,0,0,0-.21.15.71.71,0,0,0,0,.26.53.53,0,0,1,0,.21S32.22,44.44,32.19,44.32Zm-10.45-.89a1.39,1.39,0,0,0-.1-.57l-.07-.15-.44,0a6,6,0,0,1-1.25-.25l-.13-.06-.06.27-.07.34c0,.05,0,0,0,0a1.67,1.67,0,0,1,.14-.62l.17.06a6.55,6.55,0,0,0,1.32.26c.31,0,.37,0,.42.1a1.47,1.47,0,0,1,.12.76v.35Zm13.16.23a2.32,2.32,0,0,1,.11-.87c.05-.12.08-.14.18-.14l.57,0a2.31,2.31,0,0,0,1-.23.34.34,0,0,1,.17-.06,1.55,1.55,0,0,1,.16.63s0-.06-.07-.22a3,3,0,0,0-.09-.34s-.07,0-.14,0a2.52,2.52,0,0,1-1.06.23l-.58.05c-.09,0-.17.4-.17.77,0,.19,0,.36,0,.36A.8.8,0,0,1,34.9,43.66Zm2.52-1a2.56,2.56,0,0,0-.13-1c-.17-.33-.34-.36-.88-.17a1.18,1.18,0,0,1-.91.06.67.67,0,0,1-.38-.71V40.6l0,.26c0,.38.14.55.41.67a1.1,1.1,0,0,0,.81-.08c.75-.26,1-.11,1.07.68a1.59,1.59,0,0,1,0,.54l0,.19Zm-18.19-.12a2,2,0,0,1,.15-.91c.14-.31.38-.35.93-.15s.63.17.83.06a.77.77,0,0,0,.41-.77.3.3,0,0,1,0-.16,1,1,0,0,1,0,.53.73.73,0,0,1-.37.44,1.12,1.12,0,0,1-.9-.06,2.49,2.49,0,0,0-.47-.13c-.34,0-.5.29-.55,1C19.24,42.82,19.24,42.82,19.23,42.51Z"/><path id="path2710" class="cls-5" d="M49.59,46a1.07,1.07,0,0,1,.19-.25,2.31,2.31,0,0,0,.48-.82c0-.15.06-.18.14-.2l.16,0c.06,0,.07,0,0,.05a.58.58,0,0,0,0,.43c.07.17.18.23.32.18s.12,0,.13,0,0,0-.14.15-.32.13-.44,0l-.09-.09-.1.13a2.86,2.86,0,0,1-.66.49S49.59,46,49.59,46ZM5.92,45.59l-.43-.31,0,.22c0,.23,0,.25-.15.16s-.06-.08,0-.23a1.13,1.13,0,0,0,0-.32c0-.14,0-.24.08-.24s1.08.75,1.18.84-.09.19-.13.19A4.4,4.4,0,0,1,5.92,45.59ZM24.34,45c-.08-.06-.06-.22.06-.45a1.64,1.64,0,0,0,.1-.37l0-.23-.34-.17a2.87,2.87,0,0,1-.89-.65c-.11-.14-.13-.15-.24-.13a1.3,1.3,0,0,0-.52.29,1.62,1.62,0,0,0-.42.64,1.22,1.22,0,0,1-.09.29c-.08.16-.11.2-.18.2s-.19-.08-.14-.36a5.36,5.36,0,0,0,.06-.69,1.18,1.18,0,0,0-.08-.59l-.07-.15-.44,0a6.16,6.16,0,0,1-1.26-.25l-.17-.06a1.93,1.93,0,0,0-.14.67c0,.25,0,.36-.08.4a.17.17,0,0,1-.24-.1,8,8,0,0,1,0-1.28c.07-.43.25-.65.51-.65a2.49,2.49,0,0,1,.47.13,1.12,1.12,0,0,0,.9.06.77.77,0,0,0,.41-.75c0-.1,0-.18,0-.18s.22.09.22.13a1.09,1.09,0,0,1-.53,1.06,1.33,1.33,0,0,1-1.05,0c-.47-.18-.59-.15-.69.17,0,.07,0,.08.08,0a.2.2,0,0,1,.2,0,2.09,2.09,0,0,0,.67.29,3.53,3.53,0,0,0,.66,0h.45l.15.17a1,1,0,0,1,.26.66l0,.2.23-.22a1.23,1.23,0,0,1,.85-.4c.16,0,.19,0,.27.12a2.94,2.94,0,0,0,1,.77c.33.17.34.19.36.47v.15l.12-.18a.84.84,0,0,0,.15-.3c0-.17-.11-.29-.48-.42a1,1,0,0,1-.78-1,1.57,1.57,0,0,1,.22-.76c.05-.08.06-.08.17-.05l.13.05a1.61,1.61,0,0,1-.12.26.81.81,0,0,0-.13.48,1,1,0,0,0,.06.35,1,1,0,0,0,.58.43c.35.13.53.25.6.39s0,.53-.26.87a.57.57,0,0,0-.13.2,2,2,0,0,1-.49.51A.24.24,0,0,1,24.34,45ZM32,44.86a1.34,1.34,0,0,1-.21-.26,1.41,1.41,0,0,0-.17-.26c-.46-.65-.37-.94.35-1.22.49-.19.67-.37.67-.7a1.78,1.78,0,0,0-.19-.65c-.08-.14-.06-.19.1-.2s.12,0,.21.22a1,1,0,0,1,.13.52c0,.56-.09.72-.74,1a2.19,2.19,0,0,0-.49.31c-.06.09-.06.09,0,.28s.2.31.2.18.07-.31.4-.49a3.11,3.11,0,0,0,.92-.67c.19-.21.19-.21.38-.21a1.47,1.47,0,0,1,.84.41l.19.19,0-.15a1,1,0,0,1,.4-.77,4.08,4.08,0,0,1,.61-.09,2.19,2.19,0,0,0,1.07-.28c.18-.11.22-.12.31-.08s.11,0,.09-.06-.13-.26-.21-.26a3.72,3.72,0,0,0-.47.13,1.32,1.32,0,0,1-.64.12,1,1,0,0,1-.73-.38,1.3,1.3,0,0,1-.22-.69c0-.1,0-.13.15-.17l.14,0v.22a.68.68,0,0,0,.73.77,2.25,2.25,0,0,0,.57-.13c.54-.19.71-.16.88.17a3.37,3.37,0,0,1,.13,1.21c0,.4,0,.47-.08.51s-.11.06-.2,0a.39.39,0,0,1-.07-.28,1.61,1.61,0,0,0-.17-.75.34.34,0,0,0-.17.06,2.41,2.41,0,0,1-1.06.23l-.58.05c-.07,0-.16.33-.19.62A2.51,2.51,0,0,0,35,44c.08.4.08.42,0,.47s-.28,0-.39-.38a1.45,1.45,0,0,0-.67-.89c-.29-.14-.41-.13-.59.08a4.09,4.09,0,0,1-.95.66.59.59,0,0,0-.21.15,1.21,1.21,0,0,0,.09.5s.06.09.09.2.07.21,0,.28S32.19,45.11,32,44.86ZM6.65,45a.13.13,0,0,1,0-.13c0-.07.06-.08.16-.07s.13,0,.2-.08a.34.34,0,0,0,0-.47l-.11-.12v.11a.54.54,0,0,1-.49.5.47.47,0,0,1-.51-.49.57.57,0,0,1,.58-.59,1,1,0,0,1,.86.81.79.79,0,0,1-.24.49C7,45,6.69,45.05,6.65,45ZM6.6,44.4a.32.32,0,0,0-.16-.55.33.33,0,0,0-.33.29A.3.3,0,0,0,6.6,44.4ZM49,45a.71.71,0,0,1,.32-.46l.21-.15-.08-.08a.54.54,0,0,1-.15-.35c0-.16.11-.24.36-.26s.42.05.48.21,0,.29-.34.53-.47.4-.47.49-.06.07-.13.09S49,45,49,45Zm.85-.87c.06-.11-.07-.29-.22-.29s0,.17,0,.27S49.76,44.19,49.81,44.09ZM7.46,43.8c0-.06.08-.22.15-.2s.4-.18.32-.39A.85.85,0,0,0,7.79,43l-.09-.08v.12a.5.5,0,0,1-.76.41.49.49,0,0,1-.16-.69c.19-.4.65-.42,1.09,0a.8.8,0,0,1,.21.26.57.57,0,0,1-.43.84A.33.33,0,0,1,7.46,43.8Zm0-.61c.15-.15.16-.24,0-.39a.27.27,0,0,0-.44,0,.3.3,0,0,0,.09.48C7.25,43.34,7.29,43.33,7.43,43.19Zm40.79.52c0-.13.1-.26.34-.44l.14-.11L48.61,43c-.13-.17-.16-.38-.06-.47a.59.59,0,0,1,.74,0c.16.2.08.33-.44.73a1.38,1.38,0,0,0-.27.29.29.29,0,0,1-.22.17l-.14,0Zm.81-.8c.06-.1,0-.13,0-.22s-.21-.1-.21,0A.62.62,0,0,0,49,43S49,43,49,42.91ZM8.47,42.82c-.09-.09-.13-.26-.16-.7a1.51,1.51,0,0,0-.08-.51c-.1-.19-.33-.17-.44,0s-.07.23,0,.29a.2.2,0,0,1,.06.09.3.3,0,0,1-.16.17c-.05,0-.17-.24-.17-.33a.9.9,0,0,1,.31-.56.56.56,0,0,1,.47,0c.13.07.21.32.22.68s0,.52.27.15.22-.31.28-.28a.23.23,0,0,1,.09.07,1.83,1.83,0,0,1-.28.47C8.5,42.92,8.53,42.89,8.47,42.82Zm38.84-.43a.67.67,0,0,1,.19-.17,1.46,1.46,0,0,0,.5-.66c.09-.25.12-.27.29-.27s.15,0,0,.31a1.44,1.44,0,0,1-.7.7C47.37,42.44,47.28,42.46,47.31,42.39ZM23,40.77c-1-.36-1.82-.67-1.82-.69s.34-.67.75-1.45a9.25,9.25,0,0,0,.73-1.53c0-.09-.05-.12-.43-.28A16.84,16.84,0,0,1,16.66,33a19.11,19.11,0,0,1-2.27-2.68l-.17-.23.31.24a7,7,0,0,0,1,.71c.1.06.34.25.54.41a31.3,31.3,0,0,0,3.19,2.31,24.25,24.25,0,0,0,6.56,3c.56.16.69.16.72,0a.41.41,0,0,0,0-.15,1.77,1.77,0,0,0-.42-.15A26.38,26.38,0,0,1,17.31,32a7.87,7.87,0,0,1-2.16-2.09,15,15,0,0,1-3-7.4,21,21,0,0,1,0-3A14.44,14.44,0,0,1,12.4,18a5.07,5.07,0,0,1,.29-.94,1.22,1.22,0,0,1,.05.28,6.53,6.53,0,0,0,.32,1.47c.07.25.18.63.23.86a17.18,17.18,0,0,0,3.11,6,20,20,0,0,0,7.3,5.59c.47.2.57.21.61.05s0-.16-.32-.29-1.45-.71-2-1a18.77,18.77,0,0,1-6.23-5.77,15.22,15.22,0,0,1-2.22-4.85,2.66,2.66,0,0,1,0-1,12.72,12.72,0,0,1,2.35-7.16c.34-.46.8-.94.77-.81-.28,1.2-.31,1.7-.29,5A13,13,0,0,0,17.79,21,13.8,13.8,0,0,0,22,25.75c.19.14.27.17.34.15s.09,0,.09-.14,0-.14-.19-.26A15.54,15.54,0,0,1,19.47,23a13.38,13.38,0,0,1-2-3.49A12.46,12.46,0,0,1,16.69,15a2.3,2.3,0,0,1,.15-.91,9,9,0,0,1,3.05-4.19,14,14,0,0,1,2.3-1.44l.38-.17.22-.1-.49.48a10.29,10.29,0,0,0-2.9,5.4,8.77,8.77,0,0,0,0,2.4,5.1,5.1,0,0,0,4.07,4.19c.16,0,.57.09.91.12l.64.06.66,2.31c.36,1.26.67,2.3.68,2.3s.23-.82.49-1.82l.48-1.82.05.35c0,.2.19,1.7.38,3.35l.35,3h.19c.11,0,.2,0,.2,0s.87-6.53.89-6.65.24.74.51,1.7.51,1.78.52,1.81,0,.28.69-2.29c.33-1.23.61-2.24.62-2.24a4.94,4.94,0,0,1,.55-.05,6.23,6.23,0,0,0,2.43-.6,5.16,5.16,0,0,0,2.66-3.61,10,10,0,0,0,.07-2.13,9.34,9.34,0,0,0-1.54-4A9.88,9.88,0,0,0,34.47,8.7,5.85,5.85,0,0,1,34,8.22a12.27,12.27,0,0,1,1.28.63,10.91,10.91,0,0,1,2.46,1.88A8.5,8.5,0,0,1,39.89,14l.15.43v.95a8.38,8.38,0,0,1-.25,2.32,12.61,12.61,0,0,1-5,7.66c-.49.37-.56.45-.44.57s.16.05.46-.16A13.21,13.21,0,0,0,40.07,18a11.84,11.84,0,0,0,.3-3.71c0-1.42,0-2.2,0-2.48a10.46,10.46,0,0,0-.25-1.37c0-.1.33.25.59.58a13.16,13.16,0,0,1,1.08,1.63,13.6,13.6,0,0,1,1.46,5.7l0,.72-.1.45a16.65,16.65,0,0,1-2.76,5.63A20.77,20.77,0,0,1,37.71,28a22.86,22.86,0,0,1-3,2.11c-.45.26-1.5.8-2,1-.3.13-.35.17-.35.24s.09.19.23.16a21.71,21.71,0,0,0,2.14-1.05,19.31,19.31,0,0,0,5.83-5.09,16.21,16.21,0,0,0,2.83-5.68,9,9,0,0,1,.24-.89A8.33,8.33,0,0,0,44,17.32a2,2,0,0,1,.05-.32,7,7,0,0,1,.36,1.31,14.5,14.5,0,0,1,.16,4.54,15.42,15.42,0,0,1-3.49,7.73,25.85,25.85,0,0,1-6,4.2,22.92,22.92,0,0,1-4.38,1.73l-.51.14,0,.12c0,.21.07.21.68,0a24.44,24.44,0,0,0,6-2.64,35.91,35.91,0,0,0,3.77-2.65,6.46,6.46,0,0,1,.55-.44,9.7,9.7,0,0,0,1.21-.86c.11-.1.1-.08-.08.2a19.48,19.48,0,0,1-4.76,4.74,17,17,0,0,1-3,1.62c-.44.18-.52.23-.52.33s.34.73.75,1.53.75,1.45.73,1.46-3.67,1.33-3.69,1.31-.11-.48-.21-1a19.34,19.34,0,0,0-.52-2.26.33.33,0,0,0-.63.13,14.13,14.13,0,0,0,.29,2.06l.13.67h-.25l-.32,0c-.09,0-.07.21-.2-1.59-.08-1.08-.1-1.24-.23-1.33a.39.39,0,0,0-.47,0c-.11.11-.11.12-.11.47s0,.8.06,1.33.05,1,.05,1.08v.12h-.2l-.31,0-.12,0V39.91c0-1.43,0-1.63-.18-1.78a.26.26,0,0,0-.27-.08.38.38,0,0,0-.24.11c-.1.1-.1.11-.13.85,0,.41,0,1,0,1.41l0,.67-.14,0a1.72,1.72,0,0,1-.34,0c-.19,0-.19,0-.19-.1s0-.57.05-1.14.06-1.18.06-1.35,0-.33-.1-.44a.36.36,0,0,0-.62.23c0,.09-.06.72-.11,1.41S26.5,41,26.5,41h-.32c-.21,0-.3,0-.3-.06s.09-.57.2-1.21.2-1.24.2-1.33S26.16,38,26,38a.4.4,0,0,0-.38.22c0,.08-.56,2.72-.61,3,0,.08,0,.15-.07.15Zm3-25.24c-.26-.09-.31-.27-.12-.41s.16-.08.51-.08.41,0,.5.08.15.32-.13.41A1.77,1.77,0,0,1,26,15.53Z"/><path id="path2708" class="cls-6" d="M26.12,9.83a3.92,3.92,0,0,1-.52-.53,2.67,2.67,0,0,1,.59-.36,1.14,1.14,0,0,1-.26.2l-.29.18.3.27a5.48,5.48,0,0,0,.76.66,1.44,1.44,0,0,0,.15-.26c.08-.14.15-.24.16-.23a2.08,2.08,0,0,1-.31.56A4.92,4.92,0,0,1,26.12,9.83Zm3.84.22a1.2,1.2,0,0,1-.15-.3A1.31,1.31,0,0,1,30,10l.17.27.48-.51a3.84,3.84,0,0,0,.46-.54l-.26-.15-.25-.16s.14,0,.3.13.29.17.28.19a13.2,13.2,0,0,1-1,1.09A1.25,1.25,0,0,1,30,10.05Zm-4.08-3.9a1.23,1.23,0,0,1-.27-.2,12.92,12.92,0,0,1,1-1.09,2.23,2.23,0,0,1,.36.58,1,1,0,0,1-.18-.24,1.31,1.31,0,0,0-.18-.26s-.64.66-.89.94c-.07.08-.06.08.19.22a1.54,1.54,0,0,1,.26.17S26.19,6.32,25.88,6.15Zm4.69.11a1.89,1.89,0,0,1,.27-.2c.16-.1.28-.18.27-.2s-.24-.23-.51-.49l-.51-.47-.15.28a1,1,0,0,1-.17.26,2.07,2.07,0,0,1,.32-.58,12.89,12.89,0,0,1,1.1,1,1.51,1.51,0,0,1-.26.2C30.65,6.24,30.57,6.29,30.57,6.26Z"/><path id="path2706" class="cls-7" d="M28.34,11.8c-.22-.57-.6-1.73-.58-1.73s.16.4.33.89l.31.89.31-.85c.17-.47.3-.87.3-.89a0,0,0,0,1,0,0s0,.12-.05.25c-.17.49-.58,1.62-.59,1.63S28.37,11.89,28.34,11.8Zm2.52-3.53s.4-.17.89-.34l.89-.31-.16-.06-.89-.31A6.43,6.43,0,0,1,30.86,7a12.05,12.05,0,0,1,1.45.49,1.71,1.71,0,0,1,.41.18,2.44,2.44,0,0,1-.42.16l-.91.32A3.92,3.92,0,0,1,30.86,8.27ZM25,7.93c-.5-.18-.91-.33-.92-.35s0,0,.28-.14l.91-.32a3.81,3.81,0,0,1,.64-.19s-.38.15-.84.31l-.87.32a7.34,7.34,0,0,0,.84.33c.48.17.87.33.87.34s0,0,0,0Zm3-3.72.35-1c0-.09.06,0,.38.91l.32.91c0,.05,0,.07,0,.05s-.17-.42-.34-.91a5,5,0,0,0-.33-.84s-.17.43-.34.9a7.39,7.39,0,0,1-.33.86S27.84,4.71,28,4.21Z"/><path id="path2704" class="cls-8" d="M28.39,11.84s-.13-.41-.3-.87l-.29-.85.41,0a3.59,3.59,0,0,0,.61,0,.41.41,0,0,1,.19,0S28.39,11.87,28.39,11.84ZM30.91,8a2.88,2.88,0,0,0,0-.61,2.31,2.31,0,0,1,0-.41l.74.26.86.31c.12,0,.11,0-.74.34l-.89.31A.59.59,0,0,1,30.91,8ZM25,7.88a5.74,5.74,0,0,1-.8-.32S25.84,7,25.88,7s0,.07,0,.16a3.35,3.35,0,0,0,0,.61,2,2,0,0,1,0,.44ZM27.76,5.1s.6-1.7.62-1.74a3.88,3.88,0,0,1,.35.86c.22.65.29.9.25.88a4.63,4.63,0,0,0-1.06,0C27.83,5.1,27.76,5.11,27.76,5.1Z"/><path id="path2702" class="cls-9" d="M30,10l-.18-.28L30,9.62a3.29,3.29,0,0,0,.52-.55l.1-.14.24.13.28.16a3.73,3.73,0,0,1-.45.55l-.48.51ZM26.28,9.9l-.51-.47-.12-.12.28-.18L26.22,9a3,3,0,0,0,.55.61l.21.17-.13.25a1.93,1.93,0,0,1-.16.26A4.6,4.6,0,0,1,26.28,9.9Zm-.35-3.79L25.66,6s.92-1,.95-1a2.46,2.46,0,0,1,.33.53,3.5,3.5,0,0,0-.59.57l-.17.22ZM30.38,6A2.75,2.75,0,0,0,30,5.61l-.22-.17.09-.15L30,5l.06-.12.51.47c.27.26.51.48.51.49a3.77,3.77,0,0,1-.55.37A1.41,1.41,0,0,1,30.38,6Z"/><path id="path2700" class="cls-10" d="M26.88,53.4a.57.57,0,0,1-.32-.59,1,1,0,0,1,.06-.35.68.68,0,0,1,1.18-.06,1.18,1.18,0,0,1,0,.72A.71.71,0,0,1,26.88,53.4Zm.71-.09a.61.61,0,0,0,.24-.54.57.57,0,0,0-.46-.62.64.64,0,0,0-.71.35.78.78,0,0,0,0,.65A.64.64,0,0,0,27.59,53.31Zm-.64,0a.58.58,0,0,1-.19-.49c0-.36.2-.58.51-.55s.42.23.42.56a.48.48,0,0,1-.48.54A.59.59,0,0,1,27,53.27Zm.49-.06a.54.54,0,0,0-.15-.94c-.35-.06-.63.43-.44.8A.39.39,0,0,0,27.44,53.21Zm.69-.4v-.66h.12c.12,0,.14,0,.43.45l.33.48a2.28,2.28,0,0,0,0-.47v-.5h.09c.08,0,.09,0,.11.17a5.4,5.4,0,0,1,0,.69v.51h-.12c-.11,0-.15-.06-.44-.49l-.33-.48v1h-.22Zm.18.15c0-.36,0-.48.05-.48a2.58,2.58,0,0,1,.36.47c.22.33.34.47.4.48s.08,0,.08-.46,0-.82-.1-.82-.05.07,0,.5,0,.49,0,.49a3,3,0,0,1-.36-.48c-.27-.38-.35-.48-.42-.48h-.08v.63c0,.6,0,.63.07.63S28.31,53.41,28.31,53Zm1.16.46s.3-.93.41-1.3c0,0,.08,0,.15,0s.13,0,.17.12.15.35.28.63.23.53.23.55-.05,0-.11,0-.12,0-.21-.2-.11-.21-.21-.19L30,53c-.11,0-.12,0-.17.2s-.08.21-.15.22S29.45,53.48,29.47,53.42Zm.27-.23c.05-.17.07-.19.16-.19l.26,0,.17,0,.1.21c.07.15.12.21.17.21s.06,0-.09-.36-.22-.49-.28-.63-.13-.27-.21-.27-.09,0-.1,0-.1.31-.2.64l-.19.61s0,0,.08,0S29.7,53.33,29.74,53.19Zm.12-.36a1.43,1.43,0,0,1,.17-.54,1.86,1.86,0,0,1,.24.55s-.07,0-.2,0S29.86,52.87,29.86,52.83Zm.37,0a2.36,2.36,0,0,0-.1-.26l-.1-.24-.07.23c0,.13-.06.24-.06.26a.41.41,0,0,0,.17,0ZM26,53.3s0-.36.06-.68l0-.58h.11c.12,0,.12-.06.06.74l0,.62h-.13C26,53.4,26,53.4,26,53.3Zm.22-.33c0-.22,0-.51,0-.65s0-.25-.06-.25-.08,0-.08.14,0,.37-.05.65c0,.51,0,.51,0,.51S26.24,53.34,26.26,53Zm4.68.35s0-.31-.06-.64a5.54,5.54,0,0,1,0-.63c0-.08.21-.06.21,0s.1,1.09.11,1.1a1.42,1.42,0,0,0,.21,0c.38,0,.42,0,.42,0s0,.09-.38.13S30.94,53.38,30.94,53.32Zm.58,0c.16,0,.23,0,.23-.08s0,0-.21,0l-.32,0s-.1,0-.1,0,0-.24-.05-.53S31,52.14,31,52.1a.07.07,0,0,0-.13,0,5.07,5.07,0,0,0,0,.6c0,.31,0,.59,0,.62s0,0,.16,0Zm-6.43,0a.67.67,0,0,1-.41-.31,1,1,0,0,1,0-.6A.72.72,0,0,1,25,52a1.41,1.41,0,0,1,.68,0c.15,0,.16.07.09.16s-.06.06-.15,0a.6.6,0,0,0-.75.23.5.5,0,0,0,.5.72c.14,0,.14,0,.17-.13s0-.24-.13-.24-.15,0-.13-.08,0-.11.28-.08l.23,0,0,.31a1,1,0,0,1-.06.35A1.68,1.68,0,0,1,25.09,53.29Zm.59,0a.91.91,0,0,0,.07-.31c0-.26,0-.29-.05-.29l-.2,0c-.12,0-.14,0-.14,0s0,.06.13.06.15,0,.1.3,0,.14-.2.14a1,1,0,0,1-.31,0,.58.58,0,0,1,0-1c.11-.07.17-.07.43-.06s.3,0,.3,0-.22-.11-.41-.11a.65.65,0,0,0-.69.67.59.59,0,0,0,.47.58A1.28,1.28,0,0,0,25.68,53.26Zm-1.84-.14-.32-.07s.22-1.29.23-1.31a6,6,0,0,1,.69.1.1.1,0,0,1,.07.11c0,.1,0,.1-.42,0-.15,0-.17,0-.17,0a1,1,0,0,1,0,.2l0,.13.26,0c.22,0,.25,0,.26.12s0,.08-.11.08a1.49,1.49,0,0,1-.28,0c-.15,0-.15,0-.18.08-.06.35-.08.31.18.36l.32,0c.06,0,.08,0,.06,0a.58.58,0,0,0,0,.1S24.22,53.18,23.84,53.12Zm.48,0S24.23,53,24,53a1.38,1.38,0,0,1-.3-.06,1.66,1.66,0,0,1,.08-.48.81.81,0,0,1,.26,0,1,1,0,0,0,.27,0q.07-.09-.27-.12l-.25,0,0-.23c0-.12,0-.23,0-.23a1.32,1.32,0,0,1,.3,0c.23,0,.28,0,.28,0s0-.06-.08-.07a5.12,5.12,0,0,0-.6-.09s-.06.29-.12.63l-.11.62.32,0C24.29,53.15,24.32,53.15,24.32,53.1Zm8.37-.05a.69.69,0,0,1-.26-1,.88.88,0,0,1,.67-.33c.23,0,.24,0,.24.08s0,.09-.22.11a.54.54,0,0,0-.54.33.51.51,0,0,0,.66.66c.13,0,.14-.06.11-.17s0-.23-.18-.2-.17,0-.17-.08,0-.09.31-.13l.2,0,.05.32c0,.22,0,.32,0,.35a1.65,1.65,0,0,1-.61.15A1.06,1.06,0,0,1,32.69,53.05Zm.61,0a.69.69,0,0,0,.23-.09.8.8,0,0,0,0-.31l-.05-.28-.15,0c-.22,0-.28.06-.28.1s.05,0,.15,0,.16,0,.2.24l0,.17-.14,0A.81.81,0,0,1,33,53a.39.39,0,0,1-.31-.15.55.55,0,0,1,.43-.94c.15,0,.22,0,.22-.07s-.2-.06-.44,0a.65.65,0,0,0-.49.78.58.58,0,0,0,.32.42A.75.75,0,0,0,33.3,53Zm-10.25-.23c0-.28-.09-.38-.23-.43a.38.38,0,0,0-.14,0,1.51,1.51,0,0,0-.07.25c0,.21-.06.24-.13.25a.15.15,0,0,1-.12,0,5.5,5.5,0,0,1,.11-.66l.14-.62h.16c.42,0,.67.19.67.45a.3.3,0,0,1-.13.25c-.11.1-.13.14-.1.19a1.19,1.19,0,0,1,.06.32l0,.25h-.11C23.08,53,23.07,53,23.05,52.78Zm.18,0a2,2,0,0,0-.06-.32c0-.1,0-.12.09-.24s.18-.27,0-.42a.75.75,0,0,0-.54-.21h-.12l-.12.54c-.14.62-.15.7-.07.7s.07,0,.13-.3.05-.22.13-.22a.34.34,0,0,1,.31.16,2.21,2.21,0,0,1,.06.3c0,.18,0,.21.09.21S23.26,52.94,23.23,52.77Zm-.52-.58s0-.08,0-.27l.05-.24.14,0c.2,0,.33.11.35.25s-.1.27-.32.27A.51.51,0,0,1,22.71,52.19Zm.43-.08a.21.21,0,0,0,.07-.16.4.4,0,0,0-.31-.22c-.1,0-.11,0-.15.2s0,.25.18.25A.28.28,0,0,0,23.14,52.11Zm10.91.69a.78.78,0,0,1-.18-1.15.68.68,0,0,1,.8-.12.78.78,0,0,1,.35.82.76.76,0,0,1-.38.45A1,1,0,0,1,34.05,52.8Zm.53,0a.66.66,0,0,0,.11-1.18.57.57,0,0,0-.49-.07.63.63,0,0,0-.45.77A.61.61,0,0,0,34.58,52.77Zm-.49-.15a.62.62,0,0,1-.2-.51.45.45,0,0,1,.85-.26.58.58,0,0,1-.08.76A.5.5,0,0,1,34.09,52.62Zm.53,0a.46.46,0,0,0,.17-.45.63.63,0,0,0-.28-.43.27.27,0,0,0-.29,0,.53.53,0,0,0,.15,1A.37.37,0,0,0,34.62,52.57Zm-13.26,0c-.07,0-.06,0-.28-.66l-.18-.52-.13.46c-.1.39-.14.47-.2.48s-.16,0,0-.69l.19-.63.11,0,.12,0s.09.26.19.57l.19.56.12-.48c.12-.48.12-.48.21-.46l.11,0s-.1.43-.29,1.18C21.51,52.62,21.49,52.64,21.36,52.6Zm.28-.65c.14-.55.15-.62.09-.62s-.07,0-.22.6a.84.84,0,0,1-.12.33,2.86,2.86,0,0,1-.22-.57c-.16-.49-.2-.57-.26-.59s-.1,0-.26.58-.16.6-.13.63.09,0,.22-.49a1.76,1.76,0,0,1,.16-.45s.08.13.13.28a2.54,2.54,0,0,0,.37.91h.07S21.55,52.28,21.64,52Zm13.68,0-.4-.6.1,0,.12,0a5,5,0,0,1,.33.47,3.74,3.74,0,0,0,.31.43s0-.27,0-.56l0-.54.1,0c.1,0,.1,0,.1.17a7.37,7.37,0,0,1-.14,1.24s-.07,0-.12.06S35.69,52.47,35.32,51.93Zm.61.39A9.88,9.88,0,0,0,36,51.09a.08.08,0,0,0-.07,0s-.06.13-.08.45c0,.54,0,.68-.11.68a3.34,3.34,0,0,1-.34-.46c-.23-.36-.3-.45-.36-.43s0,.11.31.58.39.56.46.53A.18.18,0,0,0,35.93,52.32Zm-15.88-.1c-.07,0-.09-.06-.09-.25v-.21l-.23-.08-.24-.08-.12.17c-.11.14-.14.16-.23.14s-.16,0-.06-.16l.79-1s.07,0,.16,0l.11,0,0,.64c0,.35,0,.67.05.71S20.19,52.28,20.05,52.22Zm.09-.36c0-.2,0-.51,0-.68s0-.33-.1-.35-.12,0-.19.09l-.42.51c-.27.33-.32.41-.27.43s.1,0,.29-.26c0-.05.08,0,.31,0l.26.09v.21c0,.19,0,.22.08.25l.09,0S20.16,52.06,20.14,51.86Zm-.42-.31c-.07,0-.12-.07-.12-.1a1.09,1.09,0,0,1,.31-.41s.09.26.09.47S19.92,51.61,19.72,51.55Zm.24-.08a1.39,1.39,0,0,0,0-.24l0-.16-.14.19a.61.61,0,0,0-.13.2,1,1,0,0,0,.28.09S20,51.52,20,51.47Zm16.65.75c-.06-.17-.35-1.14-.36-1.2s0-.08.36-.18.38-.12.4-.05,0,.12-.24.19a1.11,1.11,0,0,0-.23.1s0,.33.09.33l.26-.07c.18-.06.24-.07.26,0s0,.13-.23.21-.26.09-.25.13l.07.2c0,.08,0,.15.07.15l.3-.09c.21-.08.27-.09.3,0s0,.14-.33.25l-.41.14S36.62,52.24,36.61,52.22Zm.45-.15c.23-.08.33-.13.31-.15s-.11,0-.27,0c-.33.11-.34.11-.41-.12a1.45,1.45,0,0,1-.07-.24.6.6,0,0,1,.27-.12c.17,0,.25-.09.22-.11s-.1,0-.23,0c-.29.08-.31.08-.37-.11s0-.25.15-.31.35-.12.31-.15a2.28,2.28,0,0,0-.67.17,7.16,7.16,0,0,0,.38,1.19Zm.4-.8a2.49,2.49,0,0,1-.18-.64,1.37,1.37,0,0,1,.6-.18c.15,0,.19,0,.27.11a.33.33,0,0,1,.05.4c-.05.1-.05.11,0,.13a.78.78,0,0,1,.24.23c.15.2.16.22.11.26s-.18.05-.34-.16-.17-.2-.29-.18a.38.38,0,0,0-.17,0s0,.13.05.28.08.25,0,.28S37.68,51.89,37.46,51.27Zm.34.55s0-.07,0-.23-.09-.32,0-.37a.34.34,0,0,1,.45.14l.16.21s.05,0,.09,0,0-.06-.09-.23a.85.85,0,0,0-.23-.22c-.08,0-.08-.07,0-.19a.24.24,0,0,0,0-.33.23.23,0,0,0-.25-.11,1.36,1.36,0,0,0-.56.18s.4,1.18.42,1.18ZM37.56,51c-.1-.25-.1-.32,0-.37a.44.44,0,0,1,.45,0,.26.26,0,0,1-.09.39C37.73,51.19,37.63,51.18,37.56,51Zm.32,0c.3-.2.06-.51-.28-.35-.1,0-.1.06,0,.31S37.72,51.14,37.88,51Zm-19.35.67c-.07,0-.07,0,0-.13.1-.27.37-1,.37-1l-.19-.08c-.14,0-.18-.08-.18-.13a.11.11,0,0,1,0-.09,2.33,2.33,0,0,1,.53.16c.4.15.48.2.47.25s0,.1-.22.05l-.21-.05a4.53,4.53,0,0,0-.22.51,2.84,2.84,0,0,1-.23.53Zm.31-.52a5.39,5.39,0,0,1,.21-.53s.19,0,.38.08c0,0,.05,0,.05,0a3.53,3.53,0,0,0-.9-.37c-.1,0,0,.08.13.14s.18.08.18.11a5,5,0,0,1-.18.54l-.19.52s0,0,.07,0S18.7,51.57,18.84,51.18Zm8.36.28a25.3,25.3,0,0,1-4.15-.54,26.67,26.67,0,0,1-9.87-4.38c-.68-.48-1.62-1.22-2.23-1.76a18.9,18.9,0,0,1-1.59-1.59s.71-.73,1.56-1.57l2.18-2.14.62-.61.42.41a19.12,19.12,0,0,0,4.51,3.21,4.41,4.41,0,0,1,.55.31A12.29,12.29,0,0,1,17.72,42a19.11,19.11,0,0,1-3.6-2.7l-.4-.39-1.15,1.13L10.4,42.2l-1,1,.59.59a26.86,26.86,0,0,0,13.11,7.11,23.83,23.83,0,0,0,5.26.53A23.76,23.76,0,0,0,33,51a27,27,0,0,0,11.86-5.54,3.25,3.25,0,0,1,.38-.28s.06,0,.09.1a6.6,6.6,0,0,0,2.16,1,30.23,30.23,0,0,0,5.19,1.19,2.35,2.35,0,0,0,1,0c.24-.08.32-.43.16-.74,0-.06-.56-.77-1.17-1.57-1.32-1.74-1.34-1.77-1.34-2,0-.39.4-.56,1.3-.57H53l-.1-.09a24.4,24.4,0,0,0-2.65-1.74A12.06,12.06,0,0,0,44,39l-.46,0s.89.91,2,2,2,2,2,2.08a27.62,27.62,0,0,1-2.05,2,.17.17,0,0,1-.09-.07c-.05-.08,0-.1.24-.34a21.48,21.48,0,0,0,1.56-1.57s-1-1-2.15-2.14L43,39l-.37.37A19.49,19.49,0,0,1,39,42a17,17,0,0,1-1.58.82,4.91,4.91,0,0,1,.55-.32,19.35,19.35,0,0,0,4.58-3.25l.39-.38L45.14,41c1.2,1.17,2.18,2.14,2.19,2.16a14.83,14.83,0,0,1-1.46,1.49c-.33.29-.4.37-.37.41s.25-.13,1.52-1.36l.56-.54-2.07-2.05c-1.14-1.13-2.06-2.06-2-2.07A6.83,6.83,0,0,1,45,39a13.9,13.9,0,0,1,6.37,2.33c.5.32,1.47,1,1.69,1.19l.13.11h-.49c-1.14,0-1.57.3-1.23.85.06.1.61.84,1.22,1.64s1.14,1.51,1.18,1.58c.16.33.08.72-.17.81-.71.24-4.79-.62-7-1.49a4.37,4.37,0,0,1-1.32-.68l-.07-.11-.35.28a27.58,27.58,0,0,1-6,3.69,25.5,25.5,0,0,1-8.37,2.18C29.89,51.45,27.68,51.49,27.2,51.46Zm11.38-.6c-.23-.55-.24-.62-.19-.66s.18-.05.64.25c.25.16.46.28.47.28a3.71,3.71,0,0,0-.18-.43c-.1-.23-.18-.42-.18-.43l.1,0,.1,0,.28.61c.26.58.27.61.2.66a.25.25,0,0,1-.11,0,9.52,9.52,0,0,1-1-.57l-.07-.06a1.5,1.5,0,0,0,.13.38c.23.55.22.53.11.58l-.1,0S38.71,51.2,38.58,50.86Zm.36.5a1.92,1.92,0,0,0-.15-.45c-.1-.23-.17-.42-.17-.43s.12,0,.18,0,.25.17.48.31.43.26.49.23,0-.08-.19-.6a3.1,3.1,0,0,0-.3-.57c-.08,0-.06.05.11.46s.2.54-.38.16c-.26-.17-.48-.3-.49-.3l-.08,0s0,.14.18.61S38.89,51.47,38.94,51.36Zm-21.54-.1a.76.76,0,0,1-.22-.14c-.07-.08-.07-.09,0-.15s.07,0,.13,0c.3.22.44.25.54.11s.08-.12-.1-.32-.32-.46-.14-.64a.5.5,0,0,1,.58,0c.19.09.23.16.15.24s-.07,0-.19,0-.29-.12-.37,0-.07.14.08.3.27.31.27.44a.36.36,0,0,1-.4.34A.88.88,0,0,1,17.4,51.26Zm.57-.07c.18-.18.15-.27-.16-.61a.45.45,0,0,1-.14-.23c0-.2.25-.26.48-.12s.14.06.16,0-.2-.2-.38-.22-.44.15-.39.35a1.39,1.39,0,0,0,.21.29c.2.22.22.28.13.41s-.37.11-.56-.07-.09-.06-.11,0,.27.29.51.3A.31.31,0,0,0,18,51.19ZM16.73,51l-.08-.05a12.55,12.55,0,0,1,.54-1.21s.19,0,.19.09A11.3,11.3,0,0,1,16.83,51Zm.36-.61a3.48,3.48,0,0,0,.23-.57c-.05-.09-.13,0-.36.52s-.27.65-.16.62A4,4,0,0,0,17.09,50.35Zm22.83-.09a5.83,5.83,0,0,1-.22-.64l.12,0c.12-.06.1-.07.62.43.27.26.29.27.27.17s-.1-.88-.1-1,.15-.13.22-.13a9.55,9.55,0,0,1,.71,1.11s-.18.13-.2.11l-.25-.41-.24-.39a2.08,2.08,0,0,0,0,.38c.06.57.05.67,0,.7s-.15,0-.42-.3a1.68,1.68,0,0,0-.35-.29l.15.42c.14.36.15.39.09.43a.25.25,0,0,1-.11,0A3.59,3.59,0,0,1,39.92,50.26Zm.36.5a2.76,2.76,0,0,0-.13-.38c-.21-.53-.16-.56.29-.14.24.21.36.3.39.28s.05-.21,0-.86c0-.32,0-.27.32.2s.25.4.3.36,0-.12-.27-.57-.33-.53-.42-.49-.09.06-.07.21,0,.28,0,.41,0,.3,0,.38,0,.18-.29-.07-.54-.5-.63-.47l-.09,0,.22.6c.16.41.24.59.27.58A.08.08,0,0,0,40.28,50.76Zm-24.51-.27a1.8,1.8,0,0,1-.34-.17l-.16-.1.27-.51.32-.59.06-.08.24.12c.33.15.48.27.56.45a.56.56,0,0,1,0,.57A.67.67,0,0,1,15.77,50.49Zm.63-.06a.88.88,0,0,0,.35-.55.82.82,0,0,0-.26-.48,2.82,2.82,0,0,0-.54-.28,10.08,10.08,0,0,0-.6,1.08,1.69,1.69,0,0,0,.46.25A.61.61,0,0,0,16.4,50.43Zm-.67-.11c-.11,0-.2-.11-.2-.13a4.23,4.23,0,0,1,.51-.92.92.92,0,0,1,.43.25.45.45,0,0,1,.05.55A.53.53,0,0,1,15.73,50.32Zm.54,0a.82.82,0,0,0,.22-.26c.07-.15.08-.19,0-.3a.55.55,0,0,0-.14-.21.88.88,0,0,0-.36-.21l-.24.44-.23.44.2.09C16,50.39,16.11,50.4,16.27,50.29ZM15,50.07c-.1,0-.1-.06,0-.32s0-.33-.13-.42-.11-.07-.28.22a.91.91,0,0,1-.13.2.3.3,0,0,1-.1-.07l-.09-.07.33-.55c.18-.3.33-.56.33-.57s.36.13.51.26.17.17.17.29a1.06,1.06,0,0,1,0,.21.42.42,0,0,1-.3.16c-.06,0-.07,0-.05.14a1.43,1.43,0,0,1-.1.56Zm.14-.22a1.27,1.27,0,0,0,0-.33c0-.13,0-.14.05-.14a.43.43,0,0,0,.31-.17.65.65,0,0,0,0-.17c0-.12-.23-.34-.46-.44l-.15-.07-.31.52c-.28.48-.33.62-.23.62a.55.55,0,0,0,.15-.2.76.76,0,0,1,.17-.23c.07,0,.26.1.31.21a.45.45,0,0,1,0,.32c0,.16,0,.22,0,.24S15,50.05,15.09,49.85Zm-.19-.63c-.1,0-.18-.09-.18-.12a.85.85,0,0,1,.11-.2c.12-.21.22-.23.39-.1s.13.13.13.22C15.35,49.27,15.17,49.35,14.9,49.22Zm.36-.06c.09-.1.06-.22-.08-.32a.26.26,0,0,0-.18-.08.47.47,0,0,0-.14.19l-.1.16.17.07C15.11,49.26,15.19,49.26,15.26,49.16Zm26.37.56-.32-.58-.14-.26.36-.2c.33-.19.36-.2.4-.13s0,.1-.22.25l-.24.13.08.15c0,.08.09.15.11.15l.26-.13c.17-.1.23-.12.25-.09s0,.15-.17.26a1.5,1.5,0,0,0-.23.15.48.48,0,0,0,.08.2l.1.17.21-.12.27-.16s.08,0,.11,0,0,.13-.28.31S41.83,50.1,41.63,49.72Zm.69,0c.3-.19.23-.24-.08-.06a.93.93,0,0,1-.31.13.73.73,0,0,1-.2-.4s.12-.11.23-.18.2-.13.19-.15-.11,0-.23.07-.31.15-.41,0a.86.86,0,0,1-.08-.18.67.67,0,0,1,.24-.16c.22-.13.3-.21.19-.2a2,2,0,0,0-.59.36s.14.27.29.56l.28.51.14-.07Zm.15-.82c-.19-.31-.34-.57-.34-.58s0-.05.1-.07.16,0,.6.17l.54.22s-.07-.16-.21-.37a3.73,3.73,0,0,1-.26-.42s.16-.13.19-.09.7,1.06.7,1.08,0,.06-.09.09-.11,0-.61-.16a5.37,5.37,0,0,0-.55-.21s.1.19.23.41.24.4.24.4l-.19.1S42.65,49.23,42.47,48.92Zm.45.46a1.88,1.88,0,0,0-.2-.39,2.81,2.81,0,0,1-.22-.39c0-.09.11-.06.57.13a4.74,4.74,0,0,0,.55.2c.14,0,.09-.12-.22-.6-.18-.27-.33-.49-.33-.5s0,0-.07,0,0,.11.2.42a4.14,4.14,0,0,1,.26.41c0,.06-.1,0-.54-.16-.63-.26-.59-.25-.66-.2s0,.09.24.57S42.87,49.46,42.92,49.38Zm-29.48-.19a.5.5,0,0,1-.3-.62,5.31,5.31,0,0,1,.51-.83s.18,0,.18.1a3.11,3.11,0,0,1-.24.41c-.28.44-.31.57-.15.71s.39.14.7-.36a4.12,4.12,0,0,1,.24-.38s.19,0,.19.09a4.34,4.34,0,0,1-.51.83A.55.55,0,0,1,13.44,49.19Zm.59-.1a3.46,3.46,0,0,0,.48-.79c0-.08-.13,0-.33.32s-.34.5-.49.5a.51.51,0,0,1-.38-.25c-.05-.14,0-.28.26-.68s.21-.35.17-.38l-.07,0a7.54,7.54,0,0,0-.49.8C13,49,13.69,49.42,14,49.09Zm-1.35-.4c-.09-.06-.1-.09-.12-.46s0-.41-.1-.41-.13.09-.22.21a.74.74,0,0,1-.18.2l-.1-.06c-.08-.07-.08-.07.27-.55.2-.26.38-.51.4-.55s.06-.07.15,0l.09.07-.15.21a.81.81,0,0,0-.13.23,1.07,1.07,0,0,0,.38-.06c.33-.07.35-.07.44,0s.12.12.07.12l-.64.13-.09,0,0,.48a4.4,4.4,0,0,1,0,.48Zm.06-.47c0-.53-.07-.47.35-.55.27,0,.33-.07.26-.13s-.14,0-.33,0c-.5.12-.57.08-.35-.22s.12-.19.08-.23-.09,0-.24.21l-.37.51a1,1,0,0,0-.17.29c0,.07.13,0,.25-.16s.16-.18.24-.18h.11l0,.39c0,.3,0,.41.08.45l.07,0A3.87,3.87,0,0,0,12.74,48.22ZM44,48.05l-.32-.48-.17.11c-.18.13-.22.13-.27,0s0-.11.41-.38.46-.32.52-.25.06.08-.11.2a.51.51,0,0,0-.17.16l.33.48.32.45-.09.07-.11.07S44.18,48.31,44,48.05Zm.43.28-.31-.46c-.16-.23-.29-.43-.29-.44s.07-.09.16-.16.16-.13.15-.15,0,0-.07,0l-.79.55s0,0,0,.05.08,0,.19-.07a.69.69,0,0,1,.2-.11.9.9,0,0,1,.19.23c.41.61.48.7.53.65A.07.07,0,0,0,44.43,48.33ZM3.06,47.54c-.26-.06-.36-.5-.19-.82,0-.09.59-.83,1.21-1.64s1.16-1.55,1.21-1.63c.25-.45,0-.71-.84-.8a4.46,4.46,0,0,0-.62,0c-.15,0-.27,0-.27,0A5.19,5.19,0,0,1,4,42.25,15.05,15.05,0,0,1,11.74,39a6.46,6.46,0,0,1,1.46,0s-.9,1-2,2.08L9.11,43.19l1.14,1.09c.63.6,1.14,1.1,1.14,1.12a10,10,0,0,1-1.55.72,30,30,0,0,1-5.3,1.33A7.28,7.28,0,0,1,3.06,47.54Zm1.45-.12A30.82,30.82,0,0,0,9.8,46.08a9.92,9.92,0,0,0,1.49-.68,14.36,14.36,0,0,0-1.09-1.1c-.61-.59-1.12-1.09-1.13-1.11s.91-.95,2-2.07,2-2,2-2l-.42,0a8.89,8.89,0,0,0-1.87.11,16.41,16.41,0,0,0-6.71,3.11l-.47.35h.23A4,4,0,0,1,5,42.71a1,1,0,0,1,.29.16.32.32,0,0,1,.11.29.63.63,0,0,1-.09.33c0,.08-.59.81-1.2,1.62S3,46.66,2.91,46.75c-.16.31-.06.7.19.76A8.5,8.5,0,0,0,4.51,47.42Zm22.66-2.54A18.26,18.26,0,0,1,25,44.63s0,0,.43,0a18,18,0,0,0,2.52.2A19.81,19.81,0,0,0,31,44.7l.73-.08a15.28,15.28,0,0,1-2,.25C29.22,44.9,27.6,44.91,27.17,44.88Zm-3.44-.47A12.66,12.66,0,0,1,22.16,44s0,0,0,0c.65.19,1.1.31,1.59.41.32.08.6.14.6.15S24.23,44.52,23.73,44.41Zm8.61.09a2,2,0,0,1,.29-.07c.33-.06,1.21-.28,1.59-.4a1.25,1.25,0,0,1,.32-.07,12.44,12.44,0,0,1-1.86.51C32.29,44.54,32.26,44.55,32.34,44.5ZM21.2,43.67c-.24-.08-.65-.24-.9-.35l-.57-.24c-.05,0-.1,0-.1-.07s.06,0,.14,0c.59.26,1.14.48,1.51.61a4.2,4.2,0,0,1,.45.17C21.78,43.86,21.6,43.82,21.2,43.67ZM35,43.82l.49-.19,1-.4A4.21,4.21,0,0,1,37,43a10.9,10.9,0,0,1-1.51.64C35.08,43.82,34.92,43.87,35,43.82ZM24.7,41.72a1,1,0,0,1-.29-.13,1.65,1.65,0,0,1,.34.1c.27.1.33.11.37.07s.19-.8.37-1.71.32-1.68.33-1.71a.14.14,0,0,1,.11-.05c.07,0,.09,0,.09.08s-.19,1.18-.37,2.17c-.08.44-.1.62-.07.65a.9.9,0,0,0,.4.07l.53.05c.27,0,.27,0,.3-.82A19.82,19.82,0,0,1,27,38.41c0-.13.14-.15.22-.06a10.43,10.43,0,0,1-.1,2.19c-.06.74-.06.8,0,.84a1.6,1.6,0,0,0,.57,0l.56,0a5.2,5.2,0,0,0,0-1.46c0-1.3,0-1.45,0-1.53s.16-.12.23,0,.06.23,0,1.5a5.58,5.58,0,0,0,0,1.46,3.88,3.88,0,0,0,1.13,0c.06,0,.06-.15,0-1.41-.1-1.72-.11-1.64,0-1.64h.1s0,.65.1,1.44A8.12,8.12,0,0,0,30,41.27s.14,0,.57,0a1.39,1.39,0,0,0,.57-.09c.05,0,0-.25-.19-1.41-.14-.74-.25-1.4-.25-1.46s0-.1.1-.1.09-.08.46,1.88a11,11,0,0,0,.36,1.65s.11,0,.31,0a1.11,1.11,0,0,1,.31-.08s-.1.06-.27.11-.32.1-.37.07a6.63,6.63,0,0,1-.38-1.67c-.17-.91-.32-1.7-.34-1.76s-.14-.17-.14-.06.11.67.24,1.4.24,1.36.24,1.4a.19.19,0,0,1,0,.12,3.05,3.05,0,0,1-.6.08c-.48,0-.56,0-.61,0a6.93,6.93,0,0,1-.15-1.49l-.11-1.44s0,0-.06,0-.07.05,0,1.46.09,1.55,0,1.6a4.31,4.31,0,0,1-1.19,0,5.38,5.38,0,0,1,0-1.46c0-1.38,0-1.43-.05-1.51l-.07-.09-.07.1c-.06.09-.06.18,0,1.21,0,1.65,0,1.73,0,1.77l-.59.05a1.84,1.84,0,0,1-.63,0c-.06-.05-.06-.09,0-.9a8.54,8.54,0,0,0,.1-2.13.17.17,0,0,0-.07-.06c-.1,0-.16.62-.21,2.19,0,.87,0,.86-.36.83l-.57-.05c-.22,0-.35,0-.38-.08s0-.17.06-.61c.16-.88.39-2.2.39-2.24s-.11,0-.13,0-.16.79-.34,1.71-.33,1.68-.35,1.7S25.05,41.85,24.7,41.72Zm10.43-1.13a2.56,2.56,0,0,1,.38-.16,1.43,1.43,0,0,0,.39-.18,10.07,10.07,0,0,0-.73-1.51c-.42-.8-.76-1.49-.76-1.52s.12-.1.34-.2c.41-.17,1.34-.63,1.75-.86a17.51,17.51,0,0,0,3.75-2.89,16.9,16.9,0,0,0,3-3.79c.16-.29.19-.36.15-.42A.13.13,0,0,0,43.3,29a2.76,2.76,0,0,0-.45.4,6.38,6.38,0,0,1-1,.89c-.1,0-.07-.1.13-.38a16,16,0,0,0,2.61-5.53,12.47,12.47,0,0,0,.38-3,13.47,13.47,0,0,0-.3-3.37,6.87,6.87,0,0,0-.73-2c-.1,0-.13.1-.16.57A12.57,12.57,0,0,1,43.62,18c0,.15-.11.19-.14.06s0-.35-.07-.67a12.63,12.63,0,0,0-2.51-6.51,9.13,9.13,0,0,0-1.11-1.09c-.09,0-.11,0-.16,0s0,.09.07.46a9.6,9.6,0,0,1,.4,2.8c0,.35,0,.46-.05.46a1.06,1.06,0,0,1-.21-.35A8.76,8.76,0,0,0,38,10.55a11.44,11.44,0,0,0-3.17-2.28,7.53,7.53,0,0,0-1.94-.73c-.11,0-.07.16.12.28a11.94,11.94,0,0,1,2,1.85A9.63,9.63,0,0,1,37.1,14.5a9.8,9.8,0,0,1,0,1.88,4.79,4.79,0,0,1-4.54,4.07l-.37,0L32,20.35a2.18,2.18,0,0,1-.5-1.21,15.73,15.73,0,0,0-.83-2.89,3.22,3.22,0,0,0-2.12-1.74,3.94,3.94,0,0,0-3.07.4.43.43,0,0,1-.21.11.51.51,0,0,0-.35.32c0,.06-.05.09-.21.14a2.1,2.1,0,0,0-1.17.84,1.84,1.84,0,0,0-.21.75v.15l.1-.1a2,2,0,0,1,2.19-.27,1.89,1.89,0,0,1,.51,2.78,2.71,2.71,0,0,1-.89.68,1.59,1.59,0,0,1-1.2.14,5.24,5.24,0,0,1-2.47-.91,5.69,5.69,0,0,1-1.16-1.19,5,5,0,0,1-.86-2.9,8.69,8.69,0,0,1,1.56-4.94A10.26,10.26,0,0,1,23.54,8,2.36,2.36,0,0,0,24,7.63a.19.19,0,0,0-.05-.08s-.1,0-.44.07a12.09,12.09,0,0,0-4.68,2.9,8.65,8.65,0,0,0-1.86,2.59c-.27.58-.3.55-.27-.29a9.22,9.22,0,0,1,.4-2.63c.17-.54.11-.61-.28-.3a9.78,9.78,0,0,0-2.44,3.49,13.82,13.82,0,0,0-1,3.93,6.21,6.21,0,0,0-.06.68c0,.12,0,.17,0,.17A3.41,3.41,0,0,1,13,16.69c0-.58-.07-.7-.18-.65a5.86,5.86,0,0,0-.62,1.64,12.7,12.7,0,0,0-.4,3.42A11.31,11.31,0,0,0,12,23.39a15.85,15.85,0,0,0,2.69,6.33c.28.39.34.52.22.52a4.79,4.79,0,0,1-.92-.81c-.41-.39-.48-.45-.53-.41s-.07.15.15.54A19.69,19.69,0,0,0,18.41,35,18.19,18.19,0,0,0,22.05,37a1.19,1.19,0,0,1,.32.16s-.35.7-.78,1.51a10,10,0,0,0-.74,1.54,1.21,1.21,0,0,0,.35.17,1.43,1.43,0,0,1,.34.14s0,0-.42-.12c-.19-.07-.3-.13-.32-.18s.11-.35.75-1.57l.77-1.48-.26-.11c-.41-.16-1.62-.77-2.1-1.05a18,18,0,0,1-3.37-2.59,18.45,18.45,0,0,1-3.21-4.12c-.1-.2-.1-.22-.05-.3a.21.21,0,0,1,.13-.09,2.33,2.33,0,0,1,.43.37,7.41,7.41,0,0,0,1,.88,3,3,0,0,0-.28-.44,16.73,16.73,0,0,1-2.25-4.49,15.9,15.9,0,0,1-.57-2.67,22,22,0,0,1,0-3.14,11.43,11.43,0,0,1,.78-3.15c.09-.22.14-.3.2-.31s.2.05.22.49A10.9,10.9,0,0,0,13.18,18c0,.16,0,.18.05.08s0-.32,0-.57a13,13,0,0,1,1.85-5.7c.68-1.08,1.65-2.12,1.94-2.09s.15.15,0,.56a9.46,9.46,0,0,0-.39,2.61l0,.65L16.9,13a8.85,8.85,0,0,1,1.84-2.55,12.25,12.25,0,0,1,4.69-2.9c.44-.15.43-.15.5-.07s.07.19-.35.51a9.7,9.7,0,0,0-3.91,6.5,7.39,7.39,0,0,0,0,1.83A4.83,4.83,0,0,0,21,19a4.43,4.43,0,0,0,1.67,1.1,6.24,6.24,0,0,0,2,.37,2.6,2.6,0,0,0,1.46-.85,1.8,1.8,0,0,0-2.67-2.4c-.11.12-.13.09-.13-.12a1.83,1.83,0,0,1,.21-.8,2.13,2.13,0,0,1,1.16-.84c.16,0,.21-.08.21-.13s.24-.32.35-.32a.4.4,0,0,0,.22-.12,4.19,4.19,0,0,1,3.67-.22,3.46,3.46,0,0,1,1.34,1.12,10.43,10.43,0,0,1,1.07,3.33,2.25,2.25,0,0,0,.51,1.21l.14.14.31,0A5.09,5.09,0,0,0,35.7,19a5.19,5.19,0,0,0,1.35-2.68,9.74,9.74,0,0,0,0-1.8A9.72,9.72,0,0,0,35,9.7a11.88,11.88,0,0,0-2-1.84c-.14-.1-.18-.14-.18-.23s.09-.19.5,0a11.88,11.88,0,0,1,6,4.43c.13.21.36.61.51.91l.27.53V13a9.61,9.61,0,0,0-.4-2.78c-.14-.46-.14-.54,0-.57s.39.21.82.65a12,12,0,0,1,2.93,7c0,.32.07.63.08.68s0,.08,0,0a12,12,0,0,0,.17-1.38A2.2,2.2,0,0,1,43.8,16a.17.17,0,0,1,.13-.05c.07,0,.1,0,.2.25A12,12,0,0,1,45,19.89a20.88,20.88,0,0,1-.06,2.87A15.29,15.29,0,0,1,43,28.38c-.18.32-.82,1.31-1.07,1.65-.09.12-.15.21-.13.21a6.24,6.24,0,0,0,.9-.8c.4-.4.53-.49.59-.49a.15.15,0,0,1,.12.11c0,.09,0,.15-.16.45a16.86,16.86,0,0,1-1.84,2.6A27.76,27.76,0,0,1,39,34.46a17.55,17.55,0,0,1-4.25,2.6l-.35.16.76,1.47c.42.8.76,1.48.76,1.52s-.05.13-.41.26l-.38.14C35.11,40.62,35.1,40.62,35.13,40.59Z"/><path id="path2698" class="cls-11" d="M26.92,53.36a.56.56,0,0,1-.32-.55.85.85,0,0,1,.06-.31.62.62,0,0,1,1.1-.06.88.88,0,0,1,0,.64A.63.63,0,0,1,26.92,53.36Zm.56-.11a.55.55,0,0,0,.21-.46c0-.33-.16-.53-.42-.56s-.51.19-.51.55.15.55.45.55A.43.43,0,0,0,27.48,53.25Zm.69-.44v-.63h.08c.07,0,.15.1.42.48a3,3,0,0,0,.36.48s0-.15,0-.49,0-.5,0-.5.1.22.1.82,0,.47-.08.46-.18-.15-.4-.48a2.58,2.58,0,0,0-.36-.47s-.05.12-.05.48,0,.48-.07.48S28.17,53.41,28.17,52.81Zm1.36.6.19-.61c.1-.33.19-.62.2-.64s.06,0,.1,0,.11,0,.21.27.18.43.28.63.16.36.09.36-.1-.06-.17-.21l-.1-.21-.17,0-.26,0c-.09,0-.11,0-.16.19s-.08.21-.13.22S29.53,53.42,29.53,53.41Zm.74-.57a1.86,1.86,0,0,0-.24-.55,1.43,1.43,0,0,0-.17.54s.05.06.21.06S30.27,52.87,30.27,52.84Zm-4.15,0c0-.28.05-.57.05-.65s0-.14.08-.14.08,0,.06.25,0,.43,0,.65c0,.37,0,.4-.11.4S26.08,53.37,26.12,52.86Zm4.85.43s0-.31,0-.62a5.07,5.07,0,0,1,0-.6.07.07,0,0,1,.13,0s0,.3.06.58.05.52.05.53.05,0,.1,0l.32,0c.17,0,.21,0,.21,0s-.07.06-.23.08l-.39,0C31,53.33,31,53.32,31,53.29Zm-5.84,0a.59.59,0,0,1-.47-.58.65.65,0,0,1,.69-.67c.19,0,.41.06.41.11s-.13,0-.3,0-.32,0-.43.06a.58.58,0,0,0,0,1,1,1,0,0,0,.31,0c.18,0,.18,0,.2-.14s0-.3-.1-.3-.13,0-.13-.06,0-.06.14,0l.2,0c.07,0,.07,0,.05.29a.91.91,0,0,1-.07.31A1.28,1.28,0,0,1,25.13,53.25Zm-1.25-.17-.32,0,.11-.62c.06-.34.11-.62.12-.63a5.12,5.12,0,0,1,.6.09s.08,0,.08.07,0,0-.28,0a1.32,1.32,0,0,0-.3,0s0,.11,0,.23l0,.23.25,0q.34,0,.27.12a1,1,0,0,1-.27,0,.81.81,0,0,0-.26,0,1.66,1.66,0,0,0-.08.48A1.38,1.38,0,0,0,24,53c.19,0,.28.06.28.1S24.29,53.15,23.88,53.08ZM32.69,53a.58.58,0,0,1-.32-.42.65.65,0,0,1,.49-.78c.24-.07.44-.08.44,0s-.07.06-.22.07a.55.55,0,0,0-.43.94A.39.39,0,0,0,33,53a.81.81,0,0,0,.32,0l.14,0,0-.17c0-.26,0-.27-.2-.24s-.15,0-.15,0,.06-.07.28-.1l.15,0,.05.28a.8.8,0,0,1,0,.31,1.56,1.56,0,0,1-.56.15A.77.77,0,0,1,32.69,53Zm-9.6-.25a2.21,2.21,0,0,0-.06-.3.34.34,0,0,0-.31-.16c-.08,0-.1,0-.13.22s-.07.3-.13.3-.07-.08.07-.7l.12-.54h.12a.75.75,0,0,1,.54.21c.13.15.12.27,0,.42s-.13.14-.09.24a2,2,0,0,1,.06.32c0,.17,0,.19-.05.19S23.11,52.93,23.09,52.75Zm.09-.61c.17-.17,0-.42-.28-.44l-.14,0-.05.24c-.06.28-.05.3.22.3S23.13,52.2,23.18,52.14Zm10.91.62a.7.7,0,0,1-.18-1.07.61.61,0,0,1,1,.12.64.64,0,0,1-.09.81A.65.65,0,0,1,34.09,52.76Zm.57-.15a.58.58,0,0,0,.08-.76.45.45,0,0,0-.85.26c0,.38.18.59.48.59A.38.38,0,0,0,34.66,52.61Zm-13.26,0a2.54,2.54,0,0,1-.37-.91c-.05-.15-.1-.28-.13-.28a1.76,1.76,0,0,0-.16.45c-.13.48-.16.55-.22.49s0-.22.13-.63.18-.59.26-.58.1.1.26.59a2.86,2.86,0,0,0,.22.57.84.84,0,0,0,.12-.33c.15-.59.15-.6.22-.6s.05.07-.09.62c-.09.33-.16.61-.17.62Zm14-.65c-.32-.47-.36-.56-.31-.58s.13.07.36.43a3.34,3.34,0,0,0,.34.46c.06,0,.08-.14.11-.68,0-.32,0-.44.08-.45a.08.08,0,0,1,.07,0,9.88,9.88,0,0,1-.09,1.23.18.18,0,0,1-.1.12C35.76,52.47,35.7,52.4,35.37,51.91Zm-15.29.27c-.07,0-.08-.06-.08-.25v-.21l-.26-.09c-.23-.07-.27-.08-.31,0-.19.26-.23.3-.29.26s0-.1.27-.43l.42-.51c.07-.09.11-.11.19-.09s.09,0,.1.35,0,.48,0,.68,0,.36,0,.36ZM20,51.51c0-.21-.05-.47-.09-.47a1.09,1.09,0,0,0-.31.41c0,.06.17.13.32.14S20,51.57,20,51.51Zm16.46.08a5,5,0,0,1-.16-.6,2.28,2.28,0,0,1,.67-.17s0,.06-.31.15-.21.1-.15.31.08.19.37.11c.13,0,.21,0,.23,0s0,.06-.22.11a.6.6,0,0,0-.27.12,1.45,1.45,0,0,0,.07.24c.07.23.08.23.41.12.16-.06.24-.07.27,0s-.08.07-.31.15l-.38.11A2.76,2.76,0,0,1,36.46,51.59Zm1-.32c-.11-.32-.2-.59-.2-.6a1.36,1.36,0,0,1,.56-.18.23.23,0,0,1,.25.11.24.24,0,0,1,0,.33c-.07.12-.07.17,0,.19a.85.85,0,0,1,.23.22c.13.17.14.2.09.23s-.07,0-.09,0l-.16-.21a.34.34,0,0,0-.45-.14c-.11.05-.12.11,0,.37s.07.2,0,.23l-.07,0A5.37,5.37,0,0,1,37.51,51.27Zm.41-.21a.26.26,0,0,0,.09-.39.44.44,0,0,0-.45,0c-.1,0-.1.12,0,.37S37.73,51.19,37.92,51.06Zm-19.4.58.19-.52a5,5,0,0,0,.18-.54s-.08-.08-.18-.11-.23-.13-.13-.14a3.53,3.53,0,0,1,.9.37s0,0-.05,0c-.19-.07-.36-.11-.38-.08a5.39,5.39,0,0,0-.21.53c-.14.39-.19.49-.25.49S18.52,51.66,18.52,51.64Zm8.72-.22a26.53,26.53,0,0,1-4.15-.53,26.9,26.9,0,0,1-9.88-4.39A24.45,24.45,0,0,1,10,43.78l-.59-.59,1-1,2.17-2.12L13.72,39l.4.39a19.9,19.9,0,0,0,4.67,3.28l.47.23v.2a.81.81,0,0,0,0,.27.16.16,0,0,0,.3-.07c0-.21,0-.21.55,0s1.29.51,1.49.56.1,0,.08.1c-.06.25-.06.46,0,.5s.22,0,.32-.2l.09-.23.52.14,1.14.29c.51.11.62.14.6.19l-.07.22c0,.14,0,.16,0,.21s.15.07.38-.17l.22-.23.4.06a18.73,18.73,0,0,0,2.55.19A19,19,0,0,0,31,44.74l.72-.09.21.22c.22.24.28.26.39.15s.06-.08,0-.26a.53.53,0,0,1,0-.21l.37-.08c.43-.09,1.3-.31,1.62-.41a.78.78,0,0,1,.26-.05,1,1,0,0,1,.1.21c.09.23.15.27.28.21s.1-.06.08-.16,0-.19,0-.27l0-.15.5-.17c.28-.1.75-.29,1.06-.42l.55-.23v.11c0,.21.12.32.26.25s.07-.1.09-.29l0-.25L38,42.6a20.14,20.14,0,0,0,4.65-3.28L43,39,45.11,41c1.17,1.15,2.14,2.11,2.15,2.14a28.13,28.13,0,0,1-2.06,2,3.25,3.25,0,0,0-.38.28c-.57.47-1.3,1-2,1.48a26,26,0,0,1-12.35,4.39C29.86,51.41,27.71,51.45,27.24,51.42Zm.85-.42c.05-.11,0-.28-.06-.61,0-.06,0-.09,0-.11s.57,0,1.19-.06,1.26,0,1.42,0l.28,0L31,50c0-.08,0-.26,0-.38,0-.4-.26-.74-.47-.71s-.35.68-.18.77a.39.39,0,0,0,.38,0c.09-.06.09-.06.11,0s0,.09-.17.11l-.33,0h-.13l-.08-.34c-.05-.21-.07-.35,0-.37a.8.8,0,0,0,.06-.17c0-.11,0-.11.12-.08s.11,0,.14,0a.23.23,0,0,0,.05-.1s.05,0,.1,0l.11,0a.88.88,0,0,0,.11-.29c0-.05-.26-.13-.27-.09s-.11.17-.2.13-.1,0-.16.11-.08.14-.14.11a.17.17,0,0,1-.07-.1s0,0-.06,0-.08.08-.12.18,0,.19,0,.23a1.33,1.33,0,0,1,.15.43l.09.39h-.17c-.23,0-.26,0-.26-.17s-.14-.41-.19-.36a1,1,0,0,0-.07.18c0,.12,0,.14,0,.24l.08.1h-.54l-.15-.17c-.18-.2-.28-.25-.39-.21s-.33.35-.26.42,0,.08-.07.14-.14.26,0,.64A1.89,1.89,0,0,1,28,51C28,51.15,28,51.13,28.09,51Zm.07-1.15c.06-.07.08-.07.14,0s.05,0,0,.08l-.14,0C28.08,49.93,28.08,49.93,28.16,49.85Zm2.26-.53s0-.06.06,0,.08.08,0,.1S30.42,49.36,30.42,49.32Zm-1.31,1.39c0-.09.06-.1.17,0s.08,0,.14-.08.1-.17,0-.23-.17-.08-.23,0-.05.08-.13,0-.1,0-.17.05-.08.2,0,.24S29.08,50.79,29.11,50.71Zm2.15-.06c.08,0,.16-.09.16-.12s0,0-.07,0a.17.17,0,0,1-.12,0s0,0,0,0,.08,0,.08-.08-.11-.1-.19,0-.12.35-.07.35Zm-5.08-.18a1,1,0,0,0,.22-.23c.07-.12.09-.13.23-.11l.47,0,.32,0,0-.18c0-.21,0-.3-.28-.64L27,49.16l.17,0,.22-.06c.07,0,.06-.31,0-.31l-.31.07c-.3.1-.42.21-.42.39s.13.35.22.35a.34.34,0,0,1,.17.11l.1.11H27l-.32,0c-.15,0-.16,0-.15-.1a.49.49,0,0,0-.16-.44c-.2-.09-.46.2-.46.53a.28.28,0,0,0,.21.31c.06,0,.05,0-.08.11a.56.56,0,0,1-.61,0l-.13-.09,0-.23a2,2,0,0,0,.05-.36c0-.12-.08-.37-.12-.37s-.06.07-.1.16-.07.17,0,.27.07.21,0,.3a1.26,1.26,0,0,1-.57.26.54.54,0,0,1-.25-.09c-.24-.16-.29,0-.07.15s.54.3.82.11l.15-.09.17.15C25.7,50.62,25.9,50.65,26.18,50.47Zm0-.81s0-.1,0-.1.05,0,.07.07,0,.08,0,.08A.12.12,0,0,1,26.18,49.66Zm5.12.41a1.32,1.32,0,0,0,0-.32,4.34,4.34,0,0,0-.27-1.13s-.06.07-.09.15-.05.18.05.6a3.54,3.54,0,0,1,.11.62c0,.16,0,.2.06.2S31.28,50.14,31.3,50.07Zm3.64-.13a.85.85,0,0,0,.24-.48c0-.06.06-.09.49-.21s1.73-.56,1.76-.59a.41.41,0,0,0,0-.19c0-.14-.06-.17-.15-.17a1.53,1.53,0,0,1-.39-.12c-.43-.19-.66-.17-.77.07s-.08.26,0,.22a1,1,0,0,1,.52,0c.06,0,0,.06-.27.15l-.35.12-.13-.11a2.15,2.15,0,0,0-.35-.21l-.22-.11.18-.13.19-.12a.86.86,0,0,0-.1-.32,1.77,1.77,0,0,0-.56.51.36.36,0,0,0,.15.39.35.35,0,0,0,.17.05c.09,0,.35.08.35.12a1.73,1.73,0,0,1-.58.16.88.88,0,0,0-.24-.36.16.16,0,0,0-.19,0c-.13.06-.17.18-.17.46s0,.23.09.31a.31.31,0,0,0,.18.09c.13,0,.12,0,0,.2s-.15.15-.43.15-.27,0-.27.05.47.23.66.2A.58.58,0,0,0,34.94,49.94Zm-.22-.9a.09.09,0,0,1,0-.07s.17,0,.17.07S34.75,49.09,34.72,49Zm-1.61.81a.42.42,0,0,0,.25-.12c.06-.07.1-.08.39-.06h.33l0-.14a1.34,1.34,0,0,0-.32-.62c-.1-.07-.11-.07-.2,0a.71.71,0,0,0-.19.28.54.54,0,0,1-.18.25.8.8,0,0,1-.51.05,1.91,1.91,0,0,1-.19-.46c-.18-.54-.22-.58-.25-.25a.39.39,0,0,1-.17.28.84.84,0,0,0-.26.56c0,.08,0,.09.21.09s.23,0,.31-.11l.1-.11,0,.11a.5.5,0,0,0,.11.2C32.64,49.91,32.8,49.92,33.11,49.85Zm-.94-.61c.07-.06.12-.08.13-.05s-.07.15-.16.15S32.07,49.33,32.17,49.24Zm1.4.07s-.07-.08,0-.08a.23.23,0,0,1,.1.05c.06,0,.06.06,0,.06Zm-9.27.12a2.16,2.16,0,0,0,.05-.5c0-.18-.13-.37-.19-.37s-.08.09-.13.19l-.09.18L24,49c.1.1.16.36.08.36a1.14,1.14,0,0,1-.44-.14.21.21,0,0,0-.11-.05s0,0,0-.12a.39.39,0,0,0,0-.19c0-.06,0-.06-.12,0a.34.34,0,0,0-.11.19c0,.11,0,.11-.08.06s-.06-.06,0-.18,0-.14,0-.14-.17.1-.17.15-.15.12-.33.07-.26-.11-.21-.26,0-.24-.1-.13-.17.21-.29.21h-.13l0-.25a.63.63,0,0,0,0-.31s-.05,0-.14.08a.25.25,0,0,0-.09.18l0,.14,0,.08-.31-.09-.38-.13c-.09-.05-.08-.19,0-.51s.12-.61.06-.65-.08,0-.15.11-.11.14-.09.22a1,1,0,0,1-.08.4c-.12.35-.14.62,0,.71a4.3,4.3,0,0,0,.58.22,1.9,1.9,0,0,0,.7.16c.14,0,.18,0,.25.06a.87.87,0,0,0,.54.17.63.63,0,0,1,.25.07c.18.09.3.1.3,0s0,0,.07,0a.72.72,0,0,0,.36.15C24.27,49.81,24.23,49.83,24.3,49.43ZM20.43,49a1.47,1.47,0,0,0,.29-.79.86.86,0,0,0,0-.23s-.08,0-.13.1a.39.39,0,0,0-.11.34c0,.18,0,.22-.09.29-.23.18-.92-.09-.92-.37a.52.52,0,0,1,.18-.28c.11-.1.17-.2.16-.23s0-.07-.24.08-.46.62-.28.84S20.21,49.21,20.43,49Zm11.64-.5c0-.11,0-.11.14-.06s.1,0,.15-.09,0-.19-.12-.22-.11,0-.15.07-.06.09-.15.07-.11,0-.15.08-.05.16,0,.2S32,48.61,32.07,48.51Zm-10.36-.45c.06-.06.07-.06.13,0s.13.08.25-.05l.1-.11-.08-.09c-.1-.11-.14-.12-.23,0s-.07,0-.16,0-.1-.06-.21,0l-.1.1.09.11C21.62,48.14,21.62,48.14,21.71,48.06Zm-1.31-.27.12-.14a.53.53,0,0,0-.12-.15l-.13-.12-.12.1c-.07.06-.14.1-.14.11a1.18,1.18,0,0,0,.25.31Zm5.83-.07a.48.48,0,0,0,.26-.19c.09-.13.12-.35,0-.38h.2a.66.66,0,0,0,.35,0c.11,0,.13,0,.33,0a2.06,2.06,0,0,0,.67.09l.45,0V46.9c0-.29,0-.37-.07-.47s-.12-.14-.18.06,0,.16,0,.23a.43.43,0,0,1,.06.12.66.66,0,0,1-.22,0c-.22,0-.33,0-.33-.17a.8.8,0,0,0-.08-.2c-.11-.22-.21-.2-.49.08L27,46.8l-.27,0a.73.73,0,0,0-.48.07.5.5,0,0,0-.26.23c-.06.13-.06.14,0,.19a.33.33,0,0,0,.19.05c.06,0,.12,0,.12,0s-.28.12-.54.12c-.44,0-.54-.19-.29-.56.12-.18.14-.29.06-.29a1.66,1.66,0,0,0-.36.49.8.8,0,0,0,0,.55C25.31,47.83,25.85,47.87,26.23,47.72Zm1.18-1s-.05-.06,0-.07.07,0,.1,0S27.51,46.82,27.41,46.74Zm.69,1c0-.09,0-.09.14,0s.11.05.16,0l.06-.11.28.14a1.5,1.5,0,0,0,.35.15.8.8,0,0,0,.48-.3.52.52,0,0,0,.11-.38v-.23h.2c.18,0,.22,0,.3-.06l.08-.08,0,.11a.67.67,0,0,0,.1.21c.06.08.1.09.3.09a.83.83,0,0,0,.38-.07.27.27,0,0,1,.31,0c.21.07.39.07.42,0a.8.8,0,0,0-.06-.54,1.76,1.76,0,0,0-.58-.57L31,45.86,31,46a.66.66,0,0,0,0,.19.18.18,0,0,1,0,.14.51.51,0,0,0-.05.24c0,.19,0,.22-.25.22s-.19-.07-.31-.64c-.07-.35-.09-.39-.13-.33a.47.47,0,0,0-.07.2.23.23,0,0,1-.13.2.81.81,0,0,0-.31.37c0,.06,0,.06-.09-.05s-.14-.17-.19,0,0,.19,0,.28.1.23-.07.39-.5.33-.73.19c-.06,0-.1,0-.11,0s-.07,0-.15,0l-.13-.09-.08.09c-.07.09-.09.1-.16.06s-.1,0-.14,0-.13.19,0,.27S28.05,47.81,28.1,47.7Zm3.33-1c-.05-.08.05-.11.11,0s.07.08,0,.08A.15.15,0,0,1,31.43,46.68Zm-.33-.11s0-.11.08-.11.05,0,0,.06S31.14,46.62,31.1,46.57ZM30,46.46c.11-.09.17-.1.15,0s-.05.07-.12.07H30Zm3.68,1c.36-.18.47-.3.47-.56a.52.52,0,0,0,0-.23s.1-.07.38-.13l.43-.11,0-.11c-.06-.23-.05-.25.13-.25a.27.27,0,0,0,.26-.11l.09-.12.06.11a.37.37,0,0,0,.31.23,1.1,1.1,0,0,0,.59-.23c.08-.08.14-.1.37-.12a.77.77,0,0,0,.31-.06c.05,0-.06-.35-.18-.5s-.25-.25-.35-.22a.61.61,0,0,0-.22.38c0,.14-.13.25-.36.32s-.24.06-.29,0a3,3,0,0,1-.26-.48c-.19-.39-.21-.41-.24-.33a.47.47,0,0,0,0,.21c0,.09,0,.14-.1.23a.77.77,0,0,0-.17.29l-.05.16-.06-.1c-.07-.1-.18-.18-.2-.16a.75.75,0,0,0,0,.17c0,.13,0,.18.08.24s.07.09,0,.1a1.38,1.38,0,0,1-.36.11,1.66,1.66,0,0,0-.46.17.53.53,0,0,0-.25.46c0,.11.06.12.32.07l.13,0-.09.08a1.65,1.65,0,0,1-.67.28c-.16,0-.18,0-.24-.08s-.07-.09,0-.61c0-.06,0-.08,0-.07s-.26.73-.15,1S33.29,47.69,33.72,47.48Zm1.39-1.83c.06-.12.14-.16.16-.1a.11.11,0,0,1-.06.11C35.1,45.74,35.06,45.73,35.11,45.65Zm1.37-.19a0,0,0,0,1,.05,0,.12.12,0,0,1,.08,0s0,0-.06,0S36.48,45.48,36.48,45.46ZM23.16,47a1,1,0,0,0,.26-.2l.12-.13.42.09c.57.12.54.12.57-.11a.54.54,0,0,0-.08-.4,2.25,2.25,0,0,0-.19-.32c-.05-.06-.08-.13-.07-.14a.54.54,0,0,1,.22,0l.2,0,0-.15a.3.3,0,0,0,0-.16,1.94,1.94,0,0,0-.63.12.32.32,0,0,0-.15.45.33.33,0,0,0,.13.15,1,1,0,0,1,.19.16c.11.14.11.14,0,.12l-.33-.06-.24-.05v-.2c0-.31-.14-.45-.36-.33a.72.72,0,0,0-.26.5.25.25,0,0,0,.12.25l.11.08-.15.07a.56.56,0,0,1-.65-.12c-.08-.06-.11-.07-.15,0s.39.55.61.55A.69.69,0,0,0,23.16,47Zm.15-.8s0-.08,0-.11.06,0,.09,0S23.42,46.29,23.31,46.18Zm-1.25.45a.55.55,0,0,0,.36-.44c.08-.29.07-.69,0-.69s-.07.06-.11.15a.3.3,0,0,0,0,.3c0,.14,0,.15-.05.23a1,1,0,0,1-.64.22.53.53,0,0,1-.21-.11c-.09-.09-.21-.1-.21,0a2.16,2.16,0,0,0,.22.24c.19.18.23.21.37.21A.87.87,0,0,0,22.06,46.63Zm6.41-.58a.75.75,0,0,0,.1-.16s-.05,0-.11,0a.14.14,0,0,0-.13.06c0,.06,0,.06-.06,0s-.22-.09-.22,0a.74.74,0,0,0,.08.17C28.24,46.25,28.35,46.24,28.47,46.05ZM38,46a.88.88,0,0,0,.25-.51l0-.17.45-.19a18,18,0,0,0,1.69-.81,1,1,0,0,0-.08-.18c-.06-.12-.08-.14-.17-.12a1.6,1.6,0,0,1-.38-.08c-.37-.13-.53-.13-.67,0a.3.3,0,0,0-.11.26c0,.13,0,.15,0,.12a.58.58,0,0,1,.44-.09.28.28,0,0,1,.14,0,1.74,1.74,0,0,1-.31.17l-.32.14-.15-.09-.35-.16-.2-.08s.06-.08.14-.17l.16-.16-.06-.14c0-.07-.08-.13-.1-.13l-.25.24c-.19.21-.22.26-.22.38a.51.51,0,0,0,0,.22.48.48,0,0,0,.35.14.61.61,0,0,1,.21,0l.17,0-.29.13L38.1,45s0,0-.05-.07a.9.9,0,0,0-.14-.19c-.25-.25-.46-.08-.43.34,0,.27.13.4.31.4s.15,0,0,.19a.6.6,0,0,1-.53.25c-.14,0-.18,0-.19.05s0,.07.15.1A1.26,1.26,0,0,0,38,46Zm-.25-1s0-.06,0-.07.19,0,.13.1S37.75,45.14,37.7,45.07Zm-16.35.64a2.21,2.21,0,0,0,.11-.49c0-.2-.07-.43-.14-.42s-.09.07-.14.16l-.1.16.07.14c.08.16.1.37,0,.34l-.24-.08a.45.45,0,0,1-.21-.12c0-.09-.12,0-.16.07s0,.27,0,.31a4.21,4.21,0,0,0,.65.23A.71.71,0,0,0,21.35,45.71Zm-.86-.26c.11-.27.13-.47.06-.47a.26.26,0,0,0-.22.23c0,.11,0,.11-.07,0s-.06-.07,0-.19.05-.14,0-.15-.18,0-.23.12-.18.11-.37,0-.19-.14-.14-.29,0-.2-.14-.06a.24.24,0,0,1-.25.11c-.1,0-.13,0-.12-.07a1.53,1.53,0,0,0,0-.52s-.08,0-.15.09-.12.13-.08.24,0,.13,0,.13a2.4,2.4,0,0,1-.72-.35,1.52,1.52,0,0,1,.13-.42,1.31,1.31,0,0,0,.15-.52c0-.09,0-.17,0-.17l-.14.12a.37.37,0,0,0-.12.24A1.22,1.22,0,0,1,18,44c-.14.32-.19.5-.15.62s.15.15.95.51a.47.47,0,0,0,.44,0c.06,0,.07,0,.07,0a.19.19,0,0,0,.07.13,1,1,0,0,0,.51.18.21.21,0,0,1,.14,0,.7.7,0,0,0,.31.18S20.43,45.62,20.49,45.45Zm13.8.06c0-.07,0-.08.13-.08s.11,0,.16-.13a.37.37,0,0,0,0-.16l-.16,0c-.14,0-.16,0-.18.07s0,.1-.13.1-.13,0-.16.17,0,.12,0,.13S34.28,45.59,34.29,45.51ZM17.5,44.73a1.83,1.83,0,0,0,.36-.81c0-.09,0-.16,0-.16s-.08.06-.14.12a.48.48,0,0,0-.14.32c0,.32-.17.4-.52.28-.19-.07-.5-.33-.5-.43s.14-.24.3-.35.18-.15.09-.18-.42.2-.54.36a.48.48,0,0,0-.11.32c0,.15,0,.18.16.32a1.15,1.15,0,0,0,.77.31C17.37,44.83,17.42,44.82,17.5,44.73ZM19.26,44l.12-.1-.09-.11c-.09-.1-.1-.11-.19-.06s-.1.05-.16,0-.12-.07-.24,0l-.11.09.11.12.11.12.08-.07.09-.07L19,44C19.1,44.12,19.11,44.12,19.26,44Zm-1.7-.44c.16-.1.16-.12,0-.32l-.09-.1-.14.1q-.13.09-.12.15a1.58,1.58,0,0,0,.2.27Zm21.06,7.28c-.19-.47-.22-.58-.18-.61l.08,0,.48.29a3,3,0,0,0,.5.3c.07,0,0-.1-.12-.48s-.18-.47-.09-.44a4.51,4.51,0,0,1,.29.58c.23.52.25.56.19.6s-.16,0-.49-.23-.45-.28-.48-.31-.18-.07-.18,0,.07.2.17.43.18.5.09.5A2.88,2.88,0,0,1,38.62,50.83Zm-21.19.4c-.17-.08-.25-.17-.22-.23s.05,0,.11,0,.46.21.56.07.07-.19-.13-.41a1.39,1.39,0,0,1-.21-.29c-.05-.2.16-.38.39-.35s.43.17.38.22-.08,0-.16,0-.48-.08-.48.12a.45.45,0,0,0,.14.23c.31.34.34.43.16.61A.45.45,0,0,1,17.43,51.23Zm-.7-.34a5.15,5.15,0,0,1,.53-1.14.07.07,0,0,1,.06,0,7.28,7.28,0,0,1-.52,1.14S16.75,50.91,16.73,50.89ZM40,50.25l-.22-.6.09,0c.09,0,.26.09.63.47s.32.27.29.07,0-.25,0-.38,0-.31,0-.41,0-.17.07-.21.1,0,.42.49.32.53.27.57-.09,0-.3-.36-.35-.52-.32-.2c.07.65.07.83,0,.86s-.15-.06-.38-.28a2.18,2.18,0,0,0-.39-.31c-.07,0,0,.12.09.45s.16.42.08.45S40.12,50.66,40,50.25Zm-24.15.2a1.69,1.69,0,0,1-.46-.25,10.08,10.08,0,0,1,.6-1.08,2.82,2.82,0,0,1,.54.28.82.82,0,0,1,.26.48.88.88,0,0,1-.35.55A.61.61,0,0,1,15.81,50.45Zm.5-.12a.69.69,0,0,0,.21-.26.45.45,0,0,0-.05-.55.92.92,0,0,0-.43-.25,4.23,4.23,0,0,0-.51.92c0,.06.37.22.52.22A.5.5,0,0,0,16.31,50.33ZM15,50s0-.08,0-.24a.45.45,0,0,0,0-.32c-.05-.11-.24-.24-.31-.21a.76.76,0,0,0-.17.23.55.55,0,0,1-.15.2c-.1,0,0-.14.23-.62l.31-.52.15.07c.23.1.46.32.46.44a.65.65,0,0,1,0,.17.43.43,0,0,1-.31.17c-.06,0-.07,0-.05.14s0,.52-.09.52Zm.35-.81a.3.3,0,0,0,0-.18c0-.09,0-.14-.13-.22s-.27-.11-.39.1a.85.85,0,0,0-.11.2s.08.08.18.12S15.23,49.3,15.3,49.2Zm26.26.29c-.15-.29-.29-.54-.29-.56a2,2,0,0,1,.59-.36c.11,0,0,.07-.19.2a.67.67,0,0,0-.24.16.86.86,0,0,0,.08.18c.1.19.15.19.41,0s.21-.09.23-.07-.08.09-.19.15-.22.14-.23.18a.73.73,0,0,0,.2.4.93.93,0,0,0,.31-.13c.16-.1.26-.13.27-.11a1.44,1.44,0,0,1-.53.36l-.14.07Zm.94-.6c-.28-.48-.3-.53-.24-.57s0-.06.66.2c.44.19.54.22.54.16a4.14,4.14,0,0,0-.26-.41c-.2-.31-.24-.4-.2-.42s.06,0,.07,0,.15.23.33.5c.31.48.36.6.22.6a4.74,4.74,0,0,1-.55-.2l-.53-.2c-.08,0,0,.11.18.46a1.88,1.88,0,0,1,.2.39C42.87,49.46,42.79,49.37,42.5,48.89Zm-29,.26a.46.46,0,0,1-.29-.56,7.54,7.54,0,0,1,.49-.8l.07,0s0,.09-.17.38-.31.54-.26.68a.51.51,0,0,0,.38.25c.15,0,.26-.12.49-.5s.28-.4.33-.32a3.46,3.46,0,0,1-.48.79A.45.45,0,0,1,13.47,49.15Zm-.79-.52s-.06-.15-.08-.45l0-.39h-.11c-.08,0-.13,0-.24.18s-.2.23-.25.16a1,1,0,0,1,.17-.29l.37-.51c.15-.2.19-.24.24-.21s0,.08-.08.22c-.23.32-.17.36.35.23.19,0,.29-.06.33,0s0,.09-.26.13c-.42.08-.38,0-.35.55a3.87,3.87,0,0,1,0,.45Zm31.51-.41c-.09-.12-.24-.33-.32-.46a.9.9,0,0,0-.19-.23.69.69,0,0,0-.2.11c-.11.07-.17.1-.19.07s0,0,0-.05l.79-.55s.06,0,.07,0,0,.09-.15.15-.16.14-.16.16.13.21.29.44c.36.52.34.49.28.54S44.32,48.41,44.19,48.22ZM3.1,47.51c-.25-.06-.35-.45-.19-.76,0-.09.59-.83,1.21-1.64s1.16-1.54,1.2-1.62a.63.63,0,0,0,.09-.33.32.32,0,0,0-.11-.29A1,1,0,0,0,5,42.71a4,4,0,0,0-1.14-.12H3.64l.47-.35a16.41,16.41,0,0,1,6.71-3.11A8.89,8.89,0,0,1,12.69,39l.42,0s-.88.92-2,2-2,2.06-2,2.07.52.52,1.13,1.11a14.36,14.36,0,0,1,1.09,1.1,9.92,9.92,0,0,1-1.49.68,30.82,30.82,0,0,1-5.29,1.34A8.5,8.5,0,0,1,3.1,47.51Zm3.38-1.7a.35.35,0,0,0,0-.1c-.1-.09-1.16-.84-1.18-.84s-.11.1-.08.24a1.13,1.13,0,0,1,0,.32c0,.15,0,.19,0,.23s.12.07.15-.16l0-.22.43.31a4.4,4.4,0,0,0,.47.31S6.45,45.86,6.48,45.81Zm.61-.87a.79.79,0,0,0,.24-.49A.83.83,0,0,0,7,43.87c-.27-.19-.34-.22-.52-.23a.57.57,0,0,0-.58.59.47.47,0,0,0,.51.49.54.54,0,0,0,.49-.5v-.11l.11.12a.34.34,0,0,1,0,.47c-.07.09-.1.1-.2.08s-.13,0-.16.07,0,.17.16.17A.42.42,0,0,0,7.09,44.94Zm-.78-.48a.35.35,0,0,1-.2-.32.3.3,0,1,1,.59.11A.31.31,0,0,1,6.31,44.46Zm1.61-.72A.6.6,0,0,0,8.08,43a1.05,1.05,0,0,0-.81-.53.51.51,0,0,0-.49.31.49.49,0,0,0,.16.69.5.5,0,0,0,.76-.41v-.12l.09.08a.85.85,0,0,1,.14.19c.08.21-.13.47-.32.39s-.19.14-.15.2a.33.33,0,0,0,.19,0A.36.36,0,0,0,7.92,43.74Zm-.82-.48A.3.3,0,0,1,7,42.78a.27.27,0,0,1,.44,0c.14.15.13.24,0,.39S7.25,43.34,7.1,43.26Zm1.78-.88a1.83,1.83,0,0,0,.28-.47.23.23,0,0,0-.09-.07c-.06,0-.1,0-.28.28s-.27.36-.27-.15-.09-.61-.22-.68a.56.56,0,0,0-.47,0,.9.9,0,0,0-.31.56c0,.09.12.33.17.33A.3.3,0,0,0,7.85,42,.2.2,0,0,0,7.79,42c-.07-.06-.07-.16,0-.29s.34-.24.44,0a1.51,1.51,0,0,1,.08.51c0,.44.07.61.16.7S8.5,42.92,8.88,42.38Zm43.7,5.09a30.35,30.35,0,0,1-5.13-1.19,5.87,5.87,0,0,1-2.09-1s0,0,0,0-.07-.08,0-.14.16,0,.09,0,0,0,.06,0,2.09-1.95,2.09-2-.85-.91-2-2.08-2-2-2-2L44,39a12.06,12.06,0,0,1,6.27,1.74,24.4,24.4,0,0,1,2.65,1.74l.1.09h-.46c-.9,0-1.3.18-1.3.57,0,.23,0,.26,1.34,2,.61.8,1.13,1.51,1.17,1.57.16.31.08.66-.16.74A2.91,2.91,0,0,1,52.58,47.47Zm-2.67-1.64a2.2,2.2,0,0,0,.37-.31l.1-.13.09.09c.12.12.25.12.44,0s.17-.11.14-.15-.06,0-.13,0c-.27.09-.42-.21-.31-.61,0-.05,0-.07,0-.05l-.16,0c-.08,0-.1,0-.14.2a2.31,2.31,0,0,1-.48.82c-.18.2-.23.29-.16.29A1.59,1.59,0,0,0,49.91,45.83ZM49.16,45c.07,0,.13-.06.13-.09s.19-.28.47-.49.41-.37.34-.53-.22-.23-.48-.21-.36.1-.36.26a.54.54,0,0,0,.15.35l.08.08-.21.15A.71.71,0,0,0,49,45C49,45,49,45,49.16,45Zm.47-.91c-.08-.1-.1-.27,0-.27s.28.18.22.29S49.72,44.19,49.63,44.07Zm-1.05-.45a1.38,1.38,0,0,1,.27-.29c.52-.4.6-.53.44-.73a.59.59,0,0,0-.74,0c-.1.09-.07.3.06.47l.09.12-.14.11c-.24.18-.34.31-.34.44v.12l.14,0A.29.29,0,0,0,48.58,43.62Zm.27-.76c-.09-.15-.09-.24,0-.24s.23.12.23.18S49,43,49,43A.58.58,0,0,1,48.85,42.86Zm-1.22-.56a1.44,1.44,0,0,0,.7-.7c.11-.28.1-.31,0-.31s-.2,0-.29.27a1.46,1.46,0,0,1-.5.66C47.18,42.46,47.24,42.5,47.63,42.3ZM24.81,44.07a.8.8,0,0,0,0-.24,1.93,1.93,0,0,0-.34-.21,2.64,2.64,0,0,1-1-.75c-.08-.11-.11-.12-.27-.12a1.23,1.23,0,0,0-.85.4l-.23.22,0-.2a1,1,0,0,0-.26-.66l-.15-.17h-.45a3.53,3.53,0,0,1-.66,0,2.09,2.09,0,0,1-.67-.29.2.2,0,0,0-.2,0c-.1,0-.1,0-.08,0,.1-.32.22-.35.69-.17a1.33,1.33,0,0,0,1.05,0,1,1,0,0,0,.53-.87c0-.23,0-.23-.12-.28a.72.72,0,0,1-.18-.1,2.77,2.77,0,0,0-.36-.15,1,1,0,0,1-.34-.16,9.31,9.31,0,0,1,.74-1.54c.43-.81.78-1.49.78-1.51a1.19,1.19,0,0,0-.32-.16A17.87,17.87,0,0,1,20,36a17.28,17.28,0,0,1-3.55-2.77,18.37,18.37,0,0,1-2.89-3.68c-.22-.39-.24-.46-.15-.54s.12,0,.53.41a4.22,4.22,0,0,0,.93.81.18.18,0,0,1,.1,0s0,0,0,0a.15.15,0,0,1,0-.09,3.15,3.15,0,0,0-.3-.46A15.85,15.85,0,0,1,12,23.39a11.31,11.31,0,0,1-.17-2.29,12.7,12.7,0,0,1,.4-3.42A5.86,5.86,0,0,1,12.8,16c.11,0,.15.07.18.65a3.41,3.41,0,0,0,.25,1.47s0-.05,0-.17a6.21,6.21,0,0,1,.06-.68,13.82,13.82,0,0,1,1-3.93,9.78,9.78,0,0,1,2.44-3.49c.39-.31.45-.24.28.3a9.22,9.22,0,0,0-.4,2.63c0,.84,0,.87.27.29a8.65,8.65,0,0,1,1.86-2.59,12.09,12.09,0,0,1,4.68-2.9c.34-.12.39-.12.44-.07a.19.19,0,0,1,.05.08,2.36,2.36,0,0,1-.41.35A10,10,0,0,0,20,12.86a8.17,8.17,0,0,0-.41,2.59,5,5,0,0,0,.86,2.9,5.69,5.69,0,0,0,1.16,1.19,5.24,5.24,0,0,0,2.47.91,1.59,1.59,0,0,0,1.2-.14,2,2,0,0,0,1.27-2.08,1.69,1.69,0,0,0-1.78-1.58,2,2,0,0,0-1.3.47l-.1.1v-.15a1.84,1.84,0,0,1,.21-.75,2.1,2.1,0,0,1,1.17-.84c.16-.05.21-.08.21-.14A.51.51,0,0,1,25.3,15a.43.43,0,0,0,.21-.11,3.94,3.94,0,0,1,3.07-.4,3.27,3.27,0,0,1,1.87,1.3,10.44,10.44,0,0,1,1.08,3.33,2.18,2.18,0,0,0,.5,1.21l.15.14.37,0a4.79,4.79,0,0,0,4.54-4.07,9.8,9.8,0,0,0,0-1.88A9.63,9.63,0,0,0,35,9.67a11.94,11.94,0,0,0-2-1.85c-.19-.12-.23-.24-.12-.28a7.53,7.53,0,0,1,1.94.73A11.44,11.44,0,0,1,38,10.55a8.76,8.76,0,0,1,1.85,2.57,1.06,1.06,0,0,0,.21.35s.05-.11.05-.46a9.6,9.6,0,0,0-.4-2.8c-.11-.37-.12-.41-.07-.46s.19,0,.64.41a11.85,11.85,0,0,1,3.14,7.18c0,.32.06.62.07.67s.11.09.14-.06a12.57,12.57,0,0,0,.15-1.36c0-.47.06-.57.16-.57a6.87,6.87,0,0,1,.73,2,13.47,13.47,0,0,1,.3,3.37,12.47,12.47,0,0,1-.38,3A16.13,16.13,0,0,1,42,29.9a2,2,0,0,0-.22.34c0,.15.42-.18,1.09-.85a2.76,2.76,0,0,1,.45-.4.13.13,0,0,1,.08.07c0,.06,0,.13-.15.42a16.8,16.8,0,0,1-1.84,2.59A27.67,27.67,0,0,1,39,34.42,17.8,17.8,0,0,1,34.75,37c-.22.1-.34.16-.34.2s.34.72.76,1.52a10.07,10.07,0,0,1,.73,1.51,1.43,1.43,0,0,1-.39.18,2.26,2.26,0,0,0-.4.17.54.54,0,0,1-.17.08c-.14,0-.16.19-.07.48a1,1,0,0,0,.9.75,1.32,1.32,0,0,0,.64-.12,3.72,3.72,0,0,1,.47-.13c.08,0,.17.11.21.26s0,.1-.09.06-.13,0-.31.08a2.19,2.19,0,0,1-1.07.28,4.08,4.08,0,0,0-.61.09,1,1,0,0,0-.4.77l0,.15-.19-.19a1.47,1.47,0,0,0-.84-.41c-.19,0-.19,0-.38.21a3.11,3.11,0,0,1-.92.67c-.33.18-.4.26-.4.49s-.07.07-.2-.18-.1-.19,0-.28a2.19,2.19,0,0,1,.49-.31c.65-.32.77-.48.74-1a1.24,1.24,0,0,0-.25-.74,1.71,1.71,0,0,0-.66.14c-.2.07-.27.08-.31,0a11.4,11.4,0,0,1-.36-1.65c-.37-2-.35-1.88-.46-1.88s-.1,0-.1.1.11.72.25,1.46c.21,1.16.24,1.37.19,1.41a1.39,1.39,0,0,1-.57.09c-.43,0-.52,0-.57,0a8.12,8.12,0,0,1-.15-1.49c-.05-.79-.1-1.43-.1-1.44h-.1c-.12,0-.11-.08,0,1.64.08,1.26.08,1.37,0,1.41a3.88,3.88,0,0,1-1.13,0,5.58,5.58,0,0,1,0-1.46c0-1.27,0-1.42,0-1.5s-.15-.12-.23,0-.05.23,0,1.53a5.2,5.2,0,0,1,0,1.46l-.56,0a1.6,1.6,0,0,1-.57,0c-.06,0-.06-.1,0-.84a10.43,10.43,0,0,0,.1-2.19c-.08-.09-.18-.07-.22.06a19.82,19.82,0,0,0-.14,2.08c0,.84,0,.85-.3.82L26,41.26a.9.9,0,0,1-.4-.07s0-.21.07-.65c.18-1,.37-2.1.37-2.17s0-.08-.09-.08a.14.14,0,0,0-.11.05s-.16.79-.33,1.71-.34,1.68-.37,1.71-.1,0-.37-.07a1.65,1.65,0,0,0-.34-.1.3.3,0,0,1-.16,0c-.14-.05-.15,0-.2,0a1.57,1.57,0,0,0-.22.76,1,1,0,0,0,.78,1c.31.11.49.25.49.37a.88.88,0,0,1-.2.42l-.09.11ZM25,41.28c.05-.32.58-3,.61-3A.4.4,0,0,1,26,38c.2,0,.32.14.32.38s-.09.69-.2,1.33-.2,1.18-.2,1.21.09.05.3.06h.32s.05-.57.1-1.26.09-1.32.11-1.41a.36.36,0,0,1,.62-.23c.09.11.1.15.1.44s0,.78-.06,1.35S27.32,41,27.32,41s0,.1.19.1a1.72,1.72,0,0,0,.34,0l.14,0,0-.67c0-.37,0-1,0-1.41,0-.74,0-.75.13-.85a.38.38,0,0,1,.24-.11.26.26,0,0,1,.27.08c.16.15.18.35.18,1.78v1.18l.12,0,.31,0h.2V41c0-.07,0-.55-.05-1.08s-.06-1.13-.06-1.33,0-.36.11-.47a.39.39,0,0,1,.47,0c.13.09.15.25.23,1.33.13,1.8.11,1.62.2,1.59l.32,0h.25l-.13-.67a14.13,14.13,0,0,1-.29-2.06.33.33,0,0,1,.63-.13,19.34,19.34,0,0,1,.52,2.26c.1.55.2,1,.21,1s3.64-1.27,3.69-1.31-.31-.67-.73-1.46S34,37.17,34,37.12s.08-.15.52-.33a17,17,0,0,0,3-1.62,19.48,19.48,0,0,0,4.76-4.74c.18-.28.19-.3.08-.2a9.7,9.7,0,0,1-1.21.86,6.46,6.46,0,0,0-.55.44,35.91,35.91,0,0,1-3.77,2.65,24.44,24.44,0,0,1-6,2.64c-.61.16-.7.16-.68,0l0-.12.51-.14a22.92,22.92,0,0,0,4.38-1.73,25.85,25.85,0,0,0,6-4.2,15.42,15.42,0,0,0,3.49-7.73,14.5,14.5,0,0,0-.16-4.54A7,7,0,0,0,44.06,17a2,2,0,0,0-.05.32,8.33,8.33,0,0,1-.33,1.49,9,9,0,0,0-.24.89,17,17,0,0,1-3.55,6.59,22.89,22.89,0,0,1-2,2,21.62,21.62,0,0,1-3.14,2.21,21.71,21.71,0,0,1-2.14,1.05c-.14,0-.23,0-.23-.16s.05-.11.35-.24c.46-.21,1.51-.75,2-1a25.1,25.1,0,0,0,2.18-1.46,18.73,18.73,0,0,0,3.49-3.52,16.65,16.65,0,0,0,2.76-5.63l.1-.45,0-.72a13.6,13.6,0,0,0-1.46-5.7A13.16,13.16,0,0,0,40.66,11c-.26-.33-.62-.68-.59-.58a10.46,10.46,0,0,1,.25,1.37c0,.28,0,1.06,0,2.48a11.84,11.84,0,0,1-.3,3.71,13.21,13.21,0,0,1-5.23,7.77c-.3.21-.38.24-.46.16s-.05-.2.44-.57a12.61,12.61,0,0,0,5-7.66A8.38,8.38,0,0,0,40,15.36v-.95L39.89,14a8.5,8.5,0,0,0-2.12-3.25,10.91,10.91,0,0,0-2.46-1.88A12.27,12.27,0,0,0,34,8.22a5.85,5.85,0,0,0,.44.48,10,10,0,0,1,3,5.71,10,10,0,0,1-.07,2.13,5.16,5.16,0,0,1-2.66,3.61,6.38,6.38,0,0,1-2.6.61l-.67,0L31,22.45l-.47,1.71s0,.07,0,.06-.91-3.41-.91-3.45a.41.41,0,0,0-.17,0c-.09,0-.16,0-.16,0s-.87,6.32-.89,6.32-.09-.63-.18-1.41-.24-2.21-.34-3.17l-.19-1.76-.15,0a.31.31,0,0,0-.18,0s-.22.73-.45,1.6-.45,1.63-.47,1.71-.05.13-.06.12-.23-.76-.49-1.66l-.47-1.63-.77-.08a7.64,7.64,0,0,1-1.75-.32,5.08,5.08,0,0,1-3.45-4,8.77,8.77,0,0,1,0-2.4,9.92,9.92,0,0,1,1.49-3.67A10.9,10.9,0,0,1,22.3,8.66l.49-.48-.22.1-.38.17a14,14,0,0,0-2.3,1.44,9,9,0,0,0-3.05,4.19,2.3,2.3,0,0,0-.15.91,12.46,12.46,0,0,0,.79,4.47,13.38,13.38,0,0,0,2,3.49,15.54,15.54,0,0,0,2.74,2.55c.17.12.19.15.19.26s0,.13-.09.14-.15,0-.34-.15a14.09,14.09,0,0,1-1.68-1.42,12.54,12.54,0,0,1-3.54-6.11,10.93,10.93,0,0,1-.38-2.79c0-3.29,0-3.79.29-5,0-.13-.43.35-.77.81a12.72,12.72,0,0,0-2.35,7.16,2.66,2.66,0,0,0,0,1,15.22,15.22,0,0,0,2.22,4.85A18.77,18.77,0,0,0,22,30c.51.29,1.54.82,2,1a1.74,1.74,0,0,1,.29.15.17.17,0,0,1-.07.26,13.11,13.11,0,0,1-2.58-1.25,18.75,18.75,0,0,1-6.54-6.4,15.61,15.61,0,0,1-1.8-4.13c0-.23-.16-.61-.23-.86a6.53,6.53,0,0,1-.32-1.47,1.22,1.22,0,0,0-.05-.28,5.07,5.07,0,0,0-.29.94,14.44,14.44,0,0,0-.27,1.59,21,21,0,0,0,0,3,15,15,0,0,0,3,7.4A7.87,7.87,0,0,0,17.31,32a26.38,26.38,0,0,0,8.84,4.53,1.77,1.77,0,0,1,.42.15.41.41,0,0,1,0,.15c0,.12-.16.12-.72,0a24.25,24.25,0,0,1-6.56-3,31.3,31.3,0,0,1-3.19-2.31c-.2-.16-.44-.35-.54-.41a7,7,0,0,1-1-.71l-.31-.24.17.23a20.22,20.22,0,0,0,4.19,4.37,17.23,17.23,0,0,0,3.68,2.1c.38.16.42.19.43.28A9.25,9.25,0,0,1,22,38.63c-.41.78-.75,1.43-.75,1.45s3.59,1.35,3.69,1.35S25,41.36,25,41.28ZM26.8,15.53c.28-.09.33-.26.13-.41s-.15-.08-.5-.08-.42,0-.51.08-.14.32.12.41A1.77,1.77,0,0,0,26.8,15.53Z"/></g></g></svg>