<svg id="Слой_1" data-name="Слой 1" xmlns="http://www.w3.org/2000/svg" viewBox="0 0 56.69 56.69"><defs><style>.cls-1{fill:#87398d;}.cls-2{fill:#fff;}</style></defs><g id="g20"><path id="path12" class="cls-1" d="M5.14,41.74s2.23-1,6.09.84,5.72,2,8.79.19c0,3.54,1,5.08,4.56,7.51s3.77,4.86,3.77,4.86.25-2.43,3.76-4.86,4.57-4,4.57-7.51c3.06,1.77,4.92,1.64,8.78-.19s6.09-.84,6.09-.84-2-1.43-2.32-5.69-1.16-5.93-4.23-7.7c3.07-1.77,3.88-3.45,4.23-7.71S51.55,15,51.55,15s-2.23,1-6.09-.83-5.72-2-8.78-.2c0-3.54-1-5.08-4.57-7.51s-3.76-4.86-3.76-4.86S28.1,4,24.58,6.41,20,10.38,20,13.92c-3.07-1.77-4.93-1.64-8.79.2S5.14,15,5.14,15s2,1.43,2.33,5.69,1.15,5.94,4.22,7.71c-3.07,1.77-3.88,3.44-4.22,7.7s-2.33,5.69-2.33,5.69Z"/><path id="path14" class="cls-2" d="M10.94,38.4C9,35,11.74,31.77,13.11,31a11.27,11.27,0,0,1,4.11-1.47c1.16-.11,2.1-.42,2.1-1.16s-.94-1.06-2.1-1.16a11.49,11.49,0,0,1-4.11-1.48c-1.37-.79-4.11-4.05-2.17-7.41s6.13-2.62,7.5-1.83a11.48,11.48,0,0,1,3.34,2.82c.67.95,1.41,1.61,2,1.24s.45-1.34,0-2.4a11.35,11.35,0,0,1-.78-4.3c0-1.58,1.45-5.58,5.34-5.58s5.33,4,5.33,5.58a11.56,11.56,0,0,1-.77,4.3c-.49,1.06-.69,2,0,2.4s1.38-.29,2.06-1.24a11.3,11.3,0,0,1,3.33-2.82c1.37-.79,5.56-1.54,7.5,1.83s-.79,6.62-2.16,7.41a11.56,11.56,0,0,1-4.11,1.48c-1.17.1-2.11.42-2.11,1.16s.94,1,2.11,1.16A11.33,11.33,0,0,1,43.59,31c1.37.79,4.1,4.05,2.16,7.42s-6.13,2.62-7.5,1.83a11.31,11.31,0,0,1-3.33-2.83c-.68-.95-1.42-1.61-2.06-1.24s-.44,1.34,0,2.4a11.56,11.56,0,0,1,.77,4.3c0,1.58-1.45,5.58-5.33,5.58S23,44.44,23,42.86a11.35,11.35,0,0,1,.78-4.3c.49-1.06.68-2,0-2.4s-1.38.29-2,1.24a11.5,11.5,0,0,1-3.34,2.83C17.07,41,12.88,41.76,10.94,38.4Z"/><path id="path16" class="cls-1" d="M15,36.05c.4.71,1.51,1.43,3.42.33s2.62-2.17,3.91-3.16A2.88,2.88,0,0,1,27.13,36c-.21,1.62-.78,2.76-.78,5s1.18,2.8,2,2.8,2-.6,2-2.8-.56-3.35-.78-5a2.88,2.88,0,0,1,4.8-2.77c1.29,1,2,2.05,3.91,3.16s3,.38,3.43-.33.48-2-1.44-3.13-3.18-1.18-4.68-1.8a2.88,2.88,0,0,1,0-5.55c1.5-.62,2.77-.7,4.68-1.8s1.84-2.43,1.44-3.13-1.52-1.43-3.43-.32-2.62,2.16-3.91,3.15a2.88,2.88,0,0,1-4.8-2.77c.22-1.62.78-2.75.78-5s-1.18-2.81-2-2.81-2,.6-2,2.81.57,3.34.78,5a2.88,2.88,0,0,1-4.8,2.77c-1.29-1-2-2-3.91-3.15s-3-.39-3.42.32-.48,2,1.43,3.13,3.18,1.18,4.69,1.8a2.89,2.89,0,0,1,0,5.55c-1.51.62-2.78.7-4.69,1.8S14.59,35.35,15,36.05Z"/><circle id="circle18" class="cls-2" cx="28.35" cy="28.35" r="3.39"/></g></svg>