<svg id="Слой_1" data-name="Слой 1" xmlns="http://www.w3.org/2000/svg" viewBox="0 0 56.69 56.69"><defs><style>.cls-1{fill:#ffd962;}.cls-2{fill:#83cfeb;}.cls-3{fill:#63b76a;}.cls-4{fill:#e8491e;}.cls-5{fill:#070404;}</style></defs><g id="Layer_2" data-name="Layer 2"><g id="Layer_1-2" data-name="Layer 1-2"><path class="cls-1" d="M6.46,37c-2.14,0-3.65,1.31-3.65,3.84s1.51,3.89,3.65,3.89,3.65-1.26,3.65-3.89S8.6,37,6.46,37Z"/><polygon class="cls-1" points="51.25 15.09 37.31 15.09 37.9 19.83 41.56 19.83 44.56 44.34 49.85 44.34 46.86 19.83 51.82 19.83 51.25 15.09"/><polygon class="cls-1" points="20.92 15.09 15.64 15.09 12.15 44.34 26.44 44.34 26.91 39.6 17.99 39.6 20.92 15.09"/><path class="cls-1" d="M25.06,10.78,21.79,38.11,26.92,38l.45-4.49.15-1.6h4.63l.14,1.6,1,10.86h5.4l-4.06-33.7Zm2.85,16.76L29,15.1h1.6l1.13,12.44Z"/><path class="cls-2" d="M8.48,38.3c-2.14,0-3.65,1.31-3.65,3.84S6.34,46,8.48,46s3.65-1.26,3.65-3.89S10.62,38.3,8.48,38.3Z"/><polygon class="cls-2" points="53.31 16.44 39.47 16.44 40.06 21.18 43.72 21.18 46.72 45.68 52.01 45.68 49.02 21.18 53.88 21.18 53.31 16.44"/><polygon class="cls-2" points="22.81 16.42 17.53 16.42 14.03 45.67 28.32 45.67 28.8 40.93 19.88 40.93 22.81 16.42"/><path class="cls-2" d="M26.93,12,23.66,39.33h5.25l.45-4.48.15-1.6h4.63l.14,1.6,1,10.86h5.54L36.81,12Zm3,16.87L31,16.45h1.6l1.14,12.43Z"/><path class="cls-3" d="M8.25,37.62c-2.14,0-3.64,1.32-3.64,3.85s1.5,3.89,3.64,3.89,3.65-1.26,3.65-3.89S10.39,37.62,8.25,37.62Z"/><polygon class="cls-3" points="52.98 15.76 39.05 15.76 39.63 20.5 43.3 20.5 46.29 45.01 51.59 45.01 48.59 20.5 53.55 20.5 52.98 15.76"/><polygon class="cls-3" points="22.53 15.76 17.25 15.76 13.75 45.01 28.04 45.01 28.52 40.27 19.6 40.27 22.53 15.76"/><path class="cls-3" d="M26.67,11.33,23.4,38.66h5.26l.44-4.49.15-1.6h4.63l.15,1.6,1,10.87h5.4L36.41,11.33Zm3,16.88,1.09-12.44h1.61l1.13,12.44Z"/><path class="cls-4" d="M6.91,37.62c-2.14,0-3.65,1.32-3.65,3.85s1.51,3.89,3.65,3.89,3.65-1.26,3.65-3.89S9.05,37.62,6.91,37.62Z"/><polygon class="cls-4" points="51.64 15.76 37.7 15.76 38.29 20.5 41.95 20.5 44.95 45.01 50.24 45.01 47.25 20.5 52.21 20.5 51.64 15.76"/><polygon class="cls-4" points="21.18 15.76 15.9 15.76 12.41 45.01 26.7 45.01 27.17 40.27 18.25 40.27 21.18 15.76"/><path class="cls-4" d="M25.33,11.33,22.05,38.66h5.26l.45-4.49.15-1.6h4.63l.14,1.6,1,10.87h5.4L35.06,11.33Zm3,16.88,1.09-12.44H31l1.13,12.44Z"/><path class="cls-5" d="M7.58,37.62c-2.14,0-3.65,1.32-3.65,3.85s1.51,3.89,3.65,3.89,3.65-1.26,3.65-3.89S9.72,37.62,7.58,37.62Z"/><polygon class="cls-5" points="52.31 15.76 38.37 15.76 38.96 20.5 42.62 20.5 45.62 45.01 50.92 45.01 47.92 20.5 52.88 20.5 52.31 15.76"/><polygon class="cls-5" points="21.85 15.76 16.57 15.76 13.08 45.01 27.37 45.01 27.84 40.27 18.93 40.27 21.85 15.76"/><path class="cls-5" d="M26,11.33,22.73,38.66H28l.45-4.49.15-1.6h4.63l.15,1.6L34.4,45h5.4L35.74,11.33Zm3,16.88,1.09-12.44h1.6l1.14,12.44Z"/></g></g></svg>