<svg id="Слой_1" data-name="Слой 1" xmlns="http://www.w3.org/2000/svg" viewBox="0 0 56.69 56.69"><defs><style>.cls-1{fill:#333334;}.cls-2{fill:#e11421;}</style></defs><path class="cls-1" d="M51.54,21.47c0-3.18.09-5.78,0-8.38-.07-1.74,1.1-1.24,2-1.28s1.8-.22,1.76,1.3c-.1,4.26,0,8.52-.07,12.78,0,.65.63,1.85-.62,1.9s-2.51.66-3.47-.72c-2.08-3-4.24-5.88-6.73-9.32v8.16a2.19,2.19,0,0,1-3.29,1.91c-.69-.37-.39-1.06-.39-1.6,0-4.13-.05-8.26,0-12.39,0-.67-.54-1.86.58-1.94s2.68-.71,3.68.7c1.73,2.42,3.49,4.8,5.25,7.2C50.53,20.21,50.86,20.61,51.54,21.47Z"/><path class="cls-1" d="M30.5,11.68c4.89,0,8.38,3.38,8.41,8.09a8.18,8.18,0,0,1-8.46,8.33,8.25,8.25,0,0,1-8.55-8.28C21.92,15.07,25.52,11.66,30.5,11.68Zm-4.63,8.09c0,2.86,1.84,4.93,4.49,5a4.64,4.64,0,0,0,4.69-4.81,4.66,4.66,0,0,0-4.53-5A4.54,4.54,0,0,0,25.87,19.77Z"/><path class="cls-1" d="M11.07,19.72c0-2.24.06-4.47,0-6.7-.06-1.76,1.22-1.14,2.08-1.21S15,11.55,15,13.08c-.09,3.35,0,6.69-.05,10,0,1,.31,1.39,1.36,1.31s2.14,0,3.21,0c2,0,2.58.83,2.08,2.78-.2.77-.71.66-1.22.66-2.68,0-5.36,0-8,0-1,0-1.27-.35-1.25-1.26C11.1,24.31,11.07,22,11.07,19.72Z"/><path class="cls-2" d="M4.31,22.21a3,3,0,0,1,3,3,3.07,3.07,0,0,1-3,2.87,2.93,2.93,0,1,1-.07-5.85Z"/><path class="cls-1" d="M45.6,36.06c0,2.7-.08,5.06,0,7.42.06,1.32-.6,1.4-1.61,1.34s-1.87.24-1.82-1.31c.11-3.55,0-7.11.07-10.66,0-.72-.58-1.92.53-2.08s2.64-.59,3.63,1a47.63,47.63,0,0,0,5.45,6.9c0-2.11.08-4.22,0-6.32-.07-1.31.32-1.72,1.67-1.68s1.8.17,1.75,1.6c-.11,3.55,0,7.11-.06,10.66,0,.64.58,1.75-.59,1.86s-2.31.51-3.2-.8c-1.56-2.34-3.29-4.56-5-6.83C46.29,36.86,46.06,36.61,45.6,36.06Z"/><path class="cls-1" d="M11.06,37.57c0-2,0-4,0-5.94,0-.69.13-1.12,1-1.08,2.31.12,4.64-.22,6.93.29a7,7,0,0,1-.05,13.7c-2.3.5-4.63.17-6.94.28-.89,0-.91-.5-.9-1.13C11.07,41.65,11.06,39.61,11.06,37.57Zm3.48,0c0,1.1,0,2.2,0,3.3,0,.39-.09.87.55.88,1.76,0,3.6.3,4.92-1.28a4.29,4.29,0,0,0,.64-4.73,4.47,4.47,0,0,0-5.48-2.07c-1.4.46-.35,1.9-.62,2.86A4,4,0,0,0,14.54,37.57Z"/><path class="cls-1" d="M33.12,30.45c4.4,0,7.53,3.09,7.48,7.35A7.23,7.23,0,0,1,33.1,45a7.13,7.13,0,0,1-7.51-7.33C25.59,33.35,28.62,30.44,33.12,30.45Zm4,7.37a4.09,4.09,0,0,0-4-4.44,4.22,4.22,0,0,0-4.19,4.28,4.13,4.13,0,0,0,4,4.39A4,4,0,0,0,37.09,37.82Z"/></svg>