<svg id="Слой_1" data-name="Слой 1" xmlns="http://www.w3.org/2000/svg" viewBox="0 0 56.69 56.69"><defs><style>.cls-1{fill:#c61621;}.cls-2{fill:#fff;}</style></defs><path class="cls-1" d="M-1.83-1.55H58.54V58.72H-1.83Z"/><g id="s"><g id="c"><path id="t" class="cls-2" d="M8.3,18.11,6.5,23.64l2.77.9Z"/><path id="t-2" data-name="t" class="cls-2" d="M8.3,18.11l1.8,5.53-2.77.9Z"/></g><g id="d"><g id="c-2" data-name="c"><path id="t-3" data-name="t" class="cls-2" d="M13.84,22.13H8V25Z"/><path id="t-4" data-name="t" class="cls-2" d="M13.84,22.13,9.13,25.55,7.42,23.2Z"/></g><g id="c-3" data-name="c"><path id="t-5" data-name="t" class="cls-2" d="M4.88,28.64l4.71-3.42L7.88,22.86Z"/><path id="t-6" data-name="t" class="cls-2" d="M4.88,28.64l1.8-5.54,2.77.9Z"/></g></g><g id="d-2" data-name="d"><g id="c-4" data-name="c"><path id="t-7" data-name="t" class="cls-2" d="M11.72,28.64,9.92,23.1,7.16,24Z"/><path id="t-8" data-name="t" class="cls-2" d="M11.72,28.64,7,25.22l1.71-2.36Z"/></g><g id="c-5" data-name="c"><path id="t-9" data-name="t" class="cls-2" d="M2.76,22.13l4.71,3.42L9.19,23.2Z"/><path id="t-10" data-name="t" class="cls-2" d="M2.76,22.13H8.59V25Z"/></g></g></g><g id="s3"><g id="s-2" data-name="s"><g id="c-6" data-name="c"><path id="t-11" data-name="t" class="cls-2" d="M21.61,18.11l-1.8,5.53,2.77.9Z"/><path id="t-12" data-name="t" class="cls-2" d="M21.61,18.11l1.8,5.53-2.77.9Z"/></g><g id="d-3" data-name="d"><g id="c-7" data-name="c"><path id="t-13" data-name="t" class="cls-2" d="M27.15,22.13H21.32V25Z"/><path id="t-14" data-name="t" class="cls-2" d="M27.15,22.13l-4.71,3.42L20.72,23.2Z"/></g><g id="c-8" data-name="c"><path id="t-15" data-name="t" class="cls-2" d="M18.19,28.64l4.71-3.42-1.71-2.36Z"/><path id="t-16" data-name="t" class="cls-2" d="M18.19,28.64,20,23.1l2.76.9Z"/></g></g><g id="d-4" data-name="d"><g id="c-9" data-name="c"><path id="t-17" data-name="t" class="cls-2" d="M25,28.64l-1.8-5.54-2.77.9Z"/><path id="t-18" data-name="t" class="cls-2" d="M25,28.64l-4.71-3.42L22,22.86Z"/></g><g id="c-10" data-name="c"><path id="t-19" data-name="t" class="cls-2" d="M16.07,22.13l4.71,3.42,1.71-2.35Z"/><path id="t-20" data-name="t" class="cls-2" d="M16.07,22.13h5.82V25Z"/></g></g></g><g id="s-3" data-name="s"><g id="c-11" data-name="c"><path id="t-21" data-name="t" class="cls-2" d="M34.92,18.11l-1.8,5.53,2.76.9Z"/><path id="t-22" data-name="t" class="cls-2" d="M34.92,18.11l1.79,5.53-2.76.9Z"/></g><g id="d-5" data-name="d"><g id="c-12" data-name="c"><path id="t-23" data-name="t" class="cls-2" d="M40.45,22.13H34.63V25Z"/><path id="t-24" data-name="t" class="cls-2" d="M40.45,22.13l-4.71,3.42L34,23.2Z"/></g><g id="c-13" data-name="c"><path id="t-25" data-name="t" class="cls-2" d="M31.49,28.64l4.71-3.42-1.71-2.36Z"/><path id="t-26" data-name="t" class="cls-2" d="M31.49,28.64l1.8-5.54,2.77.9Z"/></g></g><g id="d-6" data-name="d"><g id="c-14" data-name="c"><path id="t-27" data-name="t" class="cls-2" d="M38.34,28.64l-1.8-5.54-2.77.9Z"/><path id="t-28" data-name="t" class="cls-2" d="M38.34,28.64l-4.71-3.42,1.71-2.36Z"/></g><g id="c-15" data-name="c"><path id="t-29" data-name="t" class="cls-2" d="M29.38,22.13l4.71,3.42L35.8,23.2Z"/><path id="t-30" data-name="t" class="cls-2" d="M29.38,22.13H35.2V25Z"/></g></g></g><g id="s-4" data-name="s"><g id="c-16" data-name="c"><path id="t-31" data-name="t" class="cls-2" d="M48.22,18.11l-1.8,5.53,2.77.9Z"/><path id="t-32" data-name="t" class="cls-2" d="M48.22,18.11,50,23.64l-2.77.9Z"/></g><g id="d-7" data-name="d"><g id="c-17" data-name="c"><path id="t-33" data-name="t" class="cls-2" d="M53.76,22.13H47.94V25Z"/><path id="t-34" data-name="t" class="cls-2" d="M53.76,22.13l-4.71,3.42L47.34,23.2Z"/></g><g id="c-18" data-name="c"><path id="t-35" data-name="t" class="cls-2" d="M44.8,28.64l4.71-3.42L47.8,22.86Z"/><path id="t-36" data-name="t" class="cls-2" d="M44.8,28.64l1.8-5.54,2.77.9Z"/></g></g><g id="d-8" data-name="d"><g id="c-19" data-name="c"><path id="t-37" data-name="t" class="cls-2" d="M51.64,28.64,49.85,23.1l-2.77.9Z"/><path id="t-38" data-name="t" class="cls-2" d="M51.64,28.64l-4.71-3.42,1.72-2.36Z"/></g><g id="c-20" data-name="c"><path id="t-39" data-name="t" class="cls-2" d="M42.69,22.13l4.71,3.42,1.71-2.35Z"/><path id="t-40" data-name="t" class="cls-2" d="M42.69,22.13h5.82V25Z"/></g></g></g></g><g id="s3-2" data-name="s3"><g id="s-5" data-name="s"><g id="c-21" data-name="c"><path id="t-41" data-name="t" class="cls-2" d="M15,27.54l-1.79,5.53,2.76.9Z"/><path id="t-42" data-name="t" class="cls-2" d="M15,27.54l1.8,5.53L14,34Z"/></g><g id="d-9" data-name="d"><g id="c-22" data-name="c"><path id="t-43" data-name="t" class="cls-2" d="M20.49,31.56H14.67v2.91Z"/><path id="t-44" data-name="t" class="cls-2" d="M20.49,31.56,15.78,35l-1.71-2.35Z"/></g><g id="c-23" data-name="c"><path id="t-45" data-name="t" class="cls-2" d="M11.53,38.07l4.71-3.42-1.71-2.36Z"/><path id="t-46" data-name="t" class="cls-2" d="M11.53,38.07l1.8-5.54,2.77.9Z"/></g></g><g id="d-10" data-name="d"><g id="c-24" data-name="c"><path id="t-47" data-name="t" class="cls-2" d="M18.38,38.07l-1.8-5.54-2.77.9Z"/><path id="t-48" data-name="t" class="cls-2" d="M18.38,38.07l-4.71-3.42,1.71-2.36Z"/></g><g id="c-25" data-name="c"><path id="t-49" data-name="t" class="cls-2" d="M9.42,31.56,14.13,35l1.71-2.35Z"/><path id="t-50" data-name="t" class="cls-2" d="M9.42,31.56h5.82v2.91Z"/></g></g></g><g id="s-6" data-name="s"><g id="c-26" data-name="c"><path id="t-51" data-name="t" class="cls-2" d="M28.26,27.54l-1.8,5.53,2.77.9Z"/><path id="t-52" data-name="t" class="cls-2" d="M28.26,27.54l1.8,5.53-2.77.9Z"/></g><g id="d-11" data-name="d"><g id="c-27" data-name="c"><path id="t-53" data-name="t" class="cls-2" d="M33.8,31.56H28v2.91Z"/><path id="t-54" data-name="t" class="cls-2" d="M33.8,31.56,29.09,35l-1.71-2.35Z"/></g><g id="c-28" data-name="c"><path id="t-55" data-name="t" class="cls-2" d="M24.84,38.07l4.71-3.42-1.71-2.36Z"/><path id="t-56" data-name="t" class="cls-2" d="M24.84,38.07l1.8-5.54,2.77.9Z"/></g></g><g id="d-12" data-name="d"><g id="c-29" data-name="c"><path id="t-57" data-name="t" class="cls-2" d="M31.68,38.07l-1.8-5.54-2.76.9Z"/><path id="t-58" data-name="t" class="cls-2" d="M31.68,38.07,27,34.65l1.71-2.36Z"/></g><g id="c-30" data-name="c"><path id="t-59" data-name="t" class="cls-2" d="M22.72,31.56,27.43,35l1.72-2.35Z"/><path id="t-60" data-name="t" class="cls-2" d="M22.72,31.56h5.83v2.91Z"/></g></g></g><g id="s-7" data-name="s"><g id="c-31" data-name="c"><path id="t-61" data-name="t" class="cls-2" d="M41.57,27.54l-1.8,5.53,2.77.9Z"/><path id="t-62" data-name="t" class="cls-2" d="M41.57,27.54l1.8,5.53L40.6,34Z"/></g><g id="d-13" data-name="d"><g id="c-32" data-name="c"><path id="t-63" data-name="t" class="cls-2" d="M47.11,31.56H41.28v2.91Z"/><path id="t-64" data-name="t" class="cls-2" d="M47.11,31.56,42.4,35l-1.72-2.35Z"/></g><g id="c-33" data-name="c"><path id="t-65" data-name="t" class="cls-2" d="M38.15,38.07l4.71-3.42-1.71-2.36Z"/><path id="t-66" data-name="t" class="cls-2" d="M38.15,38.07,40,32.53l2.76.9Z"/></g></g><g id="d-14" data-name="d"><g id="c-34" data-name="c"><path id="t-67" data-name="t" class="cls-2" d="M45,38.07l-1.8-5.54-2.77.9Z"/><path id="t-68" data-name="t" class="cls-2" d="M45,38.07l-4.71-3.42L42,32.29Z"/></g><g id="c-35" data-name="c"><path id="t-69" data-name="t" class="cls-2" d="M36,31.56,40.74,35l1.71-2.35Z"/><path id="t-70" data-name="t" class="cls-2" d="M36,31.56h5.82v2.91Z"/></g></g></g></g></svg>