<svg id="Слой_1" data-name="Слой 1" xmlns="http://www.w3.org/2000/svg" xmlns:xlink="http://www.w3.org/1999/xlink" viewBox="0 0 56.69 56.69"><defs><style>.cls-1{fill:none;}.cls-2{clip-path:url(#clip-path);}.cls-3{fill:#ced738;}.cls-4{fill:#292633;}</style><clipPath id="clip-path"><rect class="cls-1" x="3.35" y="13.43" width="49.98" height="29.83"/></clipPath></defs><g class="cls-2"><path class="cls-3" d="M9.33,40.21a3,3,0,1,1-3-3,3,3,0,0,1,3,3Z"/><path class="cls-4" d="M22.89,30.87V42.92H19.28V41.79a4.53,4.53,0,0,1-3.6,1.47c-3.16,0-5.76-2.77-5.76-6.36s2.6-6.37,5.76-6.37A4.56,4.56,0,0,1,19.28,32V30.87Zm-3.61,6A2.75,2.75,0,0,0,16.41,34a2.75,2.75,0,0,0-2.87,2.94,2.75,2.75,0,0,0,2.87,2.94A2.75,2.75,0,0,0,19.28,36.9Z"/><path class="cls-4" d="M35.94,30.87V42.92H32.33V41.79a4.13,4.13,0,0,1-3.45,1.47c-2.43,0-4.51-1.73-4.51-5v-7.4H28v6.87a2,2,0,0,0,2.1,2.2c1.32,0,2.24-.78,2.24-2.49V30.87Z"/><path class="cls-3" d="M40.57,20.72a2,2,0,1,0-2-2A2.05,2.05,0,0,0,40.57,20.72Z"/><path class="cls-3" d="M40.57,15.14a.86.86,0,1,0-.85-.86A.85.85,0,0,0,40.57,15.14Z"/><path class="cls-3" d="M33.06,28.25a2,2,0,1,0-2-2.05A2,2,0,0,0,33.06,28.25Z"/><path class="cls-3" d="M28.69,27.05a.85.85,0,0,0,.85-.85.86.86,0,1,0-.85.85Z"/><path class="cls-3" d="M48.11,28.25a2,2,0,1,0-2-2.05A2,2,0,0,0,48.11,28.25Z"/><path class="cls-3" d="M40.57,30.41a4.21,4.21,0,1,0-4.21-4.21A4.22,4.22,0,0,0,40.57,30.41Z"/><path class="cls-3" d="M52.49,27.05a.85.85,0,0,0,.85-.85.86.86,0,1,0-.85.85Z"/><path class="cls-3" d="M40.57,35.9a2,2,0,1,0-2-2A2,2,0,0,0,40.57,35.9Z"/><path class="cls-3" d="M40.57,39.09a.85.85,0,0,0,.85-.85.85.85,0,1,0-1.7,0A.85.85,0,0,0,40.57,39.09Z"/><path class="cls-3" d="M36.32,17.48a1.43,1.43,0,1,0-1.42-1.42A1.42,1.42,0,0,0,36.32,17.48Z"/><path class="cls-3" d="M35.21,23a2.05,2.05,0,1,0-2.05-2.05A2.05,2.05,0,0,0,35.21,23Z"/><path class="cls-3" d="M32.11,18.66A.86.86,0,0,0,33,17.8a.86.86,0,0,0-1.71,0A.86.86,0,0,0,32.11,18.66Z"/><path class="cls-3" d="M45.86,23a2.05,2.05,0,1,0-2-2.05A2.05,2.05,0,0,0,45.86,23Z"/><path class="cls-3" d="M49,18.66a.86.86,0,0,0,.85-.86.86.86,0,0,0-1.71,0A.86.86,0,0,0,49,18.66Z"/><path class="cls-3" d="M46,33.69a2,2,0,1,0-2.05-2A2,2,0,0,0,46,33.69Z"/><path class="cls-3" d="M49,35.59a.85.85,0,1,0-.85-.85A.85.85,0,0,0,49,35.59Z"/><path class="cls-3" d="M30.35,23.48a1.42,1.42,0,1,0-1.42-1.42A1.42,1.42,0,0,0,30.35,23.48Z"/><path class="cls-3" d="M44.74,17.48a1.43,1.43,0,1,0-1.42-1.42A1.42,1.42,0,0,0,44.74,17.48Z"/><path class="cls-3" d="M50.71,23.48a1.42,1.42,0,1,0-1.42-1.42A1.42,1.42,0,0,0,50.71,23.48Z"/><path class="cls-3" d="M44.83,37.91a1.43,1.43,0,1,0-1.42-1.42A1.42,1.42,0,0,0,44.83,37.91Z"/><path class="cls-3" d="M50.8,31.9a1.42,1.42,0,1,0-1.43-1.42A1.42,1.42,0,0,0,50.8,31.9Z"/></g></svg>