<svg id="Слой_1" data-name="Слой 1" xmlns="http://www.w3.org/2000/svg" viewBox="0 0 56.69 56.69"><defs><style>.cls-1{fill:#161414;}.cls-1,.cls-2,.cls-3,.cls-4,.cls-5{fill-rule:evenodd;}.cls-2{fill:#a81830;}.cls-3{fill:#fff;}.cls-4{fill:#e1b709;}.cls-5{fill:#0d92d1;}</style></defs><g id="g8"><path id="path6" class="cls-1" d="M6.56,2.46H50.14V43.25l0,.41,0,.4,0,.41-.07.39-.08.39-.1.39-.1.34-.12.37-.15.35-.16.34-.18.31-.19.33-.22.3-.23.29-.24.27L48,48.8l-.26.25-.31.24-.3.22-.33.21-.35.18-.35.19-.36.16-.41.14-.39.13-.43.12-.43.1-.47.06-.44.08-.49,0-.49,0-.51,0H36.22l-.35,0h-.35L35.2,51l-.33,0-.31,0-.3.06-.31,0-.29.06-.28.06-.29.08-.28.08-.27.09-.24.08-.27.1-.24.1-.25.1-.22.13-.25.1-.22.12-.21.12-.22.13-.21.14-.2.14-.2.14-.21.15-.18.14-.19.16-.18.17-.18.14-.17.16-.36.35L28,53.88l-.18-.16-.19-.14-.18-.17-.19-.16-.18-.14-.2-.15-.21-.14-.2-.14-.21-.14-.2-.13-.22-.12-.25-.12-.22-.1-.23-.13-.24-.1-.25-.1-.26-.1-.25-.08-.28-.09-.27-.08-.27-.08L23,51.25l-.31-.06-.3,0-.31-.06-.31,0-.32,0L21.15,51H20.8l-.34,0H15.05l-.51,0-.49,0-.49,0-.47-.08-.45-.06-.43-.1-.43-.12-.41-.13L11,50.25l-.39-.16-.37-.19-.33-.18-.32-.21-.31-.22L9,49.05l-.26-.25-.27-.26-.24-.27L8,48l-.22-.3-.18-.33L7.39,47l-.16-.34-.14-.35L7,46l-.12-.34-.08-.39-.08-.39-.06-.39,0-.41,0-.4V2.46Z"/></g><g id="g12"><path id="path10" class="cls-2" d="M6.8,2.73H49.85V43.25c0,4.37-2.8,7.45-8.22,7.45H36.56a11,11,0,0,0-8.22,3.16,11,11,0,0,0-8.23-3.16H15.05c-5.43,0-8.25-3.08-8.25-7.45Z"/></g><g id="g16"><path id="path14" class="cls-1" d="M16.19,39.29a2.59,2.59,0,0,1,2.33-2.06,17.56,17.56,0,0,0,4-1.56c.61-.44.69-.24.24.64l-.69.79a.76.76,0,0,0,.06,1.25c.69.35,1,.67.88,1a2,2,0,0,0-2,.45,2.3,2.3,0,0,0-1.66.28A1.59,1.59,0,0,0,18,40c-.12-.3-.47-.39-1.06-.28a1.44,1.44,0,0,0-.78-.39Zm8.35,0c-.74-.76-.82-1.43,0-2a11.05,11.05,0,0,0,2-2.23c.57,0,1.08-.16,1.65-.24a17.48,17.48,0,0,0,6.19-1.74c.33-.1.57,0,.71.21l1.35,1.77-.39.15,1,.77c-.18.14-.06.25.17.33-.13.18,0,.36.14.34.08.25.27.62-.27.11-.32-.17-.36,0-.1.51l.55.79a1.44,1.44,0,0,0,.47.94l.45.92a1.39,1.39,0,0,0,.12.41c.07.35.15.53.43.57a3.06,3.06,0,0,1-1.26,1.39c-1.21.65-2.17.39-2.06-1.21.06-.85.22-1.57.24-2.45.35-1.36,0-2.06-1.16-2.14a2.6,2.6,0,0,0-1.43.27c-.33.22-.8.14-1.43-.23a5.7,5.7,0,0,0-2.76-1.41,1.51,1.51,0,0,1,.29,2c.49.23.47.45,0,.68a13.55,13.55,0,0,1-3.9-.59c-.45-.09-.53,0-.22.24,1,.41,1.57,1,1.57,1.88a10.85,10.85,0,0,0-1.51.12.61.61,0,0,1-.88-.18Zm11.57,6.59c-.34.19-.43.39-.1.59s.35.17.39.06c.41-.08-.16-.3-.29-.65ZM25.44,45c-.23.17-.33.35-.21.6l.45.38a.35.35,0,0,0-.06-.57A.58.58,0,0,1,25.44,45Zm-5.23-2.14c.33.14.33.45-.08.63C19.82,43.35,19.84,43.08,20.21,42.84Zm-6-12.13a4.73,4.73,0,0,1,.53,5.84c-.45,1.08-.39,1.78.21,2.11a6.28,6.28,0,0,0,.38-1.54c.13-.91.72-.81,1.49-1.61s.6-1.75.51-3.18c-.14-3.07.49-4.84,1.39-5.84C16.48,25.86,15.09,27.55,14.25,30.71ZM15.7,5.38c-.26,0-.37.23-.33.53l1.82,2.57c.06.13.18.25.16.35-.14.35-.2.57.11.88l.61.59a1.71,1.71,0,0,0,.28.9c-.14.29,0,.55.29.82.06.08.08.18.18.26l.11.88a4,4,0,0,0-1.37,1.57c0,.18-.08.33,0,.43L18.8,15c.11.06.23.08.27.16a.87.87,0,0,1-.72,1.18c-1.49.37-2.57.88-2.14,1.88.55.72.27,1.35-.67,1.92a.89.89,0,0,0-.29.82,2.79,2.79,0,0,0-.65,1c-.14.41-.14.59.14.55,2.08-.7,4.12-1,5.57.22.72.59.6.9,1.72,1-.12.47,0,.74.41.82l.06.53c-.45.1-1,.1-1.41.22a6.51,6.51,0,0,1-1.45.33,10.42,10.42,0,0,0-1.2-.71c-1.88-1.17-3.45-1.23-4.82.36A10,10,0,0,0,11.72,29c-.1.31-.35.43-.84.14-1-.79-1.16-1.51-.67-2,.69-.65,1-.26.59.08l0,.09c.53,0,.74.36.94.75a2.19,2.19,0,0,0-.43-2.59l-.14,0,.06,1a1.45,1.45,0,0,0-1.76,1.39,2.08,2.08,0,0,0,1.27,2c.55.18.71.81.29,1.45-1.07,1.55-.9,3.2.06,5.32l.12-.06c.2-2.32.69-3.51,1.47-3.73a1.44,1.44,0,0,0,.67-.51c.23-.35.35-.31.51.06a2.88,2.88,0,0,1-.2,2.86c-1.35,2.18-1.41,3.85.51,5.18l.06.16-.51.66c-.16.26,0,.59.41,1A3.51,3.51,0,0,1,14.74,44a1.06,1.06,0,0,0-.08.9,2.1,2.1,0,0,0,2,.53c.1,0,.08-.1.08-.2.08-.45-.22-.78-.55-1.33a2.14,2.14,0,0,1-.86-2.47l.15-.22A14.21,14.21,0,0,0,18,41.9a2.53,2.53,0,0,0,0,2.25,2.36,2.36,0,0,0,2.51,1.45c1.65-.15,2.47-1.52,1.86-3.37.59-.33,1-.31,1.18.06,0,.84.35.57.37,1.39-1,.85-1.35,1.59-.29,2.06.55.55.25.75-.47.79-.75-.18-1.3-.14-1.41.47-.69,0-.89.45-.87,1.11.2-.49.59-.53.79-.41a3.2,3.2,0,0,0,1.08-.06,1.19,1.19,0,0,1,1,0,.49.49,0,0,1,.45.24c.49.51.43-.06,1.51.59.27,0,.72,0,.8.43l.1-.39a.34.34,0,0,0-.12-.44c-.35-.41.2-.43,1.16-.25a2.48,2.48,0,0,0,1.35.27c.43-.43.53-.17.61.4.31-.83.11-1.28-.73-1.32.14-.45.2.22.51-.33.26-.12.53,0,.8.27.06-.41-.19-.66-.72-.78-.12-.35-.39-.37-.75,0C27.23,45.92,27.07,45,28,44.8c.47-.12.65.37,1,.51a3.11,3.11,0,0,0,.82.1,2.08,2.08,0,0,1,1.08.29l.3.1c.17-.12.33-.1.53.08s.45.37.66.1c.61-.49,1.53-.49,1.47-.18s.06.61.22.57.21.21.21.53c-.6,0-1,.08-1,.51-.56.17-.53.55-.29,1.06-.06-1,.78-.18,1.59-.71l.57-.06c.07.28.33.41.84.39a3,3,0,0,1,.65-.13,2,2,0,0,1,2.39.62.75.75,0,0,0-.06-.76c.7-.47,1.45-.29,1,.47.41-.2.82-1.25.29-1.22.22-.62,1.14-.11.87.34.39-.2.45-.51,0-.9-.06-.34-.34-.44-.85-.3-.29-.49-.66-.51-1.15-.08-.49.22-.87.24-1.12-.09s-.2-.63.16-.49c.19.07.27-.16.49-.59.09-.18.25-.32.37-.57.53-.08,1-.55,1.51-1.49.39-.18.57-.94.59-2.12.17.08.37,0,.64-.14-.19,0-.27-.09-.27-.56H42c.21-.08.29-.16.27-.26s-.21-.06-.35-.29a1.6,1.6,0,0,0-.53-.85l-.49-.8c-.35-1.1-.76-1.74-1.27-1.33l-.14-.08a4.92,4.92,0,0,1-.9-1.63c0-.78-.79-.82-1.22-.08l-.12-.62-.21.33-1.28-1.86c.14,0,.38-.16.53-.18A11.4,11.4,0,0,0,41,30.94l1.15-.35a.68.68,0,0,1,.93.23L44.26,32a.59.59,0,0,1,.1.72c-.12.24.16.57.57.91A1.41,1.41,0,0,1,45,35.31c-.18.45-.14.73.13.88l.79.57c.53.43.8.28.78-.47a2.91,2.91,0,0,0-.39-1.15,3,3,0,0,1-.47-1.38c0-.94-.14-1.43-.53-1.76a6.34,6.34,0,0,1-1.14-1.45c-.11-.31-.19-.49-.35-.57,0-1-.76-1.47-1.2-1.2a3.27,3.27,0,0,1-1.17.06v-.23a12.62,12.62,0,0,0,2.27-2.16c.32-.41.49-.25.81.08l1.27,1.33c0,.65.06,1.08.51,1,.31.53.45,1,.16,1.26s-.51.41-.51.76c.06.51.66,1,1.31,1.28a.19.19,0,0,0,.2-.1,2.06,2.06,0,0,0,0-1.51l-.22-.75a3.26,3.26,0,0,1,0-.78,1.18,1.18,0,0,0-.55-1.37,14.65,14.65,0,0,1-2-2.53c0-1.16-1-1.47-1.61-.2l-1.23.86c-.31.2-.51-.13-.51-.45-.12-1.53-1.16-2.76-2.31-3.94-.61-1.86-1.45-3.41-1.75-4.84a4.6,4.6,0,0,1,2.39.69c.51.55,1.16.84,1.32.45.06-.12-.3-.35-.49-.53a1.3,1.3,0,0,1,.76.47c.51,0,.67-.39.53-.92.06-.43,0-.75-.14-.9l-.43-.24a13,13,0,0,1-1.8-2.41.49.49,0,0,1-.08-.27,1.16,1.16,0,0,0-.45-.95l.16-.09,0-.12.37.08-.37-.61c-.2-.76-.89-.88-1.94-.57-.14,0-.32-.12-.51-.33-.65-.63-1.34-1-1.1-.51,0,.08.25.31,0,.29l-1.12-.19c-.25,0-.29,0-.23.17a2,2,0,0,1,.49.67l-1.42.08a4.7,4.7,0,0,1-.8.12c-.78-.65-1.74-.16-2.74.6l-.14-.06,0-1.17h.12l-.1-.75h.08a3.17,3.17,0,0,0-.57-2.39c-.08-.35.27-.31.35-.41a1.64,1.64,0,0,0,.3-1.12c-.06-.49-.22-.66-.46-.49H29a1.07,1.07,0,0,1-.67-.29.78.78,0,0,0-.94,0c-1.47.37-1.74,1.51-3.53.74-.21,0-.25.06-.17.22a3,3,0,0,0,1.21.88,1.73,1.73,0,0,1-1,.1,2.07,2.07,0,0,0,1.81.59,1.31,1.31,0,0,0,1.21-.06c.24-.14.26-.06.1.27a3.29,3.29,0,0,0-.86,2.51,2.65,2.65,0,0,0-.35.94c-.67-.19-1.26-.31-1.51-.11l-.26,0a1.34,1.34,0,0,0-1.63-.12l-1.05.8c-.38.26-.71.28-.77,0l-.43-.92c0-.65-.22-1-.67-1A1.14,1.14,0,0,1,19.07,9l-.31-.38c.1-.35,0-.47-.28-.47A1.15,1.15,0,0,1,17.82,8Z"/></g><g id="g20"><path id="path18" class="cls-3" d="M45.16,35.61l.2-.43c.1-.14.18-.14.25,0l.49.45c-.11.11-.33.11-.49.15l.16.26-.16.08-.07.23C45.24,36.08,45.05,35.86,45.16,35.61Zm.43-1.47c.06,0,.12.19.12.39s-.06.39-.12.39-.13-.18-.13-.39S45.5,34.14,45.59,34.14Zm-.29-1.65s.14,0,.2.14.11.25.06.27-.14,0-.2-.16S45.26,32.51,45.3,32.49Z"/></g><g id="g24"><path id="path22" class="cls-3" d="M46.61,30.49c-.07-.06-.13,0-.19,0-.22.27-.26.47-.14.65l.45.35c.14.12.3.06.22-.06l-.16-.23c.1.05.18.15.29.15s.1-.12,0-.21-.21-.22-.11-.32,0-.08,0-.13Zm0-1.9c-.21-.24-.17-.39.1-.37-.25-.38,0-.47.26-.06a1.65,1.65,0,0,1,.11,1c0,.12-.17.17-.21,0A2,2,0,0,0,46.61,28.59Zm.16,1.61.1-.47c0-.12.06-.1.12,0a1.35,1.35,0,0,1,.35.76c0,.14,0,.22-.08.24a.36.36,0,0,1-.33-.14C46.79,30.43,46.75,30.33,46.77,30.2Z"/></g><g id="g28"><path id="path26" class="cls-3" d="M39.54,25c0-.86.13-1.55.13-2.19,0-.26.18-.26.18,0a12.45,12.45,0,0,1-.12,2.09C39.73,25,39.54,25.2,39.54,25Zm1.19,3.41s.06,0,.06.08,0,.08-.06.08-.06,0-.06-.08S40.69,28.39,40.73,28.39Zm-2-3,.08-.07s.06,0,.08,0l.31.38a.06.06,0,0,1,0,.08l-.09.07a0,0,0,0,1-.08,0l-.32-.39A0,0,0,0,1,38.71,25.37Zm2.94,2.18.12-.8-.14.29c-.13,0-.15-.12-.17-.37s0-.39.17-.32l.1.26.08-.18c.14-.08.16,0,.1.24l0,.88C41.79,27.67,41.73,27.9,41.65,27.55ZM43.81,25a.38.38,0,0,1,0-.51.33.33,0,0,1,.45-.06c.12.06.16.14.16.2l-.24.08.3.09c.17.14,0,.4-.12.18A.32.32,0,0,0,44,25C44,25.14,43.91,25.18,43.81,25Zm-3,1.43s.12.06.18.16.06.21,0,.23-.12,0-.16-.15S40.81,26.49,40.85,26.47ZM39,26.31s.12,0,.19.14.06.22,0,.24-.13,0-.19-.16S38.93,26.33,39,26.31Zm.55-1c.15,0,.33.15.37.37s0,.45-.18.49-.33-.12-.39-.37S39.36,25.35,39.52,25.3Zm.27,1.35c-.08-.39,0-.45.18-.08a4.78,4.78,0,0,1,.33,2c0,.31-.25.33-.27,0A17.9,17.9,0,0,0,39.79,26.65Zm2.37.63a4.2,4.2,0,0,1,.24-1.18c.06-.18.14-.2.25-.1.36-.59.28-.27.12.18l.1.06c.45-.83.27-.16.22.21-.32.41-.55.49-.65.2l-.1.53C42.26,27.43,42.2,27.47,42.16,27.28Z"/></g><g id="g32"><path id="path30" class="cls-3" d="M14.39,41.49c-.14.55-.75.27-.45-.22a9,9,0,0,0,1.64-4.11c0-.59.41-.85.88-1.12a2.62,2.62,0,0,0,1.32-2.55c-.22-4.61,1.06-6.63,3-7.43l-.06.18c-1.77,1.09-2.51,3.17-2.53,6a13.08,13.08,0,0,0,0,2l.06-.15A28.14,28.14,0,0,1,18.56,30a5.21,5.21,0,0,1,.92-2.2,4.15,4.15,0,0,1,.34-.49c.17-.17.35-.21.49-.35l0,.14a5.52,5.52,0,0,0-1.51,2.66,15.94,15.94,0,0,0-.2,4.32,1.54,1.54,0,0,1-.14.57l.08,0a1.93,1.93,0,0,0,.18-.87,10.25,10.25,0,0,1,.67-5.11,4,4,0,0,1,2.07-2l0,.14c-1.11.76-2.15,1.64-2.35,4.62l.06-.06c.2-2.27,1-3.94,2.53-4.56a5,5,0,0,1,1.86-.18l-.12.1A3.25,3.25,0,0,0,20.6,27.8l.12,0a2.79,2.79,0,0,1,2.74-1l-.08.16a2.62,2.62,0,0,0-2.05.63v.08a2.6,2.6,0,0,1,1.94-.57c.21,0,.27.19.21.43l-.12,1.12A13.47,13.47,0,0,1,23,31.84l-.1.08L23,30l-.43,2.33c0,.26-.22.22-.18,0,.1-.49.26-1.17.36-1.88a.24.24,0,0,0-.2.22,5.69,5.69,0,0,1-.51,2.11,10.4,10.4,0,0,0,.24-1.9l-.12.1-.3,1.78c.22.12-.07.3-.15.08l.1-1-.08,0-.43,1.57.15-1.08-.37,1.08H21l.18-.92-.61,1.67c-.19,0-.21,0-.06-.3l.38-1.14-.12,0c-.24.83-.43,1.42-.73,1.61l-.1,0a3.15,3.15,0,0,0,.51-1.49,4,4,0,0,1-.86,1.65c-.06-.06,0-.24.26-.69l.23-.59c-.1-.13-.17-.09-.23.1a2.88,2.88,0,0,1-.55,1.18l.27-1,0-.12a3.17,3.17,0,0,1-.78,1.41l.16.08c.56-.37,1.31-.25,2.09-.59a.43.43,0,0,1,.43,0l-.15.38-.14-.22a1.29,1.29,0,0,1-.37.71l-.06-.44c-.33.71-.55,1.1-.57.75l.06-.43a1.65,1.65,0,0,0-.47.88c-.12,0-.14-.27-.1-.61l-.21.75c-.18,0-.22-.16-.12-.61a2.55,2.55,0,0,1-.37.74.82.82,0,0,1,0-.6l-.2.39c0,.29-.08.39-.2.37.06-.43.06-.59,0-.49l-.25.65c-.14.08-.18-.08-.16-.45-.23.13-.17.57-.33.76-.12-.08-.14-.29-.12-.51-.1.34-.21.55-.35.57l0-.67a2.13,2.13,0,0,1-.27.75l-.18-.49-.08.47c-.14.08-.27,0-.35-.35,0,.64-.08,1.17-.49,1.43a2.53,2.53,0,0,1-.39,1.08l.66-1c.14,0,.2,0,.14.35l-.67,1.1c-.1.13-.23.09-.35,0a4.1,4.1,0,0,1-.63,1.31,2.36,2.36,0,0,0,.69-1.1c0-.17.23,0,.16.37l-.16.14,0,.24-.2,0v.33l-.19.08c.19.45,0,.74-.49.51Z"/></g><g id="g36"><path id="path34" class="cls-3" d="M18.23,26.12,19,26l0,.16Z"/></g><g id="g40"><path id="path38" class="cls-3" d="M10.8,32.35a5.3,5.3,0,0,1,.63-1.08c.17-.27.23-.09.21.16A3.24,3.24,0,0,1,10.8,32.35Z"/></g><g id="g44"><path id="path42" class="cls-3" d="M19.15,25.75c-1.31-1.16-2.59-1.77-3.55-1.57-1.82.41-2.7,2.08-3.23,3.68.31-.53.57-.88.9-1a9.11,9.11,0,0,0-1.49,4.55,1.06,1.06,0,0,1-.33.53,1.53,1.53,0,0,0-.63,1.12,3.74,3.74,0,0,0,.45-.57,2.7,2.7,0,0,0,.65-1.16c.19-.72.27-1.43.41-2a6.93,6.93,0,0,1,.78-1.78,5.94,5.94,0,0,1,2.45-2.47v.08a7,7,0,0,0-2.84,3.51,4.45,4.45,0,0,0-.37,1.35,4.91,4.91,0,0,1-.69,2.25,3.79,3.79,0,0,0-.59.81,1.08,1.08,0,0,0-.11.49c.72-1.34,1-1.22,1.35-2.18.43-1.47.14-3,2.1-5.12h.15a7.37,7.37,0,0,0-1.9,4.28,4.15,4.15,0,0,1-.29,1.19c-.24.47-.75.83-.9,1.3l.11,0a5.83,5.83,0,0,0,.92-1.2c.59-1.15.38-2.68,1.14-3.9,1-1.61,1.73-2.45,2.94-2.92l.14,0a6.19,6.19,0,0,0-2.65,2.49,4,4,0,0,0-.64,1.27,13.58,13.58,0,0,0-.4,2,3.4,3.4,0,0,1-.76,1.71c-.18.22-.33.33-.47.53a2.88,2.88,0,0,0-.3.78l.1,0c.45-1.21.71-.94,1-1.35a3.1,3.1,0,0,0,.55-1.31A7.63,7.63,0,0,1,14,28.24a7.89,7.89,0,0,1,1.85-2.42,2.93,2.93,0,0,1,1.08-.6H17a8.75,8.75,0,0,0-1.35.88A7.31,7.31,0,0,0,14,28.57a8.81,8.81,0,0,0-.64,2.57c0-.12.08.06.13,0a8.26,8.26,0,0,1,2.08-4.57,3.81,3.81,0,0,1,1.75-1.1l.39,0a3.89,3.89,0,0,0-2.41,1.67l.12,0a4.64,4.64,0,0,1,2.37-1.43l.12,0a3.8,3.8,0,0,0-1.32.68l0,.12A5.92,5.92,0,0,1,19.15,25.75Z"/></g><g id="g48"><path id="path46" class="cls-3" d="M11,34.67a.89.89,0,0,1-.15-.51c0-.24.21-.22.25-.06S11,34.43,11,34.67Z"/></g><g id="g52"><path id="path50" class="cls-3" d="M13.35,36.86l.21-.23a.33.33,0,0,1,.3,0C13.84,36.7,13.62,36.8,13.35,36.86Z"/></g><g id="g56"><path id="path54" class="cls-3" d="M13.17,37.49l.26-.28a.42.42,0,0,1,.43-.07C13.82,37.27,13.54,37.41,13.17,37.49Z"/></g><g id="g60"><path id="path58" class="cls-3" d="M13.19,37.82l.31-.27a.44.44,0,0,1,.44,0C13.9,37.63,13.56,37.76,13.19,37.82Z"/></g><g id="g64"><path id="path62" class="cls-3" d="M13.27,38.1l.29-.24a.47.47,0,0,1,.43,0A1.12,1.12,0,0,1,13.27,38.1Z"/></g><g id="g68"><path id="path66" class="cls-3" d="M13.41,38.41l.19-.2a.28.28,0,0,1,.3,0C13.88,38.25,13.66,38.35,13.41,38.41Z"/></g><g id="g72"><path id="path70" class="cls-3" d="M14.46,35.14l.16-.1a.21.21,0,0,1,.22,0C14.82,35.12,14.64,35.14,14.46,35.14Z"/></g><g id="g76"><path id="path74" class="cls-3" d="M14.19,35.49l.35-.16a.47.47,0,0,1,.41.1C14.86,35.53,14.56,35.55,14.19,35.49Z"/></g><g id="g80"><path id="path78" class="cls-3" d="M14.39,34.65l.27-.2a.4.4,0,0,1,.37,0C15,34.55,14.7,34.61,14.39,34.65Z"/></g><g id="g84"><path id="path82" class="cls-3" d="M14.6,34.16l.26-.06a.31.31,0,0,1,.29.15C15.09,34.31,14.84,34.27,14.6,34.16Z"/></g><g id="g88"><path id="path86" class="cls-3" d="M14,39.66l.18-.11a.38.38,0,0,1,.22,0C14.41,39.63,14.23,39.68,14,39.66Z"/></g><g id="g92"><path id="path90" class="cls-3" d="M14.6,39l-.45.06a.62.62,0,0,0-.35.39C13.94,39.51,14.27,39.31,14.6,39Z"/></g><g id="g96"><path id="path94" class="cls-3" d="M14.39,38.82h-.34a.37.37,0,0,0-.31.26A1.09,1.09,0,0,0,14.39,38.82Z"/></g><g id="g100"><path id="path98" class="cls-3" d="M16,40.49l.2-.43a.58.58,0,0,1,.45-.22C16.64,40,16.35,40.27,16,40.49Z"/></g><g id="g104"><path id="path102" class="cls-3" d="M16.9,40.06l.37-.14a.55.55,0,0,1,.43.16h0c0,.13-.26.35-.57.51l.18-.34a1.08,1.08,0,0,1,.15-.13h-.13a1.65,1.65,0,0,1-.43.35l.15-.28a.36.36,0,0,1,.08-.09Z"/></g><g id="g108"><path id="path106" class="cls-3" d="M18.68,40.12c.12-.06.55.05.49.19s-.29.35-.57.55l.16-.37a.68.68,0,0,1,.12-.12h-.14a2,2,0,0,1-.41.35l.13-.31.08-.06-.1,0a1.67,1.67,0,0,1-.31.24l.08-.2C18.35,40.19,18.46,40.21,18.68,40.12Z"/></g><g id="g112"><path id="path110" class="cls-3" d="M21.31,40.06c0-.34.27-.55.78-.61s1.31,0,1.1.31h-.06L23,40l-.23.41L23,40l.06-.22a1.83,1.83,0,0,0-.27-.08l-.18.18-.31.35.25-.41.1-.17-.12,0-.19.19-.3.34.24-.38.1-.17h-.16l-.12.19-.29.36L22,39.7l.06-.11-.23.07-.14.34.06-.32A.67.67,0,0,0,21.31,40.06Z"/></g><g id="g116"><path id="path114" class="cls-3" d="M19.4,40.35v0h0L20,40c.34-.16.77-.22.71.06,0,0,0,.06-.12.08s0,.23,0,.35l-.14-.3h-.09a4.1,4.1,0,0,0,0,.49l-.2-.45a.18.18,0,0,1-.1,0c0,.22,0,.47,0,.71l-.29-.59v0c0,.12-.06.26-.1.39l-.06-.41h0c-.06.16-.14.37-.2.57l0-.43v-.08Z"/></g><g id="g120"><path id="path118" class="cls-3" d="M13.56,26.55l.87-.88A1.77,1.77,0,0,0,13.56,26.55Z"/></g><g id="g124"><path id="path122" class="cls-3" d="M18.37,42.51a.93.93,0,0,1,0-.85c.17-.43.37-.56.49-.53s0,.48.05.89l-.33-.28.1.55L18.44,42Z"/></g><g id="g128"><path id="path126" class="cls-3" d="M21.27,43a.21.21,0,0,0-.12-.12s0,.1,0,.19a.3.3,0,0,0,.14.12S21.33,43.13,21.27,43Z"/></g><g id="g132"><path id="path130" class="cls-3" d="M21.27,43.41c-.08-.12-.16-.18-.2-.16s0,.12.08.24.16.19.2.17S21.35,43.53,21.27,43.41Z"/></g><g id="g136"><path id="path134" class="cls-3" d="M21.09,43.76c-.06-.1-.12-.16-.14-.16s0,.12,0,.22.12.16.14.14S21.13,43.86,21.09,43.76Z"/></g><g id="g140"><path id="path138" class="cls-3" d="M20.91,44.11c0-.17-.15-.29-.19-.27s0,.16,0,.33.13.26.17.26S21,44.27,20.91,44.11Z"/></g><g id="g144"><path id="path142" class="cls-3" d="M18.52,44c.12,0,.2.06.2.1a.28.28,0,0,1-.22,0c-.11,0-.21-.06-.19-.08S18.42,43.94,18.52,44Z"/></g><g id="g148"><path id="path146" class="cls-3" d="M18.42,43.7c.14,0,.24.08.24.12s-.12.06-.27,0-.24-.08-.24-.12S18.27,43.68,18.42,43.7Z"/></g><g id="g152"><path id="path150" class="cls-3" d="M18.35,43.37c.17,0,.29.1.29.14s-.16.09-.33,0-.3-.08-.28-.14S18.17,43.35,18.35,43.37Z"/></g><g id="g156"><path id="path154" class="cls-3" d="M23.66,39.9c-.12-.41.33-.55.8-.35a2.3,2.3,0,0,0,1.41.08,2.65,2.65,0,0,1,.89,0c.31.17.29.31-.06.37a3.51,3.51,0,0,0-1.22,1.86c-.23-.31.24-1.08,1-2a7.06,7.06,0,0,0-1.25,1.3,4.13,4.13,0,0,1,.72-1.26,3.27,3.27,0,0,0-1.27,3.1,3.18,3.18,0,0,1,.53-2.84l-.88.92.8-1.22-.49.16,0-.18-.3.14v-.2L24,40,24,39.7C23.89,39.61,23.78,39.74,23.66,39.9Z"/></g><g id="g160"><path id="path158" class="cls-3" d="M24,42.21a1.05,1.05,0,0,0,.18.81c.06.06.15,0,.1-.16A1.23,1.23,0,0,1,24,42.21Z"/></g><g id="g164"><path id="path162" class="cls-3" d="M25.05,42.33s.08.1.08.24,0,.27-.08.27-.08-.12-.08-.27S25,42.33,25.05,42.33Z"/></g><g id="g168"><path id="path166" class="cls-3" d="M26,41.29a.3.3,0,0,1,0,.22c-.06.13-.12.21-.17.19s0-.13,0-.23S26,41.27,26,41.29Z"/></g><g id="g172"><path id="path170" class="cls-3" d="M26.21,40.8s0,.12-.06.2-.14.17-.16.15,0-.13.06-.21A.28.28,0,0,1,26.21,40.8Z"/></g><g id="g176"><path id="path174" class="cls-3" d="M33.87,41.59c.35.13.39.62.2,1.21A2.74,2.74,0,0,0,33.87,41.59Z"/></g><g id="g180"><path id="path178" class="cls-3" d="M32.09,44.11A.91.91,0,0,0,32,43.8l.06.37Z"/></g><g id="g184"><path id="path182" class="cls-3" d="M28.09,37.94a.5.5,0,0,1,.16,0l.17.27a.72.72,0,0,1-.19,0Z"/></g><g id="g188"><path id="path186" class="cls-3" d="M27.76,39.72a.33.33,0,0,1,.13.22c0,.1,0,.16,0,.14a.32.32,0,0,1-.13-.2C27.7,39.78,27.72,39.72,27.76,39.72Z"/></g><g id="g192"><path id="path190" class="cls-3" d="M28.07,39.7s.08.06.1.16.06.18,0,.2-.08-.06-.12-.16S28,39.7,28.07,39.7Z"/></g><g id="g196"><path id="path194" class="cls-3" d="M28.44,39.63s.12.13.14.27,0,.18-.06.18-.06,0-.08-.18S28.42,39.63,28.44,39.63Z"/></g><g id="g200"><path id="path198" class="cls-3" d="M28.79,39.51a.54.54,0,0,1,.16.27c0,.14.06.28,0,.28s-.1-.08-.16-.24S28.74,39.53,28.79,39.51Z"/></g><g id="g204"><path id="path202" class="cls-3" d="M29.15,39.51c.06,0,.13.12.17.29s0,.32,0,.35-.13-.15-.15-.31S29.11,39.51,29.15,39.51Z"/></g><g id="g208"><path id="path206" class="cls-3" d="M29.56,39.57s.16.19.18.35.07.25-.06.27-.1-.07-.14-.25S29.52,39.57,29.56,39.57Z"/></g><g id="g212"><path id="path210" class="cls-3" d="M29.83,39.49c.06,0,.12.12.18.31s0,.35,0,.35-.12-.13-.16-.31S29.79,39.49,29.83,39.49Z"/></g><g id="g216"><path id="path214" class="cls-3" d="M30.26,39.39s.1.18.1.41,0,.41-.1.41-.11-.19-.11-.41S30.19,39.39,30.26,39.39Z"/></g><g id="g220"><path id="path218" class="cls-3" d="M30.6,39.51s.08.17.08.35,0,.35-.08.35-.08-.15-.08-.35S30.54,39.51,30.6,39.51Z"/></g><g id="g224"><path id="path222" class="cls-3" d="M31,39.41s.08.18.08.41,0,.41-.08.41-.08-.19-.08-.41S30.91,39.41,31,39.41Z"/></g><g id="g228"><path id="path226" class="cls-3" d="M31.32,39.31c.06,0,.08.2.06.47s-.08.43-.15.43-.06-.21,0-.45S31.26,39.31,31.32,39.31Z"/></g><g id="g232"><path id="path230" class="cls-3" d="M31.81,39.29c.06,0,.06.2,0,.45s-.11.43-.17.43-.06-.21,0-.45S31.77,39.29,31.81,39.29Z"/></g><g id="g236"><path id="path234" class="cls-3" d="M32.19,39.06c.07,0,.17.31.13.6s-.15.55-.21.53,0-.27,0-.56S32.15,39,32.19,39.06Z"/></g><g id="g240"><path id="path238" class="cls-3" d="M30.11,41.37s.06.06.1.14a.53.53,0,0,1,.05.21s-.09-.06-.11-.15S30.09,41.37,30.11,41.37Z"/></g><g id="g244"><path id="path242" class="cls-3" d="M30.4,41.27s.1.1.14.22,0,.19,0,.21-.06,0-.1-.17A.41.41,0,0,1,30.4,41.27Z"/></g><g id="g248"><path id="path246" class="cls-3" d="M33.15,40.41v.14l.19-.12a5.7,5.7,0,0,0,0-1A7.25,7.25,0,0,1,33.15,40.41Z"/></g><g id="g252"><path id="path250" class="cls-3" d="M33,40.86c-.1.53-.12.69-.33.88a2,2,0,0,0,0-.64.34.34,0,0,1-.14,0v.06a1,1,0,0,1-.22.79c0-.28.1-.55.1-.83l-.16.06v.28a2.55,2.55,0,0,1-.17.45,1.93,1.93,0,0,0,0-.71l-.14,0v.08c0,.06,0,.12-.06.12s0,0,0-.1,0-.06,0-.08a.28.28,0,0,0-.11,0v0q0,.09,0,.12s-.06-.06-.1-.12l-.1,0c0,.1,0,.14-.06.18s-.1-.06-.12-.16l-.19,0c0,.08,0,.14,0,.14s-.06,0-.1-.12h-.16c0,.08,0,.12,0,.14s-.06,0-.1-.12l0,0s0,0,0,0,0-.06-.05-.1a.41.41,0,0,1-.06-.27s.11.07.17.21a.37.37,0,0,1,0,.14.37.37,0,0,1,.14,0s0-.06,0-.08S31,41,31,41s.1.1.14.27a.87.87,0,0,1,0,.1l.17-.06a.86.86,0,0,1,0-.21c0-.08,0-.12,0-.12s.12.12.16.29l.1,0s0,0,0,0a.66.66,0,0,1,0-.25c0-.06,0-.08,0-.1s.12.14.16.29a.07.07,0,0,0,0,.06l.11,0v-.33c0-.08,0-.12,0-.12s0,0,.06.1,0,.18.06.28h0a.28.28,0,0,0,.12,0v-.16c0-.06,0-.1,0-.1s.06.1.08.2l.17-.06V40.7c0-.06,0-.13,0-.13s0,0,0,.09a.59.59,0,0,1,0,.2s.08,0,.12-.06h0c0-.12,0-.25,0-.33s0-.14.06-.14,0,0,0,.1a1.37,1.37,0,0,1,0,.31.28.28,0,0,1,.12,0,9.17,9.17,0,0,0,.32-2c0-.09-.08-.15-.12-.23a4.57,4.57,0,0,1-.34,1.86,5.21,5.21,0,0,0,0-2.08h-.07a4.88,4.88,0,0,1-.2,2,5,5,0,0,0-.2-2.19.38.38,0,0,0-.13,0c.19.16.15.82.06.92-.12-.39,0-.51-.36-.78h-.11a.91.91,0,0,1,.17.76,2.45,2.45,0,0,0-.43-.65h-.18c.26.3.26.36.22.61-.1-.27-.51-.45-.67-.57l-.19,0c.21.1.49.47.39.59-.14-.16-.45-.33-.57-.55-.08,0,0,0-.12,0s0,.2,0,.35a.74.74,0,0,1-.51-.31s-.13,0-.13,0,.11.2.13.27-.47-.29-.51-.35.08,0-.17,0c0,.06.17.39.19.45s-.35-.39-.39-.43l-.29,0L28.5,38a12.81,12.81,0,0,0,3.16-.2l1.15-.23c.38-.12.65.08.73.68l.06.65a1.3,1.3,0,0,1,.1,1.37,2.09,2.09,0,0,0,.72,1.1c.33.31.37.73,0,1.35a8.5,8.5,0,0,1-1.27,2s0,0,0,.06a.28.28,0,0,0-.06.08l.06-.1L33,44.45a.58.58,0,0,1,.1.23l.19-.31c0-.1,0-.2-.06-.33,0,.09.08.15.12.23,0-.08.1-.16.14-.25s-.06-.22-.1-.34a1.49,1.49,0,0,1,.14.24c.06-.1.12-.2.17-.3s-.07-.21-.09-.31a1.74,1.74,0,0,1,.13.2,2.79,2.79,0,0,0,.12-.45l-2.1,1.31c.18-.16.38-.31.57-.47l0,0c0-.12,0-.26-.06-.39a3,3,0,0,1,.14.33l.14-.12-.06-.49a1.92,1.92,0,0,1,.16.41c.07,0,.13-.11.19-.15,0-.2,0-.43-.08-.65a2,2,0,0,1,.2.55,1,1,0,0,1,.16-.14c0-.29-.06-.61-.1-.92a2,2,0,0,1,.25.78A1.2,1.2,0,0,1,33.4,43a9.36,9.36,0,0,0-.12-1,2.45,2.45,0,0,1,.28.86s0,0,.06-.06a8.9,8.9,0,0,0-.12-1.18,1.83,1.83,0,0,1,.27,1l.12-.13a6,6,0,0,0-.41-1.67c-.08.29-.08.39-.16.37,0-.33,0-.47,0-.51a1.43,1.43,0,0,1-.29.87l.08-.73Z"/></g><g id="g256"><path id="path254" class="cls-3" d="M31.11,42.15c0,.12,0,.22-.08.22s-.06-.12,0-.22Z"/></g><g id="g260"><path id="path258" class="cls-3" d="M31.34,41.92s.06.06.06.21,0,.24-.1.24-.11-.14-.07-.27S31.3,41.92,31.34,41.92Z"/></g><g id="g264"><path id="path262" class="cls-3" d="M31.62,42c0,.23,0,.39-.08.37s-.08-.18,0-.37Z"/></g><g id="g268"><path id="path266" class="cls-3" d="M31.58,41.68s0,0,0,.1h-.1C31.54,41.72,31.56,41.68,31.58,41.68Z"/></g><g id="g272"><path id="path270" class="cls-3" d="M31.87,41.64s.06.08.06.26,0,.35-.14.33-.11-.19-.07-.37S31.81,41.64,31.87,41.64Z"/></g><g id="g276"><path id="path274" class="cls-3" d="M30.46,35.78a4.34,4.34,0,0,1,1.57,1c.08.14,0,.18-.08.12A15.05,15.05,0,0,1,30.46,35.78Z"/></g><g id="g280"><path id="path278" class="cls-3" d="M32.42,37.1c.1.06.14.13.12.15s-.1,0-.2,0-.15-.15-.13-.17S32.32,37,32.42,37.1Z"/></g><g id="g284"><path id="path282" class="cls-3" d="M27.27,37.86l.56.06.12.2,0,0c-.06,0,.18.66-.14,0-.05-.08-.17-.06-.27-.1A.69.69,0,0,0,27.27,37.86Z"/></g><g id="g288"><path id="path286" class="cls-3" d="M24.72,46.68c.11,0,.21,0,.21.08s-.06.06-.17.06-.2,0-.2-.06S24.62,46.68,24.72,46.68Z"/></g><g id="g292"><path id="path290" class="cls-3" d="M25,47.19c.16,0,.35-.06.37,0s-.09.1-.25.16a.55.55,0,0,1-.37,0S24.83,47.23,25,47.19Z"/></g><g id="g296"><path id="path294" class="cls-3" d="M25.15,47.35c.19,0,.37-.06.41,0s-.1.12-.29.16-.36.07-.4,0S25,47.39,25.15,47.35Z"/></g><g id="g300"><path id="path298" class="cls-3" d="M25.4,47.53c.12,0,.24,0,.26,0s-.06.09-.18.13-.27,0-.29,0S25.27,47.56,25.4,47.53Z"/></g><g id="g304"><path id="path302" class="cls-3" d="M25.56,47.7c.12,0,.2,0,.2.08s-.06.06-.16.06-.2,0-.2-.06S25.46,47.7,25.56,47.7Z"/></g><g id="g308"><path id="path306" class="cls-3" d="M27.74,46.88c.17-.06.33-.06.35,0s-.08.19-.24.25-.33.06-.35,0S27.58,47,27.74,46.88Z"/></g><g id="g312"><path id="path310" class="cls-3" d="M27.46,46.7c.12-.06.24-.06.26,0s-.06.14-.18.18a.25.25,0,0,1-.27,0C27.23,46.82,27.34,46.74,27.46,46.7Z"/></g><g id="g316"><path id="path314" class="cls-3" d="M27.19,46.33a.23.23,0,0,1,.21,0c0,.06,0,.12-.15.14s-.18,0-.2,0S27.09,46.37,27.19,46.33Z"/></g><g id="g320"><path id="path318" class="cls-3" d="M24.23,44.64c0-.11-.12-.11-.16,0a.39.39,0,0,0,.16.4c.17.09.21-.08.13-.14A.36.36,0,0,1,24.23,44.64Z"/></g><g id="g324"><path id="path322" class="cls-3" d="M24,44.49c0-.12-.08-.18-.17-.08a.44.44,0,0,0,0,.51c.15.19.27,0,.23-.08A.44.44,0,0,1,24,44.49Z"/></g><g id="g328"><path id="path326" class="cls-3" d="M38.2,35.33c-.13.18-.17.88.44,1.71.23.29,0,.49.29.53.12,0,.2-.12.23-.3L39,37.16h.29l-.31-.2c.1,0,.35,0,.33-.06s-.31-.14-.45-.2l.35-.09c0-.1-.19-.18-.52-.28l.33-.08L38.6,36l.29-.08-.45-.22.25-.13-.27-.08.25-.12C38.46,35.31,38.38,35.12,38.2,35.33Z"/></g><g id="g332"><path id="path330" class="cls-3" d="M37.71,35.86a1,1,0,0,1-.09-.7c.15-.36.29-.47.41-.47.25.27-.16.43-.24.64C37.73,35.37,37.71,35.51,37.71,35.86Z"/></g><g id="g336"><path id="path334" class="cls-3" d="M37.6,34.59c.11-.1.23-.16.27-.12s0,.14-.12.27-.23.18-.27.14S37.5,34.72,37.6,34.59Z"/></g><g id="g340"><path id="path338" class="cls-3" d="M37.5,35.9a.13.13,0,0,1,.12.14.13.13,0,0,1-.12.12.13.13,0,0,1-.14-.12A.14.14,0,0,1,37.5,35.9Z"/></g><g id="g344"><path id="path342" class="cls-3" d="M37.77,36.31c.08,0,.1.12,0,.22s-.12.17-.19.12-.1-.12,0-.22S37.71,36.27,37.77,36.31Z"/></g><g id="g348"><path id="path346" class="cls-3" d="M38.05,36.74c.1,0,.13.14,0,.26a.31.31,0,0,1-.3.14.17.17,0,0,1-.06-.26A.3.3,0,0,1,38.05,36.74Z"/></g><g id="g352"><path id="path350" class="cls-3" d="M38.36,37.21c.06.08,0,.16-.08.2a.23.23,0,0,1-.27-.06c0-.06,0-.14.08-.19A.24.24,0,0,1,38.36,37.21Z"/></g><g id="g356"><path id="path354" class="cls-3" d="M39.83,37.45a.11.11,0,0,0-.06-.18c-.1,0-.17,0-.23-.13s0-.36.25-.42.22.06.18.16l-.1.08a.61.61,0,0,1,.37.23c-.1,0-.17,0-.19.1.35-.06.33.49,0,.39s-.3,0-.2.36.37.51.35.08c0-.2.65-.24.73.21l-.26-.1c.06.32.32.18.36.47l-.22,0a1.46,1.46,0,0,1,.57.67c-.29,0-.31-.35-.57-.35.35.47.75.37,1,.84a2,2,0,0,1-1-.61c.34.49.57.9.49,1.1-.51-.22-.61-1-.82-1.2,0,.38.29.61.18,1a2,2,0,0,1-.3-1.25c.2,0,.28-.1.28-.45s-.22-.34-.18,0-.18.35-.73,0c-.09.08,0,.19.34.37l0,.31.17-.27.06.86c0,.22-.08.18-.15,0L40,39.33c0,.3,0,.45-.14.43l-.08-.8-.23.29-.06-.45-.2.16v-.55c-.14.08-.31,0-.47-.22a.63.63,0,0,0,.55-.09C39.3,37.7,39.48,37.49,39.83,37.45Z"/></g><g id="g360"><path id="path358" class="cls-3" d="M35,39.94a.5.5,0,0,0-.12-.49c-.08-.08-.14-.1-.12,0S34.93,39.78,35,39.94Z"/></g><g id="g364"><path id="path362" class="cls-3" d="M34.64,38.7c.27.14.39.16.53.55,0,.14,0,.24-.08.12S34.85,38.88,34.64,38.7Z"/></g><g id="g368"><path id="path366" class="cls-3" d="M34.68,37.9a1.19,1.19,0,0,1,.66.86c0,.22,0,.34-.14.16S34.93,38.21,34.68,37.9Z"/></g><g id="g372"><path id="path370" class="cls-3" d="M34.85,37.33a1.09,1.09,0,0,1,.67,1c0,.22-.1.37-.16.16A3,3,0,0,0,34.85,37.33Z"/></g><g id="g376"><path id="path374" class="cls-3" d="M35,37a1.18,1.18,0,0,1,.7.76c0,.2,0,.3-.15.14A2.17,2.17,0,0,0,35,37Z"/></g><g id="g380"><path id="path378" class="cls-3" d="M37.42,47.13a.56.56,0,0,1,.76-.25c.16,0,.14.25.14.39-.1-.1-.21-.23-.31-.1C37.73,46.94,37.62,47.07,37.42,47.13Z"/></g><g id="g384"><path id="path382" class="cls-3" d="M36.32,47.21c.08,0,.14,0,.14.12s-.06.1-.14.1a.11.11,0,0,1-.12-.1A.12.12,0,0,1,36.32,47.21Z"/></g><g id="g388"><path id="path386" class="cls-3" d="M35.6,47.21s.11.06.15.16,0,.21,0,.21-.11,0-.15-.17S35.56,47.21,35.6,47.21Z"/></g><g id="g392"><path id="path390" class="cls-3" d="M35.85,47.17s.06,0,.08.12,0,.12,0,.14-.06,0-.08-.12S35.81,47.19,35.85,47.17Z"/></g><g id="g396"><path id="path394" class="cls-3" d="M35.91,44.53a.1.1,0,0,0,0,.07c-.08.08-.16.14-.19.1s0-.13,0-.21l.08-.08s0,0,0-.06,0,0,0,.06-.19.16-.23.12,0-.14.06-.24.06-.06.08-.08,0,0,0,0-.18.14-.22.12,0-.14.06-.25a0,0,0,0,1,0,0s0-.06-.06-.08-.1.06-.14,0,0-.1.06-.18-.06-.16,0-.21.18,0,.3.31c0,.1,0,.16.07.23s.16.12.2.18a.53.53,0,0,1,.1.43S36,44.7,35.91,44.53Z"/></g><g id="g400"><path id="path398" class="cls-3" d="M35.91,44.74c.06,0,0,.16-.08.28s-.21.19-.25.15,0-.17.06-.29S35.87,44.7,35.91,44.74Z"/></g><g id="g404"><path id="path402" class="cls-3" d="M38.42,43.53s0,.13,0,.25-.12.2-.16.18,0-.12,0-.24S38.38,43.51,38.42,43.53Z"/></g><g id="g408"><path id="path406" class="cls-3" d="M38.11,43.41s0,.19-.06.37-.2.3-.26.28,0-.18.06-.36S38.05,43.39,38.11,43.41Z"/></g><g id="g412"><path id="path410" class="cls-3" d="M37.4,43.13s0,.14,0,.3-.14.25-.18.23,0-.15,0-.29S37.36,43.11,37.4,43.13Z"/></g><g id="g416"><path id="path414" class="cls-3" d="M17.6,8.63a.51.51,0,0,1,.45-.45l.45.08c.16.12.14.16,0,.18-.37-.06-.58,0-.68.27S17.58,8.93,17.6,8.63Z"/></g><g id="g420"><path id="path418" class="cls-3" d="M19,9.48a.12.12,0,0,1,.1.13.13.13,0,0,1-.1.12.11.11,0,0,1-.1-.12C18.93,9.53,19,9.48,19,9.48Z"/></g><g id="g424"><path id="path422" class="cls-3" d="M17.54,9.08c-.15.18-.1.38.14.63l.33.41c.28.2.43.16.38-.15s0-.28.21-.28a.35.35,0,0,0,.26-.18c.05-.17,0-.25-.12-.29a2.13,2.13,0,0,1-.67.31,2.18,2.18,0,0,0,.49-.39.23.23,0,0,1,.26,0,.23.23,0,0,0-.18-.25,1.29,1.29,0,0,0-.84.49.83.83,0,0,1,.78-.55.24.24,0,0,0-.1-.26.88.88,0,0,0-.64.18Z"/></g><g id="g428"><path id="path426" class="cls-3" d="M19.19,11.61a8.92,8.92,0,0,1,1.7,2.3v.76l-.25-.86c0,.59,0,1-.06.86l-.2-1.23-.15.54-.12-.76c-.1-.08-.12.39-.1,1-.19-.18-.17-.71-.15-1.31l-.2.58a2.31,2.31,0,0,1,0-1.11c-.12-.1-.2.11-.24.72A2,2,0,0,1,19.37,12l-.14.3Z"/></g><g id="g432"><path id="path430" class="cls-3" d="M24.19,5.85a1.46,1.46,0,0,0,.84.21l0,.16a2.84,2.84,0,0,0,1.51-.57.26.26,0,0,0-.22,0c-.37.18-.33.06.36-.29.11-.06.19,0,.35,0l.45-.1c-.37.32-.74.65-1.14,1a1.85,1.85,0,0,1-1.56.24A3.88,3.88,0,0,1,24,6C24,5.85,23.91,5.79,24.19,5.85Z"/></g><g id="g436"><path id="path434" class="cls-3" d="M27,6a.09.09,0,1,1,0,.17A.09.09,0,0,1,26.93,6,.09.09,0,0,1,27,6Z"/></g><g id="g440"><path id="path438" class="cls-3" d="M27.62,7.18c0-.06.08-.08.12,0s.05.08,0,.12-.1.08-.12.06S27.58,7.24,27.62,7.18Z"/></g><g id="g444"><path id="path442" class="cls-3" d="M29.07,6.63c.06,0,.12,0,.14,0a.11.11,0,0,1-.08.14c-.06,0-.12,0-.14,0S29,6.67,29.07,6.63Z"/></g><g id="g448"><path id="path446" class="cls-3" d="M28.74,6.4c.07,0,.13-.06.15,0s0,.1,0,.14-.13.07-.15,0A.14.14,0,0,1,28.74,6.4Z"/></g><g id="g452"><path id="path450" class="cls-3" d="M26.52,6.83a.11.11,0,0,1,.14,0,.11.11,0,0,1-.1.1.11.11,0,0,1-.14,0S26.46,6.85,26.52,6.83Z"/></g><g id="g456"><path id="path454" class="cls-3" d="M27.32,8.34c.08,0,.18,0,.2,0s0,.1-.12.14-.19,0-.21,0S27.21,8.36,27.32,8.34Z"/></g><g id="g460"><path id="path458" class="cls-3" d="M24.7,7a3.08,3.08,0,0,0,.94-.28l.47-.23c.23-.1.27-.08.08.11a5.33,5.33,0,0,1-.65.44,1,1,0,0,1-.9.17C24.42,7.1,24.5,7,24.7,7Z"/></g><g id="g464"><path id="path462" class="cls-3" d="M26.13,6.75a2.26,2.26,0,0,1,.8-.47,2.68,2.68,0,0,1,1-.18c.24-.23.47.08.2.32a1.38,1.38,0,0,1-.28.19,2.38,2.38,0,0,1-.84.36c-.37.11-.41.07-.1-.14a2.43,2.43,0,0,1,.28-.2,1.45,1.45,0,0,1,.7-.21c-.35-.22-1,.13-1.7.45C26,7,26,6.91,26.13,6.75Z"/></g><g id="g468"><path id="path466" class="cls-3" d="M28,5.69a1.5,1.5,0,0,1,.43,0c.26.08.39.22.41.41s-.15.28-.27.32c-.06-.32-.18-.51-.37-.57a.68.68,0,0,0-.2,0Z"/></g><g id="g472"><path id="path470" class="cls-3" d="M27.66,5.77a.64.64,0,0,1,.19-.08v.12l-.17,0C27.6,5.87,27.52,5.81,27.66,5.77Z"/></g><g id="g476"><path id="path474" class="cls-3" d="M27.3,5.57a1.05,1.05,0,0,1,.63-.33,3.34,3.34,0,0,1,.77,0c.51.18.31.35,0,.22a.84.84,0,0,0-.73,0c0,.21-.37,0-.57.19S27.21,5.69,27.3,5.57Z"/></g><g id="g480"><path id="path478" class="cls-3" d="M28.79,5.63c.16,0,.28,0,.3.16A.41.41,0,0,1,29,6.2C29,5.81,28.83,5.85,28.79,5.63Z"/></g><g id="g484"><path id="path482" class="cls-3" d="M29.23,5.52a.64.64,0,0,1,0,.49l-.16.31c0,.14,0,.18.1.14A.47.47,0,0,0,29.42,6c0-.3,0-.44.12-.55C29.36,5.16,29.17,5.2,29.23,5.52Z"/></g><g id="g488"><path id="path486" class="cls-3" d="M27.93,7.32c0,.21.47.25.53,0s-.08-.43,0-.67A.63.63,0,0,0,27.93,7.32Z"/></g><g id="g492"><path id="path490" class="cls-3" d="M27.81,7.85a.47.47,0,0,1,.51-.22c.18,0,.28,0,.28.22a2.46,2.46,0,0,1,0,.55c-.06.17-.08.15-.28.17s-.31-.11-.56,0C27.89,8.26,27.72,8.12,27.81,7.85Z"/></g><g id="g496"><path id="path494" class="cls-3" d="M28.68,7.06c-.1-.17,0-.23.13-.11a.55.55,0,0,1,.2.39c0,.14-.14.27-.25.14S28.79,7.24,28.68,7.06Z"/></g><g id="g500"><path id="path498" class="cls-3" d="M28.79,7.83c-.07-.2,0-.22.26-.12s.18.24.1.33c.17.16.17.38,0,.65-.1-.08-.22,0-.3-.16s-.08,0,0-.35A.54.54,0,0,0,28.79,7.83Z"/></g><g id="g504"><path id="path502" class="cls-3" d="M29.07,9.51c.1,0,.16.06.16.12s-.08.1-.16.08-.16-.06-.16-.12S29,9.51,29.07,9.51Z"/></g><g id="g508"><path id="path506" class="cls-3" d="M27.81,9.32c.1,0,.18.06.16.12a.14.14,0,0,1-.18.11c-.11,0-.19-.07-.17-.13S27.7,9.3,27.81,9.32Z"/></g><g id="g512"><path id="path510" class="cls-3" d="M29.36,9.1a1.18,1.18,0,0,0-.88-.41,3.2,3.2,0,0,0-1.08.14,1.38,1.38,0,0,0-.27,1.1l.19,0-.17.13h.23l-.15.2.13,0-.11.27.13.08-.06.16.16,0,0,.17.12,0,0,.16.12,0a1.31,1.31,0,0,0,.39.33.63.63,0,0,0,.39,0,4.61,4.61,0,0,0,.51-.57c.06,0,.08-.15.08-.33a.3.3,0,0,0,.16-.31l.11-.14V9.79a.59.59,0,0,1-.31,0l-.29-.12-.08.63c0,.12-.06.31-.2.25l-.35-.17c-.08,0-.06-.16,0-.2l.12,0V9.65a.71.71,0,0,1-.63-.06.51.51,0,0,0-.24,0,.76.76,0,0,1,.22-.29l-.12-.18.18,0c.29,0,.43-.06.51,0a.76.76,0,0,0,.23.18l0-.14c.06-.17.18-.21.36-.14l0,.4.66-.2Zm-1.51,1.67a1.37,1.37,0,0,1,.57,0c.32.08.34.2,0,.39a2,2,0,0,1-.59-.06C27.93,11,28,11,27.85,10.77Zm.24.14a.32.32,0,0,1,.33,0c.06,0,0,.11,0,.15a.45.45,0,0,1-.23,0C28.11,11,28.15,11,28.09,10.91Z"/></g><g id="g516"><path id="path514" class="cls-3" d="M28.15,10.28a.05.05,0,0,1,.06.06s0,0-.06,0-.06,0-.06,0A.06.06,0,0,1,28.15,10.28Z"/></g><g id="g520"><path id="path518" class="cls-3" d="M28.48,9.34s0-.08,0-.14.14-.16.14-.06a.62.62,0,0,1,0,.2Z"/></g><g id="g524"><path id="path522" class="cls-3" d="M28.36,10.34c0-.26.06-.49.1-.81h.14a6.5,6.5,0,0,1-.12.85C28.44,10.46,28.4,10.42,28.36,10.34Z"/></g><g id="g528"><path id="path526" class="cls-3" d="M26.78,8.93c0-.16.15-.14.17,0a.77.77,0,0,1-.14.66c-.11.06-.25,0-.17-.13A.58.58,0,0,0,26.78,8.93Z"/></g><g id="g532"><path id="path530" class="cls-3" d="M26.66,10.1c0-.19.08-.25.12,0a3.17,3.17,0,0,0,.94,1.59c.23.18,0,.35-.22.16A2.84,2.84,0,0,1,26.66,10.1Z"/></g><g id="g536"><path id="path534" class="cls-3" d="M28.7,11.77a.49.49,0,0,1,.23-.47c.12-.08.16.06.1.14S28.81,11.59,28.7,11.77Z"/></g><g id="g540"><path id="path538" class="cls-3" d="M23.38,14a.64.64,0,0,1,.12-.35.61.61,0,0,1-.14-.1,4.13,4.13,0,0,1-.45.67,2.6,2.6,0,0,1,.59-1.08c0,.14-.08.26-.12.37l.14.12a.53.53,0,0,0,.1-.12.55.55,0,0,1,0,.18h0l0,.06,0,0A.89.89,0,0,1,23.38,14Z"/></g><g id="g544"><path id="path542" class="cls-3" d="M23.13,14.4a.47.47,0,0,1,.14-.28A.38.38,0,0,1,23.13,14.4Z"/></g><g id="g548"><path id="path546" class="cls-3" d="M24.21,14.57c0-.08,0-.17.06-.23h0l0,0a.18.18,0,0,1,.05-.08l.12-.14A.61.61,0,0,1,24.21,14.57Z"/></g><g id="g552"><path id="path550" class="cls-3" d="M24.17,15.16c-.06-.2,0-.35.25-.47C24.42,15,24.4,15.08,24.17,15.16Z"/></g><g id="g556"><path id="path554" class="cls-3" d="M24.66,15a2.17,2.17,0,0,0,.17-1.33C25.05,14.22,25,14.38,24.66,15Z"/></g><g id="g560"><path id="path558" class="cls-3" d="M28,16.83a4.49,4.49,0,0,0,.12-1.26l-.1,0a3.31,3.31,0,0,1-.2.82,2.76,2.76,0,0,0,.08-.8.28.28,0,0,1-.13,0,3.78,3.78,0,0,1-.16.65,3.52,3.52,0,0,0,.06-.63l-.18,0c0,.27-.06.55-.12.92,0-.31,0-.61,0-.9h-.21a7.49,7.49,0,0,1-.1,1c0-.37,0-.71,0-1.06l-.21,0a8.27,8.27,0,0,1-.1,1.1c0-.39,0-.75,0-1.12l-.18-.06a7,7,0,0,1-.17,1c0-.37,0-.7,0-1.06l-.19-.06c0,.4-.06.77-.08,1.2A5.8,5.8,0,0,1,26,15.42a.4.4,0,0,1-.16-.08,4.49,4.49,0,0,0-.11,1.41,2.56,2.56,0,0,1,0-1.45.42.42,0,0,0-.12-.08,3,3,0,0,1-.29.55,3.24,3.24,0,0,0,.21-.59l-.21-.12a2.88,2.88,0,0,1-.36.9,5.66,5.66,0,0,0,.3-2.05,4.39,4.39,0,0,1,.11.78l.22.1a8.78,8.78,0,0,0,.06-1.06,2.63,2.63,0,0,1,.08,1.08.7.7,0,0,0,.19.06l.1-.16-.06.18.14,0c0-.12.06-.26.12-.42,0,.16,0,.3,0,.47l.17,0c0-.11,0-.23,0-.35a2.58,2.58,0,0,1,.06.37l.2,0v-.47c0,.18.08.32.1.47A1.1,1.1,0,0,0,27,15a4.1,4.1,0,0,1,0-.49c0,.18.06.34.1.49h.21V14.3a4.08,4.08,0,0,1,.14.72l.18,0a5.06,5.06,0,0,0-.06-.53,1.76,1.76,0,0,1,.16.51l.13,0c0-.19-.06-.37-.09-.58a3.48,3.48,0,0,1,.19.53.25.25,0,0,0,.12,0c0-.28-.06-.59-.12-.93A3.22,3.22,0,0,1,28,16.83Z"/></g><g id="g564"><path id="path562" class="cls-3" d="M28.56,15.49l.08.18.29-.27c.08-.1.16-.08.22.07l0-.33c.11-.06.19,0,.27.08a.33.33,0,0,0,0-.31l0-.4c-.16-.27-.29-.43-.47-.49a.72.72,0,0,1,0,.57.61.61,0,0,0-.35-.55.66.66,0,0,1,.09.49.8.8,0,0,0-.21-.19l0,.25-.12.08Z"/></g><g id="g568"><path id="path566" class="cls-3" d="M30.44,14c0,.06,0,.1,0,.1s-.08,0-.14-.1Z"/></g><g id="g572"><path id="path570" class="cls-3" d="M30.32,13.69a.83.83,0,0,1,.08.24h-.23a1.76,1.76,0,0,1-.12-.2s0,0,0,0Z"/></g><g id="g576"><path id="path574" class="cls-3" d="M30,13.3c.06,0,.2.12.31.31H30C29.91,13.44,29.89,13.3,30,13.3Z"/></g><g id="g580"><path id="path578" class="cls-3" d="M29.83,14s.1.06.18.18.08.22.06.25-.1-.07-.16-.19S29.81,14,29.83,14Z"/></g><g id="g584"><path id="path582" class="cls-3" d="M29.44,13.93s.12.09.22.23.13.29.08.31-.12-.09-.22-.23S29.4,14,29.44,13.93Z"/></g><g id="g588"><path id="path586" class="cls-3" d="M22.85,13.14l.14.1.1-.1a.4.4,0,0,1-.16.28,1.38,1.38,0,0,1,.06-.16A.87.87,0,0,0,22.85,13.14Z"/></g><g id="g592"><path id="path590" class="cls-3" d="M21,33.61l-.08.27-.08,0,0-.23Z"/></g><g id="g596"><path id="path594" class="cls-3" d="M14.7,42.62c.27-.11.33,0,.41.32s.37.37.37.53c.47.39.38.55-.25.49a.45.45,0,0,1-.33-.49Z"/></g><g id="g600"><path id="path598" class="cls-3" d="M14.8,44.19a.65.65,0,0,0,.08.79.51.51,0,0,0,.41.19l-.08-.23.25.17c0-.13-.11-.27-.33-.43l.31.08c0-.16-.15-.31-.39-.43h.2C15.15,44,15,44,14.8,44.19Z"/></g><g id="g604"><path id="path602" class="cls-3" d="M15.6,44.33c.08,0,.14.08.16.2s0,.23-.1.25-.14-.08-.16-.21S15.54,44.33,15.6,44.33Z"/></g><g id="g608"><path id="path606" class="cls-3" d="M19.74,30.35a3.88,3.88,0,0,1,.66-1.92A15.06,15.06,0,0,0,19.74,30.35Z"/></g><g id="g612"><path id="path610" class="cls-3" d="M21.21,26.55c-.24.1-.26-.1-.08-.24a1.92,1.92,0,0,1,1.31-.45h.85c.33,0,.29.32,0,.3h-.61A2.76,2.76,0,0,0,21.21,26.55Z"/></g><g id="g616"><path id="path614" class="cls-3" d="M23.07,26.24c.22,0,.41,0,.41.09s-.19.08-.41.08-.41,0-.41-.08S22.85,26.24,23.07,26.24Z"/></g><g id="g620"><path id="path618" class="cls-3" d="M24.74,21.92s-.14.1-.28.28a1.09,1.09,0,0,0-.19.33s.15-.1.27-.29A.77.77,0,0,0,24.74,21.92Z"/></g><g id="g624"><path id="path622" class="cls-3" d="M23.31,23.32c-.1.19-.06.29.15.37a3,3,0,0,0,2.41-.47l1-.47c.18-.22.14-.28-.11-.2l-.49.24.13-.4a1.77,1.77,0,0,0-.55.63l-.09-.21a.82.82,0,0,0-.26.43L25.4,23a.57.57,0,0,0-.25.26l0-.28c-.08-.06-.2.08-.36.41l.08-.31c-.06-.06-.17.06-.31.37l.33-1c-.17,0-.39.39-.64,1-.1,0-.14,0-.12-.1l.37-.72c-.18,0-.39.25-.63.72l.28-.82-.53.69V23A.8.8,0,0,0,23.31,23.32Z"/></g><g id="g628"><path id="path626" class="cls-3" d="M23.42,36.61c-.09-.08.06-.16.1-.12l.24.23c.06.06-.08.16-.14.12Z"/></g><g id="g632"><path id="path630" class="cls-3" d="M23.6,36.45c0-.06.06-.14.1-.1l.21.2c.06.06-.06.15-.11.1Z"/></g><g id="g636"><path id="path634" class="cls-3" d="M23.72,36.27c-.08-.08.06-.19.13-.13l.24.25c.06.06-.1.16-.14.1Z"/></g><g id="g640"><path id="path638" class="cls-3" d="M23.82,36c-.08-.1.11-.24.21-.18l.37.36c.1.11-.15.27-.21.19Z"/></g><g id="g644"><path id="path642" class="cls-3" d="M24.21,35.63a.12.12,0,1,1,.15-.18l.44.39c.13.1-.06.28-.16.2Z"/></g><g id="g648"><path id="path646" class="cls-3" d="M24.48,35.43c-.1-.1,0-.25.12-.16l.39.32c.1.11-.06.25-.14.19Z"/></g><g id="g652"><path id="path650" class="cls-3" d="M24.83,35.31c-.09-.08,0-.21.1-.15l.32.29c.09.08-.06.22-.12.16Z"/></g><g id="g656"><path id="path654" class="cls-3" d="M23.19,33c0-.1-.16-.06-.18,0l0,.37c0,.08.18,0,.18,0Z"/></g><g id="g660"><path id="path658" class="cls-3" d="M22.66,33.51c0-.16-.18-.08-.18,0l0,.29c0,.14.2.06.18,0Z"/></g><g id="g664"><path id="path662" class="cls-3" d="M22.05,33.9c0-.14-.12-.1-.12,0l0,.26c0,.15.14.09.14,0Z"/></g><g id="g668"><path id="path666" class="cls-3" d="M22.82,33.39a.1.1,0,0,1,0,.2s-.06,0-.06-.1S22.8,33.39,22.82,33.39Z"/></g><g id="g672"><path id="path670" class="cls-3" d="M22.25,33.76a.12.12,0,0,1,.11.12.11.11,0,0,1-.11.12c-.06,0-.1,0-.1-.12A.11.11,0,0,1,22.25,33.76Z"/></g><g id="g676"><path id="path674" class="cls-3" d="M21.74,34.12c0-.12-.16-.12-.16,0v.25c0,.12.18.1.18,0Z"/></g><g id="g680"><path id="path678" class="cls-3" d="M26.17,18.69c.06,0,.1.06.1.14s0,.17-.1.17-.08-.08-.08-.17S26.13,18.69,26.17,18.69Z"/></g><g id="g684"><path id="path682" class="cls-3" d="M26.42,19.08s-.06-.1-.06-.23,0-.24.06-.24.08.1.08.24S26.46,19.08,26.42,19.08Z"/></g><g id="g688"><path id="path686" class="cls-3" d="M26.81,19c.1,0,.18,0,.18.08s-.08.06-.18.06-.17,0-.17-.06S26.72,19,26.81,19Z"/></g><g id="g692"><path id="path690" class="cls-3" d="M27,19.32a.09.09,0,0,1,.08.09.09.09,0,0,1-.08.1s-.06,0-.06-.1S27,19.32,27,19.32Z"/></g><g id="g696"><path id="path694" class="cls-3" d="M27.34,19.3h.75c.25,0,.29.13.12.35.09.41-.42.67-.4,0,0-.12-.19-.18-.47-.18C27.21,19.45,27.21,19.32,27.34,19.3Z"/></g><g id="g700"><path id="path698" class="cls-3" d="M26.15,24.1a.09.09,0,0,1,.1.1c0,.06,0,.13-.1.13s-.08-.07-.08-.13A.09.09,0,0,1,26.15,24.1Z"/></g><g id="g704"><path id="path702" class="cls-3" d="M25.83,24.2a.14.14,0,0,1,.12.15.13.13,0,0,1-.12.12.12.12,0,0,1-.13-.12C25.7,24.26,25.74,24.2,25.83,24.2Z"/></g><g id="g708"><path id="path706" class="cls-3" d="M26.23,24.43c.27-.19.53-.31.58-.25s-.15.27-.43.47-.53.29-.6.23S26,24.61,26.23,24.43Z"/></g><g id="g712"><path id="path710" class="cls-3" d="M27.21,23.79c.17-.14.33-.22.35-.2s-.08.18-.24.33-.33.22-.35.18S27.05,23.92,27.21,23.79Z"/></g><g id="g716"><path id="path714" class="cls-3" d="M26.58,25.35a2.23,2.23,0,0,1,.2-.41l0,0a.78.78,0,0,1,.47-.55l0,0a1.13,1.13,0,0,1,.31-.21c-.06.1-.1.21-.16.29l.06,0a1.32,1.32,0,0,1,.53-.33,2.19,2.19,0,0,1-.39.41l.12.08a2.79,2.79,0,0,1,.6-.37c-.15.15-.29.31-.45.45l.14.09a1.43,1.43,0,0,1,.61-.29,3.48,3.48,0,0,0-.28.24,3.11,3.11,0,0,1,.51-.06,6.32,6.32,0,0,1-.64.25l.17.1A1.25,1.25,0,0,1,29,24.9l-.47.26.14.08a1.07,1.07,0,0,1,.59-.12,2.23,2.23,0,0,0-.44.21l.08.06a1.2,1.2,0,0,1,.55-.13l-.43.21.12.06a1,1,0,0,1,.47,0,3.16,3.16,0,0,0-.37.12l.43.27-.08,0-.65-.23a.1.1,0,0,0-.08,0s0,0,0-.06l-.17,0c-.08,0-.18.1-.28.14a.73.73,0,0,1,.16-.18l-.16-.06-.29.14a1,1,0,0,1,.17-.2l-.17-.06a3.26,3.26,0,0,1-.34.22,1.28,1.28,0,0,1,.2-.26l-.22-.09a3.5,3.5,0,0,1-.31.27.71.71,0,0,1,.16-.31l-.2-.08c-.1.1-.23.21-.35.31a1.55,1.55,0,0,1,.21-.35L27,25A2.68,2.68,0,0,1,26.58,25.35Z"/></g><g id="g720"><path id="path718" class="cls-3" d="M24.29,26a8.87,8.87,0,0,0-.71,3,6.89,6.89,0,0,0,0,2.22c.08.41.26.56.45.54l3-.49c.22-.05.45-.23.35-.43l-.13-.25-.1.35L27,30.63l-.12.33-.19-.41-.14.49-.18-.39-.11.41-.1-.35-.12.43-.14-.38-.13.46-.16-.44-.12.32-.14-.26-.11.24-.14-.2a.54.54,0,0,0-.43,0l-.06.1-.08-.1-.69-.15.28-.14c0-.1-.1-.14-.28-.12l.3-.23-.33-.06.31-.18c0-.08-.08-.16-.33-.27l.33-.1v-.08l-.33,0,.35-.16c0-.09-.06-.15-.28-.23l.28-.08a.32.32,0,0,0-.24-.26l.24-.09-.24-.18.3-.12c0-.1,0-.15-.22-.23l.32-.14a.42.42,0,0,0-.3-.22l.3-.11-.24-.16.29-.12-.23-.08.27-.17c.06-.06,0-.12-.27-.14l.31-.12,0-.13-.29.05.14-.13-.18-.14.43-.1,0-.08-.31-.09.25-.14A.22.22,0,0,0,24.29,26Zm.47.43.07,0a12.15,12.15,0,0,0-.19,4.08c-.1-1.94.14-4,.51-4.35l.06.14A8.41,8.41,0,0,0,25,30.45c-.18-2.12,0-3.35.35-4v.2a8.16,8.16,0,0,0,0,3.68l.08-.06a11.82,11.82,0,0,1,.16-4l.14,0a10.84,10.84,0,0,0-.08,3.91l.08-.08a10.92,10.92,0,0,1,.11-3.75l.12,0a10.86,10.86,0,0,0,0,3.77l.08,0a11.51,11.51,0,0,1,.14-3.79l.08.08a14.83,14.83,0,0,0,0,3.65l.08,0a16.53,16.53,0,0,1,.07-3.49l.1-.12a13.87,13.87,0,0,0,0,3.63h.08a15.14,15.14,0,0,1,.06-3.77l.08.06a25.8,25.8,0,0,0,0,3.73l.09,0A13.71,13.71,0,0,1,27,26.43c.16-.06.16.14,0,.37a15,15,0,0,0,0,3.28l.12,0a12.59,12.59,0,0,1,.17-3.63c.1-.1.2,0,.08.26a13.81,13.81,0,0,0-.11,3.37h.15c.16.06.18.12,0,.19a22.41,22.41,0,0,1-2.88.44c-.18,0-.25-.08-.25-.34A12.63,12.63,0,0,1,24.76,26.41Zm3.37.83.12-.61c.15-.08.21,0,.19.12l-.27.51Zm-.22-.65c-.15,1-.15,1.63-.25,2.7l.08.18a15.72,15.72,0,0,1,.35-2.84C28.15,26.47,28,26.43,27.91,26.59Zm-.31,0c.06-.08.16-.06.14,0a19.34,19.34,0,0,0-.28,3.1H27.4A11.44,11.44,0,0,1,27.6,26.55Zm-4.24,6.68a2.49,2.49,0,0,1,.14-1c0-.14.18-.22.43-.24l2.73-.41c.15,0,.17.06.15.25a2.18,2.18,0,0,1-.21.71c-.1.08-.12-.26-.1-.8-.21.49-.12,1-.45,1.09-.14-.23.08-.66.12-1-.3.28-.2.63-.47,1-.1,0-.08-.33,0-.88a2.58,2.58,0,0,1-.41.88,1.64,1.64,0,0,1-.06-.76c-.12.53-.26.9-.38,1a2.59,2.59,0,0,1,0-.88l-.07-.06a2.22,2.22,0,0,1-.28,1,1.19,1.19,0,0,1,0-.94h-.12c-.08.27-.13.49-.25.57s-.24-.2-.24-.51A2,2,0,0,1,23.36,33.23Z"/></g><g id="g724"><path id="path722" class="cls-3" d="M28.52,27.45c-.16.12-.22.26.1.24-.22.21-.24.35-.06.41-.41.51-.41.65,0,.43-.45.57-.39.65-.08.55-.39.47-.33.53-.21.55-.26.37-.26.55,0,.53a.63.63,0,0,0-.38.57c-.09.33-1,.7-.23,1,.23.12.41.42.55.95.06.29.19.31.43.21a3.37,3.37,0,0,1,.61-.1c.39,0,.41-.39,0-.45,0-.17-.1-.25-.32-.15.18-.3,0-.22-.13-.26.13-.06.11-.2-.22,0l0-.1a.34.34,0,0,0,.26-.29l-.55.18c.17-.14.25-.24.23-.34l-.39.08c.41-.29.57-.49.55-.59l-.43.12c.31-.25.51-.45.49-.57l-.37.14c0-.12.17-.24.47-.33s.37-.28.33-.51l-.55.27a4.17,4.17,0,0,0,.92-1c0-.14-.49.16-1.08.65v-.1a4.57,4.57,0,0,0,1.32-1.35L28.6,29l1-1.16c-.06-.15-.35,0-.9.59l0-.12.51-.56a1.86,1.86,0,0,0,.8-.85c.1-.27-.24.08-.78.55-.12.12-.26.18-.4.32l1.24-1.3,0-.16C30,26.18,29.19,27.12,28.52,27.45Zm-1.47,5c-.22-.14,0-.47.18-.33l.62.45c.18.15,0,.39-.15.29Zm.25-.39c-.23-.14,0-.43.18-.3l.33.32c.18.17.06.31-.11.23Zm1.3,1.23c-.16-.08-.24,0-.14.12a3.7,3.7,0,0,0,.86.55,2,2,0,0,0,.94.18c.22,0,.32-.14,0-.2A7.3,7.3,0,0,1,28.6,33.33Zm.16,0c-.1-.13-.08-.23.07-.31l.73-.06a.5.5,0,0,1,.39.24l.35.39c.14.19,0,.33-.13.29A8.59,8.59,0,0,1,28.76,33.31Z"/></g><g id="g728"><path id="path726" class="cls-3" d="M29.5,31.37a1,1,0,0,1,.57-.49,10,10,0,0,0,2-.49c.21-.15.29-.1.27.12a2.55,2.55,0,0,1-.33,1.33V30.73l-.08,0a2.36,2.36,0,0,1-.29,1.12l0-1h-.1l-.22,1,.06-.88c0-.12,0-.14-.1-.08-.15,1-.33,1.45-.53,1.59A3.52,3.52,0,0,0,31,31l-.06,0a4.56,4.56,0,0,1-.33,1.43c-.2-.31.19-.84.1-1.35h0l-.36,1.27c-.13,0-.09-.17,0-.49l0-.72-.06,0a4,4,0,0,1-.35.92l.06-.94-.26.68,0-.55Zm3-.78c0-.22.27-.16.16.06l-.12.29H32.5Zm-.06.84s0,.06,0,.14,0,.14,0,.14,0-.06,0-.14S32.44,31.43,32.46,31.43Zm.1-.31s.06,0,.06.08,0,.09-.06.09a.09.09,0,0,1-.08-.09A.07.07,0,0,1,32.56,31.12Zm0-1.24c.06,0,.1.08.12.18s0,.21,0,.21-.08-.07-.1-.17A.33.33,0,0,1,32.54,29.88Zm-.3-.59a.54.54,0,0,1,.18.49c0,.2-.18.34-.18.2a1.37,1.37,0,0,0-.15-.63C32,29.24,32.15,29.2,32.24,29.29Zm-1.5-.37c0-.21.19,0,.19.08l-.06.33c-.06.06-.08,0-.15-.11ZM30,30c-.16.1-.16.18,0,.24l.08,0v0c0,.09,0,.15.08.15s.09-.06.09-.15v-.06l.18,0v.41l-.2,0s-.05-.06-.07-.06a.09.09,0,0,0-.08.08.07.07,0,0,1,0,0s0,0,.08.08l1.37-.3c.41,0,.51-.31.41-.8.06-.16,0-.22-.12-.2l-.31,0,.19-.13c.24-.12.24-.18,0-.18L31.38,29l.34-.06c.11,0,.15-.14,0-.21l-.36,0,.28-.06c.19-.14.08-.24-.26-.28.12-.15.1-.25,0-.25s-.25-.24-.19,0l.08,1.35c.05.14,0,.24-.18.31Zm.78-.53a.1.1,0,1,1,0,.2.1.1,0,0,1,0-.2Zm.81.43a0,0,0,0,1,0,0s0,.06,0,.06,0,0,0-.06A0,0,0,0,1,31.62,29.88Zm-.08-.27c.08,0,.14,0,.16,0s0,.11-.12.13-.14,0-.16-.07S31.46,29.63,31.54,29.61Zm-.94.88h0v-.41l-.1,0Zm.23-.06.1,0V30l-.19,0Zm.24-.08.06,0V30l-.08,0Zm.19-.08a.08.08,0,0,0,.06,0c.14-.16.14-.24,0-.28h0Z"/></g><g id="g732"><path id="path730" class="cls-3" d="M34.42,11a3.11,3.11,0,0,0-3,1,2.91,2.91,0,0,0-.63,1.66c0,.1.22-.12.49-.47l-.17-.06a1.33,1.33,0,0,1,.19-.35c0-.06,0-.16.14-.22a.42.42,0,0,0,.2-.23h-.14a2.15,2.15,0,0,1,1.86-.69l.57.06a.4.4,0,0,0,.27-.06c.06,0,.08-.1,0-.1a4.86,4.86,0,0,0-1.94.08,3.62,3.62,0,0,1,2.1-.29C34.77,11.3,34.79,11,34.42,11Zm-3,10.91c.06,0,.08.16,0,.3s-.14.23-.2.21-.11-.17-.07-.29S31.38,21.86,31.46,21.88ZM30,22.47s.06.1.06.2,0,.21-.06.21-.06-.09-.06-.21S30,22.47,30,22.47Zm.12.71a1.42,1.42,0,0,1,.57-1c.29-.2.35-.14.13.15a6.24,6.24,0,0,0-.49.87C30.26,23.37,30.07,23.51,30.11,23.18ZM31,21.63a1.14,1.14,0,0,0-.65.55c-.11.25-.06.27.12.08a5.69,5.69,0,0,1,.61-.49C31.13,21.71,31.21,21.57,31,21.63ZM29.21,23c-.14.18-.12.24.13.14a3.74,3.74,0,0,1,.87-1.1l.7-.61c.53-.13.84-.7.94-1.66l0-.12a3,3,0,0,1-1,1.43,4.07,4.07,0,0,0-1,1c-.13.12-.13.26-.23.43A5.5,5.5,0,0,0,29.21,23Zm-.16-.43c-.12.22,0,.31.1.12a7.68,7.68,0,0,1,1.29-1.51,4,4,0,0,0,1.37-1.82c.16-.49,0-.63-.15-.32a3.82,3.82,0,0,1-1.06,1.77A5.5,5.5,0,0,0,29.05,22.57ZM29,21.9c-.1.18-.12.32,0,.42.39-.14.26-.75,1.22-1.24.13-.16.09-.23-.12-.16l-.9.65a1.91,1.91,0,0,1,1.06-1,1.25,1.25,0,0,0,.8-.43c.1-.22.06-.29-.1-.18-.55.36-1,.51-1.45.83A2.24,2.24,0,0,0,28.7,22Zm-.06-1.19c.16-.35.61-.57,1.24-.77a2.55,2.55,0,0,0,1.09-.82c.32-.2.26,0,.16.2a.91.91,0,0,1-.41.39,3.48,3.48,0,0,1-.9.51,2.22,2.22,0,0,0-1,.7C29,21.06,28.87,21,28.93,20.71Zm1-1.16a2.28,2.28,0,0,0,.77-.68c.29-.4.41-.42.33,0a1.24,1.24,0,0,1-.84.9C29.72,19.94,29.6,19.73,29.89,19.55Zm1.28-.94.15-.74a1.36,1.36,0,0,1,.3-.77l.23-.61c.06-.25.16-.23.16.08l-.14.39c.12.06.06.18,0,.3s0,.31-.17.35a2.11,2.11,0,0,1-.26,1.14C31.17,19.06,31.09,19,31.17,18.61Zm-1-.1.33-.8c.08-.28.22-.45.41-.47l.45-.43c.1-.12.16,0,.1.15l-.33.53a2.3,2.3,0,0,1-.61,1.26c-.08.08-.22.08-.14,0l.39-.77-.49.67C30.15,18.79,30.13,18.65,30.19,18.51Zm-.57.32c.19-.49.25-.75.43-.91s.29-.21.14.06A2,2,0,0,0,30,19C30,19.39,29.44,19.3,29.62,18.83Zm0-.65c0,.16,0,.12.12,0l.19-.51a5.84,5.84,0,0,0,.75-.71c.13.18.35,0,.7-.45a1.38,1.38,0,0,0,.75-.94c.1-.35,0-.41-.18-.19a5.44,5.44,0,0,0-.7.9c-.38.12-.69.55-1.14.76a.4.4,0,0,0-.16.37C29.72,17.53,29.6,17.73,29.58,18.18Zm0-1a.15.15,0,0,1,.17-.06.13.13,0,0,1,0,.18c-.05.08-.13.11-.19.06A.16.16,0,0,1,29.62,17.18Zm2.27-3.49a2.62,2.62,0,0,1,1-.74c.39-.16.36.15.1.15s-.49.18-1,.77C31.87,14,31.72,13.89,31.89,13.69Zm-2.7,4.16a1.42,1.42,0,0,1,.45-1.4c.94-.58,1.27-1.41,1.57-1.39a7.29,7.29,0,0,1,1.33-1.59c.41-.29.49-.23.27.22a8.24,8.24,0,0,1-1.72,2.12.76.76,0,0,0-.57.39l.37-.18c.18,0,.2,0,.08.16-.31.16-.82,1-.94.45-.2.39-.55.33-.57.71l0,.51C29.34,18,29.28,18,29.19,17.85Zm3.64-5.34c.18,0,.26.08.12.24a3.4,3.4,0,0,0-1.29,1,.42.42,0,0,1-.24.47c0,.31-.19.45-.49.49l-.45.57c.1.15-.06.37-.39.7s-.28.16-.24-.21c.24-.67.71-1.65.94-1.65s.12,0,.16-.27.18-.12.14,0,0,.19.12.06A3,3,0,0,1,32.83,12.51Zm-1.37.2A2.61,2.61,0,0,1,33.64,12c.25,0,.21.26,0,.24a2,2,0,0,0-.57.1,2.27,2.27,0,0,0-.67.21,3,3,0,0,0-1.1,1.1c-.13.06-.15,0-.09-.12a1.93,1.93,0,0,1,1.41-1.17l0,0c-.28-.06-.63.06-1.14.53C31.42,12.93,31.4,12.87,31.46,12.71Zm.45-.63a2.23,2.23,0,0,1,1.55-.37c.37,0,.37.27.16.24a2.77,2.77,0,0,0-1.67.21C31.75,12.26,31.79,12.16,31.91,12.08Z"/></g><g id="g736"><path id="path734" class="cls-3" d="M34.75,10.4c-.15-.18,0-.28.2-.26a3.49,3.49,0,0,1,1.53.49c.21.14,0,.28-.1.18L36,10.59c0,.18-.14.1-.39-.11-.16.17-.36.09-.59-.16l.14.41c0,.08-.06.08-.1,0Zm.87.33c-.08.06,0,.2.09.27s.18,0,.14-.09S35.71,10.67,35.62,10.73Z"/></g><g id="g740"><path id="path738" class="cls-3" d="M36.93,11.24c-.06,0-.2-.1,0-.14-.2-.13-.12-.29,0-.31.55,0,1-.33,1.61,0l.29.33c.18.43,0,.63-.23.32s0-.34-.32-.49a2.09,2.09,0,0,1,.28,1c.47.45,0,.56-.08.27l-.18-.84c0,.41.06.72,0,.72s-.06-.29-.12-.64c0-.14-.09-.4-.17-.42a2,2,0,0,0-.94,0c.45,0,.76,0,.86.12a.72.72,0,0,1,.1.63c-.1.16-.16.12-.16-.08l-.06-.27c0-.14-.19-.16-.41-.14A.65.65,0,0,1,36.93,11.24Z"/></g><g id="g744"><path id="path742" class="cls-3" d="M31.26,26.49a21.5,21.5,0,0,0,2.26,3.1c.1.12,0-.24.1-.1a3.8,3.8,0,0,0,.6.88c.12-.1-.27-.45-.33-.86l1.16,1.35c.1-.19-.57-1-1.12-1.68L34,29.1l1.33,1.74.06,0a11.45,11.45,0,0,0-1.23-1.9l0-.14c.24.3.57.77.83,1.16A6.68,6.68,0,0,0,35.89,31c.49.12-1.16-1.61-1.92-3.06l0-.08a11.52,11.52,0,0,0,2.57,3.18c.1.06.19-.06.08-.18A28.41,28.41,0,0,1,34.34,28l0-.08c.86,1,1.3,2.18,2.94,3.16.1.06.16.17.26.08.37-.28-1.41-.71-2.77-3l0-.16a11.33,11.33,0,0,0,1.06,1.39c.65.71,1.67,1.55,1.84,1.43s-1.47-1.27-2.35-2.64l0,0A9,9,0,0,0,38.52,31c.21.1.12.08.37.08.63,0-1.41-1-2.47-2.16l0-.1c.31.26.69.61,1.12,1a17.16,17.16,0,0,0,1.47.93c.39.21.7.33.84.27.37-.18-1.41-.82-1.86-1.29a8.12,8.12,0,0,0,.76.35c.77.39,1.32.65,1.45.51s-.33-.33-1-.59c-.09-.08,0-.1.18-.06a5.09,5.09,0,0,0,1.39.49c.26-.08-.17-.27-.66-.57.62.26,1.15.51,1.43.42.11,0-.34-.26-.73-.61.55.35,1.86.82.61-.06l.08,0c.47.35,1.06.49.35-.08h.1c.41.33.63.57.33-.1.41.59.81.81.26,0l.64.49c-.23.1-.21.16,0,.28.53.35.57.29.47,0a1.1,1.1,0,0,0-.51-1.14c-.41-.27-.39,0,.08.77a1.57,1.57,0,0,1-.43-.47A.52.52,0,0,0,42.3,29a22.81,22.81,0,0,0-2.8.33A2.26,2.26,0,0,1,38,29.12c-.24-.2-.32-.28-.2-.51a.29.29,0,0,0-.12-.39l-.66-1.3c.08.14.19.2.27.32.26.43.45.78.51.76-.1-.29-.45-.92-.72-1.63.51.89,1,1.67,1.09,1.57a8.43,8.43,0,0,0-.88-1.72l.24.27c.17.2.31.39.39.35-.33-.68-.67-1.11-1-1.23-.57-.2-.92-.28-.84.08l-.28-.32-.31,0c-.1,0,0,.2.25.55l-.07,0-.34-.55c-.1-.07-.25-.13-.27,0l.19.36-.39-.43c-.19-.1-.39-.14-.39-.06l.57.94c-.1-.14-.26-.28-.41-.49s-.4-.53-.67-.57.27.41.63,1.29l-.88-1.27c-.08-.06-.42-.12-.44,0l1,1.47a8.61,8.61,0,0,1-1.21-1.49.22.22,0,0,0-.18-.06s-.08,0-.12,0L34,26.71a7.16,7.16,0,0,1-.67-.69c-.27-.37-.51-.61-.72-.94a.19.19,0,0,0-.26,0c-.1.14.94,1.2,1.39,1.84a10,10,0,0,1-1.58-1.84c-.2-.1-.34-.1-.4,0s1.26,1.39,1.77,2.18a22.54,22.54,0,0,1-1.92-2.18c-.08-.1-.32-.1-.32,0s1.14,1.25,2.06,2.51a18.86,18.86,0,0,0-1.84-1.92c-.16,0,.41.7,1.72,2.19a17.86,17.86,0,0,1-1.8-1.9c-.16.14.55,1,1.59,2.18L31.4,26.41C31.17,26.26,31.13,26.28,31.26,26.49Zm6.94-.39c-.15-.2.06-.31.22-.06a13.48,13.48,0,0,1,.86,1.55c.1.25,0,.31-.15.08A10.15,10.15,0,0,0,38.2,26.1Zm-.64-.2c-.1-.17.17-.27.37,0a12.45,12.45,0,0,1,1.2,2c.19.41,0,.51-.18.14A13.14,13.14,0,0,0,37.56,25.9Z"/></g><g id="g748"><path id="path746" class="cls-3" d="M34.64,12.1a1.46,1.46,0,0,0,.58,1.14,6.2,6.2,0,0,0-.31-.59C34.79,12.36,34.73,12.14,34.64,12.1Zm1.27,12.74a2.06,2.06,0,0,0-1-1.52c0,.15.43.49.67.92s.25.51.35.6Zm0-.62a6.86,6.86,0,0,1-.35-.61c-.2-.35-.55-.69-.57-.8A2.15,2.15,0,0,1,35.89,24.22Zm-.08-.77a4.48,4.48,0,0,1-.27-.47c-.16-.27-.43-.53-.45-.61A1.46,1.46,0,0,1,35.81,23.45Zm-.08-.8a.91.91,0,0,0-.49-.71c0,.06.18.22.3.41A1.78,1.78,0,0,0,35.73,22.65Zm-.31-11.19a1.45,1.45,0,0,0,.33,1.25,3.67,3.67,0,0,0-.19-.67A2.14,2.14,0,0,0,35.42,11.46ZM31.81,24.61c-.31,0-.37,0-.39-.35C31.56,24.41,31.68,24.47,31.81,24.61Zm-.41-.53c.2.2.41.33.61.55a.3.3,0,0,0,.31,0c-.33-.35-.64-.55-1-.9C31.36,23.81,31.38,24,31.4,24.08Zm-.08-.57c.43.43.75.69,1.14,1.1.12.06.2.06.27,0-.47-.59-.9-1-1.37-1.63A2.46,2.46,0,0,0,31.32,23.51Zm.08-.65c.53.61,1,1.14,1.59,1.81.16.08.29.08.35,0-.53-.69-1.21-1.45-1.82-2.2,0,.1-.06.18-.1.26A.2.2,0,0,0,31.4,22.86Zm.14-.51c.7.79,1.33,1.51,2.06,2.38a.3.3,0,0,0,.29,0c-.08-.08-.57-.67-.65-.77-.6-.74-.94-1.12-1.62-1.94A2,2,0,0,1,31.54,22.35Zm.12-.43c.74.81,1,1.18,1.8,2.12.08.12.51.55.59.65s.45.21.29.06,0,0-.21-.3c-.65-.8-1.73-2.1-2.38-2.92C31.72,21.67,31.68,21.79,31.66,21.92Zm.11-.49c0-.13,0-.23.06-.33.61.78,1.81,2.22,2.51,3.08.37.45.34.43.55.66,0,.1-.08.06-.23,0a5.38,5.38,0,0,1-.34-.43C33.46,23.43,32.52,22.26,31.77,21.43Zm.06-.43a3.71,3.71,0,0,0,.06-.45,16.24,16.24,0,0,0,2.63,3.06c-.08-.41-1.39-1.53-2.18-2.59a7.57,7.57,0,0,1-.41-.78c0-.12,0-.22,0-.37a10.41,10.41,0,0,0,2.65,3.23c-.14-.37-1.41-1.39-2.08-2.47A7.94,7.94,0,0,1,32,19.57v-.18a11,11,0,0,0,2.65,3.22c-.12-.37-1.42-1.43-2.06-2.47a10.11,10.11,0,0,1-.55-1.08v-.21a12.93,12.93,0,0,0,2.8,3.43c-.12-.34-1.59-1.63-2.21-2.63a8.5,8.5,0,0,1-.55-1.12v-.29a10.28,10.28,0,0,0,2.72,3.39c-.13-.35-1.53-1.51-2.11-2.47A7.85,7.85,0,0,1,32.13,18a1.47,1.47,0,0,1,0-.31,8.26,8.26,0,0,0,2.62,3.27c-.13-.31-1.43-1.37-2-2.27a11.48,11.48,0,0,1-.64-1.26,2,2,0,0,1,0-.35,7.57,7.57,0,0,0,2.49,3.24c-.08-.3-1.3-1.26-1.83-2.12a8.75,8.75,0,0,1-.64-1.37v-.06c0-.12,0-.26,0-.39a6.8,6.8,0,0,0,2.36,3.37c-.08-.26-1.2-1.22-1.67-2a12.24,12.24,0,0,1-.69-1.45c.34-2.94,1.59-4.67,3.4-5l.05,0a1.93,1.93,0,0,0,.2,1.19,6.4,6.4,0,0,0-.08-.84v-.31l.16,0c0,.41.16.8.35.84a1.44,1.44,0,0,1-.17-.76l.23.07c0,.42.14.89.35.91a1.18,1.18,0,0,1-.17-.83l0,0a1,1,0,0,0,.19.41c.08-.11,0-.31,0-.53a.69.69,0,0,1,.77.08c.11.12.06.18-.08.18h-.14l.33.14s.08.09-.11.11l-.12.1.43,0c.14.06.12.1.08.16l-.1.12a2.61,2.61,0,0,1,1.22.33c0,.16-.2.14-.55,0,.08.2.41.22.39.35s-.53,0-.76.3l.56,0c.12.09.08.15-.11.15.29.34.51.45.6.2s.16-.18.24,0c.35.21.41.23.21.27l-.33.06.39.06a.1.1,0,0,1,0,.18c-.27,0-.29.08.2.1.21.11.29.21.21.29-.43,0-.41.08.1.12.12.06.16.15.14.21-.26.06-.22.12.1.12,0,.06.08.1,0,.16-.3.08-.26.13.13.13,0,.14.24.12.32.3.33-.06.47.16.19.16l0,.07c.46,0,.67.14.61.42s-.68-.24-.41.74l.1.1c.19,0,0-.45.29-.41,0,0,.08.17,0,.41s-.21.33-.43.19S41,17.14,41,17l0-.31c-.22,0-.26-.12-.28-.35,0,0-.08,0-.06-.08a.49.49,0,0,0-.64.33c0,.1-.1,0-.14-.08s-.12,0-.2,0,0-.15-.11-.13,0,.06-.12.06,0-.16-.16,0-.1.09-.12,0,.1-.3-.13,0c-.08,0-.1,0-.14-.06q-.18-.52-.24-.06c-.07.12-.13.14-.13,0-.12-.53-.14-.53-.1,0,0,.22-.08.2-.2-.06-.15-.43-.21,0-.31-.17s0-.59-.28-.69l.14.71c0,.11-.17.13-.19,0a3.31,3.31,0,0,0-.32-1l.18,1c0,.08-.2,0-.24-.08L37,14.53c-.06-.35-.06.65.08,1.08,0,.06-.16.06-.14,0a5.61,5.61,0,0,0-.24-1.21c-.15.15.24,1.31-.07,1.13,0,0-.14-1.19-.18-1.21s0,1.12,0,1.1c-.33-.4,0-1.51-.2-1.57-.05,0-.15,1.35-.19,1.31.14,1,1,1.08.92,1.39l-.59-.31c.16.31.41.63.57,1-.18.06,0,.31.14.43-.18,0-.14.1.21.43.08.06.1.12.08.18-.43-.1-.47-.1.22.45-.43-.06-.45,0,0,.31a.5.5,0,0,1,.21.3c0,.09-.06,0-.1,0s-.21-.12-.25-.14,0,.14.53.57c.14.13.21.23.1.27-.69-.43-.65-.33.11.32.18.29.2.41.14.45-.61-.51-1-.83,0,.23.18.18.22.3.08.33-1.06-.8-.49-.27.23.46,0,.05,0,.11,0,.09-1-.76-1.06-.58,0,.55,0,.1.1.18.06.26s-.11,0-.15,0c-.73-.69-.67-.55.17.59.12.19.18.35,0,.25-.92-1-1.21-1.27,0,.33.12.2.14.3,0,.24-.84-1.14-.86-1,0,.23.07.14.07.16,0,.14-.75-.92-1-1.14,0,.2.13.25.11.29,0,.17-.91-1.15-.94-1,0,.18.08.14.13.22,0,.16-1.06-1.2-1.06-1.16,0,.15,0,.32,0,.3-.18.14s-.1-.23-.21-.33c-.65-.79-.73-.73,0,.29-.08.08-.18.08-.3,0-.68-.88-.74-.88-.21,0l-.36-.06a.84.84,0,0,0-.21-.27c-.63-.61-.85-.67-.22.12,0,0,0,0,0,.06l-.72-.12a.34.34,0,0,1-.26-.14,4.67,4.67,0,0,0-1-1.23c0,.19.43.51.73,1,.08.33-.28.19-.41.13-.22-.31-.3-.35-.63-.74C33.6,23.08,32.62,21.85,31.83,21Zm2.47-8.58a6.19,6.19,0,0,1,.3.62c.17.32.41.63.43.73A1.75,1.75,0,0,1,34.3,12.42Zm-.31.33c.08.08.14.35.33.72a7.42,7.42,0,0,1,.53.85A2.24,2.24,0,0,1,34,12.75Zm-.29.37c.11.08.17.39.39.79s.62.84.64,1A2.41,2.41,0,0,1,33.7,13.12Zm-.24.37a2.92,2.92,0,0,0,1.16,2c0-.15-.49-.62-.73-1.09S33.56,13.59,33.46,13.49Zm-.22.38A3.3,3.3,0,0,0,34.56,16c0-.17-.57-.7-.86-1.21S33.34,14,33.24,13.87Zm-.21.39a3.64,3.64,0,0,0,1.47,2.35c0-.18-.65-.74-1-1.31S33.15,14.38,33,14.26Zm-.2.39a4.09,4.09,0,0,0,1.63,2.55c0-.2-.71-.82-1.08-1.43S33,14.79,32.83,14.65Zm-.17.39a4.46,4.46,0,0,0,1.78,2.75c-.06-.22-.8-.87-1.18-1.53S32.81,15.2,32.66,15Zm-.14.41a4.8,4.8,0,0,0,1.92,3c-.08-.25-.88-1-1.31-1.68S32.66,15.61,32.52,15.45Zm-.16.38a5.79,5.79,0,0,0,2.14,3.25c-.08-.27-1-1.1-1.47-1.86S32.52,16,32.36,15.83Zm2.69-4c.06,0,.15.25.23.47a5.07,5.07,0,0,1,.2.49A1.09,1.09,0,0,1,35.05,11.81Zm5.33,5.39c-.22-.22-.37,0-.06.33s.55.16.47.08Zm-1.65-2.53s0,.24,0,.37a.44.44,0,0,0,.12.3c.08.11.12.13.1.08a2.75,2.75,0,0,1-.18-.61A.14.14,0,0,0,38.73,14.67Zm-.29-.31s0,.29,0,.43a.68.68,0,0,0,.12.37c.09.1.13.14.11.1a2.53,2.53,0,0,1-.17-.73A.28.28,0,0,0,38.44,14.36Zm-.31-.3s0,.3,0,.47a.76.76,0,0,0,.13.45c.08.12.12.16.1.1a4.74,4.74,0,0,1-.16-.84C38.22,14.12,38.2,14.08,38.13,14.06Zm-.28-.31s0,.35,0,.53a.92.92,0,0,0,.1.51q.15.23.12.12a6.42,6.42,0,0,1-.14-.95C37.93,13.81,37.89,13.77,37.85,13.75Zm-.29-.33a4.33,4.33,0,0,0,0,.62,1.06,1.06,0,0,0,.1.55c.09.18.15.22.13.16a5.64,5.64,0,0,1-.13-1.08A.35.35,0,0,0,37.56,13.42Zm-.3-.3a4.77,4.77,0,0,0,0,.67,1.08,1.08,0,0,0,.1.61c.08.21.12.25.12.19a6.87,6.87,0,0,1-.12-1.21C37.36,13.22,37.32,13.16,37.26,13.12Zm-.27,0a5.15,5.15,0,0,0,0,.53.89.89,0,0,0,.08.51c.06.16.1.2.1.14a5.72,5.72,0,0,1-.08-1C37.07,13.22,37,13.18,37,13.14Zm-.22,0s0,.28-.06.43a.68.68,0,0,0,0,.39c.06.14.08.16.08.12a3.3,3.3,0,0,1,0-.76A.22.22,0,0,0,36.77,13.14Z"/></g><g id="g752"><path id="path750" class="cls-4" d="M15.72,5.79c.61.76,1.18,1.47,1.84,2.33,0,.14-.06.22-.23.22-.67-1-1.18-1.73-1.69-2.47C15.54,5.73,15.66,5.71,15.72,5.79ZM18.8,11c.06.16-.06.24-.18.08a.77.77,0,0,1,.08-1,.7.7,0,0,1,1-.11c.21.17.15.19-.1.19C19,10.16,18.68,10.51,18.8,11Zm.72-.33c-.29-.1-.37,0-.31.33,4.08,5.75,10.27,14.16,17.56,24.08l0,.15.61.34-.21-.81-.12.08C31.4,27,24.89,17.81,19.52,10.71Z"/></g><g id="g756"><path id="path754" class="cls-5" d="M29.42,12.22c0-.14.53-.51,1.22-1a1.38,1.38,0,0,1,.86-.33,1,1,0,0,0,.37,0c.16.11.1.19-.08.23a.24.24,0,0,0-.25,0c-.18,0-.2.16-.33.2l-.08-.12c-.24.16-.41.61-.59.84l0-.23c-.12,0-.2.29-.39.43,0-.16,0-.24-.08-.24-.31.2-.53.3-.61.22Zm-8.11,10.7c.19,0,.35.06.35.12s-.16.14-.35.14S21,23.12,21,23,21.11,22.92,21.31,22.92Zm1.39-.29c.12-.18.27-.26.31-.22s0,.24-.12.4-.27.29-.31.23S22.6,22.81,22.7,22.63Zm-.45.25c.08-.15.19-.23.23-.19s0,.19-.08.33-.21.22-.25.18S22.15,23,22.25,22.88Zm-.41.08c.09-.13.17-.19.19-.17s0,.17-.06.29-.17.16-.21.14A.31.31,0,0,1,21.84,23Zm-6.79-1.45-.08.22c.1,0,.18-.12.28-.18l-.08.37c.12,0,.41-.29.61-.43l-.14.37c.18,0,.31-.27.45-.41l-.08.38c.22,0,.36-.3.55-.46l0,.36c.16,0,.28-.24.45-.39l.08.27c.14,0,.22-.18.34-.27l.07.25.3-.31.06.27.35-.12.1.14.29-.14,0,.3.39-.16,0,.2.28-.16v.27l.33-.09,0,.25.49-.21-.16.37.42-.26-.06.28.47-.2-.26.43c.3,0,.41-.21.61-.31l-.14.39a1.6,1.6,0,0,0,.83-.63c.07.1,0,.26-.2.61a1.17,1.17,0,0,0,.61-.61l-.1.42a.88.88,0,0,0,.59-.46l0,.4a1,1,0,0,0,.37-.49c.2.09.43,0,.51-.36s0-.41-.23-.31a4.14,4.14,0,0,1-3.75.27A14.28,14.28,0,0,0,16.19,21C15.68,21,15.25,21,15.05,21.51Zm2.59-4.39a1.18,1.18,0,0,1,.45-.39l0,.19.49-.17,0,.17.53-.29c-.31.39-.37.55-.26.55s.47-.45.59-.33c-.27.41,0,.29.43-.08.12,0-.17.33-.13.37s.21-.08.53-.31c.09-.06.27-.26.31-.16s-.1.18-.16.27c-.33.38-.25.32.32-.05.09,0,.21-.14.29-.1-.39.51-.22.41.35.06.08,0,.18-.18.28-.08-.71.64-.59.72.33.27-.43.49-.33.51.35.08.06,0,.14,0,.22,0-.31.3-.35.53-.2.45a1.36,1.36,0,0,1,.65-.19c-.29.29-.27.41.1.35.12,0,0,.18-.37.43-.06.1-.12,0-.18-.25,0,.15-.1.15-.16.07l-.08.53-.13,0v-.31q-.09-.12-.18,0l-.1.41-.19-.1a.86.86,0,0,1-.28.38c-.12-.16-.21-.12-.25,0s-.12,0-.2,0c-.06.19-.12.23-.23.11a2.41,2.41,0,0,0-.46.36l-.09-.2c-.14.2-.26.33-.34.29l-.15-.15-.22.37-.37.1c0,.1.14.1.39.06a10.73,10.73,0,0,0,1.37-.3c.41-.13.85-.19,1.34-.39s.84-.51,1.29-.74c.1.09,0,.29-.84,1l-.4-.12.22.31a.31.31,0,0,1-.29.12l-.36-.18.12.38c-.27,0-.39-.32-.63-.18l.1.31L21,19.77l.1.37-.47-.2-.1.2c-.15,0-.23,0-.25.1a6,6,0,0,0,3.49-.79c.06,0,.08,0,.08.12a2.19,2.19,0,0,1-1,1.31l.17-.66c-.37.17-.78,1-1.08,1.06l.32-.85-1,.79c-.08-.1,0-.32.25-.61-.29,0-.78.67-.86.63s.16-.3.25-.45c-.27,0-.45.23-.68.35,0-.12.12-.26.37-.49l-.8.37c0-.14.31-.27.37-.47a2.22,2.22,0,0,1-.77.39l.24-.39-.69.37.42-.45-.73.34.2-.38-.53.34.23-.43a1.31,1.31,0,0,1-.66.37c.15-.18.25-.32.23-.43a1.43,1.43,0,0,1-.59.35l.1-.35a1.64,1.64,0,0,1-.67.43l.24-.41c0-.06,0-.14-.06-.08l-.55.45c.12-.22.18-.37.1-.43l-.39.21,0-.23-.45.49c-.06,0,0-.14.09-.37l-.47.31a1.86,1.86,0,0,1,1.2-1,8.74,8.74,0,0,1,1.57-.28A5.92,5.92,0,0,0,20,19a3.55,3.55,0,0,0,.9-.49c.16-.13.1-.17-.09-.15l-.73,0V18l-.29.39L19.74,18l-.24.67-.1-.77-.19.83-.1-.81-.31.94-.08-1-.18,1-.19-1-.12,1L18,18l-.08.91-.27-.93,0,1L17.35,18l-.06.83-.2-.81-.08.73-.17-.67-.1.73c-.3-.57-.43-1-.22-1.3a1.17,1.17,0,0,1,1.12-.37ZM20,14.89c.06,0,.12.09.16.23s0,.26,0,.26S20,15.3,20,15.16A.44.44,0,0,1,20,14.89Zm-2.09-.24c.31-.47.56-.61.72-.25.2-.65.43-.71.71-.14.39,0,.47.59.41,1.47l-.37-1v.63C19.11,14.3,17.54,14.94,17.88,14.65Zm6.78-3.55a3.24,3.24,0,0,1,1.33.45c0,.06,0,.1,0,.06a.82.82,0,0,0-.43-.19c0,.19,0,.27-.06.25-.17-.29-.31-.33-.43-.27s-.06,0-.1,0c-.13-.26-.19-.26-.25-.16C24.56,11.16,24.56,11.1,24.66,11.1Zm-2.3.12c-.11.06-.11.1,0,.12a.3.3,0,0,1,.47,0c0-.26.11-.24.33.08-.08-.32,0-.4.35.09,0-.27,0-.31.24.14.06.08.13.08.15,0-.13-.47-.07-.45.2,0,.08.1.12.1.12,0,0-.32.12-.26.43.19.08.1.12.14.14,0-.06-.27.07-.25.33.08.2,0,.49.14.86.47q.06.09.12.06c-.2-.37,0-.23.37,0,.2-.1.22-.16.1-.21a6.34,6.34,0,0,1-1.67-.81c-.47-.37-.68-.27-1.23-.61A1.16,1.16,0,0,0,22.36,11.22Zm-1,.65c-.24.08-.24.19,0,.23a.61.61,0,0,0,.27,0c.14,0,.2,0,.27.12s.22.29.32.22-.39-.38-.16-.38h.12c.35.32.67.51.65.45l-.14-.37c0-.12.14-.06.23,0l.47.41c.06.08,0-.06-.09-.33,0-.08.09-.08.17,0,.28.29.63.78.63.59v-.18c0-.08.1-.08.16,0s.39.39.37.3l0-.16c0-.1.06-.1.18,0l.49.41c.11.08.19,0,.15,0l-.09-.12c-.06-.11,0-.13.11,0l.43.3c.08.06.08,0,0-.2H26c0,.14.14.18.39.28.06,0,.08,0,.2-.08l.59-.18c.19-.06.17-.19,0-.14a3.89,3.89,0,0,1-2.71-.74,3.88,3.88,0,0,0-3.15-.39Zm8.42.47s0,.1-.07.19a.18.18,0,0,1-.18.06.2.2,0,0,1,.06-.19C29.66,12.34,29.72,12.32,29.77,12.34Zm.65.17c-.14-.11-.21.14,0,.06l.35-.31c.16-.28.06.08.16.06a.66.66,0,0,0,.26-.55l.29-.14c.16-.14.12-.21-.1-.19a3.78,3.78,0,0,0-.76.74l-.24.33Z"/></g></svg>