<svg id="Слой_1" data-name="Слой 1" xmlns="http://www.w3.org/2000/svg" viewBox="0 0 56.69 56.69"><defs><style>.cls-1{fill:#be172c;}.cls-2{fill:#fff;}</style></defs><circle class="cls-1" cx="28.35" cy="28.35" r="24.38"/><circle class="cls-2" cx="28.35" cy="28.35" r="20.32"/><path class="cls-1" d="M13.92,38.75c-.81-.33-1.36-.73-1.24-.92,2.42-.34,3-.85,4.25-2.64,2.56-3.71,3.33-8.94,3.33-13.26,0-3-.39-3.49,2.62-2.5,1.95.65,3.58,2,3.58,3a1.85,1.85,0,0,1-.59.86,1.9,1.9,0,0,0-.75,1.5c-1.2,4.78-2.73,10.81-7.22,13.51a4.94,4.94,0,0,1-3.94.35Zm19.36-4c-1.82-5.85-1.42-12.13-2.87-18a6.33,6.33,0,0,0-3-4.1,7,7,0,0,0-3.39-.2c-1.48.28-.39-1.08,1.71-2.12a7.2,7.2,0,0,1,6.7.61c1.79,1.3,2.44,2.44,3,5.18,1.48,7.5,3,12.07,4.61,14.25,1.48,2,3.72,2.72,5.41,1.83.75-.41,1-.35,1,.2a13.71,13.71,0,0,1-1.16,3.72c-1.52,3-3.39,4.95-6.46,4.63s-4.91-4.06-5.54-5.95Z"/></svg>