<svg id="Слой_1" data-name="Слой 1" xmlns="http://www.w3.org/2000/svg" xmlns:xlink="http://www.w3.org/1999/xlink" viewBox="0 0 56.69 56.69"><defs><style>.cls-1,.cls-6,.cls-9{fill:none;}.cls-2{clip-path:url(#clip-path);}.cls-3{fill:#5685c5;}.cls-4{fill:#231f20;}.cls-5{fill:#c11722;}.cls-6{stroke:#c11722;}.cls-6,.cls-9{stroke-miterlimit:3.86;stroke-width:0.29px;}.cls-7{fill:#fff;}.cls-8{fill:#40993e;}.cls-9{stroke:#0c682f;}.cls-10{fill:#f9eb45;}</style><clipPath id="clip-path"><rect class="cls-1" x="61.65" y="-0.64" width="57.97" height="57.97"/></clipPath></defs><g class="cls-2"><g id="layer1"><g id="g3074"><path id="path3076" class="cls-3" d="M74.07,47.08c20.13,4,35,5.67,55.51-.13V49c-20.63,5.72-35.7,4-55.9,0-17.58-3.49-31.36-6.13-49-.11V46.82c17.69-5.89,31.72-3.25,49.36.26"/></g></g></g><path class="cls-4" d="M24.93,1.47a9.19,9.19,0,0,1,2.68,1.19,12.08,12.08,0,0,1,3.88-1.29,7.12,7.12,0,0,1,1.72-.08A10.77,10.77,0,0,1,37.3,2.36c.74.35,1.44.65,2.15,1,.94.43,2.1,1.07,3.06,1.5A9.66,9.66,0,0,0,47.1,5.93a8.27,8.27,0,0,0,4.18-1.39,3,3,0,0,1,.62.77,3.52,3.52,0,0,0-1.38,2.27c-.21,1.42-.25,3.14-.26,3.27,0,.32.13,24.1.08,25.41a12.55,12.55,0,0,1-.66,3.52c-1.31,4-5,6.88-8.63,8.68-1.77.87-3.4,1.71-5.15,2.38-.13.14-3.7,1.59-5.19,2.45a8,8,0,0,0-2.85,2.26c-.07-.08,0,0-.27-.36-1.35-1.66-3-2.14-4.75-3-1.91-.89-3.91-1.68-5.81-2.58-3.33-1.71-6.71-3.67-9-7.13a20.67,20.67,0,0,1-1.11-2.05,17.23,17.23,0,0,1-.7-2.15,8.53,8.53,0,0,1-.18-1.81S6.09,8.7,6,7.83A4.25,4.25,0,0,0,4.8,5.31a4.17,4.17,0,0,1,.78-.62c1.72,1.72,4.52,1.52,6.52.65,2.28-.85,4.27-2.18,6.52-3.08l1.12-.46a12.7,12.7,0,0,1,2.91-.66,9,9,0,0,1,2.28.33"/><path class="cls-5" d="M35.88,2.58c3.71,1.31,7,4,11.12,4,.92.44,3.28-1.14,3.24-.25-.74,2-.53,4.22-.58,6.34.26,6,.09,12.06.1,18.09-.12,3.67.5,7.74-1.73,11-2.2,3.38-5.77,5.57-9.37,7.21a22.47,22.47,0,0,1-9.82-10.48,14.32,14.32,0,0,1-1-6.58c0-6.64-.07-13.3,0-19.91-.05-2.86,0-5.71,0-8.56,2.08-1.09,4.47-1.91,6.83-1.23a8.58,8.58,0,0,1,1.18.39"/><path class="cls-6" d="M35.88,2.58c2,.77,3.55,1.58,4.24,1.92S42.24,5.56,43,5.82a14,14,0,0,0,2.62.66,14,14,0,0,0,2.14.14,11,11,0,0,0,1.41-.3A10.2,10.2,0,0,1,50.32,6c.24,0,0,.19-.08.36a3.59,3.59,0,0,0-.39,1.45c-.13,1-.18,2.58-.19,3.28V12.7c.25.33.07,21.21.08,23.08A8.37,8.37,0,0,1,49.63,37a9.74,9.74,0,0,1-.15,1.16,10.85,10.85,0,0,1-.71,2.25,6.42,6.42,0,0,1-1,1.62,7.11,7.11,0,0,1-.64.91s-.42.49-.79.88a16.54,16.54,0,0,1-1.92,1.72s-.58.44-1.5,1.09c-.38.27-2,1.21-2,1.21-.3.19-2.23,1.05-2.31,1.12-.67-.38-1.23-.74-1.64-1-.64-.4-1.28-.9-1.55-1.11-.07-.12-.88-.69-1.39-1.17-.3-.28-.42-.36-.91-.85a28.49,28.49,0,0,1-2.56-3.17,19.61,19.61,0,0,1-1.49-2.49,26,26,0,0,1-1-2.86,11.06,11.06,0,0,1-.25-2.54L27.82,16h0c.09-3-.07-6.06,0-9.13,0-1.3-.07-2.2,0-3.41.21-.07.46-.21.95-.44s1.12-.5,1.72-.7A9.47,9.47,0,0,1,31.73,2a6.44,6.44,0,0,1,1.66,0,8.06,8.06,0,0,1,2.48.6Z"/><path class="cls-7" d="M24.25,1.55s0,.09,0,.15a9.65,9.65,0,0,0-5,.74c-2.06.9-4.12,2.06-6.23,2.95h-.18c0-.24.28-.14.38-.29,3-1.28,5.68-3.24,9-3.71a8.55,8.55,0,0,1,2,.16"/><path class="cls-7" d="M42.23,5c.73.34,1.24.59,1.88.83l-.53-.07c-1.74-.68-3.29-1.54-5-2.33C36,2.19,33.35,1.1,30.45,2.05a27.28,27.28,0,0,0-2.61,1c-.07-.13.08-.26.16-.36.28-.13.31-.17.55-.27a10.64,10.64,0,0,1,6-.78A31.13,31.13,0,0,1,40,3.87c.76.34,1.49.77,2.23,1.12"/><path class="cls-7" d="M27.37,17.43c-1.2,2.18-4.42,1.25-5.07,3.92-.46,1.86.31,4.14-.67,5.76a7.23,7.23,0,0,1-3.51,3.11c-1.34.56-2.85,1.82-2.9,3.4a2.58,2.58,0,0,0,0,.78l0,.08c0,2-.16,4.09-1.27,5.68a6.25,6.25,0,0,1-4,2.48,2.63,2.63,0,0,1-.8,0A16.14,16.14,0,0,1,8,40.89,11.06,11.06,0,0,1,7.3,39a8.78,8.78,0,0,1-.41-2.55c0-.24,0-.32.13-.31a2.48,2.48,0,0,0,1.69-1,2.8,2.8,0,0,0,.43-1.7c0-2.19.07-4.38,1.52-6,1.54-2.08,5.26-1.57,5.36-4.76C16,20.42,15.4,18,17,16.24a4.75,4.75,0,0,1,3-1.82c.23-.16.77-.27,1-.44a2.3,2.3,0,0,0,1.59-1.66,2.6,2.6,0,0,0,.08-.54c.13-1.27-.18-2.55.07-3.77a4.48,4.48,0,0,1,1-2.15,6.05,6.05,0,0,1,3.69-2v13.6Z"/><path class="cls-7" d="M51.26,5.06c0,.18-.2.19-.31.29a7.17,7.17,0,0,1-1.27.55,3.59,3.59,0,0,1-1,.23s-.15-.11,0-.18A25.43,25.43,0,0,0,51.23,5Z"/><path class="cls-7" d="M6,6.11a6.18,6.18,0,0,1,.5,2V17a14.64,14.64,0,0,0,0,2l0,17.79a5.94,5.94,0,0,1,.12.86A16.44,16.44,0,0,0,7.3,40l0,0a8.91,8.91,0,0,1-1-4.51V17.35c.08-.55.09-6.69,0-9.19a4.62,4.62,0,0,0-.17-1.1A5.18,5.18,0,0,0,5.4,5.42c.28.11.45.45.63.69"/><path class="cls-4" d="M25.18,6.06a3.68,3.68,0,0,0-1.52,2.75c-.23,0-.08-.4-.13-.6a7.4,7.4,0,0,0,.21-.81A2.62,2.62,0,0,1,25.14,6l0,.11Z"/><path class="cls-4" d="M25.16,7.47a3.78,3.78,0,0,0-.56,1.45c-.07,0-.09-.07-.15-.11A2,2,0,0,1,25.39,7c.22.23-.18.25-.23.45"/><path class="cls-4" d="M38.61,7.16a1.1,1.1,0,0,1,.61.74c.13.14.18.24.28.13s.06-.21,0-.31a1.3,1.3,0,0,0,0-.38.39.39,0,0,1,.36-.09,1.23,1.23,0,0,1,.24.31c.13.14.23.31.26.32a.48.48,0,0,0,.51.26c.27-.18,0-.71.35-.8s.46.16.67.33a1,1,0,0,1,.12.36,2.27,2.27,0,0,1,.66.13.88.88,0,0,1,.43.4.62.62,0,0,1-.16.51s-.11,0-.15,0c.13.08.16.33.36.35,0-.45.35-1.09-.2-1.4a.6.6,0,0,1-.52-.15V7.65a.91.91,0,0,1,.24.2c.42-.12.62.22,1,.11a1.4,1.4,0,0,1,.51.4c.23.1.31.13.5.23-.18-.11.19.28.19.28.12.37-.11,1,0,1.21a.22.22,0,0,0,.25.16c.19-.14.07-.74,0-.74s0-.18.17-.13.05.31.12.43a1.15,1.15,0,0,0,0,.33c.07.09.22,0,.28-.05a.81.81,0,0,1,.83.23c0,.2.15.3.11.53s-.05.15-.11.21a1.17,1.17,0,0,1,.41.73c0,.26-.1.66.13.79,0,0,.06,0,.13.07s-.12.14-.18.13c-.08-.18-.54,0-.54,0,.25,0,.17.41.26.6s-.11.7,0,.77a4.64,4.64,0,0,1,0,1.12c-.13,0-.08.28-.47.4s0,.59-.16.87-.23.59-.38,1c-.17.18-.82.79-.67,1a2.82,2.82,0,0,1,.52-.21A4.12,4.12,0,0,0,46.7,18c.09,0,0-.16.09-.13a8.13,8.13,0,0,0,.05-1.49c0-.31,0,0,.11-.41a1.12,1.12,0,0,1,.48-.31.78.78,0,0,1,.79.21c.32.11.1.6.35.79.09,0,.15,0,.25,0,.08.17-.13.14-.22.18s-.16,0-.24,0-.16-.21-.25-.31-.08.05-.15,0a.24.24,0,0,0,0,.23s.07.61.13.89c0,0,.16.28.24.29s.27.09.28.33a.74.74,0,0,1,0,.7c0,.15,0,.18-.15.22s.16.22.31.23l0,0a1,1,0,0,1,.23,1c-.08.12-.3.32-.27.51,0,0,0,.17.17.18,0,.24.21.4,0,.71a.6.6,0,0,1-.2.4c0,.06,0,.14.07.15s0,.43.11.51c.09.29-.11.67.18.84,0,0,.2.2-.26.78-.21,0-.46.26-.43.38s-.19.23-.05.25.25-.26.51-.22.32,0,.48,0c0,.21-.18.23-.23.43-.28.08-.3.75-.25.87s.3-.1.3-.1h.15c.05.12,0,.2-.08.37a6.56,6.56,0,0,0-.09,1c.08.09.37-.09.29.16a.78.78,0,0,0-.32.25c-.21,0-.2.33-.28.48a.88.88,0,0,1,.28.2.87.87,0,0,0-.64.61c-.06,0,0,.16-.3.43-.1.24-.49.3-.49.3s-.41.09-.46.12l-.34,1.45a8.74,8.74,0,0,1-1.07,2.15c0,.13-.56.74-.56.92a2.58,2.58,0,0,0,0,1.14,1.78,1.78,0,0,0,.46,1A1.2,1.2,0,0,1,46,37a1.6,1.6,0,0,1-.1,1c-.09.2-.38.27-.58.36-.35.15-1.36.9-1.56,1,0,.07-.3.14-.6.45s-.57.46-.7.76a3.3,3.3,0,0,0-.09.35c.12,0,.07.14.09.21-.21.15-.63-.08-.74.09s-.37.54-.82.44c-.17.08-.24.24-.45.25s-.24,0-.23.13c-.1,0-.48.14-.48.2-.39-.12-.41.39-.79.2,0,0,.07-.47.08-.58s-.16-.09-.25,0a1.69,1.69,0,0,1-.25.45.83.83,0,0,0-.44.36c-.11,0-.45.09-.45.09a5.6,5.6,0,0,1-2-.09c-.35,0-.23-.25-.46-.21-.13-.18.1-.59.11-.63a1.61,1.61,0,0,1,.15-.41,10.86,10.86,0,0,1,.45-1.14c.09-.1.25-.2.34-.3a2.37,2.37,0,0,1,1.14.1,1,1,0,0,0,.76-.3c.07,0,.5-.31.5-.31.36.07.66-.12,1-.13a26.91,26.91,0,0,0,2.86-1.92c.3-.25.08-.63,0-.92a1.61,1.61,0,0,0-.39-.73,4.14,4.14,0,0,0-1.51-1c-.26-.07-.22.42-.13.76.16,0,.1.33.1.33s.08.61.08.61a2.35,2.35,0,0,1-.43.69A7.11,7.11,0,0,1,39.12,37l-1.53-.21c-.25,0-.39,0-.57.09s-.57,0-.58,0,0,.24-.2.27-.19,0-.36-.1a5.6,5.6,0,0,0-1-.16c-.27-.1-.86-.12-1-.27s0-.54-.18-.48-.18.1-.3.28l-.1.33a1,1,0,0,0-.25.38c0,.09-.56.22-.56.22l-1.45,0A8.29,8.29,0,0,1,30,37.09c-.11-.27.09-.47.17-.68,0,0,.44-1.16.56-1.12a.59.59,0,0,1,.58-.31,3.16,3.16,0,0,0,.87-.47,1.28,1.28,0,0,1,.81-.31,12.13,12.13,0,0,1,1.92.2l1.6.26a4.8,4.8,0,0,0,1.32.12c.06-.11-.05-.32-.05-.32a4.78,4.78,0,0,1-1-1.41,3.67,3.67,0,0,1-1-1.11c.05-.18-.41-1-.5-1.16a1.32,1.32,0,0,1,.2-1.34,8.69,8.69,0,0,0,1.22-1.05c.15-.16.34-.34.28-.6-.21-.09-.54-.77-.59-.83s-1.24-1.15-1.73-1.67c0-.19-.25-.12-.27-.23a6.67,6.67,0,0,1-1.83-.83c-.12,0-.32-.11-.27.12s1.22,1.29,1.41,1.24.11.22.21.28c.13.26-.27.38,0,.55.23-.06.27-.29.43-.42l.21.05s.76.46.73.58a3.81,3.81,0,0,1,.86,1.18s0,.34-.08.47c-.24,0-.37.12-.58.17s-1,.32-1.19.34a1,1,0,0,1-.38-.11c0-.12-.49-.48-.78-.43-.09-.08-.25-.07-.36-.1a1.66,1.66,0,0,1-.44-.46c-.07-.09-.26-.53-.4-.71a11.09,11.09,0,0,0-1.39-1.54,6.6,6.6,0,0,0-.51-.54c-.1-.1-.18-.33-.23-.35s0-.74.23-1l.31-.25c.12-.16-.11-.19-.13-.28a2.64,2.64,0,0,1-.56-.28c-.25,0-.29-.22-.68-.35a2,2,0,0,1-.44-.58c0-.11,0-.23-.12-.23a4.22,4.22,0,0,1-.3-.39l-.08-1a23.16,23.16,0,0,0,.1-2.66V16.44c.07-.17.27-.27.38-.38s1.23-.58,1.37-.68a.75.75,0,0,1,.71-.13,2.19,2.19,0,0,1,.66.87,4.81,4.81,0,0,0,.88,1.37,7,7,0,0,0,.69.57c.06-.06.61-.36.78-.68,1-.66,1-.07,1.25-.46a5.85,5.85,0,0,1,1.16-1.16,1.89,1.89,0,0,1,1-.31,1.22,1.22,0,0,0,.71-.22c0-.14.4-.19.45-.25a3.24,3.24,0,0,0,1.7-.51l0-.13c-.31-.1-.74.12-.93-.18-.13-.1-.37-.25-.25-.48-.08-.12-.38-.2-.38-.2-.2-.1-.49,0-.63-.18-.36,0-.94-.19-1.12.18-.08,0-.2,0-.23.1-.58.13-.72-.41-1.22-.5-.1-.08-.12-.29-.15-.36s0-.14.06-.2a1.26,1.26,0,0,0-.51-.33v-.38c.24-.29.69,0,1-.18a2.4,2.4,0,0,0-.58-.28c-.08-.29-.43-.23-.4-.53.18-.08.06-.36.1-.53a1.9,1.9,0,0,1,.68-.41c.24,0,.28-.35.51-.43a1.06,1.06,0,0,1,.71-.08l.2.16,1-.11L39,9.37c.1-.27-.27-.28-.38-.43s0-.24-.1-.28c0-.27,0-.59,0-.86a5.2,5.2,0,0,0-.38-.4s-.67,0-.69-.26l.79,0c0-.09.08-.07.15-.08,0,.15.18.07.25.12"/><path class="cls-7" d="M39.53,8.39A4.51,4.51,0,0,1,41,8.48c0,.12,0,.27,0,.38H39.8s-.06.06,0,.11.37,0,.54.1.58,0,.83.08v.07c-.2.11-.34-.09-.56,0a2.08,2.08,0,0,1-1.7-.42c-.19-.44,0-.95-.35-1.32.52.15.42.93,1,.94"/><path class="cls-7" d="M40.24,8.1c-.15-.1-.56.15-.46-.25-.09,0,0-.15-.05-.22l.05,0c.2.11.33.38.46.52"/><path class="cls-7" d="M41.85,8.28c.31.81,1.5,1.35,1.12,2.31.06.05.15,0,.23,0,.26-.17.15-.48.17-.74A9.78,9.78,0,0,1,42.79,9s.3,0,.3-.29a.57.57,0,0,0-.42-.58c0-.12.32-.09.38-.05s.39.28.28.71.24,1,.33.93a.66.66,0,0,0-.09-.31c-.07-.37.41-.84,0-1.24.16,0,.2.15.28.25.14.5-.5,1,.08,1.35.12-.09,0-.21,0-.33s.19-.34.28-.51c.07,0,.08.15.08.23a1.81,1.81,0,0,0-.21,1.07c.09.19.3.51.54.52s-.12-.28-.18-.43c-.3-.59.4-1.12-.2-1.59,0-.09,0-.19.13-.15.49.4.22,1,.22,1.54a1.5,1.5,0,0,1,.38.79c.18,0,.08-.22.18-.3s.47-.4.83-.31a.92.92,0,0,1,.44.51c.07.33-.31.12-.44.25a1.24,1.24,0,0,1-.93.49.48.48,0,0,0,.22.2c.39,0,.71-.31,1.07-.44.54.23.13.86.36,1.22-.62-.2-.56.89-1.19.79-.16-.34-.09-.78-.46-1-.05.08-.22,0-.16.18l.08.07c0,.12.1.29.08.4s0,.47.26.54a1.46,1.46,0,0,0,.8,0c.07.32-.84.36-.22.59.11,0,.21-.13.3-.1a1.78,1.78,0,0,1-.74.37c0-.23.14-.67-.23-.75-.28.08,0,.32-.07.52s-.18.56.1.64c.26-.32.81-.18,1-.51h.07c0,.25-.21.45-.42.56s-.42,0-.59,0a.89.89,0,0,0,.81.26c.11-.08.31-.13.29-.31h.07c.12.27-.18.39-.33.56s-.54.07-.79.18c-.05.1.07.19.16.2s.25.16.33.27l0,.09c-.13.13-.25-.15-.35-.16s-.24-.13-.36,0c0-.33.35-.79,0-1.1-.27.08-.12.41-.22.59.09.36-.53.73-.06,1a.34.34,0,0,1,.46-.21c.21,0,.27.28.38.43v.1a.91.91,0,0,0-.87-.2c-.15,0-.22.26-.42.18-.18.4-.54.69-.64,1.09.05.14.24.05.35.07a.46.46,0,0,1,.42-.15c.1.1.18.17.14.35-.24,0-.31-.26-.61-.12,0,.24.52.28.31.61v0h-.26a.39.39,0,0,0-.27-.07.11.11,0,0,0,0,.12c.18.09.46.2.5.46a1.28,1.28,0,0,0-.56-.1.22.22,0,0,0-.27-.13c0-.11.22-.35.3-.5s-.18-.29-.3-.13a6.25,6.25,0,0,0-.67.91c0,.14.06.19.16.25s.4-.33.69-.3c.09,0,.19.14.29.18a.28.28,0,0,1,.13.32c-.15.07-.22-.1-.4-.09,0,0,0-.07,0-.06a.11.11,0,0,0-.13.06c.11.2.5.27.31.6-.16,0-.25-.17-.38-.22a1.24,1.24,0,0,0-.74.07c-.05-.18.29-.34,0-.48-.32,0-.34.41-.51.61,0,.16-.32.37,0,.47s.56-.56,1-.47c.26-.06.36.19.41.38v.12c-.24-.09-.42-.31-.66-.23l0,0c.14.18.34.29.33.54l0,.34c-.1,0-.1-.19-.16-.28a.89.89,0,0,0-.51-.31.91.91,0,0,0-.74.49,2.55,2.55,0,0,0,1,2.68c1.37,1.23,3.05,2.51,3.58,4.31.11.23.2.52.47.61s.49-.18.64-.4a5.34,5.34,0,0,0,.05-1.74,1.93,1.93,0,0,0-1.19-1.41c-.61-.15-1.33-.25-1.65-.89a7.34,7.34,0,0,1,.08-3c.29-1-.22-2.62,1.19-2.88.42-.08,1,0,1.17-.48.27-.73-.4-1.66.38-2.11a.41.41,0,0,1,.45.06c.07.06.14.12.13.22-.18,0-.36.24-.54.13-.41.59.09,1.41-.22,2.08-.06.07.16.19,0,.25s-.22-.05-.28.07c.17.37.44,0,.66,0a.8.8,0,0,0,.41-.51s0,0,.07,0c.13.28.32.73,0,1-.62.54-1.65,0-2.33.43a.17.17,0,0,0,.26.1c.79-.06,1.63.36,2.3-.23.09,0,.2.15.23.26,0,.27.16.72-.11.94-.08.09-.23.19-.25.29a.84.84,0,0,1,.36.47c0,.37-.07.79-.46,1a3.29,3.29,0,0,1-1.47.11v0a1.83,1.83,0,0,0-1.45.16c.12.31.32-.06.51,0,1,0,2,.53,2.84-.18.11.24-.08.35-.2.49-.51.15-1.11.07-1.52.45a1.41,1.41,0,0,0-.24.51c.07,0,.07.15.18.11.31-.7,1.21-.46,1.73-.76a.23.23,0,0,1,.12-.16c.07.18-.08.33-.22.46a1.28,1.28,0,0,0-.94.64c0,.06,0,.15.08.16s.26-.17.43-.25a2,2,0,0,0,.74-.45h.07c.06.75-1.16.78-.92,1.64.16.09.09.34.29.38.14-.21.26-.6.6-.56a3,3,0,0,0-.3,1.81c.06.21-.36.41-.08.56a.94.94,0,0,0,.43-.61h.05a1.16,1.16,0,0,1-.5,1.08s-.07,0-.08,0,.15.08.18.17a2,2,0,0,1-.46.73c.27.16-.06.36-.15.51s-.5.17-.74.18a1.48,1.48,0,0,0-.4-.43c-.18.07,0,.17,0,.25a7.57,7.57,0,0,1-1.24,4,2.24,2.24,0,0,0-.71,2.06,3.19,3.19,0,0,0,.23.86c.08.23.17.54.4.61a1,1,0,0,1,0,.83A27.61,27.61,0,0,0,42.52,40a1.18,1.18,0,0,0-.42.83c-.28.15-.18-.35-.42-.4-.1.2-.1.45-.21.66s-.09.22-.2.28c-.29-.09.06-.56-.31-.61-.16.11,0,.29-.07.43s0,.27-.2.33c0-.19,0-.48-.25-.6-.19.09,0,.42-.13.6s0,.19-.11.16,0-.44-.22-.51-.06.33-.1.45-.11-.32-.33-.28c-.16.25,0,.64-.28.76a.72.72,0,0,0-.12-.48.57.57,0,0,0-.51-.18c-.15.15-.34.31-.34.53-.33.76-1.38.49-2,.51a1.1,1.1,0,0,1-.73-.28c.19-.56.39-1.18.63-1.72.16-.34.52-.17.81-.18.93.54,1.42-.67,2.31-.5A9.06,9.06,0,0,0,40.67,39c.73-.5,1.49-1,2.23-1.56.27,0,.75.15.9-.11-.27-.17-.7,0-.85-.4a2.84,2.84,0,0,0-1.37-2.08,3.11,3.11,0,0,1-1.9-2.21c-.12-.21.08-.46-.2-.61-.1-.31-.36-.55-.46-.86a2.08,2.08,0,0,1,.53-2c.56-.31,1.23-.77,1.14-1.52-.1-.12,0-.43-.23-.36a1.35,1.35,0,0,1-.13.78c0,.27-.28.4-.51.51a3.31,3.31,0,0,0-1,1c-.1.11-.1.4-.33.27s-.65-.44-1-.25a.24.24,0,0,1,0-.2c0-.07.12,0,.18,0,.34.05.46-.35.67-.56s-.07-.15-.12-.22a2.31,2.31,0,0,0-.43.45s0-.11,0-.15,0-.28.11-.41c.36-.21.62.19,1,.05a1.07,1.07,0,0,0,.46-.48c0-.08-.08-.12-.12-.17S39,28,39,28.05a1,1,0,0,1-1,.25c-.3-.22-.51-.44-.82-.71s-.41-.77-.8-1a5.72,5.72,0,0,1-1.12-1.19c.69-.09,1.16.79,1.9.32.48-.43.21-1.2.87-1.54a.08.08,0,0,0-.09-.07,1.52,1.52,0,0,0-.63.58c-.22.31-.12.9-.68.83a3.24,3.24,0,0,0-1-.38,9.12,9.12,0,0,1-2.64-1c-.26,0-.43-.31-.76-.21-.12.18-.3.33-.23.59A6.15,6.15,0,0,0,33,25.57c.06.18-.27.48.1.5.07-.08.15-.24.22-.25.06.15-.28.29,0,.38s.15-.2.28-.2a1,1,0,0,0,0,.58c.09.09.28.22.43.09s.5-.53.76-.2a3.24,3.24,0,0,1,1.09,1.58c-.33.16-.74.19-1,.36a1.29,1.29,0,0,1-.73,0A1.54,1.54,0,0,0,33,27.9c-.44-.25-.37-.73-.71-1a12.77,12.77,0,0,0-2-2.26,1,1,0,0,1-.1-.53c.3-.45.86-.85,1-1.39a1.24,1.24,0,0,1,.48-.8c.34-.1.57.2.92.13a10.06,10.06,0,0,1,3.24.58c.34,0,.54-.37.89-.15a.83.83,0,0,0,.7-.4c-.15-.15-.3.06-.47,0a1.35,1.35,0,0,1-1,0c-.23.08.12.21-.1.26a8.22,8.22,0,0,0-3-.64c-.56.06-1.17-.43-1.62,0l-.21.4-.07-.08a6.72,6.72,0,0,1,.05-1.28.71.71,0,0,1,.33-.72c1.21-.51,1.9-2,2.94-2.63.14,0,.3-.12.43,0a.94.94,0,0,1-.43.45s-.13.08-.06.13c.23.15.38-.15.56-.23.65-.77,1.28-2.1,2.44-2.07.68.08,1-.67,1.72-.54.16,0,.32-.21.43,0s.29.39.46.55a1.47,1.47,0,0,0,1.11,0c-.16-.35-.53-.18-.86-.23,0-.11-.18,0-.23-.1s-.26-.32-.18-.46.21-.14.25,0c.29.51.87.27,1.36.29.1-.12.4,0,.37-.27s-.17,0-.3-.08c-.3.08-.75.2-1,0-.06.05-.1-.07-.15-.1a.33.33,0,0,1,.15-.25c.17-.09.2.15.32.15a1.22,1.22,0,0,0,1.27-.25c0-.16-.16-.19-.27-.13a1,1,0,0,1-.91.1c0-.1.22-.12.33-.2.3-.71,1.54-.3,1.34-1.29,0,0,0-.18-.11-.16a.58.58,0,0,0-.13.43c-.37.44-1.18,0-1.3.79-.47.25-1-.12-1.48,0-.08-.08-.26,0-.3-.2a4,4,0,0,1,.2-1.65c.07-.2.64,0,.33-.33-.23,0-.6,0-.71.2s0,.57-.13.82,0,.28-.05.37-.1-.13-.25-.07v0a2.08,2.08,0,0,1-.78-.17c0-.53.27-1.33-.21-1.73A1.16,1.16,0,0,1,37,11l-.08.07c.31.32.58.67.43,1.12-.1.24.13.66-.21.78a1.42,1.42,0,0,1-.58,0,5.4,5.4,0,0,1-1.16-.07c-.15-.12-.11-.23,0-.33.52-.05,1,.16,1.52,0a4.53,4.53,0,0,0,.05-.74.92.92,0,0,0-.28-.51c-.58-.25-1.37-.05-1.74-.76-.08-.18.09-.27.2-.36.43,0,.69-.36,1-.6.17-.06.27.09.33.2a21.68,21.68,0,0,1,2.81-.14,1.91,1.91,0,0,0,.43-.21l1.55.08a.77.77,0,0,0,.17.27l.11-.1a7,7,0,0,1-.38-1.65c.08-.17,0-.44.27-.42.23.17.26.43.38.65"/><path class="cls-4" d="M41.85,8.68a9.64,9.64,0,0,1,.89,1.25.24.24,0,0,1-.13.27.32.32,0,0,1-.22-.22V9.83a6.38,6.38,0,0,1-.87-1.57l0-.23a2,2,0,0,1,.3.65"/><path class="cls-7" d="M42.82,8.64c0,.12,0,.27,0,.35-.16-.1-.29-.35-.45-.47,0-.13-.08-.17-.11-.26.27-.14.52.14.61.38"/><path class="cls-4" d="M39.1,10.26l-.06.05a7.53,7.53,0,0,0-1.5,0l0,0a2,2,0,0,1,1.31-.2c.11,0,.25,0,.29.15"/><path class="cls-4" d="M40.56,10.13c.54.34.37,1,.84,1.34-.12.09-.22,0-.33-.07a.94.94,0,0,1-.58.3c-.05-.11-.26,0-.23-.14s.33-.07.45-.21,0-.22-.13-.3-.2.25-.32.09a.7.7,0,0,1-.08-.55c0-.05.08-.07,0-.13-.33-.14-.44.68-.81.31,0-.08.14-.06.18,0,.22-.21.29-.56.6-.66.11.14.26-.1.36.05"/><path class="cls-4" d="M36.91,10.42c.08.22-.19.24-.3.32a.38.38,0,0,1-.28-.07c0-.13.13-.08.18-.16s-.15-.21,0-.27a.41.41,0,0,1,.4.18"/><path class="cls-4" d="M42.41,10.87c-.06.22-.36.5-.09.71,0,0,0,.08,0,.12a.5.5,0,0,1-.44-.14.39.39,0,0,1-.09-.42c0-.22.29-.31.47-.37s.08.05.13.1"/><path class="cls-4" d="M45.88,10.94c-.26.11-.33.45-.63.51H45c-.12.17.25.39-.06.51a.39.39,0,0,1-.25-.15c-.13-.38-.48-.61-.67-1,.39-.08.61.34.85.56.39-.08.55-.67,1-.56Z"/><path class="cls-4" d="M43.5,10.94c-.11.12-.27.22-.2.41s.07.37.16.53l.34.69a.07.07,0,0,1-.12,0c-.28-.39-.94-.72-.69-1.37.07-.18.38-.52.51-.28"/><path class="cls-4" d="M40.26,11.38c-.08.09-.19,0-.28-.06a.68.68,0,0,1-.18-.38l.11-.07a2.45,2.45,0,0,0,.35.51"/><path class="cls-5" d="M36.49,11.5c-.06.13-.18.07-.29.15a.4.4,0,0,0-.3-.07.15.15,0,0,1-.17.07c-.09-.05-.07-.18,0-.25.26,0,.55-.09.79.1"/><path class="cls-4" d="M46.29,11.68c0,.14-.16,0-.21.13a.84.84,0,0,1-.76.25s0-.08-.09-.08.28-.12.42-.17.49-.43.64-.13"/><path class="cls-7" d="M36.38,12a1,1,0,0,0-.43.08c0,.14.22,0,.2.15l-.07,0c-.37-.13-.8.06-1.16-.07,0-.07-.1-.14,0-.21s.24,0,.34,0c.39,0,.8-.18,1.16,0v0Z"/><path class="cls-4" d="M46.5,12c.09.23-.18.08-.24.21a.75.75,0,0,1-.65.22l-.23-.15c.08-.12.4.06.5-.15.2,0,.39-.35.62-.13"/><path class="cls-4" d="M38.41,12.34c0,.08-.07.06-.11.1s-.27,0-.35-.15.39-.16.46.05"/><path class="cls-4" d="M44.67,12.52c-.08.34-.49.45-.76.6-.06,0,0-.1,0-.15.26-.08.44-.37.65-.56.08,0,.11.07.16.11"/><path class="cls-4" d="M38.43,12.82v0a.63.63,0,0,1-.51-.11c.11-.16.31,0,.47,0Z"/><path class="cls-4" d="M44.87,12.92a1.25,1.25,0,0,1-.87.58.12.12,0,0,1,0-.13,1.85,1.85,0,0,0,.71-.55c.1,0,.14,0,.2.1"/><path class="cls-4" d="M23.28,13.58a2.1,2.1,0,0,1-1.54,1.31c-.09,0-.11-.11-.13-.14a.89.89,0,0,1,.36-.11,3.33,3.33,0,0,0,1.27-1.54c.2.09,0,.31,0,.48"/><path class="cls-7" d="M46.46,13.12c.08.08,0,.16,0,.23s-.06-.23,0-.23"/><path class="cls-7" d="M36.26,13.25c0,.19-.33.15-.26,0Z"/><path class="cls-4" d="M44.87,13.53c-.18.22-.43.26-.63.46l-.15-.06.63-.6s.21.06.15.2"/><path class="cls-4" d="M45,14c-.15.36-.56.47-.82.68,0,.06-.11,0-.16,0,.32-.2.55-.57.89-.76Z"/><path class="cls-4" d="M24.09,14a2.38,2.38,0,0,1-1.77,1.67s-.14,0-.1-.13A3.23,3.23,0,0,0,24,14c.06,0,.08,0,.12.08"/><path class="cls-4" d="M45,14.54c.08.29-.26.39-.42.51s-.33.22-.47.08c.15-.22.48-.28.63-.56.05,0,.18-.21.26,0"/><path class="cls-4" d="M24.71,15a2.27,2.27,0,0,1-1.53,1.52c-.13,0-.26.06-.3-.08a3.63,3.63,0,0,0,1.7-1.57c.09,0,.1.08.13.13"/><path class="cls-4" d="M44.8,15.25c0,.25-.34.36-.54.46s-.35.11-.48,0c.1-.11.25-.08.35-.15a4.76,4.76,0,0,1,.61-.35Z"/><path class="cls-7" d="M31.31,16.75a5.29,5.29,0,0,0,1.32,1.62c0,.3-.35.5-.53.76-.36.27-.7.48-1,.76-.14-.09-.16-.31-.18-.48-.24-.71-.34-1.55-1-2-.31.09-.31.51-.36.81.11.17,0,.42.07.6a7,7,0,0,0,.29.92c-.11.07-.24.17-.25.3a.53.53,0,0,0,.16.51c.08,0,.17,0,.22-.05s.35.05.47.2a5.24,5.24,0,0,1-.05,1.9c0,.17-.15.12-.28.13-.47-.37-1.27-.5-1.39-1.2-.63-.49-.27-1.28-.31-2l.06-.07a14.54,14.54,0,0,0-.06-2.64c.1-.07.05-.19.06-.28a1.51,1.51,0,0,1,.68-.43l1.17-.61c.54.15.69.76.93,1.22"/><path class="cls-4" d="M25.47,15.81A2.17,2.17,0,0,1,24,17.33c-.19,0-.41.22-.56,0a.69.69,0,0,1,.43-.16,3.68,3.68,0,0,0,1.47-1.43c.06,0,.08,0,.13.07"/><path class="cls-4" d="M44.54,16.09a2.51,2.51,0,0,1-1,.38s-.13-.08-.12-.13a3.28,3.28,0,0,0,1.08-.56c.16.06.06.21,0,.31"/><path class="cls-4" d="M19.18,16.16v.08a3.84,3.84,0,0,0-2.11,2.89c-.06,0-.08-.06-.12-.08a3.54,3.54,0,0,1,1-2.3,2.64,2.64,0,0,1,1.19-.63l.05,0Z"/><path class="cls-4" d="M44.29,16.41c0,.06.05.08.07.11-.23.43-.78.41-1.21.51-.07,0-.11-.07-.16-.11a5.06,5.06,0,0,0,1.17-.51Z"/><path class="cls-4" d="M26.32,16.62a2.52,2.52,0,0,1-2,1.67c-.1,0-.29.08-.32-.1s.19,0,.25-.08a3.24,3.24,0,0,0,2-1.59c.06,0,.09.06.13.1"/><path class="cls-7" d="M47.66,16.52c0,.07,0,.2-.06.23v-.23Z"/><path class="cls-4" d="M30.25,16.65c-.08.39-.56.33-.86.48a.29.29,0,0,1-.16-.21.12.12,0,0,1,.16,0c.3,0,.49-.31.76-.38l.1.11Z"/><path class="cls-7" d="M45.5,17a1.82,1.82,0,0,1,0,.41,1.66,1.66,0,0,0-.3-.38c-.1,0-.12-.09-.24-.05l-.07.08.27.27c-.11.13.06.43-.2.43-.1-.22-.39-.17-.52-.18h0a1.5,1.5,0,0,0,.26-.52c.21-.22.72-.49.86-.06"/><path class="cls-4" d="M44.06,17.05c0,.18-.17.28-.31.38a2.49,2.49,0,0,1-1.18.12l0,0c.26-.12.64-.08.9-.25.27,0,.44-.41.64-.21"/><path class="cls-4" d="M37.65,17.05s.1.06.07.12c-.22.16-.42-.07-.68,0,0,0,0-.05-.08,0,0-.19.28-.07.41-.11s.2.06.28,0"/><path class="cls-7" d="M47.73,18.19c0,.06-.09.17-.15.18a4.29,4.29,0,0,0,0-1.29c.24.26.09.74.13,1.11"/><path class="cls-4" d="M31.19,18.24c0,.34.44.55.33.92-.13,0-.18-.14-.28-.21-.24-.51-.52-1.12-.81-1.67l0-.08a4.39,4.39,0,0,1,.74,1"/><path class="cls-4" d="M37.22,17.33c0,.05.14.09.1.18-.28.13-.66,0-1-.08,0-.28.43-.1.66-.15,0,.09.13,0,.2,0"/><path class="cls-4" d="M29.39,17.86a8.63,8.63,0,0,0,.17,1.68c-.08.13-.19,0-.25-.09s-.1-.15,0-.27a3.7,3.7,0,0,1,0-1.52c.07,0,.17.13.1.2"/><path class="cls-4" d="M43.55,17.79c-.22.45-.79.38-1.23.45-.07,0-.11-.09-.16-.13s.24,0,.36-.07c.34,0,.62-.34,1-.33l.07.08Z"/><path class="cls-4" d="M36.84,17.71a.13.13,0,0,1,0,.18c-.3.35-.71-.05-1.07.15,0,0-.17-.05-.12-.15a1.12,1.12,0,0,1,.94-.1c0-.06.13-.06.2-.08"/><path class="cls-5" d="M30,17.89c0,.1.14.1.13.22s.26.35.22.64h.05c.08.1,0,.32.11.36s-.05.31.1.38c-.06.31.21.47.1.78-.06,0-.1,0-.18,0v-.09l-.51,0c-.07-.21.13-.14.21-.23l0,0c.06,0,0-.3,0-.43a.07.07,0,0,0-.08,0c-.07-.07.05-.27-.09-.27,0-.16,0-.36-.13-.43l0-.86Z"/><path class="cls-6" d="M30,17.89c0,.1.14.1.13.22s.26.35.22.64h.05c.08.1,0,.32.11.36s-.05.31.1.38c-.06.31.21.47.1.78-.06,0-.1,0-.18,0v-.09l-.51,0c-.07-.21.13-.14.21-.23l0,0c.06,0,0-.3,0-.43a.07.07,0,0,0-.08,0c-.07-.07.05-.27-.09-.27,0-.16,0-.36-.13-.43l0-.86Z"/><path class="cls-4" d="M36.4,18.34c0,.06.09.09.06.15a12,12,0,0,1-1.22.16c-.19-.22.18-.16.23-.31a2.09,2.09,0,0,1,.93,0"/><path class="cls-4" d="M43,18.42c.05.27-.27.21-.4.33s-.48,0-.63-.06c.25-.12.57-.2.83-.35.08,0,.19,0,.2.08"/><path class="cls-8" d="M27.37,18.57c-1.23,1.24-3.89,1-4.44,3-.38,2,.31,4.29-.86,6.15-1.09,2.09-3.5,2.78-5.29,4.07-1.6,1.88-.73,4.55-1.46,6.74a6.59,6.59,0,0,1-5.8,4.74c1.81,2.66,4.77,4.24,7.56,5.67a11.26,11.26,0,0,0,3.73-2.37A19.59,19.59,0,0,0,26.42,39c1.28-3.2.85-6.69.95-10V18.57Zm-17.29,9c1.11-1.77,3.42-1.9,4.87-3.21,1.32-1.67.2-3.92.59-5.85A5.54,5.54,0,0,1,19.94,14c2.39-.36,2.5-2.81,2.22-4.72A5.65,5.65,0,0,1,27.07,3.5c0-.77-2.57-1.62-3.76-1.58-3.88.11-7,2.71-10.56,4a7.27,7.27,0,0,1-6.24.36c.76,2.19.23,4.59.31,6.87,0,7.52,0,15,0,22.56,2.06.07,1.92-2.27,1.9-3.71a6.71,6.71,0,0,1,1.32-4.4Z"/><path class="cls-9" d="M27.37,18.57c-1.23,1.24-3.89,1-4.44,3-.38,2,.31,4.29-.86,6.15-1.09,2.09-3.5,2.78-5.29,4.07-1.6,1.88-.73,4.55-1.46,6.74a6.59,6.59,0,0,1-5.8,4.74c1.81,2.66,4.77,4.24,7.56,5.67a11.26,11.26,0,0,0,3.73-2.37A19.59,19.59,0,0,0,26.42,39c1.28-3.2.85-6.69.95-10V18.57Zm-17.29,9c1.11-1.77,3.42-1.9,4.87-3.21,1.32-1.67.2-3.92.59-5.85A5.54,5.54,0,0,1,19.94,14c2.39-.36,2.5-2.81,2.22-4.72A5.65,5.65,0,0,1,27.07,3.5c0-.77-2.57-1.62-3.76-1.58-3.88.11-7,2.71-10.56,4a7.27,7.27,0,0,1-6.24.36c.76,2.19.23,4.59.31,6.87,0,7.52,0,15,0,22.56,2.06.07,1.92-2.27,1.9-3.71a6.71,6.71,0,0,1,1.32-4.4Z"/><path class="cls-4" d="M46.52,19c-.27.1-.58.09-.82.3-.12,0-.07-.13-.05-.22a.88.88,0,0,1,.81-.18Z"/><path class="cls-4" d="M36.13,19c-.43.32-1.1.11-1.5.53-.05-.06-.14-.11,0-.18s.4-.44.7-.43a.51.51,0,0,1,.38-.1c.16.18.41-.17.46.18"/><path class="cls-4" d="M42.69,19c0,.22-.22.29-.41.33a6.39,6.39,0,0,1-.78.05l-.1-.1c.11-.13.36-.07.5-.15.3,0,.52-.19.76-.21l0,.08Z"/><path class="cls-4" d="M33.34,19.2a5.42,5.42,0,0,1-1,1.12c-.06,0-.13-.05-.1-.15a6.45,6.45,0,0,1,1-1.06Z"/><path class="cls-5" d="M44.62,19.76a2.38,2.38,0,0,0-.06.71h-.05c0,.37-.06.73,0,1.12,0,0-.09,0-.09.07l0,.74h0l-.05,1c-.14.05,0,.26-.08.38a.09.09,0,0,0,.08,0c0,.26,0,.61.21.71a.81.81,0,0,0,.3.36.61.61,0,0,0,.41.31c0,.13.15,0,.22.09s.34,0,.36.18c.17.06.37.06.48.2l.26,0c0,.25.45.24.45.48.12,0,0,.25.13.23s0,.29.12.31a10.29,10.29,0,0,1,0,1.36c-.14.06-.1.27-.32.23s-.11-.39-.26-.51c.08-.22-.13-.25-.16-.43s-.14-.17-.14-.33,0-.27-.2-.27c0,0,0-.08,0-.11s-.11-.19-.17-.27-.09-.29-.28-.23c0-.2-.18-.25-.25-.4h-.06c0-.09-.08-.11-.09-.13a10.89,10.89,0,0,0-1.43-1.37c-.07-.11-.09-.21-.25-.24s0-.22-.18-.16c0-.13-.14-.07-.15-.16-.15-.31-.4-.41-.58-.69-.09-.05-.11-.18-.18-.27s-.21-.17-.2-.36,0-.29-.07-.42c.1,0,0-.1.09-.13v-.09c.11,0,.06-.08.11-.12s.39-.11.45.12c-.08.08-.06.18,0,.29s.18,0,.28,0,.25-.06.2-.26c.1-.08.21-.12.2-.29.12,0,0-.12.1-.16v-.07c.17,0,0-.24.15-.2,0-.17.2-.2.16-.39.12-.1.18-.3.33-.32.1-.17.2-.37.27-.51l0-.28a.08.08,0,0,0,.1-.1v.35Z"/><path class="cls-6" d="M44.62,19.76a2.38,2.38,0,0,0-.06.71h-.05c0,.37-.06.73,0,1.12,0,0-.09,0-.09.07l0,.74h0l-.05,1c-.14.05,0,.26-.08.38a.09.09,0,0,0,.08,0c0,.26,0,.61.21.71a.81.81,0,0,0,.3.36.61.61,0,0,0,.41.31c0,.13.15,0,.22.09s.34,0,.36.18c.17.06.37.06.48.2l.26,0c0,.25.45.24.45.48.12,0,0,.25.13.23s0,.29.12.31a10.29,10.29,0,0,1,0,1.36c-.14.06-.1.27-.32.23s-.11-.39-.26-.51c.08-.22-.13-.25-.16-.43s-.14-.17-.14-.33,0-.27-.2-.27c0,0,0-.08,0-.11s-.11-.19-.17-.27-.09-.29-.28-.23c0-.2-.18-.25-.25-.4h-.06c0-.09-.08-.11-.09-.13a10.89,10.89,0,0,0-1.43-1.37c-.07-.11-.09-.21-.25-.24s0-.22-.18-.16c0-.13-.14-.07-.15-.16-.15-.31-.4-.41-.58-.69-.09-.05-.11-.18-.18-.27s-.21-.17-.2-.36,0-.29-.07-.42c.1,0,0-.1.09-.13v-.09c.11,0,.06-.08.11-.12s.39-.11.45.12c-.08.08-.06.18,0,.29s.18,0,.28,0,.25-.06.2-.26c.1-.08.21-.12.2-.29.12,0,0-.12.1-.16v-.07c.17,0,0-.24.15-.2,0-.17.2-.2.16-.39.12-.1.18-.3.33-.32.1-.17.2-.37.27-.51l0-.28a.08.08,0,0,0,.1-.1v.35Z"/><path class="cls-4" d="M22,19.67a4.13,4.13,0,0,0-.89,2.17c-.23,0-.1-.31-.1-.43a2.26,2.26,0,0,1,.89-1.83s.06.05.1.09"/><path class="cls-4" d="M39.19,19.61s.05.07.08.1l-.35.3a2.35,2.35,0,0,0-1.47.44l-.16-.08c0-.28.34-.39.54-.5a6,6,0,0,0,1.36-.26"/><path class="cls-4" d="M42.26,19.69c-.19.36-.65.38-1,.43-.13,0-.25.09-.33-.05V20a3.46,3.46,0,0,0,1.17-.4.18.18,0,0,1,.2.08"/><path class="cls-4" d="M46.64,20l.36,0v0l.35,0v0c.23,0,.36.15.58.05l.16-.12s.16.11.07.2c-.48.35-1.16.09-1.7,0a3.21,3.21,0,0,0-.88.07l-.06-.07A1.58,1.58,0,0,1,46.64,20v0Z"/><path class="cls-4" d="M42,20.21c-.11.35-.54.37-.84.49s-.37.16-.47-.05a9.94,9.94,0,0,0,1.16-.53c.07,0,.11.06.15.09"/><path class="cls-4" d="M33.27,20.42a2.27,2.27,0,0,1-.67.61s-.05-.08-.09-.08a6.77,6.77,0,0,1,.68-.81c.12,0,.15.16.08.28"/><path class="cls-4" d="M46.7,20.72a1.58,1.58,0,0,0,.43.11c.1.1.35,0,.47.1s.4-.22.42.08a1.92,1.92,0,0,1-1.23,0,4.32,4.32,0,0,0-1.36.11s-.16-.08-.07-.15c.34-.29.87-.18,1.34-.21"/><path class="cls-4" d="M41.63,21a1.52,1.52,0,0,1-.87.47c-.07,0-.11-.08-.18-.13a2.87,2.87,0,0,0,.74-.43c.11,0,.31-.09.31.09"/><path class="cls-7" d="M42.77,21.1v0c-.22-.1-.38.09-.56.13,0-.17.18-.21.31-.33a.21.21,0,0,1,.25.15"/><path class="cls-4" d="M29.77,21.39a.09.09,0,0,1-.05.09c-.06,0-.13-.05-.18-.13l0-.09c.13,0,.16,0,.21.13"/><path class="cls-4" d="M47,21.44v0a1.43,1.43,0,0,0,.8-.07c.07,0,.12.11.06.18-.75.38-1.62-.23-2.38.12l-.08-.08c.11-.11.25-.29.46-.22.29-.16.54.07.86,0,.06.08.19,0,.28.05"/><path class="cls-4" d="M29.82,21.77s-.05.06-.08.09-.25-.15-.2-.22a.27.27,0,0,1,.28.13"/><path class="cls-4" d="M48.27,21.84a.93.93,0,0,1-.38.38c-.85.25-1.64-.4-2.46,0l-.07-.09a1.77,1.77,0,0,1,1.18-.22v0c.52.07,1.2.31,1.65-.14Z"/><path class="cls-4" d="M29.77,22.09a.13.13,0,0,1-.05.11c-.12-.05-.25-.1-.23-.25s.21,0,.28.14"/><path class="cls-4" d="M41.47,22.42a.89.89,0,0,1-.65.49l-.06-.08.51-.54c.13,0,.15.06.2.13"/><path class="cls-4" d="M41.68,22.87V23l-.74.46s-.17,0-.12-.12a8.54,8.54,0,0,1,.78-.56Z"/><path class="cls-4" d="M46.44,23.16v.05c-.28.07-.66,0-.79.33s-.11.32,0,.45-.11,0-.15,0a.46.46,0,0,1-.16-.5,1.19,1.19,0,0,1,1-.46s.08.07.12.11"/><path class="cls-4" d="M41.94,23.29a1.66,1.66,0,0,1-.82.6l-.07-.08c.2-.19.52-.41.73-.65,0,0,.1.08.16.13"/><path class="cls-4" d="M31.9,24.05c-.12.13-.25.33-.44.38,0-.05-.09-.09-.07-.16a4.81,4.81,0,0,0,.54-.64c.23.12,0,.28,0,.42"/><path class="cls-4" d="M34.21,24.12c.37.11.52-.3.8-.4.17.06,0,.19,0,.27s-.28.2-.22.33a2.51,2.51,0,0,0,.81-.51l.1.11c-.12.2-.36.38-.44.58a1.43,1.43,0,0,0,.85-.61c.21.07,0,.25,0,.36s-.36.26-.28.4a5.1,5.1,0,0,0,.66-.53c.14.28-.29.5-.33.71.25,0,.36-.26.58-.35.23.26-.42.34-.22.65-.34-.06-.59-.31-.94-.32-1.09-.13-1.81-.84-2.84-1.09,0-.1.06,0,.07-.09a6.53,6.53,0,0,1,1.43.49"/><path class="cls-4" d="M46.52,24.83c-.13,0-.19-.14-.28-.2s-.06-.27.08-.33.17.37.2.53"/><path class="cls-4" d="M46,24.7c-.12.11-.25-.07-.29-.15a.21.21,0,0,1,.09-.23c.21,0,.11.26.2.38"/><path class="cls-4" d="M16.37,24.52a2.57,2.57,0,0,1-1.87,1.63c-.07,0-.18,0-.13-.13a2.94,2.94,0,0,0,1.72-1.45c.06-.08.2-.21.28-.05"/><path class="cls-4" d="M32.71,25.54v.1H32.6l-.85-.87v-.14a10,10,0,0,1,1,.91"/><path class="cls-4" d="M47.55,25.54c0,.08.19.17.06.23a1.52,1.52,0,0,1-.59-.51c0-.06,0-.17.11-.13a1.49,1.49,0,0,0,.42.41"/><path class="cls-4" d="M16.9,25.37a2.89,2.89,0,0,1-2,1.54l-.13-.13a5.7,5.7,0,0,0,2.06-1.5Z"/><path class="cls-4" d="M44.06,25.49a2,2,0,0,1-.53.51c-.07,0-.19,0-.16-.13.23-.12.36-.36.59-.48l.1.1Z"/><path class="cls-4" d="M44.36,25.79c-.07.3-.4.41-.61.61,0,0-.12,0-.15,0,.17-.18.44-.41.62-.64.06,0,.1,0,.14.08"/><path class="cls-4" d="M37.83,26c-.1.24-.38.34-.58.47a.86.86,0,0,1-.87-.42,1.9,1.9,0,0,0,.36.08c.29-.11.72.14.91-.2a.2.2,0,0,1,.18.07"/><path class="cls-4" d="M44.67,26.13c0,.27-.3.35-.49.52s-.34.34-.56.24v-.11a2.77,2.77,0,0,0,.89-.78c.12-.05.11.07.16.13"/><path class="cls-4" d="M17.36,26.29a2.68,2.68,0,0,1-1.93,1.38s-.06-.08-.1-.08c.05-.18.26-.16.4-.23a4,4,0,0,0,1.52-1.26c.05,0,.19.09.11.19"/><path class="cls-4" d="M45.05,26.58c-.09.22-.36.32-.54.47s-.43.41-.67.29c.16-.25.48-.36.7-.61l.28-.33a.9.9,0,0,1,.23.18"/><path class="cls-4" d="M38.08,26.55c-.22.25-.53.56-.92.43-.14,0-.21-.22-.32-.3.21,0,.43.16.68,0s.36-.39.56-.16"/><path class="cls-4" d="M17.86,27a3,3,0,0,1-2,1.42c0-.05-.12-.1-.06-.15a7.78,7.78,0,0,0,2-1.45.2.2,0,0,1,.07.18"/><path class="cls-4" d="M45.32,27a3.36,3.36,0,0,1-1.19.78s0-.06-.07-.05c.08-.23.39-.23.56-.43s.56-.88.7-.3"/><path class="cls-4" d="M38.39,27.05a.81.81,0,0,1-.38.47.85.85,0,0,1-.79-.18v-.07c.24.12.47-.05.7-.06s.33-.32.47-.16"/><path class="cls-4" d="M34.41,27.11s0,.06-.06.05-.1,0-.14-.07.19-.1.2,0"/><path class="cls-4" d="M45.58,27.34c0,.16-.25.34-.4.43s-.44.38-.67.3V28a5.57,5.57,0,0,0,.87-.76c.1,0,.17.06.2.13"/><path class="cls-4" d="M34.63,27.36a.14.14,0,0,1-.25,0c0-.05,0-.16.08-.16s.15.06.17.13"/><path class="cls-4" d="M38.79,27.61a1,1,0,0,1-.49.42c-.23-.06-.43,0-.58-.21v-.08a.38.38,0,0,1,.26.08c.23-.12.53-.12.68-.41a.15.15,0,0,1,.13.2"/><path class="cls-4" d="M34.79,27.56c-.1.21.25.27,0,.43.07.07.14,0,.18.08s0,.11-.08.16-.16,0-.23-.11c.14-.12-.24-.27,0-.38-.06,0-.12,0-.18-.07a.14.14,0,0,1,.13-.18c.06,0,.09.05.13.07"/><path class="cls-4" d="M33.32,27.56c.07.17.45.06.27.31-.13-.06-.34-.06-.4-.2s.06-.12.13-.11"/><path class="cls-4" d="M18.44,27.72a3.24,3.24,0,0,1-2.07,1.45c0-.05-.11-.07-.08-.13a7.58,7.58,0,0,0,2.08-1.43Z"/><path class="cls-4" d="M45.81,27.82v.08a4,4,0,0,1-1.25.73l-.07-.08c.45-.19.76-.65,1.21-.88l.11.15Z"/><path class="cls-4" d="M12.42,27.79a3,3,0,0,1-.51.41,5.8,5.8,0,0,0-1.3,2.91.14.14,0,0,1-.17-.08,7.6,7.6,0,0,1,.38-1.79c.29-.58.86-1.4,1.54-1.52,0,0,0,.05.06.07"/><path class="cls-4" d="M46,28.38A7.12,7.12,0,0,1,45,29l-.13-.06c.34-.25.64-.58,1-.83a.41.41,0,0,1,.17.28"/><path class="cls-7" d="M37.34,28.3a3.42,3.42,0,0,0-.14,1.29.46.46,0,0,0,.32.28c.38-.16.65.26,1,.26.05.18,0,.46.05.68-.07.75.36,1.11.71,1.69a4,4,0,0,0,.86,1.93,2,2,0,0,0,.17,1.69c-.13.24-.09.52-.29.72-.73,0-1.47-.2-2.21-.28-.4.13-.83-.27-1.14,0l0,.15s-.12,0-.18,0-.27-.37-.45-.48c-.18.14-.08.41-.1.58-.14,0-.22-.15-.25-.25a.43.43,0,0,0-.13-.4.79.79,0,0,0-.25.58c-.29-.12-.08-.45-.21-.63-.18,0-.19.21-.26.32s0,.16,0,.2-.22-.21-.28-.38.11-.23,0-.32-.15.19-.26.27l0,.36c-.11,0-.18-.14-.23-.23s.18-.37,0-.53-.71,0-.89.27-.18,1-.79,1a6.27,6.27,0,0,1-2.08-.2l0-.11a3.8,3.8,0,0,1,.78-1.52,2.76,2.76,0,0,0,1.48-.65,2.93,2.93,0,0,1,1.47,0,33.93,33.93,0,0,0,4,.49c.19-.12.15-.32.22-.49-.33-.63-1-1-1.21-1.74a2.87,2.87,0,0,1-1.19-1.72A1.42,1.42,0,0,1,35.62,30c.28-.82,1.34-1,1.58-1.82.06,0,.2,0,.14.1"/><path class="cls-4" d="M19.08,28.43v.1A3.87,3.87,0,0,1,16.65,30s-.13-.11,0-.16A7.52,7.52,0,0,0,19,28.37l.06.06Z"/><path class="cls-4" d="M46.19,28.83c0,.15-.43.28-.18.48.07,0,.14-.14.23-.07a.23.23,0,0,1,0,.31c-.11,0-.19.13-.21.25V30c.09,0,.19-.28.31-.11.2.43-.49.33-.33.72.08,0,.17-.16.23,0s-.5.37-.21.62c.1.29-.49.37-.17.64-.08.27-.37.47-.41.79-.34.29-.26.75-.68,1-.17.28-.4.58-.55.89-.49-.28.22-.6.27-.89,0,0,0,0,0,0-.21-.13-.42,0-.63,0l-.11-.09c.39-.19.89-.21,1.14-.59-.22-.06-.51.23-.7-.05.07-.13.17.05.25,0,.25-.21.71-.16.78-.56-.25-.09-.54.3-.76,0,.37-.15.85-.2,1.05-.6-.27-.14-.52.28-.71,0a2.09,2.09,0,0,0,.83-.58l0-.05c-.22.1-.53.31-.74.16.32-.2.79-.31.89-.69a1.93,1.93,0,0,0-.66.23l-.1-.1c.27-.23.69-.33.79-.71l-.07-.07c-.28.1-.5.31-.82.32l-.07-.07a5.34,5.34,0,0,0,.89-.63l0-.21c-.32,0-.59.46-.87.17A7.59,7.59,0,0,0,46,28.63c.11,0,.12.14.18.2"/><path class="cls-4" d="M36.61,30.2c-.08.11,0,.26-.15.36-.28-.12,0-.3-.1-.51a.2.2,0,0,1,.25.15"/><path class="cls-4" d="M38.48,31.11a3.25,3.25,0,0,1-.81.58c-.05,0-.11-.12,0-.17a8.18,8.18,0,0,0,.76-.66.42.42,0,0,1,.09.25"/><path class="cls-4" d="M40.41,31.14a.54.54,0,0,1-.15.48c-.21-.11,0-.41-.18-.51,0-.28.28-.13.33,0"/><path class="cls-4" d="M15.28,31.18a3.31,3.31,0,0,0-1.09,2.72c-.24-.18-.06-.6-.16-.86A2.67,2.67,0,0,1,14.29,32a1.6,1.6,0,0,1,.91-.91l.08.11Z"/><path class="cls-4" d="M38.59,31.52v.1l-.74.5-.18,0c.18-.21.49-.4.67-.65.11-.05.16.06.25.1"/><path class="cls-4" d="M38.74,31.92c0,.27-.28.28-.4.46l-.74.41c0-.06-.11-.07-.08-.16a4.87,4.87,0,0,0,1.07-.81c.07,0,.09.07.15.1"/><path class="cls-4" d="M38.94,32.38v.1a2.45,2.45,0,0,1-1.14.66.09.09,0,0,1,0-.15,5.54,5.54,0,0,0,1-.71c.09,0,.14,0,.2.1"/><path class="cls-4" d="M39.17,32.83c-.13.27-.44.4-.69.56s-.41.38-.56.11c.38-.24.73-.61,1.07-.82.08,0,.15.09.18.15"/><path class="cls-4" d="M39.3,33.29c0,.28-.26.34-.46.48s-.43.37-.58,0c.33-.21.59-.44.93-.63Z"/><path class="cls-4" d="M39.48,33.82a1.69,1.69,0,0,1-.74.49c-.06,0-.17,0-.13-.13.28-.11.41-.37.66-.51.09,0,.14.1.21.15"/><path class="cls-4" d="M39.6,34.18c0,.28-.29.35-.45.48s-.25.21-.36,0V34.6c.26-.13.46-.42.74-.52Z"/><path class="cls-4" d="M39.86,34.58v.13a2.58,2.58,0,0,1-1,.51l-.07-.08c.31-.16.51-.43.83-.58l.1-.13a.46.46,0,0,1,.16.15"/><path class="cls-4" d="M44.54,35.47A2.65,2.65,0,0,0,45,36.76c-.06.13-.18.06-.26,0a.86.86,0,0,1-.28-.56,1.87,1.87,0,0,1,0-1.32c.33.06,0,.36.12.56"/><path class="cls-4" d="M39.8,35.11c0,.11-.18.2-.25.11s0,0,0-.08.22-.24.27,0"/><path class="cls-4" d="M38.84,35.62c.13,0,.16.08.25.16l-.05,0a2.22,2.22,0,0,1-.76-.43c-.06-.15.09-.22.2-.18s.25.27.36.4"/><path class="cls-4" d="M9.56,35.57a2.09,2.09,0,0,1-.94,1.17c-.36.07-.77.37-1.12.07.12-.07.4.07.5-.13a2.19,2.19,0,0,0,1.4-1.21c.09,0,.11,0,.16.1"/><path class="cls-4" d="M33.27,35.85c0,.15-.1.22-.2.27a.22.22,0,0,1-.26-.09c.26,0,.26-.63.46-.18"/><path class="cls-4" d="M31.34,35.78c0,.06.07.06.05.14s-.08.2-.2.16c0-.27-.25.11-.31-.12s0-.21.13-.24c.11.17.17,0,.33.06"/><path class="cls-4" d="M31.64,36.1l-.07.08c-.1-.08-.19-.18-.08-.31l.13-.13c.18.09.07.24,0,.36"/><path class="cls-4" d="M36.18,35.9c.34,0,.51.2.86.13a1.86,1.86,0,0,0,.48.09v0c.13.08.4-.06.43.13a2.4,2.4,0,0,1-.75,0c-.55-.12-1.17-.16-1.7-.25-.12,0-.32.08-.41,0l0,0c.18-.18.53-.06.79-.09,0,.15.23,0,.33.07"/><path class="cls-4" d="M32,36a.16.16,0,0,1-.07.18.1.1,0,0,1-.13-.08.19.19,0,0,1,.07-.2c.1,0,.09.06.13.1"/><path class="cls-4" d="M32.25,36.08v.1a.14.14,0,0,1-.18-.13c0-.09.14,0,.18,0"/><path class="cls-4" d="M10.16,36.38A2.7,2.7,0,0,1,8.82,37.8c-.29,0-.69.17-.91,0,.22-.19.61-.12.89-.27a5.23,5.23,0,0,0,1.3-1.22Z"/><path class="cls-7" d="M27.82,37a22.17,22.17,0,0,0,8.56,11.1l1.73,1.12-.48.22c-.45.27-2.39,1.07-2.69,1.19-2.68,1.13-6,2.78-7,3.87A15.56,15.56,0,0,0,23.87,52c-.36-.12-5.93-2.65-6.08-2.82a20.31,20.31,0,0,0,5-3.85,32.87,32.87,0,0,0,2.54-3.19c.37-.66.69-1.2,1.05-2a16.65,16.65,0,0,0,1.23-3.73c.14.14.14.37.2.56"/><path class="cls-4" d="M10.61,37.64a2.06,2.06,0,0,1-2,1.18c0-.06-.12-.09-.1-.16a2.72,2.72,0,0,0,2.12-1.49c.26.13-.05.32-.05.47"/><path class="cls-4" d="M45.07,37.62a21.35,21.35,0,0,1-3.6,2.61c-.14,0-.29.21-.42,0,1-.65,2-1.38,3-2.11l.83-.6c.1,0,.11,0,.15.07"/><path class="cls-4" d="M11.4,38.28a2.45,2.45,0,0,1-1.57,1.55c-.22.05-.51.14-.65-.07a2.1,2.1,0,0,0,.63-.24,2.61,2.61,0,0,0,.8-.5,3,3,0,0,0,.69-.84Z"/><path class="cls-4" d="M12,39.25a2.34,2.34,0,0,1-1.57,1.49c-.27,0-.6,0-.78-.13.27,0,.52-.13.78-.18a4.18,4.18,0,0,0,1.52-1.23l.05,0Z"/><path class="cls-4" d="M12.69,40a2.71,2.71,0,0,1-2,1.49c-.12,0-.38.07-.4-.13a3.47,3.47,0,0,0,2.24-1.47c.1,0,.1.06.13.11"/><path class="cls-4" d="M36.4,41a.16.16,0,0,1-.27,0c-.05-.06,0-.12.07-.18s.37,0,.2.18"/><path class="cls-4" d="M36.78,41.07a.33.33,0,0,1-.12.23c-.09,0-.19-.08-.15-.2s.21-.19.27,0"/><path class="cls-4" d="M37.12,41.17c0,.11,0,.21-.16.27s-.1-.12-.09-.25a.13.13,0,0,1,.25,0"/><path class="cls-4" d="M37.42,41.3c0,.09,0,.21-.13.27s-.13-.06-.15-.13.11-.17.18-.22.06.06.1.08"/><path class="cls-4" d="M28.68,43a1.39,1.39,0,0,1,1,.1,4.3,4.3,0,0,1,1.07.66,1.57,1.57,0,0,1,.6,1.68c.24.16.74,0,.71.47,0,.23-.22.39-.35.51a1.41,1.41,0,0,1,.56,1,3.24,3.24,0,0,1-.56,1.92,1.37,1.37,0,0,1-1.07.44c0,.11.05.19.11.27,0,.26.1.63-.18.76a1,1,0,0,1-.76-.2c-.11.22-.09.5-.29.69-.52.59-1.35.43-2.07.53S26,51.64,25.72,51a.15.15,0,0,0,0-.13c-.24,0-.45.24-.71.13a.51.51,0,0,1-.16-.48c0-.15.31-.33,0-.41-.67,0-1.06-.82-1.31-1.31a2,2,0,0,1,0-1.63l.35-.32c-.2-.24-.49-.48-.4-.84s1,0,.7-.54a1,1,0,0,1,.11-.76A2.68,2.68,0,0,1,26.63,43c.11.17.35.06.45.25.15-.06.27-.29.36-.43s.21-.13.31-.22c.52-.07.38,1.08.93.4"/><path class="cls-5" d="M29.52,43.3l.15,0c.09.11.15.22.32.2.25.21.55.3.71.56.09,0,.2.07.21.15s.08.18.17.21,0,.14.05.2h.06c0,.15,0,.35.1.4-.08.13-.1.42-.21.56a3.11,3.11,0,0,0-.29.33.14.14,0,0,0-.18.11.1.1,0,0,0,.05.12h0v.08s-.05,0-.07,0c.21.38.78.2,1.08.38,0,.13.21,0,.13.22.16.1.12.31.18.47-.15.24,0,.67-.1,1-.14,0-.06.21-.1.3s-.14.25-.21.36-.22.2-.25.35-.3.08-.35.23-.34-.06-.42.08c-.15-.14-.48,0-.63-.2-.09,0-.26,0-.33.09s-.2.28-.07.41l-.07.08.09.07a1.7,1.7,0,0,1-.09,1c-.1.08-.24.12-.29.21s-.27-.05-.27.1a5.31,5.31,0,0,1-1.92.1c-.12-.14-.37,0-.54-.1s-.31-.15-.4-.28-.1-.39-.08-.61c.13,0,.07-.17.15-.2.12-.24-.08-.37-.13-.58a1.18,1.18,0,0,0-.43-.05c-.23.12-.39.28-.71.2-.1-.11-.22-.1-.35-.2s-.15-.16-.25-.2-.14-.11-.13-.26S24,49.11,24,49c-.16-.13-.18-.32-.31-.46s.05-.24-.09-.23.06-.29-.09-.35a.91.91,0,0,1,.29-.89c.06-.09.19-.14.27-.23s.47.07.56-.07a.5.5,0,0,0,.4-.29v-.07c.2,0-.06-.12,0-.22H25c0-.16-.14-.14-.13-.29-.2-.2-.47-.31-.5-.63l0-.46a1.68,1.68,0,0,0,.2-.35c0-.18.24-.29.3-.46s.31-.24.51-.35c0-.12.27-.11.31-.25a7.3,7.3,0,0,0,.76-.21c.06.08.27.06.4.1a.83.83,0,0,0,.32.2s0,.09,0,.11.1.22.18.31l.07.17c-.12-.12-.21-.19-.31-.3a.87.87,0,0,0-.7.1s-.09,0-.11,0-.07.06-.13.07-.31.06-.27.27c-.19.08-.19.44-.51.33,0,0-.06,0-.07,0v.06c-.23-.05-.25.14-.41.22s0,0,0,.07-.25.19-.28.31.12.36.13.56h0c0,.12.17.06.18.18.19,0,.24.2.36.3a.41.41,0,0,1-.29.51,3,3,0,0,0-.6.1,1.87,1.87,0,0,0-.33.45,1.23,1.23,0,0,0,.13.66c0,.07.2.16.25.23s.16,0,.13.18-.06.35.08.43-.06.27.09.27.18.31.36.41.36.1.51,0,.22,0,.38,0a.5.5,0,0,1,.2.51s0,0-.06,0,.06.06.11.05,0-.23.13-.2a.65.65,0,0,0,0-.34h-.06c0-.08,0-.22-.14-.27-.38-.19-.59.27-1,.07-.08-.12-.24-.18-.25-.38l0-.5s.05,0,.07-.06c-.21-.24-.41-.28-.53-.6h-.05c0-.25-.1-.56.13-.66,0,0,.05,0,.07,0v0a1.29,1.29,0,0,0,1-.27l0-.49c-.09,0,0-.07-.07-.09-.28-.27-.72-.28-.69-.76.11,0,.06-.1.11-.13.3-.22.45-.46.85-.51a4.61,4.61,0,0,0,.36-.48c.14,0,.09-.14.22-.13a.83.83,0,0,1,.74-.18c.05.1.18.12.13.29s.11,0,.07.09,0,0-.07.05c.14.19.2.46.53.38,0,0,0,.07,0,.08s.14-.07.2-.13.09-.37.25-.51c0-.14.12-.13.15-.25h.43c.08.15.35.11.42.25.39.14.13.67.6.62.23.12.58.13.66.45h0c.15.43-.37.52-.4.89h-.05a.51.51,0,0,0,0,.3h.05c0,.13.13.13.15.21.28,0,.6,0,.76.2v.48c-.14,0,0,.24-.12.33s-.35.17-.23.4h.06c0,.35.07.77-.18,1a.62.62,0,0,1-.58.11c-.07-.14-.3,0-.36-.18a.63.63,0,0,0-.49.15c-.05.07,0,.17-.09.2a1.41,1.41,0,0,1,.05.86c-.19.1-.24.34-.49.36s-.45-.13-.76-.08c0-.12-.11-.09-.18-.13-.25.11-.59.26-.83.05-.23,0-.25-.11-.4-.22s0-.12-.11-.08,0,.12,0,.18,0,0,.08,0c0,.2.12.25.25.33h.05c.08.13.36,0,.46.17.07-.14.36,0,.4-.17h.05v.05a2.85,2.85,0,0,0,.4,0v0a1.84,1.84,0,0,0,.74,0v0c.1,0,.15,0,.23,0s.08-.07.13-.09.19-.25.27-.4a1.53,1.53,0,0,0-.1-.65c.12,0,.08-.18.18-.24.49,0,1.25.21,1.44-.37.12-.07.09-.24.13-.36h0c.08-.31,0-.74.21-.93a2,2,0,0,0,0-.87.75.75,0,0,0-.58-.25c-.18,0-.44-.15-.3-.43a3,3,0,0,0,.27-.35c.19-.12.08-.39.11-.59-.14,0,0-.25-.18-.26s-.08-.21-.22-.2c-.09-.15-.24-.17-.42-.22,0-.09-.11,0-.17-.08s-.13-.1-.13-.26l-.3-.25h-.08a.72.72,0,0,0-.51-.22c0-.1-.12,0-.2-.06a.41.41,0,0,1-.4.18c0-.27.31-.34.4-.58.11.05.16-.07.2-.1a1.47,1.47,0,0,1,.72.1"/><path class="cls-6" d="M29.52,43.3l.15,0c.09.11.15.22.32.2.25.21.55.3.71.56.09,0,.2.07.21.15s.08.18.17.21,0,.14.05.2h.06c0,.15,0,.35.1.4-.08.13-.1.42-.21.56a3.11,3.11,0,0,0-.29.33.14.14,0,0,0-.18.11.1.1,0,0,0,.05.12h0v.08s-.05,0-.07,0c.21.38.78.2,1.08.38,0,.13.21,0,.13.22.16.1.12.31.18.47-.15.24,0,.67-.1,1-.14,0-.06.21-.1.3s-.14.25-.21.36-.22.2-.25.35-.3.08-.35.23-.34-.06-.42.08c-.15-.14-.48,0-.63-.2-.09,0-.26,0-.33.09s-.2.28-.07.41l-.07.08.09.07a1.7,1.7,0,0,1-.09,1c-.1.08-.24.12-.29.21s-.27-.05-.27.1a5.31,5.31,0,0,1-1.92.1c-.12-.14-.37,0-.54-.1s-.31-.15-.4-.28-.1-.39-.08-.61c.13,0,.07-.17.15-.2.12-.24-.08-.37-.13-.58a1.18,1.18,0,0,0-.43-.05c-.23.12-.39.28-.71.2-.1-.11-.22-.1-.35-.2s-.15-.16-.25-.2-.14-.11-.13-.26S24,49.11,24,49c-.16-.13-.18-.32-.31-.46s.05-.24-.09-.23.06-.29-.09-.35a.91.91,0,0,1,.29-.89c.06-.09.19-.14.27-.23s.47.07.56-.07a.5.5,0,0,0,.4-.29v-.07c.2,0-.06-.12,0-.22H25c0-.16-.14-.14-.13-.29-.2-.2-.47-.31-.5-.63l0-.46a1.68,1.68,0,0,0,.2-.35c0-.18.24-.29.3-.46s.31-.24.51-.35c0-.12.27-.11.31-.25a7.3,7.3,0,0,0,.76-.21c.06.08.27.06.4.1a.83.83,0,0,0,.32.2s0,.09,0,.11.1.22.18.31l.07.17c-.12-.12-.21-.19-.31-.3a.87.87,0,0,0-.7.1s-.09,0-.11,0-.07.06-.13.07-.31.06-.27.27c-.19.08-.19.44-.51.33,0,0-.06,0-.07,0v.06c-.23-.05-.25.14-.41.22s0,0,0,.07-.25.19-.28.31.12.36.13.56h0c0,.12.17.06.18.18.19,0,.24.2.36.3a.41.41,0,0,1-.29.51,3,3,0,0,0-.6.1,1.87,1.87,0,0,0-.33.45,1.23,1.23,0,0,0,.13.66c0,.07.2.16.25.23s.16,0,.13.18-.06.35.08.43-.06.27.09.27.18.31.36.41.36.1.51,0,.22,0,.38,0a.5.5,0,0,1,.2.51s0,0-.06,0,.06.06.11.05,0-.23.13-.2a.65.65,0,0,0,0-.34h-.06c0-.08,0-.22-.14-.27-.38-.19-.59.27-1,.07-.08-.12-.24-.18-.25-.38l0-.5s.05,0,.07-.06c-.21-.24-.41-.28-.53-.6h-.05c0-.25-.1-.56.13-.66,0,0,.05,0,.07,0v0a1.29,1.29,0,0,0,1-.27l0-.49c-.09,0,0-.07-.07-.09-.28-.27-.72-.28-.69-.76.11,0,.06-.1.11-.13.3-.22.45-.46.85-.51a4.61,4.61,0,0,0,.36-.48c.14,0,.09-.14.22-.13a.83.83,0,0,1,.74-.18c.05.1.18.12.13.29s.11,0,.07.09,0,0-.07.05c.14.19.2.46.53.38,0,0,0,.07,0,.08s.14-.07.2-.13.09-.37.25-.51c0-.14.12-.13.15-.25h.43c.08.15.35.11.42.25.39.14.13.67.6.62.23.12.58.13.66.45h0c.15.43-.37.52-.4.89h-.05a.51.51,0,0,0,0,.3h.05c0,.13.13.13.15.21.28,0,.6,0,.76.2v.48c-.14,0,0,.24-.12.33s-.35.17-.23.4h.06c0,.35.07.77-.18,1a.62.62,0,0,1-.58.11c-.07-.14-.3,0-.36-.18a.63.63,0,0,0-.49.15c-.05.07,0,.17-.09.2a1.41,1.41,0,0,1,.05.86c-.19.1-.24.34-.49.36s-.45-.13-.76-.08c0-.12-.11-.09-.18-.13-.25.11-.59.26-.83.05-.23,0-.25-.11-.4-.22s0-.12-.11-.08,0,.12,0,.18,0,0,.08,0c0,.2.12.25.25.33h.05c.08.13.36,0,.46.17.07-.14.36,0,.4-.17h.05v.05a2.85,2.85,0,0,0,.4,0v0a1.84,1.84,0,0,0,.74,0v0c.1,0,.15,0,.23,0s.08-.07.13-.09.19-.25.27-.4a1.53,1.53,0,0,0-.1-.65c.12,0,.08-.18.18-.24.49,0,1.25.21,1.44-.37.12-.07.09-.24.13-.36h0c.08-.31,0-.74.21-.93a2,2,0,0,0,0-.87.75.75,0,0,0-.58-.25c-.18,0-.44-.15-.3-.43a3,3,0,0,0,.27-.35c.19-.12.08-.39.11-.59-.14,0,0-.25-.18-.26s-.08-.21-.22-.2c-.09-.15-.24-.17-.42-.22,0-.09-.11,0-.17-.08s-.13-.1-.13-.26l-.3-.25h-.08a.72.72,0,0,0-.51-.22c0-.1-.12,0-.2-.06a.41.41,0,0,1-.4.18c0-.27.31-.34.4-.58.11.05.16-.07.2-.1a1.47,1.47,0,0,1,.72.1Z"/><path class="cls-5" d="M28,44.52c-.12,0-.11.11-.24.07s-.15-.1-.22-.18l0-.22s.11,0,.16,0l0,0c.07.14.26.07.36,0l.07-.17c.13.16-.13.22-.07.41"/><path class="cls-4" d="M26.45,45.12c.2.07.26.32.48.34s.1.21.26.2c.33,0,.5-.18.85-.11,0,.05,0,.1.09.11h.14c0,.06.06.08.11.07s.07,0,.09,0v-.05c.17-.07.18-.21.38-.24s.14-.25.26-.32a.78.78,0,0,1,.25-.26c.12.11,0,.17,0,.28-.17.27-.37.5-.54.79a.17.17,0,0,0,.13.05c.22-.32.47-.57.66-.91.12-.06.11.11.18.12-.1.27-.37.36-.41.67-.14,0,0,.3-.18.38,0,.07,0,.17,0,.22h.06c0,.08,0,.14,0,.2h.05c0,.27,0,.56.29.63,0,.1.12.13.22.11,0,.15.24.11.36.2h.35v.25c-.32-.11-.71-.17-1.06-.25a.11.11,0,0,0,0,.16l1,.27c0,.05,0,.12-.05.15s-.47.05-.63-.1-.3,0-.46,0-.2.1-.25.17,0,.22-.2.21c0,.16-.17.17-.24.28a1.07,1.07,0,0,0-.32.2c-.23-.06-.19.22-.31.31v.32h0c-.15.19.08.62-.21.69l0-1.27c-.07,0,0-.13-.13-.1l-.07.07,0,1.3h-.1c0-.37-.11-.67-.1-1-.2,0,0-.33-.2-.35,0-.12-.13-.15-.24-.13s-.25-.21-.45-.31c0-.28-.36-.19-.53-.18,0,.18-.35,0-.36.18-.06,0-.1,0-.12-.07,0,.14-.17,0-.26.07l-.07-.12a9.35,9.35,0,0,1,1-.36c0-.05.08-.09.06-.15s-.14,0-.22-.05c-.09.17-.33,0-.4.2-.21,0-.36.15-.56.18V48a1.44,1.44,0,0,0,.64-.41c.25,0,.32-.13.45-.28l0-.53c.13,0,0-.11.1-.15s.26-.36.16-.58h-.06c0-.1,0-.16-.05-.24s-.15-.08-.15-.17-.22-.38-.3-.58c0,0,.08,0,.1,0V45a5.45,5.45,0,0,0,.76,1s.08,0,.1-.05v-.07a8.36,8.36,0,0,0-.76-1,.18.18,0,0,1,.16,0c.06.13.22.14.22.3"/><path class="cls-10" d="M28,43.32c-.06.23-.05.54-.31.62a2.13,2.13,0,0,1-.2-.62c.14-.09.09-.38.3-.4A.78.78,0,0,1,28,43.32Z"/><path class="cls-10" d="M31.84,46c-.25.1-.38.43-.71.3l-.22-.12c.11-.17.17-.38.43-.41S31.88,45.7,31.84,46Z"/><path class="cls-10" d="M28,45.86V46c-.14.05-.2-.08-.29-.13s.18,0,.29,0Z"/><path class="cls-10" d="M27.66,46.06c-.07.08-.24.15-.35.25-.12-.07,0-.32-.25-.27s-.13.22,0,.27-.21.24-.29.38c0-.06,0-.16-.09-.2s-.09,0-.13.07c-.05.2.19.32,0,.46,0,0-.08,0-.13,0-.1-.53.38-.83.69-1.14.21.16.56-.33.58.13Z"/><path class="cls-10" d="M24.2,46c0,.15.2,0,.27.1s.31.24.26.43a1.16,1.16,0,0,1-.91-.05c-.08-.09-.24-.18-.18-.35A.88.88,0,0,1,24.2,46Z"/><path class="cls-10" d="M28.6,46.16a1.45,1.45,0,0,1,.49.64c-.16.07-.26-.09-.42-.11,0-.07-.11,0-.07-.15s.09,0,.07-.1-.07-.09-.12-.13-.27.09-.38,0,.12-.12.16-.25.12.18.27.12Z"/><path class="cls-10" d="M28,46.49c0,.07,0,0-.07.07l-.26.16c0-.16-.24-.09-.22-.25.18,0,.46-.27.55,0Z"/><path class="cls-10" d="M27.37,46.64c0,.16.21.09.09.25s-.28.35-.47.09.2-.17.25-.36c0,.05.08,0,.13,0Z"/><path class="cls-10" d="M28.6,46.87a.47.47,0,0,1-.35.2c-.11,0-.19-.18-.28-.2.12-.07.31-.23.48-.1,0,.09.11.06.15.1"/><path class="cls-10" d="M28,47.27l-.35.26-.3-.17c0-.16.22-.22.32-.34.12.1.3.13.33.25Z"/><path class="cls-10" d="M29.06,47.05c0,.13.18.14.1.28a.28.28,0,0,1-.2.05l0,0c0,.11-.12.13-.2.07l-.22-.2c.2,0,.34-.25.55-.18Z"/><path class="cls-10" d="M27,47.3c0,.15-.18.15-.18.26-.18,0-.13-.2-.24-.29a.23.23,0,0,1,.42,0Z"/><path class="cls-10" d="M28.55,47.58c-.06.11-.26.18-.35.25s-.31,0-.23-.22S28.38,47.35,28.55,47.58Z"/><path class="cls-10" d="M26.61,47.78a.18.18,0,0,1-.09.18c0-.12-.22-.25-.15-.4S26.54,47.69,26.61,47.78Z"/><path class="cls-10" d="M27.46,47.7c-.11.07-.08.33-.31.26,0-.12-.28-.07-.14-.26S27.39,47.59,27.46,47.7Z"/><path class="cls-10" d="M28.83,48.16c-.07,0-.2-.14-.32-.13-.05-.2.23-.1.27-.27.1,0,.22,0,.28-.06.05.15-.17.33-.23.46Z"/><path class="cls-10" d="M28,48.12c-.16.08-.29.22-.46.09s.16-.21.22-.35c.07.07.27.12.24.26Z"/><path class="cls-10" d="M27,48.29c0,.11-.19.1-.25,0s-.15-.08-.1-.2.23,0,.33,0a.09.09,0,0,1,0,.13Z"/><path class="cls-10" d="M28.71,48.29c-.22,0-.38.5-.62.15-.09-.2.17-.12.18-.28C28.45,48.11,28.55,48.28,28.71,48.29Z"/><path class="cls-10" d="M27.53,48.62c-.13.07-.26-.07-.4-.1a.16.16,0,0,1,.15-.15C27.33,48.49,27.61,48.42,27.53,48.62Z"/><path class="cls-10" d="M30.32,50c0,.22.25.26.16.52s-.19-.11-.36-.07c0-.12-.1,0-.15-.1s-.23-.25-.2-.44.41,0,.55.09Z"/><path class="cls-10" d="M25.81,50.09a.73.73,0,0,1-.5.58l-.22,0c0-.4.29-.58.58-.72C25.73,50,25.86,50,25.81,50.09Z"/><path class="cls-10" d="M27.69,48.87l-.1.09,0,1.29h.26V49l-.15-.12Z"/><path class="cls-10" d="M25.17,48.33l1-.37.08-.13-.07-.08-.16,0-.13.08-.17,0-.12,0-.07.06-.14,0-.33.12.1.21Z"/><path class="cls-10" d="M29.49,47.55l-.06.1.1.14,1,.25.07-.21L30,47.68l-.43-.1-.12,0Z"/><path class="cls-10" d="M29.63,45.06l-.48.64-.23.27-.14,0,.22-.35.33-.46.07-.22.23.16Z"/><path class="cls-10" d="M26,45l.36.52.24.33.15.14.12,0,0-.12-.43-.54L26.19,45l-.13-.1Z"/></svg>