<svg id="Слой_1" data-name="Слой 1" xmlns="http://www.w3.org/2000/svg" viewBox="0 0 56.69 56.69"><defs><style>.cls-1{fill:#344496;}.cls-2,.cls-3{fill:none;stroke:#fff;stroke-width:7px;}.cls-2{stroke-miterlimit:120;}.cls-3{stroke-miterlimit:120;}.cls-4{fill:#fff;}</style></defs><path class="cls-1" d="M-2.07-2.16H58.76v61H-2.07Z"/><g id="b"><circle id="a" class="cls-2" cx="43.62" cy="28.35" r="5.09"/><circle id="a-2" data-name="a" class="cls-3" cx="28.35" cy="37.17" r="5.09"/></g><g id="b-2" data-name="b"><circle id="a-3" data-name="a" class="cls-2" cx="13.07" cy="28.35" r="5.09"/><circle id="a-4" data-name="a" class="cls-3" cx="28.35" cy="19.53" r="5.09"/></g><path id="c" class="cls-4" d="M39.8,35a2.55,2.55,0,0,0-3.47.93A2.51,2.51,0,0,0,36,37.17l-3.81-6.62a2.54,2.54,0,0,0,3.47-.93A2.49,2.49,0,0,0,36,28.35Z"/><path id="c-2" data-name="c" class="cls-4" d="M24.53,30.55a2.55,2.55,0,0,0,.93-3.48,2.67,2.67,0,0,0-.93-.93h7.64a2.54,2.54,0,0,0,0,4.41Z"/><path id="c-3" data-name="c" class="cls-4" d="M16.89,35a2.56,2.56,0,0,1,3.48.93,2.61,2.61,0,0,1,.34,1.28l3.82-6.62a2.55,2.55,0,0,1-3.48-.93,2.6,2.6,0,0,1-.34-1.27Z"/></svg>