<svg id="Слой_1" data-name="Слой 1" xmlns="http://www.w3.org/2000/svg" viewBox="0 0 56.69 56.69"><defs><style>.cls-1{fill:#121114;}.cls-2{fill:#175ba0;}</style></defs><path class="cls-1" d="M14.05,32.74c-.39.24-.68.46-1,.62a2.1,2.1,0,0,1-3.17-1.47,25,25,0,0,1,0-7.22c.23-1.64,2.55-2.41,4.23-.66.2-1.23,1.15-.78,1.82-.76s.35.7.35,1c0,3.78,0,7.56,0,11.33,0,.3.21.73-.18.87s-.6-.22-.85-.43C14.23,35.23,14.2,34,14.05,32.74Zm0-4.35c0-.81,0-1.62,0-2.43s-.42-1-1-1.12-1,.29-1,.88a25.42,25.42,0,0,0,0,5.16c.06.61.42,1,1,.9s1.15-.24,1.08-1.08S14.09,29.16,14.09,28.39Z"/><path class="cls-1" d="M31.83,20.18c1.48.35,2,1.24,2.26,3.5.31.12.44-.17.64-.28,1.67-1,3.43-.13,3.52,1.79a62.64,62.64,0,0,1,0,6.28c-.09,1.88-1.88,2.72-3.55,1.77-.26-.15-.42-.65-.81.07-.23.43-1.25.23-1.88.09-.38-.08-.17-.65-.17-1Q31.82,26.31,31.83,20.18ZM34,28.24c0,.84,0,1.69,0,2.52s.35.9.9,1S36,31.58,36,31c.06-1.79.06-3.58,0-5.36a.84.84,0,0,0-1.09-.8c-.54.1-1,.31-.91,1S34,27.44,34,28.24Z"/><path class="cls-1" d="M39,28.24a13.13,13.13,0,0,1,.15-2.73,2.88,2.88,0,0,1,3-2.47c1.92,0,3,.69,3.4,2.29a13.49,13.49,0,0,1,.2,2.84c0,.5-.23.61-.67.61-1,0-2.07,0-3.11,0-.65,0-.85.2-.77.81,0,.39,0,.8.08,1.2a1,1,0,0,0,1.06,1,1,1,0,0,0,1.08-.9c.1-.32-.11-.86.31-.95a7.48,7.48,0,0,1,1.77,0c.24,0,.21.24.22.42a3.35,3.35,0,0,1-6.61.73A13.56,13.56,0,0,1,39,28.24ZM42.45,27c.44-.14,1.25.34,1.13-.69-.08-.71-.21-1.43-1.17-1.43s-1.06.77-1.13,1.46C41.19,27.31,42,26.79,42.45,27Z"/><path class="cls-1" d="M23.62,28.34c0,1.39,0,2.79,0,4.18,0,.33.31.94-.36.94s-1.44.41-1.77-.31c-.24-.5-.33-.32-.57-.14a2.85,2.85,0,0,1-1.73.61,1.79,1.79,0,0,1-1.95-1.81c-.07-2.68-.07-5.36,0-8,0-1,.88-.42,1.36-.53s.86-.15.85.59c0,2.28,0,4.55,0,6.83,0,.61.06,1.19.83,1.11.61-.07,1.23-.26,1.21-1.14,0-1.46,0-2.93,0-4.4a3.27,3.27,0,0,1,1.46-2.93c.51-.32.76-.3.74.42C23.6,25.26,23.62,26.8,23.62,28.34Z"/><path class="cls-1" d="M28.78,28.77a3.74,3.74,0,0,0-.67,0c-.52.08-1.33-.32-1.51.22a3,3,0,0,0,.23,2.35,1,1,0,0,0,1.05.44,1,1,0,0,0,.89-.85c.08-.33-.09-.88.3-1a6.89,6.89,0,0,1,1.76,0c.22,0,.23.22.25.41a3.15,3.15,0,0,1-2.59,3.23,3.21,3.21,0,0,1-3.91-2,18.92,18.92,0,0,1-.25-4.81c0-.34.26-.51.46-.72.65-.69,1.32-1.38,2-2.07a2.23,2.23,0,0,1,3.77.48c.71,1.24.54,2.62.55,4,0,.35-.26.38-.54.38Zm-1-1.78c.33-.27,1.19.36,1.11-.68-.06-.7-.12-1.45-1.09-1.48s-1.14.73-1.22,1.47C26.44,27.35,27.29,26.76,27.75,27Z"/><path class="cls-1" d="M48.74,28.26c0,.77,0,1.55,0,2.31s.37,1.24,1.15,1.22S51,31.27,51,30.55c0-.35-.26-.92.31-1a7.49,7.49,0,0,1,1.77,0c.06,0,.15.23.17.37a3.28,3.28,0,0,1-2.49,3.64c-1.91.44-3.67-.43-4-2.13a15.15,15.15,0,0,1,0-6.11c.38-1.8,1.8-2.53,4-2.23a3.07,3.07,0,0,1,2.54,3.14c0,.43-.12.59-.56.57-.84,0-1.85.31-1.77-1.17,0-.49-.45-.8-1-.79a1.05,1.05,0,0,0-1.1,1c-.07.8,0,1.62,0,2.42Z"/><path class="cls-2" d="M3.39,31.08a2.36,2.36,0,0,1,2.43-2.52A2.62,2.62,0,0,1,8.45,31,2.68,2.68,0,0,1,5.87,33.6,2.44,2.44,0,0,1,3.39,31.08Z"/></svg>