<svg id="Слой_1" data-name="Слой 1" xmlns="http://www.w3.org/2000/svg" xmlns:xlink="http://www.w3.org/1999/xlink" viewBox="0 0 56.69 56.69"><defs><style>.cls-1{fill:none;}.cls-2{clip-path:url(#clip-path);}.cls-3{fill:#5685c5;}.cls-4{fill:#231f20;}</style><clipPath id="clip-path"><rect class="cls-1" x="-63.66" y="-0.64" width="57.97" height="57.97"/></clipPath></defs><g class="cls-2"><g id="layer1"><g id="g3074"><path id="path3076" class="cls-3" d="M-51.25,47.08c20.14,4,35,5.67,55.52-.13V49c-20.63,5.72-35.7,4-55.9,0-17.58-3.49-31.36-6.13-49-.11V46.82c17.7-5.89,31.72-3.25,49.36.26"/></g></g></g><g id="layer1-2" data-name="layer1"><g id="g3741"><g id="g3763"><path id="path3765" class="cls-4" d="M2.56,20.27,32.89,50.62h2L4.55,20.27Z"/></g><g id="g3767"><path id="path3769" class="cls-4" d="M25.35,45.46h-2L7.72,29.8v-2Z"/></g><g id="g3771"><path id="path3773" class="cls-4" d="M21,45.46H19L7.72,34.17v-2Z"/></g><g id="g3775"><path id="path3777" class="cls-4" d="M16.62,45.46h-2L7.72,38.55v-2Z"/></g><g id="g3779"><path id="path3781" class="cls-4" d="M6.93,20.27,37.26,50.62h2L8.91,20.27Z"/></g><g id="g3783"><path id="path3785" class="cls-4" d="M11.3,20.27,41.63,50.62h2L13.28,20.27Z"/></g><g id="g3787"><path id="path3789" class="cls-4" d="M43.61,46.25v2l-27.95-28h2Z"/></g><g id="g3791"><path id="path3793" class="cls-4" d="M43.61,41.88v2L25.17,25.41h2Z"/></g><g id="g3795"><path id="path3797" class="cls-4" d="M47.37,41.27h-2l-21-21h2Z"/></g><g id="g3799"><path id="path3801" class="cls-4" d="M51.73,41.27h-2l-21-21h2Z"/></g><g id="g3803"><path id="path3805" class="cls-4" d="M54.12,39.29v2l-21-21h2Z"/></g><g id="g3807"><path id="path3809" class="cls-4" d="M54.12,34.92v2L42.64,25.41h2Z"/></g><g id="g3811"><path id="path3813" class="cls-4" d="M54.12,30.55v2L47,25.41h2Z"/></g></g></g><g id="g3747"><path id="path3749" class="cls-4" d="M9.76,10.66c0,.74-.59,1.17-1.56,1.17H6.46V9.46H8.22c.93,0,1.54.38,1.54,1.16Zm4-.3v0a3.8,3.8,0,0,0-1.1-2.87A5.88,5.88,0,0,0,8.32,6.07H2.42v12.1h4V14.72h.78l3.45,3.45h4.82L11.4,14.06a3.91,3.91,0,0,0,2.38-3.7"/></g><g id="g3751"><path id="path3753" class="cls-4" d="M22.68,12.78c0,1.47-.78,2.06-1.87,2.06S19,14.2,19,12.7V6.08H14.84v6.67c0,4,2.33,5.67,5.94,5.67s6-1.63,6-5.76V6.08H22.68Z"/></g><g id="g3755"><path id="path3757" class="cls-4" d="M35.84,10.34h-3.7V6.08h-4V18.17h4V13.84h3.7v4.33h4V6.08h-4Z"/></g><g id="g3759"><path id="path3761" class="cls-4" d="M48.52,10.66c0,.74-.59,1.17-1.55,1.17H45.22V9.46H47c.94,0,1.54.38,1.54,1.16Zm4-.3v0a3.77,3.77,0,0,0-1.11-2.87,5.86,5.86,0,0,0-4.35-1.39H41.18v12.1h4V14.72H46l3.46,3.45h4.82l-4.12-4.11a3.92,3.92,0,0,0,2.39-3.7"/></g></svg>