<svg id="Слой_1" data-name="Слой 1" xmlns="http://www.w3.org/2000/svg" viewBox="0 0 56.69 56.69"><defs><style>.cls-1{fill:#1e92d0;}.cls-2{fill:#f9fafd;}</style></defs><path class="cls-1" d="M60,40.36V34.17l-1.11.21c.37-.07-.14-13.38-.14-14.5,0-.71-.16-5.84-.16-9.8q-25.22,0-50.42,0c-3.74,0-5.17,1.62-5.13,5.22.1,8.45,0,16.91,0,25.37,0,5.76.63,6.41,6.33,6.41h51.3c0-1.35,0-2.7,0-4.05A4.55,4.55,0,0,1,60,40.36ZM11,39.52A3,3,0,0,1,7.76,36.1c.1-1.8,1.31-2.91,3.32-3a3,3,0,0,1,3.15,3A3,3,0,0,1,11,39.52Zm23.45-6.6c-.14,3.43-2.8,6.1-6.65,6.6a23.2,23.2,0,0,1-2.89,0c-2.23.1-4.42-.09-6.24-1.55-1-.81-1.7-1.84-.92-3.18a2.28,2.28,0,0,1,3.11-1.13,13.1,13.1,0,0,0,6,1.09c1.23-.13,2.17-.65,2.14-2s-1-1.45-2-1.59c-1.36-.19-2.72-.38-4.06-.65-2.5-.5-4.3-1.83-4.8-4.42a6.48,6.48,0,0,1,2.11-6.66c2.53-2.13,8.49-2.63,11.35-.93,1.23.72,2.37,1.64,1.75,3.25s-2,1.79-3.42,1.34A10.17,10.17,0,0,0,25,22.45c-1,.16-2,.51-2,1.68s1,1.52,2,1.65,2.19.17,3.27.37C32.73,27,34.56,29,34.4,32.92ZM51.64,22.46c-3.59-.53-4.1,1.31-3.91,4.23s0,6,0,9c0,1.86-.15,3.8-2.61,3.81s-3-1.91-3-4c0-3.13-.1-6.27,0-9.4.1-2.35-.17-4-3.23-3.63-1.61.22-3.26-.22-3.35-2.14-.1-2.09,1.48-2.7,3.34-2.7h6.61c2.06,0,4.12,0,6.19,0,1.57,0,2.68.78,2.64,2.47A2.22,2.22,0,0,1,51.64,22.46Z"/><path class="cls-2" d="M24.86,39.54c-2.23.1-4.42-.09-6.24-1.55-1-.81-1.7-1.84-.92-3.18a2.28,2.28,0,0,1,3.11-1.13,13.1,13.1,0,0,0,6,1.09c1.23-.13,2.17-.65,2.14-2s-1-1.45-2-1.59c-1.36-.19-2.72-.38-4.06-.65-2.5-.5-4.3-1.83-4.8-4.42a6.48,6.48,0,0,1,2.11-6.66c2.53-2.13,8.49-2.63,11.35-.93,1.23.72,2.37,1.64,1.75,3.25s-2,1.79-3.42,1.34A10.17,10.17,0,0,0,25,22.45c-1,.16-2,.51-2,1.68s1,1.52,2,1.65,2.19.17,3.27.37c4.46.84,6.29,2.88,6.13,6.77-.14,3.43-2.8,6.1-6.65,6.6A23.2,23.2,0,0,1,24.86,39.54Z"/><path class="cls-2" d="M45.55,17.65c2.06,0,4.12,0,6.19,0,1.57,0,2.68.78,2.64,2.47a2.22,2.22,0,0,1-2.74,2.32c-3.59-.53-4.1,1.31-3.91,4.23s0,6,0,9c0,1.86-.15,3.8-2.61,3.81s-3-1.91-3-4c0-3.13-.1-6.27,0-9.4.1-2.35-.17-4-3.23-3.63-1.61.22-3.26-.22-3.35-2.14-.1-2.09,1.48-2.7,3.34-2.7h6.61Z"/><path class="cls-2" d="M11.08,33.13a3,3,0,0,1,3.15,3A3,3,0,0,1,11,39.52,3,3,0,0,1,7.76,36.1C7.86,34.3,9.07,33.19,11.08,33.13Z"/></svg>