<svg id="Слой_1" data-name="Слой 1" xmlns="http://www.w3.org/2000/svg" viewBox="0 0 56.69 56.69"><defs><style>.cls-1{fill:#cc1517;}.cls-2{fill:#ffd803;}</style></defs><path id="path2" class="cls-1" d="M-1.12-.8h59.4V57.76H-1.12Z"/><path id="path11728" class="cls-2" d="M28.35,4.62l-1.78,5.46H20.82l4.65,3.38L23.7,18.93l4.65-3.38L33,18.93l-1.78-5.47,4.65-3.38H30.12Zm0,2.84L29.48,11h3.68l-3,2.16,1.13,3.5-3-2.16-3,2.16,1.14-3.5-3-2.16h3.68Z"/><g id="g2900"><path id="rect4165-6" class="cls-2" d="M15.65,33.24l3.93,3.95,3.72-3.68c5.64,6,11.57,11.87,17.17,17.93a2.16,2.16,0,0,0,3.07-3c-6-5.66-12-11.37-18.06-17l5-5-7-1Z"/><path id="path4179-3" class="cls-2" d="M28.35,20.44a18.27,18.27,0,0,1,7.14,7.15,17.71,17.71,0,0,1,2.13,8,8.6,8.6,0,0,1-15,5.74l-.87.73a1.27,1.27,0,0,0-.47-.09,1.31,1.31,0,0,0-1,.46A1.61,1.61,0,0,0,19,43.5a5.64,5.64,0,0,1-3.2,2.81h0a5.29,5.29,0,0,0-1.84,1.21A3.84,3.84,0,0,0,12.61,51a.86.86,0,0,0,0,.27.82.82,0,0,0,.82.82.88.88,0,0,0,.33-.07,4,4,0,0,0,3.35-1.37,4.94,4.94,0,0,0,1.25-2,5.58,5.58,0,0,1,2.84-3.14l.08,0a1.63,1.63,0,0,0,.89-1.09,11.42,11.42,0,0,0,8.45,4c6.23.14,10.88-4.43,11.1-11a17.22,17.22,0,0,0-4.1-11.07,18.25,18.25,0,0,0-9.22-5.87Z"/></g></svg>