<svg id="Слой_1" data-name="Слой 1" xmlns="http://www.w3.org/2000/svg" viewBox="0 0 56.69 56.69"><defs><style>.cls-1{fill:#ffcc07;}.cls-2{fill:#e30d13;}.cls-3,.cls-4{fill:#098036;}.cls-4{stroke:#fff;stroke-miterlimit:10;stroke-width:1.01px;}.cls-5{fill:#3157a4;}.cls-6{fill:#254093;}.cls-7{fill:#010101;}</style></defs><g id="g4082"><path id="_61386608" data-name="61386608" class="cls-1" d="M16.48,25.31c.29,0-.16,0,.06.06C16.48,25.35,16.29,25.31,16.48,25.31Z"/><path id="_61386696" data-name="61386696" class="cls-1" d="M16.34,31c.3,0,0,.07.14.12h-.2v-.06C16.54,31,16,31.05,16.34,31Z"/><path id="_61386784" data-name="61386784" class="cls-1" d="M16.41,32.17c.12,0,.05.16.07.26h-.14C16.36,32.33,16.29,32.17,16.41,32.17Z"/><path id="_61386872" data-name="61386872" class="cls-1" d="M18.38,36.94c.3,0-.15,0,.06.07C18.38,37,18.2,36.94,18.38,36.94Z"/><path id="_61386960" data-name="61386960" class="cls-1" d="M17.64,34.9V35s-.46.06.08.17C17.7,35.06,17.78,34.87,17.64,34.9Z"/><path id="_61387048" data-name="61387048" class="cls-1" d="M16.46,34.54c.1,0,0,.07.09.36h-.19C16.38,34.78,16.3,34.5,16.46,34.54Z"/><path id="_61387136" data-name="61387136" class="cls-1" d="M17.27,34.18c0,.08,0,.18,0,.27h.09c.06.21,0,.16.09.36h.19a1.22,1.22,0,0,0,0-.27s-.19-.06-.28-.09a2.43,2.43,0,0,1,0-.27Z"/><path id="_61387224" data-name="61387224" class="cls-1" d="M16.46,33.91V34c0,.19-.05,0,.09.09a1.22,1.22,0,0,0,0,.27.88.88,0,0,0-.19.1v-.18h-.09C16.25,34.18,16.36,33.91,16.46,33.91Z"/><path id="_61387312" data-name="61387312" class="cls-1" d="M16.36,33.09s0,.23,0,.27.19.24-.09.18c.08,0-.08-.36-.08-.36h.08S16.23,33,16.36,33.09Z"/><path id="_61387400" data-name="61387400" class="cls-1" d="M17.09,31.91c0,.26-.05.42-.09.72h.09v.19h.18s0-.19.09-.09c.05-.33,0-.45.09-.73-2.38-.59,2.15.68-.09-.09C17.27,31.87,17.16,32,17.09,31.91Z"/><path id="_61387488" data-name="61387488" class="cls-1" d="M16.19,29.1c.16,0,.06.2.08.36h-.18v-.18h.1v-.09C16.07,29.19,16,29.05,16.19,29.1Z"/><path id="_61387576" data-name="61387576" class="cls-1" d="M16.36,24.47a1.22,1.22,0,0,1,0,.27h-.09C16.28,24.66,16.22,24.4,16.36,24.47Z"/><path id="_61387664" data-name="61387664" class="cls-1" d="M16.36,23.75c.13,0,0,0,.1.27h-.19C16.29,23.91,16.21,23.71,16.36,23.75Z"/><path id="_61387752" data-name="61387752" class="cls-1" d="M16.55,22.12a1.22,1.22,0,0,0,0,.27c-.16,0-.09.11.08.09C16.62,22.4,16.69,22,16.55,22.12Z"/><path id="_61387840" data-name="61387840" class="cls-1" d="M16.55,21c0-.08.13.15-.09.27s.1.1.09.18h-.19c.08-.25-.1-.21.1-.37S16.21,21,16.55,21Z"/><path id="_61387928" data-name="61387928" class="cls-1" d="M21.44,8a1.34,1.34,0,0,0,.27.17v.1c.07,0,.24,0,.27.09s0,.39,0,.54a1.56,1.56,0,0,0,.28-.08v-.1h.18c0,.05,0,.15.09.18l.36.28c.05.09,0,.25,0,.36H23a2.43,2.43,0,0,1,0,.27h.08c0,.14,0,.22,0,.36h.09c.06.36,0,.44.1.82h.09c0,.19-.06.45,0,.64h.08v.17c.05,0,.17.06.19.1s0,.27.09.45h.09c.05.23-.06.49,0,.73a.15.15,0,0,1,.09.17H23.8v.19h.09c0,.21,0,.43,0,.63H24a14.77,14.77,0,0,1,0,1.63h-.09c0,.31,0,.62,0,.91H23.8c0,.25,0,.49,0,.73h-.09c-.06.67,0,1.15-.09,1.81h-.09c-.06.37,0,.4-.1.73h-.08a7.75,7.75,0,0,0,0,1.18c-.15,0-.1.11-.19.18h.1c0,.2,0,.43,0,.63h-.1c-.05.48,0,.71-.09,1.18H23c0,.1.09.26.08.27H23v1.09h-.1s.08.25.1.09v.18h-.1c0,.43,0,.85,0,1.27H22.8c0,.84-.09,1.4-.09,2.27h-.09c0,.2.1.23.09.54h-.09v1.09h-.09c0,.18,0,.37,0,.55h.09v.18h-.09a4.86,4.86,0,0,0,0,.54h-.09v.09c.1.05.12.12.09.27h-.09c-.06.27,0,.3-.1.55h-.08v.09h.08c0,.19.07,0-.08.09a1.69,1.69,0,0,1,0,.45h-.18s-.09.18-.1.19h-.17a2.44,2.44,0,0,1,0,.54c-.6,0,.38.07-.1-.1a.52.52,0,0,0-.36.1v.18c-.19.09,0-.11-.09.09,0-.16.09.09.09.09h-.09c0,.17,0,0,.09.09,0,.19.07,0-.09.1a2.16,2.16,0,0,1,0,.44l-.27.19a1.9,1.9,0,0,0,0,.63l-.18.09c0,.2.14.14.08.27h-.08a2.87,2.87,0,0,1-.09.37,1.22,1.22,0,0,0-.27,0s-.07-.14-.1-.18a1.22,1.22,0,0,1-.27,0v-.19H20s-.07-.13-.09-.17h-.18v-.1c-.24-.08,0,.05-.09.1a.15.15,0,0,1-.19-.1,3.23,3.23,0,0,0-.44,0v.18l-.19.09v.1a.32.32,0,0,1-.36-.19c-.15,0-.4,0-.54,0v.19l.17.09v.18l.27.18c.06.13,0,.06-.08.09.08.21-.11,0,.08.09v.19h.1c0,.1,0,.15,0,.27s-.17-.07-.18-.1,0-.19-.09-.27-.28,0-.37-.09c0,.14,0,.22,0,.36h.1v.19H18c0,.13,0,.22,0,.36s-.11-.07-.09.09H18v.18c-.05,0-.25,0-.28,0-.07-.25.12,0-.08-.09a2.36,2.36,0,0,0,0-.46l-.19-.08c-.07-.12,0-.2-.09-.28s-.23,0-.27-.08,0-.26,0-.37H17V35.9c-.2-.1,0,.13-.09-.1.07,0,.13.06.09-.08h-.09v-.19h-.09a4.16,4.16,0,0,1-.09-.63h-.1c0-.17,0,0,.1-.09s0-.06-.1-.18h.1c0-.22.07,0-.1-.09a2,2,0,0,0,0-.55s-.16-.1-.17-.18h.09c0-.16,0-.1.08-.18v-.09c-.25-.13.07-.51-.17-.64v-.08h.09c0-.19,0-.37,0-.55h-.09a2.36,2.36,0,0,1,0-.46c-.22-.09,0,.13-.1-.08s-.09.18-.09.18-.16-.46,0-.46a.16.16,0,0,0,.09.19,2.27,2.27,0,0,1,0-.37h.1c0-.18-.05-.14-.1-.27s.32-.12.19-.18h-.09l-.1-.27c-.17-.08-.17.16-.27.09.08-.29,0-.37.1-.63.07,0,.11,0,.17.08v-.17h.1c0-.14-.07-.36-.1-.46h.1c.93-.47-1,.21.09-.09v-.09l-.19-.09s0-.25,0-.27a1.22,1.22,0,0,0-.17.08c-.1-.32,0-.05-.1-.17v-.19c.26,0,.11.21.27.19v-.19h.19v-.18h-.19a1.69,1.69,0,0,1,0-.45c-.49-.27,0,.3-.17-.18-.3,0,.06-.26.08-.28s0,.24,0,.28h.09c.05-.11-.05-.17,0-.28h.19a1.73,1.73,0,0,1,.08-.44,1.22,1.22,0,0,0-.44.08V27c.06,0,.18,0,.27,0,0-.17,0-.1.09-.18-.08-.14-.05-.21-.09-.37h-.19v-.17c.55-.16-.31.21.09-.1h.1V26h-.19a1.3,1.3,0,0,0,0-.28.87.87,0,0,1,.28,0c0-.17,0-.09.08-.18-.06-.13,0,0-.08-.19h-.09V25.2h-.1c-.17-.14.18-.18.19-.19a.81.81,0,0,1,0-.27c-.2-.1,0,.15-.09-.09.1,0,.1.07.09-.08-.12,0-.4-.3.08-.28a1.38,1.38,0,0,1,0-.64s-.24-.14-.17-.17h.09l.08-.28c-.07,0-.12,0-.08-.18l.18-.09v-.18h-.1v-.18c-.14-.07-.17.05-.27.09a4.86,4.86,0,0,1,0-.54c-.16-.09-.05.11-.09-.09.21-.11.1,0,.36,0a3.56,3.56,0,0,1,0-.73h.1c.07-.14.05,0,.09-.19a.64.64,0,0,0-.19-.08s.14-.17.1-.19c-.2-.1,0,.14-.1-.09.08,0,.14.06.1-.08s-.2-.07-.27-.1V20.3h.09a9,9,0,0,0,0-1.27h.08a.66.66,0,0,1-.08-.36h.08a4.45,4.45,0,0,1,0-.73h.1a2.43,2.43,0,0,0,0-.27h.09a2.26,2.26,0,0,0,0-.45h-.09c-.05-.19.06-.2-.1-.27v-.1h.1a2.53,2.53,0,0,0,.09-.45.12.12,0,0,1-.09-.18h.09s.07-.17.09-.19.16-.05.18-.08c.11-.25,0-.43.09-.73h.09V15h.09c0-.13,0-.32,0-.45l.18-.09c0-.08,0-.2,0-.27h.1V14h.08c.05-.14,0-.3,0-.45h.09c.14-.27-.17,0,.1-.09v-.18H18c0-.08,0-.19,0-.27h.08v-.19h.1v-.18l.17-.09c.06-.09.06-.33.1-.36h.18v-.09c.15-.05.23,0,.37-.09v-.18c0-.06.2,0,.27-.1s.05-.15.09-.27h.08c0-.11,0-.24,0-.36h.1c0-.31,0-.45.09-.73a1.26,1.26,0,0,1-.55.1,1.22,1.22,0,0,0,0-.27,1.65,1.65,0,0,0,.19-.1s-.05-.22-.1-.09V10l.19-.08v-.1h.18V9.6h.09V9.51c.2-.11.24-.27.45-.36V9.06h.09V8.87s.21,0,.28,0V8.69l.27-.18V8.42h.17a1.73,1.73,0,0,1,.1.37c.11.09.36,0,.55.08l.08.19h.19V8.87h-.1l-.09-.18h-.18s-.07-.15-.09-.18h-.09V8.33h-.09c-.06-.17,0-.16-.09-.27C21.35,8,21.22,8.08,21.44,8Z"/></g><path id="_61388104" data-name="61388104" class="cls-2" d="M8.21,20.29c.12,0,0,.15.07.25H8.15v-.06C8.05,20.57,8.06,20.28,8.21,20.29Z"/><path id="_61388192" data-name="61388192" class="cls-2" d="M8,20.67c.23,0,.18.22,0,.19V20.8C7.83,20.8,7.88,20.67,8,20.67Z"/><path id="_61388280" data-name="61388280" class="cls-2" d="M7.46,21.1a2.54,2.54,0,0,1,.39,0s.06.13.06.14,0,.09-.06.13v.05l-.45-.05C7.41,21.26,7.35,21.12,7.46,21.1Z"/><path id="_61388368" data-name="61388368" class="cls-2" d="M7.76,27.21c.13,0,0,.11.07.2H7.7C7.72,27.32,7.64,27.21,7.76,27.21Z"/><path id="_61388456" data-name="61388456" class="cls-2" d="M8.93,19.49s.07.12.09.17H8.84C8.86,19.58,8.78,19.45,8.93,19.49Z"/><path id="_61388544" data-name="61388544" class="cls-2" d="M9.65,18.85a2.26,2.26,0,0,0,.45,0v.09c.11,0,.18-.05.28,0l.27.36c.08,0,.21,0,.27,0l.09.28c.09,0,.17,0,.27,0v.08a1,1,0,0,1,.27.1v.09c.08,0,.2,0,.28,0l.09.18c.16.1.2,0,.36.09l.09.18h.19s.07.18.08.18h.19v.09H13l.1.18c.05,0,.22.06.27.09v.1h.09c0,.08,0,.19,0,.27l.27.18c.09.18,0,.24.09.45h.1c0,.11-.05.17,0,.28H14v.18h.08c0,.08,0,.19,0,.27h.1c.06.22,0,.15.09.36h.09c0,.11-.06.27,0,.36l.27.19v.08h.18v.09H15v.1l.37.27c0,.07,0,.22,0,.27s.19,0,.27.09v.19l.27.17v.1h.18c.06.11,0,.41,0,.53a1,1,0,0,1,.18.1c0,.05,0,.24,0,.27s.28,0,.36.09V26h-.17v.27h-.19c-.07.14,0,.48-.08.63S16,27,16,27v.18h-.09c0,.07,0,.22,0,.28l-.27.08v.19l-.18.09v.08c-.07.05-.23,0-.28.1v.18H15.1v.18H15c-.07.2,0,.27-.09.46-.2,0-.2.12-.45.09v-.09h-.18s0-.13-.19-.1v.1h-.17v.09c-.09,0-.27.27-.27.27a.91.91,0,0,1-.37.09v-.09a.88.88,0,0,0-.28,0c-.27.1.31.14-.08.09v-.09a1.31,1.31,0,0,1-.28,0V29.1c-.1,0-.16,0-.27,0l-.09-.18c-.16-.08-.2,0-.36-.09v-.1c-.27-.07-.18.19-.18.19s-.19-.19-.19-.19-.19,0-.27,0-.06-.16-.09-.17H11v-.1h-.09v-.09c-.08,0-.19,0-.27,0v-.18c-.19-.07-.45,0-.63,0L9.92,28c-.08,0-.18,0-.27,0l-.18-.27c-.17-.09-.4,0-.54-.09v-.18H8.74v-.09c-.09,0-.28.06-.36,0v-.1c-.15-.08,0-.11-.08-.27l-.19-.09v-.18H8v-.09c-.06,0-.23,0-.27,0v-.09c.13.23,0-.27,0-.27H7.57c0-.08,0-.2,0-.27H7.48c-.05,0-.07-.25-.1-.28a1.31,1.31,0,0,0-.17-.09v-.09h-.1v-.19c-.06,0-.23,0-.26-.08s0-.2,0-.28l-.19-.08v-.19l-.27-.09c0-.09.05-.27,0-.36s.16,0,.27-.09.09-.13.19-.18,0-.34-.19-.18c0,0-.09-.18-.09-.19H6.39l.09-.27c.11,0,.16,0,.27,0v-.09c.32-.05.41,0,.73-.09v-.09c.1,0,.17.05.27,0V23c.4-.09.09-.09.09-.09v-.18H8v-.09a2.53,2.53,0,0,0,.55.09,1.09,1.09,0,0,0,0-.36c.16-.09,0,.11.09-.09h.18c.06-.05-.18-.14-.1-.27h.19c.13-.26-.18,0,.09-.1a1.22,1.22,0,0,1,0-.27l.27-.09c0-.23-.06-.12-.18-.18a4.56,4.56,0,0,0,0-.64,2.61,2.61,0,0,1,.28,0v-.18h.17a5.6,5.6,0,0,0,.09-.63h.18s-.09.45-.09.45a3.37,3.37,0,0,1,.55,0v-.18c-.16,0-.22-.21-.37-.27v-.09H9.74v-.09c-.12.06-.35,0-.45.09s.1.18.1.18a1.22,1.22,0,0,0,0,.27c-.28,0-.27-.09-.37-.09v.09H8.74c0-.05-.16-.35-.17-.36A1.76,1.76,0,0,1,9,19.85v-.09l.18-.1c0-.09-.06-.36,0-.44h.19c-.05.15,0,0,.08.08s.24-.42,0-.27v-.09Z"/><g id="g43"><path id="_61388720" data-name="61388720" class="cls-3" d="M28.17,23.27c.12,0,0,.11.06.2H28.1C28.12,23.38,28.05,23.27,28.17,23.27Z"/><path id="_61388808" data-name="61388808" class="cls-3" d="M28.23,28.87c.19-.09.11.16.13.25H28.3l-.07.14c-.17.07-.17-.18-.06-.14a1,1,0,0,1,0-.25Z"/><path id="_61388896" data-name="61388896" class="cls-3" d="M28.17,29.31c.23-.18-.05.43-.07.45s-.05-.06-.06-.07-.06-.05-.06-.05l.12-.07a1.13,1.13,0,0,0,0-.26Z"/><path id="_61388984" data-name="61388984" class="cls-3" d="M29.18,29.38v.06c.12,0,.08.1,0,.07v.06C29.09,29.56,29.09,29.38,29.18,29.38Z"/><path id="_61389072" data-name="61389072" class="cls-3" d="M29.56,29.38c.26,0,0,.09.14.19a1.33,1.33,0,0,0-.2,0v-.06C29.39,29.59,29.46,29.37,29.56,29.38Z"/><path id="_61389160" data-name="61389160" class="cls-3" d="M28.1,30c.12,0,.08.06,0,.06v.06C28,30.1,28,30,28.1,30Z"/><path id="_61389248" data-name="61389248" class="cls-3" d="M28.75,30.9c-.18.07.05.07.05.07a.73.73,0,0,1-.05.12c-.13,0-.2-.08-.07-.06S28.63,30.93,28.75,30.9Z"/><path id="_61389336" data-name="61389336" class="cls-3" d="M29.12,30.9v.19h-.06V31C28.93,31.11,29,30.9,29.12,30.9Z"/><path id="_61389424" data-name="61389424" class="cls-3" d="M26.64,32.93c.53,0-.06.13-.06.14S26.52,32.93,26.64,32.93Z"/><path id="_61389512" data-name="61389512" class="cls-3" d="M27.53,33.25c.12,0,.06.22.07.33h-.13s-.1-.27,0-.2C27.49,33.29,27.4,33.25,27.53,33.25Z"/><path id="_61389600" data-name="61389600" class="cls-3" d="M27.85,33.51c0,.13,0,0,.07.07v.63c-.05,0-.23,0-.25,0v-.13L27.53,34v-.13l.19-.06a1,1,0,0,0,0-.25S27.85,33.53,27.85,33.51Z"/><path id="_61389688" data-name="61389688" class="cls-3" d="M26.14,36.49c.09,0-.07.13-.07.13S26,36.45,26.14,36.49Z"/><path id="_61389776" data-name="61389776" class="cls-3" d="M27.09,36.82c.29,0-.15,0,.06.06C27.09,36.86,26.91,36.82,27.09,36.82Z"/><path id="_61389864" data-name="61389864" class="cls-3" d="M28.62,37c.11,0,.05.18.06.25s-.1,0-.13.06-.08,0-.13-.06,0-.15.13-.19C29.06,36.89,28,37.11,28.62,37Z"/><path id="_61389952" data-name="61389952" class="cls-3" d="M26,37.32c.11,0,0,.17.06.25h-.13C26,37.49,25.89,37.32,26,37.32Z"/><path id="_61390040" data-name="61390040" class="cls-3" d="M27,37.64v.06c.11.06,0,.07.07.2s-.11,0-.13.06V37.9c0,.19,0-.11-.06-.2H27C27,37.65,26.88,37.6,27,37.64Z"/><path id="_61390128" data-name="61390128" class="cls-3" d="M26.84,38.09c.21,0,.23.18,0,.18v-.12C26.74,38.15,26.74,38.08,26.84,38.09Z"/><path id="_61390216" data-name="61390216" class="cls-3" d="M27.79,38.22c.25,0,.25.16.13.12s0,.18-.07.19l-.13-.06C27.73,38.35,27.67,38.24,27.79,38.22Z"/><path id="_61390304" data-name="61390304" class="cls-4" d="M27.6,38.66v.06a1,1,0,0,1,.25-.06"/><path id="_61390392" data-name="61390392" class="cls-4" d="M27.85,38.66v.13"/><path id="_61390480" data-name="61390480" class="cls-4" d="M27.85,38.79c-.05,0-.15,0-.18,0s0,0,.12.06c-.05.25,0,.33-.07.57.09,0,.15-.05.2-.07v.07H28a2.26,2.26,0,0,1,0,.26c.13.06,0-.1.06.06s-.11,0-.25.06,0,0-.07.07"/><path id="_61390568" data-name="61390568" class="cls-4" d="M27.72,39.87V40"/><path id="_61390656" data-name="61390656" class="cls-4" d="M27.72,40h.07a.52.52,0,0,0-.07.18,1.14,1.14,0,0,0-.32,0,2.33,2.33,0,0,1,.07-.25h.06a1.2,1.2,0,0,0,0-.19h-.06a4.09,4.09,0,0,1,0-.7"/><path id="_61390744" data-name="61390744" class="cls-4" d="M27.47,39h.13"/><path id="_61390832" data-name="61390832" class="cls-4" d="M27.6,39c0-.09,0-.31-.07-.19s.06-.14-.06-.06.11-.24.13-.13"/><path id="_61390920" data-name="61390920" class="cls-3" d="M26.45,38.79h.19c0,.09,0,0-.06.13h-.06c-.05.14,0,.35,0,.5h-.07a1.21,1.21,0,0,1,0,.19c.07,0,.07,0,.07.07h-.07c0,.11,0,.2,0,.32s-.22,0-.25,0v.06c.13,0,.12,0,.25.06s0,.21,0,.31h-.06c0,.15.05.33,0,.45l-.13.07c0,.07,0,.11,0,.18h.06a1.34,1.34,0,0,0,0,.2c-.07,0-.06-.06-.06.06v.07h.26v-.13a1,1,0,0,0,.25,0v.06c-.12,0-.11,0-.19.07l.13.19a.15.15,0,0,0,.19-.07s.15,0,.19,0,.1.13-.19.13v.13H27c0,.11,0,0,.06.06V42l-.12.06v.12c.07,0,.07,0,.19.07s0,.28-.07.2.06.12-.06.06a1,1,0,0,1,0,.25h-.12c0-.13,0-.06-.07-.13s0-.5.07-.32c-.05-.07-.18-.09-.2-.13s0-.4-.06-.5h-.19c-.05.12,0,0-.13.07a1.86,1.86,0,0,1-.06.43h.06a1.22,1.22,0,0,0,0,.33l.19.06s.05.21.07.26h.06V43h.06l-.06.19a.61.61,0,0,0-.19,0c-.08-.07,0-.16,0-.31H26.2a1,1,0,0,0,0,.25l-.13.06s0,.18.07.07,0,.17.06,0a1.22,1.22,0,0,0,0,.27c-.07,0-.12,0-.19,0s-.06-.13-.07-.14-.21,0-.25-.06,0-.13,0-.19h.06s0-.15,0-.19h.07a1.21,1.21,0,0,0,0-.19s-.07,0-.07-.13h.07a2.09,2.09,0,0,0,0-.25h-.07a1.34,1.34,0,0,0,0-.2l.14-.05v-.07s.07.08.12.07a1.34,1.34,0,0,1,0-.2h-.07c0-.18.06-.46,0-.63h-.05v-.07h-.14a1.53,1.53,0,0,0-.06-.25L25.56,41v-.13h.13a.52.52,0,0,1,.06.13h.07v.13h.12v-.77a2.09,2.09,0,0,0,.26-.13v-.06H26a1,1,0,0,0,0-.25h.13V39.8H26a2.08,2.08,0,0,0,0-.25h.06v-.13h.07c0-.12,0,0-.07-.07v-.12h.07c0-.12,0-.25,0-.38a1,1,0,0,0,.25,0C26.82,38.7,25.94,38.87,26.45,38.79Z"/><path id="_61391008" data-name="61391008" class="cls-3" d="M27.09,39.68c.52,0-.07.12-.07.12S27,39.68,27.09,39.68Z"/><path id="_61391096" data-name="61391096" class="cls-3" d="M27.92,39.93c.15,0,0,.19,0,.19S27.85,40,27.92,39.93Z"/><path id="_61391184" data-name="61391184" class="cls-3" d="M25.75,40.06c.46,0-.06.12-.06.12S25.63,40.06,25.75,40.06Z"/><path id="_61391272" data-name="61391272" class="cls-3" d="M26.71,40.38c.22,0,.18.21,0,.18V40.5C26.59,40.5,26.63,40.37,26.71,40.38Z"/><path id="_61391360" data-name="61391360" class="cls-3" d="M27,40.38c.13,0,.05.08.07.18H27V40.5C26.85,40.58,26.91,40.37,27,40.38Z"/><path id="_61391448" data-name="61391448" class="cls-3" d="M26.64,40.63h.07a3,3,0,0,0,.06.32h.13c.06,0,0-.11.19-.13a4.34,4.34,0,0,0,0,.51,1,1,0,0,0-.25,0V41.2s.19,0,.06-.07-.11,0-.32,0C26.57,40.86,26.46,40.77,26.64,40.63Z"/><path id="_61391536" data-name="61391536" class="cls-3" d="M27.28,41.26c.11,0,0,.17.06.25h-.12C27.23,41.43,27.16,41.26,27.28,41.26Z"/><path id="_61391624" data-name="61391624" class="cls-3" d="M25.69,41.39c-.05,0,.06.26.06.26h-.06v.06C25.49,41.84,25.56,41.43,25.69,41.39Z"/><path id="_61391712" data-name="61391712" class="cls-3" d="M27.53,41.39c.55,0-.06.12-.06.12S27.41,41.39,27.53,41.39Z"/><path id="_61391800" data-name="61391800" class="cls-3" d="M28.1,41.46c.4,0-.06.12-.06.12S28,41.46,28.1,41.46Z"/><path id="_61391888" data-name="61391888" class="cls-3" d="M27.47,41.65c.13-.07,0,.3,0,.38H27.4v.06h-.12c0-.12,0,0-.06-.06C27.32,41.84,27.27,41.74,27.47,41.65Z"/><path id="_61391976" data-name="61391976" class="cls-3" d="M27.34,42.21c.2,0,.14.35,0,.33v-.06C27.17,42.48,27.2,42.2,27.34,42.21Z"/><path id="_61392064" data-name="61392064" class="cls-3" d="M26.58,42.54c.09,0-.06.12-.06.12S26.48,42.49,26.58,42.54Z"/><path id="_61392152" data-name="61392152" class="cls-3" d="M26.84,42.92c.06.15-.08,0,.06.06a2.26,2.26,0,0,0,0,.26c.12-.06,0,0,.06,0H27s-.06.12-.06.13a1.21,1.21,0,0,0-.19,0l-.06-.31h.06a1.2,1.2,0,0,1,0-.19Z"/><path id="_61392240" data-name="61392240" class="cls-3" d="M26.45,43.24c.19,0,.24.18.13.12v.06s-.15,0-.19,0S26.32,43.25,26.45,43.24Z"/><path id="_61392328" data-name="61392328" class="cls-3" d="M27.09,43.42l.13.2a1,1,0,0,0,.25,0v.12l-.13.07c0,.12,0,.26,0,.38s-.12.05-.12.06a.56.56,0,0,0-.07-.13c0,.12-.06-.12-.06-.12.21.09.11-.22.13-.32a.67.67,0,0,0-.2,0v-.12H27s0-.16.06-.07S26.91,43.38,27.09,43.42Z"/><path id="_61392416" data-name="61392416" class="cls-3" d="M26.77,43.49c.1,0-.06.13-.06.13S26.66,43.43,26.77,43.49Z"/><path id="_61392504" data-name="61392504" class="cls-3" d="M26.9,44c.06,0,.11.15,0,.12v-.06C26.82,44.06,26.78,44,26.9,44Z"/><path id="_61392592" data-name="61392592" class="cls-3" d="M26.77,44.06v.13C26.56,44.24,26.68,44.08,26.77,44.06Z"/><path id="_61392680" data-name="61392680" class="cls-3" d="M27.15,44.44c.35,0,0,.1.19.2v.06c.05,0,.16,0,.19,0s0,.22,0,.25c-.21,0-.21-.11-.38-.06,0,0,0,.07-.13.06,0-.13.09-.25.07-.25h.13v-.06h-.13C27.1,44.54,27,44.45,27.15,44.44Z"/><path id="_61392768" data-name="61392768" class="cls-3" d="M26.64,44.64l.26.06c0,.1.06.32-.13.25l-.13-.19h-.06v-.12Z"/><path id="_61392856" data-name="61392856" class="cls-3" d="M30.39,45.08c.29,0,0,.07.14.12a1.34,1.34,0,0,0-.2,0C30.35,45.11,30.26,45.08,30.39,45.08Z"/><path id="_60589552" data-name="60589552" class="cls-3" d="M26.77,45.14c0,.11,0,0,.07.06a1.71,1.71,0,0,0,0,.32c-.19,0,0,0-.07.07s-.14,0-.19,0a.4.4,0,0,0,0-.32Z"/><path id="_60589640" data-name="60589640" class="cls-3" d="M27.15,45.14h.13a1.34,1.34,0,0,0,0,.2s.18,0,.19,0,0,.25,0,.38l-.13.06-.12-.19h-.13v-.13c-.05,0-.1,0-.13.06v-.06H26.9a1.2,1.2,0,0,0,0-.19H27s.05-.11.07-.13Z"/><path id="_60589728" data-name="60589728" class="cls-3" d="M26.71,45.9V46c.07,0,.19.07-.07.13V46C26.53,46.12,26.61,45.88,26.71,45.9Z"/><path id="_60589816" data-name="60589816" class="cls-3" d="M26.71,46.16c.22,0,.11.22.06.19v.07h-.13a1,1,0,0,1-.06-.14h.06C26.67,46.18,26.58,46.17,26.71,46.16Z"/><path id="_60589904" data-name="60589904" class="cls-3" d="M27.09,46.8c.12,0,0,.09.06.18H27C27,46.89,27,46.8,27.09,46.8Z"/><path id="_60589992" data-name="60589992" class="cls-3" d="M27.09,47.18c.12,0,.05.1.06.19-.46,0-.15-.1-.25-.13H27C27.22,47.18,26.83,47.2,27.09,47.18Z"/><path id="_60590080" data-name="60590080" class="cls-3" d="M27.28,47.3c.5,0-.06.13-.06.13S27.15,47.3,27.28,47.3Z"/><path id="_60590168" data-name="60590168" class="cls-3" d="M25.82,53.34c.13,0,.08,0,.19.06v.07h-.07c-.05,0,.08.11-.05.06v.07h.05c0,.14-.05,0,.07.06a1.2,1.2,0,0,0,0,.19h-.12a.84.84,0,0,1-.07-.19h-.07S25.8,53.19,25.82,53.34Z"/><path id="_60590256" data-name="60590256" class="cls-3" d="M25.94,53.92c.1-.08.06.26.07.31h-.12s-.15-.37,0-.25S25.81,53.85,25.94,53.92Z"/><path id="_60590344" data-name="60590344" class="cls-3" d="M26.52,54.23a2.08,2.08,0,0,0,0,.25C26.22,54.61,26.34,54.3,26.52,54.23Z"/><path id="_60590432" data-name="60590432" class="cls-3" d="M25.82,55.25h.25c-.14.07.16.1-.06.06v.07a.6.6,0,0,0-.19,0l-.07-.13Z"/><path id="_60590520" data-name="60590520" class="cls-3" d="M25.63,51.83c.14.07-.09.17-.09.17S25.5,51.76,25.63,51.83Z"/><path id="_60590608" data-name="60590608" class="cls-3" d="M25.54,51.28c.13.07-.09.19-.09.19S25.41,51.21,25.54,51.28Z"/><path id="_60590696" data-name="60590696" class="cls-3" d="M28.9,48.38c.27-.07,0,.18,0,.18C28.65,48.65,28.75,48.41,28.9,48.38Z"/><path id="_60590784" data-name="60590784" class="cls-3" d="M29.35,47.93a4.42,4.42,0,0,0,0,.63c-.11-.06-.1.08-.09-.09-.07.33-.09-.27-.09-.27h.09a2.43,2.43,0,0,0,0-.27Z"/><path id="_60590872" data-name="60590872" class="cls-3" d="M28.9,47.57s.22.52,0,.36v-.19C28.7,47.74,28.84,47.52,28.9,47.57Z"/><path id="_60590960" data-name="60590960" class="cls-3" d="M27.08,46.39c.18,0,.32.45,0,.36v-.19C26.72,46.65,27,46.36,27.08,46.39Z"/><path id="_60591048" data-name="60591048" class="cls-3" d="M25.36,44.57c-.06,0,.06.32,0,.36S25.21,44.64,25.36,44.57Z"/><path id="_60591136" data-name="60591136" class="cls-3" d="M26.26,44c.06.35,0,.55.1.91h-.1c0,.28,0,.54,0,.82h.1v.54h-.1V48h.19l.09-.17h.18v-.1h.09c0,.11,0,.17,0,.27h-.09v.19h-.09s.09.54.09.54c-.21.11,0,.34,0,.46-.19,0-.09.61,0,.54v.09h-.09V51c-.13.07,0,.06-.18.09v.09h.18a1.31,1.31,0,0,0,0,.28c-.22.1,0,.33,0,.44-.19,0-.08.62,0,.55v.09h-.09v1.18h.09v.09c-.16.08,0,.33-.09.36a1.09,1.09,0,0,1-.36,0c0-.24.21-.21.08-.27h-.08c0-.24.07-.55-.09-.63v-.09h.09a1.77,1.77,0,0,0,0-.46h-.09v-.18h.09a2.26,2.26,0,0,0,0-.45L26,52c0-.1,0-.24,0-.36H25.9a2.42,2.42,0,0,0,0-.27c.21.06.25-.17.28-.18h-.09V51.1L25.9,51c.13-.06-.24-.09-.27-.09.14.1-.14.44-.09.18h-.09a4.56,4.56,0,0,0,0-.64c.17,0,.07-.08.09-.18h.18a2.42,2.42,0,0,0,0,.27h.1v-.09h.08v-.18H26V50.1c-.1,0-.16,0-.27,0s.23-.16-.09-.09.22.11-.09.09c0-.21.08,0-.09-.09a3.37,3.37,0,0,0,0-.55h-.09c0-.16,0,0,.09-.08s0-.13-.09-.18v-.1h.09c0-.17,0-.37,0-.54h-.09a7.07,7.07,0,0,0,.09-.72h-.18c0-.15.17-.16.18-.19a7,7,0,0,0,0-1.45h.09a2.44,2.44,0,0,0,0-.54h-.09v-.19h.09a3.14,3.14,0,0,0,0-.81s-.16-.1-.18-.18c.15.12,0-.15.18-.1v.19c.06,0,.23.15.28.18.09-.23-.14,0,.08-.09a1.44,1.44,0,0,1,0-.36h.19v-.18Z"/><path id="_60591224" data-name="60591224" class="cls-3" d="M25.9,44c.25-.05,0,.28,0,.28C25.74,44.33,25.8,44.05,25.9,44Z"/><path id="_60591312" data-name="60591312" class="cls-3" d="M25.72,43.94c0,.1,0,.15,0,.27h-.09v.17h-.09a1.45,1.45,0,0,1,0-.36Z"/><path id="_60591400" data-name="60591400" class="cls-3" d="M28.26,38.86c.13.06-.09.18-.09.18S28.12,38.79,28.26,38.86Z"/><path id="_60591488" data-name="60591488" class="cls-3" d="M27.08,38.59v.08c.13-.09.08.22.1.28a1.09,1.09,0,0,0-.37.09v.09h-.09a1.22,1.22,0,0,1,0-.27h.19v-.19A.91.91,0,0,0,27.08,38.59Z"/><path id="_60591576" data-name="60591576" class="cls-3" d="M27.72,38.4c.13.07-.09.19-.09.19S27.59,38.33,27.72,38.4Z"/><path id="_60591664" data-name="60591664" class="cls-3" d="M27.18,38.13c-.08,0,.08.35.09.37s-.15.07-.19.09S27,38.06,27.18,38.13Z"/><path id="_60591752" data-name="60591752" class="cls-3" d="M27.45,37.5h.27a2.42,2.42,0,0,0,0,.27h.09l-.09.27h-.09v-.18a1.31,1.31,0,0,1-.28,0c.07.3-.09.08-.17.09a1.53,1.53,0,0,0,0-.37C27.28,37.55,27.43,37.55,27.45,37.5Z"/><path id="_60591840" data-name="60591840" class="cls-3" d="M27,37.31c.39,0,.06.12.19.19a.82.82,0,0,0-.27,0C26.94,37.38,26.83,37.32,27,37.31Z"/><path id="_60591928" data-name="60591928" class="cls-3" d="M27.81,36.86V37c.16.08.05.17.09.36h-.18s-.18-.51,0-.36C27.75,36.93,27.67,36.79,27.81,36.86Z"/><path id="_60592016" data-name="60592016" class="cls-3" d="M28.9,35.41a1.11,1.11,0,0,1,.36.09v.09a1.09,1.09,0,0,1-.36,0V35.5C28.74,35.5,28.79,35.39,28.9,35.41Z"/><path id="_60592104" data-name="60592104" class="cls-3" d="M26.81,35c0,.2,0,.24-.09.46h-.09v.09h.09v.18h-.09c0,.17,0,.13.09.19v.09c-.18.08-.06.57-.09.81h-.09a2.16,2.16,0,0,1,0,.36h-.09a2.61,2.61,0,0,0,0,.28h.09a2.44,2.44,0,0,1,0,.54h-.09c0,.25,0,.48,0,.73-.12,0-.36-.07-.46,0,0-.21-.06,0,.1-.1,0-.28,0-.52,0-.81l.17-.09c0-.17,0,0-.08-.09a1.22,1.22,0,0,0,0-.27h-.09v-.1c.18,0,0-.18.09-.36h.08a2.43,2.43,0,0,0,0-.27h.1a2,2,0,0,0,0-.55h-.1a2.43,2.43,0,0,1,0-.27h.1a2.43,2.43,0,0,0,0-.27h.09a2.16,2.16,0,0,0,0-.36c-.12-.06-.1.08-.09-.09s.23,0,.36,0V35Z"/><path id="_60592192" data-name="60592192" class="cls-3" d="M28.08,34.05c.33.2.11.38.09.72h-.09c0,.15,0,.14.09.19s-.18.18-.18.18a2.82,2.82,0,0,1,.09.27H27.9a2.62,2.62,0,0,0,0,.28c-.14-.09-.15.2-.18.27.18.07.18,0,.36.09v.08H28a1.52,1.52,0,0,0,0,.37c-.5,0,.29,0-.09-.09a1.69,1.69,0,0,0-.45,0v.09h-.18v-.09c-.17,0,0,.06-.28.09,0-.16,0-.29,0-.45.16-.08.06.1.09-.09s-.1.07-.09-.1c0,0,.25-.19.19,0h.09v-.17h.18c0-.15.11,0,.09-.28h-.09a1.22,1.22,0,0,1,0-.27c-.17-.09-.06.12-.1-.1a2.27,2.27,0,0,1,.46-.08v-.19l-.18-.09a.82.82,0,0,0,0-.27c.13-.11.06.08.09.09h.18a2.56,2.56,0,0,0,.09-.45Z"/><path id="_60592280" data-name="60592280" class="cls-3" d="M28.8,34c.17,0,.26.12.1.09v.09c-.19,0-.38.07-.18-.09S28.43,34,28.8,34Z"/><path id="_60592368" data-name="60592368" class="cls-3" d="M28.17,33.78c.14.07-.09.18-.09.18S28,33.71,28.17,33.78Z"/><path id="_60592456" data-name="60592456" class="cls-3" d="M28.26,33.51c.21-.06,0,0,.1.09h-.1v.09C28.07,33.72,28.18,33.53,28.26,33.51Z"/><path id="_60592544" data-name="60592544" class="cls-3" d="M29.53,33.24c.21-.06,0,0,.09.08h-.09v.1C29.35,33.45,29.46,33.25,29.53,33.24Z"/><path id="_60592632" data-name="60592632" class="cls-3" d="M29.62,32.69h.1a2.63,2.63,0,0,0-.1.46C29.46,33.15,29.51,32.66,29.62,32.69Z"/><path id="_60592720" data-name="60592720" class="cls-3" d="M29.72,31.87c.24-.06,0,.28,0,.28C29.55,32.17,29.61,31.9,29.72,31.87Z"/><path id="_60592808" data-name="60592808" class="cls-3" d="M28.44,31.24v.09c.12.06.11.08.19.18s-.2,0-.27,0v.09c-.12.06-.16.12-.28.19a1.22,1.22,0,0,1,0,.27c.12,0,.25-.05.36,0l.19-.27h.09c.08-.14,0-.25.08-.28H29v-.18c.14-.08.39,0,.54-.09a2.53,2.53,0,0,1-.18.27h-.09c-.06.15.16.21.09.28s-.09.13-.18.36h-.09v.18H29c0,.08,0,.19,0,.27-.27,0-.26-.1-.36-.09v.09c-.08,0-.2,0-.27,0-1.19.41,1.22-.12-.1.09,0,.2.1.46.1.46s-.28-.19-.28-.19c-.22-.05,0,.17-.18.09v.1h-.09a.82.82,0,0,1,0,.27l-.18.09c0-.15.08-.18.09-.19,0-.2,0-.5,0-.72h.18v-.18a1.22,1.22,0,0,1-.27,0v-.09h.09a3.51,3.51,0,0,0,0-.46h.18c.07-.11,0-.37.09-.44h.18v-.1C28.32,31.28,28.35,31.31,28.44,31.24Z"/><path id="_60592896" data-name="60592896" class="cls-3" d="M29.45,30.7c-.08,0,0,.1.08.08V30.7h.09a2.42,2.42,0,0,0,0,.27c-.08,0-.19,0-.27,0v.09C29.15,31.09,29.27,30.71,29.45,30.7Z"/><path id="_60592984" data-name="60592984" class="cls-3" d="M29.72,30.24c.12.07-.1.18-.1.18S29.58,30.17,29.72,30.24Z"/><path id="_60593072" data-name="60593072" class="cls-3" d="M27.45,30.15a3.44,3.44,0,0,0,0,1.28,1.2,1.2,0,0,0-.27.08c-.16.09.09.09.09.09,0,.38,0,.39-.09.73h.09v.09l-.19.09a.82.82,0,0,0,0,.27c0-.17-.09.1-.09.1h.09c0,.16,0,0-.09.08s-.06,0,.09.09,0,.31,0,.46h-.17v.09h-.1v.18c.13,0,.19-.07.18.09h-.08c0,.09.16.14.08.18s-.14.61-.18.91h-.18a1.14,1.14,0,0,1-.09-.19h-.09s.19-.27,0-.17c0-.12-.15-.09-.09-.28h.18a4.47,4.47,0,0,0,.09-.45h.09c0-.17,0,0-.09-.09a1.76,1.76,0,0,1,.09-.73s.21-.09.09-.17h-.18c0-.1.18-.15.09-.19h-.18a1.45,1.45,0,0,1,0-.36c0-.1,0,0,.27-.1v-.17h.1c0-.1-.19-.15-.1-.19h.1c.05-.33,0-.41.08-.72h-.08V31H27a.66.66,0,0,0,.09-.19h.1c.05-.2-.18-.21-.1-.44C27.08,30.33,27.4,30.19,27.45,30.15Z"/><path id="_60593160" data-name="60593160" class="cls-4" d="M29.45,30c.12.05,0,0,.17.09,0,.07.07.25-.09.18v-.09h-.08s-.24-.28,0-.18"/><path id="_60593248" data-name="60593248" class="cls-3" d="M28.36,30c.09.08.11,0,.27.09,0,.27,0,.08.17.18-.05.18,0,.26-.08.46-.44,1.27.13-1.33-.09.08a1.15,1.15,0,0,0-.37,0V31c-.13.07-.06,0-.18.09a3.37,3.37,0,0,1,0-.55H27.9v.19h-.09a2.61,2.61,0,0,1,0-.28s.22,0,.27,0,0-.19,0-.27Z"/><path id="_60593336" data-name="60593336" class="cls-3" d="M27.54,30c.13.06-.09.18-.09.18S27.4,29.9,27.54,30Z"/><path id="_60593424" data-name="60593424" class="cls-3" d="M29.89,29.69c.14.07-.08.19-.08.19S29.76,29.63,29.89,29.69Z"/><path id="_60593512" data-name="60593512" class="cls-3" d="M27.45,28.89V29h.18c.06-.29.07.09.09.09s-.08.09-.09.09h-.09c.06.24-.11,0,.09.1a2.16,2.16,0,0,0,0,.36h.09s-.14.39-.18.08c0,0,.15.27.09.28-.4.05.19,0-.09-.09-.11,0-.17,0-.27,0v-.09c0,.07-.18-.13-.09-.18h.17c0-.27-.2-.22-.08-.28s.06-.23.08-.44Z"/><path id="_60593600" data-name="60593600" class="cls-3" d="M30.17,26.61v.1c-.16.07-.06.17-.09.36,0,0,.23,0,.27,0s-.05-.26.18-.36v-.1Z"/><path id="_60593688" data-name="60593688" class="cls-3" d="M30.9,26.07c-.07.2,0,.17-.1.36h-.09c0,.14,0,.23,0,.36h-.09s-.16.5,0,.36c-.13.09.25.11.28.1v-.1H31s0-.31,0-.36H30.9s.07-.27.08-.18c.29-.14-.31-.07.09-.09,0-.12.1-.59,0-.36v-.09Z"/><path id="_60593776" data-name="60593776" class="cls-3" d="M29,26l-.09.37c-.29.1-.11-.21-.18-.28A1,1,0,0,0,29,26Z"/><path id="_60593864" data-name="60593864" class="cls-3" d="M29,25.53c.08,0,.18.21,0,.18v-.09C28.85,25.62,28.85,25.49,29,25.53Z"/><path id="_60593952" data-name="60593952" class="cls-3" d="M30.62,24.07c0,.11-.18.19-.18.19a.82.82,0,0,0,0,.27h.09c0,.18-.07.2-.18.27s.11.09.09.19-.32.17,0,.17v.1h-.09a.71.71,0,0,0-.09.27c.26-.09-.07,0,.09.09s.16,0,.27,0c0-.12.18-.19.18-.19s-.06-.32-.09-.44h.19V24.8c-.11.35-.1-.36-.1-.36H31a1.22,1.22,0,0,1,0-.27C30.8,24.11,30.76,24.17,30.62,24.07Z"/><path id="_60594040" data-name="60594040" class="cls-3" d="M31.34,21.72v.08h-.17v.1c-.23.09-.44.54,0,.36l.17-.27h.19C31.45,21.92,31.63,21.62,31.34,21.72Z"/><path id="_60594128" data-name="60594128" class="cls-3" d="M36.88,3.85v.09h.18S37.05,3.85,36.88,3.85Z"/><path id="_60594216" data-name="60594216" class="cls-3" d="M36.42,3v.08h.19S36.61,3,36.42,3Z"/><path id="_60594304" data-name="60594304" class="cls-3" d="M33.79,2.58c.32-.22.09.37.09.37C33.55,3,33.64,2.49,33.79,2.58Z"/><path id="_60594392" data-name="60594392" class="cls-3" d="M34.07,2.22c.15,0,.07.14.08.27H34C34,2.36,33.9,2.22,34.07,2.22Z"/><path id="_60594480" data-name="60594480" class="cls-3" d="M34.43,2c.14-.05,0,.17,0,.27C34.14,2.3,34.25,2,34.43,2Z"/><path id="_60594568" data-name="60594568" class="cls-3" d="M35.43,1.31h.27c0,.06.09.36.09.36s.18-.15.36-.08c0,.16,0,.28-.18.36s.11.09.09.18h.19v.09h.17s-.08.15-.09.18.22.05.28.09l.08.19h.19S36.94,3,37,3l.27.18V3.4a.82.82,0,0,1-.27,0v.09h.18c.32.11-.34.12.09.09V3.49h.18c0,.18-.05.2.09.28s0,0-.09.08a2.16,2.16,0,0,0,0,.36h.09c0,.21-.06.29.1.36v.1c-.09,0-.14,0-.1.18l.19.09c.09.16,0,.44.08.64s.26,0,.28.08,0,.26,0,.37h.08a2.42,2.42,0,0,1,0,.27h.1c0,.22-.05.29-.1.45h.1c0,.07-.15.16-.1.19s.13.21.1.36-.09,0-.1.18.12-.08.1.09h-.1a2.16,2.16,0,0,1,0,.36h-.08c0,.16,0,.4,0,.55H38c-.06.26,0,.29-.09.54h-.1c0,.22.1.15.1.36h-.1c-.06.43,0,.62-.08,1.09h-.09c-.09,0,.11.09.09.18l-.19.09c0,.11,0,.25,0,.37h-.09c-.05.32,0,.39-.08.72h-.1c0,.18,0,.37,0,.55h-.09c0,.2.14.15.09.36h-.09v.18h-.09c-.09.24,0,.35-.09.63h-.09a1.31,1.31,0,0,1,0,.28h-.09c0,.13,0,.22,0,.36h-.1c0,.23,0,.49,0,.73h-.08c-.06.32,0,.39-.09.73h-.1c0,.15,0,.37,0,.54h-.09c0,.19,0,.18-.08.36h-.1a2.53,2.53,0,0,0,0,.55h-.09v.08s.22,0,.19.19h-.19c0,.08,0,.18,0,.27H36v.18h-.09c0,.11.12.26.09.27s0,.08-.09.27h-.09a11.08,11.08,0,0,1-.09,1.18h-.1a2.42,2.42,0,0,1,0,.27h-.08c-.07.31,0,.57-.09.91h-.09v.18h.09c.76.59-.82-.36.09.1v.08l-.28.09c0,.15,0,.31,0,.46s-.06-.11-.08.09c.07,0,.12-.07.08.08h-.08V22h-.09c0,.13.1.09.09.27h-.09v.27H35c0,.15,0,.31,0,.46h-.09a2.16,2.16,0,0,1,0,.36H34.8c0,.18,0,.36,0,.55h-.1c-.05.36,0,.46-.09.81h-.09c0,.17.07.48,0,.64h-.18v.08c-.23.12-.31.34-.55.46V26h-.08a1.4,1.4,0,0,0,0,.54c0,.08.13,0,.17.19H34a1.71,1.71,0,0,1,.09.72H34a1.69,1.69,0,0,1,0,.45l-.19.09c0,.21.13.14.09.27h-.17c-.05.18,0,.37,0,.55h-.1a2.16,2.16,0,0,1,0,.36h-.09c0,.12.12.25.09.27s0,0-.09.19h-.09a9.91,9.91,0,0,0,0,1.09c.1,0,.11-.07.09.08h-.09V31h-.09c-.08.3,0,.48-.09.82h-.09V32h-.1c-.06.2,0,.27-.08.46h-.09c0,.15,0,.4,0,.54h-.1v.19c-.26.12.05-.19-.09.09h-.08a2.44,2.44,0,0,0,0,.54h-.09c0,.17,0,0,.09.09s.07,0-.09.09a2.25,2.25,0,0,1,0,.45h-.1c0,.11,0,.16,0,.27h-.09c0,.25,0,.35-.08.55h-.19c0,.23,0,.11.19.18v.18h-.1c0,.2-.07,0,.1.1v.08c-.21-.1,0,.19,0,.19l-.27.17c-.08.32,0-.1.08.1a.21.21,0,0,1-.08.27v.09c.11.06.07.09.08.27,0,0-.18.18-.18.18-.25.05,0,0-.09-.09h-.18a2.36,2.36,0,0,1,0,.46s-.14,0-.18.17-.24,0-.27,0a3.89,3.89,0,0,1,.17.65h-.08v.17h.08a2.29,2.29,0,0,1,0,.37h-.08a2.43,2.43,0,0,1,0,.27h-.09c0,.15,0,.13.09.18l-.09.27h-.1c0,.21.14.14.1.27h-.1a2.61,2.61,0,0,1,0,.28H30.9c-.09.18.12.25-.1.36v.09c.1,0,.13,0,.1.18h-.1v.18c-.27.14.05-.18-.09.09h-.09c-.05.12,0,.25,0,.37h-.09v.09a.36.36,0,0,1,.18.45h-.18a1.22,1.22,0,0,0,0,.27l-.18.09s.25.31.18.36-.1.21-.18.46h-.18c-.05.19.12.17.09.45h-.09a2.43,2.43,0,0,1,0,.27h-.09a4.42,4.42,0,0,0,0,.63h-.19a3.53,3.53,0,0,0,0,.46c.11.06.11-.08.1.09h-.1c0,.09,0,.19,0,.27h-.08v.19h-.09a1.22,1.22,0,0,0,0,.27h.09v.18h-.09s0,.24,0,.28-.35.06-.37.08l-.09.28a1.22,1.22,0,0,0,.27,0v.18h-.08v-.1h-.28v.19h-.09c0,.15,0,.4,0,.54H29v.18H28.8c-.12-.3.16.11-.08-.09v-.09c-.16-.07,0,0-.09-.18,0,0-.25-.09,0-.09v-.09a1.72,1.72,0,0,0-.19-.09v-.09c.11-.06.11-.12.09-.27h-.09c0-.15,0-.23,0-.36h.09v-.19h-.09v-.18h-.08s0-.24.08-.09v-.19h-.18c0-.14,0-.3,0-.44h.18a3.53,3.53,0,0,0,0-.65h-.08s.07-.25.08-.08c.31-.15-.34-.07.09-.09-.05,0-.06-.19-.09-.27,0,.17-.08-.09-.08-.09l.17-.1c0-.23-.1-.12-.09-.36h.09c0-.17,0-.37,0-.54h.1c0-.18,0-.37,0-.55h.09c0-.19-.13-.16-.09-.36h.09a2.16,2.16,0,0,1,0-.36s.17.11.18.09c0-.18,0,0-.1-.09a6.91,6.91,0,0,1,0-.91h.1c0-.15,0-.3,0-.45H29A2.43,2.43,0,0,0,29,40h.09c0-.17,0-.05-.09-.1a3.38,3.38,0,0,1,0-.45h.09c.05-.23,0-.39.09-.63h.09a1.47,1.47,0,0,1-.18-.46h.18a2.16,2.16,0,0,0,0-.36h.09c0-.3-.09-.37-.09-.64v-.09c.16,0,.06-.06.09-.18,0,.17-.09-.09-.09-.09h.09a3.75,3.75,0,0,1,0-.82h.1V36h.08c0-.09,0-.2,0-.27s-.2-.08-.18-.19h.18v-.09h.09V34.5h.1c0-.17,0-.37,0-.54-.6,0,.38-.07-.1.09-.19.07-.24-.07-.36-.09v-.18c.13,0,0-.11.19-.09a.13.13,0,0,0,.17.09c1-.35-1.06,0,.1-.09,0-.14,0-.22,0-.37h.09c0-.11-.13-.24-.09-.27h.09v-.17h.08c0-.15,0-.24,0-.37h.19a4.56,4.56,0,0,0,0-.64h.09a5.77,5.77,0,0,1,0-.72h.09c0-.15,0-.31,0-.45h.09c0-.2-.12-.15-.09-.28h.09a2.43,2.43,0,0,0,0-.27h.09c-.07,0,.11-.45-.09-.54v-.09h.18c0-.14-.14-.23-.09-.27h.09c0-.2,0-.17.09-.36h-.18V28.7h.18v-.18h.09a5.39,5.39,0,0,0,.09-1,3.32,3.32,0,0,1-.63,0c-.07.26,0,.35-.09.64H30v.18h-.1a.16.16,0,0,0,.1.18c0,.09-.2.63,0,.54v.09h-.18a1.42,1.42,0,0,0-.19-.18v-.18h-.09c-.05-.16,0-.05.09-.09s-.26-.1-.09-.18h.09c.08-.18,0-.17.1-.36h.09c0-.23,0-.51,0-.73a1.42,1.42,0,0,1-.46,0v.27c.12.06.11-.08.1.1h-.1a2.43,2.43,0,0,1,0,.27h-.18c-.08.26,0,.85-.09,1.08,0,0-.25,0-.28,0-.05.21,0,.16-.08.37h-.09c0,.13,0,.22,0,.36h-.1c-.06-.22-.05-.27-.09-.46-.15,0-.06-.1-.08-.17a1.45,1.45,0,0,0,.36,0v-.1c-.36.17-.24-.27-.09-.26a1.86,1.86,0,0,1,.09-.28h.08a2.43,2.43,0,0,1,0-.27c-.95.07.73-.19-.08.09h-.19v-.19s.38-.13.1-.17c.12,0,.32,0,.36-.1s0-.23,0-.27c-.13,0-.13.14-.19.18s-.09-.11-.17-.08v-.19s-.23,0-.27,0v-.18h.08a2.34,2.34,0,0,1,.09-.28,2.42,2.42,0,0,0,.27,0,1.62,1.62,0,0,0,0-.44l.19-.1c.05-.18-.14-.16-.09-.26h.18c.06-.24,0-.35.09-.55h.09v-.18h.09v-.19c-3.7-1.85,3.42,2-.09-.08l-.46-.09c0-.08,0-.2,0-.27H29V24.8h.09c0-.14,0-.32,0-.46-.21.06-.21-.18-.45-.08a1.22,1.22,0,0,0,0,.27c-.1,0-.34.07-.37.09v.18s.24,0,.1-.09h.08v.09h.09c0,.11,0,.17,0,.27s-.14.06-.17.09v.19c0-.16.08.08.08.08h-.08a4.86,4.86,0,0,1-.1.55h-.09a3.31,3.31,0,0,0,0,.63h-.09v.1c.09,0,.11,0,.09.17h-.09a2.28,2.28,0,0,1,0,.37H28c0,.1.1.26.09.27s-.09.69-.18.91l-.18.09v-.18c-.18-.07-.26.06-.37.09.07-.2-.15-.18-.08-.36h.18V28h.09V27.8l.18-.1v-.18c-.08,0-.13.06-.09-.09h.27v-.09c-.12-.06-.08,0-.18-.09s.25-.07-.09-.1a3.57,3.57,0,0,0,.09-.54h.18c0-.14,0-.14-.09-.18v-.08h.09c.12-.07-.09-.19-.09-.19v-.09c.14-.07.07-.08.09-.27s-.12.08-.09-.09h.09v-.18H28c0-.09,0-.18,0-.27.19-.11,0,.13.09-.1,0,0-.24,0-.09-.09s.05.13.09-.08h.09c0-.13-.11-.09-.09-.28h.09c0-.44,0-.65.09-1-.09-.05-.13.07-.09-.09h.09c.06-.18,0-.25.1-.45h.08a2,2,0,0,0,0-.64h-.18a2.43,2.43,0,0,1,0-.27h.1v-.18h.08c.11-.41,0-.79.09-1.18h.1c0-.14,0-.22,0-.36h.09a5.13,5.13,0,0,1,.08-.63l.19-.1c0-.16,0,0-.09-.09v-.09H29c.14-.07-.09-.09-.09-.09s.11-.07.09-.28H28.9a3.23,3.23,0,0,1,0-.44H29a2.61,2.61,0,0,0,0-.28h.09a4.86,4.86,0,0,0,0-.54h.09c.06-.42,0-.57.09-1h.09c0-.21,0-.43,0-.63h.1v-.28h.08c0-.21-.08-.54.09-.63v-.09c-.1,0-.13-.11-.09-.27l.19-.1c.05-.12,0-.31,0-.44h.09c.06-.46,0-.62.08-1.09H30c0-.19-.13-.16-.1-.28h.19c.07-.33,0-.4.09-.73h.09c0-.24,0-.37.09-.63h.09c0-.14,0-.3,0-.46h.09a1.13,1.13,0,0,0,0-.26h.09c.07-.34,0-.58.09-.91h.09V10h.1c0-.19,0-.44,0-.64H31c.07-.32,0-.41.09-.72h.1c0-.16,0-.29,0-.46h.09a3.25,3.25,0,0,1,0-.54h.08a1.22,1.22,0,0,0,0-.27h.1c0-.14,0-.23,0-.36h.09c.07-.27,0-.28.09-.55h.09c0-.12-.05-.26,0-.36h.18V6H32c.11-.12,0-.36.17-.45V5.49c.05,0,.2,0,.27,0l.19-.27c.1-.08.34,0,.44-.1V4.94h.19c0-.06.06-.17.09-.18s.25,0,.37,0V4.67c.18,0,.31,0,.44-.1l.19-.27h.09V4.13h.09V3.94h.18V3.77h.18L35,3.58h.1V3.4c.09-.06.24,0,.36,0V3.31l.17-.09a2.43,2.43,0,0,1,0-.27l-.17-.1V2.76c-.11,0-.17,0-.27,0l-.09-.18c.09,0,.21.06.17-.09l-.17-.09a3.25,3.25,0,0,0,0-.54,1.53,1.53,0,0,0-.37,0V1.67h.1c.06-.2-.11,0,.08-.08V1.4a1.42,1.42,0,0,1,.46,0V1.31Z"/></g><path id="_60594744" data-name="60594744" class="cls-5" d="M40.37,21.81l.07.13a1.34,1.34,0,0,0-.2,0C40.3,21.9,40.27,21.8,40.37,21.81Z"/><path id="_60594832" data-name="60594832" class="cls-5" d="M47.51,29.91s.06.26.1.27.07-.12.09-.17Z"/><path id="_60594920" data-name="60594920" class="cls-5" d="M49.42,29.28v.18h.09C49.48,29.34,49.59,29.28,49.42,29.28Z"/><path id="_60595008" data-name="60595008" class="cls-5" d="M49,28.92l.1.18c.15,0,.06-.09.09-.18Z"/><path id="_60595096" data-name="60595096" class="cls-5" d="M49.42,28.28v.18h.09C49.48,28.35,49.59,28.28,49.42,28.28Z"/><path id="_60595184" data-name="60595184" class="cls-5" d="M49.6,26.29l.09.17c.17,0,.06-.07.09-.17Z"/><path id="_60595272" data-name="60595272" class="cls-5" d="M38.17,23.2v.18h.09C38.23,23.27,38.34,23.2,38.17,23.2Z"/><path id="_60595360" data-name="60595360" class="cls-5" d="M47.61,21.21v.09h.17S47.77,21.21,47.61,21.21Z"/><path id="_60595448" data-name="60595448" class="cls-5" d="M46.79,20.75V21A.14.14,0,1,0,46.79,20.75Z"/><path id="_60595536" data-name="60595536" class="cls-6" d="M45.07,20.42v.09a4.33,4.33,0,0,1,.72,0v.1a2.43,2.43,0,0,0,.27,0v.08c.44,0-.23,0,.1-.08.11,0,.16,0,.27,0,.66-.24-.71-.06.09-.1v.1a3.47,3.47,0,0,1,.72,0v.08h.27v.09c.14,0,.33-.05.46,0l.09.19c.12,0,.32,0,.45,0v.08h.19v.1c.07,0,.2,0,.27,0v.09c.2.1.25.26.45.36v.1c.08.05.18,0,.27.08l-.17.28c-.16,0-.06,0-.19-.09,0,.11,0,.23,0,.36h.09v.17l.18.1v.18h.09c0,.17-.07.06-.17.09-.06.21,0,.21-.1.36.16.09.2,0,.27.19H49.6s-.05.15-.08.17h-.1s-.14.3-.09.28c.21-.07.11.4.19.54l.17.1v.17h.19c.33.28-.28,0,.08.19V25h.19c0,.08,0,.26,0,.36-.34,0,.12,0-.1.09,0,0-.31-.06-.09.09v.19h.19c0,.12-.13,0-.1.27h.1v.17h.09l.18.28h.09v.18h.09s0,.22-.09.09c.06.16,0,.15.09.27h.09v.19h.09a2.43,2.43,0,0,1,0,.27h-.09a2.22,2.22,0,0,0,0,.63h.09a2.16,2.16,0,0,1,0,.36h.09c0,.15,0,.22,0,.37s-.34.07-.36.09V29h-.09a5.3,5.3,0,0,1-.1.55c-.11,0-.17.17-.17.17-.25.08-.23-.15-.46-.09v.19c-.18.09,0-.12-.09.09a1.22,1.22,0,0,0-.27,0c0,.06,0,.28,0,.36-.26.12,0-.16-.09.08h-.91v.1c-.18,0-.46-.07-.63,0a2.43,2.43,0,0,0,0,.27c-.21,0-.12.09-.28.09v-.09a2.26,2.26,0,0,0-.45,0l-.18.28s-.62.08-.63.08-.09-.16-.18-.18a4.86,4.86,0,0,0,0,.54c-.18.09-.06-.11-.09.1-.12-.06-.32,0-.46,0s.07-.14-.09-.18v-.09h-.09a1.21,1.21,0,0,0,0,.27s-.09.09-.09.09-.24-.05-.36,0v.09a1.57,1.57,0,0,1-.46.09v-.09a1.36,1.36,0,0,1-.45,0l-.09-.18c-.26-.08-.49,0-.72-.1l-.1-.17a1.8,1.8,0,0,0-.72-.1v.1c-.16.08-.31.28-.55.27l-.18-.27c-.1,0-.24,0-.36,0v-.1c-.22,0-.51,0-.73,0-.08-.23.05-.24-.09-.27a3.25,3.25,0,0,0-.54,0V31c-.34,0-.39-.12-.72-.1V31a2.36,2.36,0,0,1-.46,0l-.19-.28h-.17l-.19-.27H37.9l-.09-.18h-.08v-.09h-.19s-.17-.26-.18-.27h-.18l-.1-.19h-.17s0-.25-.1-.27h-.17v-.18L36.28,29c-.08-.11,0-.2-.1-.27H36v-.1h-.18v-.09c-.08,0-.2,0-.27,0V28.5a2.61,2.61,0,0,1-.28,0v-.19c-.06,0-.19,0-.27,0v-.09a2.43,2.43,0,0,1-.27,0v-.09h-.27v.09a2.16,2.16,0,0,1-.36,0V28a1.22,1.22,0,0,0,.27,0V28c-.23-.06-.25,0-.46-.09,0-.16,0-.29,0-.45H34a3.37,3.37,0,0,0,0-.55h-.1v-.18l-.27-.18a1.63,1.63,0,0,1,0-.54l.27-.19c.14-.12.19-.27.36-.36v-.09c.21-.09.15.13.37.09l.09-.18c.14-.06.34,0,.46-.09s.07-.45.08-.46h.19s.07-.15.09-.17h.18c.08-.14,0-.54.09-.64a1.22,1.22,0,0,1,.27,0l.09-.18h.1v-.18l-.19-.09c0-.18,0-.28,0-.46h.09l.1-.63-.37-.27c0-.11.15-.12.09-.28h-.18V21.6h.09a2.51,2.51,0,0,0,.18-.27,2.36,2.36,0,0,0,.46,0v.09a4.69,4.69,0,0,1,.53,0v.09c.09,0,.2,0,.28,0v.09a2.43,2.43,0,0,1,.27,0v.1c.15,0,.31,0,.45,0v.08c.2,0,.44,0,.64,0v.09c.2.05.35,0,.54.1v.09c.22,0,.43-.07.63,0l.1.18c.1,0,.16,0,.27,0v.09h.18v.09c.09,0,.19,0,.27,0,.12-.25-.15,0,.1-.09,0-.09,0-.2,0-.27L41,22s0-.24,0-.27.24,0,.28-.1,0-.06-.09-.09c.07-.2-.1,0,.09-.09v-.18l.18-.09v-.1h.19v.1c.16,0,.39.17.63.09.07,0-.08-.23,0-.27s.21,0,.27,0,0-.25.09-.28.19,0,.27,0v-.08c.33,0,.67,0,1,0v-.1a3.55,3.55,0,0,0,1.08,0C45.4,20.36,44.52,20.41,45.07,20.42Z"/><g id="g3902"><path id="_60595800" data-name="60595800" class="cls-7" d="M10,50.61H6.78v-9.3H3V38.93H13.71v2.38H10Z"/><path id="_60595888" data-name="60595888" class="cls-7" d="M49.26,41.31H43.79v2.16h5.12v2.35h-5.1v2.39h5.51v2.4H40.69V38.93h8.57Z"/><path id="_60595976" data-name="60595976" class="cls-7" d="M53.66,38.93V50.61H50.45V38.93Z"/><path id="_60596064" data-name="60596064" class="cls-7" d="M28.38,38.93V50.61H25.17V38.93Z"/><path id="_60596152" data-name="60596152" class="cls-7" d="M33.21,50.61H30.1V38.93h5.19c1.75,0,2.61.19,3.37.77a3.59,3.59,0,0,1,1.23,2.89,3.44,3.44,0,0,1-1.63,3.24,6.93,6.93,0,0,1-3.29.54H33.21Zm.88-6.42c1.79,0,2.4-.39,2.4-1.53s-.58-1.45-2.08-1.45h-1.2v3Z"/><path id="_60596240" data-name="60596240" class="cls-7" d="M14.89,48.32,14,50.61H10.82l5.09-11.68h3.76l5.22,11.68H21.34l-1-2.29Zm2.71-6.9-1.84,4.63h3.7Z"/></g></svg>