<svg id="Слой_1" data-name="Слой 1" xmlns="http://www.w3.org/2000/svg" viewBox="0 0 56.69 56.69"><defs><style>.cls-1{fill:#462778;}.cls-2{fill:#fff;}</style></defs><path class="cls-1" d="M-2.7-1.37H59.09V59.45H-2.7Z"/><g id="b"><path id="a" class="cls-2" d="M28.35,53.63l2.1-2V36.77H26.24V51.6Z"/><path id="a-2" data-name="a" class="cls-2" d="M6.45,41l2.81.81L22.1,34.38,20,30.74,7.15,38.15Z"/><path id="a-3" data-name="a" class="cls-2" d="M50.24,41l-.7-2.84L36.7,30.74l-2.11,3.64L47.43,41.8Z"/></g><g id="b-2" data-name="b"><path id="a-4" data-name="a" class="cls-2" d="M28.35,3.07l2.1,2V19.92H26.24V5.09Z"/><path id="a-5" data-name="a" class="cls-2" d="M6.45,15.71l2.81-.82L22.1,22.31,20,26,7.15,18.54Z"/><path id="a-6" data-name="a" class="cls-2" d="M50.24,15.71l-.7,2.83L36.7,26l-2.11-3.65,12.84-7.42Z"/></g><circle class="cls-2" cx="28.35" cy="28.35" r="12.64"/><circle class="cls-1" cx="28.35" cy="28.35" r="8.43"/><circle class="cls-2" cx="28.35" cy="28.35" r="4.21"/></svg>