<svg id="Слой_1" data-name="Слой 1" xmlns="http://www.w3.org/2000/svg" viewBox="0 0 56.69 56.69"><defs><style>.cls-1{fill:#7a7a29;}</style></defs><path id="path11" class="cls-1" d="M53.18,51.78V49c0-.47,0-.6-.12-.77a.83.83,0,0,0-.71-.42.89.89,0,0,0-.72.42c-.1.17-.11.28-.11.78v2.74H50.08V49.1a2.62,2.62,0,0,1,.44-1.7,2.25,2.25,0,0,1,1.83-.95,2.22,2.22,0,0,1,1.84,1,2.57,2.57,0,0,1,.43,1.62v2.73Z"/><path id="path10" class="cls-1" d="M49.2,50.1a2.53,2.53,0,0,1-2.42,1.74,2.64,2.64,0,0,1,0-5.28,2.52,2.52,0,0,1,2.53,2.29c0,.54-.45.9-1.14.9H45.72a1.09,1.09,0,0,0,1,.73,1.05,1.05,0,0,0,.81-.38Zm-1.44-1.42a1,1,0,0,0-1-.75,1.11,1.11,0,0,0-1.07.75Z"/><path id="path9" class="cls-1" d="M41.36,51.78V49.14a2.69,2.69,0,0,1,.21-1.41,2,2,0,0,1,2-1.12h.24V48h-.18c-.65,0-.82.21-.82.83v3Z"/><path id="path8" class="cls-1" d="M40.49,50.1a2.54,2.54,0,0,1-2.42,1.74,2.64,2.64,0,0,1,0-5.28,2.52,2.52,0,0,1,2.53,2.29c0,.54-.45.9-1.13.9H37a1.09,1.09,0,0,0,1.86.35h1.63Zm-1.44-1.42a1,1,0,0,0-1-.75,1.09,1.09,0,0,0-1.06.75Z"/><path id="path7" class="cls-1" d="M34.75,48.81a2.93,2.93,0,0,1-.41,1.82,2.6,2.6,0,0,1-2.2,1.23,2.65,2.65,0,0,1-2.62-2.67A2.62,2.62,0,0,1,32,46.53a2.57,2.57,0,0,1,1.27.37V43.74h1.45v5.07ZM31,49.18a1.18,1.18,0,1,0,2.35,0A1.22,1.22,0,0,0,32.12,48,1.2,1.2,0,0,0,31,49.18Z"/><path id="path6" class="cls-1" d="M27.31,51.78V49a1.42,1.42,0,0,0-.12-.77.84.84,0,0,0-.71-.42.89.89,0,0,0-.72.42c-.11.17-.12.28-.12.78v2.74H24.2V49.1a2.62,2.62,0,0,1,.45-1.7,2.23,2.23,0,0,1,3.67,0,2.57,2.57,0,0,1,.43,1.62v2.73Z"/><path id="path5" class="cls-1" d="M21.76,51.78v-.42a2.23,2.23,0,0,1-1.34.48,2.65,2.65,0,0,1,.16-5.29,2.59,2.59,0,0,1,2.1,1.07,2.82,2.82,0,0,1,.53,1.89v2.27ZM19.41,49.2A1.17,1.17,0,1,0,20.58,48,1.19,1.19,0,0,0,19.41,49.2Z"/><path id="path4" class="cls-1" d="M15.74,51.78v-.42a2.2,2.2,0,0,1-1.34.48,2.65,2.65,0,0,1,.16-5.29,2.58,2.58,0,0,1,2.1,1.07,2.82,2.82,0,0,1,.53,1.89v2.27ZM13.4,49.2A1.17,1.17,0,1,0,14.56,48,1.18,1.18,0,0,0,13.4,49.2Z"/><path id="path3" class="cls-1" d="M9.68,43.74h1.44v8H9.68Z"/><path id="path2" class="cls-1" d="M7.91,50.67a2.77,2.77,0,0,1-.31.74,1,1,0,0,1-.85.44c-.59,0-.87-.3-1.15-1.18L4.32,46.61H5.9l.82,3.16.88-3.16H9.16Z"/><path id="path1" class="cls-1" d="M2.93,50a.85.85,0,0,1,.87.88A.87.87,0,1,1,2.93,50Z"/><path id="path11-2" data-name="path11" class="cls-1" d="M53.18,42.05V39.3c0-.47,0-.6-.12-.77a.83.83,0,0,0-.71-.42.89.89,0,0,0-.72.42c-.1.17-.11.28-.11.79v2.73H50.08V39.38a2.61,2.61,0,0,1,.44-1.7,2.22,2.22,0,0,1,3.67,0,2.6,2.6,0,0,1,.43,1.63v2.72Z"/><path id="path10-2" data-name="path10" class="cls-1" d="M49.2,40.38a2.53,2.53,0,0,1-2.42,1.73,2.64,2.64,0,0,1,0-5.28,2.52,2.52,0,0,1,2.53,2.29c0,.54-.45.91-1.14.91H45.72a1.09,1.09,0,0,0,1,.72,1.07,1.07,0,0,0,.81-.37ZM47.76,39a1,1,0,0,0-1-.74,1.12,1.12,0,0,0-1.07.74Z"/><path id="path9-2" data-name="path9" class="cls-1" d="M41.36,42.05V39.41A2.69,2.69,0,0,1,41.57,38a2,2,0,0,1,2-1.12h.24v1.36h-.18c-.65,0-.82.21-.82.84v3Z"/><path id="path8-2" data-name="path8" class="cls-1" d="M40.49,40.38a2.54,2.54,0,0,1-2.42,1.73,2.64,2.64,0,0,1,0-5.28,2.52,2.52,0,0,1,2.53,2.29c0,.54-.45.91-1.13.91H37a1.09,1.09,0,0,0,1,.72,1.11,1.11,0,0,0,.82-.37h1.63ZM39.05,39a1,1,0,0,0-1-.74A1.09,1.09,0,0,0,37,39Z"/><path id="path7-2" data-name="path7" class="cls-1" d="M34.75,39.09a3,3,0,0,1-.41,1.82,2.6,2.6,0,0,1-2.2,1.23,2.66,2.66,0,0,1-2.62-2.68A2.62,2.62,0,0,1,32,36.81a2.55,2.55,0,0,1,1.27.36V34h1.45v5.08ZM31,39.45a1.18,1.18,0,1,0,2.35,0,1.23,1.23,0,0,0-1.19-1.24A1.21,1.21,0,0,0,31,39.45Z"/><path id="path6-2" data-name="path6" class="cls-1" d="M27.31,42.05V39.3a1.42,1.42,0,0,0-.12-.77.84.84,0,0,0-.71-.42.89.89,0,0,0-.72.42c-.11.17-.12.28-.12.79v2.73H24.2V39.38a2.61,2.61,0,0,1,.45-1.7,2.22,2.22,0,0,1,3.67,0,2.6,2.6,0,0,1,.43,1.63v2.72Z"/><path id="path5-2" data-name="path5" class="cls-1" d="M21.76,42.05v-.42a2.23,2.23,0,0,1-1.34.48,2.65,2.65,0,1,1,2.26-4.22,2.85,2.85,0,0,1,.53,1.9v2.26Zm-2.35-2.58a1.17,1.17,0,1,0,2.34,0,1.22,1.22,0,0,0-1.17-1.25A1.2,1.2,0,0,0,19.41,39.47Z"/><path id="path4-2" data-name="path4" class="cls-1" d="M15.74,42.05v-.42a2.2,2.2,0,0,1-1.34.48,2.65,2.65,0,1,1,2.26-4.22,2.85,2.85,0,0,1,.53,1.9v2.26ZM13.4,39.47a1.21,1.21,0,0,0,1.18,1.24,1.2,1.2,0,0,0,1.15-1.21,1.22,1.22,0,0,0-1.17-1.25A1.19,1.19,0,0,0,13.4,39.47Z"/><path id="path3-2" data-name="path3" class="cls-1" d="M9.68,34h1.44v8H9.68Z"/><path id="path2-2" data-name="path2" class="cls-1" d="M7.91,40.94a2.49,2.49,0,0,1-.31.74,1,1,0,0,1-.85.44c-.59,0-.87-.3-1.15-1.18L4.32,36.88H5.9L6.72,40l.88-3.16H9.16Z"/><path id="path1-2" data-name="path1" class="cls-1" d="M2.93,40.29a.88.88,0,1,1-.86.88A.86.86,0,0,1,2.93,40.29Z"/><path id="path11-3" data-name="path11" class="cls-1" d="M53.18,32.33V29.58a1.37,1.37,0,0,0-.12-.78.83.83,0,0,0-.71-.42.89.89,0,0,0-.72.42c-.1.17-.11.28-.11.79v2.74H50.08V29.65a2.61,2.61,0,0,1,.44-1.7,2.23,2.23,0,0,1,3.67,0,2.62,2.62,0,0,1,.43,1.63v2.73Z"/><path id="path10-3" data-name="path10" class="cls-1" d="M49.2,30.65a2.53,2.53,0,0,1-2.42,1.73,2.64,2.64,0,0,1,0-5.27A2.52,2.52,0,0,1,49.3,29.4c0,.54-.45.9-1.14.9H45.72a1.09,1.09,0,0,0,1,.72,1.07,1.07,0,0,0,.81-.37Zm-1.44-1.42a1,1,0,0,0-1-.75,1.11,1.11,0,0,0-1.07.75Z"/><path id="path9-3" data-name="path9" class="cls-1" d="M41.36,32.33V29.68a2.73,2.73,0,0,1,.21-1.41,2,2,0,0,1,2-1.12,1.3,1.3,0,0,1,.24,0v1.36h-.18c-.65,0-.82.2-.82.83v3Z"/><path id="path8-3" data-name="path8" class="cls-1" d="M40.49,30.65a2.54,2.54,0,0,1-2.42,1.73,2.64,2.64,0,0,1,0-5.27,2.52,2.52,0,0,1,2.53,2.29c0,.54-.45.9-1.13.9H37A1.09,1.09,0,0,0,38,31a1.11,1.11,0,0,0,.82-.37h1.63Zm-1.44-1.42a1,1,0,0,0-1-.75,1.09,1.09,0,0,0-1.06.75Z"/><path id="path7-3" data-name="path7" class="cls-1" d="M34.75,29.36a3,3,0,0,1-.41,1.82,2.6,2.6,0,0,1-2.2,1.23,2.66,2.66,0,0,1-2.62-2.68A2.62,2.62,0,0,1,32,27.08a2.65,2.65,0,0,1,1.27.36V24.28h1.45v5.08ZM31,29.72a1.18,1.18,0,1,0,2.35,0,1.23,1.23,0,0,0-1.19-1.25A1.21,1.21,0,0,0,31,29.72Z"/><path id="path6-3" data-name="path6" class="cls-1" d="M27.31,32.33V29.58a1.46,1.46,0,0,0-.12-.78.84.84,0,0,0-.71-.42.89.89,0,0,0-.72.42c-.11.17-.12.28-.12.79v2.74H24.2V29.65a2.61,2.61,0,0,1,.45-1.7,2.23,2.23,0,0,1,3.67,0,2.62,2.62,0,0,1,.43,1.63v2.73Z"/><path id="path5-3" data-name="path5" class="cls-1" d="M21.76,32.33V31.9a2.23,2.23,0,0,1-1.34.48A2.61,2.61,0,0,1,18,29.75a2.65,2.65,0,0,1,2.62-2.66,2.6,2.6,0,0,1,2.1,1.08,2.82,2.82,0,0,1,.53,1.89v2.27Zm-2.35-2.58a1.17,1.17,0,1,0,1.17-1.22A1.19,1.19,0,0,0,19.41,29.75Z"/><path id="path4-3" data-name="path4" class="cls-1" d="M15.74,32.33V31.9a2.2,2.2,0,0,1-1.34.48,2.61,2.61,0,0,1-2.46-2.63,2.65,2.65,0,0,1,2.62-2.66,2.59,2.59,0,0,1,2.1,1.08,2.82,2.82,0,0,1,.53,1.89v2.27ZM13.4,29.75a1.17,1.17,0,1,0,1.16-1.22A1.18,1.18,0,0,0,13.4,29.75Z"/><path id="path3-3" data-name="path3" class="cls-1" d="M9.68,24.28h1.44v8H9.68Z"/><path id="path2-3" data-name="path2" class="cls-1" d="M7.91,31.22A2.53,2.53,0,0,1,7.6,32a1,1,0,0,1-.85.45c-.59,0-.87-.3-1.15-1.18L4.32,27.15H5.9l.82,3.16.88-3.16H9.16Z"/><path id="path1-3" data-name="path1" class="cls-1" d="M2.93,30.57a.85.85,0,0,1,.87.88.87.87,0,1,1-.87-.88Z"/><path id="path11-4" data-name="path11" class="cls-1" d="M53.18,22.6V19.85c0-.47,0-.6-.12-.77a.83.83,0,0,0-.71-.42.89.89,0,0,0-.72.42c-.1.17-.11.27-.11.78V22.6H50.08V19.92a2.62,2.62,0,0,1,.44-1.7,2.25,2.25,0,0,1,1.83-.95,2.22,2.22,0,0,1,1.84,1,2.57,2.57,0,0,1,.43,1.62V22.6Z"/><path id="path10-4" data-name="path10" class="cls-1" d="M49.2,20.92a2.53,2.53,0,0,1-2.42,1.74,2.64,2.64,0,0,1,0-5.28,2.52,2.52,0,0,1,2.53,2.29c0,.54-.45.9-1.14.9H45.72a1.1,1.1,0,0,0,1,.73,1.05,1.05,0,0,0,.81-.38ZM47.76,19.5a1,1,0,0,0-1-.75,1.11,1.11,0,0,0-1.07.75Z"/><path id="path9-4" data-name="path9" class="cls-1" d="M41.36,22.6V20a2.69,2.69,0,0,1,.21-1.41,2,2,0,0,1,2-1.12h.24V18.8h-.18c-.65,0-.82.21-.82.83v3Z"/><path id="path8-4" data-name="path8" class="cls-1" d="M40.49,20.92a2.54,2.54,0,0,1-2.42,1.74,2.64,2.64,0,0,1,0-5.28,2.52,2.52,0,0,1,2.53,2.29c0,.54-.45.9-1.13.9H37a1.1,1.1,0,0,0,1,.73,1.09,1.09,0,0,0,.82-.38h1.63ZM39.05,19.5a1,1,0,0,0-1-.75A1.09,1.09,0,0,0,37,19.5Z"/><path id="path7-4" data-name="path7" class="cls-1" d="M34.75,19.63a3,3,0,0,1-.41,1.82,2.6,2.6,0,0,1-2.2,1.23A2.65,2.65,0,0,1,29.52,20,2.62,2.62,0,0,1,32,17.35a2.57,2.57,0,0,1,1.27.37V14.56h1.45v5.07ZM31,20a1.18,1.18,0,1,0,1.16-1.21A1.2,1.2,0,0,0,31,20Z"/><path id="path6-4" data-name="path6" class="cls-1" d="M27.31,22.6V19.85a1.42,1.42,0,0,0-.12-.77.84.84,0,0,0-.71-.42.89.89,0,0,0-.72.42c-.11.17-.12.27-.12.78V22.6H24.2V19.92a2.62,2.62,0,0,1,.45-1.7,2.23,2.23,0,0,1,3.67,0,2.57,2.57,0,0,1,.43,1.62V22.6Z"/><path id="path5-4" data-name="path5" class="cls-1" d="M21.76,22.6v-.42a2.29,2.29,0,0,1-1.34.48,2.65,2.65,0,0,1,.16-5.29,2.59,2.59,0,0,1,2.1,1.07,2.82,2.82,0,0,1,.53,1.89V22.6ZM19.41,20a1.17,1.17,0,1,0,1.17-1.22A1.19,1.19,0,0,0,19.41,20Z"/><path id="path4-4" data-name="path4" class="cls-1" d="M15.74,22.6v-.42a2.27,2.27,0,0,1-1.34.48,2.65,2.65,0,0,1,.16-5.29,2.58,2.58,0,0,1,2.1,1.07,2.82,2.82,0,0,1,.53,1.89V22.6ZM13.4,20a1.17,1.17,0,1,0,1.16-1.22A1.18,1.18,0,0,0,13.4,20Z"/><path id="path3-4" data-name="path3" class="cls-1" d="M9.68,14.56h1.44v8H9.68Z"/><path id="path2-4" data-name="path2" class="cls-1" d="M7.91,21.49a2.53,2.53,0,0,1-.31.73,1,1,0,0,1-.85.45c-.59,0-.87-.3-1.15-1.18L4.32,17.43H5.9l.82,3.15.88-3.15H9.16Z"/><path id="path1-4" data-name="path1" class="cls-1" d="M2.93,20.84a.85.85,0,0,1,.87.88.87.87,0,1,1-.87-.88Z"/><path id="path11-5" data-name="path11" class="cls-1" d="M53.18,12.87V10.12c0-.47,0-.6-.12-.77a.83.83,0,0,0-.71-.42.89.89,0,0,0-.72.42c-.1.17-.11.28-.11.78v2.74H50.08V10.19a2.62,2.62,0,0,1,.44-1.7,2.25,2.25,0,0,1,1.83-1,2.22,2.22,0,0,1,1.84,1,2.57,2.57,0,0,1,.43,1.62v2.73Z"/><path id="path10-5" data-name="path10" class="cls-1" d="M49.2,11.2a2.53,2.53,0,0,1-2.42,1.73,2.59,2.59,0,0,1-2.57-2.65,2.57,2.57,0,0,1,2.56-2.63A2.52,2.52,0,0,1,49.3,9.94c0,.54-.45.91-1.14.91H45.72a1.09,1.09,0,0,0,1,.72,1.07,1.07,0,0,0,.81-.37ZM47.76,9.77a1,1,0,0,0-1-.75,1.11,1.11,0,0,0-1.07.75Z"/><path id="path9-5" data-name="path9" class="cls-1" d="M41.36,12.87V10.23a2.69,2.69,0,0,1,.21-1.41,2,2,0,0,1,2-1.12h.24V9.07h-.18c-.65,0-.82.21-.82.84v3Z"/><path id="path8-5" data-name="path8" class="cls-1" d="M40.49,11.2a2.54,2.54,0,0,1-2.42,1.73,2.6,2.6,0,0,1-2.58-2.65,2.58,2.58,0,0,1,2.56-2.63,2.52,2.52,0,0,1,2.53,2.29c0,.54-.45.91-1.13.91H37a1.09,1.09,0,0,0,1,.72,1.11,1.11,0,0,0,.82-.37h1.63ZM39.05,9.77A1,1,0,0,0,38,9,1.09,1.09,0,0,0,37,9.77Z"/><path id="path7-5" data-name="path7" class="cls-1" d="M34.75,9.9a3,3,0,0,1-.41,1.83A2.59,2.59,0,0,1,32.14,13a2.65,2.65,0,0,1-2.62-2.67A2.62,2.62,0,0,1,32,7.63,2.55,2.55,0,0,1,33.3,8V4.83h1.45V9.91ZM31,10.27a1.18,1.18,0,1,0,2.35,0,1.23,1.23,0,0,0-1.19-1.24A1.2,1.2,0,0,0,31,10.27Z"/><path id="path6-5" data-name="path6" class="cls-1" d="M27.31,12.87V10.12a1.42,1.42,0,0,0-.12-.77.84.84,0,0,0-.71-.42.89.89,0,0,0-.72.42c-.11.17-.12.28-.12.78v2.74H24.2V10.19a2.62,2.62,0,0,1,.45-1.7,2.23,2.23,0,0,1,3.67,0,2.57,2.57,0,0,1,.43,1.62v2.73Z"/><path id="path5-5" data-name="path5" class="cls-1" d="M21.76,12.87v-.42a2.23,2.23,0,0,1-1.34.48,2.65,2.65,0,1,1,2.26-4.22,2.83,2.83,0,0,1,.53,1.89v2.27Zm-2.35-2.58a1.17,1.17,0,1,0,1.17-1.22A1.2,1.2,0,0,0,19.41,10.29Z"/><path id="path4-5" data-name="path4" class="cls-1" d="M15.74,12.87v-.42a2.2,2.2,0,0,1-1.34.48,2.65,2.65,0,1,1,2.26-4.22,2.83,2.83,0,0,1,.53,1.89v2.27ZM13.4,10.29a1.17,1.17,0,1,0,1.16-1.22A1.19,1.19,0,0,0,13.4,10.29Z"/><path id="path3-5" data-name="path3" class="cls-1" d="M9.68,4.83h1.44v8H9.68Z"/><path id="path2-5" data-name="path2" class="cls-1" d="M7.91,11.76a2.49,2.49,0,0,1-.31.74,1,1,0,0,1-.85.44c-.59,0-.87-.3-1.15-1.18L4.32,7.7H5.9l.82,3.16L7.6,7.7H9.16Z"/><path id="path1-5" data-name="path1" class="cls-1" d="M2.93,11.11A.85.85,0,0,1,3.8,12a.87.87,0,1,1-.87-.88Z"/></svg>