<svg id="Слой_1" data-name="Слой 1" xmlns="http://www.w3.org/2000/svg" viewBox="0 0 56.69 56.69"><defs><style>.cls-1{fill:#265fa9;}.cls-2{fill:#fdfdfd;}.cls-3{fill:#393539;}</style></defs><path class="cls-1" d="M1.84,11.7a4.36,4.36,0,0,1,2.94-.83q23.71,0,47.44,0c2.51,0,2.65.13,2.65,2.59,0,9.94,0,19.88,0,29.82a6.23,6.23,0,0,1-.45,2.5q-25.53,0-51.06,0c-1.21,0-1.58-.21-1.57-1.51C1.87,33.45,1.84,22.57,1.84,11.7ZM28.33,43.87c7.61,0,15.22,0,22.84,0,1.38,0,1.84-.32,1.83-1.76q-.11-13.83,0-27.66c0-1.3-.36-1.7-1.69-1.69q-22.74.06-45.47,0c-1.62,0-1.84.57-1.83,2Q4.09,28.37,4,42c0,1.5.37,1.93,1.9,1.91C13.37,43.83,20.85,43.88,28.33,43.87Z"/><path class="cls-2" d="M28.33,43.88c-7.48,0-15-.05-22.43,0C4.37,43.93,4,43.5,4,42q.11-13.62,0-27.25c0-1.4.21-2,1.83-2q22.74.09,45.47,0c1.33,0,1.7.39,1.69,1.69q-.08,13.83,0,27.66c0,1.44-.45,1.78-1.83,1.76C43.55,43.84,35.94,43.87,28.33,43.88Zm-12.6-12-.4,0-.3-2-.3-2c-.34-2.38-.34-2.38-2.67-2.29a4.32,4.32,0,0,0-.8.18c.72,3.31,1.5,6.54,2.11,9.81.29,1.54,1.33,1.14,2.28,1.22s1.58-.13,1.78-1.3a23.47,23.47,0,0,1,1.18-5.37c.39,2.07.78,3.73,1,5.41.13,1.07.64,1.36,1.59,1.25s2.05.48,2.36-1.09c.65-3.31,1.41-6.61,2.13-9.91-2.82-.45-2.76-.44-3.3,2.15a15.83,15.83,0,0,1-1,4.23c-.35-1.88-.74-3.57-1-5.28-.17-1.28-.92-1.33-2-1.35s-1.79.14-1.94,1.39C16.33,28.64,16,30.25,15.73,31.87Zm25.3-.6c0,1.33.07,2.67,0,4-.07,1.15.19,1.66,1.52,1.65s1.6-.41,1.56-1.62c-.07-2.06,0-4.13.06-6.19a1.24,1.24,0,0,1,1.43-1.33c.94.08.94.81,1,1.48,0,2.06.07,4.13,0,6.2,0,1.19.44,1.47,1.53,1.44s1.66,0,1.61-1.35c-.1-2.4,0-4.8,0-7.2s-2-3.68-4.27-2.73c-.62.26-1,.65-1.93.15-1.61-.84-2.37-.11-2.38,1.7Zm-4,.54c3.2,0,3.3-.12,2.59-3.24l0-.2a3.53,3.53,0,0,0-3.87-3c-2.24,0-3.76,1-4.25,2.91a12.16,12.16,0,0,0,0,6.14,3.38,3.38,0,0,0,3.36,2.65c2.41.17,3.68-.39,4.42-2,.28-.61.64-1.35.2-1.87S38.12,33,37.46,33s-.69.65-.89,1.13c-.33.79-.92,1.23-1.72.57a2.33,2.33,0,0,1-.61-2.41c.19-.85,1-.35,1.54-.45A7,7,0,0,1,37,31.81Zm-7.24-.47c0-1.53-.07-3.06,0-4.59.07-1.32-.8-1.1-1.58-1.1s-1.62-.18-1.6,1.12q.09,4.49,0,9c0,1.29.82,1.12,1.62,1.13s1.63.14,1.56-1.15C29.68,34.27,29.75,32.8,29.75,31.34Zm-19,3.77c0-1.25.4-2.46-1.66-2.32-1.49.1-2,.42-1.85,1.91C7.34,35.88,7,37,9,36.94,10.52,36.87,11.05,36.45,10.74,35.11ZM27.91,24.53c1,0,1.95.3,1.88-1.27-.05-1.12-.37-1.53-1.49-1.45-.87.07-1.75-.13-1.72,1.25C26.61,24.08,26.72,24.78,27.91,24.53Z"/><path class="cls-3" d="M15.73,31.87c.27-1.62.6-3.23.79-4.86.15-1.25.86-1.4,1.94-1.39s1.79.07,2,1.35c.22,1.71.61,3.4,1,5.28a15.83,15.83,0,0,0,1-4.23c.54-2.59.48-2.6,3.3-2.15-.72,3.3-1.48,6.6-2.13,9.91-.31,1.57-1.46,1-2.36,1.09s-1.46-.18-1.59-1.25c-.2-1.68-.59-3.34-1-5.41a23.47,23.47,0,0,0-1.18,5.37c-.2,1.17-.78,1.39-1.78,1.3s-2,.32-2.28-1.22c-.61-3.27-1.39-6.5-2.11-9.81a4.32,4.32,0,0,1,.8-.18c2.33-.09,2.33-.09,2.67,2.29l.3,2,.3,2Z"/><path class="cls-3" d="M41,31.27v-3.8c0-1.81.77-2.54,2.38-1.7,1,.5,1.31.11,1.93-.15,2.29-.95,4.22.26,4.27,2.73s-.06,4.8,0,7.2C49.7,36.86,49,36.87,48,36.9s-1.58-.25-1.53-1.44c.09-2.07,0-4.14,0-6.2,0-.67,0-1.4-1-1.48a1.24,1.24,0,0,0-1.43,1.33c-.09,2.06-.13,4.13-.06,6.19,0,1.21-.29,1.61-1.56,1.62s-1.59-.5-1.52-1.65C41.1,33.94,41,32.6,41,31.27Z"/><path class="cls-3" d="M37,31.81a7,7,0,0,0-1.21,0c-.53.1-1.35-.4-1.54.45a2.33,2.33,0,0,0,.61,2.41c.8.66,1.39.22,1.72-.57.2-.48.16-1.13.89-1.13s1.49-.32,1.93.21.08,1.26-.2,1.87c-.74,1.6-2,2.16-4.42,2a3.38,3.38,0,0,1-3.36-2.65,12.16,12.16,0,0,1,0-6.14c.49-1.94,2-2.94,4.25-2.91a3.53,3.53,0,0,1,3.87,3l0,.2C40.29,31.69,40.19,31.81,37,31.81Zm-1.5-1.95c.56-.07,1.28.22,1.23-.8,0-.81-.31-1.51-1.18-1.51s-1.31.75-1.33,1.62S35,29.73,35.49,29.86Z"/><path class="cls-3" d="M29.75,31.34c0,1.46-.07,2.93,0,4.38.07,1.29-.74,1.17-1.56,1.15s-1.64.16-1.62-1.13q.09-4.49,0-9c0-1.3.8-1.13,1.6-1.12s1.65-.22,1.58,1.1C29.68,28.28,29.75,29.81,29.75,31.34Z"/><path class="cls-3" d="M10.74,35.11c.31,1.34-.22,1.76-1.76,1.83C7,37,7.34,35.88,7.23,34.7c-.15-1.49.36-1.81,1.85-1.91C11.14,32.65,10.76,33.86,10.74,35.11Z"/><path class="cls-3" d="M27.91,24.53c-1.19.25-1.3-.45-1.33-1.47,0-1.38.85-1.18,1.72-1.25,1.12-.08,1.44.33,1.49,1.45C29.86,24.83,28.89,24.54,27.91,24.53Z"/><path class="cls-2" d="M35.49,29.86c-.46-.13-1.29.33-1.28-.69s.37-1.62,1.33-1.62,1.13.7,1.18,1.51C36.77,30.08,36.05,29.79,35.49,29.86Z"/></svg>