<?xml version="1.0" encoding="UTF-8"?>
<svg id="Layer_1" width="158.11" height="117.62" version="1.1" viewBox="0 0 158.11 117.62" xmlns="http://www.w3.org/2000/svg">
 <defs id="defs1">
  <style id="style1">.cls-1{fill:#fdc70a;}.cls-2{fill:#1e3967;}</style>
 </defs>
 <g id="_.ai" transform="translate(-23.21,-4.94)">
  <path id="path1" class="cls-1" d="m75.07 31.76c-1.29 0-2.34-1.05-2.34-2.34v-8.24c0-1.29 1.05-2.34 2.34-2.34s2.34 1.05 2.34 2.34v8.24c0 1.29-1.05 2.34-2.34 2.34z"/>
  <path id="path2" class="cls-1" d="m82.69 31.76c-1.29 0-2.34-1.05-2.34-2.34v-19.38c0-1.29 1.05-2.34 2.34-2.34s2.34 1.05 2.34 2.34v19.37c0 1.29-1.05 2.34-2.34 2.34z"/>
  <path id="path3" class="cls-1" d="m92.78 31.76c-1.29 0-2.34-1.05-2.34-2.34v-22.14c0-1.29 1.05-2.34 2.34-2.34s2.34 1.05 2.34 2.34v22.13c0 1.29-1.05 2.34-2.34 2.34z"/>
  <path id="path4" class="cls-1" d="m100.58 31.76c-1.29 0-2.34-1.05-2.34-2.34v-13.75c0-1.29 1.05-2.34 2.34-2.34s2.34 1.05 2.34 2.34v13.75c0 1.29-1.05 2.34-2.34 2.34z"/>
  <path id="path5" class="cls-1" d="m172.02 60.63h-26.44c-1.29 0-2.34-1.05-2.34-2.34s1.05-2.34 2.34-2.34h26.44c1.29 0 2.34 1.05 2.34 2.34s-1.05 2.34-2.34 2.34z"/>
  <path id="path6" class="cls-1" d="m151.98 69.16h-6.4c-1.29 0-2.34-1.05-2.34-2.34s1.05-2.34 2.34-2.34h6.4c1.29 0 2.34 1.05 2.34 2.34s-1.05 2.34-2.34 2.34z"/>
  <path id="path7" class="cls-1" d="m161.85 87.64h-16.27c-1.29 0-2.34-1.05-2.34-2.34s1.05-2.34 2.34-2.34h16.27c1.29 0 2.34 1.05 2.34 2.34s-1.05 2.34-2.34 2.34z"/>
  <path id="path8" class="cls-1" d="m105.63 106.83c-1.29 0-2.34-1.05-2.34-2.34v-10.75c0-1.29 1.05-2.34 2.34-2.34s2.34 1.05 2.34 2.34v10.75c0 1.29-1.05 2.34-2.34 2.34z"/>
  <path id="path9" class="cls-1" d="m95.8 116.64c-1.29 0-2.34-1.05-2.34-2.34v-20.56c0-1.29 1.05-2.34 2.34-2.34s2.34 1.05 2.34 2.34v20.56c0 1.29-1.05 2.34-2.34 2.34z"/>
  <path id="path10" class="cls-1" d="m87.68 122.56c-1.29 0-2.34-1.05-2.34-2.34v-26.48c0-1.29 1.05-2.34 2.34-2.34s2.34 1.05 2.34 2.34v26.48c0 1.29-1.05 2.34-2.34 2.34z"/>
  <path id="path11" class="cls-1" d="m76.48 119.01c-1.29 0-2.34-1.05-2.34-2.34v-22.94c0-1.29 1.05-2.34 2.34-2.34s2.34 1.05 2.34 2.34v22.94c0 1.29-1.05 2.34-2.34 2.34z"/>
  <path id="path12" class="cls-1" d="m53.58 66.91h-10.18c-1.29 0-2.34-1.05-2.34-2.34s1.05-2.34 2.34-2.34h10.18c1.29 0 2.34 1.05 2.34 2.34s-1.05 2.34-2.34 2.34z"/>
  <path id="path13" class="cls-1" d="m53.77 59.65h-28.22c-1.29 0-2.34-1.05-2.34-2.34s1.05-2.34 2.34-2.34h28.22c1.29 0 2.34 1.05 2.34 2.34s-1.05 2.34-2.34 2.34z"/>
  <path id="path14" class="cls-1" d="m53.77 49.27h-14.04c-1.29 0-2.34-1.05-2.34-2.34s1.05-2.34 2.34-2.34h14.04c1.29 0 2.34 1.05 2.34 2.34s-1.05 2.34-2.34 2.34z"/>
  <path id="path15" class="cls-1" d="m53.77 42.1h-19.92c-1.29 0-2.34-1.05-2.34-2.34s1.05-2.34 2.34-2.34h19.92c1.29 0 2.34 1.05 2.34 2.34s-1.05 2.34-2.34 2.34z"/>
  <path id="path16" class="cls-1" d="m178.98 79.86h-33.4c-1.29 0-2.34-1.05-2.34-2.34s1.05-2.34 2.34-2.34h33.4c1.29 0 2.34 1.05 2.34 2.34s-1.05 2.34-2.34 2.34z"/>
 </g>
 <circle id="circle16" class="cls-2" cx="21.55" cy="83.19" r="15.9"/>
 <path id="path17" class="cls-1" d="m21.55 69.17c7.74 0 14.03 6.28 14.03 14.03s-6.28 14.03-14.03 14.03-14.03-6.28-14.03-14.03 6.28-14.03 14.03-14.03m0-3.74c-9.8 0-17.77 7.97-17.77 17.77s7.97 17.77 17.77 17.77 17.77-7.97 17.77-17.77-7.97-17.77-17.77-17.77z"/>
 <path id="path18" class="cls-2" d="m64.71 84.27c-15.47 0-28.05-12.59-28.05-28.05s12.59-28.05 28.05-28.05 27.8 12.59 28.05 28.05c0.19 11.42 0.18 26.91 0.18 26.91l-13.97-0.03s0-15.47-0.23-26.88c-0.16-7.73-6.29-14.03-14.03-14.03s-14.03 6.29-14.03 14.03 6.29 14.03 14.03 14.03c1.48 0 2.93-0.22 4.32-0.67l4.31 13.34c-2.79 0.9-5.69 1.36-8.63 1.36z"/>
 <circle id="circle18" class="cls-2" cx="107.88" cy="29.31" r="15.9"/>
 <path id="path19" class="cls-1" d="m107.88 15.29c7.74 0 14.03 6.28 14.03 14.03s-6.28 14.03-14.03 14.03-14.03-6.28-14.03-14.03 6.28-14.03 14.03-14.03m0-3.74c-9.8 0-17.77 7.97-17.77 17.77s7.97 17.77 17.77 17.77 17.77-7.97 17.77-17.77-7.97-17.77-17.77-17.77z"/>
 <path id="path20" class="cls-2" d="m108.29 49.76c-2.58 0-5.05-0.48-7.32-1.36 0 21.97-0.02 34.78-0.02 34.78h13.86v-34.49c-2.05 0.68-4.25 1.07-6.52 1.07z"/>
 <circle id="circle20" class="cls-1" cx="64.755" cy="56.255" r="14.075" style="stroke-width:1.00321"/>
</svg>
