<svg width="135" height="81" viewBox="0 0 135 81" fill="none" xmlns="http://www.w3.org/2000/svg">
<g clip-path="url(#clip0_1028_9917)">
<path d="M16.148 72.2941C16.1437 76.7168 12.5616 80.3009 8.13901 80.3031C3.71852 80.3031 0.132197 76.7189 0.12793 72.2941C0.132197 67.8715 3.71425 64.2873 8.13688 64.2852C12.5595 64.2894 16.1458 67.8758 16.1458 72.2941H16.148Z" fill="#CFDD2A"/>
<path d="M52.5198 47.2591V79.5851H42.8233V76.547C40.6899 79.0026 37.5217 80.4918 33.1908 80.4918C24.721 80.4918 17.7383 73.0567 17.7383 63.4221C17.7383 53.7874 24.721 46.3545 33.1908 46.3545C37.5217 46.3545 40.6899 47.8415 42.8233 50.2992V47.2612H52.5198V47.2591ZM42.8233 63.4221C42.8233 58.5727 39.5911 55.5347 35.1301 55.5347C30.6691 55.5347 27.4369 58.5727 27.4369 63.4221C27.4369 68.2714 30.6691 71.3094 35.1301 71.3094C39.5911 71.3094 42.8233 68.2714 42.8233 63.4221Z" fill="#292633"/>
<path d="M87.5243 47.2578V79.5838H77.8278V76.5458C76.0826 78.9374 72.8483 80.4905 68.5814 80.4905C62.051 80.4905 56.4912 75.8353 56.4912 67.1074V47.2578H66.1877V65.6844C66.1877 69.6931 68.7094 71.5684 71.8136 71.5684C75.3701 71.5684 77.8257 69.499 77.8257 64.91V47.2599H87.5222L87.5243 47.2578Z" fill="#292633"/>
<path d="M99.9368 20.0289C102.97 20.0289 105.428 17.5703 105.428 14.5374C105.428 11.5045 102.97 9.0459 99.9368 9.0459C96.9039 9.0459 94.4453 11.5045 94.4453 14.5374C94.4453 17.5703 96.9039 20.0289 99.9368 20.0289Z" fill="#CFDD2A"/>
<path d="M99.9327 5.06861C101.197 5.06861 102.222 4.04371 102.222 2.77942C102.222 1.51514 101.197 0.490234 99.9327 0.490234C98.6685 0.490234 97.6436 1.51514 97.6436 2.77942C97.6436 4.04371 98.6685 5.06861 99.9327 5.06861Z" fill="#CFDD2A"/>
<path d="M79.802 40.2349C82.8349 40.2349 85.2935 37.7763 85.2935 34.7434C85.2935 31.7106 82.8349 29.252 79.802 29.252C76.7692 29.252 74.3105 31.7106 74.3105 34.7434C74.3105 37.7763 76.7692 40.2349 79.802 40.2349Z" fill="#CFDD2A"/>
<path d="M68.0607 37.0178C69.325 37.0178 70.3499 35.9929 70.3499 34.7286C70.3499 33.4644 69.325 32.4395 68.0607 32.4395C66.7964 32.4395 65.7715 33.4644 65.7715 34.7286C65.7715 35.9929 66.7964 37.0178 68.0607 37.0178Z" fill="#CFDD2A"/>
<path d="M120.14 40.2349C123.173 40.2349 125.631 37.7763 125.631 34.7434C125.631 31.7106 123.173 29.252 120.14 29.252C117.107 29.252 114.648 31.7106 114.648 34.7434C114.648 37.7763 117.107 40.2349 120.14 40.2349Z" fill="#CFDD2A"/>
<path d="M99.933 46.0116C106.164 46.0116 111.215 40.9606 111.215 34.7299C111.215 28.4992 106.164 23.4482 99.933 23.4482C93.7023 23.4482 88.6514 28.4992 88.6514 34.7299C88.6514 40.9606 93.7023 46.0116 99.933 46.0116Z" fill="#CFDD2A"/>
<path d="M131.884 37.0188C133.148 37.0188 134.173 35.9939 134.173 34.7296C134.173 33.4653 133.148 32.4404 131.884 32.4404C130.62 32.4404 129.595 33.4653 129.595 34.7296C129.595 35.9939 130.62 37.0188 131.884 37.0188Z" fill="#CFDD2A"/>
<path d="M99.9368 60.7525C102.97 60.7525 105.428 58.2939 105.428 55.261C105.428 52.2282 102.97 49.7695 99.9368 49.7695C96.9039 49.7695 94.4453 52.2282 94.4453 55.261C94.4453 58.2939 96.9039 60.7525 99.9368 60.7525Z" fill="#CFDD2A"/>
<path d="M99.9327 69.3069C101.197 69.3069 102.222 68.282 102.222 67.0177C102.222 65.7534 101.197 64.7285 99.9327 64.7285C98.6685 64.7285 97.6436 65.7534 97.6436 67.0177C97.6436 68.282 98.6685 69.3069 99.9327 69.3069Z" fill="#CFDD2A"/>
<path d="M88.5314 11.348C90.6381 11.348 92.346 9.6401 92.346 7.53335C92.346 5.42661 90.6381 3.71875 88.5314 3.71875C86.4247 3.71875 84.7168 5.42661 84.7168 7.53335C84.7168 9.6401 86.4247 11.348 88.5314 11.348Z" fill="#CFDD2A"/>
<path d="M85.5491 26.0181C88.582 26.0181 91.0406 23.5595 91.0406 20.5266C91.0406 17.4938 88.582 15.0352 85.5491 15.0352C82.5162 15.0352 80.0576 17.4938 80.0576 20.5266C80.0576 23.5595 82.5162 26.0181 85.5491 26.0181Z" fill="#CFDD2A"/>
<path d="M77.2325 14.5032C78.4968 14.5032 79.5217 13.4783 79.5217 12.214C79.5217 10.9497 78.4968 9.9248 77.2325 9.9248C75.9683 9.9248 74.9434 10.9497 74.9434 12.214C74.9434 13.4783 75.9683 14.5032 77.2325 14.5032Z" fill="#CFDD2A"/>
<path d="M114.124 26.0181C117.157 26.0181 119.616 23.5595 119.616 20.5266C119.616 17.4938 117.157 15.0352 114.124 15.0352C111.091 15.0352 108.633 17.4938 108.633 20.5266C108.633 23.5595 111.091 26.0181 114.124 26.0181Z" fill="#CFDD2A"/>
<path d="M122.417 14.5032C123.681 14.5032 124.706 13.4783 124.706 12.214C124.706 10.9497 123.681 9.9248 122.417 9.9248C121.153 9.9248 120.128 10.9497 120.128 12.214C120.128 13.4783 121.153 14.5032 122.417 14.5032Z" fill="#CFDD2A"/>
<path d="M114.345 54.8111C117.378 54.8111 119.836 52.3525 119.836 49.3196C119.836 46.2868 117.378 43.8281 114.345 43.8281C111.312 43.8281 108.854 46.2868 108.854 49.3196C108.854 52.3525 111.312 54.8111 114.345 54.8111Z" fill="#CFDD2A"/>
<path d="M122.657 59.927C123.922 59.927 124.947 58.9021 124.947 57.6378C124.947 56.3735 123.922 55.3486 122.657 55.3486C121.393 55.3486 120.368 56.3735 120.368 57.6378C120.368 58.9021 121.393 59.927 122.657 59.927Z" fill="#CFDD2A"/>
<path d="M72.5324 27.4515C74.6391 27.4515 76.347 25.7436 76.347 23.6369C76.347 21.5301 74.6391 19.8223 72.5324 19.8223C70.4256 19.8223 68.7178 21.5301 68.7178 23.6369C68.7178 25.7436 70.4256 27.4515 72.5324 27.4515Z" fill="#CFDD2A"/>
<path d="M111.118 11.348C113.225 11.348 114.933 9.6401 114.933 7.53335C114.933 5.42661 113.225 3.71875 111.118 3.71875C109.012 3.71875 107.304 5.42661 107.304 7.53335C107.304 9.6401 109.012 11.348 111.118 11.348Z" fill="#CFDD2A"/>
<path d="M127.116 27.4515C129.223 27.4515 130.931 25.7436 130.931 23.6369C130.931 21.5301 129.223 19.8223 127.116 19.8223C125.01 19.8223 123.302 21.5301 123.302 23.6369C123.302 25.7436 125.01 27.4515 127.116 27.4515Z" fill="#CFDD2A"/>
<path d="M111.359 66.1321C113.465 66.1321 115.173 64.4243 115.173 62.3175C115.173 60.2108 113.465 58.5029 111.359 58.5029C109.252 58.5029 107.544 60.2108 107.544 62.3175C107.544 64.4243 109.252 66.1321 111.359 66.1321Z" fill="#CFDD2A"/>
<path d="M127.357 50.0286C129.463 50.0286 131.171 48.3208 131.171 46.214C131.171 44.1073 129.463 42.3994 127.357 42.3994C125.25 42.3994 123.542 44.1073 123.542 46.214C123.542 48.3208 125.25 50.0286 127.357 50.0286Z" fill="#CFDD2A"/>
</g>
<defs>
<clipPath id="clip0_1028_9917">
<rect width="134.044" height="80" fill="white" transform="translate(0.12793 0.490234)"/>
</clipPath>
</defs>
</svg>
