<?xml version="1.0" encoding="UTF-8"?>
<svg class="font" width="220" height="65.5299" data-v-fde0c5aa="" version="1.1" viewBox="0 0 220 65.5299" xmlns="http://www.w3.org/2000/svg" xmlns:cc="http://creativecommons.org/ns#" xmlns:dc="http://purl.org/dc/elements/1.1/" xmlns:rdf="http://www.w3.org/1999/02/22-rdf-syntax-ns#" xmlns:xlink="http://www.w3.org/1999/xlink">
 <title>aw</title>
 <!---->
 <defs data-v-fde0c5aa="">
  <!---->
  <linearGradient id="8067597e-6508-4327-adf6-b237c8a99b1f" data-v-fde0c5aa="" gradientTransform="rotate(25)">
   <stop stop-color="#0D7CE9" data-v-fde0c5aa="" offset="0"/>
   <stop stop-color="#15CFF1" data-v-fde0c5aa="" offset="1"/>
  </linearGradient>
  <linearGradient id="linearGradient847" x1=".403869" x2="13.1749" y1="10.0042" y2="10.0042" gradientTransform="scale(1.83228 .545768)" gradientUnits="userSpaceOnUse" xlink:href="#8067597e-6508-4327-adf6-b237c8a99b1f"/>
 </defs>
 <g transform="matrix(9.40171 0 0 9.40171 -6.95727 -51.3333)" fill="url(#linearGradient847)" data-v-fde0c5aa="">
  <path d="m0.74 11.12c0 0.72 0.59 1.31 1.32 1.31 0.75 0 1.33-0.59 1.33-1.31 0-0.76-0.58-1.33-1.33-1.33-0.73 0-1.32 0.57-1.32 1.33zm8.11-1.07c0 0.7-0.25 1.68-0.87 1.68-0.42 0-0.78-0.42-0.78-1.43 0-1.2 0.77-1.59 1.65-1.55zm0.26 0.79c0.07 0.81 0.63 1.59 1.63 1.59 1.29 0 1.79-0.91 1.94-2.17l-0.25-0.03c-0.08 0.77-0.32 1.4-0.68 1.4-0.2 0-0.26-0.25-0.26-0.57v-2.38c0-2.2-0.7-3.22-3.72-3.22-1.74 0-2.79 0.67-2.79 1.75 0 0.63 0.48 1.18 1.25 1.18 0.53 0 1.06-0.44 1.06-1.07 0-0.5-0.33-1.01-0.89-1.01-0.59 0-0.77 0.51-0.77 0.51-0.04 0.08-0.06 0.21-0.18 0.21-0.06 0-0.13-0.04-0.13-0.13 0-0.57 0.94-1.16 2.02-1.16 1.48 0 1.51 1.27 1.51 2.3v0.46c-1.29 0-4.3 0.12-4.3 2.08 0 1.4 1.19 1.85 2.35 1.85 1.46 0 1.91-0.73 2.13-1.59zm11.96 1.59c1.9 0 3.07-2.41 3.07-4.48 0-1.71-0.8-2.49-1.7-2.49-0.73 0-1.26 0.46-1.26 1.19 0 0.63 0.46 1.11 1.07 1.11 0.57 0 1-0.38 1-0.94 0-0.42-0.22-0.69-0.56-0.8-0.09-0.03-0.18-0.06-0.18-0.15s0.07-0.13 0.14-0.13c0.06 0 0.1 0.01 0.16 0.03 0.64 0.18 1.06 1.02 1.06 2.08 0 1.52-0.7 3.43-1.67 3.43-0.99 0-1.66-1.77-1.66-5.2v-0.62c-0.94 0.2-1.91 0.27-2.87 0.27h-0.84v0.22h0.99v0.77c0 1.46 0.2 2.83 0.66 3.86-0.27 0.44-0.59 0.7-0.95 0.7-1 0-1.67-1.77-1.67-5.2v-0.62c-0.94 0.2-1.9 0.27-2.87 0.27h-0.84v0.22h1v0.77c0 3.01 0.84 5.71 3.24 5.71 0.97 0 1.74-0.61 2.27-1.5 0.52 0.93 1.29 1.5 2.41 1.5z" fill="url(#linearGradient847)"/>
 </g>
 <!---->
 <!---->
 <metadata>
  <rdf:RDF>
   <cc:Work rdf:about="">
    <dc:title>aw</dc:title>
   </cc:Work>
  </rdf:RDF>
 </metadata>
</svg>
