<?xml version="1.0" encoding="UTF-8" standalone="no"?>
<!-- Created with Inkscape (http://www.inkscape.org/) -->

<svg
   width="250"
   height="51"
   viewBox="0 0 66.145831 13.493751"
   version="1.1"
   id="svg5"
   xml:space="preserve"
   xmlns="http://www.w3.org/2000/svg"
   xmlns:svg="http://www.w3.org/2000/svg"
   xmlns:rdf="http://www.w3.org/1999/02/22-rdf-syntax-ns#"
   xmlns:cc="http://creativecommons.org/ns#"
   xmlns:dc="http://purl.org/dc/elements/1.1/"><title
     id="title4834">.bd - .বিডি</title><defs
     id="defs2" /><g
     id="layer1"
     transform="translate(-60.555615,-44.163369)"><g
       id="g1645"
       transform="matrix(0.94430845,0,0,0.94430845,0.50654871,-42.414107)"><path
         id="path1323"
         style="font-variation-settings:normal;fill:#006a4d;fill-opacity:1;fill-rule:evenodd;stroke-width:0.268819;stroke-linecap:butt;stroke-linejoin:miter;stroke-miterlimit:4;stroke-dasharray:none;stroke-dashoffset:0;stroke-opacity:1;stop-color:#000000"
         d="m 69.74923,91.788368 c -0.249631,0 -0.452169,0.202538 -0.452169,0.452168 v 12.772344 c 0,0.24963 0.202538,0.45217 0.452169,0.45217 h 1.154968 c 0.249631,0 0.452169,-0.20254 0.452169,-0.45217 v -0.72347 c 0,-0.0849 0.04456,-0.10082 0.100769,-0.0372 0.488021,0.55202 1.002198,0.96876 1.607654,1.11725 2.298443,0.56367 3.930095,-0.22369 4.586283,-2.07378 0.290642,-0.81943 0.41031,-1.65316 0.410311,-2.48925 10e-7,-0.836087 -0.119669,-1.669818 -0.410311,-2.489252 -0.512647,-1.445382 -1.621024,-2.227984 -3.177067,-2.253092 -1.14663,-0.0185 -2.054683,0.402452 -2.794145,1.154451 v -4.977991 c 0,-0.24963 -0.202538,-0.452168 -0.452168,-0.452168 z m 16.624825,0 c -0.249631,0 -0.451652,0.202538 -0.451652,0.452168 v 4.977991 c -0.739461,-0.751999 -1.647515,-1.172951 -2.794145,-1.154451 -1.556042,0.02511 -2.664419,0.80771 -3.177067,2.253092 -0.290642,0.819434 -0.410312,1.653165 -0.410311,2.489252 10e-7,0.83609 0.119669,1.66982 0.410311,2.48925 0.656188,1.85009 2.28784,2.63745 4.586283,2.07378 0.605456,-0.14849 1.119633,-0.56523 1.607654,-1.11725 0.05621,-0.0636 0.100769,-0.0477 0.100769,0.0372 v 0.72347 c 0,0.24963 0.202022,0.45217 0.451652,0.45217 h 1.155485 c 0.249631,0 0.452169,-0.20254 0.452169,-0.45217 V 92.240536 c 0,-0.24963 -0.202538,-0.452168 -0.452169,-0.452168 z M 73.9991,97.856731 c 0.605658,-2.93e-4 1.109528,0.32765 1.403015,0.991671 0.281253,0.636338 0.363285,1.298438 0.363285,1.958018 0,0.65959 -0.08203,1.32116 -0.363285,1.95751 -0.469578,1.06242 -1.477425,1.2548 -2.579688,0.65938 -0.523468,-0.28276 -0.862652,-0.7368 -1.142566,-1.21232 v -2.809134 c 0.567023,-0.860798 1.291917,-1.544628 2.319239,-1.545125 z m 9.604065,0 c 1.027322,4.97e-4 1.752215,0.684327 2.319238,1.545125 v 2.809134 c -0.279914,0.47552 -0.619098,0.92956 -1.142566,1.21232 -1.102263,0.59542 -2.11011,0.40304 -2.579688,-0.65938 -0.281254,-0.63635 -0.363285,-1.29792 -0.363285,-1.95751 0,-0.65958 0.08203,-1.32168 0.363285,-1.958018 0.293487,-0.664021 0.797357,-0.991964 1.403016,-0.991671 z m -8.916769,7.690999 c -0.0022,3e-5 -0.0045,4.9e-4 -0.0067,5.2e-4 -0.0051,7e-5 -0.01037,3.8e-4 -0.0155,5.2e-4 h 0.120923 c -0.03292,-7.1e-4 -0.06558,-0.001 -0.0987,-0.001 z" /><path
         id="path1335"
         style="font-weight:bold;font-size:18.4325px;line-height:1.25;font-family:'Graviola Soft';-inkscape-font-specification:'Graviola Soft Bold';fill:#f4253f;fill-opacity:1;stroke-width:0.692913"
         d="m 66.181591,100.25809 c -0.939134,0 -1.587012,0.20017 -1.943877,0.60008 -0.336435,0.39795 -0.505454,1.06637 -0.507099,2.00433 0.0017,0.93797 0.170664,1.60639 0.507099,2.00433 0.356865,0.39991 1.004743,0.60008 1.943877,0.60008 0.939132,0 1.58701,-0.20017 1.943877,-0.60008 0.336432,-0.39794 0.505416,-1.06636 0.507098,-2.00433 -0.0017,-0.93796 -0.170666,-1.60638 -0.507098,-2.00433 -0.356867,-0.39991 -1.004745,-0.60008 -1.943877,-0.60008 z" /><path
         id="path6155"
         style="font-weight:bold;font-size:8.44613px;line-height:1.25;font-family:'Times Newer Roman';-inkscape-font-specification:'Times Newer Roman,  Bold';fill:#f4253f;stroke-width:0.211154"
         d="m 90.709191,98.569349 v 0.202572 c 0.557333,0.02535 0.709166,0.151891 0.726054,0.591178 v 4.004401 c -0.01689,0.43084 -0.143388,0.53205 -0.726054,0.59118 v 0.20309 h 2.659786 c 1.410221,0 2.330607,-0.61672 2.330607,-1.55442 0,-0.38015 -0.151963,-0.70964 -0.447518,-0.97152 -0.295556,-0.25343 -0.574028,-0.37162 -1.14825,-0.48989 0.954223,-0.28723 1.308447,-0.62526 1.308447,-1.258842 0,-0.853228 -0.759683,-1.317749 -2.144572,-1.317749 z m 18.696019,0 v 0.194303 c 0.27866,0.01689 0.41375,0.168539 0.42219,0.481108 v 4.22403 c -0.008,0.31258 -0.16042,0.48989 -0.42219,0.48989 v 0.20309 h 1.97559 v -0.20309 c -0.26178,0.008 -0.40515,-0.16042 -0.40515,-0.48989 v -4.899441 z m 8.61291,0 v 0.194303 c 0.54044,0.03379 0.60839,0.09251 0.62528,0.481108 v 1.51257 c -0.35467,-0.38015 -0.60805,-0.50695 -0.98805,-0.50695 -0.912,0 -1.5875,0.88711 -1.5875,2.0867 0,1.13199 0.62453,1.94251 1.50275,1.94251 0.43911,0 0.70968,-0.13486 1.09812,-0.5488 v 0.54053 c 0.38,-0.10982 0.59094,-0.15221 1.09761,-0.21135 l 0.51522,-0.0672 v -0.18604 c -0.38001,-0.0253 -0.4899,-0.13526 -0.4899,-0.48162 v -4.755781 z m 9.71982,0 v 0.194303 c 0.38,0.07603 0.4308,0.126301 0.43925,0.481108 v 4.22403 c -0.008,0.35482 -0.0761,0.43076 -0.43925,0.48989 v 0.20309 h 1.99264 v -0.20309 c -0.29555,-0.0338 -0.40514,-0.16045 -0.40514,-0.46457 v -2.2133 c 0,-0.0254 0.0592,-0.10982 0.14366,-0.1943 0.17733,-0.17741 0.38008,-0.27854 0.56586,-0.27854 0.28711,0 0.43046,0.22802 0.43046,0.6842 v 2.00194 c -0.008,0.31257 -0.11838,0.43923 -0.38861,0.46457 v 0.20309 h 1.94252 v -0.20309 c -0.28711,-0.008 -0.40566,-0.15197 -0.40566,-0.48989 v -2.05259 c 0,-0.70961 -0.43911,-1.16582 -1.11466,-1.16582 -0.43911,0 -0.74291,0.1603 -1.17357,0.64183 v -2.322861 z m -34.537945,0.244946 c 0.582666,0 0.844393,0.354854 0.844393,1.140499 0,0.861676 -0.270311,1.098106 -1.283643,1.123446 v -1.858802 c 0,-0.295673 0.118361,-0.405143 0.43925,-0.405143 z m 4.923213,1.436085 c -0.937333,0 -1.562178,0.42201 -1.562178,1.0387 0,0.34636 0.193972,0.54932 0.53175,0.54932 0.337777,0 0.565857,-0.1944 0.565857,-0.48162 0,-0.11827 -0.04215,-0.21934 -0.151928,-0.3545 -0.06756,-0.0845 -0.09302,-0.13535 -0.09302,-0.18604 0,-0.16896 0.227927,-0.30386 0.523482,-0.30386 0.481334,0 0.692465,0.21919 0.692465,0.72606 v 0.60823 c -0.988001,0.29567 -1.393054,0.45646 -1.697055,0.66766 -0.36311,0.25343 -0.532267,0.53196 -0.532267,0.88676 0,0.50687 0.380431,0.87902 0.920874,0.87902 0.472889,0 0.852447,-0.16897 1.308448,-0.58291 0.08444,0.42239 0.270594,0.58291 0.675927,0.58291 0.363111,0 0.616182,-0.127 0.928627,-0.47336 l -0.12661,-0.17725 -0.0842,0.0842 c -0.02533,0.0253 -0.04253,0.0341 -0.08475,0.0341 -0.118222,0 -0.177251,-0.0679 -0.177251,-0.20309 v -2.16265 c 0,-0.70117 -0.62481,-1.13172 -1.638143,-1.13172 z m 5.227072,0 c -0.50667,0 -0.86991,0.21937 -1.18236,0.71779 v -0.62477 h -1.57871 v 0.1943 c 0.36311,0.0591 0.43029,0.13509 0.43873,0.4899 v 2.44119 c -0.008,0.35482 -0.0756,0.43076 -0.43873,0.48989 v 0.20309 h 1.99264 v -0.20309 c -0.29555,-0.0338 -0.40514,-0.16045 -0.40514,-0.46457 v -2.2133 c 0,-0.0338 0.0587,-0.11827 0.14314,-0.1943 0.17733,-0.18585 0.38008,-0.28732 0.56586,-0.28732 0.28711,0 0.43098,0.22801 0.43098,0.68419 v 2.01073 c -0.008,0.31257 -0.11838,0.44768 -0.38861,0.46457 v 0.20309 h 1.942 v -0.20309 c -0.304,-0.0169 -0.41358,-0.1351 -0.40514,-0.46457 v -2.08669 c 0,-0.70962 -0.43066,-1.15704 -1.11466,-1.15704 z m 3.69848,0 c -0.988,0 -1.68,0.54038 -1.68,1.32602 0,0.29567 0.10119,0.55791 0.30386,0.786 0.17733,0.21119 0.33761,0.31233 0.72605,0.47284 -0.65866,0.22809 -0.98805,0.54912 -0.98805,0.97151 0,0.33791 0.14393,0.4899 0.67593,0.6842 -0.52356,0.0591 -0.79427,0.27911 -0.79427,0.61702 0,0.48153 0.61687,0.76016 1.66398,0.76016 1.38489,0 2.10271,-0.43113 2.10271,-1.25057 0,-0.64203 -0.47294,-0.99649 -1.3596,-1.01338 l -0.53227,-0.008 c -0.70089,-0.008 -0.82734,-0.0504 -0.82734,-0.27853 0,-0.1605 0.10137,-0.29568 0.29559,-0.38861 0.10133,-0.0422 0.10138,-0.0424 0.64182,-0.0424 0.87822,0 1.43557,-0.46479 1.43557,-1.2082 0,-0.32946 -0.10169,-0.57426 -0.32969,-0.8108 v -5.2e-4 h 0.66714 v -0.43925 h -1.07229 c -0.36311,-0.13516 -0.59981,-0.17725 -0.92914,-0.17725 z m 6.5195,0 c -0.93733,0 -1.56218,0.42201 -1.56218,1.0387 0,0.34636 0.19397,0.54932 0.53175,0.54932 0.33778,0 0.56586,-0.1944 0.56586,-0.48162 0,-0.11827 -0.0422,-0.21934 -0.15193,-0.3545 -0.0676,-0.0845 -0.093,-0.13535 -0.093,-0.18604 0,-0.16896 0.22793,-0.30386 0.52348,-0.30386 0.48134,0 0.69247,0.21919 0.69247,0.72606 v 0.60823 c -0.988,0.29567 -1.39306,0.45646 -1.69705,0.66766 -0.36312,0.25343 -0.53227,0.53196 -0.53227,0.88676 0,0.50687 0.37991,0.87902 0.92036,0.87902 0.47288,0 0.85296,-0.16897 1.30896,-0.58291 0.0844,0.42239 0.27008,0.58291 0.67541,0.58291 0.36311,0 0.6167,-0.127 0.92914,-0.47336 l -0.12661,-0.17725 -0.0847,0.0842 c -0.0253,0.0253 -0.042,0.0341 -0.0842,0.0341 -0.11822,0 -0.17725,-0.0679 -0.17725,-0.20309 v -2.16265 c 0,-0.70117 -0.62481,-1.13172 -1.63814,-1.13172 z m 8.9085,0 c -1.02178,0 -1.72238,0.81923 -1.72238,2.02727 0,1.20804 0.67562,2.00194 1.70584,2.00194 0.66711,0 1.07238,-0.2615 1.61283,-1.03869 l -0.20258,-0.11007 c -0.32933,0.39705 -0.58274,0.54932 -0.93741,0.54932 -0.32088,0 -0.56595,-0.14358 -0.73484,-0.43925 -0.16044,-0.26188 -0.21943,-0.54091 -0.25321,-1.10691 h 2.08566 c -0.0507,-0.69272 -0.17747,-1.08148 -0.43925,-1.4025 -0.27022,-0.31257 -0.65022,-0.48111 -1.11466,-0.48111 z m 3.30936,0 c -0.72544,0.0155 -1.25729,0.51747 -1.25729,1.20768 0,0.54911 0.34653,0.92935 1.17409,1.28416 0.57422,0.24498 0.80202,0.45642 0.80202,0.7183 0,0.32947 -0.25321,0.54054 -0.62477,0.54054 -0.57422,0 -0.96265,-0.37161 -1.13998,-1.09813 h -0.2279 v 1.36839 h 0.21084 c 0.0844,-0.18585 0.13536,-0.23667 0.21136,-0.23667 0.0507,0 0.10952,0.0168 0.18552,0.0506 0.25333,0.10137 0.66738,0.1943 0.90382,0.1943 0.75156,0 1.27486,-0.51492 1.27486,-1.25832 0,-0.59135 -0.32087,-0.94606 -1.13998,-1.29242 -0.57423,-0.23654 -0.80202,-0.4478 -0.80202,-0.72657 0,-0.27878 0.22791,-0.48163 0.5488,-0.48163 0.21956,0 0.43917,0.093 0.6165,0.262 0.17733,0.16896 0.26987,0.32094 0.38809,0.6842 h 0.21136 v -1.19993 h -0.18604 c -0.0422,0.11827 -0.0928,0.16071 -0.20257,0.16071 -0.0507,0 -0.12637,-0.0167 -0.26148,-0.0589 -0.26178,-0.0845 -0.44794,-0.11834 -0.65061,-0.11834 -0.0116,0 -0.0231,-2.4e-4 -0.0346,0 z m -18.73736,0.25322 c 0.38845,0 0.54932,0.31266 0.54932,1.08985 0,0.76875 -0.15243,1.06454 -0.54932,1.06454 -0.39689,0 -0.5488,-0.29561 -0.5488,-1.0728 0,-0.7772 0.15191,-1.08159 0.5488,-1.08159 z m 15.43679,0 c 0.23644,0 0.38823,0.12672 0.45578,0.38861 0.0338,0.1605 0.0593,0.37996 0.0677,0.8108 v 0.12712 h -1.1064 c 0.0253,-0.99684 0.16914,-1.32653 0.58292,-1.32653 z m -4.49275,0.21135 c 0.27866,0 0.54082,0.20283 0.6506,0.50695 v 2.01021 c 0,0.0507 -0.0849,0.19456 -0.17776,0.30438 -0.16889,0.18586 -0.33753,0.27853 -0.53176,0.27853 -0.43911,0 -0.64182,-0.48966 -0.64182,-1.54564 0,-1.06442 0.2194,-1.55443 0.70074,-1.55443 z m -25.232055,0.60824 h 0.244946 c 0.85289,0 1.26659,0.44742 1.26659,1.35134 0,0.81099 -0.337479,1.22524 -1.00459,1.22524 -0.371555,0 -0.506946,-0.13525 -0.506946,-0.50694 z m 5.860624,0.8108 v 1.19992 c -0.227998,0.26189 -0.388511,0.3545 -0.591178,0.3545 -0.253334,0 -0.422197,-0.22812 -0.422197,-0.55758 0,-0.47308 0.346265,-0.81944 1.013375,-0.99684 z m 15.445051,0 v 1.19992 c -0.228,0.26189 -0.38851,0.3545 -0.59118,0.3545 -0.25333,0 -0.42219,-0.22812 -0.42219,-0.55758 0,-0.47308 0.34626,-0.81944 1.01337,-0.99684 z m -7.75198,2.45825 h 1.42679 c 0.44755,0 0.66714,0.13515 0.66714,0.41392 0,0.3886 -0.45575,0.59997 -1.27486,0.59997 -0.73467,0 -1.11466,-0.19434 -1.11466,-0.55759 0,-0.16895 0.0591,-0.27046 0.29559,-0.4563 z" /><path
         id="path1589"
         style="font-weight:500;font-stretch:condensed;font-size:6.87804px;line-height:1.25;font-family:'Times New Roman MT Condensed';-inkscape-font-specification:'Times New Roman MT Condensed,  Medium Condensed';fill:#025b04;fill-opacity:0.956863;stroke-width:0.17195"
         d="m 132.73505,92.462056 c -0.70615,0 -1.22887,0.542682 -1.22887,1.313098 v 0.375171 h -0.39532 v 0.207739 h 0.39532 v 2.257744 c 0,0.395256 -0.14817,0.509013 -0.39532,0.509013 v 0.114205 h 1.45469 v -0.114205 c -0.34601,0.02009 -0.49454,-0.160483 -0.49454,-0.448552 v -2.318205 h 0.49454 v -0.207739 h -0.49454 v -0.810286 c 0,-0.388559 0.10615,-0.643372 0.40979,-0.643372 0.4237,0 0.39536,0.535885 0.71314,0.535885 0.16947,0 0.30334,-0.127055 0.30334,-0.287838 0,-0.26797 -0.33854,-0.482658 -0.76223,-0.482658 z m -19.89284,0.107487 -1.23559,3.925859 c -0.15535,0.502445 -0.28237,0.629419 -0.62838,0.629419 v 0.114205 h 1.30638 v -0.114205 c -0.35308,0.0067 -0.46612,-0.08678 -0.46612,-0.260966 0,-0.0469 0.014,-0.113931 0.0351,-0.201022 l 0.27543,-0.8847 h 1.21492 l 0.2682,0.783931 c 0.0565,0.174181 0.0708,0.228098 0.0708,0.301791 0,0.187578 -0.1132,0.260966 -0.40979,0.260966 v 0.114205 h 1.64538 v -0.114205 c -0.33895,0 -0.43084,-0.01978 -0.63562,-0.629419 l -1.32757,-3.925859 z M 90.111295,92.669795 V 92.784 c 0.473125,0 0.593246,0.08671 0.593246,0.602548 v 3.129008 c 0,0.495746 -0.105998,0.615964 -0.593246,0.609265 v 0.114205 h 1.850017 v -0.114205 c -0.444879,0 -0.593246,-0.05322 -0.593246,-0.609265 v -3.129008 c 0,-0.515845 0.120121,-0.609247 0.593246,-0.602548 v -0.114205 z m 6.235279,0.502812 c -0.162416,0.509145 -0.416739,0.82386 -0.847494,1.058333 v 0.127124 h 0.40256 v 2.210718 c 0,0.542642 0.261522,0.763778 0.579292,0.763778 0.331893,0 0.628575,-0.254278 0.762744,-0.636137 h -0.134358 c -0.07768,0.160783 -0.190705,0.240812 -0.338998,0.240812 -0.240091,0 -0.303857,-0.201013 -0.303857,-0.569474 v -2.009697 h 0.60048 v -0.207739 h -0.60048 v -0.977718 z m 12.710856,0 c -0.16242,0.509145 -0.41675,0.82386 -0.8475,1.058333 v 0.127124 h 0.40256 v 2.210718 c 0,0.542642 0.26152,0.763778 0.57929,0.763778 0.33189,0 0.62805,-0.254278 0.76223,-0.636137 h -0.13384 c -0.0776,0.160783 -0.19071,0.240812 -0.339,0.240812 -0.2401,0 -0.30386,-0.201013 -0.30386,-0.569474 v -2.009697 h 0.60049 v -0.207739 h -0.60049 v -0.977718 z m 3.6437,0.72347 h 0.0145 l 0.54364,1.627808 h -1.05214 z m -19.659264,0.187586 -0.826306,0.381888 0.02842,0.100253 c 0.07062,-0.02009 0.105598,-0.02687 0.155029,-0.02687 0.13417,0 0.190686,0.08047 0.190686,0.214457 v 1.862419 c 0,0.328264 -0.105799,0.502314 -0.374137,0.509013 v 0.114205 h 1.348754 v -0.114205 c -0.268338,0 -0.409277,-0.120455 -0.409277,-0.509013 v -1.728577 c 0.204785,-0.28137 0.409477,-0.40876 0.628386,-0.40876 0.268338,0 0.402559,0.161111 0.402559,0.489375 v 1.647962 c 0,0.355061 -0.134394,0.509013 -0.409794,0.509013 v 0.114205 h 1.313615 v -0.114205 c -0.204786,0 -0.338998,-0.160926 -0.338998,-0.422197 v -1.734778 c 0,-0.582836 -0.247069,-0.884183 -0.691947,-0.884183 -0.317771,0 -0.586222,0.18053 -0.889868,0.615983 h -0.01447 l 5.17e-4,-0.615983 z m 5.571753,0 c -0.826203,0 -1.073837,0.984347 -1.073837,1.69447 0,0.917801 0.423824,1.554427 1.03818,1.554427 0.515493,0 0.932429,-0.46234 1.045414,-1.145667 l -0.113171,-0.04651 c -0.176539,0.46225 -0.402597,0.676444 -0.699182,0.676444 -0.423693,0 -0.69178,-0.475576 -0.727088,-1.27279 h 1.539441 c -0.0071,-0.9245 -0.381278,-1.460376 -1.009757,-1.460376 z m 2.195731,0 -0.861446,0.375171 0.02842,0.113688 c 0.06356,-0.02009 0.0987,-0.02687 0.141076,-0.02687 0.16947,0 0.24702,0.120891 0.24702,0.295072 v 1.775086 c 0,0.348362 -0.11994,0.515712 -0.437705,0.509013 v 0.114205 h 1.539445 v -0.114205 c -0.40957,0 -0.5364,-0.107057 -0.5364,-0.509013 v -1.65468 c 0.16947,-0.301467 0.28923,-0.415478 0.43046,-0.415478 0.14829,0 0.20502,0.214457 0.4098,0.214457 0.17653,0 0.32452,-0.140528 0.32452,-0.314709 0,-0.207677 -0.17624,-0.361735 -0.40927,-0.361735 -0.29658,0 -0.52971,0.214101 -0.74156,0.642854 h -0.0139 v -0.642854 z m 2.51406,0 -0.82631,0.381888 0.0284,0.100253 c 0.0706,-0.02009 0.10559,-0.02687 0.15503,-0.02687 0.13416,0 0.19069,0.08047 0.19069,0.214457 v 1.862419 c 0,0.328264 -0.1058,0.502314 -0.37414,0.509013 v 0.114205 h 1.34876 v -0.114205 c -0.26834,0 -0.40928,-0.120455 -0.40928,-0.509013 v -1.728577 c 0.20479,-0.28137 0.40948,-0.40876 0.62839,-0.40876 0.26834,0 0.40255,0.161111 0.40255,0.489375 v 1.647962 c 0,0.355061 -0.13438,0.509013 -0.40979,0.509013 v 0.114205 h 1.31362 v -0.114205 c -0.20478,0 -0.339,-0.160926 -0.339,-0.422197 v -1.734778 c 0,-0.582836 -0.24707,-0.884183 -0.69195,-0.884183 -0.31777,0 -0.58622,0.18053 -0.88987,0.615983 h -0.0145 l 5.2e-4,-0.615983 z m 3.43907,0 c -0.8262,0 -1.07332,0.984347 -1.07332,1.69447 0,0.917801 0.42382,1.554427 1.03818,1.554427 0.51548,0 0.9319,-0.46234 1.04489,-1.145667 l -0.11317,-0.04651 c -0.17654,0.46225 -0.40207,0.676444 -0.69866,0.676444 -0.42369,0 -0.6923,-0.475576 -0.72761,-1.27279 h 1.53944 c -0.007,-0.9245 -0.38127,-1.460376 -1.00975,-1.460376 z m 9.63197,0 c -0.69203,0 -1.15807,0.669922 -1.15807,1.668115 0,0.944598 0.43795,1.580782 1.10174,1.580782 0.50844,0 0.88971,-0.475483 0.98857,-1.239201 l -0.12041,-0.02687 c -0.0989,0.468951 -0.3318,0.730188 -0.64957,0.730188 -0.47312,0 -0.75551,-0.535763 -0.75551,-1.420068 0,-0.696724 0.17643,-1.072286 0.52245,-1.072286 0.15535,0 0.27543,0.100625 0.27543,0.234611 0,0.07369 -0.0351,0.154126 -0.0351,0.201021 0,0.194279 0.15506,0.334864 0.36691,0.334864 0.19066,0 0.32504,-0.120374 0.32504,-0.294556 0,-0.36846 -0.4095,-0.696598 -0.86144,-0.696598 z m 2.4293,0 c -0.69202,0 -1.15806,0.669922 -1.15806,1.668115 0,0.944598 0.43743,1.580782 1.10122,1.580782 0.50843,0 0.88971,-0.475483 0.98857,-1.239201 l -0.11989,-0.02687 c -0.0989,0.468951 -0.3318,0.730188 -0.64957,0.730188 -0.47312,0 -0.75551,-0.535763 -0.75551,-1.420068 0,-0.696724 0.17643,-1.072286 0.52245,-1.072286 0.15535,0 0.27543,0.100625 0.27543,0.234611 0,0.07369 -0.0351,0.154126 -0.0351,0.201021 0,0.194279 0.15507,0.334864 0.36691,0.334864 0.19067,0 0.32504,-0.120374 0.32504,-0.294556 0,-0.36846 -0.40951,-0.696598 -0.86145,-0.696598 z m 2.33009,0 c -0.8262,0 -1.07331,0.984347 -1.07331,1.69447 0,0.917801 0.42382,1.554427 1.03817,1.554427 0.5155,0 0.93191,-0.46234 1.0449,-1.145667 l -0.11265,-0.04651 c -0.17653,0.46225 -0.40261,0.676444 -0.69918,0.676444 -0.42371,0 -0.6923,-0.475576 -0.72761,-1.27279 h 1.53944 c -0.007,-0.9245 -0.38128,-1.460376 -1.00976,-1.460376 z m 2.07688,0 c -0.42681,0.01046 -0.72089,0.349034 -0.72089,0.83044 0,0.254573 0.0774,0.468841 0.32453,0.703316 0.10592,0.10049 0.54383,0.462286 0.65681,0.569474 0.19772,0.18758 0.25425,0.335293 0.25425,0.489376 0,0.254573 -0.18331,0.45527 -0.40928,0.45527 -0.36721,0 -0.6427,-0.368452 -0.69918,-0.924492 h -0.12041 v 1.031979 h 0.12713 c 0,-0.02679 0.0496,-0.06718 0.092,-0.06718 0.0847,0 0.33887,0.160714 0.62839,0.160714 0.48725,0 0.86144,-0.381719 0.86144,-0.877466 0,-0.261272 -0.0423,-0.415434 -0.41651,-0.770496 -0.23302,-0.221076 -0.63546,-0.556187 -0.69195,-0.609781 -0.1483,-0.140685 -0.21911,-0.301112 -0.21911,-0.428398 0,-0.19428 0.16988,-0.361735 0.37466,-0.361735 0.30366,0 0.55037,0.301179 0.65629,0.823722 h 0.12712 v -0.958081 h -0.12712 c -0.0282,0.0469 -0.0562,0.06718 -0.11266,0.06718 -0.0918,0 -0.29648,-0.133842 -0.56482,-0.133842 -0.007,0 -0.0139,-1.66e-4 -0.0207,0 z m 2.06189,0 c -0.4268,0.01046 -0.72089,0.349034 -0.72089,0.83044 0,0.254573 0.0774,0.468841 0.32453,0.703316 0.10593,0.10049 0.54383,0.462286 0.65681,0.569474 0.19772,0.18758 0.25425,0.335293 0.25425,0.489376 0,0.254573 -0.1833,0.45527 -0.40928,0.45527 -0.3672,0 -0.64269,-0.368452 -0.69918,-0.924492 h -0.11989 v 1.031979 h 0.12712 c 0,-0.02679 0.0492,-0.06718 0.0915,-0.06718 0.0847,0 0.33886,0.160714 0.62839,0.160714 0.48724,0 0.86144,-0.381719 0.86144,-0.877466 0,-0.261272 -0.0423,-0.415434 -0.41651,-0.770496 -0.23304,-0.221076 -0.63546,-0.556187 -0.69195,-0.609781 -0.1483,-0.140685 -0.21911,-0.301112 -0.21911,-0.428398 0,-0.19428 0.16987,-0.361735 0.37466,-0.361735 0.30364,0 0.55088,0.301179 0.65681,0.823722 h 0.12712 v -0.958081 h -0.12712 c -0.0282,0.0469 -0.0567,0.06718 -0.11318,0.06718 -0.0918,0 -0.29647,-0.133842 -0.56482,-0.133842 -0.007,0 -0.0139,-1.66e-4 -0.0207,0 z m 4.10931,0 c -0.79795,0 -1.36994,0.66981 -1.36994,1.627807 0,0.964696 0.54374,1.62109 1.32757,1.62109 0.79795,0 1.3627,-0.683265 1.3627,-1.647962 0,-0.944598 -0.54356,-1.600935 -1.32033,-1.600935 z m -30.837911,0.220658 c 0.303646,0 0.451825,0.315156 0.458887,1.031978 h -0.938961 c 0.01413,-0.716822 0.169366,-1.031978 0.480074,-1.031978 z m 8.148861,0 c 0.30364,0 0.45181,0.315156 0.45888,1.031978 h -0.93896 c 0.0142,-0.716822 0.16936,-1.031978 0.48008,-1.031978 z m 14.39137,0 c 0.30365,0 0.45234,0.315156 0.4594,1.031978 h -0.93948 c 0.0142,-0.716822 0.16938,-1.031978 0.48008,-1.031978 z m 8.23412,0 c 0.48725,0 0.72709,0.522812 0.72709,1.581299 0,0.710123 -0.14821,1.225765 -0.64958,1.225765 -0.53669,0 -0.72708,-0.696515 -0.72708,-1.594218 0,-0.710124 0.1482,-1.212846 0.64957,-1.212846 z" /></g></g><metadata
     id="metadata4832"><rdf:RDF><cc:Work
         rdf:about=""><dc:title>.bd - .বিডি</dc:title></cc:Work></rdf:RDF></metadata></svg>
