<?xml version="1.0" encoding="UTF-8"?>
<svg id="svg856" class="font" width="220" height="146.69901" data-v-fde0c5aa="" version="1.1" viewBox="0 0 220 146.69901" xmlns="http://www.w3.org/2000/svg" xmlns:cc="http://creativecommons.org/ns#" xmlns:dc="http://purl.org/dc/elements/1.1/" xmlns:rdf="http://www.w3.org/1999/02/22-rdf-syntax-ns#" xmlns:xlink="http://www.w3.org/1999/xlink">
 <title id="title1026">bt</title>
 <!---->
 <defs id="defs842" data-v-fde0c5aa="">
  <!---->
  <linearGradient id="linearGradient1020" x1=".26076332" x2="13.223259" y1=".9796879" y2=".9796879" gradientTransform="scale(1.2246099 .81658659)" gradientUnits="userSpaceOnUse" xlink:href="#7651e433-09f4-4308-b373-d2562246d582"/>
 </defs>
 <defs id="defs851" data-v-fde0c5aa="">
  <linearGradient id="7651e433-09f4-4308-b373-d2562246d582" data-v-fde0c5aa="" gradientTransform="rotate(25)">
   <stop id="stop846" stop-color="#913C00" data-v-fde0c5aa="" offset="0"/>
   <stop id="stop848" stop-color="#D9AD76" data-v-fde0c5aa="" offset="1"/>
  </linearGradient>
 </defs>
 <g id="bd723836-54e6-4fd3-bb6a-33a007d97dc7" transform="matrix(13.859141,0,0,13.859141,-4.4256854,-11.087312)" fill="url(#linearGradient1020)" data-v-fde0c5aa="">
  <path id="path853" d="m0.91 10.86q-0.32-0.16-0.46-0.44t-0.13-0.6q0-0.31 0.15-0.62t0.4-0.53q0.17-0.23 0.4-0.41 0.24-0.18 0.51-0.28 0.26-0.1 0.54-0.08 0.27 0.01 0.51 0.18 0.52 0.36 0.66 0.76 0.15 0.4 0.04 0.76-0.11 0.35-0.42 0.66t-0.7 0.5-0.79 0.23-0.71-0.13zm3.63-7q-0.03-0.36-0.06-0.78t-0.1-0.8q-0.03 0-0.06-0.02-0.04-0.02-0.02-0.02-0.03-0.03-0.03-0.13 0.04-0.18 0.15-0.3 0.1-0.13 0.21-0.27 0.12-0.11 0.27-0.25 0.15-0.13 0.34-0.1 0.08-0.1 0.19-0.19 0.1-0.09 0.19-0.15 0.09-0.05 0.16-0.05t0.09 0.1v0.14q0.07-0.03 0.09-0.03 0.05 0 0.07 0.08-0.02 0.72-0.14 1.39-0.11 0.68-0.22 1.37 0 0.07 0.01 0.13 0 0.07 0 0.14 0.02 0.4 0.03 0.8 0.02 0.4 0.04 0.81 0.49-0.37 1.03-0.64 0.53-0.27 1.19-0.27 0.26 0.01 0.49 0.18t0.43 0.32q0.34 0.29 0.53 0.64 0.2 0.35 0.25 0.73t-0.07 0.77q-0.12 0.38-0.43 0.74-0.39 0.45-0.78 0.84-0.38 0.4-0.9 0.7-0.04 0.03-0.09 0.06t-0.09 0.06q-0.28 0.23-0.56 0.42-0.28 0.18-0.52 0.32-0.2 0.11-0.42 0.16t-0.43 0.1q-0.19 0.05-0.37 0-0.18-0.04-0.36-0.07l-0.13-0.26h-0.04q-0.1 0-0.13-0.04-0.19-0.47-0.23-1.26-0.03-0.8 0.02-1.68 0.06-0.87 0.16-1.68 0.1-0.82 0.15-1.31 0.03-0.16 0.04-0.34 0.02-0.17 0.05-0.36zm1.55 5.53q0 0.05 0.01 0.09 0 0.04 0 0.08 0.41-0.15 0.82-0.29 0.4-0.14 0.79-0.34 0.03-0.01 0.07-0.03 0.03-0.01 0.06-0.02 0.06-0.07 0.11-0.15 0.04-0.08 0.09-0.15 0.08-0.14 0.14-0.28 0-0.21-0.02-0.42-0.03-0.22-0.1-0.42-0.19-0.61-0.7-0.78-0.5-0.17-1.07-0.02-0.13 0.03-0.24 0.07-0.1 0.05-0.21 0.09 0.04 0.53 0.09 1.06 0.05 0.52 0.1 1.05 0.03 0.09 0.12 0.17 0.08 0.08 0 0.2-0.03 0.05-0.06 0.09zm8.02-5.25q0 0.09 0.01 0.16 0.01 0.08 0.01 0.17 0.02 0.16 0.04 0.34 0.01 0.17 0.04 0.34 0.24-0.03 0.47-0.04t0.47 0q0.11-0.01 0.19-0.01 0.1 0 0.21-0.02l-0.04 0.04q0.13 0.02 0.25 0.02 0.13 0.01 0.26 0.04h0.08l-0.03 0.03h0.03q0.14 0.04 0.07 0.17-0.07 0.14-0.22 0.29-0.16 0.15-0.33 0.29-0.16 0.13-0.23 0.16-0.02 0-0.03 0.01-0.02 0-0.03 0h-0.07q-0.14 0.02-0.27 0.02-0.12 0.01-0.25 0.01-0.11 0.01-0.21 0.02t-0.19 0.02q0.04 0.44 0.07 0.86 0.02 0.43 0.01 0.85-0.01 0.34-0.02 0.77t-0.01 0.84q0.03 0.22 0.04 0.44 0.02 0.22 0.02 0.43-0.02 0.08-0.13 0.24t-0.25 0.31-0.29 0.24q-0.14 0.09-0.24 0.02 0 0-0.02 0.01v-0.02q-0.01-0.07-0.02-0.12 0-0.05-0.02-0.11-0.08 0.1-0.17 0.19t-0.18 0.15q-0.1 0.05-0.17 0.08-0.08 0.02-0.14-0.04-0.16-0.45-0.17-0.93t-0.02-0.96q-0.04-0.76-0.07-1.49-0.02-0.74 0-1.49-0.11 0.03-0.2 0.04-0.1 0.01-0.21 0.03h-0.01l-0.25 0.29q-0.28 0-0.58 0.03-0.29 0.03-0.56-0.04-0.07-0.06-0.03-0.2-0.01 0-0.01 0 0-0.01 0.01-0.01-0.04-0.03-0.04-0.06-0.03 0-0.04 0.02-0.01 0.01-0.04 0.01-0.1 0.01-0.12-0.01t-0.01-0.12q0.11-0.44 0.41-0.62 0.29-0.17 0.66-0.24 0.25-0.09 0.51-0.16t0.52-0.12q0-0.19 0-0.35 0-0.19 0.03-0.35 0.01-0.12 0.14-0.31 0.13-0.18 0.29-0.34 0.07-0.26 0.33-0.48t0.5-0.29q0.1 0.02 0.15 0.11t0.07 0.22 0.02 0.27 0 0.27q0.01 0.03 0.01 0.08z" fill="url(#linearGradient1020)"/>
 </g>
 <!---->
 <!---->
 <metadata id="metadata1024">
  <rdf:RDF>
   <cc:Work rdf:about="">
    <dc:title>bt</dc:title>
   </cc:Work>
  </rdf:RDF>
 </metadata>
</svg>
