<svg xmlns="http://www.w3.org/2000/svg" viewBox="0 0 1860.66 788.45"><path d="M836.84 1.84C849.21.39 861.68.55 874.12.17c12.17.41 24.4.23 36.52 1.66a516.59 516.59 0 0 1 66.62 10c44.46 10.85 88.9 25.83 126.43 52.72 18.79 13.16 36.4 28.11 51.58 45.36q-61.27 61.27-122.48 122.5c-6.89-9-14.23-17.86-23.17-25A160.74 160.74 0 0 0 978.36 186a245 245 0 0 0-61.84-19.51c-25.29-3.65-51.23-4-76.39.79-20.73 3.66-40.69 10.93-59.47 20.37-32.41 17-59.71 43.13-79.06 74.08-10.71 16.5-18.34 34.78-24.37 53.44-6.2 19.42-9.19 39.71-10.9 60q-.45 18 0 35.95c1.4 18.19 4 36.34 8.72 54 7.53 26.58 18.72 52.44 35.37 74.63 4.5 6.49 9.81 12.34 14.78 18.45 13.95 14.26 29.41 27.26 46.91 37 33.4 19.51 72.47 28.15 111 27.22 47.49.19 95.55-17 130.13-50a180.56 180.56 0 0 0 23.57-26l84.43 79.65 41.41 38.81c-7 7-13.51 14.43-20.65 21.26-6.56 5.76-12.59 12.11-19.48 17.48-8.08 6.31-15.81 13.11-24.49 18.62-17.55 12.52-36.65 22.66-56.11 31.87-38.45 17.42-79.88 28-121.83 32.25-13 1.3-26 2.38-39 2.12-26.48.11-53.05-.65-79.21-5-12.28-1.51-24.31-4.38-36.41-6.81-33.72-8.3-66.63-20.15-97.43-36.23a396.08 396.08 0 0 1-59.22-39c-6.7-4.86-12.6-10.67-18.75-16.17-8.42-7.26-15.84-15.55-23.66-23.43-11.54-13.27-22.25-27.25-32.43-41.59l-13.8-22.19c-5.06-9.66-10.76-19-14.91-29.1-10.28-22-17.6-45.22-23.67-68.69-2.57-12.27-5.66-24.45-7.12-36.92-5.44-32.44-5.07-65.45-4-98.21 1.14-11.65 1.68-23.37 3.66-34.92 6-43.19 19.47-85.22 38.67-124.33 5.29-9.31 10-19 16-27.87A358.85 358.85 0 0 1 570.87 123c7.51-7.5 14.67-15.39 22.93-22.09A373.22 373.22 0 0 1 648.9 60C667 49.6 685.43 39.63 705 32.17c12.66-5.4 25.9-9.25 39-13.38a461.3 461.3 0 0 1 92.84-16.95zM1513 3.29c50.36-5.75 101.76-4.22 151.35 6.65 21.45 4.3 42.41 10.75 63.15 17.68 20.66 7.61 41 16.5 59.57 28.42a309.51 309.51 0 0 1 45.51 34.5c6.88 6 12.72 13 19.28 19.33Q1790.36 171 1729 232.35c-5.44-6.9-10.9-13.79-17.2-19.93-13.6-12.69-29.24-23.37-46.48-30.47-20.17-8.43-41.44-14.52-63.21-16.81-45.1-5.13-92.32 3.06-131.46 26.57-32.06 18.17-57.43 46.49-76 78a241.51 241.51 0 0 0-24.33 63.67c-5.46 24.15-6.76 49-6.1 73.72 1.85 43.11 13.9 86.15 37.21 122.66 10.8 16.14 23.15 31.39 38.16 43.81 31.55 27.24 71.87 43.85 113.31 47.66 25.19 2.14 50.89 1.63 75.51-4.59 42.33-9.78 80.7-35.36 106.38-70.38l84.94 80.16 40.91 38.34c-6.85 6.82-13.23 14.1-20.19 20.79-7.4 6.62-14.34 13.78-22.29 19.76-29.75 24.89-64.16 43.82-100.16 57.89a411.09 411.09 0 0 1-153.84 25.09c-69.31-.08-138.66-16.74-200.07-49a516.71 516.71 0 0 1-45.44-28.84c-8.14-6.46-16.72-12.38-24.24-19.58a363.5 363.5 0 0 1-55.86-61.18c-6.31-7.91-11.35-16.7-16.79-25.2-4.62-7.23-8.36-15-12.6-22.4-4.53-8.37-8.06-17.22-12.13-25.82-8.59-22-16.53-44.42-21.33-67.61-5.3-22.51-8-45.54-9.6-68.58-.28-14-.68-28-.19-42-.13-13 1.57-26 2.69-38.95l4.52-29.09c2.9-12 5.07-24.23 8.94-36a408.27 408.27 0 0 1 23-61c8-16.8 17.57-32.76 27.72-48.32 10.32-14.19 21-28.13 32.94-41 8-7.94 15.74-16.28 24.45-23.52 29.2-26.57 63.25-47.39 99.07-63.78A480 480 0 0 1 1513 3.29z" fill="#676767"/><path d="M156.45 429.83a164.29 164.29 0 0 1 76.16 15c40.55 18.3 72.55 54.1 86.86 96.16 6 17.38 8.6 35.83 8.91 54.18-.57 10-1.18 20.09-3 30-4.69 22.66-13.66 44.56-27.12 63.44a167 167 0 0 1-88.18 63.22c-18.23 4.73-37.18 7.72-56 6-11.91-.34-23.61-3-35.17-5.77-19.06-5.73-37.45-14.26-53.21-26.53a164.34 164.34 0 0 1-51.9-64.89C6.66 645.4 2.89 628.85.66 612.25c-.75-6.67-.25-13.39-.65-20.07-.23-26.43 6.91-52.64 19.12-76 8.6-14.85 18.74-28.92 31.14-40.82 12.66-11.76 26.85-22 42.55-29.36 19.67-10 41.71-14.7 63.63-16.17z" fill="#f2821e"/></svg>