<?xml version="1.0" encoding="UTF-8" standalone="no"?>
<!-- Created with Inkscape (http://www.inkscape.org/) -->

<svg
   xmlns:dc="http://purl.org/dc/elements/1.1/"
   xmlns:cc="http://creativecommons.org/ns#"
   xmlns:rdf="http://www.w3.org/1999/02/22-rdf-syntax-ns#"
   xmlns:svg="http://www.w3.org/2000/svg"
   xmlns="http://www.w3.org/2000/svg"
   xmlns:sodipodi="http://sodipodi.sourceforge.net/DTD/sodipodi-0.dtd"
   xmlns:inkscape="http://www.inkscape.org/namespaces/inkscape"
   width="190.33546"
   height="98.999199"
   viewBox="0 0 50.359592 26.193538"
   version="1.1"
   id="svg1491"
   inkscape:version="0.92.0 r15299"
   sodipodi:docname="dotCR.svg">
  <defs
     id="defs1485">
    <clipPath
       id="clipPath1078"
       clipPathUnits="userSpaceOnUse">
      <path
         inkscape:connector-curvature="0"
         id="path1076"
         d="M 0,0 H 595.276 V 396.85 H 0 Z" />
    </clipPath>
  </defs>
  <sodipodi:namedview
     id="base"
     pagecolor="#ffffff"
     bordercolor="#666666"
     borderopacity="1.0"
     inkscape:pageopacity="0.0"
     inkscape:pageshadow="2"
     inkscape:zoom="4.2358679"
     inkscape:cx="94.667731"
     inkscape:cy="48.999599"
     inkscape:document-units="mm"
     inkscape:current-layer="layer1"
     showgrid="false"
     fit-margin-top="0"
     fit-margin-left="0"
     fit-margin-right="0"
     fit-margin-bottom="0"
     units="px"
     inkscape:window-width="1280"
     inkscape:window-height="744"
     inkscape:window-x="-4"
     inkscape:window-y="-4"
     inkscape:window-maximized="1" />
  <metadata
     id="metadata1488">
    <rdf:RDF>
      <cc:Work
         rdf:about="">
        <dc:format>image/svg+xml</dc:format>
        <dc:type
           rdf:resource="http://purl.org/dc/dcmitype/StillImage" />
        <dc:title></dc:title>
      </cc:Work>
    </rdf:RDF>
  </metadata>
  <g
     inkscape:label="Layer 1"
     inkscape:groupmode="layer"
     id="layer1"
     transform="translate(-88.345353,-165.84237)">
    <g
       id="g1072"
       transform="matrix(0.35277777,0,0,-0.35277777,-54.617697,248.939)">
      <g
         id="g1074"
         clip-path="url(#clipPath1078)">
        <g
           id="g1080"
           transform="translate(411.8656,197.7325)">
          <path
             d="m 0,0 c 2.597,-4.73 4.603,-7.094 6.026,-7.094 1.458,0 3.379,1.848 5.762,5.548 2.097,3.272 3.777,6.994 5.039,11.174 1.262,4.177 1.894,8.079 1.894,11.707 0,5.475 -1.476,9.708 -4.427,12.694 -2.207,2.275 -4.889,3.413 -8.053,3.413 -4.267,0 -7.523,-1.706 -9.762,-5.119 -1.813,-2.739 -2.72,-6.134 -2.72,-10.187 0,-3.308 0.562,-6.954 1.68,-10.935 C -3.44,7.218 -1.92,3.485 0,0"
             style="fill:#000000;fill-opacity:1;fill-rule:nonzero;stroke:none"
             id="path1082"
             inkscape:connector-curvature="0" />
        </g>
        <g
           id="g1084"
           transform="translate(418.3735,184.7721)">
          <path
             d="m 0,0 c -3.451,0 -6.348,-1.227 -8.693,-3.681 -2.1,-2.134 -3.149,-4.748 -3.149,-7.841 0,-3.342 1.19,-6.152 3.573,-8.427 2.205,-2.097 4.855,-3.148 7.948,-3.148 3.165,0 5.885,1.148 8.161,3.442 2.276,2.293 3.413,5.021 3.413,8.187 0,3.057 -1.102,5.724 -3.306,8 C 5.74,-1.157 3.092,0 0,0"
             style="fill:#ed1c24;fill-opacity:1;fill-rule:nonzero;stroke:none"
             id="path1086"
             inkscape:connector-curvature="0" />
        </g>
        <g
           id="g1088"
           transform="translate(464.8993,216.2414)">
          <path
             d="m 0,0 c 6.328,0 11.912,-1.584 16.748,-4.749 4.588,-3.022 6.88,-6.772 6.88,-11.253 0,-3.093 -1.064,-5.6 -3.2,-7.52 -1.991,-1.813 -4.392,-2.721 -7.2,-2.721 -2.954,0 -5.173,1.067 -6.666,3.2 -0.463,0.675 -1.14,2.401 -2.028,5.174 -0.96,2.987 -2.793,4.481 -5.494,4.481 -1.955,0 -3.601,-0.853 -4.933,-2.56 -1.335,-1.708 -2.001,-3.806 -2.001,-6.294 0,-4.268 1.531,-8.053 4.588,-11.362 2.488,-2.667 5.618,-4 9.386,-4 1.779,0 3.272,0.151 4.481,0.453 1.209,0.303 2.79,0.915 4.748,1.841 0.497,0.248 1.049,0.373 1.653,0.373 1.209,0 2.273,-0.568 3.198,-1.706 0.926,-1.139 1.389,-2.473 1.389,-4.001 0,-1.599 -0.658,-3.28 -1.974,-5.04 -1.316,-1.761 -3.042,-3.299 -5.174,-4.613 -4.624,-2.845 -10.081,-4.269 -16.372,-4.269 -7.33,0 -13.567,2.134 -18.724,6.401 -6.613,5.405 -9.919,12.286 -9.919,20.643 0,8.035 3.074,14.685 9.226,19.948 C -15.522,-2.525 -8.391,0 0,0"
             style="fill:#000000;fill-opacity:1;fill-rule:nonzero;stroke:none"
             id="path1090"
             inkscape:connector-curvature="0" />
        </g>
        <g
           id="g1092"
           transform="translate(516.9052,215.92)">
          <path
             d="m 0,0 c 1.884,0 3.03,-0.266 3.44,-0.8 0.409,-0.533 0.773,-2.24 1.094,-5.119 0.176,-1.567 0.728,-2.348 1.653,-2.348 0.711,0 1.385,0.515 2.027,1.548 2.844,4.444 6.559,6.667 11.146,6.667 3.235,0 5.885,-1.05 7.948,-3.147 0.995,-1.033 1.814,-2.357 2.455,-3.973 0.636,-1.62 0.958,-3.175 0.958,-4.668 0,-1.672 -0.391,-3.387 -1.172,-5.147 -0.783,-1.759 -1.797,-3.21 -3.041,-4.347 -2.277,-2.17 -5.069,-3.253 -8.375,-3.253 -1.814,0 -3.333,0.319 -4.558,0.959 -1.228,0.639 -2.836,1.938 -4.828,3.894 -0.747,0.746 -1.441,1.119 -2.079,1.119 -0.998,0 -1.647,-0.559 -1.947,-1.679 -0.305,-1.12 -0.454,-3.476 -0.454,-7.068 0,-5.37 0.195,-9.032 0.587,-10.986 0.247,-1.067 0.594,-1.807 1.039,-2.214 0.444,-0.409 1.395,-0.827 2.854,-1.255 3.201,-0.96 4.801,-2.632 4.801,-5.012 0,-1.46 -0.519,-2.73 -1.546,-3.815 -1.032,-1.084 -2.402,-1.805 -4.109,-2.159 -3.414,-0.712 -8.425,-1.068 -15.04,-1.068 -6.294,0 -11.078,0.552 -14.349,1.655 -2.918,0.995 -4.373,2.72 -4.373,5.173 0,1.847 1.064,3.501 3.199,4.961 1.032,0.674 1.744,1.288 2.135,1.839 0.391,0.551 0.658,1.307 0.8,2.268 0.569,3.234 0.853,9.227 0.853,17.974 0,1.601 -0.177,2.747 -0.535,3.441 -0.354,0.693 -1.065,1.253 -2.132,1.68 -2.525,0.994 -3.788,2.435 -3.788,4.32 0,1.706 0.872,3.173 2.613,4.4 1.745,1.226 4.661,2.444 8.747,3.654 C -8.498,-0.871 -3.841,-0.035 0,0"
             style="fill:#000000;fill-opacity:1;fill-rule:nonzero;stroke:none"
             id="path1094"
             inkscape:connector-curvature="0" />
        </g>
      </g>
    </g>
  </g>
</svg>
