<?xml version="1.0" encoding="UTF-8"?>
<svg id="svg856" class="font" width="220" height="79.44912" data-v-fde0c5aa="" version="1.1" viewBox="0 0 220 79.44912" xmlns="http://www.w3.org/2000/svg" xmlns:cc="http://creativecommons.org/ns#" xmlns:dc="http://purl.org/dc/elements/1.1/" xmlns:rdf="http://www.w3.org/1999/02/22-rdf-syntax-ns#" xmlns:xlink="http://www.w3.org/1999/xlink">
 <title id="title1026">cw</title>
 <!---->
 <defs id="defs842" data-v-fde0c5aa="">
  <!---->
  <linearGradient id="linearGradient1020" x1=".48075432" x2="8.335078" y1="16.790281" y2="16.790281" gradientTransform="scale(1.6640516 .6009429)" gradientUnits="userSpaceOnUse" xlink:href="#c93dd3a3-3471-4405-8900-ddd80ace4eab"/>
 </defs>
 <defs id="defs851" data-v-fde0c5aa="">
  <linearGradient id="c93dd3a3-3471-4405-8900-ddd80ace4eab" data-v-fde0c5aa="" gradientTransform="rotate(25)">
   <stop id="stop846" stop-color="#D0E90D" data-v-fde0c5aa="" offset="0"/>
   <stop id="stop848" stop-color="#1536F1" data-v-fde0c5aa="" offset="1"/>
  </linearGradient>
 </defs>
 <g id="507d1a83-dfa1-4b62-a543-4025fe8207c7" transform="matrix(16.832441,0,0,16.832441,-13.465953,-169.83933)" fill="url(#linearGradient1020)" data-v-fde0c5aa="">
  <path id="path853" d="m1.02 14.2q-0.22-0.24-0.22-0.59t0.22-0.59q0.21-0.24 0.53-0.24 0.33 0 0.54 0.24 0.22 0.24 0.22 0.59t-0.22 0.59q-0.21 0.23-0.54 0.23-0.32 0-0.53-0.23zm3.18-1.89q0 0.5 0.29 0.84 0.3 0.35 0.78 0.35t0.8-0.12q0.31-0.12 0.48-0.24t0.25-0.12q0.13 0 0.13 0.13 0 0.43-0.81 1.02-0.81 0.6-1.89 0.6-0.69 0-1.03-0.34-0.34-0.35-0.34-0.91 0-1 0.86-2.01 0.86-1 1.98-1 0.26 0 0.43 0.16 0.16 0.17 0.16 0.47t-0.35 0.67q-0.34 0.37-0.69 0.37-0.1 0-0.1-0.1t0.11-0.21q0.1-0.11 0.1-0.27t-0.1-0.32q-0.11-0.15-0.23-0.15-0.38 0-0.61 0.34-0.22 0.35-0.22 0.84zm6.16-0.45-0.04 0.39q0 0.29 0.19 0.53t0.53 0.24 0.55-0.15q0.2-0.16 0.2-0.33 0-0.02-0.1-0.15-0.34-0.36-0.34-0.85t0.31-0.97q0.3-0.48 0.59-0.48t0.45 0.65q0.05 0.24 0.23 0.44 0.17 0.2 0.47 0.2 0.03 0 0.15-0.06 0.13-0.06 0.2-0.06 0.12 0 0.12 0.21 0 0.54-0.56 0.94t-1.02 0.4q-0.1 0-0.14-0.01-0.24 0.47-0.6 0.93-0.36 0.47-0.56 0.65-0.48 0.43-0.91 0.43-0.77 0-0.77-1.13-0.03-0.07-0.08-0.07-0.06 0-0.09 0.04-0.7 0.94-1.55 0.94-0.84 0-0.84-1.25 0-0.77 0.34-1.65t0.72-0.88q0.17 0 0.17 0.25l-0.06 0.55q0 0.47 0.2 0.78 0.31 0.48 0.68 0.48t0.62-0.18q0.25-0.17 0.35-0.38 0.27-0.58 0.51-0.58 0.08 0.02 0.08 0.13z" fill="url(#linearGradient1020)"/>
 </g>
 <!---->
 <!---->
 <metadata id="metadata1024">
  <rdf:RDF>
   <cc:Work rdf:about="">
    <dc:title>cw</dc:title>
   </cc:Work>
  </rdf:RDF>
 </metadata>
</svg>
