<svg enable-background="new 0 0 181.2 145.9" height="283.670143" viewBox="0 0 181.2 145.9" width="352.522119" xmlns="http://www.w3.org/2000/svg"><g fill="#ff671d"><path d="m155.5 116.7c-3.3 1.4-6.1 2.6-7.6 6-.2.3-.3.7-.5 1.1l13.8 2.1-1.6-11.1c-1.3.6-2.7 1.3-4.1 1.9"/><path d="m133.3 120.2c.3-1.8.7-3.7 1.6-5.2 2.6-4.3 6.3-5.8 9.7-7 2.3-.9 4.8-1.5 6.3-3.5 1.9-2.5 2.7-6.7 2.9-10-2.5-4.1-5.9-7.9-9.8-10.8-2.1 7.6-6.7 14.1-12.9 18.6.8 5.4.6 11-.6 16.3 1 .6 1.9 1.1 2.8 1.6m11.2-24.2c2.7-.4 5 1.9 4.6 4.6-.3 1.7-1.6 3-3.2 3.2-2.7.4-5-1.9-4.6-4.6.3-1.6 1.6-2.9 3.2-3.2"/><path d="m144.3 121c2.2-4.8 6.2-6.5 9.7-8 1.9-.8 3.6-1.6 5-2.7l-.5-3.3c-.3-2.2-.9-4.5-1.8-6.6-.1.4-.1.8-.2 1.2-.4 2.1-1.2 4.2-2.9 5.8-2.4 2.3-5 3.3-7.6 4.3-3.1 1.2-5.8 2.3-7.7 5.4-.7 1.2-1.1 2.9-1.2 4.7 1.7.6 3.5 1 5.2 1.3l1 .2c.3-.8.6-1.6 1-2.3"/></g><path d="m127.7 29.5c-4.8 2.9-9.1 6.9-12.4 11.4-1.4-.2-2.9-.3-4.3-.3-1.7 0-3.3.1-4.9.4-1.9-3.1-4-5.9-6.4-8.6l4.1-4.8 6.5 9.7 13.8-18.8c1.8 3.4 3 7.1 3.6 11m-23.5-9.4 6.2 9.3 11-14.9-11-14.8-11.3 15.2c-2.5 3.4-4.3 7.4-5.4 11.7 1 .8 1.9 1.7 2.8 2.6z" fill="#0099a8"/><path d="m166.5 75.1s-9.8 14.7-10.6 16.4c-1.4-2-2.9-3.9-4.6-5.6l7.4-10.5-10.4-17.8c3.1.3 6.2.9 9.1 1.9zm-18.5 7.6 5.4-7.6-10.4-17.7c-.8 0-1.6.1-2.5.2 2.9 5 4.6 10.8 4.7 17.1 0 1.9-.1 3.8-.4 5.6 1.1.7 2.2 1.5 3.2 2.4m18-18.8c-.4-.3-.8-.6-1.2-.8l7.1 12.2-9.5 13.5c1.2-.7 2.4-1.4 3.5-2.2l15.3-11.3z" fill="#00ae42"/><path d="m137.9 53.7c-1.7-2.2-3.7-4.1-5.9-5.8l16.1-20.9 12.4-1.8-1.8 12.3zm6.9.3h.3c3 0 5.9.3 8.8.9 1.9-3.5 3.3-7.2 3.8-10.9zm-16.4-8.6 13.5-17.6h-.2c-8.7 1.2-17 6.6-22.7 13.8 3.4.8 6.5 2.1 9.4 3.8z" fill="#af0061"/><path d="m68.5 74.8c.1 9.8-9.6 17.1-21.4 17.1h-.9v-34.3h.9c11.9 0 21.4 6.5 21.4 17.2m15.6 20.8c-6.3 9.1-16.5 15-28.1 15h-31.8v-71.6h31.8c11.6 0 21.8 5.9 28.1 15 4.4-5.7 10.6-10 17.7-12-10.1-15.5-27.2-25.7-46.7-25.7h-51.9v116.9h52c19.4 0 36.6-10.2 46.7-25.6-7.2-2-13.4-6.3-17.8-12m18.7-29c-4.5 4.6-4.5 11.9.1 16.5s11.9 4.5 16.5-.1 4.5-11.9-.1-16.5-11.9-4.5-16.5.1" fill="#003764"/><path d="m104.9 110.4c.4-.6.8-1.2 1.2-1.9 1.7.2 3.4.4 5.2.4 3.2 0 6.2-.5 9.1-1.3.4 1.3.6 2.7.3 4.2-.7 3.4-3.6 6-7.1 6.3-4.7.4-8.6-3.2-8.7-7.7zm-1.3 16.8c-2.1 0-4.1.5-5.8 1.4.2.3.7 1 1.2 1.7l11.3 15.3 6.1-8.1c-1.3-5.9-6.5-10.3-12.8-10.3m24.4-22.8c-1.3.7-3.9 1.9-3.9 1.9s.7 2.5.7 3.9c0 6.6-5.3 11.9-11.9 11.9-5 0-9.3-3.1-11-7.4-2.2 2.7-4.5 5.2-7.1 7.5.3 1 .8 1.9 1.2 2.9 2.3-1.2 4.9-1.8 7.7-1.8 7 0 13.1 4.3 15.7 10.3l2.4-3.2c5.2-7.1 7.3-16.9 6.2-26" fill="#ffb71b"/></svg>