<svg xmlns="http://www.w3.org/2000/svg" xmlns:xlink="http://www.w3.org/1999/xlink" width="125" height="120" viewBox="0 0 125 120" version="1.1" id="svg7">
    <defs id="defs11">
        <linearGradient id="linearGradient832">
            <stop style="stop-color:#003d63;stop-opacity:1" offset="0" id="stop828"/>
            <stop style="stop-color:#064f7c;stop-opacity:1" offset="1" id="stop830"/>
        </linearGradient>
        <linearGradient xlink:href="#linearGradient832" id="linearGradient836" gradientUnits="userSpaceOnUse" x1="62.0343" y1=".3989" x2="62.6381" y2="119.8905"/>
    </defs>
    <g id="Logo-EE" style="fill-rule:evenodd">
        <g id="ee-group" style="fill:#003d63;fill-opacity:1">
            <path d="M53.353 45.6163h-4.4376v2.907h4.2643v1.4686h-4.2643v3.263h4.4376v1.4834h-6.1217V44.1464h6.1217zm9.319 5.4756l-.0122.1304h-5.526c.027.6956.2369 1.2403.6308 1.6193.4224.4048 1.0438.61 1.8493.61a8.548 8.548 0 0 0 .6809-.0272 9.2733 9.2733 0 0 0 .658-.0734c.2138-.0312.4155-.0665.6105-.1073a6.685 6.685 0 0 0 .536-.125l.1814-.0516v1.4237l-.1042.0285c-.3777.1087-.8082.1956-1.2806.2608a10.625 10.625 0 0 1-1.477.102c-.6904 0-1.2928-.0965-1.795-.2854-.5077-.1929-.9301-.4768-1.2536-.8395-.325-.364-.566-.815-.723-1.3408-.1516-.5175-.2274-1.1112-.2274-1.7632 0-.5733.0812-1.1194.2437-1.6248.1651-.512.4102-.9685.7256-1.357a3.5252 3.5252 0 0 1 1.1764-.9306c.459-.2296.991-.345 1.5785-.345.5645 0 1.0749.091 1.5149.269.4453.1833.8217.4428 1.1236.7743.3019.3287.5347.7376.6917 1.2103.1517.4646.2288.9944.2288 1.5704 0 .197-.0027.3627-.0054.4931a6.1179 6.1179 0 0 1-.0257.379zm-5.5247-1.213c.0311-.2772.0907-.538.1814-.7757.1043-.2785.2396-.519.4075-.7146a1.7013 1.7013 0 0 1 .5875-.4523c.2247-.1074.4806-.1603.7568-.1603.3235 0 .6105.0543.8542.1643.241.11.4454.2636.6038.4551.1638.1956.2856.432.3614.701.069.2363.1029.4999.1002.7824h-3.8528zm11.889 3.307c.2694-.1507.4007-.3626.4007-.6411l-.0637-.322-.2274-.2703c-.1218-.095-.3127-.1942-.5753-.2988-.268-.1087-.6444-.235-1.1142-.375-.3614-.1073-.6999-.2296-1.0018-.364-.3167-.14-.5902-.307-.8163-.4986-.2342-.1956-.421-.428-.555-.6914-.1367-.2663-.203-.5828-.203-.9401 0-.239.054-.5.161-.7784.1097-.2825.2992-.5474.5591-.7865.2586-.2364.6106-.4361 1.0478-.5923.639-.2296 1.5081-.2853 2.6602-.1807.3736.034.773.0924 1.194.178l.1137.023v1.5215l-.1746-.042c-.4197-.1033-.8272-.1808-1.2076-.231-.8122-.1046-1.4079-.0883-1.8127.0027-.2139.0475-.3885.1141-.5198.197l-.2626.269-.0772.3328.0704.3246c.0433.0924.1313.1875.26.2812.1393.0992.3384.2038.5956.307.2599.106.6064.2215 1.0302.3464.471.1386.8745.2853 1.1994.4375.3303.1548.6051.33.8136.5257.2153.1983.3736.4265.467.6765.0908.2486.1395.5298.1395.8382 0 .2947-.0528.565-.1557.8042-.1015.239-.2396.451-.4129.6303a2.4778 2.4778 0 0 1-.601.466c-.2167.1236-.4576.2282-.7108.311a4.5388 4.5388 0 0 1-.7743.1766c-.2627.038-.5226.0584-.7744.0584-.536 0-1.037-.0244-1.4891-.072a10.1328 10.1328 0 0 1-1.3335-.2323l-.1083-.0271v-1.5622l.1814.0516c.455.129.9111.2296 1.3565.2961a9.0102 9.0102 0 0 0 1.3389.1005c.6254 0 1.0911-.0842 1.3822-.25zm5.8605-1.2237v-3.9898h-2.2066v-1.4359h2.2066v-2.1436l1.653-.4293v2.5729h3.544v1.4359h-3.544v3.8797c0 .5257.1353.9183.406 1.1683.394.3681 1.098.4496 2.0415.326.2979-.0394.6079-.1019.9179-.182l.1787-.0448v1.478l-.1083.0271a6.7917 6.7917 0 0 1-.9788.1725c-.3317.034-.6742.0517-1.0207.0517-1.0248 0-1.8019-.2391-2.3136-.7119-.5144-.4754-.7757-1.209-.7757-2.1748zm14.1074 1.3471v1.4291h-6.6077v-1.429h2.591V47.957h-2.3338v-1.4195h4.0003v6.7718zm-4.2636-8.0055a1.2478 1.2478 0 0 1-.2558-.3898 1.178 1.178 0 0 1-.0961-.4741c0-.1726.0338-.3329.0974-.4782a1.2026 1.2026 0 0 1 .2545-.3858 1.2178 1.2178 0 0 1 .3872-.2663c.3005-.125.662-.1236.9612 0a1.25 1.25 0 0 1 .3858.2636c.111.1168.199.2459.2586.3885.065.1453.096.3043.096.4782 0 .1684-.031.3233-.0933.474a1.3002 1.3002 0 0 1-.26.39 1.1783 1.1783 0 0 1-.3871.2648c-.149.0625-.3114.0938-.4792.0938a1.249 1.249 0 0 1-.482-.0938 1.1925 1.1925 0 0 1-.3872-.2649zm-31.0332 17.798H51.341v7.6385h2.3664v1.4834h-6.4303v-1.4834h2.3663v-7.6386h-2.3663V61.632h6.4303zm8.9501 9.1217h-1.6543v-5.1961c0-.5869-.1042-1.0202-.3127-1.2878-.2044-.2636-.5036-.3926-.9179-.3926-.1516 0-.3018.0244-.4494.0706-.1408.0435-.2965.1236-.4576.2391-.1651.1182-.3425.2758-.5415.4836-.1963.2024-.4102.451-.6403.739v5.3442h-1.6516v-8.201h1.4986l.0433 1.061c.153-.1644.302-.3084.4495-.4334.2207-.1875.4427-.3396.6566-.4524.2206-.1168.4467-.201.6714-.2486a3.4215 3.4215 0 0 1 .6945-.0692c.8515 0 1.5094.2608 1.9535.7702.4372.5053.6579 1.2674.6579 2.2673v5.306zm5.3199-10.774v2.5729h3.544v1.4372h-3.544v3.8784c0 .5243.138.9183.4074 1.1683.394.3681 1.0993.4496 2.0415.326a7.9318 7.9318 0 0 0 .9178-.182l.1774-.0462v1.4793l-.107.0272c-.314.0774-.6443.1386-.98.1725a10.084 10.084 0 0 1-1.0195.0503c-1.022 0-1.8005-.2405-2.3122-.7119-.5144-.474-.7784-1.2063-.7784-2.1748v-3.987h-2.208v-1.4373h2.208v-2.1437zm11.7765 3.475c.3033.3301.5348.7363.6918 1.2118.153.4659.2302.9943.2302 1.569 0 .197-.0028.3613-.0095.4944a6.088 6.088 0 0 1-.023.3777l-.0109.1304h-5.526c.0257.6969.237 1.2416.6295 1.6193.421.4034 1.0437.61 1.8506.61.2369 0 .459-.0082.6796-.0272.2247-.0177.4454-.0422.6592-.072.2126-.0313.4156-.068.6106-.1074.199-.0407.379-.0815.5334-.1263l.1814-.0516v1.4236l-.103.03c-.3857.1072-.8149.1955-1.2806.2607-.4738.0653-.972.0992-1.4783.0992-.6863 0-1.2914-.095-1.7923-.2853-.5077-.1929-.9287-.474-1.255-.8381-.3249-.364-.5685-.8137-.7229-1.3395-.153-.5189-.2288-1.1112-.2288-1.7646 0-.5705.084-1.1153.245-1.6233.1666-.5149.4103-.97.7257-1.3558.3208-.394.7148-.7064 1.1764-.9332.4616-.2296.991-.345 1.5771-.345.5659 0 1.0749.0896 1.5176.2689.4427.1834.8204.4428 1.1222.7743zm-4.6366 2.4412a3.3182 3.3182 0 0 1 .1828-.7784c.1042-.2785.241-.519.4075-.7146a1.7397 1.7397 0 0 1 .5889-.4524c.2247-.106.4792-.1589.7567-.1589.3236 0 .6092.0557.8502.1644.2423.11.4467.2622.6078.4537.1624.197.2843.432.3601.7023.069.235.1029.4986.1029.7839zm11.962-3.4853c.8596 0 1.523.2853 1.9683.8504.4427.5556.6498 1.3815.6187 2.4588l-.004.1372h-1.668l.0042-.1454c.0121-.6615-.0786-1.1397-.2776-1.425-.1908-.2744-.4643-.4089-.8393-.4089-.1679 0-.333.0313-.5077.091-.1692.0585-.3492.1603-.5347.2948-.1922.144-.3953.3233-.6065.542-.203.2093-.4291.4674-.666.7703v5.1784h-1.6678v-8.2023h1.5297l.0311 1.2321c.394-.4333.7906-.7607 1.1792-.978.471-.2636.957-.3954 1.4404-.3954zm8.3618 0c.8502 0 1.504.2581 1.948.7702.44.504.662 1.2661.662 2.2673v5.3061H96.397v-5.1974c0-.5855-.1056-1.0202-.3127-1.2865-.2058-.2635-.505-.3926-.9179-.3926a1.493 1.493 0 0 0-.448.0693c-.145.0462-.2993.125-.4617.2405-.1652.1181-.348.2812-.5388.4822-.1909.1983-.4007.4401-.6417.739v5.3455h-1.653v-8.2023h1.4973l.0447 1.0637a5.5117 5.5117 0 0 1 .4508-.4348c.2247-.1901.4468-.3423.658-.455.2152-.1141.44-.1984.6687-.246a3.4518 3.4518 0 0 1 .6985-.0692zm10.8565 1.0441c.3046.3301.536.7363.6931 1.209.1503.4673.2301.9971.2301 1.5718 0 .197-.003.3613-.008.493a5.9767 5.9767 0 0 1-.0272.3804l-.0121.1291h-5.5247c.027.6969.2382 1.2416.6322 1.6193.4224.4034 1.0437.61 1.8506.61.2355 0 .4575-.0082.6796-.0272.2138-.0163.4359-.0422.6592-.072.2112-.0326.4143-.068.6092-.1074a6.661 6.661 0 0 0 .5348-.1263l.1814-.0516v1.4236l-.1043.03c-.3804.1072-.8136.1942-1.278.2607a10.9535 10.9535 0 0 1-1.4782.0992c-.6904 0-1.2929-.0964-1.7938-.2866-.5076-.1916-.93-.4728-1.2562-.8382-.3222-.3613-.5673-.8123-.7202-1.338-.1544-.5163-.2302-1.1086-.2302-1.7647 0-.5705.0812-1.1153.245-1.6233.1666-.5176.4116-.9727.7284-1.3558.3154-.3912.712-.7064 1.1737-.9332.4603-.2296.9882-.345 1.5771-.345.57 0 1.079.0896 1.5176.2689.4413.182.8176.4415 1.1209.7743zm-4.6353 2.4412c.0325-.284.0934-.5407.1841-.7784.1016-.2758.2396-.5163.4062-.7146.1651-.1929.36-.345.5861-.4524.2261-.106.482-.1589.7595-.1589.3208 0 .6078.0557.8529.1644.2396.11.444.2622.6037.4537.1611.1943.283.4293.3642.7023.0663.2364.1015.5.0988.7839zm10.5554-5.9162v2.5715h3.5441v1.4386h-3.5441v3.8784c0 .523.1367.917.4075 1.1683.3926.3681 1.102.4482 2.04.326a7.8207 7.8207 0 0 0 .918-.182l.1786-.0462v1.4793l-.107.0272a6.8933 6.8933 0 0 1-.9814.1712c-.3276.0353-.6688.0516-1.018.0516-1.0221 0-1.8005-.2405-2.3122-.7105-.5158-.4755-.7771-1.2077-.7771-2.1762v-3.987h-2.208V64.021h2.208v-2.1423zm8.1912 1.3391a1.2023 1.2023 0 0 1-.256-.3899 1.202 1.202 0 0 1-.0933-.4727c0-.1712.0311-.3315.0934-.4782a1.2512 1.2512 0 0 1 .2559-.3871c.111-.1128.241-.201.3885-.2663.2965-.1223.666-.1223.9598 0 .1476.0652.2775.1549.3872.2663a1.253 1.253 0 0 1 .2585.3858c.0637.1453.0934.3056.0934.4795 0 .167-.0297.3247-.0934.4727a1.2754 1.2754 0 0 1-.2572.39c-.1056.1127-.2369.2023-.3885.2662-.1476.0611-.31.0923-.4806.0923-.1692 0-.3317-.0312-.4779-.0923a1.1645 1.1645 0 0 1-.3898-.2663zm1.9143 8.0075h2.3488v1.4278h-6.6077V70.796h2.5938v-5.3523h-2.3366v-1.4223h4.0017v6.7746zM53.3993 84.906c.2626.2336.4792.5121.6417.826.1651.3192.2477.6995.2477 1.1288 0 .5121-.1056.9686-.3154 1.357-.2112.3845-.505.7106-.88.966-.3682.2553-.8176.4469-1.3307.5705-.509.1223-1.0762.1861-1.6854.1861-.2735 0-.5496-.0136-.8258-.034-.3073-.0244-.5578-.0475-.7865-.0787a12.0605 12.0605 0 0 1-.7108-.1114c-.2328-.0462-.4318-.091-.6064-.1372l-.1056-.0286v-1.6722l.1922.0733c.3763.1413.8122.2568 1.2982.3396.4793.083 1.033.1237 1.6449.1237.4359 0 .8122-.034 1.1195-.102.2965-.0665.5415-.1643.731-.2947.1787-.1223.31-.2758.3886-.4496.084-.1807.1259-.3913.1259-.6263 0-.2486-.0664-.4537-.2004-.6262-.1475-.1834-.3398-.3519-.5726-.4945-.2478-.1522-.5293-.292-.838-.4143a94.1066 94.1066 0 0 1-.9882-.398c-.3385-.1373-.6729-.2908-.9964-.451-.329-.1645-.6281-.3614-.8894-.5883a2.6965 2.6965 0 0 1-.6417-.8096c-.1652-.3152-.249-.6901-.249-1.1153 0-.3695.0784-.7377.2328-1.0976.1543-.36.3966-.6833.7229-.9632.3208-.2758.7364-.5013 1.2373-.6683.4982-.1671 1.0965-.2527 1.7748-.2527.18 0 .3736.0081.5753.023.2044.0177.4116.0395.6227.0707.2058.0272.4143.0611.6174.0992.203.0367.3952.0747.5685.1195l.1083.0258v1.5636l-.1814-.0516a9.0138 9.0138 0 0 0-1.1913-.2608c-.4007-.0598-.7865-.0897-1.148-.0897-.7675 0-1.3361.1264-1.6867.3763-.3398.2405-.505.5556-.505.9645 0 .2486.065.455.203.6276.1422.1888.3304.3532.5714.5054.241.1521.5239.292.838.417l.253.1032c.241.0979.486.1943.7311.2962.348.1426.6837.2948.9964.455.3303.1644.6308.3668.8921.5978zm5.148-5.7005h2.1213l3.4575 10.5919h-1.8263l-.7134-2.2483h-4.068l-.723 2.2483H55.041l3.5062-10.5919zm-.5375 6.8045l1.5446-4.8945 1.5392 4.8945z" id="Combined-Shape" style="fill:#003d63;fill-opacity:1"/>
            <path d="M29.4825 67.8032l-4.11-4.1215c-2.5559 2.4995-5.1158 3.8403-8.7087 3.8403-4.7598 0-8.423-2.9383-9.2787-8.2078h21.181l2.6154-2.6218c-.0962-4.0183-1.1616-7.7676-3.1787-10.7073l22.088-16.9331c2.97 2.979 7.1193 4.6975 11.81 4.6975 5.7684 0 9.9096-2.2713 12.9406-5.7843l-4.11-4.1202c-2.5559 2.4982-5.1158 3.8404-8.7087 3.8404-4.7598 0-8.4244-2.9397-9.2773-8.2078h21.1809l2.6141-2.6218C76.3224 7.742 71.1403.0001 61.1076.0001c-9.2164 0-15.7469 7.5951-15.7469 16.9046 0 3.7928 1.0289 7.121 2.8104 9.7985L26.0345 43.6744c-2.5153-2.3841-5.9444-3.8363-10.2872-3.8363-9.215 0-15.7469 7.5938-15.7469 16.9032 0 10.0458 7.202 16.8448 16.5415 16.8448 1.6733 0 3.1936-.2105 4.6069-.5678l15.0984 29.4743 2.6913-1.387-14.9022-29.0925c2.1363-1.0067 3.93-2.4534 5.4462-4.2099M61.0467 6.063c4.883 0 7.6907 3.7371 8.178 8.5134H52.6845c.6715-5.0208 3.8447-8.5134 8.3622-8.5134m-45.359 39.838c4.883 0 7.6907 3.7357 8.1794 8.5134H7.3242c.6715-5.0222 3.846-8.5134 8.3635-8.5134" id="Fill-36" style="fill:#003d63;fill-opacity:1"/>
        </g>
        <path d="M52.2294 109.126c0 5.8916-4.7598 10.6679-10.6324 10.6679-5.8699 0-10.6297-4.7763-10.6297-10.668 0-5.8902 4.7598-10.6692 10.6297-10.6692 5.8726 0 10.6324 4.779 10.6324 10.6693" id="Fill-38" style="fill:#0085ca"/>
    </g>
</svg>

