<?xml version="1.0" encoding="UTF-8"?>
<svg id="svg856" class="font" width="220" height="122.23589" data-v-fde0c5aa="" version="1.1" viewBox="0 0 220 122.23589" xmlns="http://www.w3.org/2000/svg" xmlns:xlink="http://www.w3.org/1999/xlink">
 <!---->
 <defs id="defs842" data-v-fde0c5aa="">
  <!---->
  <linearGradient id="linearGradient1020" x1=".61868005" x2="13.953844" y1="4.6820646" y2="4.6820646" gradientTransform="scale(1.3415658 .74539765)" gradientUnits="userSpaceOnUse" xlink:href="#19db5337-bdd4-4db1-afe5-896bbdc7d13a"/>
 </defs>
 <defs id="defs851" data-v-fde0c5aa="">
  <linearGradient id="19db5337-bdd4-4db1-afe5-896bbdc7d13a" data-v-fde0c5aa="" gradientTransform="rotate(25)">
   <stop id="stop846" stop-color="#007A5E" data-v-fde0c5aa="" offset="0"/>
   <stop id="stop848" stop-color="#CE1126" data-v-fde0c5aa="" offset="1"/>
  </linearGradient>
 </defs>
 <g id="c2385c67-0a59-4ecd-a44f-4d7f737f9aa5" transform="matrix(12.297373,0,0,12.297373,-10.206819,-42.917833)" fill="url(#linearGradient1020)" data-v-fde0c5aa="">
  <path id="path853" d="m0.83 12v1.43h1.28v-1.43zm8.77-8.32c-0.46-0.11-1.34-0.19-2.07-0.19-3.11 0-4.72 1.65-4.72 4.43 0 3.5 2.72 5.51 5.97 5.51h0.88v-5.3h-2.84v1.1h1.64v3.12c-2.51-0.14-4.36-1.89-4.36-4.43 0-1.98 1-3.33 3.45-3.33 0.49 0 1.49 0.06 2.05 0.2zm2.9 9.75c3.94 0 6.22-2.4 6.22-5.53 0-2.57-1.65-4.27-6.08-4.27h-1.85v1.03h1.04v8.77zm4.87-5.48c0 2.44-1.73 4.4-4.28 4.4v-7.67c3.16 0.09 4.28 1.21 4.28 3.27z" fill="url(#linearGradient1020)"/>
 </g>
 <!---->
 <!---->
</svg>
