<?xml version="1.0" encoding="utf-8"?>
<svg viewBox="0 0 500 500" width="500" height="500" xmlns="http://www.w3.org/2000/svg">
  <g transform="matrix(0.113282, 0, 0, -0.110052, 46.275224, 409.381721)" fill="#000000" stroke="none" style="">
    <path d="M1505 3149 c-222 -29 -401 -119 -543 -274 -102 -112 -138 -201 -164 -405 -19 -150 -19 -1686 0 -1814 30 -201 122 -370 263 -481 209 -165 491 -217 714 -134 77 29 167 99 223 175 l47 64 35 -105 34 -105 248 0 248 0 0 810 0 810 -460 0 -460 0 0 -230 0 -230 81 0 81 0 -4 -282 c-4 -244 -8 -290 -24 -337 -30 -86 -100 -120 -177 -87 -76 31 -72 -30 -72 1061 0 961 0 970 21 1005 26 46 59 62 113 57 98 -10 111 -58 111 -419 l0 -248 395 0 395 0 0 153 c0 282 -35 493 -102 619 -86 163 -294 312 -511 368 -146 37 -338 48 -492 29z" style="fill: rgb(255, 0, 0);"/>
    <path d="M2920 1580 l0 -1510 395 0 395 0 0 1510 0 1510 -395 0 -395 0 0 -1510z" style="fill: rgb(255, 0, 0);"/>
    <path d="M0 375 l0 -305 285 0 285 0 0 305 0 305 -285 0 -285 0 0 -305z" style="fill: rgb(255, 0, 0);"/>
  </g>
</svg>