<?xml version="1.0" encoding="UTF-8"?>
<svg id="svg856" class="font" width="208.44539" height="220" data-v-fde0c5aa="" version="1.1" viewBox="0 0 208.44539 220" xmlns="http://www.w3.org/2000/svg" xmlns:cc="http://creativecommons.org/ns#" xmlns:dc="http://purl.org/dc/elements/1.1/" xmlns:rdf="http://www.w3.org/1999/02/22-rdf-syntax-ns#" xmlns:xlink="http://www.w3.org/1999/xlink">
 <title id="title1026">gl</title>
 <!---->
 <defs id="defs842" data-v-fde0c5aa="">
  <!---->
  <linearGradient id="linearGradient1020" x1=".56503831" x2="14.464981" y1="-.28228174" y2="-.28228174" gradientTransform="scale(.97338533 1.0273424)" gradientUnits="userSpaceOnUse" xlink:href="#6a302f98-b394-454d-b42c-0a729d7051cb"/>
 </defs>
 <defs id="defs851" data-v-fde0c5aa="">
  <linearGradient id="6a302f98-b394-454d-b42c-0a729d7051cb" data-v-fde0c5aa="" gradientTransform="rotate(25)">
   <stop id="stop846" stop-color="#EA1F59" data-v-fde0c5aa="" offset="0"/>
   <stop id="stop848" stop-color="#FA9169" data-v-fde0c5aa="" offset="1"/>
  </linearGradient>
 </defs>
 <g id="4e2cc1e4-14e2-47d3-9de1-6f1649156548" transform="matrix(15.406163,0,0,15.406163,-8.4733898,4.4677877)" fill="url(#linearGradient1020)" data-v-fde0c5aa="">
  <path id="path853" d="m0.55 9.3q0-0.42 0.18-0.7 0.19-0.28 0.48-0.42t0.62-0.14q0.34 0 0.63 0.14 0.28 0.14 0.47 0.42t0.19 0.7-0.19 0.7-0.47 0.42q-0.29 0.14-0.63 0.14-0.33 0-0.62-0.14t-0.48-0.42q-0.18-0.28-0.18-0.7zm9.54-6.86h0.17v9.95q-0.45 0.77-1.1 1.18-0.65 0.42-1.5 0.42-0.38 0-0.76-0.05t-0.77-0.19q-0.39-0.13-0.8-0.37-0.4-0.25-0.85-0.64l1.13-1.67q0.47 0.38 0.86 0.55 0.4 0.17 0.71 0.2 0.31 0.02 0.53-0.04 0.21-0.06 0.33-0.15l0.01-1.13q-0.07 0.01-0.21 0.01t-0.29 0h-0.4q-0.56 0-1.05-0.16-0.49-0.17-0.85-0.51-0.36-0.33-0.57-0.83t-0.21-1.17v-2.67q0-0.63 0.21-1.15 0.21-0.51 0.57-0.86t0.85-0.53q0.49-0.19 1.05-0.19h0.41q0.45 0 0.84 0.16t0.73 0.4zm-2.94 5.92h0.9v-3.78h-0.9q-0.19 0-0.32 0.12-0.12 0.13-0.12 0.33v2.89q0 0.19 0.12 0.31 0.13 0.13 0.32 0.13zm6.93 2.14h-2.54l0.12-0.15v-10.46l-0.12-0.18h2.53l-0.13 0.18v10.44z" fill="url(#linearGradient1020)"/>
 </g>
 <!---->
 <!---->
 <metadata id="metadata1024">
  <rdf:RDF>
   <cc:Work rdf:about="">
    <dc:title>gl</dc:title>
   </cc:Work>
  </rdf:RDF>
 </metadata>
</svg>
