<?xml version="1.0" encoding="UTF-8"?>
<!-- Created with Inkscape (http://www.inkscape.org/) -->
<svg id="svg5" width="320.00003" height="140" version="1.1" viewBox="0 0 84.666672 37.041666" xml:space="preserve" xmlns="http://www.w3.org/2000/svg"><g id="layer1" fill="none" stroke="#0000ff" stroke-width=".5244"><rect id="rect910" x=".26220068" y=".2622" width="4.7672668" height="4.7672672"/><rect id="rect910-4" x=".26220068" y="5.5538669" width="4.7672668" height="4.7672672"/><rect id="rect910-4-2" x=".26220027" y="10.845533" width="4.7672668" height="4.7672672"/><rect id="rect910-4-8" x=".26219931" y="16.137199" width="4.7672668" height="4.7672672"/><rect id="rect910-4-22" x=".26219931" y="21.428862" width="4.7672668" height="4.7672672"/><rect id="rect910-4-22-8" x=".26219931" y="26.720524" width="4.7672668" height="4.7672672"/><rect id="rect910-4-22-4" x=".26219931" y="32.012188" width="4.7672668" height="4.7672672"/><rect id="rect910-5" x="5.5538659" y=".2622" width="4.7672668" height="4.7672672"/><rect id="rect910-4-88" x="5.5538659" y="5.5538669" width="4.7672668" height="4.7672672"/><rect id="rect910-4-2-8" x="5.5538659" y="10.845533" width="4.7672668" height="4.7672672"/><rect id="rect910-4-8-8" x="5.5538659" y="16.137199" width="4.7672668" height="4.7672672"/><rect id="rect910-4-22-7" x="5.5538659" y="21.428862" width="4.7672668" height="4.7672672"/><rect id="rect910-4-22-8-1" x="5.5538659" y="26.720524" width="4.7672668" height="4.7672672"/><rect id="rect910-4-22-4-7" x="5.5538659" y="32.012188" width="4.7672668" height="4.7672672"/><rect id="rect910-7" x="10.845535" y=".26220012" width="4.7672668" height="4.7672672"/><rect id="rect910-4-7" x="10.845535" y="5.5538669" width="4.7672668" height="4.7672672"/><rect id="rect910-4-2-4" x="10.845535" y="10.845533" width="4.7672668" height="4.7672672"/><rect id="rect910-4-8-7" x="10.845535" y="16.137199" width="4.7672668" height="4.7672672"/><rect id="rect910-4-22-3" x="10.845535" y="21.428858" width="4.7672668" height="4.7672672"/><rect id="rect910-4-22-8-0" x="10.845535" y="26.720512" width="4.7672668" height="4.7672672"/><rect id="rect910-4-22-4-0" x="10.845535" y="32.01218" width="4.7672668" height="4.7672672"/><rect id="rect910-7-1" x="16.137201" y=".26220012" width="4.7672668" height="4.7672672"/><rect id="rect910-7-0" x="21.428867" y=".26220012" width="4.7672668" height="4.7672672"/><rect id="rect910-7-10" x="26.720535" y=".26220012" width="4.7672668" height="4.7672672"/><rect id="rect910-4-7-8" x="16.137201" y="32.012199" width="4.7672668" height="4.7672672"/><rect id="rect910-4-7-2" x="26.720535" y="32.012199" width="4.7672668" height="4.7672672"/><rect id="rect910-4-7-0" x="21.428867" y="32.012199" width="4.7672668" height="4.7672672"/><rect id="rect910-4-7-9" x="32.012199" y="32.012199" width="4.7672668" height="4.7672672"/><rect id="rect910-4-7-1" x="32.012199" y="21.428867" width="4.7672668" height="4.7672672"/><rect id="rect910-4-7-16" x="32.012199" y="26.720533" width="4.7672668" height="4.7672672"/><rect id="rect910-4-7-89" x="32.012199" y="16.137199" width="4.7672668" height="4.7672672"/><rect id="rect910-4-7-10" x="32.012199" y="10.845533" width="4.7672668" height="4.7672672"/><rect id="rect910-4-7-105" x="26.720535" y="10.845533" width="4.7672668" height="4.7672672"/><rect id="rect910-4-7-86" x="21.428873" y="10.845533" width="4.7672668" height="4.7672672"/><rect id="rect910-9" x="47.887199" y=".2622" width="4.7672668" height="4.7672672"/><rect id="rect910-4-6" x="47.887199" y="5.5538669" width="4.7672668" height="4.7672672"/><rect id="rect910-4-2-2" x="47.887199" y="10.845533" width="4.7672668" height="4.7672672"/><rect id="rect910-4-8-0" x="47.887199" y="16.137199" width="4.7672668" height="4.7672672"/><rect id="rect910-4-22-1" x="47.887199" y="21.428862" width="4.7672668" height="4.7672672"/><rect id="rect910-4-22-8-4" x="47.887199" y="26.720524" width="4.7672668" height="4.7672672"/><rect id="rect910-4-22-4-6" x="47.887199" y="32.012188" width="4.7672668" height="4.7672672"/><rect id="rect910-1" x="58.470535" y=".2622" width="4.7672668" height="4.7672672"/><rect id="rect910-4-4" x="58.470535" y="5.5538669" width="4.7672668" height="4.7672672"/><rect id="rect910-4-2-81" x="58.470535" y="10.845533" width="4.7672668" height="4.7672672"/><rect id="rect910-4-8-3" x="58.470531" y="16.137199" width="4.7672668" height="4.7672672"/><rect id="rect910-4-22-2" x="58.470531" y="21.428862" width="4.7672668" height="4.7672672"/><rect id="rect910-4-22-8-5" x="58.470531" y="26.720524" width="4.7672668" height="4.7672672"/><rect id="rect910-4-22-4-5" x="58.470531" y="32.012188" width="4.7672668" height="4.7672672"/><rect id="rect910-6" x="53.178867" y=".2622" width="4.7672668" height="4.7672672"/><rect id="rect910-4-71" x="53.178867" y="5.5538669" width="4.7672668" height="4.7672672"/><rect id="rect910-4-2-9" x="53.178867" y="10.845533" width="4.7672668" height="4.7672672"/><rect id="rect910-4-8-74" x="53.178864" y="16.137199" width="4.7672668" height="4.7672672"/><rect id="rect910-4-22-35" x="53.178864" y="21.428862" width="4.7672668" height="4.7672672"/><rect id="rect910-4-22-8-3" x="53.178864" y="26.720524" width="4.7672668" height="4.7672672"/><rect id="rect910-4-22-4-69" x="53.178864" y="32.012188" width="4.7672668" height="4.7672672"/><rect id="rect910-7-07" x="63.762207" y=".26220012" width="4.7672668" height="4.7672672"/><rect id="rect910-7-1-1" x="69.053871" y=".26220012" width="4.7672668" height="4.7672672"/><rect id="rect910-7-0-4" x="74.345535" y=".26220012" width="4.7672668" height="4.7672672"/><rect id="rect910-7-10-0" x="79.637207" y=".26220012" width="4.7672668" height="4.7672672"/><rect id="rect910-4-7-1-1" x="69.053864" y="16.137199" width="4.7672668" height="4.7672672"/><rect id="rect910-4-7-89-5" x="69.053864" y="10.845532" width="4.7672668" height="4.7672672"/><rect id="rect910-4-7-10-6" x="69.053864" y="5.5538664" width="4.7672668" height="4.7672672"/><rect id="rect910-4-1" x="79.637199" y="5.5538669" width="4.7672668" height="4.7672672"/><rect id="rect910-4-2-0" x="79.637199" y="10.845533" width="4.7672668" height="4.7672672"/><rect id="rect910-4-8-6" x="79.637199" y="16.137199" width="4.7672668" height="4.7672672"/><rect id="rect910-4-22-9" x="79.637199" y="21.428858" width="4.7672668" height="4.7672672"/><rect id="rect910-4-22-8-46" x="79.637199" y="26.720512" width="4.7672668" height="4.7672672"/><rect id="rect910-4-22-4-2" x="79.637199" y="32.012177" width="4.7672668" height="4.7672672"/></g></svg>
