<?xml version="1.0" encoding="UTF-8"?>
<!-- Created with Inkscape (http://www.inkscape.org/) -->
<svg id="svg5" width="252.54504" height="147.54546" version="1.1" viewBox="0 0 66.819208 39.03807" xmlns="http://www.w3.org/2000/svg">
 <g id="layer1" transform="translate(-59.051436,-82.528442)">
  <g id="text2828" fill="#046a38" stroke-width=".264583" aria-label=".gu">
   <path id="path7214" d="m62.298596 110.88696q-1.334944 0-2.291052-0.9561-0.956108-0.95611-0.956108-2.29106 0-1.33494 0.956108-2.29105 0.956108-0.9561 2.291052-0.9561 1.334943 0 2.291051 0.9561 0.956108 0.95611 0.956108 2.29105 0 0.88395-0.450995 1.62358-0.432954 0.73964-1.172585 1.19063-0.721591 0.43295-1.623579 0.43295z"/>
   <path id="path7216" d="m84.379268 121.56651q-3.084801 0-5.303693-0.79375-2.218892-0.77571-3.698153-2.05653-1.461222-1.26279-2.327131-2.70597l3.391477-2.38125q0.577273 0.75767 1.461222 1.73182 0.883949 0.99219 2.417329 1.71378 1.551421 0.73963 4.058949 0.73963 3.355398 0 5.53821-1.62358 2.182813-1.62358 2.182813-5.08722v-5.62841h-0.360796q-0.469034 0.75767-1.334943 1.87614-0.847869 1.10042-2.453409 1.96633-1.5875 0.84787-4.293466 0.84787-3.355397 0-6.025284-1.5875-2.651846-1.5875-4.203267-4.61818-1.53338-3.03068-1.53338-7.360226 0-4.257386 1.497301-7.414346 1.497301-3.175 4.167187-4.906818 2.669887-1.749858 6.169602-1.749858 2.705966 0 4.293466 0.901988 1.60554 0.883949 2.453409 2.020455 0.865909 1.118466 1.334943 1.840057h0.432955v-4.401705h4.113068v28.502843q0 3.57187-1.623579 5.8088-1.60554 2.25498-4.329546 3.30128-2.705966 1.06435-6.025284 1.06435zm-0.144318-15.22557q2.561648 0 4.329545-1.17258 1.767898-1.17259 2.687927-3.37344 0.920028-2.200854 0.920028-5.267615 0-2.994602-0.901989-5.285653-0.901988-2.291051-2.669886-3.589915t-4.365625-1.298864q-2.705966 0-4.509943 1.371023-1.785938 1.371023-2.687926 3.680114-0.883949 2.309091-0.883949 5.123295 0 2.886364 0.901989 5.105255 0.920028 2.20085 2.705965 3.46364 1.803978 1.24474 4.473864 1.24474z"/>
   <path id="path7218" d="m121.61326 99.269351v-16.380114h4.25739v27.709093h-4.25739v-4.69034h-0.28864q-0.97414 2.11065-3.03068 3.58991-2.05653 1.46122-5.19545 1.46122-2.59773 0-4.61818-1.1365-2.02046-1.15455-3.175-3.46364-1.15455-2.32713-1.15455-5.86292v-17.606823h4.25739v17.318183q0 3.03068 1.69574 4.83466 1.71377 1.80397 4.36562 1.80397 1.5875 0 3.22912-0.81178 1.65966-0.81179 2.77812-2.48949 1.13651-1.6777 1.13651-4.275429z"/>
  </g>
 </g>
</svg>
