<svg id="Domain_logo" data-name="Domain logo" xmlns="http://www.w3.org/2000/svg" viewBox="0 0 88.98 42.76"><defs><style>.cls-1{fill:#d10007;}</style></defs><title>gw_logo</title><path d="M12.92,37.16a6.2,6.2,0,1,1-6.2-6.21A6.2,6.2,0,0,1,12.92,37.16Z" transform="translate(-0.51 -0.62)"/><path d="M79.19,31.77H74l-7.24-20-7.42,20H54.16L43.85,2.38h6.36l6.9,20.2q1.76-5,3.59-10.16t3.59-10h5.06L76.6,22.52,83.43,2.38h6.07Z" transform="translate(-0.51 -0.62)"/><path d="M38.2,30.06a20.36,20.36,0,0,1-4.6.54,19.27,19.27,0,0,1-5.71-.85,13.13,13.13,0,0,1-8.31-7.33,16.1,16.1,0,0,1-1.3-6.77,16.69,16.69,0,0,1,1.06-6,13.45,13.45,0,0,1,3.07-4.77,14,14,0,0,1,4.89-3.12A17.89,17.89,0,0,1,33.78.62a27.94,27.94,0,0,1,5,.47c1.71.32,3.5.75,5.39,1.3V30.48a15.51,15.51,0,0,1-1,5.92,10.46,10.46,0,0,1-2.79,4,11,11,0,0,1-4.3,2.27,20.33,20.33,0,0,1-5.51.71,15.28,15.28,0,0,1-6.83-1.51,19.72,19.72,0,0,1-5.54-4.09l4-4.36a11,11,0,0,0,8.48,4.13A9,9,0,0,0,36.31,36q1.88-1.5,1.88-5v-.95h0ZM24.42,15.57c0,3.07.85,5.42,2.56,7.07a9.52,9.52,0,0,0,6.92,2.47A9.61,9.61,0,0,0,36,24.87c.73-.16,1.46-.33,2.21-.52V6.68a18.43,18.43,0,0,0-4.77-.59A8.5,8.5,0,0,0,26.81,8.7,9.78,9.78,0,0,0,24.42,15.57Z" transform="translate(-0.51 -0.62)"/><path class="cls-1" d="M26.05,15.48a7.78,7.78,0,0,0,2,5.72,7.19,7.19,0,0,0,5.35,2A7.51,7.51,0,0,0,35,23c.56-.13,1.13-.27,1.71-.43V8.27A13.4,13.4,0,0,0,33,7.79a6.42,6.42,0,0,0-5.12,2.12A8.13,8.13,0,0,0,26.05,15.48Z" transform="translate(-0.51 -0.62)"/></svg>