<svg enable-background="new 0 0 522 367.6" height="265.533072" viewBox="0 0 522 367.6" width="376.600923" xmlns="http://www.w3.org/2000/svg"><path d="m370.2 191.6c0 7.2-5.8 13-13 13" fill="#373737"/><path d="m370.2 95.9v95.7z" fill="none"/><path d="m328.4 57.2h-4.4s-25.1 0-44.7 13.4c-.1-.2-.2-.4-.2-.9v-56.7c0-7.2-5.9-13-13.1-13h-17v204.7h17.1c7.2 0 13.1-5.8 13.1-13v-92.4c0-7.2 5.9-13.1 13.1-13.1h34.7c7.2 0 13.1 5.9 13.1 13.1v92.3c0 7.3 5.7 13 13.1 13h4.1c7.2 0 13-5.8 13-13v-95.7c-.1-23.5-16.5-38.7-41.9-38.7z" fill="#373737"/><path d="m223.9 185.7c0 11-8.9 19.8-19.8 19.8s-19.8-8.8-19.8-19.8c0-10.9 8.9-19.8 19.8-19.8s19.8 8.9 19.8 19.8" fill="#231f20"/><path d="m415 0h-13v.2h11c.6-.1 1.3-.2 2-.2z" fill="#373737"/><path d="m466.8 117.8 48.7-37c2.4-1.9 3.9-4.9 3.9-7.7 0-3-1-5.6-3-8.1l-2.9-3.4c-3-3.8-6.6-4.6-9-4.6-3.5 0-6.4 1.6-8.3 2.9l-64.1 48v-94.9c0-7.2-5.9-13-13-13h-4.1c-.7 0-1.4.1-2.1.2h-11v204.5h17.1c7.2 0 13-5.8 13-13v-47.3l11.3-8.4 52.1 64.9c2.4 2.9 6.5 4.7 10.8 4.7 3.1 0 5.8-.9 7.9-2.6l3.3-2.8c3.1-2.3 4.6-5.4 4.6-9.3s-1.9-6.6-3.6-8.5z" fill="#373737"/><path d="m223.9 185.7c0 11-8.9 19.8-19.8 19.8s-19.8-8.8-19.8-19.8c0-10.9 8.9-19.8 19.8-19.8s19.8 8.9 19.8 19.8" fill="#373737"/><g fill="#43c3f2"><path d="m232.6 286.7c-1.6-5.1-5.6-9.1-10.6-10.7-3.2-1-6.5-1-9.7 0-27.4 8.6-56.3 8.5-83.5-.1-43.1-13.7-76.9-47.6-90.6-90.7l-2.3-7.3c-1.6-5-5.5-9-10.6-10.6-1.6-.5-3.2-.8-4.9-.8-1.6 0-3.3.2-4.9.7l-15.5 4.9 7.1 22.7c16.7 53.3 58.5 95.3 111.9 112.2 33.6 10.7 69.2 10.7 103.1.1l15.6-4.9-1.7-5.2z"/><path d="m330.2 251.2c-2.5-1.6-5.4-2.4-8.3-2.4-2 0-4.1.4-6 1.2-.8.4-1.6.8-2.4 1.3-1.9 1.2-3.4 2.8-4.6 4.6-13.7 21.6-31.4 39.5-52.6 53.1-8.5 5.5-17.5 10.2-26.9 14.2-52.1 21.8-111.6 16.9-159.4-13.1l-7.8-4.9c-4.2-2.7-9.5-3.1-14.1-1.2-.8.3-1.6.8-2.3 1.2-1.9 1.2-3.5 2.9-4.7 4.8l-8.3 13.1 20.7 13.1c56.2 35.5 126.4 41.3 187.9 15.5 10.9-4.6 21.6-10.2 31.6-16.6 25.1-16.1 45.9-37.2 62-62.7l8.3-13-1.9-1.2z"/><path d="m189.6 68.8-4.5-8.7-12.7 6.6c-29.8 15.4-50.2 44.5-54.6 77.8-2.8 21 .9 42 10.7 60.9l4.5 8.7 2.9-1.5 5.8-3.1c2.8-1.4 4.8-4.2 5.2-7.4.3-2-.1-4-1-5.7-8-15.4-10.9-32.4-8.7-49.4 3.6-26.9 20.1-50.4 44.2-63l4.1-2.1c2.8-1.4 4.7-4.2 5.1-7.3.3-2-.1-4-1-5.8z"/><path d="m153.6 243.6c-.3-.4-.6-.9-1-1.3-.9-1-2-1.7-3.2-2.2-14.2-5.9-26.6-14.4-36.8-25.6-4.2-4.4-7.9-9.3-11.2-14.4-18.3-28.5-21.6-64.2-8.9-95.6l2.1-5.1c1.1-2.8.8-5.9-.8-8.4-.2-.4-.6-.9-.9-1.2-.9-1-2-1.8-3.3-2.3l-8.6-3.5-5.6 13.6c-15.1 36.9-11.2 79 10.4 112.6 3.8 6 8.2 11.7 13.1 16.9 12.2 13.1 26.8 23.2 43.5 30.1l8.6 3.5.5-1.2 2.9-7.4c1.1-2.8.8-6-.8-8.5z"/></g></svg>