<?xml version="1.0" encoding="UTF-8"?>
<!-- Generator: Adobe Illustrator 16.0.0, SVG Export Plug-In . SVG Version: 6.00 Build 0)  -->
<svg width="299.31" height="40.887" enable-background="new 5.417 45.375 315.208 72.792" version="1.1" viewBox="5 49 314.48 37.203" xml:space="preserve" xmlns="http://www.w3.org/2000/svg"><g fill="#ad519e">
<path d="m165.96 48.119h-32.537c-2.122 0-3.98 1.634-4.035 3.755-0.056 2.177 1.691 3.958 3.856 3.958h32.716z"/>
<path d="m165.96 64.538h-32.537c-2.122 0-3.98 1.634-4.035 3.754-0.056 2.177 1.691 3.96 3.856 3.96h32.716z"/>
<path d="m165.96 80.956h-32.537c-2.122 0-3.98 1.635-4.035 3.756-0.056 2.178 1.691 3.958 3.856 3.958h32.716z"/></g><g fill="#6d6e70">
<path d="m5 88.659v-40.528h16.501c3.087 0 5.77 0.434 8.048 1.302 2.277 0.868 4.033 2.037 5.268 3.503 1.235 1.467 2.132 3.031 2.692 4.69 0.56 1.66 0.84 3.436 0.84 5.326v10.885c0 1.892-0.28 3.668-0.84 5.326-0.56 1.66-1.457 3.224-2.692 4.69s-2.991 2.634-5.268 3.502c-2.278 0.869-4.961 1.304-8.048 1.304zm8.8-7.701h7.701c2.895 0 4.95-0.724 6.167-2.171 1.215-1.447 1.823-3.271 1.823-5.471v-9.844c0-2.2-0.607-4.023-1.823-5.471s-3.271-2.17-6.167-2.17h-7.701z"/>
<path d="m61.493 89.353c-3.088 0-5.771-0.434-8.048-1.301-2.278-0.87-4.023-2.047-5.24-3.533-1.216-1.484-2.104-3.059-2.664-4.718-0.56-1.659-0.839-3.436-0.839-5.326v-12.159c0-1.891 0.28-3.667 0.839-5.327 0.559-1.659 1.448-3.232 2.664-4.719 1.216-1.485 2.962-2.663 5.24-3.532 2.277-0.869 4.959-1.302 8.048-1.302 3.126 0 5.827 0.434 8.105 1.302 2.277 0.869 4.024 2.047 5.24 3.532 1.215 1.487 2.104 3.06 2.663 4.719 0.559 1.661 0.839 3.436 0.839 5.327v12.158c0 1.892-0.28 3.667-0.839 5.327-0.56 1.659-1.448 3.232-2.663 4.717-1.216 1.487-2.963 2.664-5.24 3.533-2.279 0.868-4.979 1.302-8.105 1.302m0-7.7c2.932 0 5.008-0.724 6.224-2.17 1.216-1.448 1.824-3.272 1.824-5.472v-11.232c0-2.2-0.607-4.023-1.824-5.471-1.216-1.448-3.292-2.171-6.224-2.171-2.896 0-4.951 0.724-6.167 2.171-1.215 1.448-1.824 3.271-1.824 5.471v11.232c0 2.199 0.608 4.023 1.824 5.472 1.215 1.446 3.271 2.17 6.167 2.17"/>
<polygon transform="translate(-.763 1.4719)" points="123.24 46.659 123.24 87.188 114.61 87.188 114.61 61.712 106.39 74.392 102.62 74.392 94.171 62.117 94.171 87.188 86.008 87.188 86.008 46.659 93.649 46.659 104.59 63.332 115.13 46.659"/>
<polygon transform="translate(-.763 1.4719)" points="207.74 46.659 207.74 87.187 200.44 87.187 182.84 62.51 182.84 87.187 174.5 87.187 174.5 46.659 181.88 46.659 199.4 71.323 199.4 46.659"/>
<polygon transform="translate(-.763 1.4719)" points="224.82 69.876 224.82 79.834 244.15 79.834 244.15 87.187 216.02 87.187 216.02 46.659 243.46 46.659 243.46 54.012 224.82 54.012 224.82 62.754 241.95 62.754 241.95 69.876"/>
<rect x="249.3" y="80.437" width="8.684" height="8.223"/>
<path d="m273.21 88.659h-8.337v-42.266h8.337v14.533c1.93-2.663 4.844-3.995 8.742-3.995 3.396 0 6.088 1.081 8.077 3.242 1.987 2.163 2.982 5.115 2.982 8.859v19.627h-8.338v-17.543c0-4.516-1.795-6.773-5.385-6.773-4.052 0-6.079 2.451-6.079 7.353v16.963z"/>
<path d="m309 88.659h-8.338v-31.033h7.354l0.578 4.747c1.892-3.511 5.521-5.268 10.885-5.268v7.875h-1.563c-5.944 0-8.915 2.702-8.915 8.105v15.574z"/>

</g></svg>
