<?xml version="1.0" encoding="UTF-8" standalone="no"?>
<svg
   xmlns:dc="http://purl.org/dc/elements/1.1/"
   xmlns:cc="http://creativecommons.org/ns#"
   xmlns:rdf="http://www.w3.org/1999/02/22-rdf-syntax-ns#"
   xmlns:svg="http://www.w3.org/2000/svg"
   xmlns="http://www.w3.org/2000/svg"
   xmlns:sodipodi="http://sodipodi.sourceforge.net/DTD/sodipodi-0.dtd"
   xmlns:inkscape="http://www.inkscape.org/namespaces/inkscape"
   viewBox="0 0 529.50132 161.07185"
   height="161.07185"
   width="529.50134"
   xml:space="preserve"
   id="svg2"
   version="1.1"
   sodipodi:docname=".it.svg"
   inkscape:export-filename="C:\Users\glock\Desktop\LOGO 1 UITS bersaglio a colori in vettoriale senza cerchi.png"
   inkscape:export-xdpi="96"
   inkscape:export-ydpi="96"
   inkscape:version="0.92.1 r15371"><sodipodi:namedview
     pagecolor="#ffffff"
     bordercolor="#666666"
     borderopacity="1"
     objecttolerance="10"
     gridtolerance="10"
     guidetolerance="10"
     inkscape:pageopacity="0"
     inkscape:pageshadow="2"
     inkscape:window-width="1600"
     inkscape:window-height="837"
     id="namedview49"
     showgrid="false"
     inkscape:pagecheckerboard="true"
     fit-margin-top="0"
     fit-margin-left="0"
     fit-margin-right="0"
     fit-margin-bottom="0"
     inkscape:zoom="1.4142136"
     inkscape:cx="288.89453"
     inkscape:cy="168.31845"
     inkscape:window-x="-8"
     inkscape:window-y="-8"
     inkscape:window-maximized="1"
     inkscape:current-layer="svg2"
     showguides="true"
     inkscape:guide-bbox="true" /><metadata
     id="metadata8"><rdf:RDF><cc:Work
         rdf:about=""><dc:format>image/svg+xml</dc:format><dc:type
           rdf:resource="http://purl.org/dc/dcmitype/StillImage" /><dc:title></dc:title></cc:Work></rdf:RDF></metadata><defs
     id="defs6"><clipPath
       id="clipPath14"
       clipPathUnits="userSpaceOnUse"><path
         id="path12"
         d="M 0,0 H 595 V 842 H 0 Z"
         inkscape:connector-curvature="0" /></clipPath><clipPath
       id="clipPath24"
       clipPathUnits="userSpaceOnUse"><path
         id="path22"
         d="M 0,0.460938 H 4958 V 7016.2109 H 0 Z"
         inkscape:connector-curvature="0" /></clipPath><clipPath
       id="clipPath18"
       clipPathUnits="userSpaceOnUse"><path
         inkscape:connector-curvature="0"
         id="path16"
         d="M 0,566.931 H 566.93 V 0 H 0 Z" /></clipPath></defs><g
     aria-label="Registro"
     transform="scale(1.0282784,0.97249928)"
     style="font-style:normal;font-variant:normal;font-weight:normal;font-stretch:normal;font-size:108.5178299px;line-height:1.25;font-family:'Myriad Pro';-inkscape-font-specification:'Myriad Pro';letter-spacing:0px;word-spacing:0px;fill:#706f6f;fill-opacity:1;stroke:#706f6f;stroke-width:2;stroke-miterlimit:4;stroke-dasharray:none;stroke-opacity:1"
     id="text289"><path
       d="M 0.9724995,100.53222 H 14.211675 V 70.47278 h 6.728105 c 7.596248,0.217036 11.068819,3.255535 13.130658,12.805104 2.061838,9.115498 3.798124,15.083978 4.883302,17.254336 H 52.735504 C 51.216255,97.710755 49.262934,89.246365 46.984059,80.130867 45.139256,73.077208 41.992239,67.97687 36.783383,66.023549 v -0.325553 c 6.836624,-2.495911 13.239176,-8.898463 13.239176,-18.339514 0,-6.185516 -2.278875,-11.285854 -6.294035,-14.649907 -4.883302,-4.123677 -12.045479,-5.859963 -22.571708,-5.859963 -7.704766,0 -15.1924963,0.651107 -20.1843165,1.51925 z M 14.211675,37.591878 c 1.302214,-0.325554 4.015159,-0.651107 8.247355,-0.651107 8.681426,0 14.324353,3.689606 14.324353,11.719925 0,7.270695 -5.642927,12.045479 -14.649907,12.045479 h -7.921801 z"
       style="font-style:normal;font-variant:normal;font-weight:600;font-stretch:normal;font-family:'Myriad Pro';-inkscape-font-specification:'Myriad Pro Semi-Bold';fill:#706f6f;fill-opacity:1;stroke:#706f6f;stroke-width:2;stroke-miterlimit:4;stroke-dasharray:none;stroke-opacity:1"
       id="path1117" /><path
       d="m 107.3488,77.851992 c 0.21703,-1.193696 0.43407,-3.147017 0.43407,-5.642927 0,-11.611407 -5.53441,-25.718725 -22.788744,-25.718725 -16.928782,0 -25.827244,13.781764 -25.827244,28.431671 0,16.169157 10.092158,26.803909 27.237976,26.803909 7.596248,0 13.890282,-1.51925 18.448032,-3.364058 l -1.95332,-9.224015 c -4.015162,1.519249 -8.464393,2.387392 -14.649909,2.387392 -8.464391,0 -15.952121,-4.123677 -16.277675,-13.673247 z M 71.971986,68.519459 c 0.542589,-5.425891 4.01516,-12.913622 12.262515,-12.913622 8.898462,0 11.068819,8.03032 10.960301,12.913622 z"
       style="font-style:normal;font-variant:normal;font-weight:600;font-stretch:normal;font-family:'Myriad Pro';-inkscape-font-specification:'Myriad Pro Semi-Bold';fill:#706f6f;fill-opacity:1;stroke:#706f6f;stroke-width:2;stroke-miterlimit:4;stroke-dasharray:none;stroke-opacity:1"
       id="path1119" /><path
       d="m 166.3418,62.876532 c 0,-7.270695 0.21704,-11.611408 0.43407,-15.192496 h -11.61141 l -0.54259,7.053659 h -0.21703 c -2.49591,-4.340713 -7.2707,-8.247355 -15.30102,-8.247355 -12.69658,0 -23.98244,10.526229 -23.98244,27.889082 0,14.97546 9.33254,25.827248 22.4632,25.827248 6.94514,0 12.37103,-3.147022 15.40953,-7.813288 h 0.21703 v 4.557749 c 0,11.394369 -6.51107,15.952119 -15.19249,15.952119 -6.40256,0 -12.04548,-2.06184 -15.40954,-4.01516 l -2.92998,10.09216 c 4.55775,2.82146 11.71993,4.2322 18.44803,4.2322 7.2707,0 14.86695,-1.51925 20.40136,-6.40256 5.53441,-4.99182 7.81328,-12.91362 7.81328,-23.982437 z m -13.34769,14.541389 c 0,1.51925 -0.21704,3.364053 -0.54259,4.774785 -1.51925,4.774784 -5.85996,8.030319 -10.85179,8.030319 -8.35587,0 -12.91362,-7.270695 -12.91362,-16.277674 0,-10.743266 5.53441,-17.254335 13.02214,-17.254335 5.64293,0 9.44105,3.689606 10.85179,8.572908 0.32555,1.085179 0.43407,2.387392 0.43407,3.581089 z"
       style="font-style:normal;font-variant:normal;font-weight:600;font-stretch:normal;font-family:'Myriad Pro';-inkscape-font-specification:'Myriad Pro Semi-Bold';fill:#706f6f;fill-opacity:1;stroke:#706f6f;stroke-width:2;stroke-miterlimit:4;stroke-dasharray:none;stroke-opacity:1"
       id="path1121" /><path
       d="M 193.61879,100.53222 V 47.684036 h -13.45621 v 52.848184 z m -6.72811,-74.877304 c -4.44923,0 -7.48773,3.147017 -7.48773,7.270695 0,4.01516 2.92998,7.162177 7.37921,7.162177 4.66627,0 7.59625,-3.147017 7.59625,-7.162177 -0.10852,-4.123678 -2.92998,-7.270695 -7.48773,-7.270695 z"
       style="font-style:normal;font-variant:normal;font-weight:600;font-stretch:normal;font-family:'Myriad Pro';-inkscape-font-specification:'Myriad Pro Semi-Bold';fill:#706f6f;fill-opacity:1;stroke:#706f6f;stroke-width:2;stroke-miterlimit:4;stroke-dasharray:none;stroke-opacity:1"
       id="path1123" /><path
       d="m 204.67233,97.927791 c 3.90664,2.170359 9.65809,3.798129 16.06064,3.798129 13.9988,0 21.48653,-7.053664 21.48653,-16.603233 -0.10852,-7.813284 -4.55775,-12.696586 -14.10732,-16.169157 -6.7281,-2.387392 -9.22401,-4.015159 -9.22401,-7.379212 0,-3.255535 2.60442,-5.534409 7.37921,-5.534409 4.66627,0 8.89846,1.736285 11.17734,3.038499 l 2.60442,-9.441051 c -3.0385,-1.627768 -8.13883,-3.147017 -13.9988,-3.147017 -12.26251,0 -19.96728,7.270694 -19.96728,16.603228 -0.10852,6.185516 4.2322,11.828443 14.54139,15.409531 6.51107,2.278875 8.68143,4.123678 8.68143,7.704766 0,3.472571 -2.60443,5.859963 -8.46439,5.859963 -4.77479,0 -10.52623,-1.953321 -13.56473,-3.798124 z"
       style="font-style:normal;font-variant:normal;font-weight:600;font-stretch:normal;font-family:'Myriad Pro';-inkscape-font-specification:'Myriad Pro Semi-Bold';fill:#706f6f;fill-opacity:1;stroke:#706f6f;stroke-width:2;stroke-miterlimit:4;stroke-dasharray:none;stroke-opacity:1"
       id="path1125" /><path
       d="m 255.56381,37.917431 v 9.766605 h -7.59625 v 9.98364 h 7.59625 v 24.850583 c 0,6.945141 1.30221,11.719926 4.12368,14.758425 2.49591,2.712946 6.61959,4.449236 11.50289,4.449236 4.23219,0 7.70476,-0.65111 9.65809,-1.41074 l -0.21704,-10.200673 c -1.51925,0.434072 -2.71295,0.651107 -5.20886,0.651107 -5.10033,0 -6.83662,-3.364052 -6.83662,-9.766604 V 57.667676 h 12.69659 v -9.98364 H 268.58595 V 34.119307 Z"
       style="font-style:normal;font-variant:normal;font-weight:600;font-stretch:normal;font-family:'Myriad Pro';-inkscape-font-specification:'Myriad Pro Semi-Bold';fill:#706f6f;fill-opacity:1;stroke:#706f6f;stroke-width:2;stroke-miterlimit:4;stroke-dasharray:none;stroke-opacity:1"
       id="path1127" /><path
       d="m 291.43574,100.53222 h 13.34769 V 73.185726 c 0,-1.51925 0.21704,-2.929982 0.43407,-4.123678 1.1937,-5.96848 5.53441,-10.092158 11.93696,-10.092158 1.62777,0 2.82147,0.217036 3.90665,0.434071 V 46.815893 c -1.08518,-0.217036 -1.84481,-0.325553 -3.14702,-0.325553 -5.64293,0 -11.82844,3.798124 -14.43287,11.285854 h -0.43407 l -0.43407,-10.092158 h -11.61141 c 0.32555,4.774784 0.43407,9.875122 0.43407,17.037299 z"
       style="font-style:normal;font-variant:normal;font-weight:600;font-stretch:normal;font-family:'Myriad Pro';-inkscape-font-specification:'Myriad Pro Semi-Bold';fill:#706f6f;fill-opacity:1;stroke:#706f6f;stroke-width:2;stroke-miterlimit:4;stroke-dasharray:none;stroke-opacity:1"
       id="path1129" /><path
       d="m 352.93313,46.49034 c -15.95212,0 -27.34649,10.634747 -27.34649,27.9976 0,16.928781 11.50289,27.23798 26.47835,27.23798 13.45621,0 27.12946,-8.681431 27.12946,-28.106123 0,-16.060639 -10.52623,-27.129457 -26.26132,-27.129457 z m -0.32555,9.766604 c 9.1155,0 12.8051,9.441052 12.8051,17.688407 0,10.634747 -5.31737,18.122477 -12.91362,18.122477 -8.13884,0 -13.13066,-7.704766 -13.13066,-17.905442 0,-8.789944 3.79813,-17.905442 13.23918,-17.905442 z"
       style="font-style:normal;font-variant:normal;font-weight:600;font-stretch:normal;font-family:'Myriad Pro';-inkscape-font-specification:'Myriad Pro Semi-Bold';fill:#706f6f;fill-opacity:1;stroke:#706f6f;stroke-width:2;stroke-miterlimit:4;stroke-dasharray:none;stroke-opacity:1"
       id="path1131" /></g><circle
     style="fill:#149346;fill-opacity:1;stroke-width:2.03646755"
     id="path302"
     cx="362.09177"
     cy="138.57185"
     r="22.5" /><g
     id="g1115"
     transform="translate(-128.68968,-97.602191)"
     style="fill:#ff0000;fill-opacity:1"><path
       sodipodi:nodetypes="ccsccccccccccsccccccccccccccc"
       inkscape:connector-curvature="0"
       id="path285"
       d="m 554.191,256.35535 c -11.476,-3.50348 -20.8974,-11.77946 -23.6611,-20.78444 -0.9358,-3.04894 -1.1618,-19.18019 -0.672,-47.94839 l 0.7382,-43.35366 h 19.1308 19.1308 v 56.66666 56.66667 l -5.6667,-0.11454 c -3.1167,-0.0631 -7.1667,-0.57254 -9,-1.13224 z m 52.6667,-0.61826 c -11.2834,-3.56845 -20.3203,-10.78005 -23.2516,-18.55504 -0.9303,-2.46748 -1.4151,-27.02134 -1.4151,-71.66666 V 97.602191 h 20.6352 20.6352 l 0.3648,22.999999 0.3648,23 17,0.37317 17,0.37317 v 15.96016 15.96017 h -17.3333 -17.3334 v 40.66666 40.66667 l -5.6666,-0.0892 c -3.1167,-0.0491 -8.0667,-0.84822 -11,-1.7759 z"
       style="fill:#ff0000;fill-opacity:1;stroke-width:1.33333337" /><circle
       r="17.5"
       cy="116.75"
       cx="549.16162"
       id="path1109"
       style="fill:#ff0000;fill-opacity:1;stroke:none;stroke-width:3.2183907;stroke-miterlimit:4;stroke-dasharray:none;stroke-opacity:1" /></g></svg>