<?xml version="1.0" encoding="UTF-8"?>
<svg class="font" width="220" height="150.98" data-v-fde0c5aa="" version="1.1" viewBox="0 0 220 150.98" xmlns="http://www.w3.org/2000/svg" xmlns:cc="http://creativecommons.org/ns#" xmlns:dc="http://purl.org/dc/elements/1.1/" xmlns:rdf="http://www.w3.org/1999/02/22-rdf-syntax-ns#" xmlns:xlink="http://www.w3.org/1999/xlink">
 <title>jm</title>
 <!---->
 <defs data-v-fde0c5aa="">
  <!---->
  <linearGradient id="linearGradient915" x1=".513618" x2="14.0334" y1="7.43587" y2="7.43587" gradientTransform="scale(1.20712 .828417)" gradientUnits="userSpaceOnUse">
   <stop stop-color="#009B3A" data-v-fde0c5aa="" offset="0"/>
   <stop stop-color="#FED100" data-v-fde0c5aa="" offset="1"/>
  </linearGradient>
 </defs>
 <defs data-v-fde0c5aa=""></defs>
 <g id="017572e1-6bfd-4a70-abc6-a98d66e3ffde" transform="matrix(13.4804,0,0,13.4804,-8.35784,-83.0392)" fill="url(#linearGradient915)" data-v-fde0c5aa="">
  <path d="m2.73 11.62q0.57 0 0.57 0.56 0 0.5-0.58 0.99-0.58 0.48-1.05 0.48t-0.62-0.21-0.15-0.39q0-0.17 0.13-0.37 0.13-0.21 0.35-0.45 0.22-0.25 0.59-0.43t0.76-0.18zm4.51-2.48 0.71-0.29q0.24 0 0.42 0.26 0.18 0.27 0.18 0.42 0 0.16-0.29 0.77t-0.78 1.47q-0.48 0.87-1.15 1.85-0.66 0.98-1.36 1.82-0.7 0.83-1.48 1.37-0.79 0.55-1.45 0.55-0.3 0-0.58-0.06-0.28-0.07-0.56-0.32t-0.28-0.63 0.28-0.96 0.75-1q0.14-0.11 0.25-0.11 0.12 0 0.19 0.06 0.07 0.05 0.07 0.13t-0.38 0.72q-0.37 0.64-0.37 0.84 0 0.04 0.03 0.04 0.23 0 2.47-2.64 2.25-2.64 2.25-2.9 0-0.11-0.11-0.11-0.07 0-0.31 0.11t-0.34 0.11q-0.09 0-0.21-0.08-0.11-0.09-0.11-0.2 0-0.17 0.72-0.55 0.72-0.37 1.44-0.67zm2.64-2.98q0.54 0 0.54 0.59 0 0.6-0.54 1.13t-0.98 0.53q-0.43 0-0.57-0.23t-0.14-0.51q0-0.29 0.5-0.9 0.51-0.61 1.19-0.61zm-1.58 7.2q-0.26 0-0.45-0.23-0.18-0.22-0.18-0.57 0-0.34 0.31-0.83t0.74-0.91q0.93-0.85 1.64-1.31l0.31-0.21q0.22-0.1 0.47-0.1 0.24 0 0.44 0.16 0.19 0.16 0.19 0.37t-0.07 0.38-0.15 0.26q-0.22 0.33-0.27 0.38-0.04 0.04-0.04 0.09t0.06 0.05q0.07 0 0.59-0.4 1.54-1.26 2.21-1.26 0.26 0 0.45 0.16t0.19 0.35q0 0.2-0.08 0.35-0.09 0.14-0.24 0.33-0.25 0.29-0.25 0.35 0 0.07 0.1 0.07 0.11 0 0.91-0.65 0.79-0.64 1.1-0.64t0.49 0.24q0.17 0.25 0.17 0.5t-0.71 1.16q-0.72 0.9-0.72 1.02 0 0.13 0.1 0.13 0.08-0.01 0.2-0.08 0.11-0.07 0.21-0.07 0.18 0 0.18 0.15 0 0.46-0.52 0.8-0.52 0.35-1.05 0.35-1.12 0-1.12-0.98 0-0.2 0.12-0.49 0.12-0.3 0.24-0.42 0.05-0.09 0.05-0.12 0-0.04-0.05-0.04t-0.12 0.04q-0.07 0.03-0.6 0.51-1.46 1.3-2.01 1.3-0.29 0-0.44-0.21-0.16-0.22-0.16-0.46 0-0.43 0.42-0.95 0.04-0.07 0.04-0.14 0-0.06-0.05-0.06-0.06 0-0.13 0.06-1.93 1.57-2.52 1.57z" fill="url(#linearGradient915)"/>
 </g>
 <!---->
 <!---->
 <metadata>
  <rdf:RDF>
   <cc:Work rdf:about="">
    <dc:title>jm</dc:title>
   </cc:Work>
  </rdf:RDF>
 </metadata>
</svg>
