<?xml version="1.0" encoding="UTF-8"?>
<svg width="250" height="204.78" version="1.1" viewBox="0 0 250 204.78" xml:space="preserve" xmlns="http://www.w3.org/2000/svg" xmlns:cc="http://creativecommons.org/ns#" xmlns:dc="http://purl.org/dc/elements/1.1/" xmlns:rdf="http://www.w3.org/1999/02/22-rdf-syntax-ns#"><metadata><rdf:RDF><cc:Work rdf:about=""><dc:format>image/svg+xml</dc:format><dc:type rdf:resource="http://purl.org/dc/dcmitype/StillImage"/><dc:title/></cc:Work></rdf:RDF></metadata><g transform="matrix(1.3333 0 0 -1.3333 -657.03 1092.3)"><g transform="matrix(2.4433 0 0 2.4433 -711.21 -1182.4)"><g transform="translate(505.76 762.87)"><path d="m0 0c0-3.58-2.901-6.481-6.481-6.481s-6.483 2.901-6.483 6.481c0 3.578 2.903 6.482 6.483 6.482s6.481-2.904 6.481-6.482" fill="#ed1c24"/></g><g transform="translate(494.35 818.09)"><path d="m0 0h9.911l-1.152-44.244h-7.374" fill="#bbbdc0"/></g><g transform="translate(519.16 813.6)"><path d="m0 0s1.922 0.307 2.229-7.76c0.305-8.063 0.305-29.189 0.231-31.57 0 0 0.228-9.679-4.688-13.749-1.303-1.078-2.61-1.845-2.61-1.845s-0.539-0.458-0.306-1.228c0.228-0.768 0.845-0.999 1.458-0.691 0.616 0.306 12.547 5.904 13.443 15.901 0.844 9.447 0.459 40.788 0.459 40.788s-0.074 2.764 0 3.687c0.078 0.92 0.463 1.535-0.307 1.921-0.766 0.384-0.845 0-1.151-0.23-0.307-0.231-6.454-3.075-7.912-3.381-0.77-0.23-0.999-0.076-1.075-0.538-0.077-0.461-0.153-1.075 0.229-1.305" fill="#231f20"/></g><g transform="translate(561.41 787.56)"><path d="m0 0c-0.385-7.529-4.993-10.294-7.451-10.14 0 0-1.997 0.155-3.841 1.383-2.995 1.767-2.612 5.531-2.612 5.531l-0.076 9.294s0.076 1.997 0.076 3.686c0.151 3.074 3.995 4.225 6.76 3.456 5.453-1.612 7.528-5.682 7.144-13.21m-4.457 17.514c-4.07-0.154-7.834-2.456-7.834-2.456s-1.535-1.231-1.689-0.079c-0.155 1.151 0.305 1.844 0.383 2.688 0.077 0.844-0.69 1.766-1.69 0.999-0.997-0.769-4.992-2.921-7.682-3.608-1.305-0.385-1.919-1.156-1.229-1.923 0.691-0.769 2.306-1.381 2.458-2.841 0.155-1.462 0.077-1.537 0.077-1.537l0.078-33.798s0.076-2.921-1.844-3.458c-1.306-0.155-1.921-0.385-2.381-0.385-0.461 0-0.768-0.382-0.692-0.997 0.078-0.615-0.152-0.921 1.997-0.845 2.15 0.078 13.365 0.306 14.826 0.078 1.458-0.232 1.536 0.613 1.536 0.922 0 0.306 0.077 1.151-1.075 1.072-1.152-0.075-2.304 0.155-2.995 0.309-0.692 0.153-1.613 1.077-1.613 3.84v9.907s-0.154 1.923 1.383 1.769c1.536-0.152 15.513-1.843 19.971 11.753 1.535 6.528 0.768 18.819-11.985 18.59" fill="#231f20"/></g><g transform="translate(505.74 762.9)"><path d="m0 0c0-3.58-2.901-6.481-6.48-6.481-3.581 0-6.483 2.901-6.483 6.481 0 3.578 2.902 6.482 6.483 6.482 3.579 0 6.48-2.904 6.48-6.482" fill="#ed1c24"/></g><g transform="translate(494.33 818.12)"><path d="m0 0h9.91l-1.151-44.244h-7.375" fill="#bbbdc0"/></g><g transform="translate(519.14 813.63)"><path d="m0 0s1.921 0.307 2.229-7.76c0.305-8.063 0.305-29.189 0.231-31.57 0 0 0.228-9.679-4.688-13.749-1.304-1.078-2.611-1.844-2.611-1.844s-0.539-0.459-0.306-1.229c0.228-0.768 0.846-0.999 1.458-0.691 0.616 0.306 12.547 5.904 13.444 15.902 0.843 9.446 0.458 40.787 0.458 40.787s-0.073 2.764 0 3.687c0.078 0.92 0.463 1.535-0.306 1.921-0.767 0.384-0.846 0-1.152-0.23-0.307-0.231-6.453-3.075-7.911-3.381-0.77-0.23-1-0.076-1.076-0.538-0.077-0.461-0.153-1.075 0.23-1.305" fill="#231f20"/></g><g transform="translate(561.39 787.59)"><path d="m0 0c-0.385-7.529-4.993-10.294-7.451-10.14 0 0-1.997 0.155-3.84 1.383-2.996 1.767-2.613 5.531-2.613 5.531l-0.076 9.294s0.076 1.996 0.076 3.686c0.152 3.073 3.995 4.225 6.76 3.456 5.454-1.612 7.529-5.682 7.144-13.21m-4.456 17.514c-4.07-0.155-7.835-2.457-7.835-2.457s-1.535-1.23-1.689-0.078c-0.155 1.151 0.306 1.844 0.384 2.688 0.077 0.844-0.691 1.766-1.69 0.999-0.998-0.769-4.992-2.921-7.682-3.609-1.306-0.384-1.919-1.154-1.23-1.922 0.691-0.769 2.306-1.381 2.458-2.841 0.155-1.462 0.077-1.537 0.077-1.537l0.078-33.798s0.076-2.921-1.844-3.458c-1.305-0.155-1.92-0.385-2.381-0.385s-0.768-0.382-0.692-0.997c0.078-0.615-0.152-0.921 1.998-0.845 2.15 0.078 13.365 0.306 14.825 0.078 1.459-0.232 1.537 0.613 1.537 0.922 0 0.306 0.076 1.151-1.076 1.072-1.152-0.075-2.303 0.155-2.995 0.309-0.691 0.153-1.613 1.077-1.613 3.84v9.907s-0.154 1.922 1.383 1.77c1.537-0.154 15.514-1.844 19.972 11.752 1.534 6.528 0.767 18.819-11.985 18.59" fill="#231f20"/></g></g></g></svg>
