<?xml version="1.0" encoding="utf-8"?>
<!-- Generator: Adobe Illustrator 21.1.0, SVG Export Plug-In . SVG Version: 6.00 Build 0)  -->
<svg version="1.1" id="Layer_1" xmlns="http://www.w3.org/2000/svg" xmlns:xlink="http://www.w3.org/1999/xlink" x="0px" y="0px"
	 viewBox="0 0 429.7 266.1" style="enable-background:new 0 0 429.7 266.1;" xml:space="preserve">
<style type="text/css">
	.st0{fill:#13A4B9;}
	.st1{fill:#ED2047;}
</style>
<title>logo.la</title>
<g id="Layer_2">
	<g id="Layer_1-2">
		<path class="st0" d="M323.3,163.7c4.7,0.3,4.9-1.4,3.4-5.2c-8.7-21.1-17.2-42.3-25.8-63.4c-4.8-11.7-9.6-23.4-14.4-35.2
			c-4.1-9.9-5.9-20-4.1-30.8c4.4-26.5,32.8-36.7,54.4-23c8.2,5.2,13.8,12.5,17.3,21.4c24.2,60.3,48.3,120.6,72.4,181
			c8.7,21.9-0.6,44-21.7,53.9c-8.2,3.9-16,2.2-23.6-1c-11-4.5-17.8-13-22.3-23.8c-4.1-10-1.7-8.8-13.2-8.8
			c-23.7-0.1-47.3,0.1-71-0.1c-4.1,0-6.4,1.3-7.8,5.2c-2.3,6.4-4.8,12.8-8.9,18.4c-11.8,15.7-33,18.3-48.2,5.9
			c-15.7-12.8-20.2-31.7-12.1-50.4c11.8-27.6,23.5-55.2,35.2-82.8c8.1-19.3,24.7-26.4,45.5-19.5c18.8,6.3,28.1,23.3,23.2,42.7
			c-0.9,3.4-2.1,6.7-3.4,9.9c-2.1,5.3-2.1,5.4,3.8,5.4L323.3,163.7z"/>
		<path class="st0" d="M117.9,109.8c0,22.8,0,45.7,0,68.5c0,8.3,0,8.3,8.5,8.3c6,0,12,0,18,0c16.9-0.1,28.6,8.3,35.3,23.2
			c6.7,15.1,4.5,29.8-6.1,42.6c-7.6,9.2-17.8,13.6-29.9,13.5c-19-0.2-38,0-57,0c-22.2,0-39.8-16.5-39.9-38.8
			c-0.3-62.1-0.2-124.3,0.1-186.4c0-12.3,3.4-23.9,13.4-32.2c20.1-16.8,50.1-5.3,56.3,21.5c0.9,3.7,1.3,7.6,1.3,11.4
			C117.8,64.2,117.8,87,117.9,109.8L117.9,109.8z"/>
		<path class="st1" d="M20.2,262.9c-11,0-20.2-9.8-20.2-21.2s9.3-21.1,20.3-21.1c11.2,0,20.7,9.9,20.5,21.4S31.3,262.9,20.2,262.9z"
			/>
	</g>
</g>
</svg>
