<?xml version="1.0" encoding="utf-8"?>
<!DOCTYPE svg PUBLIC "-//W3C//DTD SVG 1.0//EN" "http://www.w3.org/TR/2001/REC-SVG-20010904/DTD/svg10.dtd">
<svg xmlns="http://www.w3.org/2000/svg" xml:space="preserve" width="120" height="46" version="1.0">
  <path d="M119.021 45.965h-7.33v-1.131h6.196V1.179h-6.196V.049h7.33zm-38.269 0h-7.325V.049h7.325v1.13H74.56v43.655h6.192zm8.966-35.374h3.339v18.965c0 2.098.826 2.477 1.857 2.477.309 0 .584-.035.584-.035v2.962s-.513.068-1.1.068c-1.893 0-4.681-.517-4.681-4.887v-19.55zm7.467 9.808h-2.271v-2.685h2.374V12.69h3.235v5.024h4.199v2.685h-4.199v7.744c0 3.477 2.443 3.923 3.718 3.923.481 0 .789-.069.789-.069v2.962s-.478.068-1.168.068c-2.236 0-6.678-.688-6.678-6.506v-8.122zM88.162 33.2c0 .934-.758 1.69-1.69 1.69-.935 0-1.69-.757-1.69-1.69 0-.933.756-1.691 1.69-1.691.932 0 1.69.759 1.69 1.691M1.266.053h4.332c2.008 0 3.706.305 5.093.915 1.388.609 2.518 1.396 3.39 2.362.873.966 1.505 2.043 1.899 3.235.395 1.19.592 2.358.592 3.502 0 1.519-.267 2.883-.801 4.092-.535 1.21-1.258 2.246-2.167 3.107-.911.865-1.974 1.526-3.194 1.984-1.22.461-2.504.69-3.854.69h-5.29V.053zm5.289 18.761c1.22 0 2.367-.2 3.446-.605 1.08-.403 2.016-.984 2.814-1.745.796-.759 1.43-1.681 1.898-2.771.469-1.086.705-2.315.705-3.684 0-1.106-.193-2.189-.578-3.25-.384-1.06-.965-2.001-1.744-2.827-.779-.825-1.758-1.486-2.938-1.983-1.184-.493-2.561-.742-4.138-.742H2.419v17.608h4.136zM19.6 9.98c0-1.371.261-2.656.782-3.853.52-1.199 1.225-2.25 2.112-3.154.886-.906 1.93-1.619 3.126-2.14 1.198-.521 2.484-.781 3.854-.781 1.371 0 2.661.26 3.868.781 1.206.521 2.263 1.234 3.167 2.14.905.904 1.619 1.955 2.141 3.154.521 1.197.781 2.481.781 3.853 0 1.372-.26 2.656-.781 3.854s-1.235 2.243-2.141 3.141c-.905.896-1.962 1.604-3.167 2.125-1.207.521-2.497.782-3.868.782-1.37 0-2.656-.261-3.854-.782-1.197-.521-2.24-1.229-3.126-2.125-.887-.897-1.592-1.943-2.112-3.141-.522-1.198-.782-2.482-.782-3.854zm1.124.028c0 1.206.229 2.344.686 3.415.458 1.07 1.084 2.001 1.881 2.797.795.794 1.718 1.425 2.77 1.893 1.052.466 2.181.699 3.387.699 1.208 0 2.349-.232 3.429-.699 1.079-.467 2.021-1.099 2.825-1.893.806-.796 1.442-1.727 1.907-2.797.467-1.071.7-2.217.7-3.443 0-1.207-.233-2.349-.7-3.428-.465-1.078-1.097-2.016-1.893-2.812-.795-.795-1.728-1.425-2.798-1.892-1.07-.467-2.208-.7-3.415-.7-1.207 0-2.345.233-3.416.7-1.068.466-2.001 1.102-2.796 1.907-.796.802-1.423 1.74-1.881 2.81-.457 1.071-.686 2.218-.686 3.443zM42.78.067c.661 1 6.202 8.964 6.961 10.044.761 1.083 1.445 2.052 2.053 2.91.214-.303 6.886-9.928 7.459-10.742.572-.813 1.099-1.551 1.582-2.212v19.822h-1.153s.027-16.389.027-16.55c-.626.859-3.412 4.895-4.119 5.941-.708 1.045-3.279 4.904-3.796 5.673-.321-.429-7.789-11.346-7.968-11.614 0 .161.054 16.55.054 16.55h-1.1V.067zM15.397 46V26.538h4.323c.679 0 1.372.1 2.079.301.707.203 1.349.521 1.928.951.578.43 1.051.991 1.418 1.678.367.688.551 1.521.551 2.49 0 1.084-.266 2.109-.799 3.071-.533.965-1.386 1.685-2.56 2.162.127.201.338.546.633 1.032.294.485.624 1.031.991 1.638s.753 1.244 1.157 1.913c.404.671.785 1.299 1.142 1.886.358.587.666 1.092.923 1.513.256.424.43.698.523.827H26.33c-.075-.111-.226-.358-.455-.741-.229-.388-.505-.846-.826-1.377-.322-.534-.669-1.105-1.047-1.722-.375-.614-.743-1.215-1.1-1.804-.358-.585-.688-1.133-.992-1.638-.302-.505-.546-.903-.729-1.199-.257.039-.521.07-.785.098-.267.028-.546.042-.84.042h-3.002V46h-1.157zm1.156-9.44h3.03c.972 0 1.78-.162 2.423-.483s1.152-.72 1.528-1.199c.376-.476.637-.986.784-1.527.147-.54.222-1.031.222-1.472 0-.587-.115-1.137-.345-1.652-.229-.515-.561-.963-.991-1.347-.432-.387-.95-.694-1.555-.925-.606-.229-1.287-.345-2.039-.345h-3.057v8.95zm14.73 9.407V26.55h11.894v1.042H32.436v8.075h9.642v1.045h-9.642v8.185h11.125v1.07H31.283zM60.8 37.346v7.268c-.715.412-1.512.739-2.389.979-.875.241-1.797.362-2.763.362-1.484 0-2.822-.248-4.011-.751-1.19-.501-2.21-1.182-3.058-2.039-.851-.858-1.502-1.868-1.96-3.029-.455-1.164-.683-2.416-.683-3.755 0-1.379.259-2.666.778-3.863s1.221-2.241 2.104-3.126c.887-.886 1.92-1.576 3.1-2.077 1.18-.503 2.441-.753 3.783-.753.912 0 1.806.117 2.682.348.876.233 1.682.563 2.416.994l-.564.911c-.644-.375-1.365-.671-2.161-.886-.794-.214-1.595-.321-2.4-.321-1.181 0-2.289.229-3.326.683-1.038.458-1.951 1.084-2.737 1.878-.788.799-1.409 1.728-1.865 2.792-.455 1.064-.683 2.194-.683 3.394 0 1.178.2 2.287.603 3.324.403 1.036.979 1.946 1.73 2.723s1.651 1.391 2.697 1.839c1.045.446 2.212.669 3.5.669.715 0 1.432-.086 2.146-.254.717-.17 1.387-.425 2.014-.765v-5.579H55.38v-.965h5.42z"/>
</svg>