<svg height="226.643305" viewBox="0 0 104.3 53.5" width="441.221947" xmlns="http://www.w3.org/2000/svg"><g transform="matrix(.04 0 0 -.04 0 83.477)"><path d="m69.4 750.6c-38.3 0-69.4 31.2-69.4 69.5s31.1 69.4 69.4 69.4 69.4-31.1 69.4-69.4-31.1-69.5-69.4-69.5" fill="#007ba6"/><path d="m350.6 750h-124.3v1336.9h124.3z" fill="#007ba6"/><path d="m1227.6 1145c0-109.5-38.3-203.2-113.8-278.7-74.3-74.3-167.4-112-276.7-112h-.1c-109.4 0-202.5 37.7-276.9 112-75.5 75.5-113.8 169.2-113.8 278.7h111.9c0-75.9 27.7-142.1 82.3-196.6 54.5-54.5 120.7-82.2 196.5-82.3 75.9 0 142 27.7 196.5 82.3 54.6 54.5 82.3 120.7 82.3 196.6z" fill="#007ba6"/><g fill="#9b9a9a"><path d="m623.8 1367c59.3 59.3 132.6 89.4 218 89.4 84.3 0 157.6-30.7 218-91.1 51.4-51.4 81-112.1 88.8-180.8h46.7v880.2h-53.2v-712.9l-15.9 18.7c-77.7 91.2-173.4 137.4-284.6 137.4-101.1 0-187.6-35.3-257.3-104.9-59.9-60-94-133.3-101.6-218.4h52c8 69.6 37.7 130.9 89.1 182.4"/><path d="m1142.3 898.1v-147.5h53.2v234.9c-13.5-31.1-31.2-60.3-53.2-87.4"/><path d="m1476.8 1378v115.2h-53.1v-698.5h53.1v426.5c0 70.2 18.8 126.5 55.9 167.3 36.3 41.1 89.9 62 159.5 62 141.8 0 213.6-79.5 213.6-236.3v-419.4h53.1v426.5c0 88.6-23.1 158.2-68.7 207.2-45.4 48.8-112.1 73.5-198 73.5-101.2 0-167.9-30.4-198.3-90.5z"/><path d="m2382.6 780.9c-104.1 0-183.9 46.6-237.5 138.6l45.1 27.2c19.4-33.1 42.6-59.3 69.2-78.1 30-22.9 71.5-34.6 123.1-34.6 114.3 0 172.2 49.7 172.2 147.8 0 43.2-20.4 81.2-60.7 113-13 7.8-29.6 15.6-51.7 24.6-21.4 8.7-47.9 18.9-79.1 30.5-56.8 20.5-97.9 41-122.3 61-35.1 28.5-52.2 68.8-52.2 123.1 0 46.4 17.2 85.1 52.7 118.3 34.1 34.2 79.3 51.4 134.4 51.4 73.6 0 137.3-24.8 189.5-73.9l-38.3-33.3c-40 37.1-90.9 55.8-151.2 55.8-88.9 0-134-39.8-134-118.3 0-35.1 13.9-64.3 41.5-86.8 21.9-17.2 55.1-33 101.7-48.4 38.7-13.7 71.1-26.7 96.1-38.6 24.8-11.9 43.6-22.4 55.8-31.2 47.6-36.6 70.9-84.8 70.9-147.1 0-59.4-21.7-107.8-64.4-144-44.4-37.8-98.4-57-160.8-57"/></g></g></svg>