<svg xmlns="http://www.w3.org/2000/svg" width="182" height="73" viewBox="0 0 182 73"><path fill-rule="evenodd" clip-rule="evenodd" fill="#f63" d="M24.837 59.003l7.51-41.33c.656-3.61 1.928-6.394 3.812-8.33 1.88-1.934 4.24-2.908 7.06-2.908 2.13 0 3.94.616 5.43 1.86 1.5 1.246 2.67 3.143 3.55 5.694l3.71 10.79c.16.43.53 1.82 1.13 4.19l.07.21 3.98-21.87h15.68l-7.62 41.94c-.65 3.53-1.88 6.21-3.71 8.01-1.83 1.81-4.18 2.71-7.08 2.71-2.04 0-3.75-.57-5.15-1.72-1.4-1.15-2.51-2.87-3.33-5.18l-4.17-11.66c-.07-.16-.25-.84-.55-2.02-.27-1.06-.51-1.94-.68-2.64L40.45 59H24.84z"/><path fill-rule="evenodd" clip-rule="evenodd" fill="#369" d="M73.968 59.003l9.393-51.69h15.82l-9.39 51.69z"/><path fill-rule="evenodd" clip-rule="evenodd" fill="#69f" d="M136.263 58.786l-2.51 13.812 35.42-21.406-27.64-21.407-2.51 13.81h-9.48l-.02.105c-4.116 0-8.795-.037-11.825-2.612-2.04-1.75-2.743-4.4-2.096-7.96.65-3.574 2.313-6.21 4.984-7.936 2.67-1.713 6.43-2.576 11.267-2.576h3.017l2.78-15.304h-1.33c-4.464 0-8.434.37-11.917 1.096-3.475.74-6.473 1.824-9.01 3.266-4.202 2.44-7.67 5.52-10.395 9.242-2.725 3.733-4.482 7.8-5.283 12.21-.804 4.424-.516 8.504.863 12.25 1.38 3.745 3.717 6.826 7.008 9.265 2.008 1.47 4.61 2.56 7.82 3.28 3.22.72 7.06 1.19 11.523 1.09l9.33-.21z"/><path fill-rule="evenodd" clip-rule="evenodd" fill="#D1D3D4" d="M78.3 7.208c46.837-8.136 88.296-1.188 92.29 15.466 3.992 16.657-30.954 36.875-77.793 45.01C45.957 75.824 4.5 68.874.507 52.22c-3.994-16.656 30.95-36.876 77.79-45.012zM89.035 3.73C42.195 11.866 7.25 32.086 11.243 48.74c3.993 16.656 45.45 23.605 92.29 15.47 46.84-8.138 81.786-28.358 77.793-45.013-3.993-16.655-45.45-23.603-92.29-15.467z"/></svg>