<?xml version="1.0" encoding="UTF-8"?>
<svg class="font" width="220" height="94.7335" data-v-fde0c5aa="" version="1.1" viewBox="0 0 220 94.7335" xmlns="http://www.w3.org/2000/svg" xmlns:cc="http://creativecommons.org/ns#" xmlns:dc="http://purl.org/dc/elements/1.1/" xmlns:rdf="http://www.w3.org/1999/02/22-rdf-syntax-ns#" xmlns:xlink="http://www.w3.org/1999/xlink">
 <title>dotMP</title>
 <!---->
 <defs data-v-fde0c5aa="">
  <!---->
  <linearGradient id="linearGradient915" x1=".839944" x2="16.9629" y1="6.47662" y2="6.47662" gradientTransform="scale(1.52391 .656207)" gradientUnits="userSpaceOnUse" xlink:href="#18ad2a9a-ada3-464a-9d3c-7ddc2f61637c"/>
 </defs>
 <defs data-v-fde0c5aa="">
  <linearGradient id="18ad2a9a-ada3-464a-9d3c-7ddc2f61637c" data-v-fde0c5aa="" gradientTransform="rotate(25)">
   <stop stop-color="#0015D6" data-v-fde0c5aa="" offset="0"/>
   <stop stop-color="#0989FB" data-v-fde0c5aa="" offset="1"/>
  </linearGradient>
 </defs>
 <g id="dd8c966b-c307-46b6-84b0-64ed15507a0f" transform="matrix(8.95401 0 0 8.95401 -11.4611 -38.0545)" fill="url(#linearGradient915)" data-v-fde0c5aa="">
  <path d="m2.13 10.39q0.34 0 0.59 0.25t0.25 0.61q0 0.34-0.25 0.59t-0.59 0.25q-0.36 0-0.61-0.25-0.24-0.25-0.24-0.59 0-0.36 0.24-0.61 0.25-0.25 0.61-0.25zm2.82 1.7v-4.11q0.12-1.53 0.64-2.24 0.43-0.65 1.13-1.03 0.46-0.29 1.31-0.31 0.54 0 1.1 0.2 0.56 0.21 0.87 0.55t0.62 1.02q0.17-0.43 0.72-1.02 0.27-0.23 0.69-0.45 0.29-0.18 1.33-0.3 0.78 0 1.5 0.39 0.72 0.38 1.01 1.09t0.29 2.11v4.1h-0.98v-4.1q0-1.2-0.18-1.65-0.17-0.45-0.58-0.73-0.42-0.28-1.01-0.28-1.11 0.08-1.89 1.08-0.31 0.42-0.47 1.88v3.8h-0.96v-3.85q0-1.35-0.3-1.84t-0.72-0.78-1.04-0.29q-0.67 0-1.15 0.34-0.48 0.35-0.75 1.03-0.28 0.68-0.22 2.21v3.18zm13.84-6.38q-0.62 1.02-0.74 2.01 0 7.12 0 7.11h0.95v-4.19q0.61 0.75 1.36 1.11 0.76 0.37 1.65 0.37 1.59 0 2.72-1.16 1.12-1.15 1.12-2.8 0-1.62-1.13-2.77-1.14-1.14-2.74-1.14-0.91 0-1.71 0.35-0.81 0.35-1.48 1.11zm3.11-0.54q0.82 0 1.5 0.4t1.08 1.11 0.4 1.52q0 0.79-0.4 1.52-0.41 0.73-1.1 1.13-0.68 0.4-1.46 0.4-0.8 0-1.51-0.4t-1.09-1.09-0.38-1.54q0-1.3 0.86-2.18 0.86-0.87 2.1-0.87z" fill="url(#linearGradient915)"/>
 </g>
 <!---->
 <!---->
 <metadata>
  <rdf:RDF>
   <cc:Work rdf:about="">
    <dc:title>dotMP</dc:title>
   </cc:Work>
  </rdf:RDF>
 </metadata>
</svg>
