<svg height="202.523147" viewBox="0 0 284.2 116.39" width="493.77072" xmlns="http://www.w3.org/2000/svg"><g transform="translate(-339 -222.61)"><path d="m601.87 280.8 13.69-13.69a26.07 26.07 0 0 0 -36.87-36.87l-13.69 13.69-13.69-13.69a26.08 26.08 0 0 0 -43.49 11.21 51.68 51.68 0 0 0 -39.91-18.84 51 51 0 0 0 -25.7 6.84 51.06 51.06 0 0 0 -25.7-6.84 51.83 51.83 0 0 0 -51.78 51.77v12.82a25.9 25.9 0 1 0 12.37 48.74l5.86 1.85a26.07 26.07 0 0 0 33.55-20.46 26.07 26.07 0 0 0 51.4 0 26 26 0 0 0 45.32 12.74c.39.44.79.88 1.21 1.3a26.06 26.06 0 0 0 36.87 0l13.69-13.7 13.69 13.69a26.07 26.07 0 1 0 36.87-36.87z" fill="#fff"/><path d="m608.35 301.71a15.87 15.87 0 0 1 -22.44 22.44l-20.91-20.91-20.9 20.91a15.87 15.87 0 0 1 -22.44-22.44l20.91-20.91-20.91-20.9a15.87 15.87 0 0 1 22.44-22.44l20.9 20.9 20.91-20.9a15.87 15.87 0 0 1 22.44 22.44l-20.91 20.9zm-140.44-68.9a41.31 41.31 0 0 0 -25.7 8.94 41.53 41.53 0 0 0 -67.27 32.63v14.84a25.87 25.87 0 0 1 11.06 38.84 16 16 0 0 0 4.78.73 15.86 15.86 0 0 0 15.86-15.86v-38.55a9.84 9.84 0 1 1 19.67 0v38.55a15.87 15.87 0 0 0 31.73 0v-38.55a9.84 9.84 0 1 1 19.67 0v38.55a15.87 15.87 0 0 0 31.73 0v-38.55a41.61 41.61 0 0 0 -41.56-41.57" fill="#1e1e1e"/><path d="m380.6 313.1a15.7 15.7 0 1 1 -15.7-15.7 15.69 15.69 0 0 1 15.7 15.7" fill="#05f"/></g></svg>