<?xml version="1.0" encoding="UTF-8"?>
<svg id="svg174" width="159.19101" height="45.573002" version="1.1" viewBox="0 0 159.19101 45.573002" xmlns="http://www.w3.org/2000/svg">
 <g fill="#000000">
  <path id="path156" d="m143.56201 9.976c-1.726 0-3.124-1.414-3.124-3.162s1.398-3.162 3.124-3.162c1.727 0 3.124 1.414 3.124 3.162 5e-3 1.748-1.397 3.162-3.124 3.162z"/>
  <path id="path158" d="m138.40801 3.225a1.603 1.603 0 0 1-1.596-1.612c0-0.891 0.713-1.613 1.596-1.613 0.878 0 1.596 0.722 1.596 1.613 0 0.89-0.718 1.612-1.596 1.612z" opacity=".3"/>
  <path id="path160" d="m149.81501 9.976c-1.727 0-3.124 1.414-3.124 3.162s1.397 3.162 3.124 3.162c1.726 0 3.124-1.415 3.124-3.162 4e-3 -1.748-1.398-3.162-3.124-3.162zm6.252 12.669c-1.727 0-3.124-1.414-3.124-3.162s1.397-3.162 3.124-3.162 3.124 1.414 3.124 3.162-1.397 3.162-3.124 3.162zm-6.252 0c-1.727 0-3.124 1.414-3.124 3.162 0 1.744 1.397 3.162 3.124 3.162 1.726 0 3.124-1.414 3.124-3.162 4e-3 -1.748-1.398-3.162-3.124-3.162zm-6.253 12.644c-1.726 0-3.124-1.415-3.124-3.162 0-1.744 1.398-3.162 3.124-3.162 1.727 0 3.124 1.414 3.124 3.162 5e-3 1.747-1.397 3.162-3.124 3.162z"/>
  <path id="path162" d="m149.86101 33.997a1.885 1.885 0 0 1-1.874-1.896c0-1.047 0.836-1.895 1.874-1.895 1.034 0 1.875 0.848 1.875 1.895a1.886 1.886 0 0 1-1.875 1.896z" opacity=".3"/>
  <path id="path164" d="m137.31401 41.609c-1.726 0-3.124-1.415-3.124-3.162 0-1.748 1.398-3.163 3.124-3.163 1.727 0 3.124 1.415 3.124 3.163 0 1.747-1.401 3.162-3.124 3.162z"/>
  <path id="path166" d="m132.02001 45.573c-0.954 0-1.726-0.802-1.726-1.79s0.772-1.79 1.726-1.79c0.955 0 1.727 0.802 1.727 1.79s-0.772 1.79-1.727 1.79zm17.795-28.062a1.962 1.962 0 0 0-1.955 1.972c0 1.09 0.874 1.971 1.955 1.971 1.08 0 1.954-0.882 1.954-1.971a1.959 1.959 0 0 0-1.954-1.972zm-6.206 22.658a1.736 1.736 0 0 1-1.727-1.748c0-0.966 0.773-1.748 1.727-1.748s1.726 0.782 1.726 1.748c0 0.967-0.772 1.748-1.726 1.748zm12.458-28.927c-1.068 0-1.934 0.849-1.934 1.896s0.866 1.895 1.934 1.895c1.064 0 1.929-0.848 1.929-1.895s-0.865-1.896-1.929-1.896zm-12.505 3.61a1.702 1.702 0 0 1-1.692-1.714c0-0.946 0.759-1.714 1.692-1.714s1.693 0.768 1.693 1.714a1.7 1.7 0 0 1-1.693 1.714z" opacity=".3"/>
  <path id="path168" d="m105.28501 41.566h3.246v-5.31c0-1.216 0.655-1.795 1.613-1.795 0.941 0 1.359 0.524 1.359 1.596v5.514h3.247v-6.164c0-2.432-1.271-3.572-3.103-3.572-1.575 0-2.609 0.798-3.12 1.778v-1.524h-3.246v9.477z"/>
 </g>
 <path id="path170" d="m92.691006 41.566h3.247v-5.31c0-1.216 0.654-1.795 1.613-1.795 0.941 0 1.359 0.528 1.359 1.596v5.514h3.246004v-6.164c0-2.427-1.27-3.572-3.098004-3.572-1.58 0-2.613 0.798-3.12 1.778v-1.524h-3.246v9.477zm-6.108-9.735c-2.938 0-5.206 1.921-5.206 4.97v0.147c0 3.065 2.268 4.842 5.185 4.842 2.921 0 5.184-1.849 5.184-4.93v-0.144c4e-3 -3.019-2.242-4.885-5.163-4.885zm1.87 5.058c0 1.579-0.654 2.482-1.866 2.482-1.25 0-1.887-0.886-1.887-2.52v-0.144c0-1.596 0.671-2.448 1.887-2.448 1.233 0 1.866 0.886 1.866 2.482zm-9.642-5.712c1.013 0 1.794-0.705 1.794-1.668 0-0.962-0.781-1.684-1.794-1.684-1.018 0-1.778 0.726-1.778 1.684 0 0.963 0.765 1.668 1.778 1.668zm1.634 0.907h-3.247v9.482h3.247zm-8.49 9.702c2.63 0 4.297-1.013 4.297-3.263 0-2.031-1.27-2.72-3.896-3.049-1.161-0.143-1.596-0.324-1.596-0.78 0-0.435 0.363-0.744 1.068-0.744 0.743 0 1.09 0.309 1.216 0.942h2.938c-0.22-2.267-1.849-3.065-4.188-3.065-2.195 0-4.06 1.013-4.06 3.12 0 1.976 1.067 2.719 3.609 3.044 1.304 0.181 1.756 0.4 1.756 0.852 0 0.473-0.363 0.781-1.161 0.781-0.925 0-1.233-0.38-1.343-1.068h-2.993c0.072 2.103 1.651 3.23 4.353 3.23zm-9.051 0c2.63 0 4.297-1.013 4.297-3.263 0-2.031-1.27-2.72-3.896-3.049-1.161-0.143-1.596-0.324-1.596-0.78 0-0.435 0.363-0.744 1.068-0.744 0.743 0 1.09 0.309 1.216 0.942h2.938c-0.215-2.267-1.85-3.065-4.188-3.065-2.195 0-4.061 1.013-4.061 3.12 0 1.976 1.068 2.719 3.61 3.044 1.304 0.181 1.76 0.4 1.76 0.852 0 0.473-0.363 0.781-1.161 0.781-0.925 0-1.233-0.38-1.343-1.068h-2.993c0.072 2.103 1.647 3.23 4.349 3.23zm-6.928-10.609c1.013 0 1.794-0.705 1.794-1.668 0-0.962-0.781-1.684-1.794-1.684-1.018 0-1.778 0.726-1.778 1.684 0 0.963 0.76 1.668 1.778 1.668zm1.634 0.907h-3.247v9.482h3.247zm-19.737 9.482h3.247v-5.492c0-1.034 0.578-1.596 1.452-1.596 0.743 0 1.216 0.473 1.216 1.431v5.657h3.208v-5.492c0-1.034 0.579-1.596 1.448-1.596 0.744 0 1.216 0.473 1.216 1.431v5.657h3.247v-6.201c0-2.377-1.305-3.534-3.103-3.534-1.195 0-2.322 0.469-3.137 1.58-0.452-1.035-1.321-1.58-2.575-1.58-1.47 0-2.465 0.798-2.972 1.706v-1.453h-3.247zm-16.456 0h3.247v-5.492c0-1.034 0.578-1.596 1.452-1.596 0.743 0 1.216 0.473 1.216 1.431v5.657h3.208v-5.492c0-1.034 0.579-1.596 1.448-1.596 0.743 0 1.216 0.473 1.216 1.431v5.657h3.247v-6.201c0-2.377-1.305-3.534-3.103-3.534-1.195 0-2.318 0.469-3.137 1.58-0.452-1.035-1.326-1.58-2.575-1.58-1.47 0-2.466 0.798-2.972 1.706v-1.453h-3.247zm-5.982-9.735c-2.938 0-5.205 1.921-5.205 4.97v0.147c0 3.065 2.267 4.842 5.184 4.842 2.922 0 5.184-1.849 5.184-4.93v-0.144c5e-3 -3.019-2.241-4.885-5.163-4.885zm1.866 5.059c0 1.579-0.654 2.482-1.866 2.482-1.25 0-1.887-0.886-1.887-2.52v-0.144c0-1.596 0.671-2.448 1.887-2.448 1.233 0 1.866 0.886 1.866 2.482zm-12.3180004 4.896c3.064 0 4.677-1.558 4.766-3.952h-2.918c-0.11 1.035-0.743 1.58-1.651 1.58-1.233 0-1.866-0.854-1.866-2.504v-0.144c0-1.595 0.671-2.41 1.811-2.41 0.942 0 1.376 0.49 1.524 1.376h3.048c-0.181-2.883-2.322-3.897-4.64-3.897-2.79 0-5.057000046 1.816-5.057000046 4.97v0.147c-0.004000004177 3.183 2.153000046 4.834 4.982000046 4.834zm109.6950044-20.703c0-3.407-2.229-4.897-4.821-4.897-2.867 0-5.13 1.92-5.13 4.969v0.147c0 3.1 2.175 4.838 5.151 4.838 2.866 0 4.513-1.215 4.804-3.356h-3.044c-0.126 0.634-0.582 1.123-1.65 1.123-1.161 0-1.887-0.726-1.976-1.976h6.674v-0.848zm-6.637-0.98c0.165-1.144 0.832-1.777 1.812-1.777 1.051 0 1.612 0.633 1.667 1.777zm-19.238004 5.822h3.247v-5.495c0-1.035 0.578-1.596 1.448-1.596 0.743 0 1.216 0.473 1.216 1.43v5.658h3.208v-5.492c0-1.035 0.578-1.596 1.448-1.596 0.743004 0 1.216004 0.473 1.216004 1.43v5.658h3.246v-6.197c0-2.377-1.304-3.538-3.098-3.538-1.195004 0-2.322004 0.468-3.137004 1.579-0.452-1.035-1.326-1.58-2.575-1.58-1.47 0-2.466 0.799-2.972 1.706v-1.452h-3.247v9.486zm-5.678-9.739c-2.592 0-4.386 1.123-4.534 3.407h3.044c0.072-0.6 0.397-1.123 1.288-1.123 1.034 0 1.25 0.6 1.25 1.507v0.215h-0.908c-3.154 0-5.041 0.87-5.041 3.099 0 2.014 1.507 2.845 3.208 2.845 1.524 0 2.36-0.633 2.812-1.321v1.106h3.154v-6.143c8e-3 -2.52-1.664-3.592-4.273-3.592zm1.052 6.42c0 0.816-0.689 1.343-1.613 1.343-0.76 0-1.123-0.346-1.123-0.886 0-0.781 0.582-1.034 1.887-1.034h0.853v0.578h-5e-3zm-16.3 3.319h3.246v-5.315c0-1.216 0.654-1.794 1.613-1.794 0.941 0 1.36 0.528 1.36 1.596v5.513h3.246v-6.163c0-2.428-1.271-3.572-3.103-3.572-1.58 0-2.61 0.798-3.12 1.777v-1.524h-3.246v9.482zm-14.16 0h3.247v-5.315c0-1.216 0.654-1.794 1.612-1.794 0.942 0 1.36 0.528 1.36 1.596v5.513h3.246v-6.163c0-2.428-1.27-3.572-3.098-3.572-1.58 0-2.61 0.798-3.12 1.777v-1.524h-3.247zm-3.111-10.389c1.013 0 1.794-0.705 1.794-1.668 0-0.962-0.78-1.684-1.794-1.684-1.017 0-1.777 0.726-1.777 1.684s0.76 1.668 1.777 1.668zm1.629 0.904h-3.246v9.48h3.246zm-8.928-0.254c-2.592 0-4.39 1.123-4.534 3.407h3.043c0.072-0.6 0.397-1.123 1.288-1.123 1.034 0 1.25 0.6 1.25 1.507v0.215h-0.908c-3.154 0-5.04 0.87-5.04 3.099 0 2.014 1.502 2.845 3.208 2.845 1.524 0 2.355-0.633 2.811-1.321v1.106h3.154v-6.143c8e-3 -2.52-1.663-3.592-4.272-3.592zm1.05 6.42c0 0.816-0.687 1.343-1.612 1.343-0.76 0-1.123-0.346-1.123-0.886 0-0.781 0.579-1.034 1.887-1.034h0.853v0.578h-4e-3zm-21.884 3.319h3.246v-5.495c0-1.035 0.579-1.596 1.453-1.596 0.743 0 1.215 0.473 1.215 1.43v5.658h3.209v-5.492c0-1.035 0.578-1.596 1.448-1.596 0.743 0 1.216 0.473 1.216 1.43v5.658h3.246v-6.197c0-2.377-1.304-3.538-3.103-3.538-1.194 0-2.318 0.468-3.137 1.579-0.451-1.035-1.325-1.58-2.575-1.58-1.469 0-2.465 0.799-2.972 1.706v-1.452h-3.246v9.486zm-6.105-9.739c-2.938 0-5.205 1.92-5.205 4.969v0.147c0 3.065 2.267 4.843 5.184 4.843 2.922 0 5.184-1.85 5.184-4.931v-0.144c5e-3 -3.014-2.245-4.884-5.163-4.884zm1.866 5.062c0 1.578-0.654 2.482-1.866 2.482-1.25 0-1.887-0.887-1.887-2.52v-0.144c0-1.596 0.671-2.448 1.887-2.448 1.233 0 1.866 0.886 1.866 2.482zm-11.2590004-8.976v5.514c-0.544-0.963-1.43-1.596-2.917-1.596-2.25 0-4.02700005 1.722-4.02700005 4.952v0.143c0 3.28 1.79400005 4.86 3.98900005 4.86 1.431 0 2.482-0.781 2.955-1.76v1.54h3.2470004v-13.653zm0.093 8.954c0 1.613-0.726 2.432-1.904 2.432-1.123 0-1.832-0.815-1.832-2.41v-0.148c0-1.65 0.65-2.466 1.866-2.466 1.195 0 1.866 0.853 1.866 2.449v0.143z" fill="#d50032"/>
 <path id="path172" d="m115.48001 41.566h8.574v-2.448h-4.04l4.26-6.687v-0.346h-8.359v2.448h3.715l-4.15 6.708z" fill="#000000"/>
</svg>
